999
DXF created by Inkscape
  0
SECTION
  2
HEADER
  9
$ACADVER
  1
AC1014
  9
$HANDSEED
  5
FFFF
  9
$MEASUREMENT
 70
     1
  0
ENDSEC
  0
SECTION
  2
TABLES
  0
TABLE
  2
VPORT
  5
8
330
0
100
AcDbSymbolTable
 70
     4
  0
VPORT
  5
2E
330
8
100
AcDbSymbolTableRecord
100
AcDbViewportTableRecord
  2
*ACTIVE
 70
     0
 10
0.0
 20
0.0
 11
1.0
 21
1.0
 12
210.0
 22
148.5
 13
0.0
 23
0.0
 14
10.0
 24
10.0
 15
10.0
 25
10.0
 16
0.0
 26
0.0
 36
1.0
 17
0.0
 27
0.0
 37
0.0
 40
341.0
 41
1.24
 42
50.0
 43
0.0
 44
0.0
 50
0.0
 51
0.0
 71
     0
 72
   100
 73
     1
 74
     3
 75
     0
 76
     0
 77
     0
 78
     0
  0
ENDTAB
  0
TABLE
  2
LTYPE
  5
5
330
0
100
AcDbSymbolTable
 70
     1
  0
LTYPE
  5
14
330
5
100
AcDbSymbolTableRecord
100
AcDbLinetypeTableRecord
  2
BYBLOCK
 70
     0
  3

 72
    65
 73
     0
 40
0.0
  0
LTYPE
  5
15
330
5
100
AcDbSymbolTableRecord
100
AcDbLinetypeTableRecord
  2
BYLAYER
 70
     0
  3

 72
    65
 73
     0
 40
0.0
  0
LTYPE
  5
16
330
5
100
AcDbSymbolTableRecord
100
AcDbLinetypeTableRecord
  2
CONTINUOUS
 70
     0
  3
Solid line
 72
    65
 73
     0
 40
0.0
  0
ENDTAB
  0
TABLE
  2
LAYER
  5
2
330
0
100
AcDbSymbolTable
 70
1
  0
LAYER
  5
10
330
2
100
AcDbSymbolTableRecord
100
AcDbLayerTableRecord
  2
0
 70
     0
 62
     7
  6
CONTINUOUS
  0
ENDTAB
  0
TABLE
  2
STYLE
  5
3
330
0
100
AcDbSymbolTable
 70
     1
  0
STYLE
  5
11
330
3
100
AcDbSymbolTableRecord
100
AcDbTextStyleTableRecord
  2
STANDARD
 70
     0
 40
0.0
 41
1.0
 50
0.0
 71
     0
 42
2.5
  3
txt
  4

  0
ENDTAB
  0
TABLE
  2
VIEW
  5
6
330
0
100
AcDbSymbolTable
 70
     0
  0
ENDTAB
  0
TABLE
  2
UCS
  5
7
330
0
100
AcDbSymbolTable
 70
     0
  0
ENDTAB
  0
TABLE
  2
APPID
  5
9
330
0
100
AcDbSymbolTable
 70
     2
  0
APPID
  5
12
330
9
100
AcDbSymbolTableRecord
100
AcDbRegAppTableRecord
  2
ACAD
 70
     0
  0
ENDTAB
  0
TABLE
  2
DIMSTYLE
  5
A
330
0
100
AcDbSymbolTable
 70
     1
  0
DIMSTYLE
105
27
330
A
100
AcDbSymbolTableRecord
100
AcDbDimStyleTableRecord
  2
ISO-25
 70
     0
  3

  4

  5

  6

  7

 40
1.0
 41
2.5
 42
0.625
 43
3.75
 44
1.25
 45
0.0
 46
0.0
 47
0.0
 48
0.0
140
2.5
141
2.5
142
0.0
143
0.03937007874016
144
1.0
145
0.0
146
1.0
147
0.625
 71
     0
 72
     0
 73
     0
 74
     0
 75
     0
 76
     0
 77
     1
 78
     8
170
     0
171
     3
172
     1
173
     0
174
     0
175
     0
176
     0
177
     0
178
     0
270
     2
271
     2
272
     2
273
     2
274
     3
340
11
275
     0
280
     0
281
     0
282
     0
283
     0
284
     8
285
     0
286
     0
287
     3
288
     0
  0
ENDTAB
  0
TABLE
  2
BLOCK_RECORD
  5
1
330
0
100
AcDbSymbolTable
 70
     1
  0
BLOCK_RECORD
  5
1F
330
1
100
AcDbSymbolTableRecord
100
AcDbBlockTableRecord
  2
*MODEL_SPACE
  0
BLOCK_RECORD
  5
1B
330
1
100
AcDbSymbolTableRecord
100
AcDbBlockTableRecord
  2
*PAPER_SPACE
  0
ENDTAB
  0
ENDSEC
  0
SECTION
  2
BLOCKS
  0
BLOCK
  5
20
330
1F
100
AcDbEntity
  8
0
100
AcDbBlockBegin
  2
*MODEL_SPACE
 70
     0
 10
0.0
 20
0.0
 30
0.0
  3
*MODEL_SPACE
  1

  0
ENDBLK
  5
21
330
1F
100
AcDbEntity
  8
0
100
AcDbBlockEnd
  0
BLOCK
  5
1C
330
1B
100
AcDbEntity
 67
     1
  8
0
100
AcDbBlockBegin
  2
*PAPER_SPACE
  1

  0
ENDBLK
  5
1D
330
1B
100
AcDbEntity
 67
     1
  8
0
100
AcDbBlockEnd
  0
ENDSEC
  0
SECTION
  2
ENTITIES
  0
SPLINE
  5
100
100
AcDbEntity
  8
0
 62
5
100
AcDbSpline
 70
0
 71
3
 72
10
 73
6
 74
4
 40
0.000000
 40
0.000000
 40
0.000000
 40
0.000000
 40
0.383749
 40
1.264635
 40
2.310847
 40
2.310847
 40
2.310847
 40
2.310847
 10
66.082283
 20
135.462333
 30
0.0
 10
65.999302
 20
135.365238
 30
0.0
 10
65.725843
 20
135.045265
 30
0.0
 10
65.139147
 20
134.520741
 30
0.0
 10
64.521641
 20
134.319709
 30
0.0
 10
64.186401
 20
134.210570
 30
0.0
 11
66.082283
 21
135.462333
 31
0.0
 11
65.828958
 21
135.174081
 31
0.0
 11
65.154326
 21
134.607659
 31
0.0
 11
64.186401
 21
134.210570
 31
0.0
  0
SPLINE
  5
101
100
AcDbEntity
  8
0
 62
5
100
AcDbSpline
 70
0
 71
3
 72
10
 73
6
 74
4
 40
0.000000
 40
0.000000
 40
0.000000
 40
0.000000
 40
1.754123
 40
3.597975
 40
5.352097
 40
5.352097
 40
5.352097
 40
5.352097
 10
64.186401
 20
134.210570
 30
0.0
 10
63.597380
 20
134.239347
 30
0.0
 10
62.389209
 20
134.298373
 30
0.0
 10
60.761626
 20
135.238058
 30
0.0
 10
60.106423
 20
136.254852
 30
0.0
 10
59.786991
 20
136.750570
 30
0.0
 11
64.186401
 21
134.210570
 31
0.0
 11
62.446440
 21
134.433020
 31
0.0
 11
60.849617
 21
135.354946
 31
0.0
 11
59.786991
 21
136.750570
 31
0.0
  0
LWPOLYLINE
  5
102
100
AcDbEntity
  8
0
 62
5
100
AcDbPolyline
 90
4
 70
0
 10
70.504377
 20
133.300294
 30
0.0
 10
65.371734
 20
136.263627
 30
0.0
 10
65.202401
 20
135.970333
 30
0.0
 10
66.082283
 20
135.462333
 30
0.0
  0
LWPOLYLINE
  5
103
100
AcDbEntity
  8
0
 62
5
100
AcDbPolyline
 90
4
 70
0
 10
59.923110
 20
139.018333
 30
0.0
 10
60.802991
 20
138.510333
 30
0.0
 10
60.972325
 20
138.803627
 30
0.0
 10
55.839682
 20
141.766960
 30
0.0
  0
LWPOLYLINE
  5
104
100
AcDbEntity
  8
0
 62
1
100
AcDbPolyline
 90
2
 70
0
 10
64.345205
 20
136.856294
 30
0.0
 10
61.998854
 20
138.210960
 30
0.0
  0
LWPOLYLINE
  5
105
100
AcDbEntity
  8
0
 62
5
100
AcDbPolyline
 90
4
 70
0
 10
70.504377
 20
133.300291
 30
0.0
 10
65.962773
 20
134.393250
 30
0.0
 10
57.163953
 20
129.313250
 30
0.0
 10
55.839682
 20
124.833624
 30
0.0
  0
LWPOLYLINE
  5
106
100
AcDbEntity
  8
0
 62
5
100
AcDbPolyline
 90
4
 70
0
 10
66.652261
 20
130.489682
 30
0.0
 10
65.642340
 20
130.884251
 30
0.0
 10
60.363049
 20
127.836251
 30
0.0
 10
60.199795
 20
126.764349
 30
0.0
  0
LWPOLYLINE
  5
107
100
AcDbEntity
  8
0
 62
1
100
AcDbPolyline
 90
2
 70
0
 10
70.504377
 20
133.300291
 30
0.0
 10
66.398261
 20
130.929624
 30
0.0
  0
LWPOLYLINE
  5
108
100
AcDbEntity
  8
0
 62
1
100
AcDbPolyline
 90
2
 70
0
 10
55.839682
 20
124.833624
 30
0.0
 10
59.945795
 20
127.204291
 30
0.0
  0
SPLINE
  5
109
100
AcDbEntity
  8
0
 62
5
100
AcDbSpline
 70
0
 71
3
 72
10
 73
6
 74
4
 40
0.000000
 40
0.000000
 40
0.000000
 40
0.000000
 40
1.046212
 40
1.927098
 40
2.310847
 40
2.310847
 40
2.310847
 40
2.310847
 10
59.786991
 20
136.750570
 30
0.0
 10
59.713888
 20
137.095467
 30
0.0
 10
59.579233
 20
137.730758
 30
0.0
 10
59.740137
 20
138.501114
 30
0.0
 10
59.880513
 20
138.897923
 30
0.0
 10
59.923110
 20
139.018333
 30
0.0
 11
59.786991
 21
136.750570
 31
0.0
 11
59.646917
 21
137.787363
 31
0.0
 11
59.800138
 21
138.654821
 31
0.0
 11
59.923110
 21
139.018333
 31
0.0
  0
SPLINE
  5
10a
100
AcDbEntity
  8
0
 62
5
100
AcDbSpline
 70
0
 71
3
 72
10
 73
6
 74
4
 40
0.000000
 40
0.000000
 40
0.000000
 40
0.000000
 40
0.383749
 40
1.264635
 40
2.310847
 40
2.310847
 40
2.310847
 40
2.310847
 10
66.082283
 20
118.528994
 30
0.0
 10
65.999302
 20
118.431899
 30
0.0
 10
65.725843
 20
118.111926
 30
0.0
 10
65.139147
 20
117.587402
 30
0.0
 10
64.521641
 20
117.386370
 30
0.0
 10
64.186401
 20
117.277231
 30
0.0
 11
66.082283
 21
118.528994
 31
0.0
 11
65.828958
 21
118.240742
 31
0.0
 11
65.154326
 21
117.674320
 31
0.0
 11
64.186401
 21
117.277231
 31
0.0
  0
SPLINE
  5
10b
100
AcDbEntity
  8
0
 62
5
100
AcDbSpline
 70
0
 71
3
 72
10
 73
6
 74
4
 40
0.000000
 40
0.000000
 40
0.000000
 40
0.000000
 40
1.754123
 40
3.597975
 40
5.352097
 40
5.352097
 40
5.352097
 40
5.352097
 10
64.186401
 20
117.277231
 30
0.0
 10
63.597380
 20
117.306008
 30
0.0
 10
62.389209
 20
117.365034
 30
0.0
 10
60.761626
 20
118.304719
 30
0.0
 10
60.106423
 20
119.321513
 30
0.0
 10
59.786991
 20
119.817231
 30
0.0
 11
64.186401
 21
117.277231
 31
0.0
 11
62.446440
 21
117.499681
 31
0.0
 11
60.849617
 21
118.421607
 31
0.0
 11
59.786991
 21
119.817231
 31
0.0
  0
LWPOLYLINE
  5
10c
100
AcDbEntity
  8
0
 62
5
100
AcDbPolyline
 90
4
 70
0
 10
70.504377
 20
116.366955
 30
0.0
 10
65.371734
 20
119.330288
 30
0.0
 10
65.202401
 20
119.036994
 30
0.0
 10
66.082283
 20
118.528994
 30
0.0
  0
LWPOLYLINE
  5
10d
100
AcDbEntity
  8
0
 62
5
100
AcDbPolyline
 90
4
 70
0
 10
59.923110
 20
122.084994
 30
0.0
 10
60.802991
 20
121.576994
 30
0.0
 10
60.972325
 20
121.870288
 30
0.0
 10
55.839682
 20
124.833621
 30
0.0
  0
LWPOLYLINE
  5
10e
100
AcDbEntity
  8
0
 62
1
100
AcDbPolyline
 90
2
 70
0
 10
64.345205
 20
119.922955
 30
0.0
 10
61.998854
 20
121.277621
 30
0.0
  0
LWPOLYLINE
  5
10f
100
AcDbEntity
  8
0
 62
5
100
AcDbPolyline
 90
4
 70
0
 10
87.437801
 20
116.366952
 30
0.0
 10
84.051117
 20
113.149601
 30
0.0
 10
73.891061
 20
113.149601
 30
0.0
 10
70.504377
 20
116.366952
 30
0.0
  0
LWPOLYLINE
  5
110
100
AcDbEntity
  8
0
 62
5
100
AcDbPolyline
 90
4
 70
0
 10
82.696442
 20
116.874955
 30
0.0
 10
82.019106
 20
116.028282
 30
0.0
 10
75.923072
 20
116.028282
 30
0.0
 10
75.245736
 20
116.874955
 30
0.0
  0
LWPOLYLINE
  5
111
100
AcDbEntity
  8
0
 62
1
100
AcDbPolyline
 90
2
 70
0
 10
87.437801
 20
116.366952
 30
0.0
 10
82.696442
 20
116.366952
 30
0.0
  0
LWPOLYLINE
  5
112
100
AcDbEntity
  8
0
 62
1
100
AcDbPolyline
 90
2
 70
0
 10
70.504377
 20
116.366952
 30
0.0
 10
75.245736
 20
116.366952
 30
0.0
  0
SPLINE
  5
113
100
AcDbEntity
  8
0
 62
5
100
AcDbSpline
 70
0
 71
3
 72
10
 73
6
 74
4
 40
0.000000
 40
0.000000
 40
0.000000
 40
0.000000
 40
1.046212
 40
1.927098
 40
2.310847
 40
2.310847
 40
2.310847
 40
2.310847
 10
59.786991
 20
119.817231
 30
0.0
 10
59.713888
 20
120.162128
 30
0.0
 10
59.579233
 20
120.797419
 30
0.0
 10
59.740137
 20
121.567775
 30
0.0
 10
59.880513
 20
121.964584
 30
0.0
 10
59.923110
 20
122.084994
 30
0.0
 11
59.786991
 21
119.817231
 31
0.0
 11
59.646917
 21
120.854024
 31
0.0
 11
59.800138
 21
121.721482
 31
0.0
 11
59.923110
 21
122.084994
 31
0.0
  0
SPLINE
  5
114
100
AcDbEntity
  8
0
 62
5
100
AcDbSpline
 70
0
 71
3
 72
10
 73
6
 74
4
 40
0.000000
 40
0.000000
 40
0.000000
 40
0.000000
 40
0.383747
 40
1.264632
 40
2.310840
 40
2.310840
 40
2.310840
 40
2.310840
 10
91.859876
 20
118.528983
 30
0.0
 10
91.942856
 20
118.431888
 30
0.0
 10
92.216314
 20
118.111916
 30
0.0
 10
92.803009
 20
117.587393
 30
0.0
 10
93.420512
 20
117.386362
 30
0.0
 10
93.755752
 20
117.277223
 30
0.0
 11
91.859876
 21
118.528983
 31
0.0
 11
92.113200
 21
118.240731
 31
0.0
 11
92.787830
 21
117.674311
 31
0.0
 11
93.755752
 21
117.277223
 31
0.0
  0
SPLINE
  5
115
100
AcDbEntity
  8
0
 62
5
100
AcDbSpline
 70
0
 71
3
 72
10
 73
6
 74
4
 40
0.000000
 40
0.000000
 40
0.000000
 40
0.000000
 40
1.754113
 40
3.597957
 40
5.352072
 40
5.352072
 40
5.352072
 40
5.352072
 10
93.755752
 20
117.277223
 30
0.0
 10
94.344769
 20
117.306000
 30
0.0
 10
95.552935
 20
117.365025
 30
0.0
 10
97.180509
 20
118.304707
 30
0.0
 10
97.835711
 20
119.321496
 30
0.0
 10
98.155142
 20
119.817212
 30
0.0
 11
93.755752
 21
117.277223
 31
0.0
 11
95.495703
 21
117.499671
 31
0.0
 11
97.092519
 21
118.421594
 31
0.0
 11
98.155142
 21
119.817212
 31
0.0
  0
LWPOLYLINE
  5
116
100
AcDbEntity
  8
0
 62
5
100
AcDbPolyline
 90
4
 70
0
 10
87.437801
 20
116.366952
 30
0.0
 10
92.570421
 20
119.330271
 30
0.0
 10
92.739755
 20
119.036980
 30
0.0
 10
91.859876
 20
118.528983
 30
0.0
  0
LWPOLYLINE
  5
117
100
AcDbEntity
  8
0
 62
5
100
AcDbPolyline
 90
4
 70
0
 10
98.019023
 20
122.084966
 30
0.0
 10
97.139145
 20
121.576969
 30
0.0
 10
96.969811
 20
121.870262
 30
0.0
 10
102.102435
 20
124.833582
 30
0.0
  0
LWPOLYLINE
  5
118
100
AcDbEntity
  8
0
 62
1
100
AcDbPolyline
 90
2
 70
0
 10
93.596948
 20
119.922938
 30
0.0
 10
95.943287
 20
121.277596
 30
0.0
  0
LWPOLYLINE
  5
119
100
AcDbEntity
  8
0
 62
5
100
AcDbPolyline
 90
4
 70
0
 10
87.437778
 20
133.300251
 30
0.0
 10
91.979366
 20
134.393205
 30
0.0
 10
100.778143
 20
129.313227
 30
0.0
 10
102.102412
 20
124.833621
 30
0.0
  0
LWPOLYLINE
  5
11a
100
AcDbEntity
  8
0
 62
5
100
AcDbPolyline
 90
4
 70
0
 10
91.289878
 20
130.489657
 30
0.0
 10
92.299793
 20
130.884223
 30
0.0
 10
97.579061
 20
127.836234
 30
0.0
 10
97.742316
 20
126.764337
 30
0.0
  0
LWPOLYLINE
  5
11b
100
AcDbEntity
  8
0
 62
1
100
AcDbPolyline
 90
2
 70
0
 10
87.437778
 20
133.300251
 30
0.0
 10
91.543875
 20
130.929596
 30
0.0
  0
LWPOLYLINE
  5
11c
100
AcDbEntity
  8
0
 62
1
100
AcDbPolyline
 90
2
 70
0
 10
102.102412
 20
124.833621
 30
0.0
 10
97.996316
 20
127.204277
 30
0.0
  0
SPLINE
  5
11d
100
AcDbEntity
  8
0
 62
5
100
AcDbSpline
 70
0
 71
3
 72
10
 73
6
 74
4
 40
0.000000
 40
0.000000
 40
0.000000
 40
0.000000
 40
1.046208
 40
1.927091
 40
2.310838
 40
2.310838
 40
2.310838
 40
2.310838
 10
98.155142
 20
119.817212
 30
0.0
 10
98.228245
 20
120.162107
 30
0.0
 10
98.362898
 20
120.797396
 30
0.0
 10
98.201995
 20
121.567749
 30
0.0
 10
98.061620
 20
121.964556
 30
0.0
 10
98.019023
 20
122.084966
 30
0.0
 11
98.155142
 21
119.817212
 31
0.0
 11
98.295215
 21
120.854000
 31
0.0
 11
98.141995
 21
121.721456
 31
0.0
 11
98.019023
 21
122.084966
 31
0.0
  0
SPLINE
  5
11e
100
AcDbEntity
  8
0
 62
5
100
AcDbSpline
 70
0
 71
3
 72
10
 73
6
 74
4
 40
0.000000
 40
0.000000
 40
0.000000
 40
0.000000
 40
0.383747
 40
1.264632
 40
2.310840
 40
2.310840
 40
2.310840
 40
2.310840
 10
91.859876
 20
135.462322
 30
0.0
 10
91.942856
 20
135.365227
 30
0.0
 10
92.216314
 20
135.045255
 30
0.0
 10
92.803009
 20
134.520732
 30
0.0
 10
93.420512
 20
134.319701
 30
0.0
 10
93.755752
 20
134.210562
 30
0.0
 11
91.859876
 21
135.462322
 31
0.0
 11
92.113200
 21
135.174070
 31
0.0
 11
92.787830
 21
134.607650
 31
0.0
 11
93.755752
 21
134.210562
 31
0.0
  0
SPLINE
  5
11f
100
AcDbEntity
  8
0
 62
5
100
AcDbSpline
 70
0
 71
3
 72
10
 73
6
 74
4
 40
0.000000
 40
0.000000
 40
0.000000
 40
0.000000
 40
1.754113
 40
3.597957
 40
5.352072
 40
5.352072
 40
5.352072
 40
5.352072
 10
93.755752
 20
134.210562
 30
0.0
 10
94.344769
 20
134.239339
 30
0.0
 10
95.552935
 20
134.298364
 30
0.0
 10
97.180509
 20
135.238046
 30
0.0
 10
97.835711
 20
136.254835
 30
0.0
 10
98.155142
 20
136.750551
 30
0.0
 11
93.755752
 21
134.210562
 31
0.0
 11
95.495703
 21
134.433010
 31
0.0
 11
97.092519
 21
135.354933
 31
0.0
 11
98.155142
 21
136.750551
 31
0.0
  0
LWPOLYLINE
  5
120
100
AcDbEntity
  8
0
 62
5
100
AcDbPolyline
 90
4
 70
0
 10
87.437801
 20
133.300291
 30
0.0
 10
92.570421
 20
136.263610
 30
0.0
 10
92.739755
 20
135.970319
 30
0.0
 10
91.859876
 20
135.462322
 30
0.0
  0
LWPOLYLINE
  5
121
100
AcDbEntity
  8
0
 62
5
100
AcDbPolyline
 90
4
 70
0
 10
98.019023
 20
139.018305
 30
0.0
 10
97.139145
 20
138.510308
 30
0.0
 10
96.969811
 20
138.803601
 30
0.0
 10
102.102435
 20
141.766921
 30
0.0
  0
LWPOLYLINE
  5
122
100
AcDbEntity
  8
0
 62
1
100
AcDbPolyline
 90
2
 70
0
 10
93.596948
 20
136.856277
 30
0.0
 10
95.943287
 20
138.210935
 30
0.0
  0
LWPOLYLINE
  5
123
100
AcDbEntity
  8
0
 62
5
100
AcDbPolyline
 90
4
 70
0
 10
102.102412
 20
141.766960
 30
0.0
 10
103.426692
 20
137.287315
 30
0.0
 10
112.225545
 20
132.207292
 30
0.0
 10
116.767173
 20
133.300257
 30
0.0
  0
LWPOLYLINE
  5
124
100
AcDbEntity
  8
0
 62
5
100
AcDbPolyline
 90
4
 70
0
 10
106.462545
 20
139.836227
 30
0.0
 10
106.625802
 20
138.764319
 30
0.0
 10
111.905116
 20
135.716308
 30
0.0
 10
112.915040
 20
136.110877
 30
0.0
  0
LWPOLYLINE
  5
125
100
AcDbEntity
  8
0
 62
1
100
AcDbPolyline
 90
2
 70
0
 10
102.102412
 20
141.766960
 30
0.0
 10
106.208545
 20
139.396282
 30
0.0
  0
LWPOLYLINE
  5
126
100
AcDbEntity
  8
0
 62
1
100
AcDbPolyline
 90
2
 70
0
 10
116.767173
 20
133.300257
 30
0.0
 10
112.661040
 20
135.670935
 30
0.0
  0
SPLINE
  5
127
100
AcDbEntity
  8
0
 62
5
100
AcDbSpline
 70
0
 71
3
 72
10
 73
6
 74
4
 40
0.000000
 40
0.000000
 40
0.000000
 40
0.000000
 40
1.046208
 40
1.927091
 40
2.310838
 40
2.310838
 40
2.310838
 40
2.310838
 10
98.155142
 20
136.750551
 30
0.0
 10
98.228245
 20
137.095446
 30
0.0
 10
98.362898
 20
137.730735
 30
0.0
 10
98.201995
 20
138.501088
 30
0.0
 10
98.061620
 20
138.897895
 30
0.0
 10
98.019023
 20
139.018305
 30
0.0
 11
98.155142
 21
136.750551
 31
0.0
 11
98.295215
 21
137.787339
 31
0.0
 11
98.141995
 21
138.654795
 31
0.0
 11
98.019023
 21
139.018305
 31
0.0
  0
SPLINE
  5
128
100
AcDbEntity
  8
0
 62
5
100
AcDbSpline
 70
0
 71
3
 72
10
 73
6
 74
4
 40
0.000000
 40
0.000000
 40
0.000000
 40
0.000000
 40
0.383748
 40
1.264635
 40
2.310847
 40
2.310847
 40
2.310847
 40
2.310847
 10
128.789862
 20
132.961624
 30
0.0
 10
128.766546
 20
132.836048
 30
0.0
 10
128.689711
 20
132.422213
 30
0.0
 10
128.443879
 20
131.674613
 30
0.0
 10
128.009619
 20
131.191761
 30
0.0
 10
127.773862
 20
130.929624
 30
0.0
 11
128.789862
 21
132.961624
 31
0.0
 11
128.714603
 21
132.585328
 31
0.0
 11
128.413566
 21
131.757476
 31
0.0
 11
127.773862
 21
130.929624
 31
0.0
  0
SPLINE
  5
129
100
AcDbEntity
  8
0
 62
5
100
AcDbSpline
 70
0
 71
3
 72
10
 73
6
 74
4
 40
0.000000
 40
0.000000
 40
0.000000
 40
0.000000
 40
1.754122
 40
3.597974
 40
5.352096
 40
5.352096
 40
5.352096
 40
5.352096
 10
127.773862
 20
130.929624
 30
0.0
 10
127.249367
 20
130.660035
 30
0.0
 10
126.173547
 20
130.107068
 30
0.0
 10
124.294177
 20
130.107068
 30
0.0
 10
123.218357
 20
130.660035
 30
0.0
 10
122.693862
 20
130.929624
 30
0.0
 11
127.773862
 21
130.929624
 31
0.0
 11
126.155788
 21
130.252291
 31
0.0
 11
124.311936
 21
130.252291
 31
0.0
 11
122.693862
 21
130.929624
 31
0.0
  0
LWPOLYLINE
  5
12a
100
AcDbEntity
  8
0
 62
5
100
AcDbPolyline
 90
4
 70
0
 10
133.700531
 20
133.300291
 30
0.0
 10
127.773862
 20
133.300291
 30
0.0
 10
127.773862
 20
132.961624
 30
0.0
 10
128.789862
 20
132.961624
 30
0.0
  0
LWPOLYLINE
  5
12b
100
AcDbEntity
  8
0
 62
5
100
AcDbPolyline
 90
4
 70
0
 10
121.677862
 20
132.961624
 30
0.0
 10
122.693862
 20
132.961624
 30
0.0
 10
122.693862
 20
133.300291
 30
0.0
 10
116.767192
 20
133.300291
 30
0.0
  0
LWPOLYLINE
  5
12c
100
AcDbEntity
  8
0
 62
1
100
AcDbPolyline
 90
2
 70
0
 10
126.588528
 20
133.300291
 30
0.0
 10
123.879195
 20
133.300291
 30
0.0
  0
LWPOLYLINE
  5
12d
100
AcDbEntity
  8
0
 62
5
100
AcDbPolyline
 90
4
 70
0
 10
148.365165
 20
141.766921
 30
0.0
 10
147.040899
 20
137.287315
 30
0.0
 10
138.242119
 20
132.207337
 30
0.0
 10
133.700531
 20
133.300291
 30
0.0
  0
LWPOLYLINE
  5
12e
100
AcDbEntity
  8
0
 62
5
100
AcDbPolyline
 90
4
 70
0
 10
144.005069
 20
139.836205
 30
0.0
 10
143.841814
 20
138.764308
 30
0.0
 10
138.562546
 20
135.716319
 30
0.0
 10
137.552630
 20
136.110885
 30
0.0
  0
LWPOLYLINE
  5
12f
100
AcDbEntity
  8
0
 62
1
100
AcDbPolyline
 90
2
 70
0
 10
148.365165
 20
141.766921
 30
0.0
 10
144.259069
 20
139.396265
 30
0.0
  0
LWPOLYLINE
  5
130
100
AcDbEntity
  8
0
 62
1
100
AcDbPolyline
 90
2
 70
0
 10
133.700531
 20
133.300291
 30
0.0
 10
137.806628
 20
135.670946
 30
0.0
  0
SPLINE
  5
131
100
AcDbEntity
  8
0
 62
5
100
AcDbSpline
 70
0
 71
3
 72
10
 73
6
 74
4
 40
0.000000
 40
0.000000
 40
0.000000
 40
0.000000
 40
1.046212
 40
1.927099
 40
2.310847
 40
2.310847
 40
2.310847
 40
2.310847
 10
122.693862
 20
130.929624
 30
0.0
 10
122.458104
 20
131.191761
 30
0.0
 10
122.023844
 20
131.674613
 30
0.0
 10
121.778013
 20
132.422213
 30
0.0
 10
121.701177
 20
132.836048
 30
0.0
 10
121.677862
 20
132.961624
 30
0.0
 11
122.693862
 21
130.929624
 31
0.0
 11
122.054158
 21
131.757476
 31
0.0
 11
121.753121
 21
132.585328
 31
0.0
 11
121.677862
 21
132.961624
 31
0.0
  0
SPLINE
  5
132
100
AcDbEntity
  8
0
 62
5
100
AcDbSpline
 70
0
 71
3
 72
10
 73
6
 74
4
 40
0.000000
 40
0.000000
 40
0.000000
 40
0.000000
 40
0.383750
 40
1.264641
 40
2.310858
 40
2.310858
 40
2.310858
 40
2.310858
 10
151.113778
 20
145.850405
 30
0.0
 10
151.234189
 20
145.807809
 30
0.0
 10
151.630999
 20
145.667433
 30
0.0
 10
152.401359
 20
145.506529
 30
0.0
 10
153.036654
 20
145.641183
 30
0.0
 10
153.381552
 20
145.714287
 30
0.0
 11
151.113778
 21
145.850405
 31
0.0
 11
151.477291
 21
145.727433
 31
0.0
 11
152.344754
 21
145.574213
 31
0.0
 11
153.381552
 21
145.714287
 31
0.0
  0
SPLINE
  5
133
100
AcDbEntity
  8
0
 62
5
100
AcDbSpline
 70
0
 71
3
 72
10
 73
6
 74
4
 40
0.000000
 40
0.000000
 40
0.000000
 40
0.000000
 40
1.754131
 40
3.597990
 40
5.352120
 40
5.352120
 40
5.352120
 40
5.352120
 10
153.381552
 20
145.714287
 30
0.0
 10
153.877272
 20
146.033720
 30
0.0
 10
154.894071
 20
146.688927
 30
0.0
 10
155.833760
 20
148.316517
 30
0.0
 10
155.892786
 20
149.524693
 30
0.0
 10
155.921563
 20
150.113716
 30
0.0
 11
153.381552
 21
145.714287
 31
0.0
 11
154.777183
 21
146.776919
 31
0.0
 11
155.699113
 21
148.373749
 31
0.0
 11
155.921563
 21
150.113716
 31
0.0
  0
LWPOLYLINE
  5
134
100
AcDbEntity
  8
0
 62
5
100
AcDbPolyline
 90
4
 70
0
 10
148.365139
 20
141.766960
 30
0.0
 10
151.328487
 20
146.899626
 30
0.0
 10
151.621781
 20
146.730292
 30
0.0
 10
151.113778
 20
145.850405
 30
0.0
  0
LWPOLYLINE
  5
135
100
AcDbEntity
  8
0
 62
5
100
AcDbPolyline
 90
4
 70
0
 10
154.669795
 20
152.009606
 30
0.0
 10
154.161792
 20
151.129719
 30
0.0
 10
153.868495
 20
151.299055
 30
0.0
 10
156.831843
 20
156.431721
 30
0.0
  0
LWPOLYLINE
  5
136
100
AcDbEntity
  8
0
 62
1
100
AcDbPolyline
 90
2
 70
0
 10
151.921154
 20
147.926158
 30
0.0
 10
153.275829
 20
150.272520
 30
0.0
  0
LWPOLYLINE
  5
137
100
AcDbEntity
  8
0
 62
5
100
AcDbPolyline
 90
4
 70
0
 10
139.898470
 20
156.431741
 30
0.0
 10
143.285137
 20
159.649074
 30
0.0
 10
153.445142
 20
159.649074
 30
0.0
 10
156.831809
 20
156.431741
 30
0.0
  0
LWPOLYLINE
  5
138
100
AcDbEntity
  8
0
 62
5
100
AcDbPolyline
 90
4
 70
0
 10
144.639806
 20
155.923741
 30
0.0
 10
145.317139
 20
156.770407
 30
0.0
 10
151.413139
 20
156.770407
 30
0.0
 10
152.090476
 20
155.923741
 30
0.0
  0
LWPOLYLINE
  5
139
100
AcDbEntity
  8
0
 62
1
100
AcDbPolyline
 90
2
 70
0
 10
139.898470
 20
156.431741
 30
0.0
 10
144.639806
 20
156.431741
 30
0.0
  0
LWPOLYLINE
  5
13a
100
AcDbEntity
  8
0
 62
1
100
AcDbPolyline
 90
2
 70
0
 10
156.831809
 20
156.431741
 30
0.0
 10
152.090476
 20
156.431741
 30
0.0
  0
SPLINE
  5
13b
100
AcDbEntity
  8
0
 62
5
100
AcDbSpline
 70
0
 71
3
 72
10
 73
6
 74
4
 40
0.000000
 40
0.000000
 40
0.000000
 40
0.000000
 40
1.046216
 40
1.927107
 40
2.310857
 40
2.310857
 40
2.310857
 40
2.310857
 10
155.921563
 20
150.113716
 30
0.0
 10
155.812424
 20
150.448958
 30
0.0
 10
155.611392
 20
151.066467
 30
0.0
 10
155.086865
 20
151.653165
 30
0.0
 10
154.766890
 20
151.926626
 30
0.0
 10
154.669795
 20
152.009606
 30
0.0
 11
155.921563
 21
150.113716
 31
0.0
 11
155.524473
 21
151.081646
 31
0.0
 11
154.958049
 21
151.756280
 31
0.0
 11
154.669795
 21
152.009606
 31
0.0
  0
SPLINE
  5
13c
100
AcDbEntity
  8
0
 62
5
100
AcDbSpline
 70
0
 71
3
 72
10
 73
6
 74
4
 40
0.000000
 40
0.000000
 40
0.000000
 40
0.000000
 40
0.383747
 40
1.264630
 40
2.310838
 40
2.310838
 40
2.310838
 40
2.310838
 10
129.317248
 20
150.713726
 30
0.0
 10
129.274651
 20
150.834136
 30
0.0
 10
129.134276
 20
151.230943
 30
0.0
 10
128.973372
 20
152.001297
 30
0.0
 10
129.108026
 20
152.636586
 30
0.0
 10
129.181129
 20
152.981481
 30
0.0
 11
129.317248
 21
150.713726
 31
0.0
 11
129.194276
 21
151.077236
 31
0.0
 11
129.041056
 21
151.944692
 31
0.0
 11
129.181129
 21
152.981481
 31
0.0
  0
SPLINE
  5
13d
100
AcDbEntity
  8
0
 62
5
100
AcDbSpline
 70
0
 71
3
 72
10
 73
6
 74
4
 40
0.000000
 40
0.000000
 40
0.000000
 40
0.000000
 40
1.754114
 40
3.597958
 40
5.352072
 40
5.352072
 40
5.352072
 40
5.352072
 10
129.181129
 20
152.981481
 30
0.0
 10
129.500559
 20
153.477196
 30
0.0
 10
130.155761
 20
154.493986
 30
0.0
 10
131.783335
 20
155.433667
 30
0.0
 10
132.991502
 20
155.492693
 30
0.0
 10
133.580519
 20
155.521469
 30
0.0
 11
129.181129
 21
152.981481
 31
0.0
 11
130.243751
 21
154.377099
 31
0.0
 11
131.840567
 21
155.299021
 31
0.0
 11
133.580519
 21
155.521469
 31
0.0
  0
LWPOLYLINE
  5
13e
100
AcDbEntity
  8
0
 62
5
100
AcDbPolyline
 90
4
 70
0
 10
125.233836
 20
147.965111
 30
0.0
 10
130.366457
 20
150.928430
 30
0.0
 10
130.197126
 20
151.221724
 30
0.0
 10
129.317248
 20
150.713726
 30
0.0
  0
LWPOLYLINE
  5
13f
100
AcDbEntity
  8
0
 62
5
100
AcDbPolyline
 90
4
 70
0
 10
135.476392
 20
154.269709
 30
0.0
 10
134.596516
 20
153.761712
 30
0.0
 10
134.765847
 20
153.468421
 30
0.0
 10
139.898470
 20
156.431741
 30
0.0
  0
LWPOLYLINE
  5
140
100
AcDbEntity
  8
0
 62
1
100
AcDbPolyline
 90
2
 70
0
 10
131.392984
 20
151.521096
 30
0.0
 10
133.739323
 20
152.875755
 30
0.0
  0
LWPOLYLINE
  5
141
100
AcDbEntity
  8
0
 62
5
100
AcDbPolyline
 90
4
 70
0
 10
110.569101
 20
156.431774
 30
0.0
 10
115.110726
 20
157.524739
 30
0.0
 10
123.909582
 20
152.444717
 30
0.0
 10
125.233862
 20
147.965071
 30
0.0
  0
LWPOLYLINE
  5
142
100
AcDbEntity
  8
0
 62
5
100
AcDbPolyline
 90
4
 70
0
 10
114.421234
 20
153.621154
 30
0.0
 10
115.431158
 20
154.015724
 30
0.0
 10
120.710472
 20
150.967712
 30
0.0
 10
120.873729
 20
149.895804
 30
0.0
  0
LWPOLYLINE
  5
143
100
AcDbEntity
  8
0
 62
1
100
AcDbPolyline
 90
2
 70
0
 10
110.569101
 20
156.431774
 30
0.0
 10
114.675234
 20
154.061096
 30
0.0
  0
LWPOLYLINE
  5
144
100
AcDbEntity
  8
0
 62
1
100
AcDbPolyline
 90
2
 70
0
 10
125.233862
 20
147.965071
 30
0.0
 10
121.127729
 20
150.335749
 30
0.0
  0
SPLINE
  5
145
100
AcDbEntity
  8
0
 62
5
100
AcDbSpline
 70
0
 71
3
 72
10
 73
6
 74
4
 40
0.000000
 40
0.000000
 40
0.000000
 40
0.000000
 40
1.046208
 40
1.927091
 40
2.310838
 40
2.310838
 40
2.310838
 40
2.310838
 10
133.580519
 20
155.521469
 30
0.0
 10
133.915758
 20
155.412331
 30
0.0
 10
134.533261
 20
155.211300
 30
0.0
 10
135.119955
 20
154.686776
 30
0.0
 10
135.393412
 20
154.366804
 30
0.0
 10
135.476392
 20
154.269709
 30
0.0
 11
133.580519
 21
155.521469
 31
0.0
 11
134.548440
 21
155.124382
 31
0.0
 11
135.223069
 21
154.557961
 31
0.0
 11
135.476392
 21
154.269709
 31
0.0
  0
SPLINE
  5
146
100
AcDbEntity
  8
0
 62
5
100
AcDbSpline
 70
0
 71
3
 72
10
 73
6
 74
4
 40
0.000000
 40
0.000000
 40
0.000000
 40
0.000000
 40
0.383750
 40
1.264641
 40
2.310857
 40
2.310857
 40
2.310857
 40
2.310857
 10
114.991196
 20
158.593789
 30
0.0
 10
115.074177
 20
158.496693
 30
0.0
 10
115.347637
 20
158.176719
 30
0.0
 10
115.934336
 20
157.652191
 30
0.0
 10
116.551844
 20
157.451159
 30
0.0
 10
116.887086
 20
157.342020
 30
0.0
 11
114.991196
 21
158.593789
 31
0.0
 11
115.244522
 21
158.305535
 31
0.0
 11
115.919157
 21
157.739110
 31
0.0
 11
116.887086
 21
157.342020
 31
0.0
  0
SPLINE
  5
147
100
AcDbEntity
  8
0
 62
5
100
AcDbSpline
 70
0
 71
3
 72
10
 73
6
 74
4
 40
0.000000
 40
0.000000
 40
0.000000
 40
0.000000
 40
1.754130
 40
3.597990
 40
5.352120
 40
5.352120
 40
5.352120
 40
5.352120
 10
116.887086
 20
157.342020
 30
0.0
 10
117.476109
 20
157.370797
 30
0.0
 10
118.684285
 20
157.429824
 30
0.0
 10
120.311875
 20
158.369512
 30
0.0
 10
120.967082
 20
159.386311
 30
0.0
 10
121.286516
 20
159.882031
 30
0.0
 11
116.887086
 21
157.342020
 31
0.0
 11
118.627054
 21
157.564471
 31
0.0
 11
120.223883
 21
158.486400
 31
0.0
 11
121.286516
 21
159.882031
 31
0.0
  0
LWPOLYLINE
  5
148
100
AcDbEntity
  8
0
 62
5
100
AcDbPolyline
 90
4
 70
0
 10
110.569081
 20
156.431741
 30
0.0
 10
115.701747
 20
159.395088
 30
0.0
 10
115.871080
 20
159.101791
 30
0.0
 10
114.991196
 20
158.593789
 30
0.0
  0
LWPOLYLINE
  5
149
100
AcDbEntity
  8
0
 62
5
100
AcDbPolyline
 90
4
 70
0
 10
121.150394
 20
162.149805
 30
0.0
 10
120.270510
 20
161.641803
 30
0.0
 10
120.101177
 20
161.935096
 30
0.0
 10
125.233842
 20
164.898444
 30
0.0
  0
LWPOLYLINE
  5
14a
100
AcDbEntity
  8
0
 62
1
100
AcDbPolyline
 90
2
 70
0
 10
116.728280
 20
159.987755
 30
0.0
 10
119.074641
 20
161.342430
 30
0.0
  0
LWPOLYLINE
  5
14b
100
AcDbEntity
  8
0
 62
5
100
AcDbPolyline
 90
4
 70
0
 10
110.569101
 20
173.365113
 30
0.0
 10
115.110726
 20
174.458078
 30
0.0
 10
123.909582
 20
169.378056
 30
0.0
 10
125.233862
 20
164.898410
 30
0.0
  0
LWPOLYLINE
  5
14c
100
AcDbEntity
  8
0
 62
5
100
AcDbPolyline
 90
4
 70
0
 10
114.421234
 20
170.554493
 30
0.0
 10
115.431158
 20
170.949063
 30
0.0
 10
120.710472
 20
167.901051
 30
0.0
 10
120.873729
 20
166.829143
 30
0.0
  0
LWPOLYLINE
  5
14d
100
AcDbEntity
  8
0
 62
1
100
AcDbPolyline
 90
2
 70
0
 10
110.569101
 20
173.365113
 30
0.0
 10
114.675234
 20
170.994435
 30
0.0
  0
LWPOLYLINE
  5
14e
100
AcDbEntity
  8
0
 62
1
100
AcDbPolyline
 90
2
 70
0
 10
125.233862
 20
164.898410
 30
0.0
 10
121.127729
 20
167.269088
 30
0.0
  0
SPLINE
  5
14f
100
AcDbEntity
  8
0
 62
5
100
AcDbSpline
 70
0
 71
3
 72
10
 73
6
 74
4
 40
0.000000
 40
0.000000
 40
0.000000
 40
0.000000
 40
1.046217
 40
1.927108
 40
2.310858
 40
2.310858
 40
2.310858
 40
2.310858
 10
121.286516
 20
159.882031
 30
0.0
 10
121.359619
 20
160.226929
 30
0.0
 10
121.494273
 20
160.862224
 30
0.0
 10
121.333368
 20
161.632584
 30
0.0
 10
121.192991
 20
162.029395
 30
0.0
 10
121.150394
 20
162.149805
 30
0.0
 11
121.286516
 21
159.882031
 31
0.0
 11
121.426589
 21
160.918829
 31
0.0
 11
121.273367
 21
161.786292
 31
0.0
 11
121.150394
 21
162.149805
 31
0.0
  0
SPLINE
  5
150
100
AcDbEntity
  8
0
 62
5
100
AcDbSpline
 70
0
 71
3
 72
10
 73
6
 74
4
 40
0.000000
 40
0.000000
 40
0.000000
 40
0.000000
 40
0.383748
 40
1.264635
 40
2.310847
 40
2.310847
 40
2.310847
 40
2.310847
 10
98.546412
 20
173.703746
 30
0.0
 10
98.569727
 20
173.829323
 30
0.0
 10
98.646563
 20
174.243157
 30
0.0
 10
98.892395
 20
174.990757
 30
0.0
 10
99.326655
 20
175.473609
 30
0.0
 10
99.562412
 20
175.735746
 30
0.0
 11
98.546412
 21
173.703746
 31
0.0
 11
98.621671
 21
174.080042
 31
0.0
 11
98.922708
 21
174.907894
 31
0.0
 11
99.562412
 21
175.735746
 31
0.0
  0
SPLINE
  5
151
100
AcDbEntity
  8
0
 62
5
100
AcDbSpline
 70
0
 71
3
 72
10
 73
6
 74
4
 40
0.000000
 40
0.000000
 40
0.000000
 40
0.000000
 40
1.754122
 40
3.597974
 40
5.352096
 40
5.352096
 40
5.352096
 40
5.352096
 10
99.562412
 20
175.735746
 30
0.0
 10
100.086907
 20
176.005335
 30
0.0
 10
101.162727
 20
176.558303
 30
0.0
 10
103.042097
 20
176.558303
 30
0.0
 10
104.117917
 20
176.005335
 30
0.0
 10
104.642412
 20
175.735746
 30
0.0
 11
99.562412
 21
175.735746
 31
0.0
 11
101.180486
 21
176.413079
 31
0.0
 11
103.024338
 21
176.413079
 31
0.0
 11
104.642412
 21
175.735746
 31
0.0
  0
LWPOLYLINE
  5
152
100
AcDbEntity
  8
0
 62
5
100
AcDbPolyline
 90
4
 70
0
 10
93.635743
 20
173.365079
 30
0.0
 10
99.562412
 20
173.365079
 30
0.0
 10
99.562412
 20
173.703746
 30
0.0
 10
98.546412
 20
173.703746
 30
0.0
  0
LWPOLYLINE
  5
153
100
AcDbEntity
  8
0
 62
5
100
AcDbPolyline
 90
4
 70
0
 10
105.658412
 20
173.703746
 30
0.0
 10
104.642412
 20
173.703746
 30
0.0
 10
104.642412
 20
173.365079
 30
0.0
 10
110.569081
 20
173.365079
 30
0.0
  0
LWPOLYLINE
  5
154
100
AcDbEntity
  8
0
 62
1
100
AcDbPolyline
 90
2
 70
0
 10
100.747745
 20
173.365079
 30
0.0
 10
103.457079
 20
173.365079
 30
0.0
  0
LWPOLYLINE
  5
155
100
AcDbEntity
  8
0
 62
5
100
AcDbPolyline
 90
4
 70
0
 10
93.635743
 20
173.365079
 30
0.0
 10
89.094155
 20
174.458033
 30
0.0
 10
80.295377
 20
169.378056
 30
0.0
 10
78.971109
 20
164.898450
 30
0.0
  0
LWPOLYLINE
  5
156
100
AcDbEntity
  8
0
 62
5
100
AcDbPolyline
 90
4
 70
0
 10
89.783643
 20
170.554485
 30
0.0
 10
88.773728
 20
170.949051
 30
0.0
 10
83.494459
 20
167.901063
 30
0.0
 10
83.331205
 20
166.829166
 30
0.0
  0
LWPOLYLINE
  5
157
100
AcDbEntity
  8
0
 62
1
100
AcDbPolyline
 90
2
 70
0
 10
93.635743
 20
173.365079
 30
0.0
 10
89.529646
 20
170.994424
 30
0.0
  0
LWPOLYLINE
  5
158
100
AcDbEntity
  8
0
 62
1
100
AcDbPolyline
 90
2
 70
0
 10
78.971109
 20
164.898450
 30
0.0
 10
83.077205
 20
167.269105
 30
0.0
  0
SPLINE
  5
159
100
AcDbEntity
  8
0
 62
5
100
AcDbSpline
 70
0
 71
3
 72
10
 73
6
 74
4
 40
0.000000
 40
0.000000
 40
0.000000
 40
0.000000
 40
1.046212
 40
1.927099
 40
2.310847
 40
2.310847
 40
2.310847
 40
2.310847
 10
104.642412
 20
175.735746
 30
0.0
 10
104.878169
 20
175.473609
 30
0.0
 10
105.312429
 20
174.990757
 30
0.0
 10
105.558261
 20
174.243157
 30
0.0
 10
105.635097
 20
173.829323
 30
0.0
 10
105.658412
 20
173.703746
 30
0.0
 11
104.642412
 21
175.735746
 31
0.0
 11
105.282116
 21
174.907894
 31
0.0
 11
105.583153
 21
174.080042
 31
0.0
 11
105.658412
 21
173.703746
 31
0.0
  0
SPLINE
  5
15a
100
AcDbEntity
  8
0
 62
5
100
AcDbSpline
 70
0
 71
3
 72
10
 73
6
 74
4
 40
0.000000
 40
0.000000
 40
0.000000
 40
0.000000
 40
0.383747
 40
1.264632
 40
2.310840
 40
2.310840
 40
2.310840
 40
2.310840
 10
89.213690
 20
158.593811
 30
0.0
 10
89.130710
 20
158.496717
 30
0.0
 10
88.857252
 20
158.176744
 30
0.0
 10
88.270557
 20
157.652221
 30
0.0
 10
87.653054
 20
157.451190
 30
0.0
 10
87.317814
 20
157.342051
 30
0.0
 11
89.213690
 21
158.593811
 31
0.0
 11
88.960366
 21
158.305559
 31
0.0
 11
88.285736
 21
157.739139
 31
0.0
 11
87.317814
 21
157.342051
 31
0.0
  0
SPLINE
  5
15b
100
AcDbEntity
  8
0
 62
5
100
AcDbSpline
 70
0
 71
3
 72
10
 73
6
 74
4
 40
0.000000
 40
0.000000
 40
0.000000
 40
0.000000
 40
1.754113
 40
3.597957
 40
5.352072
 40
5.352072
 40
5.352072
 40
5.352072
 10
87.317814
 20
157.342051
 30
0.0
 10
86.728797
 20
157.370828
 30
0.0
 10
85.520631
 20
157.429854
 30
0.0
 10
83.893057
 20
158.369535
 30
0.0
 10
83.237855
 20
159.386324
 30
0.0
 10
82.918424
 20
159.882040
 30
0.0
 11
87.317814
 21
157.342051
 31
0.0
 11
85.577863
 21
157.564499
 31
0.0
 11
83.981048
 21
158.486422
 31
0.0
 11
82.918424
 21
159.882040
 31
0.0
  0
LWPOLYLINE
  5
15c
100
AcDbEntity
  8
0
 62
5
100
AcDbPolyline
 90
4
 70
0
 10
93.635765
 20
156.431780
 30
0.0
 10
88.503145
 20
159.395099
 30
0.0
 10
88.333811
 20
159.101808
 30
0.0
 10
89.213690
 20
158.593811
 30
0.0
  0
LWPOLYLINE
  5
15d
100
AcDbEntity
  8
0
 62
5
100
AcDbPolyline
 90
4
 70
0
 10
83.054543
 20
162.149794
 30
0.0
 10
83.934421
 20
161.641797
 30
0.0
 10
84.103755
 20
161.935091
 30
0.0
 10
78.971132
 20
164.898410
 30
0.0
  0
LWPOLYLINE
  5
15e
100
AcDbEntity
  8
0
 62
1
100
AcDbPolyline
 90
2
 70
0
 10
87.476618
 20
159.987766
 30
0.0
 10
85.130279
 20
161.342424
 30
0.0
  0
LWPOLYLINE
  5
15f
100
AcDbEntity
  8
0
 62
5
100
AcDbPolyline
 90
4
 70
0
 10
93.635743
 20
156.431741
 30
0.0
 10
89.094155
 20
157.524694
 30
0.0
 10
80.295377
 20
152.444717
 30
0.0
 10
78.971109
 20
147.965111
 30
0.0
  0
LWPOLYLINE
  5
160
100
AcDbEntity
  8
0
 62
5
100
AcDbPolyline
 90
4
 70
0
 10
89.783643
 20
153.621146
 30
0.0
 10
88.773728
 20
154.015712
 30
0.0
 10
83.494459
 20
150.967724
 30
0.0
 10
83.331205
 20
149.895827
 30
0.0
  0
LWPOLYLINE
  5
161
100
AcDbEntity
  8
0
 62
1
100
AcDbPolyline
 90
2
 70
0
 10
93.635743
 20
156.431741
 30
0.0
 10
89.529646
 20
154.061085
 30
0.0
  0
LWPOLYLINE
  5
162
100
AcDbEntity
  8
0
 62
1
100
AcDbPolyline
 90
2
 70
0
 10
78.971109
 20
147.965111
 30
0.0
 10
83.077205
 20
150.335766
 30
0.0
  0
SPLINE
  5
163
100
AcDbEntity
  8
0
 62
5
100
AcDbSpline
 70
0
 71
3
 72
10
 73
6
 74
4
 40
0.000000
 40
0.000000
 40
0.000000
 40
0.000000
 40
1.046208
 40
1.927091
 40
2.310838
 40
2.310838
 40
2.310838
 40
2.310838
 10
82.918424
 20
159.882040
 30
0.0
 10
82.845321
 20
160.226935
 30
0.0
 10
82.710668
 20
160.862224
 30
0.0
 10
82.871571
 20
161.632577
 30
0.0
 10
83.011946
 20
162.029385
 30
0.0
 10
83.054543
 20
162.149794
 30
0.0
 11
82.918424
 21
159.882040
 31
0.0
 11
82.778351
 21
160.918829
 31
0.0
 11
82.931571
 21
161.786284
 31
0.0
 11
83.054543
 21
162.149794
 31
0.0
  0
SPLINE
  5
164
100
AcDbEntity
  8
0
 62
5
100
AcDbSpline
 70
0
 71
3
 72
10
 73
6
 74
4
 40
0.000000
 40
0.000000
 40
0.000000
 40
0.000000
 40
0.383750
 40
1.264641
 40
2.310858
 40
2.310858
 40
2.310858
 40
2.310858
 10
74.887686
 20
150.713709
 30
0.0
 10
74.930283
 20
150.834120
 30
0.0
 10
75.070659
 20
151.230931
 30
0.0
 10
75.231563
 20
152.001291
 30
0.0
 10
75.096908
 20
152.636585
 30
0.0
 10
75.023805
 20
152.981484
 30
0.0
 11
74.887686
 21
150.713709
 31
0.0
 11
75.010658
 21
151.077223
 31
0.0
 11
75.163879
 21
151.944686
 31
0.0
 11
75.023805
 21
152.981484
 31
0.0
  0
SPLINE
  5
165
100
AcDbEntity
  8
0
 62
5
100
AcDbSpline
 70
0
 71
3
 72
10
 73
6
 74
4
 40
0.000000
 40
0.000000
 40
0.000000
 40
0.000000
 40
1.754131
 40
3.597990
 40
5.352120
 40
5.352120
 40
5.352120
 40
5.352120
 10
75.023805
 20
152.981484
 30
0.0
 10
74.704372
 20
153.477204
 30
0.0
 10
74.049165
 20
154.494002
 30
0.0
 10
72.421575
 20
155.433691
 30
0.0
 10
71.213398
 20
155.492718
 30
0.0
 10
70.624375
 20
155.521495
 30
0.0
 11
75.023805
 21
152.981484
 31
0.0
 11
73.961173
 21
154.377115
 31
0.0
 11
72.364343
 21
155.299044
 31
0.0
 11
70.624375
 21
155.521495
 31
0.0
  0
LWPOLYLINE
  5
166
100
AcDbEntity
  8
0
 62
5
100
AcDbPolyline
 90
4
 70
0
 10
78.971132
 20
147.965071
 30
0.0
 10
73.838466
 20
150.928418
 30
0.0
 10
74.007799
 20
151.221712
 30
0.0
 10
74.887686
 20
150.713709
 30
0.0
  0
LWPOLYLINE
  5
167
100
AcDbEntity
  8
0
 62
5
100
AcDbPolyline
 90
4
 70
0
 10
68.728486
 20
154.269726
 30
0.0
 10
69.608373
 20
153.761724
 30
0.0
 10
69.439036
 20
153.468427
 30
0.0
 10
64.306371
 20
156.431774
 30
0.0
  0
LWPOLYLINE
  5
168
100
AcDbEntity
  8
0
 62
1
100
AcDbPolyline
 90
2
 70
0
 10
72.811934
 20
151.521085
 30
0.0
 10
70.465572
 20
152.875760
 30
0.0
  0
LWPOLYLINE
  5
169
100
AcDbEntity
  8
0
 62
5
100
AcDbPolyline
 90
4
 70
0
 10
55.839648
 20
141.766980
 30
0.0
 10
54.746683
 20
146.308604
 30
0.0
 10
59.826706
 20
155.107461
 30
0.0
 10
64.306351
 20
156.431741
 30
0.0
  0
LWPOLYLINE
  5
16a
100
AcDbEntity
  8
0
 62
5
100
AcDbPolyline
 90
4
 70
0
 10
58.650268
 20
145.619113
 30
0.0
 10
58.255699
 20
146.629037
 30
0.0
 10
61.303710
 20
151.908350
 30
0.0
 10
62.375618
 20
152.071608
 30
0.0
  0
LWPOLYLINE
  5
16b
100
AcDbEntity
  8
0
 62
1
100
AcDbPolyline
 90
2
 70
0
 10
55.839648
 20
141.766980
 30
0.0
 10
58.210326
 20
145.873113
 30
0.0
  0
LWPOLYLINE
  5
16c
100
AcDbEntity
  8
0
 62
1
100
AcDbPolyline
 90
2
 70
0
 10
64.306351
 20
156.431741
 30
0.0
 10
61.935673
 20
152.325608
 30
0.0
  0
LWPOLYLINE
  5
16d
100
AcDbEntity
  8
0
 62
1
100
AcDbPolyline
 90
2
 70
0
 10
70.504513
 20
133.300248
 30
0.0
 10
70.504513
 20
116.366915
 30
0.0
  0
LWPOLYLINE
  5
16e
100
AcDbEntity
  8
0
 62
1
100
AcDbPolyline
 90
2
 70
0
 10
70.504513
 20
133.300248
 30
0.0
 10
78.971180
 20
147.965079
 30
0.0
  0
LWPOLYLINE
  5
16f
100
AcDbEntity
  8
0
 62
1
100
AcDbPolyline
 90
2
 70
0
 10
70.504513
 20
133.300248
 30
0.0
 10
87.437846
 20
133.300248
 30
0.0
  0
LWPOLYLINE
  5
170
100
AcDbEntity
  8
0
 62
1
100
AcDbPolyline
 90
3
 70
0
 10
78.971180
 20
147.965079
 30
0.0
 10
87.437846
 20
133.300248
 30
0.0
 10
87.437846
 20
116.366915
 30
0.0
  0
LWPOLYLINE
  5
171
100
AcDbEntity
  8
0
 62
1
100
AcDbPolyline
 90
3
 70
0
 10
93.635728
 20
173.365079
 30
0.0
 10
93.635728
 20
156.431746
 30
0.0
 10
102.102395
 20
141.766915
 30
0.0
  0
LWPOLYLINE
  5
172
100
AcDbEntity
  8
0
 62
1
100
AcDbPolyline
 90
2
 70
0
 10
93.635728
 20
156.431746
 30
0.0
 10
110.569062
 20
156.431746
 30
0.0
  0
LWPOLYLINE
  5
173
100
AcDbEntity
  8
0
 62
1
100
AcDbPolyline
 90
2
 70
0
 10
102.102395
 20
141.766915
 30
0.0
 10
110.569062
 20
156.431746
 30
0.0
  0
LWPOLYLINE
  5
174
100
AcDbEntity
  8
0
 62
1
100
AcDbPolyline
 90
2
 70
0
 10
110.569062
 20
173.365079
 30
0.0
 10
110.569062
 20
156.431746
 30
0.0
  0
LWPOLYLINE
  5
175
100
AcDbEntity
  8
0
 62
1
100
AcDbPolyline
 90
3
 70
0
 10
116.767226
 20
133.300248
 30
0.0
 10
125.233893
 20
147.965079
 30
0.0
 10
133.700560
 20
133.300248
 30
0.0
  0
SPLINE
  5
176
100
AcDbEntity
  8
0
 62
5
100
AcDbSpline
 70
0
 71
3
 72
10
 73
6
 74
4
 40
0.000000
 40
0.000000
 40
0.000000
 40
0.000000
 40
1.046216
 40
1.927107
 40
2.310857
 40
2.310857
 40
2.310857
 40
2.310857
 10
70.624375
 20
155.521495
 30
0.0
 10
70.289133
 20
155.412356
 30
0.0
 10
69.671625
 20
155.211323
 30
0.0
 10
69.084926
 20
154.686796
 30
0.0
 10
68.811466
 20
154.366821
 30
0.0
 10
68.728486
 20
154.269726
 30
0.0
 11
70.624375
 21
155.521495
 31
0.0
 11
69.656446
 21
155.124405
 31
0.0
 11
68.981811
 21
154.557980
 31
0.0
 11
68.728486
 21
154.269726
 31
0.0
  0
LWPOLYLINE
  5
177
100
AcDbEntity
  8
0
 62
1
100
AcDbPolyline
 90
2
 70
0
 10
139.898442
 20
156.431746
 30
0.0
 10
148.365108
 20
141.766915
 30
0.0
  0
ENDSEC
  0
SECTION
  2
OBJECTS
  0
DICTIONARY
  5
C
330
0
100
AcDbDictionary
  3
ACAD_GROUP
350
D
  3
ACAD_MLINESTYLE
350
17
  0
DICTIONARY
  5
D
330
C
100
AcDbDictionary
  0
DICTIONARY
  5
1A
330
C
100
AcDbDictionary
  0
DICTIONARY
  5
17
330
C
100
AcDbDictionary
  3
STANDARD
350
18
  0
DICTIONARY
  5
19
330
C
100
AcDbDictionary
  0
ENDSEC
  0
EOF
