999
DXF created by Inkscape
  0
SECTION
  2
HEADER
  9
$ACADVER
  1
AC1014
  9
$HANDSEED
  5
FFFF
  9
$MEASUREMENT
 70
     1
  0
ENDSEC
  0
SECTION
  2
TABLES
  0
TABLE
  2
VPORT
  5
8
330
0
100
AcDbSymbolTable
 70
     4
  0
VPORT
  5
2E
330
8
100
AcDbSymbolTableRecord
100
AcDbViewportTableRecord
  2
*ACTIVE
 70
     0
 10
0.0
 20
0.0
 11
1.0
 21
1.0
 12
210.0
 22
148.5
 13
0.0
 23
0.0
 14
10.0
 24
10.0
 15
10.0
 25
10.0
 16
0.0
 26
0.0
 36
1.0
 17
0.0
 27
0.0
 37
0.0
 40
341.0
 41
1.24
 42
50.0
 43
0.0
 44
0.0
 50
0.0
 51
0.0
 71
     0
 72
   100
 73
     1
 74
     3
 75
     0
 76
     0
 77
     0
 78
     0
  0
ENDTAB
  0
TABLE
  2
LTYPE
  5
5
330
0
100
AcDbSymbolTable
 70
     1
  0
LTYPE
  5
14
330
5
100
AcDbSymbolTableRecord
100
AcDbLinetypeTableRecord
  2
BYBLOCK
 70
     0
  3

 72
    65
 73
     0
 40
0.0
  0
LTYPE
  5
15
330
5
100
AcDbSymbolTableRecord
100
AcDbLinetypeTableRecord
  2
BYLAYER
 70
     0
  3

 72
    65
 73
     0
 40
0.0
  0
LTYPE
  5
16
330
5
100
AcDbSymbolTableRecord
100
AcDbLinetypeTableRecord
  2
CONTINUOUS
 70
     0
  3
Solid line
 72
    65
 73
     0
 40
0.0
  0
ENDTAB
  0
TABLE
  2
LAYER
  5
2
330
0
100
AcDbSymbolTable
 70
1
  0
LAYER
  5
10
330
2
100
AcDbSymbolTableRecord
100
AcDbLayerTableRecord
  2
0
 70
     0
 62
     7
  6
CONTINUOUS
  0
ENDTAB
  0
TABLE
  2
STYLE
  5
3
330
0
100
AcDbSymbolTable
 70
     1
  0
STYLE
  5
11
330
3
100
AcDbSymbolTableRecord
100
AcDbTextStyleTableRecord
  2
STANDARD
 70
     0
 40
0.0
 41
1.0
 50
0.0
 71
     0
 42
2.5
  3
txt
  4

  0
ENDTAB
  0
TABLE
  2
VIEW
  5
6
330
0
100
AcDbSymbolTable
 70
     0
  0
ENDTAB
  0
TABLE
  2
UCS
  5
7
330
0
100
AcDbSymbolTable
 70
     0
  0
ENDTAB
  0
TABLE
  2
APPID
  5
9
330
0
100
AcDbSymbolTable
 70
     2
  0
APPID
  5
12
330
9
100
AcDbSymbolTableRecord
100
AcDbRegAppTableRecord
  2
ACAD
 70
     0
  0
ENDTAB
  0
TABLE
  2
DIMSTYLE
  5
A
330
0
100
AcDbSymbolTable
 70
     1
  0
DIMSTYLE
105
27
330
A
100
AcDbSymbolTableRecord
100
AcDbDimStyleTableRecord
  2
ISO-25
 70
     0
  3

  4

  5

  6

  7

 40
1.0
 41
2.5
 42
0.625
 43
3.75
 44
1.25
 45
0.0
 46
0.0
 47
0.0
 48
0.0
140
2.5
141
2.5
142
0.0
143
0.03937007874016
144
1.0
145
0.0
146
1.0
147
0.625
 71
     0
 72
     0
 73
     0
 74
     0
 75
     0
 76
     0
 77
     1
 78
     8
170
     0
171
     3
172
     1
173
     0
174
     0
175
     0
176
     0
177
     0
178
     0
270
     2
271
     2
272
     2
273
     2
274
     3
340
11
275
     0
280
     0
281
     0
282
     0
283
     0
284
     8
285
     0
286
     0
287
     3
288
     0
  0
ENDTAB
  0
TABLE
  2
BLOCK_RECORD
  5
1
330
0
100
AcDbSymbolTable
 70
     1
  0
BLOCK_RECORD
  5
1F
330
1
100
AcDbSymbolTableRecord
100
AcDbBlockTableRecord
  2
*MODEL_SPACE
  0
BLOCK_RECORD
  5
1B
330
1
100
AcDbSymbolTableRecord
100
AcDbBlockTableRecord
  2
*PAPER_SPACE
  0
ENDTAB
  0
ENDSEC
  0
SECTION
  2
BLOCKS
  0
BLOCK
  5
20
330
1F
100
AcDbEntity
  8
0
100
AcDbBlockBegin
  2
*MODEL_SPACE
 70
     0
 10
0.0
 20
0.0
 30
0.0
  3
*MODEL_SPACE
  1

  0
ENDBLK
  5
21
330
1F
100
AcDbEntity
  8
0
100
AcDbBlockEnd
  0
BLOCK
  5
1C
330
1B
100
AcDbEntity
 67
     1
  8
0
100
AcDbBlockBegin
  2
*PAPER_SPACE
  1

  0
ENDBLK
  5
1D
330
1B
100
AcDbEntity
 67
     1
  8
0
100
AcDbBlockEnd
  0
ENDSEC
  0
SECTION
  2
ENTITIES
  0
SPLINE
  5
100
100
AcDbEntity
  8
0
 62
5
100
AcDbSpline
 70
0
 71
3
 72
10
 73
6
 74
4
 40
0.000000
 40
0.000000
 40
0.000000
 40
0.000000
 40
0.383748
 40
1.264635
 40
2.310847
 40
2.310847
 40
2.310847
 40
2.310847
 10
20.604730
 20
252.123602
 30
0.0
 10
20.479154
 20
252.146917
 30
0.0
 10
20.065319
 20
252.223753
 30
0.0
 10
19.317719
 20
252.469584
 30
0.0
 10
18.834867
 20
252.903844
 30
0.0
 10
18.572730
 20
253.139602
 30
0.0
 11
20.604730
 21
252.123602
 31
0.0
 11
20.228434
 21
252.198861
 31
0.0
 11
19.400582
 21
252.499898
 31
0.0
 11
18.572730
 21
253.139602
 31
0.0
  0
SPLINE
  5
101
100
AcDbEntity
  8
0
 62
5
100
AcDbSpline
 70
0
 71
3
 72
10
 73
6
 74
4
 40
0.000000
 40
0.000000
 40
0.000000
 40
0.000000
 40
1.754122
 40
3.597974
 40
5.352096
 40
5.352096
 40
5.352096
 40
5.352096
 10
18.572730
 20
253.139602
 30
0.0
 10
18.303141
 20
253.664097
 30
0.0
 10
17.750174
 20
254.739917
 30
0.0
 10
17.750174
 20
256.619287
 30
0.0
 10
18.303141
 20
257.695107
 30
0.0
 10
18.572730
 20
258.219602
 30
0.0
 11
18.572730
 21
253.139602
 31
0.0
 11
17.895397
 21
254.757676
 31
0.0
 11
17.895397
 21
256.601528
 31
0.0
 11
18.572730
 21
258.219602
 31
0.0
  0
LWPOLYLINE
  5
102
100
AcDbEntity
  8
0
 62
5
100
AcDbPolyline
 90
4
 70
0
 10
20.943397
 20
247.212935
 30
0.0
 10
20.943397
 20
253.139602
 30
0.0
 10
20.604730
 20
253.139602
 30
0.0
 10
20.604730
 20
252.123602
 30
0.0
  0
LWPOLYLINE
  5
103
100
AcDbEntity
  8
0
 62
5
100
AcDbPolyline
 90
4
 70
0
 10
20.604730
 20
259.235602
 30
0.0
 10
20.604730
 20
258.219602
 30
0.0
 10
20.943397
 20
258.219602
 30
0.0
 10
20.943397
 20
264.146268
 30
0.0
  0
LWPOLYLINE
  5
104
100
AcDbEntity
  8
0
 62
1
100
AcDbPolyline
 90
2
 70
0
 10
20.943397
 20
254.324935
 30
0.0
 10
20.943397
 20
257.034268
 30
0.0
  0
LWPOLYLINE
  5
105
100
AcDbEntity
  8
0
 62
5
100
AcDbPolyline
 90
4
 70
0
 10
32.917102
 20
235.239231
 30
0.0
 10
28.247357
 20
235.358970
 30
0.0
 10
21.063135
 20
242.543190
 30
0.0
 10
20.943398
 20
247.212935
 30
0.0
  0
LWPOLYLINE
  5
106
100
AcDbEntity
  8
0
 62
5
100
AcDbPolyline
 90
4
 70
0
 10
29.923675
 20
238.951080
 30
0.0
 10
28.846043
 20
238.831341
 30
0.0
 10
24.535509
 20
243.141877
 30
0.0
 10
24.655246
 20
244.219508
 30
0.0
  0
LWPOLYLINE
  5
107
100
AcDbEntity
  8
0
 62
1
100
AcDbPolyline
 90
2
 70
0
 10
32.917102
 20
235.239231
 30
0.0
 10
29.564465
 20
238.591867
 30
0.0
  0
LWPOLYLINE
  5
108
100
AcDbEntity
  8
0
 62
1
100
AcDbPolyline
 90
2
 70
0
 10
20.943398
 20
247.212935
 30
0.0
 10
24.296035
 20
243.860299
 30
0.0
  0
SPLINE
  5
109
100
AcDbEntity
  8
0
 62
5
100
AcDbSpline
 70
0
 71
3
 72
10
 73
6
 74
4
 40
0.000000
 40
0.000000
 40
0.000000
 40
0.000000
 40
1.046212
 40
1.927099
 40
2.310847
 40
2.310847
 40
2.310847
 40
2.310847
 10
18.572730
 20
258.219602
 30
0.0
 10
18.834867
 20
258.455359
 30
0.0
 10
19.317719
 20
258.889619
 30
0.0
 10
20.065319
 20
259.135451
 30
0.0
 10
20.479154
 20
259.212286
 30
0.0
 10
20.604730
 20
259.235602
 30
0.0
 11
18.572730
 21
258.219602
 31
0.0
 11
19.400582
 21
258.859305
 31
0.0
 11
20.228434
 21
259.160342
 31
0.0
 11
20.604730
 21
259.235602
 31
0.0
  0
SPLINE
  5
10a
100
AcDbEntity
  8
0
 62
5
100
AcDbSpline
 70
0
 71
3
 72
10
 73
6
 74
4
 40
0.000000
 40
0.000000
 40
0.000000
 40
0.000000
 40
0.383748
 40
1.264635
 40
2.310847
 40
2.310847
 40
2.310847
 40
2.310847
 10
32.578410
 20
230.328539
 30
0.0
 10
32.452833
 20
230.305224
 30
0.0
 10
32.038999
 20
230.228388
 30
0.0
 10
31.291398
 20
229.982556
 30
0.0
 10
30.808547
 20
229.548296
 30
0.0
 10
30.546410
 20
229.312539
 30
0.0
 11
32.578410
 21
230.328539
 31
0.0
 11
32.202113
 21
230.253280
 31
0.0
 11
31.374262
 21
229.952243
 31
0.0
 11
30.546410
 21
229.312539
 31
0.0
  0
SPLINE
  5
10b
100
AcDbEntity
  8
0
 62
5
100
AcDbSpline
 70
0
 71
3
 72
10
 73
6
 74
4
 40
0.000000
 40
0.000000
 40
0.000000
 40
0.000000
 40
1.754122
 40
3.597974
 40
5.352096
 40
5.352096
 40
5.352096
 40
5.352096
 10
30.546410
 20
229.312539
 30
0.0
 10
30.276821
 20
228.788044
 30
0.0
 10
29.723853
 20
227.712224
 30
0.0
 10
29.723853
 20
225.832854
 30
0.0
 10
30.276821
 20
224.757034
 30
0.0
 10
30.546410
 20
224.232539
 30
0.0
 11
30.546410
 21
229.312539
 31
0.0
 11
29.869076
 21
227.694465
 31
0.0
 11
29.869076
 21
225.850613
 31
0.0
 11
30.546410
 21
224.232539
 31
0.0
  0
LWPOLYLINE
  5
10c
100
AcDbEntity
  8
0
 62
5
100
AcDbPolyline
 90
4
 70
0
 10
32.917076
 20
235.239206
 30
0.0
 10
32.917076
 20
229.312539
 30
0.0
 10
32.578410
 20
229.312539
 30
0.0
 10
32.578410
 20
230.328539
 30
0.0
  0
LWPOLYLINE
  5
10d
100
AcDbEntity
  8
0
 62
5
100
AcDbPolyline
 90
4
 70
0
 10
32.578410
 20
223.216539
 30
0.0
 10
32.578410
 20
224.232539
 30
0.0
 10
32.917076
 20
224.232539
 30
0.0
 10
32.917076
 20
218.305872
 30
0.0
  0
LWPOLYLINE
  5
10e
100
AcDbEntity
  8
0
 62
1
100
AcDbPolyline
 90
2
 70
0
 10
32.917076
 20
228.127206
 30
0.0
 10
32.917076
 20
225.417872
 30
0.0
  0
LWPOLYLINE
  5
10f
100
AcDbEntity
  8
0
 62
5
100
AcDbPolyline
 90
4
 70
0
 10
49.850461
 20
218.305872
 30
0.0
 10
46.463783
 20
215.088531
 30
0.0
 10
36.303754
 20
215.088531
 30
0.0
 10
32.917076
 20
218.305872
 30
0.0
  0
LWPOLYLINE
  5
110
100
AcDbEntity
  8
0
 62
5
100
AcDbPolyline
 90
4
 70
0
 10
45.109113
 20
218.813875
 30
0.0
 10
44.431777
 20
217.967206
 30
0.0
 10
38.335760
 20
217.967206
 30
0.0
 10
37.658424
 20
218.813875
 30
0.0
  0
LWPOLYLINE
  5
111
100
AcDbEntity
  8
0
 62
1
100
AcDbPolyline
 90
2
 70
0
 10
49.850461
 20
218.305872
 30
0.0
 10
45.109113
 20
218.305872
 30
0.0
  0
LWPOLYLINE
  5
112
100
AcDbEntity
  8
0
 62
1
100
AcDbPolyline
 90
2
 70
0
 10
32.917076
 20
218.305872
 30
0.0
 10
37.658424
 20
218.305872
 30
0.0
  0
SPLINE
  5
113
100
AcDbEntity
  8
0
 62
5
100
AcDbSpline
 70
0
 71
3
 72
10
 73
6
 74
4
 40
0.000000
 40
0.000000
 40
0.000000
 40
0.000000
 40
1.046212
 40
1.927099
 40
2.310847
 40
2.310847
 40
2.310847
 40
2.310847
 10
30.546410
 20
224.232539
 30
0.0
 10
30.808547
 20
223.996782
 30
0.0
 10
31.291398
 20
223.562522
 30
0.0
 10
32.038999
 20
223.316690
 30
0.0
 10
32.452833
 20
223.239855
 30
0.0
 10
32.578410
 20
223.216539
 30
0.0
 11
30.546410
 21
224.232539
 31
0.0
 11
31.374262
 21
223.592835
 31
0.0
 11
32.202113
 21
223.291798
 31
0.0
 11
32.578410
 21
223.216539
 31
0.0
  0
SPLINE
  5
114
100
AcDbEntity
  8
0
 62
5
100
AcDbSpline
 70
0
 71
3
 72
10
 73
6
 74
4
 40
0.000000
 40
0.000000
 40
0.000000
 40
0.000000
 40
0.383748
 40
1.264635
 40
2.310847
 40
2.310847
 40
2.310847
 40
2.310847
 10
50.189127
 20
230.328539
 30
0.0
 10
50.314704
 20
230.305224
 30
0.0
 10
50.728538
 20
230.228388
 30
0.0
 10
51.476138
 20
229.982556
 30
0.0
 10
51.958990
 20
229.548296
 30
0.0
 10
52.221127
 20
229.312539
 30
0.0
 11
50.189127
 21
230.328539
 31
0.0
 11
50.565423
 21
230.253280
 31
0.0
 11
51.393275
 21
229.952243
 31
0.0
 11
52.221127
 21
229.312539
 31
0.0
  0
SPLINE
  5
115
100
AcDbEntity
  8
0
 62
5
100
AcDbSpline
 70
0
 71
3
 72
10
 73
6
 74
4
 40
0.000000
 40
0.000000
 40
0.000000
 40
0.000000
 40
1.754122
 40
3.597974
 40
5.352096
 40
5.352096
 40
5.352096
 40
5.352096
 10
52.221127
 20
229.312539
 30
0.0
 10
52.490716
 20
228.788044
 30
0.0
 10
53.043684
 20
227.712224
 30
0.0
 10
53.043684
 20
225.832854
 30
0.0
 10
52.490716
 20
224.757034
 30
0.0
 10
52.221127
 20
224.232539
 30
0.0
 11
52.221127
 21
229.312539
 31
0.0
 11
52.898461
 21
227.694465
 31
0.0
 11
52.898461
 21
225.850613
 31
0.0
 11
52.221127
 21
224.232539
 31
0.0
  0
LWPOLYLINE
  5
116
100
AcDbEntity
  8
0
 62
5
100
AcDbPolyline
 90
4
 70
0
 10
49.850461
 20
235.239206
 30
0.0
 10
49.850461
 20
229.312539
 30
0.0
 10
50.189127
 20
229.312539
 30
0.0
 10
50.189127
 20
230.328539
 30
0.0
  0
LWPOLYLINE
  5
117
100
AcDbEntity
  8
0
 62
5
100
AcDbPolyline
 90
4
 70
0
 10
50.189127
 20
223.216539
 30
0.0
 10
50.189127
 20
224.232539
 30
0.0
 10
49.850461
 20
224.232539
 30
0.0
 10
49.850461
 20
218.305872
 30
0.0
  0
LWPOLYLINE
  5
118
100
AcDbEntity
  8
0
 62
1
100
AcDbPolyline
 90
2
 70
0
 10
49.850461
 20
228.127206
 30
0.0
 10
49.850461
 20
225.417872
 30
0.0
  0
LWPOLYLINE
  5
119
100
AcDbEntity
  8
0
 62
5
100
AcDbPolyline
 90
7
 70
0
 10
49.850461
 20
235.239206
 30
0.0
 10
51.287299
 20
234.281315
 30
0.0
 10
52.364925
 20
235.598415
 30
0.0
 10
52.005715
 20
236.915515
 30
0.0
 10
51.766244
 20
236.676044
 30
0.0
 10
51.526770
 20
236.915515
 30
0.0
 10
61.824105
 20
247.212850
 30
0.0
  0
LWPOLYLINE
  5
11a
100
AcDbEntity
  8
0
 62
1
100
AcDbPolyline
 90
2
 70
0
 10
50.329406
 20
235.718151
 30
0.0
 10
51.047825
 20
236.436570
 30
0.0
  0
LWPOLYLINE
  5
11b
100
AcDbEntity
  8
0
 62
5
100
AcDbPolyline
 90
8
 70
0
 10
61.824021
 20
247.212935
 30
0.0
 10
55.897331
 20
236.947607
 30
0.0
 10
54.701463
 20
237.246980
 30
0.0
 10
53.708145
 20
235.865172
 30
0.0
 10
54.164696
 20
234.623933
 30
0.0
 10
54.334029
 20
234.917227
 30
0.0
 10
54.627326
 20
234.747894
 30
0.0
 10
53.357320
 20
232.548180
 30
0.0
  0
LWPOLYLINE
  5
11c
100
AcDbEntity
  8
0
 62
1
100
AcDbPolyline
 90
2
 70
0
 10
55.558662
 20
236.361016
 30
0.0
 10
54.965992
 20
235.334484
 30
0.0
  0
LWPOLYLINE
  5
11d
100
AcDbEntity
  8
0
 62
5
100
AcDbPolyline
 90
4
 70
0
 10
61.823981
 20
217.883532
 30
0.0
 10
57.344375
 20
219.207798
 30
0.0
 10
52.264400
 20
228.006575
 30
0.0
 10
53.357354
 20
232.548160
 30
0.0
  0
LWPOLYLINE
  5
11e
100
AcDbEntity
  8
0
 62
5
100
AcDbPolyline
 90
4
 70
0
 10
59.893265
 20
222.243626
 30
0.0
 10
58.821368
 20
222.406880
 30
0.0
 10
55.773382
 20
227.686146
 30
0.0
 10
56.167949
 20
228.696064
 30
0.0
  0
LWPOLYLINE
  5
11f
100
AcDbEntity
  8
0
 62
1
100
AcDbPolyline
 90
2
 70
0
 10
61.823981
 20
217.883532
 30
0.0
 10
59.453326
 20
221.989629
 30
0.0
  0
LWPOLYLINE
  5
120
100
AcDbEntity
  8
0
 62
1
100
AcDbPolyline
 90
2
 70
0
 10
53.357354
 20
232.548160
 30
0.0
 10
55.728009
 20
228.442064
 30
0.0
  0
SPLINE
  5
121
100
AcDbEntity
  8
0
 62
5
100
AcDbSpline
 70
0
 71
3
 72
10
 73
6
 74
4
 40
0.000000
 40
0.000000
 40
0.000000
 40
0.000000
 40
1.046212
 40
1.927099
 40
2.310847
 40
2.310847
 40
2.310847
 40
2.310847
 10
52.221127
 20
224.232539
 30
0.0
 10
51.958990
 20
223.996782
 30
0.0
 10
51.476138
 20
223.562522
 30
0.0
 10
50.728538
 20
223.316690
 30
0.0
 10
50.314704
 20
223.239855
 30
0.0
 10
50.189127
 20
223.216539
 30
0.0
 11
52.221127
 21
224.232539
 31
0.0
 11
51.393275
 21
223.592835
 31
0.0
 11
50.565423
 21
223.291798
 31
0.0
 11
50.189127
 21
223.216539
 31
0.0
  0
SPLINE
  5
122
100
AcDbEntity
  8
0
 62
5
100
AcDbSpline
 70
0
 71
3
 72
10
 73
6
 74
4
 40
0.000000
 40
0.000000
 40
0.000000
 40
0.000000
 40
0.383748
 40
1.264635
 40
2.310847
 40
2.310847
 40
2.310847
 40
2.310847
 10
73.846687
 20
217.544888
 30
0.0
 10
73.823372
 20
217.419312
 30
0.0
 10
73.746536
 20
217.005477
 30
0.0
 10
73.500704
 20
216.257877
 30
0.0
 10
73.066445
 20
215.775026
 30
0.0
 10
72.830687
 20
215.512888
 30
0.0
 11
73.846687
 21
217.544888
 31
0.0
 11
73.771428
 21
217.168592
 31
0.0
 11
73.470391
 21
216.340740
 31
0.0
 11
72.830687
 21
215.512888
 31
0.0
  0
SPLINE
  5
123
100
AcDbEntity
  8
0
 62
5
100
AcDbSpline
 70
0
 71
3
 72
10
 73
6
 74
4
 40
0.000000
 40
0.000000
 40
0.000000
 40
0.000000
 40
1.754122
 40
3.597974
 40
5.352096
 40
5.352096
 40
5.352096
 40
5.352096
 10
72.830687
 20
215.512888
 30
0.0
 10
72.306192
 20
215.243300
 30
0.0
 10
71.230372
 20
214.690332
 30
0.0
 10
69.351002
 20
214.690332
 30
0.0
 10
68.275182
 20
215.243300
 30
0.0
 10
67.750687
 20
215.512888
 30
0.0
 11
72.830687
 21
215.512888
 31
0.0
 11
71.212613
 21
214.835555
 31
0.0
 11
69.368761
 21
214.835555
 31
0.0
 11
67.750687
 21
215.512888
 31
0.0
  0
LWPOLYLINE
  5
124
100
AcDbEntity
  8
0
 62
5
100
AcDbPolyline
 90
4
 70
0
 10
78.757354
 20
217.883555
 30
0.0
 10
72.830687
 20
217.883555
 30
0.0
 10
72.830687
 20
217.544888
 30
0.0
 10
73.846687
 20
217.544888
 30
0.0
  0
LWPOLYLINE
  5
125
100
AcDbEntity
  8
0
 62
5
100
AcDbPolyline
 90
4
 70
0
 10
66.734687
 20
217.544888
 30
0.0
 10
67.750687
 20
217.544888
 30
0.0
 10
67.750687
 20
217.883555
 30
0.0
 10
61.824021
 20
217.883555
 30
0.0
  0
LWPOLYLINE
  5
126
100
AcDbEntity
  8
0
 62
1
100
AcDbPolyline
 90
2
 70
0
 10
71.645354
 20
217.883555
 30
0.0
 10
68.936021
 20
217.883555
 30
0.0
  0
LWPOLYLINE
  5
127
100
AcDbEntity
  8
0
 62
5
100
AcDbPolyline
 90
4
 70
0
 10
87.223981
 20
232.548183
 30
0.0
 10
88.316935
 20
228.006598
 30
0.0
 10
83.236960
 20
219.207821
 30
0.0
 10
78.757354
 20
217.883555
 30
0.0
  0
LWPOLYLINE
  5
128
100
AcDbEntity
  8
0
 62
5
100
AcDbPolyline
 90
4
 70
0
 10
84.413386
 20
228.696087
 30
0.0
 10
84.807953
 20
227.686169
 30
0.0
 10
81.759967
 20
222.406903
 30
0.0
 10
80.688070
 20
222.243649
 30
0.0
  0
LWPOLYLINE
  5
129
100
AcDbEntity
  8
0
 62
1
100
AcDbPolyline
 90
2
 70
0
 10
87.223981
 20
232.548183
 30
0.0
 10
84.853326
 20
228.442087
 30
0.0
  0
LWPOLYLINE
  5
12a
100
AcDbEntity
  8
0
 62
1
100
AcDbPolyline
 90
2
 70
0
 10
78.757354
 20
217.883555
 30
0.0
 10
81.128009
 20
221.989651
 30
0.0
  0
LWPOLYLINE
  5
12b
100
AcDbEntity
  8
0
 62
5
100
AcDbPolyline
 90
8
 70
0
 10
78.757320
 20
247.212915
 30
0.0
 10
84.684009
 20
236.947587
 30
0.0
 10
85.879878
 20
237.246960
 30
0.0
 10
86.873196
 20
235.865152
 30
0.0
 10
86.416645
 20
234.623913
 30
0.0
 10
86.247311
 20
234.917207
 30
0.0
 10
85.954015
 20
234.747874
 30
0.0
 10
87.224021
 20
232.548160
 30
0.0
  0
LWPOLYLINE
  5
12c
100
AcDbEntity
  8
0
 62
1
100
AcDbPolyline
 90
2
 70
0
 10
85.022679
 20
236.360997
 30
0.0
 10
85.615348
 20
235.334464
 30
0.0
  0
LWPOLYLINE
  5
12d
100
AcDbEntity
  8
0
 62
5
100
AcDbPolyline
 90
7
 70
0
 10
90.731083
 20
235.239206
 30
0.0
 10
89.294236
 20
234.281307
 30
0.0
 10
88.216599
 20
235.598418
 30
0.0
 10
88.575811
 20
236.915527
 30
0.0
 10
88.815285
 20
236.676053
 30
0.0
 10
89.054762
 20
236.915527
 30
0.0
 10
78.757354
 20
247.212935
 30
0.0
  0
LWPOLYLINE
  5
12e
100
AcDbEntity
  8
0
 62
1
100
AcDbPolyline
 90
2
 70
0
 10
90.252135
 20
235.718154
 30
0.0
 10
89.533710
 20
236.436579
 30
0.0
  0
SPLINE
  5
12f
100
AcDbEntity
  8
0
 62
5
100
AcDbSpline
 70
0
 71
3
 72
10
 73
6
 74
4
 40
0.000000
 40
0.000000
 40
0.000000
 40
0.000000
 40
1.046212
 40
1.927099
 40
2.310847
 40
2.310847
 40
2.310847
 40
2.310847
 10
67.750687
 20
215.512888
 30
0.0
 10
67.514930
 20
215.775026
 30
0.0
 10
67.080670
 20
216.257877
 30
0.0
 10
66.834838
 20
217.005477
 30
0.0
 10
66.758003
 20
217.419312
 30
0.0
 10
66.734687
 20
217.544888
 30
0.0
 11
67.750687
 21
215.512888
 31
0.0
 11
67.110983
 21
216.340740
 31
0.0
 11
66.809946
 21
217.168592
 31
0.0
 11
66.734687
 21
217.544888
 31
0.0
  0
SPLINE
  5
130
100
AcDbEntity
  8
0
 62
5
100
AcDbSpline
 70
0
 71
3
 72
10
 73
6
 74
4
 40
0.000000
 40
0.000000
 40
0.000000
 40
0.000000
 40
0.383748
 40
1.264635
 40
2.310847
 40
2.310847
 40
2.310847
 40
2.310847
 10
90.392417
 20
223.216539
 30
0.0
 10
90.266840
 20
223.239855
 30
0.0
 10
89.853005
 20
223.316690
 30
0.0
 10
89.105405
 20
223.562522
 30
0.0
 10
88.622554
 20
223.996782
 30
0.0
 10
88.360417
 20
224.232539
 30
0.0
 11
90.392417
 21
223.216539
 31
0.0
 11
90.016120
 21
223.291798
 31
0.0
 11
89.188268
 21
223.592835
 31
0.0
 11
88.360417
 21
224.232539
 31
0.0
  0
SPLINE
  5
131
100
AcDbEntity
  8
0
 62
5
100
AcDbSpline
 70
0
 71
3
 72
10
 73
6
 74
4
 40
0.000000
 40
0.000000
 40
0.000000
 40
0.000000
 40
1.754122
 40
3.597974
 40
5.352096
 40
5.352096
 40
5.352096
 40
5.352096
 10
88.360417
 20
224.232539
 30
0.0
 10
88.090828
 20
224.757034
 30
0.0
 10
87.537860
 20
225.832854
 30
0.0
 10
87.537860
 20
227.712224
 30
0.0
 10
88.090828
 20
228.788044
 30
0.0
 10
88.360417
 20
229.312539
 30
0.0
 11
88.360417
 21
224.232539
 31
0.0
 11
87.683083
 21
225.850613
 31
0.0
 11
87.683083
 21
227.694465
 31
0.0
 11
88.360417
 21
229.312539
 31
0.0
  0
LWPOLYLINE
  5
132
100
AcDbEntity
  8
0
 62
5
100
AcDbPolyline
 90
4
 70
0
 10
90.731083
 20
218.305872
 30
0.0
 10
90.731083
 20
224.232539
 30
0.0
 10
90.392417
 20
224.232539
 30
0.0
 10
90.392417
 20
223.216539
 30
0.0
  0
LWPOLYLINE
  5
133
100
AcDbEntity
  8
0
 62
5
100
AcDbPolyline
 90
4
 70
0
 10
90.392417
 20
230.328539
 30
0.0
 10
90.392417
 20
229.312539
 30
0.0
 10
90.731083
 20
229.312539
 30
0.0
 10
90.731083
 20
235.239206
 30
0.0
  0
LWPOLYLINE
  5
134
100
AcDbEntity
  8
0
 62
1
100
AcDbPolyline
 90
2
 70
0
 10
90.731083
 20
225.417872
 30
0.0
 10
90.731083
 20
228.127206
 30
0.0
  0
LWPOLYLINE
  5
135
100
AcDbEntity
  8
0
 62
5
100
AcDbPolyline
 90
4
 70
0
 10
90.731083
 20
218.305872
 30
0.0
 10
86.061361
 20
218.186137
 30
0.0
 10
78.877174
 20
211.001950
 30
0.0
 10
78.757439
 20
206.332228
 30
0.0
  0
LWPOLYLINE
  5
136
100
AcDbEntity
  8
0
 62
5
100
AcDbPolyline
 90
4
 70
0
 10
87.737671
 20
214.594043
 30
0.0
 10
86.660045
 20
214.713779
 30
0.0
 10
82.349532
 20
210.403266
 30
0.0
 10
82.469268
 20
209.325637
 30
0.0
  0
LWPOLYLINE
  5
137
100
AcDbEntity
  8
0
 62
1
100
AcDbPolyline
 90
2
 70
0
 10
90.731083
 20
218.305872
 30
0.0
 10
87.378464
 20
214.953253
 30
0.0
  0
LWPOLYLINE
  5
138
100
AcDbEntity
  8
0
 62
1
100
AcDbPolyline
 90
2
 70
0
 10
78.757439
 20
206.332228
 30
0.0
 10
82.110058
 20
209.684847
 30
0.0
  0
SPLINE
  5
139
100
AcDbEntity
  8
0
 62
5
100
AcDbSpline
 70
0
 71
3
 72
10
 73
6
 74
4
 40
0.000000
 40
0.000000
 40
0.000000
 40
0.000000
 40
1.046212
 40
1.927099
 40
2.310847
 40
2.310847
 40
2.310847
 40
2.310847
 10
88.360417
 20
229.312539
 30
0.0
 10
88.622554
 20
229.548296
 30
0.0
 10
89.105405
 20
229.982556
 30
0.0
 10
89.853005
 20
230.228388
 30
0.0
 10
90.266840
 20
230.305224
 30
0.0
 10
90.392417
 20
230.328539
 30
0.0
 11
88.360417
 21
229.312539
 31
0.0
 11
89.188268
 21
229.952243
 31
0.0
 11
90.016120
 21
230.253280
 31
0.0
 11
90.392417
 21
230.328539
 31
0.0
  0
SPLINE
  5
13a
100
AcDbEntity
  8
0
 62
5
100
AcDbSpline
 70
0
 71
3
 72
10
 73
6
 74
4
 40
0.000000
 40
0.000000
 40
0.000000
 40
0.000000
 40
0.383748
 40
1.264635
 40
2.310847
 40
2.310847
 40
2.310847
 40
2.310847
 10
78.418687
 20
194.309646
 30
0.0
 10
78.293111
 20
194.332961
 30
0.0
 10
77.879276
 20
194.409797
 30
0.0
 10
77.131676
 20
194.655628
 30
0.0
 10
76.648825
 20
195.089888
 30
0.0
 10
76.386687
 20
195.325646
 30
0.0
 11
78.418687
 21
194.309646
 31
0.0
 11
78.042391
 21
194.384905
 31
0.0
 11
77.214539
 21
194.685942
 31
0.0
 11
76.386687
 21
195.325646
 31
0.0
  0
SPLINE
  5
13b
100
AcDbEntity
  8
0
 62
5
100
AcDbSpline
 70
0
 71
3
 72
10
 73
6
 74
4
 40
0.000000
 40
0.000000
 40
0.000000
 40
0.000000
 40
1.754122
 40
3.597974
 40
5.352096
 40
5.352096
 40
5.352096
 40
5.352096
 10
76.386687
 20
195.325646
 30
0.0
 10
76.117098
 20
195.850141
 30
0.0
 10
75.564131
 20
196.925961
 30
0.0
 10
75.564131
 20
198.805331
 30
0.0
 10
76.117098
 20
199.881151
 30
0.0
 10
76.386687
 20
200.405646
 30
0.0
 11
76.386687
 21
195.325646
 31
0.0
 11
75.709354
 21
196.943720
 31
0.0
 11
75.709354
 21
198.787572
 31
0.0
 11
76.386687
 21
200.405646
 31
0.0
  0
LWPOLYLINE
  5
13c
100
AcDbEntity
  8
0
 62
5
100
AcDbPolyline
 90
4
 70
0
 10
78.757354
 20
189.398979
 30
0.0
 10
78.757354
 20
195.325646
 30
0.0
 10
78.418687
 20
195.325646
 30
0.0
 10
78.418687
 20
194.309646
 30
0.0
  0
LWPOLYLINE
  5
13d
100
AcDbEntity
  8
0
 62
5
100
AcDbPolyline
 90
4
 70
0
 10
78.418687
 20
201.421646
 30
0.0
 10
78.418687
 20
200.405646
 30
0.0
 10
78.757354
 20
200.405646
 30
0.0
 10
78.757354
 20
206.332312
 30
0.0
  0
LWPOLYLINE
  5
13e
100
AcDbEntity
  8
0
 62
1
100
AcDbPolyline
 90
2
 70
0
 10
78.757354
 20
196.510979
 30
0.0
 10
78.757354
 20
199.220312
 30
0.0
  0
LWPOLYLINE
  5
13f
100
AcDbEntity
  8
0
 62
5
100
AcDbPolyline
 90
4
 70
0
 10
90.731083
 20
177.425250
 30
0.0
 10
86.061330
 20
177.544988
 30
0.0
 10
78.877092
 20
184.729226
 30
0.0
 10
78.757354
 20
189.398979
 30
0.0
  0
LWPOLYLINE
  5
140
100
AcDbEntity
  8
0
 62
5
100
AcDbPolyline
 90
4
 70
0
 10
87.737651
 20
181.137107
 30
0.0
 10
86.660016
 20
181.017369
 30
0.0
 10
82.349473
 20
185.327912
 30
0.0
 10
82.469211
 20
186.405547
 30
0.0
  0
LWPOLYLINE
  5
141
100
AcDbEntity
  8
0
 62
1
100
AcDbPolyline
 90
2
 70
0
 10
90.731083
 20
177.425250
 30
0.0
 10
87.378438
 20
180.777895
 30
0.0
  0
LWPOLYLINE
  5
142
100
AcDbEntity
  8
0
 62
1
100
AcDbPolyline
 90
2
 70
0
 10
78.757354
 20
189.398979
 30
0.0
 10
82.109999
 20
186.046334
 30
0.0
  0
SPLINE
  5
143
100
AcDbEntity
  8
0
 62
5
100
AcDbSpline
 70
0
 71
3
 72
10
 73
6
 74
4
 40
0.000000
 40
0.000000
 40
0.000000
 40
0.000000
 40
1.046212
 40
1.927099
 40
2.310847
 40
2.310847
 40
2.310847
 40
2.310847
 10
76.386687
 20
200.405646
 30
0.0
 10
76.648825
 20
200.641403
 30
0.0
 10
77.131676
 20
201.075663
 30
0.0
 10
77.879276
 20
201.321495
 30
0.0
 10
78.293111
 20
201.398330
 30
0.0
 10
78.418687
 20
201.421646
 30
0.0
 11
76.386687
 21
200.405646
 31
0.0
 11
77.214539
 21
201.045349
 31
0.0
 11
78.042391
 21
201.346386
 31
0.0
 11
78.418687
 21
201.421646
 31
0.0
  0
SPLINE
  5
144
100
AcDbEntity
  8
0
 62
5
100
AcDbSpline
 70
0
 71
3
 72
10
 73
6
 74
4
 40
0.000000
 40
0.000000
 40
0.000000
 40
0.000000
 40
0.383748
 40
1.264635
 40
2.310847
 40
2.310847
 40
2.310847
 40
2.310847
 10
102.753750
 20
177.086583
 30
0.0
 10
102.730434
 20
176.961007
 30
0.0
 10
102.653599
 20
176.547172
 30
0.0
 10
102.407767
 20
175.799572
 30
0.0
 10
101.973507
 20
175.316721
 30
0.0
 10
101.737750
 20
175.054583
 30
0.0
 11
102.753750
 21
177.086583
 31
0.0
 11
102.678491
 21
176.710287
 31
0.0
 11
102.377454
 21
175.882435
 31
0.0
 11
101.737750
 21
175.054583
 31
0.0
  0
SPLINE
  5
145
100
AcDbEntity
  8
0
 62
5
100
AcDbSpline
 70
0
 71
3
 72
10
 73
6
 74
4
 40
0.000000
 40
0.000000
 40
0.000000
 40
0.000000
 40
1.754122
 40
3.597974
 40
5.352096
 40
5.352096
 40
5.352096
 40
5.352096
 10
101.737750
 20
175.054583
 30
0.0
 10
101.213255
 20
174.784994
 30
0.0
 10
100.137435
 20
174.232027
 30
0.0
 10
98.258065
 20
174.232027
 30
0.0
 10
97.182245
 20
174.784994
 30
0.0
 10
96.657750
 20
175.054583
 30
0.0
 11
101.737750
 21
175.054583
 31
0.0
 11
100.119676
 21
174.377250
 31
0.0
 11
98.275824
 21
174.377250
 31
0.0
 11
96.657750
 21
175.054583
 31
0.0
  0
LWPOLYLINE
  5
146
100
AcDbEntity
  8
0
 62
5
100
AcDbPolyline
 90
4
 70
0
 10
107.664417
 20
177.425250
 30
0.0
 10
101.737750
 20
177.425250
 30
0.0
 10
101.737750
 20
177.086583
 30
0.0
 10
102.753750
 20
177.086583
 30
0.0
  0
LWPOLYLINE
  5
147
100
AcDbEntity
  8
0
 62
5
100
AcDbPolyline
 90
4
 70
0
 10
95.641750
 20
177.086583
 30
0.0
 10
96.657750
 20
177.086583
 30
0.0
 10
96.657750
 20
177.425250
 30
0.0
 10
90.731083
 20
177.425250
 30
0.0
  0
LWPOLYLINE
  5
148
100
AcDbEntity
  8
0
 62
1
100
AcDbPolyline
 90
2
 70
0
 10
100.552417
 20
177.425250
 30
0.0
 10
97.843083
 20
177.425250
 30
0.0
  0
LWPOLYLINE
  5
149
100
AcDbEntity
  8
0
 62
5
100
AcDbPolyline
 90
4
 70
0
 10
119.638146
 20
189.398979
 30
0.0
 10
119.518407
 20
184.729226
 30
0.0
 10
112.334170
 20
177.544988
 30
0.0
 10
107.664417
 20
177.425250
 30
0.0
  0
LWPOLYLINE
  5
14a
100
AcDbEntity
  8
0
 62
5
100
AcDbPolyline
 90
4
 70
0
 10
115.926289
 20
186.405547
 30
0.0
 10
116.046027
 20
185.327912
 30
0.0
 10
111.735483
 20
181.017369
 30
0.0
 10
110.657849
 20
181.137107
 30
0.0
  0
LWPOLYLINE
  5
14b
100
AcDbEntity
  8
0
 62
1
100
AcDbPolyline
 90
2
 70
0
 10
119.638146
 20
189.398979
 30
0.0
 10
116.285501
 20
186.046334
 30
0.0
  0
LWPOLYLINE
  5
14c
100
AcDbEntity
  8
0
 62
1
100
AcDbPolyline
 90
2
 70
0
 10
107.664417
 20
177.425250
 30
0.0
 10
111.017061
 20
180.777895
 30
0.0
  0
SPLINE
  5
14d
100
AcDbEntity
  8
0
 62
5
100
AcDbSpline
 70
0
 71
3
 72
10
 73
6
 74
4
 40
0.000000
 40
0.000000
 40
0.000000
 40
0.000000
 40
1.046212
 40
1.927099
 40
2.310847
 40
2.310847
 40
2.310847
 40
2.310847
 10
96.657750
 20
175.054583
 30
0.0
 10
96.421992
 20
175.316721
 30
0.0
 10
95.987733
 20
175.799572
 30
0.0
 10
95.741901
 20
176.547172
 30
0.0
 10
95.665065
 20
176.961007
 30
0.0
 10
95.641750
 20
177.086583
 30
0.0
 11
96.657750
 21
175.054583
 31
0.0
 11
96.018046
 21
175.882435
 31
0.0
 11
95.717009
 21
176.710287
 31
0.0
 11
95.641750
 21
177.086583
 31
0.0
  0
SPLINE
  5
14e
100
AcDbEntity
  8
0
 62
5
100
AcDbSpline
 70
0
 71
3
 72
10
 73
6
 74
4
 40
0.000000
 40
0.000000
 40
0.000000
 40
0.000000
 40
0.383748
 40
1.264635
 40
2.310847
 40
2.310847
 40
2.310847
 40
2.310847
 10
119.976813
 20
201.421646
 30
0.0
 10
120.102389
 20
201.398330
 30
0.0
 10
120.516224
 20
201.321495
 30
0.0
 10
121.263824
 20
201.075663
 30
0.0
 10
121.746675
 20
200.641403
 30
0.0
 10
122.008813
 20
200.405646
 30
0.0
 11
119.976813
 21
201.421646
 31
0.0
 11
120.353109
 21
201.346386
 31
0.0
 11
121.180961
 21
201.045349
 31
0.0
 11
122.008813
 21
200.405646
 31
0.0
  0
SPLINE
  5
14f
100
AcDbEntity
  8
0
 62
5
100
AcDbSpline
 70
0
 71
3
 72
10
 73
6
 74
4
 40
0.000000
 40
0.000000
 40
0.000000
 40
0.000000
 40
1.754122
 40
3.597974
 40
5.352096
 40
5.352096
 40
5.352096
 40
5.352096
 10
122.008813
 20
200.405646
 30
0.0
 10
122.278401
 20
199.881151
 30
0.0
 10
122.831369
 20
198.805331
 30
0.0
 10
122.831369
 20
196.925961
 30
0.0
 10
122.278401
 20
195.850141
 30
0.0
 10
122.008813
 20
195.325646
 30
0.0
 11
122.008813
 21
200.405646
 31
0.0
 11
122.686146
 21
198.787572
 31
0.0
 11
122.686146
 21
196.943720
 31
0.0
 11
122.008813
 21
195.325646
 31
0.0
  0
LWPOLYLINE
  5
150
100
AcDbEntity
  8
0
 62
5
100
AcDbPolyline
 90
4
 70
0
 10
119.638146
 20
206.332312
 30
0.0
 10
119.638146
 20
200.405646
 30
0.0
 10
119.976813
 20
200.405646
 30
0.0
 10
119.976813
 20
201.421646
 30
0.0
  0
LWPOLYLINE
  5
151
100
AcDbEntity
  8
0
 62
5
100
AcDbPolyline
 90
4
 70
0
 10
119.976813
 20
194.309646
 30
0.0
 10
119.976813
 20
195.325646
 30
0.0
 10
119.638146
 20
195.325646
 30
0.0
 10
119.638146
 20
189.398979
 30
0.0
  0
LWPOLYLINE
  5
152
100
AcDbEntity
  8
0
 62
1
100
AcDbPolyline
 90
2
 70
0
 10
119.638146
 20
199.220312
 30
0.0
 10
119.638146
 20
196.510979
 30
0.0
  0
LWPOLYLINE
  5
153
100
AcDbEntity
  8
0
 62
5
100
AcDbPolyline
 90
4
 70
0
 10
107.664501
 20
218.305957
 30
0.0
 10
112.334223
 20
218.186221
 30
0.0
 10
119.518410
 20
211.002035
 30
0.0
 10
119.638146
 20
206.332312
 30
0.0
  0
LWPOLYLINE
  5
154
100
AcDbEntity
  8
0
 62
5
100
AcDbPolyline
 90
4
 70
0
 10
110.657911
 20
214.594128
 30
0.0
 10
111.735540
 20
214.713864
 30
0.0
 10
116.046052
 20
210.403351
 30
0.0
 10
115.926317
 20
209.325725
 30
0.0
  0
LWPOLYLINE
  5
155
100
AcDbEntity
  8
0
 62
1
100
AcDbPolyline
 90
2
 70
0
 10
107.664501
 20
218.305957
 30
0.0
 10
111.017121
 20
214.953338
 30
0.0
  0
LWPOLYLINE
  5
156
100
AcDbEntity
  8
0
 62
1
100
AcDbPolyline
 90
2
 70
0
 10
119.638146
 20
206.332312
 30
0.0
 10
116.285526
 20
209.684932
 30
0.0
  0
SPLINE
  5
157
100
AcDbEntity
  8
0
 62
5
100
AcDbSpline
 70
0
 71
3
 72
10
 73
6
 74
4
 40
0.000000
 40
0.000000
 40
0.000000
 40
0.000000
 40
1.046212
 40
1.927099
 40
2.310847
 40
2.310847
 40
2.310847
 40
2.310847
 10
122.008813
 20
195.325646
 30
0.0
 10
121.746675
 20
195.089888
 30
0.0
 10
121.263824
 20
194.655628
 30
0.0
 10
120.516224
 20
194.409797
 30
0.0
 10
120.102389
 20
194.332961
 30
0.0
 10
119.976813
 20
194.309646
 30
0.0
 11
122.008813
 21
195.325646
 31
0.0
 11
121.180961
 21
194.685942
 31
0.0
 11
120.353109
 21
194.384905
 31
0.0
 11
119.976813
 21
194.309646
 31
0.0
  0
SPLINE
  5
158
100
AcDbEntity
  8
0
 62
5
100
AcDbSpline
 70
0
 71
3
 72
10
 73
6
 74
4
 40
0.000000
 40
0.000000
 40
0.000000
 40
0.000000
 40
0.383748
 40
1.264635
 40
2.310847
 40
2.310847
 40
2.310847
 40
2.310847
 10
108.003083
 20
230.328539
 30
0.0
 10
108.128660
 20
230.305224
 30
0.0
 10
108.542494
 20
230.228388
 30
0.0
 10
109.290094
 20
229.982556
 30
0.0
 10
109.772946
 20
229.548296
 30
0.0
 10
110.035083
 20
229.312539
 30
0.0
 11
108.003083
 21
230.328539
 31
0.0
 11
108.379379
 21
230.253280
 31
0.0
 11
109.207231
 21
229.952243
 31
0.0
 11
110.035083
 21
229.312539
 31
0.0
  0
SPLINE
  5
159
100
AcDbEntity
  8
0
 62
5
100
AcDbSpline
 70
0
 71
3
 72
10
 73
6
 74
4
 40
0.000000
 40
0.000000
 40
0.000000
 40
0.000000
 40
1.754122
 40
3.597974
 40
5.352096
 40
5.352096
 40
5.352096
 40
5.352096
 10
110.035083
 20
229.312539
 30
0.0
 10
110.304672
 20
228.788044
 30
0.0
 10
110.857640
 20
227.712224
 30
0.0
 10
110.857640
 20
225.832854
 30
0.0
 10
110.304672
 20
224.757034
 30
0.0
 10
110.035083
 20
224.232539
 30
0.0
 11
110.035083
 21
229.312539
 31
0.0
 11
110.712417
 21
227.694465
 31
0.0
 11
110.712417
 21
225.850613
 31
0.0
 11
110.035083
 21
224.232539
 31
0.0
  0
LWPOLYLINE
  5
15a
100
AcDbEntity
  8
0
 62
5
100
AcDbPolyline
 90
4
 70
0
 10
107.664417
 20
235.239206
 30
0.0
 10
107.664417
 20
229.312539
 30
0.0
 10
108.003083
 20
229.312539
 30
0.0
 10
108.003083
 20
230.328539
 30
0.0
  0
LWPOLYLINE
  5
15b
100
AcDbEntity
  8
0
 62
5
100
AcDbPolyline
 90
4
 70
0
 10
108.003083
 20
223.216539
 30
0.0
 10
108.003083
 20
224.232539
 30
0.0
 10
107.664417
 20
224.232539
 30
0.0
 10
107.664417
 20
218.305872
 30
0.0
  0
LWPOLYLINE
  5
15c
100
AcDbEntity
  8
0
 62
1
100
AcDbPolyline
 90
2
 70
0
 10
107.664417
 20
228.127206
 30
0.0
 10
107.664417
 20
225.417872
 30
0.0
  0
LWPOLYLINE
  5
15d
100
AcDbEntity
  8
0
 62
5
100
AcDbPolyline
 90
7
 70
0
 10
107.664417
 20
235.239206
 30
0.0
 10
109.101263
 20
234.281307
 30
0.0
 10
110.178901
 20
235.598418
 30
0.0
 10
109.819688
 20
236.915527
 30
0.0
 10
109.580214
 20
236.676053
 30
0.0
 10
109.340737
 20
236.915527
 30
0.0
 10
119.638146
 20
247.212935
 30
0.0
  0
LWPOLYLINE
  5
15e
100
AcDbEntity
  8
0
 62
1
100
AcDbPolyline
 90
2
 70
0
 10
108.143365
 20
235.718154
 30
0.0
 10
108.861789
 20
236.436579
 30
0.0
  0
LWPOLYLINE
  5
15f
100
AcDbEntity
  8
0
 62
5
100
AcDbPolyline
 90
8
 70
0
 10
119.638146
 20
247.212935
 30
0.0
 10
113.711457
 20
236.947607
 30
0.0
 10
112.515588
 20
237.246980
 30
0.0
 10
111.522270
 20
235.865172
 30
0.0
 10
111.978821
 20
234.623933
 30
0.0
 10
112.148154
 20
234.917227
 30
0.0
 10
112.441451
 20
234.747894
 30
0.0
 10
111.171445
 20
232.548180
 30
0.0
  0
LWPOLYLINE
  5
160
100
AcDbEntity
  8
0
 62
1
100
AcDbPolyline
 90
2
 70
0
 10
113.372787
 20
236.361016
 30
0.0
 10
112.780118
 20
235.334484
 30
0.0
  0
LWPOLYLINE
  5
161
100
AcDbEntity
  8
0
 62
5
100
AcDbPolyline
 90
4
 70
0
 10
119.638106
 20
217.883532
 30
0.0
 10
115.158500
 20
219.207798
 30
0.0
 10
110.078526
 20
228.006575
 30
0.0
 10
111.171479
 20
232.548160
 30
0.0
  0
LWPOLYLINE
  5
162
100
AcDbEntity
  8
0
 62
5
100
AcDbPolyline
 90
4
 70
0
 10
117.707390
 20
222.243626
 30
0.0
 10
116.635493
 20
222.406880
 30
0.0
 10
113.587507
 20
227.686146
 30
0.0
 10
113.982074
 20
228.696064
 30
0.0
  0
LWPOLYLINE
  5
163
100
AcDbEntity
  8
0
 62
1
100
AcDbPolyline
 90
2
 70
0
 10
119.638106
 20
217.883532
 30
0.0
 10
117.267451
 20
221.989629
 30
0.0
  0
LWPOLYLINE
  5
164
100
AcDbEntity
  8
0
 62
1
100
AcDbPolyline
 90
2
 70
0
 10
111.171479
 20
232.548160
 30
0.0
 10
113.542135
 20
228.442064
 30
0.0
  0
SPLINE
  5
165
100
AcDbEntity
  8
0
 62
5
100
AcDbSpline
 70
0
 71
3
 72
10
 73
6
 74
4
 40
0.000000
 40
0.000000
 40
0.000000
 40
0.000000
 40
1.046212
 40
1.927099
 40
2.310847
 40
2.310847
 40
2.310847
 40
2.310847
 10
110.035083
 20
224.232539
 30
0.0
 10
109.772946
 20
223.996782
 30
0.0
 10
109.290094
 20
223.562522
 30
0.0
 10
108.542494
 20
223.316690
 30
0.0
 10
108.128660
 20
223.239855
 30
0.0
 10
108.003083
 20
223.216539
 30
0.0
 11
110.035083
 21
224.232539
 31
0.0
 11
109.207231
 21
223.592835
 31
0.0
 11
108.379379
 21
223.291798
 31
0.0
 11
108.003083
 21
223.216539
 31
0.0
  0
SPLINE
  5
166
100
AcDbEntity
  8
0
 62
5
100
AcDbSpline
 70
0
 71
3
 72
10
 73
6
 74
4
 40
0.000000
 40
0.000000
 40
0.000000
 40
0.000000
 40
0.383748
 40
1.264635
 40
2.310847
 40
2.310847
 40
2.310847
 40
2.310847
 10
131.660813
 20
217.544888
 30
0.0
 10
131.637497
 20
217.419312
 30
0.0
 10
131.560661
 20
217.005477
 30
0.0
 10
131.314830
 20
216.257877
 30
0.0
 10
130.880570
 20
215.775026
 30
0.0
 10
130.644813
 20
215.512888
 30
0.0
 11
131.660813
 21
217.544888
 31
0.0
 11
131.585553
 21
217.168592
 31
0.0
 11
131.284516
 21
216.340740
 31
0.0
 11
130.644813
 21
215.512888
 31
0.0
  0
SPLINE
  5
167
100
AcDbEntity
  8
0
 62
5
100
AcDbSpline
 70
0
 71
3
 72
10
 73
6
 74
4
 40
0.000000
 40
0.000000
 40
0.000000
 40
0.000000
 40
1.754122
 40
3.597974
 40
5.352096
 40
5.352096
 40
5.352096
 40
5.352096
 10
130.644813
 20
215.512888
 30
0.0
 10
130.120317
 20
215.243300
 30
0.0
 10
129.044498
 20
214.690332
 30
0.0
 10
127.165127
 20
214.690332
 30
0.0
 10
126.089308
 20
215.243300
 30
0.0
 10
125.564813
 20
215.512888
 30
0.0
 11
130.644813
 21
215.512888
 31
0.0
 11
129.026738
 21
214.835555
 31
0.0
 11
127.182887
 21
214.835555
 31
0.0
 11
125.564813
 21
215.512888
 31
0.0
  0
LWPOLYLINE
  5
168
100
AcDbEntity
  8
0
 62
5
100
AcDbPolyline
 90
4
 70
0
 10
136.571479
 20
217.883555
 30
0.0
 10
130.644813
 20
217.883555
 30
0.0
 10
130.644813
 20
217.544888
 30
0.0
 10
131.660813
 20
217.544888
 30
0.0
  0
LWPOLYLINE
  5
169
100
AcDbEntity
  8
0
 62
5
100
AcDbPolyline
 90
4
 70
0
 10
124.548813
 20
217.544888
 30
0.0
 10
125.564813
 20
217.544888
 30
0.0
 10
125.564813
 20
217.883555
 30
0.0
 10
119.638146
 20
217.883555
 30
0.0
  0
LWPOLYLINE
  5
16a
100
AcDbEntity
  8
0
 62
1
100
AcDbPolyline
 90
2
 70
0
 10
129.459479
 20
217.883555
 30
0.0
 10
126.750146
 20
217.883555
 30
0.0
  0
LWPOLYLINE
  5
16b
100
AcDbEntity
  8
0
 62
5
100
AcDbPolyline
 90
4
 70
0
 10
145.038106
 20
232.548183
 30
0.0
 10
146.131060
 20
228.006598
 30
0.0
 10
141.051085
 20
219.207821
 30
0.0
 10
136.571479
 20
217.883555
 30
0.0
  0
LWPOLYLINE
  5
16c
100
AcDbEntity
  8
0
 62
5
100
AcDbPolyline
 90
4
 70
0
 10
142.227512
 20
228.696087
 30
0.0
 10
142.622078
 20
227.686169
 30
0.0
 10
139.574092
 20
222.406903
 30
0.0
 10
138.502195
 20
222.243649
 30
0.0
  0
LWPOLYLINE
  5
16d
100
AcDbEntity
  8
0
 62
1
100
AcDbPolyline
 90
2
 70
0
 10
145.038106
 20
232.548183
 30
0.0
 10
142.667451
 20
228.442087
 30
0.0
  0
LWPOLYLINE
  5
16e
100
AcDbEntity
  8
0
 62
1
100
AcDbPolyline
 90
2
 70
0
 10
136.571479
 20
217.883555
 30
0.0
 10
138.942135
 20
221.989651
 30
0.0
  0
LWPOLYLINE
  5
16f
100
AcDbEntity
  8
0
 62
5
100
AcDbPolyline
 90
8
 70
0
 10
136.571445
 20
247.212915
 30
0.0
 10
142.498135
 20
236.947587
 30
0.0
 10
143.694003
 20
237.246960
 30
0.0
 10
144.687321
 20
235.865152
 30
0.0
 10
144.230770
 20
234.623913
 30
0.0
 10
144.061437
 20
234.917207
 30
0.0
 10
143.768140
 20
234.747874
 30
0.0
 10
145.038146
 20
232.548160
 30
0.0
  0
LWPOLYLINE
  5
170
100
AcDbEntity
  8
0
 62
1
100
AcDbPolyline
 90
2
 70
0
 10
142.836804
 20
236.360997
 30
0.0
 10
143.429474
 20
235.334464
 30
0.0
  0
LWPOLYLINE
  5
171
100
AcDbEntity
  8
0
 62
5
100
AcDbPolyline
 90
7
 70
0
 10
148.545124
 20
235.239290
 30
0.0
 10
147.108285
 20
234.281400
 30
0.0
 10
146.030659
 20
235.598500
 30
0.0
 10
146.389869
 20
236.915600
 30
0.0
 10
146.629340
 20
236.676129
 30
0.0
 10
146.868814
 20
236.915600
 30
0.0
 10
136.571479
 20
247.212935
 30
0.0
  0
LWPOLYLINE
  5
172
100
AcDbEntity
  8
0
 62
1
100
AcDbPolyline
 90
2
 70
0
 10
148.066179
 20
235.718236
 30
0.0
 10
147.347759
 20
236.436655
 30
0.0
  0
SPLINE
  5
173
100
AcDbEntity
  8
0
 62
5
100
AcDbSpline
 70
0
 71
3
 72
10
 73
6
 74
4
 40
0.000000
 40
0.000000
 40
0.000000
 40
0.000000
 40
1.046212
 40
1.927099
 40
2.310847
 40
2.310847
 40
2.310847
 40
2.310847
 10
125.564813
 20
215.512888
 30
0.0
 10
125.329055
 20
215.775026
 30
0.0
 10
124.894795
 20
216.257877
 30
0.0
 10
124.648964
 20
217.005477
 30
0.0
 10
124.572128
 20
217.419312
 30
0.0
 10
124.548813
 20
217.544888
 30
0.0
 11
125.564813
 21
215.512888
 31
0.0
 11
124.925109
 21
216.340740
 31
0.0
 11
124.624072
 21
217.168592
 31
0.0
 11
124.548813
 21
217.544888
 31
0.0
  0
SPLINE
  5
174
100
AcDbEntity
  8
0
 62
5
100
AcDbSpline
 70
0
 71
3
 72
10
 73
6
 74
4
 40
0.000000
 40
0.000000
 40
0.000000
 40
0.000000
 40
0.383748
 40
1.264635
 40
2.310847
 40
2.310847
 40
2.310847
 40
2.310847
 10
148.206373
 20
230.328539
 30
0.0
 10
148.080796
 20
230.305224
 30
0.0
 10
147.666961
 20
230.228388
 30
0.0
 10
146.919361
 20
229.982556
 30
0.0
 10
146.436510
 20
229.548296
 30
0.0
 10
146.174373
 20
229.312539
 30
0.0
 11
148.206373
 21
230.328539
 31
0.0
 11
147.830076
 21
230.253280
 31
0.0
 11
147.002224
 21
229.952243
 31
0.0
 11
146.174373
 21
229.312539
 31
0.0
  0
SPLINE
  5
175
100
AcDbEntity
  8
0
 62
5
100
AcDbSpline
 70
0
 71
3
 72
10
 73
6
 74
4
 40
0.000000
 40
0.000000
 40
0.000000
 40
0.000000
 40
1.754122
 40
3.597974
 40
5.352096
 40
5.352096
 40
5.352096
 40
5.352096
 10
146.174373
 20
229.312539
 30
0.0
 10
145.904784
 20
228.788044
 30
0.0
 10
145.351816
 20
227.712224
 30
0.0
 10
145.351816
 20
225.832854
 30
0.0
 10
145.904784
 20
224.757034
 30
0.0
 10
146.174373
 20
224.232539
 30
0.0
 11
146.174373
 21
229.312539
 31
0.0
 11
145.497039
 21
227.694465
 31
0.0
 11
145.497039
 21
225.850613
 31
0.0
 11
146.174373
 21
224.232539
 31
0.0
  0
LWPOLYLINE
  5
176
100
AcDbEntity
  8
0
 62
5
100
AcDbPolyline
 90
4
 70
0
 10
148.545039
 20
235.239206
 30
0.0
 10
148.545039
 20
229.312539
 30
0.0
 10
148.206373
 20
229.312539
 30
0.0
 10
148.206373
 20
230.328539
 30
0.0
  0
LWPOLYLINE
  5
177
100
AcDbEntity
  8
0
 62
5
100
AcDbPolyline
 90
4
 70
0
 10
148.206373
 20
223.216539
 30
0.0
 10
148.206373
 20
224.232539
 30
0.0
 10
148.545039
 20
224.232539
 30
0.0
 10
148.545039
 20
218.305872
 30
0.0
  0
LWPOLYLINE
  5
178
100
AcDbEntity
  8
0
 62
1
100
AcDbPolyline
 90
2
 70
0
 10
148.545039
 20
228.127206
 30
0.0
 10
148.545039
 20
225.417872
 30
0.0
  0
LWPOLYLINE
  5
179
100
AcDbEntity
  8
0
 62
5
100
AcDbPolyline
 90
4
 70
0
 10
165.478373
 20
218.305872
 30
0.0
 10
162.091706
 20
215.088539
 30
0.0
 10
151.931706
 20
215.088539
 30
0.0
 10
148.545039
 20
218.305872
 30
0.0
  0
LWPOLYLINE
  5
17a
100
AcDbEntity
  8
0
 62
5
100
AcDbPolyline
 90
4
 70
0
 10
160.737039
 20
218.813872
 30
0.0
 10
160.059706
 20
217.967206
 30
0.0
 10
153.963706
 20
217.967206
 30
0.0
 10
153.286373
 20
218.813872
 30
0.0
  0
LWPOLYLINE
  5
17b
100
AcDbEntity
  8
0
 62
1
100
AcDbPolyline
 90
2
 70
0
 10
165.478373
 20
218.305872
 30
0.0
 10
160.737039
 20
218.305872
 30
0.0
  0
LWPOLYLINE
  5
17c
100
AcDbEntity
  8
0
 62
1
100
AcDbPolyline
 90
2
 70
0
 10
148.545039
 20
218.305872
 30
0.0
 10
153.286373
 20
218.305872
 30
0.0
  0
SPLINE
  5
17d
100
AcDbEntity
  8
0
 62
5
100
AcDbSpline
 70
0
 71
3
 72
10
 73
6
 74
4
 40
0.000000
 40
0.000000
 40
0.000000
 40
0.000000
 40
1.046212
 40
1.927099
 40
2.310847
 40
2.310847
 40
2.310847
 40
2.310847
 10
146.174373
 20
224.232539
 30
0.0
 10
146.436510
 20
223.996782
 30
0.0
 10
146.919361
 20
223.562522
 30
0.0
 10
147.666961
 20
223.316690
 30
0.0
 10
148.080796
 20
223.239855
 30
0.0
 10
148.206373
 20
223.216539
 30
0.0
 11
146.174373
 21
224.232539
 31
0.0
 11
147.002224
 21
223.592835
 31
0.0
 11
147.830076
 21
223.291798
 31
0.0
 11
148.206373
 21
223.216539
 31
0.0
  0
SPLINE
  5
17e
100
AcDbEntity
  8
0
 62
5
100
AcDbSpline
 70
0
 71
3
 72
10
 73
6
 74
4
 40
0.000000
 40
0.000000
 40
0.000000
 40
0.000000
 40
0.383748
 40
1.264635
 40
2.310847
 40
2.310847
 40
2.310847
 40
2.310847
 10
165.817039
 20
230.328539
 30
0.0
 10
165.942616
 20
230.305224
 30
0.0
 10
166.356450
 20
230.228388
 30
0.0
 10
167.104050
 20
229.982556
 30
0.0
 10
167.586902
 20
229.548296
 30
0.0
 10
167.849039
 20
229.312539
 30
0.0
 11
165.817039
 21
230.328539
 31
0.0
 11
166.193335
 21
230.253280
 31
0.0
 11
167.021187
 21
229.952243
 31
0.0
 11
167.849039
 21
229.312539
 31
0.0
  0
SPLINE
  5
17f
100
AcDbEntity
  8
0
 62
5
100
AcDbSpline
 70
0
 71
3
 72
10
 73
6
 74
4
 40
0.000000
 40
0.000000
 40
0.000000
 40
0.000000
 40
1.754122
 40
3.597974
 40
5.352096
 40
5.352096
 40
5.352096
 40
5.352096
 10
167.849039
 20
229.312539
 30
0.0
 10
168.118628
 20
228.788044
 30
0.0
 10
168.671596
 20
227.712224
 30
0.0
 10
168.671596
 20
225.832854
 30
0.0
 10
168.118628
 20
224.757034
 30
0.0
 10
167.849039
 20
224.232539
 30
0.0
 11
167.849039
 21
229.312539
 31
0.0
 11
168.526373
 21
227.694465
 31
0.0
 11
168.526373
 21
225.850613
 31
0.0
 11
167.849039
 21
224.232539
 31
0.0
  0
LWPOLYLINE
  5
180
100
AcDbEntity
  8
0
 62
5
100
AcDbPolyline
 90
4
 70
0
 10
165.478373
 20
235.239206
 30
0.0
 10
165.478373
 20
229.312539
 30
0.0
 10
165.817039
 20
229.312539
 30
0.0
 10
165.817039
 20
230.328539
 30
0.0
  0
LWPOLYLINE
  5
181
100
AcDbEntity
  8
0
 62
5
100
AcDbPolyline
 90
4
 70
0
 10
165.817039
 20
223.216539
 30
0.0
 10
165.817039
 20
224.232539
 30
0.0
 10
165.478373
 20
224.232539
 30
0.0
 10
165.478373
 20
218.305872
 30
0.0
  0
LWPOLYLINE
  5
182
100
AcDbEntity
  8
0
 62
1
100
AcDbPolyline
 90
2
 70
0
 10
165.478373
 20
228.127206
 30
0.0
 10
165.478373
 20
225.417872
 30
0.0
  0
LWPOLYLINE
  5
183
100
AcDbEntity
  8
0
 62
5
100
AcDbPolyline
 90
7
 70
0
 10
165.478373
 20
235.239206
 30
0.0
 10
166.915219
 20
234.281307
 30
0.0
 10
167.992857
 20
235.598418
 30
0.0
 10
167.633644
 20
236.915527
 30
0.0
 10
167.394170
 20
236.676053
 30
0.0
 10
167.154693
 20
236.915527
 30
0.0
 10
177.452102
 20
247.212935
 30
0.0
  0
LWPOLYLINE
  5
184
100
AcDbEntity
  8
0
 62
1
100
AcDbPolyline
 90
2
 70
0
 10
165.957321
 20
235.718154
 30
0.0
 10
166.675745
 20
236.436579
 30
0.0
  0
LWPOLYLINE
  5
185
100
AcDbEntity
  8
0
 62
5
100
AcDbPolyline
 90
8
 70
0
 10
177.452102
 20
247.212935
 30
0.0
 10
171.525413
 20
236.947607
 30
0.0
 10
170.329544
 20
237.246980
 30
0.0
 10
169.336226
 20
235.865172
 30
0.0
 10
169.792777
 20
234.623933
 30
0.0
 10
169.962110
 20
234.917227
 30
0.0
 10
170.255407
 20
234.747894
 30
0.0
 10
168.985401
 20
232.548180
 30
0.0
  0
LWPOLYLINE
  5
186
100
AcDbEntity
  8
0
 62
1
100
AcDbPolyline
 90
2
 70
0
 10
171.186743
 20
236.361016
 30
0.0
 10
170.594074
 20
235.334484
 30
0.0
  0
LWPOLYLINE
  5
187
100
AcDbEntity
  8
0
 62
5
100
AcDbPolyline
 90
4
 70
0
 10
177.452062
 20
217.883532
 30
0.0
 10
172.972456
 20
219.207798
 30
0.0
 10
167.892482
 20
228.006575
 30
0.0
 10
168.985435
 20
232.548160
 30
0.0
  0
LWPOLYLINE
  5
188
100
AcDbEntity
  8
0
 62
5
100
AcDbPolyline
 90
4
 70
0
 10
175.521346
 20
222.243626
 30
0.0
 10
174.449449
 20
222.406880
 30
0.0
 10
171.401463
 20
227.686146
 30
0.0
 10
171.796030
 20
228.696064
 30
0.0
  0
LWPOLYLINE
  5
189
100
AcDbEntity
  8
0
 62
1
100
AcDbPolyline
 90
2
 70
0
 10
177.452062
 20
217.883532
 30
0.0
 10
175.081407
 20
221.989629
 30
0.0
  0
LWPOLYLINE
  5
18a
100
AcDbEntity
  8
0
 62
1
100
AcDbPolyline
 90
2
 70
0
 10
168.985435
 20
232.548160
 30
0.0
 10
171.356091
 20
228.442064
 30
0.0
  0
SPLINE
  5
18b
100
AcDbEntity
  8
0
 62
5
100
AcDbSpline
 70
0
 71
3
 72
10
 73
6
 74
4
 40
0.000000
 40
0.000000
 40
0.000000
 40
0.000000
 40
1.046212
 40
1.927099
 40
2.310847
 40
2.310847
 40
2.310847
 40
2.310847
 10
167.849039
 20
224.232539
 30
0.0
 10
167.586902
 20
223.996782
 30
0.0
 10
167.104050
 20
223.562522
 30
0.0
 10
166.356450
 20
223.316690
 30
0.0
 10
165.942616
 20
223.239855
 30
0.0
 10
165.817039
 20
223.216539
 30
0.0
 11
167.849039
 21
224.232539
 31
0.0
 11
167.021187
 21
223.592835
 31
0.0
 11
166.193335
 21
223.291798
 31
0.0
 11
165.817039
 21
223.216539
 31
0.0
  0
SPLINE
  5
18c
100
AcDbEntity
  8
0
 62
5
100
AcDbSpline
 70
0
 71
3
 72
10
 73
6
 74
4
 40
0.000000
 40
0.000000
 40
0.000000
 40
0.000000
 40
0.383733
 40
1.264585
 40
2.310755
 40
2.310755
 40
2.310755
 40
2.310755
 10
189.474289
 20
217.544903
 30
0.0
 10
189.450974
 20
217.419331
 30
0.0
 10
189.374141
 20
217.005513
 30
0.0
 10
189.128319
 20
216.257943
 30
0.0
 10
188.694076
 20
215.775111
 30
0.0
 10
188.458328
 20
215.512984
 30
0.0
 11
189.474289
 21
217.544903
 31
0.0
 11
189.399032
 21
217.168621
 31
0.0
 11
189.098007
 21
216.340802
 31
0.0
 11
188.458328
 21
215.512984
 31
0.0
  0
SPLINE
  5
18d
100
AcDbEntity
  8
0
 62
5
100
AcDbSpline
 70
0
 71
3
 72
10
 73
6
 74
4
 40
0.000000
 40
0.000000
 40
0.000000
 40
0.000000
 40
1.754052
 40
3.597830
 40
5.351882
 40
5.351882
 40
5.351882
 40
5.351882
 10
188.458328
 20
215.512984
 30
0.0
 10
187.933854
 20
215.243406
 30
0.0
 10
186.858078
 20
214.690460
 30
0.0
 10
184.978782
 20
214.690460
 30
0.0
 10
183.903005
 20
215.243406
 30
0.0
 10
183.378531
 20
215.512984
 30
0.0
 11
188.458328
 21
215.512984
 31
0.0
 11
186.840319
 21
214.835677
 31
0.0
 11
184.996541
 21
214.835677
 31
0.0
 11
183.378531
 21
215.512984
 31
0.0
  0
LWPOLYLINE
  5
18e
100
AcDbEntity
  8
0
 62
5
100
AcDbPolyline
 90
4
 70
0
 10
194.384758
 20
217.883555
 30
0.0
 10
188.458328
 20
217.883555
 30
0.0
 10
188.458328
 20
217.544903
 30
0.0
 10
189.474289
 20
217.544903
 30
0.0
  0
LWPOLYLINE
  5
18f
100
AcDbEntity
  8
0
 62
5
100
AcDbPolyline
 90
4
 70
0
 10
182.362571
 20
217.544903
 30
0.0
 10
183.378531
 20
217.544903
 30
0.0
 10
183.378531
 20
217.883555
 30
0.0
 10
177.452102
 20
217.883555
 30
0.0
  0
LWPOLYLINE
  5
190
100
AcDbEntity
  8
0
 62
1
100
AcDbPolyline
 90
2
 70
0
 10
187.273043
 20
217.883555
 30
0.0
 10
184.563817
 20
217.883555
 30
0.0
  0
LWPOLYLINE
  5
191
100
AcDbEntity
  8
0
 62
5
100
AcDbPolyline
 90
4
 70
0
 10
202.851385
 20
232.548183
 30
0.0
 10
203.944339
 20
228.006598
 30
0.0
 10
198.864364
 20
219.207821
 30
0.0
 10
194.384758
 20
217.883555
 30
0.0
  0
LWPOLYLINE
  5
192
100
AcDbEntity
  8
0
 62
5
100
AcDbPolyline
 90
4
 70
0
 10
200.040790
 20
228.696087
 30
0.0
 10
200.435357
 20
227.686169
 30
0.0
 10
197.387371
 20
222.406903
 30
0.0
 10
196.315474
 20
222.243649
 30
0.0
  0
LWPOLYLINE
  5
193
100
AcDbEntity
  8
0
 62
1
100
AcDbPolyline
 90
2
 70
0
 10
202.851385
 20
232.548183
 30
0.0
 10
200.480730
 20
228.442087
 30
0.0
  0
LWPOLYLINE
  5
194
100
AcDbEntity
  8
0
 62
1
100
AcDbPolyline
 90
2
 70
0
 10
194.384758
 20
217.883555
 30
0.0
 10
196.755413
 20
221.989651
 30
0.0
  0
LWPOLYLINE
  5
195
100
AcDbEntity
  8
0
 62
5
100
AcDbPolyline
 90
8
 70
0
 10
194.384724
 20
247.212915
 30
0.0
 10
200.311413
 20
236.947587
 30
0.0
 10
201.507282
 20
237.246960
 30
0.0
 10
202.500600
 20
235.865152
 30
0.0
 10
202.044049
 20
234.623913
 30
0.0
 10
201.874715
 20
234.917207
 30
0.0
 10
201.581419
 20
234.747874
 30
0.0
 10
202.851425
 20
232.548160
 30
0.0
  0
LWPOLYLINE
  5
196
100
AcDbEntity
  8
0
 62
1
100
AcDbPolyline
 90
2
 70
0
 10
200.650083
 20
236.360997
 30
0.0
 10
201.242752
 20
235.334464
 30
0.0
  0
LWPOLYLINE
  5
197
100
AcDbEntity
  8
0
 62
5
100
AcDbPolyline
 90
7
 70
0
 10
206.358403
 20
235.239290
 30
0.0
 10
204.921564
 20
234.281400
 30
0.0
 10
203.843938
 20
235.598500
 30
0.0
 10
204.203148
 20
236.915600
 30
0.0
 10
204.442619
 20
236.676129
 30
0.0
 10
204.682093
 20
236.915600
 30
0.0
 10
194.384758
 20
247.212935
 30
0.0
  0
LWPOLYLINE
  5
198
100
AcDbEntity
  8
0
 62
1
100
AcDbPolyline
 90
2
 70
0
 10
205.879457
 20
235.718236
 30
0.0
 10
205.161038
 20
236.436655
 30
0.0
  0
SPLINE
  5
199
100
AcDbEntity
  8
0
 62
5
100
AcDbSpline
 70
0
 71
3
 72
10
 73
6
 74
4
 40
0.000000
 40
0.000000
 40
0.000000
 40
0.000000
 40
1.046170
 40
1.927022
 40
2.310755
 40
2.310755
 40
2.310755
 40
2.310755
 10
183.378531
 20
215.512984
 30
0.0
 10
183.142783
 20
215.775111
 30
0.0
 10
182.708541
 20
216.257943
 30
0.0
 10
182.462719
 20
217.005513
 30
0.0
 10
182.385886
 20
217.419331
 30
0.0
 10
182.362571
 20
217.544903
 30
0.0
 11
183.378531
 21
215.512984
 31
0.0
 11
182.738853
 21
216.340802
 31
0.0
 11
182.437827
 21
217.168621
 31
0.0
 11
182.362571
 21
217.544903
 31
0.0
  0
SPLINE
  5
19a
100
AcDbEntity
  8
0
 62
5
100
AcDbSpline
 70
0
 71
3
 72
10
 73
6
 74
4
 40
0.000000
 40
0.000000
 40
0.000000
 40
0.000000
 40
0.383748
 40
1.264635
 40
2.310847
 40
2.310847
 40
2.310847
 40
2.310847
 10
206.019651
 20
230.328539
 30
0.0
 10
205.894075
 20
230.305224
 30
0.0
 10
205.480240
 20
230.228388
 30
0.0
 10
204.732640
 20
229.982556
 30
0.0
 10
204.249789
 20
229.548296
 30
0.0
 10
203.987651
 20
229.312539
 30
0.0
 11
206.019651
 21
230.328539
 31
0.0
 11
205.643355
 21
230.253280
 31
0.0
 11
204.815503
 21
229.952243
 31
0.0
 11
203.987651
 21
229.312539
 31
0.0
  0
SPLINE
  5
19b
100
AcDbEntity
  8
0
 62
5
100
AcDbSpline
 70
0
 71
3
 72
10
 73
6
 74
4
 40
0.000000
 40
0.000000
 40
0.000000
 40
0.000000
 40
1.754122
 40
3.597974
 40
5.352096
 40
5.352096
 40
5.352096
 40
5.352096
 10
203.987651
 20
229.312539
 30
0.0
 10
203.718062
 20
228.788044
 30
0.0
 10
203.165095
 20
227.712224
 30
0.0
 10
203.165095
 20
225.832854
 30
0.0
 10
203.718062
 20
224.757034
 30
0.0
 10
203.987651
 20
224.232539
 30
0.0
 11
203.987651
 21
229.312539
 31
0.0
 11
203.310318
 21
227.694465
 31
0.0
 11
203.310318
 21
225.850613
 31
0.0
 11
203.987651
 21
224.232539
 31
0.0
  0
LWPOLYLINE
  5
19c
100
AcDbEntity
  8
0
 62
5
100
AcDbPolyline
 90
4
 70
0
 10
206.358318
 20
235.239206
 30
0.0
 10
206.358318
 20
229.312539
 30
0.0
 10
206.019651
 20
229.312539
 30
0.0
 10
206.019651
 20
230.328539
 30
0.0
  0
LWPOLYLINE
  5
19d
100
AcDbEntity
  8
0
 62
5
100
AcDbPolyline
 90
4
 70
0
 10
206.019651
 20
223.216539
 30
0.0
 10
206.019651
 20
224.232539
 30
0.0
 10
206.358318
 20
224.232539
 30
0.0
 10
206.358318
 20
218.305872
 30
0.0
  0
LWPOLYLINE
  5
19e
100
AcDbEntity
  8
0
 62
1
100
AcDbPolyline
 90
2
 70
0
 10
206.358318
 20
228.127206
 30
0.0
 10
206.358318
 20
225.417872
 30
0.0
  0
LWPOLYLINE
  5
19f
100
AcDbEntity
  8
0
 62
5
100
AcDbPolyline
 90
4
 70
0
 10
223.291651
 20
218.305872
 30
0.0
 10
219.904985
 20
215.088539
 30
0.0
 10
209.744985
 20
215.088539
 30
0.0
 10
206.358318
 20
218.305872
 30
0.0
  0
LWPOLYLINE
  5
1a0
100
AcDbEntity
  8
0
 62
5
100
AcDbPolyline
 90
4
 70
0
 10
218.550318
 20
218.813872
 30
0.0
 10
217.872985
 20
217.967206
 30
0.0
 10
211.776985
 20
217.967206
 30
0.0
 10
211.099651
 20
218.813872
 30
0.0
  0
LWPOLYLINE
  5
1a1
100
AcDbEntity
  8
0
 62
1
100
AcDbPolyline
 90
2
 70
0
 10
223.291651
 20
218.305872
 30
0.0
 10
218.550318
 20
218.305872
 30
0.0
  0
LWPOLYLINE
  5
1a2
100
AcDbEntity
  8
0
 62
1
100
AcDbPolyline
 90
2
 70
0
 10
206.358318
 20
218.305872
 30
0.0
 10
211.099651
 20
218.305872
 30
0.0
  0
SPLINE
  5
1a3
100
AcDbEntity
  8
0
 62
5
100
AcDbSpline
 70
0
 71
3
 72
10
 73
6
 74
4
 40
0.000000
 40
0.000000
 40
0.000000
 40
0.000000
 40
1.046212
 40
1.927099
 40
2.310847
 40
2.310847
 40
2.310847
 40
2.310847
 10
203.987651
 20
224.232539
 30
0.0
 10
204.249789
 20
223.996782
 30
0.0
 10
204.732640
 20
223.562522
 30
0.0
 10
205.480240
 20
223.316690
 30
0.0
 10
205.894075
 20
223.239855
 30
0.0
 10
206.019651
 20
223.216539
 30
0.0
 11
203.987651
 21
224.232539
 31
0.0
 11
204.815503
 21
223.592835
 31
0.0
 11
205.643355
 21
223.291798
 31
0.0
 11
206.019651
 21
223.216539
 31
0.0
  0
SPLINE
  5
1a4
100
AcDbEntity
  8
0
 62
5
100
AcDbSpline
 70
0
 71
3
 72
10
 73
6
 74
4
 40
0.000000
 40
0.000000
 40
0.000000
 40
0.000000
 40
0.383748
 40
1.264635
 40
2.310847
 40
2.310847
 40
2.310847
 40
2.310847
 10
223.630318
 20
230.328539
 30
0.0
 10
223.755894
 20
230.305224
 30
0.0
 10
224.169729
 20
230.228388
 30
0.0
 10
224.917329
 20
229.982556
 30
0.0
 10
225.400180
 20
229.548296
 30
0.0
 10
225.662318
 20
229.312539
 30
0.0
 11
223.630318
 21
230.328539
 31
0.0
 11
224.006614
 21
230.253280
 31
0.0
 11
224.834466
 21
229.952243
 31
0.0
 11
225.662318
 21
229.312539
 31
0.0
  0
SPLINE
  5
1a5
100
AcDbEntity
  8
0
 62
5
100
AcDbSpline
 70
0
 71
3
 72
10
 73
6
 74
4
 40
0.000000
 40
0.000000
 40
0.000000
 40
0.000000
 40
1.754122
 40
3.597974
 40
5.352096
 40
5.352096
 40
5.352096
 40
5.352096
 10
225.662318
 20
229.312539
 30
0.0
 10
225.931907
 20
228.788044
 30
0.0
 10
226.484874
 20
227.712224
 30
0.0
 10
226.484874
 20
225.832854
 30
0.0
 10
225.931907
 20
224.757034
 30
0.0
 10
225.662318
 20
224.232539
 30
0.0
 11
225.662318
 21
229.312539
 31
0.0
 11
226.339651
 21
227.694465
 31
0.0
 11
226.339651
 21
225.850613
 31
0.0
 11
225.662318
 21
224.232539
 31
0.0
  0
LWPOLYLINE
  5
1a6
100
AcDbEntity
  8
0
 62
5
100
AcDbPolyline
 90
4
 70
0
 10
223.291651
 20
235.239206
 30
0.0
 10
223.291651
 20
229.312539
 30
0.0
 10
223.630318
 20
229.312539
 30
0.0
 10
223.630318
 20
230.328539
 30
0.0
  0
LWPOLYLINE
  5
1a7
100
AcDbEntity
  8
0
 62
5
100
AcDbPolyline
 90
4
 70
0
 10
223.630318
 20
223.216539
 30
0.0
 10
223.630318
 20
224.232539
 30
0.0
 10
223.291651
 20
224.232539
 30
0.0
 10
223.291651
 20
218.305872
 30
0.0
  0
LWPOLYLINE
  5
1a8
100
AcDbEntity
  8
0
 62
1
100
AcDbPolyline
 90
2
 70
0
 10
223.291651
 20
228.127206
 30
0.0
 10
223.291651
 20
225.417872
 30
0.0
  0
LWPOLYLINE
  5
1a9
100
AcDbEntity
  8
0
 62
5
100
AcDbPolyline
 90
7
 70
0
 10
223.291651
 20
235.239206
 30
0.0
 10
224.728591
 20
234.281248
 30
0.0
 10
225.806294
 20
235.598441
 30
0.0
 10
225.447058
 20
236.915634
 30
0.0
 10
225.207570
 20
236.676146
 30
0.0
 10
224.968079
 20
236.915634
 30
0.0
 10
235.266143
 20
247.213697
 30
0.0
  0
LWPOLYLINE
  5
1aa
100
AcDbEntity
  8
0
 62
1
100
AcDbPolyline
 90
2
 70
0
 10
223.770630
 20
235.718185
 30
0.0
 10
224.489100
 20
236.436655
 30
0.0
  0
LWPOLYLINE
  5
1ab
100
AcDbEntity
  8
0
 62
5
100
AcDbPolyline
 90
8
 70
0
 10
235.266905
 20
247.212935
 30
0.0
 10
229.340215
 20
236.947607
 30
0.0
 10
228.144347
 20
237.246980
 30
0.0
 10
227.151029
 20
235.865172
 30
0.0
 10
227.607580
 20
234.623933
 30
0.0
 10
227.776913
 20
234.917227
 30
0.0
 10
228.070210
 20
234.747894
 30
0.0
 10
226.800204
 20
232.548180
 30
0.0
  0
LWPOLYLINE
  5
1ac
100
AcDbEntity
  8
0
 62
1
100
AcDbPolyline
 90
2
 70
0
 10
229.001546
 20
236.361016
 30
0.0
 10
228.408876
 20
235.334484
 30
0.0
  0
LWPOLYLINE
  5
1ad
100
AcDbEntity
  8
0
 62
5
100
AcDbPolyline
 90
4
 70
0
 10
235.266865
 20
217.883532
 30
0.0
 10
230.787259
 20
219.207798
 30
0.0
 10
225.707284
 20
228.006575
 30
0.0
 10
226.800238
 20
232.548160
 30
0.0
  0
LWPOLYLINE
  5
1ae
100
AcDbEntity
  8
0
 62
5
100
AcDbPolyline
 90
4
 70
0
 10
233.336149
 20
222.243626
 30
0.0
 10
232.264252
 20
222.406880
 30
0.0
 10
229.216266
 20
227.686146
 30
0.0
 10
229.610833
 20
228.696064
 30
0.0
  0
LWPOLYLINE
  5
1af
100
AcDbEntity
  8
0
 62
1
100
AcDbPolyline
 90
2
 70
0
 10
235.266865
 20
217.883532
 30
0.0
 10
232.896210
 20
221.989629
 30
0.0
  0
LWPOLYLINE
  5
1b0
100
AcDbEntity
  8
0
 62
1
100
AcDbPolyline
 90
2
 70
0
 10
226.800238
 20
232.548160
 30
0.0
 10
229.170893
 20
228.442064
 30
0.0
  0
SPLINE
  5
1b1
100
AcDbEntity
  8
0
 62
5
100
AcDbSpline
 70
0
 71
3
 72
10
 73
6
 74
4
 40
0.000000
 40
0.000000
 40
0.000000
 40
0.000000
 40
1.046212
 40
1.927099
 40
2.310847
 40
2.310847
 40
2.310847
 40
2.310847
 10
225.662318
 20
224.232539
 30
0.0
 10
225.400180
 20
223.996782
 30
0.0
 10
224.917329
 20
223.562522
 30
0.0
 10
224.169729
 20
223.316690
 30
0.0
 10
223.755894
 20
223.239855
 30
0.0
 10
223.630318
 20
223.216539
 30
0.0
 11
225.662318
 21
224.232539
 31
0.0
 11
224.834466
 21
223.592835
 31
0.0
 11
224.006614
 21
223.291798
 31
0.0
 11
223.630318
 21
223.216539
 31
0.0
  0
SPLINE
  5
1b2
100
AcDbEntity
  8
0
 62
5
100
AcDbSpline
 70
0
 71
3
 72
10
 73
6
 74
4
 40
0.000000
 40
0.000000
 40
0.000000
 40
0.000000
 40
0.383748
 40
1.264635
 40
2.310847
 40
2.310847
 40
2.310847
 40
2.310847
 10
247.289571
 20
217.544888
 30
0.0
 10
247.266256
 20
217.419312
 30
0.0
 10
247.189420
 20
217.005477
 30
0.0
 10
246.943588
 20
216.257877
 30
0.0
 10
246.509329
 20
215.775026
 30
0.0
 10
246.273571
 20
215.512888
 30
0.0
 11
247.289571
 21
217.544888
 31
0.0
 11
247.214312
 21
217.168592
 31
0.0
 11
246.913275
 21
216.340740
 31
0.0
 11
246.273571
 21
215.512888
 31
0.0
  0
SPLINE
  5
1b3
100
AcDbEntity
  8
0
 62
5
100
AcDbSpline
 70
0
 71
3
 72
10
 73
6
 74
4
 40
0.000000
 40
0.000000
 40
0.000000
 40
0.000000
 40
1.754122
 40
3.597974
 40
5.352096
 40
5.352096
 40
5.352096
 40
5.352096
 10
246.273571
 20
215.512888
 30
0.0
 10
245.749076
 20
215.243300
 30
0.0
 10
244.673256
 20
214.690332
 30
0.0
 10
242.793886
 20
214.690332
 30
0.0
 10
241.718066
 20
215.243300
 30
0.0
 10
241.193571
 20
215.512888
 30
0.0
 11
246.273571
 21
215.512888
 31
0.0
 11
244.655497
 21
214.835555
 31
0.0
 11
242.811645
 21
214.835555
 31
0.0
 11
241.193571
 21
215.512888
 31
0.0
  0
LWPOLYLINE
  5
1b4
100
AcDbEntity
  8
0
 62
5
100
AcDbPolyline
 90
4
 70
0
 10
252.200238
 20
217.883555
 30
0.0
 10
246.273571
 20
217.883555
 30
0.0
 10
246.273571
 20
217.544888
 30
0.0
 10
247.289571
 20
217.544888
 30
0.0
  0
LWPOLYLINE
  5
1b5
100
AcDbEntity
  8
0
 62
5
100
AcDbPolyline
 90
4
 70
0
 10
240.177571
 20
217.544888
 30
0.0
 10
241.193571
 20
217.544888
 30
0.0
 10
241.193571
 20
217.883555
 30
0.0
 10
235.266905
 20
217.883555
 30
0.0
  0
LWPOLYLINE
  5
1b6
100
AcDbEntity
  8
0
 62
1
100
AcDbPolyline
 90
2
 70
0
 10
245.088238
 20
217.883555
 30
0.0
 10
242.378905
 20
217.883555
 30
0.0
  0
LWPOLYLINE
  5
1b7
100
AcDbEntity
  8
0
 62
5
100
AcDbPolyline
 90
4
 70
0
 10
260.666865
 20
232.548183
 30
0.0
 10
261.759819
 20
228.006598
 30
0.0
 10
256.679844
 20
219.207821
 30
0.0
 10
252.200238
 20
217.883555
 30
0.0
  0
LWPOLYLINE
  5
1b8
100
AcDbEntity
  8
0
 62
5
100
AcDbPolyline
 90
4
 70
0
 10
257.856270
 20
228.696087
 30
0.0
 10
258.250837
 20
227.686169
 30
0.0
 10
255.202851
 20
222.406903
 30
0.0
 10
254.130954
 20
222.243649
 30
0.0
  0
LWPOLYLINE
  5
1b9
100
AcDbEntity
  8
0
 62
1
100
AcDbPolyline
 90
2
 70
0
 10
260.666865
 20
232.548183
 30
0.0
 10
258.296210
 20
228.442087
 30
0.0
  0
LWPOLYLINE
  5
1ba
100
AcDbEntity
  8
0
 62
1
100
AcDbPolyline
 90
2
 70
0
 10
252.200238
 20
217.883555
 30
0.0
 10
254.570893
 20
221.989651
 30
0.0
  0
SPLINE
  5
1bb
100
AcDbEntity
  8
0
 62
5
100
AcDbSpline
 70
0
 71
3
 72
10
 73
6
 74
4
 40
0.000000
 40
0.000000
 40
0.000000
 40
0.000000
 40
1.046212
 40
1.927099
 40
2.310847
 40
2.310847
 40
2.310847
 40
2.310847
 10
241.193571
 20
215.512888
 30
0.0
 10
240.957814
 20
215.775026
 30
0.0
 10
240.523554
 20
216.257877
 30
0.0
 10
240.277722
 20
217.005477
 30
0.0
 10
240.200887
 20
217.419312
 30
0.0
 10
240.177571
 20
217.544888
 30
0.0
 11
241.193571
 21
215.512888
 31
0.0
 11
240.553867
 21
216.340740
 31
0.0
 11
240.252830
 21
217.168592
 31
0.0
 11
240.177571
 21
217.544888
 31
0.0
  0
SPLINE
  5
1bc
100
AcDbEntity
  8
0
 62
5
100
AcDbSpline
 70
0
 71
3
 72
10
 73
6
 74
4
 40
0.000000
 40
0.000000
 40
0.000000
 40
0.000000
 40
0.383750
 40
1.264640
 40
2.310855
 40
2.310855
 40
2.310855
 40
2.310855
 10
254.948842
 20
243.129470
 30
0.0
 10
255.069253
 20
243.172067
 30
0.0
 10
255.466064
 20
243.312443
 30
0.0
 10
256.236423
 20
243.473347
 30
0.0
 10
256.871716
 20
243.338692
 30
0.0
 10
257.216614
 20
243.265589
 30
0.0
 11
254.948842
 21
243.129470
 31
0.0
 11
255.312356
 21
243.252442
 31
0.0
 11
256.179818
 21
243.405663
 31
0.0
 11
257.216614
 21
243.265589
 31
0.0
  0
SPLINE
  5
1bd
100
AcDbEntity
  8
0
 62
5
100
AcDbSpline
 70
0
 71
3
 72
10
 73
6
 74
4
 40
0.000000
 40
0.000000
 40
0.000000
 40
0.000000
 40
1.754129
 40
3.597989
 40
5.352118
 40
5.352118
 40
5.352118
 40
5.352118
 10
257.216614
 20
243.265589
 30
0.0
 10
257.712334
 20
242.946156
 30
0.0
 10
258.729133
 20
242.290951
 30
0.0
 10
259.668822
 20
240.663361
 30
0.0
 10
259.727848
 20
239.455185
 30
0.0
 10
259.756625
 20
238.866162
 30
0.0
 11
257.216614
 21
243.265589
 31
0.0
 11
258.612245
 21
242.202958
 31
0.0
 11
259.534174
 21
240.606130
 31
0.0
 11
259.756625
 21
238.866162
 31
0.0
  0
LWPOLYLINE
  5
1be
100
AcDbEntity
  8
0
 62
5
100
AcDbPolyline
 90
4
 70
0
 10
252.200204
 20
247.212915
 30
0.0
 10
255.163549
 20
242.080250
 30
0.0
 10
255.456845
 20
242.249586
 30
0.0
 10
254.948842
 20
243.129470
 30
0.0
  0
LWPOLYLINE
  5
1bf
100
AcDbEntity
  8
0
 62
5
100
AcDbPolyline
 90
4
 70
0
 10
258.504857
 20
236.970272
 30
0.0
 10
257.996854
 20
237.850159
 30
0.0
 10
257.703560
 20
237.680823
 30
0.0
 10
260.666905
 20
232.548160
 30
0.0
  0
LWPOLYLINE
  5
1c0
100
AcDbEntity
  8
0
 62
1
100
AcDbPolyline
 90
2
 70
0
 10
255.756218
 20
241.053717
 30
0.0
 10
257.110890
 20
238.707358
 30
0.0
  0
LWPOLYLINE
  5
1c1
100
AcDbEntity
  8
0
 62
5
100
AcDbPolyline
 90
4
 70
0
 10
252.200238
 20
264.146268
 30
0.0
 10
255.417571
 20
260.759602
 30
0.0
 10
255.417571
 20
250.599602
 30
0.0
 10
252.200238
 20
247.212935
 30
0.0
  0
LWPOLYLINE
  5
1c2
100
AcDbEntity
  8
0
 62
5
100
AcDbPolyline
 90
4
 70
0
 10
251.692238
 20
259.404935
 30
0.0
 10
252.538905
 20
258.727602
 30
0.0
 10
252.538905
 20
252.631602
 30
0.0
 10
251.692238
 20
251.954268
 30
0.0
  0
LWPOLYLINE
  5
1c3
100
AcDbEntity
  8
0
 62
1
100
AcDbPolyline
 90
2
 70
0
 10
252.200238
 20
264.146268
 30
0.0
 10
252.200238
 20
259.404935
 30
0.0
  0
LWPOLYLINE
  5
1c4
100
AcDbEntity
  8
0
 62
1
100
AcDbPolyline
 90
2
 70
0
 10
252.200238
 20
247.212935
 30
0.0
 10
252.200238
 20
251.954268
 30
0.0
  0
SPLINE
  5
1c5
100
AcDbEntity
  8
0
 62
5
100
AcDbSpline
 70
0
 71
3
 72
10
 73
6
 74
4
 40
0.000000
 40
0.000000
 40
0.000000
 40
0.000000
 40
1.046216
 40
1.927107
 40
2.310857
 40
2.310857
 40
2.310857
 40
2.310857
 10
259.756625
 20
238.866162
 30
0.0
 10
259.647486
 20
238.530920
 30
0.0
 10
259.446454
 20
237.913412
 30
0.0
 10
258.921926
 20
237.326713
 30
0.0
 10
258.601952
 20
237.053253
 30
0.0
 10
258.504857
 20
236.970272
 30
0.0
 11
259.756625
 21
238.866162
 31
0.0
 11
259.359535
 21
237.898233
 31
0.0
 11
258.793110
 21
237.223598
 31
0.0
 11
258.504857
 21
236.970272
 31
0.0
  0
SPLINE
  5
1c6
100
AcDbEntity
  8
0
 62
5
100
AcDbSpline
 70
0
 71
3
 72
10
 73
6
 74
4
 40
0.000000
 40
0.000000
 40
0.000000
 40
0.000000
 40
0.383750
 40
1.264640
 40
2.310855
 40
2.310855
 40
2.310855
 40
2.310855
 10
254.948876
 20
268.229714
 30
0.0
 10
255.069287
 20
268.187117
 30
0.0
 10
255.466098
 20
268.046741
 30
0.0
 10
256.236457
 20
267.885837
 30
0.0
 10
256.871750
 20
268.020492
 30
0.0
 10
257.216648
 20
268.093595
 30
0.0
 11
254.948876
 21
268.229714
 31
0.0
 11
255.312389
 21
268.106741
 31
0.0
 11
256.179852
 21
267.953521
 31
0.0
 11
257.216648
 21
268.093595
 31
0.0
  0
SPLINE
  5
1c7
100
AcDbEntity
  8
0
 62
5
100
AcDbSpline
 70
0
 71
3
 72
10
 73
6
 74
4
 40
0.000000
 40
0.000000
 40
0.000000
 40
0.000000
 40
1.754130
 40
3.597989
 40
5.352118
 40
5.352118
 40
5.352118
 40
5.352118
 10
257.216648
 20
268.093595
 30
0.0
 10
257.712368
 20
268.413028
 30
0.0
 10
258.729167
 20
269.068233
 30
0.0
 10
259.668855
 20
270.695823
 30
0.0
 10
259.727882
 20
271.903998
 30
0.0
 10
259.756659
 20
272.493021
 30
0.0
 11
257.216648
 21
268.093595
 31
0.0
 11
258.612279
 21
269.156225
 31
0.0
 11
259.534208
 21
270.753054
 31
0.0
 11
259.756659
 21
272.493021
 31
0.0
  0
LWPOLYLINE
  5
1c8
100
AcDbEntity
  8
0
 62
5
100
AcDbPolyline
 90
4
 70
0
 10
252.200238
 20
264.146268
 30
0.0
 10
255.163582
 20
269.278933
 30
0.0
 10
255.456879
 20
269.109599
 30
0.0
 10
254.948876
 20
268.229714
 30
0.0
  0
LWPOLYLINE
  5
1c9
100
AcDbEntity
  8
0
 62
5
100
AcDbPolyline
 90
4
 70
0
 10
258.504890
 20
274.388911
 30
0.0
 10
257.996888
 20
273.509025
 30
0.0
 10
257.703594
 20
273.678359
 30
0.0
 10
260.666938
 20
278.811024
 30
0.0
  0
LWPOLYLINE
  5
1ca
100
AcDbEntity
  8
0
 62
1
100
AcDbPolyline
 90
2
 70
0
 10
255.756252
 20
270.305466
 30
0.0
 10
257.110924
 20
272.651826
 30
0.0
  0
LWPOLYLINE
  5
1cb
100
AcDbEntity
  8
0
 62
5
100
AcDbPolyline
 90
4
 70
0
 10
252.200277
 20
293.475671
 30
0.0
 10
256.679883
 20
292.151404
 30
0.0
 10
261.759858
 20
283.352628
 30
0.0
 10
260.666905
 20
278.811043
 30
0.0
  0
LWPOLYLINE
  5
1cc
100
AcDbEntity
  8
0
 62
5
100
AcDbPolyline
 90
4
 70
0
 10
254.130993
 20
289.115576
 30
0.0
 10
255.202890
 20
288.952322
 30
0.0
 10
258.250876
 20
283.673056
 30
0.0
 10
257.856310
 20
282.663140
 30
0.0
  0
LWPOLYLINE
  5
1cd
100
AcDbEntity
  8
0
 62
1
100
AcDbPolyline
 90
2
 70
0
 10
252.200277
 20
293.475671
 30
0.0
 10
254.570933
 20
289.369575
 30
0.0
  0
LWPOLYLINE
  5
1ce
100
AcDbEntity
  8
0
 62
1
100
AcDbPolyline
 90
2
 70
0
 10
260.666905
 20
278.811043
 30
0.0
 10
258.296249
 20
282.917139
 30
0.0
  0
SPLINE
  5
1cf
100
AcDbEntity
  8
0
 62
5
100
AcDbSpline
 70
0
 71
3
 72
10
 73
6
 74
4
 40
0.000000
 40
0.000000
 40
0.000000
 40
0.000000
 40
1.046216
 40
1.927107
 40
2.310857
 40
2.310857
 40
2.310857
 40
2.310857
 10
259.756659
 20
272.493021
 30
0.0
 10
259.647520
 20
272.828263
 30
0.0
 10
259.446488
 20
273.445772
 30
0.0
 10
258.921960
 20
274.032470
 30
0.0
 10
258.601985
 20
274.305930
 30
0.0
 10
258.504890
 20
274.388911
 30
0.0
 11
259.756659
 21
272.493021
 31
0.0
 11
259.359569
 21
273.460951
 31
0.0
 11
258.793144
 21
274.135585
 31
0.0
 11
258.504890
 21
274.388911
 31
0.0
  0
SPLINE
  5
1d0
100
AcDbEntity
  8
0
 62
5
100
AcDbSpline
 70
0
 71
3
 72
10
 73
6
 74
4
 40
0.000000
 40
0.000000
 40
0.000000
 40
0.000000
 40
0.383748
 40
1.264635
 40
2.310847
 40
2.310847
 40
2.310847
 40
2.310847
 10
240.177571
 20
293.814315
 30
0.0
 10
240.200887
 20
293.939891
 30
0.0
 10
240.277722
 20
294.353726
 30
0.0
 10
240.523554
 20
295.101326
 30
0.0
 10
240.957814
 20
295.584178
 30
0.0
 10
241.193571
 20
295.846315
 30
0.0
 11
240.177571
 21
293.814315
 31
0.0
 11
240.252830
 21
294.190611
 31
0.0
 11
240.553867
 21
295.018463
 31
0.0
 11
241.193571
 21
295.846315
 31
0.0
  0
SPLINE
  5
1d1
100
AcDbEntity
  8
0
 62
5
100
AcDbSpline
 70
0
 71
3
 72
10
 73
6
 74
4
 40
0.000000
 40
0.000000
 40
0.000000
 40
0.000000
 40
1.754122
 40
3.597974
 40
5.352096
 40
5.352096
 40
5.352096
 40
5.352096
 10
241.193571
 20
295.846315
 30
0.0
 10
241.718066
 20
296.115904
 30
0.0
 10
242.793886
 20
296.668872
 30
0.0
 10
244.673256
 20
296.668872
 30
0.0
 10
245.749076
 20
296.115904
 30
0.0
 10
246.273571
 20
295.846315
 30
0.0
 11
241.193571
 21
295.846315
 31
0.0
 11
242.811645
 21
296.523648
 31
0.0
 11
244.655497
 21
296.523648
 31
0.0
 11
246.273571
 21
295.846315
 31
0.0
  0
LWPOLYLINE
  5
1d2
100
AcDbEntity
  8
0
 62
5
100
AcDbPolyline
 90
4
 70
0
 10
235.266905
 20
293.475648
 30
0.0
 10
241.193571
 20
293.475648
 30
0.0
 10
241.193571
 20
293.814315
 30
0.0
 10
240.177571
 20
293.814315
 30
0.0
  0
LWPOLYLINE
  5
1d3
100
AcDbEntity
  8
0
 62
5
100
AcDbPolyline
 90
4
 70
0
 10
247.289571
 20
293.814315
 30
0.0
 10
246.273571
 20
293.814315
 30
0.0
 10
246.273571
 20
293.475648
 30
0.0
 10
252.200238
 20
293.475648
 30
0.0
  0
LWPOLYLINE
  5
1d4
100
AcDbEntity
  8
0
 62
1
100
AcDbPolyline
 90
2
 70
0
 10
242.378905
 20
293.475648
 30
0.0
 10
245.088238
 20
293.475648
 30
0.0
  0
LWPOLYLINE
  5
1d5
100
AcDbEntity
  8
0
 62
5
100
AcDbPolyline
 90
4
 70
0
 10
226.800277
 20
278.811020
 30
0.0
 10
225.707324
 20
283.352605
 30
0.0
 10
230.787298
 20
292.151382
 30
0.0
 10
235.266905
 20
293.475649
 30
0.0
  0
LWPOLYLINE
  5
1d6
100
AcDbEntity
  8
0
 62
5
100
AcDbPolyline
 90
4
 70
0
 10
229.610872
 20
282.663118
 30
0.0
 10
229.216306
 20
283.673034
 30
0.0
 10
232.264291
 20
288.952300
 30
0.0
 10
233.336188
 20
289.115554
 30
0.0
  0
LWPOLYLINE
  5
1d7
100
AcDbEntity
  8
0
 62
1
100
AcDbPolyline
 90
2
 70
0
 10
226.800277
 20
278.811020
 30
0.0
 10
229.170933
 20
282.917116
 30
0.0
  0
LWPOLYLINE
  5
1d8
100
AcDbEntity
  8
0
 62
1
100
AcDbPolyline
 90
2
 70
0
 10
235.266905
 20
293.475649
 30
0.0
 10
232.896249
 20
289.369553
 30
0.0
  0
LWPOLYLINE
  5
1d9
100
AcDbEntity
  8
0
 62
5
100
AcDbPolyline
 90
8
 70
0
 10
235.266938
 20
264.146288
 30
0.0
 10
229.340249
 20
274.411617
 30
0.0
 10
228.144380
 20
274.112243
 30
0.0
 10
227.151063
 20
275.494051
 30
0.0
 10
227.607614
 20
276.735291
 30
0.0
 10
227.776947
 20
276.441996
 30
0.0
 10
228.070243
 20
276.611330
 30
0.0
 10
226.800238
 20
278.811043
 30
0.0
  0
LWPOLYLINE
  5
1da
100
AcDbEntity
  8
0
 62
1
100
AcDbPolyline
 90
2
 70
0
 10
229.001580
 20
274.998207
 30
0.0
 10
228.408910
 20
276.024740
 30
0.0
  0
LWPOLYLINE
  5
1db
100
AcDbEntity
  8
0
 62
5
100
AcDbPolyline
 90
7
 70
0
 10
223.292413
 20
276.120760
 30
0.0
 10
224.729353
 20
277.078719
 30
0.0
 10
225.807056
 20
275.761525
 30
0.0
 10
225.447820
 20
274.444331
 30
0.0
 10
225.208332
 20
274.683821
 30
0.0
 10
224.968841
 20
274.444331
 30
0.0
 10
235.266905
 20
264.146268
 30
0.0
  0
LWPOLYLINE
  5
1dc
100
AcDbEntity
  8
0
 62
1
100
AcDbPolyline
 90
2
 70
0
 10
223.771392
 20
275.641780
 30
0.0
 10
224.489862
 20
274.923311
 30
0.0
  0
SPLINE
  5
1dd
100
AcDbEntity
  8
0
 62
5
100
AcDbSpline
 70
0
 71
3
 72
10
 73
6
 74
4
 40
0.000000
 40
0.000000
 40
0.000000
 40
0.000000
 40
1.046212
 40
1.927099
 40
2.310847
 40
2.310847
 40
2.310847
 40
2.310847
 10
246.273571
 20
295.846315
 30
0.0
 10
246.509329
 20
295.584178
 30
0.0
 10
246.943588
 20
295.101326
 30
0.0
 10
247.189420
 20
294.353726
 30
0.0
 10
247.266256
 20
293.939891
 30
0.0
 10
247.289571
 20
293.814315
 30
0.0
 11
246.273571
 21
295.846315
 31
0.0
 11
246.913275
 21
295.018463
 31
0.0
 11
247.214312
 21
294.190611
 31
0.0
 11
247.289571
 21
293.814315
 31
0.0
  0
SPLINE
  5
1de
100
AcDbEntity
  8
0
 62
5
100
AcDbSpline
 70
0
 71
3
 72
10
 73
6
 74
4
 40
0.000000
 40
0.000000
 40
0.000000
 40
0.000000
 40
0.383748
 40
1.264635
 40
2.310847
 40
2.310847
 40
2.310847
 40
2.310847
 10
223.630318
 20
281.030664
 30
0.0
 10
223.755894
 20
281.053980
 30
0.0
 10
224.169729
 20
281.130816
 30
0.0
 10
224.917329
 20
281.376647
 30
0.0
 10
225.400180
 20
281.810907
 30
0.0
 10
225.662318
 20
282.046664
 30
0.0
 11
223.630318
 21
281.030664
 31
0.0
 11
224.006614
 21
281.105924
 31
0.0
 11
224.834466
 21
281.406961
 31
0.0
 11
225.662318
 21
282.046664
 31
0.0
  0
SPLINE
  5
1df
100
AcDbEntity
  8
0
 62
5
100
AcDbSpline
 70
0
 71
3
 72
10
 73
6
 74
4
 40
0.000000
 40
0.000000
 40
0.000000
 40
0.000000
 40
1.754122
 40
3.597974
 40
5.352096
 40
5.352096
 40
5.352096
 40
5.352096
 10
225.662318
 20
282.046664
 30
0.0
 10
225.931907
 20
282.571159
 30
0.0
 10
226.484874
 20
283.646979
 30
0.0
 10
226.484874
 20
285.526349
 30
0.0
 10
225.931907
 20
286.602169
 30
0.0
 10
225.662318
 20
287.126664
 30
0.0
 11
225.662318
 21
282.046664
 31
0.0
 11
226.339651
 21
283.664738
 31
0.0
 11
226.339651
 21
285.508590
 31
0.0
 11
225.662318
 21
287.126664
 31
0.0
  0
LWPOLYLINE
  5
1e0
100
AcDbEntity
  8
0
 62
5
100
AcDbPolyline
 90
4
 70
0
 10
223.291651
 20
276.119998
 30
0.0
 10
223.291651
 20
282.046664
 30
0.0
 10
223.630318
 20
282.046664
 30
0.0
 10
223.630318
 20
281.030664
 30
0.0
  0
LWPOLYLINE
  5
1e1
100
AcDbEntity
  8
0
 62
5
100
AcDbPolyline
 90
4
 70
0
 10
223.630318
 20
288.142664
 30
0.0
 10
223.630318
 20
287.126664
 30
0.0
 10
223.291651
 20
287.126664
 30
0.0
 10
223.291651
 20
293.053331
 30
0.0
  0
LWPOLYLINE
  5
1e2
100
AcDbEntity
  8
0
 62
1
100
AcDbPolyline
 90
2
 70
0
 10
223.291651
 20
283.231998
 30
0.0
 10
223.291651
 20
285.941331
 30
0.0
  0
LWPOLYLINE
  5
1e3
100
AcDbEntity
  8
0
 62
5
100
AcDbPolyline
 90
4
 70
0
 10
206.358318
 20
293.053331
 30
0.0
 10
209.744985
 20
296.270664
 30
0.0
 10
219.904985
 20
296.270664
 30
0.0
 10
223.291651
 20
293.053331
 30
0.0
  0
LWPOLYLINE
  5
1e4
100
AcDbEntity
  8
0
 62
5
100
AcDbPolyline
 90
4
 70
0
 10
211.099651
 20
292.545331
 30
0.0
 10
211.776985
 20
293.391998
 30
0.0
 10
217.872985
 20
293.391998
 30
0.0
 10
218.550318
 20
292.545331
 30
0.0
  0
LWPOLYLINE
  5
1e5
100
AcDbEntity
  8
0
 62
1
100
AcDbPolyline
 90
2
 70
0
 10
206.358318
 20
293.053331
 30
0.0
 10
211.099651
 20
293.053331
 30
0.0
  0
LWPOLYLINE
  5
1e6
100
AcDbEntity
  8
0
 62
1
100
AcDbPolyline
 90
2
 70
0
 10
223.291651
 20
293.053331
 30
0.0
 10
218.550318
 20
293.053331
 30
0.0
  0
SPLINE
  5
1e7
100
AcDbEntity
  8
0
 62
5
100
AcDbSpline
 70
0
 71
3
 72
10
 73
6
 74
4
 40
0.000000
 40
0.000000
 40
0.000000
 40
0.000000
 40
1.046212
 40
1.927099
 40
2.310847
 40
2.310847
 40
2.310847
 40
2.310847
 10
225.662318
 20
287.126664
 30
0.0
 10
225.400180
 20
287.362422
 30
0.0
 10
224.917329
 20
287.796682
 30
0.0
 10
224.169729
 20
288.042513
 30
0.0
 10
223.755894
 20
288.119349
 30
0.0
 10
223.630318
 20
288.142664
 30
0.0
 11
225.662318
 21
287.126664
 31
0.0
 11
224.834466
 21
287.766368
 31
0.0
 11
224.006614
 21
288.067405
 31
0.0
 11
223.630318
 21
288.142664
 31
0.0
  0
SPLINE
  5
1e8
100
AcDbEntity
  8
0
 62
5
100
AcDbSpline
 70
0
 71
3
 72
10
 73
6
 74
4
 40
0.000000
 40
0.000000
 40
0.000000
 40
0.000000
 40
0.383748
 40
1.264635
 40
2.310847
 40
2.310847
 40
2.310847
 40
2.310847
 10
206.019651
 20
281.030664
 30
0.0
 10
205.894075
 20
281.053980
 30
0.0
 10
205.480240
 20
281.130816
 30
0.0
 10
204.732640
 20
281.376647
 30
0.0
 10
204.249789
 20
281.810907
 30
0.0
 10
203.987651
 20
282.046664
 30
0.0
 11
206.019651
 21
281.030664
 31
0.0
 11
205.643355
 21
281.105924
 31
0.0
 11
204.815503
 21
281.406961
 31
0.0
 11
203.987651
 21
282.046664
 31
0.0
  0
SPLINE
  5
1e9
100
AcDbEntity
  8
0
 62
5
100
AcDbSpline
 70
0
 71
3
 72
10
 73
6
 74
4
 40
0.000000
 40
0.000000
 40
0.000000
 40
0.000000
 40
1.754122
 40
3.597974
 40
5.352096
 40
5.352096
 40
5.352096
 40
5.352096
 10
203.987651
 20
282.046664
 30
0.0
 10
203.718062
 20
282.571159
 30
0.0
 10
203.165095
 20
283.646979
 30
0.0
 10
203.165095
 20
285.526349
 30
0.0
 10
203.718062
 20
286.602169
 30
0.0
 10
203.987651
 20
287.126664
 30
0.0
 11
203.987651
 21
282.046664
 31
0.0
 11
203.310318
 21
283.664738
 31
0.0
 11
203.310318
 21
285.508590
 31
0.0
 11
203.987651
 21
287.126664
 31
0.0
  0
LWPOLYLINE
  5
1ea
100
AcDbEntity
  8
0
 62
5
100
AcDbPolyline
 90
4
 70
0
 10
206.358318
 20
276.119998
 30
0.0
 10
206.358318
 20
282.046664
 30
0.0
 10
206.019651
 20
282.046664
 30
0.0
 10
206.019651
 20
281.030664
 30
0.0
  0
LWPOLYLINE
  5
1eb
100
AcDbEntity
  8
0
 62
5
100
AcDbPolyline
 90
4
 70
0
 10
206.019651
 20
288.142664
 30
0.0
 10
206.019651
 20
287.126664
 30
0.0
 10
206.358318
 20
287.126664
 30
0.0
 10
206.358318
 20
293.053331
 30
0.0
  0
LWPOLYLINE
  5
1ec
100
AcDbEntity
  8
0
 62
1
100
AcDbPolyline
 90
2
 70
0
 10
206.358318
 20
283.231998
 30
0.0
 10
206.358318
 20
285.941331
 30
0.0
  0
LWPOLYLINE
  5
1ed
100
AcDbEntity
  8
0
 62
5
100
AcDbPolyline
 90
7
 70
0
 10
206.358318
 20
276.119998
 30
0.0
 10
204.921479
 20
277.077889
 30
0.0
 10
203.843853
 20
275.760788
 30
0.0
 10
204.203063
 20
274.443687
 30
0.0
 10
204.442534
 20
274.683160
 30
0.0
 10
204.682008
 20
274.443687
 30
0.0
 10
194.384673
 20
264.146353
 30
0.0
  0
LWPOLYLINE
  5
1ee
100
AcDbEntity
  8
0
 62
1
100
AcDbPolyline
 90
2
 70
0
 10
205.879373
 20
275.641052
 30
0.0
 10
205.160953
 20
274.922633
 30
0.0
  0
LWPOLYLINE
  5
1ef
100
AcDbEntity
  8
0
 62
5
100
AcDbPolyline
 90
8
 70
0
 10
194.384758
 20
264.146268
 30
0.0
 10
200.311447
 20
274.411597
 30
0.0
 10
201.507316
 20
274.112223
 30
0.0
 10
202.500634
 20
275.494032
 30
0.0
 10
202.044083
 20
276.735272
 30
0.0
 10
201.874749
 20
276.441976
 30
0.0
 10
201.581453
 20
276.611310
 30
0.0
 10
202.851458
 20
278.811024
 30
0.0
  0
LWPOLYLINE
  5
1f0
100
AcDbEntity
  8
0
 62
1
100
AcDbPolyline
 90
2
 70
0
 10
200.650117
 20
274.998187
 30
0.0
 10
201.242786
 20
276.024720
 30
0.0
  0
LWPOLYLINE
  5
1f1
100
AcDbEntity
  8
0
 62
5
100
AcDbPolyline
 90
4
 70
0
 10
194.384797
 20
293.475671
 30
0.0
 10
198.864403
 20
292.151404
 30
0.0
 10
203.944378
 20
283.352628
 30
0.0
 10
202.851425
 20
278.811043
 30
0.0
  0
LWPOLYLINE
  5
1f2
100
AcDbEntity
  8
0
 62
5
100
AcDbPolyline
 90
4
 70
0
 10
196.315513
 20
289.115576
 30
0.0
 10
197.387410
 20
288.952322
 30
0.0
 10
200.435396
 20
283.673056
 30
0.0
 10
200.040830
 20
282.663140
 30
0.0
  0
LWPOLYLINE
  5
1f3
100
AcDbEntity
  8
0
 62
1
100
AcDbPolyline
 90
2
 70
0
 10
194.384797
 20
293.475671
 30
0.0
 10
196.755453
 20
289.369575
 30
0.0
  0
LWPOLYLINE
  5
1f4
100
AcDbEntity
  8
0
 62
1
100
AcDbPolyline
 90
2
 70
0
 10
202.851425
 20
278.811043
 30
0.0
 10
200.480769
 20
282.917139
 30
0.0
  0
SPLINE
  5
1f5
100
AcDbEntity
  8
0
 62
5
100
AcDbSpline
 70
0
 71
3
 72
10
 73
6
 74
4
 40
0.000000
 40
0.000000
 40
0.000000
 40
0.000000
 40
1.046212
 40
1.927099
 40
2.310847
 40
2.310847
 40
2.310847
 40
2.310847
 10
203.987651
 20
287.126664
 30
0.0
 10
204.249789
 20
287.362422
 30
0.0
 10
204.732640
 20
287.796682
 30
0.0
 10
205.480240
 20
288.042513
 30
0.0
 10
205.894075
 20
288.119349
 30
0.0
 10
206.019651
 20
288.142664
 30
0.0
 11
203.987651
 21
287.126664
 31
0.0
 11
204.815503
 21
287.766368
 31
0.0
 11
205.643355
 21
288.067405
 31
0.0
 11
206.019651
 21
288.142664
 31
0.0
  0
SPLINE
  5
1f6
100
AcDbEntity
  8
0
 62
5
100
AcDbSpline
 70
0
 71
3
 72
10
 73
6
 74
4
 40
0.000000
 40
0.000000
 40
0.000000
 40
0.000000
 40
0.383733
 40
1.264585
 40
2.310755
 40
2.310755
 40
2.310755
 40
2.310755
 10
182.362571
 20
293.814302
 30
0.0
 10
182.385886
 20
293.939873
 30
0.0
 10
182.462719
 20
294.353691
 30
0.0
 10
182.708541
 20
295.101261
 30
0.0
 10
183.142783
 20
295.584093
 30
0.0
 10
183.378531
 20
295.846220
 30
0.0
 11
182.362571
 21
293.814302
 31
0.0
 11
182.437827
 21
294.190583
 31
0.0
 11
182.738853
 21
295.018401
 31
0.0
 11
183.378531
 21
295.846220
 31
0.0
  0
SPLINE
  5
1f7
100
AcDbEntity
  8
0
 62
5
100
AcDbSpline
 70
0
 71
3
 72
10
 73
6
 74
4
 40
0.000000
 40
0.000000
 40
0.000000
 40
0.000000
 40
1.754052
 40
3.597830
 40
5.351882
 40
5.351882
 40
5.351882
 40
5.351882
 10
183.378531
 20
295.846220
 30
0.0
 10
183.903006
 20
296.115798
 30
0.0
 10
184.978782
 20
296.668744
 30
0.0
 10
186.858077
 20
296.668744
 30
0.0
 10
187.933854
 20
296.115798
 30
0.0
 10
188.458328
 20
295.846220
 30
0.0
 11
183.378531
 21
295.846220
 31
0.0
 11
184.996541
 21
296.523526
 31
0.0
 11
186.840319
 21
296.523526
 31
0.0
 11
188.458328
 21
295.846220
 31
0.0
  0
LWPOLYLINE
  5
1f8
100
AcDbEntity
  8
0
 62
5
100
AcDbPolyline
 90
4
 70
0
 10
177.452102
 20
293.475648
 30
0.0
 10
183.378531
 20
293.475648
 30
0.0
 10
183.378531
 20
293.814302
 30
0.0
 10
182.362571
 20
293.814302
 30
0.0
  0
LWPOLYLINE
  5
1f9
100
AcDbEntity
  8
0
 62
5
100
AcDbPolyline
 90
4
 70
0
 10
189.474289
 20
293.814302
 30
0.0
 10
188.458328
 20
293.814302
 30
0.0
 10
188.458328
 20
293.475648
 30
0.0
 10
194.384758
 20
293.475648
 30
0.0
  0
LWPOLYLINE
  5
1fa
100
AcDbEntity
  8
0
 62
1
100
AcDbPolyline
 90
2
 70
0
 10
184.563817
 20
293.475648
 30
0.0
 10
187.273043
 20
293.475648
 30
0.0
  0
LWPOLYLINE
  5
1fb
100
AcDbEntity
  8
0
 62
5
100
AcDbPolyline
 90
4
 70
0
 10
168.985475
 20
278.811020
 30
0.0
 10
167.892521
 20
283.352605
 30
0.0
 10
172.972496
 20
292.151382
 30
0.0
 10
177.452102
 20
293.475649
 30
0.0
  0
LWPOLYLINE
  5
1fc
100
AcDbEntity
  8
0
 62
5
100
AcDbPolyline
 90
4
 70
0
 10
171.796069
 20
282.663118
 30
0.0
 10
171.401503
 20
283.673034
 30
0.0
 10
174.449489
 20
288.952300
 30
0.0
 10
175.521386
 20
289.115554
 30
0.0
  0
LWPOLYLINE
  5
1fd
100
AcDbEntity
  8
0
 62
1
100
AcDbPolyline
 90
2
 70
0
 10
168.985475
 20
278.811020
 30
0.0
 10
171.356130
 20
282.917116
 30
0.0
  0
LWPOLYLINE
  5
1fe
100
AcDbEntity
  8
0
 62
1
100
AcDbPolyline
 90
2
 70
0
 10
177.452102
 20
293.475649
 30
0.0
 10
175.081446
 20
289.369553
 30
0.0
  0
LWPOLYLINE
  5
1ff
100
AcDbEntity
  8
0
 62
5
100
AcDbPolyline
 90
8
 70
0
 10
177.452136
 20
264.146288
 30
0.0
 10
171.525446
 20
274.411617
 30
0.0
 10
170.329578
 20
274.112243
 30
0.0
 10
169.336260
 20
275.494051
 30
0.0
 10
169.792811
 20
276.735291
 30
0.0
 10
169.962144
 20
276.441996
 30
0.0
 10
170.255441
 20
276.611330
 30
0.0
 10
168.985435
 20
278.811043
 30
0.0
  0
LWPOLYLINE
  5
200
100
AcDbEntity
  8
0
 62
1
100
AcDbPolyline
 90
2
 70
0
 10
171.186777
 20
274.998207
 30
0.0
 10
170.594107
 20
276.024740
 30
0.0
  0
LWPOLYLINE
  5
201
100
AcDbEntity
  8
0
 62
5
100
AcDbPolyline
 90
7
 70
0
 10
165.478373
 20
276.119998
 30
0.0
 10
166.915219
 20
277.077896
 30
0.0
 10
167.992857
 20
275.760786
 30
0.0
 10
167.633644
 20
274.443676
 30
0.0
 10
167.394170
 20
274.683150
 30
0.0
 10
167.154693
 20
274.443676
 30
0.0
 10
177.452102
 20
264.146268
 30
0.0
  0
LWPOLYLINE
  5
202
100
AcDbEntity
  8
0
 62
1
100
AcDbPolyline
 90
2
 70
0
 10
165.957321
 20
275.641049
 30
0.0
 10
166.675745
 20
274.922625
 30
0.0
  0
SPLINE
  5
203
100
AcDbEntity
  8
0
 62
5
100
AcDbSpline
 70
0
 71
3
 72
10
 73
6
 74
4
 40
0.000000
 40
0.000000
 40
0.000000
 40
0.000000
 40
1.046170
 40
1.927022
 40
2.310755
 40
2.310755
 40
2.310755
 40
2.310755
 10
188.458328
 20
295.846220
 30
0.0
 10
188.694076
 20
295.584093
 30
0.0
 10
189.128319
 20
295.101261
 30
0.0
 10
189.374141
 20
294.353691
 30
0.0
 10
189.450974
 20
293.939873
 30
0.0
 10
189.474289
 20
293.814302
 30
0.0
 11
188.458328
 21
295.846220
 31
0.0
 11
189.098007
 21
295.018401
 31
0.0
 11
189.399032
 21
294.190583
 31
0.0
 11
189.474289
 21
293.814302
 31
0.0
  0
SPLINE
  5
204
100
AcDbEntity
  8
0
 62
5
100
AcDbSpline
 70
0
 71
3
 72
10
 73
6
 74
4
 40
0.000000
 40
0.000000
 40
0.000000
 40
0.000000
 40
0.383748
 40
1.264635
 40
2.310847
 40
2.310847
 40
2.310847
 40
2.310847
 10
165.817039
 20
281.030664
 30
0.0
 10
165.942616
 20
281.053980
 30
0.0
 10
166.356450
 20
281.130816
 30
0.0
 10
167.104050
 20
281.376647
 30
0.0
 10
167.586902
 20
281.810907
 30
0.0
 10
167.849039
 20
282.046664
 30
0.0
 11
165.817039
 21
281.030664
 31
0.0
 11
166.193335
 21
281.105924
 31
0.0
 11
167.021187
 21
281.406961
 31
0.0
 11
167.849039
 21
282.046664
 31
0.0
  0
SPLINE
  5
205
100
AcDbEntity
  8
0
 62
5
100
AcDbSpline
 70
0
 71
3
 72
10
 73
6
 74
4
 40
0.000000
 40
0.000000
 40
0.000000
 40
0.000000
 40
1.754122
 40
3.597974
 40
5.352096
 40
5.352096
 40
5.352096
 40
5.352096
 10
167.849039
 20
282.046664
 30
0.0
 10
168.118628
 20
282.571159
 30
0.0
 10
168.671596
 20
283.646979
 30
0.0
 10
168.671596
 20
285.526349
 30
0.0
 10
168.118628
 20
286.602169
 30
0.0
 10
167.849039
 20
287.126664
 30
0.0
 11
167.849039
 21
282.046664
 31
0.0
 11
168.526373
 21
283.664738
 31
0.0
 11
168.526373
 21
285.508590
 31
0.0
 11
167.849039
 21
287.126664
 31
0.0
  0
LWPOLYLINE
  5
206
100
AcDbEntity
  8
0
 62
5
100
AcDbPolyline
 90
4
 70
0
 10
165.478373
 20
276.119998
 30
0.0
 10
165.478373
 20
282.046664
 30
0.0
 10
165.817039
 20
282.046664
 30
0.0
 10
165.817039
 20
281.030664
 30
0.0
  0
LWPOLYLINE
  5
207
100
AcDbEntity
  8
0
 62
5
100
AcDbPolyline
 90
4
 70
0
 10
165.817039
 20
288.142664
 30
0.0
 10
165.817039
 20
287.126664
 30
0.0
 10
165.478373
 20
287.126664
 30
0.0
 10
165.478373
 20
293.053331
 30
0.0
  0
LWPOLYLINE
  5
208
100
AcDbEntity
  8
0
 62
1
100
AcDbPolyline
 90
2
 70
0
 10
165.478373
 20
283.231998
 30
0.0
 10
165.478373
 20
285.941331
 30
0.0
  0
LWPOLYLINE
  5
209
100
AcDbEntity
  8
0
 62
5
100
AcDbPolyline
 90
4
 70
0
 10
148.545039
 20
293.053331
 30
0.0
 10
151.931706
 20
296.270664
 30
0.0
 10
162.091706
 20
296.270664
 30
0.0
 10
165.478373
 20
293.053331
 30
0.0
  0
LWPOLYLINE
  5
20a
100
AcDbEntity
  8
0
 62
5
100
AcDbPolyline
 90
4
 70
0
 10
153.286373
 20
292.545331
 30
0.0
 10
153.963706
 20
293.391998
 30
0.0
 10
160.059706
 20
293.391998
 30
0.0
 10
160.737039
 20
292.545331
 30
0.0
  0
LWPOLYLINE
  5
20b
100
AcDbEntity
  8
0
 62
1
100
AcDbPolyline
 90
2
 70
0
 10
148.545039
 20
293.053331
 30
0.0
 10
153.286373
 20
293.053331
 30
0.0
  0
LWPOLYLINE
  5
20c
100
AcDbEntity
  8
0
 62
1
100
AcDbPolyline
 90
2
 70
0
 10
165.478373
 20
293.053331
 30
0.0
 10
160.737039
 20
293.053331
 30
0.0
  0
SPLINE
  5
20d
100
AcDbEntity
  8
0
 62
5
100
AcDbSpline
 70
0
 71
3
 72
10
 73
6
 74
4
 40
0.000000
 40
0.000000
 40
0.000000
 40
0.000000
 40
1.046212
 40
1.927099
 40
2.310847
 40
2.310847
 40
2.310847
 40
2.310847
 10
167.849039
 20
287.126664
 30
0.0
 10
167.586902
 20
287.362422
 30
0.0
 10
167.104050
 20
287.796682
 30
0.0
 10
166.356450
 20
288.042513
 30
0.0
 10
165.942616
 20
288.119349
 30
0.0
 10
165.817039
 20
288.142664
 30
0.0
 11
167.849039
 21
287.126664
 31
0.0
 11
167.021187
 21
287.766368
 31
0.0
 11
166.193335
 21
288.067405
 31
0.0
 11
165.817039
 21
288.142664
 31
0.0
  0
SPLINE
  5
20e
100
AcDbEntity
  8
0
 62
5
100
AcDbSpline
 70
0
 71
3
 72
10
 73
6
 74
4
 40
0.000000
 40
0.000000
 40
0.000000
 40
0.000000
 40
0.383748
 40
1.264635
 40
2.310847
 40
2.310847
 40
2.310847
 40
2.310847
 10
148.206373
 20
281.030664
 30
0.0
 10
148.080796
 20
281.053980
 30
0.0
 10
147.666961
 20
281.130816
 30
0.0
 10
146.919361
 20
281.376647
 30
0.0
 10
146.436510
 20
281.810907
 30
0.0
 10
146.174373
 20
282.046664
 30
0.0
 11
148.206373
 21
281.030664
 31
0.0
 11
147.830076
 21
281.105924
 31
0.0
 11
147.002224
 21
281.406961
 31
0.0
 11
146.174373
 21
282.046664
 31
0.0
  0
SPLINE
  5
20f
100
AcDbEntity
  8
0
 62
5
100
AcDbSpline
 70
0
 71
3
 72
10
 73
6
 74
4
 40
0.000000
 40
0.000000
 40
0.000000
 40
0.000000
 40
1.754122
 40
3.597974
 40
5.352096
 40
5.352096
 40
5.352096
 40
5.352096
 10
146.174373
 20
282.046664
 30
0.0
 10
145.904784
 20
282.571159
 30
0.0
 10
145.351816
 20
283.646979
 30
0.0
 10
145.351816
 20
285.526349
 30
0.0
 10
145.904784
 20
286.602169
 30
0.0
 10
146.174373
 20
287.126664
 30
0.0
 11
146.174373
 21
282.046664
 31
0.0
 11
145.497039
 21
283.664738
 31
0.0
 11
145.497039
 21
285.508590
 31
0.0
 11
146.174373
 21
287.126664
 31
0.0
  0
LWPOLYLINE
  5
210
100
AcDbEntity
  8
0
 62
5
100
AcDbPolyline
 90
4
 70
0
 10
148.545039
 20
276.119998
 30
0.0
 10
148.545039
 20
282.046664
 30
0.0
 10
148.206373
 20
282.046664
 30
0.0
 10
148.206373
 20
281.030664
 30
0.0
  0
LWPOLYLINE
  5
211
100
AcDbEntity
  8
0
 62
5
100
AcDbPolyline
 90
4
 70
0
 10
148.206373
 20
288.142664
 30
0.0
 10
148.206373
 20
287.126664
 30
0.0
 10
148.545039
 20
287.126664
 30
0.0
 10
148.545039
 20
293.053331
 30
0.0
  0
LWPOLYLINE
  5
212
100
AcDbEntity
  8
0
 62
1
100
AcDbPolyline
 90
2
 70
0
 10
148.545039
 20
283.231998
 30
0.0
 10
148.545039
 20
285.941331
 30
0.0
  0
LWPOLYLINE
  5
213
100
AcDbEntity
  8
0
 62
5
100
AcDbPolyline
 90
7
 70
0
 10
148.545039
 20
276.119998
 30
0.0
 10
147.108201
 20
277.077889
 30
0.0
 10
146.030575
 20
275.760788
 30
0.0
 10
146.389784
 20
274.443687
 30
0.0
 10
146.629255
 20
274.683160
 30
0.0
 10
146.868729
 20
274.443687
 30
0.0
 10
136.571395
 20
264.146353
 30
0.0
  0
LWPOLYLINE
  5
214
100
AcDbEntity
  8
0
 62
1
100
AcDbPolyline
 90
2
 70
0
 10
148.066094
 20
275.641052
 30
0.0
 10
147.347675
 20
274.922633
 30
0.0
  0
LWPOLYLINE
  5
215
100
AcDbEntity
  8
0
 62
5
100
AcDbPolyline
 90
8
 70
0
 10
136.571479
 20
264.146268
 30
0.0
 10
142.498168
 20
274.411597
 30
0.0
 10
143.694037
 20
274.112223
 30
0.0
 10
144.687355
 20
275.494032
 30
0.0
 10
144.230804
 20
276.735272
 30
0.0
 10
144.061471
 20
276.441976
 30
0.0
 10
143.768174
 20
276.611310
 30
0.0
 10
145.038180
 20
278.811024
 30
0.0
  0
LWPOLYLINE
  5
216
100
AcDbEntity
  8
0
 62
1
100
AcDbPolyline
 90
2
 70
0
 10
142.836838
 20
274.998187
 30
0.0
 10
143.429507
 20
276.024720
 30
0.0
  0
LWPOLYLINE
  5
217
100
AcDbEntity
  8
0
 62
5
100
AcDbPolyline
 90
4
 70
0
 10
136.571519
 20
293.475671
 30
0.0
 10
141.051125
 20
292.151404
 30
0.0
 10
146.131099
 20
283.352628
 30
0.0
 10
145.038146
 20
278.811043
 30
0.0
  0
LWPOLYLINE
  5
218
100
AcDbEntity
  8
0
 62
5
100
AcDbPolyline
 90
4
 70
0
 10
138.502235
 20
289.115576
 30
0.0
 10
139.574132
 20
288.952322
 30
0.0
 10
142.622118
 20
283.673056
 30
0.0
 10
142.227551
 20
282.663140
 30
0.0
  0
LWPOLYLINE
  5
219
100
AcDbEntity
  8
0
 62
1
100
AcDbPolyline
 90
2
 70
0
 10
136.571519
 20
293.475671
 30
0.0
 10
138.942174
 20
289.369575
 30
0.0
  0
LWPOLYLINE
  5
21a
100
AcDbEntity
  8
0
 62
1
100
AcDbPolyline
 90
2
 70
0
 10
145.038146
 20
278.811043
 30
0.0
 10
142.667490
 20
282.917139
 30
0.0
  0
SPLINE
  5
21b
100
AcDbEntity
  8
0
 62
5
100
AcDbSpline
 70
0
 71
3
 72
10
 73
6
 74
4
 40
0.000000
 40
0.000000
 40
0.000000
 40
0.000000
 40
1.046212
 40
1.927099
 40
2.310847
 40
2.310847
 40
2.310847
 40
2.310847
 10
146.174373
 20
287.126664
 30
0.0
 10
146.436510
 20
287.362422
 30
0.0
 10
146.919361
 20
287.796682
 30
0.0
 10
147.666961
 20
288.042513
 30
0.0
 10
148.080796
 20
288.119349
 30
0.0
 10
148.206373
 20
288.142664
 30
0.0
 11
146.174373
 21
287.126664
 31
0.0
 11
147.002224
 21
287.766368
 31
0.0
 11
147.830076
 21
288.067405
 31
0.0
 11
148.206373
 21
288.142664
 31
0.0
  0
SPLINE
  5
21c
100
AcDbEntity
  8
0
 62
5
100
AcDbSpline
 70
0
 71
3
 72
10
 73
6
 74
4
 40
0.000000
 40
0.000000
 40
0.000000
 40
0.000000
 40
0.383748
 40
1.264635
 40
2.310847
 40
2.310847
 40
2.310847
 40
2.310847
 10
124.548813
 20
293.814315
 30
0.0
 10
124.572128
 20
293.939891
 30
0.0
 10
124.648964
 20
294.353726
 30
0.0
 10
124.894795
 20
295.101326
 30
0.0
 10
125.329055
 20
295.584178
 30
0.0
 10
125.564813
 20
295.846315
 30
0.0
 11
124.548813
 21
293.814315
 31
0.0
 11
124.624072
 21
294.190611
 31
0.0
 11
124.925109
 21
295.018463
 31
0.0
 11
125.564813
 21
295.846315
 31
0.0
  0
SPLINE
  5
21d
100
AcDbEntity
  8
0
 62
5
100
AcDbSpline
 70
0
 71
3
 72
10
 73
6
 74
4
 40
0.000000
 40
0.000000
 40
0.000000
 40
0.000000
 40
1.754122
 40
3.597974
 40
5.352096
 40
5.352096
 40
5.352096
 40
5.352096
 10
125.564813
 20
295.846315
 30
0.0
 10
126.089308
 20
296.115904
 30
0.0
 10
127.165127
 20
296.668872
 30
0.0
 10
129.044498
 20
296.668872
 30
0.0
 10
130.120317
 20
296.115904
 30
0.0
 10
130.644813
 20
295.846315
 30
0.0
 11
125.564813
 21
295.846315
 31
0.0
 11
127.182887
 21
296.523648
 31
0.0
 11
129.026738
 21
296.523648
 31
0.0
 11
130.644813
 21
295.846315
 31
0.0
  0
LWPOLYLINE
  5
21e
100
AcDbEntity
  8
0
 62
5
100
AcDbPolyline
 90
4
 70
0
 10
119.638146
 20
293.475648
 30
0.0
 10
125.564813
 20
293.475648
 30
0.0
 10
125.564813
 20
293.814315
 30
0.0
 10
124.548813
 20
293.814315
 30
0.0
  0
LWPOLYLINE
  5
21f
100
AcDbEntity
  8
0
 62
5
100
AcDbPolyline
 90
4
 70
0
 10
131.660813
 20
293.814315
 30
0.0
 10
130.644813
 20
293.814315
 30
0.0
 10
130.644813
 20
293.475648
 30
0.0
 10
136.571479
 20
293.475648
 30
0.0
  0
LWPOLYLINE
  5
220
100
AcDbEntity
  8
0
 62
1
100
AcDbPolyline
 90
2
 70
0
 10
126.750146
 20
293.475648
 30
0.0
 10
129.459479
 20
293.475648
 30
0.0
  0
LWPOLYLINE
  5
221
100
AcDbEntity
  8
0
 62
5
100
AcDbPolyline
 90
4
 70
0
 10
111.171519
 20
278.811020
 30
0.0
 10
110.078565
 20
283.352605
 30
0.0
 10
115.158540
 20
292.151382
 30
0.0
 10
119.638146
 20
293.475649
 30
0.0
  0
LWPOLYLINE
  5
222
100
AcDbEntity
  8
0
 62
5
100
AcDbPolyline
 90
4
 70
0
 10
113.982113
 20
282.663118
 30
0.0
 10
113.587547
 20
283.673034
 30
0.0
 10
116.635533
 20
288.952300
 30
0.0
 10
117.707430
 20
289.115554
 30
0.0
  0
LWPOLYLINE
  5
223
100
AcDbEntity
  8
0
 62
1
100
AcDbPolyline
 90
2
 70
0
 10
111.171519
 20
278.811020
 30
0.0
 10
113.542174
 20
282.917116
 30
0.0
  0
LWPOLYLINE
  5
224
100
AcDbEntity
  8
0
 62
1
100
AcDbPolyline
 90
2
 70
0
 10
119.638146
 20
293.475649
 30
0.0
 10
117.267490
 20
289.369553
 30
0.0
  0
LWPOLYLINE
  5
225
100
AcDbEntity
  8
0
 62
5
100
AcDbPolyline
 90
8
 70
0
 10
119.638180
 20
264.146288
 30
0.0
 10
113.711490
 20
274.411617
 30
0.0
 10
112.515622
 20
274.112243
 30
0.0
 10
111.522304
 20
275.494051
 30
0.0
 10
111.978855
 20
276.735291
 30
0.0
 10
112.148188
 20
276.441996
 30
0.0
 10
112.441485
 20
276.611330
 30
0.0
 10
111.171479
 20
278.811043
 30
0.0
  0
LWPOLYLINE
  5
226
100
AcDbEntity
  8
0
 62
1
100
AcDbPolyline
 90
2
 70
0
 10
113.372821
 20
274.998207
 30
0.0
 10
112.780151
 20
276.024740
 30
0.0
  0
LWPOLYLINE
  5
227
100
AcDbEntity
  8
0
 62
5
100
AcDbPolyline
 90
7
 70
0
 10
107.664417
 20
276.119998
 30
0.0
 10
109.101263
 20
277.077896
 30
0.0
 10
110.178901
 20
275.760786
 30
0.0
 10
109.819688
 20
274.443676
 30
0.0
 10
109.580214
 20
274.683150
 30
0.0
 10
109.340737
 20
274.443676
 30
0.0
 10
119.638146
 20
264.146268
 30
0.0
  0
LWPOLYLINE
  5
228
100
AcDbEntity
  8
0
 62
1
100
AcDbPolyline
 90
2
 70
0
 10
108.143365
 20
275.641049
 30
0.0
 10
108.861789
 20
274.922625
 30
0.0
  0
SPLINE
  5
229
100
AcDbEntity
  8
0
 62
5
100
AcDbSpline
 70
0
 71
3
 72
10
 73
6
 74
4
 40
0.000000
 40
0.000000
 40
0.000000
 40
0.000000
 40
1.046212
 40
1.927099
 40
2.310847
 40
2.310847
 40
2.310847
 40
2.310847
 10
130.644813
 20
295.846315
 30
0.0
 10
130.880570
 20
295.584178
 30
0.0
 10
131.314830
 20
295.101326
 30
0.0
 10
131.560661
 20
294.353726
 30
0.0
 10
131.637497
 20
293.939891
 30
0.0
 10
131.660813
 20
293.814315
 30
0.0
 11
130.644813
 21
295.846315
 31
0.0
 11
131.284516
 21
295.018463
 31
0.0
 11
131.585553
 21
294.190611
 31
0.0
 11
131.660813
 21
293.814315
 31
0.0
  0
SPLINE
  5
22a
100
AcDbEntity
  8
0
 62
5
100
AcDbSpline
 70
0
 71
3
 72
10
 73
6
 74
4
 40
0.000000
 40
0.000000
 40
0.000000
 40
0.000000
 40
0.383748
 40
1.264635
 40
2.310847
 40
2.310847
 40
2.310847
 40
2.310847
 10
108.003083
 20
288.142664
 30
0.0
 10
108.128660
 20
288.119349
 30
0.0
 10
108.542494
 20
288.042513
 30
0.0
 10
109.290094
 20
287.796682
 30
0.0
 10
109.772946
 20
287.362422
 30
0.0
 10
110.035083
 20
287.126664
 30
0.0
 11
108.003083
 21
288.142664
 31
0.0
 11
108.379379
 21
288.067405
 31
0.0
 11
109.207231
 21
287.766368
 31
0.0
 11
110.035083
 21
287.126664
 31
0.0
  0
SPLINE
  5
22b
100
AcDbEntity
  8
0
 62
5
100
AcDbSpline
 70
0
 71
3
 72
10
 73
6
 74
4
 40
0.000000
 40
0.000000
 40
0.000000
 40
0.000000
 40
1.754122
 40
3.597974
 40
5.352096
 40
5.352096
 40
5.352096
 40
5.352096
 10
110.035083
 20
287.126664
 30
0.0
 10
110.304672
 20
286.602169
 30
0.0
 10
110.857640
 20
285.526349
 30
0.0
 10
110.857640
 20
283.646979
 30
0.0
 10
110.304672
 20
282.571159
 30
0.0
 10
110.035083
 20
282.046664
 30
0.0
 11
110.035083
 21
287.126664
 31
0.0
 11
110.712417
 21
285.508590
 31
0.0
 11
110.712417
 21
283.664738
 31
0.0
 11
110.035083
 21
282.046664
 31
0.0
  0
LWPOLYLINE
  5
22c
100
AcDbEntity
  8
0
 62
5
100
AcDbPolyline
 90
4
 70
0
 10
107.664417
 20
293.053331
 30
0.0
 10
107.664417
 20
287.126664
 30
0.0
 10
108.003083
 20
287.126664
 30
0.0
 10
108.003083
 20
288.142664
 30
0.0
  0
LWPOLYLINE
  5
22d
100
AcDbEntity
  8
0
 62
5
100
AcDbPolyline
 90
4
 70
0
 10
108.003083
 20
281.030664
 30
0.0
 10
108.003083
 20
282.046664
 30
0.0
 10
107.664417
 20
282.046664
 30
0.0
 10
107.664417
 20
276.119998
 30
0.0
  0
LWPOLYLINE
  5
22e
100
AcDbEntity
  8
0
 62
1
100
AcDbPolyline
 90
2
 70
0
 10
107.664417
 20
285.941331
 30
0.0
 10
107.664417
 20
283.231998
 30
0.0
  0
LWPOLYLINE
  5
22f
100
AcDbEntity
  8
0
 62
5
100
AcDbPolyline
 90
4
 70
0
 10
107.664417
 20
293.053331
 30
0.0
 10
112.334139
 20
293.173068
 30
0.0
 10
119.518326
 20
300.357254
 30
0.0
 10
119.638061
 20
305.026976
 30
0.0
  0
LWPOLYLINE
  5
230
100
AcDbEntity
  8
0
 62
5
100
AcDbPolyline
 90
4
 70
0
 10
110.657829
 20
296.765161
 30
0.0
 10
111.735455
 20
296.645424
 30
0.0
 10
116.045968
 20
300.955937
 30
0.0
 10
115.926232
 20
302.033565
 30
0.0
  0
LWPOLYLINE
  5
231
100
AcDbEntity
  8
0
 62
1
100
AcDbPolyline
 90
2
 70
0
 10
107.664417
 20
293.053331
 30
0.0
 10
111.017036
 20
296.405952
 30
0.0
  0
LWPOLYLINE
  5
232
100
AcDbEntity
  8
0
 62
1
100
AcDbPolyline
 90
2
 70
0
 10
119.638061
 20
305.026976
 30
0.0
 10
116.285442
 20
301.674355
 30
0.0
  0
SPLINE
  5
233
100
AcDbEntity
  8
0
 62
5
100
AcDbSpline
 70
0
 71
3
 72
10
 73
6
 74
4
 40
0.000000
 40
0.000000
 40
0.000000
 40
0.000000
 40
1.046212
 40
1.927099
 40
2.310847
 40
2.310847
 40
2.310847
 40
2.310847
 10
110.035083
 20
282.046664
 30
0.0
 10
109.772946
 20
281.810907
 30
0.0
 10
109.290094
 20
281.376647
 30
0.0
 10
108.542494
 20
281.130816
 30
0.0
 10
108.128660
 20
281.053980
 30
0.0
 10
108.003083
 20
281.030664
 30
0.0
 11
110.035083
 21
282.046664
 31
0.0
 11
109.207231
 21
281.406961
 31
0.0
 11
108.379379
 21
281.105924
 31
0.0
 11
108.003083
 21
281.030664
 31
0.0
  0
SPLINE
  5
234
100
AcDbEntity
  8
0
 62
5
100
AcDbSpline
 70
0
 71
3
 72
10
 73
6
 74
4
 40
0.000000
 40
0.000000
 40
0.000000
 40
0.000000
 40
0.383750
 40
1.264641
 40
2.310857
 40
2.310857
 40
2.310857
 40
2.310857
 10
119.976813
 20
317.049594
 30
0.0
 10
120.102389
 20
317.026278
 30
0.0
 10
120.516226
 20
316.949442
 30
0.0
 10
121.263829
 20
316.703610
 30
0.0
 10
121.746682
 20
316.269349
 30
0.0
 10
122.008821
 20
316.033591
 30
0.0
 11
119.976813
 21
317.049594
 31
0.0
 11
120.353110
 21
316.974334
 31
0.0
 11
121.180966
 21
316.673296
 31
0.0
 11
122.008821
 21
316.033591
 31
0.0
  0
SPLINE
  5
235
100
AcDbEntity
  8
0
 62
5
100
AcDbSpline
 70
0
 71
3
 72
10
 73
6
 74
4
 40
0.000000
 40
0.000000
 40
0.000000
 40
0.000000
 40
1.754127
 40
3.597985
 40
5.352112
 40
5.352112
 40
5.352112
 40
5.352112
 10
122.008821
 20
316.033591
 30
0.0
 10
122.278410
 20
315.509094
 30
0.0
 10
122.831380
 20
314.433271
 30
0.0
 10
122.831380
 20
312.553895
 30
0.0
 10
122.278410
 20
311.478072
 30
0.0
 10
122.008821
 20
310.953576
 30
0.0
 11
122.008821
 21
316.033591
 31
0.0
 11
122.686156
 21
314.415512
 31
0.0
 11
122.686156
 21
312.571654
 31
0.0
 11
122.008821
 21
310.953576
 31
0.0
  0
LWPOLYLINE
  5
236
100
AcDbEntity
  8
0
 62
5
100
AcDbPolyline
 90
4
 70
0
 10
119.638146
 20
321.960275
 30
0.0
 10
119.638146
 20
316.033591
 30
0.0
 10
119.976813
 20
316.033591
 30
0.0
 10
119.976813
 20
317.049594
 30
0.0
  0
LWPOLYLINE
  5
237
100
AcDbEntity
  8
0
 62
5
100
AcDbPolyline
 90
4
 70
0
 10
119.976813
 20
309.937572
 30
0.0
 10
119.976813
 20
310.953576
 30
0.0
 10
119.638146
 20
310.953576
 30
0.0
 10
119.638146
 20
305.026891
 30
0.0
  0
LWPOLYLINE
  5
238
100
AcDbEntity
  8
0
 62
1
100
AcDbPolyline
 90
2
 70
0
 10
119.638146
 20
314.848254
 30
0.0
 10
119.638146
 20
312.138913
 30
0.0
  0
LWPOLYLINE
  5
239
100
AcDbEntity
  8
0
 62
5
100
AcDbPolyline
 90
4
 70
0
 10
107.664442
 20
333.933979
 30
0.0
 10
112.334187
 20
333.814241
 30
0.0
 10
119.518407
 20
326.630020
 30
0.0
 10
119.638146
 20
321.960275
 30
0.0
  0
LWPOLYLINE
  5
23a
100
AcDbEntity
  8
0
 62
5
100
AcDbPolyline
 90
4
 70
0
 10
110.657869
 20
330.222130
 30
0.0
 10
111.735500
 20
330.341869
 30
0.0
 10
116.046036
 20
326.031334
 30
0.0
 10
115.926297
 20
324.953701
 30
0.0
  0
LWPOLYLINE
  5
23b
100
AcDbEntity
  8
0
 62
1
100
AcDbPolyline
 90
2
 70
0
 10
107.664442
 20
333.933979
 30
0.0
 10
111.017078
 20
330.581343
 30
0.0
  0
LWPOLYLINE
  5
23c
100
AcDbEntity
  8
0
 62
1
100
AcDbPolyline
 90
2
 70
0
 10
119.638146
 20
321.960275
 30
0.0
 10
116.285510
 20
325.312912
 30
0.0
  0
SPLINE
  5
23d
100
AcDbEntity
  8
0
 62
5
100
AcDbSpline
 70
0
 71
3
 72
10
 73
6
 74
4
 40
0.000000
 40
0.000000
 40
0.000000
 40
0.000000
 40
1.046216
 40
1.927107
 40
2.310857
 40
2.310857
 40
2.310857
 40
2.310857
 10
122.008821
 20
310.953576
 30
0.0
 10
121.746682
 20
310.717817
 30
0.0
 10
121.263829
 20
310.283556
 30
0.0
 10
120.516226
 20
310.037724
 30
0.0
 10
120.102389
 20
309.960888
 30
0.0
 10
119.976813
 20
309.937572
 30
0.0
 11
122.008821
 21
310.953576
 31
0.0
 11
121.180966
 21
310.313870
 31
0.0
 11
120.353110
 21
310.012832
 31
0.0
 11
119.976813
 21
309.937572
 31
0.0
  0
SPLINE
  5
23e
100
AcDbEntity
  8
0
 62
5
100
AcDbSpline
 70
0
 71
3
 72
10
 73
6
 74
4
 40
0.000000
 40
0.000000
 40
0.000000
 40
0.000000
 40
0.383748
 40
1.264635
 40
2.310847
 40
2.310847
 40
2.310847
 40
2.310847
 10
95.641750
 20
334.272620
 30
0.0
 10
95.665065
 20
334.398197
 30
0.0
 10
95.741901
 20
334.812032
 30
0.0
 10
95.987733
 20
335.559632
 30
0.0
 10
96.421992
 20
336.042483
 30
0.0
 10
96.657750
 20
336.304620
 30
0.0
 11
95.641750
 21
334.272620
 31
0.0
 11
95.717009
 21
334.648917
 31
0.0
 11
96.018046
 21
335.476769
 31
0.0
 11
96.657750
 21
336.304620
 31
0.0
  0
SPLINE
  5
23f
100
AcDbEntity
  8
0
 62
5
100
AcDbSpline
 70
0
 71
3
 72
10
 73
6
 74
4
 40
0.000000
 40
0.000000
 40
0.000000
 40
0.000000
 40
1.754122
 40
3.597974
 40
5.352096
 40
5.352096
 40
5.352096
 40
5.352096
 10
96.657750
 20
336.304620
 30
0.0
 10
97.182245
 20
336.574209
 30
0.0
 10
98.258065
 20
337.127177
 30
0.0
 10
100.137435
 20
337.127177
 30
0.0
 10
101.213255
 20
336.574209
 30
0.0
 10
101.737750
 20
336.304620
 30
0.0
 11
96.657750
 21
336.304620
 31
0.0
 11
98.275824
 21
336.981954
 31
0.0
 11
100.119676
 21
336.981954
 31
0.0
 11
101.737750
 21
336.304620
 31
0.0
  0
LWPOLYLINE
  5
240
100
AcDbEntity
  8
0
 62
5
100
AcDbPolyline
 90
4
 70
0
 10
90.731083
 20
333.933954
 30
0.0
 10
96.657750
 20
333.933954
 30
0.0
 10
96.657750
 20
334.272620
 30
0.0
 10
95.641750
 20
334.272620
 30
0.0
  0
LWPOLYLINE
  5
241
100
AcDbEntity
  8
0
 62
5
100
AcDbPolyline
 90
4
 70
0
 10
102.753750
 20
334.272620
 30
0.0
 10
101.737750
 20
334.272620
 30
0.0
 10
101.737750
 20
333.933954
 30
0.0
 10
107.664417
 20
333.933954
 30
0.0
  0
LWPOLYLINE
  5
242
100
AcDbEntity
  8
0
 62
1
100
AcDbPolyline
 90
2
 70
0
 10
97.843083
 20
333.933954
 30
0.0
 10
100.552417
 20
333.933954
 30
0.0
  0
LWPOLYLINE
  5
243
100
AcDbEntity
  8
0
 62
5
100
AcDbPolyline
 90
4
 70
0
 10
78.757379
 20
321.960250
 30
0.0
 10
78.877118
 20
326.629995
 30
0.0
 10
86.061338
 20
333.814215
 30
0.0
 10
90.731083
 20
333.933954
 30
0.0
  0
LWPOLYLINE
  5
244
100
AcDbEntity
  8
0
 62
5
100
AcDbPolyline
 90
4
 70
0
 10
82.469228
 20
324.953676
 30
0.0
 10
82.349490
 20
326.031308
 30
0.0
 10
86.660025
 20
330.341843
 30
0.0
 10
87.737656
 20
330.222105
 30
0.0
  0
LWPOLYLINE
  5
245
100
AcDbEntity
  8
0
 62
1
100
AcDbPolyline
 90
2
 70
0
 10
78.757379
 20
321.960250
 30
0.0
 10
82.110016
 20
325.312886
 30
0.0
  0
LWPOLYLINE
  5
246
100
AcDbEntity
  8
0
 62
1
100
AcDbPolyline
 90
2
 70
0
 10
90.731083
 20
333.933954
 30
0.0
 10
87.378447
 20
330.581317
 30
0.0
  0
SPLINE
  5
247
100
AcDbEntity
  8
0
 62
5
100
AcDbSpline
 70
0
 71
3
 72
10
 73
6
 74
4
 40
0.000000
 40
0.000000
 40
0.000000
 40
0.000000
 40
1.046212
 40
1.927099
 40
2.310847
 40
2.310847
 40
2.310847
 40
2.310847
 10
101.737750
 20
336.304620
 30
0.0
 10
101.973507
 20
336.042483
 30
0.0
 10
102.407767
 20
335.559632
 30
0.0
 10
102.653599
 20
334.812032
 30
0.0
 10
102.730434
 20
334.398197
 30
0.0
 10
102.753750
 20
334.272620
 30
0.0
 11
101.737750
 21
336.304620
 31
0.0
 11
102.377454
 21
335.476769
 31
0.0
 11
102.678491
 21
334.648917
 31
0.0
 11
102.753750
 21
334.272620
 31
0.0
  0
SPLINE
  5
248
100
AcDbEntity
  8
0
 62
5
100
AcDbSpline
 70
0
 71
3
 72
10
 73
6
 74
4
 40
0.000000
 40
0.000000
 40
0.000000
 40
0.000000
 40
0.383750
 40
1.264641
 40
2.310857
 40
2.310857
 40
2.310857
 40
2.310857
 10
78.418687
 20
309.937572
 30
0.0
 10
78.293110
 20
309.960888
 30
0.0
 10
77.879274
 20
310.037724
 30
0.0
 10
77.131671
 20
310.283556
 30
0.0
 10
76.648817
 20
310.717817
 30
0.0
 10
76.386679
 20
310.953576
 30
0.0
 11
78.418687
 21
309.937572
 31
0.0
 11
78.042389
 21
310.012832
 31
0.0
 11
77.214534
 21
310.313870
 31
0.0
 11
76.386679
 21
310.953576
 31
0.0
  0
SPLINE
  5
249
100
AcDbEntity
  8
0
 62
5
100
AcDbSpline
 70
0
 71
3
 72
10
 73
6
 74
4
 40
0.000000
 40
0.000000
 40
0.000000
 40
0.000000
 40
1.754127
 40
3.597985
 40
5.352112
 40
5.352112
 40
5.352112
 40
5.352112
 10
76.386679
 20
310.953576
 30
0.0
 10
76.117089
 20
311.478072
 30
0.0
 10
75.564120
 20
312.553895
 30
0.0
 10
75.564120
 20
314.433271
 30
0.0
 10
76.117089
 20
315.509094
 30
0.0
 10
76.386679
 20
316.033591
 30
0.0
 11
76.386679
 21
310.953576
 31
0.0
 11
75.709343
 21
312.571654
 31
0.0
 11
75.709343
 21
314.415512
 31
0.0
 11
76.386679
 21
316.033591
 31
0.0
  0
LWPOLYLINE
  5
24a
100
AcDbEntity
  8
0
 62
5
100
AcDbPolyline
 90
4
 70
0
 10
78.757354
 20
305.026891
 30
0.0
 10
78.757354
 20
310.953576
 30
0.0
 10
78.418687
 20
310.953576
 30
0.0
 10
78.418687
 20
309.937572
 30
0.0
  0
LWPOLYLINE
  5
24b
100
AcDbEntity
  8
0
 62
5
100
AcDbPolyline
 90
4
 70
0
 10
78.418687
 20
317.049594
 30
0.0
 10
78.418687
 20
316.033591
 30
0.0
 10
78.757354
 20
316.033591
 30
0.0
 10
78.757354
 20
321.960275
 30
0.0
  0
LWPOLYLINE
  5
24c
100
AcDbEntity
  8
0
 62
1
100
AcDbPolyline
 90
2
 70
0
 10
78.757354
 20
312.138913
 30
0.0
 10
78.757354
 20
314.848254
 30
0.0
  0
LWPOLYLINE
  5
24d
100
AcDbEntity
  8
0
 62
5
100
AcDbPolyline
 90
4
 70
0
 10
90.730999
 20
293.053246
 30
0.0
 10
86.061276
 20
293.172983
 30
0.0
 10
78.877089
 20
300.357170
 30
0.0
 10
78.757354
 20
305.026891
 30
0.0
  0
LWPOLYLINE
  5
24e
100
AcDbEntity
  8
0
 62
5
100
AcDbPolyline
 90
4
 70
0
 10
87.737586
 20
296.765076
 30
0.0
 10
86.659960
 20
296.645340
 30
0.0
 10
82.349447
 20
300.955852
 30
0.0
 10
82.469183
 20
302.033480
 30
0.0
  0
LWPOLYLINE
  5
24f
100
AcDbEntity
  8
0
 62
1
100
AcDbPolyline
 90
2
 70
0
 10
90.730999
 20
293.053246
 30
0.0
 10
87.378379
 20
296.405867
 30
0.0
  0
LWPOLYLINE
  5
250
100
AcDbEntity
  8
0
 62
1
100
AcDbPolyline
 90
2
 70
0
 10
78.757354
 20
305.026891
 30
0.0
 10
82.109973
 20
301.674271
 30
0.0
  0
SPLINE
  5
251
100
AcDbEntity
  8
0
 62
5
100
AcDbSpline
 70
0
 71
3
 72
10
 73
6
 74
4
 40
0.000000
 40
0.000000
 40
0.000000
 40
0.000000
 40
1.046216
 40
1.927107
 40
2.310857
 40
2.310857
 40
2.310857
 40
2.310857
 10
76.386679
 20
316.033591
 30
0.0
 10
76.648817
 20
316.269349
 30
0.0
 10
77.131671
 20
316.703610
 30
0.0
 10
77.879274
 20
316.949442
 30
0.0
 10
78.293110
 20
317.026278
 30
0.0
 10
78.418687
 20
317.049594
 30
0.0
 11
76.386679
 21
316.033591
 31
0.0
 11
77.214534
 21
316.673296
 31
0.0
 11
78.042389
 21
316.974334
 31
0.0
 11
78.418687
 21
317.049594
 31
0.0
  0
SPLINE
  5
252
100
AcDbEntity
  8
0
 62
5
100
AcDbSpline
 70
0
 71
3
 72
10
 73
6
 74
4
 40
0.000000
 40
0.000000
 40
0.000000
 40
0.000000
 40
0.383748
 40
1.264635
 40
2.310847
 40
2.310847
 40
2.310847
 40
2.310847
 10
90.392417
 20
281.030664
 30
0.0
 10
90.266840
 20
281.053980
 30
0.0
 10
89.853005
 20
281.130816
 30
0.0
 10
89.105405
 20
281.376647
 30
0.0
 10
88.622554
 20
281.810907
 30
0.0
 10
88.360417
 20
282.046664
 30
0.0
 11
90.392417
 21
281.030664
 31
0.0
 11
90.016120
 21
281.105924
 31
0.0
 11
89.188268
 21
281.406961
 31
0.0
 11
88.360417
 21
282.046664
 31
0.0
  0
SPLINE
  5
253
100
AcDbEntity
  8
0
 62
5
100
AcDbSpline
 70
0
 71
3
 72
10
 73
6
 74
4
 40
0.000000
 40
0.000000
 40
0.000000
 40
0.000000
 40
1.754122
 40
3.597974
 40
5.352096
 40
5.352096
 40
5.352096
 40
5.352096
 10
88.360417
 20
282.046664
 30
0.0
 10
88.090828
 20
282.571159
 30
0.0
 10
87.537860
 20
283.646979
 30
0.0
 10
87.537860
 20
285.526349
 30
0.0
 10
88.090828
 20
286.602169
 30
0.0
 10
88.360417
 20
287.126664
 30
0.0
 11
88.360417
 21
282.046664
 31
0.0
 11
87.683083
 21
283.664738
 31
0.0
 11
87.683083
 21
285.508590
 31
0.0
 11
88.360417
 21
287.126664
 31
0.0
  0
LWPOLYLINE
  5
254
100
AcDbEntity
  8
0
 62
5
100
AcDbPolyline
 90
4
 70
0
 10
90.731083
 20
276.119998
 30
0.0
 10
90.731083
 20
282.046664
 30
0.0
 10
90.392417
 20
282.046664
 30
0.0
 10
90.392417
 20
281.030664
 30
0.0
  0
LWPOLYLINE
  5
255
100
AcDbEntity
  8
0
 62
5
100
AcDbPolyline
 90
4
 70
0
 10
90.392417
 20
288.142664
 30
0.0
 10
90.392417
 20
287.126664
 30
0.0
 10
90.731083
 20
287.126664
 30
0.0
 10
90.731083
 20
293.053331
 30
0.0
  0
LWPOLYLINE
  5
256
100
AcDbEntity
  8
0
 62
1
100
AcDbPolyline
 90
2
 70
0
 10
90.731083
 20
283.231998
 30
0.0
 10
90.731083
 20
285.941331
 30
0.0
  0
LWPOLYLINE
  5
257
100
AcDbEntity
  8
0
 62
5
100
AcDbPolyline
 90
7
 70
0
 10
90.731083
 20
276.119998
 30
0.0
 10
89.294236
 20
277.077896
 30
0.0
 10
88.216599
 20
275.760786
 30
0.0
 10
88.575811
 20
274.443676
 30
0.0
 10
88.815285
 20
274.683150
 30
0.0
 10
89.054762
 20
274.443676
 30
0.0
 10
78.757354
 20
264.146268
 30
0.0
  0
LWPOLYLINE
  5
258
100
AcDbEntity
  8
0
 62
1
100
AcDbPolyline
 90
2
 70
0
 10
90.252135
 20
275.641049
 30
0.0
 10
89.533710
 20
274.922625
 30
0.0
  0
LWPOLYLINE
  5
259
100
AcDbEntity
  8
0
 62
5
100
AcDbPolyline
 90
8
 70
0
 10
78.757354
 20
264.146268
 30
0.0
 10
84.684043
 20
274.411597
 30
0.0
 10
85.879912
 20
274.112223
 30
0.0
 10
86.873230
 20
275.494032
 30
0.0
 10
86.416679
 20
276.735272
 30
0.0
 10
86.247345
 20
276.441976
 30
0.0
 10
85.954049
 20
276.611310
 30
0.0
 10
87.224054
 20
278.811024
 30
0.0
  0
LWPOLYLINE
  5
25a
100
AcDbEntity
  8
0
 62
1
100
AcDbPolyline
 90
2
 70
0
 10
85.022713
 20
274.998187
 30
0.0
 10
85.615382
 20
276.024720
 30
0.0
  0
LWPOLYLINE
  5
25b
100
AcDbEntity
  8
0
 62
5
100
AcDbPolyline
 90
4
 70
0
 10
78.757393
 20
293.475671
 30
0.0
 10
83.236999
 20
292.151404
 30
0.0
 10
88.316974
 20
283.352628
 30
0.0
 10
87.224021
 20
278.811043
 30
0.0
  0
LWPOLYLINE
  5
25c
100
AcDbEntity
  8
0
 62
5
100
AcDbPolyline
 90
4
 70
0
 10
80.688109
 20
289.115576
 30
0.0
 10
81.760006
 20
288.952322
 30
0.0
 10
84.807992
 20
283.673056
 30
0.0
 10
84.413426
 20
282.663140
 30
0.0
  0
LWPOLYLINE
  5
25d
100
AcDbEntity
  8
0
 62
1
100
AcDbPolyline
 90
2
 70
0
 10
78.757393
 20
293.475671
 30
0.0
 10
81.128049
 20
289.369575
 30
0.0
  0
LWPOLYLINE
  5
25e
100
AcDbEntity
  8
0
 62
1
100
AcDbPolyline
 90
2
 70
0
 10
87.224021
 20
278.811043
 30
0.0
 10
84.853365
 20
282.917139
 30
0.0
  0
SPLINE
  5
25f
100
AcDbEntity
  8
0
 62
5
100
AcDbSpline
 70
0
 71
3
 72
10
 73
6
 74
4
 40
0.000000
 40
0.000000
 40
0.000000
 40
0.000000
 40
1.046212
 40
1.927099
 40
2.310847
 40
2.310847
 40
2.310847
 40
2.310847
 10
88.360417
 20
287.126664
 30
0.0
 10
88.622554
 20
287.362422
 30
0.0
 10
89.105405
 20
287.796682
 30
0.0
 10
89.853005
 20
288.042513
 30
0.0
 10
90.266840
 20
288.119349
 30
0.0
 10
90.392417
 20
288.142664
 30
0.0
 11
88.360417
 21
287.126664
 31
0.0
 11
89.188268
 21
287.766368
 31
0.0
 11
90.016120
 21
288.067405
 31
0.0
 11
90.392417
 21
288.142664
 31
0.0
  0
SPLINE
  5
260
100
AcDbEntity
  8
0
 62
5
100
AcDbSpline
 70
0
 71
3
 72
10
 73
6
 74
4
 40
0.000000
 40
0.000000
 40
0.000000
 40
0.000000
 40
0.383748
 40
1.264635
 40
2.310847
 40
2.310847
 40
2.310847
 40
2.310847
 10
66.734687
 20
293.814315
 30
0.0
 10
66.758003
 20
293.939891
 30
0.0
 10
66.834838
 20
294.353726
 30
0.0
 10
67.080670
 20
295.101326
 30
0.0
 10
67.514930
 20
295.584178
 30
0.0
 10
67.750687
 20
295.846315
 30
0.0
 11
66.734687
 21
293.814315
 31
0.0
 11
66.809946
 21
294.190611
 31
0.0
 11
67.110983
 21
295.018463
 31
0.0
 11
67.750687
 21
295.846315
 31
0.0
  0
SPLINE
  5
261
100
AcDbEntity
  8
0
 62
5
100
AcDbSpline
 70
0
 71
3
 72
10
 73
6
 74
4
 40
0.000000
 40
0.000000
 40
0.000000
 40
0.000000
 40
1.754122
 40
3.597974
 40
5.352096
 40
5.352096
 40
5.352096
 40
5.352096
 10
67.750687
 20
295.846315
 30
0.0
 10
68.275182
 20
296.115904
 30
0.0
 10
69.351002
 20
296.668872
 30
0.0
 10
71.230372
 20
296.668872
 30
0.0
 10
72.306192
 20
296.115904
 30
0.0
 10
72.830687
 20
295.846315
 30
0.0
 11
67.750687
 21
295.846315
 31
0.0
 11
69.368761
 21
296.523648
 31
0.0
 11
71.212613
 21
296.523648
 31
0.0
 11
72.830687
 21
295.846315
 31
0.0
  0
LWPOLYLINE
  5
262
100
AcDbEntity
  8
0
 62
5
100
AcDbPolyline
 90
4
 70
0
 10
61.824021
 20
293.475648
 30
0.0
 10
67.750687
 20
293.475648
 30
0.0
 10
67.750687
 20
293.814315
 30
0.0
 10
66.734687
 20
293.814315
 30
0.0
  0
LWPOLYLINE
  5
263
100
AcDbEntity
  8
0
 62
5
100
AcDbPolyline
 90
4
 70
0
 10
73.846687
 20
293.814315
 30
0.0
 10
72.830687
 20
293.814315
 30
0.0
 10
72.830687
 20
293.475648
 30
0.0
 10
78.757354
 20
293.475648
 30
0.0
  0
LWPOLYLINE
  5
264
100
AcDbEntity
  8
0
 62
1
100
AcDbPolyline
 90
2
 70
0
 10
68.936021
 20
293.475648
 30
0.0
 10
71.645354
 20
293.475648
 30
0.0
  0
LWPOLYLINE
  5
265
100
AcDbEntity
  8
0
 62
5
100
AcDbPolyline
 90
4
 70
0
 10
53.357393
 20
278.811020
 30
0.0
 10
52.264440
 20
283.352605
 30
0.0
 10
57.344414
 20
292.151382
 30
0.0
 10
61.824021
 20
293.475649
 30
0.0
  0
LWPOLYLINE
  5
266
100
AcDbEntity
  8
0
 62
5
100
AcDbPolyline
 90
4
 70
0
 10
56.167988
 20
282.663118
 30
0.0
 10
55.773422
 20
283.673034
 30
0.0
 10
58.821407
 20
288.952300
 30
0.0
 10
59.893304
 20
289.115554
 30
0.0
  0
LWPOLYLINE
  5
267
100
AcDbEntity
  8
0
 62
1
100
AcDbPolyline
 90
2
 70
0
 10
53.357393
 20
278.811020
 30
0.0
 10
55.728049
 20
282.917116
 30
0.0
  0
LWPOLYLINE
  5
268
100
AcDbEntity
  8
0
 62
1
100
AcDbPolyline
 90
2
 70
0
 10
61.824021
 20
293.475649
 30
0.0
 10
59.453365
 20
289.369553
 30
0.0
  0
LWPOLYLINE
  5
269
100
AcDbEntity
  8
0
 62
5
100
AcDbPolyline
 90
8
 70
0
 10
61.824054
 20
264.146288
 30
0.0
 10
55.897365
 20
274.411617
 30
0.0
 10
54.701496
 20
274.112243
 30
0.0
 10
53.708179
 20
275.494051
 30
0.0
 10
54.164730
 20
276.735291
 30
0.0
 10
54.334063
 20
276.441996
 30
0.0
 10
54.627359
 20
276.611330
 30
0.0
 10
53.357354
 20
278.811043
 30
0.0
  0
LWPOLYLINE
  5
26a
100
AcDbEntity
  8
0
 62
1
100
AcDbPolyline
 90
2
 70
0
 10
55.558696
 20
274.998207
 30
0.0
 10
54.966026
 20
276.024740
 30
0.0
  0
LWPOLYLINE
  5
26b
100
AcDbEntity
  8
0
 62
5
100
AcDbPolyline
 90
7
 70
0
 10
49.850376
 20
276.119913
 30
0.0
 10
51.287214
 20
277.077805
 30
0.0
 10
52.364840
 20
275.760704
 30
0.0
 10
52.005631
 20
274.443603
 30
0.0
 10
51.766160
 20
274.683076
 30
0.0
 10
51.526686
 20
274.443603
 30
0.0
 10
61.824021
 20
264.146268
 30
0.0
  0
LWPOLYLINE
  5
26c
100
AcDbEntity
  8
0
 62
1
100
AcDbPolyline
 90
2
 70
0
 10
50.329321
 20
275.640967
 30
0.0
 10
51.047740
 20
274.922549
 30
0.0
  0
SPLINE
  5
26d
100
AcDbEntity
  8
0
 62
5
100
AcDbSpline
 70
0
 71
3
 72
10
 73
6
 74
4
 40
0.000000
 40
0.000000
 40
0.000000
 40
0.000000
 40
1.046212
 40
1.927099
 40
2.310847
 40
2.310847
 40
2.310847
 40
2.310847
 10
72.830687
 20
295.846315
 30
0.0
 10
73.066445
 20
295.584178
 30
0.0
 10
73.500704
 20
295.101326
 30
0.0
 10
73.746536
 20
294.353726
 30
0.0
 10
73.823372
 20
293.939891
 30
0.0
 10
73.846687
 20
293.814315
 30
0.0
 11
72.830687
 21
295.846315
 31
0.0
 11
73.470391
 21
295.018463
 31
0.0
 11
73.771428
 21
294.190611
 31
0.0
 11
73.846687
 21
293.814315
 31
0.0
  0
SPLINE
  5
26e
100
AcDbEntity
  8
0
 62
5
100
AcDbSpline
 70
0
 71
3
 72
10
 73
6
 74
4
 40
0.000000
 40
0.000000
 40
0.000000
 40
0.000000
 40
0.383748
 40
1.264635
 40
2.310847
 40
2.310847
 40
2.310847
 40
2.310847
 10
50.189127
 20
281.030664
 30
0.0
 10
50.314704
 20
281.053980
 30
0.0
 10
50.728538
 20
281.130816
 30
0.0
 10
51.476138
 20
281.376647
 30
0.0
 10
51.958990
 20
281.810907
 30
0.0
 10
52.221127
 20
282.046664
 30
0.0
 11
50.189127
 21
281.030664
 31
0.0
 11
50.565423
 21
281.105924
 31
0.0
 11
51.393275
 21
281.406961
 31
0.0
 11
52.221127
 21
282.046664
 31
0.0
  0
SPLINE
  5
26f
100
AcDbEntity
  8
0
 62
5
100
AcDbSpline
 70
0
 71
3
 72
10
 73
6
 74
4
 40
0.000000
 40
0.000000
 40
0.000000
 40
0.000000
 40
1.754122
 40
3.597974
 40
5.352096
 40
5.352096
 40
5.352096
 40
5.352096
 10
52.221127
 20
282.046664
 30
0.0
 10
52.490716
 20
282.571159
 30
0.0
 10
53.043684
 20
283.646979
 30
0.0
 10
53.043684
 20
285.526349
 30
0.0
 10
52.490716
 20
286.602169
 30
0.0
 10
52.221127
 20
287.126664
 30
0.0
 11
52.221127
 21
282.046664
 31
0.0
 11
52.898461
 21
283.664738
 31
0.0
 11
52.898461
 21
285.508590
 31
0.0
 11
52.221127
 21
287.126664
 31
0.0
  0
LWPOLYLINE
  5
270
100
AcDbEntity
  8
0
 62
5
100
AcDbPolyline
 90
4
 70
0
 10
49.850461
 20
276.119998
 30
0.0
 10
49.850461
 20
282.046664
 30
0.0
 10
50.189127
 20
282.046664
 30
0.0
 10
50.189127
 20
281.030664
 30
0.0
  0
LWPOLYLINE
  5
271
100
AcDbEntity
  8
0
 62
5
100
AcDbPolyline
 90
4
 70
0
 10
50.189127
 20
288.142664
 30
0.0
 10
50.189127
 20
287.126664
 30
0.0
 10
49.850461
 20
287.126664
 30
0.0
 10
49.850461
 20
293.053331
 30
0.0
  0
LWPOLYLINE
  5
272
100
AcDbEntity
  8
0
 62
1
100
AcDbPolyline
 90
2
 70
0
 10
49.850461
 20
283.231998
 30
0.0
 10
49.850461
 20
285.941331
 30
0.0
  0
LWPOLYLINE
  5
273
100
AcDbEntity
  8
0
 62
5
100
AcDbPolyline
 90
4
 70
0
 10
32.917076
 20
293.053331
 30
0.0
 10
36.303754
 20
296.270674
 30
0.0
 10
46.463783
 20
296.270674
 30
0.0
 10
49.850461
 20
293.053331
 30
0.0
  0
LWPOLYLINE
  5
274
100
AcDbEntity
  8
0
 62
5
100
AcDbPolyline
 90
4
 70
0
 10
37.658424
 20
292.545330
 30
0.0
 10
38.335760
 20
293.391999
 30
0.0
 10
44.431777
 20
293.391999
 30
0.0
 10
45.109113
 20
292.545330
 30
0.0
  0
LWPOLYLINE
  5
275
100
AcDbEntity
  8
0
 62
1
100
AcDbPolyline
 90
2
 70
0
 10
32.917076
 20
293.053331
 30
0.0
 10
37.658424
 20
293.053331
 30
0.0
  0
LWPOLYLINE
  5
276
100
AcDbEntity
  8
0
 62
1
100
AcDbPolyline
 90
2
 70
0
 10
49.850461
 20
293.053331
 30
0.0
 10
45.109113
 20
293.053331
 30
0.0
  0
SPLINE
  5
277
100
AcDbEntity
  8
0
 62
5
100
AcDbSpline
 70
0
 71
3
 72
10
 73
6
 74
4
 40
0.000000
 40
0.000000
 40
0.000000
 40
0.000000
 40
1.046212
 40
1.927099
 40
2.310847
 40
2.310847
 40
2.310847
 40
2.310847
 10
52.221127
 20
287.126664
 30
0.0
 10
51.958990
 20
287.362422
 30
0.0
 10
51.476138
 20
287.796682
 30
0.0
 10
50.728538
 20
288.042513
 30
0.0
 10
50.314704
 20
288.119349
 30
0.0
 10
50.189127
 20
288.142664
 30
0.0
 11
52.221127
 21
287.126664
 31
0.0
 11
51.393275
 21
287.766368
 31
0.0
 11
50.565423
 21
288.067405
 31
0.0
 11
50.189127
 21
288.142664
 31
0.0
  0
SPLINE
  5
278
100
AcDbEntity
  8
0
 62
5
100
AcDbSpline
 70
0
 71
3
 72
10
 73
6
 74
4
 40
0.000000
 40
0.000000
 40
0.000000
 40
0.000000
 40
0.383748
 40
1.264635
 40
2.310847
 40
2.310847
 40
2.310847
 40
2.310847
 10
32.578410
 20
281.030664
 30
0.0
 10
32.452833
 20
281.053980
 30
0.0
 10
32.038999
 20
281.130816
 30
0.0
 10
31.291398
 20
281.376647
 30
0.0
 10
30.808547
 20
281.810907
 30
0.0
 10
30.546410
 20
282.046664
 30
0.0
 11
32.578410
 21
281.030664
 31
0.0
 11
32.202113
 21
281.105924
 31
0.0
 11
31.374262
 21
281.406961
 31
0.0
 11
30.546410
 21
282.046664
 31
0.0
  0
SPLINE
  5
279
100
AcDbEntity
  8
0
 62
5
100
AcDbSpline
 70
0
 71
3
 72
10
 73
6
 74
4
 40
0.000000
 40
0.000000
 40
0.000000
 40
0.000000
 40
1.754122
 40
3.597974
 40
5.352096
 40
5.352096
 40
5.352096
 40
5.352096
 10
30.546410
 20
282.046664
 30
0.0
 10
30.276821
 20
282.571159
 30
0.0
 10
29.723853
 20
283.646979
 30
0.0
 10
29.723853
 20
285.526349
 30
0.0
 10
30.276821
 20
286.602169
 30
0.0
 10
30.546410
 20
287.126664
 30
0.0
 11
30.546410
 21
282.046664
 31
0.0
 11
29.869076
 21
283.664738
 31
0.0
 11
29.869076
 21
285.508590
 31
0.0
 11
30.546410
 21
287.126664
 31
0.0
  0
LWPOLYLINE
  5
27a
100
AcDbEntity
  8
0
 62
5
100
AcDbPolyline
 90
4
 70
0
 10
32.917076
 20
276.119998
 30
0.0
 10
32.917076
 20
282.046664
 30
0.0
 10
32.578410
 20
282.046664
 30
0.0
 10
32.578410
 20
281.030664
 30
0.0
  0
LWPOLYLINE
  5
27b
100
AcDbEntity
  8
0
 62
5
100
AcDbPolyline
 90
4
 70
0
 10
32.578410
 20
288.142664
 30
0.0
 10
32.578410
 20
287.126664
 30
0.0
 10
32.917076
 20
287.126664
 30
0.0
 10
32.917076
 20
293.053331
 30
0.0
  0
LWPOLYLINE
  5
27c
100
AcDbEntity
  8
0
 62
1
100
AcDbPolyline
 90
2
 70
0
 10
32.917076
 20
283.231998
 30
0.0
 10
32.917076
 20
285.941331
 30
0.0
  0
LWPOLYLINE
  5
27d
100
AcDbEntity
  8
0
 62
5
100
AcDbPolyline
 90
4
 70
0
 10
32.917076
 20
276.119998
 30
0.0
 10
28.247332
 20
276.000261
 30
0.0
 10
21.063109
 20
268.816038
 30
0.0
 10
20.943372
 20
264.146294
 30
0.0
  0
LWPOLYLINE
  5
27e
100
AcDbEntity
  8
0
 62
5
100
AcDbPolyline
 90
4
 70
0
 10
29.923650
 20
272.408150
 30
0.0
 10
28.846018
 20
272.527887
 30
0.0
 10
24.535484
 20
268.217352
 30
0.0
 10
24.655221
 20
267.139720
 30
0.0
  0
LWPOLYLINE
  5
27f
100
AcDbEntity
  8
0
 62
1
100
AcDbPolyline
 90
2
 70
0
 10
32.917076
 20
276.119998
 30
0.0
 10
29.564440
 20
272.767361
 30
0.0
  0
LWPOLYLINE
  5
280
100
AcDbEntity
  8
0
 62
1
100
AcDbPolyline
 90
2
 70
0
 10
20.943372
 20
264.146294
 30
0.0
 10
24.296010
 20
267.498930
 30
0.0
  0
LWPOLYLINE
  5
281
100
AcDbEntity
  8
0
 62
1
100
AcDbPolyline
 90
2
 70
0
 10
32.916958
 20
276.119885
 30
0.0
 10
49.850573
 20
276.119885
 30
0.0
  0
LWPOLYLINE
  5
282
100
AcDbEntity
  8
0
 62
1
100
AcDbPolyline
 90
2
 70
0
 10
32.916958
 20
235.239149
 30
0.0
 10
49.850573
 20
235.239149
 30
0.0
  0
LWPOLYLINE
  5
283
100
AcDbEntity
  8
0
 62
1
100
AcDbPolyline
 90
2
 70
0
 10
61.824133
 20
264.146325
 30
0.0
 10
61.824133
 20
247.212992
 30
0.0
  0
LWPOLYLINE
  5
284
100
AcDbEntity
  8
0
 62
1
100
AcDbPolyline
 90
2
 70
0
 10
61.824133
 20
264.146325
 30
0.0
 10
78.757467
 20
264.146325
 30
0.0
  0
LWPOLYLINE
  5
285
100
AcDbEntity
  8
0
 62
1
100
AcDbPolyline
 90
2
 70
0
 10
61.824133
 20
247.212992
 30
0.0
 10
78.757467
 20
247.212992
 30
0.0
  0
LWPOLYLINE
  5
286
100
AcDbEntity
  8
0
 62
1
100
AcDbPolyline
 90
2
 70
0
 10
78.757467
 20
264.146325
 30
0.0
 10
78.757467
 20
247.212992
 30
0.0
  0
LWPOLYLINE
  5
287
100
AcDbEntity
  8
0
 62
1
100
AcDbPolyline
 90
2
 70
0
 10
90.731027
 20
293.053218
 30
0.0
 10
107.664360
 20
293.053218
 30
0.0
  0
LWPOLYLINE
  5
288
100
AcDbEntity
  8
0
 62
1
100
AcDbPolyline
 90
2
 70
0
 10
90.731027
 20
276.119885
 30
0.0
 10
107.664360
 20
276.119885
 30
0.0
  0
LWPOLYLINE
  5
289
100
AcDbEntity
  8
0
 62
1
100
AcDbPolyline
 90
2
 70
0
 10
90.731027
 20
235.239149
 30
0.0
 10
107.664360
 20
235.239149
 30
0.0
  0
LWPOLYLINE
  5
28a
100
AcDbEntity
  8
0
 62
1
100
AcDbPolyline
 90
2
 70
0
 10
90.731027
 20
218.305816
 30
0.0
 10
107.664360
 20
218.305816
 30
0.0
  0
LWPOLYLINE
  5
28b
100
AcDbEntity
  8
0
 62
1
100
AcDbPolyline
 90
2
 70
0
 10
119.638202
 20
264.146325
 30
0.0
 10
119.638202
 20
247.212992
 30
0.0
  0
LWPOLYLINE
  5
28c
100
AcDbEntity
  8
0
 62
1
100
AcDbPolyline
 90
2
 70
0
 10
119.638202
 20
264.146325
 30
0.0
 10
136.571536
 20
264.146325
 30
0.0
  0
LWPOLYLINE
  5
28d
100
AcDbEntity
  8
0
 62
1
100
AcDbPolyline
 90
2
 70
0
 10
119.638202
 20
247.212992
 30
0.0
 10
136.571536
 20
247.212992
 30
0.0
  0
LWPOLYLINE
  5
28e
100
AcDbEntity
  8
0
 62
1
100
AcDbPolyline
 90
2
 70
0
 10
136.571536
 20
264.146325
 30
0.0
 10
136.571536
 20
247.212992
 30
0.0
  0
LWPOLYLINE
  5
28f
100
AcDbEntity
  8
0
 62
1
100
AcDbPolyline
 90
2
 70
0
 10
148.545096
 20
276.119885
 30
0.0
 10
165.478429
 20
276.119885
 30
0.0
  0
LWPOLYLINE
  5
290
100
AcDbEntity
  8
0
 62
1
100
AcDbPolyline
 90
2
 70
0
 10
148.545096
 20
235.239149
 30
0.0
 10
165.478429
 20
235.239149
 30
0.0
  0
LWPOLYLINE
  5
291
100
AcDbEntity
  8
0
 62
1
100
AcDbPolyline
 90
2
 70
0
 10
177.451989
 20
264.146325
 30
0.0
 10
177.451989
 20
247.212992
 30
0.0
  0
LWPOLYLINE
  5
292
100
AcDbEntity
  8
0
 62
1
100
AcDbPolyline
 90
2
 70
0
 10
177.451989
 20
264.146325
 30
0.0
 10
194.384758
 20
264.146325
 30
0.0
  0
LWPOLYLINE
  5
293
100
AcDbEntity
  8
0
 62
1
100
AcDbPolyline
 90
2
 70
0
 10
177.451989
 20
247.212992
 30
0.0
 10
194.384758
 20
247.212992
 30
0.0
  0
LWPOLYLINE
  5
294
100
AcDbEntity
  8
0
 62
1
100
AcDbPolyline
 90
2
 70
0
 10
194.384758
 20
264.146325
 30
0.0
 10
194.384758
 20
247.212992
 30
0.0
  0
LWPOLYLINE
  5
295
100
AcDbEntity
  8
0
 62
1
100
AcDbPolyline
 90
2
 70
0
 10
206.358318
 20
276.119885
 30
0.0
 10
223.291651
 20
276.119885
 30
0.0
  0
LWPOLYLINE
  5
296
100
AcDbEntity
  8
0
 62
1
100
AcDbPolyline
 90
2
 70
0
 10
206.358318
 20
235.239149
 30
0.0
 10
223.291651
 20
235.239149
 30
0.0
  0
LWPOLYLINE
  5
297
100
AcDbEntity
  8
0
 62
1
100
AcDbPolyline
 90
2
 70
0
 10
235.266905
 20
264.146325
 30
0.0
 10
235.266905
 20
247.212992
 30
0.0
  0
LWPOLYLINE
  5
298
100
AcDbEntity
  8
0
 62
1
100
AcDbPolyline
 90
2
 70
0
 10
235.266905
 20
264.146325
 30
0.0
 10
252.200238
 20
264.146325
 30
0.0
  0
SPLINE
  5
299
100
AcDbEntity
  8
0
 62
5
100
AcDbSpline
 70
0
 71
3
 72
10
 73
6
 74
4
 40
0.000000
 40
0.000000
 40
0.000000
 40
0.000000
 40
1.046212
 40
1.927099
 40
2.310847
 40
2.310847
 40
2.310847
 40
2.310847
 10
30.546410
 20
287.126664
 30
0.0
 10
30.808547
 20
287.362422
 30
0.0
 10
31.291398
 20
287.796682
 30
0.0
 10
32.038999
 20
288.042513
 30
0.0
 10
32.452833
 20
288.119349
 30
0.0
 10
32.578410
 20
288.142664
 30
0.0
 11
30.546410
 21
287.126664
 31
0.0
 11
31.374262
 21
287.766368
 31
0.0
 11
32.202113
 21
288.067405
 31
0.0
 11
32.578410
 21
288.142664
 31
0.0
  0
LWPOLYLINE
  5
29a
100
AcDbEntity
  8
0
 62
1
100
AcDbPolyline
 90
2
 70
0
 10
235.266905
 20
247.212992
 30
0.0
 10
252.200238
 20
247.212992
 30
0.0
  0
ENDSEC
  0
SECTION
  2
OBJECTS
  0
DICTIONARY
  5
C
330
0
100
AcDbDictionary
  3
ACAD_GROUP
350
D
  3
ACAD_MLINESTYLE
350
17
  0
DICTIONARY
  5
D
330
C
100
AcDbDictionary
  0
DICTIONARY
  5
1A
330
C
100
AcDbDictionary
  0
DICTIONARY
  5
17
330
C
100
AcDbDictionary
  3
STANDARD
350
18
  0
DICTIONARY
  5
19
330
C
100
AcDbDictionary
  0
ENDSEC
  0
EOF
