999
DXF created by Inkscape
  0
SECTION
  2
HEADER
  9
$ACADVER
  1
AC1014
  9
$HANDSEED
  5
FFFF
  9
$MEASUREMENT
 70
     1
  0
ENDSEC
  0
SECTION
  2
TABLES
  0
TABLE
  2
VPORT
  5
8
330
0
100
AcDbSymbolTable
 70
     4
  0
VPORT
  5
2E
330
8
100
AcDbSymbolTableRecord
100
AcDbViewportTableRecord
  2
*ACTIVE
 70
     0
 10
0.0
 20
0.0
 11
1.0
 21
1.0
 12
210.0
 22
148.5
 13
0.0
 23
0.0
 14
10.0
 24
10.0
 15
10.0
 25
10.0
 16
0.0
 26
0.0
 36
1.0
 17
0.0
 27
0.0
 37
0.0
 40
341.0
 41
1.24
 42
50.0
 43
0.0
 44
0.0
 50
0.0
 51
0.0
 71
     0
 72
   100
 73
     1
 74
     3
 75
     0
 76
     0
 77
     0
 78
     0
  0
ENDTAB
  0
TABLE
  2
LTYPE
  5
5
330
0
100
AcDbSymbolTable
 70
     1
  0
LTYPE
  5
14
330
5
100
AcDbSymbolTableRecord
100
AcDbLinetypeTableRecord
  2
BYBLOCK
 70
     0
  3

 72
    65
 73
     0
 40
0.0
  0
LTYPE
  5
15
330
5
100
AcDbSymbolTableRecord
100
AcDbLinetypeTableRecord
  2
BYLAYER
 70
     0
  3

 72
    65
 73
     0
 40
0.0
  0
LTYPE
  5
16
330
5
100
AcDbSymbolTableRecord
100
AcDbLinetypeTableRecord
  2
CONTINUOUS
 70
     0
  3
Solid line
 72
    65
 73
     0
 40
0.0
  0
ENDTAB
  0
TABLE
  2
LAYER
  5
2
330
0
100
AcDbSymbolTable
 70
1
  0
LAYER
  5
10
330
2
100
AcDbSymbolTableRecord
100
AcDbLayerTableRecord
  2
0
 70
     0
 62
     7
  6
CONTINUOUS
  0
ENDTAB
  0
TABLE
  2
STYLE
  5
3
330
0
100
AcDbSymbolTable
 70
     1
  0
STYLE
  5
11
330
3
100
AcDbSymbolTableRecord
100
AcDbTextStyleTableRecord
  2
STANDARD
 70
     0
 40
0.0
 41
1.0
 50
0.0
 71
     0
 42
2.5
  3
txt
  4

  0
ENDTAB
  0
TABLE
  2
VIEW
  5
6
330
0
100
AcDbSymbolTable
 70
     0
  0
ENDTAB
  0
TABLE
  2
UCS
  5
7
330
0
100
AcDbSymbolTable
 70
     0
  0
ENDTAB
  0
TABLE
  2
APPID
  5
9
330
0
100
AcDbSymbolTable
 70
     2
  0
APPID
  5
12
330
9
100
AcDbSymbolTableRecord
100
AcDbRegAppTableRecord
  2
ACAD
 70
     0
  0
ENDTAB
  0
TABLE
  2
DIMSTYLE
  5
A
330
0
100
AcDbSymbolTable
 70
     1
  0
DIMSTYLE
105
27
330
A
100
AcDbSymbolTableRecord
100
AcDbDimStyleTableRecord
  2
ISO-25
 70
     0
  3

  4

  5

  6

  7

 40
1.0
 41
2.5
 42
0.625
 43
3.75
 44
1.25
 45
0.0
 46
0.0
 47
0.0
 48
0.0
140
2.5
141
2.5
142
0.0
143
0.03937007874016
144
1.0
145
0.0
146
1.0
147
0.625
 71
     0
 72
     0
 73
     0
 74
     0
 75
     0
 76
     0
 77
     1
 78
     8
170
     0
171
     3
172
     1
173
     0
174
     0
175
     0
176
     0
177
     0
178
     0
270
     2
271
     2
272
     2
273
     2
274
     3
340
11
275
     0
280
     0
281
     0
282
     0
283
     0
284
     8
285
     0
286
     0
287
     3
288
     0
  0
ENDTAB
  0
TABLE
  2
BLOCK_RECORD
  5
1
330
0
100
AcDbSymbolTable
 70
     1
  0
BLOCK_RECORD
  5
1F
330
1
100
AcDbSymbolTableRecord
100
AcDbBlockTableRecord
  2
*MODEL_SPACE
  0
BLOCK_RECORD
  5
1B
330
1
100
AcDbSymbolTableRecord
100
AcDbBlockTableRecord
  2
*PAPER_SPACE
  0
ENDTAB
  0
ENDSEC
  0
SECTION
  2
BLOCKS
  0
BLOCK
  5
20
330
1F
100
AcDbEntity
  8
0
100
AcDbBlockBegin
  2
*MODEL_SPACE
 70
     0
 10
0.0
 20
0.0
 30
0.0
  3
*MODEL_SPACE
  1

  0
ENDBLK
  5
21
330
1F
100
AcDbEntity
  8
0
100
AcDbBlockEnd
  0
BLOCK
  5
1C
330
1B
100
AcDbEntity
 67
     1
  8
0
100
AcDbBlockBegin
  2
*PAPER_SPACE
  1

  0
ENDBLK
  5
1D
330
1B
100
AcDbEntity
 67
     1
  8
0
100
AcDbBlockEnd
  0
ENDSEC
  0
SECTION
  2
ENTITIES
  0
SPLINE
  5
100
100
AcDbEntity
  8
0
 62
5
100
AcDbSpline
 70
0
 71
3
 72
10
 73
6
 74
4
 40
0.000000
 40
0.000000
 40
0.000000
 40
0.000000
 40
0.383749
 40
1.264636
 40
2.310849
 40
2.310849
 40
2.310849
 40
2.310849
 10
25.830929
 20
135.312561
 30
0.0
 10
25.794615
 20
135.190109
 30
0.0
 10
25.674943
 20
134.786573
 30
0.0
 10
25.352313
 20
134.068764
 30
0.0
 10
24.869960
 20
133.633950
 30
0.0
 10
24.608093
 20
133.397892
 30
0.0
 11
25.830929
 21
135.312561
 31
0.0
 11
25.716749
 21
134.946192
 31
0.0
 11
25.330827
 21
134.154342
 31
0.0
 11
24.608093
 21
133.397892
 31
0.0
  0
SPLINE
  5
101
100
AcDbEntity
  8
0
 62
5
100
AcDbSpline
 70
0
 71
3
 72
10
 73
6
 74
4
 40
0.000000
 40
0.000000
 40
0.000000
 40
0.000000
 40
1.754122
 40
3.597974
 40
5.352096
 40
5.352096
 40
5.352096
 40
5.352096
 10
24.608093
 20
133.397892
 30
0.0
 10
24.058292
 20
133.184605
 30
0.0
 10
22.930564
 20
132.747120
 30
0.0
 10
21.061489
 20
132.943568
 30
0.0
 10
20.049364
 20
133.605962
 30
0.0
 10
19.555922
 20
133.928898
 30
0.0
 11
24.608093
 21
133.397892
 31
0.0
 11
22.928082
 21
132.893404
 31
0.0
 11
21.094331
 21
133.086140
 31
0.0
 11
19.555922
 21
133.928898
 31
0.0
  0
LWPOLYLINE
  5
102
100
AcDbEntity
  8
0
 62
5
100
AcDbPolyline
 90
4
 70
0
 10
30.750095
 20
135.136067
 30
0.0
 10
24.855895
 20
135.755573
 30
0.0
 10
24.820495
 20
135.418761
 30
0.0
 10
25.830929
 20
135.312561
 30
0.0
  0
LWPOLYLINE
  5
103
100
AcDbEntity
  8
0
 62
5
100
AcDbPolyline
 90
4
 70
0
 10
18.757890
 20
136.055968
 30
0.0
 10
19.768324
 20
135.949765
 30
0.0
 10
19.803724
 20
136.286577
 30
0.0
 10
13.909524
 20
136.906083
 30
0.0
  0
LWPOLYLINE
  5
104
100
AcDbEntity
  8
0
 62
1
100
AcDbPolyline
 90
2
 70
0
 10
23.677055
 20
135.879474
 30
0.0
 10
20.982564
 20
136.162676
 30
0.0
  0
LWPOLYLINE
  5
105
100
AcDbEntity
  8
0
 62
5
100
AcDbPolyline
 90
5
 70
0
 10
30.750089
 20
135.136042
 30
0.0
 10
32.752741
 20
132.281751
 30
0.0
 10
42.733143
 20
134.522592
 30
0.0
 10
44.222492
 20
136.552047
 30
0.0
 10
47.590594
 20
136.906049
 30
0.0
  0
LWPOLYLINE
  5
106
100
AcDbEntity
  8
0
 62
5
100
AcDbPolyline
 90
4
 70
0
 10
32.044231
 20
135.782856
 30
0.0
 10
32.806352
 20
135.011633
 30
0.0
 10
38.868931
 20
135.648834
 30
0.0
 10
39.454051
 20
136.561659
 30
0.0
  0
LWPOLYLINE
  5
107
100
AcDbEntity
  8
0
 62
1
100
AcDbPolyline
 90
2
 70
0
 10
30.750089
 20
135.136042
 30
0.0
 10
32.097331
 20
135.277641
 30
0.0
  0
LWPOLYLINE
  5
108
100
AcDbEntity
  8
0
 62
1
100
AcDbPolyline
 90
2
 70
0
 10
44.222492
 20
136.552047
 30
0.0
 10
39.507152
 20
136.056445
 30
0.0
  0
SPLINE
  5
109
100
AcDbEntity
  8
0
 62
5
100
AcDbSpline
 70
0
 71
3
 72
10
 73
6
 74
4
 40
0.000000
 40
0.000000
 40
0.000000
 40
0.000000
 40
1.046211
 40
1.927099
 40
2.310848
 40
2.310848
 40
2.310848
 40
2.310848
 10
19.555922
 20
133.928898
 30
0.0
 10
19.348857
 20
134.214243
 30
0.0
 10
18.967447
 20
134.739841
 30
0.0
 10
18.801108
 20
135.509042
 30
0.0
 10
18.767951
 20
135.928642
 30
0.0
 10
18.757890
 20
136.055968
 30
0.0
 11
19.555922
 21
133.928898
 31
0.0
 11
19.006257
 21
134.819081
 31
0.0
 11
18.793403
 21
135.673866
 31
0.0
 11
18.757890
 21
136.055968
 31
0.0
  0
SPLINE
  5
10a
100
AcDbEntity
  8
0
 62
5
100
AcDbSpline
 70
0
 71
3
 72
10
 73
6
 74
4
 40
0.000000
 40
0.000000
 40
0.000000
 40
0.000000
 40
0.168284
 40
0.650176
 40
1.455482
 40
1.455482
 40
1.455482
 40
1.455482
 10
40.235592
 20
133.050727
 30
0.0
 10
40.189449
 20
133.082751
 30
0.0
 10
40.011170
 20
133.206477
 30
0.0
 10
39.545098
 20
133.371552
 30
0.0
 10
39.116106
 20
133.402958
 30
0.0
 10
38.847717
 20
133.422606
 30
0.0
 11
40.235592
 21
133.050727
 31
0.0
 11
40.095157
 21
133.143450
 31
0.0
 11
39.646305
 21
133.318812
 31
0.0
 11
38.847717
 21
133.422606
 31
0.0
  0
SPLINE
  5
10b
100
AcDbEntity
  8
0
 62
5
100
AcDbSpline
 70
0
 71
3
 72
10
 73
6
 74
4
 40
0.000000
 40
0.000000
 40
0.000000
 40
0.000000
 40
1.568758
 40
3.233988
 40
4.770371
 40
4.770371
 40
4.770371
 40
4.770371
 10
38.847717
 20
133.422606
 30
0.0
 10
38.333980
 20
133.324524
 30
0.0
 10
37.274914
 20
133.122328
 30
0.0
 10
35.732270
 20
132.733632
 30
0.0
 10
34.704258
 20
132.447226
 30
0.0
 10
34.210938
 20
132.309787
 30
0.0
 11
38.847717
 21
133.422606
 31
0.0
 11
37.309627
 21
133.113932
 31
0.0
 11
35.692586
 21
132.716226
 31
0.0
 11
34.210938
 21
132.309787
 31
0.0
  0
LWPOLYLINE
  5
10c
100
AcDbEntity
  8
0
 62
5
100
AcDbPolyline
 90
4
 70
0
 10
47.590591
 20
136.906080
 30
0.0
 10
39.525047
 20
132.249436
 30
0.0
 10
39.355717
 20
132.542730
 30
0.0
 10
40.235592
 20
133.050727
 30
0.0
  0
LWPOLYLINE
  5
10d
100
AcDbEntity
  8
0
 62
5
100
AcDbPolyline
 90
4
 70
0
 10
34.076451
 20
129.494744
 30
0.0
 10
34.956329
 20
130.002741
 30
0.0
 10
35.125660
 20
129.709450
 30
0.0
 10
32.925966
 20
128.439456
 30
0.0
  0
LWPOLYLINE
  5
10e
100
AcDbEntity
  8
0
 62
1
100
AcDbPolyline
 90
2
 70
0
 10
38.498523
 20
131.656772
 30
0.0
 10
36.152184
 20
130.302114
 30
0.0
  0
LWPOLYLINE
  5
10f
100
AcDbEntity
  8
0
 62
5
100
AcDbPolyline
 90
4
 70
0
 10
32.925992
 20
128.439417
 30
0.0
 10
28.256391
 20
128.564238
 30
0.0
 10
20.706038
 20
121.765871
 30
0.0
 10
20.342070
 20
117.108804
 30
0.0
  0
LWPOLYLINE
  5
110
100
AcDbEntity
  8
0
 62
5
100
AcDbPolyline
 90
4
 70
0
 10
29.742412
 20
124.889326
 30
0.0
 10
28.672525
 20
125.065297
 30
0.0
 10
24.142313
 20
120.986278
 30
0.0
 10
24.205487
 20
119.903857
 30
0.0
  0
LWPOLYLINE
  5
111
100
AcDbEntity
  8
0
 62
1
100
AcDbPolyline
 90
2
 70
0
 10
32.925992
 20
128.439417
 30
0.0
 10
29.402492
 20
125.266844
 30
0.0
  0
LWPOLYLINE
  5
112
100
AcDbEntity
  8
0
 62
1
100
AcDbPolyline
 90
2
 70
0
 10
20.342070
 20
117.108804
 30
0.0
 10
23.865568
 20
120.281374
 30
0.0
  0
SPLINE
  5
113
100
AcDbEntity
  8
0
 62
5
100
AcDbSpline
 70
0
 71
3
 72
10
 73
6
 74
4
 40
0.000000
 40
0.000000
 40
0.000000
 40
0.000000
 40
1.197278
 40
2.328476
 40
2.836628
 40
2.836628
 40
2.836628
 40
2.836628
 10
34.210938
 20
132.309787
 30
0.0
 10
34.122161
 20
131.918813
 30
0.0
 10
33.949505
 20
131.158443
 30
0.0
 10
33.997682
 20
130.205620
 30
0.0
 10
34.057812
 20
129.662955
 30
0.0
 10
34.076451
 20
129.494744
 30
0.0
 11
34.210938
 21
132.309787
 31
0.0
 11
34.000710
 21
131.131110
 31
0.0
 11
34.023637
 21
130.000144
 31
0.0
 11
34.076451
 21
129.494744
 31
0.0
  0
SPLINE
  5
114
100
AcDbEntity
  8
0
 62
5
100
AcDbSpline
 70
0
 71
3
 72
10
 73
6
 74
4
 40
0.000000
 40
0.000000
 40
0.000000
 40
0.000000
 40
0.383750
 40
1.264640
 40
2.310856
 40
2.310856
 40
2.310856
 40
2.310856
 10
24.922743
 20
105.987778
 30
0.0
 10
24.798540
 20
105.958001
 30
0.0
 10
24.389230
 20
105.859872
 30
0.0
 10
23.606272
 20
105.780374
 30
0.0
 10
22.988533
 20
105.980697
 30
0.0
 10
22.653166
 20
106.089451
 30
0.0
 11
24.922743
 21
105.987778
 31
0.0
 11
24.548367
 21
105.903477
 31
0.0
 11
23.669641
 21
105.841770
 31
0.0
 11
22.653166
 21
106.089451
 31
0.0
  0
SPLINE
  5
115
100
AcDbEntity
  8
0
 62
5
100
AcDbSpline
 70
0
 71
3
 72
10
 73
6
 74
4
 40
0.000000
 40
0.000000
 40
0.000000
 40
0.000000
 40
1.754129
 40
3.597988
 40
5.352116
 40
5.352116
 40
5.352116
 40
5.352116
 10
22.653166
 20
106.089451
 30
0.0
 10
22.193552
 20
106.458951
 30
0.0
 10
21.250812
 20
107.216853
 30
0.0
 10
20.486400
 20
108.933749
 30
0.0
 10
20.553986
 20
110.141476
 30
0.0
 10
20.586937
 20
110.730280
 30
0.0
 11
22.653166
 21
106.089451
 31
0.0
 11
21.376257
 21
107.292144
 31
0.0
 11
20.626292
 21
108.976593
 31
0.0
 11
20.586937
 21
110.730280
 31
0.0
  0
LWPOLYLINE
  5
116
100
AcDbEntity
  8
0
 62
5
100
AcDbPolyline
 90
4
 70
0
 10
27.229487
 20
101.639394
 30
0.0
 10
24.818886
 20
107.053692
 30
0.0
 10
24.509497
 20
106.915945
 30
0.0
 10
24.922743
 20
105.987778
 30
0.0
  0
LWPOLYLINE
  5
117
100
AcDbEntity
  8
0
 62
5
100
AcDbPolyline
 90
4
 70
0
 10
22.030022
 20
112.484937
 30
0.0
 10
22.443268
 20
111.556773
 30
0.0
 10
22.752656
 20
111.694520
 30
0.0
 10
20.342055
 20
117.108821
 30
0.0
  0
LWPOLYLINE
  5
118
100
AcDbEntity
  8
0
 62
1
100
AcDbPolyline
 90
2
 70
0
 10
24.336766
 20
108.136553
 30
0.0
 10
23.234777
 20
110.611662
 30
0.0
  0
LWPOLYLINE
  5
119
100
AcDbEntity
  8
0
 62
5
100
AcDbPolyline
 90
4
 70
0
 10
27.229450
 20
101.639377
 30
0.0
 10
26.617207
 20
97.008421
 30
0.0
 10
32.589086
 20
88.788831
 30
0.0
 10
37.182583
 20
87.940065
 30
0.0
  0
LWPOLYLINE
  5
11a
100
AcDbEntity
  8
0
 62
5
100
AcDbPolyline
 90
4
 70
0
 10
30.427306
 20
98.102165
 30
0.0
 10
30.140467
 20
97.056534
 30
0.0
 10
33.723594
 20
92.124783
 30
0.0
 10
34.806684
 20
92.074468
 30
0.0
  0
LWPOLYLINE
  5
11b
100
AcDbEntity
  8
0
 62
1
100
AcDbPolyline
 90
2
 70
0
 10
27.229450
 20
101.639377
 30
0.0
 10
30.016326
 20
97.803571
 30
0.0
  0
LWPOLYLINE
  5
11c
100
AcDbEntity
  8
0
 62
1
100
AcDbPolyline
 90
2
 70
0
 10
37.182583
 20
87.940065
 30
0.0
 10
34.395706
 20
91.775874
 30
0.0
  0
SPLINE
  5
11d
100
AcDbEntity
  8
0
 62
5
100
AcDbSpline
 70
0
 71
3
 72
10
 73
6
 74
4
 40
0.000000
 40
0.000000
 40
0.000000
 40
0.000000
 40
1.046216
 40
1.927106
 40
2.310856
 40
2.310856
 40
2.310856
 40
2.310856
 10
20.586937
 20
110.730280
 30
0.0
 10
20.730521
 20
111.052277
 30
0.0
 10
20.994999
 20
111.645389
 30
0.0
 10
21.577979
 20
112.174045
 30
0.0
 10
21.924785
 20
112.412561
 30
0.0
 10
22.030022
 20
112.484937
 30
0.0
 11
20.586937
 21
110.730280
 31
0.0
 11
21.083028
 21
111.651399
 31
0.0
 11
21.716868
 21
112.263130
 31
0.0
 11
22.030022
 21
112.484937
 31
0.0
  0
SPLINE
  5
11e
100
AcDbEntity
  8
0
 62
5
100
AcDbSpline
 70
0
 71
3
 72
10
 73
6
 74
4
 40
0.000000
 40
0.000000
 40
0.000000
 40
0.000000
 40
0.383746
 40
1.264627
 40
2.310830
 40
2.310830
 40
2.310830
 40
2.310830
 10
42.382093
 20
98.785563
 30
0.0
 10
42.487329
 20
98.713187
 30
0.0
 10
42.834131
 20
98.474674
 30
0.0
 10
43.417105
 20
97.946023
 30
0.0
 10
43.681581
 20
97.352918
 30
0.0
 10
43.825163
 20
97.030925
 30
0.0
 11
42.382093
 21
98.785563
 31
0.0
 11
42.695244
 21
98.563758
 31
0.0
 11
43.329077
 21
97.952033
 31
0.0
 11
43.825163
 21
97.030925
 31
0.0
  0
SPLINE
  5
11f
100
AcDbEntity
  8
0
 62
5
100
AcDbSpline
 70
0
 71
3
 72
10
 73
6
 74
4
 40
0.000000
 40
0.000000
 40
0.000000
 40
0.000000
 40
1.754109
 40
3.597947
 40
5.352054
 40
5.352054
 40
5.352054
 40
5.352054
 10
43.825163
 20
97.030925
 30
0.0
 10
43.858113
 20
96.442128
 30
0.0
 10
43.925699
 20
95.234414
 30
0.0
 10
43.161296
 20
93.517537
 30
0.0
 10
42.218567
 20
92.759646
 30
0.0
 10
41.758957
 20
92.390150
 30
0.0
 11
43.825163
 21
97.030925
 31
0.0
 11
43.785809
 21
95.277257
 31
0.0
 11
43.035852
 21
93.592828
 31
0.0
 11
41.758957
 21
92.390150
 31
0.0
  0
LWPOLYLINE
  5
120
100
AcDbEntity
  8
0
 62
5
100
AcDbPolyline
 90
4
 70
0
 10
44.070041
 20
103.409390
 30
0.0
 10
41.659469
 20
97.995154
 30
0.0
 10
41.968852
 20
97.857407
 30
0.0
 10
42.382093
 20
98.785563
 30
0.0
  0
LWPOLYLINE
  5
121
100
AcDbEntity
  8
0
 62
5
100
AcDbPolyline
 90
4
 70
0
 10
39.489405
 20
92.288477
 30
0.0
 10
39.902646
 20
93.216633
 30
0.0
 10
39.593263
 20
93.354380
 30
0.0
 10
37.182687
 20
87.940144
 30
0.0
  0
LWPOLYLINE
  5
122
100
AcDbEntity
  8
0
 62
1
100
AcDbPolyline
 90
2
 70
0
 10
41.177354
 20
96.912307
 30
0.0
 10
40.075378
 20
94.437227
 30
0.0
  0
LWPOLYLINE
  5
123
100
AcDbEntity
  8
0
 62
5
100
AcDbPolyline
 90
5
 70
0
 10
44.069982
 20
103.409415
 30
0.0
 10
47.403444
 20
104.432034
 30
0.0
 10
48.356399
 20
114.616474
 30
0.0
 10
46.886498
 20
116.660079
 30
0.0
 10
47.590625
 20
119.972744
 30
0.0
  0
LWPOLYLINE
  5
124
100
AcDbEntity
  8
0
 62
5
100
AcDbPolyline
 90
4
 70
0
 10
43.854734
 20
104.840102
 30
0.0
 10
44.823724
 20
105.326602
 30
0.0
 10
46.091156
 20
111.289401
 30
0.0
 10
45.403815
 20
112.127965
 30
0.0
  0
LWPOLYLINE
  5
125
100
AcDbEntity
  8
0
 62
1
100
AcDbPolyline
 90
2
 70
0
 10
44.069982
 20
103.409415
 30
0.0
 10
44.351631
 20
104.734483
 30
0.0
  0
LWPOLYLINE
  5
126
100
AcDbEntity
  8
0
 62
1
100
AcDbPolyline
 90
2
 70
0
 10
46.886498
 20
116.660079
 30
0.0
 10
45.900715
 20
112.022347
 30
0.0
  0
SPLINE
  5
127
100
AcDbEntity
  8
0
 62
5
100
AcDbSpline
 70
0
 71
3
 72
10
 73
6
 74
4
 40
0.000000
 40
0.000000
 40
0.000000
 40
0.000000
 40
1.046204
 40
1.927084
 40
2.310830
 40
2.310830
 40
2.310830
 40
2.310830
 10
41.758957
 20
92.390150
 30
0.0
 10
41.423594
 20
92.281397
 30
0.0
 10
40.805863
 20
92.081076
 30
0.0
 10
40.022914
 20
92.160573
 30
0.0
 10
39.613608
 20
92.258701
 30
0.0
 10
39.489405
 20
92.288477
 30
0.0
 11
41.758957
 21
92.390150
 31
0.0
 11
40.742494
 21
92.142472
 31
0.0
 11
39.863777
 21
92.204177
 31
0.0
 11
39.489405
 21
92.288477
 31
0.0
  0
SPLINE
  5
128
100
AcDbEntity
  8
0
 62
5
100
AcDbSpline
 70
0
 71
3
 72
10
 73
6
 74
4
 40
0.000000
 40
0.000000
 40
0.000000
 40
0.000000
 40
0.168286
 40
0.650183
 40
1.455494
 40
1.455494
 40
1.455494
 40
1.455494
 10
48.984445
 20
111.786293
 30
0.0
 10
48.939729
 20
111.752303
 30
0.0
 10
48.766965
 20
111.620982
 30
0.0
 10
48.465942
 20
111.228730
 30
0.0
 10
48.303506
 20
110.830436
 30
0.0
 10
48.201882
 20
110.581252
 30
0.0
 11
48.984445
 21
111.786293
 31
0.0
 11
48.852862
 21
111.681383
 31
0.0
 11
48.547376
 21
111.308686
 31
0.0
 11
48.201882
 21
110.581252
 31
0.0
  0
SPLINE
  5
129
100
AcDbEntity
  8
0
 62
5
100
AcDbSpline
 70
0
 71
3
 72
10
 73
6
 74
4
 40
0.000000
 40
0.000000
 40
0.000000
 40
0.000000
 40
1.568773
 40
3.234018
 40
4.770415
 40
4.770415
 40
4.770415
 40
4.770415
 10
48.201882
 20
110.581252
 30
0.0
 10
48.136409
 20
110.062346
 30
0.0
 10
48.001437
 20
108.992622
 30
0.0
 10
47.894405
 20
107.405353
 30
0.0
 10
47.849119
 20
106.339141
 30
0.0
 10
47.827387
 20
105.827490
 30
0.0
 11
48.201882
 21
110.581252
 31
0.0
 11
48.020149
 21
109.023041
 31
0.0
 11
47.898696
 21
107.362231
 31
0.0
 11
47.827387
 21
105.827490
 31
0.0
  0
LWPOLYLINE
  5
12a
100
AcDbEntity
  8
0
 62
5
100
AcDbPolyline
 90
4
 70
0
 10
47.590591
 20
119.972753
 30
0.0
 10
49.526949
 20
110.862904
 30
0.0
 10
49.195682
 20
110.792490
 30
0.0
 10
48.984445
 20
111.786293
 30
0.0
  0
LWPOLYLINE
  5
12b
100
AcDbEntity
  8
0
 62
5
100
AcDbPolyline
 90
4
 70
0
 10
50.463117
 20
104.829679
 30
0.0
 10
50.251879
 20
105.823482
 30
0.0
 10
50.583146
 20
105.893894
 30
0.0
 10
51.111243
 20
103.409390
 30
0.0
  0
LWPOLYLINE
  5
12c
100
AcDbEntity
  8
0
 62
1
100
AcDbPolyline
 90
2
 70
0
 10
49.773394
 20
109.703468
 30
0.0
 10
50.336698
 20
107.053331
 30
0.0
  0
LWPOLYLINE
  5
12d
100
AcDbEntity
  8
0
 62
5
100
AcDbPolyline
 90
4
 70
0
 10
51.111370
 20
103.409418
 30
0.0
 10
49.549685
 20
99.006972
 30
0.0
 10
53.682096
 20
89.725425
 30
0.0
 10
57.998724
 20
87.940172
 30
0.0
  0
LWPOLYLINE
  5
12e
100
AcDbEntity
  8
0
 62
5
100
AcDbPolyline
 90
4
 70
0
 10
53.503906
 20
99.284650
 30
0.0
 10
53.005939
 20
98.321513
 30
0.0
 10
55.485386
 20
92.752583
 30
0.0
 10
56.534341
 20
92.478181
 30
0.0
  0
LWPOLYLINE
  5
12f
100
AcDbEntity
  8
0
 62
1
100
AcDbPolyline
 90
2
 70
0
 10
51.111370
 20
103.409418
 30
0.0
 10
53.039828
 20
99.078030
 30
0.0
  0
LWPOLYLINE
  5
130
100
AcDbEntity
  8
0
 62
1
100
AcDbPolyline
 90
2
 70
0
 10
57.998724
 20
87.940172
 30
0.0
 10
56.070263
 20
92.271561
 30
0.0
  0
SPLINE
  5
131
100
AcDbEntity
  8
0
 62
5
100
AcDbSpline
 70
0
 71
3
 72
10
 73
6
 74
4
 40
0.000000
 40
0.000000
 40
0.000000
 40
0.000000
 40
1.197290
 40
2.328498
 40
2.836655
 40
2.836655
 40
2.836655
 40
2.836655
 10
47.827387
 20
105.827490
 30
0.0
 10
48.171795
 20
105.622237
 30
0.0
 10
48.841602
 20
105.223061
 30
0.0
 10
49.762687
 20
104.974439
 30
0.0
 10
50.297378
 20
104.863933
 30
0.0
 10
50.463117
 20
104.829679
 30
0.0
 11
47.827387
 21
105.827490
 31
0.0
 11
48.883421
 21
105.263313
 31
0.0
 11
49.966128
 21
104.935628
 31
0.0
 11
50.463117
 21
104.829679
 31
0.0
  0
SPLINE
  5
132
100
AcDbEntity
  8
0
 62
5
100
AcDbSpline
 70
0
 71
3
 72
10
 73
6
 74
4
 40
0.000000
 40
0.000000
 40
0.000000
 40
0.000000
 40
0.383748
 40
1.264633
 40
2.310841
 40
2.310841
 40
2.310841
 40
2.310841
 10
69.990843
 20
88.860041
 30
0.0
 10
69.980781
 20
88.732716
 30
0.0
 10
69.947622
 20
88.313118
 30
0.0
 10
69.781282
 20
87.543920
 30
0.0
 10
69.399875
 20
87.018322
 30
0.0
 10
69.192812
 20
86.732978
 30
0.0
 11
69.990843
 21
88.860041
 31
0.0
 11
69.955328
 21
88.477941
 31
0.0
 11
69.742473
 21
87.623159
 31
0.0
 11
69.192812
 21
86.732978
 31
0.0
  0
SPLINE
  5
133
100
AcDbEntity
  8
0
 62
5
100
AcDbSpline
 70
0
 71
3
 72
10
 73
6
 74
4
 40
0.000000
 40
0.000000
 40
0.000000
 40
0.000000
 40
1.754118
 40
3.597967
 40
5.352086
 40
5.352086
 40
5.352086
 40
5.352086
 10
69.192812
 20
86.732978
 30
0.0
 10
68.699371
 20
86.410042
 30
0.0
 10
67.687248
 20
85.747650
 30
0.0
 10
65.818176
 20
85.551202
 30
0.0
 10
64.690451
 20
85.988687
 30
0.0
 10
64.140650
 20
86.201974
 30
0.0
 11
69.192812
 21
86.732978
 31
0.0
 11
67.654406
 21
85.890221
 31
0.0
 11
65.820658
 21
85.697486
 31
0.0
 11
64.140650
 21
86.201974
 31
0.0
  0
LWPOLYLINE
  5
134
100
AcDbEntity
  8
0
 62
5
100
AcDbPolyline
 90
4
 70
0
 10
74.839198
 20
89.710157
 30
0.0
 10
68.945009
 20
89.090654
 30
0.0
 10
68.980411
 20
88.753841
 30
0.0
 10
69.990843
 20
88.860041
 30
0.0
  0
LWPOLYLINE
  5
135
100
AcDbEntity
  8
0
 62
5
100
AcDbPolyline
 90
4
 70
0
 10
62.917818
 20
88.116637
 30
0.0
 10
63.928250
 20
88.222837
 30
0.0
 10
63.892848
 20
88.559650
 30
0.0
 10
57.998659
 20
87.940144
 30
0.0
  0
LWPOLYLINE
  5
136
100
AcDbEntity
  8
0
 62
1
100
AcDbPolyline
 90
2
 70
0
 10
67.766173
 20
88.966753
 30
0.0
 10
65.071687
 20
88.683551
 30
0.0
  0
LWPOLYLINE
  5
137
100
AcDbEntity
  8
0
 62
5
100
AcDbPolyline
 90
4
 70
0
 10
74.839195
 20
89.710185
 30
0.0
 10
79.054322
 20
87.696854
 30
0.0
 10
88.717064
 20
90.836469
 30
0.0
 10
90.943766
 20
94.942879
 30
0.0
  0
LWPOLYLINE
  5
138
100
AcDbEntity
  8
0
 62
5
100
AcDbPolyline
 90
4
 70
0
 10
79.191493
 20
91.658475
 30
0.0
 10
80.097311
 20
91.062555
 30
0.0
 10
85.894957
 20
92.946326
 30
0.0
 10
86.277506
 20
93.960861
 30
0.0
  0
LWPOLYLINE
  5
139
100
AcDbEntity
  8
0
 62
1
100
AcDbPolyline
 90
2
 70
0
 10
74.839195
 20
89.710185
 30
0.0
 10
79.348474
 20
91.175339
 30
0.0
  0
LWPOLYLINE
  5
13a
100
AcDbEntity
  8
0
 62
1
100
AcDbPolyline
 90
2
 70
0
 10
90.943766
 20
94.942879
 30
0.0
 10
86.434487
 20
93.477725
 30
0.0
  0
SPLINE
  5
13b
100
AcDbEntity
  8
0
 62
5
100
AcDbSpline
 70
0
 71
3
 72
10
 73
6
 74
4
 40
0.000000
 40
0.000000
 40
0.000000
 40
0.000000
 40
1.046209
 40
1.927094
 40
2.310842
 40
2.310842
 40
2.310842
 40
2.310842
 10
64.140650
 20
86.201974
 30
0.0
 10
63.878784
 20
86.438031
 30
0.0
 10
63.396432
 20
86.872844
 30
0.0
 10
63.073803
 20
87.590651
 30
0.0
 10
62.954132
 20
87.994186
 30
0.0
 10
62.917818
 20
88.116637
 30
0.0
 11
64.140650
 21
86.201974
 31
0.0
 11
63.417918
 21
86.958421
 31
0.0
 11
63.031998
 21
87.750270
 31
0.0
 11
62.917818
 21
88.116637
 31
0.0
  0
SPLINE
  5
13c
100
AcDbEntity
  8
0
 62
5
100
AcDbSpline
 70
0
 71
3
 72
10
 73
6
 74
4
 40
0.000000
 40
0.000000
 40
0.000000
 40
0.000000
 40
0.383747
 40
1.264630
 40
2.310837
 40
2.310837
 40
2.310837
 40
2.310837
 10
82.235875
 20
103.239131
 30
0.0
 10
82.337229
 20
103.316851
 30
0.0
 10
82.671237
 20
103.572976
 30
0.0
 10
83.354165
 20
103.964056
 30
0.0
 10
83.999970
 20
104.032307
 30
0.0
 10
84.350575
 20
104.069361
 30
0.0
 11
82.235875
 21
103.239131
 31
0.0
 11
82.543594
 21
103.468414
 31
0.0
 11
83.321246
 21
103.882193
 31
0.0
 11
84.350575
 21
104.069361
 31
0.0
  0
SPLINE
  5
13d
100
AcDbEntity
  8
0
 62
5
100
AcDbSpline
 70
0
 71
3
 72
10
 73
6
 74
4
 40
0.000000
 40
0.000000
 40
0.000000
 40
0.000000
 40
1.754115
 40
3.597959
 40
5.352073
 40
5.352073
 40
5.352073
 40
5.352073
 10
84.350575
 20
104.069361
 30
0.0
 10
84.920738
 20
103.918749
 30
0.0
 10
86.090231
 20
103.609821
 30
0.0
 10
87.486869
 20
102.352283
 30
0.0
 10
87.916350
 20
101.221488
 30
0.0
 10
88.125735
 20
100.670192
 30
0.0
 11
84.350575
 21
104.069361
 31
0.0
 11
86.006256
 21
103.490016
 31
0.0
 11
87.376499
 21
102.256244
 31
0.0
 11
88.125735
 21
100.670192
 31
0.0
  0
LWPOLYLINE
  5
13e
100
AcDbEntity
  8
0
 62
5
100
AcDbPolyline
 90
4
 70
0
 10
78.359943
 20
106.273316
 30
0.0
 10
82.764297
 20
102.307620
 30
0.0
 10
82.990907
 20
102.559297
 30
0.0
 10
82.235875
 20
103.239131
 30
0.0
  0
LWPOLYLINE
  5
13f
100
AcDbEntity
  8
0
 62
5
100
AcDbPolyline
 90
4
 70
0
 10
87.521099
 20
98.480294
 30
0.0
 10
86.766067
 20
99.160128
 30
0.0
 10
86.539457
 20
98.908451
 30
0.0
 10
90.943808
 20
94.942754
 30
0.0
  0
LWPOLYLINE
  5
140
100
AcDbEntity
  8
0
 62
1
100
AcDbPolyline
 90
2
 70
0
 10
83.645166
 20
101.514480
 30
0.0
 10
85.658585
 20
99.701588
 30
0.0
  0
LWPOLYLINE
  5
141
100
AcDbEntity
  8
0
 62
5
100
AcDbPolyline
 90
5
 70
0
 10
78.359974
 20
106.273353
 30
0.0
 10
78.417505
 20
109.759678
 30
0.0
 10
69.025984
 20
113.813165
 30
0.0
 10
66.628171
 20
113.046712
 30
0.0
 10
63.695222
 20
114.740051
 30
0.0
  0
LWPOLYLINE
  5
142
100
AcDbEntity
  8
0
 62
5
100
AcDbPolyline
 90
4
 70
0
 10
76.932793
 20
106.510747
 30
0.0
 10
76.769536
 20
107.582652
 30
0.0
 10
71.490228
 20
110.630664
 30
0.0
 10
70.480301
 20
110.236094
 30
0.0
  0
LWPOLYLINE
  5
143
100
AcDbEntity
  8
0
 62
1
100
AcDbPolyline
 90
2
 70
0
 10
78.359974
 20
106.273353
 30
0.0
 10
77.186793
 20
106.950689
 30
0.0
  0
LWPOLYLINE
  5
144
100
AcDbEntity
  8
0
 62
1
100
AcDbPolyline
 90
2
 70
0
 10
66.628171
 20
113.046712
 30
0.0
 10
70.734301
 20
110.676037
 30
0.0
  0
SPLINE
  5
145
100
AcDbEntity
  8
0
 62
5
100
AcDbSpline
 70
0
 71
3
 72
10
 73
6
 74
4
 40
0.000000
 40
0.000000
 40
0.000000
 40
0.000000
 40
1.046208
 40
1.927091
 40
2.310838
 40
2.310838
 40
2.310838
 40
2.310838
 10
88.125735
 20
100.670192
 30
0.0
 10
88.125532
 20
100.317635
 30
0.0
 10
88.125160
 20
99.668232
 30
0.0
 10
87.807608
 20
98.948167
 30
0.0
 10
87.587799
 20
98.589216
 30
0.0
 10
87.521099
 20
98.480294
 30
0.0
 11
88.125735
 21
100.670192
 31
0.0
 11
88.047187
 21
99.626936
 31
0.0
 11
87.716961
 21
98.810293
 31
0.0
 11
87.521099
 21
98.480294
 31
0.0
  0
SPLINE
  5
146
100
AcDbEntity
  8
0
 62
5
100
AcDbSpline
 70
0
 71
3
 72
10
 73
6
 74
4
 40
0.000000
 40
0.000000
 40
0.000000
 40
0.000000
 40
0.168285
 40
0.650179
 40
1.455487
 40
1.455487
 40
1.455487
 40
1.455487
 10
71.911664
 20
113.535902
 30
0.0
 10
71.930172
 20
113.482871
 30
0.0
 10
72.001678
 20
113.277984
 30
0.0
 10
72.281710
 20
112.870483
 30
0.0
 10
72.610313
 20
112.592918
 30
0.0
 10
72.815896
 20
112.419267
 30
0.0
 11
71.911664
 21
113.535902
 31
0.0
 11
71.970778
 21
113.378341
 31
0.0
 11
72.230831
 21
112.972639
 31
0.0
 11
72.815896
 21
112.419267
 31
0.0
  0
SPLINE
  5
147
100
AcDbEntity
  8
0
 62
5
100
AcDbSpline
 70
0
 71
3
 72
10
 73
6
 74
4
 40
0.000000
 40
0.000000
 40
0.000000
 40
0.000000
 40
1.568764
 40
3.233999
 40
4.770385
 40
4.770385
 40
4.770385
 40
4.770385
 10
72.815896
 20
112.419267
 30
0.0
 10
73.289171
 20
112.196649
 30
0.0
 10
74.264825
 20
111.737725
 30
0.0
 10
75.741324
 20
111.145442
 30
0.0
 10
76.741350
 20
110.772897
 30
0.0
 10
77.221241
 20
110.594122
 30
0.0
 11
72.815896
 21
112.419267
 31
0.0
 11
74.241677
 21
111.764921
 31
0.0
 11
75.783661
 21
111.136198
 31
0.0
 11
77.221241
 21
110.594122
 31
0.0
  0
LWPOLYLINE
  5
148
100
AcDbEntity
  8
0
 62
5
100
AcDbPolyline
 90
4
 70
0
 10
63.695202
 20
114.740017
 30
0.0
 10
72.957498
 20
113.766511
 30
0.0
 10
72.922096
 20
113.429699
 30
0.0
 10
71.911664
 20
113.535902
 30
0.0
  0
LWPOLYLINE
  5
149
100
AcDbEntity
  8
0
 62
5
100
AcDbPolyline
 90
4
 70
0
 10
78.984689
 20
112.792494
 30
0.0
 10
77.974258
 20
112.898697
 30
0.0
 10
78.009660
 20
113.235507
 30
0.0
 10
80.535740
 20
112.970004
 30
0.0
  0
LWPOLYLINE
  5
14a
100
AcDbEntity
  8
0
 62
1
100
AcDbPolyline
 90
2
 70
0
 10
74.136335
 20
113.642610
 30
0.0
 10
76.830820
 20
113.359408
 30
0.0
  0
LWPOLYLINE
  5
14b
100
AcDbEntity
  8
0
 62
5
100
AcDbPolyline
 90
4
 70
0
 10
97.376274
 20
114.739986
 30
0.0
 10
94.344467
 20
111.186280
 30
0.0
 10
84.240147
 20
110.124275
 30
0.0
 10
80.535735
 20
112.969975
 30
0.0
  0
LWPOLYLINE
  5
14c
100
AcDbEntity
  8
0
 62
5
100
AcDbPolyline
 90
4
 70
0
 10
92.607821
 20
114.749598
 30
0.0
 10
92.022701
 20
113.836770
 30
0.0
 10
85.960108
 20
113.199566
 30
0.0
 10
85.197987
 20
113.970795
 30
0.0
  0
LWPOLYLINE
  5
14d
100
AcDbEntity
  8
0
 62
1
100
AcDbPolyline
 90
2
 70
0
 10
97.376274
 20
114.739986
 30
0.0
 10
92.660924
 20
114.244384
 30
0.0
  0
LWPOLYLINE
  5
14e
100
AcDbEntity
  8
0
 62
1
100
AcDbPolyline
 90
2
 70
0
 10
80.535735
 20
112.969975
 30
0.0
 10
85.251087
 20
113.465577
 30
0.0
  0
SPLINE
  5
14f
100
AcDbEntity
  8
0
 62
5
100
AcDbSpline
 70
0
 71
3
 72
10
 73
6
 74
4
 40
0.000000
 40
0.000000
 40
0.000000
 40
0.000000
 40
1.197282
 40
2.328483
 40
2.836636
 40
2.836636
 40
2.836636
 40
2.836636
 10
77.221241
 20
110.594122
 30
0.0
 10
77.522874
 20
110.858244
 30
0.0
 10
78.109492
 20
111.371912
 30
0.0
 10
78.630573
 20
112.171083
 30
0.0
 10
78.900897
 20
112.645453
 30
0.0
 10
78.984689
 20
112.792494
 30
0.0
 11
77.221241
 21
110.594122
 31
0.0
 11
78.084133
 21
111.424123
 31
0.0
 11
78.730350
 21
112.352573
 31
0.0
 11
78.984689
 21
112.792494
 31
0.0
  0
SPLINE
  5
150
100
AcDbEntity
  8
0
 62
5
100
AcDbSpline
 70
0
 71
3
 72
10
 73
6
 74
4
 40
0.000000
 40
0.000000
 40
0.000000
 40
0.000000
 40
0.383750
 40
1.264640
 40
2.310856
 40
2.310856
 40
2.310856
 40
2.310856
 10
108.915206
 20
118.133146
 30
0.0
 10
108.931837
 20
118.006511
 30
0.0
 10
108.986644
 20
117.589185
 30
0.0
 10
108.983865
 20
116.802206
 30
0.0
 10
108.720069
 20
116.208791
 30
0.0
 10
108.576855
 20
115.886629
 30
0.0
 11
108.915206
 21
118.133146
 31
0.0
 11
108.959912
 21
117.752009
 31
0.0
 11
108.929429
 21
116.871646
 31
0.0
 11
108.576855
 21
115.886629
 31
0.0
  0
SPLINE
  5
151
100
AcDbEntity
  8
0
 62
5
100
AcDbSpline
 70
0
 71
3
 72
10
 73
6
 74
4
 40
0.000000
 40
0.000000
 40
0.000000
 40
0.000000
 40
1.754129
 40
3.597989
 40
5.352118
 40
5.352118
 40
5.352118
 40
5.352118
 10
108.576855
 20
115.886629
 30
0.0
 10
108.161336
 20
115.468156
 30
0.0
 10
107.309043
 20
114.609803
 30
0.0
 10
105.521649
 20
114.029042
 30
0.0
 10
104.327602
 20
114.222500
 30
0.0
 10
103.745467
 20
114.316816
 30
0.0
 11
108.576855
 21
115.886629
 31
0.0
 11
107.247277
 21
114.742430
 31
0.0
 11
105.493662
 21
114.172646
 31
0.0
 11
103.745467
 21
114.316816
 31
0.0
  0
LWPOLYLINE
  5
152
100
AcDbEntity
  8
0
 62
5
100
AcDbPolyline
 90
4
 70
0
 10
113.480892
 20
119.972724
 30
0.0
 10
107.844274
 20
118.141277
 30
0.0
 10
107.948930
 20
117.819185
 30
0.0
 10
108.915206
 20
118.133146
 30
0.0
  0
LWPOLYLINE
  5
153
100
AcDbEntity
  8
0
 62
5
100
AcDbPolyline
 90
4
 70
0
 10
102.151265
 20
115.935409
 30
0.0
 10
103.117543
 20
116.249372
 30
0.0
 10
103.012889
 20
116.571464
 30
0.0
 10
97.376271
 20
114.740017
 30
0.0
  0
LWPOLYLINE
  5
154
100
AcDbEntity
  8
0
 62
1
100
AcDbPolyline
 90
2
 70
0
 10
106.716951
 20
117.774987
 30
0.0
 10
104.140212
 20
116.937755
 30
0.0
  0
LWPOLYLINE
  5
155
100
AcDbEntity
  8
0
 62
5
100
AcDbPolyline
 90
5
 70
0
 10
113.480881
 20
119.972753
 30
0.0
 10
116.471361
 20
118.179767
 30
0.0
 10
124.677545
 20
124.286319
 30
0.0
 10
125.212684
 20
126.746111
 30
0.0
 10
128.145633
 20
128.439450
 30
0.0
  0
LWPOLYLINE
  5
156
100
AcDbEntity
  8
0
 62
5
100
AcDbPolyline
 90
4
 70
0
 10
114.400062
 20
121.090031
 30
0.0
 10
115.409986
 20
120.695462
 30
0.0
 10
120.689297
 20
123.743473
 30
0.0
 10
120.852551
 20
124.815378
 30
0.0
  0
LWPOLYLINE
  5
157
100
AcDbEntity
  8
0
 62
1
100
AcDbPolyline
 90
2
 70
0
 10
113.480881
 20
119.972753
 30
0.0
 10
114.654062
 20
120.650089
 30
0.0
  0
LWPOLYLINE
  5
158
100
AcDbEntity
  8
0
 62
1
100
AcDbPolyline
 90
2
 70
0
 10
125.212684
 20
126.746111
 30
0.0
 10
121.106554
 20
124.375436
 30
0.0
  0
SPLINE
  5
159
100
AcDbEntity
  8
0
 62
5
100
AcDbSpline
 70
0
 71
3
 72
10
 73
6
 74
4
 40
0.000000
 40
0.000000
 40
0.000000
 40
0.000000
 40
1.046216
 40
1.927107
 40
2.310857
 40
2.310857
 40
2.310857
 40
2.310857
 10
103.745467
 20
114.316816
 30
0.0
 10
103.440243
 20
114.493271
 30
0.0
 10
102.878026
 20
114.818298
 30
0.0
 10
102.413203
 20
115.453344
 30
0.0
 10
102.212245
 20
115.823183
 30
0.0
 10
102.151265
 20
115.935409
 30
0.0
 11
103.745467
 21
114.316816
 31
0.0
 11
102.881250
 21
114.906473
 31
0.0
 11
102.339124
 21
115.600784
 31
0.0
 11
102.151265
 21
115.935409
 31
0.0
  0
SPLINE
  5
15a
100
AcDbEntity
  8
0
 62
5
100
AcDbSpline
 70
0
 71
3
 72
10
 73
6
 74
4
 40
0.000000
 40
0.000000
 40
0.000000
 40
0.000000
 40
0.168286
 40
0.650182
 40
1.455495
 40
1.455495
 40
1.455495
 40
1.455495
 10
122.994589
 20
121.925764
 30
0.0
 10
122.939409
 20
121.936251
 30
0.0
 10
122.726218
 20
121.976768
 30
0.0
 10
122.233293
 20
121.938003
 30
0.0
 10
121.828612
 20
121.792206
 30
0.0
 10
121.575432
 20
121.700991
 30
0.0
 11
122.994589
 21
121.925764
 31
0.0
 11
122.828580
 21
121.953351
 31
0.0
 11
122.347203
 21
121.930987
 31
0.0
 11
121.575432
 21
121.700991
 31
0.0
  0
SPLINE
  5
15b
100
AcDbEntity
  8
0
 62
5
100
AcDbSpline
 70
0
 71
3
 72
10
 73
6
 74
4
 40
0.000000
 40
0.000000
 40
0.000000
 40
0.000000
 40
1.568774
 40
3.234020
 40
4.770419
 40
4.770419
 40
4.770419
 40
4.770419
 10
121.575432
 20
121.700991
 30
0.0
 10
121.145999
 20
121.402430
 30
0.0
 10
120.260726
 20
120.786948
 30
0.0
 10
119.009535
 20
119.804397
 30
0.0
 10
118.186883
 20
119.124615
 30
0.0
 10
117.792111
 20
118.798403
 30
0.0
 11
121.575432
 21
121.700991
 31
0.0
 11
120.295853
 21
120.793397
 31
0.0
 11
118.980361
 21
119.772354
 31
0.0
 11
117.792111
 21
118.798403
 31
0.0
  0
LWPOLYLINE
  5
15c
100
AcDbEntity
  8
0
 62
5
100
AcDbPolyline
 90
4
 70
0
 10
128.145653
 20
128.439417
 30
0.0
 10
122.671386
 20
120.904735
 30
0.0
 10
122.397399
 20
121.103798
 30
0.0
 10
122.994589
 20
121.925764
 30
0.0
  0
LWPOLYLINE
  5
15d
100
AcDbEntity
  8
0
 62
5
100
AcDbPolyline
 90
4
 70
0
 10
118.814240
 20
116.172007
 30
0.0
 10
119.411434
 20
116.993970
 30
0.0
 10
119.685421
 20
116.794908
 30
0.0
 10
118.192440
 20
114.739994
 30
0.0
  0
LWPOLYLINE
  5
15e
100
AcDbEntity
  8
0
 62
1
100
AcDbPolyline
 90
2
 70
0
 10
121.974661
 20
119.945775
 30
0.0
 10
120.382146
 20
117.753868
 30
0.0
  0
LWPOLYLINE
  5
15f
100
AcDbEntity
  8
0
 62
5
100
AcDbPolyline
 90
4
 70
0
 10
118.192412
 20
114.740017
 30
0.0
 10
113.875766
 20
112.954758
 30
0.0
 10
109.743339
 20
103.673172
 30
0.0
 10
111.305032
 20
99.270708
 30
0.0
  0
LWPOLYLINE
  5
160
100
AcDbEntity
  8
0
 62
5
100
AcDbPolyline
 90
4
 70
0
 10
116.728026
 20
110.201988
 30
0.0
 10
115.679065
 20
109.927586
 30
0.0
 10
113.199607
 20
104.358633
 30
0.0
 10
113.697577
 20
103.395493
 30
0.0
  0
LWPOLYLINE
  5
161
100
AcDbEntity
  8
0
 62
1
100
AcDbPolyline
 90
2
 70
0
 10
118.192412
 20
114.740017
 30
0.0
 10
116.263945
 20
110.408611
 30
0.0
  0
LWPOLYLINE
  5
162
100
AcDbEntity
  8
0
 62
1
100
AcDbPolyline
 90
2
 70
0
 10
111.305032
 20
99.270708
 30
0.0
 10
113.233499
 20
103.602114
 30
0.0
  0
SPLINE
  5
163
100
AcDbEntity
  8
0
 62
5
100
AcDbSpline
 70
0
 71
3
 72
10
 73
6
 74
4
 40
0.000000
 40
0.000000
 40
0.000000
 40
0.000000
 40
1.197291
 40
2.328499
 40
2.836657
 40
2.836657
 40
2.836657
 40
2.836657
 10
117.792111
 20
118.798403
 30
0.0
 10
117.870032
 20
118.405118
 30
0.0
 10
118.021575
 20
117.640253
 30
0.0
 10
118.453139
 20
116.789392
 30
0.0
 10
118.728795
 20
116.318095
 30
0.0
 10
118.814240
 20
116.172007
 30
0.0
 11
117.792111
 21
118.798403
 31
0.0
 11
118.079470
 21
117.636109
 31
0.0
 11
118.560425
 21
116.612236
 31
0.0
 11
118.814240
 21
116.172007
 31
0.0
  0
SPLINE
  5
164
100
AcDbEntity
  8
0
 62
5
100
AcDbSpline
 70
0
 71
3
 72
10
 73
6
 74
4
 40
0.000000
 40
0.000000
 40
0.000000
 40
0.000000
 40
0.383750
 40
1.264640
 40
2.310855
 40
2.310855
 40
2.310855
 40
2.310855
 10
120.012948
 20
90.974304
 30
0.0
 10
119.911594
 20
90.896583
 30
0.0
 10
119.577583
 20
90.640457
 30
0.0
 10
118.894650
 20
90.249374
 30
0.0
 10
118.248839
 20
90.181122
 30
0.0
 10
117.898232
 20
90.144068
 30
0.0
 11
120.012948
 21
90.974304
 31
0.0
 11
119.705227
 21
90.745019
 31
0.0
 11
118.927569
 21
90.331237
 31
0.0
 11
117.898232
 21
90.144068
 31
0.0
  0
SPLINE
  5
165
100
AcDbEntity
  8
0
 62
5
100
AcDbSpline
 70
0
 71
3
 72
10
 73
6
 74
4
 40
0.000000
 40
0.000000
 40
0.000000
 40
0.000000
 40
1.754127
 40
3.597985
 40
5.352113
 40
5.352113
 40
5.352113
 40
5.352113
 10
117.898232
 20
90.144068
 30
0.0
 10
117.328064
 20
90.294681
 30
0.0
 10
116.158563
 20
90.603611
 30
0.0
 10
114.761914
 20
91.861159
 30
0.0
 10
114.332430
 20
92.991961
 30
0.0
 10
114.123044
 20
93.543262
 30
0.0
 11
117.898232
 21
90.144068
 31
0.0
 11
116.242539
 21
90.723416
 31
0.0
 11
114.872286
 21
91.957197
 31
0.0
 11
114.123044
 21
93.543262
 31
0.0
  0
LWPOLYLINE
  5
166
100
AcDbEntity
  8
0
 62
5
100
AcDbPolyline
 90
4
 70
0
 10
123.888909
 20
87.940096
 30
0.0
 10
119.484524
 20
91.905823
 30
0.0
 10
119.257911
 20
91.654143
 30
0.0
 10
120.012948
 20
90.974304
 30
0.0
  0
LWPOLYLINE
  5
167
100
AcDbEntity
  8
0
 62
5
100
AcDbPolyline
 90
4
 70
0
 10
114.727685
 20
95.733177
 30
0.0
 10
115.482723
 20
95.053338
 30
0.0
 10
115.709336
 20
95.305018
 30
0.0
 10
111.304951
 20
99.270742
 30
0.0
  0
LWPOLYLINE
  5
168
100
AcDbEntity
  8
0
 62
1
100
AcDbPolyline
 90
2
 70
0
 10
118.603646
 20
92.698966
 30
0.0
 10
116.590214
 20
94.511872
 30
0.0
  0
LWPOLYLINE
  5
169
100
AcDbEntity
  8
0
 62
5
100
AcDbPolyline
 90
4
 70
0
 10
123.888954
 20
87.940144
 30
0.0
 10
125.213220
 20
83.460541
 30
0.0
 10
134.011995
 20
78.380566
 30
0.0
 10
138.553579
 20
79.473519
 30
0.0
  0
LWPOLYLINE
  5
16a
100
AcDbEntity
  8
0
 62
5
100
AcDbPolyline
 90
4
 70
0
 10
128.249048
 20
86.009428
 30
0.0
 10
128.412302
 20
84.937531
 30
0.0
 10
133.691565
 20
81.889548
 30
0.0
 10
134.701483
 20
82.284111
 30
0.0
  0
LWPOLYLINE
  5
16b
100
AcDbEntity
  8
0
 62
1
100
AcDbPolyline
 90
2
 70
0
 10
123.888954
 20
87.940144
 30
0.0
 10
127.995048
 20
85.569488
 30
0.0
  0
LWPOLYLINE
  5
16c
100
AcDbEntity
  8
0
 62
1
100
AcDbPolyline
 90
2
 70
0
 10
138.553579
 20
79.473519
 30
0.0
 10
134.447483
 20
81.844175
 30
0.0
  0
SPLINE
  5
16d
100
AcDbEntity
  8
0
 62
5
100
AcDbSpline
 70
0
 71
3
 72
10
 73
6
 74
4
 40
0.000000
 40
0.000000
 40
0.000000
 40
0.000000
 40
1.046215
 40
1.927106
 40
2.310856
 40
2.310856
 40
2.310856
 40
2.310856
 10
114.123044
 20
93.543262
 30
0.0
 10
114.123246
 20
93.895822
 30
0.0
 10
114.123619
 20
94.545229
 30
0.0
 10
114.441174
 20
95.265300
 30
0.0
 10
114.660985
 20
95.624254
 30
0.0
 10
114.727685
 20
95.733177
 30
0.0
 11
114.123044
 21
93.543262
 31
0.0
 11
114.201593
 21
94.586525
 31
0.0
 11
114.531822
 21
95.403175
 31
0.0
 11
114.727685
 21
95.733177
 31
0.0
  0
SPLINE
  5
16e
100
AcDbEntity
  8
0
 62
5
100
AcDbSpline
 70
0
 71
3
 72
10
 73
6
 74
4
 40
0.000000
 40
0.000000
 40
0.000000
 40
0.000000
 40
0.383748
 40
1.264635
 40
2.310846
 40
2.310846
 40
2.310846
 40
2.310846
 10
138.892221
 20
91.496141
 30
0.0
 10
139.017797
 20
91.472826
 30
0.0
 10
139.431632
 20
91.395990
 30
0.0
 10
140.179232
 20
91.150159
 30
0.0
 10
140.662083
 20
90.715900
 30
0.0
 10
140.924221
 20
90.480144
 30
0.0
 11
138.892221
 21
91.496141
 31
0.0
 11
139.268517
 21
91.420882
 31
0.0
 11
140.096369
 21
91.119846
 31
0.0
 11
140.924221
 21
90.480144
 31
0.0
  0
SPLINE
  5
16f
100
AcDbEntity
  8
0
 62
5
100
AcDbSpline
 70
0
 71
3
 72
10
 73
6
 74
4
 40
0.000000
 40
0.000000
 40
0.000000
 40
0.000000
 40
1.754122
 40
3.597974
 40
5.352096
 40
5.352096
 40
5.352096
 40
5.352096
 10
140.924221
 20
90.480144
 30
0.0
 10
141.193809
 20
89.955649
 30
0.0
 10
141.746777
 20
88.879829
 30
0.0
 10
141.746777
 20
87.000459
 30
0.0
 10
141.193809
 20
85.924639
 30
0.0
 10
140.924221
 20
85.400144
 30
0.0
 11
140.924221
 21
90.480144
 31
0.0
 11
141.601554
 21
88.862070
 31
0.0
 11
141.601554
 21
87.018218
 31
0.0
 11
140.924221
 21
85.400144
 31
0.0
  0
LWPOLYLINE
  5
170
100
AcDbEntity
  8
0
 62
5
100
AcDbPolyline
 90
4
 70
0
 10
138.553554
 20
96.406808
 30
0.0
 10
138.553554
 20
90.480144
 30
0.0
 10
138.892221
 20
90.480144
 30
0.0
 10
138.892221
 20
91.496141
 30
0.0
  0
LWPOLYLINE
  5
171
100
AcDbEntity
  8
0
 62
5
100
AcDbPolyline
 90
4
 70
0
 10
138.892221
 20
84.384144
 30
0.0
 10
138.892221
 20
85.400144
 30
0.0
 10
138.553554
 20
85.400144
 30
0.0
 10
138.553554
 20
79.473480
 30
0.0
  0
LWPOLYLINE
  5
172
100
AcDbEntity
  8
0
 62
1
100
AcDbPolyline
 90
2
 70
0
 10
138.553554
 20
89.294810
 30
0.0
 10
138.553554
 20
86.585477
 30
0.0
  0
LWPOLYLINE
  5
173
100
AcDbEntity
  8
0
 62
5
100
AcDbPolyline
 90
5
 70
0
 10
138.553554
 20
96.406810
 30
0.0
 10
141.182863
 20
98.696835
 30
0.0
 10
137.911075
 20
108.388292
 30
0.0
 10
135.737067
 20
109.657341
 30
0.0
 10
135.032945
 20
112.969975
 30
0.0
  0
LWPOLYLINE
  5
174
100
AcDbEntity
  8
0
 62
5
100
AcDbPolyline
 90
4
 70
0
 10
137.775010
 20
97.626245
 30
0.0
 10
138.462345
 20
98.464800
 30
0.0
 10
137.194925
 20
104.427541
 30
0.0
 10
136.225943
 20
104.914038
 30
0.0
  0
LWPOLYLINE
  5
175
100
AcDbEntity
  8
0
 62
1
100
AcDbPolyline
 90
2
 70
0
 10
138.553554
 20
96.406810
 30
0.0
 10
138.271905
 20
97.731864
 30
0.0
  0
LWPOLYLINE
  5
176
100
AcDbEntity
  8
0
 62
1
100
AcDbPolyline
 90
2
 70
0
 10
135.737067
 20
109.657341
 30
0.0
 10
136.722838
 20
105.019657
 30
0.0
  0
SPLINE
  5
177
100
AcDbEntity
  8
0
 62
5
100
AcDbSpline
 70
0
 71
3
 72
10
 73
6
 74
4
 40
0.000000
 40
0.000000
 40
0.000000
 40
0.000000
 40
1.046212
 40
1.927099
 40
2.310847
 40
2.310847
 40
2.310847
 40
2.310847
 10
140.924221
 20
85.400144
 30
0.0
 10
140.662083
 20
85.164386
 30
0.0
 10
140.179232
 20
84.730126
 30
0.0
 10
139.431632
 20
84.484295
 30
0.0
 10
139.017797
 20
84.407459
 30
0.0
 10
138.892221
 20
84.384144
 30
0.0
 11
140.924221
 21
85.400144
 31
0.0
 11
140.096369
 21
84.760440
 31
0.0
 11
139.268517
 21
84.459403
 31
0.0
 11
138.892221
 21
84.384144
 31
0.0
  0
SPLINE
  5
178
100
AcDbEntity
  8
0
 62
5
100
AcDbSpline
 70
0
 71
3
 72
10
 73
6
 74
4
 40
0.000000
 40
0.000000
 40
0.000000
 40
0.000000
 40
0.168284
 40
0.650176
 40
1.455484
 40
1.455484
 40
1.455484
 40
1.455484
 10
139.635998
 20
106.058249
 30
0.0
 10
139.608972
 20
106.009011
 30
0.0
 10
139.504559
 20
105.818776
 30
0.0
 10
139.389104
 20
105.338002
 30
0.0
 10
139.402711
 20
104.908076
 30
0.0
 10
139.411225
 20
104.639103
 30
0.0
 11
139.635998
 21
106.058249
 31
0.0
 11
139.558462
 21
105.908891
 31
0.0
 11
139.430976
 21
105.444168
 31
0.0
 11
139.411225
 21
104.639103
 31
0.0
  0
SPLINE
  5
179
100
AcDbEntity
  8
0
 62
5
100
AcDbSpline
 70
0
 71
3
 72
10
 73
6
 74
4
 40
0.000000
 40
0.000000
 40
0.000000
 40
0.000000
 40
1.568762
 40
3.233994
 40
4.770379
 40
4.770379
 40
4.770379
 40
4.770379
 10
139.411225
 20
104.639103
 30
0.0
 10
139.562470
 20
104.138432
 30
0.0
 10
139.874262
 20
103.106301
 30
0.0
 10
140.422080
 20
101.612736
 30
0.0
 10
140.814374
 20
100.620291
 30
0.0
 10
141.002628
 20
100.144039
 30
0.0
 11
139.411225
 21
104.639103
 31
0.0
 11
139.878984
 21
103.141700
 31
0.0
 11
140.443540
 21
101.575088
 31
0.0
 11
141.002628
 21
100.144039
 31
0.0
  0
LWPOLYLINE
  5
17a
100
AcDbEntity
  8
0
 62
5
100
AcDbPolyline
 90
4
 70
0
 10
135.032948
 20
112.969975
 30
0.0
 10
140.507170
 20
105.435353
 30
0.0
 10
140.233186
 20
105.236291
 30
0.0
 10
139.635998
 20
106.058249
 30
0.0
  0
LWPOLYLINE
  5
17b
100
AcDbEntity
  8
0
 62
5
100
AcDbPolyline
 90
4
 70
0
 10
143.816313
 20
100.304539
 30
0.0
 10
143.219125
 20
101.126497
 30
0.0
 10
143.493109
 20
101.325560
 30
0.0
 10
144.986079
 20
99.270663
 30
0.0
  0
LWPOLYLINE
  5
17c
100
AcDbEntity
  8
0
 62
1
100
AcDbPolyline
 90
2
 70
0
 10
141.203889
 20
104.476402
 30
0.0
 10
142.796390
 20
102.284512
 30
0.0
  0
LWPOLYLINE
  5
17d
100
AcDbEntity
  8
0
 62
5
100
AcDbPolyline
 90
4
 70
0
 10
144.986189
 20
99.270742
 30
0.0
 10
145.350154
 20
94.613695
 30
0.0
 10
152.900473
 20
87.815356
 30
0.0
 10
157.570054
 20
87.940180
 30
0.0
  0
LWPOLYLINE
  5
17e
100
AcDbEntity
  8
0
 62
5
100
AcDbPolyline
 90
4
 70
0
 10
148.849588
 20
96.475701
 30
0.0
 10
148.786415
 20
95.393286
 30
0.0
 10
153.316607
 20
91.314283
 30
0.0
 10
154.386489
 20
91.490254
 30
0.0
  0
LWPOLYLINE
  5
17f
100
AcDbEntity
  8
0
 62
1
100
AcDbPolyline
 90
2
 70
0
 10
144.986189
 20
99.270742
 30
0.0
 10
148.509671
 20
96.098184
 30
0.0
  0
LWPOLYLINE
  5
180
100
AcDbEntity
  8
0
 62
1
100
AcDbPolyline
 90
2
 70
0
 10
157.570054
 20
87.940180
 30
0.0
 10
154.046572
 20
91.112736
 30
0.0
  0
SPLINE
  5
181
100
AcDbEntity
  8
0
 62
5
100
AcDbSpline
 70
0
 71
3
 72
10
 73
6
 74
4
 40
0.000000
 40
0.000000
 40
0.000000
 40
0.000000
 40
1.197281
 40
2.328481
 40
2.836634
 40
2.836634
 40
2.836634
 40
2.836634
 10
141.002628
 20
100.144039
 30
0.0
 10
141.400741
 20
100.096615
 30
0.0
 10
142.174993
 20
100.004383
 30
0.0
 10
143.117564
 20
100.151894
 30
0.0
 10
143.650971
 20
100.268420
 30
0.0
 10
143.816313
 20
100.304539
 30
0.0
 11
141.002628
 21
100.144039
 31
0.0
 11
142.196825
 21
100.058165
 31
0.0
 11
143.319201
 21
100.199185
 31
0.0
 11
143.816313
 21
100.304539
 31
0.0
  0
SPLINE
  5
182
100
AcDbEntity
  8
0
 62
5
100
AcDbSpline
 70
0
 71
3
 72
10
 73
6
 74
4
 40
0.000000
 40
0.000000
 40
0.000000
 40
0.000000
 40
0.383749
 40
1.264639
 40
2.310856
 40
2.310856
 40
2.310856
 40
2.310856
 10
168.151327
 20
93.658203
 30
0.0
 10
168.193924
 20
93.537793
 30
0.0
 10
168.334301
 20
93.140983
 30
0.0
 10
168.495206
 20
92.370623
 30
0.0
 10
168.360550
 20
91.735330
 30
0.0
 10
168.287446
 20
91.390432
 30
0.0
 11
168.151327
 21
93.658203
 31
0.0
 11
168.274300
 21
93.294691
 31
0.0
 11
168.427521
 21
92.427229
 31
0.0
 11
168.287446
 21
91.390432
 31
0.0
  0
SPLINE
  5
183
100
AcDbEntity
  8
0
 62
5
100
AcDbSpline
 70
0
 71
3
 72
10
 73
6
 74
4
 40
0.000000
 40
0.000000
 40
0.000000
 40
0.000000
 40
1.754128
 40
3.597987
 40
5.352114
 40
5.352114
 40
5.352114
 40
5.352114
 10
168.287446
 20
91.390432
 30
0.0
 10
167.968013
 20
90.894712
 30
0.0
 10
167.312807
 20
89.877914
 30
0.0
 10
165.685220
 20
88.938225
 30
0.0
 10
164.477044
 20
88.879200
 30
0.0
 10
163.888022
 20
88.850423
 30
0.0
 11
168.287446
 21
91.390432
 31
0.0
 11
167.224816
 21
89.994802
 31
0.0
 11
165.627988
 21
89.072872
 31
0.0
 11
163.888022
 21
88.850423
 31
0.0
  0
LWPOLYLINE
  5
184
100
AcDbEntity
  8
0
 62
5
100
AcDbPolyline
 90
4
 70
0
 10
172.234773
 20
96.406842
 30
0.0
 10
167.102110
 20
93.443497
 30
0.0
 10
167.271443
 20
93.150203
 30
0.0
 10
168.151327
 20
93.658203
 30
0.0
  0
LWPOLYLINE
  5
185
100
AcDbEntity
  8
0
 62
5
100
AcDbPolyline
 90
4
 70
0
 10
161.992132
 20
90.102192
 30
0.0
 10
162.872019
 20
90.610192
 30
0.0
 10
162.702683
 20
90.903488
 30
0.0
 10
157.570020
 20
87.940144
 30
0.0
  0
LWPOLYLINE
  5
186
100
AcDbEntity
  8
0
 62
1
100
AcDbPolyline
 90
2
 70
0
 10
166.075577
 20
92.850827
 30
0.0
 10
163.729216
 20
91.496158
 30
0.0
  0
LWPOLYLINE
  5
187
100
AcDbEntity
  8
0
 62
5
100
AcDbPolyline
 90
4
 70
0
 10
172.234792
 20
96.406808
 30
0.0
 10
176.904512
 20
96.281984
 30
0.0
 10
184.455054
 20
103.080522
 30
0.0
 10
184.819030
 20
107.737708
 30
0.0
  0
LWPOLYLINE
  5
188
100
AcDbEntity
  8
0
 62
5
100
AcDbPolyline
 90
4
 70
0
 10
175.418454
 20
99.956988
 30
0.0
 10
176.488367
 20
99.781011
 30
0.0
 10
181.018694
 20
103.860136
 30
0.0
 10
180.955518
 20
104.942582
 30
0.0
  0
LWPOLYLINE
  5
189
100
AcDbEntity
  8
0
 62
1
100
AcDbPolyline
 90
2
 70
0
 10
172.234792
 20
96.406808
 30
0.0
 10
175.758379
 20
99.579460
 30
0.0
  0
LWPOLYLINE
  5
18a
100
AcDbEntity
  8
0
 62
1
100
AcDbPolyline
 90
2
 70
0
 10
184.819030
 20
107.737708
 30
0.0
 10
181.295444
 20
104.565056
 30
0.0
  0
SPLINE
  5
18b
100
AcDbEntity
  8
0
 62
5
100
AcDbSpline
 70
0
 71
3
 72
10
 73
6
 74
4
 40
0.000000
 40
0.000000
 40
0.000000
 40
0.000000
 40
1.046216
 40
1.927107
 40
2.310857
 40
2.310857
 40
2.310857
 40
2.310857
 10
163.888022
 20
88.850423
 30
0.0
 10
163.552780
 20
88.959563
 30
0.0
 10
162.935272
 20
89.160595
 30
0.0
 10
162.348573
 20
89.685122
 30
0.0
 10
162.075113
 20
90.005097
 30
0.0
 10
161.992132
 20
90.102192
 30
0.0
 11
163.888022
 21
88.850423
 31
0.0
 11
162.920093
 21
89.247513
 31
0.0
 11
162.245458
 21
89.813938
 31
0.0
 11
161.992132
 21
90.102192
 31
0.0
  0
SPLINE
  5
18c
100
AcDbEntity
  8
0
 62
5
100
AcDbSpline
 70
0
 71
3
 72
10
 73
6
 74
4
 40
0.000000
 40
0.000000
 40
0.000000
 40
0.000000
 40
0.383760
 40
1.264673
 40
2.310914
 40
2.310914
 40
2.310914
 40
2.310914
 10
173.489389
 20
111.774826
 30
0.0
 10
173.550370
 20
111.887055
 30
0.0
 10
173.751333
 20
112.256903
 30
0.0
 10
174.216168
 20
112.891965
 30
0.0
 10
174.778399
 20
113.216999
 30
0.0
 10
175.083631
 20
113.393458
 30
0.0
 11
173.489389
 21
111.774826
 31
0.0
 11
173.677252
 21
112.109459
 31
0.0
 11
174.219392
 21
112.803787
 31
0.0
 11
175.083631
 21
113.393458
 31
0.0
  0
SPLINE
  5
18d
100
AcDbEntity
  8
0
 62
5
100
AcDbSpline
 70
0
 71
3
 72
10
 73
6
 74
4
 40
0.000000
 40
0.000000
 40
0.000000
 40
0.000000
 40
1.754174
 40
3.598080
 40
5.352253
 40
5.352253
 40
5.352253
 40
5.352253
 10
175.083631
 20
113.393458
 30
0.0
 10
175.665780
 20
113.487777
 30
0.0
 10
176.859857
 20
113.681240
 30
0.0
 10
178.647297
 20
113.100466
 30
0.0
 10
179.499611
 20
112.242090
 30
0.0
 10
179.915140
 20
111.823606
 30
0.0
 11
175.083631
 21
113.393458
 31
0.0
 11
176.831870
 21
113.537633
 31
0.0
 11
178.585529
 21
112.967834
 31
0.0
 11
179.915140
 21
111.823606
 31
0.0
  0
LWPOLYLINE
  5
18e
100
AcDbEntity
  8
0
 62
5
100
AcDbPolyline
 90
4
 70
0
 10
168.714273
 20
112.970249
 30
0.0
 10
174.351033
 20
111.138754
 30
0.0
 10
174.455692
 20
111.460854
 30
0.0
 10
173.489389
 20
111.774826
 30
0.0
  0
LWPOLYLINE
  5
18f
100
AcDbEntity
  8
0
 62
5
100
AcDbPolyline
 90
4
 70
0
 10
180.253502
 20
109.577032
 30
0.0
 10
179.287201
 20
109.891002
 30
0.0
 10
179.182545
 20
109.568901
 30
0.0
 10
184.819304
 20
107.737406
 30
0.0
  0
LWPOLYLINE
  5
190
100
AcDbEntity
  8
0
 62
1
100
AcDbPolyline
 90
2
 70
0
 10
175.478386
 20
110.772455
 30
0.0
 10
178.055191
 20
109.935200
 30
0.0
  0
LWPOLYLINE
  5
191
100
AcDbEntity
  8
0
 62
5
100
AcDbPolyline
 90
5
 70
0
 10
168.714186
 20
112.969975
 30
0.0
 10
167.348721
 20
116.178306
 30
0.0
 10
157.120395
 20
116.061474
 30
0.0
 10
155.241622
 20
114.386000
 30
0.0
 10
151.873481
 20
114.740006
 30
0.0
  0
LWPOLYLINE
  5
192
100
AcDbEntity
  8
0
 62
5
100
AcDbPolyline
 90
4
 70
0
 10
167.313827
 20
112.606358
 30
0.0
 10
166.728702
 20
113.519194
 30
0.0
 10
160.666046
 20
114.156404
 30
0.0
 10
159.903919
 20
113.385170
 30
0.0
  0
LWPOLYLINE
  5
193
100
AcDbEntity
  8
0
 62
1
100
AcDbPolyline
 90
2
 70
0
 10
168.714186
 20
112.969975
 30
0.0
 10
167.366927
 20
113.111578
 30
0.0
  0
LWPOLYLINE
  5
194
100
AcDbEntity
  8
0
 62
1
100
AcDbPolyline
 90
2
 70
0
 10
155.241622
 20
114.386000
 30
0.0
 10
159.957019
 20
113.890392
 30
0.0
  0
SPLINE
  5
195
100
AcDbEntity
  8
0
 62
5
100
AcDbSpline
 70
0
 71
3
 72
10
 73
6
 74
4
 40
0.000000
 40
0.000000
 40
0.000000
 40
0.000000
 40
1.046243
 40
1.927156
 40
2.310915
 40
2.310915
 40
2.310915
 40
2.310915
 10
179.915140
 20
111.823606
 30
0.0
 10
180.058358
 20
111.501436
 30
0.0
 10
180.322164
 20
110.908006
 30
0.0
 10
180.324942
 20
110.121007
 30
0.0
 10
180.270133
 20
109.703671
 30
0.0
 10
180.253502
 20
109.577032
 30
0.0
 11
179.915140
 21
111.823606
 31
0.0
 11
180.267726
 21
110.838564
 31
0.0
 11
180.298209
 21
109.958179
 31
0.0
 11
180.253502
 21
109.577032
 31
0.0
  0
SPLINE
  5
196
100
AcDbEntity
  8
0
 62
5
100
AcDbSpline
 70
0
 71
3
 72
10
 73
6
 74
4
 40
0.000000
 40
0.000000
 40
0.000000
 40
0.000000
 40
0.168285
 40
0.650182
 40
1.455496
 40
1.455496
 40
1.455496
 40
1.455496
 10
159.869398
 20
116.981951
 30
0.0
 10
159.907875
 20
116.941033
 30
0.0
 10
160.056536
 20
116.782943
 30
0.0
 10
160.478106
 20
116.524571
 30
0.0
 10
160.891198
 20
116.404658
 30
0.0
 10
161.149640
 20
116.329636
 30
0.0
 11
159.869398
 21
116.981951
 31
0.0
 11
159.987487
 21
116.862055
 31
0.0
 11
160.390074
 21
116.597201
 31
0.0
 11
161.149640
 21
116.329636
 31
0.0
  0
SPLINE
  5
197
100
AcDbEntity
  8
0
 62
5
100
AcDbSpline
 70
0
 71
3
 72
10
 73
6
 74
4
 40
0.000000
 40
0.000000
 40
0.000000
 40
0.000000
 40
1.568772
 40
3.234017
 40
4.770412
 40
4.770412
 40
4.770412
 40
4.770412
 10
161.149640
 20
116.329636
 30
0.0
 10
161.672547
 20
116.318763
 30
0.0
 10
162.750518
 20
116.296349
 30
0.0
 10
164.340280
 20
116.355819
 30
0.0
 10
165.405383
 20
116.422230
 30
0.0
 10
165.916503
 20
116.454099
 30
0.0
 11
161.149640
 21
116.329636
 31
0.0
 11
162.718310
 21
116.311779
 31
0.0
 11
164.382717
 21
116.364594
 31
0.0
 11
165.916503
 21
116.454099
 31
0.0
  0
LWPOLYLINE
  5
198
100
AcDbEntity
  8
0
 62
5
100
AcDbPolyline
 90
4
 70
0
 10
151.873481
 20
114.740017
 30
0.0
 10
160.731022
 20
117.618006
 30
0.0
 10
160.835676
 20
117.295914
 30
0.0
 10
159.869398
 20
116.981951
 30
0.0
  0
LWPOLYLINE
  5
199
100
AcDbEntity
  8
0
 62
5
100
AcDbPolyline
 90
4
 70
0
 10
166.633339
 20
119.179688
 30
0.0
 10
165.667063
 20
118.865728
 30
0.0
 10
165.562410
 20
119.187819
 30
0.0
 10
167.978102
 20
119.972724
 30
0.0
  0
LWPOLYLINE
  5
19a
100
AcDbEntity
  8
0
 62
1
100
AcDbPolyline
 90
2
 70
0
 10
161.858345
 20
117.984297
 30
0.0
 10
164.435084
 20
118.821529
 30
0.0
  0
LWPOLYLINE
  5
19b
100
AcDbEntity
  8
0
 62
5
100
AcDbPolyline
 90
4
 70
0
 10
167.978094
 20
119.972753
 30
0.0
 10
172.519715
 20
118.879791
 30
0.0
 10
181.318566
 20
123.959808
 30
0.0
 10
182.642846
 20
128.439450
 30
0.0
  0
LWPOLYLINE
  5
19c
100
AcDbEntity
  8
0
 62
5
100
AcDbPolyline
 90
4
 70
0
 10
171.830224
 20
122.783370
 30
0.0
 10
172.840148
 20
122.388801
 30
0.0
 10
178.119459
 20
125.436812
 30
0.0
 10
178.282713
 20
126.508717
 30
0.0
  0
LWPOLYLINE
  5
19d
100
AcDbEntity
  8
0
 62
1
100
AcDbPolyline
 90
2
 70
0
 10
167.978094
 20
119.972753
 30
0.0
 10
172.084224
 20
122.343428
 30
0.0
  0
LWPOLYLINE
  5
19e
100
AcDbEntity
  8
0
 62
1
100
AcDbPolyline
 90
2
 70
0
 10
182.642846
 20
128.439450
 30
0.0
 10
178.536716
 20
126.068775
 30
0.0
  0
SPLINE
  5
19f
100
AcDbEntity
  8
0
 62
5
100
AcDbSpline
 70
0
 71
3
 72
10
 73
6
 74
4
 40
0.000000
 40
0.000000
 40
0.000000
 40
0.000000
 40
1.197290
 40
2.328497
 40
2.836654
 40
2.836654
 40
2.836654
 40
2.836654
 10
165.916503
 20
116.454099
 30
0.0
 10
166.084631
 20
116.818075
 30
0.0
 10
166.411607
 20
117.525937
 30
0.0
 10
166.562587
 20
118.467964
 30
0.0
 10
166.616597
 20
119.011277
 30
0.0
 10
166.633339
 20
119.179688
 30
0.0
 11
165.916503
 21
116.454099
 31
0.0
 11
166.367204
 21
117.563320
 31
0.0
 11
166.579920
 21
118.674348
 31
0.0
 11
166.633339
 21
119.179688
 31
0.0
  0
SPLINE
  5
1a0
100
AcDbEntity
  8
0
 62
5
100
AcDbSpline
 70
0
 71
3
 72
10
 73
6
 74
4
 40
0.000000
 40
0.000000
 40
0.000000
 40
0.000000
 40
0.383750
 40
1.264639
 40
2.310855
 40
2.310855
 40
2.310855
 40
2.310855
 10
180.474468
 20
140.269816
 30
0.0
 10
180.602148
 20
140.273119
 30
0.0
 10
181.022916
 20
140.284004
 30
0.0
 10
181.805293
 20
140.198979
 30
0.0
 10
182.367882
 20
139.874599
 30
0.0
 10
182.673309
 20
139.698494
 30
0.0
 11
180.474468
 21
140.269816
 31
0.0
 11
180.858189
 21
140.274438
 31
0.0
 11
181.730543
 21
140.152100
 31
0.0
 11
182.673309
 21
139.698494
 31
0.0
  0
SPLINE
  5
1a1
100
AcDbEntity
  8
0
 62
5
100
AcDbSpline
 70
0
 71
3
 72
10
 73
6
 74
4
 40
0.000000
 40
0.000000
 40
0.000000
 40
0.000000
 40
1.754129
 40
3.597989
 40
5.352118
 40
5.352118
 40
5.352118
 40
5.352118
 10
182.673309
 20
139.698494
 30
0.0
 10
183.046057
 20
139.241510
 30
0.0
 10
183.810620
 20
138.304164
 30
0.0
 10
184.201364
 20
136.465854
 30
0.0
 10
183.884155
 20
135.298570
 30
0.0
 10
183.729506
 20
134.729484
 30
0.0
 11
182.673309
 21
139.698494
 31
0.0
 11
183.672262
 21
138.256599
 31
0.0
 11
184.055622
 21
136.453032
 31
0.0
 11
183.729506
 21
134.729484
 31
0.0
  0
LWPOLYLINE
  5
1a2
100
AcDbEntity
  8
0
 62
5
100
AcDbPolyline
 90
4
 70
0
 10
179.122211
 20
145.002779
 30
0.0
 10
180.354438
 20
139.205602
 30
0.0
 10
180.685705
 20
139.276016
 30
0.0
 10
180.474468
 20
140.269816
 30
0.0
  0
LWPOLYLINE
  5
1a3
100
AcDbEntity
  8
0
 62
5
100
AcDbPolyline
 90
4
 70
0
 10
181.953140
 20
133.313205
 30
0.0
 10
181.741902
 20
134.307006
 30
0.0
 10
181.410635
 20
134.236594
 30
0.0
 10
182.642863
 20
128.439417
 30
0.0
  0
LWPOLYLINE
  5
1a4
100
AcDbEntity
  8
0
 62
1
100
AcDbPolyline
 90
2
 70
0
 10
180.600883
 20
138.046168
 30
0.0
 10
181.164188
 20
135.396028
 30
0.0
  0
LWPOLYLINE
  5
1a5
100
AcDbEntity
  8
0
 62
5
100
AcDbPolyline
 90
4
 70
0
 10
179.122087
 20
145.002754
 30
0.0
 10
180.683778
 20
149.405212
 30
0.0
 10
176.551356
 20
158.686786
 30
0.0
 10
172.234716
 20
160.472042
 30
0.0
  0
LWPOLYLINE
  5
1a6
100
AcDbEntity
  8
0
 62
5
100
AcDbPolyline
 90
4
 70
0
 10
176.729545
 20
149.127533
 30
0.0
 10
177.227515
 20
150.090673
 30
0.0
 10
174.748060
 20
155.659617
 30
0.0
 10
173.699102
 20
155.934022
 30
0.0
  0
LWPOLYLINE
  5
1a7
100
AcDbEntity
  8
0
 62
1
100
AcDbPolyline
 90
2
 70
0
 10
179.122087
 20
145.002754
 30
0.0
 10
177.193623
 20
149.334154
 30
0.0
  0
LWPOLYLINE
  5
1a8
100
AcDbEntity
  8
0
 62
1
100
AcDbPolyline
 90
2
 70
0
 10
172.234716
 20
160.472042
 30
0.0
 10
174.163180
 20
156.140642
 30
0.0
  0
SPLINE
  5
1a9
100
AcDbEntity
  8
0
 62
5
100
AcDbSpline
 70
0
 71
3
 72
10
 73
6
 74
4
 40
0.000000
 40
0.000000
 40
0.000000
 40
0.000000
 40
1.046216
 40
1.927107
 40
2.310856
 40
2.310856
 40
2.310856
 40
2.310856
 10
183.729506
 20
134.729484
 30
0.0
 10
183.522112
 20
134.444376
 30
0.0
 10
183.140098
 20
133.919214
 30
0.0
 10
182.459943
 20
133.523318
 30
0.0
 10
182.071125
 20
133.362120
 30
0.0
 10
181.953140
 20
133.313205
 30
0.0
 11
183.729506
 21
134.729484
 31
0.0
 11
183.052743
 21
133.931637
 31
0.0
 11
182.305567
 21
133.465057
 31
0.0
 11
181.953140
 21
133.313205
 31
0.0
  0
SPLINE
  5
1aa
100
AcDbEntity
  8
0
 62
5
100
AcDbSpline
 70
0
 71
3
 72
10
 73
6
 74
4
 40
0.000000
 40
0.000000
 40
0.000000
 40
0.000000
 40
0.383748
 40
1.264634
 40
2.310847
 40
2.310847
 40
2.310847
 40
2.310847
 10
164.894065
 20
150.944607
 30
0.0
 10
164.806176
 20
151.037281
 30
0.0
 10
164.516540
 20
151.342688
 30
0.0
 10
164.056214
 20
151.980998
 30
0.0
 10
163.920830
 20
152.616134
 30
0.0
 10
163.847331
 20
152.960946
 30
0.0
 11
164.894065
 21
150.944607
 31
0.0
 11
164.633871
 21
151.226674
 31
0.0
 11
164.141070
 21
151.956816
 31
0.0
 11
163.847331
 21
152.960946
 31
0.0
  0
SPLINE
  5
1ab
100
AcDbEntity
  8
0
 62
5
100
AcDbSpline
 70
0
 71
3
 72
10
 73
6
 74
4
 40
0.000000
 40
0.000000
 40
0.000000
 40
0.000000
 40
1.754120
 40
3.597971
 40
5.352092
 40
5.352092
 40
5.352092
 40
5.352092
 10
163.847331
 20
152.960946
 30
0.0
 10
163.937519
 20
153.543731
 30
0.0
 10
164.122509
 20
154.739113
 30
0.0
 10
165.227176
 20
156.259554
 30
0.0
 10
166.306887
 20
156.804883
 30
0.0
 10
166.833279
 20
157.070748
 30
0.0
 11
163.847331
 21
152.960946
 31
0.0
 11
164.250436
 21
154.668120
 31
0.0
 11
165.334225
 21
156.159826
 31
0.0
 11
166.833279
 21
157.070748
 31
0.0
  0
LWPOLYLINE
  5
1ac
100
AcDbEntity
  8
0
 62
5
100
AcDbPolyline
 90
4
 70
0
 10
162.281636
 20
146.772733
 30
0.0
 10
165.765240
 20
151.567502
 30
0.0
 10
165.491253
 20
151.766568
 30
0.0
 10
164.894065
 20
150.944607
 30
0.0
  0
LWPOLYLINE
  5
1ad
100
AcDbEntity
  8
0
 62
5
100
AcDbPolyline
 90
4
 70
0
 10
169.074389
 20
156.698330
 30
0.0
 10
168.477201
 20
155.876370
 30
0.0
 10
168.751188
 20
155.677307
 30
0.0
 10
172.234792
 20
160.472079
 30
0.0
  0
LWPOLYLINE
  5
1ae
100
AcDbEntity
  8
0
 62
1
100
AcDbPolyline
 90
2
 70
0
 10
166.461962
 20
152.526457
 30
0.0
 10
168.054466
 20
154.718352
 30
0.0
  0
LWPOLYLINE
  5
1af
100
AcDbEntity
  8
0
 62
5
100
AcDbPolyline
 90
5
 70
0
 10
162.281551
 20
146.772792
 30
0.0
 10
158.808318
 20
146.465588
 30
0.0
 10
155.758727
 20
136.701836
 30
0.0
 10
156.771619
 20
134.397283
 30
0.0
 10
155.394135
 20
131.303405
 30
0.0
  0
LWPOLYLINE
  5
1b0
100
AcDbEntity
  8
0
 62
5
100
AcDbPolyline
 90
4
 70
0
 10
162.194638
 20
145.328619
 30
0.0
 10
161.145672
 20
145.054214
 30
0.0
 10
158.666203
 20
139.485236
 30
0.0
 10
159.164175
 20
138.522088
 30
0.0
  0
LWPOLYLINE
  5
1b1
100
AcDbEntity
  8
0
 62
1
100
AcDbPolyline
 90
2
 70
0
 10
162.281551
 20
146.772792
 30
0.0
 10
161.730557
 20
145.535242
 30
0.0
  0
LWPOLYLINE
  5
1b2
100
AcDbEntity
  8
0
 62
1
100
AcDbPolyline
 90
2
 70
0
 10
156.771619
 20
134.397283
 30
0.0
 10
158.700095
 20
138.728711
 30
0.0
  0
SPLINE
  5
1b3
100
AcDbEntity
  8
0
 62
5
100
AcDbSpline
 70
0
 71
3
 72
10
 73
6
 74
4
 40
0.000000
 40
0.000000
 40
0.000000
 40
0.000000
 40
1.046211
 40
1.927097
 40
2.310845
 40
2.310845
 40
2.310845
 40
2.310845
 10
166.833279
 20
157.070748
 30
0.0
 10
167.183927
 20
157.107400
 30
0.0
 10
167.829813
 20
157.174911
 30
0.0
 10
168.579129
 20
156.934364
 30
0.0
 10
168.959091
 20
156.753280
 30
0.0
 10
169.074389
 20
156.698330
 30
0.0
 11
166.833279
 21
157.070748
 31
0.0
 11
167.879032
 21
157.101681
 31
0.0
 11
168.725723
 21
156.858626
 31
0.0
 11
169.074389
 21
156.698330
 31
0.0
  0
SPLINE
  5
1b4
100
AcDbEntity
  8
0
 62
5
100
AcDbSpline
 70
0
 71
3
 72
10
 73
6
 74
4
 40
0.000000
 40
0.000000
 40
0.000000
 40
0.000000
 40
0.168285
 40
0.650179
 40
1.455488
 40
1.455488
 40
1.455488
 40
1.455488
 10
155.732926
 20
139.600682
 30
0.0
 10
155.783731
 20
139.624631
 30
0.0
 10
155.980021
 20
139.717163
 30
0.0
 10
156.356019
 20
140.038256
 30
0.0
 10
156.597715
 20
140.394073
 30
0.0
 10
156.748926
 20
140.616682
 30
0.0
 11
155.732926
 21
139.600682
 31
0.0
 11
155.883444
 21
139.675941
 31
0.0
 11
156.259741
 21
139.976978
 31
0.0
 11
156.748926
 21
140.616682
 31
0.0
  0
SPLINE
  5
1b5
100
AcDbEntity
  8
0
 62
5
100
AcDbSpline
 70
0
 71
3
 72
10
 73
6
 74
4
 40
0.000000
 40
0.000000
 40
0.000000
 40
0.000000
 40
1.568766
 40
3.234005
 40
4.770394
 40
4.770394
 40
4.770394
 40
4.770394
 10
156.748926
 20
140.616682
 30
0.0
 10
156.920854
 20
141.110634
 30
0.0
 10
157.275282
 20
142.128916
 30
0.0
 10
157.709985
 20
143.659240
 30
0.0
 10
157.975958
 20
144.692732
 30
0.0
 10
158.103593
 20
145.188682
 30
0.0
 11
156.748926
 21
140.616682
 31
0.0
 11
157.250654
 21
142.103052
 31
0.0
 11
157.714753
 21
143.702311
 31
0.0
 11
158.103593
 21
145.188682
 31
0.0
  0
LWPOLYLINE
  5
1b6
100
AcDbEntity
  8
0
 62
5
100
AcDbPolyline
 90
4
 70
0
 10
155.394259
 20
131.303351
 30
0.0
 10
155.394259
 20
140.616682
 30
0.0
 10
155.732926
 20
140.616682
 30
0.0
 10
155.732926
 20
139.600682
 30
0.0
  0
LWPOLYLINE
  5
1b7
100
AcDbEntity
  8
0
 62
5
100
AcDbPolyline
 90
4
 70
0
 10
155.732926
 20
146.712682
 30
0.0
 10
155.732926
 20
145.696682
 30
0.0
 10
155.394259
 20
145.696682
 30
0.0
 10
155.394259
 20
148.236679
 30
0.0
  0
LWPOLYLINE
  5
1b8
100
AcDbEntity
  8
0
 62
1
100
AcDbPolyline
 90
2
 70
0
 10
155.394259
 20
141.802015
 30
0.0
 10
155.394259
 20
144.511348
 30
0.0
  0
LWPOLYLINE
  5
1b9
100
AcDbEntity
  8
0
 62
5
100
AcDbPolyline
 90
4
 70
0
 10
155.394259
 20
148.236679
 30
0.0
 10
157.837164
 20
152.218267
 30
0.0
 10
155.724775
 20
162.156266
 30
0.0
 10
151.873616
 20
164.800008
 30
0.0
  0
LWPOLYLINE
  5
1ba
100
AcDbEntity
  8
0
 62
5
100
AcDbPolyline
 90
4
 70
0
 10
153.911579
 20
152.768792
 30
0.0
 10
154.598920
 20
153.607356
 30
0.0
 10
153.331489
 20
159.570156
 30
0.0
 10
152.362495
 20
160.056656
 30
0.0
  0
LWPOLYLINE
  5
1bb
100
AcDbEntity
  8
0
 62
1
100
AcDbPolyline
 90
2
 70
0
 10
155.394259
 20
148.236679
 30
0.0
 10
154.408480
 20
152.874411
 30
0.0
  0
LWPOLYLINE
  5
1bc
100
AcDbEntity
  8
0
 62
1
100
AcDbPolyline
 90
2
 70
0
 10
151.873616
 20
164.800008
 30
0.0
 10
152.859396
 20
160.162275
 30
0.0
  0
SPLINE
  5
1bd
100
AcDbEntity
  8
0
 62
5
100
AcDbSpline
 70
0
 71
3
 72
10
 73
6
 74
4
 40
0.000000
 40
0.000000
 40
0.000000
 40
0.000000
 40
1.197285
 40
2.328489
 40
2.836644
 40
2.836644
 40
2.836644
 40
2.836644
 10
158.103593
 20
145.188682
 30
0.0
 10
157.809387
 20
145.461054
 30
0.0
 10
157.237213
 20
145.990767
 30
0.0
 10
156.387950
 20
146.425459
 30
0.0
 10
155.887921
 20
146.644718
 30
0.0
 10
155.732926
 20
146.712682
 30
0.0
 11
158.103593
 21
145.188682
 31
0.0
 11
157.187938
 21
145.960089
 31
0.0
 11
156.197025
 21
146.505719
 31
0.0
 11
155.732926
 21
146.712682
 31
0.0
  0
SPLINE
  5
1be
100
AcDbEntity
  8
0
 62
5
100
AcDbSpline
 70
0
 71
3
 72
10
 73
6
 74
4
 40
0.000000
 40
0.000000
 40
0.000000
 40
0.000000
 40
0.383748
 40
1.264633
 40
2.310842
 40
2.310842
 40
2.310842
 40
2.310842
 10
139.952101
 20
166.393499
 30
0.0
 10
139.988415
 20
166.515950
 30
0.0
 10
140.108087
 20
166.919486
 30
0.0
 10
140.430716
 20
167.637292
 30
0.0
 10
140.913067
 20
168.072105
 30
0.0
 10
141.174933
 20
168.308162
 30
0.0
 11
139.952101
 21
166.393499
 31
0.0
 11
140.066281
 21
166.759867
 31
0.0
 11
140.452202
 21
167.551715
 31
0.0
 11
141.174933
 21
168.308162
 31
0.0
  0
SPLINE
  5
1bf
100
AcDbEntity
  8
0
 62
5
100
AcDbSpline
 70
0
 71
3
 72
10
 73
6
 74
4
 40
0.000000
 40
0.000000
 40
0.000000
 40
0.000000
 40
1.754119
 40
3.597968
 40
5.352086
 40
5.352086
 40
5.352086
 40
5.352086
 10
141.174933
 20
168.308162
 30
0.0
 10
141.724733
 20
168.521449
 30
0.0
 10
142.852459
 20
168.958934
 30
0.0
 10
144.721530
 20
168.762486
 30
0.0
 10
145.733654
 20
168.100095
 30
0.0
 10
146.227094
 20
167.777159
 30
0.0
 11
141.174933
 21
168.308162
 31
0.0
 11
142.854941
 21
168.812650
 31
0.0
 11
144.688689
 21
168.619915
 31
0.0
 11
146.227094
 21
167.777159
 31
0.0
  0
LWPOLYLINE
  5
1c0
100
AcDbEntity
  8
0
 62
5
100
AcDbPolyline
 90
4
 70
0
 10
135.032945
 20
166.569992
 30
0.0
 10
140.927133
 20
165.950489
 30
0.0
 10
140.962532
 20
166.287299
 30
0.0
 10
139.952101
 20
166.393499
 30
0.0
  0
LWPOLYLINE
  5
1c1
100
AcDbEntity
  8
0
 62
5
100
AcDbPolyline
 90
4
 70
0
 10
147.025126
 20
165.650095
 30
0.0
 10
146.014694
 20
165.756295
 30
0.0
 10
145.979292
 20
165.419485
 30
0.0
 10
151.873481
 20
164.799979
 30
0.0
  0
LWPOLYLINE
  5
1c2
100
AcDbEntity
  8
0
 62
1
100
AcDbPolyline
 90
2
 70
0
 10
142.105970
 20
165.826588
 30
0.0
 10
144.800455
 20
165.543387
 30
0.0
  0
LWPOLYLINE
  5
1c3
100
AcDbEntity
  8
0
 62
5
100
AcDbPolyline
 90
4
 70
0
 10
135.032948
 20
166.570007
 30
0.0
 10
131.328538
 20
169.415707
 30
0.0
 10
121.224218
 20
168.353699
 30
0.0
 10
118.192412
 20
164.799993
 30
0.0
  0
LWPOLYLINE
  5
1c4
100
AcDbEntity
  8
0
 62
5
100
AcDbPolyline
 90
4
 70
0
 10
130.370699
 20
165.569187
 30
0.0
 10
129.608577
 20
166.340413
 30
0.0
 10
123.545984
 20
165.703209
 30
0.0
 10
122.960861
 20
164.790381
 30
0.0
  0
LWPOLYLINE
  5
1c5
100
AcDbEntity
  8
0
 62
1
100
AcDbPolyline
 90
2
 70
0
 10
135.032948
 20
166.570007
 30
0.0
 10
130.317598
 20
166.074405
 30
0.0
  0
LWPOLYLINE
  5
1c6
100
AcDbEntity
  8
0
 62
1
100
AcDbPolyline
 90
2
 70
0
 10
118.192412
 20
164.799993
 30
0.0
 10
122.907761
 20
165.295598
 30
0.0
  0
SPLINE
  5
1c7
100
AcDbEntity
  8
0
 62
5
100
AcDbSpline
 70
0
 71
3
 72
10
 73
6
 74
4
 40
0.000000
 40
0.000000
 40
0.000000
 40
0.000000
 40
1.046209
 40
1.927094
 40
2.310842
 40
2.310842
 40
2.310842
 40
2.310842
 10
146.227094
 20
167.777159
 30
0.0
 10
146.434159
 20
167.491815
 30
0.0
 10
146.815567
 20
166.966217
 30
0.0
 10
146.981907
 20
166.197018
 30
0.0
 10
147.015064
 20
165.777420
 30
0.0
 10
147.025126
 20
165.650095
 30
0.0
 11
146.227094
 21
167.777159
 31
0.0
 11
146.776758
 21
166.886977
 31
0.0
 11
146.989612
 21
166.032195
 31
0.0
 11
147.025126
 21
165.650095
 31
0.0
  0
SPLINE
  5
1c8
100
AcDbEntity
  8
0
 62
5
100
AcDbSpline
 70
0
 71
3
 72
10
 73
6
 74
4
 40
0.000000
 40
0.000000
 40
0.000000
 40
0.000000
 40
0.383750
 40
1.264641
 40
2.310857
 40
2.310857
 40
2.310857
 40
2.310857
 10
124.985196
 20
154.874345
 30
0.0
 10
124.869897
 20
154.819396
 30
0.0
 10
124.489934
 20
154.638310
 30
0.0
 10
123.740613
 20
154.397762
 30
0.0
 10
123.094724
 20
154.465273
 30
0.0
 10
122.744075
 20
154.501925
 30
0.0
 11
124.985196
 21
154.874345
 31
0.0
 11
124.636528
 21
154.714049
 31
0.0
 11
123.789833
 21
154.470993
 31
0.0
 11
122.744075
 21
154.501925
 31
0.0
  0
SPLINE
  5
1c9
100
AcDbEntity
  8
0
 62
5
100
AcDbSpline
 70
0
 71
3
 72
10
 73
6
 74
4
 40
0.000000
 40
0.000000
 40
0.000000
 40
0.000000
 40
1.754128
 40
3.597986
 40
5.352115
 40
5.352115
 40
5.352115
 40
5.352115
 10
122.744075
 20
154.501925
 30
0.0
 10
122.217681
 20
154.767791
 30
0.0
 10
121.137966
 20
155.313123
 30
0.0
 10
120.033296
 20
156.833571
 30
0.0
 10
119.848305
 20
158.028959
 30
0.0
 10
119.758116
 20
158.611746
 30
0.0
 11
122.744075
 21
154.501925
 31
0.0
 11
121.245016
 21
155.412851
 31
0.0
 11
120.161223
 21
156.904564
 31
0.0
 11
119.758116
 21
158.611746
 31
0.0
  0
LWPOLYLINE
  5
1ca
100
AcDbEntity
  8
0
 62
5
100
AcDbPolyline
 90
4
 70
0
 10
128.145611
 20
151.100582
 30
0.0
 10
124.661992
 20
155.895372
 30
0.0
 10
124.388002
 20
155.696309
 30
0.0
 10
124.985196
 20
154.874345
 30
0.0
  0
LWPOLYLINE
  5
1cb
100
AcDbEntity
  8
0
 62
5
100
AcDbPolyline
 90
4
 70
0
 10
120.804853
 20
160.628091
 30
0.0
 10
121.402043
 20
159.806128
 30
0.0
 10
121.676033
 20
160.005193
 30
0.0
 10
118.192415
 20
164.799982
 30
0.0
  0
LWPOLYLINE
  5
1cc
100
AcDbEntity
  8
0
 62
1
100
AcDbPolyline
 90
2
 70
0
 10
123.965267
 20
156.854332
 30
0.0
 10
122.372755
 20
159.046236
 30
0.0
  0
LWPOLYLINE
  5
1cd
100
AcDbEntity
  8
0
 62
5
100
AcDbPolyline
 90
5
 70
0
 10
128.145653
 20
151.100616
 30
0.0
 10
127.364538
 20
147.702463
 30
0.0
 10
135.707998
 20
141.784994
 30
0.0
 10
138.212745
 20
142.036164
 30
0.0
 10
140.729518
 20
139.770052
 30
0.0
  0
LWPOLYLINE
  5
1ce
100
AcDbEntity
  8
0
 62
5
100
AcDbPolyline
 90
4
 70
0
 10
129.492279
 20
150.571687
 30
0.0
 10
129.429106
 20
149.489271
 30
0.0
 10
133.959298
 20
145.410268
 30
0.0
 10
135.029180
 20
145.586237
 30
0.0
  0
LWPOLYLINE
  5
1cf
100
AcDbEntity
  8
0
 62
1
100
AcDbPolyline
 90
2
 70
0
 10
128.145653
 20
151.100616
 30
0.0
 10
129.152362
 20
150.194169
 30
0.0
  0
LWPOLYLINE
  5
1d0
100
AcDbEntity
  8
0
 62
1
100
AcDbPolyline
 90
2
 70
0
 10
138.212745
 20
142.036164
 30
0.0
 10
134.689263
 20
145.208722
 30
0.0
  0
SPLINE
  5
1d1
100
AcDbEntity
  8
0
 62
5
100
AcDbSpline
 70
0
 71
3
 72
10
 73
6
 74
4
 40
0.000000
 40
0.000000
 40
0.000000
 40
0.000000
 40
1.046214
 40
1.927103
 40
2.310853
 40
2.310853
 40
2.310853
 40
2.310853
 10
119.758116
 20
158.611746
 30
0.0
 10
119.831615
 20
158.956559
 30
0.0
 10
119.967000
 20
159.591697
 30
0.0
 10
120.427326
 20
160.230008
 30
0.0
 10
120.716963
 20
160.535417
 30
0.0
 10
120.804853
 20
160.628091
 30
0.0
 11
119.758116
 21
158.611746
 31
0.0
 11
120.051855
 21
159.615878
 31
0.0
 11
120.544658
 21
160.346023
 31
0.0
 11
120.804853
 21
160.628091
 31
0.0
  0
SPLINE
  5
1d2
100
AcDbEntity
  8
0
 62
5
100
AcDbSpline
 70
0
 71
3
 72
10
 73
6
 74
4
 40
0.000000
 40
0.000000
 40
0.000000
 40
0.000000
 40
0.168285
 40
0.650181
 40
1.455494
 40
1.455494
 40
1.455494
 40
1.455494
 10
132.942878
 20
142.656135
 30
0.0
 10
132.935800
 20
142.711855
 30
0.0
 10
132.908455
 20
142.927133
 30
0.0
 10
132.719265
 20
143.383952
 30
0.0
 10
132.455550
 20
143.723773
 30
0.0
 10
132.290563
 20
143.936374
 30
0.0
 11
132.942878
 21
142.656135
 31
0.0
 11
132.917815
 21
142.822544
 31
0.0
 11
132.747793
 21
143.273450
 31
0.0
 11
132.290563
 21
143.936374
 31
0.0
  0
SPLINE
  5
1d3
100
AcDbEntity
  8
0
 62
5
100
AcDbSpline
 70
0
 71
3
 72
10
 73
6
 74
4
 40
0.000000
 40
0.000000
 40
0.000000
 40
0.000000
 40
1.568773
 40
3.234018
 40
4.770414
 40
4.770414
 40
4.770414
 40
4.770414
 10
132.290563
 20
143.936374
 30
0.0
 10
131.873913
 20
144.252528
 30
0.0
 10
131.014991
 20
144.904279
 30
0.0
 10
129.693892
 20
145.790607
 30
0.0
 10
128.793169
 20
146.362931
 30
0.0
 10
128.360932
 20
146.637577
 30
0.0
 11
132.290563
 21
143.936374
 31
0.0
 11
131.031978
 21
144.872865
 31
0.0
 11
129.654401
 21
145.808451
 31
0.0
 11
128.360932
 21
146.637577
 31
0.0
  0
LWPOLYLINE
  5
1d4
100
AcDbEntity
  8
0
 62
5
100
AcDbPolyline
 90
4
 70
0
 10
140.729487
 20
139.770015
 30
0.0
 10
131.871946
 20
142.648004
 30
0.0
 10
131.976599
 20
142.970096
 30
0.0
 10
132.942878
 20
142.656135
 30
0.0
  0
LWPOLYLINE
  5
1d5
100
AcDbEntity
  8
0
 62
5
100
AcDbPolyline
 90
4
 70
0
 10
126.178937
 20
144.853873
 30
0.0
 10
127.145215
 20
144.539909
 30
0.0
 10
127.040558
 20
144.217817
 30
0.0
 10
124.624866
 20
145.002723
 30
0.0
  0
LWPOLYLINE
  5
1d6
100
AcDbEntity
  8
0
 62
1
100
AcDbPolyline
 90
2
 70
0
 10
130.744623
 20
143.014295
 30
0.0
 10
128.167884
 20
143.851527
 30
0.0
  0
LWPOLYLINE
  5
1d7
100
AcDbEntity
  8
0
 62
5
100
AcDbPolyline
 90
4
 70
0
 10
124.624877
 20
145.002754
 30
0.0
 10
121.593071
 20
148.556459
 30
0.0
 10
111.488751
 20
149.618464
 30
0.0
 10
107.784338
 20
146.772767
 30
0.0
  0
LWPOLYLINE
  5
1d8
100
AcDbEntity
  8
0
 62
5
100
AcDbPolyline
 90
4
 70
0
 10
119.856425
 20
144.993141
 30
0.0
 10
119.271305
 20
145.905969
 30
0.0
 10
113.208712
 20
146.543173
 30
0.0
 10
112.446590
 20
145.771945
 30
0.0
  0
LWPOLYLINE
  5
1d9
100
AcDbEntity
  8
0
 62
1
100
AcDbPolyline
 90
2
 70
0
 10
124.624877
 20
145.002754
 30
0.0
 10
119.909528
 20
145.498356
 30
0.0
  0
LWPOLYLINE
  5
1da
100
AcDbEntity
  8
0
 62
1
100
AcDbPolyline
 90
2
 70
0
 10
107.784338
 20
146.772767
 30
0.0
 10
112.499690
 20
146.277162
 30
0.0
  0
SPLINE
  5
1db
100
AcDbEntity
  8
0
 62
5
100
AcDbSpline
 70
0
 71
3
 72
10
 73
6
 74
4
 40
0.000000
 40
0.000000
 40
0.000000
 40
0.000000
 40
1.197291
 40
2.328499
 40
2.836656
 40
2.836656
 40
2.836656
 40
2.836656
 10
128.360932
 20
146.637577
 30
0.0
 10
128.010974
 20
146.441937
 30
0.0
 10
127.330373
 20
146.061456
 30
0.0
 10
126.654517
 20
145.388084
 30
0.0
 10
126.291471
 20
144.980280
 30
0.0
 10
126.178937
 20
144.853873
 30
0.0
 11
128.360932
 21
146.637577
 31
0.0
 11
127.344322
 21
146.005113
 31
0.0
 11
126.519186
 21
145.231304
 31
0.0
 11
126.178937
 21
144.853873
 31
0.0
  0
SPLINE
  5
1dc
100
AcDbEntity
  8
0
 62
5
100
AcDbSpline
 70
0
 71
3
 72
10
 73
6
 74
4
 40
0.000000
 40
0.000000
 40
0.000000
 40
0.000000
 40
0.168286
 40
0.650181
 40
1.455491
 40
1.455491
 40
1.455491
 40
1.455491
 10
103.962372
 20
139.021152
 30
0.0
 10
103.925700
 20
139.063696
 30
0.0
 10
103.784015
 20
139.228066
 30
0.0
 10
103.571124
 20
139.674332
 30
0.0
 10
103.495047
 20
140.097694
 30
0.0
 10
103.447452
 20
140.362560
 30
0.0
 11
103.962372
 21
139.021152
 31
0.0
 11
103.855477
 21
139.151127
 31
0.0
 11
103.634154
 21
139.579192
 31
0.0
 11
103.447452
 21
140.362560
 31
0.0
  0
SPLINE
  5
1dd
100
AcDbEntity
  8
0
 62
5
100
AcDbSpline
 70
0
 71
3
 72
10
 73
6
 74
4
 40
0.000000
 40
0.000000
 40
0.000000
 40
0.000000
 40
1.568769
 40
3.234010
 40
4.770402
 40
4.770402
 40
4.770402
 40
4.770402
 10
103.447452
 20
140.362560
 30
0.0
 10
103.491297
 20
140.883739
 30
0.0
 10
103.581685
 20
141.958146
 30
0.0
 10
103.807003
 20
143.532978
 30
0.0
 10
103.984383
 20
144.585303
 30
0.0
 10
104.069504
 20
145.090291
 30
0.0
 11
103.447452
 21
140.362560
 31
0.0
 11
103.593663
 21
141.924501
 31
0.0
 11
103.820165
 21
143.574266
 31
0.0
 11
104.069504
 21
145.090291
 31
0.0
  0
LWPOLYLINE
  5
1de
100
AcDbEntity
  8
0
 62
5
100
AcDbPolyline
 90
4
 70
0
 10
100.896925
 20
131.303405
 30
0.0
 10
104.685002
 20
139.811569
 30
0.0
 10
104.375616
 20
139.949316
 30
0.0
 10
103.962372
 20
139.021152
 30
0.0
  0
LWPOLYLINE
  5
1df
100
AcDbEntity
  8
0
 62
5
100
AcDbPolyline
 90
4
 70
0
 10
106.855085
 20
145.518297
 30
0.0
 10
106.441841
 20
144.590134
 30
0.0
 10
106.751227
 20
144.452384
 30
0.0
 10
107.784341
 20
146.772792
 30
0.0
  0
LWPOLYLINE
  5
1e0
100
AcDbEntity
  8
0
 62
1
100
AcDbPolyline
 90
2
 70
0
 10
105.167122
 20
140.894425
 30
0.0
 10
106.269110
 20
143.369528
 30
0.0
  0
LWPOLYLINE
  5
1e1
100
AcDbEntity
  8
0
 62
5
100
AcDbPolyline
 90
5
 70
0
 10
100.897049
 20
148.236679
 30
0.0
 10
103.945049
 20
146.543348
 30
0.0
 10
102.759716
 20
136.383351
 30
0.0
 10
100.897049
 20
134.690018
 30
0.0
 10
100.897049
 20
131.303351
 30
0.0
  0
LWPOLYLINE
  5
1e2
100
AcDbEntity
  8
0
 62
5
100
AcDbPolyline
 90
4
 70
0
 10
100.389049
 20
146.882015
 30
0.0
 10
101.235716
 20
146.204682
 30
0.0
 10
101.235716
 20
140.108682
 30
0.0
 10
100.389049
 20
139.431348
 30
0.0
  0
LWPOLYLINE
  5
1e3
100
AcDbEntity
  8
0
 62
1
100
AcDbPolyline
 90
2
 70
0
 10
100.897049
 20
148.236679
 30
0.0
 10
100.897049
 20
146.882015
 30
0.0
  0
LWPOLYLINE
  5
1e4
100
AcDbEntity
  8
0
 62
1
100
AcDbPolyline
 90
2
 70
0
 10
100.897049
 20
134.690018
 30
0.0
 10
100.897049
 20
139.431348
 30
0.0
  0
SPLINE
  5
1e5
100
AcDbEntity
  8
0
 62
5
100
AcDbSpline
 70
0
 71
3
 72
10
 73
6
 74
4
 40
0.000000
 40
0.000000
 40
0.000000
 40
0.000000
 40
1.197286
 40
2.328491
 40
2.836647
 40
2.836647
 40
2.836647
 40
2.836647
 10
104.069504
 20
145.090291
 30
0.0
 10
104.449059
 20
145.219451
 30
0.0
 10
105.187220
 20
145.470644
 30
0.0
 10
106.139866
 20
145.522328
 30
0.0
 10
106.685846
 20
145.519251
 30
0.0
 10
106.855085
 20
145.518297
 30
0.0
 11
104.069504
 21
145.090291
 31
0.0
 11
105.219756
 21
145.422576
 31
0.0
 11
106.346930
 21
145.517993
 31
0.0
 11
106.855085
 21
145.518297
 31
0.0
  0
SPLINE
  5
1e6
100
AcDbEntity
  8
0
 62
5
100
AcDbSpline
 70
0
 71
3
 72
10
 73
6
 74
4
 40
0.000000
 40
0.000000
 40
0.000000
 40
0.000000
 40
0.383749
 40
1.264639
 40
2.310856
 40
2.310856
 40
2.310856
 40
2.310856
 10
90.315742
 20
142.518620
 30
0.0
 10
90.273146
 20
142.639030
 30
0.0
 10
90.132769
 20
143.035840
 30
0.0
 10
89.971864
 20
143.806199
 30
0.0
 10
90.106520
 20
144.441493
 30
0.0
 10
90.179624
 20
144.786391
 30
0.0
 11
90.315742
 21
142.518620
 31
0.0
 11
90.192770
 21
142.882132
 31
0.0
 11
90.039548
 21
143.749594
 31
0.0
 11
90.179624
 21
144.786391
 31
0.0
  0
SPLINE
  5
1e7
100
AcDbEntity
  8
0
 62
5
100
AcDbSpline
 70
0
 71
3
 72
10
 73
6
 74
4
 40
0.000000
 40
0.000000
 40
0.000000
 40
0.000000
 40
1.754128
 40
3.597987
 40
5.352114
 40
5.352114
 40
5.352114
 40
5.352114
 10
90.179624
 20
144.786391
 30
0.0
 10
90.499057
 20
145.282111
 30
0.0
 10
91.154262
 20
146.298908
 30
0.0
 10
92.781850
 20
147.238597
 30
0.0
 10
93.990025
 20
147.297623
 30
0.0
 10
94.579048
 20
147.326399
 30
0.0
 11
90.179624
 21
144.786391
 31
0.0
 11
91.242254
 21
146.182021
 31
0.0
 11
92.839082
 21
147.103950
 31
0.0
 11
94.579048
 21
147.326399
 31
0.0
  0
LWPOLYLINE
  5
1e8
100
AcDbEntity
  8
0
 62
5
100
AcDbPolyline
 90
4
 70
0
 10
86.232297
 20
139.769981
 30
0.0
 10
91.364960
 20
142.733326
 30
0.0
 10
91.195627
 20
143.026620
 30
0.0
 10
90.315742
 20
142.518620
 30
0.0
  0
LWPOLYLINE
  5
1e9
100
AcDbEntity
  8
0
 62
5
100
AcDbPolyline
 90
4
 70
0
 10
96.474938
 20
146.074631
 30
0.0
 10
95.595051
 20
145.566631
 30
0.0
 10
95.764387
 20
145.273334
 30
0.0
 10
100.897049
 20
148.236679
 30
0.0
  0
LWPOLYLINE
  5
1ea
100
AcDbEntity
  8
0
 62
1
100
AcDbPolyline
 90
2
 70
0
 10
92.391492
 20
143.325995
 30
0.0
 10
94.737854
 20
144.680665
 30
0.0
  0
LWPOLYLINE
  5
1eb
100
AcDbEntity
  8
0
 62
5
100
AcDbPolyline
 90
5
 70
0
 10
86.232278
 20
139.770015
 30
0.0
 10
82.934389
 20
140.902056
 30
0.0
 10
76.177211
 20
133.222846
 30
0.0
 10
76.165188
 20
130.705565
 30
0.0
 10
73.648415
 20
128.439453
 30
0.0
  0
LWPOLYLINE
  5
1ec
100
AcDbEntity
  8
0
 62
5
100
AcDbPolyline
 90
4
 70
0
 10
85.565485
 20
138.486056
 30
0.0
 10
84.495603
 20
138.662028
 30
0.0
 10
79.965412
 20
134.583025
 30
0.0
 10
80.028584
 20
133.500606
 30
0.0
  0
LWPOLYLINE
  5
1ed
100
AcDbEntity
  8
0
 62
1
100
AcDbPolyline
 90
2
 70
0
 10
86.232278
 20
139.770015
 30
0.0
 10
85.225568
 20
138.863571
 30
0.0
  0
LWPOLYLINE
  5
1ee
100
AcDbEntity
  8
0
 62
1
100
AcDbPolyline
 90
2
 70
0
 10
76.165185
 20
130.705565
 30
0.0
 10
79.688667
 20
133.878124
 30
0.0
  0
SPLINE
  5
1ef
100
AcDbEntity
  8
0
 62
5
100
AcDbSpline
 70
0
 71
3
 72
10
 73
6
 74
4
 40
0.000000
 40
0.000000
 40
0.000000
 40
0.000000
 40
1.046216
 40
1.927107
 40
2.310857
 40
2.310857
 40
2.310857
 40
2.310857
 10
94.579048
 20
147.326399
 30
0.0
 10
94.914290
 20
147.217260
 30
0.0
 10
95.531798
 20
147.016228
 30
0.0
 10
96.118497
 20
146.491701
 30
0.0
 10
96.391957
 20
146.171726
 30
0.0
 10
96.474938
 20
146.074631
 30
0.0
 11
94.579048
 21
147.326399
 31
0.0
 11
95.546977
 21
146.929309
 31
0.0
 11
96.221612
 21
146.362885
 31
0.0
 11
96.474938
 21
146.074631
 31
0.0
  0
SPLINE
  5
1f0
100
AcDbEntity
  8
0
 62
5
100
AcDbSpline
 70
0
 71
3
 72
10
 73
6
 74
4
 40
0.000000
 40
0.000000
 40
0.000000
 40
0.000000
 40
0.168285
 40
0.650179
 40
1.455491
 40
1.455491
 40
1.455491
 40
1.455491
 10
77.332665
 20
135.881667
 30
0.0
 10
77.388819
 20
135.882882
 30
0.0
 10
77.605775
 20
135.887575
 30
0.0
 10
78.079867
 20
136.027978
 30
0.0
 10
78.445391
 20
136.254727
 30
0.0
 10
78.674073
 20
136.396587
 30
0.0
 11
77.332665
 21
135.881667
 31
0.0
 11
77.500781
 21
135.889199
 31
0.0
 11
77.966988
 21
136.011157
 31
0.0
 11
78.674073
 21
136.396587
 31
0.0
  0
SPLINE
  5
1f1
100
AcDbEntity
  8
0
 62
5
100
AcDbSpline
 70
0
 71
3
 72
10
 73
6
 74
4
 40
0.000000
 40
0.000000
 40
0.000000
 40
0.000000
 40
1.568767
 40
3.234007
 40
4.770398
 40
4.770398
 40
4.770398
 40
4.770398
 10
78.674073
 20
136.396587
 30
0.0
 10
79.032046
 20
136.777906
 30
0.0
 10
79.770005
 20
137.563994
 30
0.0
 10
80.789566
 20
138.785206
 30
0.0
 10
81.452904
 20
139.621168
 30
0.0
 10
81.771225
 20
140.022327
 30
0.0
 11
78.674073
 21
136.396587
 31
0.0
 11
79.736987
 21
137.550383
 31
0.0
 11
80.811440
 21
138.822614
 31
0.0
 11
81.771225
 21
140.022327
 31
0.0
  0
LWPOLYLINE
  5
1f2
100
AcDbEntity
  8
0
 62
5
100
AcDbPolyline
 90
4
 70
0
 10
73.648443
 20
128.439417
 30
0.0
 10
77.436520
 20
136.947581
 30
0.0
 10
77.745909
 20
136.809831
 30
0.0
 10
77.332665
 20
135.881667
 30
0.0
  0
LWPOLYLINE
  5
1f3
100
AcDbEntity
  8
0
 62
5
100
AcDbPolyline
 90
4
 70
0
 10
80.225378
 20
142.378812
 30
0.0
 10
79.812134
 20
141.450648
 30
0.0
 10
79.502745
 20
141.588395
 30
0.0
 10
80.535859
 20
143.908804
 30
0.0
  0
LWPOLYLINE
  5
1f4
100
AcDbEntity
  8
0
 62
1
100
AcDbPolyline
 90
2
 70
0
 10
77.918640
 20
138.030437
 30
0.0
 10
79.020628
 20
140.505540
 30
0.0
  0
LWPOLYLINE
  5
1f5
100
AcDbEntity
  8
0
 62
5
100
AcDbPolyline
 90
4
 70
0
 10
80.535738
 20
143.908860
 30
0.0
 10
84.386872
 20
146.552585
 30
0.0
 10
86.499246
 20
156.490513
 30
0.0
 10
84.056358
 20
160.472076
 30
0.0
  0
LWPOLYLINE
  5
1f6
100
AcDbEntity
  8
0
 62
5
100
AcDbPolyline
 90
4
 70
0
 10
81.024614
 20
148.652178
 30
0.0
 10
81.993602
 20
149.138678
 30
0.0
 10
83.261022
 20
155.101435
 30
0.0
 10
82.573687
 20
155.939994
 30
0.0
  0
LWPOLYLINE
  5
1f7
100
AcDbEntity
  8
0
 62
1
100
AcDbPolyline
 90
2
 70
0
 10
80.535738
 20
143.908860
 30
0.0
 10
81.521512
 20
148.546562
 30
0.0
  0
LWPOLYLINE
  5
1f8
100
AcDbEntity
  8
0
 62
1
100
AcDbPolyline
 90
2
 70
0
 10
84.056358
 20
160.472076
 30
0.0
 10
83.070584
 20
155.834375
 30
0.0
  0
SPLINE
  5
1f9
100
AcDbEntity
  8
0
 62
5
100
AcDbSpline
 70
0
 71
3
 72
10
 73
6
 74
4
 40
0.000000
 40
0.000000
 40
0.000000
 40
0.000000
 40
1.197287
 40
2.328493
 40
2.836649
 40
2.836649
 40
2.836649
 40
2.836649
 10
81.771225
 20
140.022327
 30
0.0
 10
81.613238
 20
140.390817
 30
0.0
 10
81.305984
 20
141.107459
 30
0.0
 10
80.706949
 20
141.849997
 30
0.0
 10
80.339329
 20
142.253682
 30
0.0
 10
80.225378
 20
142.378812
 30
0.0
 11
81.771225
 21
140.022327
 31
0.0
 11
81.248492
 21
141.099475
 31
0.0
 11
80.565174
 21
142.000975
 31
0.0
 11
80.225378
 21
142.378812
 31
0.0
  0
SPLINE
  5
1fa
100
AcDbEntity
  8
0
 62
5
100
AcDbSpline
 70
0
 71
3
 72
10
 73
6
 74
4
 40
0.000000
 40
0.000000
 40
0.000000
 40
0.000000
 40
0.383747
 40
1.264630
 40
2.310836
 40
2.310836
 40
2.310836
 40
2.310836
 10
73.813794
 20
166.776672
 30
0.0
 10
73.896774
 20
166.873766
 30
0.0
 10
74.170232
 20
167.193738
 30
0.0
 10
74.756926
 20
167.718260
 30
0.0
 10
75.374428
 20
167.919291
 30
0.0
 10
75.709667
 20
168.028429
 30
0.0
 11
73.813794
 21
166.776672
 31
0.0
 11
74.067118
 21
167.064923
 31
0.0
 11
74.741747
 21
167.631342
 31
0.0
 11
75.709667
 21
168.028429
 31
0.0
  0
SPLINE
  5
1fb
100
AcDbEntity
  8
0
 62
5
100
AcDbSpline
 70
0
 71
3
 72
10
 73
6
 74
4
 40
0.000000
 40
0.000000
 40
0.000000
 40
0.000000
 40
1.754114
 40
3.597957
 40
5.352071
 40
5.352071
 40
5.352071
 40
5.352071
 10
75.709667
 20
168.028429
 30
0.0
 10
76.298685
 20
167.999653
 30
0.0
 10
77.506850
 20
167.940628
 30
0.0
 10
79.134425
 20
167.000947
 30
0.0
 10
79.789625
 20
165.984157
 30
0.0
 10
80.109054
 20
165.488441
 30
0.0
 11
75.709667
 21
168.028429
 31
0.0
 11
77.449619
 21
167.805982
 31
0.0
 11
79.046434
 21
166.884060
 31
0.0
 11
80.109054
 21
165.488441
 31
0.0
  0
LWPOLYLINE
  5
1fc
100
AcDbEntity
  8
0
 62
5
100
AcDbPolyline
 90
4
 70
0
 10
69.391722
 20
168.938701
 30
0.0
 10
74.524339
 20
165.975381
 30
0.0
 10
74.693673
 20
166.268675
 30
0.0
 10
73.813794
 20
166.776672
 30
0.0
  0
LWPOLYLINE
  5
1fd
100
AcDbEntity
  8
0
 62
5
100
AcDbPolyline
 90
4
 70
0
 10
79.972939
 20
163.220689
 30
0.0
 10
79.093060
 20
163.728686
 30
0.0
 10
78.923727
 20
163.435395
 30
0.0
 10
84.056347
 20
160.472076
 30
0.0
  0
LWPOLYLINE
  5
1fe
100
AcDbEntity
  8
0
 62
1
100
AcDbPolyline
 90
2
 70
0
 10
75.550863
 20
165.382717
 30
0.0
 10
77.897203
 20
164.028059
 30
0.0
  0
LWPOLYLINE
  5
1ff
100
AcDbEntity
  8
0
 62
5
100
AcDbPolyline
 90
4
 70
0
 10
69.391744
 20
168.938740
 30
0.0
 10
67.165037
 20
173.045155
 30
0.0
 10
57.502273
 20
176.184779
 30
0.0
 10
53.287137
 20
174.171445
 30
0.0
  0
LWPOLYLINE
  5
200
100
AcDbEntity
  8
0
 62
5
100
AcDbPolyline
 90
4
 70
0
 10
64.725474
 20
169.920758
 30
0.0
 10
64.342924
 20
170.935299
 30
0.0
 10
58.545267
 20
172.819070
 30
0.0
 10
57.639447
 20
172.223149
 30
0.0
  0
LWPOLYLINE
  5
201
100
AcDbEntity
  8
0
 62
1
100
AcDbPolyline
 90
2
 70
0
 10
69.391744
 20
168.938740
 30
0.0
 10
64.882454
 20
170.403897
 30
0.0
  0
LWPOLYLINE
  5
202
100
AcDbEntity
  8
0
 62
1
100
AcDbPolyline
 90
2
 70
0
 10
53.287137
 20
174.171445
 30
0.0
 10
57.796427
 20
172.706285
 30
0.0
  0
SPLINE
  5
203
100
AcDbEntity
  8
0
 62
5
100
AcDbSpline
 70
0
 71
3
 72
10
 73
6
 74
4
 40
0.000000
 40
0.000000
 40
0.000000
 40
0.000000
 40
1.046206
 40
1.927089
 40
2.310835
 40
2.310835
 40
2.310835
 40
2.310835
 10
80.109054
 20
165.488441
 30
0.0
 10
80.182157
 20
165.143546
 30
0.0
 10
80.316811
 20
164.508258
 30
0.0
 10
80.155909
 20
163.737906
 30
0.0
 10
80.015535
 20
163.341099
 30
0.0
 10
79.972939
 20
163.220689
 30
0.0
 11
80.109054
 21
165.488441
 31
0.0
 11
80.249128
 21
164.451654
 31
0.0
 11
80.095909
 21
163.584199
 31
0.0
 11
79.972939
 21
163.220689
 31
0.0
  0
SPLINE
  5
204
100
AcDbEntity
  8
0
 62
5
100
AcDbSpline
 70
0
 71
3
 72
10
 73
6
 74
4
 40
0.000000
 40
0.000000
 40
0.000000
 40
0.000000
 40
0.383748
 40
1.264634
 40
2.310847
 40
2.310847
 40
2.310847
 40
2.310847
 10
55.455518
 20
162.341076
 30
0.0
 10
55.327838
 20
162.337773
 30
0.0
 10
54.907072
 20
162.326888
 30
0.0
 10
54.124698
 20
162.411913
 30
0.0
 10
53.562111
 20
162.736294
 30
0.0
 10
53.256685
 20
162.912398
 30
0.0
 11
55.455518
 21
162.341076
 31
0.0
 11
55.071798
 21
162.336454
 31
0.0
 11
54.199448
 21
162.458793
 31
0.0
 11
53.256685
 21
162.912398
 31
0.0
  0
SPLINE
  5
205
100
AcDbEntity
  8
0
 62
5
100
AcDbSpline
 70
0
 71
3
 72
10
 73
6
 74
4
 40
0.000000
 40
0.000000
 40
0.000000
 40
0.000000
 40
1.754121
 40
3.597973
 40
5.352095
 40
5.352095
 40
5.352095
 40
5.352095
 10
53.256685
 20
162.912398
 30
0.0
 10
52.883939
 20
163.369381
 30
0.0
 10
52.119379
 20
164.306722
 30
0.0
 10
51.728635
 20
166.145023
 30
0.0
 10
52.045845
 20
167.312302
 30
0.0
 10
52.200494
 20
167.881386
 30
0.0
 11
53.256685
 21
162.912398
 31
0.0
 11
52.257736
 21
164.354287
 31
0.0
 11
51.874378
 21
166.157845
 31
0.0
 11
52.200494
 21
167.881386
 31
0.0
  0
LWPOLYLINE
  5
206
100
AcDbEntity
  8
0
 62
5
100
AcDbPolyline
 90
4
 70
0
 10
56.807769
 20
157.608133
 30
0.0
 10
55.575547
 20
163.405288
 30
0.0
 10
55.244280
 20
163.334873
 30
0.0
 10
55.455518
 20
162.341076
 30
0.0
  0
LWPOLYLINE
  5
207
100
AcDbEntity
  8
0
 62
5
100
AcDbPolyline
 90
4
 70
0
 10
53.976851
 20
169.297659
 30
0.0
 10
54.188089
 20
168.303861
 30
0.0
 10
54.519356
 20
168.374276
 30
0.0
 10
53.287131
 20
174.171428
 30
0.0
  0
LWPOLYLINE
  5
208
100
AcDbEntity
  8
0
 62
1
100
AcDbPolyline
 90
2
 70
0
 10
55.329102
 20
164.564716
 30
0.0
 10
54.765798
 20
167.214845
 30
0.0
  0
LWPOLYLINE
  5
209
100
AcDbEntity
  8
0
 62
5
100
AcDbPolyline
 90
5
 70
0
 10
56.807741
 20
157.608127
 30
0.0
 10
54.712001
 20
154.821462
 30
0.0
 10
59.927290
 20
146.021977
 30
0.0
 10
62.317655
 20
145.232655
 30
0.0
 10
63.695134
 20
142.138788
 30
0.0
  0
LWPOLYLINE
  5
20a
100
AcDbEntity
  8
0
 62
5
100
AcDbPolyline
 90
4
 70
0
 10
57.822812
 20
156.577201
 30
0.0
 10
57.324842
 20
155.614058
 30
0.0
 10
59.804303
 20
150.045097
 30
0.0
 10
60.853266
 20
149.770692
 30
0.0
  0
LWPOLYLINE
  5
20b
100
AcDbEntity
  8
0
 62
1
100
AcDbPolyline
 90
2
 70
0
 10
56.807741
 20
157.608127
 30
0.0
 10
57.358732
 20
156.370580
 30
0.0
  0
LWPOLYLINE
  5
20c
100
AcDbEntity
  8
0
 62
1
100
AcDbPolyline
 90
2
 70
0
 10
62.317655
 20
145.232655
 30
0.0
 10
60.389186
 20
149.564072
 30
0.0
  0
SPLINE
  5
20d
100
AcDbEntity
  8
0
 62
5
100
AcDbSpline
 70
0
 71
3
 72
10
 73
6
 74
4
 40
0.000000
 40
0.000000
 40
0.000000
 40
0.000000
 40
1.046212
 40
1.927098
 40
2.310846
 40
2.310846
 40
2.310846
 40
2.310846
 10
52.200494
 20
167.881386
 30
0.0
 10
52.407886
 20
168.166493
 30
0.0
 10
52.789898
 20
168.691653
 30
0.0
 10
53.470050
 20
169.087547
 30
0.0
 10
53.858867
 20
169.248744
 30
0.0
 10
53.976851
 20
169.297659
 30
0.0
 11
52.200494
 21
167.881386
 31
0.0
 11
52.877253
 21
168.679230
 31
0.0
 11
53.624425
 21
169.145808
 31
0.0
 11
53.976851
 21
169.297659
 31
0.0
  0
SPLINE
  5
20e
100
AcDbEntity
  8
0
 62
5
100
AcDbSpline
 70
0
 71
3
 72
10
 73
6
 74
4
 40
0.000000
 40
0.000000
 40
0.000000
 40
0.000000
 40
0.168284
 40
0.650176
 40
1.455482
 40
1.455482
 40
1.455482
 40
1.455482
 10
57.755719
 20
147.942473
 30
0.0
 10
57.771917
 20
147.996254
 30
0.0
 10
57.834496
 20
148.204041
 30
0.0
 10
57.847467
 20
148.698313
 30
0.0
 10
57.744771
 20
149.116014
 30
0.0
 10
57.680521
 20
149.377339
 30
0.0
 11
57.755719
 21
147.942473
 31
0.0
 11
57.800507
 21
148.104688
 31
0.0
 11
57.828584
 21
148.585762
 31
0.0
 11
57.680521
 21
149.377339
 31
0.0
  0
SPLINE
  5
20f
100
AcDbEntity
  8
0
 62
5
100
AcDbSpline
 70
0
 71
3
 72
10
 73
6
 74
4
 40
0.000000
 40
0.000000
 40
0.000000
 40
0.000000
 40
1.568759
 40
3.233990
 40
4.770374
 40
4.770374
 40
4.770374
 40
4.770374
 10
57.680521
 20
149.377339
 30
0.0
 10
57.428486
 20
149.835623
 30
0.0
 10
56.908916
 20
150.780373
 30
0.0
 10
56.062540
 20
152.127401
 30
0.0
 10
55.472480
 20
153.016596
 30
0.0
 10
55.189323
 20
153.443301
 30
0.0
 11
57.680521
 21
149.377339
 31
0.0
 11
56.911658
 21
150.744765
 31
0.0
 11
56.033723
 21
152.159765
 31
0.0
 11
55.189323
 21
153.443301
 31
0.0
  0
LWPOLYLINE
  5
210
100
AcDbEntity
  8
0
 62
5
100
AcDbPolyline
 90
4
 70
0
 10
63.695202
 20
142.138819
 30
0.0
 10
56.774077
 20
148.370630
 30
0.0
 10
57.000688
 20
148.622307
 30
0.0
 10
57.755719
 20
147.942473
 30
0.0
  0
LWPOLYLINE
  5
211
100
AcDbEntity
  8
0
 62
5
100
AcDbPolyline
 90
4
 70
0
 10
52.470496
 20
152.701310
 30
0.0
 10
53.225528
 20
152.021476
 30
0.0
 10
52.998915
 20
151.769799
 30
0.0
 10
51.111336
 20
153.469384
 30
0.0
  0
LWPOLYLINE
  5
212
100
AcDbEntity
  8
0
 62
1
100
AcDbPolyline
 90
2
 70
0
 10
55.893205
 20
149.163768
 30
0.0
 10
53.879787
 20
150.976659
 30
0.0
  0
LWPOLYLINE
  5
213
100
AcDbEntity
  8
0
 62
5
100
AcDbPolyline
 90
4
 70
0
 10
51.111370
 20
153.469418
 30
0.0
 10
49.787093
 20
157.949055
 30
0.0
 10
40.988251
 20
163.029069
 30
0.0
 10
36.446632
 20
161.936107
 30
0.0
  0
LWPOLYLINE
  5
214
100
AcDbEntity
  8
0
 62
5
100
AcDbPolyline
 90
4
 70
0
 10
46.751243
 20
155.400148
 30
0.0
 10
46.587989
 20
156.472053
 30
0.0
 10
41.308683
 20
159.520062
 30
0.0
 10
40.298759
 20
159.125492
 30
0.0
  0
LWPOLYLINE
  5
215
100
AcDbEntity
  8
0
 62
1
100
AcDbPolyline
 90
2
 70
0
 10
51.111370
 20
153.469418
 30
0.0
 10
47.005243
 20
155.840090
 30
0.0
  0
LWPOLYLINE
  5
216
100
AcDbEntity
  8
0
 62
1
100
AcDbPolyline
 90
2
 70
0
 10
36.446632
 20
161.936107
 30
0.0
 10
40.552759
 20
159.565434
 30
0.0
  0
SPLINE
  5
217
100
AcDbEntity
  8
0
 62
5
100
AcDbSpline
 70
0
 71
3
 72
10
 73
6
 74
4
 40
0.000000
 40
0.000000
 40
0.000000
 40
0.000000
 40
1.197281
 40
2.328480
 40
2.836632
 40
2.836632
 40
2.836632
 40
2.836632
 10
55.189323
 20
153.443301
 30
0.0
 10
54.790050
 20
153.406916
 30
0.0
 10
54.013541
 20
153.336155
 30
0.0
 10
53.122238
 20
152.995897
 30
0.0
 10
52.624714
 20
152.771017
 30
0.0
 10
52.470496
 20
152.701310
 30
0.0
 11
55.189323
 21
153.443301
 31
0.0
 11
54.003367
 21
153.279010
 31
0.0
 11
52.934840
 21
152.907716
 31
0.0
 11
52.470496
 21
152.701310
 31
0.0
  0
SPLINE
  5
218
100
AcDbEntity
  8
0
 62
5
100
AcDbSpline
 70
0
 71
3
 72
10
 73
6
 74
4
 40
0.000000
 40
0.000000
 40
0.000000
 40
0.000000
 40
0.383748
 40
1.264634
 40
2.310844
 40
2.310844
 40
2.310844
 40
2.310844
 10
27.285422
 20
154.143006
 30
0.0
 10
27.218722
 20
154.251928
 30
0.0
 10
26.998913
 20
154.610880
 30
0.0
 10
26.681359
 20
155.330947
 30
0.0
 10
26.680987
 20
155.980351
 30
0.0
 10
26.680785
 20
156.332909
 30
0.0
 11
27.285422
 21
154.143006
 31
0.0
 11
27.089559
 21
154.473006
 31
0.0
 11
26.759333
 21
155.289652
 31
0.0
 11
26.680785
 21
156.332909
 31
0.0
  0
SPLINE
  5
219
100
AcDbEntity
  8
0
 62
5
100
AcDbSpline
 70
0
 71
3
 72
10
 73
6
 74
4
 40
0.000000
 40
0.000000
 40
0.000000
 40
0.000000
 40
1.754119
 40
3.597967
 40
5.352085
 40
5.352085
 40
5.352085
 40
5.352085
 10
26.680785
 20
156.332909
 30
0.0
 10
26.890170
 20
156.884207
 30
0.0
 10
27.319651
 20
158.015004
 30
0.0
 10
28.716293
 20
159.272546
 30
0.0
 10
29.885787
 20
159.581474
 30
0.0
 10
30.455952
 20
159.732087
 30
0.0
 11
26.680785
 21
156.332909
 31
0.0
 11
27.430022
 21
157.918966
 31
0.0
 11
28.800268
 21
159.152741
 31
0.0
 11
30.455952
 21
159.732087
 31
0.0
  0
LWPOLYLINE
  5
21a
100
AcDbEntity
  8
0
 62
5
100
AcDbPolyline
 90
4
 70
0
 10
23.862704
 20
150.605457
 30
0.0
 10
28.267067
 20
154.571165
 30
0.0
 10
28.040455
 20
154.822842
 30
0.0
 10
27.285422
 20
154.143006
 30
0.0
  0
LWPOLYLINE
  5
21b
100
AcDbEntity
  8
0
 62
5
100
AcDbPolyline
 90
4
 70
0
 10
32.570657
 20
158.901854
 30
0.0
 10
31.815625
 20
158.222020
 30
0.0
 10
32.042235
 20
157.970340
 30
0.0
 10
36.446598
 20
161.936048
 30
0.0
  0
LWPOLYLINE
  5
21c
100
AcDbEntity
  8
0
 62
1
100
AcDbPolyline
 90
2
 70
0
 10
29.147939
 20
155.364306
 30
0.0
 10
31.161363
 20
157.177199
 30
0.0
  0
LWPOLYLINE
  5
21d
100
AcDbEntity
  8
0
 62
5
100
AcDbPolyline
 90
4
 70
0
 10
23.862681
 20
150.605483
 30
0.0
 10
19.269161
 20
149.756711
 30
0.0
 10
13.297251
 20
141.537082
 30
0.0
 10
13.909497
 20
136.906100
 30
0.0
  0
LWPOLYLINE
  5
21e
100
AcDbEntity
  8
0
 62
5
100
AcDbPolyline
 90
4
 70
0
 10
21.486770
 20
146.471060
 30
0.0
 10
20.403674
 20
146.420745
 30
0.0
 10
16.820528
 20
141.488966
 30
0.0
 10
17.107370
 20
140.443332
 30
0.0
  0
LWPOLYLINE
  5
21f
100
AcDbEntity
  8
0
 62
1
100
AcDbPolyline
 90
2
 70
0
 10
23.862681
 20
150.605483
 30
0.0
 10
21.075789
 20
146.769657
 30
0.0
  0
LWPOLYLINE
  5
220
100
AcDbEntity
  8
0
 62
1
100
AcDbPolyline
 90
2
 70
0
 10
13.909497
 20
136.906100
 30
0.0
 10
16.696388
 20
140.741929
 30
0.0
  0
LWPOLYLINE
  5
221
100
AcDbEntity
  8
0
 62
1
100
AcDbPolyline
 90
2
 70
0
 10
23.862655
 20
150.605590
 30
0.0
 10
30.750005
 20
135.136143
 30
0.0
  0
LWPOLYLINE
  5
222
100
AcDbEntity
  8
0
 62
1
100
AcDbPolyline
 90
2
 70
0
 10
27.229566
 20
101.639470
 30
0.0
 10
44.070047
 20
103.409286
 30
0.0
  0
LWPOLYLINE
  5
223
100
AcDbEntity
  8
0
 62
1
100
AcDbPolyline
 90
2
 70
0
 10
32.925938
 20
128.439292
 30
0.0
 10
47.590487
 20
119.972626
 30
0.0
  0
LWPOLYLINE
  5
224
100
AcDbEntity
  8
0
 62
1
100
AcDbPolyline
 90
2
 70
0
 10
47.590487
 20
136.905959
 30
0.0
 10
47.590487
 20
119.972626
 30
0.0
  0
LWPOLYLINE
  5
225
100
AcDbEntity
  8
0
 62
1
100
AcDbPolyline
 90
2
 70
0
 10
47.590487
 20
136.905959
 30
0.0
 10
51.111491
 20
153.469299
 30
0.0
  0
LWPOLYLINE
  5
226
100
AcDbEntity
  8
0
 62
1
100
AcDbPolyline
 90
2
 70
0
 10
47.590487
 20
136.905959
 30
0.0
 10
63.695216
 20
142.138923
 30
0.0
  0
LWPOLYLINE
  5
227
100
AcDbEntity
  8
0
 62
1
100
AcDbPolyline
 90
2
 70
0
 10
47.590487
 20
119.972626
 30
0.0
 10
63.695216
 20
114.739943
 30
0.0
  0
LWPOLYLINE
  5
228
100
AcDbEntity
  8
0
 62
1
100
AcDbPolyline
 90
2
 70
0
 10
51.111491
 20
103.409286
 30
0.0
 10
63.695216
 20
114.739943
 30
0.0
  0
LWPOLYLINE
  5
229
100
AcDbEntity
  8
0
 62
1
100
AcDbPolyline
 90
2
 70
0
 10
56.807865
 20
157.608088
 30
0.0
 10
69.391871
 20
168.938746
 30
0.0
  0
LWPOLYLINE
  5
22a
100
AcDbEntity
  8
0
 62
1
100
AcDbPolyline
 90
2
 70
0
 10
63.695216
 20
142.138923
 30
0.0
 10
73.648347
 20
128.439292
 30
0.0
  0
LWPOLYLINE
  5
22b
100
AcDbEntity
  8
0
 62
1
100
AcDbPolyline
 90
2
 70
0
 10
63.695216
 20
142.138923
 30
0.0
 10
80.535698
 20
143.908739
 30
0.0
  0
LWPOLYLINE
  5
22c
100
AcDbEntity
  8
0
 62
1
100
AcDbPolyline
 90
3
 70
0
 10
63.695216
 20
114.739943
 30
0.0
 10
73.648347
 20
128.439292
 30
0.0
 10
80.535698
 20
112.969846
 30
0.0
  0
LWPOLYLINE
  5
22d
100
AcDbEntity
  8
0
 62
1
100
AcDbPolyline
 90
2
 70
0
 10
74.839325
 20
89.710219
 30
0.0
 10
78.360047
 20
106.273277
 30
0.0
  0
LWPOLYLINE
  5
22e
100
AcDbEntity
  8
0
 62
1
100
AcDbPolyline
 90
2
 70
0
 10
86.232354
 20
139.769950
 30
0.0
 10
100.897185
 20
131.303283
 30
0.0
  0
LWPOLYLINE
  5
22f
100
AcDbEntity
  8
0
 62
1
100
AcDbPolyline
 90
3
 70
0
 10
97.376180
 20
114.739943
 30
0.0
 10
100.897185
 20
131.303283
 30
0.0
 10
113.480909
 20
119.972626
 30
0.0
  0
LWPOLYLINE
  5
230
100
AcDbEntity
  8
0
 62
1
100
AcDbPolyline
 90
2
 70
0
 10
118.192327
 20
114.739943
 30
0.0
 10
135.032809
 20
112.969846
 30
0.0
  0
LWPOLYLINE
  5
231
100
AcDbEntity
  8
0
 62
1
100
AcDbPolyline
 90
2
 70
0
 10
123.888983
 20
87.940121
 30
0.0
 10
138.553531
 20
96.406788
 30
0.0
  0
LWPOLYLINE
  5
232
100
AcDbEntity
  8
0
 62
1
100
AcDbPolyline
 90
2
 70
0
 10
124.624736
 20
145.002632
 30
0.0
 10
128.145740
 20
128.439292
 30
0.0
  0
LWPOLYLINE
  5
233
100
AcDbEntity
  8
0
 62
1
100
AcDbPolyline
 90
2
 70
0
 10
128.145740
 20
151.100608
 30
0.0
 10
135.032809
 20
166.570055
 30
0.0
  0
LWPOLYLINE
  5
234
100
AcDbEntity
  8
0
 62
1
100
AcDbPolyline
 90
2
 70
0
 10
128.145740
 20
128.439292
 30
0.0
 10
135.032809
 20
112.969846
 30
0.0
  0
LWPOLYLINE
  5
235
100
AcDbEntity
  8
0
 62
1
100
AcDbPolyline
 90
2
 70
0
 10
128.145740
 20
128.439292
 30
0.0
 10
140.729465
 20
139.769950
 30
0.0
  0
LWPOLYLINE
  5
236
100
AcDbEntity
  8
0
 62
1
100
AcDbPolyline
 90
2
 70
0
 10
135.032809
 20
112.969846
 30
0.0
 10
151.873574
 20
114.739943
 30
0.0
  0
LWPOLYLINE
  5
237
100
AcDbEntity
  8
0
 62
1
100
AcDbPolyline
 90
2
 70
0
 10
140.729465
 20
139.769950
 30
0.0
 10
155.394296
 20
148.236617
 30
0.0
  0
LWPOLYLINE
  5
238
100
AcDbEntity
  8
0
 62
1
100
AcDbPolyline
 90
2
 70
0
 10
140.729465
 20
139.769950
 30
0.0
 10
155.394296
 20
131.303283
 30
0.0
  0
LWPOLYLINE
  5
239
100
AcDbEntity
  8
0
 62
1
100
AcDbPolyline
 90
4
 70
0
 10
144.986223
 20
99.270779
 30
0.0
 10
151.873574
 20
114.739943
 30
0.0
 10
155.394296
 20
131.303283
 30
0.0
 10
167.978020
 20
119.972626
 30
0.0
  0
LWPOLYLINE
  5
23a
100
AcDbEntity
  8
0
 62
1
100
AcDbPolyline
 90
2
 70
0
 10
162.281647
 20
146.772730
 30
0.0
 10
179.122129
 20
145.002632
 30
0.0
  0
SPLINE
  5
23b
100
AcDbEntity
  8
0
 62
5
100
AcDbSpline
 70
0
 71
3
 72
10
 73
6
 74
4
 40
0.000000
 40
0.000000
 40
0.000000
 40
0.000000
 40
1.046211
 40
1.927097
 40
2.310844
 40
2.310844
 40
2.310844
 40
2.310844
 10
30.455952
 20
159.732087
 30
0.0
 10
30.806558
 20
159.695033
 30
0.0
 10
31.452365
 20
159.626781
 30
0.0
 10
32.135295
 20
159.235700
 30
0.0
 10
32.469304
 20
158.979574
 30
0.0
 10
32.570657
 20
158.901854
 30
0.0
 11
30.455952
 21
159.732087
 31
0.0
 11
31.485285
 21
159.544918
 31
0.0
 11
32.262938
 21
159.131138
 31
0.0
 11
32.570657
 21
158.901854
 31
0.0
  0
LWPOLYLINE
  5
23c
100
AcDbEntity
  8
0
 62
1
100
AcDbPolyline
 90
2
 70
0
 10
168.714056
 20
112.969846
 30
0.0
 10
172.234778
 20
96.406788
 30
0.0
  0
ENDSEC
  0
SECTION
  2
OBJECTS
  0
DICTIONARY
  5
C
330
0
100
AcDbDictionary
  3
ACAD_GROUP
350
D
  3
ACAD_MLINESTYLE
350
17
  0
DICTIONARY
  5
D
330
C
100
AcDbDictionary
  0
DICTIONARY
  5
1A
330
C
100
AcDbDictionary
  0
DICTIONARY
  5
17
330
C
100
AcDbDictionary
  3
STANDARD
350
18
  0
DICTIONARY
  5
19
330
C
100
AcDbDictionary
  0
ENDSEC
  0
EOF
