999
DXF created by Inkscape
  0
SECTION
  2
HEADER
  9
$ACADVER
  1
AC1014
  9
$HANDSEED
  5
FFFF
  9
$MEASUREMENT
 70
     1
  0
ENDSEC
  0
SECTION
  2
TABLES
  0
TABLE
  2
VPORT
  5
8
330
0
100
AcDbSymbolTable
 70
     4
  0
VPORT
  5
2E
330
8
100
AcDbSymbolTableRecord
100
AcDbViewportTableRecord
  2
*ACTIVE
 70
     0
 10
0.0
 20
0.0
 11
1.0
 21
1.0
 12
210.0
 22
148.5
 13
0.0
 23
0.0
 14
10.0
 24
10.0
 15
10.0
 25
10.0
 16
0.0
 26
0.0
 36
1.0
 17
0.0
 27
0.0
 37
0.0
 40
341.0
 41
1.24
 42
50.0
 43
0.0
 44
0.0
 50
0.0
 51
0.0
 71
     0
 72
   100
 73
     1
 74
     3
 75
     0
 76
     0
 77
     0
 78
     0
  0
ENDTAB
  0
TABLE
  2
LTYPE
  5
5
330
0
100
AcDbSymbolTable
 70
     1
  0
LTYPE
  5
14
330
5
100
AcDbSymbolTableRecord
100
AcDbLinetypeTableRecord
  2
BYBLOCK
 70
     0
  3

 72
    65
 73
     0
 40
0.0
  0
LTYPE
  5
15
330
5
100
AcDbSymbolTableRecord
100
AcDbLinetypeTableRecord
  2
BYLAYER
 70
     0
  3

 72
    65
 73
     0
 40
0.0
  0
LTYPE
  5
16
330
5
100
AcDbSymbolTableRecord
100
AcDbLinetypeTableRecord
  2
CONTINUOUS
 70
     0
  3
Solid line
 72
    65
 73
     0
 40
0.0
  0
ENDTAB
  0
TABLE
  2
LAYER
  5
2
330
0
100
AcDbSymbolTable
 70
1
  0
LAYER
  5
10
330
2
100
AcDbSymbolTableRecord
100
AcDbLayerTableRecord
  2
0
 70
     0
 62
     7
  6
CONTINUOUS
  0
ENDTAB
  0
TABLE
  2
STYLE
  5
3
330
0
100
AcDbSymbolTable
 70
     1
  0
STYLE
  5
11
330
3
100
AcDbSymbolTableRecord
100
AcDbTextStyleTableRecord
  2
STANDARD
 70
     0
 40
0.0
 41
1.0
 50
0.0
 71
     0
 42
2.5
  3
txt
  4

  0
ENDTAB
  0
TABLE
  2
VIEW
  5
6
330
0
100
AcDbSymbolTable
 70
     0
  0
ENDTAB
  0
TABLE
  2
UCS
  5
7
330
0
100
AcDbSymbolTable
 70
     0
  0
ENDTAB
  0
TABLE
  2
APPID
  5
9
330
0
100
AcDbSymbolTable
 70
     2
  0
APPID
  5
12
330
9
100
AcDbSymbolTableRecord
100
AcDbRegAppTableRecord
  2
ACAD
 70
     0
  0
ENDTAB
  0
TABLE
  2
DIMSTYLE
  5
A
330
0
100
AcDbSymbolTable
 70
     1
  0
DIMSTYLE
105
27
330
A
100
AcDbSymbolTableRecord
100
AcDbDimStyleTableRecord
  2
ISO-25
 70
     0
  3

  4

  5

  6

  7

 40
1.0
 41
2.5
 42
0.625
 43
3.75
 44
1.25
 45
0.0
 46
0.0
 47
0.0
 48
0.0
140
2.5
141
2.5
142
0.0
143
0.03937007874016
144
1.0
145
0.0
146
1.0
147
0.625
 71
     0
 72
     0
 73
     0
 74
     0
 75
     0
 76
     0
 77
     1
 78
     8
170
     0
171
     3
172
     1
173
     0
174
     0
175
     0
176
     0
177
     0
178
     0
270
     2
271
     2
272
     2
273
     2
274
     3
340
11
275
     0
280
     0
281
     0
282
     0
283
     0
284
     8
285
     0
286
     0
287
     3
288
     0
  0
ENDTAB
  0
TABLE
  2
BLOCK_RECORD
  5
1
330
0
100
AcDbSymbolTable
 70
     1
  0
BLOCK_RECORD
  5
1F
330
1
100
AcDbSymbolTableRecord
100
AcDbBlockTableRecord
  2
*MODEL_SPACE
  0
BLOCK_RECORD
  5
1B
330
1
100
AcDbSymbolTableRecord
100
AcDbBlockTableRecord
  2
*PAPER_SPACE
  0
ENDTAB
  0
ENDSEC
  0
SECTION
  2
BLOCKS
  0
BLOCK
  5
20
330
1F
100
AcDbEntity
  8
0
100
AcDbBlockBegin
  2
*MODEL_SPACE
 70
     0
 10
0.0
 20
0.0
 30
0.0
  3
*MODEL_SPACE
  1

  0
ENDBLK
  5
21
330
1F
100
AcDbEntity
  8
0
100
AcDbBlockEnd
  0
BLOCK
  5
1C
330
1B
100
AcDbEntity
 67
     1
  8
0
100
AcDbBlockBegin
  2
*PAPER_SPACE
  1

  0
ENDBLK
  5
1D
330
1B
100
AcDbEntity
 67
     1
  8
0
100
AcDbBlockEnd
  0
ENDSEC
  0
SECTION
  2
ENTITIES
  0
SPLINE
  5
100
100
AcDbEntity
  8
0
 62
5
100
AcDbSpline
 70
0
 71
3
 72
10
 73
6
 74
4
 40
0.000000
 40
0.000000
 40
0.000000
 40
0.000000
 40
0.383748
 40
1.264635
 40
2.310847
 40
2.310847
 40
2.310847
 40
2.310847
 10
82.246239
 20
270.336446
 30
0.0
 10
82.120662
 20
270.359761
 30
0.0
 10
81.706827
 20
270.436597
 30
0.0
 10
80.959227
 20
270.682429
 30
0.0
 10
80.476376
 20
271.116689
 30
0.0
 10
80.214239
 20
271.352446
 30
0.0
 11
82.246239
 21
270.336446
 31
0.0
 11
81.869942
 21
270.411705
 31
0.0
 11
81.042090
 21
270.712742
 31
0.0
 11
80.214239
 21
271.352446
 31
0.0
  0
SPLINE
  5
101
100
AcDbEntity
  8
0
 62
5
100
AcDbSpline
 70
0
 71
3
 72
10
 73
6
 74
4
 40
0.000000
 40
0.000000
 40
0.000000
 40
0.000000
 40
1.754122
 40
3.597974
 40
5.352096
 40
5.352096
 40
5.352096
 40
5.352096
 10
80.214239
 20
271.352446
 30
0.0
 10
79.944650
 20
271.876941
 30
0.0
 10
79.391682
 20
272.952761
 30
0.0
 10
79.391682
 20
274.832131
 30
0.0
 10
79.944650
 20
275.907951
 30
0.0
 10
80.214239
 20
276.432446
 30
0.0
 11
80.214239
 21
271.352446
 31
0.0
 11
79.536905
 21
272.970520
 31
0.0
 11
79.536905
 21
274.814372
 31
0.0
 11
80.214239
 21
276.432446
 31
0.0
  0
LWPOLYLINE
  5
102
100
AcDbEntity
  8
0
 62
5
100
AcDbPolyline
 90
4
 70
0
 10
82.584905
 20
265.425779
 30
0.0
 10
82.584905
 20
271.352446
 30
0.0
 10
82.246239
 20
271.352446
 30
0.0
 10
82.246239
 20
270.336446
 30
0.0
  0
LWPOLYLINE
  5
103
100
AcDbEntity
  8
0
 62
5
100
AcDbPolyline
 90
4
 70
0
 10
82.246239
 20
277.448446
 30
0.0
 10
82.246239
 20
276.432446
 30
0.0
 10
82.584905
 20
276.432446
 30
0.0
 10
82.584905
 20
282.359113
 30
0.0
  0
LWPOLYLINE
  5
104
100
AcDbEntity
  8
0
 62
1
100
AcDbPolyline
 90
2
 70
0
 10
82.584905
 20
272.537779
 30
0.0
 10
82.584905
 20
275.247113
 30
0.0
  0
LWPOLYLINE
  5
105
100
AcDbEntity
  8
0
 62
5
100
AcDbPolyline
 90
4
 70
0
 10
82.584905
 20
248.492446
 30
0.0
 10
79.367572
 20
251.879113
 30
0.0
 10
79.367572
 20
262.039113
 30
0.0
 10
82.584905
 20
265.425779
 30
0.0
  0
LWPOLYLINE
  5
106
100
AcDbEntity
  8
0
 62
5
100
AcDbPolyline
 90
4
 70
0
 10
83.092905
 20
253.233779
 30
0.0
 10
82.246239
 20
253.911113
 30
0.0
 10
82.246239
 20
260.007113
 30
0.0
 10
83.092905
 20
260.684446
 30
0.0
  0
LWPOLYLINE
  5
107
100
AcDbEntity
  8
0
 62
1
100
AcDbPolyline
 90
2
 70
0
 10
82.584905
 20
248.492446
 30
0.0
 10
82.584905
 20
253.233779
 30
0.0
  0
LWPOLYLINE
  5
108
100
AcDbEntity
  8
0
 62
1
100
AcDbPolyline
 90
2
 70
0
 10
82.584905
 20
265.425779
 30
0.0
 10
82.584905
 20
260.684446
 30
0.0
  0
SPLINE
  5
109
100
AcDbEntity
  8
0
 62
5
100
AcDbSpline
 70
0
 71
3
 72
10
 73
6
 74
4
 40
0.000000
 40
0.000000
 40
0.000000
 40
0.000000
 40
1.046212
 40
1.927099
 40
2.310847
 40
2.310847
 40
2.310847
 40
2.310847
 10
80.214239
 20
276.432446
 30
0.0
 10
80.476376
 20
276.668203
 30
0.0
 10
80.959227
 20
277.102463
 30
0.0
 10
81.706827
 20
277.348295
 30
0.0
 10
82.120662
 20
277.425130
 30
0.0
 10
82.246239
 20
277.448446
 30
0.0
 11
80.214239
 21
276.432446
 31
0.0
 11
81.042090
 21
277.072150
 31
0.0
 11
81.869942
 21
277.373187
 31
0.0
 11
82.246239
 21
277.448446
 31
0.0
  0
SPLINE
  5
10a
100
AcDbEntity
  8
0
 62
5
100
AcDbSpline
 70
0
 71
3
 72
10
 73
6
 74
4
 40
0.000000
 40
0.000000
 40
0.000000
 40
0.000000
 40
0.383748
 40
1.264635
 40
2.310847
 40
2.310847
 40
2.310847
 40
2.310847
 10
82.246239
 20
243.581779
 30
0.0
 10
82.120662
 20
243.558464
 30
0.0
 10
81.706827
 20
243.481628
 30
0.0
 10
80.959227
 20
243.235797
 30
0.0
 10
80.476376
 20
242.801537
 30
0.0
 10
80.214239
 20
242.565779
 30
0.0
 11
82.246239
 21
243.581779
 31
0.0
 11
81.869942
 21
243.506520
 31
0.0
 11
81.042090
 21
243.205483
 31
0.0
 11
80.214239
 21
242.565779
 31
0.0
  0
SPLINE
  5
10b
100
AcDbEntity
  8
0
 62
5
100
AcDbSpline
 70
0
 71
3
 72
10
 73
6
 74
4
 40
0.000000
 40
0.000000
 40
0.000000
 40
0.000000
 40
1.754122
 40
3.597974
 40
5.352096
 40
5.352096
 40
5.352096
 40
5.352096
 10
80.214239
 20
242.565779
 30
0.0
 10
79.944650
 20
242.041284
 30
0.0
 10
79.391682
 20
240.965464
 30
0.0
 10
79.391682
 20
239.086094
 30
0.0
 10
79.944650
 20
238.010274
 30
0.0
 10
80.214239
 20
237.485779
 30
0.0
 11
80.214239
 21
242.565779
 31
0.0
 11
79.536905
 21
240.947705
 31
0.0
 11
79.536905
 21
239.103853
 31
0.0
 11
80.214239
 21
237.485779
 31
0.0
  0
LWPOLYLINE
  5
10c
100
AcDbEntity
  8
0
 62
5
100
AcDbPolyline
 90
4
 70
0
 10
82.584905
 20
248.492446
 30
0.0
 10
82.584905
 20
242.565779
 30
0.0
 10
82.246239
 20
242.565779
 30
0.0
 10
82.246239
 20
243.581779
 30
0.0
  0
LWPOLYLINE
  5
10d
100
AcDbEntity
  8
0
 62
5
100
AcDbPolyline
 90
4
 70
0
 10
82.246239
 20
236.469779
 30
0.0
 10
82.246239
 20
237.485779
 30
0.0
 10
82.584905
 20
237.485779
 30
0.0
 10
82.584905
 20
231.559113
 30
0.0
  0
LWPOLYLINE
  5
10e
100
AcDbEntity
  8
0
 62
1
100
AcDbPolyline
 90
2
 70
0
 10
82.584905
 20
241.380446
 30
0.0
 10
82.584905
 20
238.671113
 30
0.0
  0
LWPOLYLINE
  5
10f
100
AcDbEntity
  8
0
 62
5
100
AcDbPolyline
 90
4
 70
0
 10
99.518239
 20
231.559113
 30
0.0
 10
96.131572
 20
228.341779
 30
0.0
 10
85.971572
 20
228.341779
 30
0.0
 10
82.584905
 20
231.559113
 30
0.0
  0
LWPOLYLINE
  5
110
100
AcDbEntity
  8
0
 62
5
100
AcDbPolyline
 90
4
 70
0
 10
94.776905
 20
232.067113
 30
0.0
 10
94.099572
 20
231.220446
 30
0.0
 10
88.003572
 20
231.220446
 30
0.0
 10
87.326239
 20
232.067113
 30
0.0
  0
LWPOLYLINE
  5
111
100
AcDbEntity
  8
0
 62
1
100
AcDbPolyline
 90
2
 70
0
 10
99.518239
 20
231.559113
 30
0.0
 10
94.776905
 20
231.559113
 30
0.0
  0
LWPOLYLINE
  5
112
100
AcDbEntity
  8
0
 62
1
100
AcDbPolyline
 90
2
 70
0
 10
82.584905
 20
231.559113
 30
0.0
 10
87.326239
 20
231.559113
 30
0.0
  0
SPLINE
  5
113
100
AcDbEntity
  8
0
 62
5
100
AcDbSpline
 70
0
 71
3
 72
10
 73
6
 74
4
 40
0.000000
 40
0.000000
 40
0.000000
 40
0.000000
 40
1.046212
 40
1.927099
 40
2.310847
 40
2.310847
 40
2.310847
 40
2.310847
 10
80.214239
 20
237.485779
 30
0.0
 10
80.476376
 20
237.250022
 30
0.0
 10
80.959227
 20
236.815762
 30
0.0
 10
81.706827
 20
236.569930
 30
0.0
 10
82.120662
 20
236.493095
 30
0.0
 10
82.246239
 20
236.469779
 30
0.0
 11
80.214239
 21
237.485779
 31
0.0
 11
81.042090
 21
236.846076
 31
0.0
 11
81.869942
 21
236.545039
 31
0.0
 11
82.246239
 21
236.469779
 31
0.0
  0
SPLINE
  5
114
100
AcDbEntity
  8
0
 62
5
100
AcDbSpline
 70
0
 71
3
 72
10
 73
6
 74
4
 40
0.000000
 40
0.000000
 40
0.000000
 40
0.000000
 40
0.168285
 40
0.650179
 40
1.455488
 40
1.455488
 40
1.455488
 40
1.455488
 10
99.856905
 20
240.195113
 30
0.0
 10
99.907711
 20
240.171163
 30
0.0
 10
100.104001
 20
240.078632
 30
0.0
 10
100.479998
 20
239.757538
 30
0.0
 10
100.721694
 20
239.401721
 30
0.0
 10
100.872905
 20
239.179113
 30
0.0
 11
99.856905
 21
240.195113
 31
0.0
 11
100.007424
 21
240.119853
 31
0.0
 11
100.383720
 21
239.818816
 31
0.0
 11
100.872905
 21
239.179113
 31
0.0
  0
SPLINE
  5
115
100
AcDbEntity
  8
0
 62
5
100
AcDbSpline
 70
0
 71
3
 72
10
 73
6
 74
4
 40
0.000000
 40
0.000000
 40
0.000000
 40
0.000000
 40
1.568766
 40
3.234005
 40
4.770394
 40
4.770394
 40
4.770394
 40
4.770394
 10
100.872905
 20
239.179113
 30
0.0
 10
101.044833
 20
238.685160
 30
0.0
 10
101.399261
 20
237.666879
 30
0.0
 10
101.833964
 20
236.136554
 30
0.0
 10
102.099937
 20
235.103062
 30
0.0
 10
102.227572
 20
234.607113
 30
0.0
 11
100.872905
 21
239.179113
 31
0.0
 11
101.374634
 21
237.692742
 31
0.0
 11
101.838732
 21
236.093483
 31
0.0
 11
102.227572
 21
234.607113
 31
0.0
  0
LWPOLYLINE
  5
116
100
AcDbEntity
  8
0
 62
5
100
AcDbPolyline
 90
4
 70
0
 10
99.518239
 20
248.492446
 30
0.0
 10
99.518239
 20
239.179113
 30
0.0
 10
99.856905
 20
239.179113
 30
0.0
 10
99.856905
 20
240.195113
 30
0.0
  0
LWPOLYLINE
  5
117
100
AcDbEntity
  8
0
 62
5
100
AcDbPolyline
 90
4
 70
0
 10
99.856905
 20
233.083113
 30
0.0
 10
99.856905
 20
234.099113
 30
0.0
 10
99.518239
 20
234.099113
 30
0.0
 10
99.518239
 20
231.559113
 30
0.0
  0
LWPOLYLINE
  5
118
100
AcDbEntity
  8
0
 62
1
100
AcDbPolyline
 90
2
 70
0
 10
99.518239
 20
237.993779
 30
0.0
 10
99.518239
 20
235.284446
 30
0.0
  0
LWPOLYLINE
  5
119
100
AcDbEntity
  8
0
 62
5
100
AcDbPolyline
 90
5
 70
0
 10
107.984939
 20
233.827691
 30
0.0
 10
104.498614
 20
233.770160
 30
0.0
 10
100.445127
 20
243.161683
 30
0.0
 10
101.211578
 20
245.559494
 30
0.0
 10
99.518239
 20
248.492446
 30
0.0
  0
LWPOLYLINE
  5
11a
100
AcDbEntity
  8
0
 62
5
100
AcDbPolyline
 90
4
 70
0
 10
107.747545
 20
235.254872
 30
0.0
 10
106.675640
 20
235.418126
 30
0.0
 10
103.627628
 20
240.697440
 30
0.0
 10
104.022198
 20
241.707364
 30
0.0
  0
LWPOLYLINE
  5
11b
100
AcDbEntity
  8
0
 62
1
100
AcDbPolyline
 90
2
 70
0
 10
107.984939
 20
233.827691
 30
0.0
 10
107.307603
 20
235.000872
 30
0.0
  0
LWPOLYLINE
  5
11c
100
AcDbEntity
  8
0
 62
1
100
AcDbPolyline
 90
2
 70
0
 10
101.211578
 20
245.559494
 30
0.0
 10
103.582256
 20
241.453364
 30
0.0
  0
SPLINE
  5
11d
100
AcDbEntity
  8
0
 62
5
100
AcDbSpline
 70
0
 71
3
 72
10
 73
6
 74
4
 40
0.000000
 40
0.000000
 40
0.000000
 40
0.000000
 40
1.197285
 40
2.328489
 40
2.836644
 40
2.836644
 40
2.836644
 40
2.836644
 10
102.227572
 20
234.607113
 30
0.0
 10
101.933366
 20
234.334740
 30
0.0
 10
101.361192
 20
233.805027
 30
0.0
 10
100.511929
 20
233.370336
 30
0.0
 10
100.011900
 20
233.151077
 30
0.0
 10
99.856905
 20
233.083113
 30
0.0
 11
102.227572
 21
234.607113
 31
0.0
 11
101.311918
 21
233.835705
 31
0.0
 11
100.321004
 21
233.290076
 31
0.0
 11
99.856905
 21
233.083113
 31
0.0
  0
SPLINE
  5
11e
100
AcDbEntity
  8
0
 62
5
100
AcDbSpline
 70
0
 71
3
 72
10
 73
6
 74
4
 40
0.000000
 40
0.000000
 40
0.000000
 40
0.000000
 40
0.168285
 40
0.650181
 40
1.455494
 40
1.455494
 40
1.455494
 40
1.455494
 10
112.596219
 20
241.137362
 30
0.0
 10
112.628243
 20
241.091218
 30
0.0
 10
112.751970
 20
240.912938
 30
0.0
 10
112.917046
 20
240.446863
 30
0.0
 10
112.948452
 20
240.017867
 30
0.0
 10
112.968100
 20
239.749475
 30
0.0
 11
112.596219
 21
241.137362
 31
0.0
 11
112.688942
 21
240.996926
 31
0.0
 11
112.864306
 21
240.548071
 31
0.0
 11
112.968100
 21
239.749475
 31
0.0
  0
SPLINE
  5
11f
100
AcDbEntity
  8
0
 62
5
100
AcDbSpline
 70
0
 71
3
 72
10
 73
6
 74
4
 40
0.000000
 40
0.000000
 40
0.000000
 40
0.000000
 40
1.568773
 40
3.234018
 40
4.770414
 40
4.770414
 40
4.770414
 40
4.770414
 10
112.968100
 20
239.749475
 30
0.0
 10
112.870018
 20
239.235734
 30
0.0
 10
112.667821
 20
238.176658
 30
0.0
 10
112.279120
 20
236.634000
 30
0.0
 10
111.992713
 20
235.605979
 30
0.0
 10
111.855273
 20
235.112654
 30
0.0
 11
112.968100
 21
239.749475
 31
0.0
 11
112.659424
 21
238.211370
 31
0.0
 11
112.261714
 21
236.594315
 31
0.0
 11
111.855273
 21
235.112654
 31
0.0
  0
LWPOLYLINE
  5
120
100
AcDbEntity
  8
0
 62
5
100
AcDbPolyline
 90
4
 70
0
 10
116.451606
 20
248.492426
 30
0.0
 10
111.794919
 20
240.426811
 30
0.0
 10
112.088216
 20
240.257478
 30
0.0
 10
112.596219
 20
241.137362
 30
0.0
  0
LWPOLYLINE
  5
121
100
AcDbEntity
  8
0
 62
5
100
AcDbPolyline
 90
4
 70
0
 10
109.040205
 20
234.978164
 30
0.0
 10
109.548205
 20
235.858051
 30
0.0
 10
109.254911
 20
236.027385
 30
0.0
 10
107.984905
 20
233.827671
 30
0.0
  0
LWPOLYLINE
  5
122
100
AcDbEntity
  8
0
 62
1
100
AcDbPolyline
 90
2
 70
0
 10
111.202253
 20
239.400279
 30
0.0
 10
109.847580
 20
237.053917
 30
0.0
  0
LWPOLYLINE
  5
123
100
AcDbEntity
  8
0
 62
5
100
AcDbPolyline
 90
5
 70
0
 10
116.451572
 20
231.559113
 30
0.0
 10
113.403572
 20
233.252446
 30
0.0
 10
114.588905
 20
243.412446
 30
0.0
 10
116.451572
 20
245.105779
 30
0.0
 10
116.451572
 20
248.492446
 30
0.0
  0
LWPOLYLINE
  5
124
100
AcDbEntity
  8
0
 62
5
100
AcDbPolyline
 90
4
 70
0
 10
116.959572
 20
232.913779
 30
0.0
 10
116.112905
 20
233.591113
 30
0.0
 10
116.112905
 20
239.687113
 30
0.0
 10
116.959572
 20
240.364446
 30
0.0
  0
LWPOLYLINE
  5
125
100
AcDbEntity
  8
0
 62
1
100
AcDbPolyline
 90
2
 70
0
 10
116.451572
 20
231.559113
 30
0.0
 10
116.451572
 20
232.913779
 30
0.0
  0
LWPOLYLINE
  5
126
100
AcDbEntity
  8
0
 62
1
100
AcDbPolyline
 90
2
 70
0
 10
116.451572
 20
245.105779
 30
0.0
 10
116.451572
 20
240.364446
 30
0.0
  0
SPLINE
  5
127
100
AcDbEntity
  8
0
 62
5
100
AcDbSpline
 70
0
 71
3
 72
10
 73
6
 74
4
 40
0.000000
 40
0.000000
 40
0.000000
 40
0.000000
 40
1.197290
 40
2.328498
 40
2.836654
 40
2.836654
 40
2.836654
 40
2.836654
 10
111.855273
 20
235.112654
 30
0.0
 10
111.464295
 20
235.023875
 30
0.0
 10
110.703918
 20
234.851217
 30
0.0
 10
109.751086
 20
234.899395
 30
0.0
 10
109.208417
 20
234.959525
 30
0.0
 10
109.040205
 20
234.978164
 30
0.0
 11
111.855273
 21
235.112654
 31
0.0
 11
110.676584
 21
234.902423
 31
0.0
 11
109.545609
 21
234.925350
 31
0.0
 11
109.040205
 21
234.978164
 31
0.0
  0
SPLINE
  5
128
100
AcDbEntity
  8
0
 62
5
100
AcDbSpline
 70
0
 71
3
 72
10
 73
6
 74
4
 40
0.000000
 40
0.000000
 40
0.000000
 40
0.000000
 40
0.383748
 40
1.264635
 40
2.310847
 40
2.310847
 40
2.310847
 40
2.310847
 10
116.112905
 20
226.648446
 30
0.0
 10
115.987329
 20
226.625130
 30
0.0
 10
115.573494
 20
226.548295
 30
0.0
 10
114.825894
 20
226.302463
 30
0.0
 10
114.343043
 20
225.868203
 30
0.0
 10
114.080905
 20
225.632446
 30
0.0
 11
116.112905
 21
226.648446
 31
0.0
 11
115.736609
 21
226.573187
 31
0.0
 11
114.908757
 21
226.272150
 31
0.0
 11
114.080905
 21
225.632446
 31
0.0
  0
SPLINE
  5
129
100
AcDbEntity
  8
0
 62
5
100
AcDbSpline
 70
0
 71
3
 72
10
 73
6
 74
4
 40
0.000000
 40
0.000000
 40
0.000000
 40
0.000000
 40
1.754122
 40
3.597974
 40
5.352096
 40
5.352096
 40
5.352096
 40
5.352096
 10
114.080905
 20
225.632446
 30
0.0
 10
113.811317
 20
225.107951
 30
0.0
 10
113.258349
 20
224.032131
 30
0.0
 10
113.258349
 20
222.152761
 30
0.0
 10
113.811317
 20
221.076941
 30
0.0
 10
114.080905
 20
220.552446
 30
0.0
 11
114.080905
 21
225.632446
 31
0.0
 11
113.403572
 21
224.014372
 31
0.0
 11
113.403572
 21
222.170520
 31
0.0
 11
114.080905
 21
220.552446
 31
0.0
  0
LWPOLYLINE
  5
12a
100
AcDbEntity
  8
0
 62
5
100
AcDbPolyline
 90
4
 70
0
 10
116.451572
 20
231.559113
 30
0.0
 10
116.451572
 20
225.632446
 30
0.0
 10
116.112905
 20
225.632446
 30
0.0
 10
116.112905
 20
226.648446
 30
0.0
  0
LWPOLYLINE
  5
12b
100
AcDbEntity
  8
0
 62
5
100
AcDbPolyline
 90
4
 70
0
 10
116.112905
 20
219.536446
 30
0.0
 10
116.112905
 20
220.552446
 30
0.0
 10
116.451572
 20
220.552446
 30
0.0
 10
116.451572
 20
214.625779
 30
0.0
  0
LWPOLYLINE
  5
12c
100
AcDbEntity
  8
0
 62
1
100
AcDbPolyline
 90
2
 70
0
 10
116.451572
 20
224.447113
 30
0.0
 10
116.451572
 20
221.737779
 30
0.0
  0
LWPOLYLINE
  5
12d
100
AcDbEntity
  8
0
 62
5
100
AcDbPolyline
 90
4
 70
0
 10
133.384905
 20
214.625779
 30
0.0
 10
129.998239
 20
211.408446
 30
0.0
 10
119.838239
 20
211.408446
 30
0.0
 10
116.451572
 20
214.625779
 30
0.0
  0
LWPOLYLINE
  5
12e
100
AcDbEntity
  8
0
 62
5
100
AcDbPolyline
 90
4
 70
0
 10
128.643572
 20
215.133779
 30
0.0
 10
127.966239
 20
214.287113
 30
0.0
 10
121.870239
 20
214.287113
 30
0.0
 10
121.192905
 20
215.133779
 30
0.0
  0
LWPOLYLINE
  5
12f
100
AcDbEntity
  8
0
 62
1
100
AcDbPolyline
 90
2
 70
0
 10
133.384905
 20
214.625779
 30
0.0
 10
128.643572
 20
214.625779
 30
0.0
  0
LWPOLYLINE
  5
130
100
AcDbEntity
  8
0
 62
1
100
AcDbPolyline
 90
2
 70
0
 10
116.451572
 20
214.625779
 30
0.0
 10
121.192905
 20
214.625779
 30
0.0
  0
SPLINE
  5
131
100
AcDbEntity
  8
0
 62
5
100
AcDbSpline
 70
0
 71
3
 72
10
 73
6
 74
4
 40
0.000000
 40
0.000000
 40
0.000000
 40
0.000000
 40
1.046212
 40
1.927099
 40
2.310847
 40
2.310847
 40
2.310847
 40
2.310847
 10
114.080905
 20
220.552446
 30
0.0
 10
114.343043
 20
220.316689
 30
0.0
 10
114.825894
 20
219.882429
 30
0.0
 10
115.573494
 20
219.636597
 30
0.0
 10
115.987329
 20
219.559761
 30
0.0
 10
116.112905
 20
219.536446
 30
0.0
 11
114.080905
 21
220.552446
 31
0.0
 11
114.908757
 21
219.912742
 31
0.0
 11
115.736609
 21
219.611705
 31
0.0
 11
116.112905
 21
219.536446
 31
0.0
  0
SPLINE
  5
132
100
AcDbEntity
  8
0
 62
5
100
AcDbSpline
 70
0
 71
3
 72
10
 73
6
 74
4
 40
0.000000
 40
0.000000
 40
0.000000
 40
0.000000
 40
0.383748
 40
1.264635
 40
2.310847
 40
2.310847
 40
2.310847
 40
2.310847
 10
133.723572
 20
226.648446
 30
0.0
 10
133.849148
 20
226.625130
 30
0.0
 10
134.262983
 20
226.548295
 30
0.0
 10
135.010583
 20
226.302463
 30
0.0
 10
135.493434
 20
225.868203
 30
0.0
 10
135.755572
 20
225.632446
 30
0.0
 11
133.723572
 21
226.648446
 31
0.0
 11
134.099868
 21
226.573187
 31
0.0
 11
134.927720
 21
226.272150
 31
0.0
 11
135.755572
 21
225.632446
 31
0.0
  0
SPLINE
  5
133
100
AcDbEntity
  8
0
 62
5
100
AcDbSpline
 70
0
 71
3
 72
10
 73
6
 74
4
 40
0.000000
 40
0.000000
 40
0.000000
 40
0.000000
 40
1.754122
 40
3.597974
 40
5.352096
 40
5.352096
 40
5.352096
 40
5.352096
 10
135.755572
 20
225.632446
 30
0.0
 10
136.025161
 20
225.107951
 30
0.0
 10
136.578128
 20
224.032131
 30
0.0
 10
136.578128
 20
222.152761
 30
0.0
 10
136.025161
 20
221.076941
 30
0.0
 10
135.755572
 20
220.552446
 30
0.0
 11
135.755572
 21
225.632446
 31
0.0
 11
136.432905
 21
224.014372
 31
0.0
 11
136.432905
 21
222.170520
 31
0.0
 11
135.755572
 21
220.552446
 31
0.0
  0
LWPOLYLINE
  5
134
100
AcDbEntity
  8
0
 62
5
100
AcDbPolyline
 90
4
 70
0
 10
133.384905
 20
231.559113
 30
0.0
 10
133.384905
 20
225.632446
 30
0.0
 10
133.723572
 20
225.632446
 30
0.0
 10
133.723572
 20
226.648446
 30
0.0
  0
LWPOLYLINE
  5
135
100
AcDbEntity
  8
0
 62
5
100
AcDbPolyline
 90
4
 70
0
 10
133.723572
 20
219.536446
 30
0.0
 10
133.723572
 20
220.552446
 30
0.0
 10
133.384905
 20
220.552446
 30
0.0
 10
133.384905
 20
214.625779
 30
0.0
  0
LWPOLYLINE
  5
136
100
AcDbEntity
  8
0
 62
1
100
AcDbPolyline
 90
2
 70
0
 10
133.384905
 20
224.447113
 30
0.0
 10
133.384905
 20
221.737779
 30
0.0
  0
LWPOLYLINE
  5
137
100
AcDbEntity
  8
0
 62
5
100
AcDbPolyline
 90
5
 70
0
 10
133.384905
 20
231.559113
 30
0.0
 10
136.432905
 20
233.252446
 30
0.0
 10
135.247572
 20
243.412446
 30
0.0
 10
133.384905
 20
245.105779
 30
0.0
 10
133.384905
 20
248.492446
 30
0.0
  0
LWPOLYLINE
  5
138
100
AcDbEntity
  8
0
 62
5
100
AcDbPolyline
 90
4
 70
0
 10
132.876905
 20
232.913779
 30
0.0
 10
133.723572
 20
233.591113
 30
0.0
 10
133.723572
 20
239.687113
 30
0.0
 10
132.876905
 20
240.364446
 30
0.0
  0
LWPOLYLINE
  5
139
100
AcDbEntity
  8
0
 62
1
100
AcDbPolyline
 90
2
 70
0
 10
133.384905
 20
231.559113
 30
0.0
 10
133.384905
 20
232.913779
 30
0.0
  0
LWPOLYLINE
  5
13a
100
AcDbEntity
  8
0
 62
1
100
AcDbPolyline
 90
2
 70
0
 10
133.384905
 20
245.105779
 30
0.0
 10
133.384905
 20
240.364446
 30
0.0
  0
SPLINE
  5
13b
100
AcDbEntity
  8
0
 62
5
100
AcDbSpline
 70
0
 71
3
 72
10
 73
6
 74
4
 40
0.000000
 40
0.000000
 40
0.000000
 40
0.000000
 40
1.046212
 40
1.927099
 40
2.310847
 40
2.310847
 40
2.310847
 40
2.310847
 10
135.755572
 20
220.552446
 30
0.0
 10
135.493434
 20
220.316689
 30
0.0
 10
135.010583
 20
219.882429
 30
0.0
 10
134.262983
 20
219.636597
 30
0.0
 10
133.849148
 20
219.559761
 30
0.0
 10
133.723572
 20
219.536446
 30
0.0
 11
135.755572
 21
220.552446
 31
0.0
 11
134.927720
 21
219.912742
 31
0.0
 11
134.099868
 21
219.611705
 31
0.0
 11
133.723572
 21
219.536446
 31
0.0
  0
SPLINE
  5
13c
100
AcDbEntity
  8
0
 62
5
100
AcDbSpline
 70
0
 71
3
 72
10
 73
6
 74
4
 40
0.000000
 40
0.000000
 40
0.000000
 40
0.000000
 40
0.168285
 40
0.650181
 40
1.455494
 40
1.455494
 40
1.455494
 40
1.455494
 10
137.240292
 20
241.137382
 30
0.0
 10
137.208268
 20
241.091238
 30
0.0
 10
137.084541
 20
240.912958
 30
0.0
 10
136.919465
 20
240.446882
 30
0.0
 10
136.888059
 20
240.017886
 30
0.0
 10
136.868411
 20
239.749495
 30
0.0
 11
137.240292
 21
241.137382
 31
0.0
 11
137.147569
 21
240.996946
 31
0.0
 11
136.972205
 21
240.548090
 31
0.0
 11
136.868411
 21
239.749495
 31
0.0
  0
SPLINE
  5
13d
100
AcDbEntity
  8
0
 62
5
100
AcDbSpline
 70
0
 71
3
 72
10
 73
6
 74
4
 40
0.000000
 40
0.000000
 40
0.000000
 40
0.000000
 40
1.568773
 40
3.234018
 40
4.770414
 40
4.770414
 40
4.770414
 40
4.770414
 10
136.868411
 20
239.749495
 30
0.0
 10
136.966493
 20
239.235753
 30
0.0
 10
137.168690
 20
238.176677
 30
0.0
 10
137.557391
 20
236.634020
 30
0.0
 10
137.843798
 20
235.605999
 30
0.0
 10
137.981238
 20
235.112674
 30
0.0
 11
136.868411
 21
239.749495
 31
0.0
 11
137.177087
 21
238.211390
 31
0.0
 11
137.574797
 21
236.594335
 31
0.0
 11
137.981238
 21
235.112674
 31
0.0
  0
LWPOLYLINE
  5
13e
100
AcDbEntity
  8
0
 62
5
100
AcDbPolyline
 90
4
 70
0
 10
133.384905
 20
248.492446
 30
0.0
 10
138.041592
 20
240.426831
 30
0.0
 10
137.748295
 20
240.257498
 30
0.0
 10
137.240292
 20
241.137382
 30
0.0
  0
LWPOLYLINE
  5
13f
100
AcDbEntity
  8
0
 62
5
100
AcDbPolyline
 90
4
 70
0
 10
140.796306
 20
234.978184
 30
0.0
 10
140.288306
 20
235.858071
 30
0.0
 10
140.581600
 20
236.027404
 30
0.0
 10
141.851606
 20
233.827691
 30
0.0
  0
LWPOLYLINE
  5
140
100
AcDbEntity
  8
0
 62
1
100
AcDbPolyline
 90
2
 70
0
 10
138.634258
 20
239.400299
 30
0.0
 10
139.988931
 20
237.053937
 30
0.0
  0
LWPOLYLINE
  5
141
100
AcDbEntity
  8
0
 62
5
100
AcDbPolyline
 90
5
 70
0
 10
141.851572
 20
233.827671
 30
0.0
 10
145.337897
 20
233.770140
 30
0.0
 10
149.391384
 20
243.161663
 30
0.0
 10
148.624933
 20
245.559474
 30
0.0
 10
150.318272
 20
248.492426
 30
0.0
  0
LWPOLYLINE
  5
142
100
AcDbEntity
  8
0
 62
5
100
AcDbPolyline
 90
4
 70
0
 10
142.088966
 20
235.254852
 30
0.0
 10
143.160871
 20
235.418106
 30
0.0
 10
146.208883
 20
240.697420
 30
0.0
 10
145.814313
 20
241.707344
 30
0.0
  0
LWPOLYLINE
  5
143
100
AcDbEntity
  8
0
 62
1
100
AcDbPolyline
 90
2
 70
0
 10
141.851572
 20
233.827671
 30
0.0
 10
142.528908
 20
235.000852
 30
0.0
  0
LWPOLYLINE
  5
144
100
AcDbEntity
  8
0
 62
1
100
AcDbPolyline
 90
2
 70
0
 10
148.624933
 20
245.559474
 30
0.0
 10
146.254256
 20
241.453344
 30
0.0
  0
SPLINE
  5
145
100
AcDbEntity
  8
0
 62
5
100
AcDbSpline
 70
0
 71
3
 72
10
 73
6
 74
4
 40
0.000000
 40
0.000000
 40
0.000000
 40
0.000000
 40
1.197290
 40
2.328498
 40
2.836654
 40
2.836654
 40
2.836654
 40
2.836654
 10
137.981238
 20
235.112674
 30
0.0
 10
138.372216
 20
235.023895
 30
0.0
 10
139.132593
 20
234.851237
 30
0.0
 10
140.085425
 20
234.899414
 30
0.0
 10
140.628094
 20
234.959545
 30
0.0
 10
140.796306
 20
234.978184
 30
0.0
 11
137.981238
 21
235.112674
 31
0.0
 11
139.159927
 21
234.902442
 31
0.0
 11
140.290902
 21
234.925370
 31
0.0
 11
140.796306
 21
234.978184
 31
0.0
  0
SPLINE
  5
146
100
AcDbEntity
  8
0
 62
5
100
AcDbSpline
 70
0
 71
3
 72
10
 73
6
 74
4
 40
0.000000
 40
0.000000
 40
0.000000
 40
0.000000
 40
0.168285
 40
0.650179
 40
1.455488
 40
1.455488
 40
1.455488
 40
1.455488
 10
149.979572
 20
240.195113
 30
0.0
 10
149.928766
 20
240.171163
 30
0.0
 10
149.732476
 20
240.078632
 30
0.0
 10
149.356479
 20
239.757538
 30
0.0
 10
149.114783
 20
239.401721
 30
0.0
 10
148.963572
 20
239.179113
 30
0.0
 11
149.979572
 21
240.195113
 31
0.0
 11
149.829053
 21
240.119853
 31
0.0
 11
149.452757
 21
239.818816
 31
0.0
 11
148.963572
 21
239.179113
 31
0.0
  0
SPLINE
  5
147
100
AcDbEntity
  8
0
 62
5
100
AcDbSpline
 70
0
 71
3
 72
10
 73
6
 74
4
 40
0.000000
 40
0.000000
 40
0.000000
 40
0.000000
 40
1.568766
 40
3.234005
 40
4.770394
 40
4.770394
 40
4.770394
 40
4.770394
 10
148.963572
 20
239.179113
 30
0.0
 10
148.791644
 20
238.685160
 30
0.0
 10
148.437216
 20
237.666879
 30
0.0
 10
148.002513
 20
236.136554
 30
0.0
 10
147.736540
 20
235.103062
 30
0.0
 10
147.608905
 20
234.607113
 30
0.0
 11
148.963572
 21
239.179113
 31
0.0
 11
148.461844
 21
237.692742
 31
0.0
 11
147.997745
 21
236.093483
 31
0.0
 11
147.608905
 21
234.607113
 31
0.0
  0
LWPOLYLINE
  5
148
100
AcDbEntity
  8
0
 62
5
100
AcDbPolyline
 90
4
 70
0
 10
150.318239
 20
248.492446
 30
0.0
 10
150.318239
 20
239.179113
 30
0.0
 10
149.979572
 20
239.179113
 30
0.0
 10
149.979572
 20
240.195113
 30
0.0
  0
LWPOLYLINE
  5
149
100
AcDbEntity
  8
0
 62
5
100
AcDbPolyline
 90
4
 70
0
 10
149.979572
 20
233.083113
 30
0.0
 10
149.979572
 20
234.099113
 30
0.0
 10
150.318239
 20
234.099113
 30
0.0
 10
150.318239
 20
231.559113
 30
0.0
  0
LWPOLYLINE
  5
14a
100
AcDbEntity
  8
0
 62
1
100
AcDbPolyline
 90
2
 70
0
 10
150.318239
 20
237.993779
 30
0.0
 10
150.318239
 20
235.284446
 30
0.0
  0
LWPOLYLINE
  5
14b
100
AcDbEntity
  8
0
 62
5
100
AcDbPolyline
 90
4
 70
0
 10
167.251572
 20
231.559113
 30
0.0
 10
163.864905
 20
228.341779
 30
0.0
 10
153.704905
 20
228.341779
 30
0.0
 10
150.318239
 20
231.559113
 30
0.0
  0
LWPOLYLINE
  5
14c
100
AcDbEntity
  8
0
 62
5
100
AcDbPolyline
 90
4
 70
0
 10
162.510239
 20
232.067113
 30
0.0
 10
161.832905
 20
231.220446
 30
0.0
 10
155.736905
 20
231.220446
 30
0.0
 10
155.059572
 20
232.067113
 30
0.0
  0
LWPOLYLINE
  5
14d
100
AcDbEntity
  8
0
 62
1
100
AcDbPolyline
 90
2
 70
0
 10
167.251572
 20
231.559113
 30
0.0
 10
162.510239
 20
231.559113
 30
0.0
  0
LWPOLYLINE
  5
14e
100
AcDbEntity
  8
0
 62
1
100
AcDbPolyline
 90
2
 70
0
 10
150.318239
 20
231.559113
 30
0.0
 10
155.059572
 20
231.559113
 30
0.0
  0
SPLINE
  5
14f
100
AcDbEntity
  8
0
 62
5
100
AcDbSpline
 70
0
 71
3
 72
10
 73
6
 74
4
 40
0.000000
 40
0.000000
 40
0.000000
 40
0.000000
 40
1.197285
 40
2.328489
 40
2.836644
 40
2.836644
 40
2.836644
 40
2.836644
 10
147.608905
 20
234.607113
 30
0.0
 10
147.903111
 20
234.334740
 30
0.0
 10
148.475285
 20
233.805027
 30
0.0
 10
149.324548
 20
233.370336
 30
0.0
 10
149.824577
 20
233.151077
 30
0.0
 10
149.979572
 20
233.083113
 30
0.0
 11
147.608905
 21
234.607113
 31
0.0
 11
148.524560
 21
233.835705
 31
0.0
 11
149.515473
 21
233.290076
 31
0.0
 11
149.979572
 21
233.083113
 31
0.0
  0
SPLINE
  5
150
100
AcDbEntity
  8
0
 62
5
100
AcDbSpline
 70
0
 71
3
 72
10
 73
6
 74
4
 40
0.000000
 40
0.000000
 40
0.000000
 40
0.000000
 40
0.168285
 40
0.650179
 40
1.455488
 40
1.455488
 40
1.455488
 40
1.455488
 10
167.590239
 20
240.195113
 30
0.0
 10
167.641044
 20
240.171163
 30
0.0
 10
167.837334
 20
240.078632
 30
0.0
 10
168.213331
 20
239.757538
 30
0.0
 10
168.455027
 20
239.401721
 30
0.0
 10
168.606239
 20
239.179113
 30
0.0
 11
167.590239
 21
240.195113
 31
0.0
 11
167.740757
 21
240.119853
 31
0.0
 11
168.117053
 21
239.818816
 31
0.0
 11
168.606239
 21
239.179113
 31
0.0
  0
SPLINE
  5
151
100
AcDbEntity
  8
0
 62
5
100
AcDbSpline
 70
0
 71
3
 72
10
 73
6
 74
4
 40
0.000000
 40
0.000000
 40
0.000000
 40
0.000000
 40
1.568766
 40
3.234005
 40
4.770394
 40
4.770394
 40
4.770394
 40
4.770394
 10
168.606239
 20
239.179113
 30
0.0
 10
168.778166
 20
238.685160
 30
0.0
 10
169.132594
 20
237.666879
 30
0.0
 10
169.567297
 20
236.136554
 30
0.0
 10
169.833271
 20
235.103062
 30
0.0
 10
169.960905
 20
234.607113
 30
0.0
 11
168.606239
 21
239.179113
 31
0.0
 11
169.107967
 21
237.692742
 31
0.0
 11
169.572066
 21
236.093483
 31
0.0
 11
169.960905
 21
234.607113
 31
0.0
  0
LWPOLYLINE
  5
152
100
AcDbEntity
  8
0
 62
5
100
AcDbPolyline
 90
4
 70
0
 10
167.251572
 20
248.492446
 30
0.0
 10
167.251572
 20
239.179113
 30
0.0
 10
167.590239
 20
239.179113
 30
0.0
 10
167.590239
 20
240.195113
 30
0.0
  0
LWPOLYLINE
  5
153
100
AcDbEntity
  8
0
 62
5
100
AcDbPolyline
 90
4
 70
0
 10
167.590239
 20
233.083113
 30
0.0
 10
167.590239
 20
234.099113
 30
0.0
 10
167.251572
 20
234.099113
 30
0.0
 10
167.251572
 20
231.559113
 30
0.0
  0
LWPOLYLINE
  5
154
100
AcDbEntity
  8
0
 62
1
100
AcDbPolyline
 90
2
 70
0
 10
167.251572
 20
237.993779
 30
0.0
 10
167.251572
 20
235.284446
 30
0.0
  0
LWPOLYLINE
  5
155
100
AcDbEntity
  8
0
 62
5
100
AcDbPolyline
 90
5
 70
0
 10
175.718272
 20
233.827691
 30
0.0
 10
172.231947
 20
233.770160
 30
0.0
 10
168.178460
 20
243.161683
 30
0.0
 10
168.944911
 20
245.559494
 30
0.0
 10
167.251572
 20
248.492446
 30
0.0
  0
LWPOLYLINE
  5
156
100
AcDbEntity
  8
0
 62
5
100
AcDbPolyline
 90
4
 70
0
 10
175.480878
 20
235.254872
 30
0.0
 10
174.408973
 20
235.418126
 30
0.0
 10
171.360962
 20
240.697440
 30
0.0
 10
171.755531
 20
241.707364
 30
0.0
  0
LWPOLYLINE
  5
157
100
AcDbEntity
  8
0
 62
1
100
AcDbPolyline
 90
2
 70
0
 10
175.718272
 20
233.827691
 30
0.0
 10
175.040936
 20
235.000872
 30
0.0
  0
LWPOLYLINE
  5
158
100
AcDbEntity
  8
0
 62
1
100
AcDbPolyline
 90
2
 70
0
 10
168.944911
 20
245.559494
 30
0.0
 10
171.315589
 20
241.453364
 30
0.0
  0
SPLINE
  5
159
100
AcDbEntity
  8
0
 62
5
100
AcDbSpline
 70
0
 71
3
 72
10
 73
6
 74
4
 40
0.000000
 40
0.000000
 40
0.000000
 40
0.000000
 40
1.197285
 40
2.328489
 40
2.836644
 40
2.836644
 40
2.836644
 40
2.836644
 10
169.960905
 20
234.607113
 30
0.0
 10
169.666699
 20
234.334740
 30
0.0
 10
169.094525
 20
233.805027
 30
0.0
 10
168.245263
 20
233.370336
 30
0.0
 10
167.745234
 20
233.151077
 30
0.0
 10
167.590239
 20
233.083113
 30
0.0
 11
169.960905
 21
234.607113
 31
0.0
 11
169.045251
 21
233.835705
 31
0.0
 11
168.054337
 21
233.290076
 31
0.0
 11
167.590239
 21
233.083113
 31
0.0
  0
SPLINE
  5
15a
100
AcDbEntity
  8
0
 62
5
100
AcDbSpline
 70
0
 71
3
 72
10
 73
6
 74
4
 40
0.000000
 40
0.000000
 40
0.000000
 40
0.000000
 40
0.168285
 40
0.650181
 40
1.455494
 40
1.455494
 40
1.455494
 40
1.455494
 10
180.329552
 20
241.137362
 30
0.0
 10
180.361576
 20
241.091218
 30
0.0
 10
180.485303
 20
240.912938
 30
0.0
 10
180.650380
 20
240.446863
 30
0.0
 10
180.681785
 20
240.017867
 30
0.0
 10
180.701434
 20
239.749475
 30
0.0
 11
180.329552
 21
241.137362
 31
0.0
 11
180.422276
 21
240.996926
 31
0.0
 11
180.597639
 21
240.548071
 31
0.0
 11
180.701434
 21
239.749475
 31
0.0
  0
SPLINE
  5
15b
100
AcDbEntity
  8
0
 62
5
100
AcDbSpline
 70
0
 71
3
 72
10
 73
6
 74
4
 40
0.000000
 40
0.000000
 40
0.000000
 40
0.000000
 40
1.568773
 40
3.234018
 40
4.770414
 40
4.770414
 40
4.770414
 40
4.770414
 10
180.701434
 20
239.749475
 30
0.0
 10
180.603351
 20
239.235734
 30
0.0
 10
180.401154
 20
238.176658
 30
0.0
 10
180.012454
 20
236.634000
 30
0.0
 10
179.726046
 20
235.605979
 30
0.0
 10
179.588606
 20
235.112654
 30
0.0
 11
180.701434
 21
239.749475
 31
0.0
 11
180.392758
 21
238.211370
 31
0.0
 11
179.995047
 21
236.594315
 31
0.0
 11
179.588606
 21
235.112654
 31
0.0
  0
LWPOLYLINE
  5
15c
100
AcDbEntity
  8
0
 62
5
100
AcDbPolyline
 90
4
 70
0
 10
184.184939
 20
248.492426
 30
0.0
 10
179.528253
 20
240.426811
 30
0.0
 10
179.821549
 20
240.257478
 30
0.0
 10
180.329552
 20
241.137362
 30
0.0
  0
LWPOLYLINE
  5
15d
100
AcDbEntity
  8
0
 62
5
100
AcDbPolyline
 90
4
 70
0
 10
176.773538
 20
234.978164
 30
0.0
 10
177.281538
 20
235.858051
 30
0.0
 10
176.988244
 20
236.027385
 30
0.0
 10
175.718239
 20
233.827671
 30
0.0
  0
LWPOLYLINE
  5
15e
100
AcDbEntity
  8
0
 62
1
100
AcDbPolyline
 90
2
 70
0
 10
178.935586
 20
239.400279
 30
0.0
 10
177.580914
 20
237.053917
 30
0.0
  0
LWPOLYLINE
  5
15f
100
AcDbEntity
  8
0
 62
5
100
AcDbPolyline
 90
5
 70
0
 10
184.184905
 20
231.559113
 30
0.0
 10
181.136905
 20
233.252446
 30
0.0
 10
182.322239
 20
243.412446
 30
0.0
 10
184.184905
 20
245.105779
 30
0.0
 10
184.184905
 20
248.492446
 30
0.0
  0
LWPOLYLINE
  5
160
100
AcDbEntity
  8
0
 62
5
100
AcDbPolyline
 90
4
 70
0
 10
184.692905
 20
232.913779
 30
0.0
 10
183.846239
 20
233.591113
 30
0.0
 10
183.846239
 20
239.687113
 30
0.0
 10
184.692905
 20
240.364446
 30
0.0
  0
LWPOLYLINE
  5
161
100
AcDbEntity
  8
0
 62
1
100
AcDbPolyline
 90
2
 70
0
 10
184.184905
 20
231.559113
 30
0.0
 10
184.184905
 20
232.913779
 30
0.0
  0
LWPOLYLINE
  5
162
100
AcDbEntity
  8
0
 62
1
100
AcDbPolyline
 90
2
 70
0
 10
184.184905
 20
245.105779
 30
0.0
 10
184.184905
 20
240.364446
 30
0.0
  0
SPLINE
  5
163
100
AcDbEntity
  8
0
 62
5
100
AcDbSpline
 70
0
 71
3
 72
10
 73
6
 74
4
 40
0.000000
 40
0.000000
 40
0.000000
 40
0.000000
 40
1.197290
 40
2.328498
 40
2.836654
 40
2.836654
 40
2.836654
 40
2.836654
 10
179.588606
 20
235.112654
 30
0.0
 10
179.197628
 20
235.023875
 30
0.0
 10
178.437252
 20
234.851217
 30
0.0
 10
177.484419
 20
234.899395
 30
0.0
 10
176.941750
 20
234.959525
 30
0.0
 10
176.773538
 20
234.978164
 30
0.0
 11
179.588606
 21
235.112654
 31
0.0
 11
178.409917
 21
234.902423
 31
0.0
 11
177.278942
 21
234.925350
 31
0.0
 11
176.773538
 21
234.978164
 31
0.0
  0
SPLINE
  5
164
100
AcDbEntity
  8
0
 62
5
100
AcDbSpline
 70
0
 71
3
 72
10
 73
6
 74
4
 40
0.000000
 40
0.000000
 40
0.000000
 40
0.000000
 40
0.383748
 40
1.264635
 40
2.310847
 40
2.310847
 40
2.310847
 40
2.310847
 10
196.207572
 20
231.220446
 30
0.0
 10
196.184256
 20
231.094870
 30
0.0
 10
196.107421
 20
230.681035
 30
0.0
 10
195.861589
 20
229.933435
 30
0.0
 10
195.427329
 20
229.450583
 30
0.0
 10
195.191572
 20
229.188446
 30
0.0
 11
196.207572
 21
231.220446
 31
0.0
 11
196.132313
 21
230.844150
 31
0.0
 11
195.831276
 21
230.016298
 31
0.0
 11
195.191572
 21
229.188446
 31
0.0
  0
SPLINE
  5
165
100
AcDbEntity
  8
0
 62
5
100
AcDbSpline
 70
0
 71
3
 72
10
 73
6
 74
4
 40
0.000000
 40
0.000000
 40
0.000000
 40
0.000000
 40
1.754122
 40
3.597974
 40
5.352096
 40
5.352096
 40
5.352096
 40
5.352096
 10
195.191572
 20
229.188446
 30
0.0
 10
194.667077
 20
228.918857
 30
0.0
 10
193.591257
 20
228.365889
 30
0.0
 10
191.711887
 20
228.365889
 30
0.0
 10
190.636067
 20
228.918857
 30
0.0
 10
190.111572
 20
229.188446
 30
0.0
 11
195.191572
 21
229.188446
 31
0.0
 11
193.573498
 21
228.511113
 31
0.0
 11
191.729646
 21
228.511113
 31
0.0
 11
190.111572
 21
229.188446
 31
0.0
  0
LWPOLYLINE
  5
166
100
AcDbEntity
  8
0
 62
5
100
AcDbPolyline
 90
4
 70
0
 10
201.118239
 20
231.559113
 30
0.0
 10
195.191572
 20
231.559113
 30
0.0
 10
195.191572
 20
231.220446
 30
0.0
 10
196.207572
 20
231.220446
 30
0.0
  0
LWPOLYLINE
  5
167
100
AcDbEntity
  8
0
 62
5
100
AcDbPolyline
 90
4
 70
0
 10
189.095572
 20
231.220446
 30
0.0
 10
190.111572
 20
231.220446
 30
0.0
 10
190.111572
 20
231.559113
 30
0.0
 10
184.184905
 20
231.559113
 30
0.0
  0
LWPOLYLINE
  5
168
100
AcDbEntity
  8
0
 62
1
100
AcDbPolyline
 90
2
 70
0
 10
194.006239
 20
231.559113
 30
0.0
 10
191.296905
 20
231.559113
 30
0.0
  0
LWPOLYLINE
  5
169
100
AcDbEntity
  8
0
 62
5
100
AcDbPolyline
 90
5
 70
0
 10
201.118239
 20
231.559113
 30
0.0
 10
204.166239
 20
233.252446
 30
0.0
 10
202.980905
 20
243.412446
 30
0.0
 10
201.118239
 20
245.105779
 30
0.0
 10
201.118239
 20
248.492446
 30
0.0
  0
LWPOLYLINE
  5
16a
100
AcDbEntity
  8
0
 62
5
100
AcDbPolyline
 90
4
 70
0
 10
200.610239
 20
232.913779
 30
0.0
 10
201.456905
 20
233.591113
 30
0.0
 10
201.456905
 20
239.687113
 30
0.0
 10
200.610239
 20
240.364446
 30
0.0
  0
LWPOLYLINE
  5
16b
100
AcDbEntity
  8
0
 62
1
100
AcDbPolyline
 90
2
 70
0
 10
201.118239
 20
231.559113
 30
0.0
 10
201.118239
 20
232.913779
 30
0.0
  0
LWPOLYLINE
  5
16c
100
AcDbEntity
  8
0
 62
1
100
AcDbPolyline
 90
2
 70
0
 10
201.118239
 20
245.105779
 30
0.0
 10
201.118239
 20
240.364446
 30
0.0
  0
SPLINE
  5
16d
100
AcDbEntity
  8
0
 62
5
100
AcDbSpline
 70
0
 71
3
 72
10
 73
6
 74
4
 40
0.000000
 40
0.000000
 40
0.000000
 40
0.000000
 40
1.046212
 40
1.927099
 40
2.310847
 40
2.310847
 40
2.310847
 40
2.310847
 10
190.111572
 20
229.188446
 30
0.0
 10
189.875814
 20
229.450583
 30
0.0
 10
189.441555
 20
229.933435
 30
0.0
 10
189.195723
 20
230.681035
 30
0.0
 10
189.118887
 20
231.094870
 30
0.0
 10
189.095572
 20
231.220446
 30
0.0
 11
190.111572
 21
229.188446
 31
0.0
 11
189.471868
 21
230.016298
 31
0.0
 11
189.170831
 21
230.844150
 31
0.0
 11
189.095572
 21
231.220446
 31
0.0
  0
SPLINE
  5
16e
100
AcDbEntity
  8
0
 62
5
100
AcDbSpline
 70
0
 71
3
 72
10
 73
6
 74
4
 40
0.000000
 40
0.000000
 40
0.000000
 40
0.000000
 40
0.168285
 40
0.650181
 40
1.455494
 40
1.455494
 40
1.455494
 40
1.455494
 10
204.973626
 20
241.137382
 30
0.0
 10
204.941602
 20
241.091238
 30
0.0
 10
204.817875
 20
240.912958
 30
0.0
 10
204.652798
 20
240.446882
 30
0.0
 10
204.621392
 20
240.017886
 30
0.0
 10
204.601744
 20
239.749495
 30
0.0
 11
204.973626
 21
241.137382
 31
0.0
 11
204.880902
 21
240.996946
 31
0.0
 11
204.705538
 21
240.548090
 31
0.0
 11
204.601744
 21
239.749495
 31
0.0
  0
SPLINE
  5
16f
100
AcDbEntity
  8
0
 62
5
100
AcDbSpline
 70
0
 71
3
 72
10
 73
6
 74
4
 40
0.000000
 40
0.000000
 40
0.000000
 40
0.000000
 40
1.568773
 40
3.234018
 40
4.770414
 40
4.770414
 40
4.770414
 40
4.770414
 10
204.601744
 20
239.749495
 30
0.0
 10
204.699827
 20
239.235753
 30
0.0
 10
204.902024
 20
238.176677
 30
0.0
 10
205.290724
 20
236.634020
 30
0.0
 10
205.577131
 20
235.605999
 30
0.0
 10
205.714572
 20
235.112674
 30
0.0
 11
204.601744
 21
239.749495
 31
0.0
 11
204.910420
 21
238.211390
 31
0.0
 11
205.308130
 21
236.594335
 31
0.0
 11
205.714572
 21
235.112674
 31
0.0
  0
LWPOLYLINE
  5
170
100
AcDbEntity
  8
0
 62
5
100
AcDbPolyline
 90
4
 70
0
 10
201.118239
 20
248.492446
 30
0.0
 10
205.774925
 20
240.426831
 30
0.0
 10
205.481628
 20
240.257498
 30
0.0
 10
204.973626
 20
241.137382
 30
0.0
  0
LWPOLYLINE
  5
171
100
AcDbEntity
  8
0
 62
5
100
AcDbPolyline
 90
4
 70
0
 10
208.529640
 20
234.978184
 30
0.0
 10
208.021640
 20
235.858071
 30
0.0
 10
208.314933
 20
236.027404
 30
0.0
 10
209.584939
 20
233.827691
 30
0.0
  0
LWPOLYLINE
  5
172
100
AcDbEntity
  8
0
 62
1
100
AcDbPolyline
 90
2
 70
0
 10
206.367592
 20
239.400299
 30
0.0
 10
207.722264
 20
237.053937
 30
0.0
  0
LWPOLYLINE
  5
173
100
AcDbEntity
  8
0
 62
5
100
AcDbPolyline
 90
4
 70
0
 10
218.051606
 20
248.492426
 30
0.0
 10
219.144571
 20
243.950802
 30
0.0
 10
214.064548
 20
235.151948
 30
0.0
 10
209.584905
 20
233.827671
 30
0.0
  0
LWPOLYLINE
  5
174
100
AcDbEntity
  8
0
 62
5
100
AcDbPolyline
 90
4
 70
0
 10
215.240986
 20
244.640296
 30
0.0
 10
215.635558
 20
243.630369
 30
0.0
 10
212.587544
 20
238.351059
 30
0.0
 10
211.515638
 20
238.187804
 30
0.0
  0
LWPOLYLINE
  5
175
100
AcDbEntity
  8
0
 62
1
100
AcDbPolyline
 90
2
 70
0
 10
218.051606
 20
248.492426
 30
0.0
 10
215.680931
 20
244.386296
 30
0.0
  0
LWPOLYLINE
  5
176
100
AcDbEntity
  8
0
 62
1
100
AcDbPolyline
 90
2
 70
0
 10
209.584905
 20
233.827671
 30
0.0
 10
211.955580
 20
237.933801
 30
0.0
  0
SPLINE
  5
177
100
AcDbEntity
  8
0
 62
5
100
AcDbSpline
 70
0
 71
3
 72
10
 73
6
 74
4
 40
0.000000
 40
0.000000
 40
0.000000
 40
0.000000
 40
1.197290
 40
2.328498
 40
2.836654
 40
2.836654
 40
2.836654
 40
2.836654
 10
205.714572
 20
235.112674
 30
0.0
 10
206.105550
 20
235.023895
 30
0.0
 10
206.865926
 20
234.851237
 30
0.0
 10
207.818758
 20
234.899414
 30
0.0
 10
208.361428
 20
234.959545
 30
0.0
 10
208.529640
 20
234.978184
 30
0.0
 11
205.714572
 21
235.112674
 31
0.0
 11
206.893260
 21
234.902442
 31
0.0
 11
208.024235
 21
234.925370
 31
0.0
 11
208.529640
 21
234.978184
 31
0.0
  0
SPLINE
  5
178
100
AcDbEntity
  8
0
 62
5
100
AcDbSpline
 70
0
 71
3
 72
10
 73
6
 74
4
 40
0.000000
 40
0.000000
 40
0.000000
 40
0.000000
 40
0.383748
 40
1.264635
 40
2.310847
 40
2.310847
 40
2.310847
 40
2.310847
 10
218.390239
 20
260.515113
 30
0.0
 10
218.515815
 20
260.491797
 30
0.0
 10
218.929650
 20
260.414961
 30
0.0
 10
219.677250
 20
260.169130
 30
0.0
 10
220.160101
 20
259.734870
 30
0.0
 10
220.422239
 20
259.499113
 30
0.0
 11
218.390239
 21
260.515113
 31
0.0
 11
218.766535
 21
260.439853
 31
0.0
 11
219.594387
 21
260.138816
 31
0.0
 11
220.422239
 21
259.499113
 31
0.0
  0
SPLINE
  5
179
100
AcDbEntity
  8
0
 62
5
100
AcDbSpline
 70
0
 71
3
 72
10
 73
6
 74
4
 40
0.000000
 40
0.000000
 40
0.000000
 40
0.000000
 40
1.754122
 40
3.597974
 40
5.352096
 40
5.352096
 40
5.352096
 40
5.352096
 10
220.422239
 20
259.499113
 30
0.0
 10
220.691827
 20
258.974618
 30
0.0
 10
221.244795
 20
257.898798
 30
0.0
 10
221.244795
 20
256.019428
 30
0.0
 10
220.691827
 20
254.943608
 30
0.0
 10
220.422239
 20
254.419113
 30
0.0
 11
220.422239
 21
259.499113
 31
0.0
 11
221.099572
 21
257.881039
 31
0.0
 11
221.099572
 21
256.037187
 31
0.0
 11
220.422239
 21
254.419113
 31
0.0
  0
LWPOLYLINE
  5
17a
100
AcDbEntity
  8
0
 62
5
100
AcDbPolyline
 90
4
 70
0
 10
218.051572
 20
265.425779
 30
0.0
 10
218.051572
 20
259.499113
 30
0.0
 10
218.390239
 20
259.499113
 30
0.0
 10
218.390239
 20
260.515113
 30
0.0
  0
LWPOLYLINE
  5
17b
100
AcDbEntity
  8
0
 62
5
100
AcDbPolyline
 90
4
 70
0
 10
218.390239
 20
253.403113
 30
0.0
 10
218.390239
 20
254.419113
 30
0.0
 10
218.051572
 20
254.419113
 30
0.0
 10
218.051572
 20
248.492446
 30
0.0
  0
LWPOLYLINE
  5
17c
100
AcDbEntity
  8
0
 62
1
100
AcDbPolyline
 90
2
 70
0
 10
218.051572
 20
258.313779
 30
0.0
 10
218.051572
 20
255.604446
 30
0.0
  0
LWPOLYLINE
  5
17d
100
AcDbEntity
  8
0
 62
5
100
AcDbPolyline
 90
4
 70
0
 10
218.051572
 20
265.425779
 30
0.0
 10
219.144537
 20
269.967403
 30
0.0
 10
214.064514
 20
278.766256
 30
0.0
 10
209.584871
 20
280.090534
 30
0.0
  0
LWPOLYLINE
  5
17e
100
AcDbEntity
  8
0
 62
5
100
AcDbPolyline
 90
4
 70
0
 10
215.240952
 20
269.277910
 30
0.0
 10
215.635524
 20
270.287835
 30
0.0
 10
212.587510
 20
275.567147
 30
0.0
 10
211.515604
 20
275.730402
 30
0.0
  0
LWPOLYLINE
  5
17f
100
AcDbEntity
  8
0
 62
1
100
AcDbPolyline
 90
2
 70
0
 10
218.051572
 20
265.425779
 30
0.0
 10
215.680897
 20
269.531911
 30
0.0
  0
LWPOLYLINE
  5
180
100
AcDbEntity
  8
0
 62
1
100
AcDbPolyline
 90
2
 70
0
 10
209.584871
 20
280.090534
 30
0.0
 10
211.955547
 20
275.984403
 30
0.0
  0
SPLINE
  5
181
100
AcDbEntity
  8
0
 62
5
100
AcDbSpline
 70
0
 71
3
 72
10
 73
6
 74
4
 40
0.000000
 40
0.000000
 40
0.000000
 40
0.000000
 40
1.046212
 40
1.927099
 40
2.310847
 40
2.310847
 40
2.310847
 40
2.310847
 10
220.422239
 20
254.419113
 30
0.0
 10
220.160101
 20
254.183355
 30
0.0
 10
219.677250
 20
253.749095
 30
0.0
 10
218.929650
 20
253.503264
 30
0.0
 10
218.515815
 20
253.426428
 30
0.0
 10
218.390239
 20
253.403113
 30
0.0
 11
220.422239
 21
254.419113
 31
0.0
 11
219.594387
 21
253.779409
 31
0.0
 11
218.766535
 21
253.478372
 31
0.0
 11
218.390239
 21
253.403113
 31
0.0
  0
SPLINE
  5
182
100
AcDbEntity
  8
0
 62
5
100
AcDbSpline
 70
0
 71
3
 72
10
 73
6
 74
4
 40
0.000000
 40
0.000000
 40
0.000000
 40
0.000000
 40
0.168285
 40
0.650181
 40
1.455494
 40
1.455494
 40
1.455494
 40
1.455494
 10
204.973592
 20
272.780863
 30
0.0
 10
204.941568
 20
272.827007
 30
0.0
 10
204.817841
 20
273.005287
 30
0.0
 10
204.652764
 20
273.471363
 30
0.0
 10
204.621359
 20
273.900359
 30
0.0
 10
204.601710
 20
274.168751
 30
0.0
 11
204.973592
 21
272.780863
 31
0.0
 11
204.880868
 21
272.921299
 31
0.0
 11
204.705504
 21
273.370155
 31
0.0
 11
204.601710
 21
274.168751
 31
0.0
  0
SPLINE
  5
183
100
AcDbEntity
  8
0
 62
5
100
AcDbSpline
 70
0
 71
3
 72
10
 73
6
 74
4
 40
0.000000
 40
0.000000
 40
0.000000
 40
0.000000
 40
1.568773
 40
3.234017
 40
4.770413
 40
4.770413
 40
4.770413
 40
4.770413
 10
204.601710
 20
274.168751
 30
0.0
 10
204.699793
 20
274.682492
 30
0.0
 10
204.901990
 20
275.741568
 30
0.0
 10
205.290690
 20
277.284225
 30
0.0
 10
205.577097
 20
278.312246
 30
0.0
 10
205.714538
 20
278.805570
 30
0.0
 11
204.601710
 21
274.168751
 31
0.0
 11
204.910386
 21
275.706855
 31
0.0
 11
205.308096
 21
277.323910
 31
0.0
 11
205.714538
 21
278.805570
 31
0.0
  0
LWPOLYLINE
  5
184
100
AcDbEntity
  8
0
 62
5
100
AcDbPolyline
 90
4
 70
0
 10
201.118205
 20
265.425799
 30
0.0
 10
205.774891
 20
273.491414
 30
0.0
 10
205.481595
 20
273.660748
 30
0.0
 10
204.973592
 20
272.780863
 30
0.0
  0
LWPOLYLINE
  5
185
100
AcDbEntity
  8
0
 62
5
100
AcDbPolyline
 90
4
 70
0
 10
208.529606
 20
278.940060
 30
0.0
 10
208.021606
 20
278.060175
 30
0.0
 10
208.314900
 20
277.890841
 30
0.0
 10
209.584905
 20
280.090554
 30
0.0
  0
LWPOLYLINE
  5
186
100
AcDbEntity
  8
0
 62
1
100
AcDbPolyline
 90
2
 70
0
 10
206.367558
 20
274.517947
 30
0.0
 10
207.722230
 20
276.864308
 30
0.0
  0
LWPOLYLINE
  5
187
100
AcDbEntity
  8
0
 62
5
100
AcDbPolyline
 90
5
 70
0
 10
201.118239
 20
282.359113
 30
0.0
 10
204.166239
 20
280.665779
 30
0.0
 10
202.980905
 20
270.505779
 30
0.0
 10
201.118239
 20
268.812446
 30
0.0
 10
201.118239
 20
265.425779
 30
0.0
  0
LWPOLYLINE
  5
188
100
AcDbEntity
  8
0
 62
5
100
AcDbPolyline
 90
4
 70
0
 10
200.610239
 20
281.004446
 30
0.0
 10
201.456905
 20
280.327113
 30
0.0
 10
201.456905
 20
274.231113
 30
0.0
 10
200.610239
 20
273.553779
 30
0.0
  0
LWPOLYLINE
  5
189
100
AcDbEntity
  8
0
 62
1
100
AcDbPolyline
 90
2
 70
0
 10
201.118239
 20
282.359113
 30
0.0
 10
201.118239
 20
281.004446
 30
0.0
  0
LWPOLYLINE
  5
18a
100
AcDbEntity
  8
0
 62
1
100
AcDbPolyline
 90
2
 70
0
 10
201.118239
 20
268.812446
 30
0.0
 10
201.118239
 20
273.553779
 30
0.0
  0
SPLINE
  5
18b
100
AcDbEntity
  8
0
 62
5
100
AcDbSpline
 70
0
 71
3
 72
10
 73
6
 74
4
 40
0.000000
 40
0.000000
 40
0.000000
 40
0.000000
 40
1.197291
 40
2.328498
 40
2.836654
 40
2.836654
 40
2.836654
 40
2.836654
 10
205.714538
 20
278.805570
 30
0.0
 10
206.105516
 20
278.894349
 30
0.0
 10
206.865892
 20
279.067008
 30
0.0
 10
207.818724
 20
279.018830
 30
0.0
 10
208.361394
 20
278.958699
 30
0.0
 10
208.529606
 20
278.940060
 30
0.0
 11
205.714538
 21
278.805570
 31
0.0
 11
206.893227
 21
279.015802
 31
0.0
 11
208.024202
 21
278.992875
 31
0.0
 11
208.529606
 21
278.940060
 31
0.0
  0
SPLINE
  5
18c
100
AcDbEntity
  8
0
 62
5
100
AcDbSpline
 70
0
 71
3
 72
10
 73
6
 74
4
 40
0.000000
 40
0.000000
 40
0.000000
 40
0.000000
 40
0.383748
 40
1.264635
 40
2.310847
 40
2.310847
 40
2.310847
 40
2.310847
 10
189.095572
 20
282.697780
 30
0.0
 10
189.118887
 20
282.823356
 30
0.0
 10
189.195723
 20
283.237191
 30
0.0
 10
189.441555
 20
283.984791
 30
0.0
 10
189.875814
 20
284.467642
 30
0.0
 10
190.111572
 20
284.729780
 30
0.0
 11
189.095572
 21
282.697780
 31
0.0
 11
189.170831
 21
283.074076
 31
0.0
 11
189.471868
 21
283.901928
 31
0.0
 11
190.111572
 21
284.729780
 31
0.0
  0
SPLINE
  5
18d
100
AcDbEntity
  8
0
 62
5
100
AcDbSpline
 70
0
 71
3
 72
10
 73
6
 74
4
 40
0.000000
 40
0.000000
 40
0.000000
 40
0.000000
 40
1.754122
 40
3.597974
 40
5.352096
 40
5.352096
 40
5.352096
 40
5.352096
 10
190.111572
 20
284.729780
 30
0.0
 10
190.636067
 20
284.999368
 30
0.0
 10
191.711887
 20
285.552336
 30
0.0
 10
193.591257
 20
285.552336
 30
0.0
 10
194.667077
 20
284.999368
 30
0.0
 10
195.191572
 20
284.729780
 30
0.0
 11
190.111572
 21
284.729780
 31
0.0
 11
191.729646
 21
285.407113
 31
0.0
 11
193.573498
 21
285.407113
 31
0.0
 11
195.191572
 21
284.729780
 31
0.0
  0
LWPOLYLINE
  5
18e
100
AcDbEntity
  8
0
 62
5
100
AcDbPolyline
 90
4
 70
0
 10
184.184905
 20
282.359113
 30
0.0
 10
190.111572
 20
282.359113
 30
0.0
 10
190.111572
 20
282.697780
 30
0.0
 10
189.095572
 20
282.697780
 30
0.0
  0
LWPOLYLINE
  5
18f
100
AcDbEntity
  8
0
 62
5
100
AcDbPolyline
 90
4
 70
0
 10
196.207572
 20
282.697780
 30
0.0
 10
195.191572
 20
282.697780
 30
0.0
 10
195.191572
 20
282.359113
 30
0.0
 10
201.118239
 20
282.359113
 30
0.0
  0
LWPOLYLINE
  5
190
100
AcDbEntity
  8
0
 62
1
100
AcDbPolyline
 90
2
 70
0
 10
191.296905
 20
282.359113
 30
0.0
 10
194.006239
 20
282.359113
 30
0.0
  0
LWPOLYLINE
  5
191
100
AcDbEntity
  8
0
 62
5
100
AcDbPolyline
 90
5
 70
0
 10
184.184905
 20
282.359113
 30
0.0
 10
181.136905
 20
280.665779
 30
0.0
 10
182.322239
 20
270.505779
 30
0.0
 10
184.184905
 20
268.812446
 30
0.0
 10
184.184905
 20
265.425779
 30
0.0
  0
LWPOLYLINE
  5
192
100
AcDbEntity
  8
0
 62
5
100
AcDbPolyline
 90
4
 70
0
 10
184.692905
 20
281.004446
 30
0.0
 10
183.846239
 20
280.327113
 30
0.0
 10
183.846239
 20
274.231113
 30
0.0
 10
184.692905
 20
273.553779
 30
0.0
  0
LWPOLYLINE
  5
193
100
AcDbEntity
  8
0
 62
1
100
AcDbPolyline
 90
2
 70
0
 10
184.184905
 20
282.359113
 30
0.0
 10
184.184905
 20
281.004446
 30
0.0
  0
LWPOLYLINE
  5
194
100
AcDbEntity
  8
0
 62
1
100
AcDbPolyline
 90
2
 70
0
 10
184.184905
 20
268.812446
 30
0.0
 10
184.184905
 20
273.553779
 30
0.0
  0
SPLINE
  5
195
100
AcDbEntity
  8
0
 62
5
100
AcDbSpline
 70
0
 71
3
 72
10
 73
6
 74
4
 40
0.000000
 40
0.000000
 40
0.000000
 40
0.000000
 40
1.046212
 40
1.927099
 40
2.310847
 40
2.310847
 40
2.310847
 40
2.310847
 10
195.191572
 20
284.729780
 30
0.0
 10
195.427329
 20
284.467642
 30
0.0
 10
195.861589
 20
283.984791
 30
0.0
 10
196.107421
 20
283.237191
 30
0.0
 10
196.184256
 20
282.823356
 30
0.0
 10
196.207572
 20
282.697780
 30
0.0
 11
195.191572
 21
284.729780
 31
0.0
 11
195.831276
 21
283.901928
 31
0.0
 11
196.132313
 21
283.074076
 31
0.0
 11
196.207572
 21
282.697780
 31
0.0
  0
SPLINE
  5
196
100
AcDbEntity
  8
0
 62
5
100
AcDbSpline
 70
0
 71
3
 72
10
 73
6
 74
4
 40
0.000000
 40
0.000000
 40
0.000000
 40
0.000000
 40
0.168285
 40
0.650181
 40
1.455494
 40
1.455494
 40
1.455494
 40
1.455494
 10
180.329518
 20
272.780843
 30
0.0
 10
180.361542
 20
272.826987
 30
0.0
 10
180.485269
 20
273.005267
 30
0.0
 10
180.650346
 20
273.471343
 30
0.0
 10
180.681751
 20
273.900339
 30
0.0
 10
180.701400
 20
274.168731
 30
0.0
 11
180.329518
 21
272.780843
 31
0.0
 11
180.422242
 21
272.921280
 31
0.0
 11
180.597606
 21
273.370135
 31
0.0
 11
180.701400
 21
274.168731
 31
0.0
  0
SPLINE
  5
197
100
AcDbEntity
  8
0
 62
5
100
AcDbSpline
 70
0
 71
3
 72
10
 73
6
 74
4
 40
0.000000
 40
0.000000
 40
0.000000
 40
0.000000
 40
1.568773
 40
3.234017
 40
4.770413
 40
4.770413
 40
4.770413
 40
4.770413
 10
180.701400
 20
274.168731
 30
0.0
 10
180.603317
 20
274.682472
 30
0.0
 10
180.401120
 20
275.741548
 30
0.0
 10
180.012420
 20
277.284205
 30
0.0
 10
179.726012
 20
278.312226
 30
0.0
 10
179.588572
 20
278.805550
 30
0.0
 11
180.701400
 21
274.168731
 31
0.0
 11
180.392724
 21
275.706836
 31
0.0
 11
179.995014
 21
277.323890
 31
0.0
 11
179.588572
 21
278.805550
 31
0.0
  0
LWPOLYLINE
  5
198
100
AcDbEntity
  8
0
 62
5
100
AcDbPolyline
 90
4
 70
0
 10
184.184905
 20
265.425779
 30
0.0
 10
179.528219
 20
273.491395
 30
0.0
 10
179.821515
 20
273.660729
 30
0.0
 10
180.329518
 20
272.780843
 30
0.0
  0
LWPOLYLINE
  5
199
100
AcDbEntity
  8
0
 62
5
100
AcDbPolyline
 90
4
 70
0
 10
176.773504
 20
278.940041
 30
0.0
 10
177.281504
 20
278.060155
 30
0.0
 10
176.988210
 20
277.890821
 30
0.0
 10
175.718205
 20
280.090534
 30
0.0
  0
LWPOLYLINE
  5
19a
100
AcDbEntity
  8
0
 62
1
100
AcDbPolyline
 90
2
 70
0
 10
178.935552
 20
274.517927
 30
0.0
 10
177.580880
 20
276.864288
 30
0.0
  0
LWPOLYLINE
  5
19b
100
AcDbEntity
  8
0
 62
5
100
AcDbPolyline
 90
5
 70
0
 10
175.718239
 20
280.090554
 30
0.0
 10
172.231914
 20
280.148085
 30
0.0
 10
168.178426
 20
270.756563
 30
0.0
 10
168.944877
 20
268.358751
 30
0.0
 10
167.251538
 20
265.425799
 30
0.0
  0
LWPOLYLINE
  5
19c
100
AcDbEntity
  8
0
 62
5
100
AcDbPolyline
 90
4
 70
0
 10
175.480845
 20
278.663373
 30
0.0
 10
174.408939
 20
278.500118
 30
0.0
 10
171.360928
 20
273.220806
 30
0.0
 10
171.755497
 20
272.210880
 30
0.0
  0
LWPOLYLINE
  5
19d
100
AcDbEntity
  8
0
 62
1
100
AcDbPolyline
 90
2
 70
0
 10
175.718239
 20
280.090554
 30
0.0
 10
175.040902
 20
278.917374
 30
0.0
  0
LWPOLYLINE
  5
19e
100
AcDbEntity
  8
0
 62
1
100
AcDbPolyline
 90
2
 70
0
 10
168.944877
 20
268.358751
 30
0.0
 10
171.315555
 20
272.464882
 30
0.0
  0
SPLINE
  5
19f
100
AcDbEntity
  8
0
 62
5
100
AcDbSpline
 70
0
 71
3
 72
10
 73
6
 74
4
 40
0.000000
 40
0.000000
 40
0.000000
 40
0.000000
 40
1.197291
 40
2.328498
 40
2.836654
 40
2.836654
 40
2.836654
 40
2.836654
 10
179.588572
 20
278.805550
 30
0.0
 10
179.197594
 20
278.894330
 30
0.0
 10
178.437218
 20
279.066988
 30
0.0
 10
177.484385
 20
279.018810
 30
0.0
 10
176.941716
 20
278.958680
 30
0.0
 10
176.773504
 20
278.940041
 30
0.0
 11
179.588572
 21
278.805550
 31
0.0
 11
178.409883
 21
279.015783
 31
0.0
 11
177.278908
 21
278.992855
 31
0.0
 11
176.773504
 21
278.940041
 31
0.0
  0
SPLINE
  5
1a0
100
AcDbEntity
  8
0
 62
5
100
AcDbSpline
 70
0
 71
3
 72
10
 73
6
 74
4
 40
0.000000
 40
0.000000
 40
0.000000
 40
0.000000
 40
0.168285
 40
0.650179
 40
1.455488
 40
1.455488
 40
1.455488
 40
1.455488
 10
167.590239
 20
273.723113
 30
0.0
 10
167.641044
 20
273.747062
 30
0.0
 10
167.837334
 20
273.839593
 30
0.0
 10
168.213331
 20
274.160687
 30
0.0
 10
168.455027
 20
274.516504
 30
0.0
 10
168.606239
 20
274.739113
 30
0.0
 11
167.590239
 21
273.723113
 31
0.0
 11
167.740757
 21
273.798372
 31
0.0
 11
168.117053
 21
274.099409
 31
0.0
 11
168.606239
 21
274.739113
 31
0.0
  0
SPLINE
  5
1a1
100
AcDbEntity
  8
0
 62
5
100
AcDbSpline
 70
0
 71
3
 72
10
 73
6
 74
4
 40
0.000000
 40
0.000000
 40
0.000000
 40
0.000000
 40
1.568766
 40
3.234005
 40
4.770394
 40
4.770394
 40
4.770394
 40
4.770394
 10
168.606239
 20
274.739113
 30
0.0
 10
168.778166
 20
275.233065
 30
0.0
 10
169.132594
 20
276.251347
 30
0.0
 10
169.567297
 20
277.781671
 30
0.0
 10
169.833271
 20
278.815163
 30
0.0
 10
169.960905
 20
279.311113
 30
0.0
 11
168.606239
 21
274.739113
 31
0.0
 11
169.107967
 21
276.225483
 31
0.0
 11
169.572066
 21
277.824742
 31
0.0
 11
169.960905
 21
279.311113
 31
0.0
  0
LWPOLYLINE
  5
1a2
100
AcDbEntity
  8
0
 62
5
100
AcDbPolyline
 90
4
 70
0
 10
167.251572
 20
265.425779
 30
0.0
 10
167.251572
 20
274.739113
 30
0.0
 10
167.590239
 20
274.739113
 30
0.0
 10
167.590239
 20
273.723113
 30
0.0
  0
LWPOLYLINE
  5
1a3
100
AcDbEntity
  8
0
 62
5
100
AcDbPolyline
 90
4
 70
0
 10
167.590239
 20
280.835113
 30
0.0
 10
167.590239
 20
279.819113
 30
0.0
 10
167.251572
 20
279.819113
 30
0.0
 10
167.251572
 20
282.359113
 30
0.0
  0
LWPOLYLINE
  5
1a4
100
AcDbEntity
  8
0
 62
1
100
AcDbPolyline
 90
2
 70
0
 10
167.251572
 20
275.924446
 30
0.0
 10
167.251572
 20
278.633779
 30
0.0
  0
LWPOLYLINE
  5
1a5
100
AcDbEntity
  8
0
 62
5
100
AcDbPolyline
 90
4
 70
0
 10
150.318239
 20
282.359113
 30
0.0
 10
153.704905
 20
285.576446
 30
0.0
 10
163.864905
 20
285.576446
 30
0.0
 10
167.251572
 20
282.359113
 30
0.0
  0
LWPOLYLINE
  5
1a6
100
AcDbEntity
  8
0
 62
5
100
AcDbPolyline
 90
4
 70
0
 10
155.059572
 20
281.851113
 30
0.0
 10
155.736905
 20
282.697780
 30
0.0
 10
161.832905
 20
282.697780
 30
0.0
 10
162.510239
 20
281.851113
 30
0.0
  0
LWPOLYLINE
  5
1a7
100
AcDbEntity
  8
0
 62
1
100
AcDbPolyline
 90
2
 70
0
 10
150.318239
 20
282.359113
 30
0.0
 10
155.059572
 20
282.359113
 30
0.0
  0
LWPOLYLINE
  5
1a8
100
AcDbEntity
  8
0
 62
1
100
AcDbPolyline
 90
2
 70
0
 10
167.251572
 20
282.359113
 30
0.0
 10
162.510239
 20
282.359113
 30
0.0
  0
SPLINE
  5
1a9
100
AcDbEntity
  8
0
 62
5
100
AcDbSpline
 70
0
 71
3
 72
10
 73
6
 74
4
 40
0.000000
 40
0.000000
 40
0.000000
 40
0.000000
 40
1.197285
 40
2.328489
 40
2.836644
 40
2.836644
 40
2.836644
 40
2.836644
 10
169.960905
 20
279.311113
 30
0.0
 10
169.666699
 20
279.583485
 30
0.0
 10
169.094525
 20
280.113198
 30
0.0
 10
168.245263
 20
280.547890
 30
0.0
 10
167.745234
 20
280.767149
 30
0.0
 10
167.590239
 20
280.835113
 30
0.0
 11
169.960905
 21
279.311113
 31
0.0
 11
169.045251
 21
280.082520
 31
0.0
 11
168.054337
 21
280.628150
 31
0.0
 11
167.590239
 21
280.835113
 31
0.0
  0
SPLINE
  5
1aa
100
AcDbEntity
  8
0
 62
5
100
AcDbSpline
 70
0
 71
3
 72
10
 73
6
 74
4
 40
0.000000
 40
0.000000
 40
0.000000
 40
0.000000
 40
0.168285
 40
0.650179
 40
1.455488
 40
1.455488
 40
1.455488
 40
1.455488
 10
149.979572
 20
273.723113
 30
0.0
 10
149.928766
 20
273.747062
 30
0.0
 10
149.732476
 20
273.839593
 30
0.0
 10
149.356479
 20
274.160687
 30
0.0
 10
149.114783
 20
274.516504
 30
0.0
 10
148.963572
 20
274.739113
 30
0.0
 11
149.979572
 21
273.723113
 31
0.0
 11
149.829053
 21
273.798372
 31
0.0
 11
149.452757
 21
274.099409
 31
0.0
 11
148.963572
 21
274.739113
 31
0.0
  0
SPLINE
  5
1ab
100
AcDbEntity
  8
0
 62
5
100
AcDbSpline
 70
0
 71
3
 72
10
 73
6
 74
4
 40
0.000000
 40
0.000000
 40
0.000000
 40
0.000000
 40
1.568766
 40
3.234005
 40
4.770394
 40
4.770394
 40
4.770394
 40
4.770394
 10
148.963572
 20
274.739113
 30
0.0
 10
148.791644
 20
275.233065
 30
0.0
 10
148.437216
 20
276.251347
 30
0.0
 10
148.002513
 20
277.781671
 30
0.0
 10
147.736540
 20
278.815163
 30
0.0
 10
147.608905
 20
279.311113
 30
0.0
 11
148.963572
 21
274.739113
 31
0.0
 11
148.461844
 21
276.225483
 31
0.0
 11
147.997745
 21
277.824742
 31
0.0
 11
147.608905
 21
279.311113
 31
0.0
  0
LWPOLYLINE
  5
1ac
100
AcDbEntity
  8
0
 62
5
100
AcDbPolyline
 90
4
 70
0
 10
150.318239
 20
265.425779
 30
0.0
 10
150.318239
 20
274.739113
 30
0.0
 10
149.979572
 20
274.739113
 30
0.0
 10
149.979572
 20
273.723113
 30
0.0
  0
LWPOLYLINE
  5
1ad
100
AcDbEntity
  8
0
 62
5
100
AcDbPolyline
 90
4
 70
0
 10
149.979572
 20
280.835113
 30
0.0
 10
149.979572
 20
279.819113
 30
0.0
 10
150.318239
 20
279.819113
 30
0.0
 10
150.318239
 20
282.359113
 30
0.0
  0
LWPOLYLINE
  5
1ae
100
AcDbEntity
  8
0
 62
1
100
AcDbPolyline
 90
2
 70
0
 10
150.318239
 20
275.924446
 30
0.0
 10
150.318239
 20
278.633779
 30
0.0
  0
LWPOLYLINE
  5
1af
100
AcDbEntity
  8
0
 62
5
100
AcDbPolyline
 90
5
 70
0
 10
141.851538
 20
280.090534
 30
0.0
 10
145.337863
 20
280.148065
 30
0.0
 10
149.391350
 20
270.756543
 30
0.0
 10
148.624900
 20
268.358731
 30
0.0
 10
150.318239
 20
265.425779
 30
0.0
  0
LWPOLYLINE
  5
1b0
100
AcDbEntity
  8
0
 62
5
100
AcDbPolyline
 90
4
 70
0
 10
142.088932
 20
278.663353
 30
0.0
 10
143.160837
 20
278.500098
 30
0.0
 10
146.208849
 20
273.220786
 30
0.0
 10
145.814280
 20
272.210861
 30
0.0
  0
LWPOLYLINE
  5
1b1
100
AcDbEntity
  8
0
 62
1
100
AcDbPolyline
 90
2
 70
0
 10
141.851538
 20
280.090534
 30
0.0
 10
142.528874
 20
278.917354
 30
0.0
  0
LWPOLYLINE
  5
1b2
100
AcDbEntity
  8
0
 62
1
100
AcDbPolyline
 90
2
 70
0
 10
148.624900
 20
268.358731
 30
0.0
 10
146.254222
 20
272.464862
 30
0.0
  0
SPLINE
  5
1b3
100
AcDbEntity
  8
0
 62
5
100
AcDbSpline
 70
0
 71
3
 72
10
 73
6
 74
4
 40
0.000000
 40
0.000000
 40
0.000000
 40
0.000000
 40
1.197285
 40
2.328489
 40
2.836644
 40
2.836644
 40
2.836644
 40
2.836644
 10
147.608905
 20
279.311113
 30
0.0
 10
147.903111
 20
279.583485
 30
0.0
 10
148.475285
 20
280.113198
 30
0.0
 10
149.324548
 20
280.547890
 30
0.0
 10
149.824577
 20
280.767149
 30
0.0
 10
149.979572
 20
280.835113
 30
0.0
 11
147.608905
 21
279.311113
 31
0.0
 11
148.524560
 21
280.082520
 31
0.0
 11
149.515473
 21
280.628150
 31
0.0
 11
149.979572
 21
280.835113
 31
0.0
  0
SPLINE
  5
1b4
100
AcDbEntity
  8
0
 62
5
100
AcDbSpline
 70
0
 71
3
 72
10
 73
6
 74
4
 40
0.000000
 40
0.000000
 40
0.000000
 40
0.000000
 40
0.168285
 40
0.650181
 40
1.455494
 40
1.455494
 40
1.455494
 40
1.455494
 10
137.240258
 20
272.780863
 30
0.0
 10
137.208234
 20
272.827007
 30
0.0
 10
137.084507
 20
273.005287
 30
0.0
 10
136.919431
 20
273.471363
 30
0.0
 10
136.888025
 20
273.900359
 30
0.0
 10
136.868377
 20
274.168751
 30
0.0
 11
137.240258
 21
272.780863
 31
0.0
 11
137.147535
 21
272.921299
 31
0.0
 11
136.972171
 21
273.370155
 31
0.0
 11
136.868377
 21
274.168751
 31
0.0
  0
SPLINE
  5
1b5
100
AcDbEntity
  8
0
 62
5
100
AcDbSpline
 70
0
 71
3
 72
10
 73
6
 74
4
 40
0.000000
 40
0.000000
 40
0.000000
 40
0.000000
 40
1.568773
 40
3.234017
 40
4.770413
 40
4.770413
 40
4.770413
 40
4.770413
 10
136.868377
 20
274.168751
 30
0.0
 10
136.966460
 20
274.682492
 30
0.0
 10
137.168657
 20
275.741568
 30
0.0
 10
137.557357
 20
277.284225
 30
0.0
 10
137.843764
 20
278.312246
 30
0.0
 10
137.981205
 20
278.805570
 30
0.0
 11
136.868377
 21
274.168751
 31
0.0
 11
137.177053
 21
275.706855
 31
0.0
 11
137.574763
 21
277.323910
 31
0.0
 11
137.981205
 21
278.805570
 31
0.0
  0
LWPOLYLINE
  5
1b6
100
AcDbEntity
  8
0
 62
5
100
AcDbPolyline
 90
4
 70
0
 10
133.384871
 20
265.425799
 30
0.0
 10
138.041558
 20
273.491414
 30
0.0
 10
137.748261
 20
273.660748
 30
0.0
 10
137.240258
 20
272.780863
 30
0.0
  0
LWPOLYLINE
  5
1b7
100
AcDbEntity
  8
0
 62
5
100
AcDbPolyline
 90
4
 70
0
 10
140.796272
 20
278.940060
 30
0.0
 10
140.288272
 20
278.060175
 30
0.0
 10
140.581566
 20
277.890841
 30
0.0
 10
141.851572
 20
280.090554
 30
0.0
  0
LWPOLYLINE
  5
1b8
100
AcDbEntity
  8
0
 62
1
100
AcDbPolyline
 90
2
 70
0
 10
138.634224
 20
274.517947
 30
0.0
 10
139.988897
 20
276.864308
 30
0.0
  0
LWPOLYLINE
  5
1b9
100
AcDbEntity
  8
0
 62
5
100
AcDbPolyline
 90
5
 70
0
 10
133.384905
 20
282.359113
 30
0.0
 10
136.432905
 20
280.665779
 30
0.0
 10
135.247572
 20
270.505779
 30
0.0
 10
133.384905
 20
268.812446
 30
0.0
 10
133.384905
 20
265.425779
 30
0.0
  0
LWPOLYLINE
  5
1ba
100
AcDbEntity
  8
0
 62
5
100
AcDbPolyline
 90
4
 70
0
 10
132.876905
 20
281.004446
 30
0.0
 10
133.723572
 20
280.327113
 30
0.0
 10
133.723572
 20
274.231113
 30
0.0
 10
132.876905
 20
273.553779
 30
0.0
  0
LWPOLYLINE
  5
1bb
100
AcDbEntity
  8
0
 62
1
100
AcDbPolyline
 90
2
 70
0
 10
133.384905
 20
282.359113
 30
0.0
 10
133.384905
 20
281.004446
 30
0.0
  0
LWPOLYLINE
  5
1bc
100
AcDbEntity
  8
0
 62
1
100
AcDbPolyline
 90
2
 70
0
 10
133.384905
 20
268.812446
 30
0.0
 10
133.384905
 20
273.553779
 30
0.0
  0
SPLINE
  5
1bd
100
AcDbEntity
  8
0
 62
5
100
AcDbSpline
 70
0
 71
3
 72
10
 73
6
 74
4
 40
0.000000
 40
0.000000
 40
0.000000
 40
0.000000
 40
1.197291
 40
2.328498
 40
2.836654
 40
2.836654
 40
2.836654
 40
2.836654
 10
137.981205
 20
278.805570
 30
0.0
 10
138.372183
 20
278.894349
 30
0.0
 10
139.132559
 20
279.067008
 30
0.0
 10
140.085391
 20
279.018830
 30
0.0
 10
140.628060
 20
278.958699
 30
0.0
 10
140.796272
 20
278.940060
 30
0.0
 11
137.981205
 21
278.805570
 31
0.0
 11
139.159893
 21
279.015802
 31
0.0
 11
140.290868
 21
278.992875
 31
0.0
 11
140.796272
 21
278.940060
 31
0.0
  0
SPLINE
  5
1be
100
AcDbEntity
  8
0
 62
5
100
AcDbSpline
 70
0
 71
3
 72
10
 73
6
 74
4
 40
0.000000
 40
0.000000
 40
0.000000
 40
0.000000
 40
0.383748
 40
1.264635
 40
2.310847
 40
2.310847
 40
2.310847
 40
2.310847
 10
133.723572
 20
287.269780
 30
0.0
 10
133.849148
 20
287.293095
 30
0.0
 10
134.262983
 20
287.369931
 30
0.0
 10
135.010583
 20
287.615762
 30
0.0
 10
135.493434
 20
288.050022
 30
0.0
 10
135.755572
 20
288.285780
 30
0.0
 11
133.723572
 21
287.269780
 31
0.0
 11
134.099868
 21
287.345039
 31
0.0
 11
134.927720
 21
287.646076
 31
0.0
 11
135.755572
 21
288.285780
 31
0.0
  0
SPLINE
  5
1bf
100
AcDbEntity
  8
0
 62
5
100
AcDbSpline
 70
0
 71
3
 72
10
 73
6
 74
4
 40
0.000000
 40
0.000000
 40
0.000000
 40
0.000000
 40
1.754122
 40
3.597974
 40
5.352096
 40
5.352096
 40
5.352096
 40
5.352096
 10
135.755572
 20
288.285780
 30
0.0
 10
136.025161
 20
288.810275
 30
0.0
 10
136.578128
 20
289.886094
 30
0.0
 10
136.578128
 20
291.765465
 30
0.0
 10
136.025161
 20
292.841285
 30
0.0
 10
135.755572
 20
293.365780
 30
0.0
 11
135.755572
 21
288.285780
 31
0.0
 11
136.432905
 21
289.903854
 31
0.0
 11
136.432905
 21
291.747705
 31
0.0
 11
135.755572
 21
293.365780
 31
0.0
  0
LWPOLYLINE
  5
1c0
100
AcDbEntity
  8
0
 62
5
100
AcDbPolyline
 90
4
 70
0
 10
133.384905
 20
282.359113
 30
0.0
 10
133.384905
 20
288.285780
 30
0.0
 10
133.723572
 20
288.285780
 30
0.0
 10
133.723572
 20
287.269780
 30
0.0
  0
LWPOLYLINE
  5
1c1
100
AcDbEntity
  8
0
 62
5
100
AcDbPolyline
 90
4
 70
0
 10
133.723572
 20
294.381780
 30
0.0
 10
133.723572
 20
293.365780
 30
0.0
 10
133.384905
 20
293.365780
 30
0.0
 10
133.384905
 20
299.292446
 30
0.0
  0
LWPOLYLINE
  5
1c2
100
AcDbEntity
  8
0
 62
1
100
AcDbPolyline
 90
2
 70
0
 10
133.384905
 20
289.471113
 30
0.0
 10
133.384905
 20
292.180446
 30
0.0
  0
LWPOLYLINE
  5
1c3
100
AcDbEntity
  8
0
 62
5
100
AcDbPolyline
 90
4
 70
0
 10
116.451572
 20
299.292446
 30
0.0
 10
119.838239
 20
302.509780
 30
0.0
 10
129.998239
 20
302.509780
 30
0.0
 10
133.384905
 20
299.292446
 30
0.0
  0
LWPOLYLINE
  5
1c4
100
AcDbEntity
  8
0
 62
5
100
AcDbPolyline
 90
4
 70
0
 10
121.192905
 20
298.784446
 30
0.0
 10
121.870239
 20
299.631113
 30
0.0
 10
127.966239
 20
299.631113
 30
0.0
 10
128.643572
 20
298.784446
 30
0.0
  0
LWPOLYLINE
  5
1c5
100
AcDbEntity
  8
0
 62
1
100
AcDbPolyline
 90
2
 70
0
 10
116.451572
 20
299.292446
 30
0.0
 10
121.192905
 20
299.292446
 30
0.0
  0
LWPOLYLINE
  5
1c6
100
AcDbEntity
  8
0
 62
1
100
AcDbPolyline
 90
2
 70
0
 10
133.384905
 20
299.292446
 30
0.0
 10
128.643572
 20
299.292446
 30
0.0
  0
SPLINE
  5
1c7
100
AcDbEntity
  8
0
 62
5
100
AcDbSpline
 70
0
 71
3
 72
10
 73
6
 74
4
 40
0.000000
 40
0.000000
 40
0.000000
 40
0.000000
 40
1.046212
 40
1.927099
 40
2.310847
 40
2.310847
 40
2.310847
 40
2.310847
 10
135.755572
 20
293.365780
 30
0.0
 10
135.493434
 20
293.601537
 30
0.0
 10
135.010583
 20
294.035797
 30
0.0
 10
134.262983
 20
294.281628
 30
0.0
 10
133.849148
 20
294.358464
 30
0.0
 10
133.723572
 20
294.381780
 30
0.0
 11
135.755572
 21
293.365780
 31
0.0
 11
134.927720
 21
294.005483
 31
0.0
 11
134.099868
 21
294.306520
 31
0.0
 11
133.723572
 21
294.381780
 31
0.0
  0
SPLINE
  5
1c8
100
AcDbEntity
  8
0
 62
5
100
AcDbSpline
 70
0
 71
3
 72
10
 73
6
 74
4
 40
0.000000
 40
0.000000
 40
0.000000
 40
0.000000
 40
0.383748
 40
1.264635
 40
2.310847
 40
2.310847
 40
2.310847
 40
2.310847
 10
116.112905
 20
287.269780
 30
0.0
 10
115.987329
 20
287.293095
 30
0.0
 10
115.573494
 20
287.369931
 30
0.0
 10
114.825894
 20
287.615762
 30
0.0
 10
114.343043
 20
288.050022
 30
0.0
 10
114.080905
 20
288.285780
 30
0.0
 11
116.112905
 21
287.269780
 31
0.0
 11
115.736609
 21
287.345039
 31
0.0
 11
114.908757
 21
287.646076
 31
0.0
 11
114.080905
 21
288.285780
 31
0.0
  0
SPLINE
  5
1c9
100
AcDbEntity
  8
0
 62
5
100
AcDbSpline
 70
0
 71
3
 72
10
 73
6
 74
4
 40
0.000000
 40
0.000000
 40
0.000000
 40
0.000000
 40
1.754122
 40
3.597974
 40
5.352096
 40
5.352096
 40
5.352096
 40
5.352096
 10
114.080905
 20
288.285780
 30
0.0
 10
113.811317
 20
288.810275
 30
0.0
 10
113.258349
 20
289.886094
 30
0.0
 10
113.258349
 20
291.765465
 30
0.0
 10
113.811317
 20
292.841285
 30
0.0
 10
114.080905
 20
293.365780
 30
0.0
 11
114.080905
 21
288.285780
 31
0.0
 11
113.403572
 21
289.903854
 31
0.0
 11
113.403572
 21
291.747705
 31
0.0
 11
114.080905
 21
293.365780
 31
0.0
  0
LWPOLYLINE
  5
1ca
100
AcDbEntity
  8
0
 62
5
100
AcDbPolyline
 90
4
 70
0
 10
116.451572
 20
282.359113
 30
0.0
 10
116.451572
 20
288.285780
 30
0.0
 10
116.112905
 20
288.285780
 30
0.0
 10
116.112905
 20
287.269780
 30
0.0
  0
LWPOLYLINE
  5
1cb
100
AcDbEntity
  8
0
 62
5
100
AcDbPolyline
 90
4
 70
0
 10
116.112905
 20
294.381780
 30
0.0
 10
116.112905
 20
293.365780
 30
0.0
 10
116.451572
 20
293.365780
 30
0.0
 10
116.451572
 20
299.292446
 30
0.0
  0
LWPOLYLINE
  5
1cc
100
AcDbEntity
  8
0
 62
1
100
AcDbPolyline
 90
2
 70
0
 10
116.451572
 20
289.471113
 30
0.0
 10
116.451572
 20
292.180446
 30
0.0
  0
LWPOLYLINE
  5
1cd
100
AcDbEntity
  8
0
 62
5
100
AcDbPolyline
 90
5
 70
0
 10
116.451572
 20
282.359113
 30
0.0
 10
113.403572
 20
280.665779
 30
0.0
 10
114.588905
 20
270.505779
 30
0.0
 10
116.451572
 20
268.812446
 30
0.0
 10
116.451572
 20
265.425779
 30
0.0
  0
LWPOLYLINE
  5
1ce
100
AcDbEntity
  8
0
 62
5
100
AcDbPolyline
 90
4
 70
0
 10
116.959572
 20
281.004446
 30
0.0
 10
116.112905
 20
280.327113
 30
0.0
 10
116.112905
 20
274.231113
 30
0.0
 10
116.959572
 20
273.553779
 30
0.0
  0
LWPOLYLINE
  5
1cf
100
AcDbEntity
  8
0
 62
1
100
AcDbPolyline
 90
2
 70
0
 10
116.451572
 20
282.359113
 30
0.0
 10
116.451572
 20
281.004446
 30
0.0
  0
LWPOLYLINE
  5
1d0
100
AcDbEntity
  8
0
 62
1
100
AcDbPolyline
 90
2
 70
0
 10
116.451572
 20
268.812446
 30
0.0
 10
116.451572
 20
273.553779
 30
0.0
  0
SPLINE
  5
1d1
100
AcDbEntity
  8
0
 62
5
100
AcDbSpline
 70
0
 71
3
 72
10
 73
6
 74
4
 40
0.000000
 40
0.000000
 40
0.000000
 40
0.000000
 40
1.046212
 40
1.927099
 40
2.310847
 40
2.310847
 40
2.310847
 40
2.310847
 10
114.080905
 20
293.365780
 30
0.0
 10
114.343043
 20
293.601537
 30
0.0
 10
114.825894
 20
294.035797
 30
0.0
 10
115.573494
 20
294.281628
 30
0.0
 10
115.987329
 20
294.358464
 30
0.0
 10
116.112905
 20
294.381780
 30
0.0
 11
114.080905
 21
293.365780
 31
0.0
 11
114.908757
 21
294.005483
 31
0.0
 11
115.736609
 21
294.306520
 31
0.0
 11
116.112905
 21
294.381780
 31
0.0
  0
SPLINE
  5
1d2
100
AcDbEntity
  8
0
 62
5
100
AcDbSpline
 70
0
 71
3
 72
10
 73
6
 74
4
 40
0.000000
 40
0.000000
 40
0.000000
 40
0.000000
 40
0.168285
 40
0.650181
 40
1.455494
 40
1.455494
 40
1.455494
 40
1.455494
 10
112.596185
 20
272.780843
 30
0.0
 10
112.628209
 20
272.826987
 30
0.0
 10
112.751936
 20
273.005267
 30
0.0
 10
112.917012
 20
273.471343
 30
0.0
 10
112.948418
 20
273.900339
 30
0.0
 10
112.968066
 20
274.168731
 30
0.0
 11
112.596185
 21
272.780843
 31
0.0
 11
112.688908
 21
272.921280
 31
0.0
 11
112.864272
 21
273.370135
 31
0.0
 11
112.968066
 21
274.168731
 31
0.0
  0
SPLINE
  5
1d3
100
AcDbEntity
  8
0
 62
5
100
AcDbSpline
 70
0
 71
3
 72
10
 73
6
 74
4
 40
0.000000
 40
0.000000
 40
0.000000
 40
0.000000
 40
1.568773
 40
3.234017
 40
4.770413
 40
4.770413
 40
4.770413
 40
4.770413
 10
112.968066
 20
274.168731
 30
0.0
 10
112.869984
 20
274.682472
 30
0.0
 10
112.667787
 20
275.741548
 30
0.0
 10
112.279086
 20
277.284205
 30
0.0
 10
111.992679
 20
278.312226
 30
0.0
 10
111.855239
 20
278.805550
 30
0.0
 11
112.968066
 21
274.168731
 31
0.0
 11
112.659390
 21
275.706836
 31
0.0
 11
112.261680
 21
277.323890
 31
0.0
 11
111.855239
 21
278.805550
 31
0.0
  0
LWPOLYLINE
  5
1d4
100
AcDbEntity
  8
0
 62
5
100
AcDbPolyline
 90
4
 70
0
 10
116.451572
 20
265.425779
 30
0.0
 10
111.794885
 20
273.491395
 30
0.0
 10
112.088182
 20
273.660729
 30
0.0
 10
112.596185
 20
272.780843
 30
0.0
  0
LWPOLYLINE
  5
1d5
100
AcDbEntity
  8
0
 62
5
100
AcDbPolyline
 90
4
 70
0
 10
109.040171
 20
278.940041
 30
0.0
 10
109.548171
 20
278.060155
 30
0.0
 10
109.254877
 20
277.890821
 30
0.0
 10
107.984871
 20
280.090534
 30
0.0
  0
LWPOLYLINE
  5
1d6
100
AcDbEntity
  8
0
 62
1
100
AcDbPolyline
 90
2
 70
0
 10
111.202219
 20
274.517927
 30
0.0
 10
109.847547
 20
276.864288
 30
0.0
  0
LWPOLYLINE
  5
1d7
100
AcDbEntity
  8
0
 62
5
100
AcDbPolyline
 90
5
 70
0
 10
107.984905
 20
280.090554
 30
0.0
 10
104.498580
 20
280.148085
 30
0.0
 10
100.445093
 20
270.756563
 30
0.0
 10
101.211544
 20
268.358751
 30
0.0
 10
99.518205
 20
265.425799
 30
0.0
  0
LWPOLYLINE
  5
1d8
100
AcDbEntity
  8
0
 62
5
100
AcDbPolyline
 90
4
 70
0
 10
107.747511
 20
278.663373
 30
0.0
 10
106.675606
 20
278.500118
 30
0.0
 10
103.627595
 20
273.220806
 30
0.0
 10
104.022164
 20
272.210880
 30
0.0
  0
LWPOLYLINE
  5
1d9
100
AcDbEntity
  8
0
 62
1
100
AcDbPolyline
 90
2
 70
0
 10
107.984905
 20
280.090554
 30
0.0
 10
107.307569
 20
278.917374
 30
0.0
  0
LWPOLYLINE
  5
1da
100
AcDbEntity
  8
0
 62
1
100
AcDbPolyline
 90
2
 70
0
 10
101.211544
 20
268.358751
 30
0.0
 10
103.582222
 20
272.464882
 30
0.0
  0
SPLINE
  5
1db
100
AcDbEntity
  8
0
 62
5
100
AcDbSpline
 70
0
 71
3
 72
10
 73
6
 74
4
 40
0.000000
 40
0.000000
 40
0.000000
 40
0.000000
 40
1.197291
 40
2.328498
 40
2.836654
 40
2.836654
 40
2.836654
 40
2.836654
 10
111.855239
 20
278.805550
 30
0.0
 10
111.464261
 20
278.894330
 30
0.0
 10
110.703884
 20
279.066988
 30
0.0
 10
109.751052
 20
279.018810
 30
0.0
 10
109.208383
 20
278.958680
 30
0.0
 10
109.040171
 20
278.940041
 30
0.0
 11
111.855239
 21
278.805550
 31
0.0
 11
110.676550
 21
279.015783
 31
0.0
 11
109.545575
 21
278.992855
 31
0.0
 11
109.040171
 21
278.940041
 31
0.0
  0
SPLINE
  5
1dc
100
AcDbEntity
  8
0
 62
5
100
AcDbSpline
 70
0
 71
3
 72
10
 73
6
 74
4
 40
0.000000
 40
0.000000
 40
0.000000
 40
0.000000
 40
0.168285
 40
0.650179
 40
1.455488
 40
1.455488
 40
1.455488
 40
1.455488
 10
99.856905
 20
273.723113
 30
0.0
 10
99.907711
 20
273.747062
 30
0.0
 10
100.104001
 20
273.839593
 30
0.0
 10
100.479998
 20
274.160687
 30
0.0
 10
100.721694
 20
274.516504
 30
0.0
 10
100.872905
 20
274.739113
 30
0.0
 11
99.856905
 21
273.723113
 31
0.0
 11
100.007424
 21
273.798372
 31
0.0
 11
100.383720
 21
274.099409
 31
0.0
 11
100.872905
 21
274.739113
 31
0.0
  0
SPLINE
  5
1dd
100
AcDbEntity
  8
0
 62
5
100
AcDbSpline
 70
0
 71
3
 72
10
 73
6
 74
4
 40
0.000000
 40
0.000000
 40
0.000000
 40
0.000000
 40
1.568766
 40
3.234005
 40
4.770394
 40
4.770394
 40
4.770394
 40
4.770394
 10
100.872905
 20
274.739113
 30
0.0
 10
101.044833
 20
275.233065
 30
0.0
 10
101.399261
 20
276.251347
 30
0.0
 10
101.833964
 20
277.781671
 30
0.0
 10
102.099937
 20
278.815163
 30
0.0
 10
102.227572
 20
279.311113
 30
0.0
 11
100.872905
 21
274.739113
 31
0.0
 11
101.374634
 21
276.225483
 31
0.0
 11
101.838732
 21
277.824742
 31
0.0
 11
102.227572
 21
279.311113
 31
0.0
  0
LWPOLYLINE
  5
1de
100
AcDbEntity
  8
0
 62
5
100
AcDbPolyline
 90
4
 70
0
 10
99.518239
 20
265.425779
 30
0.0
 10
99.518239
 20
274.739113
 30
0.0
 10
99.856905
 20
274.739113
 30
0.0
 10
99.856905
 20
273.723113
 30
0.0
  0
LWPOLYLINE
  5
1df
100
AcDbEntity
  8
0
 62
5
100
AcDbPolyline
 90
4
 70
0
 10
99.856905
 20
280.835113
 30
0.0
 10
99.856905
 20
279.819113
 30
0.0
 10
99.518239
 20
279.819113
 30
0.0
 10
99.518239
 20
282.359113
 30
0.0
  0
LWPOLYLINE
  5
1e0
100
AcDbEntity
  8
0
 62
1
100
AcDbPolyline
 90
2
 70
0
 10
99.518239
 20
275.924446
 30
0.0
 10
99.518239
 20
278.633779
 30
0.0
  0
LWPOLYLINE
  5
1e1
100
AcDbEntity
  8
0
 62
5
100
AcDbPolyline
 90
4
 70
0
 10
82.584905
 20
282.359113
 30
0.0
 10
85.971572
 20
285.576446
 30
0.0
 10
96.131572
 20
285.576446
 30
0.0
 10
99.518239
 20
282.359113
 30
0.0
  0
LWPOLYLINE
  5
1e2
100
AcDbEntity
  8
0
 62
5
100
AcDbPolyline
 90
4
 70
0
 10
87.326239
 20
281.851113
 30
0.0
 10
88.003572
 20
282.697780
 30
0.0
 10
94.099572
 20
282.697780
 30
0.0
 10
94.776905
 20
281.851113
 30
0.0
  0
LWPOLYLINE
  5
1e3
100
AcDbEntity
  8
0
 62
1
100
AcDbPolyline
 90
2
 70
0
 10
82.584905
 20
282.359113
 30
0.0
 10
87.326239
 20
282.359113
 30
0.0
  0
LWPOLYLINE
  5
1e4
100
AcDbEntity
  8
0
 62
1
100
AcDbPolyline
 90
2
 70
0
 10
99.518239
 20
282.359113
 30
0.0
 10
94.776905
 20
282.359113
 30
0.0
  0
LWPOLYLINE
  5
1e5
100
AcDbEntity
  8
0
 62
1
100
AcDbPolyline
 90
2
 70
0
 10
82.584905
 20
265.425779
 30
0.0
 10
99.518239
 20
265.425779
 30
0.0
  0
LWPOLYLINE
  5
1e6
100
AcDbEntity
  8
0
 62
1
100
AcDbPolyline
 90
2
 70
0
 10
82.584905
 20
248.492446
 30
0.0
 10
99.518239
 20
248.492446
 30
0.0
  0
LWPOLYLINE
  5
1e7
100
AcDbEntity
  8
0
 62
1
100
AcDbPolyline
 90
2
 70
0
 10
99.518239
 20
265.425779
 30
0.0
 10
99.518239
 20
248.492446
 30
0.0
  0
LWPOLYLINE
  5
1e8
100
AcDbEntity
  8
0
 62
1
100
AcDbPolyline
 90
2
 70
0
 10
99.518239
 20
265.425779
 30
0.0
 10
116.451572
 20
265.425779
 30
0.0
  0
LWPOLYLINE
  5
1e9
100
AcDbEntity
  8
0
 62
1
100
AcDbPolyline
 90
2
 70
0
 10
99.518239
 20
248.492446
 30
0.0
 10
116.451572
 20
248.492446
 30
0.0
  0
LWPOLYLINE
  5
1ea
100
AcDbEntity
  8
0
 62
1
100
AcDbPolyline
 90
2
 70
0
 10
116.451572
 20
282.359113
 30
0.0
 10
133.384905
 20
282.359113
 30
0.0
  0
LWPOLYLINE
  5
1eb
100
AcDbEntity
  8
0
 62
1
100
AcDbPolyline
 90
2
 70
0
 10
116.451572
 20
265.425779
 30
0.0
 10
116.451572
 20
248.492446
 30
0.0
  0
LWPOLYLINE
  5
1ec
100
AcDbEntity
  8
0
 62
1
100
AcDbPolyline
 90
2
 70
0
 10
116.451572
 20
265.425779
 30
0.0
 10
133.384905
 20
265.425779
 30
0.0
  0
LWPOLYLINE
  5
1ed
100
AcDbEntity
  8
0
 62
1
100
AcDbPolyline
 90
2
 70
0
 10
116.451572
 20
248.492446
 30
0.0
 10
133.384905
 20
248.492446
 30
0.0
  0
LWPOLYLINE
  5
1ee
100
AcDbEntity
  8
0
 62
1
100
AcDbPolyline
 90
2
 70
0
 10
116.451572
 20
231.559113
 30
0.0
 10
133.384905
 20
231.559113
 30
0.0
  0
LWPOLYLINE
  5
1ef
100
AcDbEntity
  8
0
 62
1
100
AcDbPolyline
 90
2
 70
0
 10
133.384905
 20
265.425779
 30
0.0
 10
133.384905
 20
248.492446
 30
0.0
  0
LWPOLYLINE
  5
1f0
100
AcDbEntity
  8
0
 62
1
100
AcDbPolyline
 90
2
 70
0
 10
133.384905
 20
265.425779
 30
0.0
 10
150.318239
 20
265.425779
 30
0.0
  0
LWPOLYLINE
  5
1f1
100
AcDbEntity
  8
0
 62
1
100
AcDbPolyline
 90
2
 70
0
 10
133.384905
 20
248.492446
 30
0.0
 10
150.318239
 20
248.492446
 30
0.0
  0
LWPOLYLINE
  5
1f2
100
AcDbEntity
  8
0
 62
1
100
AcDbPolyline
 90
2
 70
0
 10
150.318239
 20
265.425779
 30
0.0
 10
150.318239
 20
248.492446
 30
0.0
  0
LWPOLYLINE
  5
1f3
100
AcDbEntity
  8
0
 62
1
100
AcDbPolyline
 90
2
 70
0
 10
150.318239
 20
265.425779
 30
0.0
 10
167.251572
 20
265.425779
 30
0.0
  0
LWPOLYLINE
  5
1f4
100
AcDbEntity
  8
0
 62
1
100
AcDbPolyline
 90
2
 70
0
 10
150.318239
 20
248.492446
 30
0.0
 10
167.251572
 20
248.492446
 30
0.0
  0
LWPOLYLINE
  5
1f5
100
AcDbEntity
  8
0
 62
1
100
AcDbPolyline
 90
2
 70
0
 10
167.251572
 20
265.425779
 30
0.0
 10
167.251572
 20
248.492446
 30
0.0
  0
LWPOLYLINE
  5
1f6
100
AcDbEntity
  8
0
 62
1
100
AcDbPolyline
 90
2
 70
0
 10
167.251572
 20
265.425779
 30
0.0
 10
184.184905
 20
265.425779
 30
0.0
  0
LWPOLYLINE
  5
1f7
100
AcDbEntity
  8
0
 62
1
100
AcDbPolyline
 90
2
 70
0
 10
167.251572
 20
248.492446
 30
0.0
 10
184.184905
 20
248.492446
 30
0.0
  0
LWPOLYLINE
  5
1f8
100
AcDbEntity
  8
0
 62
1
100
AcDbPolyline
 90
2
 70
0
 10
184.184905
 20
265.425779
 30
0.0
 10
184.184905
 20
248.492446
 30
0.0
  0
LWPOLYLINE
  5
1f9
100
AcDbEntity
  8
0
 62
1
100
AcDbPolyline
 90
2
 70
0
 10
184.184905
 20
265.425779
 30
0.0
 10
201.118239
 20
265.425779
 30
0.0
  0
LWPOLYLINE
  5
1fa
100
AcDbEntity
  8
0
 62
1
100
AcDbPolyline
 90
2
 70
0
 10
184.184905
 20
248.492446
 30
0.0
 10
201.118239
 20
248.492446
 30
0.0
  0
LWPOLYLINE
  5
1fb
100
AcDbEntity
  8
0
 62
1
100
AcDbPolyline
 90
2
 70
0
 10
201.118239
 20
265.425779
 30
0.0
 10
201.118239
 20
248.492446
 30
0.0
  0
LWPOLYLINE
  5
1fc
100
AcDbEntity
  8
0
 62
1
100
AcDbPolyline
 90
2
 70
0
 10
201.118239
 20
265.425779
 30
0.0
 10
218.051572
 20
265.425779
 30
0.0
  0
SPLINE
  5
1fd
100
AcDbEntity
  8
0
 62
5
100
AcDbSpline
 70
0
 71
3
 72
10
 73
6
 74
4
 40
0.000000
 40
0.000000
 40
0.000000
 40
0.000000
 40
1.197285
 40
2.328489
 40
2.836644
 40
2.836644
 40
2.836644
 40
2.836644
 10
102.227572
 20
279.311113
 30
0.0
 10
101.933366
 20
279.583485
 30
0.0
 10
101.361192
 20
280.113198
 30
0.0
 10
100.511929
 20
280.547890
 30
0.0
 10
100.011900
 20
280.767149
 30
0.0
 10
99.856905
 20
280.835113
 30
0.0
 11
102.227572
 21
279.311113
 31
0.0
 11
101.311918
 21
280.082520
 31
0.0
 11
100.321004
 21
280.628150
 31
0.0
 11
99.856905
 21
280.835113
 31
0.0
  0
LWPOLYLINE
  5
1fe
100
AcDbEntity
  8
0
 62
1
100
AcDbPolyline
 90
2
 70
0
 10
201.118239
 20
248.492446
 30
0.0
 10
218.051572
 20
248.492446
 30
0.0
  0
ENDSEC
  0
SECTION
  2
OBJECTS
  0
DICTIONARY
  5
C
330
0
100
AcDbDictionary
  3
ACAD_GROUP
350
D
  3
ACAD_MLINESTYLE
350
17
  0
DICTIONARY
  5
D
330
C
100
AcDbDictionary
  0
DICTIONARY
  5
1A
330
C
100
AcDbDictionary
  0
DICTIONARY
  5
17
330
C
100
AcDbDictionary
  3
STANDARD
350
18
  0
DICTIONARY
  5
19
330
C
100
AcDbDictionary
  0
ENDSEC
  0
EOF
