999
DXF created by Inkscape
  0
SECTION
  2
HEADER
  9
$ACADVER
  1
AC1014
  9
$HANDSEED
  5
FFFF
  9
$MEASUREMENT
 70
     1
  0
ENDSEC
  0
SECTION
  2
TABLES
  0
TABLE
  2
VPORT
  5
8
330
0
100
AcDbSymbolTable
 70
     4
  0
VPORT
  5
2E
330
8
100
AcDbSymbolTableRecord
100
AcDbViewportTableRecord
  2
*ACTIVE
 70
     0
 10
0.0
 20
0.0
 11
1.0
 21
1.0
 12
210.0
 22
148.5
 13
0.0
 23
0.0
 14
10.0
 24
10.0
 15
10.0
 25
10.0
 16
0.0
 26
0.0
 36
1.0
 17
0.0
 27
0.0
 37
0.0
 40
341.0
 41
1.24
 42
50.0
 43
0.0
 44
0.0
 50
0.0
 51
0.0
 71
     0
 72
   100
 73
     1
 74
     3
 75
     0
 76
     0
 77
     0
 78
     0
  0
ENDTAB
  0
TABLE
  2
LTYPE
  5
5
330
0
100
AcDbSymbolTable
 70
     1
  0
LTYPE
  5
14
330
5
100
AcDbSymbolTableRecord
100
AcDbLinetypeTableRecord
  2
BYBLOCK
 70
     0
  3

 72
    65
 73
     0
 40
0.0
  0
LTYPE
  5
15
330
5
100
AcDbSymbolTableRecord
100
AcDbLinetypeTableRecord
  2
BYLAYER
 70
     0
  3

 72
    65
 73
     0
 40
0.0
  0
LTYPE
  5
16
330
5
100
AcDbSymbolTableRecord
100
AcDbLinetypeTableRecord
  2
CONTINUOUS
 70
     0
  3
Solid line
 72
    65
 73
     0
 40
0.0
  0
ENDTAB
  0
TABLE
  2
LAYER
  5
2
330
0
100
AcDbSymbolTable
 70
1
  0
LAYER
  5
10
330
2
100
AcDbSymbolTableRecord
100
AcDbLayerTableRecord
  2
0
 70
     0
 62
     7
  6
CONTINUOUS
  0
ENDTAB
  0
TABLE
  2
STYLE
  5
3
330
0
100
AcDbSymbolTable
 70
     1
  0
STYLE
  5
11
330
3
100
AcDbSymbolTableRecord
100
AcDbTextStyleTableRecord
  2
STANDARD
 70
     0
 40
0.0
 41
1.0
 50
0.0
 71
     0
 42
2.5
  3
txt
  4

  0
ENDTAB
  0
TABLE
  2
VIEW
  5
6
330
0
100
AcDbSymbolTable
 70
     0
  0
ENDTAB
  0
TABLE
  2
UCS
  5
7
330
0
100
AcDbSymbolTable
 70
     0
  0
ENDTAB
  0
TABLE
  2
APPID
  5
9
330
0
100
AcDbSymbolTable
 70
     2
  0
APPID
  5
12
330
9
100
AcDbSymbolTableRecord
100
AcDbRegAppTableRecord
  2
ACAD
 70
     0
  0
ENDTAB
  0
TABLE
  2
DIMSTYLE
  5
A
330
0
100
AcDbSymbolTable
 70
     1
  0
DIMSTYLE
105
27
330
A
100
AcDbSymbolTableRecord
100
AcDbDimStyleTableRecord
  2
ISO-25
 70
     0
  3

  4

  5

  6

  7

 40
1.0
 41
2.5
 42
0.625
 43
3.75
 44
1.25
 45
0.0
 46
0.0
 47
0.0
 48
0.0
140
2.5
141
2.5
142
0.0
143
0.03937007874016
144
1.0
145
0.0
146
1.0
147
0.625
 71
     0
 72
     0
 73
     0
 74
     0
 75
     0
 76
     0
 77
     1
 78
     8
170
     0
171
     3
172
     1
173
     0
174
     0
175
     0
176
     0
177
     0
178
     0
270
     2
271
     2
272
     2
273
     2
274
     3
340
11
275
     0
280
     0
281
     0
282
     0
283
     0
284
     8
285
     0
286
     0
287
     3
288
     0
  0
ENDTAB
  0
TABLE
  2
BLOCK_RECORD
  5
1
330
0
100
AcDbSymbolTable
 70
     1
  0
BLOCK_RECORD
  5
1F
330
1
100
AcDbSymbolTableRecord
100
AcDbBlockTableRecord
  2
*MODEL_SPACE
  0
BLOCK_RECORD
  5
1B
330
1
100
AcDbSymbolTableRecord
100
AcDbBlockTableRecord
  2
*PAPER_SPACE
  0
ENDTAB
  0
ENDSEC
  0
SECTION
  2
BLOCKS
  0
BLOCK
  5
20
330
1F
100
AcDbEntity
  8
0
100
AcDbBlockBegin
  2
*MODEL_SPACE
 70
     0
 10
0.0
 20
0.0
 30
0.0
  3
*MODEL_SPACE
  1

  0
ENDBLK
  5
21
330
1F
100
AcDbEntity
  8
0
100
AcDbBlockEnd
  0
BLOCK
  5
1C
330
1B
100
AcDbEntity
 67
     1
  8
0
100
AcDbBlockBegin
  2
*PAPER_SPACE
  1

  0
ENDBLK
  5
1D
330
1B
100
AcDbEntity
 67
     1
  8
0
100
AcDbBlockEnd
  0
ENDSEC
  0
SECTION
  2
ENTITIES
  0
SPLINE
  5
100
100
AcDbEntity
  8
0
 62
5
100
AcDbSpline
 70
0
 71
3
 72
10
 73
6
 74
4
 40
0.000000
 40
0.000000
 40
0.000000
 40
0.000000
 40
0.383748
 40
1.264635
 40
2.310847
 40
2.310847
 40
2.310847
 40
2.310847
 10
26.660683
 20
222.040042
 30
0.0
 10
26.545385
 20
221.985093
 30
0.0
 10
26.165423
 20
221.804008
 30
0.0
 10
25.416105
 20
221.563462
 30
0.0
 10
24.770219
 20
221.630973
 30
0.0
 10
24.419570
 20
221.667624
 30
0.0
 11
26.660683
 21
222.040042
 31
0.0
 11
26.312016
 21
221.879747
 31
0.0
 11
25.465325
 21
221.636692
 31
0.0
 11
24.419570
 21
221.667624
 31
0.0
  0
SPLINE
  5
101
100
AcDbEntity
  8
0
 62
5
100
AcDbSpline
 70
0
 71
3
 72
10
 73
6
 74
4
 40
0.000000
 40
0.000000
 40
0.000000
 40
0.000000
 40
1.754122
 40
3.597974
 40
5.352097
 40
5.352097
 40
5.352097
 40
5.352097
 10
24.419570
 20
221.667624
 30
0.0
 10
23.893178
 20
221.933490
 30
0.0
 10
22.813467
 20
222.478821
 30
0.0
 10
21.708801
 20
223.999263
 30
0.0
 10
21.523810
 20
225.194646
 30
0.0
 10
21.433621
 20
225.777432
 30
0.0
 11
24.419570
 21
221.667624
 31
0.0
 11
22.920516
 21
222.578548
 31
0.0
 11
21.836727
 21
224.070256
 31
0.0
 11
21.433621
 21
225.777432
 31
0.0
  0
LWPOLYLINE
  5
102
100
AcDbEntity
  8
0
 62
5
100
AcDbPolyline
 90
4
 70
0
 10
29.821087
 20
218.266294
 30
0.0
 10
26.337480
 20
223.061068
 30
0.0
 10
26.063493
 20
222.862003
 30
0.0
 10
26.660683
 20
222.040042
 30
0.0
  0
LWPOLYLINE
  5
103
100
AcDbEntity
  8
0
 62
5
100
AcDbPolyline
 90
4
 70
0
 10
22.480354
 20
227.793771
 30
0.0
 10
23.077544
 20
226.971811
 30
0.0
 10
23.351531
 20
227.170873
 30
0.0
 10
19.867924
 20
231.965648
 30
0.0
  0
LWPOLYLINE
  5
104
100
AcDbEntity
  8
0
 62
1
100
AcDbPolyline
 90
2
 70
0
 10
25.640759
 20
224.020023
 30
0.0
 10
24.048252
 20
226.211919
 30
0.0
  0
LWPOLYLINE
  5
105
100
AcDbEntity
  8
0
 62
5
100
AcDbPolyline
 90
7
 70
0
 10
29.821141
 20
218.266333
 30
0.0
 10
30.666504
 20
216.760528
 30
0.0
 10
32.224636
 20
217.444843
 30
0.0
 10
32.502531
 20
218.781473
 30
0.0
 10
32.180440
 20
218.676820
 30
0.0
 10
32.075786
 20
218.998911
 30
0.0
 10
45.925734
 20
223.499032
 30
0.0
  0
LWPOLYLINE
  5
106
100
AcDbEntity
  8
0
 62
1
100
AcDbPolyline
 90
2
 70
0
 10
30.465324
 20
218.475640
 30
0.0
 10
31.431600
 20
218.789604
 30
0.0
  0
LWPOLYLINE
  5
107
100
AcDbEntity
  8
0
 62
5
100
AcDbPolyline
 90
8
 70
0
 10
45.925765
 20
223.498931
 30
0.0
 10
35.660432
 20
217.572236
 30
0.0
 10
34.774465
 20
218.429435
 30
0.0
 10
33.223321
 20
217.729414
 30
0.0
 10
32.998085
 20
216.426193
 30
0.0
 10
33.291382
 20
216.595527
 30
0.0
 10
33.460715
 20
216.302230
 30
0.0
 10
31.261002
 20
215.032224
 30
0.0
  0
LWPOLYLINE
  5
108
100
AcDbEntity
  8
0
 62
1
100
AcDbPolyline
 90
2
 70
0
 10
35.073841
 20
217.233569
 30
0.0
 10
34.047306
 20
216.640900
 30
0.0
  0
LWPOLYLINE
  5
109
100
AcDbEntity
  8
0
 62
5
100
AcDbPolyline
 90
4
 70
0
 10
39.727700
 20
200.367472
 30
0.0
 10
35.248060
 20
201.691749
 30
0.0
 10
30.168043
 20
210.490594
 30
0.0
 10
31.261008
 20
215.032216
 30
0.0
  0
LWPOLYLINE
  5
10a
100
AcDbEntity
  8
0
 62
5
100
AcDbPolyline
 90
4
 70
0
 10
37.796967
 20
204.727602
 30
0.0
 10
36.725064
 20
204.890857
 30
0.0
 10
33.677053
 20
210.170165
 30
0.0
 10
34.071622
 20
211.180089
 30
0.0
  0
LWPOLYLINE
  5
10b
100
AcDbEntity
  8
0
 62
1
100
AcDbPolyline
 90
2
 70
0
 10
39.727700
 20
200.367472
 30
0.0
 10
37.357025
 20
204.473600
 30
0.0
  0
LWPOLYLINE
  5
10c
100
AcDbEntity
  8
0
 62
1
100
AcDbPolyline
 90
2
 70
0
 10
31.261008
 20
215.032216
 30
0.0
 10
33.631680
 20
210.926086
 30
0.0
  0
SPLINE
  5
10d
100
AcDbEntity
  8
0
 62
5
100
AcDbSpline
 70
0
 71
3
 72
10
 73
6
 74
4
 40
0.000000
 40
0.000000
 40
0.000000
 40
0.000000
 40
1.046211
 40
1.927098
 40
2.310846
 40
2.310846
 40
2.310846
 40
2.310846
 10
21.433621
 20
225.777432
 30
0.0
 10
21.507120
 20
226.122244
 30
0.0
 10
21.642504
 20
226.757380
 30
0.0
 10
22.102829
 20
227.395690
 30
0.0
 10
22.392465
 20
227.701097
 30
0.0
 10
22.480354
 20
227.793771
 30
0.0
 11
21.433621
 21
225.777432
 31
0.0
 11
21.727359
 21
226.781561
 31
0.0
 11
22.220160
 21
227.511704
 31
0.0
 11
22.480354
 21
227.793771
 31
0.0
  0
SPLINE
  5
10e
100
AcDbEntity
  8
0
 62
5
100
AcDbSpline
 70
0
 71
3
 72
10
 73
6
 74
4
 40
0.000000
 40
0.000000
 40
0.000000
 40
0.000000
 40
0.383749
 40
1.264637
 40
2.310850
 40
2.310850
 40
2.310850
 40
2.310850
 10
50.309072
 20
206.085571
 30
0.0
 10
50.351668
 20
205.965161
 30
0.0
 10
50.492044
 20
205.568351
 30
0.0
 10
50.652948
 20
204.797994
 30
0.0
 10
50.518294
 20
204.162702
 30
0.0
 10
50.445190
 20
203.817806
 30
0.0
 11
50.309072
 21
206.085571
 31
0.0
 11
50.432044
 21
205.722059
 31
0.0
 11
50.585264
 21
204.854599
 31
0.0
 11
50.445190
 21
203.817806
 31
0.0
  0
SPLINE
  5
10f
100
AcDbEntity
  8
0
 62
5
100
AcDbSpline
 70
0
 71
3
 72
10
 73
6
 74
4
 40
0.000000
 40
0.000000
 40
0.000000
 40
0.000000
 40
1.754124
 40
3.597979
 40
5.352101
 40
5.352101
 40
5.352101
 40
5.352101
 10
50.445190
 20
203.817806
 30
0.0
 10
50.125758
 20
203.322087
 30
0.0
 10
49.470555
 20
202.305291
 30
0.0
 10
47.842971
 20
201.365604
 30
0.0
 10
46.634798
 20
201.306579
 30
0.0
 10
46.045778
 20
201.277803
 30
0.0
 11
50.445190
 21
203.817806
 31
0.0
 11
49.382563
 21
202.422178
 31
0.0
 11
47.785738
 21
201.500251
 31
0.0
 11
46.045778
 21
201.277803
 31
0.0
  0
LWPOLYLINE
  5
110
100
AcDbEntity
  8
0
 62
5
100
AcDbPolyline
 90
4
 70
0
 10
54.392505
 20
208.834201
 30
0.0
 10
49.259857
 20
205.870865
 30
0.0
 10
49.429190
 20
205.577571
 30
0.0
 10
50.309072
 20
206.085571
 30
0.0
  0
LWPOLYLINE
  5
111
100
AcDbEntity
  8
0
 62
5
100
AcDbPolyline
 90
4
 70
0
 10
44.149893
 20
202.529566
 30
0.0
 10
45.029775
 20
203.037568
 30
0.0
 10
44.860441
 20
203.330862
 30
0.0
 10
39.727793
 20
200.367526
 30
0.0
  0
LWPOLYLINE
  5
112
100
AcDbEntity
  8
0
 62
1
100
AcDbPolyline
 90
2
 70
0
 10
48.233327
 20
205.278198
 30
0.0
 10
45.886971
 20
203.923529
 30
0.0
  0
LWPOLYLINE
  5
113
100
AcDbEntity
  8
0
 62
5
100
AcDbPolyline
 90
4
 70
0
 10
62.859158
 20
223.498956
 30
0.0
 10
63.952117
 20
218.957346
 30
0.0
 10
58.872112
 20
210.158518
 30
0.0
 10
54.392483
 20
208.834243
 30
0.0
  0
LWPOLYLINE
  5
114
100
AcDbEntity
  8
0
 62
5
100
AcDbPolyline
 90
4
 70
0
 10
60.048546
 20
219.646837
 30
0.0
 10
60.443116
 20
218.636913
 30
0.0
 10
57.395113
 20
213.357617
 30
0.0
 10
56.323210
 20
213.194362
 30
0.0
  0
LWPOLYLINE
  5
115
100
AcDbEntity
  8
0
 62
1
100
AcDbPolyline
 90
2
 70
0
 10
62.859158
 20
223.498956
 30
0.0
 10
60.488489
 20
219.392837
 30
0.0
  0
LWPOLYLINE
  5
116
100
AcDbEntity
  8
0
 62
1
100
AcDbPolyline
 90
2
 70
0
 10
54.392483
 20
208.834243
 30
0.0
 10
56.763152
 20
212.940362
 30
0.0
  0
SPLINE
  5
117
100
AcDbEntity
  8
0
 62
5
100
AcDbSpline
 70
0
 71
3
 72
10
 73
6
 74
4
 40
0.000000
 40
0.000000
 40
0.000000
 40
0.000000
 40
1.046213
 40
1.927100
 40
2.310849
 40
2.310849
 40
2.310849
 40
2.310849
 10
46.045778
 20
201.277803
 30
0.0
 10
45.710537
 20
201.386942
 30
0.0
 10
45.093030
 20
201.587973
 30
0.0
 10
44.506333
 20
202.112498
 30
0.0
 10
44.232874
 20
202.432471
 30
0.0
 10
44.149893
 20
202.529566
 30
0.0
 11
46.045778
 21
201.277803
 31
0.0
 11
45.077851
 21
201.674891
 31
0.0
 11
44.403218
 21
202.241313
 31
0.0
 11
44.149893
 21
202.529566
 31
0.0
  0
SPLINE
  5
118
100
AcDbEntity
  8
0
 62
5
100
AcDbSpline
 70
0
 71
3
 72
10
 73
6
 74
4
 40
0.000000
 40
0.000000
 40
0.000000
 40
0.000000
 40
0.168286
 40
0.650183
 40
1.455497
 40
1.455497
 40
1.455497
 40
1.455497
 10
63.197867
 20
232.134981
 30
0.0
 10
63.248673
 20
232.111032
 30
0.0
 10
63.444964
 20
232.018500
 30
0.0
 10
63.820964
 20
231.697405
 30
0.0
 10
64.062660
 20
231.341586
 30
0.0
 10
64.213873
 20
231.118976
 30
0.0
 11
63.197867
 21
232.134981
 31
0.0
 11
63.348386
 21
232.059722
 31
0.0
 11
63.724685
 21
231.758683
 31
0.0
 11
64.213873
 21
231.118976
 31
0.0
  0
SPLINE
  5
119
100
AcDbEntity
  8
0
 62
5
100
AcDbSpline
 70
0
 71
3
 72
10
 73
6
 74
4
 40
0.000000
 40
0.000000
 40
0.000000
 40
0.000000
 40
1.568776
 40
3.234024
 40
4.770424
 40
4.770424
 40
4.770424
 40
4.770424
 10
64.213873
 20
231.118976
 30
0.0
 10
64.385801
 20
230.625020
 30
0.0
 10
64.740231
 20
229.606732
 30
0.0
 10
65.174937
 20
228.076399
 30
0.0
 10
65.440912
 20
227.042900
 30
0.0
 10
65.568548
 20
226.546948
 30
0.0
 11
64.213873
 21
231.118976
 31
0.0
 11
64.715604
 21
229.632596
 31
0.0
 11
65.179705
 21
228.033327
 31
0.0
 11
65.568548
 21
226.546948
 31
0.0
  0
LWPOLYLINE
  5
11a
100
AcDbEntity
  8
0
 62
5
100
AcDbPolyline
 90
4
 70
0
 10
62.859198
 20
240.432363
 30
0.0
 10
62.859198
 20
231.118976
 30
0.0
 10
63.197867
 20
231.118976
 30
0.0
 10
63.197867
 20
232.134981
 30
0.0
  0
LWPOLYLINE
  5
11b
100
AcDbEntity
  8
0
 62
5
100
AcDbPolyline
 90
4
 70
0
 10
63.197867
 20
225.022939
 30
0.0
 10
63.197867
 20
226.038945
 30
0.0
 10
62.859198
 20
226.038945
 30
0.0
 10
62.859198
 20
223.498931
 30
0.0
  0
LWPOLYLINE
  5
11c
100
AcDbEntity
  8
0
 62
1
100
AcDbPolyline
 90
2
 70
0
 10
62.859198
 20
229.933634
 30
0.0
 10
62.859198
 20
227.224287
 30
0.0
  0
LWPOLYLINE
  5
11d
100
AcDbEntity
  8
0
 62
5
100
AcDbPolyline
 90
5
 70
0
 10
62.859200
 20
240.432366
 30
0.0
 10
65.849698
 20
238.639368
 30
0.0
 10
74.055930
 20
244.745957
 30
0.0
 10
74.591071
 20
247.205764
 30
0.0
 10
77.524040
 20
248.899114
 30
0.0
  0
LWPOLYLINE
  5
11e
100
AcDbEntity
  8
0
 62
5
100
AcDbPolyline
 90
4
 70
0
 10
63.778384
 20
241.549649
 30
0.0
 10
64.788316
 20
241.155077
 30
0.0
 10
70.067658
 20
244.203108
 30
0.0
 10
70.230915
 20
245.275019
 30
0.0
  0
LWPOLYLINE
  5
11f
100
AcDbEntity
  8
0
 62
1
100
AcDbPolyline
 90
2
 70
0
 10
62.859200
 20
240.432366
 30
0.0
 10
64.032387
 20
241.109705
 30
0.0
  0
LWPOLYLINE
  5
120
100
AcDbEntity
  8
0
 62
1
100
AcDbPolyline
 90
2
 70
0
 10
74.591071
 20
247.205764
 30
0.0
 10
70.484915
 20
244.835075
 30
0.0
  0
LWPOLYLINE
  5
121
100
AcDbEntity
  8
0
 62
5
100
AcDbPolyline
 90
8
 70
0
 10
92.188772
 20
240.432402
 30
0.0
 10
81.923472
 20
246.359075
 30
0.0
 10
81.037512
 20
245.501878
 30
0.0
 10
79.486373
 20
246.201899
 30
0.0
 10
79.261137
 20
247.505117
 30
0.0
 10
79.554431
 20
247.335784
 30
0.0
 10
79.723765
 20
247.629077
 30
0.0
 10
77.524060
 20
248.899077
 30
0.0
  0
LWPOLYLINE
  5
122
100
AcDbEntity
  8
0
 62
1
100
AcDbPolyline
 90
2
 70
0
 10
81.336885
 20
246.697744
 30
0.0
 10
80.310355
 20
247.290411
 30
0.0
  0
LWPOLYLINE
  5
123
100
AcDbEntity
  8
0
 62
5
100
AcDbPolyline
 90
7
 70
0
 10
76.084184
 20
245.665053
 30
0.0
 10
76.929544
 20
247.170856
 30
0.0
 10
78.487674
 20
246.486540
 30
0.0
 10
78.765569
 20
245.149913
 30
0.0
 10
78.443478
 20
245.254567
 30
0.0
 10
78.338824
 20
244.932478
 30
0.0
 10
92.188750
 20
240.432363
 30
0.0
  0
LWPOLYLINE
  5
124
100
AcDbEntity
  8
0
 62
1
100
AcDbPolyline
 90
2
 70
0
 10
76.728365
 20
245.455746
 30
0.0
 10
77.694640
 20
245.141785
 30
0.0
  0
SPLINE
  5
125
100
AcDbEntity
  8
0
 62
5
100
AcDbSpline
 70
0
 71
3
 72
10
 73
6
 74
4
 40
0.000000
 40
0.000000
 40
0.000000
 40
0.000000
 40
1.197292
 40
2.328502
 40
2.836660
 40
2.836660
 40
2.836660
 40
2.836660
 10
65.568548
 20
226.546948
 30
0.0
 10
65.274340
 20
226.274574
 30
0.0
 10
64.702162
 20
225.744859
 30
0.0
 10
63.852895
 20
225.310164
 30
0.0
 10
63.352863
 20
225.090904
 30
0.0
 10
63.197867
 20
225.022939
 30
0.0
 11
65.568548
 21
226.546948
 31
0.0
 11
64.652887
 21
225.775537
 31
0.0
 11
63.661968
 21
225.229904
 31
0.0
 11
63.197867
 21
225.022939
 31
0.0
  0
SPLINE
  5
126
100
AcDbEntity
  8
0
 62
5
100
AcDbSpline
 70
0
 71
3
 72
10
 73
6
 74
4
 40
0.000000
 40
0.000000
 40
0.000000
 40
0.000000
 40
0.168287
 40
0.650186
 40
1.455503
 40
1.455503
 40
1.455503
 40
1.455503
 10
70.933115
 20
239.151441
 30
0.0
 10
70.877935
 20
239.161928
 30
0.0
 10
70.664742
 20
239.202445
 30
0.0
 10
70.171815
 20
239.163681
 30
0.0
 10
69.767131
 20
239.017883
 30
0.0
 10
69.513950
 20
238.926668
 30
0.0
 11
70.933115
 21
239.151441
 31
0.0
 11
70.767105
 21
239.179028
 31
0.0
 11
70.285725
 21
239.156665
 31
0.0
 11
69.513950
 21
238.926668
 31
0.0
  0
SPLINE
  5
127
100
AcDbEntity
  8
0
 62
5
100
AcDbSpline
 70
0
 71
3
 72
10
 73
6
 74
4
 40
0.000000
 40
0.000000
 40
0.000000
 40
0.000000
 40
1.568784
 40
3.234041
 40
4.770447
 40
4.770447
 40
4.770447
 40
4.770447
 10
69.513950
 20
238.926668
 30
0.0
 10
69.084514
 20
238.628105
 30
0.0
 10
68.199235
 20
238.012618
 30
0.0
 10
66.948037
 20
237.030061
 30
0.0
 10
66.125380
 20
236.350276
 30
0.0
 10
65.730605
 20
236.024063
 30
0.0
 11
69.513950
 21
238.926668
 31
0.0
 11
68.234362
 21
238.019067
 31
0.0
 11
66.918862
 21
236.998018
 31
0.0
 11
65.730605
 21
236.024063
 31
0.0
  0
LWPOLYLINE
  5
128
100
AcDbEntity
  8
0
 62
5
100
AcDbPolyline
 90
4
 70
0
 10
76.084210
 20
245.665132
 30
0.0
 10
70.609909
 20
238.130403
 30
0.0
 10
70.335919
 20
238.329469
 30
0.0
 10
70.933115
 20
239.151441
 30
0.0
  0
LWPOLYLINE
  5
129
100
AcDbEntity
  8
0
 62
5
100
AcDbPolyline
 90
4
 70
0
 10
66.752741
 20
233.397649
 30
0.0
 10
67.349937
 20
234.219619
 30
0.0
 10
67.623927
 20
234.020553
 30
0.0
 10
66.130938
 20
231.965628
 30
0.0
  0
LWPOLYLINE
  5
12a
100
AcDbEntity
  8
0
 62
1
100
AcDbPolyline
 90
2
 70
0
 10
69.913181
 20
237.171440
 30
0.0
 10
68.320658
 20
234.979519
 30
0.0
  0
LWPOLYLINE
  5
12b
100
AcDbEntity
  8
0
 62
5
100
AcDbPolyline
 90
5
 70
0
 10
76.084100
 20
218.266254
 30
0.0
 10
72.622890
 20
217.844617
 30
0.0
 10
67.609932
 20
226.760979
 30
0.0
 10
68.121544
 20
229.225770
 30
0.0
 10
66.130907
 20
231.965648
 30
0.0
  0
LWPOLYLINE
  5
12c
100
AcDbEntity
  8
0
 62
5
100
AcDbPolyline
 90
4
 70
0
 10
75.698827
 20
219.660802
 30
0.0
 10
74.615729
 20
219.711116
 30
0.0
 10
71.032579
 20
224.642899
 30
0.0
 10
71.319421
 20
225.688535
 30
0.0
  0
LWPOLYLINE
  5
12d
100
AcDbEntity
  8
0
 62
1
100
AcDbPolyline
 90
2
 70
0
 10
76.084100
 20
218.266254
 30
0.0
 10
75.287844
 20
219.362205
 30
0.0
  0
LWPOLYLINE
  5
12e
100
AcDbEntity
  8
0
 62
1
100
AcDbPolyline
 90
2
 70
0
 10
68.121544
 20
229.225770
 30
0.0
 10
70.908441
 20
225.389938
 30
0.0
  0
LWPOLYLINE
  5
12f
100
AcDbEntity
  8
0
 62
5
100
AcDbPolyline
 90
8
 70
0
 10
92.188724
 20
223.499007
 30
0.0
 10
80.915564
 20
219.836135
 30
0.0
 10
80.959760
 20
218.604164
 30
0.0
 10
79.401636
 20
217.919852
 30
0.0
 10
78.282450
 20
218.624490
 30
0.0
 10
78.604539
 20
218.729144
 30
0.0
 10
78.499885
 20
219.051233
 30
0.0
 10
76.084207
 20
218.266333
 30
0.0
  0
LWPOLYLINE
  5
130
100
AcDbEntity
  8
0
 62
1
100
AcDbPolyline
 90
2
 70
0
 10
80.271383
 20
219.626828
 30
0.0
 10
79.144066
 20
219.260540
 30
0.0
  0
LWPOLYLINE
  5
131
100
AcDbEntity
  8
0
 62
5
100
AcDbPolyline
 90
7
 70
0
 10
77.524037
 20
215.032255
 30
0.0
 10
76.970664
 20
216.668058
 30
0.0
 10
78.521800
 20
217.368079
 30
0.0
 10
79.701057
 20
216.680216
 30
0.0
 10
79.407763
 20
216.510883
 30
0.0
 10
79.577097
 20
216.217589
 30
0.0
 10
92.188750
 20
223.498931
 30
0.0
  0
LWPOLYLINE
  5
132
100
AcDbEntity
  8
0
 62
1
100
AcDbPolyline
 90
2
 70
0
 10
78.110625
 20
215.370922
 30
0.0
 10
78.990509
 20
215.878922
 30
0.0
  0
SPLINE
  5
133
100
AcDbEntity
  8
0
 62
5
100
AcDbSpline
 70
0
 71
3
 72
10
 73
6
 74
4
 40
0.000000
 40
0.000000
 40
0.000000
 40
0.000000
 40
1.197299
 40
2.328514
 40
2.836675
 40
2.836675
 40
2.836675
 40
2.836675
 10
65.730605
 20
236.024063
 30
0.0
 10
65.808527
 20
235.630774
 30
0.0
 10
65.960069
 20
234.865904
 30
0.0
 10
66.391636
 20
234.015038
 30
0.0
 10
66.667295
 20
233.543739
 30
0.0
 10
66.752741
 20
233.397649
 30
0.0
 11
65.730605
 21
236.024063
 31
0.0
 11
66.017966
 21
234.861760
 31
0.0
 11
66.498924
 21
233.837881
 31
0.0
 11
66.752741
 21
233.397649
 31
0.0
  0
SPLINE
  5
134
100
AcDbEntity
  8
0
 62
5
100
AcDbSpline
 70
0
 71
3
 72
10
 73
6
 74
4
 40
0.000000
 40
0.000000
 40
0.000000
 40
0.000000
 40
0.383749
 40
1.264637
 40
2.310850
 40
2.310850
 40
2.310850
 40
2.310850
 10
83.242105
 20
204.450937
 30
0.0
 10
83.121695
 20
204.408341
 30
0.0
 10
82.724885
 20
204.267965
 30
0.0
 10
81.954528
 20
204.107060
 30
0.0
 10
81.319236
 20
204.241715
 30
0.0
 10
80.974339
 20
204.314819
 30
0.0
 11
83.242105
 21
204.450937
 31
0.0
 11
82.878592
 21
204.327965
 31
0.0
 11
82.011132
 21
204.174745
 31
0.0
 11
80.974339
 21
204.314819
 31
0.0
  0
SPLINE
  5
135
100
AcDbEntity
  8
0
 62
5
100
AcDbSpline
 70
0
 71
3
 72
10
 73
6
 74
4
 40
0.000000
 40
0.000000
 40
0.000000
 40
0.000000
 40
1.754124
 40
3.597979
 40
5.352101
 40
5.352101
 40
5.352101
 40
5.352101
 10
80.974339
 20
204.314819
 30
0.0
 10
80.478620
 20
204.634250
 30
0.0
 10
79.461824
 20
205.289454
 30
0.0
 10
78.522138
 20
206.917038
 30
0.0
 10
78.463113
 20
208.125211
 30
0.0
 10
78.434336
 20
208.714231
 30
0.0
 11
80.974339
 21
204.314819
 31
0.0
 11
79.578712
 21
205.377446
 31
0.0
 11
78.656785
 21
206.974271
 31
0.0
 11
78.434336
 21
208.714231
 31
0.0
  0
LWPOLYLINE
  5
136
100
AcDbEntity
  8
0
 62
5
100
AcDbPolyline
 90
4
 70
0
 10
85.990735
 20
200.367503
 30
0.0
 10
83.027399
 20
205.500152
 30
0.0
 10
82.734105
 20
205.330819
 30
0.0
 10
83.242105
 20
204.450937
 30
0.0
  0
LWPOLYLINE
  5
137
100
AcDbEntity
  8
0
 62
5
100
AcDbPolyline
 90
4
 70
0
 10
79.686099
 20
210.610115
 30
0.0
 10
80.194102
 20
209.730234
 30
0.0
 10
80.487396
 20
209.899567
 30
0.0
 10
77.524060
 20
215.032216
 30
0.0
  0
LWPOLYLINE
  5
138
100
AcDbEntity
  8
0
 62
1
100
AcDbPolyline
 90
2
 70
0
 10
82.434732
 20
206.526682
 30
0.0
 10
81.080062
 20
208.873038
 30
0.0
  0
LWPOLYLINE
  5
139
100
AcDbEntity
  8
0
 62
5
100
AcDbPolyline
 90
4
 70
0
 10
85.990774
 20
200.367526
 30
0.0
 10
83.547856
 20
196.385915
 30
0.0
 10
85.660255
 20
186.447857
 30
0.0
 10
89.511440
 20
183.804098
 30
0.0
  0
LWPOLYLINE
  5
13a
100
AcDbEntity
  8
0
 62
5
100
AcDbPolyline
 90
4
 70
0
 10
87.473463
 20
195.835387
 30
0.0
 10
86.786119
 20
194.996815
 30
0.0
 10
88.053559
 20
189.033981
 30
0.0
 10
89.022555
 20
188.547478
 30
0.0
  0
LWPOLYLINE
  5
13b
100
AcDbEntity
  8
0
 62
1
100
AcDbPolyline
 90
2
 70
0
 10
85.990774
 20
200.367526
 30
0.0
 10
86.976560
 20
195.729765
 30
0.0
  0
LWPOLYLINE
  5
13c
100
AcDbEntity
  8
0
 62
1
100
AcDbPolyline
 90
2
 70
0
 10
89.511440
 20
183.804098
 30
0.0
 10
88.525655
 20
188.441856
 30
0.0
  0
SPLINE
  5
13d
100
AcDbEntity
  8
0
 62
5
100
AcDbSpline
 70
0
 71
3
 72
10
 73
6
 74
4
 40
0.000000
 40
0.000000
 40
0.000000
 40
0.000000
 40
1.046213
 40
1.927100
 40
2.310849
 40
2.310849
 40
2.310849
 40
2.310849
 10
78.434336
 20
208.714231
 30
0.0
 10
78.543475
 20
209.049472
 30
0.0
 10
78.744507
 20
209.666979
 30
0.0
 10
79.269031
 20
210.253676
 30
0.0
 10
79.589005
 20
210.527135
 30
0.0
 10
79.686099
 20
210.610115
 30
0.0
 11
78.434336
 21
208.714231
 31
0.0
 11
78.831425
 21
209.682158
 31
0.0
 11
79.397847
 21
210.356791
 31
0.0
 11
79.686099
 21
210.610115
 31
0.0
  0
SPLINE
  5
13e
100
AcDbEntity
  8
0
 62
5
100
AcDbSpline
 70
0
 71
3
 72
10
 73
6
 74
4
 40
0.000000
 40
0.000000
 40
0.000000
 40
0.000000
 40
0.383750
 40
1.264640
 40
2.310856
 40
2.310856
 40
2.310856
 40
2.310856
 10
101.432857
 20
182.210559
 30
0.0
 10
101.396543
 20
182.088107
 30
0.0
 10
101.276870
 20
181.684569
 30
0.0
 10
100.954239
 20
180.966758
 30
0.0
 10
100.471884
 20
180.531943
 30
0.0
 10
100.210016
 20
180.295884
 30
0.0
 11
101.432857
 21
182.210559
 31
0.0
 11
101.318676
 21
181.844189
 31
0.0
 11
100.932753
 21
181.052336
 31
0.0
 11
100.210016
 21
180.295884
 31
0.0
  0
SPLINE
  5
13f
100
AcDbEntity
  8
0
 62
5
100
AcDbSpline
 70
0
 71
3
 72
10
 73
6
 74
4
 40
0.000000
 40
0.000000
 40
0.000000
 40
0.000000
 40
1.754129
 40
3.597987
 40
5.352116
 40
5.352116
 40
5.352116
 40
5.352116
 10
100.210016
 20
180.295884
 30
0.0
 10
99.660212
 20
180.082596
 30
0.0
 10
98.532481
 20
179.645109
 30
0.0
 10
96.663399
 20
179.841558
 30
0.0
 10
95.651270
 20
180.503953
 30
0.0
 10
95.157826
 20
180.826891
 30
0.0
 11
100.210016
 21
180.295884
 31
0.0
 11
98.529999
 21
179.791394
 31
0.0
 11
96.696241
 21
179.984130
 31
0.0
 11
95.157826
 21
180.826891
 31
0.0
  0
LWPOLYLINE
  5
140
100
AcDbEntity
  8
0
 62
5
100
AcDbPolyline
 90
4
 70
0
 10
106.352044
 20
182.034066
 30
0.0
 10
100.457821
 20
182.653574
 30
0.0
 10
100.422419
 20
182.316762
 30
0.0
 10
101.432857
 20
182.210559
 30
0.0
  0
LWPOLYLINE
  5
141
100
AcDbEntity
  8
0
 62
5
100
AcDbPolyline
 90
4
 70
0
 10
94.359789
 20
182.953969
 30
0.0
 10
95.370227
 20
182.847769
 30
0.0
 10
95.405629
 20
183.184581
 30
0.0
 10
89.511403
 20
183.804087
 30
0.0
  0
LWPOLYLINE
  5
142
100
AcDbEntity
  8
0
 62
1
100
AcDbPolyline
 90
2
 70
0
 10
99.278976
 20
182.777476
 30
0.0
 10
96.584474
 20
183.060680
 30
0.0
  0
LWPOLYLINE
  5
143
100
AcDbEntity
  8
0
 62
5
100
AcDbPolyline
 90
4
 70
0
 10
113.239525
 20
197.503583
 30
0.0
 10
114.801241
 20
193.101052
 30
0.0
 10
110.668751
 20
183.819324
 30
0.0
 10
106.352041
 20
182.034037
 30
0.0
  0
LWPOLYLINE
  5
144
100
AcDbEntity
  8
0
 62
5
100
AcDbPolyline
 90
4
 70
0
 10
110.846943
 20
193.378736
 30
0.0
 10
111.344919
 20
192.415579
 30
0.0
 10
108.865424
 20
186.846542
 30
0.0
 10
107.816450
 20
186.572134
 30
0.0
  0
LWPOLYLINE
  5
145
100
AcDbEntity
  8
0
 62
1
100
AcDbPolyline
 90
2
 70
0
 10
113.239525
 20
197.503583
 30
0.0
 10
111.311030
 20
193.172110
 30
0.0
  0
LWPOLYLINE
  5
146
100
AcDbEntity
  8
0
 62
1
100
AcDbPolyline
 90
2
 70
0
 10
106.352041
 20
182.034037
 30
0.0
 10
108.280536
 20
186.365511
 30
0.0
  0
SPLINE
  5
147
100
AcDbEntity
  8
0
 62
5
100
AcDbSpline
 70
0
 71
3
 72
10
 73
6
 74
4
 40
0.000000
 40
0.000000
 40
0.000000
 40
0.000000
 40
1.046217
 40
1.927107
 40
2.310857
 40
2.310857
 40
2.310857
 40
2.310857
 10
95.157826
 20
180.826891
 30
0.0
 10
94.950760
 20
181.112237
 30
0.0
 10
94.569349
 20
181.637838
 30
0.0
 10
94.403009
 20
182.407042
 30
0.0
 10
94.369851
 20
182.826643
 30
0.0
 10
94.359789
 20
182.953969
 30
0.0
 11
95.157826
 21
180.826891
 31
0.0
 11
94.608158
 21
181.717079
 31
0.0
 11
94.395303
 21
182.571866
 31
0.0
 11
94.359789
 21
182.953969
 31
0.0
  0
SPLINE
  5
148
100
AcDbEntity
  8
0
 62
5
100
AcDbSpline
 70
0
 71
3
 72
10
 73
6
 74
4
 40
0.000000
 40
0.000000
 40
0.000000
 40
0.000000
 40
0.383752
 40
1.264648
 40
2.310869
 40
2.310869
 40
2.310869
 40
2.310869
 10
104.531493
 20
205.800064
 30
0.0
 10
104.632848
 20
205.877785
 30
0.0
 10
104.966860
 20
206.133914
 30
0.0
 10
105.649797
 20
206.524999
 30
0.0
 10
106.295612
 20
206.593251
 30
0.0
 10
106.646221
 20
206.630305
 30
0.0
 11
104.531493
 21
205.800064
 31
0.0
 11
104.839216
 21
206.029351
 31
0.0
 11
105.616878
 21
206.443135
 31
0.0
 11
106.646221
 21
206.630305
 31
0.0
  0
SPLINE
  5
149
100
AcDbEntity
  8
0
 62
5
100
AcDbSpline
 70
0
 71
3
 72
10
 73
6
 74
4
 40
0.000000
 40
0.000000
 40
0.000000
 40
0.000000
 40
1.754140
 40
3.598009
 40
5.352147
 40
5.352147
 40
5.352147
 40
5.352147
 10
106.646221
 20
206.630305
 30
0.0
 10
107.216392
 20
206.479692
 30
0.0
 10
108.385902
 20
206.170760
 30
0.0
 10
109.782559
 20
204.913204
 30
0.0
 10
110.212046
 20
203.782395
 30
0.0
 10
110.421434
 20
203.231091
 30
0.0
 11
106.646221
 21
206.630305
 31
0.0
 11
108.301926
 21
206.050954
 31
0.0
 11
109.672188
 21
204.817165
 31
0.0
 11
110.421434
 21
203.231091
 31
0.0
  0
LWPOLYLINE
  5
14a
100
AcDbEntity
  8
0
 62
5
100
AcDbPolyline
 90
4
 70
0
 10
100.655509
 20
208.834291
 30
0.0
 10
105.059923
 20
204.868541
 30
0.0
 10
105.286536
 20
205.120222
 30
0.0
 10
104.531493
 20
205.800064
 30
0.0
  0
LWPOLYLINE
  5
14b
100
AcDbEntity
  8
0
 62
5
100
AcDbPolyline
 90
4
 70
0
 10
109.816790
 20
201.041162
 30
0.0
 10
109.061747
 20
201.721007
 30
0.0
 10
108.835134
 20
201.469324
 30
0.0
 10
113.239544
 20
197.503574
 30
0.0
  0
LWPOLYLINE
  5
14c
100
AcDbEntity
  8
0
 62
1
100
AcDbPolyline
 90
2
 70
0
 10
105.940804
 20
204.075390
 30
0.0
 10
107.954250
 20
202.262476
 30
0.0
  0
LWPOLYLINE
  5
14d
100
AcDbEntity
  8
0
 62
5
100
AcDbPolyline
 90
4
 70
0
 10
100.655464
 20
208.834241
 30
0.0
 10
105.135096
 20
210.158515
 30
0.0
 10
110.215101
 20
218.957343
 30
0.0
 10
109.122139
 20
223.498953
 30
0.0
  0
LWPOLYLINE
  5
14e
100
AcDbEntity
  8
0
 62
5
100
AcDbPolyline
 90
4
 70
0
 10
102.586192
 20
213.194359
 30
0.0
 10
103.658094
 20
213.357617
 30
0.0
 10
106.706097
 20
218.636913
 30
0.0
 10
106.311531
 20
219.646834
 30
0.0
  0
LWPOLYLINE
  5
14f
100
AcDbEntity
  8
0
 62
1
100
AcDbPolyline
 90
2
 70
0
 10
100.655464
 20
208.834241
 30
0.0
 10
103.026134
 20
212.940359
 30
0.0
  0
LWPOLYLINE
  5
150
100
AcDbEntity
  8
0
 62
1
100
AcDbPolyline
 90
2
 70
0
 10
109.122139
 20
223.498953
 30
0.0
 10
106.751470
 20
219.392834
 30
0.0
  0
SPLINE
  5
151
100
AcDbEntity
  8
0
 62
5
100
AcDbSpline
 70
0
 71
3
 72
10
 73
6
 74
4
 40
0.000000
 40
0.000000
 40
0.000000
 40
0.000000
 40
1.046223
 40
1.927118
 40
2.310870
 40
2.310870
 40
2.310870
 40
2.310870
 10
110.421434
 20
203.231091
 30
0.0
 10
110.421231
 20
202.878529
 30
0.0
 10
110.420858
 20
202.229117
 30
0.0
 10
110.103302
 20
201.509042
 30
0.0
 10
109.883491
 20
201.150086
 30
0.0
 10
109.816790
 20
201.041162
 30
0.0
 11
110.421434
 21
203.231091
 31
0.0
 11
110.342884
 21
202.187821
 31
0.0
 11
110.012654
 21
201.371166
 31
0.0
 11
109.816790
 21
201.041162
 31
0.0
  0
SPLINE
  5
152
100
AcDbEntity
  8
0
 62
5
100
AcDbSpline
 70
0
 71
3
 72
10
 73
6
 74
4
 40
0.000000
 40
0.000000
 40
0.000000
 40
0.000000
 40
0.168286
 40
0.650183
 40
1.455497
 40
1.455497
 40
1.455497
 40
1.455497
 10
109.460851
 20
232.134981
 30
0.0
 10
109.511657
 20
232.111032
 30
0.0
 10
109.707948
 20
232.018500
 30
0.0
 10
110.083948
 20
231.697405
 30
0.0
 10
110.325645
 20
231.341586
 30
0.0
 10
110.476857
 20
231.118976
 30
0.0
 11
109.460851
 21
232.134981
 31
0.0
 11
109.611371
 21
232.059722
 31
0.0
 11
109.987669
 21
231.758683
 31
0.0
 11
110.476857
 21
231.118976
 31
0.0
  0
SPLINE
  5
153
100
AcDbEntity
  8
0
 62
5
100
AcDbSpline
 70
0
 71
3
 72
10
 73
6
 74
4
 40
0.000000
 40
0.000000
 40
0.000000
 40
0.000000
 40
1.568776
 40
3.234024
 40
4.770424
 40
4.770424
 40
4.770424
 40
4.770424
 10
110.476857
 20
231.118976
 30
0.0
 10
110.648786
 20
230.625020
 30
0.0
 10
111.003216
 20
229.606732
 30
0.0
 10
111.437921
 20
228.076399
 30
0.0
 10
111.703896
 20
227.042900
 30
0.0
 10
111.831532
 20
226.546948
 30
0.0
 11
110.476857
 21
231.118976
 31
0.0
 11
110.978588
 21
229.632596
 31
0.0
 11
111.442690
 21
228.033327
 31
0.0
 11
111.831532
 21
226.546948
 31
0.0
  0
LWPOLYLINE
  5
154
100
AcDbEntity
  8
0
 62
5
100
AcDbPolyline
 90
4
 70
0
 10
109.122182
 20
240.432363
 30
0.0
 10
109.122182
 20
231.118976
 30
0.0
 10
109.460851
 20
231.118976
 30
0.0
 10
109.460851
 20
232.134981
 30
0.0
  0
LWPOLYLINE
  5
155
100
AcDbEntity
  8
0
 62
5
100
AcDbPolyline
 90
4
 70
0
 10
109.460851
 20
225.022939
 30
0.0
 10
109.460851
 20
226.038945
 30
0.0
 10
109.122182
 20
226.038945
 30
0.0
 10
109.122182
 20
223.498931
 30
0.0
  0
LWPOLYLINE
  5
156
100
AcDbEntity
  8
0
 62
1
100
AcDbPolyline
 90
2
 70
0
 10
109.122182
 20
229.933634
 30
0.0
 10
109.122182
 20
227.224287
 30
0.0
  0
LWPOLYLINE
  5
157
100
AcDbEntity
  8
0
 62
5
100
AcDbPolyline
 90
5
 70
0
 10
109.122182
 20
240.432366
 30
0.0
 10
112.112679
 20
238.639368
 30
0.0
 10
120.318911
 20
244.745957
 30
0.0
 10
120.854052
 20
247.205764
 30
0.0
 10
123.787021
 20
248.899114
 30
0.0
  0
LWPOLYLINE
  5
158
100
AcDbEntity
  8
0
 62
5
100
AcDbPolyline
 90
4
 70
0
 10
110.041365
 20
241.549649
 30
0.0
 10
111.051298
 20
241.155077
 30
0.0
 10
116.330640
 20
244.203108
 30
0.0
 10
116.493897
 20
245.275019
 30
0.0
  0
LWPOLYLINE
  5
159
100
AcDbEntity
  8
0
 62
1
100
AcDbPolyline
 90
2
 70
0
 10
109.122182
 20
240.432366
 30
0.0
 10
110.295368
 20
241.109705
 30
0.0
  0
LWPOLYLINE
  5
15a
100
AcDbEntity
  8
0
 62
1
100
AcDbPolyline
 90
2
 70
0
 10
120.854052
 20
247.205764
 30
0.0
 10
116.747897
 20
244.835075
 30
0.0
  0
LWPOLYLINE
  5
15b
100
AcDbEntity
  8
0
 62
5
100
AcDbPolyline
 90
8
 70
0
 10
138.451754
 20
240.432402
 30
0.0
 10
128.186454
 20
246.359075
 30
0.0
 10
127.300493
 20
245.501878
 30
0.0
 10
125.749355
 20
246.201899
 30
0.0
 10
125.524119
 20
247.505117
 30
0.0
 10
125.817413
 20
247.335784
 30
0.0
 10
125.986746
 20
247.629077
 30
0.0
 10
123.787041
 20
248.899077
 30
0.0
  0
LWPOLYLINE
  5
15c
100
AcDbEntity
  8
0
 62
1
100
AcDbPolyline
 90
2
 70
0
 10
127.599866
 20
246.697744
 30
0.0
 10
126.573336
 20
247.290411
 30
0.0
  0
LWPOLYLINE
  5
15d
100
AcDbEntity
  8
0
 62
5
100
AcDbPolyline
 90
7
 70
0
 10
122.347166
 20
245.665053
 30
0.0
 10
123.192526
 20
247.170856
 30
0.0
 10
124.750655
 20
246.486540
 30
0.0
 10
125.028551
 20
245.149913
 30
0.0
 10
124.706459
 20
245.254567
 30
0.0
 10
124.601805
 20
244.932478
 30
0.0
 10
138.451731
 20
240.432363
 30
0.0
  0
LWPOLYLINE
  5
15e
100
AcDbEntity
  8
0
 62
1
100
AcDbPolyline
 90
2
 70
0
 10
122.991347
 20
245.455746
 30
0.0
 10
123.957622
 20
245.141785
 30
0.0
  0
SPLINE
  5
15f
100
AcDbEntity
  8
0
 62
5
100
AcDbSpline
 70
0
 71
3
 72
10
 73
6
 74
4
 40
0.000000
 40
0.000000
 40
0.000000
 40
0.000000
 40
1.197292
 40
2.328502
 40
2.836660
 40
2.836660
 40
2.836660
 40
2.836660
 10
111.831532
 20
226.546948
 30
0.0
 10
111.537324
 20
226.274574
 30
0.0
 10
110.965146
 20
225.744859
 30
0.0
 10
110.115879
 20
225.310164
 30
0.0
 10
109.615847
 20
225.090904
 30
0.0
 10
109.460851
 20
225.022939
 30
0.0
 11
111.831532
 21
226.546948
 31
0.0
 11
110.915872
 21
225.775537
 31
0.0
 11
109.924952
 21
225.229904
 31
0.0
 11
109.460851
 21
225.022939
 31
0.0
  0
SPLINE
  5
160
100
AcDbEntity
  8
0
 62
5
100
AcDbSpline
 70
0
 71
3
 72
10
 73
6
 74
4
 40
0.000000
 40
0.000000
 40
0.000000
 40
0.000000
 40
0.168287
 40
0.650186
 40
1.455503
 40
1.455503
 40
1.455503
 40
1.455503
 10
117.196097
 20
239.151441
 30
0.0
 10
117.140916
 20
239.161928
 30
0.0
 10
116.927724
 20
239.202445
 30
0.0
 10
116.434796
 20
239.163681
 30
0.0
 10
116.030112
 20
239.017883
 30
0.0
 10
115.776931
 20
238.926668
 30
0.0
 11
117.196097
 21
239.151441
 31
0.0
 11
117.030087
 21
239.179028
 31
0.0
 11
116.548707
 21
239.156665
 31
0.0
 11
115.776931
 21
238.926668
 31
0.0
  0
SPLINE
  5
161
100
AcDbEntity
  8
0
 62
5
100
AcDbSpline
 70
0
 71
3
 72
10
 73
6
 74
4
 40
0.000000
 40
0.000000
 40
0.000000
 40
0.000000
 40
1.568784
 40
3.234041
 40
4.770447
 40
4.770447
 40
4.770447
 40
4.770447
 10
115.776931
 20
238.926668
 30
0.0
 10
115.347496
 20
238.628105
 30
0.0
 10
114.462216
 20
238.012618
 30
0.0
 10
113.211019
 20
237.030061
 30
0.0
 10
112.388362
 20
236.350276
 30
0.0
 10
111.993587
 20
236.024063
 30
0.0
 11
115.776931
 21
238.926668
 31
0.0
 11
114.497343
 21
238.019067
 31
0.0
 11
113.181844
 21
236.998018
 31
0.0
 11
111.993587
 21
236.024063
 31
0.0
  0
LWPOLYLINE
  5
162
100
AcDbEntity
  8
0
 62
5
100
AcDbPolyline
 90
4
 70
0
 10
122.347191
 20
245.665132
 30
0.0
 10
116.872890
 20
238.130403
 30
0.0
 10
116.598900
 20
238.329469
 30
0.0
 10
117.196097
 20
239.151441
 30
0.0
  0
LWPOLYLINE
  5
163
100
AcDbEntity
  8
0
 62
5
100
AcDbPolyline
 90
4
 70
0
 10
113.015722
 20
233.397649
 30
0.0
 10
113.612919
 20
234.219619
 30
0.0
 10
113.886909
 20
234.020553
 30
0.0
 10
112.393919
 20
231.965628
 30
0.0
  0
LWPOLYLINE
  5
164
100
AcDbEntity
  8
0
 62
1
100
AcDbPolyline
 90
2
 70
0
 10
116.176163
 20
237.171440
 30
0.0
 10
114.583639
 20
234.979519
 30
0.0
  0
LWPOLYLINE
  5
165
100
AcDbEntity
  8
0
 62
5
100
AcDbPolyline
 90
5
 70
0
 10
122.347081
 20
218.266254
 30
0.0
 10
118.885871
 20
217.844617
 30
0.0
 10
113.872913
 20
226.760979
 30
0.0
 10
114.384526
 20
229.225770
 30
0.0
 10
112.393888
 20
231.965648
 30
0.0
  0
LWPOLYLINE
  5
166
100
AcDbEntity
  8
0
 62
5
100
AcDbPolyline
 90
4
 70
0
 10
121.961808
 20
219.660802
 30
0.0
 10
120.878710
 20
219.711116
 30
0.0
 10
117.295560
 20
224.642899
 30
0.0
 10
117.582402
 20
225.688535
 30
0.0
  0
LWPOLYLINE
  5
167
100
AcDbEntity
  8
0
 62
1
100
AcDbPolyline
 90
2
 70
0
 10
122.347081
 20
218.266254
 30
0.0
 10
121.550825
 20
219.362205
 30
0.0
  0
LWPOLYLINE
  5
168
100
AcDbEntity
  8
0
 62
1
100
AcDbPolyline
 90
2
 70
0
 10
114.384526
 20
229.225770
 30
0.0
 10
117.171422
 20
225.389938
 30
0.0
  0
LWPOLYLINE
  5
169
100
AcDbEntity
  8
0
 62
5
100
AcDbPolyline
 90
8
 70
0
 10
138.451706
 20
223.499007
 30
0.0
 10
127.178545
 20
219.836135
 30
0.0
 10
127.222741
 20
218.604164
 30
0.0
 10
125.664618
 20
217.919852
 30
0.0
 10
124.545431
 20
218.624490
 30
0.0
 10
124.867520
 20
218.729144
 30
0.0
 10
124.762867
 20
219.051233
 30
0.0
 10
122.347188
 20
218.266333
 30
0.0
  0
LWPOLYLINE
  5
16a
100
AcDbEntity
  8
0
 62
1
100
AcDbPolyline
 90
2
 70
0
 10
126.534364
 20
219.626828
 30
0.0
 10
125.407047
 20
219.260540
 30
0.0
  0
LWPOLYLINE
  5
16b
100
AcDbEntity
  8
0
 62
5
100
AcDbPolyline
 90
7
 70
0
 10
123.787019
 20
215.032255
 30
0.0
 10
123.233646
 20
216.668058
 30
0.0
 10
124.784781
 20
217.368079
 30
0.0
 10
125.964038
 20
216.680216
 30
0.0
 10
125.670745
 20
216.510883
 30
0.0
 10
125.840078
 20
216.217589
 30
0.0
 10
138.451731
 20
223.498931
 30
0.0
  0
LWPOLYLINE
  5
16c
100
AcDbEntity
  8
0
 62
1
100
AcDbPolyline
 90
2
 70
0
 10
124.373606
 20
215.370922
 30
0.0
 10
125.253490
 20
215.878922
 30
0.0
  0
SPLINE
  5
16d
100
AcDbEntity
  8
0
 62
5
100
AcDbSpline
 70
0
 71
3
 72
10
 73
6
 74
4
 40
0.000000
 40
0.000000
 40
0.000000
 40
0.000000
 40
1.197299
 40
2.328514
 40
2.836675
 40
2.836675
 40
2.836675
 40
2.836675
 10
111.993587
 20
236.024063
 30
0.0
 10
112.071508
 20
235.630774
 30
0.0
 10
112.223050
 20
234.865904
 30
0.0
 10
112.654618
 20
234.015038
 30
0.0
 10
112.930276
 20
233.543739
 30
0.0
 10
113.015722
 20
233.397649
 30
0.0
 11
111.993587
 21
236.024063
 31
0.0
 11
112.280947
 21
234.861760
 31
0.0
 11
112.761905
 21
233.837881
 31
0.0
 11
113.015722
 21
233.397649
 31
0.0
  0
SPLINE
  5
16e
100
AcDbEntity
  8
0
 62
5
100
AcDbSpline
 70
0
 71
3
 72
10
 73
6
 74
4
 40
0.000000
 40
0.000000
 40
0.000000
 40
0.000000
 40
0.383749
 40
1.264637
 40
2.310850
 40
2.310850
 40
2.310850
 40
2.310850
 10
129.505086
 20
204.450937
 30
0.0
 10
129.384676
 20
204.408341
 30
0.0
 10
128.987866
 20
204.267965
 30
0.0
 10
128.217509
 20
204.107060
 30
0.0
 10
127.582217
 20
204.241715
 30
0.0
 10
127.237321
 20
204.314819
 30
0.0
 11
129.505086
 21
204.450937
 31
0.0
 11
129.141574
 21
204.327965
 31
0.0
 11
128.274114
 21
204.174745
 31
0.0
 11
127.237321
 21
204.314819
 31
0.0
  0
SPLINE
  5
16f
100
AcDbEntity
  8
0
 62
5
100
AcDbSpline
 70
0
 71
3
 72
10
 73
6
 74
4
 40
0.000000
 40
0.000000
 40
0.000000
 40
0.000000
 40
1.754124
 40
3.597979
 40
5.352101
 40
5.352101
 40
5.352101
 40
5.352101
 10
127.237321
 20
204.314819
 30
0.0
 10
126.741602
 20
204.634250
 30
0.0
 10
125.724806
 20
205.289454
 30
0.0
 10
124.785119
 20
206.917038
 30
0.0
 10
124.726094
 20
208.125211
 30
0.0
 10
124.697318
 20
208.714231
 30
0.0
 11
127.237321
 21
204.314819
 31
0.0
 11
125.841693
 21
205.377446
 31
0.0
 11
124.919766
 21
206.974271
 31
0.0
 11
124.697318
 21
208.714231
 31
0.0
  0
LWPOLYLINE
  5
170
100
AcDbEntity
  8
0
 62
5
100
AcDbPolyline
 90
4
 70
0
 10
132.253716
 20
200.367503
 30
0.0
 10
129.290380
 20
205.500152
 30
0.0
 10
128.997086
 20
205.330819
 30
0.0
 10
129.505086
 20
204.450937
 30
0.0
  0
LWPOLYLINE
  5
171
100
AcDbEntity
  8
0
 62
5
100
AcDbPolyline
 90
4
 70
0
 10
125.949081
 20
210.610115
 30
0.0
 10
126.457083
 20
209.730234
 30
0.0
 10
126.750377
 20
209.899567
 30
0.0
 10
123.787041
 20
215.032216
 30
0.0
  0
LWPOLYLINE
  5
172
100
AcDbEntity
  8
0
 62
1
100
AcDbPolyline
 90
2
 70
0
 10
128.697713
 20
206.526682
 30
0.0
 10
127.343044
 20
208.873038
 30
0.0
  0
LWPOLYLINE
  5
173
100
AcDbEntity
  8
0
 62
5
100
AcDbPolyline
 90
4
 70
0
 10
146.918471
 20
208.834201
 30
0.0
 10
145.594197
 20
204.354570
 30
0.0
 10
136.795369
 20
199.274564
 30
0.0
 10
132.253759
 20
200.367526
 30
0.0
  0
LWPOLYLINE
  5
174
100
AcDbEntity
  8
0
 62
5
100
AcDbPolyline
 90
4
 70
0
 10
142.558352
 20
206.903474
 30
0.0
 10
142.395095
 20
205.831571
 30
0.0
 10
137.115798
 20
202.783568
 30
0.0
 10
136.105877
 20
203.178135
 30
0.0
  0
LWPOLYLINE
  5
175
100
AcDbEntity
  8
0
 62
1
100
AcDbPolyline
 90
2
 70
0
 10
146.918471
 20
208.834201
 30
0.0
 10
142.812352
 20
206.463532
 30
0.0
  0
LWPOLYLINE
  5
176
100
AcDbEntity
  8
0
 62
1
100
AcDbPolyline
 90
2
 70
0
 10
132.253759
 20
200.367526
 30
0.0
 10
136.359877
 20
202.738195
 30
0.0
  0
SPLINE
  5
177
100
AcDbEntity
  8
0
 62
5
100
AcDbSpline
 70
0
 71
3
 72
10
 73
6
 74
4
 40
0.000000
 40
0.000000
 40
0.000000
 40
0.000000
 40
1.046213
 40
1.927100
 40
2.310849
 40
2.310849
 40
2.310849
 40
2.310849
 10
124.697318
 20
208.714231
 30
0.0
 10
124.806457
 20
209.049472
 30
0.0
 10
125.007488
 20
209.666979
 30
0.0
 10
125.532013
 20
210.253676
 30
0.0
 10
125.851986
 20
210.527135
 30
0.0
 10
125.949081
 20
210.610115
 30
0.0
 11
124.697318
 21
208.714231
 31
0.0
 11
125.094406
 21
209.682158
 31
0.0
 11
125.660828
 21
210.356791
 31
0.0
 11
125.949081
 21
210.610115
 31
0.0
  0
SPLINE
  5
178
100
AcDbEntity
  8
0
 62
5
100
AcDbSpline
 70
0
 71
3
 72
10
 73
6
 74
4
 40
0.000000
 40
0.000000
 40
0.000000
 40
0.000000
 40
0.383749
 40
1.264638
 40
2.310851
 40
2.310851
 40
2.310851
 40
2.310851
 10
153.223081
 20
219.076856
 30
0.0
 10
153.320176
 20
218.993875
 30
0.0
 10
153.640150
 20
218.720416
 30
0.0
 10
154.164676
 20
218.133719
 30
0.0
 10
154.365708
 20
217.516212
 30
0.0
 10
154.474847
 20
217.180971
 30
0.0
 11
153.223081
 21
219.076856
 31
0.0
 11
153.511334
 21
218.823531
 31
0.0
 11
154.077758
 21
218.148898
 31
0.0
 11
154.474847
 21
217.180971
 31
0.0
  0
SPLINE
  5
179
100
AcDbEntity
  8
0
 62
5
100
AcDbSpline
 70
0
 71
3
 72
10
 73
6
 74
4
 40
0.000000
 40
0.000000
 40
0.000000
 40
0.000000
 40
1.754124
 40
3.597978
 40
5.352101
 40
5.352101
 40
5.352101
 40
5.352101
 10
154.474847
 20
217.180971
 30
0.0
 10
154.446070
 20
216.591950
 30
0.0
 10
154.387044
 20
215.383778
 30
0.0
 10
153.447358
 20
213.756194
 30
0.0
 10
152.430563
 20
213.100990
 30
0.0
 10
151.934844
 20
212.781559
 30
0.0
 11
154.474847
 21
217.180971
 31
0.0
 11
154.252397
 21
215.441009
 31
0.0
 11
153.330471
 21
213.844185
 31
0.0
 11
151.934844
 21
212.781559
 31
0.0
  0
LWPOLYLINE
  5
17a
100
AcDbEntity
  8
0
 62
5
100
AcDbPolyline
 90
4
 70
0
 10
155.385124
 20
223.498956
 30
0.0
 10
152.421788
 20
218.366307
 30
0.0
 10
152.715081
 20
218.196974
 30
0.0
 10
153.223081
 20
219.076856
 30
0.0
  0
LWPOLYLINE
  5
17b
100
AcDbEntity
  8
0
 62
5
100
AcDbPolyline
 90
4
 70
0
 10
149.667079
 20
212.917677
 30
0.0
 10
150.175079
 20
213.797559
 30
0.0
 10
149.881785
 20
213.966892
 30
0.0
 10
146.918449
 20
208.834243
 30
0.0
  0
LWPOLYLINE
  5
17c
100
AcDbEntity
  8
0
 62
1
100
AcDbPolyline
 90
2
 70
0
 10
151.829121
 20
217.339778
 30
0.0
 10
150.474451
 20
214.993422
 30
0.0
  0
LWPOLYLINE
  5
17d
100
AcDbEntity
  8
0
 62
5
100
AcDbPolyline
 90
5
 70
0
 10
155.385163
 20
223.498931
 30
0.0
 10
158.433180
 20
225.192275
 30
0.0
 10
157.247841
 20
235.352335
 30
0.0
 10
155.385163
 20
237.045676
 30
0.0
 10
155.385163
 20
240.432363
 30
0.0
  0
LWPOLYLINE
  5
17e
100
AcDbEntity
  8
0
 62
5
100
AcDbPolyline
 90
4
 70
0
 10
154.877160
 20
224.853606
 30
0.0
 10
155.723833
 20
225.530942
 30
0.0
 10
155.723833
 20
231.626979
 30
0.0
 10
154.877160
 20
232.304315
 30
0.0
  0
LWPOLYLINE
  5
17f
100
AcDbEntity
  8
0
 62
1
100
AcDbPolyline
 90
2
 70
0
 10
155.385163
 20
223.498931
 30
0.0
 10
155.385163
 20
224.853606
 30
0.0
  0
LWPOLYLINE
  5
180
100
AcDbEntity
  8
0
 62
1
100
AcDbPolyline
 90
2
 70
0
 10
155.385163
 20
237.045676
 30
0.0
 10
155.385163
 20
232.304315
 30
0.0
  0
SPLINE
  5
181
100
AcDbEntity
  8
0
 62
5
100
AcDbSpline
 70
0
 71
3
 72
10
 73
6
 74
4
 40
0.000000
 40
0.000000
 40
0.000000
 40
0.000000
 40
1.046214
 40
1.927101
 40
2.310850
 40
2.310850
 40
2.310850
 40
2.310850
 10
151.934844
 20
212.781559
 30
0.0
 10
151.589947
 20
212.708455
 30
0.0
 10
150.954655
 20
212.573800
 30
0.0
 10
150.184298
 20
212.734705
 30
0.0
 10
149.787489
 20
212.875081
 30
0.0
 10
149.667079
 20
212.917677
 30
0.0
 11
151.934844
 21
212.781559
 31
0.0
 11
150.898050
 21
212.641485
 31
0.0
 11
150.030590
 21
212.794705
 31
0.0
 11
149.667079
 21
212.917677
 31
0.0
  0
SPLINE
  5
182
100
AcDbEntity
  8
0
 62
5
100
AcDbSpline
 70
0
 71
3
 72
10
 73
6
 74
4
 40
0.000000
 40
0.000000
 40
0.000000
 40
0.000000
 40
0.168287
 40
0.650186
 40
1.455503
 40
1.455503
 40
1.455503
 40
1.455503
 10
163.033566
 20
244.457111
 30
0.0
 10
163.038228
 20
244.401137
 30
0.0
 10
163.056239
 20
244.184877
 30
0.0
 10
162.966162
 20
243.698702
 30
0.0
 10
162.778862
 20
243.311475
 30
0.0
 10
162.661682
 20
243.069216
 30
0.0
 11
163.033566
 21
244.457111
 31
0.0
 11
163.043649
 21
244.289127
 31
0.0
 11
162.971091
 21
243.812721
 31
0.0
 11
162.661682
 21
243.069216
 31
0.0
  0
SPLINE
  5
183
100
AcDbEntity
  8
0
 62
5
100
AcDbSpline
 70
0
 71
3
 72
10
 73
6
 74
4
 40
0.000000
 40
0.000000
 40
0.000000
 40
0.000000
 40
1.568783
 40
3.234038
 40
4.770443
 40
4.770443
 40
4.770443
 40
4.770443
 10
162.661682
 20
243.069216
 30
0.0
 10
162.319866
 20
242.673341
 30
0.0
 10
161.615216
 20
241.857249
 30
0.0
 10
160.507256
 20
240.715611
 30
0.0
 10
159.745205
 20
239.968517
 30
0.0
 10
159.379514
 20
239.610004
 30
0.0
 11
162.661682
 21
243.069216
 31
0.0
 11
161.625300
 21
241.891509
 31
0.0
 11
160.472339
 21
240.689945
 31
0.0
 11
159.379514
 21
239.610004
 31
0.0
  0
LWPOLYLINE
  5
184
100
AcDbEntity
  8
0
 62
5
100
AcDbPolyline
 90
4
 70
0
 10
170.050003
 20
248.899114
 30
0.0
 10
161.984340
 20
244.242402
 30
0.0
 10
162.153676
 20
243.949106
 30
0.0
 10
163.033566
 20
244.457111
 30
0.0
  0
LWPOLYLINE
  5
185
100
AcDbEntity
  8
0
 62
5
100
AcDbPolyline
 90
4
 70
0
 10
156.874334
 20
240.901075
 30
0.0
 10
157.754224
 20
241.409080
 30
0.0
 10
157.584888
 20
241.702377
 30
0.0
 10
155.385163
 20
240.432366
 30
0.0
  0
LWPOLYLINE
  5
186
100
AcDbEntity
  8
0
 62
1
100
AcDbPolyline
 90
2
 70
0
 10
160.957802
 20
243.649730
 30
0.0
 10
158.611426
 20
242.295049
 30
0.0
  0
LWPOLYLINE
  5
187
100
AcDbEntity
  8
0
 62
5
100
AcDbPolyline
 90
7
 70
0
 10
170.050023
 20
248.899077
 30
0.0
 10
169.496650
 20
247.263275
 30
0.0
 10
171.047785
 20
246.563254
 30
0.0
 10
172.227042
 20
247.251117
 30
0.0
 10
171.933749
 20
247.420450
 30
0.0
 10
172.103082
 20
247.713744
 30
0.0
 10
184.714735
 20
240.432402
 30
0.0
  0
LWPOLYLINE
  5
188
100
AcDbEntity
  8
0
 62
1
100
AcDbPolyline
 90
2
 70
0
 10
170.636610
 20
248.560411
 30
0.0
 10
171.516494
 20
248.052411
 30
0.0
  0
LWPOLYLINE
  5
189
100
AcDbEntity
  8
0
 62
5
100
AcDbPolyline
 90
8
 70
0
 10
184.714713
 20
240.432363
 30
0.0
 10
173.441515
 20
244.095246
 30
0.0
 10
173.485714
 20
245.327219
 30
0.0
 10
171.927585
 20
246.011535
 30
0.0
 10
170.808393
 20
245.306894
 30
0.0
 10
171.130485
 20
245.202240
 30
0.0
 10
171.025831
 20
244.880151
 30
0.0
 10
168.610147
 20
245.665053
 30
0.0
  0
LWPOLYLINE
  5
18a
100
AcDbEntity
  8
0
 62
1
100
AcDbPolyline
 90
2
 70
0
 10
172.797335
 20
244.304553
 30
0.0
 10
171.670015
 20
244.670841
 30
0.0
  0
LWPOLYLINE
  5
18b
100
AcDbEntity
  8
0
 62
5
100
AcDbPolyline
 90
5
 70
0
 10
158.656901
 20
231.965628
 30
0.0
 10
157.186317
 20
235.127166
 30
0.0
 10
164.117246
 20
242.650141
 30
0.0
 10
166.619518
 20
242.925232
 30
0.0
 10
168.610173
 20
245.665132
 30
0.0
  0
LWPOLYLINE
  5
18c
100
AcDbEntity
  8
0
 62
5
100
AcDbPolyline
 90
4
 70
0
 10
159.864146
 20
232.762988
 30
0.0
 10
159.577303
 20
233.808633
 30
0.0
 10
163.160481
 20
238.740455
 30
0.0
 10
164.243585
 20
238.790772
 30
0.0
  0
LWPOLYLINE
  5
18d
100
AcDbEntity
  8
0
 62
1
100
AcDbPolyline
 90
2
 70
0
 10
158.656901
 20
231.965628
 30
0.0
 10
159.453162
 20
233.061588
 30
0.0
  0
LWPOLYLINE
  5
18e
100
AcDbEntity
  8
0
 62
1
100
AcDbPolyline
 90
2
 70
0
 10
166.619518
 20
242.925232
 30
0.0
 10
163.832602
 20
239.089369
 30
0.0
  0
SPLINE
  5
18f
100
AcDbEntity
  8
0
 62
5
100
AcDbSpline
 70
0
 71
3
 72
10
 73
6
 74
4
 40
0.000000
 40
0.000000
 40
0.000000
 40
0.000000
 40
1.197297
 40
2.328511
 40
2.836671
 40
2.836671
 40
2.836671
 40
2.836671
 10
159.379514
 20
239.610004
 30
0.0
 10
158.996525
 20
239.728609
 30
0.0
 10
158.251687
 20
239.959272
 30
0.0
 10
157.450594
 20
240.477415
 30
0.0
 10
157.010692
 20
240.800826
 30
0.0
 10
156.874334
 20
240.901075
 30
0.0
 11
159.379514
 21
239.610004
 31
0.0
 11
158.253618
 21
240.017285
 31
0.0
 11
157.285623
 21
240.602632
 31
0.0
 11
156.874334
 21
240.901075
 31
0.0
  0
SPLINE
  5
190
100
AcDbEntity
  8
0
 62
5
100
AcDbSpline
 70
0
 71
3
 72
10
 73
6
 74
4
 40
0.000000
 40
0.000000
 40
0.000000
 40
0.000000
 40
0.168285
 40
0.650182
 40
1.455494
 40
1.455494
 40
1.455494
 40
1.455494
 10
163.259948
 20
225.053882
 30
0.0
 10
163.232923
 20
225.004643
 30
0.0
 10
163.128509
 20
224.814407
 30
0.0
 10
163.013055
 20
224.333629
 30
0.0
 10
163.026664
 20
223.903700
 30
0.0
 10
163.035178
 20
223.634725
 30
0.0
 11
163.259948
 21
225.053882
 31
0.0
 11
163.182412
 21
224.904523
 31
0.0
 11
163.054927
 21
224.439795
 31
0.0
 11
163.035178
 21
223.634725
 31
0.0
  0
SPLINE
  5
191
100
AcDbEntity
  8
0
 62
5
100
AcDbSpline
 70
0
 71
3
 72
10
 73
6
 74
4
 40
0.000000
 40
0.000000
 40
0.000000
 40
0.000000
 40
1.568771
 40
3.234013
 40
4.770407
 40
4.770407
 40
4.770407
 40
4.770407
 10
163.035178
 20
223.634725
 30
0.0
 10
163.186424
 20
223.134050
 30
0.0
 10
163.498216
 20
222.101913
 30
0.0
 10
164.046038
 20
220.608339
 30
0.0
 10
164.438333
 20
219.615888
 30
0.0
 10
164.626586
 20
219.139633
 30
0.0
 11
163.035178
 21
223.634725
 31
0.0
 11
163.502938
 21
222.137313
 31
0.0
 11
164.067497
 21
220.570690
 31
0.0
 11
164.626586
 21
219.139633
 31
0.0
  0
LWPOLYLINE
  5
192
100
AcDbEntity
  8
0
 62
5
100
AcDbPolyline
 90
4
 70
0
 10
158.656872
 20
231.965648
 30
0.0
 10
164.131128
 20
224.430981
 30
0.0
 10
163.857141
 20
224.231918
 30
0.0
 10
163.259948
 20
225.053882
 30
0.0
  0
LWPOLYLINE
  5
193
100
AcDbEntity
  8
0
 62
5
100
AcDbPolyline
 90
4
 70
0
 10
167.440291
 20
219.300136
 30
0.0
 10
166.843098
 20
220.122099
 30
0.0
 10
167.117087
 20
220.321162
 30
0.0
 10
168.610066
 20
218.266254
 30
0.0
  0
LWPOLYLINE
  5
194
100
AcDbEntity
  8
0
 62
1
100
AcDbPolyline
 90
2
 70
0
 10
164.827853
 20
223.472024
 30
0.0
 10
166.420363
 20
221.280119
 30
0.0
  0
LWPOLYLINE
  5
195
100
AcDbEntity
  8
0
 62
5
100
AcDbPolyline
 90
7
 70
0
 10
168.610173
 20
218.266333
 30
0.0
 10
169.455533
 20
216.760534
 30
0.0
 10
171.013656
 20
217.444846
 30
0.0
 10
171.291549
 20
218.781470
 30
0.0
 10
170.969460
 20
218.676817
 30
0.0
 10
170.864807
 20
218.998906
 30
0.0
 10
184.714690
 20
223.499007
 30
0.0
  0
LWPOLYLINE
  5
196
100
AcDbEntity
  8
0
 62
1
100
AcDbPolyline
 90
2
 70
0
 10
169.254353
 20
218.475640
 30
0.0
 10
170.220626
 20
218.789601
 30
0.0
  0
LWPOLYLINE
  5
197
100
AcDbEntity
  8
0
 62
5
100
AcDbPolyline
 90
8
 70
0
 10
184.714713
 20
223.498931
 30
0.0
 10
174.449413
 20
217.572258
 30
0.0
 10
173.563452
 20
218.429455
 30
0.0
 10
172.012314
 20
217.729434
 30
0.0
 10
171.787078
 20
216.426216
 30
0.0
 10
172.080372
 20
216.595549
 30
0.0
 10
172.249705
 20
216.302255
 30
0.0
 10
170.050000
 20
215.032255
 30
0.0
  0
LWPOLYLINE
  5
198
100
AcDbEntity
  8
0
 62
1
100
AcDbPolyline
 90
2
 70
0
 10
173.862825
 20
217.233589
 30
0.0
 10
172.836295
 20
216.640922
 30
0.0
  0
LWPOLYLINE
  5
199
100
AcDbEntity
  8
0
 62
5
100
AcDbPolyline
 90
4
 70
0
 10
178.516698
 20
200.367503
 30
0.0
 10
174.037066
 20
201.691778
 30
0.0
 10
168.957061
 20
210.490606
 30
0.0
 10
170.050023
 20
215.032216
 30
0.0
  0
LWPOLYLINE
  5
19a
100
AcDbEntity
  8
0
 62
5
100
AcDbPolyline
 90
4
 70
0
 10
176.585970
 20
204.727622
 30
0.0
 10
175.514068
 20
204.890879
 30
0.0
 10
172.466065
 20
210.170176
 30
0.0
 10
172.860631
 20
211.180097
 30
0.0
  0
LWPOLYLINE
  5
19b
100
AcDbEntity
  8
0
 62
1
100
AcDbPolyline
 90
2
 70
0
 10
178.516698
 20
200.367503
 30
0.0
 10
176.146028
 20
204.473622
 30
0.0
  0
LWPOLYLINE
  5
19c
100
AcDbEntity
  8
0
 62
1
100
AcDbPolyline
 90
2
 70
0
 10
170.050023
 20
215.032216
 30
0.0
 10
172.420692
 20
210.926097
 30
0.0
  0
SPLINE
  5
19d
100
AcDbEntity
  8
0
 62
5
100
AcDbSpline
 70
0
 71
3
 72
10
 73
6
 74
4
 40
0.000000
 40
0.000000
 40
0.000000
 40
0.000000
 40
1.197290
 40
2.328498
 40
2.836654
 40
2.836654
 40
2.836654
 40
2.836654
 10
164.626586
 20
219.139633
 30
0.0
 10
165.024702
 20
219.092209
 30
0.0
 10
165.798961
 20
218.999977
 30
0.0
 10
166.741537
 20
219.147490
 30
0.0
 10
167.274949
 20
219.264016
 30
0.0
 10
167.440291
 20
219.300136
 30
0.0
 11
164.626586
 21
219.139633
 31
0.0
 11
165.820793
 21
219.053759
 31
0.0
 11
166.943176
 21
219.194781
 31
0.0
 11
167.440291
 21
219.300136
 31
0.0
  0
SPLINE
  5
19e
100
AcDbEntity
  8
0
 62
5
100
AcDbSpline
 70
0
 71
3
 72
10
 73
6
 74
4
 40
0.000000
 40
0.000000
 40
0.000000
 40
0.000000
 40
0.383752
 40
1.264647
 40
2.310870
 40
2.310870
 40
2.310870
 40
2.310870
 10
189.098112
 20
206.085619
 30
0.0
 10
189.140709
 20
205.965208
 30
0.0
 10
189.281086
 20
205.568395
 30
0.0
 10
189.441990
 20
204.798031
 30
0.0
 10
189.307335
 20
204.162734
 30
0.0
 10
189.234231
 20
203.817834
 30
0.0
 11
189.098112
 21
206.085619
 31
0.0
 11
189.221085
 21
205.722104
 31
0.0
 11
189.374306
 21
204.854637
 31
0.0
 11
189.234231
 21
203.817834
 31
0.0
  0
SPLINE
  5
19f
100
AcDbEntity
  8
0
 62
5
100
AcDbSpline
 70
0
 71
3
 72
10
 73
6
 74
4
 40
0.000000
 40
0.000000
 40
0.000000
 40
0.000000
 40
1.754139
 40
3.598008
 40
5.352148
 40
5.352148
 40
5.352148
 40
5.352148
 10
189.234231
 20
203.817834
 30
0.0
 10
188.914795
 20
203.322111
 30
0.0
 10
188.259585
 20
202.305308
 30
0.0
 10
186.631987
 20
201.365614
 30
0.0
 10
185.423804
 20
201.306586
 30
0.0
 10
184.834778
 20
201.277808
 30
0.0
 11
189.234231
 21
203.817834
 31
0.0
 11
188.171593
 21
202.422196
 31
0.0
 11
186.574755
 21
201.500261
 31
0.0
 11
184.834778
 21
201.277808
 31
0.0
  0
LWPOLYLINE
  5
1a0
100
AcDbEntity
  8
0
 62
5
100
AcDbPolyline
 90
4
 70
0
 10
193.181580
 20
208.834274
 30
0.0
 10
188.048886
 20
205.870913
 30
0.0
 10
188.218219
 20
205.577616
 30
0.0
 10
189.098112
 20
206.085619
 30
0.0
  0
LWPOLYLINE
  5
1a1
100
AcDbEntity
  8
0
 62
5
100
AcDbPolyline
 90
4
 70
0
 10
182.938877
 20
202.529585
 30
0.0
 10
183.818767
 20
203.037591
 30
0.0
 10
183.649434
 20
203.330888
 30
0.0
 10
178.516740
 20
200.367526
 30
0.0
  0
LWPOLYLINE
  5
1a2
100
AcDbEntity
  8
0
 62
1
100
AcDbPolyline
 90
2
 70
0
 10
187.022348
 20
205.278241
 30
0.0
 10
184.675972
 20
203.923560
 30
0.0
  0
LWPOLYLINE
  5
1a3
100
AcDbEntity
  8
0
 62
5
100
AcDbPolyline
 90
4
 70
0
 10
201.648274
 20
223.498956
 30
0.0
 10
202.741234
 20
218.957346
 30
0.0
 10
197.661228
 20
210.158518
 30
0.0
 10
193.181599
 20
208.834243
 30
0.0
  0
LWPOLYLINE
  5
1a4
100
AcDbEntity
  8
0
 62
5
100
AcDbPolyline
 90
4
 70
0
 10
198.837663
 20
219.646837
 30
0.0
 10
199.232232
 20
218.636913
 30
0.0
 10
196.184229
 20
213.357617
 30
0.0
 10
195.112327
 20
213.194362
 30
0.0
  0
LWPOLYLINE
  5
1a5
100
AcDbEntity
  8
0
 62
1
100
AcDbPolyline
 90
2
 70
0
 10
201.648274
 20
223.498956
 30
0.0
 10
199.277605
 20
219.392837
 30
0.0
  0
LWPOLYLINE
  5
1a6
100
AcDbEntity
  8
0
 62
1
100
AcDbPolyline
 90
2
 70
0
 10
193.181599
 20
208.834243
 30
0.0
 10
195.552269
 20
212.940362
 30
0.0
  0
SPLINE
  5
1a7
100
AcDbEntity
  8
0
 62
5
100
AcDbSpline
 70
0
 71
3
 72
10
 73
6
 74
4
 40
0.000000
 40
0.000000
 40
0.000000
 40
0.000000
 40
1.046222
 40
1.927119
 40
2.310871
 40
2.310871
 40
2.310871
 40
2.310871
 10
184.834778
 20
201.277808
 30
0.0
 10
184.499535
 20
201.386949
 30
0.0
 10
183.882023
 20
201.587983
 30
0.0
 10
183.295320
 20
202.112513
 30
0.0
 10
183.021858
 20
202.432490
 30
0.0
 10
182.938877
 20
202.529585
 30
0.0
 11
184.834778
 21
201.277808
 31
0.0
 11
183.866844
 21
201.674902
 31
0.0
 11
183.192205
 21
202.241330
 31
0.0
 11
182.938877
 21
202.529585
 31
0.0
  0
SPLINE
  5
1a8
100
AcDbEntity
  8
0
 62
5
100
AcDbSpline
 70
0
 71
3
 72
10
 73
6
 74
4
 40
0.000000
 40
0.000000
 40
0.000000
 40
0.000000
 40
0.168286
 40
0.650183
 40
1.455497
 40
1.455497
 40
1.455497
 40
1.455497
 10
201.986983
 20
232.134981
 30
0.0
 10
202.037789
 20
232.111032
 30
0.0
 10
202.234080
 20
232.018500
 30
0.0
 10
202.610080
 20
231.697405
 30
0.0
 10
202.851777
 20
231.341586
 30
0.0
 10
203.002989
 20
231.118976
 30
0.0
 11
201.986983
 21
232.134981
 31
0.0
 11
202.137503
 21
232.059722
 31
0.0
 11
202.513801
 21
231.758683
 31
0.0
 11
203.002989
 21
231.118976
 31
0.0
  0
SPLINE
  5
1a9
100
AcDbEntity
  8
0
 62
5
100
AcDbSpline
 70
0
 71
3
 72
10
 73
6
 74
4
 40
0.000000
 40
0.000000
 40
0.000000
 40
0.000000
 40
1.568776
 40
3.234024
 40
4.770424
 40
4.770424
 40
4.770424
 40
4.770424
 10
203.002989
 20
231.118976
 30
0.0
 10
203.174918
 20
230.625020
 30
0.0
 10
203.529348
 20
229.606732
 30
0.0
 10
203.964054
 20
228.076399
 30
0.0
 10
204.230029
 20
227.042900
 30
0.0
 10
204.357664
 20
226.546948
 30
0.0
 11
203.002989
 21
231.118976
 31
0.0
 11
203.504720
 21
229.632596
 31
0.0
 11
203.968822
 21
228.033327
 31
0.0
 11
204.357664
 21
226.546948
 31
0.0
  0
LWPOLYLINE
  5
1aa
100
AcDbEntity
  8
0
 62
5
100
AcDbPolyline
 90
4
 70
0
 10
201.648314
 20
240.432363
 30
0.0
 10
201.648314
 20
231.118976
 30
0.0
 10
201.986983
 20
231.118976
 30
0.0
 10
201.986983
 20
232.134981
 30
0.0
  0
LWPOLYLINE
  5
1ab
100
AcDbEntity
  8
0
 62
5
100
AcDbPolyline
 90
4
 70
0
 10
201.986983
 20
225.022939
 30
0.0
 10
201.986983
 20
226.038945
 30
0.0
 10
201.648314
 20
226.038945
 30
0.0
 10
201.648314
 20
223.498931
 30
0.0
  0
LWPOLYLINE
  5
1ac
100
AcDbEntity
  8
0
 62
1
100
AcDbPolyline
 90
2
 70
0
 10
201.648314
 20
229.933634
 30
0.0
 10
201.648314
 20
227.224287
 30
0.0
  0
LWPOLYLINE
  5
1ad
100
AcDbEntity
  8
0
 62
5
100
AcDbPolyline
 90
5
 70
0
 10
201.648314
 20
240.432366
 30
0.0
 10
204.638735
 20
238.639413
 30
0.0
 10
212.844753
 20
244.745844
 30
0.0
 10
213.379880
 20
247.205589
 30
0.0
 10
216.312773
 20
248.898894
 30
0.0
  0
LWPOLYLINE
  5
1ae
100
AcDbEntity
  8
0
 62
5
100
AcDbPolyline
 90
4
 70
0
 10
202.567475
 20
241.549621
 30
0.0
 10
203.577379
 20
241.155058
 30
0.0
 10
208.856586
 20
244.203010
 30
0.0
 10
209.019837
 20
245.274892
 30
0.0
  0
LWPOLYLINE
  5
1af
100
AcDbEntity
  8
0
 62
1
100
AcDbPolyline
 90
2
 70
0
 10
201.648314
 20
240.432366
 30
0.0
 10
202.821469
 20
241.109688
 30
0.0
  0
LWPOLYLINE
  5
1b0
100
AcDbEntity
  8
0
 62
1
100
AcDbPolyline
 90
2
 70
0
 10
213.379880
 20
247.205589
 30
0.0
 10
209.273831
 20
244.834959
 30
0.0
  0
LWPOLYLINE
  5
1b1
100
AcDbEntity
  8
0
 62
5
100
AcDbPolyline
 90
8
 70
0
 10
230.977124
 20
240.432549
 30
0.0
 10
220.712002
 20
246.359120
 30
0.0
 10
219.826055
 20
245.501937
 30
0.0
 10
218.274945
 20
246.201947
 30
0.0
 10
218.049715
 20
247.505139
 30
0.0
 10
218.343003
 20
247.335809
 30
0.0
 10
218.512334
 20
247.629100
 30
0.0
 10
216.312665
 20
248.899077
 30
0.0
  0
LWPOLYLINE
  5
1b2
100
AcDbEntity
  8
0
 62
1
100
AcDbPolyline
 90
2
 70
0
 10
220.125423
 20
246.697781
 30
0.0
 10
219.098913
 20
247.290439
 30
0.0
  0
LWPOLYLINE
  5
1b3
100
AcDbEntity
  8
0
 62
5
100
AcDbPolyline
 90
7
 70
0
 10
214.873216
 20
245.664805
 30
0.0
 10
215.718537
 20
247.170537
 30
0.0
 10
217.276593
 20
246.486252
 30
0.0
 10
217.554474
 20
245.149690
 30
0.0
 10
217.232397
 20
245.254338
 30
0.0
 10
217.127749
 20
244.932263
 30
0.0
 10
230.977017
 20
240.432363
 30
0.0
  0
LWPOLYLINE
  5
1b4
100
AcDbEntity
  8
0
 62
1
100
AcDbPolyline
 90
2
 70
0
 10
215.517369
 20
245.455506
 30
0.0
 10
216.483596
 20
245.141559
 30
0.0
  0
SPLINE
  5
1b5
100
AcDbEntity
  8
0
 62
5
100
AcDbSpline
 70
0
 71
3
 72
10
 73
6
 74
4
 40
0.000000
 40
0.000000
 40
0.000000
 40
0.000000
 40
1.197292
 40
2.328502
 40
2.836660
 40
2.836660
 40
2.836660
 40
2.836660
 10
204.357664
 20
226.546948
 30
0.0
 10
204.063456
 20
226.274574
 30
0.0
 10
203.491278
 20
225.744859
 30
0.0
 10
202.642011
 20
225.310164
 30
0.0
 10
202.141979
 20
225.090904
 30
0.0
 10
201.986983
 20
225.022939
 30
0.0
 11
204.357664
 21
226.546948
 31
0.0
 11
203.442004
 21
225.775537
 31
0.0
 11
202.451085
 21
225.229904
 31
0.0
 11
201.986983
 21
225.022939
 31
0.0
  0
SPLINE
  5
1b6
100
AcDbEntity
  8
0
 62
5
100
AcDbSpline
 70
0
 71
3
 72
10
 73
6
 74
4
 40
0.000000
 40
0.000000
 40
0.000000
 40
0.000000
 40
0.168288
 40
0.650190
 40
1.455513
 40
1.455513
 40
1.455513
 40
1.455513
 10
209.722198
 20
239.151401
 30
0.0
 10
209.667017
 20
239.161889
 30
0.0
 10
209.453823
 20
239.202407
 30
0.0
 10
208.960893
 20
239.163642
 30
0.0
 10
208.556206
 20
239.017842
 30
0.0
 10
208.303024
 20
238.926625
 30
0.0
 11
209.722198
 21
239.151401
 31
0.0
 11
209.556187
 21
239.178989
 31
0.0
 11
209.074804
 21
239.156626
 31
0.0
 11
208.303024
 21
238.926625
 31
0.0
  0
SPLINE
  5
1b7
100
AcDbEntity
  8
0
 62
5
100
AcDbSpline
 70
0
 71
3
 72
10
 73
6
 74
4
 40
0.000000
 40
0.000000
 40
0.000000
 40
0.000000
 40
1.568792
 40
3.234058
 40
4.770475
 40
4.770475
 40
4.770475
 40
4.770475
 10
208.303024
 20
238.926625
 30
0.0
 10
207.873586
 20
238.628061
 30
0.0
 10
206.988302
 20
238.012572
 30
0.0
 10
205.737097
 20
237.030009
 30
0.0
 10
204.914435
 20
236.350220
 30
0.0
 10
204.519657
 20
236.024004
 30
0.0
 11
208.303024
 21
238.926625
 31
0.0
 11
207.023429
 21
238.019021
 31
0.0
 11
205.707922
 21
236.997966
 31
0.0
 11
204.519657
 21
236.024004
 31
0.0
  0
LWPOLYLINE
  5
1b8
100
AcDbEntity
  8
0
 62
5
100
AcDbPolyline
 90
4
 70
0
 10
214.873324
 20
245.665132
 30
0.0
 10
209.398991
 20
238.130361
 30
0.0
 10
209.124999
 20
238.329426
 30
0.0
 10
209.722198
 20
239.151401
 30
0.0
  0
LWPOLYLINE
  5
1b9
100
AcDbEntity
  8
0
 62
5
100
AcDbPolyline
 90
4
 70
0
 10
205.541801
 20
233.397576
 30
0.0
 10
206.139000
 20
234.219551
 30
0.0
 10
206.412993
 20
234.020486
 30
0.0
 10
204.919992
 20
231.965546
 30
0.0
  0
LWPOLYLINE
  5
1ba
100
AcDbEntity
  8
0
 62
1
100
AcDbPolyline
 90
2
 70
0
 10
208.702258
 20
237.171389
 30
0.0
 10
207.109726
 20
234.979454
 30
0.0
  0
LWPOLYLINE
  5
1bb
100
AcDbEntity
  8
0
 62
5
100
AcDbPolyline
 90
5
 70
0
 10
214.873106
 20
218.266172
 30
0.0
 10
211.411874
 20
217.844535
 30
0.0
 10
206.398887
 20
226.760948
 30
0.0
 10
206.910505
 20
229.225753
 30
0.0
 10
204.919854
 20
231.965648
 30
0.0
  0
LWPOLYLINE
  5
1bc
100
AcDbEntity
  8
0
 62
5
100
AcDbPolyline
 90
4
 70
0
 10
214.487831
 20
219.660728
 30
0.0
 10
213.404727
 20
219.711046
 30
0.0
 10
209.821554
 20
224.642856
 30
0.0
 10
210.108399
 20
225.688498
 30
0.0
  0
LWPOLYLINE
  5
1bd
100
AcDbEntity
  8
0
 62
1
100
AcDbPolyline
 90
2
 70
0
 10
214.873106
 20
218.266172
 30
0.0
 10
214.076844
 20
219.362131
 30
0.0
  0
LWPOLYLINE
  5
1be
100
AcDbEntity
  8
0
 62
1
100
AcDbPolyline
 90
2
 70
0
 10
206.910505
 20
229.225753
 30
0.0
 10
209.697413
 20
225.389899
 30
0.0
  0
LWPOLYLINE
  5
1bf
100
AcDbEntity
  8
0
 62
5
100
AcDbPolyline
 90
8
 70
0
 10
230.977073
 20
223.498758
 30
0.0
 10
219.704449
 20
219.836062
 30
0.0
 10
219.748642
 20
218.604150
 30
0.0
 10
218.190592
 20
217.919869
 30
0.0
 10
217.071459
 20
218.624473
 30
0.0
 10
217.393534
 20
218.729121
 30
0.0
 10
217.288886
 20
219.051196
 30
0.0
 10
214.873324
 20
218.266333
 30
0.0
  0
LWPOLYLINE
  5
1c0
100
AcDbEntity
  8
0
 62
1
100
AcDbPolyline
 90
2
 70
0
 10
219.060299
 20
219.626763
 30
0.0
 10
217.933036
 20
219.260495
 30
0.0
  0
LWPOLYLINE
  5
1c1
100
AcDbEntity
  8
0
 62
5
100
AcDbPolyline
 90
7
 70
0
 10
216.312558
 20
215.032402
 30
0.0
 10
215.759194
 20
216.668176
 30
0.0
 10
217.310304
 20
217.368186
 30
0.0
 10
218.489541
 20
216.680334
 30
0.0
 10
218.196250
 20
216.511004
 30
0.0
 10
218.365581
 20
216.217716
 30
0.0
 10
230.977017
 20
223.498931
 30
0.0
  0
LWPOLYLINE
  5
1c2
100
AcDbEntity
  8
0
 62
1
100
AcDbPolyline
 90
2
 70
0
 10
216.899134
 20
215.371063
 30
0.0
 10
217.779005
 20
215.879055
 30
0.0
  0
SPLINE
  5
1c3
100
AcDbEntity
  8
0
 62
5
100
AcDbSpline
 70
0
 71
3
 72
10
 73
6
 74
4
 40
0.000000
 40
0.000000
 40
0.000000
 40
0.000000
 40
1.197305
 40
2.328528
 40
2.836691
 40
2.836691
 40
2.836691
 40
2.836691
 10
204.519657
 20
236.024004
 30
0.0
 10
204.597580
 20
235.630713
 30
0.0
 10
204.749124
 20
234.865839
 30
0.0
 10
205.180694
 20
234.014968
 30
0.0
 10
205.456354
 20
233.543666
 30
0.0
 10
205.541801
 20
233.397576
 30
0.0
 11
204.519657
 21
236.024004
 31
0.0
 11
204.807021
 21
234.861695
 31
0.0
 11
205.287982
 21
233.837810
 31
0.0
 11
205.541801
 21
233.397576
 31
0.0
  0
SPLINE
  5
1c4
100
AcDbEntity
  8
0
 62
5
100
AcDbSpline
 70
0
 71
3
 72
10
 73
6
 74
4
 40
0.000000
 40
0.000000
 40
0.000000
 40
0.000000
 40
0.383749
 40
1.264637
 40
2.310850
 40
2.310850
 40
2.310850
 40
2.310850
 10
222.030713
 20
204.450937
 30
0.0
 10
221.910303
 20
204.408341
 30
0.0
 10
221.513493
 20
204.267965
 30
0.0
 10
220.743136
 20
204.107060
 30
0.0
 10
220.107844
 20
204.241715
 30
0.0
 10
219.762948
 20
204.314819
 30
0.0
 11
222.030713
 21
204.450937
 31
0.0
 11
221.667201
 21
204.327965
 31
0.0
 11
220.799741
 21
204.174745
 31
0.0
 11
219.762948
 21
204.314819
 31
0.0
  0
SPLINE
  5
1c5
100
AcDbEntity
  8
0
 62
5
100
AcDbSpline
 70
0
 71
3
 72
10
 73
6
 74
4
 40
0.000000
 40
0.000000
 40
0.000000
 40
0.000000
 40
1.754124
 40
3.597979
 40
5.352101
 40
5.352101
 40
5.352101
 40
5.352101
 10
219.762948
 20
204.314819
 30
0.0
 10
219.267229
 20
204.634250
 30
0.0
 10
218.250433
 20
205.289454
 30
0.0
 10
217.310746
 20
206.917038
 30
0.0
 10
217.251721
 20
208.125211
 30
0.0
 10
217.222945
 20
208.714231
 30
0.0
 11
219.762948
 21
204.314819
 31
0.0
 11
218.367320
 21
205.377446
 31
0.0
 11
217.445393
 21
206.974271
 31
0.0
 11
217.222945
 21
208.714231
 31
0.0
  0
LWPOLYLINE
  5
1c6
100
AcDbEntity
  8
0
 62
5
100
AcDbPolyline
 90
4
 70
0
 10
224.779343
 20
200.367503
 30
0.0
 10
221.816007
 20
205.500152
 30
0.0
 10
221.522713
 20
205.330819
 30
0.0
 10
222.030713
 20
204.450937
 30
0.0
  0
LWPOLYLINE
  5
1c7
100
AcDbEntity
  8
0
 62
5
100
AcDbPolyline
 90
4
 70
0
 10
218.474708
 20
210.610115
 30
0.0
 10
218.982711
 20
209.730234
 30
0.0
 10
219.276004
 20
209.899567
 30
0.0
 10
216.312668
 20
215.032216
 30
0.0
  0
LWPOLYLINE
  5
1c8
100
AcDbEntity
  8
0
 62
1
100
AcDbPolyline
 90
2
 70
0
 10
221.223340
 20
206.526682
 30
0.0
 10
219.868671
 20
208.873038
 30
0.0
  0
LWPOLYLINE
  5
1c9
100
AcDbEntity
  8
0
 62
5
100
AcDbPolyline
 90
4
 70
0
 10
239.443841
 20
208.834054
 30
0.0
 10
238.119590
 20
204.354502
 30
0.0
 10
229.320914
 20
199.274584
 30
0.0
 10
224.779383
 20
200.367526
 30
0.0
  0
LWPOLYLINE
  5
1ca
100
AcDbEntity
  8
0
 62
5
100
AcDbPolyline
 90
4
 70
0
 10
235.083796
 20
206.903361
 30
0.0
 10
234.920544
 20
205.831475
 30
0.0
 10
229.641341
 20
202.783526
 30
0.0
 10
228.631434
 20
203.178087
 30
0.0
  0
LWPOLYLINE
  5
1cb
100
AcDbEntity
  8
0
 62
1
100
AcDbPolyline
 90
2
 70
0
 10
239.443841
 20
208.834054
 30
0.0
 10
235.337793
 20
206.463427
 30
0.0
  0
LWPOLYLINE
  5
1cc
100
AcDbEntity
  8
0
 62
1
100
AcDbPolyline
 90
2
 70
0
 10
224.779383
 20
200.367526
 30
0.0
 10
228.885431
 20
202.738153
 30
0.0
  0
SPLINE
  5
1cd
100
AcDbEntity
  8
0
 62
5
100
AcDbSpline
 70
0
 71
3
 72
10
 73
6
 74
4
 40
0.000000
 40
0.000000
 40
0.000000
 40
0.000000
 40
1.046213
 40
1.927100
 40
2.310849
 40
2.310849
 40
2.310849
 40
2.310849
 10
217.222945
 20
208.714231
 30
0.0
 10
217.332084
 20
209.049472
 30
0.0
 10
217.533115
 20
209.666979
 30
0.0
 10
218.057640
 20
210.253676
 30
0.0
 10
218.377613
 20
210.527135
 30
0.0
 10
218.474708
 20
210.610115
 30
0.0
 11
217.222945
 21
208.714231
 31
0.0
 11
217.620033
 21
209.682158
 31
0.0
 11
218.186455
 21
210.356791
 31
0.0
 11
218.474708
 21
210.610115
 31
0.0
  0
SPLINE
  5
1ce
100
AcDbEntity
  8
0
 62
5
100
AcDbSpline
 70
0
 71
3
 72
10
 73
6
 74
4
 40
0.000000
 40
0.000000
 40
0.000000
 40
0.000000
 40
0.383749
 40
1.264638
 40
2.310851
 40
2.310851
 40
2.310851
 40
2.310851
 10
245.748367
 20
219.076856
 30
0.0
 10
245.845462
 20
218.993875
 30
0.0
 10
246.165436
 20
218.720416
 30
0.0
 10
246.689962
 20
218.133719
 30
0.0
 10
246.890993
 20
217.516212
 30
0.0
 10
247.000133
 20
217.180971
 30
0.0
 11
245.748367
 21
219.076856
 31
0.0
 11
246.036620
 21
218.823531
 31
0.0
 11
246.603043
 21
218.148898
 31
0.0
 11
247.000133
 21
217.180971
 31
0.0
  0
SPLINE
  5
1cf
100
AcDbEntity
  8
0
 62
5
100
AcDbSpline
 70
0
 71
3
 72
10
 73
6
 74
4
 40
0.000000
 40
0.000000
 40
0.000000
 40
0.000000
 40
1.754124
 40
3.597978
 40
5.352101
 40
5.352101
 40
5.352101
 40
5.352101
 10
247.000133
 20
217.180971
 30
0.0
 10
246.971356
 20
216.591950
 30
0.0
 10
246.912330
 20
215.383778
 30
0.0
 10
245.972644
 20
213.756194
 30
0.0
 10
244.955849
 20
213.100990
 30
0.0
 10
244.460130
 20
212.781559
 30
0.0
 11
247.000133
 21
217.180971
 31
0.0
 11
246.777683
 21
215.441009
 31
0.0
 11
245.855756
 21
213.844185
 31
0.0
 11
244.460130
 21
212.781559
 31
0.0
  0
LWPOLYLINE
  5
1d0
100
AcDbEntity
  8
0
 62
5
100
AcDbPolyline
 90
4
 70
0
 10
247.910409
 20
223.498956
 30
0.0
 10
244.947073
 20
218.366307
 30
0.0
 10
245.240367
 20
218.196974
 30
0.0
 10
245.748367
 20
219.076856
 30
0.0
  0
LWPOLYLINE
  5
1d1
100
AcDbEntity
  8
0
 62
5
100
AcDbPolyline
 90
4
 70
0
 10
242.192364
 20
212.917677
 30
0.0
 10
242.700364
 20
213.797559
 30
0.0
 10
242.407070
 20
213.966892
 30
0.0
 10
239.443734
 20
208.834243
 30
0.0
  0
LWPOLYLINE
  5
1d2
100
AcDbEntity
  8
0
 62
1
100
AcDbPolyline
 90
2
 70
0
 10
244.354406
 20
217.339778
 30
0.0
 10
242.999737
 20
214.993422
 30
0.0
  0
LWPOLYLINE
  5
1d3
100
AcDbEntity
  8
0
 62
5
100
AcDbPolyline
 90
4
 70
0
 10
247.910449
 20
240.432363
 30
0.0
 10
251.127802
 20
237.045676
 30
0.0
 10
251.127802
 20
226.885617
 30
0.0
 10
247.910449
 20
223.498931
 30
0.0
  0
LWPOLYLINE
  5
1d4
100
AcDbEntity
  8
0
 62
5
100
AcDbPolyline
 90
4
 70
0
 10
247.402446
 20
235.691001
 30
0.0
 10
248.249118
 20
235.013665
 30
0.0
 10
248.249118
 20
228.917628
 30
0.0
 10
247.402446
 20
228.240292
 30
0.0
  0
LWPOLYLINE
  5
1d5
100
AcDbEntity
  8
0
 62
1
100
AcDbPolyline
 90
2
 70
0
 10
247.910449
 20
240.432363
 30
0.0
 10
247.910449
 20
235.691001
 30
0.0
  0
LWPOLYLINE
  5
1d6
100
AcDbEntity
  8
0
 62
1
100
AcDbPolyline
 90
2
 70
0
 10
247.910449
 20
223.498931
 30
0.0
 10
247.910449
 20
228.240292
 30
0.0
  0
SPLINE
  5
1d7
100
AcDbEntity
  8
0
 62
5
100
AcDbSpline
 70
0
 71
3
 72
10
 73
6
 74
4
 40
0.000000
 40
0.000000
 40
0.000000
 40
0.000000
 40
1.046214
 40
1.927101
 40
2.310850
 40
2.310850
 40
2.310850
 40
2.310850
 10
244.460130
 20
212.781559
 30
0.0
 10
244.115233
 20
212.708455
 30
0.0
 10
243.479941
 20
212.573800
 30
0.0
 10
242.709583
 20
212.734705
 30
0.0
 10
242.312774
 20
212.875081
 30
0.0
 10
242.192364
 20
212.917677
 30
0.0
 11
244.460130
 21
212.781559
 31
0.0
 11
243.423335
 21
212.641485
 31
0.0
 11
242.555876
 21
212.794705
 31
0.0
 11
242.192364
 21
212.917677
 31
0.0
  0
SPLINE
  5
1d8
100
AcDbEntity
  8
0
 62
5
100
AcDbSpline
 70
0
 71
3
 72
10
 73
6
 74
4
 40
0.000000
 40
0.000000
 40
0.000000
 40
0.000000
 40
0.383775
 40
1.264724
 40
2.311010
 40
2.311010
 40
2.311010
 40
2.311010
 10
252.332857
 20
242.594555
 30
0.0
 10
252.415843
 20
242.497453
 30
0.0
 10
252.689321
 20
242.177457
 30
0.0
 10
253.276058
 20
241.652896
 30
0.0
 10
253.893607
 20
241.451849
 30
0.0
 10
254.228871
 20
241.342702
 30
0.0
 11
252.332857
 21
242.594555
 31
0.0
 11
252.586199
 21
242.306282
 31
0.0
 11
253.260878
 21
241.739820
 31
0.0
 11
254.228871
 21
241.342702
 31
0.0
  0
SPLINE
  5
1d9
100
AcDbEntity
  8
0
 62
5
100
AcDbSpline
 70
0
 71
3
 72
10
 73
6
 74
4
 40
0.000000
 40
0.000000
 40
0.000000
 40
0.000000
 40
1.754246
 40
3.598228
 40
5.352473
 40
5.352473
 40
5.352473
 40
5.352473
 10
254.228871
 20
241.342702
 30
0.0
 10
254.817933
 20
241.371481
 30
0.0
 10
256.026189
 20
241.430511
 30
0.0
 10
257.653886
 20
242.370263
 30
0.0
 10
258.309135
 20
243.387129
 30
0.0
 10
258.628588
 20
243.882882
 30
0.0
 11
254.228871
 21
241.342702
 31
0.0
 11
255.968953
 21
241.565167
 31
0.0
 11
257.565888
 21
242.487159
 31
0.0
 11
258.628588
 21
243.882882
 31
0.0
  0
LWPOLYLINE
  5
1da
100
AcDbEntity
  8
0
 62
5
100
AcDbPolyline
 90
4
 70
0
 10
247.910449
 20
240.432363
 30
0.0
 10
253.043453
 20
243.395905
 30
0.0
 10
253.212800
 20
243.102591
 30
0.0
 10
252.332857
 20
242.594555
 30
0.0
  0
LWPOLYLINE
  5
1db
100
AcDbEntity
  8
0
 62
5
100
AcDbPolyline
 90
4
 70
0
 10
258.492461
 20
246.150806
 30
0.0
 10
257.612518
 20
245.642769
 30
0.0
 10
257.443173
 20
245.936083
 30
0.0
 10
262.576177
 20
248.899625
 30
0.0
  0
LWPOLYLINE
  5
1dc
100
AcDbEntity
  8
0
 62
1
100
AcDbPolyline
 90
2
 70
0
 10
254.070056
 20
243.988614
 30
0.0
 10
256.416573
 20
245.343374
 30
0.0
  0
LWPOLYLINE
  5
1dd
100
AcDbEntity
  8
0
 62
5
100
AcDbPolyline
 90
4
 70
0
 10
254.109745
 20
263.563920
 30
0.0
 10
258.589416
 20
262.239634
 30
0.0
 10
263.669464
 20
253.440730
 30
0.0
 10
262.576493
 20
248.899080
 30
0.0
  0
LWPOLYLINE
  5
1de
100
AcDbEntity
  8
0
 62
5
100
AcDbPolyline
 90
4
 70
0
 10
256.040489
 20
259.203761
 30
0.0
 10
257.112400
 20
259.040507
 30
0.0
 10
260.160431
 20
253.761162
 30
0.0
 10
259.765859
 20
252.751233
 30
0.0
  0
LWPOLYLINE
  5
1df
100
AcDbEntity
  8
0
 62
1
100
AcDbPolyline
 90
2
 70
0
 10
254.109745
 20
263.563920
 30
0.0
 10
256.480434
 20
259.457764
 30
0.0
  0
LWPOLYLINE
  5
1e0
100
AcDbEntity
  8
0
 62
1
100
AcDbPolyline
 90
2
 70
0
 10
262.576493
 20
248.899080
 30
0.0
 10
260.205804
 20
253.005236
 30
0.0
  0
SPLINE
  5
1e1
100
AcDbEntity
  8
0
 62
5
100
AcDbSpline
 70
0
 71
3
 72
10
 73
6
 74
4
 40
0.000000
 40
0.000000
 40
0.000000
 40
0.000000
 40
1.046285
 40
1.927235
 40
2.311011
 40
2.311011
 40
2.311011
 40
2.311011
 10
258.628588
 20
243.882882
 30
0.0
 10
258.701697
 20
244.227803
 30
0.0
 10
258.836362
 20
244.863139
 30
0.0
 10
258.675446
 20
245.633550
 30
0.0
 10
258.535061
 20
246.030387
 30
0.0
 10
258.492461
 20
246.150806
 30
0.0
 11
258.628588
 21
243.882882
 31
0.0
 11
258.768673
 21
244.919747
 31
0.0
 11
258.615442
 21
245.787268
 31
0.0
 11
258.492461
 21
246.150806
 31
0.0
  0
SPLINE
  5
1e2
100
AcDbEntity
  8
0
 62
5
100
AcDbSpline
 70
0
 71
3
 72
10
 73
6
 74
4
 40
0.000000
 40
0.000000
 40
0.000000
 40
0.000000
 40
0.168297
 40
0.650226
 40
1.455591
 40
1.455591
 40
1.455591
 40
1.455591
 10
246.460913
 20
259.538951
 30
0.0
 10
246.456251
 20
259.594929
 30
0.0
 10
246.438239
 20
259.811202
 30
0.0
 10
246.528322
 20
260.297406
 30
0.0
 10
246.715633
 20
260.684657
 30
0.0
 10
246.832820
 20
260.926931
 30
0.0
 11
246.460913
 21
259.538951
 31
0.0
 11
246.450830
 21
259.706946
 31
0.0
 11
246.523392
 21
260.183380
 31
0.0
 11
246.832820
 21
260.926931
 31
0.0
  0
SPLINE
  5
1e3
100
AcDbEntity
  8
0
 62
5
100
AcDbSpline
 70
0
 71
3
 72
10
 73
6
 74
4
 40
0.000000
 40
0.000000
 40
0.000000
 40
0.000000
 40
1.568876
 40
3.234232
 40
4.770729
 40
4.770729
 40
4.770729
 40
4.770729
 10
246.832820
 20
260.926931
 30
0.0
 10
247.174656
 20
261.322829
 30
0.0
 10
247.879349
 20
262.138970
 30
0.0
 10
248.987375
 20
263.280676
 30
0.0
 10
249.749472
 20
264.027814
 30
0.0
 10
250.115186
 20
264.386349
 30
0.0
 11
246.832820
 21
260.926931
 31
0.0
 11
247.869263
 21
262.104708
 31
0.0
 11
249.022294
 21
263.306343
 31
0.0
 11
250.115186
 21
264.386349
 31
0.0
  0
LWPOLYLINE
  5
1e4
100
AcDbEntity
  8
0
 62
5
100
AcDbPolyline
 90
4
 70
0
 10
239.444050
 20
255.096677
 30
0.0
 10
247.510201
 20
259.753671
 30
0.0
 10
247.340857
 20
260.046988
 30
0.0
 10
246.460913
 20
259.538951
 30
0.0
  0
LWPOLYLINE
  5
1e5
100
AcDbEntity
  8
0
 62
5
100
AcDbPolyline
 90
4
 70
0
 10
252.620518
 20
263.095202
 30
0.0
 10
251.740574
 20
262.587166
 30
0.0
 10
251.909921
 20
262.293852
 30
0.0
 10
254.109779
 20
263.563940
 30
0.0
  0
LWPOLYLINE
  5
1e6
100
AcDbEntity
  8
0
 62
1
100
AcDbPolyline
 90
2
 70
0
 10
248.536801
 20
260.346380
 30
0.0
 10
250.883318
 20
261.701143
 30
0.0
  0
LWPOLYLINE
  5
1e7
100
AcDbEntity
  8
0
 62
5
100
AcDbPolyline
 90
7
 70
0
 10
239.443734
 20
255.097225
 30
0.0
 10
239.997099
 20
256.732999
 30
0.0
 10
238.445988
 20
257.433009
 30
0.0
 10
237.266751
 20
256.745157
 30
0.0
 10
237.560042
 20
256.575827
 30
0.0
 10
237.390711
 20
256.282538
 30
0.0
 10
224.779276
 20
263.563753
 30
0.0
  0
LWPOLYLINE
  5
1e8
100
AcDbEntity
  8
0
 62
1
100
AcDbPolyline
 90
2
 70
0
 10
238.857158
 20
255.435886
 30
0.0
 10
237.977288
 20
255.943877
 30
0.0
  0
LWPOLYLINE
  5
1e9
100
AcDbEntity
  8
0
 62
5
100
AcDbPolyline
 90
8
 70
0
 10
224.779383
 20
263.563940
 30
0.0
 10
236.053114
 20
259.900881
 30
0.0
 10
236.008915
 20
258.668849
 30
0.0
 10
237.567120
 20
257.984502
 30
0.0
 10
238.686363
 20
258.689174
 30
0.0
 10
238.364257
 20
258.793834
 30
0.0
 10
238.468913
 20
259.115942
 30
0.0
 10
240.884716
 20
258.331000
 30
0.0
  0
LWPOLYLINE
  5
1ea
100
AcDbEntity
  8
0
 62
1
100
AcDbPolyline
 90
2
 70
0
 10
236.697328
 20
259.691566
 30
0.0
 10
237.824701
 20
259.325258
 30
0.0
  0
LWPOLYLINE
  5
1eb
100
AcDbEntity
  8
0
 62
5
100
AcDbPolyline
 90
5
 70
0
 10
250.838101
 20
272.030756
 30
0.0
 10
252.308693
 20
268.869197
 30
0.0
 10
245.377724
 20
261.346178
 30
0.0
 10
242.875435
 20
261.071088
 30
0.0
 10
240.884769
 20
258.331170
 30
0.0
  0
LWPOLYLINE
  5
1ec
100
AcDbEntity
  8
0
 62
5
100
AcDbPolyline
 90
4
 70
0
 10
249.630847
 20
271.233389
 30
0.0
 10
249.917692
 20
270.187739
 30
0.0
 10
246.334494
 20
265.255887
 30
0.0
 10
245.251382
 20
265.205570
 30
0.0
  0
LWPOLYLINE
  5
1ed
100
AcDbEntity
  8
0
 62
1
100
AcDbPolyline
 90
2
 70
0
 10
250.838101
 20
272.030756
 30
0.0
 10
250.041833
 20
270.934789
 30
0.0
  0
LWPOLYLINE
  5
1ee
100
AcDbEntity
  8
0
 62
1
100
AcDbPolyline
 90
2
 70
0
 10
242.875435
 20
261.071088
 30
0.0
 10
245.662368
 20
264.906970
 30
0.0
  0
SPLINE
  5
1ef
100
AcDbEntity
  8
0
 62
5
100
AcDbSpline
 70
0
 71
3
 72
10
 73
6
 74
4
 40
0.000000
 40
0.000000
 40
0.000000
 40
0.000000
 40
1.197370
 40
2.328652
 40
2.836842
 40
2.836842
 40
2.836842
 40
2.836842
 10
250.115186
 20
264.386349
 30
0.0
 10
250.498198
 20
264.267738
 30
0.0
 10
251.243082
 20
264.037061
 30
0.0
 10
252.044223
 20
263.518888
 30
0.0
 10
252.484152
 20
263.195457
 30
0.0
 10
252.620518
 20
263.095202
 30
0.0
 11
250.115186
 21
264.386349
 31
0.0
 11
251.241151
 21
263.979045
 31
0.0
 11
252.209205
 21
263.393663
 31
0.0
 11
252.620518
 21
263.095202
 31
0.0
  0
SPLINE
  5
1f0
100
AcDbEntity
  8
0
 62
5
100
AcDbSpline
 70
0
 71
3
 72
10
 73
6
 74
4
 40
0.000000
 40
0.000000
 40
0.000000
 40
0.000000
 40
0.383755
 40
1.264658
 40
2.310888
 40
2.310888
 40
2.310888
 40
2.310888
 10
244.045365
 20
281.956426
 30
0.0
 10
244.160665
 20
282.011376
 30
0.0
 10
244.540634
 20
282.192464
 30
0.0
 10
245.289964
 20
282.433014
 30
0.0
 10
245.935862
 20
282.365502
 30
0.0
 10
246.286517
 20
282.328850
 30
0.0
 11
244.045365
 21
281.956426
 31
0.0
 11
244.394037
 21
282.116724
 31
0.0
 11
245.240744
 21
282.359783
 31
0.0
 11
246.286517
 21
282.328850
 31
0.0
  0
SPLINE
  5
1f1
100
AcDbEntity
  8
0
 62
5
100
AcDbSpline
 70
0
 71
3
 72
10
 73
6
 74
4
 40
0.000000
 40
0.000000
 40
0.000000
 40
0.000000
 40
1.754151
 40
3.598033
 40
5.352185
 40
5.352185
 40
5.352185
 40
5.352185
 10
246.286517
 20
282.328850
 30
0.0
 10
246.812917
 20
282.062981
 30
0.0
 10
247.892646
 20
281.517641
 30
0.0
 10
248.997330
 20
279.997173
 30
0.0
 10
249.182325
 20
278.801770
 30
0.0
 10
249.272515
 20
278.218975
 30
0.0
 11
246.286517
 21
282.328850
 31
0.0
 11
247.785595
 21
281.417912
 31
0.0
 11
248.869402
 21
279.926179
 31
0.0
 11
249.272515
 21
278.218975
 31
0.0
  0
LWPOLYLINE
  5
1f2
100
AcDbEntity
  8
0
 62
5
100
AcDbPolyline
 90
4
 70
0
 10
240.884908
 20
285.730239
 30
0.0
 10
244.368574
 20
280.935384
 30
0.0
 10
244.642567
 20
281.134450
 30
0.0
 10
244.045365
 20
281.956426
 30
0.0
  0
LWPOLYLINE
  5
1f3
100
AcDbEntity
  8
0
 62
5
100
AcDbPolyline
 90
4
 70
0
 10
248.225764
 20
276.202600
 30
0.0
 10
247.628565
 20
277.024575
 30
0.0
 10
247.354573
 20
276.825508
 30
0.0
 10
250.838239
 20
272.030653
 30
0.0
  0
LWPOLYLINE
  5
1f4
100
AcDbEntity
  8
0
 62
1
100
AcDbPolyline
 90
2
 70
0
 10
245.065307
 20
279.976413
 30
0.0
 10
246.657839
 20
277.784479
 30
0.0
  0
LWPOLYLINE
  5
1f5
100
AcDbEntity
  8
0
 62
5
100
AcDbPolyline
 90
7
 70
0
 10
240.884769
 20
285.730138
 30
0.0
 10
240.039367
 20
287.236012
 30
0.0
 10
238.481164
 20
286.551665
 30
0.0
 10
238.203257
 20
285.214974
 30
0.0
 10
238.525363
 20
285.319633
 30
0.0
 10
238.630023
 20
284.997526
 30
0.0
 10
224.779436
 20
280.497198
 30
0.0
  0
LWPOLYLINE
  5
1f6
100
AcDbEntity
  8
0
 62
1
100
AcDbPolyline
 90
2
 70
0
 10
240.240555
 20
285.520820
 30
0.0
 10
239.274234
 20
285.206844
 30
0.0
  0
LWPOLYLINE
  5
1f7
100
AcDbEntity
  8
0
 62
5
100
AcDbPolyline
 90
8
 70
0
 10
224.779383
 20
280.497371
 30
0.0
 10
235.044505
 20
286.423941
 30
0.0
 10
235.930451
 20
285.566760
 30
0.0
 10
237.481562
 20
286.266768
 30
0.0
 10
237.706792
 20
287.569962
 30
0.0
 10
237.413504
 20
287.400631
 30
0.0
 10
237.244173
 20
287.693921
 30
0.0
 10
239.443841
 20
288.963900
 30
0.0
  0
LWPOLYLINE
  5
1f8
100
AcDbEntity
  8
0
 62
1
100
AcDbPolyline
 90
2
 70
0
 10
235.631084
 20
286.762602
 30
0.0
 10
236.657594
 20
287.355259
 30
0.0
  0
LWPOLYLINE
  5
1f9
100
AcDbEntity
  8
0
 62
5
100
AcDbPolyline
 90
4
 70
0
 10
230.977056
 20
303.628799
 30
0.0
 10
235.456688
 20
302.304525
 30
0.0
 10
240.536693
 20
293.505697
 30
0.0
 10
239.443731
 20
288.964085
 30
0.0
  0
LWPOLYLINE
  5
1fa
100
AcDbEntity
  8
0
 62
5
100
AcDbPolyline
 90
4
 70
0
 10
232.907784
 20
299.268679
 30
0.0
 10
233.979686
 20
299.105424
 30
0.0
 10
237.027689
 20
293.826127
 30
0.0
 10
236.633123
 20
292.816205
 30
0.0
  0
LWPOLYLINE
  5
1fb
100
AcDbEntity
  8
0
 62
1
100
AcDbPolyline
 90
2
 70
0
 10
230.977056
 20
303.628799
 30
0.0
 10
233.347726
 20
299.522679
 30
0.0
  0
LWPOLYLINE
  5
1fc
100
AcDbEntity
  8
0
 62
1
100
AcDbPolyline
 90
2
 70
0
 10
239.443731
 20
288.964085
 30
0.0
 10
237.073062
 20
293.070205
 30
0.0
  0
SPLINE
  5
1fd
100
AcDbEntity
  8
0
 62
5
100
AcDbSpline
 70
0
 71
3
 72
10
 73
6
 74
4
 40
0.000000
 40
0.000000
 40
0.000000
 40
0.000000
 40
1.046230
 40
1.927132
 40
2.310887
 40
2.310887
 40
2.310887
 40
2.310887
 10
249.272515
 20
278.218975
 30
0.0
 10
249.199015
 20
277.874157
 30
0.0
 10
249.063629
 20
277.239009
 30
0.0
 10
248.603296
 20
276.600688
 30
0.0
 10
248.313655
 20
276.295276
 30
0.0
 10
248.225764
 20
276.202600
 30
0.0
 11
249.272515
 21
278.218975
 31
0.0
 11
248.978772
 21
277.214827
 31
0.0
 11
248.485963
 21
276.484672
 31
0.0
 11
248.225764
 21
276.202600
 31
0.0
  0
SPLINE
  5
1fe
100
AcDbEntity
  8
0
 62
5
100
AcDbSpline
 70
0
 71
3
 72
10
 73
6
 74
4
 40
0.000000
 40
0.000000
 40
0.000000
 40
0.000000
 40
0.383751
 40
1.264644
 40
2.310863
 40
2.310863
 40
2.310863
 40
2.310863
 10
230.287294
 20
308.502583
 30
0.0
 10
230.405279
 20
308.551498
 30
0.0
 10
230.794098
 20
308.712697
 30
0.0
 10
231.474254
 20
309.108595
 30
0.0
 10
231.856269
 20
309.633759
 30
0.0
 10
232.063663
 20
309.918868
 30
0.0
 11
230.287294
 21
308.502583
 31
0.0
 11
230.639722
 21
308.654435
 31
0.0
 11
231.386899
 21
309.121018
 31
0.0
 11
232.063663
 21
309.918868
 31
0.0
  0
SPLINE
  5
1ff
100
AcDbEntity
  8
0
 62
5
100
AcDbSpline
 70
0
 71
3
 72
10
 73
6
 74
4
 40
0.000000
 40
0.000000
 40
0.000000
 40
0.000000
 40
1.754136
 40
3.598002
 40
5.352138
 40
5.352138
 40
5.352138
 40
5.352138
 10
232.063663
 20
309.918868
 30
0.0
 10
232.218313
 20
310.487957
 30
0.0
 10
232.535525
 20
311.655245
 30
0.0
 10
232.144779
 20
313.493561
 30
0.0
 10
231.380212
 20
314.430910
 30
0.0
 10
231.007463
 20
314.887896
 30
0.0
 11
232.063663
 21
309.918868
 31
0.0
 11
232.389782
 21
311.642422
 31
0.0
 11
232.006420
 21
313.445995
 31
0.0
 11
231.007463
 21
314.887896
 31
0.0
  0
LWPOLYLINE
  5
200
100
AcDbEntity
  8
0
 62
5
100
AcDbPolyline
 90
4
 70
0
 10
230.977017
 20
303.628776
 30
0.0
 10
229.744784
 20
309.425975
 30
0.0
 10
230.076053
 20
309.496389
 30
0.0
 10
230.287294
 20
308.502583
 30
0.0
  0
LWPOLYLINE
  5
201
100
AcDbEntity
  8
0
 62
5
100
AcDbPolyline
 90
4
 70
0
 10
228.808613
 20
315.459222
 30
0.0
 10
229.019854
 20
314.465416
 30
0.0
 10
228.688584
 20
314.395003
 30
0.0
 10
227.456351
 20
320.192203
 30
0.0
  0
LWPOLYLINE
  5
202
100
AcDbEntity
  8
0
 62
1
100
AcDbPolyline
 90
2
 70
0
 10
229.498339
 20
310.585415
 30
0.0
 10
228.935032
 20
313.235563
 30
0.0
  0
LWPOLYLINE
  5
203
100
AcDbEntity
  8
0
 62
5
100
AcDbPolyline
 90
4
 70
0
 10
210.616255
 20
321.962233
 30
0.0
 10
214.320614
 20
324.807893
 30
0.0
 10
224.424793
 20
323.745901
 30
0.0
 10
227.456557
 20
320.192246
 30
0.0
  0
LWPOLYLINE
  5
204
100
AcDbEntity
  8
0
 62
5
100
AcDbPolyline
 90
4
 70
0
 10
215.278439
 20
320.961428
 30
0.0
 10
216.040552
 20
321.732643
 30
0.0
 10
222.103061
 20
321.095448
 30
0.0
 10
222.688173
 20
320.182633
 30
0.0
  0
LWPOLYLINE
  5
205
100
AcDbEntity
  8
0
 62
1
100
AcDbPolyline
 90
2
 70
0
 10
210.616255
 20
321.962233
 30
0.0
 10
215.331540
 20
321.466637
 30
0.0
  0
LWPOLYLINE
  5
206
100
AcDbEntity
  8
0
 62
1
100
AcDbPolyline
 90
2
 70
0
 10
227.456557
 20
320.192246
 30
0.0
 10
222.741273
 20
320.687842
 30
0.0
  0
SPLINE
  5
207
100
AcDbEntity
  8
0
 62
5
100
AcDbSpline
 70
0
 71
3
 72
10
 73
6
 74
4
 40
0.000000
 40
0.000000
 40
0.000000
 40
0.000000
 40
1.046220
 40
1.927113
 40
2.310864
 40
2.310864
 40
2.310864
 40
2.310864
 10
231.007463
 20
314.887896
 30
0.0
 10
230.702035
 20
315.064002
 30
0.0
 10
230.139443
 20
315.388384
 30
0.0
 10
229.357063
 20
315.473410
 30
0.0
 10
228.936294
 20
315.462525
 30
0.0
 10
228.808613
 20
315.459222
 30
0.0
 11
231.007463
 21
314.887896
 31
0.0
 11
230.064693
 21
315.341505
 31
0.0
 11
229.192336
 21
315.463844
 31
0.0
 11
228.808613
 21
315.459222
 31
0.0
  0
SPLINE
  5
208
100
AcDbEntity
  8
0
 62
5
100
AcDbSpline
 70
0
 71
3
 72
10
 73
6
 74
4
 40
0.000000
 40
0.000000
 40
0.000000
 40
0.000000
 40
0.383745
 40
1.264624
 40
2.310826
 40
2.310826
 40
2.310826
 40
2.310826
 10
205.416864
 20
311.116863
 30
0.0
 10
205.311628
 20
311.189238
 30
0.0
 10
204.964827
 20
311.427750
 30
0.0
 10
204.381854
 20
311.956400
 30
0.0
 10
204.117379
 20
312.549504
 30
0.0
 10
203.973797
 20
312.871497
 30
0.0
 11
205.416864
 21
311.116863
 31
0.0
 11
205.103714
 21
311.338667
 31
0.0
 11
204.469882
 21
311.950389
 31
0.0
 11
203.973797
 21
312.871497
 31
0.0
  0
SPLINE
  5
209
100
AcDbEntity
  8
0
 62
5
100
AcDbSpline
 70
0
 71
3
 72
10
 73
6
 74
4
 40
0.000000
 40
0.000000
 40
0.000000
 40
0.000000
 40
1.754105
 40
3.597940
 40
5.352045
 40
5.352045
 40
5.352045
 40
5.352045
 10
203.973797
 20
312.871497
 30
0.0
 10
203.940847
 20
313.460293
 30
0.0
 10
203.873261
 20
314.668004
 30
0.0
 10
204.637663
 20
316.384878
 30
0.0
 10
205.580391
 20
317.142769
 30
0.0
 10
206.039999
 20
317.512264
 30
0.0
 11
203.973797
 21
312.871497
 31
0.0
 11
204.013151
 21
314.625161
 31
0.0
 11
204.763106
 21
316.309587
 31
0.0
 11
206.039999
 21
317.512264
 31
0.0
  0
LWPOLYLINE
  5
20a
100
AcDbEntity
  8
0
 62
5
100
AcDbPolyline
 90
4
 70
0
 10
203.728918
 20
306.493041
 30
0.0
 10
206.139488
 20
311.907269
 30
0.0
 10
205.830102
 20
312.045016
 30
0.0
 10
205.416864
 20
311.116863
 30
0.0
  0
LWPOLYLINE
  5
20b
100
AcDbEntity
  8
0
 62
5
100
AcDbPolyline
 90
4
 70
0
 10
208.309546
 20
317.613936
 30
0.0
 10
207.896305
 20
316.685783
 30
0.0
 10
208.205691
 20
316.548036
 30
0.0
 10
210.616261
 20
321.962264
 30
0.0
  0
LWPOLYLINE
  5
20c
100
AcDbEntity
  8
0
 62
1
100
AcDbPolyline
 90
2
 70
0
 10
206.621603
 20
312.990115
 30
0.0
 10
207.723576
 20
315.465190
 30
0.0
  0
LWPOLYLINE
  5
20d
100
AcDbEntity
  8
0
 62
5
100
AcDbPolyline
 90
4
 70
0
 10
216.313044
 20
295.162479
 30
0.0
 10
211.643558
 20
295.037660
 30
0.0
 10
204.093391
 20
301.835859
 30
0.0
 10
203.729435
 20
306.492812
 30
0.0
  0
LWPOLYLINE
  5
20e
100
AcDbEntity
  8
0
 62
5
100
AcDbPolyline
 90
4
 70
0
 10
213.129543
 20
298.712480
 30
0.0
 10
212.059681
 20
298.536513
 30
0.0
 10
207.529582
 20
302.615433
 30
0.0
 10
207.592755
 20
303.697827
 30
0.0
  0
LWPOLYLINE
  5
20f
100
AcDbEntity
  8
0
 62
1
100
AcDbPolyline
 90
2
 70
0
 10
216.313044
 20
295.162479
 30
0.0
 10
212.789632
 20
298.334972
 30
0.0
  0
LWPOLYLINE
  5
210
100
AcDbEntity
  8
0
 62
1
100
AcDbPolyline
 90
2
 70
0
 10
203.729435
 20
306.492812
 30
0.0
 10
207.252844
 20
303.320319
 30
0.0
  0
SPLINE
  5
211
100
AcDbEntity
  8
0
 62
5
100
AcDbSpline
 70
0
 71
3
 72
10
 73
6
 74
4
 40
0.000000
 40
0.000000
 40
0.000000
 40
0.000000
 40
1.046202
 40
1.927080
 40
2.310825
 40
2.310825
 40
2.310825
 40
2.310825
 10
206.039999
 20
317.512264
 30
0.0
 10
206.375362
 20
317.621017
 30
0.0
 10
206.993092
 20
317.821338
 30
0.0
 10
207.776040
 20
317.741841
 30
0.0
 10
208.185344
 20
317.643713
 30
0.0
 10
208.309546
 20
317.613936
 30
0.0
 11
206.039999
 21
317.512264
 31
0.0
 11
207.056461
 21
317.759942
 31
0.0
 11
207.935175
 21
317.698236
 31
0.0
 11
208.309546
 21
317.613936
 31
0.0
  0
SPLINE
  5
212
100
AcDbEntity
  8
0
 62
5
100
AcDbSpline
 70
0
 71
3
 72
10
 73
6
 74
4
 40
0.000000
 40
0.000000
 40
0.000000
 40
0.000000
 40
0.383749
 40
1.264637
 40
2.310850
 40
2.310850
 40
2.310850
 40
2.310850
 10
213.564035
 20
291.078627
 30
0.0
 10
213.443625
 20
291.121223
 30
0.0
 10
213.046815
 20
291.261599
 30
0.0
 10
212.276458
 20
291.422503
 30
0.0
 10
211.641166
 20
291.287849
 30
0.0
 10
211.296270
 20
291.214745
 30
0.0
 11
213.564035
 21
291.078627
 31
0.0
 11
213.200523
 21
291.201599
 31
0.0
 11
212.333063
 21
291.354819
 31
0.0
 11
211.296270
 21
291.214745
 31
0.0
  0
SPLINE
  5
213
100
AcDbEntity
  8
0
 62
5
100
AcDbSpline
 70
0
 71
3
 72
10
 73
6
 74
4
 40
0.000000
 40
0.000000
 40
0.000000
 40
0.000000
 40
1.754125
 40
3.597979
 40
5.352103
 40
5.352103
 40
5.352103
 40
5.352103
 10
211.296270
 20
291.214745
 30
0.0
 10
210.800551
 20
290.895313
 30
0.0
 10
209.783755
 20
290.240109
 30
0.0
 10
208.844068
 20
288.612525
 30
0.0
 10
208.785043
 20
287.404352
 30
0.0
 10
208.756267
 20
286.815331
 30
0.0
 11
211.296270
 21
291.214745
 31
0.0
 11
209.900643
 21
290.152117
 31
0.0
 11
208.978715
 21
288.555293
 31
0.0
 11
208.756267
 21
286.815331
 31
0.0
  0
LWPOLYLINE
  5
214
100
AcDbEntity
  8
0
 62
5
100
AcDbPolyline
 90
4
 70
0
 10
216.312665
 20
295.162060
 30
0.0
 10
213.349329
 20
290.029411
 30
0.0
 10
213.056035
 20
290.198744
 30
0.0
 10
213.564035
 20
291.078627
 30
0.0
  0
LWPOLYLINE
  5
215
100
AcDbEntity
  8
0
 62
5
100
AcDbPolyline
 90
4
 70
0
 10
210.008030
 20
284.919447
 30
0.0
 10
210.516033
 20
285.799330
 30
0.0
 10
210.809326
 20
285.629996
 30
0.0
 10
207.845990
 20
280.497347
 30
0.0
  0
LWPOLYLINE
  5
216
100
AcDbEntity
  8
0
 62
1
100
AcDbPolyline
 90
2
 70
0
 10
212.756663
 20
289.002881
 30
0.0
 10
211.401993
 20
286.656526
 30
0.0
  0
LWPOLYLINE
  5
217
100
AcDbEntity
  8
0
 62
5
100
AcDbPolyline
 90
5
 70
0
 10
207.845951
 20
280.497371
 30
0.0
 10
204.797934
 20
278.804028
 30
0.0
 10
205.983273
 20
268.643968
 30
0.0
 10
207.845951
 20
266.950626
 30
0.0
 10
207.845951
 20
263.563940
 30
0.0
  0
LWPOLYLINE
  5
218
100
AcDbEntity
  8
0
 62
5
100
AcDbPolyline
 90
4
 70
0
 10
208.353954
 20
279.142697
 30
0.0
 10
207.507281
 20
278.465359
 30
0.0
 10
207.507281
 20
272.369324
 30
0.0
 10
208.353954
 20
271.691987
 30
0.0
  0
LWPOLYLINE
  5
219
100
AcDbEntity
  8
0
 62
1
100
AcDbPolyline
 90
2
 70
0
 10
207.845951
 20
280.497371
 30
0.0
 10
207.845951
 20
279.142697
 30
0.0
  0
LWPOLYLINE
  5
21a
100
AcDbEntity
  8
0
 62
1
100
AcDbPolyline
 90
2
 70
0
 10
207.845951
 20
266.950626
 30
0.0
 10
207.845951
 20
271.691987
 30
0.0
  0
SPLINE
  5
21b
100
AcDbEntity
  8
0
 62
5
100
AcDbSpline
 70
0
 71
3
 72
10
 73
6
 74
4
 40
0.000000
 40
0.000000
 40
0.000000
 40
0.000000
 40
1.046213
 40
1.927100
 40
2.310849
 40
2.310849
 40
2.310849
 40
2.310849
 10
208.756267
 20
286.815331
 30
0.0
 10
208.865406
 20
286.480090
 30
0.0
 10
209.066437
 20
285.862584
 30
0.0
 10
209.590962
 20
285.275887
 30
0.0
 10
209.910935
 20
285.002427
 30
0.0
 10
210.008030
 20
284.919447
 30
0.0
 11
208.756267
 21
286.815331
 31
0.0
 11
209.153355
 21
285.847404
 31
0.0
 11
209.719777
 21
285.172772
 31
0.0
 11
210.008030
 21
284.919447
 31
0.0
  0
SPLINE
  5
21c
100
AcDbEntity
  8
0
 62
5
100
AcDbSpline
 70
0
 71
3
 72
10
 73
6
 74
4
 40
0.000000
 40
0.000000
 40
0.000000
 40
0.000000
 40
0.168282
 40
0.650168
 40
1.455464
 40
1.455464
 40
1.455464
 40
1.455464
 10
200.197743
 20
259.539298
 30
0.0
 10
200.193081
 20
259.595271
 30
0.0
 10
200.175072
 20
259.811525
 30
0.0
 10
200.265147
 20
260.297687
 30
0.0
 10
200.452442
 20
260.684904
 30
0.0
 10
200.569618
 20
260.927157
 30
0.0
 11
200.197743
 21
259.539298
 31
0.0
 11
200.187660
 21
259.707278
 31
0.0
 11
200.260217
 21
260.183670
 31
0.0
 11
200.569618
 21
260.927157
 31
0.0
  0
SPLINE
  5
21d
100
AcDbEntity
  8
0
 62
5
100
AcDbSpline
 70
0
 71
3
 72
10
 73
6
 74
4
 40
0.000000
 40
0.000000
 40
0.000000
 40
0.000000
 40
1.568741
 40
3.233953
 40
4.770318
 40
4.770318
 40
4.770318
 40
4.770318
 10
200.569618
 20
260.927157
 30
0.0
 10
200.911425
 20
261.323021
 30
0.0
 10
201.616057
 20
262.139092
 30
0.0
 10
202.723987
 20
263.280699
 30
0.0
 10
203.486020
 20
264.027772
 30
0.0
 10
203.851702
 20
264.386276
 30
0.0
 11
200.569618
 21
260.927157
 31
0.0
 11
201.605972
 21
262.104833
 31
0.0
 11
202.758904
 21
263.306364
 31
0.0
 11
203.851702
 21
264.386276
 31
0.0
  0
LWPOLYLINE
  5
21e
100
AcDbEntity
  8
0
 62
5
100
AcDbPolyline
 90
4
 70
0
 10
193.181489
 20
255.097408
 30
0.0
 10
201.246943
 20
259.753999
 30
0.0
 10
201.077613
 20
260.047290
 30
0.0
 10
200.197743
 20
259.539298
 30
0.0
  0
LWPOLYLINE
  5
21f
100
AcDbEntity
  8
0
 62
5
100
AcDbPolyline
 90
4
 70
0
 10
206.356816
 20
263.095239
 30
0.0
 10
205.476949
 20
262.587247
 30
0.0
 10
205.646280
 20
262.293959
 30
0.0
 10
207.845948
 20
263.563937
 30
0.0
  0
LWPOLYLINE
  5
220
100
AcDbEntity
  8
0
 62
1
100
AcDbPolyline
 90
2
 70
0
 10
202.273453
 20
260.346657
 30
0.0
 10
204.619767
 20
261.701301
 30
0.0
  0
LWPOLYLINE
  5
221
100
AcDbEntity
  8
0
 62
5
100
AcDbPolyline
 90
7
 70
0
 10
193.181597
 20
255.097225
 30
0.0
 10
193.734975
 20
256.733044
 30
0.0
 10
192.183825
 20
257.433068
 30
0.0
 10
191.004557
 20
256.745199
 30
0.0
 10
191.297854
 20
256.575866
 30
0.0
 10
191.128520
 20
256.282570
 30
0.0
 10
178.516757
 20
263.563973
 30
0.0
  0
LWPOLYLINE
  5
222
100
AcDbEntity
  8
0
 62
1
100
AcDbPolyline
 90
2
 70
0
 10
192.595003
 20
255.435894
 30
0.0
 10
191.715113
 20
255.943900
 30
0.0
  0
LWPOLYLINE
  5
223
100
AcDbEntity
  8
0
 62
5
100
AcDbPolyline
 90
8
 70
0
 10
178.516737
 20
263.563940
 30
0.0
 10
189.789720
 20
259.901127
 30
0.0
 10
189.745521
 20
258.669176
 30
0.0
 10
191.303622
 20
257.984875
 30
0.0
 10
192.422791
 20
258.689499
 30
0.0
 10
192.100705
 20
258.794153
 30
0.0
 10
192.205359
 20
259.116236
 30
0.0
 10
194.620998
 20
258.331348
 30
0.0
  0
LWPOLYLINE
  5
224
100
AcDbEntity
  8
0
 62
1
100
AcDbPolyline
 90
2
 70
0
 10
190.433889
 20
259.691822
 30
0.0
 10
191.561187
 20
259.325540
 30
0.0
  0
LWPOLYLINE
  5
225
100
AcDbEntity
  8
0
 62
5
100
AcDbPolyline
 90
5
 70
0
 10
204.574273
 20
272.030756
 30
0.0
 10
206.044865
 20
268.869197
 30
0.0
 10
199.113896
 20
261.346178
 30
0.0
 10
196.611607
 20
261.071088
 30
0.0
 10
194.620941
 20
258.331170
 30
0.0
  0
LWPOLYLINE
  5
226
100
AcDbEntity
  8
0
 62
5
100
AcDbPolyline
 90
4
 70
0
 10
203.367019
 20
271.233389
 30
0.0
 10
203.653864
 20
270.187739
 30
0.0
 10
200.070666
 20
265.255887
 30
0.0
 10
198.987554
 20
265.205570
 30
0.0
  0
LWPOLYLINE
  5
227
100
AcDbEntity
  8
0
 62
1
100
AcDbPolyline
 90
2
 70
0
 10
204.574273
 20
272.030756
 30
0.0
 10
203.778005
 20
270.934789
 30
0.0
  0
LWPOLYLINE
  5
228
100
AcDbEntity
  8
0
 62
1
100
AcDbPolyline
 90
2
 70
0
 10
196.611607
 20
261.071088
 30
0.0
 10
199.398540
 20
264.906970
 30
0.0
  0
SPLINE
  5
229
100
AcDbEntity
  8
0
 62
5
100
AcDbSpline
 70
0
 71
3
 72
10
 73
6
 74
4
 40
0.000000
 40
0.000000
 40
0.000000
 40
0.000000
 40
1.197265
 40
2.328450
 40
2.836597
 40
2.836597
 40
2.836597
 40
2.836597
 10
203.851702
 20
264.386276
 30
0.0
 10
204.234680
 20
264.267674
 30
0.0
 10
204.979499
 20
264.037017
 30
0.0
 10
205.780571
 20
263.518888
 30
0.0
 10
206.220463
 20
263.195485
 30
0.0
 10
206.356816
 20
263.095239
 30
0.0
 11
203.851702
 21
264.386276
 31
0.0
 11
204.977568
 21
263.979006
 31
0.0
 11
205.945538
 21
263.393674
 31
0.0
 11
206.356816
 21
263.095239
 31
0.0
  0
SPLINE
  5
22a
100
AcDbEntity
  8
0
 62
5
100
AcDbSpline
 70
0
 71
3
 72
10
 73
6
 74
4
 40
0.000000
 40
0.000000
 40
0.000000
 40
0.000000
 40
0.168288
 40
0.650190
 40
1.455513
 40
1.455513
 40
1.455513
 40
1.455513
 10
199.971271
 20
278.942517
 30
0.0
 10
199.998296
 20
278.991756
 30
0.0
 10
200.102712
 20
279.181995
 30
0.0
 10
200.218168
 20
279.662779
 30
0.0
 10
200.204560
 20
280.092713
 30
0.0
 10
200.196046
 20
280.361692
 30
0.0
 11
199.971271
 21
278.942517
 31
0.0
 11
200.048808
 21
279.091878
 31
0.0
 11
200.176295
 21
279.556611
 31
0.0
 11
200.196046
 21
280.361692
 31
0.0
  0
SPLINE
  5
22b
100
AcDbEntity
  8
0
 62
5
100
AcDbSpline
 70
0
 71
3
 72
10
 73
6
 74
4
 40
0.000000
 40
0.000000
 40
0.000000
 40
0.000000
 40
1.568793
 40
3.234060
 40
4.770475
 40
4.770475
 40
4.770475
 40
4.770475
 10
200.196046
 20
280.361692
 30
0.0
 10
200.044798
 20
280.862373
 30
0.0
 10
199.732999
 20
281.894525
 30
0.0
 10
199.185170
 20
283.388120
 30
0.0
 10
198.792869
 20
284.380585
 30
0.0
 10
198.604612
 20
284.856847
 30
0.0
 11
200.196046
 21
280.361692
 31
0.0
 11
199.728277
 21
281.859125
 31
0.0
 11
199.163710
 21
283.425769
 31
0.0
 11
198.604612
 21
284.856847
 31
0.0
  0
LWPOLYLINE
  5
22c
100
AcDbEntity
  8
0
 62
5
100
AcDbPolyline
 90
4
 70
0
 10
204.574411
 20
272.030653
 30
0.0
 10
199.100079
 20
279.565425
 30
0.0
 10
199.374071
 20
279.764492
 30
0.0
 10
199.971271
 20
278.942517
 30
0.0
  0
LWPOLYLINE
  5
22d
100
AcDbEntity
  8
0
 62
5
100
AcDbPolyline
 90
4
 70
0
 10
195.790871
 20
284.696343
 30
0.0
 10
196.388070
 20
283.874368
 30
0.0
 10
196.114080
 20
283.675301
 30
0.0
 10
194.621079
 20
285.730239
 30
0.0
  0
LWPOLYLINE
  5
22e
100
AcDbEntity
  8
0
 62
1
100
AcDbPolyline
 90
2
 70
0
 10
198.403345
 20
280.524396
 30
0.0
 10
196.810813
 20
282.716330
 30
0.0
  0
LWPOLYLINE
  5
22f
100
AcDbEntity
  8
0
 62
5
100
AcDbPolyline
 90
7
 70
0
 10
194.620941
 20
285.730139
 30
0.0
 10
193.775595
 20
287.235913
 30
0.0
 10
192.217494
 20
286.551612
 30
0.0
 10
191.939607
 20
285.215010
 30
0.0
 10
192.261693
 20
285.319662
 30
0.0
 10
192.366344
 20
284.997577
 30
0.0
 10
178.516681
 20
280.497548
 30
0.0
  0
LWPOLYLINE
  5
230
100
AcDbEntity
  8
0
 62
1
100
AcDbPolyline
 90
2
 70
0
 10
193.976769
 20
285.520836
 30
0.0
 10
193.010513
 20
285.206880
 30
0.0
  0
LWPOLYLINE
  5
231
100
AcDbEntity
  8
0
 62
5
100
AcDbPolyline
 90
8
 70
0
 10
178.516737
 20
280.497371
 30
0.0
 10
188.782125
 20
286.424095
 30
0.0
 10
189.668094
 20
285.566891
 30
0.0
 10
191.219246
 20
286.266918
 30
0.0
 10
191.444482
 20
287.570146
 30
0.0
 10
191.151185
 20
287.400811
 30
0.0
 10
190.981852
 20
287.694108
 30
0.0
 10
193.181577
 20
288.964120
 30
0.0
  0
LWPOLYLINE
  5
232
100
AcDbEntity
  8
0
 62
1
100
AcDbPolyline
 90
2
 70
0
 10
189.368718
 20
286.762765
 30
0.0
 10
190.395259
 20
287.355438
 30
0.0
  0
LWPOLYLINE
  5
233
100
AcDbEntity
  8
0
 62
5
100
AcDbPolyline
 90
4
 70
0
 10
184.714879
 20
303.628872
 30
0.0
 10
189.194533
 20
302.304591
 30
0.0
 10
194.274564
 20
293.505719
 30
0.0
 10
193.181597
 20
288.964085
 30
0.0
  0
LWPOLYLINE
  5
234
100
AcDbEntity
  8
0
 62
5
100
AcDbPolyline
 90
4
 70
0
 10
186.645618
 20
299.268730
 30
0.0
 10
187.717526
 20
299.105475
 30
0.0
 10
190.765543
 20
293.826151
 30
0.0
 10
190.370974
 20
292.816224
 30
0.0
  0
LWPOLYLINE
  5
235
100
AcDbEntity
  8
0
 62
1
100
AcDbPolyline
 90
2
 70
0
 10
184.714879
 20
303.628872
 30
0.0
 10
187.085560
 20
299.522732
 30
0.0
  0
LWPOLYLINE
  5
236
100
AcDbEntity
  8
0
 62
1
100
AcDbPolyline
 90
2
 70
0
 10
193.181597
 20
288.964085
 30
0.0
 10
190.810916
 20
293.070226
 30
0.0
  0
SPLINE
  5
237
100
AcDbEntity
  8
0
 62
5
100
AcDbSpline
 70
0
 71
3
 72
10
 73
6
 74
4
 40
0.000000
 40
0.000000
 40
0.000000
 40
0.000000
 40
1.197306
 40
2.328528
 40
2.836691
 40
2.836691
 40
2.836691
 40
2.836691
 10
198.604612
 20
284.856847
 30
0.0
 10
198.206491
 20
284.904272
 30
0.0
 10
197.432223
 20
284.996504
 30
0.0
 10
196.489634
 20
284.848991
 30
0.0
 10
195.956215
 20
284.732463
 30
0.0
 10
195.790871
 20
284.696343
 30
0.0
 11
198.604612
 21
284.856847
 31
0.0
 11
197.410390
 21
284.942722
 31
0.0
 11
196.287993
 21
284.801699
 31
0.0
 11
195.790871
 21
284.696343
 31
0.0
  0
SPLINE
  5
238
100
AcDbEntity
  8
0
 62
5
100
AcDbSpline
 70
0
 71
3
 72
10
 73
6
 74
4
 40
0.000000
 40
0.000000
 40
0.000000
 40
0.000000
 40
0.383749
 40
1.264637
 40
2.310850
 40
2.310850
 40
2.310850
 40
2.310850
 10
174.133434
 20
297.910730
 30
0.0
 10
174.090837
 20
298.031140
 30
0.0
 10
173.950461
 20
298.427950
 30
0.0
 10
173.789557
 20
299.198307
 30
0.0
 10
173.924212
 20
299.833600
 30
0.0
 10
173.997315
 20
300.178496
 30
0.0
 11
174.133434
 21
297.910730
 31
0.0
 11
174.010462
 21
298.274242
 31
0.0
 11
173.857241
 21
299.141703
 31
0.0
 11
173.997315
 21
300.178496
 31
0.0
  0
SPLINE
  5
239
100
AcDbEntity
  8
0
 62
5
100
AcDbSpline
 70
0
 71
3
 72
10
 73
6
 74
4
 40
0.000000
 40
0.000000
 40
0.000000
 40
0.000000
 40
1.754124
 40
3.597978
 40
5.352101
 40
5.352101
 40
5.352101
 40
5.352101
 10
173.997315
 20
300.178496
 30
0.0
 10
174.316747
 20
300.674215
 30
0.0
 10
174.971951
 20
301.691010
 30
0.0
 10
176.599535
 20
302.630696
 30
0.0
 10
177.807707
 20
302.689722
 30
0.0
 10
178.396728
 20
302.718499
 30
0.0
 11
173.997315
 21
300.178496
 31
0.0
 11
175.059943
 21
301.574123
 31
0.0
 11
176.656767
 21
302.496050
 31
0.0
 11
178.396728
 21
302.718499
 31
0.0
  0
LWPOLYLINE
  5
23a
100
AcDbEntity
  8
0
 62
5
100
AcDbPolyline
 90
4
 70
0
 10
170.050000
 20
295.162100
 30
0.0
 10
175.182649
 20
298.125436
 30
0.0
 10
175.013315
 20
298.418731
 30
0.0
 10
174.133434
 20
297.910730
 30
0.0
  0
LWPOLYLINE
  5
23b
100
AcDbEntity
  8
0
 62
5
100
AcDbPolyline
 90
4
 70
0
 10
180.292612
 20
301.466734
 30
0.0
 10
179.412731
 20
300.958734
 30
0.0
 10
179.582064
 20
300.665439
 30
0.0
 10
184.714713
 20
303.628776
 30
0.0
  0
LWPOLYLINE
  5
23c
100
AcDbEntity
  8
0
 62
1
100
AcDbPolyline
 90
2
 70
0
 10
176.209178
 20
298.718104
 30
0.0
 10
178.555534
 20
300.072772
 30
0.0
  0
LWPOLYLINE
  5
23d
100
AcDbEntity
  8
0
 62
5
100
AcDbPolyline
 90
4
 70
0
 10
161.583347
 20
280.497348
 30
0.0
 10
160.490388
 20
285.038959
 30
0.0
 10
165.570394
 20
293.837787
 30
0.0
 10
170.050023
 20
295.162061
 30
0.0
  0
LWPOLYLINE
  5
23e
100
AcDbEntity
  8
0
 62
5
100
AcDbPolyline
 90
4
 70
0
 10
164.393959
 20
284.349467
 30
0.0
 10
163.999390
 20
285.359390
 30
0.0
 10
167.047393
 20
290.638687
 30
0.0
 10
168.119295
 20
290.801941
 30
0.0
  0
LWPOLYLINE
  5
23f
100
AcDbEntity
  8
0
 62
1
100
AcDbPolyline
 90
2
 70
0
 10
161.583347
 20
280.497348
 30
0.0
 10
163.954017
 20
284.603468
 30
0.0
  0
LWPOLYLINE
  5
240
100
AcDbEntity
  8
0
 62
1
100
AcDbPolyline
 90
2
 70
0
 10
170.050023
 20
295.162061
 30
0.0
 10
167.679353
 20
291.055942
 30
0.0
  0
SPLINE
  5
241
100
AcDbEntity
  8
0
 62
5
100
AcDbSpline
 70
0
 71
3
 72
10
 73
6
 74
4
 40
0.000000
 40
0.000000
 40
0.000000
 40
0.000000
 40
1.046213
 40
1.927101
 40
2.310850
 40
2.310850
 40
2.310850
 40
2.310850
 10
178.396728
 20
302.718499
 30
0.0
 10
178.731969
 20
302.609360
 30
0.0
 10
179.349475
 20
302.408328
 30
0.0
 10
179.936172
 20
301.883803
 30
0.0
 10
180.209632
 20
301.563829
 30
0.0
 10
180.292612
 20
301.466734
 30
0.0
 11
178.396728
 21
302.718499
 31
0.0
 11
179.364655
 21
302.321410
 31
0.0
 11
180.039287
 21
301.754987
 31
0.0
 11
180.292612
 21
301.466734
 31
0.0
  0
SPLINE
  5
242
100
AcDbEntity
  8
0
 62
5
100
AcDbSpline
 70
0
 71
3
 72
10
 73
6
 74
4
 40
0.000000
 40
0.000000
 40
0.000000
 40
0.000000
 40
0.168286
 40
0.650183
 40
1.455497
 40
1.455497
 40
1.455497
 40
1.455497
 10
161.244638
 20
271.861321
 30
0.0
 10
161.193833
 20
271.885271
 30
0.0
 10
160.997542
 20
271.977803
 30
0.0
 10
160.621542
 20
272.298898
 30
0.0
 10
160.379845
 20
272.654717
 30
0.0
 10
160.228633
 20
272.877327
 30
0.0
 11
161.244638
 21
271.861321
 31
0.0
 11
161.094119
 21
271.936581
 31
0.0
 11
160.717821
 21
272.237619
 31
0.0
 11
160.228633
 21
272.877327
 31
0.0
  0
SPLINE
  5
243
100
AcDbEntity
  8
0
 62
5
100
AcDbSpline
 70
0
 71
3
 72
10
 73
6
 74
4
 40
0.000000
 40
0.000000
 40
0.000000
 40
0.000000
 40
1.568776
 40
3.234023
 40
4.770422
 40
4.770422
 40
4.770422
 40
4.770422
 10
160.228633
 20
272.877327
 30
0.0
 10
160.056704
 20
273.371282
 30
0.0
 10
159.702274
 20
274.389570
 30
0.0
 10
159.267568
 20
275.919903
 30
0.0
 10
159.001593
 20
276.953401
 30
0.0
 10
158.873958
 20
277.449353
 30
0.0
 11
160.228633
 21
272.877327
 31
0.0
 11
159.726902
 21
274.363706
 31
0.0
 11
159.262800
 21
275.962974
 31
0.0
 11
158.873958
 21
277.449353
 31
0.0
  0
LWPOLYLINE
  5
244
100
AcDbEntity
  8
0
 62
5
100
AcDbPolyline
 90
4
 70
0
 10
161.583308
 20
263.563940
 30
0.0
 10
161.583308
 20
272.877327
 30
0.0
 10
161.244638
 20
272.877327
 30
0.0
 10
161.244638
 20
271.861321
 30
0.0
  0
LWPOLYLINE
  5
245
100
AcDbEntity
  8
0
 62
5
100
AcDbPolyline
 90
4
 70
0
 10
161.244638
 20
278.973362
 30
0.0
 10
161.244638
 20
277.957356
 30
0.0
 10
161.583308
 20
277.957356
 30
0.0
 10
161.583308
 20
280.497371
 30
0.0
  0
LWPOLYLINE
  5
246
100
AcDbEntity
  8
0
 62
1
100
AcDbPolyline
 90
2
 70
0
 10
161.583308
 20
274.062667
 30
0.0
 10
161.583308
 20
276.772016
 30
0.0
  0
LWPOLYLINE
  5
247
100
AcDbEntity
  8
0
 62
5
100
AcDbPolyline
 90
5
 70
0
 10
161.583305
 20
263.563937
 30
0.0
 10
158.592808
 20
265.356934
 30
0.0
 10
150.386576
 20
259.250345
 30
0.0
 10
149.851435
 20
256.790538
 30
0.0
 10
146.918466
 20
255.097188
 30
0.0
  0
LWPOLYLINE
  5
248
100
AcDbEntity
  8
0
 62
5
100
AcDbPolyline
 90
4
 70
0
 10
160.664121
 20
262.446653
 30
0.0
 10
159.654189
 20
262.841225
 30
0.0
 10
154.374847
 20
259.793194
 30
0.0
 10
154.211590
 20
258.721283
 30
0.0
  0
LWPOLYLINE
  5
249
100
AcDbEntity
  8
0
 62
1
100
AcDbPolyline
 90
2
 70
0
 10
161.583305
 20
263.563937
 30
0.0
 10
160.410119
 20
262.886598
 30
0.0
  0
LWPOLYLINE
  5
24a
100
AcDbEntity
  8
0
 62
1
100
AcDbPolyline
 90
2
 70
0
 10
149.851435
 20
256.790538
 30
0.0
 10
153.957590
 20
259.161228
 30
0.0
  0
LWPOLYLINE
  5
24b
100
AcDbEntity
  8
0
 62
5
100
AcDbPolyline
 90
8
 70
0
 10
132.253733
 20
263.563900
 30
0.0
 10
142.519033
 20
257.637228
 30
0.0
 10
143.404994
 20
258.494424
 30
0.0
 10
144.956132
 20
257.794403
 30
0.0
 10
145.181368
 20
256.491185
 30
0.0
 10
144.888074
 20
256.660519
 30
0.0
 10
144.718741
 20
256.367225
 30
0.0
 10
146.918446
 20
255.097225
 30
0.0
  0
LWPOLYLINE
  5
24c
100
AcDbEntity
  8
0
 62
1
100
AcDbPolyline
 90
2
 70
0
 10
143.105621
 20
257.298558
 30
0.0
 10
144.132150
 20
256.705892
 30
0.0
  0
LWPOLYLINE
  5
24d
100
AcDbEntity
  8
0
 62
5
100
AcDbPolyline
 90
7
 70
0
 10
148.358321
 20
258.331249
 30
0.0
 10
147.512961
 20
256.825447
 30
0.0
 10
145.954832
 20
257.509762
 30
0.0
 10
145.676936
 20
258.846389
 30
0.0
 10
145.999028
 20
258.741735
 30
0.0
 10
146.103681
 20
259.063824
 30
0.0
 10
132.253756
 20
263.563940
 30
0.0
  0
LWPOLYLINE
  5
24e
100
AcDbEntity
  8
0
 62
1
100
AcDbPolyline
 90
2
 70
0
 10
147.714140
 20
258.540556
 30
0.0
 10
146.747865
 20
258.854517
 30
0.0
  0
SPLINE
  5
24f
100
AcDbEntity
  8
0
 62
5
100
AcDbSpline
 70
0
 71
3
 72
10
 73
6
 74
4
 40
0.000000
 40
0.000000
 40
0.000000
 40
0.000000
 40
1.197293
 40
2.328503
 40
2.836660
 40
2.836660
 40
2.836660
 40
2.836660
 10
158.873958
 20
277.449353
 30
0.0
 10
159.168166
 20
277.721728
 30
0.0
 10
159.740343
 20
278.251443
 30
0.0
 10
160.589611
 20
278.686138
 30
0.0
 10
161.089643
 20
278.905398
 30
0.0
 10
161.244638
 20
278.973362
 30
0.0
 11
158.873958
 21
277.449353
 31
0.0
 11
159.789618
 21
278.220765
 31
0.0
 11
160.780537
 21
278.766398
 31
0.0
 11
161.244638
 21
278.973362
 31
0.0
  0
SPLINE
  5
250
100
AcDbEntity
  8
0
 62
5
100
AcDbSpline
 70
0
 71
3
 72
10
 73
6
 74
4
 40
0.000000
 40
0.000000
 40
0.000000
 40
0.000000
 40
0.168287
 40
0.650186
 40
1.455503
 40
1.455503
 40
1.455503
 40
1.455503
 10
153.509390
 20
264.844862
 30
0.0
 10
153.564570
 20
264.834374
 30
0.0
 10
153.777763
 20
264.793857
 30
0.0
 10
154.270691
 20
264.832622
 30
0.0
 10
154.675375
 20
264.978419
 30
0.0
 10
154.928556
 20
265.069635
 30
0.0
 11
153.509390
 21
264.844862
 31
0.0
 11
153.675400
 21
264.817275
 31
0.0
 11
154.156780
 21
264.839637
 31
0.0
 11
154.928556
 21
265.069635
 31
0.0
  0
SPLINE
  5
251
100
AcDbEntity
  8
0
 62
5
100
AcDbSpline
 70
0
 71
3
 72
10
 73
6
 74
4
 40
0.000000
 40
0.000000
 40
0.000000
 40
0.000000
 40
1.568784
 40
3.234041
 40
4.770447
 40
4.770447
 40
4.770447
 40
4.770447
 10
154.928556
 20
265.069635
 30
0.0
 10
155.357991
 20
265.368198
 30
0.0
 10
156.243270
 20
265.983684
 30
0.0
 10
157.494468
 20
266.966241
 30
0.0
 10
158.317125
 20
267.646026
 30
0.0
 10
158.711900
 20
267.972239
 30
0.0
 11
154.928556
 21
265.069635
 31
0.0
 11
156.208144
 21
265.977235
 31
0.0
 11
157.523643
 21
266.998284
 31
0.0
 11
158.711900
 21
267.972239
 31
0.0
  0
LWPOLYLINE
  5
252
100
AcDbEntity
  8
0
 62
5
100
AcDbPolyline
 90
4
 70
0
 10
148.358296
 20
258.331170
 30
0.0
 10
153.832597
 20
265.865899
 30
0.0
 10
154.106586
 20
265.666834
 30
0.0
 10
153.509390
 20
264.844862
 30
0.0
  0
LWPOLYLINE
  5
253
100
AcDbEntity
  8
0
 62
5
100
AcDbPolyline
 90
4
 70
0
 10
157.689764
 20
270.598654
 30
0.0
 10
157.092568
 20
269.776684
 30
0.0
 10
156.818578
 20
269.975750
 30
0.0
 10
158.311568
 20
272.030675
 30
0.0
  0
LWPOLYLINE
  5
254
100
AcDbEntity
  8
0
 62
1
100
AcDbPolyline
 90
2
 70
0
 10
154.529324
 20
266.824862
 30
0.0
 10
156.121848
 20
269.016784
 30
0.0
  0
LWPOLYLINE
  5
255
100
AcDbEntity
  8
0
 62
5
100
AcDbPolyline
 90
5
 70
0
 10
148.358327
 20
285.730159
 30
0.0
 10
151.819565
 20
286.151797
 30
0.0
 10
156.832562
 20
277.235365
 30
0.0
 10
156.320944
 20
274.770554
 30
0.0
 10
158.311599
 20
272.030653
 30
0.0
  0
LWPOLYLINE
  5
256
100
AcDbEntity
  8
0
 62
5
100
AcDbPolyline
 90
4
 70
0
 10
148.743602
 20
284.335600
 30
0.0
 10
149.826709
 20
284.285283
 30
0.0
 10
153.409887
 20
279.353461
 30
0.0
 10
153.123042
 20
278.307817
 30
0.0
  0
LWPOLYLINE
  5
257
100
AcDbEntity
  8
0
 62
1
100
AcDbPolyline
 90
2
 70
0
 10
148.358327
 20
285.730159
 30
0.0
 10
149.154588
 20
284.634198
 30
0.0
  0
LWPOLYLINE
  5
258
100
AcDbEntity
  8
0
 62
1
100
AcDbPolyline
 90
2
 70
0
 10
156.320944
 20
274.770554
 30
0.0
 10
153.534028
 20
278.606416
 30
0.0
  0
LWPOLYLINE
  5
259
100
AcDbEntity
  8
0
 62
5
100
AcDbPolyline
 90
8
 70
0
 10
132.253730
 20
280.497447
 30
0.0
 10
143.526928
 20
284.160330
 30
0.0
 10
143.482729
 20
285.392304
 30
0.0
 10
145.040858
 20
286.076618
 30
0.0
 10
146.160050
 20
285.371979
 30
0.0
 10
145.837958
 20
285.267325
 30
0.0
 10
145.942612
 20
284.945234
 30
0.0
 10
148.358296
 20
285.730137
 30
0.0
  0
LWPOLYLINE
  5
25a
100
AcDbEntity
  8
0
 62
1
100
AcDbPolyline
 90
2
 70
0
 10
144.171108
 20
284.369638
 30
0.0
 10
145.298428
 20
284.735926
 30
0.0
  0
LWPOLYLINE
  5
25b
100
AcDbEntity
  8
0
 62
5
100
AcDbPolyline
 90
7
 70
0
 10
146.918468
 20
288.964047
 30
0.0
 10
147.471841
 20
287.328242
 30
0.0
 10
145.920706
 20
286.628221
 30
0.0
 10
144.741448
 20
287.316084
 30
0.0
 10
145.034742
 20
287.485418
 30
0.0
 10
144.865409
 20
287.778712
 30
0.0
 10
132.253756
 20
280.497371
 30
0.0
  0
LWPOLYLINE
  5
25c
100
AcDbEntity
  8
0
 62
1
100
AcDbPolyline
 90
2
 70
0
 10
146.331881
 20
288.625380
 30
0.0
 10
145.451997
 20
288.117379
 30
0.0
  0
SPLINE
  5
25d
100
AcDbEntity
  8
0
 62
5
100
AcDbSpline
 70
0
 71
3
 72
10
 73
6
 74
4
 40
0.000000
 40
0.000000
 40
0.000000
 40
0.000000
 40
1.197299
 40
2.328515
 40
2.836676
 40
2.836676
 40
2.836676
 40
2.836676
 10
158.711900
 20
267.972239
 30
0.0
 10
158.633979
 20
268.365528
 30
0.0
 10
158.482437
 20
269.130399
 30
0.0
 10
158.050869
 20
269.981266
 30
0.0
 10
157.775211
 20
270.452565
 30
0.0
 10
157.689764
 20
270.598654
 30
0.0
 11
158.711900
 21
267.972239
 31
0.0
 11
158.424540
 21
269.134543
 31
0.0
 11
157.943582
 21
270.158422
 31
0.0
 11
157.689764
 21
270.598654
 31
0.0
  0
SPLINE
  5
25e
100
AcDbEntity
  8
0
 62
5
100
AcDbSpline
 70
0
 71
3
 72
10
 73
6
 74
4
 40
0.000000
 40
0.000000
 40
0.000000
 40
0.000000
 40
0.383749
 40
1.264637
 40
2.310850
 40
2.310850
 40
2.310850
 40
2.310850
 10
141.200401
 20
299.545365
 30
0.0
 10
141.320811
 20
299.587962
 30
0.0
 10
141.717621
 20
299.728338
 30
0.0
 10
142.487978
 20
299.889242
 30
0.0
 10
143.123270
 20
299.754587
 30
0.0
 10
143.468166
 20
299.681484
 30
0.0
 11
141.200401
 21
299.545365
 31
0.0
 11
141.563913
 21
299.668337
 31
0.0
 11
142.431373
 21
299.821558
 31
0.0
 11
143.468166
 21
299.681484
 31
0.0
  0
SPLINE
  5
25f
100
AcDbEntity
  8
0
 62
5
100
AcDbSpline
 70
0
 71
3
 72
10
 73
6
 74
4
 40
0.000000
 40
0.000000
 40
0.000000
 40
0.000000
 40
1.754125
 40
3.597979
 40
5.352103
 40
5.352103
 40
5.352103
 40
5.352103
 10
143.468166
 20
299.681484
 30
0.0
 10
143.963885
 20
299.362052
 30
0.0
 10
144.980681
 20
298.706848
 30
0.0
 10
145.920368
 20
297.079264
 30
0.0
 10
145.979393
 20
295.871091
 30
0.0
 10
146.008169
 20
295.282070
 30
0.0
 11
143.468166
 21
299.681484
 31
0.0
 11
144.863793
 21
298.618856
 31
0.0
 11
145.785721
 21
297.022032
 31
0.0
 11
146.008169
 21
295.282070
 31
0.0
  0
LWPOLYLINE
  5
260
100
AcDbEntity
  8
0
 62
5
100
AcDbPolyline
 90
4
 70
0
 10
138.451771
 20
303.628799
 30
0.0
 10
141.415107
 20
298.496149
 30
0.0
 10
141.708401
 20
298.665483
 30
0.0
 10
141.200401
 20
299.545365
 30
0.0
  0
LWPOLYLINE
  5
261
100
AcDbEntity
  8
0
 62
5
100
AcDbPolyline
 90
4
 70
0
 10
144.756406
 20
293.386186
 30
0.0
 10
144.248403
 20
294.266069
 30
0.0
 10
143.955110
 20
294.096735
 30
0.0
 10
146.918446
 20
288.964085
 30
0.0
  0
LWPOLYLINE
  5
262
100
AcDbEntity
  8
0
 62
1
100
AcDbPolyline
 90
2
 70
0
 10
142.007773
 20
297.469619
 30
0.0
 10
143.362443
 20
295.123265
 30
0.0
  0
LWPOLYLINE
  5
263
100
AcDbEntity
  8
0
 62
5
100
AcDbPolyline
 90
4
 70
0
 10
123.787019
 20
295.162100
 30
0.0
 10
125.111293
 20
299.641731
 30
0.0
 10
133.910121
 20
304.721736
 30
0.0
 10
138.451731
 20
303.628776
 30
0.0
  0
LWPOLYLINE
  5
264
100
AcDbEntity
  8
0
 62
5
100
AcDbPolyline
 90
4
 70
0
 10
128.147137
 20
297.092828
 30
0.0
 10
128.310394
 20
298.164730
 30
0.0
 10
133.589691
 20
301.212734
 30
0.0
 10
134.599612
 20
300.818165
 30
0.0
  0
LWPOLYLINE
  5
265
100
AcDbEntity
  8
0
 62
1
100
AcDbPolyline
 90
2
 70
0
 10
123.787019
 20
295.162100
 30
0.0
 10
127.893137
 20
297.532769
 30
0.0
  0
LWPOLYLINE
  5
266
100
AcDbEntity
  8
0
 62
1
100
AcDbPolyline
 90
2
 70
0
 10
138.451731
 20
303.628776
 30
0.0
 10
134.345612
 20
301.258107
 30
0.0
  0
SPLINE
  5
267
100
AcDbEntity
  8
0
 62
5
100
AcDbSpline
 70
0
 71
3
 72
10
 73
6
 74
4
 40
0.000000
 40
0.000000
 40
0.000000
 40
0.000000
 40
1.046213
 40
1.927100
 40
2.310849
 40
2.310849
 40
2.310849
 40
2.310849
 10
146.008169
 20
295.282070
 30
0.0
 10
145.899030
 20
294.946829
 30
0.0
 10
145.697999
 20
294.329323
 30
0.0
 10
145.173474
 20
293.742625
 30
0.0
 10
144.853501
 20
293.469166
 30
0.0
 10
144.756406
 20
293.386186
 30
0.0
 11
146.008169
 21
295.282070
 31
0.0
 11
145.611080
 21
294.314143
 31
0.0
 11
145.044659
 21
293.639511
 31
0.0
 11
144.756406
 21
293.386186
 31
0.0
  0
SPLINE
  5
268
100
AcDbEntity
  8
0
 62
5
100
AcDbSpline
 70
0
 71
3
 72
10
 73
6
 74
4
 40
0.000000
 40
0.000000
 40
0.000000
 40
0.000000
 40
0.383749
 40
1.264637
 40
2.310850
 40
2.310850
 40
2.310850
 40
2.310850
 10
117.482406
 20
284.919448
 30
0.0
 10
117.385311
 20
285.002429
 30
0.0
 10
117.065337
 20
285.275888
 30
0.0
 10
116.540811
 20
285.862585
 30
0.0
 10
116.339779
 20
286.480091
 30
0.0
 10
116.230640
 20
286.815332
 30
0.0
 11
117.482406
 21
284.919448
 31
0.0
 11
117.194152
 21
285.172773
 31
0.0
 11
116.627729
 21
285.847406
 31
0.0
 11
116.230640
 21
286.815332
 31
0.0
  0
SPLINE
  5
269
100
AcDbEntity
  8
0
 62
5
100
AcDbSpline
 70
0
 71
3
 72
10
 73
6
 74
4
 40
0.000000
 40
0.000000
 40
0.000000
 40
0.000000
 40
1.754124
 40
3.597978
 40
5.352102
 40
5.352102
 40
5.352102
 40
5.352102
 10
116.230640
 20
286.815332
 30
0.0
 10
116.259417
 20
287.404353
 30
0.0
 10
116.318443
 20
288.612526
 30
0.0
 10
117.258129
 20
290.240110
 30
0.0
 10
118.274924
 20
290.895314
 30
0.0
 10
118.770643
 20
291.214746
 30
0.0
 11
116.230640
 21
286.815332
 31
0.0
 11
116.453089
 21
288.555294
 31
0.0
 11
117.375016
 21
290.152119
 31
0.0
 11
118.770643
 21
291.214746
 31
0.0
  0
LWPOLYLINE
  5
26a
100
AcDbEntity
  8
0
 62
5
100
AcDbPolyline
 90
4
 70
0
 10
115.320363
 20
280.497348
 30
0.0
 10
118.283699
 20
285.629998
 30
0.0
 10
117.990406
 20
285.799331
 30
0.0
 10
117.482406
 20
284.919448
 30
0.0
  0
LWPOLYLINE
  5
26b
100
AcDbEntity
  8
0
 62
5
100
AcDbPolyline
 90
4
 70
0
 10
121.038408
 20
291.078628
 30
0.0
 10
120.530408
 20
290.198745
 30
0.0
 10
120.823702
 20
290.029412
 30
0.0
 10
123.787038
 20
295.162061
 30
0.0
  0
LWPOLYLINE
  5
26c
100
AcDbEntity
  8
0
 62
1
100
AcDbPolyline
 90
2
 70
0
 10
118.876366
 20
286.656528
 30
0.0
 10
120.231035
 20
289.002882
 30
0.0
  0
LWPOLYLINE
  5
26d
100
AcDbEntity
  8
0
 62
5
100
AcDbPolyline
 90
5
 70
0
 10
115.320324
 20
280.497371
 30
0.0
 10
112.272307
 20
278.804028
 30
0.0
 10
113.457646
 20
268.643968
 30
0.0
 10
115.320324
 20
266.950626
 30
0.0
 10
115.320324
 20
263.563940
 30
0.0
  0
LWPOLYLINE
  5
26e
100
AcDbEntity
  8
0
 62
5
100
AcDbPolyline
 90
4
 70
0
 10
115.828326
 20
279.142697
 30
0.0
 10
114.981654
 20
278.465359
 30
0.0
 10
114.981654
 20
272.369324
 30
0.0
 10
115.828326
 20
271.691987
 30
0.0
  0
LWPOLYLINE
  5
26f
100
AcDbEntity
  8
0
 62
1
100
AcDbPolyline
 90
2
 70
0
 10
115.320324
 20
280.497371
 30
0.0
 10
115.320324
 20
279.142697
 30
0.0
  0
LWPOLYLINE
  5
270
100
AcDbEntity
  8
0
 62
1
100
AcDbPolyline
 90
2
 70
0
 10
115.320324
 20
266.950626
 30
0.0
 10
115.320324
 20
271.691987
 30
0.0
  0
SPLINE
  5
271
100
AcDbEntity
  8
0
 62
5
100
AcDbSpline
 70
0
 71
3
 72
10
 73
6
 74
4
 40
0.000000
 40
0.000000
 40
0.000000
 40
0.000000
 40
1.046214
 40
1.927101
 40
2.310849
 40
2.310849
 40
2.310849
 40
2.310849
 10
118.770643
 20
291.214746
 30
0.0
 10
119.115540
 20
291.287850
 30
0.0
 10
119.750832
 20
291.422504
 30
0.0
 10
120.521189
 20
291.261600
 30
0.0
 10
120.917998
 20
291.121225
 30
0.0
 10
121.038408
 20
291.078628
 30
0.0
 11
118.770643
 21
291.214746
 31
0.0
 11
119.807437
 21
291.354820
 31
0.0
 11
120.674897
 21
291.201600
 31
0.0
 11
121.038408
 21
291.078628
 31
0.0
  0
SPLINE
  5
272
100
AcDbEntity
  8
0
 62
5
100
AcDbSpline
 70
0
 71
3
 72
10
 73
6
 74
4
 40
0.000000
 40
0.000000
 40
0.000000
 40
0.000000
 40
0.168287
 40
0.650186
 40
1.455503
 40
1.455503
 40
1.455503
 40
1.455503
 10
107.671921
 20
259.539191
 30
0.0
 10
107.667259
 20
259.595165
 30
0.0
 10
107.649248
 20
259.811425
 30
0.0
 10
107.739325
 20
260.297600
 30
0.0
 10
107.926625
 20
260.684827
 30
0.0
 10
108.043805
 20
260.927087
 30
0.0
 11
107.671921
 21
259.539191
 31
0.0
 11
107.661838
 21
259.707176
 31
0.0
 11
107.734396
 21
260.183581
 31
0.0
 11
108.043805
 21
260.927087
 31
0.0
  0
SPLINE
  5
273
100
AcDbEntity
  8
0
 62
5
100
AcDbSpline
 70
0
 71
3
 72
10
 73
6
 74
4
 40
0.000000
 40
0.000000
 40
0.000000
 40
0.000000
 40
1.568783
 40
3.234038
 40
4.770443
 40
4.770443
 40
4.770443
 40
4.770443
 10
108.043805
 20
260.927087
 30
0.0
 10
108.385621
 20
261.322961
 30
0.0
 10
109.090271
 20
262.139053
 30
0.0
 10
110.198230
 20
263.280691
 30
0.0
 10
110.960282
 20
264.027785
 30
0.0
 10
111.325973
 20
264.386298
 30
0.0
 11
108.043805
 21
260.927087
 31
0.0
 11
109.080186
 21
262.104794
 31
0.0
 11
110.233147
 21
263.306357
 31
0.0
 11
111.325973
 21
264.386298
 31
0.0
  0
LWPOLYLINE
  5
274
100
AcDbEntity
  8
0
 62
5
100
AcDbPolyline
 90
4
 70
0
 10
100.655484
 20
255.097188
 30
0.0
 10
108.721147
 20
259.753900
 30
0.0
 10
108.551811
 20
260.047197
 30
0.0
 10
107.671921
 20
259.539191
 30
0.0
  0
LWPOLYLINE
  5
275
100
AcDbEntity
  8
0
 62
5
100
AcDbPolyline
 90
4
 70
0
 10
113.831153
 20
263.095228
 30
0.0
 10
112.951263
 20
262.587222
 30
0.0
 10
113.120599
 20
262.293925
 30
0.0
 10
115.320324
 20
263.563937
 30
0.0
  0
LWPOLYLINE
  5
276
100
AcDbEntity
  8
0
 62
1
100
AcDbPolyline
 90
2
 70
0
 10
109.747685
 20
260.346572
 30
0.0
 10
112.094061
 20
261.701253
 30
0.0
  0
LWPOLYLINE
  5
277
100
AcDbEntity
  8
0
 62
5
100
AcDbPolyline
 90
7
 70
0
 10
100.655464
 20
255.097225
 30
0.0
 10
101.208837
 20
256.733027
 30
0.0
 10
99.657702
 20
257.433048
 30
0.0
 10
98.478444
 20
256.745185
 30
0.0
 10
98.771738
 20
256.575852
 30
0.0
 10
98.602405
 20
256.282558
 30
0.0
 10
85.990752
 20
263.563900
 30
0.0
  0
LWPOLYLINE
  5
278
100
AcDbEntity
  8
0
 62
1
100
AcDbPolyline
 90
2
 70
0
 10
100.068877
 20
255.435892
 30
0.0
 10
99.188992
 20
255.943892
 30
0.0
  0
LWPOLYLINE
  5
279
100
AcDbEntity
  8
0
 62
5
100
AcDbPolyline
 90
8
 70
0
 10
85.990774
 20
263.563940
 30
0.0
 10
97.263972
 20
259.901056
 30
0.0
 10
97.219773
 20
258.669083
 30
0.0
 10
98.777902
 20
257.984767
 30
0.0
 10
99.897094
 20
258.689409
 30
0.0
 10
99.575002
 20
258.794062
 30
0.0
 10
99.679656
 20
259.116151
 30
0.0
 10
102.095340
 20
258.331249
 30
0.0
  0
LWPOLYLINE
  5
27a
100
AcDbEntity
  8
0
 62
1
100
AcDbPolyline
 90
2
 70
0
 10
97.908152
 20
259.691749
 30
0.0
 10
99.035472
 20
259.325461
 30
0.0
  0
LWPOLYLINE
  5
27b
100
AcDbEntity
  8
0
 62
5
100
AcDbPolyline
 90
5
 70
0
 10
112.048586
 20
272.030675
 30
0.0
 10
113.519170
 20
268.869136
 30
0.0
 10
106.588241
 20
261.346161
 30
0.0
 10
104.085969
 20
261.071071
 30
0.0
 10
102.095314
 20
258.331170
 30
0.0
  0
LWPOLYLINE
  5
27c
100
AcDbEntity
  8
0
 62
5
100
AcDbPolyline
 90
4
 70
0
 10
110.841341
 20
271.233313
 30
0.0
 10
111.128183
 20
270.187669
 30
0.0
 10
107.545005
 20
265.255848
 30
0.0
 10
106.461901
 20
265.205530
 30
0.0
  0
LWPOLYLINE
  5
27d
100
AcDbEntity
  8
0
 62
1
100
AcDbPolyline
 90
2
 70
0
 10
112.048586
 20
272.030675
 30
0.0
 10
111.252325
 20
270.934715
 30
0.0
  0
LWPOLYLINE
  5
27e
100
AcDbEntity
  8
0
 62
1
100
AcDbPolyline
 90
2
 70
0
 10
104.085969
 20
261.071071
 30
0.0
 10
106.872885
 20
264.906933
 30
0.0
  0
SPLINE
  5
27f
100
AcDbEntity
  8
0
 62
5
100
AcDbSpline
 70
0
 71
3
 72
10
 73
6
 74
4
 40
0.000000
 40
0.000000
 40
0.000000
 40
0.000000
 40
1.197297
 40
2.328511
 40
2.836671
 40
2.836671
 40
2.836671
 40
2.836671
 10
111.325973
 20
264.386298
 30
0.0
 10
111.708962
 20
264.267694
 30
0.0
 10
112.453800
 20
264.037030
 30
0.0
 10
113.254893
 20
263.518888
 30
0.0
 10
113.694795
 20
263.195476
 30
0.0
 10
113.831153
 20
263.095228
 30
0.0
 11
111.325973
 21
264.386298
 31
0.0
 11
112.451869
 21
263.979018
 31
0.0
 11
113.419864
 21
263.393670
 31
0.0
 11
113.831153
 21
263.095228
 31
0.0
  0
SPLINE
  5
280
100
AcDbEntity
  8
0
 62
5
100
AcDbSpline
 70
0
 71
3
 72
10
 73
6
 74
4
 40
0.000000
 40
0.000000
 40
0.000000
 40
0.000000
 40
0.168287
 40
0.650187
 40
1.455505
 40
1.455505
 40
1.455505
 40
1.455505
 10
107.445502
 20
278.942476
 30
0.0
 10
107.472528
 20
278.991715
 30
0.0
 10
107.576943
 20
279.181953
 30
0.0
 10
107.692400
 20
279.662734
 30
0.0
 10
107.678792
 20
280.092666
 30
0.0
 10
107.670278
 20
280.361643
 30
0.0
 11
107.445502
 21
278.942476
 31
0.0
 11
107.523040
 21
279.091836
 31
0.0
 11
107.650527
 21
279.556567
 31
0.0
 11
107.670278
 21
280.361643
 31
0.0
  0
SPLINE
  5
281
100
AcDbEntity
  8
0
 62
5
100
AcDbSpline
 70
0
 71
3
 72
10
 73
6
 74
4
 40
0.000000
 40
0.000000
 40
0.000000
 40
0.000000
 40
1.568784
 40
3.234040
 40
4.770446
 40
4.770446
 40
4.770446
 40
4.770446
 10
107.670278
 20
280.361643
 30
0.0
 10
107.519030
 20
280.862321
 30
0.0
 10
107.207234
 20
281.894467
 30
0.0
 10
106.659408
 20
283.388053
 30
0.0
 10
106.267110
 20
284.380513
 30
0.0
 10
106.078855
 20
284.856771
 30
0.0
 11
107.670278
 21
280.361643
 31
0.0
 11
107.202512
 21
281.859067
 31
0.0
 11
106.637949
 21
283.425702
 31
0.0
 11
106.078855
 21
284.856771
 31
0.0
  0
LWPOLYLINE
  5
282
100
AcDbEntity
  8
0
 62
5
100
AcDbPolyline
 90
4
 70
0
 10
112.048617
 20
272.030653
 30
0.0
 10
106.574316
 20
279.565381
 30
0.0
 10
106.848306
 20
279.764446
 30
0.0
 10
107.445502
 20
278.942476
 30
0.0
  0
LWPOLYLINE
  5
283
100
AcDbEntity
  8
0
 62
5
100
AcDbPolyline
 90
4
 70
0
 10
103.265128
 20
284.696268
 30
0.0
 10
103.862324
 20
283.874298
 30
0.0
 10
103.588335
 20
283.675233
 30
0.0
 10
102.095345
 20
285.730159
 30
0.0
  0
LWPOLYLINE
  5
284
100
AcDbEntity
  8
0
 62
1
100
AcDbPolyline
 90
2
 70
0
 10
105.877589
 20
280.524346
 30
0.0
 10
104.285065
 20
282.716267
 30
0.0
  0
LWPOLYLINE
  5
285
100
AcDbEntity
  8
0
 62
5
100
AcDbPolyline
 90
7
 70
0
 10
102.095314
 20
285.730137
 30
0.0
 10
101.249954
 20
287.235940
 30
0.0
 10
99.691825
 20
286.551625
 30
0.0
 10
99.413929
 20
285.214998
 30
0.0
 10
99.736021
 20
285.319652
 30
0.0
 10
99.840675
 20
284.997561
 30
0.0
 10
85.990749
 20
280.497447
 30
0.0
  0
LWPOLYLINE
  5
286
100
AcDbEntity
  8
0
 62
1
100
AcDbPolyline
 90
2
 70
0
 10
101.451133
 20
285.520830
 30
0.0
 10
100.484858
 20
285.206868
 30
0.0
  0
LWPOLYLINE
  5
287
100
AcDbEntity
  8
0
 62
5
100
AcDbPolyline
 90
8
 70
0
 10
85.990774
 20
280.497371
 30
0.0
 10
96.256074
 20
286.424044
 30
0.0
 10
97.142035
 20
285.566848
 30
0.0
 10
98.693173
 20
286.266868
 30
0.0
 10
98.918409
 20
287.570085
 30
0.0
 10
98.625115
 20
287.400751
 30
0.0
 10
98.455782
 20
287.694045
 30
0.0
 10
100.655487
 20
288.964047
 30
0.0
  0
LWPOLYLINE
  5
288
100
AcDbEntity
  8
0
 62
1
100
AcDbPolyline
 90
2
 70
0
 10
96.842662
 20
286.762711
 30
0.0
 10
97.869192
 20
287.355378
 30
0.0
  0
LWPOLYLINE
  5
289
100
AcDbEntity
  8
0
 62
5
100
AcDbPolyline
 90
4
 70
0
 10
92.188789
 20
303.628799
 30
0.0
 10
96.668421
 20
302.304525
 30
0.0
 10
101.748426
 20
293.505697
 30
0.0
 10
100.655464
 20
288.964085
 30
0.0
  0
LWPOLYLINE
  5
28a
100
AcDbEntity
  8
0
 62
5
100
AcDbPolyline
 90
4
 70
0
 10
94.119517
 20
299.268679
 30
0.0
 10
95.191419
 20
299.105424
 30
0.0
 10
98.239422
 20
293.826127
 30
0.0
 10
97.844856
 20
292.816205
 30
0.0
  0
LWPOLYLINE
  5
28b
100
AcDbEntity
  8
0
 62
1
100
AcDbPolyline
 90
2
 70
0
 10
92.188789
 20
303.628799
 30
0.0
 10
94.559459
 20
299.522679
 30
0.0
  0
LWPOLYLINE
  5
28c
100
AcDbEntity
  8
0
 62
1
100
AcDbPolyline
 90
2
 70
0
 10
100.655464
 20
288.964085
 30
0.0
 10
98.284795
 20
293.070205
 30
0.0
  0
SPLINE
  5
28d
100
AcDbEntity
  8
0
 62
5
100
AcDbSpline
 70
0
 71
3
 72
10
 73
6
 74
4
 40
0.000000
 40
0.000000
 40
0.000000
 40
0.000000
 40
1.197299
 40
2.328516
 40
2.836677
 40
2.836677
 40
2.836677
 40
2.836677
 10
106.078855
 20
284.856771
 30
0.0
 10
105.680736
 20
284.904196
 30
0.0
 10
104.906472
 20
284.996428
 30
0.0
 10
103.963887
 20
284.848915
 30
0.0
 10
103.430472
 20
284.732389
 30
0.0
 10
103.265128
 20
284.696268
 30
0.0
 11
106.078855
 21
284.856771
 31
0.0
 11
104.884640
 21
284.942646
 31
0.0
 11
103.762247
 21
284.801624
 31
0.0
 11
103.265128
 21
284.696268
 31
0.0
  0
SPLINE
  5
28e
100
AcDbEntity
  8
0
 62
5
100
AcDbSpline
 70
0
 71
3
 72
10
 73
6
 74
4
 40
0.000000
 40
0.000000
 40
0.000000
 40
0.000000
 40
0.383749
 40
1.264637
 40
2.310850
 40
2.310850
 40
2.310850
 40
2.310850
 10
81.607471
 20
297.910730
 30
0.0
 10
81.564874
 20
298.031140
 30
0.0
 10
81.424498
 20
298.427950
 30
0.0
 10
81.263594
 20
299.198307
 30
0.0
 10
81.398249
 20
299.833600
 30
0.0
 10
81.471352
 20
300.178496
 30
0.0
 11
81.607471
 21
297.910730
 31
0.0
 11
81.484499
 21
298.274242
 31
0.0
 11
81.331278
 21
299.141703
 31
0.0
 11
81.471352
 21
300.178496
 31
0.0
  0
SPLINE
  5
28f
100
AcDbEntity
  8
0
 62
5
100
AcDbSpline
 70
0
 71
3
 72
10
 73
6
 74
4
 40
0.000000
 40
0.000000
 40
0.000000
 40
0.000000
 40
1.754124
 40
3.597978
 40
5.352101
 40
5.352101
 40
5.352101
 40
5.352101
 10
81.471352
 20
300.178496
 30
0.0
 10
81.790784
 20
300.674215
 30
0.0
 10
82.445988
 20
301.691010
 30
0.0
 10
84.073572
 20
302.630696
 30
0.0
 10
85.281744
 20
302.689722
 30
0.0
 10
85.870765
 20
302.718499
 30
0.0
 11
81.471352
 21
300.178496
 31
0.0
 11
82.533980
 21
301.574123
 31
0.0
 11
84.130804
 21
302.496050
 31
0.0
 11
85.870765
 21
302.718499
 31
0.0
  0
LWPOLYLINE
  5
290
100
AcDbEntity
  8
0
 62
5
100
AcDbPolyline
 90
4
 70
0
 10
77.524037
 20
295.162100
 30
0.0
 10
82.656686
 20
298.125436
 30
0.0
 10
82.487352
 20
298.418731
 30
0.0
 10
81.607471
 20
297.910730
 30
0.0
  0
LWPOLYLINE
  5
291
100
AcDbEntity
  8
0
 62
5
100
AcDbPolyline
 90
4
 70
0
 10
87.766649
 20
301.466734
 30
0.0
 10
86.886768
 20
300.958734
 30
0.0
 10
87.056101
 20
300.665439
 30
0.0
 10
92.188750
 20
303.628776
 30
0.0
  0
LWPOLYLINE
  5
292
100
AcDbEntity
  8
0
 62
1
100
AcDbPolyline
 90
2
 70
0
 10
83.683215
 20
298.718104
 30
0.0
 10
86.029571
 20
300.072772
 30
0.0
  0
LWPOLYLINE
  5
293
100
AcDbEntity
  8
0
 62
5
100
AcDbPolyline
 90
4
 70
0
 10
69.057382
 20
280.497348
 30
0.0
 10
67.964423
 20
285.038959
 30
0.0
 10
73.044428
 20
293.837787
 30
0.0
 10
77.524057
 20
295.162061
 30
0.0
  0
LWPOLYLINE
  5
294
100
AcDbEntity
  8
0
 62
5
100
AcDbPolyline
 90
4
 70
0
 10
71.867993
 20
284.349467
 30
0.0
 10
71.473424
 20
285.359390
 30
0.0
 10
74.521427
 20
290.638687
 30
0.0
 10
75.593329
 20
290.801941
 30
0.0
  0
LWPOLYLINE
  5
295
100
AcDbEntity
  8
0
 62
1
100
AcDbPolyline
 90
2
 70
0
 10
69.057382
 20
280.497348
 30
0.0
 10
71.428051
 20
284.603468
 30
0.0
  0
LWPOLYLINE
  5
296
100
AcDbEntity
  8
0
 62
1
100
AcDbPolyline
 90
2
 70
0
 10
77.524057
 20
295.162061
 30
0.0
 10
75.153387
 20
291.055942
 30
0.0
  0
SPLINE
  5
297
100
AcDbEntity
  8
0
 62
5
100
AcDbSpline
 70
0
 71
3
 72
10
 73
6
 74
4
 40
0.000000
 40
0.000000
 40
0.000000
 40
0.000000
 40
1.046213
 40
1.927101
 40
2.310850
 40
2.310850
 40
2.310850
 40
2.310850
 10
85.870765
 20
302.718499
 30
0.0
 10
86.206006
 20
302.609360
 30
0.0
 10
86.823512
 20
302.408328
 30
0.0
 10
87.410210
 20
301.883803
 30
0.0
 10
87.683669
 20
301.563829
 30
0.0
 10
87.766649
 20
301.466734
 30
0.0
 11
85.870765
 21
302.718499
 31
0.0
 11
86.838692
 21
302.321410
 31
0.0
 11
87.513324
 21
301.754987
 31
0.0
 11
87.766649
 21
301.466734
 31
0.0
  0
SPLINE
  5
298
100
AcDbEntity
  8
0
 62
5
100
AcDbSpline
 70
0
 71
3
 72
10
 73
6
 74
4
 40
0.000000
 40
0.000000
 40
0.000000
 40
0.000000
 40
0.168286
 40
0.650183
 40
1.455497
 40
1.455497
 40
1.455497
 40
1.455497
 10
68.718673
 20
271.861321
 30
0.0
 10
68.667867
 20
271.885271
 30
0.0
 10
68.471576
 20
271.977803
 30
0.0
 10
68.095576
 20
272.298898
 30
0.0
 10
67.853879
 20
272.654717
 30
0.0
 10
67.702667
 20
272.877327
 30
0.0
 11
68.718673
 21
271.861321
 31
0.0
 11
68.568153
 21
271.936581
 31
0.0
 11
68.191855
 21
272.237619
 31
0.0
 11
67.702667
 21
272.877327
 31
0.0
  0
SPLINE
  5
299
100
AcDbEntity
  8
0
 62
5
100
AcDbSpline
 70
0
 71
3
 72
10
 73
6
 74
4
 40
0.000000
 40
0.000000
 40
0.000000
 40
0.000000
 40
1.568776
 40
3.234023
 40
4.770422
 40
4.770422
 40
4.770422
 40
4.770422
 10
67.702667
 20
272.877327
 30
0.0
 10
67.530738
 20
273.371282
 30
0.0
 10
67.176308
 20
274.389570
 30
0.0
 10
66.741603
 20
275.919903
 30
0.0
 10
66.475627
 20
276.953401
 30
0.0
 10
66.347992
 20
277.449353
 30
0.0
 11
67.702667
 21
272.877327
 31
0.0
 11
67.200936
 21
274.363706
 31
0.0
 11
66.736834
 21
275.962974
 31
0.0
 11
66.347992
 21
277.449353
 31
0.0
  0
LWPOLYLINE
  5
29a
100
AcDbEntity
  8
0
 62
5
100
AcDbPolyline
 90
4
 70
0
 10
69.057342
 20
263.563940
 30
0.0
 10
69.057342
 20
272.877327
 30
0.0
 10
68.718673
 20
272.877327
 30
0.0
 10
68.718673
 20
271.861321
 30
0.0
  0
LWPOLYLINE
  5
29b
100
AcDbEntity
  8
0
 62
5
100
AcDbPolyline
 90
4
 70
0
 10
68.718673
 20
278.973362
 30
0.0
 10
68.718673
 20
277.957356
 30
0.0
 10
69.057342
 20
277.957356
 30
0.0
 10
69.057342
 20
280.497371
 30
0.0
  0
LWPOLYLINE
  5
29c
100
AcDbEntity
  8
0
 62
1
100
AcDbPolyline
 90
2
 70
0
 10
69.057342
 20
274.062667
 30
0.0
 10
69.057342
 20
276.772016
 30
0.0
  0
LWPOLYLINE
  5
29d
100
AcDbEntity
  8
0
 62
5
100
AcDbPolyline
 90
5
 70
0
 10
69.057342
 20
263.563937
 30
0.0
 10
66.066845
 20
265.356934
 30
0.0
 10
57.860613
 20
259.250345
 30
0.0
 10
57.325472
 20
256.790538
 30
0.0
 10
54.392503
 20
255.097188
 30
0.0
  0
LWPOLYLINE
  5
29e
100
AcDbEntity
  8
0
 62
5
100
AcDbPolyline
 90
4
 70
0
 10
68.138159
 20
262.446653
 30
0.0
 10
67.128226
 20
262.841225
 30
0.0
 10
61.848884
 20
259.793194
 30
0.0
 10
61.685627
 20
258.721283
 30
0.0
  0
LWPOLYLINE
  5
29f
100
AcDbEntity
  8
0
 62
1
100
AcDbPolyline
 90
2
 70
0
 10
69.057342
 20
263.563937
 30
0.0
 10
67.884156
 20
262.886598
 30
0.0
  0
LWPOLYLINE
  5
2a0
100
AcDbEntity
  8
0
 62
1
100
AcDbPolyline
 90
2
 70
0
 10
57.325472
 20
256.790538
 30
0.0
 10
61.431627
 20
259.161228
 30
0.0
  0
LWPOLYLINE
  5
2a1
100
AcDbEntity
  8
0
 62
5
100
AcDbPolyline
 90
8
 70
0
 10
39.727767
 20
263.563900
 30
0.0
 10
49.993067
 20
257.637228
 30
0.0
 10
50.879028
 20
258.494424
 30
0.0
 10
52.430166
 20
257.794403
 30
0.0
 10
52.655402
 20
256.491185
 30
0.0
 10
52.362108
 20
256.660519
 30
0.0
 10
52.192775
 20
256.367225
 30
0.0
 10
54.392480
 20
255.097225
 30
0.0
  0
LWPOLYLINE
  5
2a2
100
AcDbEntity
  8
0
 62
1
100
AcDbPolyline
 90
2
 70
0
 10
50.579655
 20
257.298558
 30
0.0
 10
51.606185
 20
256.705892
 30
0.0
  0
LWPOLYLINE
  5
2a3
100
AcDbEntity
  8
0
 62
5
100
AcDbPolyline
 90
7
 70
0
 10
55.832355
 20
258.331249
 30
0.0
 10
54.986995
 20
256.825447
 30
0.0
 10
53.428866
 20
257.509762
 30
0.0
 10
53.150970
 20
258.846389
 30
0.0
 10
53.473062
 20
258.741735
 30
0.0
 10
53.577716
 20
259.063824
 30
0.0
 10
39.727790
 20
263.563940
 30
0.0
  0
LWPOLYLINE
  5
2a4
100
AcDbEntity
  8
0
 62
1
100
AcDbPolyline
 90
2
 70
0
 10
55.188175
 20
258.540556
 30
0.0
 10
54.221899
 20
258.854517
 30
0.0
  0
SPLINE
  5
2a5
100
AcDbEntity
  8
0
 62
5
100
AcDbSpline
 70
0
 71
3
 72
10
 73
6
 74
4
 40
0.000000
 40
0.000000
 40
0.000000
 40
0.000000
 40
1.197293
 40
2.328503
 40
2.836660
 40
2.836660
 40
2.836660
 40
2.836660
 10
66.347992
 20
277.449353
 30
0.0
 10
66.642200
 20
277.721728
 30
0.0
 10
67.214378
 20
278.251443
 30
0.0
 10
68.063645
 20
278.686138
 30
0.0
 10
68.563677
 20
278.905398
 30
0.0
 10
68.718673
 20
278.973362
 30
0.0
 11
66.347992
 21
277.449353
 31
0.0
 11
67.263652
 21
278.220765
 31
0.0
 11
68.254572
 21
278.766398
 31
0.0
 11
68.718673
 21
278.973362
 31
0.0
  0
SPLINE
  5
2a6
100
AcDbEntity
  8
0
 62
5
100
AcDbSpline
 70
0
 71
3
 72
10
 73
6
 74
4
 40
0.000000
 40
0.000000
 40
0.000000
 40
0.000000
 40
0.168287
 40
0.650186
 40
1.455503
 40
1.455503
 40
1.455503
 40
1.455503
 10
60.983427
 20
264.844862
 30
0.0
 10
61.038608
 20
264.834374
 30
0.0
 10
61.251800
 20
264.793857
 30
0.0
 10
61.744728
 20
264.832622
 30
0.0
 10
62.149412
 20
264.978419
 30
0.0
 10
62.402593
 20
265.069635
 30
0.0
 11
60.983427
 21
264.844862
 31
0.0
 11
61.149437
 21
264.817275
 31
0.0
 11
61.630817
 21
264.839637
 31
0.0
 11
62.402593
 21
265.069635
 31
0.0
  0
SPLINE
  5
2a7
100
AcDbEntity
  8
0
 62
5
100
AcDbSpline
 70
0
 71
3
 72
10
 73
6
 74
4
 40
0.000000
 40
0.000000
 40
0.000000
 40
0.000000
 40
1.568784
 40
3.234041
 40
4.770447
 40
4.770447
 40
4.770447
 40
4.770447
 10
62.402593
 20
265.069635
 30
0.0
 10
62.832028
 20
265.368198
 30
0.0
 10
63.717307
 20
265.983684
 30
0.0
 10
64.968505
 20
266.966241
 30
0.0
 10
65.791162
 20
267.646026
 30
0.0
 10
66.185937
 20
267.972239
 30
0.0
 11
62.402593
 21
265.069635
 31
0.0
 11
63.682181
 21
265.977235
 31
0.0
 11
64.997680
 21
266.998284
 31
0.0
 11
66.185937
 21
267.972239
 31
0.0
  0
LWPOLYLINE
  5
2a8
100
AcDbEntity
  8
0
 62
5
100
AcDbPolyline
 90
4
 70
0
 10
55.832333
 20
258.331170
 30
0.0
 10
61.306634
 20
265.865899
 30
0.0
 10
61.580624
 20
265.666834
 30
0.0
 10
60.983427
 20
264.844862
 30
0.0
  0
LWPOLYLINE
  5
2a9
100
AcDbEntity
  8
0
 62
5
100
AcDbPolyline
 90
4
 70
0
 10
65.163802
 20
270.598654
 30
0.0
 10
64.566605
 20
269.776684
 30
0.0
 10
64.292615
 20
269.975750
 30
0.0
 10
65.785605
 20
272.030675
 30
0.0
  0
LWPOLYLINE
  5
2aa
100
AcDbEntity
  8
0
 62
1
100
AcDbPolyline
 90
2
 70
0
 10
62.003361
 20
266.824862
 30
0.0
 10
63.595885
 20
269.016784
 30
0.0
  0
LWPOLYLINE
  5
2ab
100
AcDbEntity
  8
0
 62
5
100
AcDbPolyline
 90
5
 70
0
 10
55.832361
 20
285.730159
 30
0.0
 10
59.293599
 20
286.151797
 30
0.0
 10
64.306597
 20
277.235365
 30
0.0
 10
63.794979
 20
274.770554
 30
0.0
 10
65.785633
 20
272.030653
 30
0.0
  0
LWPOLYLINE
  5
2ac
100
AcDbEntity
  8
0
 62
5
100
AcDbPolyline
 90
4
 70
0
 10
56.217637
 20
284.335600
 30
0.0
 10
57.300743
 20
284.285283
 30
0.0
 10
60.883921
 20
279.353461
 30
0.0
 10
60.597076
 20
278.307817
 30
0.0
  0
LWPOLYLINE
  5
2ad
100
AcDbEntity
  8
0
 62
1
100
AcDbPolyline
 90
2
 70
0
 10
55.832361
 20
285.730159
 30
0.0
 10
56.628623
 20
284.634198
 30
0.0
  0
LWPOLYLINE
  5
2ae
100
AcDbEntity
  8
0
 62
1
100
AcDbPolyline
 90
2
 70
0
 10
63.794979
 20
274.770554
 30
0.0
 10
61.008062
 20
278.606416
 30
0.0
  0
LWPOLYLINE
  5
2af
100
AcDbEntity
  8
0
 62
5
100
AcDbPolyline
 90
8
 70
0
 10
39.727765
 20
280.497447
 30
0.0
 10
51.000962
 20
284.160330
 30
0.0
 10
50.956763
 20
285.392304
 30
0.0
 10
52.514892
 20
286.076618
 30
0.0
 10
53.634084
 20
285.371979
 30
0.0
 10
53.311992
 20
285.267325
 30
0.0
 10
53.416646
 20
284.945234
 30
0.0
 10
55.832330
 20
285.730137
 30
0.0
  0
LWPOLYLINE
  5
2b0
100
AcDbEntity
  8
0
 62
1
100
AcDbPolyline
 90
2
 70
0
 10
51.645143
 20
284.369638
 30
0.0
 10
52.772462
 20
284.735926
 30
0.0
  0
LWPOLYLINE
  5
2b1
100
AcDbEntity
  8
0
 62
5
100
AcDbPolyline
 90
7
 70
0
 10
54.392503
 20
288.964047
 30
0.0
 10
54.945875
 20
287.328242
 30
0.0
 10
53.394740
 20
286.628221
 30
0.0
 10
52.215483
 20
287.316084
 30
0.0
 10
52.508777
 20
287.485418
 30
0.0
 10
52.339443
 20
287.778712
 30
0.0
 10
39.727790
 20
280.497371
 30
0.0
  0
LWPOLYLINE
  5
2b2
100
AcDbEntity
  8
0
 62
1
100
AcDbPolyline
 90
2
 70
0
 10
53.805915
 20
288.625380
 30
0.0
 10
52.926031
 20
288.117379
 30
0.0
  0
SPLINE
  5
2b3
100
AcDbEntity
  8
0
 62
5
100
AcDbSpline
 70
0
 71
3
 72
10
 73
6
 74
4
 40
0.000000
 40
0.000000
 40
0.000000
 40
0.000000
 40
1.197299
 40
2.328515
 40
2.836676
 40
2.836676
 40
2.836676
 40
2.836676
 10
66.185937
 20
267.972239
 30
0.0
 10
66.108016
 20
268.365528
 30
0.0
 10
65.956474
 20
269.130399
 30
0.0
 10
65.524906
 20
269.981266
 30
0.0
 10
65.249248
 20
270.452565
 30
0.0
 10
65.163802
 20
270.598654
 30
0.0
 11
66.185937
 21
267.972239
 31
0.0
 11
65.898577
 21
269.134543
 31
0.0
 11
65.417619
 21
270.158422
 31
0.0
 11
65.163802
 21
270.598654
 31
0.0
  0
SPLINE
  5
2b4
100
AcDbEntity
  8
0
 62
5
100
AcDbSpline
 70
0
 71
3
 72
10
 73
6
 74
4
 40
0.000000
 40
0.000000
 40
0.000000
 40
0.000000
 40
0.383749
 40
1.264637
 40
2.310850
 40
2.310850
 40
2.310850
 40
2.310850
 10
48.674435
 20
299.545365
 30
0.0
 10
48.794845
 20
299.587962
 30
0.0
 10
49.191655
 20
299.728338
 30
0.0
 10
49.962012
 20
299.889242
 30
0.0
 10
50.597304
 20
299.754587
 30
0.0
 10
50.942200
 20
299.681484
 30
0.0
 11
48.674435
 21
299.545365
 31
0.0
 11
49.037947
 21
299.668337
 31
0.0
 11
49.905408
 21
299.821558
 31
0.0
 11
50.942200
 21
299.681484
 31
0.0
  0
SPLINE
  5
2b5
100
AcDbEntity
  8
0
 62
5
100
AcDbSpline
 70
0
 71
3
 72
10
 73
6
 74
4
 40
0.000000
 40
0.000000
 40
0.000000
 40
0.000000
 40
1.754125
 40
3.597979
 40
5.352103
 40
5.352103
 40
5.352103
 40
5.352103
 10
50.942200
 20
299.681484
 30
0.0
 10
51.437919
 20
299.362052
 30
0.0
 10
52.454715
 20
298.706848
 30
0.0
 10
53.394402
 20
297.079264
 30
0.0
 10
53.453427
 20
295.871091
 30
0.0
 10
53.482203
 20
295.282070
 30
0.0
 11
50.942200
 21
299.681484
 31
0.0
 11
52.337828
 21
298.618856
 31
0.0
 11
53.259755
 21
297.022032
 31
0.0
 11
53.482203
 21
295.282070
 31
0.0
  0
LWPOLYLINE
  5
2b6
100
AcDbEntity
  8
0
 62
5
100
AcDbPolyline
 90
4
 70
0
 10
45.925805
 20
303.628799
 30
0.0
 10
48.889141
 20
298.496149
 30
0.0
 10
49.182435
 20
298.665483
 30
0.0
 10
48.674435
 20
299.545365
 30
0.0
  0
LWPOLYLINE
  5
2b7
100
AcDbEntity
  8
0
 62
5
100
AcDbPolyline
 90
4
 70
0
 10
52.230441
 20
293.386186
 30
0.0
 10
51.722438
 20
294.266069
 30
0.0
 10
51.429144
 20
294.096735
 30
0.0
 10
54.392480
 20
288.964085
 30
0.0
  0
LWPOLYLINE
  5
2b8
100
AcDbEntity
  8
0
 62
1
100
AcDbPolyline
 90
2
 70
0
 10
49.481808
 20
297.469619
 30
0.0
 10
50.836477
 20
295.123265
 30
0.0
  0
LWPOLYLINE
  5
2b9
100
AcDbEntity
  8
0
 62
5
100
AcDbPolyline
 90
4
 70
0
 10
31.261002
 20
295.162070
 30
0.0
 10
32.585282
 20
299.641717
 30
0.0
 10
41.384138
 20
304.721740
 30
0.0
 10
45.925765
 20
303.628776
 30
0.0
  0
LWPOLYLINE
  5
2ba
100
AcDbEntity
  8
0
 62
5
100
AcDbPolyline
 90
4
 70
0
 10
35.621138
 20
297.092805
 30
0.0
 10
35.784392
 20
298.164711
 30
0.0
 10
41.063709
 20
301.212725
 30
0.0
 10
42.073632
 20
300.818155
 30
0.0
  0
LWPOLYLINE
  5
2bb
100
AcDbEntity
  8
0
 62
1
100
AcDbPolyline
 90
2
 70
0
 10
31.261002
 20
295.162070
 30
0.0
 10
35.367135
 20
297.532748
 30
0.0
  0
LWPOLYLINE
  5
2bc
100
AcDbEntity
  8
0
 62
1
100
AcDbPolyline
 90
2
 70
0
 10
45.925765
 20
303.628776
 30
0.0
 10
41.819632
 20
301.258098
 30
0.0
  0
SPLINE
  5
2bd
100
AcDbEntity
  8
0
 62
5
100
AcDbSpline
 70
0
 71
3
 72
10
 73
6
 74
4
 40
0.000000
 40
0.000000
 40
0.000000
 40
0.000000
 40
1.046213
 40
1.927100
 40
2.310849
 40
2.310849
 40
2.310849
 40
2.310849
 10
53.482203
 20
295.282070
 30
0.0
 10
53.373064
 20
294.946829
 30
0.0
 10
53.172033
 20
294.329323
 30
0.0
 10
52.647509
 20
293.742625
 30
0.0
 10
52.327535
 20
293.469166
 30
0.0
 10
52.230441
 20
293.386186
 30
0.0
 11
53.482203
 21
295.282070
 31
0.0
 11
53.085115
 21
294.314143
 31
0.0
 11
52.518693
 21
293.639511
 31
0.0
 11
52.230441
 21
293.386186
 31
0.0
  0
SPLINE
  5
2be
100
AcDbEntity
  8
0
 62
5
100
AcDbSpline
 70
0
 71
3
 72
10
 73
6
 74
4
 40
0.000000
 40
0.000000
 40
0.000000
 40
0.000000
 40
0.383749
 40
1.264637
 40
2.310850
 40
2.310850
 40
2.310850
 40
2.310850
 10
24.956373
 20
284.919448
 30
0.0
 10
24.859279
 20
285.002429
 30
0.0
 10
24.539305
 20
285.275888
 30
0.0
 10
24.014779
 20
285.862585
 30
0.0
 10
23.813748
 20
286.480091
 30
0.0
 10
23.704608
 20
286.815332
 30
0.0
 11
24.956373
 21
284.919448
 31
0.0
 11
24.668121
 21
285.172773
 31
0.0
 11
24.101698
 21
285.847406
 31
0.0
 11
23.704608
 21
286.815332
 31
0.0
  0
SPLINE
  5
2bf
100
AcDbEntity
  8
0
 62
5
100
AcDbSpline
 70
0
 71
3
 72
10
 73
6
 74
4
 40
0.000000
 40
0.000000
 40
0.000000
 40
0.000000
 40
1.754124
 40
3.597978
 40
5.352102
 40
5.352102
 40
5.352102
 40
5.352102
 10
23.704608
 20
286.815332
 30
0.0
 10
23.733385
 20
287.404353
 30
0.0
 10
23.792411
 20
288.612526
 30
0.0
 10
24.732097
 20
290.240110
 30
0.0
 10
25.748893
 20
290.895314
 30
0.0
 10
26.244611
 20
291.214746
 30
0.0
 11
23.704608
 21
286.815332
 31
0.0
 11
23.927058
 21
288.555294
 31
0.0
 11
24.848985
 21
290.152119
 31
0.0
 11
26.244611
 21
291.214746
 31
0.0
  0
LWPOLYLINE
  5
2c0
100
AcDbEntity
  8
0
 62
5
100
AcDbPolyline
 90
4
 70
0
 10
22.794332
 20
280.497348
 30
0.0
 10
25.757668
 20
285.629998
 30
0.0
 10
25.464374
 20
285.799331
 30
0.0
 10
24.956373
 20
284.919448
 30
0.0
  0
LWPOLYLINE
  5
2c1
100
AcDbEntity
  8
0
 62
5
100
AcDbPolyline
 90
4
 70
0
 10
28.512378
 20
291.078628
 30
0.0
 10
28.004377
 20
290.198745
 30
0.0
 10
28.297672
 20
290.029412
 30
0.0
 10
31.261008
 20
295.162061
 30
0.0
  0
LWPOLYLINE
  5
2c2
100
AcDbEntity
  8
0
 62
1
100
AcDbPolyline
 90
2
 70
0
 10
26.350336
 20
286.656528
 30
0.0
 10
27.705004
 20
289.002882
 30
0.0
  0
LWPOLYLINE
  5
2c3
100
AcDbEntity
  8
0
 62
5
100
AcDbPolyline
 90
4
 70
0
 10
22.794292
 20
263.563940
 30
0.0
 10
19.576940
 20
266.950626
 30
0.0
 10
19.576940
 20
277.110685
 30
0.0
 10
22.794292
 20
280.497371
 30
0.0
  0
LWPOLYLINE
  5
2c4
100
AcDbEntity
  8
0
 62
5
100
AcDbPolyline
 90
4
 70
0
 10
23.302295
 20
268.305301
 30
0.0
 10
22.455623
 20
268.982638
 30
0.0
 10
22.455623
 20
275.078673
 30
0.0
 10
23.302295
 20
275.756010
 30
0.0
  0
LWPOLYLINE
  5
2c5
100
AcDbEntity
  8
0
 62
1
100
AcDbPolyline
 90
2
 70
0
 10
22.794292
 20
263.563940
 30
0.0
 10
22.794292
 20
268.305301
 30
0.0
  0
LWPOLYLINE
  5
2c6
100
AcDbEntity
  8
0
 62
1
100
AcDbPolyline
 90
2
 70
0
 10
22.794292
 20
280.497371
 30
0.0
 10
22.794292
 20
275.756010
 30
0.0
  0
SPLINE
  5
2c7
100
AcDbEntity
  8
0
 62
5
100
AcDbSpline
 70
0
 71
3
 72
10
 73
6
 74
4
 40
0.000000
 40
0.000000
 40
0.000000
 40
0.000000
 40
1.046213
 40
1.927101
 40
2.310850
 40
2.310850
 40
2.310850
 40
2.310850
 10
26.244611
 20
291.214746
 30
0.0
 10
26.589508
 20
291.287850
 30
0.0
 10
27.224800
 20
291.422504
 30
0.0
 10
27.995158
 20
291.261600
 30
0.0
 10
28.391967
 20
291.121225
 30
0.0
 10
28.512378
 20
291.078628
 30
0.0
 11
26.244611
 21
291.214746
 31
0.0
 11
27.281405
 21
291.354820
 31
0.0
 11
28.148866
 21
291.201600
 31
0.0
 11
28.512378
 21
291.078628
 31
0.0
  0
SPLINE
  5
2c8
100
AcDbEntity
  8
0
 62
5
100
AcDbSpline
 70
0
 71
3
 72
10
 73
6
 74
4
 40
0.000000
 40
0.000000
 40
0.000000
 40
0.000000
 40
0.383752
 40
1.264647
 40
2.310869
 40
2.310869
 40
2.310869
 40
2.310869
 10
28.512386
 20
252.982568
 30
0.0
 10
28.391975
 20
252.939971
 30
0.0
 10
27.995162
 20
252.799594
 30
0.0
 10
27.224798
 20
252.638689
 30
0.0
 10
26.589501
 20
252.773345
 30
0.0
 10
26.244601
 20
252.846449
 30
0.0
 11
28.512386
 21
252.982568
 31
0.0
 11
28.148871
 21
252.859595
 31
0.0
 11
27.281404
 21
252.706374
 31
0.0
 11
26.244601
 21
252.846449
 31
0.0
  0
SPLINE
  5
2c9
100
AcDbEntity
  8
0
 62
5
100
AcDbSpline
 70
0
 71
3
 72
10
 73
6
 74
4
 40
0.000000
 40
0.000000
 40
0.000000
 40
0.000000
 40
1.754140
 40
3.598009
 40
5.352148
 40
5.352148
 40
5.352148
 40
5.352148
 10
26.244601
 20
252.846449
 30
0.0
 10
25.748878
 20
253.165884
 30
0.0
 10
24.732075
 20
253.821094
 30
0.0
 10
23.792380
 20
255.448692
 30
0.0
 10
23.733354
 20
256.656875
 30
0.0
 10
23.704577
 20
257.245901
 30
0.0
 11
26.244601
 21
252.846449
 31
0.0
 11
24.848963
 21
253.909087
 31
0.0
 11
23.927028
 21
255.505925
 31
0.0
 11
23.704577
 21
257.245901
 31
0.0
  0
LWPOLYLINE
  5
2ca
100
AcDbEntity
  8
0
 62
5
100
AcDbPolyline
 90
4
 70
0
 10
31.261042
 20
248.899100
 30
0.0
 10
28.297680
 20
254.031794
 30
0.0
 10
28.004382
 20
253.862460
 30
0.0
 10
28.512386
 20
252.982568
 30
0.0
  0
LWPOLYLINE
  5
2cb
100
AcDbEntity
  8
0
 62
5
100
AcDbPolyline
 90
4
 70
0
 10
24.956353
 20
259.141802
 30
0.0
 10
25.464357
 20
258.261912
 30
0.0
 10
25.757654
 20
258.431246
 30
0.0
 10
22.794292
 20
263.563940
 30
0.0
  0
LWPOLYLINE
  5
2cc
100
AcDbEntity
  8
0
 62
1
100
AcDbPolyline
 90
2
 70
0
 10
27.705007
 20
255.058332
 30
0.0
 10
26.350327
 20
257.404708
 30
0.0
  0
LWPOLYLINE
  5
2cd
100
AcDbEntity
  8
0
 62
5
100
AcDbPolyline
 90
7
 70
0
 10
31.261008
 20
248.899080
 30
0.0
 10
30.707632
 20
247.263269
 30
0.0
 10
32.258776
 20
246.563245
 30
0.0
 10
33.438036
 20
247.251111
 30
0.0
 10
33.144739
 20
247.420445
 30
0.0
 10
33.314073
 20
247.713741
 30
0.0
 10
45.925771
 20
240.432374
 30
0.0
  0
LWPOLYLINE
  5
2ce
100
AcDbEntity
  8
0
 62
1
100
AcDbPolyline
 90
2
 70
0
 10
31.847598
 20
248.560411
 30
0.0
 10
32.727482
 20
248.052408
 30
0.0
  0
LWPOLYLINE
  5
2cf
100
AcDbEntity
  8
0
 62
5
100
AcDbPolyline
 90
8
 70
0
 10
45.925765
 20
240.432363
 30
0.0
 10
34.652514
 20
244.095263
 30
0.0
 10
34.696713
 20
245.327242
 30
0.0
 10
33.138576
 20
246.011560
 30
0.0
 10
32.019381
 20
245.306919
 30
0.0
 10
32.341473
 20
245.202263
 30
0.0
 10
32.236819
 20
244.880171
 30
0.0
 10
29.821124
 20
245.665079
 30
0.0
  0
LWPOLYLINE
  5
2d0
100
AcDbEntity
  8
0
 62
1
100
AcDbPolyline
 90
2
 70
0
 10
34.008331
 20
244.304573
 30
0.0
 10
32.881006
 20
244.670864
 30
0.0
  0
LWPOLYLINE
  5
2d1
100
AcDbEntity
  8
0
 62
5
100
AcDbPolyline
 90
4
 70
0
 10
19.867897
 20
231.965668
 30
0.0
 10
19.255647
 20
236.596678
 30
0.0
 10
25.227594
 20
244.816358
 30
0.0
 10
29.821141
 20
245.665132
 30
0.0
  0
LWPOLYLINE
  5
2d2
100
AcDbEntity
  8
0
 62
5
100
AcDbPolyline
 90
4
 70
0
 10
23.065789
 20
235.502920
 30
0.0
 10
22.778946
 20
236.548562
 30
0.0
 10
26.362114
 20
241.480370
 30
0.0
 10
27.445216
 20
241.530684
 30
0.0
  0
LWPOLYLINE
  5
2d3
100
AcDbEntity
  8
0
 62
1
100
AcDbPolyline
 90
2
 70
0
 10
19.867897
 20
231.965668
 30
0.0
 10
22.654805
 20
235.801519
 30
0.0
  0
LWPOLYLINE
  5
2d4
100
AcDbEntity
  8
0
 62
1
100
AcDbPolyline
 90
2
 70
0
 10
29.821141
 20
245.665132
 30
0.0
 10
27.034233
 20
241.829284
 30
0.0
  0
LWPOLYLINE
  5
2d5
100
AcDbEntity
  8
0
 62
1
100
AcDbPolyline
 90
2
 70
0
 10
22.794286
 20
280.497328
 30
0.0
 10
39.727903
 20
280.497328
 30
0.0
  0
LWPOLYLINE
  5
2d6
100
AcDbEntity
  8
0
 62
1
100
AcDbPolyline
 90
2
 70
0
 10
22.794286
 20
263.563996
 30
0.0
 10
39.727903
 20
263.563996
 30
0.0
  0
LWPOLYLINE
  5
2d7
100
AcDbEntity
  8
0
 62
1
100
AcDbPolyline
 90
2
 70
0
 10
31.260954
 20
295.162159
 30
0.0
 10
39.727903
 20
280.497328
 30
0.0
  0
LWPOLYLINE
  5
2d8
100
AcDbEntity
  8
0
 62
1
100
AcDbPolyline
 90
2
 70
0
 10
31.260954
 20
248.899165
 30
0.0
 10
39.727903
 20
263.563996
 30
0.0
  0
LWPOLYLINE
  5
2d9
100
AcDbEntity
  8
0
 62
1
100
AcDbPolyline
 90
2
 70
0
 10
39.727903
 20
280.497328
 30
0.0
 10
39.727903
 20
263.563996
 30
0.0
  0
LWPOLYLINE
  5
2da
100
AcDbEntity
  8
0
 62
1
100
AcDbPolyline
 90
2
 70
0
 10
45.925785
 20
240.432498
 30
0.0
 10
45.925785
 20
223.498883
 30
0.0
  0
LWPOLYLINE
  5
2db
100
AcDbEntity
  8
0
 62
1
100
AcDbPolyline
 90
2
 70
0
 10
45.925785
 20
240.432498
 30
0.0
 10
54.392452
 20
255.097329
 30
0.0
  0
LWPOLYLINE
  5
2dc
100
AcDbEntity
  8
0
 62
1
100
AcDbPolyline
 90
2
 70
0
 10
45.925785
 20
240.432498
 30
0.0
 10
62.859118
 20
240.432498
 30
0.0
  0
LWPOLYLINE
  5
2dd
100
AcDbEntity
  8
0
 62
1
100
AcDbPolyline
 90
2
 70
0
 10
45.925785
 20
223.498883
 30
0.0
 10
54.392452
 20
208.834334
 30
0.0
  0
LWPOLYLINE
  5
2de
100
AcDbEntity
  8
0
 62
1
100
AcDbPolyline
 90
2
 70
0
 10
45.925785
 20
223.498883
 30
0.0
 10
62.859118
 20
223.498883
 30
0.0
  0
LWPOLYLINE
  5
2df
100
AcDbEntity
  8
0
 62
1
100
AcDbPolyline
 90
2
 70
0
 10
54.392452
 20
255.097329
 30
0.0
 10
62.859118
 20
240.432498
 30
0.0
  0
LWPOLYLINE
  5
2e0
100
AcDbEntity
  8
0
 62
1
100
AcDbPolyline
 90
2
 70
0
 10
69.057283
 20
280.497328
 30
0.0
 10
85.990898
 20
280.497328
 30
0.0
  0
LWPOLYLINE
  5
2e1
100
AcDbEntity
  8
0
 62
1
100
AcDbPolyline
 90
2
 70
0
 10
69.057283
 20
263.563996
 30
0.0
 10
77.523950
 20
248.899165
 30
0.0
  0
LWPOLYLINE
  5
2e2
100
AcDbEntity
  8
0
 62
1
100
AcDbPolyline
 90
2
 70
0
 10
69.057283
 20
263.563996
 30
0.0
 10
85.990898
 20
263.563996
 30
0.0
  0
LWPOLYLINE
  5
2e3
100
AcDbEntity
  8
0
 62
1
100
AcDbPolyline
 90
2
 70
0
 10
77.523950
 20
295.162159
 30
0.0
 10
85.990898
 20
280.497328
 30
0.0
  0
LWPOLYLINE
  5
2e4
100
AcDbEntity
  8
0
 62
1
100
AcDbPolyline
 90
2
 70
0
 10
77.523950
 20
248.899165
 30
0.0
 10
85.990898
 20
263.563996
 30
0.0
  0
LWPOLYLINE
  5
2e5
100
AcDbEntity
  8
0
 62
1
100
AcDbPolyline
 90
2
 70
0
 10
85.990898
 20
280.497328
 30
0.0
 10
85.990898
 20
263.563996
 30
0.0
  0
LWPOLYLINE
  5
2e6
100
AcDbEntity
  8
0
 62
1
100
AcDbPolyline
 90
2
 70
0
 10
85.990898
 20
200.367385
 30
0.0
 10
100.655447
 20
208.834334
 30
0.0
  0
LWPOLYLINE
  5
2e7
100
AcDbEntity
  8
0
 62
1
100
AcDbPolyline
 90
2
 70
0
 10
92.188781
 20
240.432498
 30
0.0
 10
92.188781
 20
223.498883
 30
0.0
  0
LWPOLYLINE
  5
2e8
100
AcDbEntity
  8
0
 62
1
100
AcDbPolyline
 90
2
 70
0
 10
92.188781
 20
240.432498
 30
0.0
 10
100.655447
 20
255.097329
 30
0.0
  0
LWPOLYLINE
  5
2e9
100
AcDbEntity
  8
0
 62
1
100
AcDbPolyline
 90
2
 70
0
 10
92.188781
 20
240.432498
 30
0.0
 10
109.122114
 20
240.432498
 30
0.0
  0
LWPOLYLINE
  5
2ea
100
AcDbEntity
  8
0
 62
1
100
AcDbPolyline
 90
2
 70
0
 10
92.188781
 20
223.498883
 30
0.0
 10
100.655447
 20
208.834334
 30
0.0
  0
LWPOLYLINE
  5
2eb
100
AcDbEntity
  8
0
 62
1
100
AcDbPolyline
 90
2
 70
0
 10
92.188781
 20
223.498883
 30
0.0
 10
109.122114
 20
223.498883
 30
0.0
  0
LWPOLYLINE
  5
2ec
100
AcDbEntity
  8
0
 62
1
100
AcDbPolyline
 90
2
 70
0
 10
100.655447
 20
255.097329
 30
0.0
 10
109.122114
 20
240.432498
 30
0.0
  0
LWPOLYLINE
  5
2ed
100
AcDbEntity
  8
0
 62
1
100
AcDbPolyline
 90
2
 70
0
 10
115.320278
 20
280.497328
 30
0.0
 10
132.253894
 20
280.497328
 30
0.0
  0
LWPOLYLINE
  5
2ee
100
AcDbEntity
  8
0
 62
1
100
AcDbPolyline
 90
2
 70
0
 10
115.320278
 20
263.563996
 30
0.0
 10
123.786945
 20
248.899165
 30
0.0
  0
LWPOLYLINE
  5
2ef
100
AcDbEntity
  8
0
 62
1
100
AcDbPolyline
 90
2
 70
0
 10
115.320278
 20
263.563996
 30
0.0
 10
132.253894
 20
263.563996
 30
0.0
  0
LWPOLYLINE
  5
2f0
100
AcDbEntity
  8
0
 62
1
100
AcDbPolyline
 90
2
 70
0
 10
123.786945
 20
295.162159
 30
0.0
 10
132.253894
 20
280.497328
 30
0.0
  0
LWPOLYLINE
  5
2f1
100
AcDbEntity
  8
0
 62
1
100
AcDbPolyline
 90
2
 70
0
 10
123.786945
 20
248.899165
 30
0.0
 10
132.253894
 20
263.563996
 30
0.0
  0
LWPOLYLINE
  5
2f2
100
AcDbEntity
  8
0
 62
1
100
AcDbPolyline
 90
2
 70
0
 10
132.253894
 20
280.497328
 30
0.0
 10
132.253894
 20
263.563996
 30
0.0
  0
LWPOLYLINE
  5
2f3
100
AcDbEntity
  8
0
 62
1
100
AcDbPolyline
 90
2
 70
0
 10
138.451776
 20
240.432498
 30
0.0
 10
138.451776
 20
223.498883
 30
0.0
  0
LWPOLYLINE
  5
2f4
100
AcDbEntity
  8
0
 62
1
100
AcDbPolyline
 90
2
 70
0
 10
138.451776
 20
240.432498
 30
0.0
 10
146.918443
 20
255.097329
 30
0.0
  0
LWPOLYLINE
  5
2f5
100
AcDbEntity
  8
0
 62
1
100
AcDbPolyline
 90
2
 70
0
 10
138.451776
 20
240.432498
 30
0.0
 10
155.385110
 20
240.432498
 30
0.0
  0
LWPOLYLINE
  5
2f6
100
AcDbEntity
  8
0
 62
1
100
AcDbPolyline
 90
2
 70
0
 10
138.451776
 20
223.498883
 30
0.0
 10
146.918443
 20
208.834334
 30
0.0
  0
LWPOLYLINE
  5
2f7
100
AcDbEntity
  8
0
 62
1
100
AcDbPolyline
 90
2
 70
0
 10
138.451776
 20
223.498883
 30
0.0
 10
155.385110
 20
223.498883
 30
0.0
  0
LWPOLYLINE
  5
2f8
100
AcDbEntity
  8
0
 62
1
100
AcDbPolyline
 90
2
 70
0
 10
146.918443
 20
255.097329
 30
0.0
 10
155.385110
 20
240.432498
 30
0.0
  0
LWPOLYLINE
  5
2f9
100
AcDbEntity
  8
0
 62
1
100
AcDbPolyline
 90
2
 70
0
 10
161.583274
 20
280.497328
 30
0.0
 10
178.516607
 20
280.497328
 30
0.0
  0
LWPOLYLINE
  5
2fa
100
AcDbEntity
  8
0
 62
1
100
AcDbPolyline
 90
2
 70
0
 10
161.583274
 20
263.563996
 30
0.0
 10
170.049941
 20
248.899165
 30
0.0
  0
LWPOLYLINE
  5
2fb
100
AcDbEntity
  8
0
 62
1
100
AcDbPolyline
 90
2
 70
0
 10
161.583274
 20
263.563996
 30
0.0
 10
178.516607
 20
263.563996
 30
0.0
  0
LWPOLYLINE
  5
2fc
100
AcDbEntity
  8
0
 62
1
100
AcDbPolyline
 90
2
 70
0
 10
170.049941
 20
295.162159
 30
0.0
 10
178.516607
 20
280.497328
 30
0.0
  0
LWPOLYLINE
  5
2fd
100
AcDbEntity
  8
0
 62
1
100
AcDbPolyline
 90
2
 70
0
 10
170.049941
 20
248.899165
 30
0.0
 10
178.516607
 20
263.563996
 30
0.0
  0
LWPOLYLINE
  5
2fe
100
AcDbEntity
  8
0
 62
1
100
AcDbPolyline
 90
2
 70
0
 10
178.516607
 20
280.497328
 30
0.0
 10
178.516607
 20
263.563996
 30
0.0
  0
LWPOLYLINE
  5
2ff
100
AcDbEntity
  8
0
 62
1
100
AcDbPolyline
 90
2
 70
0
 10
184.714772
 20
240.432498
 30
0.0
 10
184.714772
 20
223.498883
 30
0.0
  0
LWPOLYLINE
  5
300
100
AcDbEntity
  8
0
 62
1
100
AcDbPolyline
 90
2
 70
0
 10
184.714772
 20
240.432498
 30
0.0
 10
193.181721
 20
255.097329
 30
0.0
  0
LWPOLYLINE
  5
301
100
AcDbEntity
  8
0
 62
1
100
AcDbPolyline
 90
2
 70
0
 10
184.714772
 20
240.432498
 30
0.0
 10
201.648387
 20
240.432498
 30
0.0
  0
LWPOLYLINE
  5
302
100
AcDbEntity
  8
0
 62
1
100
AcDbPolyline
 90
2
 70
0
 10
184.714772
 20
223.498883
 30
0.0
 10
193.181721
 20
208.834334
 30
0.0
  0
LWPOLYLINE
  5
303
100
AcDbEntity
  8
0
 62
1
100
AcDbPolyline
 90
2
 70
0
 10
184.714772
 20
223.498883
 30
0.0
 10
201.648387
 20
223.498883
 30
0.0
  0
LWPOLYLINE
  5
304
100
AcDbEntity
  8
0
 62
1
100
AcDbPolyline
 90
2
 70
0
 10
193.181721
 20
255.097329
 30
0.0
 10
201.648387
 20
240.432498
 30
0.0
  0
LWPOLYLINE
  5
305
100
AcDbEntity
  8
0
 62
1
100
AcDbPolyline
 90
2
 70
0
 10
207.845987
 20
280.497328
 30
0.0
 10
224.779321
 20
280.497328
 30
0.0
  0
LWPOLYLINE
  5
306
100
AcDbEntity
  8
0
 62
1
100
AcDbPolyline
 90
2
 70
0
 10
207.845987
 20
263.563996
 30
0.0
 10
216.312654
 20
248.899165
 30
0.0
  0
LWPOLYLINE
  5
307
100
AcDbEntity
  8
0
 62
1
100
AcDbPolyline
 90
2
 70
0
 10
207.845987
 20
263.563996
 30
0.0
 10
224.779321
 20
263.563996
 30
0.0
  0
LWPOLYLINE
  5
308
100
AcDbEntity
  8
0
 62
1
100
AcDbPolyline
 90
2
 70
0
 10
216.312654
 20
295.162159
 30
0.0
 10
224.779321
 20
280.497328
 30
0.0
  0
LWPOLYLINE
  5
309
100
AcDbEntity
  8
0
 62
1
100
AcDbPolyline
 90
2
 70
0
 10
216.312654
 20
295.162159
 30
0.0
 10
230.976921
 20
303.628826
 30
0.0
  0
LWPOLYLINE
  5
30a
100
AcDbEntity
  8
0
 62
1
100
AcDbPolyline
 90
2
 70
0
 10
216.312654
 20
248.899165
 30
0.0
 10
224.779321
 20
263.563996
 30
0.0
  0
LWPOLYLINE
  5
30b
100
AcDbEntity
  8
0
 62
1
100
AcDbPolyline
 90
2
 70
0
 10
224.779321
 20
280.497328
 30
0.0
 10
224.779321
 20
263.563996
 30
0.0
  0
LWPOLYLINE
  5
30c
100
AcDbEntity
  8
0
 62
1
100
AcDbPolyline
 90
2
 70
0
 10
230.976921
 20
240.432498
 30
0.0
 10
230.976921
 20
223.498883
 30
0.0
  0
LWPOLYLINE
  5
30d
100
AcDbEntity
  8
0
 62
1
100
AcDbPolyline
 90
2
 70
0
 10
230.976921
 20
240.432498
 30
0.0
 10
239.443870
 20
255.097329
 30
0.0
  0
LWPOLYLINE
  5
30e
100
AcDbEntity
  8
0
 62
1
100
AcDbPolyline
 90
2
 70
0
 10
230.976921
 20
240.432498
 30
0.0
 10
247.910536
 20
240.432498
 30
0.0
  0
LWPOLYLINE
  5
30f
100
AcDbEntity
  8
0
 62
1
100
AcDbPolyline
 90
2
 70
0
 10
230.976921
 20
223.498883
 30
0.0
 10
239.443870
 20
208.834334
 30
0.0
  0
LWPOLYLINE
  5
310
100
AcDbEntity
  8
0
 62
1
100
AcDbPolyline
 90
2
 70
0
 10
230.976921
 20
223.498883
 30
0.0
 10
247.910536
 20
223.498883
 30
0.0
  0
SPLINE
  5
311
100
AcDbEntity
  8
0
 62
5
100
AcDbSpline
 70
0
 71
3
 72
10
 73
6
 74
4
 40
0.000000
 40
0.000000
 40
0.000000
 40
0.000000
 40
1.046222
 40
1.927118
 40
2.310871
 40
2.310871
 40
2.310871
 40
2.310871
 10
23.704577
 20
257.245901
 30
0.0
 10
23.813717
 20
257.581145
 30
0.0
 10
24.014750
 20
258.198657
 30
0.0
 10
24.539280
 20
258.785359
 30
0.0
 10
24.859257
 20
259.058821
 30
0.0
 10
24.956353
 20
259.141802
 30
0.0
 11
23.704577
 21
257.245901
 31
0.0
 11
24.101669
 21
258.213836
 31
0.0
 11
24.668097
 21
258.888475
 31
0.0
 11
24.956353
 21
259.141802
 31
0.0
  0
LWPOLYLINE
  5
312
100
AcDbEntity
  8
0
 62
1
100
AcDbPolyline
 90
2
 70
0
 10
239.443870
 20
255.097329
 30
0.0
 10
247.910536
 20
240.432498
 30
0.0
  0
ENDSEC
  0
SECTION
  2
OBJECTS
  0
DICTIONARY
  5
C
330
0
100
AcDbDictionary
  3
ACAD_GROUP
350
D
  3
ACAD_MLINESTYLE
350
17
  0
DICTIONARY
  5
D
330
C
100
AcDbDictionary
  0
DICTIONARY
  5
1A
330
C
100
AcDbDictionary
  0
DICTIONARY
  5
17
330
C
100
AcDbDictionary
  3
STANDARD
350
18
  0
DICTIONARY
  5
19
330
C
100
AcDbDictionary
  0
ENDSEC
  0
EOF
