999
DXF created by Inkscape
  0
SECTION
  2
HEADER
  9
$ACADVER
  1
AC1014
  9
$HANDSEED
  5
FFFF
  9
$MEASUREMENT
 70
     1
  0
ENDSEC
  0
SECTION
  2
TABLES
  0
TABLE
  2
VPORT
  5
8
330
0
100
AcDbSymbolTable
 70
     4
  0
VPORT
  5
2E
330
8
100
AcDbSymbolTableRecord
100
AcDbViewportTableRecord
  2
*ACTIVE
 70
     0
 10
0.0
 20
0.0
 11
1.0
 21
1.0
 12
210.0
 22
148.5
 13
0.0
 23
0.0
 14
10.0
 24
10.0
 15
10.0
 25
10.0
 16
0.0
 26
0.0
 36
1.0
 17
0.0
 27
0.0
 37
0.0
 40
341.0
 41
1.24
 42
50.0
 43
0.0
 44
0.0
 50
0.0
 51
0.0
 71
     0
 72
   100
 73
     1
 74
     3
 75
     0
 76
     0
 77
     0
 78
     0
  0
ENDTAB
  0
TABLE
  2
LTYPE
  5
5
330
0
100
AcDbSymbolTable
 70
     1
  0
LTYPE
  5
14
330
5
100
AcDbSymbolTableRecord
100
AcDbLinetypeTableRecord
  2
BYBLOCK
 70
     0
  3

 72
    65
 73
     0
 40
0.0
  0
LTYPE
  5
15
330
5
100
AcDbSymbolTableRecord
100
AcDbLinetypeTableRecord
  2
BYLAYER
 70
     0
  3

 72
    65
 73
     0
 40
0.0
  0
LTYPE
  5
16
330
5
100
AcDbSymbolTableRecord
100
AcDbLinetypeTableRecord
  2
CONTINUOUS
 70
     0
  3
Solid line
 72
    65
 73
     0
 40
0.0
  0
ENDTAB
  0
TABLE
  2
LAYER
  5
2
330
0
100
AcDbSymbolTable
 70
1
  0
LAYER
  5
10
330
2
100
AcDbSymbolTableRecord
100
AcDbLayerTableRecord
  2
0
 70
     0
 62
     7
  6
CONTINUOUS
  0
ENDTAB
  0
TABLE
  2
STYLE
  5
3
330
0
100
AcDbSymbolTable
 70
     1
  0
STYLE
  5
11
330
3
100
AcDbSymbolTableRecord
100
AcDbTextStyleTableRecord
  2
STANDARD
 70
     0
 40
0.0
 41
1.0
 50
0.0
 71
     0
 42
2.5
  3
txt
  4

  0
ENDTAB
  0
TABLE
  2
VIEW
  5
6
330
0
100
AcDbSymbolTable
 70
     0
  0
ENDTAB
  0
TABLE
  2
UCS
  5
7
330
0
100
AcDbSymbolTable
 70
     0
  0
ENDTAB
  0
TABLE
  2
APPID
  5
9
330
0
100
AcDbSymbolTable
 70
     2
  0
APPID
  5
12
330
9
100
AcDbSymbolTableRecord
100
AcDbRegAppTableRecord
  2
ACAD
 70
     0
  0
ENDTAB
  0
TABLE
  2
DIMSTYLE
  5
A
330
0
100
AcDbSymbolTable
 70
     1
  0
DIMSTYLE
105
27
330
A
100
AcDbSymbolTableRecord
100
AcDbDimStyleTableRecord
  2
ISO-25
 70
     0
  3

  4

  5

  6

  7

 40
1.0
 41
2.5
 42
0.625
 43
3.75
 44
1.25
 45
0.0
 46
0.0
 47
0.0
 48
0.0
140
2.5
141
2.5
142
0.0
143
0.03937007874016
144
1.0
145
0.0
146
1.0
147
0.625
 71
     0
 72
     0
 73
     0
 74
     0
 75
     0
 76
     0
 77
     1
 78
     8
170
     0
171
     3
172
     1
173
     0
174
     0
175
     0
176
     0
177
     0
178
     0
270
     2
271
     2
272
     2
273
     2
274
     3
340
11
275
     0
280
     0
281
     0
282
     0
283
     0
284
     8
285
     0
286
     0
287
     3
288
     0
  0
ENDTAB
  0
TABLE
  2
BLOCK_RECORD
  5
1
330
0
100
AcDbSymbolTable
 70
     1
  0
BLOCK_RECORD
  5
1F
330
1
100
AcDbSymbolTableRecord
100
AcDbBlockTableRecord
  2
*MODEL_SPACE
  0
BLOCK_RECORD
  5
1B
330
1
100
AcDbSymbolTableRecord
100
AcDbBlockTableRecord
  2
*PAPER_SPACE
  0
ENDTAB
  0
ENDSEC
  0
SECTION
  2
BLOCKS
  0
BLOCK
  5
20
330
1F
100
AcDbEntity
  8
0
100
AcDbBlockBegin
  2
*MODEL_SPACE
 70
     0
 10
0.0
 20
0.0
 30
0.0
  3
*MODEL_SPACE
  1

  0
ENDBLK
  5
21
330
1F
100
AcDbEntity
  8
0
100
AcDbBlockEnd
  0
BLOCK
  5
1C
330
1B
100
AcDbEntity
 67
     1
  8
0
100
AcDbBlockBegin
  2
*PAPER_SPACE
  1

  0
ENDBLK
  5
1D
330
1B
100
AcDbEntity
 67
     1
  8
0
100
AcDbBlockEnd
  0
ENDSEC
  0
SECTION
  2
ENTITIES
  0
SPLINE
  5
100
100
AcDbEntity
  8
0
 62
5
100
AcDbSpline
 70
0
 71
3
 72
10
 73
6
 74
4
 40
0.000000
 40
0.000000
 40
0.000000
 40
0.000000
 40
0.383749
 40
1.264636
 40
2.310847
 40
2.310847
 40
2.310847
 40
2.310847
 10
22.519292
 20
205.583151
 30
0.0
 10
22.417938
 20
205.505430
 30
0.0
 10
22.083928
 20
205.249304
 30
0.0
 10
21.400998
 20
204.858222
 30
0.0
 10
20.755189
 20
204.789971
 30
0.0
 10
20.404583
 20
204.752918
 30
0.0
 11
22.519292
 21
205.583151
 31
0.0
 11
22.211572
 21
205.353866
 31
0.0
 11
21.433917
 21
204.940085
 31
0.0
 11
20.404583
 21
204.752918
 31
0.0
  0
SPLINE
  5
101
100
AcDbEntity
  8
0
 62
5
100
AcDbSpline
 70
0
 71
3
 72
10
 73
6
 74
4
 40
0.000000
 40
0.000000
 40
0.000000
 40
0.000000
 40
1.754122
 40
3.597974
 40
5.352096
 40
5.352096
 40
5.352096
 40
5.352096
 10
20.404583
 20
204.752918
 30
0.0
 10
19.834417
 20
204.903530
 30
0.0
 10
18.664919
 20
205.212458
 30
0.0
 10
17.268275
 20
206.470002
 30
0.0
 10
16.838793
 20
207.600802
 30
0.0
 10
16.629407
 20
208.152101
 30
0.0
 11
20.404583
 21
204.752918
 31
0.0
 11
18.748895
 21
205.332263
 31
0.0
 11
17.378646
 21
206.566041
 31
0.0
 11
16.629407
 21
208.152101
 31
0.0
  0
LWPOLYLINE
  5
102
100
AcDbEntity
  8
0
 62
5
100
AcDbPolyline
 90
4
 70
0
 10
26.395241
 20
202.548951
 30
0.0
 10
21.990869
 20
206.514665
 30
0.0
 10
21.764257
 20
206.262987
 30
0.0
 10
22.519292
 20
205.583151
 30
0.0
  0
LWPOLYLINE
  5
103
100
AcDbEntity
  8
0
 62
5
100
AcDbPolyline
 90
4
 70
0
 10
17.234046
 20
210.342007
 30
0.0
 10
17.989081
 20
209.662171
 30
0.0
 10
18.215693
 20
209.913848
 30
0.0
 10
13.811321
 20
213.879564
 30
0.0
  0
LWPOLYLINE
  5
104
100
AcDbEntity
  8
0
 62
1
100
AcDbPolyline
 90
2
 70
0
 10
21.109994
 20
207.307808
 30
0.0
 10
19.096568
 20
209.120705
 30
0.0
  0
LWPOLYLINE
  5
105
100
AcDbEntity
  8
0
 62
5
100
AcDbPolyline
 90
4
 70
0
 10
41.059944
 20
194.082293
 30
0.0
 10
36.518339
 20
192.989334
 30
0.0
 10
27.719521
 20
198.069334
 30
0.0
 10
26.395248
 20
202.548960
 30
0.0
  0
LWPOLYLINE
  5
106
100
AcDbEntity
  8
0
 62
5
100
AcDbPolyline
 90
4
 70
0
 10
37.207828
 20
196.892902
 30
0.0
 10
36.197907
 20
196.498333
 30
0.0
 10
30.918618
 20
199.546333
 30
0.0
 10
30.755364
 20
200.618232
 30
0.0
  0
LWPOLYLINE
  5
107
100
AcDbEntity
  8
0
 62
1
100
AcDbPolyline
 90
2
 70
0
 10
41.059944
 20
194.082293
 30
0.0
 10
36.953828
 20
196.452960
 30
0.0
  0
LWPOLYLINE
  5
108
100
AcDbEntity
  8
0
 62
1
100
AcDbPolyline
 90
2
 70
0
 10
26.395248
 20
202.548960
 30
0.0
 10
30.501364
 20
200.178293
 30
0.0
  0
SPLINE
  5
109
100
AcDbEntity
  8
0
 62
5
100
AcDbSpline
 70
0
 71
3
 72
10
 73
6
 74
4
 40
0.000000
 40
0.000000
 40
0.000000
 40
0.000000
 40
1.046212
 40
1.927098
 40
2.310847
 40
2.310847
 40
2.310847
 40
2.310847
 10
16.629407
 20
208.152101
 30
0.0
 10
16.629610
 20
208.504660
 30
0.0
 10
16.629982
 20
209.154064
 30
0.0
 10
16.947536
 20
209.874133
 30
0.0
 10
17.167345
 20
210.233085
 30
0.0
 10
17.234046
 20
210.342007
 30
0.0
 11
16.629407
 21
208.152101
 31
0.0
 11
16.707956
 21
209.195360
 31
0.0
 11
17.038183
 21
210.012007
 31
0.0
 11
17.234046
 21
210.342007
 31
0.0
  0
SPLINE
  5
10a
100
AcDbEntity
  8
0
 62
5
100
AcDbSpline
 70
0
 71
3
 72
10
 73
6
 74
4
 40
0.000000
 40
0.000000
 40
0.000000
 40
0.000000
 40
0.383754
 40
1.264653
 40
2.310879
 40
2.310879
 40
2.310879
 40
2.310879
 10
51.302686
 20
187.777573
 30
0.0
 10
51.219705
 20
187.680477
 30
0.0
 10
50.946242
 20
187.360498
 30
0.0
 10
50.359538
 20
186.835966
 30
0.0
 10
49.742024
 20
186.634931
 30
0.0
 10
49.406779
 20
186.525790
 30
0.0
 11
51.302686
 21
187.777573
 31
0.0
 11
51.049358
 21
187.489316
 31
0.0
 11
50.374718
 21
186.922885
 31
0.0
 11
49.406779
 21
186.525790
 31
0.0
  0
SPLINE
  5
10b
100
AcDbEntity
  8
0
 62
5
100
AcDbSpline
 70
0
 71
3
 72
10
 73
6
 74
4
 40
0.000000
 40
0.000000
 40
0.000000
 40
0.000000
 40
1.754148
 40
3.598026
 40
5.352173
 40
5.352173
 40
5.352173
 40
5.352173
 10
49.406779
 20
186.525790
 30
0.0
 10
48.817750
 20
186.554568
 30
0.0
 10
47.609561
 20
186.613595
 30
0.0
 10
45.981955
 20
187.553293
 30
0.0
 10
45.326743
 20
188.570102
 30
0.0
 10
45.007307
 20
189.065827
 30
0.0
 11
49.406779
 21
186.525790
 31
0.0
 11
47.666793
 21
186.748243
 31
0.0
 11
46.069948
 21
187.670182
 31
0.0
 11
45.007307
 21
189.065827
 31
0.0
  0
LWPOLYLINE
  5
10c
100
AcDbEntity
  8
0
 62
5
100
AcDbPolyline
 90
4
 70
0
 10
55.724846
 20
185.615502
 30
0.0
 10
50.592129
 20
188.578878
 30
0.0
 10
50.422793
 20
188.285579
 30
0.0
 10
51.302686
 20
187.777573
 30
0.0
  0
LWPOLYLINE
  5
10d
100
AcDbEntity
  8
0
 62
5
100
AcDbPolyline
 90
4
 70
0
 10
45.143426
 20
191.333624
 30
0.0
 10
46.023321
 20
190.825615
 30
0.0
 10
46.192657
 20
191.118915
 30
0.0
 10
41.059938
 20
194.082290
 30
0.0
  0
LWPOLYLINE
  5
10e
100
AcDbEntity
  8
0
 62
1
100
AcDbPolyline
 90
2
 70
0
 10
49.565585
 20
189.171553
 30
0.0
 10
47.219201
 20
190.526240
 30
0.0
  0
LWPOLYLINE
  5
10f
100
AcDbEntity
  8
0
 62
5
100
AcDbPolyline
 90
4
 70
0
 10
55.724719
 20
185.615282
 30
0.0
 10
52.507385
 20
182.228616
 30
0.0
 10
52.507385
 20
172.068613
 30
0.0
 10
55.724719
 20
168.681943
 30
0.0
  0
LWPOLYLINE
  5
110
100
AcDbEntity
  8
0
 62
5
100
AcDbPolyline
 90
4
 70
0
 10
56.232719
 20
180.873949
 30
0.0
 10
55.386052
 20
180.196613
 30
0.0
 10
55.386052
 20
174.100613
 30
0.0
 10
56.232719
 20
173.423279
 30
0.0
  0
LWPOLYLINE
  5
111
100
AcDbEntity
  8
0
 62
1
100
AcDbPolyline
 90
2
 70
0
 10
55.724719
 20
185.615282
 30
0.0
 10
55.724719
 20
180.873949
 30
0.0
  0
LWPOLYLINE
  5
112
100
AcDbEntity
  8
0
 62
1
100
AcDbPolyline
 90
2
 70
0
 10
55.724719
 20
168.681943
 30
0.0
 10
55.724719
 20
173.423279
 30
0.0
  0
SPLINE
  5
113
100
AcDbEntity
  8
0
 62
5
100
AcDbSpline
 70
0
 71
3
 72
10
 73
6
 74
4
 40
0.000000
 40
0.000000
 40
0.000000
 40
0.000000
 40
1.046227
 40
1.927127
 40
2.310881
 40
2.310881
 40
2.310881
 40
2.310881
 10
45.007307
 20
189.065827
 30
0.0
 10
44.934202
 20
189.410728
 30
0.0
 10
44.799546
 20
190.046029
 30
0.0
 10
44.960451
 20
190.816397
 30
0.0
 10
45.100829
 20
191.213212
 30
0.0
 10
45.143426
 20
191.333624
 30
0.0
 11
45.007307
 21
189.065827
 31
0.0
 11
44.867230
 21
190.102634
 31
0.0
 11
45.020452
 21
190.970106
 31
0.0
 11
45.143426
 21
191.333624
 31
0.0
  0
SPLINE
  5
114
100
AcDbEntity
  8
0
 62
5
100
AcDbSpline
 70
0
 71
3
 72
10
 73
6
 74
4
 40
0.000000
 40
0.000000
 40
0.000000
 40
0.000000
 40
0.383747
 40
1.264630
 40
2.310838
 40
2.310838
 40
2.310838
 40
2.310838
 10
66.305941
 20
174.399957
 30
0.0
 10
66.348537
 20
174.279548
 30
0.0
 10
66.488913
 20
173.882740
 30
0.0
 10
66.649816
 20
173.112387
 30
0.0
 10
66.515162
 20
172.477098
 30
0.0
 10
66.442059
 20
172.132203
 30
0.0
 11
66.305941
 21
174.399957
 31
0.0
 11
66.428912
 21
174.036447
 31
0.0
 11
66.582132
 21
173.168992
 31
0.0
 11
66.442059
 21
172.132203
 31
0.0
  0
SPLINE
  5
115
100
AcDbEntity
  8
0
 62
5
100
AcDbSpline
 70
0
 71
3
 72
10
 73
6
 74
4
 40
0.000000
 40
0.000000
 40
0.000000
 40
0.000000
 40
1.754113
 40
3.597957
 40
5.352072
 40
5.352072
 40
5.352072
 40
5.352072
 10
66.442059
 20
172.132203
 30
0.0
 10
66.122629
 20
171.636488
 30
0.0
 10
65.467429
 20
170.619699
 30
0.0
 10
63.839853
 20
169.680018
 30
0.0
 10
62.631687
 20
169.620992
 30
0.0
 10
62.042669
 20
169.592214
 30
0.0
 11
66.442059
 21
172.132203
 31
0.0
 11
65.379438
 21
170.736586
 31
0.0
 11
63.782622
 21
169.814664
 31
0.0
 11
62.042669
 21
169.592214
 31
0.0
  0
LWPOLYLINE
  5
116
100
AcDbEntity
  8
0
 62
5
100
AcDbPolyline
 90
4
 70
0
 10
70.389352
 20
177.148573
 30
0.0
 10
65.256732
 20
174.185254
 30
0.0
 10
65.426062
 20
173.891960
 30
0.0
 10
66.305941
 20
174.399957
 30
0.0
  0
LWPOLYLINE
  5
117
100
AcDbEntity
  8
0
 62
5
100
AcDbPolyline
 90
4
 70
0
 10
60.146796
 20
170.843974
 30
0.0
 10
61.026675
 20
171.351971
 30
0.0
 10
60.857342
 20
171.645265
 30
0.0
 10
55.724719
 20
168.681943
 30
0.0
  0
LWPOLYLINE
  5
118
100
AcDbEntity
  8
0
 62
1
100
AcDbPolyline
 90
2
 70
0
 10
64.230208
 20
173.592590
 30
0.0
 10
61.883866
 20
172.237929
 30
0.0
  0
LWPOLYLINE
  5
119
100
AcDbEntity
  8
0
 62
5
100
AcDbPolyline
 90
4
 70
0
 10
70.389329
 20
177.148613
 30
0.0
 10
67.946544
 20
173.167216
 30
0.0
 10
70.058828
 20
163.229701
 30
0.0
 10
73.909803
 20
160.586085
 30
0.0
  0
LWPOLYLINE
  5
11a
100
AcDbEntity
  8
0
 62
5
100
AcDbPolyline
 90
4
 70
0
 10
71.871939
 20
172.616719
 30
0.0
 10
71.184632
 20
171.778195
 30
0.0
 10
72.452001
 20
165.815686
 30
0.0
 10
73.420946
 20
165.329208
 30
0.0
  0
LWPOLYLINE
  5
11b
100
AcDbEntity
  8
0
 62
1
100
AcDbPolyline
 90
2
 70
0
 10
70.389329
 20
177.148613
 30
0.0
 10
71.375061
 20
172.511106
 30
0.0
  0
LWPOLYLINE
  5
11c
100
AcDbEntity
  8
0
 62
1
100
AcDbPolyline
 90
2
 70
0
 10
73.909803
 20
160.586085
 30
0.0
 10
72.924072
 20
165.223592
 30
0.0
  0
SPLINE
  5
11d
100
AcDbEntity
  8
0
 62
5
100
AcDbSpline
 70
0
 71
3
 72
10
 73
6
 74
4
 40
0.000000
 40
0.000000
 40
0.000000
 40
0.000000
 40
1.046208
 40
1.927091
 40
2.310838
 40
2.310838
 40
2.310838
 40
2.310838
 10
62.042669
 20
169.592214
 30
0.0
 10
61.707430
 20
169.701353
 30
0.0
 10
61.089927
 20
169.902384
 30
0.0
 10
60.503234
 20
170.426907
 30
0.0
 10
60.229776
 20
170.746880
 30
0.0
 10
60.146796
 20
170.843974
 30
0.0
 11
62.042669
 21
169.592214
 31
0.0
 11
61.074748
 21
169.989302
 31
0.0
 11
60.400120
 21
170.555723
 31
0.0
 11
60.146796
 21
170.843974
 31
0.0
  0
SPLINE
  5
11e
100
AcDbEntity
  8
0
 62
5
100
AcDbSpline
 70
0
 71
3
 72
10
 73
6
 74
4
 40
0.000000
 40
0.000000
 40
0.000000
 40
0.000000
 40
0.383750
 40
1.264642
 40
2.310860
 40
2.310860
 40
2.310860
 40
2.310860
 10
85.831412
 20
158.992583
 30
0.0
 10
85.795098
 20
158.870131
 30
0.0
 10
85.675425
 20
158.466592
 30
0.0
 10
85.352793
 20
157.748780
 30
0.0
 10
84.870437
 20
157.313965
 30
0.0
 10
84.608568
 20
157.077905
 30
0.0
 11
85.831412
 21
158.992583
 31
0.0
 11
85.717231
 21
158.626213
 31
0.0
 11
85.331307
 21
157.834359
 31
0.0
 11
84.608568
 21
157.077905
 31
0.0
  0
SPLINE
  5
11f
100
AcDbEntity
  8
0
 62
5
100
AcDbSpline
 70
0
 71
3
 72
10
 73
6
 74
4
 40
0.000000
 40
0.000000
 40
0.000000
 40
0.000000
 40
1.754131
 40
3.597995
 40
5.352127
 40
5.352127
 40
5.352127
 40
5.352127
 10
84.608568
 20
157.077905
 30
0.0
 10
84.058764
 20
156.864617
 30
0.0
 10
82.931030
 20
156.427129
 30
0.0
 10
81.061944
 20
156.623577
 30
0.0
 10
80.049813
 20
157.285974
 30
0.0
 10
79.556367
 20
157.608912
 30
0.0
 11
84.608568
 21
157.077905
 31
0.0
 11
82.928549
 21
156.573414
 31
0.0
 11
81.094787
 21
156.766150
 31
0.0
 11
79.556367
 21
157.608912
 31
0.0
  0
LWPOLYLINE
  5
120
100
AcDbEntity
  8
0
 62
5
100
AcDbPolyline
 90
4
 70
0
 10
90.750607
 20
158.816089
 30
0.0
 10
84.856374
 20
159.435598
 30
0.0
 10
84.820972
 20
159.098786
 30
0.0
 10
85.831412
 20
158.992583
 30
0.0
  0
LWPOLYLINE
  5
121
100
AcDbEntity
  8
0
 62
5
100
AcDbPolyline
 90
4
 70
0
 10
78.758330
 20
159.735995
 30
0.0
 10
79.768771
 20
159.629792
 30
0.0
 10
79.804173
 20
159.966605
 30
0.0
 10
73.909939
 20
160.586114
 30
0.0
  0
LWPOLYLINE
  5
122
100
AcDbEntity
  8
0
 62
1
100
AcDbPolyline
 90
2
 70
0
 10
83.677526
 20
159.559499
 30
0.0
 10
80.983018
 20
159.842704
 30
0.0
  0
LWPOLYLINE
  5
123
100
AcDbEntity
  8
0
 62
5
100
AcDbPolyline
 90
5
 70
0
 10
90.750480
 20
158.814890
 30
0.0
 10
94.223888
 20
159.122109
 30
0.0
 10
97.273632
 20
168.886354
 30
0.0
 10
96.260691
 20
171.191023
 30
0.0
 10
97.638243
 20
174.285056
 30
0.0
  0
LWPOLYLINE
  5
124
100
AcDbEntity
  8
0
 62
5
100
AcDbPolyline
 90
4
 70
0
 10
90.837396
 20
160.259137
 30
0.0
 10
91.886416
 20
160.533555
 30
0.0
 10
94.366009
 20
166.102816
 30
0.0
 10
93.868014
 20
167.066009
 30
0.0
  0
LWPOLYLINE
  5
125
100
AcDbEntity
  8
0
 62
1
100
AcDbPolyline
 90
2
 70
0
 10
90.750480
 20
158.814890
 30
0.0
 10
91.301502
 20
160.052502
 30
0.0
  0
LWPOLYLINE
  5
126
100
AcDbEntity
  8
0
 62
1
100
AcDbPolyline
 90
2
 70
0
 10
96.260691
 20
171.191023
 30
0.0
 10
94.332117
 20
166.859377
 30
0.0
  0
LWPOLYLINE
  5
127
100
AcDbEntity
  8
0
 62
5
100
AcDbPolyline
 90
8
 70
0
 10
85.054327
 20
185.615528
 30
0.0
 10
93.862861
 20
177.684287
 30
0.0
 10
94.907656
 20
178.338535
 30
0.0
 10
96.279324
 20
177.331337
 30
0.0
 10
96.228682
 20
176.009804
 30
0.0
 10
95.977010
 20
176.236408
 30
0.0
 10
95.750403
 20
175.984737
 30
0.0
 10
97.637947
 20
174.285186
 30
0.0
  0
LWPOLYLINE
  5
128
100
AcDbEntity
  8
0
 62
1
100
AcDbPolyline
 90
2
 70
0
 10
94.366207
 20
177.231075
 30
0.0
 10
95.247059
 20
176.437952
 30
0.0
  0
LWPOLYLINE
  5
129
100
AcDbEntity
  8
0
 62
5
100
AcDbPolyline
 90
7
 70
0
 10
99.718738
 20
177.148652
 30
0.0
 10
98.578783
 20
175.851522
 30
0.0
 10
97.196986
 20
176.844832
 30
0.0
 10
97.203054
 20
178.210019
 30
0.0
 10
97.496348
 20
178.040689
 30
0.0
 10
97.665678
 20
178.333980
 30
0.0
 10
85.054096
 20
185.615282
 30
0.0
  0
LWPOLYLINE
  5
12a
100
AcDbEntity
  8
0
 62
1
100
AcDbPolyline
 90
2
 70
0
 10
99.132153
 20
177.487319
 30
0.0
 10
98.252277
 20
177.995316
 30
0.0
  0
SPLINE
  5
12b
100
AcDbEntity
  8
0
 62
5
100
AcDbSpline
 70
0
 71
3
 72
10
 73
6
 74
4
 40
0.000000
 40
0.000000
 40
0.000000
 40
0.000000
 40
1.046219
 40
1.927112
 40
2.310862
 40
2.310862
 40
2.310862
 40
2.310862
 10
79.556367
 20
157.608912
 30
0.0
 10
79.349301
 20
157.894259
 30
0.0
 10
78.967890
 20
158.419861
 30
0.0
 10
78.801550
 20
159.189067
 30
0.0
 10
78.768392
 20
159.608669
 30
0.0
 10
78.758330
 20
159.735995
 30
0.0
 11
79.556367
 21
157.608912
 31
0.0
 11
79.006699
 21
158.499102
 31
0.0
 11
78.793844
 21
159.353892
 31
0.0
 11
78.758330
 21
159.735995
 31
0.0
  0
SPLINE
  5
12c
100
AcDbEntity
  8
0
 62
5
100
AcDbSpline
 70
0
 71
3
 72
10
 73
6
 74
4
 40
0.000000
 40
0.000000
 40
0.000000
 40
0.000000
 40
0.168285
 40
0.650179
 40
1.455488
 40
1.455488
 40
1.455488
 40
1.455488
 10
99.380048
 20
168.851277
 30
0.0
 10
99.329243
 20
168.827327
 30
0.0
 10
99.132953
 20
168.734796
 30
0.0
 10
98.756956
 20
168.413702
 30
0.0
 10
98.515260
 20
168.057885
 30
0.0
 10
98.364048
 20
167.835277
 30
0.0
 11
99.380048
 21
168.851277
 31
0.0
 11
99.229530
 21
168.776017
 31
0.0
 11
98.853234
 21
168.474980
 31
0.0
 11
98.364048
 21
167.835277
 31
0.0
  0
SPLINE
  5
12d
100
AcDbEntity
  8
0
 62
5
100
AcDbSpline
 70
0
 71
3
 72
10
 73
6
 74
4
 40
0.000000
 40
0.000000
 40
0.000000
 40
0.000000
 40
1.568766
 40
3.234005
 40
4.770394
 40
4.770394
 40
4.770394
 40
4.770394
 10
98.364048
 20
167.835277
 30
0.0
 10
98.192121
 20
167.341324
 30
0.0
 10
97.837693
 20
166.323042
 30
0.0
 10
97.402990
 20
164.792718
 30
0.0
 10
97.137016
 20
163.759226
 30
0.0
 10
97.009382
 20
163.263277
 30
0.0
 11
98.364048
 21
167.835277
 31
0.0
 11
97.862320
 21
166.348906
 31
0.0
 11
97.398221
 21
164.749647
 31
0.0
 11
97.009382
 21
163.263277
 31
0.0
  0
LWPOLYLINE
  5
12e
100
AcDbEntity
  8
0
 62
5
100
AcDbPolyline
 90
4
 70
0
 10
99.718715
 20
177.148613
 30
0.0
 10
99.718715
 20
167.835277
 30
0.0
 10
99.380048
 20
167.835277
 30
0.0
 10
99.380048
 20
168.851277
 30
0.0
  0
LWPOLYLINE
  5
12f
100
AcDbEntity
  8
0
 62
5
100
AcDbPolyline
 90
4
 70
0
 10
99.380048
 20
161.739274
 30
0.0
 10
99.380048
 20
162.755277
 30
0.0
 10
99.718715
 20
162.755277
 30
0.0
 10
99.718715
 20
160.215274
 30
0.0
  0
LWPOLYLINE
  5
130
100
AcDbEntity
  8
0
 62
1
100
AcDbPolyline
 90
2
 70
0
 10
99.718715
 20
166.649943
 30
0.0
 10
99.718715
 20
163.940610
 30
0.0
  0
LWPOLYLINE
  5
131
100
AcDbEntity
  8
0
 62
5
100
AcDbPolyline
 90
4
 70
0
 10
114.383476
 20
168.681980
 30
0.0
 10
113.059199
 20
164.202334
 30
0.0
 10
104.260342
 20
159.122315
 30
0.0
 10
99.718715
 20
160.215277
 30
0.0
  0
LWPOLYLINE
  5
132
100
AcDbEntity
  8
0
 62
5
100
AcDbPolyline
 90
4
 70
0
 10
110.023343
 20
166.751247
 30
0.0
 10
109.860086
 20
165.679339
 30
0.0
 10
104.580775
 20
162.631327
 30
0.0
 10
103.570848
 20
163.025897
 30
0.0
  0
LWPOLYLINE
  5
133
100
AcDbEntity
  8
0
 62
1
100
AcDbPolyline
 90
2
 70
0
 10
114.383476
 20
168.681980
 30
0.0
 10
110.277343
 20
166.311302
 30
0.0
  0
LWPOLYLINE
  5
134
100
AcDbEntity
  8
0
 62
1
100
AcDbPolyline
 90
2
 70
0
 10
99.718715
 20
160.215277
 30
0.0
 10
103.824848
 20
162.585954
 30
0.0
  0
SPLINE
  5
135
100
AcDbEntity
  8
0
 62
5
100
AcDbSpline
 70
0
 71
3
 72
10
 73
6
 74
4
 40
0.000000
 40
0.000000
 40
0.000000
 40
0.000000
 40
1.197286
 40
2.328490
 40
2.836645
 40
2.836645
 40
2.836645
 40
2.836645
 10
97.009382
 20
163.263277
 30
0.0
 10
97.303588
 20
162.990904
 30
0.0
 10
97.875762
 20
162.461191
 30
0.0
 10
98.725024
 20
162.026498
 30
0.0
 10
99.225054
 20
161.807238
 30
0.0
 10
99.380048
 20
161.739274
 30
0.0
 11
97.009382
 21
163.263277
 31
0.0
 11
97.925036
 21
162.491868
 31
0.0
 11
98.915950
 21
161.946237
 31
0.0
 11
99.380048
 21
161.739274
 31
0.0
  0
SPLINE
  5
136
100
AcDbEntity
  8
0
 62
5
100
AcDbSpline
 70
0
 71
3
 72
10
 73
6
 74
4
 40
0.000000
 40
0.000000
 40
0.000000
 40
0.000000
 40
0.383747
 40
1.264631
 40
2.310838
 40
2.310838
 40
2.310838
 40
2.310838
 10
118.805571
 20
170.843977
 30
0.0
 10
118.888550
 20
170.746883
 30
0.0
 10
119.162009
 20
170.426910
 30
0.0
 10
119.748702
 20
169.902387
 30
0.0
 10
120.366205
 20
169.701356
 30
0.0
 10
120.701443
 20
169.592217
 30
0.0
 11
118.805571
 21
170.843977
 31
0.0
 11
119.058894
 21
170.555725
 31
0.0
 11
119.733523
 21
169.989305
 31
0.0
 11
120.701443
 21
169.592217
 31
0.0
  0
SPLINE
  5
137
100
AcDbEntity
  8
0
 62
5
100
AcDbSpline
 70
0
 71
3
 72
10
 73
6
 74
4
 40
0.000000
 40
0.000000
 40
0.000000
 40
0.000000
 40
1.754115
 40
3.597959
 40
5.352073
 40
5.352073
 40
5.352073
 40
5.352073
 10
120.701443
 20
169.592217
 30
0.0
 10
121.290461
 20
169.620994
 30
0.0
 10
122.498628
 20
169.680019
 30
0.0
 10
124.126203
 20
170.619701
 30
0.0
 10
124.781403
 20
171.636490
 30
0.0
 10
125.100834
 20
172.132206
 30
0.0
 11
120.701443
 21
169.592217
 31
0.0
 11
122.441396
 21
169.814665
 31
0.0
 11
124.038212
 21
170.736588
 31
0.0
 11
125.100834
 21
172.132206
 31
0.0
  0
LWPOLYLINE
  5
138
100
AcDbEntity
  8
0
 62
5
100
AcDbPolyline
 90
4
 70
0
 10
114.383495
 20
168.681946
 30
0.0
 10
119.516116
 20
171.645265
 30
0.0
 10
119.685449
 20
171.351974
 30
0.0
 10
118.805571
 20
170.843977
 30
0.0
  0
LWPOLYLINE
  5
139
100
AcDbEntity
  8
0
 62
5
100
AcDbPolyline
 90
4
 70
0
 10
124.964718
 20
174.399960
 30
0.0
 10
124.084839
 20
173.891963
 30
0.0
 10
123.915506
 20
174.185254
 30
0.0
 10
129.048126
 20
177.148576
 30
0.0
  0
LWPOLYLINE
  5
13a
100
AcDbEntity
  8
0
 62
1
100
AcDbPolyline
 90
2
 70
0
 10
120.542640
 20
172.237929
 30
0.0
 10
122.888982
 20
173.592590
 30
0.0
  0
LWPOLYLINE
  5
13b
100
AcDbEntity
  8
0
 62
5
100
AcDbPolyline
 90
4
 70
0
 10
114.383473
 20
185.615243
 30
0.0
 10
118.925058
 20
186.708196
 30
0.0
 10
127.723838
 20
181.628219
 30
0.0
 10
129.048104
 20
177.148613
 30
0.0
  0
LWPOLYLINE
  5
13c
100
AcDbEntity
  8
0
 62
5
100
AcDbPolyline
 90
4
 70
0
 10
118.235572
 20
182.804648
 30
0.0
 10
119.245487
 20
183.199214
 30
0.0
 10
124.524756
 20
180.151229
 30
0.0
 10
124.688010
 20
179.079332
 30
0.0
  0
LWPOLYLINE
  5
13d
100
AcDbEntity
  8
0
 62
1
100
AcDbPolyline
 90
2
 70
0
 10
114.383473
 20
185.615243
 30
0.0
 10
118.489569
 20
183.244587
 30
0.0
  0
LWPOLYLINE
  5
13e
100
AcDbEntity
  8
0
 62
1
100
AcDbPolyline
 90
2
 70
0
 10
129.048104
 20
177.148613
 30
0.0
 10
124.942007
 20
179.519271
 30
0.0
  0
SPLINE
  5
13f
100
AcDbEntity
  8
0
 62
5
100
AcDbSpline
 70
0
 71
3
 72
10
 73
6
 74
4
 40
0.000000
 40
0.000000
 40
0.000000
 40
0.000000
 40
1.046208
 40
1.927091
 40
2.310838
 40
2.310838
 40
2.310838
 40
2.310838
 10
125.100834
 20
172.132206
 30
0.0
 10
125.173937
 20
172.477101
 30
0.0
 10
125.308591
 20
173.112390
 30
0.0
 10
125.147688
 20
173.882743
 30
0.0
 10
125.007314
 20
174.279551
 30
0.0
 10
124.964718
 20
174.399960
 30
0.0
 11
125.100834
 21
172.132206
 31
0.0
 11
125.240907
 21
173.168995
 31
0.0
 11
125.087688
 21
174.036450
 31
0.0
 11
124.964718
 21
174.399960
 31
0.0
  0
SPLINE
  5
140
100
AcDbEntity
  8
0
 62
5
100
AcDbSpline
 70
0
 71
3
 72
10
 73
6
 74
4
 40
0.000000
 40
0.000000
 40
0.000000
 40
0.000000
 40
0.168287
 40
0.650188
 40
1.455509
 40
1.455509
 40
1.455509
 40
1.455509
 10
107.073728
 20
190.226644
 30
0.0
 10
107.119873
 20
190.258668
 30
0.0
 10
107.298154
 20
190.382396
 30
0.0
 10
107.764235
 20
190.547475
 30
0.0
 10
108.193235
 20
190.578882
 30
0.0
 10
108.461629
 20
190.598531
 30
0.0
 11
107.073728
 21
190.226644
 31
0.0
 11
107.214166
 21
190.319368
 31
0.0
 11
107.663025
 21
190.494734
 31
0.0
 11
108.461629
 21
190.598531
 31
0.0
  0
SPLINE
  5
141
100
AcDbEntity
  8
0
 62
5
100
AcDbSpline
 70
0
 71
3
 72
10
 73
6
 74
4
 40
0.000000
 40
0.000000
 40
0.000000
 40
0.000000
 40
1.568789
 40
3.234052
 40
4.770464
 40
4.770464
 40
4.770464
 40
4.770464
 10
108.461629
 20
190.598531
 30
0.0
 10
108.975376
 20
190.500446
 30
0.0
 10
110.034463
 20
190.298246
 30
0.0
 10
111.577136
 20
189.909542
 30
0.0
 10
112.605169
 20
189.623131
 30
0.0
 10
113.098498
 20
189.485689
 30
0.0
 11
108.461629
 21
190.598531
 31
0.0
 11
109.999750
 21
190.289850
 31
0.0
 11
111.616822
 21
189.892135
 31
0.0
 11
113.098498
 21
189.485689
 31
0.0
  0
LWPOLYLINE
  5
142
100
AcDbEntity
  8
0
 62
5
100
AcDbPolyline
 90
4
 70
0
 10
99.718588
 20
194.082070
 30
0.0
 10
107.784288
 20
189.425336
 30
0.0
 10
107.953621
 20
189.718635
 30
0.0
 10
107.073728
 20
190.226644
 30
0.0
  0
LWPOLYLINE
  5
143
100
AcDbEntity
  8
0
 62
5
100
AcDbPolyline
 90
4
 70
0
 10
113.232988
 20
186.670593
 30
0.0
 10
112.353093
 20
187.178599
 30
0.0
 10
112.183759
 20
186.885302
 30
0.0
 10
114.383493
 20
185.615282
 30
0.0
  0
LWPOLYLINE
  5
144
100
AcDbEntity
  8
0
 62
1
100
AcDbPolyline
 90
2
 70
0
 10
108.810829
 20
188.832661
 30
0.0
 10
111.157216
 20
187.477977
 30
0.0
  0
LWPOLYLINE
  5
145
100
AcDbEntity
  8
0
 62
5
100
AcDbPolyline
 90
7
 70
0
 10
99.718715
 20
194.082290
 30
0.0
 10
101.412048
 20
194.420957
 30
0.0
 10
101.242715
 20
196.114293
 30
0.0
 10
100.057382
 20
196.791626
 30
0.0
 10
100.057382
 20
196.452960
 30
0.0
 10
99.718715
 20
196.452960
 30
0.0
 10
99.718715
 20
211.015629
 30
0.0
  0
LWPOLYLINE
  5
146
100
AcDbEntity
  8
0
 62
1
100
AcDbPolyline
 90
2
 70
0
 10
99.718715
 20
194.759624
 30
0.0
 10
99.718715
 20
195.775624
 30
0.0
  0
LWPOLYLINE
  5
147
100
AcDbEntity
  8
0
 62
5
100
AcDbPolyline
 90
8
 70
0
 10
99.718715
 20
211.015629
 30
0.0
 10
102.183144
 20
199.421407
 30
0.0
 10
101.094134
 20
198.843701
 30
0.0
 10
101.280564
 20
197.152177
 30
0.0
 10
102.450384
 20
196.535256
 30
0.0
 10
102.379972
 20
196.866520
 30
0.0
 10
102.711236
 20
196.936931
 30
0.0
 10
103.239327
 20
194.452453
 30
0.0
  0
LWPOLYLINE
  5
148
100
AcDbEntity
  8
0
 62
1
100
AcDbPolyline
 90
2
 70
0
 10
102.323968
 20
198.758879
 30
0.0
 10
102.570410
 20
197.599457
 30
0.0
  0
LWPOLYLINE
  5
149
100
AcDbEntity
  8
0
 62
5
100
AcDbPolyline
 90
5
 70
0
 10
120.080041
 20
192.682423
 30
0.0
 10
118.077364
 20
189.828098
 30
0.0
 10
108.096837
 20
192.068965
 30
0.0
 10
106.607469
 20
194.098448
 30
0.0
 10
103.239327
 20
194.452453
 30
0.0
  0
LWPOLYLINE
  5
14a
100
AcDbEntity
  8
0
 62
5
100
AcDbPolyline
 90
4
 70
0
 10
118.785886
 20
193.329245
 30
0.0
 10
118.023756
 20
192.558011
 30
0.0
 10
111.961097
 20
193.195224
 30
0.0
 10
111.375972
 20
194.108060
 30
0.0
  0
LWPOLYLINE
  5
14b
100
AcDbEntity
  8
0
 62
1
100
AcDbPolyline
 90
2
 70
0
 10
120.080041
 20
192.682423
 30
0.0
 10
118.732785
 20
192.824025
 30
0.0
  0
LWPOLYLINE
  5
14c
100
AcDbEntity
  8
0
 62
1
100
AcDbPolyline
 90
2
 70
0
 10
106.607469
 20
194.098448
 30
0.0
 10
111.322869
 20
193.602837
 30
0.0
  0
SPLINE
  5
14d
100
AcDbEntity
  8
0
 62
5
100
AcDbSpline
 70
0
 71
3
 72
10
 73
6
 74
4
 40
0.000000
 40
0.000000
 40
0.000000
 40
0.000000
 40
1.197302
 40
2.328521
 40
2.836682
 40
2.836682
 40
2.836682
 40
2.836682
 10
113.098498
 20
189.485689
 30
0.0
 10
113.187278
 20
189.094707
 30
0.0
 10
113.359937
 20
188.334324
 30
0.0
 10
113.311759
 20
187.381482
 30
0.0
 10
113.251627
 20
186.838807
 30
0.0
 10
113.232988
 20
186.670593
 30
0.0
 11
113.098498
 21
189.485689
 31
0.0
 11
113.308731
 21
188.306989
 31
0.0
 11
113.285803
 21
187.176003
 31
0.0
 11
113.232988
 21
186.670593
 31
0.0
  0
SPLINE
  5
14e
100
AcDbEntity
  8
0
 62
5
100
AcDbSpline
 70
0
 71
3
 72
10
 73
6
 74
4
 40
0.000000
 40
0.000000
 40
0.000000
 40
0.000000
 40
0.168283
 40
0.650174
 40
1.455478
 40
1.455478
 40
1.455478
 40
1.455478
 10
123.901976
 20
200.433984
 30
0.0
 10
123.938648
 20
200.391440
 30
0.0
 10
124.080331
 20
200.227072
 30
0.0
 10
124.293220
 20
199.780810
 30
0.0
 10
124.369295
 20
199.357452
 30
0.0
 10
124.416891
 20
199.092587
 30
0.0
 11
123.901976
 21
200.433984
 31
0.0
 11
124.008870
 21
200.304011
 31
0.0
 11
124.230190
 21
199.875950
 31
0.0
 11
124.416891
 21
199.092587
 31
0.0
  0
SPLINE
  5
14f
100
AcDbEntity
  8
0
 62
5
100
AcDbSpline
 70
0
 71
3
 72
10
 73
6
 74
4
 40
0.000000
 40
0.000000
 40
0.000000
 40
0.000000
 40
1.568754
 40
3.233980
 40
4.770359
 40
4.770359
 40
4.770359
 40
4.770359
 10
124.416891
 20
199.092587
 30
0.0
 10
124.373045
 20
198.571414
 30
0.0
 10
124.282659
 20
197.497017
 30
0.0
 10
124.057343
 20
195.922198
 30
0.0
 10
123.879964
 20
194.869882
 30
0.0
 10
123.794845
 20
194.364899
 30
0.0
 11
124.416891
 21
199.092587
 31
0.0
 11
124.270681
 21
197.530661
 31
0.0
 11
124.044180
 21
195.880911
 31
0.0
 11
123.794845
 21
194.364899
 31
0.0
  0
LWPOLYLINE
  5
150
100
AcDbEntity
  8
0
 62
5
100
AcDbPolyline
 90
4
 70
0
 10
126.967395
 20
208.151666
 30
0.0
 10
123.179349
 20
199.643575
 30
0.0
 10
123.488735
 20
199.505828
 30
0.0
 10
123.901976
 20
200.433984
 30
0.0
  0
LWPOLYLINE
  5
151
100
AcDbEntity
  8
0
 62
5
100
AcDbPolyline
 90
4
 70
0
 10
121.009286
 20
193.936898
 30
0.0
 10
121.422527
 20
194.865053
 30
0.0
 10
121.113141
 20
195.002800
 30
0.0
 10
120.080038
 20
192.682412
 30
0.0
  0
LWPOLYLINE
  5
152
100
AcDbEntity
  8
0
 62
1
100
AcDbPolyline
 90
2
 70
0
 10
122.697234
 20
198.560728
 30
0.0
 10
121.595258
 20
196.085648
 30
0.0
  0
LWPOLYLINE
  5
153
100
AcDbEntity
  8
0
 62
5
100
AcDbPolyline
 90
7
 70
0
 10
126.967336
 20
208.151692
 30
0.0
 10
127.848716
 20
209.636692
 30
0.0
 10
126.477022
 20
210.643909
 30
0.0
 10
125.180527
 20
210.216260
 30
0.0
 10
125.432205
 20
209.989650
 30
0.0
 10
125.205594
 20
209.737973
 30
0.0
 10
114.383464
 20
219.482262
 30
0.0
  0
LWPOLYLINE
  5
154
100
AcDbEntity
  8
0
 62
1
100
AcDbPolyline
 90
2
 70
0
 10
126.463981
 20
208.604915
 30
0.0
 10
125.708949
 20
209.284749
 30
0.0
  0
LWPOLYLINE
  5
155
100
AcDbEntity
  8
0
 62
5
100
AcDbPolyline
 90
8
 70
0
 10
114.383495
 20
219.482299
 30
0.0
 10
124.648739
 20
213.555658
 30
0.0
 10
124.349366
 20
212.359800
 30
0.0
 10
125.731163
 20
211.366491
 30
0.0
 10
126.972393
 20
211.823039
 30
0.0
 10
126.679099
 20
211.992372
 30
0.0
 10
126.848433
 20
212.285663
 30
0.0
 10
129.048126
 20
211.015669
 30
0.0
  0
LWPOLYLINE
  5
156
100
AcDbEntity
  8
0
 62
1
100
AcDbPolyline
 90
2
 70
0
 10
125.235324
 20
213.216994
 30
0.0
 10
126.261848
 20
212.624330
 30
0.0
  0
LWPOLYLINE
  5
157
100
AcDbEntity
  8
0
 62
5
100
AcDbPolyline
 90
5
 70
0
 10
129.048104
 20
194.082290
 30
0.0
 10
126.000104
 20
195.775624
 30
0.0
 10
127.185437
 20
205.935626
 30
0.0
 10
129.048104
 20
207.628963
 30
0.0
 10
129.048104
 20
211.015629
 30
0.0
  0
LWPOLYLINE
  5
158
100
AcDbEntity
  8
0
 62
5
100
AcDbPolyline
 90
4
 70
0
 10
129.556104
 20
195.436957
 30
0.0
 10
128.709437
 20
196.114293
 30
0.0
 10
128.709437
 20
202.210293
 30
0.0
 10
129.556104
 20
202.887626
 30
0.0
  0
LWPOLYLINE
  5
159
100
AcDbEntity
  8
0
 62
1
100
AcDbPolyline
 90
2
 70
0
 10
129.048104
 20
194.082290
 30
0.0
 10
129.048104
 20
195.436957
 30
0.0
  0
LWPOLYLINE
  5
15a
100
AcDbEntity
  8
0
 62
1
100
AcDbPolyline
 90
2
 70
0
 10
129.048104
 20
207.628963
 30
0.0
 10
129.048104
 20
202.887626
 30
0.0
  0
SPLINE
  5
15b
100
AcDbEntity
  8
0
 62
5
100
AcDbSpline
 70
0
 71
3
 72
10
 73
6
 74
4
 40
0.000000
 40
0.000000
 40
0.000000
 40
0.000000
 40
1.197277
 40
2.328472
 40
2.836623
 40
2.836623
 40
2.836623
 40
2.836623
 10
123.794845
 20
194.364899
 30
0.0
 10
123.415292
 20
194.235740
 30
0.0
 10
122.677137
 20
193.984550
 30
0.0
 10
121.724499
 20
193.932867
 30
0.0
 10
121.178523
 20
193.935944
 30
0.0
 10
121.009286
 20
193.936898
 30
0.0
 11
123.794845
 21
194.364899
 31
0.0
 11
122.644601
 21
194.032617
 31
0.0
 11
121.517437
 21
193.937202
 31
0.0
 11
121.009286
 21
193.936898
 31
0.0
  0
SPLINE
  5
15c
100
AcDbEntity
  8
0
 62
5
100
AcDbSpline
 70
0
 71
3
 72
10
 73
6
 74
4
 40
0.000000
 40
0.000000
 40
0.000000
 40
0.000000
 40
0.383750
 40
1.264641
 40
2.310858
 40
2.310858
 40
2.310858
 40
2.310858
 10
139.629419
 20
199.800355
 30
0.0
 10
139.672016
 20
199.679945
 30
0.0
 10
139.812392
 20
199.283134
 30
0.0
 10
139.973296
 20
198.512774
 30
0.0
 10
139.838641
 20
197.877479
 30
0.0
 10
139.765538
 20
197.532581
 30
0.0
 11
139.629419
 21
199.800355
 31
0.0
 11
139.752391
 21
199.436842
 31
0.0
 11
139.905612
 21
198.569379
 31
0.0
 11
139.765538
 21
197.532581
 31
0.0
  0
SPLINE
  5
15d
100
AcDbEntity
  8
0
 62
5
100
AcDbSpline
 70
0
 71
3
 72
10
 73
6
 74
4
 40
0.000000
 40
0.000000
 40
0.000000
 40
0.000000
 40
1.754129
 40
3.597989
 40
5.352120
 40
5.352120
 40
5.352120
 40
5.352120
 10
139.765538
 20
197.532581
 30
0.0
 10
139.446105
 20
197.036861
 30
0.0
 10
138.790898
 20
196.020063
 30
0.0
 10
137.163308
 20
195.080374
 30
0.0
 10
135.955131
 20
195.021347
 30
0.0
 10
135.366108
 20
194.992570
 30
0.0
 11
139.765538
 21
197.532581
 31
0.0
 11
138.702906
 21
196.136951
 31
0.0
 11
137.106076
 21
195.215021
 31
0.0
 11
135.366108
 21
194.992570
 31
0.0
  0
LWPOLYLINE
  5
15e
100
AcDbEntity
  8
0
 62
5
100
AcDbPolyline
 90
4
 70
0
 10
143.712864
 20
202.548994
 30
0.0
 10
138.580199
 20
199.585649
 30
0.0
 10
138.749532
 20
199.292352
 30
0.0
 10
139.629419
 20
199.800355
 30
0.0
  0
LWPOLYLINE
  5
15f
100
AcDbEntity
  8
0
 62
5
100
AcDbPolyline
 90
4
 70
0
 10
133.470218
 20
196.244338
 30
0.0
 10
134.350105
 20
196.752341
 30
0.0
 10
134.180772
 20
197.045638
 30
0.0
 10
129.048104
 20
194.082290
 30
0.0
  0
LWPOLYLINE
  5
160
100
AcDbEntity
  8
0
 62
1
100
AcDbPolyline
 90
2
 70
0
 10
137.553666
 20
198.992980
 30
0.0
 10
135.207304
 20
197.638307
 30
0.0
  0
LWPOLYLINE
  5
161
100
AcDbEntity
  8
0
 62
5
100
AcDbPolyline
 90
4
 70
0
 10
143.712884
 20
202.548960
 30
0.0
 10
148.254469
 20
201.456006
 30
0.0
 10
157.053249
 20
206.535984
 30
0.0
 10
158.377515
 20
211.015590
 30
0.0
  0
LWPOLYLINE
  5
162
100
AcDbEntity
  8
0
 62
5
100
AcDbPolyline
 90
4
 70
0
 10
147.564983
 20
205.359554
 30
0.0
 10
148.574898
 20
204.964988
 30
0.0
 10
153.854167
 20
208.012974
 30
0.0
 10
154.017421
 20
209.084871
 30
0.0
  0
LWPOLYLINE
  5
163
100
AcDbEntity
  8
0
 62
1
100
AcDbPolyline
 90
2
 70
0
 10
143.712884
 20
202.548960
 30
0.0
 10
147.818980
 20
204.919615
 30
0.0
  0
LWPOLYLINE
  5
164
100
AcDbEntity
  8
0
 62
1
100
AcDbPolyline
 90
2
 70
0
 10
158.377515
 20
211.015590
 30
0.0
 10
154.271418
 20
208.644932
 30
0.0
  0
SPLINE
  5
165
100
AcDbEntity
  8
0
 62
5
100
AcDbSpline
 70
0
 71
3
 72
10
 73
6
 74
4
 40
0.000000
 40
0.000000
 40
0.000000
 40
0.000000
 40
1.046216
 40
1.927107
 40
2.310857
 40
2.310857
 40
2.310857
 40
2.310857
 10
135.366108
 20
194.992570
 30
0.0
 10
135.030866
 20
195.101710
 30
0.0
 10
134.413358
 20
195.302743
 30
0.0
 10
133.826659
 20
195.827269
 30
0.0
 10
133.553199
 20
196.147243
 30
0.0
 10
133.470218
 20
196.244338
 30
0.0
 11
135.366108
 21
194.992570
 31
0.0
 11
134.398179
 21
195.389661
 31
0.0
 11
133.723544
 21
195.956085
 31
0.0
 11
133.470218
 21
196.244338
 31
0.0
  0
SPLINE
  5
166
100
AcDbEntity
  8
0
 62
5
100
AcDbSpline
 70
0
 71
3
 72
10
 73
6
 74
4
 40
0.000000
 40
0.000000
 40
0.000000
 40
0.000000
 40
0.383747
 40
1.264631
 40
2.310838
 40
2.310838
 40
2.310838
 40
2.310838
 10
148.134936
 20
217.320228
 30
0.0
 10
148.217916
 20
217.417323
 30
0.0
 10
148.491374
 20
217.737295
 30
0.0
 10
149.078068
 20
218.261818
 30
0.0
 10
149.695571
 20
218.462849
 30
0.0
 10
150.030809
 20
218.571988
 30
0.0
 11
148.134936
 21
217.320228
 31
0.0
 11
148.388260
 21
217.608480
 31
0.0
 11
149.062889
 21
218.174900
 31
0.0
 11
150.030809
 21
218.571988
 31
0.0
  0
SPLINE
  5
167
100
AcDbEntity
  8
0
 62
5
100
AcDbSpline
 70
0
 71
3
 72
10
 73
6
 74
4
 40
0.000000
 40
0.000000
 40
0.000000
 40
0.000000
 40
1.754115
 40
3.597959
 40
5.352073
 40
5.352073
 40
5.352073
 40
5.352073
 10
150.030809
 20
218.571988
 30
0.0
 10
150.619827
 20
218.543211
 30
0.0
 10
151.827994
 20
218.484186
 30
0.0
 10
153.455569
 20
217.544504
 30
0.0
 10
154.110769
 20
216.527715
 30
0.0
 10
154.430199
 20
216.031999
 30
0.0
 11
150.030809
 21
218.571988
 31
0.0
 11
151.770762
 21
218.349540
 31
0.0
 11
153.367578
 21
217.427617
 31
0.0
 11
154.430199
 21
216.031999
 31
0.0
  0
LWPOLYLINE
  5
168
100
AcDbEntity
  8
0
 62
5
100
AcDbPolyline
 90
4
 70
0
 10
143.712861
 20
219.482259
 30
0.0
 10
148.845482
 20
216.518940
 30
0.0
 10
149.014815
 20
216.812231
 30
0.0
 10
148.134936
 20
217.320228
 30
0.0
  0
LWPOLYLINE
  5
169
100
AcDbEntity
  8
0
 62
5
100
AcDbPolyline
 90
4
 70
0
 10
154.294084
 20
213.764245
 30
0.0
 10
153.414205
 20
214.272242
 30
0.0
 10
153.244872
 20
213.978951
 30
0.0
 10
158.377492
 20
211.015629
 30
0.0
  0
LWPOLYLINE
  5
16a
100
AcDbEntity
  8
0
 62
1
100
AcDbPolyline
 90
2
 70
0
 10
149.872006
 20
215.926276
 30
0.0
 10
152.218348
 20
214.571615
 30
0.0
  0
LWPOLYLINE
  5
16b
100
AcDbEntity
  8
0
 62
5
100
AcDbPolyline
 90
5
 70
0
 10
143.712884
 20
219.482296
 30
0.0
 10
143.770412
 20
222.968624
 30
0.0
 10
134.378889
 20
227.022111
 30
0.0
 10
131.981075
 20
226.255658
 30
0.0
 10
129.048123
 20
227.948999
 30
0.0
  0
LWPOLYLINE
  5
16c
100
AcDbEntity
  8
0
 62
5
100
AcDbPolyline
 90
4
 70
0
 10
142.285700
 20
219.719690
 30
0.0
 10
142.122446
 20
220.791595
 30
0.0
 10
136.843132
 20
223.839610
 30
0.0
 10
135.833206
 20
223.445040
 30
0.0
  0
LWPOLYLINE
  5
16d
100
AcDbEntity
  8
0
 62
1
100
AcDbPolyline
 90
2
 70
0
 10
143.712884
 20
219.482296
 30
0.0
 10
142.539703
 20
220.159632
 30
0.0
  0
LWPOLYLINE
  5
16e
100
AcDbEntity
  8
0
 62
1
100
AcDbPolyline
 90
2
 70
0
 10
131.981075
 20
226.255658
 30
0.0
 10
136.087208
 20
223.884982
 30
0.0
  0
LWPOLYLINE
  5
16f
100
AcDbEntity
  8
0
 62
5
100
AcDbPolyline
 90
8
 70
0
 10
129.048104
 20
244.882304
 30
0.0
 10
129.048104
 20
233.028968
 30
0.0
 10
130.233437
 20
232.690302
 30
0.0
 10
130.402770
 20
230.996968
 30
0.0
 10
129.386770
 20
230.150302
 30
0.0
 10
129.386770
 20
230.488968
 30
0.0
 10
129.048104
 20
230.488968
 30
0.0
 10
129.048104
 20
227.948965
 30
0.0
  0
LWPOLYLINE
  5
170
100
AcDbEntity
  8
0
 62
1
100
AcDbPolyline
 90
2
 70
0
 10
129.048104
 20
232.351635
 30
0.0
 10
129.048104
 20
231.166302
 30
0.0
  0
LWPOLYLINE
  5
171
100
AcDbEntity
  8
0
 62
5
100
AcDbPolyline
 90
7
 70
0
 10
132.568716
 20
228.319131
 30
0.0
 10
130.841984
 20
228.298331
 30
0.0
 10
130.655557
 20
229.989855
 30
0.0
 10
131.674153
 20
230.898826
 30
0.0
 10
131.744565
 20
230.567562
 30
0.0
 10
132.075829
 20
230.637973
 30
0.0
 10
129.048104
 20
244.882304
 30
0.0
  0
LWPOLYLINE
  5
172
100
AcDbEntity
  8
0
 62
1
100
AcDbPolyline
 90
2
 70
0
 10
132.427890
 20
228.981656
 30
0.0
 10
132.216655
 20
229.975448
 30
0.0
  0
SPLINE
  5
173
100
AcDbEntity
  8
0
 62
5
100
AcDbSpline
 70
0
 71
3
 72
10
 73
6
 74
4
 40
0.000000
 40
0.000000
 40
0.000000
 40
0.000000
 40
1.046208
 40
1.927091
 40
2.310838
 40
2.310838
 40
2.310838
 40
2.310838
 10
154.430199
 20
216.031999
 30
0.0
 10
154.503302
 20
215.687104
 30
0.0
 10
154.637956
 20
215.051816
 30
0.0
 10
154.477054
 20
214.281462
 30
0.0
 10
154.336680
 20
213.884655
 30
0.0
 10
154.294084
 20
213.764245
 30
0.0
 11
154.430199
 21
216.031999
 31
0.0
 11
154.570273
 21
214.995211
 31
0.0
 11
154.417054
 21
214.127755
 31
0.0
 11
154.294084
 21
213.764245
 31
0.0
  0
SPLINE
  5
174
100
AcDbEntity
  8
0
 62
5
100
AcDbSpline
 70
0
 71
3
 72
10
 73
6
 74
4
 40
0.000000
 40
0.000000
 40
0.000000
 40
0.000000
 40
0.168286
 40
0.650184
 40
1.455499
 40
1.455499
 40
1.455499
 40
1.455499
 10
140.785266
 20
227.114999
 30
0.0
 10
140.803774
 20
227.061968
 30
0.0
 10
140.875280
 20
226.857079
 30
0.0
 10
141.155315
 20
226.449575
 30
0.0
 10
141.483921
 20
226.172009
 30
0.0
 10
141.689506
 20
225.998356
 30
0.0
 11
140.785266
 21
227.114999
 31
0.0
 11
140.844379
 21
226.957437
 31
0.0
 11
141.104435
 21
226.551732
 31
0.0
 11
141.689506
 21
225.998356
 31
0.0
  0
SPLINE
  5
175
100
AcDbEntity
  8
0
 62
5
100
AcDbSpline
 70
0
 71
3
 72
10
 73
6
 74
4
 40
0.000000
 40
0.000000
 40
0.000000
 40
0.000000
 40
1.568780
 40
3.234033
 40
4.770435
 40
4.770435
 40
4.770435
 40
4.770435
 10
141.689506
 20
225.998356
 30
0.0
 10
142.162785
 20
225.775735
 30
0.0
 10
143.138449
 20
225.316805
 30
0.0
 10
144.614963
 20
224.724515
 30
0.0
 10
145.615000
 20
224.351966
 30
0.0
 10
146.094896
 20
224.173188
 30
0.0
 11
141.689506
 21
225.998356
 31
0.0
 11
143.115301
 21
225.344001
 31
0.0
 11
144.657301
 21
224.715270
 31
0.0
 11
146.094896
 21
224.173188
 31
0.0
  0
LWPOLYLINE
  5
176
100
AcDbEntity
  8
0
 62
5
100
AcDbPolyline
 90
4
 70
0
 10
132.568716
 20
228.319128
 30
0.0
 10
141.831108
 20
227.345611
 30
0.0
 10
141.795709
 20
227.008799
 30
0.0
 10
140.785266
 20
227.114999
 30
0.0
  0
LWPOLYLINE
  5
177
100
AcDbEntity
  8
0
 62
5
100
AcDbPolyline
 90
4
 70
0
 10
147.858364
 20
226.371586
 30
0.0
 10
146.847921
 20
226.477789
 30
0.0
 10
146.883323
 20
226.814601
 30
0.0
 10
149.409429
 20
226.549098
 30
0.0
  0
LWPOLYLINE
  5
178
100
AcDbEntity
  8
0
 62
1
100
AcDbPolyline
 90
2
 70
0
 10
143.009959
 20
227.221710
 30
0.0
 10
145.704473
 20
226.938505
 30
0.0
  0
LWPOLYLINE
  5
179
100
AcDbEntity
  8
0
 62
5
100
AcDbPolyline
 90
5
 70
0
 10
149.409427
 20
226.549087
 30
0.0
 10
152.882628
 20
226.856289
 30
0.0
 10
155.932195
 20
236.619955
 30
0.0
 10
154.919313
 20
238.924492
 30
0.0
 10
156.296783
 20
242.018342
 30
0.0
  0
LWPOLYLINE
  5
17a
100
AcDbEntity
  8
0
 62
5
100
AcDbPolyline
 90
4
 70
0
 10
149.496337
 20
227.993249
 30
0.0
 10
150.545295
 20
228.267651
 30
0.0
 10
153.024744
 20
233.836581
 30
0.0
 10
152.526774
 20
234.799721
 30
0.0
  0
LWPOLYLINE
  5
17b
100
AcDbEntity
  8
0
 62
1
100
AcDbPolyline
 90
2
 70
0
 10
149.409427
 20
226.549087
 30
0.0
 10
149.960415
 20
227.786626
 30
0.0
  0
LWPOLYLINE
  5
17c
100
AcDbEntity
  8
0
 62
1
100
AcDbPolyline
 90
2
 70
0
 10
154.919313
 20
238.924492
 30
0.0
 10
152.990852
 20
234.593100
 30
0.0
  0
LWPOLYLINE
  5
17d
100
AcDbEntity
  8
0
 62
5
100
AcDbPolyline
 90
8
 70
0
 10
143.712853
 20
253.348940
 30
0.0
 10
152.521564
 20
245.417542
 30
0.0
 10
153.566382
 20
246.071801
 30
0.0
 10
154.938072
 20
245.064583
 30
0.0
 10
154.887433
 20
243.743021
 30
0.0
 10
154.635756
 20
243.969634
 30
0.0
 10
154.409146
 20
243.717957
 30
0.0
 10
156.296724
 20
242.018370
 30
0.0
  0
LWPOLYLINE
  5
17e
100
AcDbEntity
  8
0
 62
1
100
AcDbPolyline
 90
2
 70
0
 10
153.024919
 20
244.964318
 30
0.0
 10
153.905788
 20
244.171178
 30
0.0
  0
LWPOLYLINE
  5
17f
100
AcDbEntity
  8
0
 62
5
100
AcDbPolyline
 90
7
 70
0
 10
158.377515
 20
244.882344
 30
0.0
 10
157.237560
 20
243.585214
 30
0.0
 10
155.855763
 20
244.578523
 30
0.0
 10
155.861831
 20
245.943711
 30
0.0
 10
156.155125
 20
245.774381
 30
0.0
 10
156.324455
 20
246.067672
 30
0.0
 10
143.712873
 20
253.348974
 30
0.0
  0
LWPOLYLINE
  5
180
100
AcDbEntity
  8
0
 62
1
100
AcDbPolyline
 90
2
 70
0
 10
157.790930
 20
245.221011
 30
0.0
 10
156.911054
 20
245.729008
 30
0.0
  0
SPLINE
  5
181
100
AcDbEntity
  8
0
 62
5
100
AcDbSpline
 70
0
 71
3
 72
10
 73
6
 74
4
 40
0.000000
 40
0.000000
 40
0.000000
 40
0.000000
 40
1.197296
 40
2.328509
 40
2.836668
 40
2.836668
 40
2.836668
 40
2.836668
 10
146.094896
 20
224.173188
 30
0.0
 10
146.396532
 20
224.437314
 30
0.0
 10
146.983156
 20
224.950988
 30
0.0
 10
147.504243
 20
225.750168
 30
0.0
 10
147.774570
 20
226.224543
 30
0.0
 10
147.858364
 20
226.371586
 30
0.0
 11
146.094896
 21
224.173188
 31
0.0
 11
146.957797
 21
225.003200
 31
0.0
 11
147.604021
 21
225.931659
 31
0.0
 11
147.858364
 21
226.371586
 31
0.0
  0
SPLINE
  5
182
100
AcDbEntity
  8
0
 62
5
100
AcDbSpline
 70
0
 71
3
 72
10
 73
6
 74
4
 40
0.000000
 40
0.000000
 40
0.000000
 40
0.000000
 40
0.168285
 40
0.650179
 40
1.455488
 40
1.455488
 40
1.455488
 40
1.455488
 10
158.038825
 20
236.584968
 30
0.0
 10
157.988020
 20
236.561019
 30
0.0
 10
157.791730
 20
236.468487
 30
0.0
 10
157.415733
 20
236.147394
 30
0.0
 10
157.174037
 20
235.791577
 30
0.0
 10
157.022825
 20
235.568968
 30
0.0
 11
158.038825
 21
236.584968
 31
0.0
 11
157.888307
 21
236.509709
 31
0.0
 11
157.512011
 21
236.208672
 31
0.0
 11
157.022825
 21
235.568968
 31
0.0
  0
SPLINE
  5
183
100
AcDbEntity
  8
0
 62
5
100
AcDbSpline
 70
0
 71
3
 72
10
 73
6
 74
4
 40
0.000000
 40
0.000000
 40
0.000000
 40
0.000000
 40
1.568766
 40
3.234005
 40
4.770394
 40
4.770394
 40
4.770394
 40
4.770394
 10
157.022825
 20
235.568968
 30
0.0
 10
156.850898
 20
235.075015
 30
0.0
 10
156.496470
 20
234.056734
 30
0.0
 10
156.061767
 20
232.526410
 30
0.0
 10
155.795793
 20
231.492918
 30
0.0
 10
155.668159
 20
230.996968
 30
0.0
 11
157.022825
 21
235.568968
 31
0.0
 11
156.521097
 21
234.082598
 31
0.0
 11
156.056998
 21
232.483339
 31
0.0
 11
155.668159
 21
230.996968
 31
0.0
  0
LWPOLYLINE
  5
184
100
AcDbEntity
  8
0
 62
5
100
AcDbPolyline
 90
4
 70
0
 10
158.377492
 20
244.882304
 30
0.0
 10
158.377492
 20
235.568968
 30
0.0
 10
158.038825
 20
235.568968
 30
0.0
 10
158.038825
 20
236.584968
 30
0.0
  0
LWPOLYLINE
  5
185
100
AcDbEntity
  8
0
 62
5
100
AcDbPolyline
 90
4
 70
0
 10
158.038825
 20
229.472965
 30
0.0
 10
158.038825
 20
230.488968
 30
0.0
 10
158.377492
 20
230.488968
 30
0.0
 10
158.377492
 20
227.948965
 30
0.0
  0
LWPOLYLINE
  5
186
100
AcDbEntity
  8
0
 62
1
100
AcDbPolyline
 90
2
 70
0
 10
158.377492
 20
234.383635
 30
0.0
 10
158.377492
 20
231.674302
 30
0.0
  0
LWPOLYLINE
  5
187
100
AcDbEntity
  8
0
 62
5
100
AcDbPolyline
 90
4
 70
0
 10
173.042253
 20
236.415669
 30
0.0
 10
171.717976
 20
231.936023
 30
0.0
 10
162.919119
 20
226.856003
 30
0.0
 10
158.377495
 20
227.948965
 30
0.0
  0
LWPOLYLINE
  5
188
100
AcDbEntity
  8
0
 62
5
100
AcDbPolyline
 90
4
 70
0
 10
168.682120
 20
234.484936
 30
0.0
 10
168.518863
 20
233.413028
 30
0.0
 10
163.239552
 20
230.365016
 30
0.0
 10
162.229625
 20
230.759586
 30
0.0
  0
LWPOLYLINE
  5
189
100
AcDbEntity
  8
0
 62
1
100
AcDbPolyline
 90
2
 70
0
 10
173.042253
 20
236.415669
 30
0.0
 10
168.936120
 20
234.044991
 30
0.0
  0
LWPOLYLINE
  5
18a
100
AcDbEntity
  8
0
 62
1
100
AcDbPolyline
 90
2
 70
0
 10
158.377495
 20
227.948965
 30
0.0
 10
162.483625
 20
230.319643
 30
0.0
  0
SPLINE
  5
18b
100
AcDbEntity
  8
0
 62
5
100
AcDbSpline
 70
0
 71
3
 72
10
 73
6
 74
4
 40
0.000000
 40
0.000000
 40
0.000000
 40
0.000000
 40
1.197286
 40
2.328490
 40
2.836645
 40
2.836645
 40
2.836645
 40
2.836645
 10
155.668159
 20
230.996968
 30
0.0
 10
155.962365
 20
230.724595
 30
0.0
 10
156.534539
 20
230.194882
 30
0.0
 10
157.383801
 20
229.760190
 30
0.0
 10
157.883830
 20
229.540930
 30
0.0
 10
158.038825
 20
229.472965
 30
0.0
 11
155.668159
 21
230.996968
 31
0.0
 11
156.583813
 21
230.225560
 31
0.0
 11
157.574727
 21
229.679929
 31
0.0
 11
158.038825
 21
229.472965
 31
0.0
  0
SPLINE
  5
18c
100
AcDbEntity
  8
0
 62
5
100
AcDbSpline
 70
0
 71
3
 72
10
 73
6
 74
4
 40
0.000000
 40
0.000000
 40
0.000000
 40
0.000000
 40
0.383740
 40
1.264608
 40
2.310798
 40
2.310798
 40
2.310798
 40
2.310798
 10
177.464271
 20
238.577627
 30
0.0
 10
177.547249
 20
238.480534
 30
0.0
 10
177.820702
 20
238.160567
 30
0.0
 10
178.407386
 20
237.636054
 30
0.0
 10
179.024879
 20
237.435028
 30
0.0
 10
179.360113
 20
237.325892
 30
0.0
 11
177.464271
 21
238.577627
 31
0.0
 11
177.717590
 21
238.289380
 31
0.0
 11
178.392207
 21
237.722971
 31
0.0
 11
179.360113
 21
237.325892
 31
0.0
  0
SPLINE
  5
18d
100
AcDbEntity
  8
0
 62
5
100
AcDbSpline
 70
0
 71
3
 72
10
 73
6
 74
4
 40
0.000000
 40
0.000000
 40
0.000000
 40
0.000000
 40
1.754083
 40
3.597895
 40
5.351979
 40
5.351979
 40
5.351979
 40
5.351979
 10
179.360113
 20
237.325892
 30
0.0
 10
179.949120
 20
237.354668
 30
0.0
 10
181.157265
 20
237.413692
 30
0.0
 10
182.784812
 20
238.353357
 30
0.0
 10
183.440002
 20
239.370128
 30
0.0
 10
183.759427
 20
239.865835
 30
0.0
 11
179.360113
 21
237.325892
 31
0.0
 11
181.100034
 21
237.548336
 31
0.0
 11
182.696822
 21
238.470241
 31
0.0
 11
183.759427
 21
239.865835
 31
0.0
  0
LWPOLYLINE
  5
18e
100
AcDbEntity
  8
0
 62
5
100
AcDbPolyline
 90
4
 70
0
 10
173.042272
 20
236.415635
 30
0.0
 10
178.174805
 20
239.378903
 30
0.0
 10
178.344136
 20
239.085615
 30
0.0
 10
177.464271
 20
238.577627
 30
0.0
  0
LWPOLYLINE
  5
18f
100
AcDbEntity
  8
0
 62
5
100
AcDbPolyline
 90
4
 70
0
 10
183.623311
 20
242.133550
 30
0.0
 10
182.743447
 20
241.625562
 30
0.0
 10
182.574119
 20
241.918850
 30
0.0
 10
187.706649
 20
244.882118
 30
0.0
  0
LWPOLYLINE
  5
190
100
AcDbEntity
  8
0
 62
1
100
AcDbPolyline
 90
2
 70
0
 10
179.201312
 20
239.971559
 30
0.0
 10
181.547612
 20
241.326194
 30
0.0
  0
LWPOLYLINE
  5
191
100
AcDbEntity
  8
0
 62
5
100
AcDbPolyline
 90
4
 70
0
 10
173.042162
 20
253.348788
 30
0.0
 10
177.583671
 20
254.441724
 30
0.0
 10
186.382296
 20
249.361834
 30
0.0
 10
187.706539
 20
244.882304
 30
0.0
  0
LWPOLYLINE
  5
192
100
AcDbEntity
  8
0
 62
5
100
AcDbPolyline
 90
4
 70
0
 10
176.894194
 20
250.538241
 30
0.0
 10
177.904092
 20
250.932802
 30
0.0
 10
183.183270
 20
247.884867
 30
0.0
 10
183.346519
 20
246.812989
 30
0.0
  0
LWPOLYLINE
  5
193
100
AcDbEntity
  8
0
 62
1
100
AcDbPolyline
 90
2
 70
0
 10
173.042162
 20
253.348788
 30
0.0
 10
177.148188
 20
250.978172
 30
0.0
  0
LWPOLYLINE
  5
194
100
AcDbEntity
  8
0
 62
1
100
AcDbPolyline
 90
2
 70
0
 10
187.706539
 20
244.882304
 30
0.0
 10
183.600513
 20
247.252920
 30
0.0
  0
SPLINE
  5
195
100
AcDbEntity
  8
0
 62
5
100
AcDbSpline
 70
0
 71
3
 72
10
 73
6
 74
4
 40
0.000000
 40
0.000000
 40
0.000000
 40
0.000000
 40
1.046189
 40
1.927057
 40
2.310797
 40
2.310797
 40
2.310797
 40
2.310797
 10
183.759427
 20
239.865835
 30
0.0
 10
183.832528
 20
240.210724
 30
0.0
 10
183.967179
 20
240.846002
 30
0.0
 10
183.806279
 20
241.616342
 30
0.0
 10
183.665907
 20
242.013143
 30
0.0
 10
183.623311
 20
242.133550
 30
0.0
 11
183.759427
 21
239.865835
 31
0.0
 11
183.899497
 21
240.902605
 31
0.0
 11
183.746280
 21
241.770046
 31
0.0
 11
183.623311
 21
242.133550
 31
0.0
  0
SPLINE
  5
196
100
AcDbEntity
  8
0
 62
5
100
AcDbSpline
 70
0
 71
3
 72
10
 73
6
 74
4
 40
0.000000
 40
0.000000
 40
0.000000
 40
0.000000
 40
0.168285
 40
0.650182
 40
1.455494
 40
1.455494
 40
1.455494
 40
1.455494
 10
165.732579
 20
257.960287
 30
0.0
 10
165.778722
 20
257.992312
 30
0.0
 10
165.957003
 20
258.116039
 30
0.0
 10
166.423078
 20
258.281116
 30
0.0
 10
166.852074
 20
258.312523
 30
0.0
 10
167.120466
 20
258.332172
 30
0.0
 11
165.732579
 21
257.960287
 31
0.0
 11
165.873015
 21
258.053011
 31
0.0
 11
166.321870
 21
258.228376
 31
0.0
 11
167.120466
 21
258.332172
 31
0.0
  0
SPLINE
  5
197
100
AcDbEntity
  8
0
 62
5
100
AcDbSpline
 70
0
 71
3
 72
10
 73
6
 74
4
 40
0.000000
 40
0.000000
 40
0.000000
 40
0.000000
 40
1.568773
 40
3.234018
 40
4.770414
 40
4.770414
 40
4.770414
 40
4.770414
 10
167.120466
 20
258.332172
 30
0.0
 10
167.634207
 20
258.234088
 30
0.0
 10
168.693283
 20
258.031890
 30
0.0
 10
170.235941
 20
257.643191
 30
0.0
 10
171.263962
 20
257.356782
 30
0.0
 10
171.757286
 20
257.219341
 30
0.0
 11
167.120466
 21
258.332172
 31
0.0
 11
168.658570
 21
258.023494
 31
0.0
 11
170.275626
 21
257.625784
 31
0.0
 11
171.757286
 21
257.219341
 31
0.0
  0
LWPOLYLINE
  5
198
100
AcDbEntity
  8
0
 62
5
100
AcDbPolyline
 90
4
 70
0
 10
158.377512
 20
261.815677
 30
0.0
 10
166.443129
 20
257.158991
 30
0.0
 10
166.612463
 20
257.452285
 30
0.0
 10
165.732579
 20
257.960287
 30
0.0
  0
LWPOLYLINE
  5
199
100
AcDbEntity
  8
0
 62
5
100
AcDbPolyline
 90
4
 70
0
 10
171.891777
 20
254.404273
 30
0.0
 10
171.011892
 20
254.912276
 30
0.0
 10
170.842556
 20
254.618980
 30
0.0
 10
173.042270
 20
253.348974
 30
0.0
  0
LWPOLYLINE
  5
19a
100
AcDbEntity
  8
0
 62
1
100
AcDbPolyline
 90
2
 70
0
 10
167.469662
 20
256.566321
 30
0.0
 10
169.816024
 20
255.211649
 30
0.0
  0
LWPOLYLINE
  5
19b
100
AcDbEntity
  8
0
 62
5
100
AcDbPolyline
 90
7
 70
0
 10
158.377492
 20
261.815641
 30
0.0
 10
160.070825
 20
262.154307
 30
0.0
 10
159.901492
 20
263.847643
 30
0.0
 10
158.716159
 20
264.524977
 30
0.0
 10
158.716159
 20
264.186310
 30
0.0
 10
158.377492
 20
264.186310
 30
0.0
 10
158.377492
 20
278.748980
 30
0.0
  0
LWPOLYLINE
  5
19c
100
AcDbEntity
  8
0
 62
1
100
AcDbPolyline
 90
2
 70
0
 10
158.377492
 20
262.492974
 30
0.0
 10
158.377492
 20
263.508974
 30
0.0
  0
LWPOLYLINE
  5
19d
100
AcDbEntity
  8
0
 62
5
100
AcDbPolyline
 90
8
 70
0
 10
158.377492
 20
278.748980
 30
0.0
 10
160.841924
 20
267.154732
 30
0.0
 10
159.752913
 20
266.577026
 30
0.0
 10
159.939344
 20
264.885499
 30
0.0
 10
161.109166
 20
264.268575
 30
0.0
 10
161.038754
 20
264.599839
 30
0.0
 10
161.370018
 20
264.670251
 30
0.0
 10
161.898110
 20
262.185769
 30
0.0
  0
LWPOLYLINE
  5
19e
100
AcDbEntity
  8
0
 62
1
100
AcDbPolyline
 90
2
 70
0
 10
160.982750
 20
266.492204
 30
0.0
 10
161.229192
 20
265.332781
 30
0.0
  0
LWPOLYLINE
  5
19f
100
AcDbEntity
  8
0
 62
5
100
AcDbPolyline
 90
5
 70
0
 10
178.738818
 20
260.415793
 30
0.0
 10
176.736161
 20
257.561496
 30
0.0
 10
166.755733
 20
259.802343
 30
0.0
 10
165.266381
 20
261.831803
 30
0.0
 10
161.898271
 20
262.185806
 30
0.0
  0
LWPOLYLINE
  5
1a0
100
AcDbEntity
  8
0
 62
5
100
AcDbPolyline
 90
4
 70
0
 10
177.444674
 20
261.062610
 30
0.0
 10
176.682552
 20
260.291384
 30
0.0
 10
170.619953
 20
260.928588
 30
0.0
 10
170.034833
 20
261.841416
 30
0.0
  0
LWPOLYLINE
  5
1a1
100
AcDbEntity
  8
0
 62
1
100
AcDbPolyline
 90
2
 70
0
 10
178.738818
 20
260.415793
 30
0.0
 10
177.391574
 20
260.557395
 30
0.0
  0
LWPOLYLINE
  5
1a2
100
AcDbEntity
  8
0
 62
1
100
AcDbPolyline
 90
2
 70
0
 10
165.266381
 20
261.831803
 30
0.0
 10
169.981733
 20
261.336199
 30
0.0
  0
SPLINE
  5
1a3
100
AcDbEntity
  8
0
 62
5
100
AcDbSpline
 70
0
 71
3
 72
10
 73
6
 74
4
 40
0.000000
 40
0.000000
 40
0.000000
 40
0.000000
 40
1.197289
 40
2.328497
 40
2.836654
 40
2.836654
 40
2.836654
 40
2.836654
 10
171.757286
 20
257.219341
 30
0.0
 10
171.846065
 20
256.828364
 30
0.0
 10
172.018723
 20
256.067988
 30
0.0
 10
171.970546
 20
255.115155
 30
0.0
 10
171.910415
 20
254.572486
 30
0.0
 10
171.891777
 20
254.404273
 30
0.0
 11
171.757286
 21
257.219341
 31
0.0
 11
171.967518
 21
256.040654
 31
0.0
 11
171.944591
 21
254.909678
 31
0.0
 11
171.891777
 21
254.404273
 31
0.0
  0
SPLINE
  5
1a4
100
AcDbEntity
  8
0
 62
5
100
AcDbSpline
 70
0
 71
3
 72
10
 73
6
 74
4
 40
0.000000
 40
0.000000
 40
0.000000
 40
0.000000
 40
0.168281
 40
0.650165
 40
1.455456
 40
1.455456
 40
1.455456
 40
1.455456
 10
182.560688
 20
268.167213
 30
0.0
 10
182.597359
 20
268.124670
 30
0.0
 10
182.739040
 20
267.960303
 30
0.0
 10
182.951925
 20
267.514048
 30
0.0
 10
183.028000
 20
267.090696
 30
0.0
 10
183.075594
 20
266.825836
 30
0.0
 11
182.560688
 21
268.167213
 31
0.0
 11
182.667581
 21
268.037241
 31
0.0
 11
182.888897
 21
267.609186
 31
0.0
 11
183.075594
 21
266.825836
 31
0.0
  0
SPLINE
  5
1a5
100
AcDbEntity
  8
0
 62
5
100
AcDbSpline
 70
0
 71
3
 72
10
 73
6
 74
4
 40
0.000000
 40
0.000000
 40
0.000000
 40
0.000000
 40
1.568728
 40
3.233926
 40
4.770280
 40
4.770280
 40
4.770280
 40
4.770280
 10
183.075594
 20
266.825836
 30
0.0
 10
183.031751
 20
266.304671
 30
0.0
 10
182.941367
 20
265.230292
 30
0.0
 10
182.716055
 20
263.655499
 30
0.0
 10
182.538678
 20
262.603201
 30
0.0
 10
182.453559
 20
262.098227
 30
0.0
 11
183.075594
 21
266.825836
 31
0.0
 11
182.929389
 21
265.263935
 31
0.0
 11
182.702892
 21
263.614213
 31
0.0
 11
182.453559
 21
262.098227
 31
0.0
  0
LWPOLYLINE
  5
1a6
100
AcDbEntity
  8
0
 62
5
100
AcDbPolyline
 90
4
 70
0
 10
185.626059
 20
275.884768
 30
0.0
 10
181.838075
 20
267.376815
 30
0.0
 10
182.147456
 20
267.239071
 30
0.0
 10
182.560688
 20
268.167213
 30
0.0
  0
LWPOLYLINE
  5
1a7
100
AcDbEntity
  8
0
 62
5
100
AcDbPolyline
 90
4
 70
0
 10
179.668046
 20
261.670231
 30
0.0
 10
180.081281
 20
262.598370
 30
0.0
 10
179.771901
 20
262.736117
 30
0.0
 10
178.738815
 20
260.415765
 30
0.0
  0
LWPOLYLINE
  5
1a8
100
AcDbEntity
  8
0
 62
1
100
AcDbPolyline
 90
2
 70
0
 10
181.355966
 20
266.293985
 30
0.0
 10
180.254010
 20
263.818947
 30
0.0
  0
LWPOLYLINE
  5
1a9
100
AcDbEntity
  8
0
 62
5
100
AcDbPolyline
 90
7
 70
0
 10
185.625435
 20
275.885047
 30
0.0
 10
186.506787
 20
277.370001
 30
0.0
 10
185.135136
 20
278.377189
 30
0.0
 10
183.838681
 20
277.949554
 30
0.0
 10
184.090350
 20
277.722949
 30
0.0
 10
183.863745
 20
277.471279
 30
0.0
 10
173.041937
 20
287.215279
 30
0.0
  0
LWPOLYLINE
  5
1aa
100
AcDbEntity
  8
0
 62
1
100
AcDbPolyline
 90
2
 70
0
 10
185.122095
 20
276.338256
 30
0.0
 10
184.367085
 20
277.018070
 30
0.0
  0
LWPOLYLINE
  5
1ab
100
AcDbEntity
  8
0
 62
5
100
AcDbPolyline
 90
8
 70
0
 10
173.042272
 20
287.215649
 30
0.0
 10
183.307338
 20
281.289111
 30
0.0
 10
183.007971
 20
280.093275
 30
0.0
 10
184.389745
 20
279.099983
 30
0.0
 10
185.630953
 20
279.556521
 30
0.0
 10
185.337664
 20
279.725851
 30
0.0
 10
185.506995
 20
280.019139
 30
0.0
 10
187.706649
 20
278.749166
 30
0.0
  0
LWPOLYLINE
  5
1ac
100
AcDbEntity
  8
0
 62
1
100
AcDbPolyline
 90
2
 70
0
 10
183.893912
 20
280.950452
 30
0.0
 10
184.920419
 20
280.357798
 30
0.0
  0
LWPOLYLINE
  5
1ad
100
AcDbEntity
  8
0
 62
5
100
AcDbPolyline
 90
5
 70
0
 10
187.706542
 20
261.815641
 30
0.0
 10
184.658542
 20
263.508974
 30
0.0
 10
185.843875
 20
273.668978
 30
0.0
 10
187.706542
 20
275.362312
 30
0.0
 10
187.706542
 20
278.748980
 30
0.0
  0
LWPOLYLINE
  5
1ae
100
AcDbEntity
  8
0
 62
5
100
AcDbPolyline
 90
4
 70
0
 10
188.214542
 20
263.170307
 30
0.0
 10
187.367875
 20
263.847643
 30
0.0
 10
187.367875
 20
269.943644
 30
0.0
 10
188.214542
 20
270.620977
 30
0.0
  0
LWPOLYLINE
  5
1af
100
AcDbEntity
  8
0
 62
1
100
AcDbPolyline
 90
2
 70
0
 10
187.706542
 20
261.815641
 30
0.0
 10
187.706542
 20
263.170307
 30
0.0
  0
LWPOLYLINE
  5
1b0
100
AcDbEntity
  8
0
 62
1
100
AcDbPolyline
 90
2
 70
0
 10
187.706542
 20
275.362312
 30
0.0
 10
187.706542
 20
270.620977
 30
0.0
  0
SPLINE
  5
1b1
100
AcDbEntity
  8
0
 62
5
100
AcDbSpline
 70
0
 71
3
 72
10
 73
6
 74
4
 40
0.000000
 40
0.000000
 40
0.000000
 40
0.000000
 40
1.197258
 40
2.328435
 40
2.836578
 40
2.836578
 40
2.836578
 40
2.836578
 10
182.453559
 20
262.098227
 30
0.0
 10
182.074014
 20
261.969069
 30
0.0
 10
181.335871
 20
261.717883
 30
0.0
 10
180.383248
 20
261.666200
 30
0.0
 10
179.837280
 20
261.669277
 30
0.0
 10
179.668046
 20
261.670231
 30
0.0
 11
182.453559
 21
262.098227
 31
0.0
 11
181.303335
 21
261.765949
 31
0.0
 11
180.176189
 21
261.670535
 31
0.0
 11
179.668046
 21
261.670231
 31
0.0
  0
SPLINE
  5
1b2
100
AcDbEntity
  8
0
 62
5
100
AcDbSpline
 70
0
 71
3
 72
10
 73
6
 74
4
 40
0.000000
 40
0.000000
 40
0.000000
 40
0.000000
 40
0.383740
 40
1.264608
 40
2.310798
 40
2.310798
 40
2.310798
 40
2.310798
 10
198.287581
 20
267.533559
 30
0.0
 10
198.330176
 20
267.413151
 30
0.0
 10
198.470549
 20
267.016351
 30
0.0
 10
198.631450
 20
266.246011
 30
0.0
 10
198.496798
 20
265.610733
 30
0.0
 10
198.423697
 20
265.265844
 30
0.0
 11
198.287581
 21
267.533559
 31
0.0
 11
198.410550
 21
267.170055
 31
0.0
 11
198.563768
 21
266.302615
 31
0.0
 11
198.423697
 21
265.265844
 31
0.0
  0
SPLINE
  5
1b3
100
AcDbEntity
  8
0
 62
5
100
AcDbSpline
 70
0
 71
3
 72
10
 73
6
 74
4
 40
0.000000
 40
0.000000
 40
0.000000
 40
0.000000
 40
1.754084
 40
3.597896
 40
5.351980
 40
5.351980
 40
5.351980
 40
5.351980
 10
198.423697
 20
265.265844
 30
0.0
 10
198.104272
 20
264.770137
 30
0.0
 10
197.449082
 20
263.753365
 30
0.0
 10
195.821535
 20
262.813700
 30
0.0
 10
194.613390
 20
262.754676
 30
0.0
 10
194.024383
 20
262.725900
 30
0.0
 11
198.423697
 21
265.265844
 31
0.0
 11
197.361093
 21
263.870250
 31
0.0
 11
195.764305
 21
262.948344
 31
0.0
 11
194.024383
 21
262.725900
 31
0.0
  0
LWPOLYLINE
  5
1b4
100
AcDbEntity
  8
0
 62
5
100
AcDbPolyline
 90
4
 70
0
 10
202.370921
 20
270.282127
 30
0.0
 10
197.238389
 20
267.318858
 30
0.0
 10
197.407719
 20
267.025570
 30
0.0
 10
198.287581
 20
267.533559
 30
0.0
  0
LWPOLYLINE
  5
1b5
100
AcDbEntity
  8
0
 62
5
100
AcDbPolyline
 90
4
 70
0
 10
192.128544
 20
263.977638
 30
0.0
 10
193.008405
 20
264.485627
 30
0.0
 10
192.839075
 20
264.778912
 30
0.0
 10
187.706545
 20
261.815643
 30
0.0
  0
LWPOLYLINE
  5
1b6
100
AcDbEntity
  8
0
 62
1
100
AcDbPolyline
 90
2
 70
0
 10
196.211881
 20
266.726203
 30
0.0
 10
193.865582
 20
265.371567
 30
0.0
  0
LWPOLYLINE
  5
1b7
100
AcDbEntity
  8
0
 62
5
100
AcDbPolyline
 90
4
 70
0
 10
202.370811
 20
270.282313
 30
0.0
 10
206.912712
 20
269.189283
 30
0.0
 10
215.712102
 20
274.269613
 30
0.0
 10
217.036458
 20
278.749529
 30
0.0
  0
LWPOLYLINE
  5
1b8
100
AcDbEntity
  8
0
 62
5
100
AcDbPolyline
 90
4
 70
0
 10
206.223176
 20
273.093103
 30
0.0
 10
207.233164
 20
272.698509
 30
0.0
 10
212.512797
 20
275.746707
 30
0.0
 10
212.676063
 20
276.818678
 30
0.0
  0
LWPOLYLINE
  5
1b9
100
AcDbEntity
  8
0
 62
1
100
AcDbPolyline
 90
2
 70
0
 10
202.370811
 20
270.282313
 30
0.0
 10
206.477193
 20
272.653133
 30
0.0
  0
LWPOLYLINE
  5
1ba
100
AcDbEntity
  8
0
 62
1
100
AcDbPolyline
 90
2
 70
0
 10
217.036458
 20
278.749529
 30
0.0
 10
212.930077
 20
276.378708
 30
0.0
  0
SPLINE
  5
1bb
100
AcDbEntity
  8
0
 62
5
100
AcDbSpline
 70
0
 71
3
 72
10
 73
6
 74
4
 40
0.000000
 40
0.000000
 40
0.000000
 40
0.000000
 40
1.046189
 40
1.927056
 40
2.310796
 40
2.310796
 40
2.310796
 40
2.310796
 10
194.024383
 20
262.725900
 30
0.0
 10
193.689150
 20
262.835037
 30
0.0
 10
193.071658
 20
263.036065
 30
0.0
 10
192.484975
 20
263.560579
 30
0.0
 10
192.211522
 20
263.880545
 30
0.0
 10
192.128544
 20
263.977638
 30
0.0
 11
194.024383
 21
262.725900
 31
0.0
 11
193.056479
 21
263.122981
 31
0.0
 11
192.381862
 21
263.689391
 31
0.0
 11
192.128544
 21
263.977638
 31
0.0
  0
SPLINE
  5
1bc
100
AcDbEntity
  8
0
 62
5
100
AcDbSpline
 70
0
 71
3
 72
10
 73
6
 74
4
 40
0.000000
 40
0.000000
 40
0.000000
 40
0.000000
 40
0.383773
 40
1.264717
 40
2.310998
 40
2.310998
 40
2.310998
 40
2.310998
 10
206.793510
 20
285.054017
 30
0.0
 10
206.876495
 20
285.151118
 30
0.0
 10
207.149972
 20
285.471112
 30
0.0
 10
207.736707
 20
285.995671
 30
0.0
 10
208.354253
 20
286.196716
 30
0.0
 10
208.689516
 20
286.305862
 30
0.0
 11
206.793510
 21
285.054017
 31
0.0
 11
207.046851
 21
285.342288
 31
0.0
 11
207.721526
 21
285.908747
 31
0.0
 11
208.689516
 21
286.305862
 31
0.0
  0
SPLINE
  5
1bd
100
AcDbEntity
  8
0
 62
5
100
AcDbSpline
 70
0
 71
3
 72
10
 73
6
 74
4
 40
0.000000
 40
0.000000
 40
0.000000
 40
0.000000
 40
1.754234
 40
3.598206
 40
5.352441
 40
5.352441
 40
5.352441
 40
5.352441
 10
208.689516
 20
286.305862
 30
0.0
 10
209.278574
 20
286.277083
 30
0.0
 10
210.486823
 20
286.218053
 30
0.0
 10
212.114510
 20
285.278307
 30
0.0
 10
212.769756
 20
284.261447
 30
0.0
 10
213.089208
 20
283.765697
 30
0.0
 11
208.689516
 21
286.305862
 31
0.0
 11
210.429587
 21
286.083398
 31
0.0
 11
212.026513
 21
285.161412
 31
0.0
 11
213.089208
 21
283.765697
 31
0.0
  0
LWPOLYLINE
  5
1be
100
AcDbEntity
  8
0
 62
5
100
AcDbPolyline
 90
4
 70
0
 10
202.371127
 20
287.216197
 30
0.0
 10
207.504103
 20
284.252671
 30
0.0
 10
207.673448
 20
284.545984
 30
0.0
 10
206.793510
 20
285.054017
 30
0.0
  0
LWPOLYLINE
  5
1bf
100
AcDbEntity
  8
0
 62
5
100
AcDbPolyline
 90
4
 70
0
 10
212.953081
 20
281.497786
 30
0.0
 10
212.073143
 20
282.005819
 30
0.0
 10
211.903798
 20
281.712506
 30
0.0
 10
217.036774
 20
278.748981
 30
0.0
  0
LWPOLYLINE
  5
1c0
100
AcDbEntity
  8
0
 62
1
100
AcDbPolyline
 90
2
 70
0
 10
208.530701
 20
283.659966
 30
0.0
 10
210.877204
 20
282.305211
 30
0.0
  0
LWPOLYLINE
  5
1c1
100
AcDbEntity
  8
0
 62
5
100
AcDbPolyline
 90
5
 70
0
 10
202.370811
 20
287.215650
 30
0.0
 10
202.428342
 20
290.701886
 30
0.0
 10
193.037062
 20
294.755269
 30
0.0
 10
190.639311
 20
293.988836
 30
0.0
 10
187.706435
 20
295.682132
 30
0.0
  0
LWPOLYLINE
  5
1c2
100
AcDbEntity
  8
0
 62
5
100
AcDbPolyline
 90
4
 70
0
 10
200.943667
 20
287.453037
 30
0.0
 10
200.780416
 20
288.524915
 30
0.0
 10
195.501240
 20
291.572849
 30
0.0
 10
194.491342
 20
291.178289
 30
0.0
  0
LWPOLYLINE
  5
1c3
100
AcDbEntity
  8
0
 62
1
100
AcDbPolyline
 90
2
 70
0
 10
202.370811
 20
287.215650
 30
0.0
 10
201.197662
 20
287.892968
 30
0.0
  0
LWPOLYLINE
  5
1c4
100
AcDbEntity
  8
0
 62
1
100
AcDbPolyline
 90
2
 70
0
 10
190.639311
 20
293.988836
 30
0.0
 10
194.745336
 20
291.618221
 30
0.0
  0
LWPOLYLINE
  5
1c5
100
AcDbEntity
  8
0
 62
5
100
AcDbPolyline
 90
8
 70
0
 10
187.706542
 20
312.615658
 30
0.0
 10
187.706542
 20
300.762321
 30
0.0
 10
188.891875
 20
300.423654
 30
0.0
 10
189.061209
 20
298.730320
 30
0.0
 10
188.045209
 20
297.883653
 30
0.0
 10
188.045209
 20
298.222320
 30
0.0
 10
187.706542
 20
298.222320
 30
0.0
 10
187.706542
 20
295.682319
 30
0.0
  0
LWPOLYLINE
  5
1c6
100
AcDbEntity
  8
0
 62
1
100
AcDbPolyline
 90
2
 70
0
 10
187.706542
 20
300.084987
 30
0.0
 10
187.706542
 20
298.899654
 30
0.0
  0
LWPOLYLINE
  5
1c7
100
AcDbEntity
  8
0
 62
5
100
AcDbPolyline
 90
7
 70
0
 10
191.227146
 20
296.052517
 30
0.0
 10
189.500420
 20
296.031720
 30
0.0
 10
189.313992
 20
297.723240
 30
0.0
 10
190.332586
 20
298.632208
 30
0.0
 10
190.402997
 20
298.300945
 30
0.0
 10
190.734261
 20
298.371357
 30
0.0
 10
187.706542
 20
312.615658
 30
0.0
  0
LWPOLYLINE
  5
1c8
100
AcDbEntity
  8
0
 62
1
100
AcDbPolyline
 90
2
 70
0
 10
191.086322
 20
296.715043
 30
0.0
 10
190.875085
 20
297.708831
 30
0.0
  0
SPLINE
  5
1c9
100
AcDbEntity
  8
0
 62
5
100
AcDbSpline
 70
0
 71
3
 72
10
 73
6
 74
4
 40
0.000000
 40
0.000000
 40
0.000000
 40
0.000000
 40
1.046280
 40
1.927224
 40
2.310997
 40
2.310997
 40
2.310997
 40
2.310997
 10
213.089208
 20
283.765697
 30
0.0
 10
213.162316
 20
283.420778
 30
0.0
 10
213.296979
 20
282.785446
 30
0.0
 10
213.136065
 20
282.015039
 30
0.0
 10
212.995680
 20
281.618204
 30
0.0
 10
212.953081
 20
281.497786
 30
0.0
 11
213.089208
 21
283.765697
 31
0.0
 11
213.229291
 21
282.728837
 31
0.0
 11
213.076061
 21
281.861322
 31
0.0
 11
212.953081
 21
281.497786
 31
0.0
  0
SPLINE
  5
1ca
100
AcDbEntity
  8
0
 62
5
100
AcDbSpline
 70
0
 71
3
 72
10
 73
6
 74
4
 40
0.000000
 40
0.000000
 40
0.000000
 40
0.000000
 40
0.168298
 40
0.650231
 40
1.455603
 40
1.455603
 40
1.455603
 40
1.455603
 10
199.444102
 20
294.848268
 30
0.0
 10
199.462611
 20
294.795234
 30
0.0
 10
199.534124
 20
294.590331
 30
0.0
 10
199.814179
 20
294.182798
 30
0.0
 10
200.142808
 20
293.905211
 30
0.0
 10
200.348407
 20
293.731546
 30
0.0
 11
199.444102
 21
294.848268
 31
0.0
 11
199.503221
 21
294.690695
 31
0.0
 11
199.763296
 21
294.284962
 31
0.0
 11
200.348407
 21
293.731546
 31
0.0
  0
SPLINE
  5
1cb
100
AcDbEntity
  8
0
 62
5
100
AcDbSpline
 70
0
 71
3
 72
10
 73
6
 74
4
 40
0.000000
 40
0.000000
 40
0.000000
 40
0.000000
 40
1.568889
 40
3.234257
 40
4.770767
 40
4.770767
 40
4.770767
 40
4.770767
 10
200.348407
 20
293.731546
 30
0.0
 10
200.821719
 20
293.508910
 30
0.0
 10
201.797451
 20
293.049949
 30
0.0
 10
203.274068
 20
292.457618
 30
0.0
 10
204.274175
 20
292.085044
 30
0.0
 10
204.754105
 20
291.906254
 30
0.0
 11
200.348407
 21
293.731546
 31
0.0
 11
201.774301
 21
293.077147
 31
0.0
 11
203.316408
 21
292.448373
 31
0.0
 11
204.754105
 21
291.906254
 31
0.0
  0
LWPOLYLINE
  5
1cc
100
AcDbEntity
  8
0
 62
5
100
AcDbPolyline
 90
4
 70
0
 10
191.226982
 20
296.052481
 30
0.0
 10
200.490020
 20
295.078897
 30
0.0
 10
200.454616
 20
294.742059
 30
0.0
 10
199.444102
 20
294.848268
 30
0.0
  0
LWPOLYLINE
  5
1cd
100
AcDbEntity
  8
0
 62
5
100
AcDbPolyline
 90
4
 70
0
 10
206.517694
 20
294.104804
 30
0.0
 10
205.507181
 20
294.211013
 30
0.0
 10
205.542586
 20
294.547851
 30
0.0
 10
208.068867
 20
294.282328
 30
0.0
  0
LWPOLYLINE
  5
1ce
100
AcDbEntity
  8
0
 62
1
100
AcDbPolyline
 90
2
 70
0
 10
201.668950
 20
294.954986
 30
0.0
 10
204.363653
 20
294.671761
 30
0.0
  0
LWPOLYLINE
  5
1cf
100
AcDbEntity
  8
0
 62
5
100
AcDbPolyline
 90
5
 70
0
 10
208.068881
 20
294.282439
 30
0.0
 10
211.542040
 20
294.589637
 30
0.0
 10
214.591570
 20
304.353186
 30
0.0
 10
213.578700
 20
306.657692
 30
0.0
 10
214.956153
 20
309.751506
 30
0.0
  0
LWPOLYLINE
  5
1d0
100
AcDbEntity
  8
0
 62
5
100
AcDbPolyline
 90
4
 70
0
 10
208.155791
 20
295.726583
 30
0.0
 10
209.204735
 20
296.000982
 30
0.0
 10
211.684153
 20
301.569846
 30
0.0
 10
211.186189
 20
302.532972
 30
0.0
  0
LWPOLYLINE
  5
1d1
100
AcDbEntity
  8
0
 62
1
100
AcDbPolyline
 90
2
 70
0
 10
208.068881
 20
294.282439
 30
0.0
 10
208.619863
 20
295.519965
 30
0.0
  0
LWPOLYLINE
  5
1d2
100
AcDbEntity
  8
0
 62
1
100
AcDbPolyline
 90
2
 70
0
 10
213.578700
 20
306.657692
 30
0.0
 10
211.650261
 20
302.326354
 30
0.0
  0
LWPOLYLINE
  5
1d3
100
AcDbEntity
  8
0
 62
5
100
AcDbPolyline
 90
8
 70
0
 10
202.371235
 20
321.082796
 30
0.0
 10
211.180339
 20
313.151043
 30
0.0
 10
212.225201
 20
313.805332
 30
0.0
 10
213.596957
 20
312.798069
 30
0.0
 10
213.546312
 20
311.476449
 30
0.0
 10
213.294623
 20
311.703071
 30
0.0
 10
213.068004
 20
311.451382
 30
0.0
 10
214.955668
 20
309.751721
 30
0.0
  0
LWPOLYLINE
  5
1d4
100
AcDbEntity
  8
0
 62
1
100
AcDbPolyline
 90
2
 70
0
 10
211.683716
 20
312.697800
 30
0.0
 10
212.564624
 20
311.904625
 30
0.0
  0
LWPOLYLINE
  5
1d5
100
AcDbEntity
  8
0
 62
5
100
AcDbPolyline
 90
7
 70
0
 10
217.036458
 20
312.615111
 30
0.0
 10
215.896424
 20
311.317891
 30
0.0
 10
214.514532
 20
312.311269
 30
0.0
 10
214.520599
 20
313.676553
 30
0.0
 10
214.813913
 20
313.507209
 30
0.0
 10
214.983258
 20
313.800521
 30
0.0
 10
202.370800
 20
321.082327
 30
0.0
  0
LWPOLYLINE
  5
1d6
100
AcDbEntity
  8
0
 62
1
100
AcDbPolyline
 90
2
 70
0
 10
216.449834
 20
312.953800
 30
0.0
 10
215.569896
 20
313.461833
 30
0.0
  0
SPLINE
  5
1d7
100
AcDbEntity
  8
0
 62
5
100
AcDbSpline
 70
0
 71
3
 72
10
 73
6
 74
4
 40
0.000000
 40
0.000000
 40
0.000000
 40
0.000000
 40
1.197378
 40
2.328670
 40
2.836864
 40
2.836864
 40
2.836864
 40
2.836864
 10
204.754105
 20
291.906254
 30
0.0
 10
205.055761
 20
292.170398
 30
0.0
 10
205.642426
 20
292.684108
 30
0.0
 10
206.163548
 20
293.483342
 30
0.0
 10
206.433895
 20
293.957750
 30
0.0
 10
206.517694
 20
294.104804
 30
0.0
 11
204.754105
 21
291.906254
 31
0.0
 11
205.617064
 21
292.736323
 31
0.0
 11
206.263334
 21
293.664846
 31
0.0
 11
206.517694
 21
294.104804
 31
0.0
  0
SPLINE
  5
1d8
100
AcDbEntity
  8
0
 62
5
100
AcDbSpline
 70
0
 71
3
 72
10
 73
6
 74
4
 40
0.000000
 40
0.000000
 40
0.000000
 40
0.000000
 40
0.168285
 40
0.650179
 40
1.455489
 40
1.455489
 40
1.455489
 40
1.455489
 10
216.698110
 20
304.318322
 30
0.0
 10
216.647305
 20
304.294372
 30
0.0
 10
216.451015
 20
304.201841
 30
0.0
 10
216.075017
 20
303.880747
 30
0.0
 10
215.833322
 20
303.524930
 30
0.0
 10
215.682110
 20
303.302322
 30
0.0
 11
216.698110
 21
304.318322
 31
0.0
 11
216.547592
 21
304.243063
 31
0.0
 11
216.171296
 21
303.942025
 31
0.0
 11
215.682110
 21
303.302322
 31
0.0
  0
SPLINE
  5
1d9
100
AcDbEntity
  8
0
 62
5
100
AcDbSpline
 70
0
 71
3
 72
10
 73
6
 74
4
 40
0.000000
 40
0.000000
 40
0.000000
 40
0.000000
 40
1.568767
 40
3.234006
 40
4.770395
 40
4.770395
 40
4.770395
 40
4.770395
 10
215.682110
 20
303.302322
 30
0.0
 10
215.510183
 20
302.808369
 30
0.0
 10
215.155755
 20
301.790087
 30
0.0
 10
214.721051
 20
300.259763
 30
0.0
 10
214.455078
 20
299.226270
 30
0.0
 10
214.327444
 20
298.730320
 30
0.0
 11
215.682110
 21
303.302322
 31
0.0
 11
215.180382
 21
301.815951
 31
0.0
 11
214.716283
 21
300.216691
 31
0.0
 11
214.327444
 21
298.730320
 31
0.0
  0
LWPOLYLINE
  5
1da
100
AcDbEntity
  8
0
 62
5
100
AcDbPolyline
 90
4
 70
0
 10
217.036777
 20
312.615658
 30
0.0
 10
217.036777
 20
303.302322
 30
0.0
 10
216.698110
 20
303.302322
 30
0.0
 10
216.698110
 20
304.318322
 30
0.0
  0
LWPOLYLINE
  5
1db
100
AcDbEntity
  8
0
 62
5
100
AcDbPolyline
 90
4
 70
0
 10
216.698110
 20
297.206320
 30
0.0
 10
216.698110
 20
298.222320
 30
0.0
 10
217.036777
 20
298.222320
 30
0.0
 10
217.036777
 20
295.682319
 30
0.0
  0
LWPOLYLINE
  5
1dc
100
AcDbEntity
  8
0
 62
1
100
AcDbPolyline
 90
2
 70
0
 10
217.036777
 20
302.116988
 30
0.0
 10
217.036777
 20
299.407654
 30
0.0
  0
LWPOLYLINE
  5
1dd
100
AcDbEntity
  8
0
 62
5
100
AcDbPolyline
 90
4
 70
0
 10
231.701154
 20
304.148802
 30
0.0
 10
230.376911
 20
299.669273
 30
0.0
 10
221.578283
 20
294.589384
 30
0.0
 10
217.036777
 20
295.682319
 30
0.0
  0
LWPOLYLINE
  5
1de
100
AcDbEntity
  8
0
 62
5
100
AcDbPolyline
 90
4
 70
0
 10
227.341134
 20
302.218118
 30
0.0
 10
227.177882
 20
301.146240
 30
0.0
 10
221.898707
 20
298.098306
 30
0.0
 10
220.888808
 20
298.492866
 30
0.0
  0
LWPOLYLINE
  5
1df
100
AcDbEntity
  8
0
 62
1
100
AcDbPolyline
 90
2
 70
0
 10
231.701154
 20
304.148802
 30
0.0
 10
227.595128
 20
301.778187
 30
0.0
  0
LWPOLYLINE
  5
1e0
100
AcDbEntity
  8
0
 62
1
100
AcDbPolyline
 90
2
 70
0
 10
217.036777
 20
295.682319
 30
0.0
 10
221.142803
 20
298.052934
 30
0.0
  0
SPLINE
  5
1e1
100
AcDbEntity
  8
0
 62
5
100
AcDbSpline
 70
0
 71
3
 72
10
 73
6
 74
4
 40
0.000000
 40
0.000000
 40
0.000000
 40
0.000000
 40
1.197286
 40
2.328489
 40
2.836644
 40
2.836644
 40
2.836644
 40
2.836644
 10
214.327444
 20
298.730320
 30
0.0
 10
214.621650
 20
298.457947
 30
0.0
 10
215.193824
 20
297.928235
 30
0.0
 10
216.043086
 20
297.493543
 30
0.0
 10
216.543115
 20
297.274284
 30
0.0
 10
216.698110
 20
297.206320
 30
0.0
 11
214.327444
 21
298.730320
 31
0.0
 11
215.243098
 21
297.958913
 31
0.0
 11
216.234012
 21
297.413283
 31
0.0
 11
216.698110
 21
297.206320
 31
0.0
  0
SPLINE
  5
1e2
100
AcDbEntity
  8
0
 62
5
100
AcDbSpline
 70
0
 71
3
 72
10
 73
6
 74
4
 40
0.000000
 40
0.000000
 40
0.000000
 40
0.000000
 40
0.383744
 40
1.264622
 40
2.310825
 40
2.310825
 40
2.310825
 40
2.310825
 10
232.390758
 20
299.275265
 30
0.0
 10
232.272775
 20
299.226351
 30
0.0
 10
231.883962
 20
299.065155
 30
0.0
 10
231.203817
 20
298.669264
 30
0.0
 10
230.821808
 20
298.144109
 30
0.0
 10
230.614418
 20
297.859004
 30
0.0
 11
232.390758
 21
299.275265
 31
0.0
 11
232.038336
 21
299.123416
 31
0.0
 11
231.291171
 21
298.656841
 31
0.0
 11
230.614418
 21
297.859004
 31
0.0
  0
SPLINE
  5
1e3
100
AcDbEntity
  8
0
 62
5
100
AcDbSpline
 70
0
 71
3
 72
10
 73
6
 74
4
 40
0.000000
 40
0.000000
 40
0.000000
 40
0.000000
 40
1.754105
 40
3.597939
 40
5.352045
 40
5.352045
 40
5.352045
 40
5.352045
 10
230.614418
 20
297.859004
 30
0.0
 10
230.459770
 20
297.289926
 30
0.0
 10
230.142565
 20
296.122658
 30
0.0
 10
230.533304
 20
294.284374
 30
0.0
 10
231.297857
 20
293.347041
 30
0.0
 10
231.670600
 20
292.890062
 30
0.0
 11
230.614418
 21
297.859004
 31
0.0
 11
230.288305
 21
296.135480
 31
0.0
 11
230.671660
 21
294.331938
 31
0.0
 11
231.670600
 21
292.890062
 31
0.0
  0
LWPOLYLINE
  5
1e4
100
AcDbEntity
  8
0
 62
5
100
AcDbPolyline
 90
4
 70
0
 10
231.701046
 20
304.148988
 30
0.0
 10
232.933257
 20
298.351889
 30
0.0
 10
232.601996
 20
298.281477
 30
0.0
 10
232.390758
 20
299.275265
 30
0.0
  0
LWPOLYLINE
  5
1e5
100
AcDbEntity
  8
0
 62
5
100
AcDbPolyline
 90
4
 70
0
 10
233.869413
 20
292.318746
 30
0.0
 10
233.658176
 20
293.312535
 30
0.0
 10
233.989440
 20
293.382947
 30
0.0
 10
235.221650
 20
287.585848
 30
0.0
  0
LWPOLYLINE
  5
1e6
100
AcDbEntity
  8
0
 62
1
100
AcDbPolyline
 90
2
 70
0
 10
233.179699
 20
297.192469
 30
0.0
 10
233.742998
 20
294.542367
 30
0.0
  0
LWPOLYLINE
  5
1e7
100
AcDbEntity
  8
0
 62
5
100
AcDbPolyline
 90
4
 70
0
 10
252.061701
 20
285.815835
 30
0.0
 10
248.357362
 20
282.970191
 30
0.0
 10
238.253236
 20
284.032177
 30
0.0
 10
235.221489
 20
287.585813
 30
0.0
  0
LWPOLYLINE
  5
1e8
100
AcDbEntity
  8
0
 62
5
100
AcDbPolyline
 90
4
 70
0
 10
247.399542
 20
286.816635
 30
0.0
 10
246.637435
 20
286.045424
 30
0.0
 10
240.574957
 20
286.682616
 30
0.0
 10
239.989848
 20
287.595425
 30
0.0
  0
LWPOLYLINE
  5
1e9
100
AcDbEntity
  8
0
 62
1
100
AcDbPolyline
 90
2
 70
0
 10
252.061701
 20
285.815835
 30
0.0
 10
247.346442
 20
286.311429
 30
0.0
  0
LWPOLYLINE
  5
1ea
100
AcDbEntity
  8
0
 62
1
100
AcDbPolyline
 90
2
 70
0
 10
235.221489
 20
287.585813
 30
0.0
 10
239.936748
 20
287.090219
 30
0.0
  0
SPLINE
  5
1eb
100
AcDbEntity
  8
0
 62
5
100
AcDbSpline
 70
0
 71
3
 72
10
 73
6
 74
4
 40
0.000000
 40
0.000000
 40
0.000000
 40
0.000000
 40
1.046202
 40
1.927080
 40
2.310825
 40
2.310825
 40
2.310825
 40
2.310825
 10
231.670600
 20
292.890062
 30
0.0
 10
231.976023
 20
292.713960
 30
0.0
 10
232.538605
 20
292.389583
 30
0.0
 10
233.320972
 20
292.304559
 30
0.0
 10
233.741735
 20
292.315443
 30
0.0
 10
233.869413
 20
292.318746
 30
0.0
 11
231.670600
 21
292.890062
 31
0.0
 11
232.613354
 21
292.436462
 31
0.0
 11
233.485696
 21
292.314124
 31
0.0
 11
233.869413
 21
292.318746
 31
0.0
  0
SPLINE
  5
1ec
100
AcDbEntity
  8
0
 62
5
100
AcDbSpline
 70
0
 71
3
 72
10
 73
6
 74
4
 40
0.000000
 40
0.000000
 40
0.000000
 40
0.000000
 40
0.383756
 40
1.264662
 40
2.310896
 40
2.310896
 40
2.310896
 40
2.310896
 10
257.261250
 20
296.661503
 30
0.0
 10
257.366489
 20
296.589125
 30
0.0
 10
257.713301
 20
296.350605
 30
0.0
 10
258.296290
 20
295.821939
 30
0.0
 10
258.560773
 20
295.228817
 30
0.0
 10
258.704359
 20
294.906815
 30
0.0
 11
257.261250
 21
296.661503
 31
0.0
 11
257.574409
 21
296.439692
 31
0.0
 11
258.208260
 21
295.827950
 31
0.0
 11
258.704359
 21
294.906815
 31
0.0
  0
SPLINE
  5
1ed
100
AcDbEntity
  8
0
 62
5
100
AcDbSpline
 70
0
 71
3
 72
10
 73
6
 74
4
 40
0.000000
 40
0.000000
 40
0.000000
 40
0.000000
 40
1.754159
 40
3.598050
 40
5.352209
 40
5.352209
 40
5.352209
 40
5.352209
 10
258.704359
 20
294.906815
 30
0.0
 10
258.737311
 20
294.318001
 30
0.0
 10
258.804899
 20
293.110253
 30
0.0
 10
258.040474
 20
291.393326
 30
0.0
 10
257.097717
 20
290.635412
 30
0.0
 10
256.638095
 20
290.265906
 30
0.0
 11
258.704359
 21
294.906815
 31
0.0
 11
258.665004
 21
293.153097
 31
0.0
 11
257.915026
 21
291.468619
 31
0.0
 11
256.638095
 21
290.265906
 31
0.0
  0
LWPOLYLINE
  5
1ee
100
AcDbEntity
  8
0
 62
5
100
AcDbPolyline
 90
4
 70
0
 10
258.949246
 20
301.285465
 30
0.0
 10
256.538603
 20
295.871072
 30
0.0
 10
256.847998
 20
295.733321
 30
0.0
 10
257.261250
 20
296.661503
 30
0.0
  0
LWPOLYLINE
  5
1ef
100
AcDbEntity
  8
0
 62
5
100
AcDbPolyline
 90
4
 70
0
 10
254.368478
 20
290.164231
 30
0.0
 10
254.781730
 20
291.092412
 30
0.0
 10
254.472338
 20
291.230163
 30
0.0
 10
252.061695
 20
285.815770
 30
0.0
  0
LWPOLYLINE
  5
1f0
100
AcDbEntity
  8
0
 62
1
100
AcDbPolyline
 90
2
 70
0
 10
256.056474
 20
294.788193
 30
0.0
 10
254.954467
 20
292.313042
 30
0.0
  0
LWPOLYLINE
  5
1f1
100
AcDbEntity
  8
0
 62
5
100
AcDbPolyline
 90
4
 70
0
 10
246.365742
 20
312.616126
 30
0.0
 10
251.035532
 20
312.740953
 30
0.0
 10
258.586193
 20
305.942309
 30
0.0
 10
258.950175
 20
301.285051
 30
0.0
  0
LWPOLYLINE
  5
1f2
100
AcDbEntity
  8
0
 62
5
100
AcDbPolyline
 90
4
 70
0
 10
249.549452
 20
309.065892
 30
0.0
 10
250.619381
 20
309.241871
 30
0.0
 10
255.149779
 20
305.162684
 30
0.0
 10
255.086601
 20
304.080219
 30
0.0
  0
LWPOLYLINE
  5
1f3
100
AcDbEntity
  8
0
 62
1
100
AcDbPolyline
 90
2
 70
0
 10
246.365742
 20
312.616126
 30
0.0
 10
249.889383
 20
309.443425
 30
0.0
  0
LWPOLYLINE
  5
1f4
100
AcDbEntity
  8
0
 62
1
100
AcDbPolyline
 90
2
 70
0
 10
258.950175
 20
301.285051
 30
0.0
 10
255.426535
 20
304.457752
 30
0.0
  0
SPLINE
  5
1f5
100
AcDbEntity
  8
0
 62
5
100
AcDbSpline
 70
0
 71
3
 72
10
 73
6
 74
4
 40
0.000000
 40
0.000000
 40
0.000000
 40
0.000000
 40
1.046234
 40
1.927140
 40
2.310897
 40
2.310897
 40
2.310897
 40
2.310897
 10
256.638095
 20
290.265906
 30
0.0
 10
256.302722
 20
290.157149
 30
0.0
 10
255.684973
 20
289.956822
 30
0.0
 10
254.902001
 20
290.036322
 30
0.0
 10
254.492684
 20
290.134453
 30
0.0
 10
254.368478
 20
290.164231
 30
0.0
 11
256.638095
 21
290.265906
 31
0.0
 11
255.621602
 21
290.018220
 31
0.0
 11
254.742860
 21
290.079928
 31
0.0
 11
254.368478
 21
290.164231
 31
0.0
  0
SPLINE
  5
1f6
100
AcDbEntity
  8
0
 62
5
100
AcDbSpline
 70
0
 71
3
 72
10
 73
6
 74
4
 40
0.000000
 40
0.000000
 40
0.000000
 40
0.000000
 40
0.383740
 40
1.264608
 40
2.310798
 40
2.310798
 40
2.310798
 40
2.310798
 10
236.122938
 20
318.920148
 30
0.0
 10
236.205916
 20
319.017241
 30
0.0
 10
236.479369
 20
319.337208
 30
0.0
 10
237.066053
 20
319.861721
 30
0.0
 10
237.683546
 20
320.062748
 30
0.0
 10
238.018780
 20
320.171885
 30
0.0
 11
236.122938
 21
318.920148
 31
0.0
 11
236.376257
 21
319.208395
 31
0.0
 11
237.050874
 21
319.774804
 31
0.0
 11
238.018780
 21
320.171885
 31
0.0
  0
SPLINE
  5
1f7
100
AcDbEntity
  8
0
 62
5
100
AcDbSpline
 70
0
 71
3
 72
10
 73
6
 74
4
 40
0.000000
 40
0.000000
 40
0.000000
 40
0.000000
 40
1.754083
 40
3.597895
 40
5.351980
 40
5.351980
 40
5.351980
 40
5.351980
 10
238.018780
 20
320.171885
 30
0.0
 10
238.607787
 20
320.143108
 30
0.0
 10
239.815932
 20
320.084084
 30
0.0
 10
241.443479
 20
319.144419
 30
0.0
 10
242.098669
 20
318.127647
 30
0.0
 10
242.418094
 20
317.631940
 30
0.0
 11
238.018780
 21
320.171885
 31
0.0
 11
239.758701
 21
319.949440
 31
0.0
 11
241.355489
 21
319.027535
 31
0.0
 11
242.418094
 21
317.631940
 31
0.0
  0
LWPOLYLINE
  5
1f8
100
AcDbEntity
  8
0
 62
5
100
AcDbPolyline
 90
4
 70
0
 10
231.700939
 20
321.082141
 30
0.0
 10
236.833472
 20
318.118872
 30
0.0
 10
237.002803
 20
318.412159
 30
0.0
 10
236.122938
 20
318.920148
 30
0.0
  0
LWPOLYLINE
  5
1f9
100
AcDbEntity
  8
0
 62
5
100
AcDbPolyline
 90
4
 70
0
 10
242.281978
 20
315.364226
 30
0.0
 10
241.402114
 20
315.872215
 30
0.0
 10
241.232786
 20
315.578927
 30
0.0
 10
246.365316
 20
312.615658
 30
0.0
  0
LWPOLYLINE
  5
1fa
100
AcDbEntity
  8
0
 62
1
100
AcDbPolyline
 90
2
 70
0
 10
237.859979
 20
317.526218
 30
0.0
 10
240.206279
 20
316.171581
 30
0.0
  0
LWPOLYLINE
  5
1fb
100
AcDbEntity
  8
0
 62
5
100
AcDbPolyline
 90
4
 70
0
 10
217.036670
 20
329.548807
 30
0.0
 10
221.578178
 20
330.641744
 30
0.0
 10
230.376803
 20
325.561854
 30
0.0
 10
231.701046
 20
321.082325
 30
0.0
  0
LWPOLYLINE
  5
1fc
100
AcDbEntity
  8
0
 62
5
100
AcDbPolyline
 90
4
 70
0
 10
220.888701
 20
326.738261
 30
0.0
 10
221.898599
 20
327.132822
 30
0.0
 10
227.177778
 20
324.084887
 30
0.0
 10
227.341026
 20
323.013009
 30
0.0
  0
LWPOLYLINE
  5
1fd
100
AcDbEntity
  8
0
 62
1
100
AcDbPolyline
 90
2
 70
0
 10
217.036670
 20
329.548807
 30
0.0
 10
221.142695
 20
327.178192
 30
0.0
  0
LWPOLYLINE
  5
1fe
100
AcDbEntity
  8
0
 62
1
100
AcDbPolyline
 90
2
 70
0
 10
231.701046
 20
321.082325
 30
0.0
 10
227.595021
 20
323.452940
 30
0.0
  0
SPLINE
  5
1ff
100
AcDbEntity
  8
0
 62
5
100
AcDbSpline
 70
0
 71
3
 72
10
 73
6
 74
4
 40
0.000000
 40
0.000000
 40
0.000000
 40
0.000000
 40
1.046189
 40
1.927057
 40
2.310797
 40
2.310797
 40
2.310797
 40
2.310797
 10
242.418094
 20
317.631940
 30
0.0
 10
242.491195
 20
317.287051
 30
0.0
 10
242.625846
 20
316.651773
 30
0.0
 10
242.464946
 20
315.881434
 30
0.0
 10
242.324574
 20
315.484633
 30
0.0
 10
242.281978
 20
315.364226
 30
0.0
 11
242.418094
 21
317.631940
 31
0.0
 11
242.558164
 21
316.595170
 31
0.0
 11
242.404947
 21
315.727730
 31
0.0
 11
242.281978
 21
315.364226
 31
0.0
  0
SPLINE
  5
200
100
AcDbEntity
  8
0
 62
5
100
AcDbSpline
 70
0
 71
3
 72
10
 73
6
 74
4
 40
0.000000
 40
0.000000
 40
0.000000
 40
0.000000
 40
0.383750
 40
1.264641
 40
2.310858
 40
2.310858
 40
2.310858
 40
2.310858
 10
217.375446
 20
334.459680
 30
0.0
 10
217.501023
 20
334.482996
 30
0.0
 10
217.914860
 20
334.559833
 30
0.0
 10
218.662463
 20
334.805666
 30
0.0
 10
219.145316
 20
335.239927
 30
0.0
 10
219.407455
 20
335.475686
 30
0.0
 11
217.375446
 21
334.459680
 31
0.0
 11
217.751744
 21
334.534940
 31
0.0
 11
218.579600
 21
334.835979
 31
0.0
 11
219.407455
 21
335.475686
 31
0.0
  0
SPLINE
  5
201
100
AcDbEntity
  8
0
 62
5
100
AcDbSpline
 70
0
 71
3
 72
10
 73
6
 74
4
 40
0.000000
 40
0.000000
 40
0.000000
 40
0.000000
 40
1.754129
 40
3.597990
 40
5.352119
 40
5.352119
 40
5.352119
 40
5.352119
 10
219.407455
 20
335.475686
 30
0.0
 10
219.677044
 20
336.000183
 30
0.0
 10
220.230014
 20
337.076008
 30
0.0
 10
220.230014
 20
338.955386
 30
0.0
 10
219.677044
 20
340.031211
 30
0.0
 10
219.407455
 20
340.555708
 30
0.0
 11
219.407455
 21
335.475686
 31
0.0
 11
220.084790
 21
337.093767
 31
0.0
 11
220.084790
 21
338.937627
 31
0.0
 11
219.407455
 21
340.555708
 31
0.0
  0
LWPOLYLINE
  5
202
100
AcDbEntity
  8
0
 62
5
100
AcDbPolyline
 90
4
 70
0
 10
217.036777
 20
329.548994
 30
0.0
 10
217.036777
 20
335.475686
 30
0.0
 10
217.375446
 20
335.475686
 30
0.0
 10
217.375446
 20
334.459680
 30
0.0
  0
LWPOLYLINE
  5
203
100
AcDbEntity
  8
0
 62
5
100
AcDbPolyline
 90
4
 70
0
 10
217.375446
 20
341.571711
 30
0.0
 10
217.375446
 20
340.555708
 30
0.0
 10
217.036777
 20
340.555708
 30
0.0
 10
217.036777
 20
346.482400
 30
0.0
  0
LWPOLYLINE
  5
204
100
AcDbEntity
  8
0
 62
1
100
AcDbPolyline
 90
2
 70
0
 10
217.036777
 20
336.661025
 30
0.0
 10
217.036777
 20
339.370369
 30
0.0
  0
LWPOLYLINE
  5
205
100
AcDbEntity
  8
0
 62
5
100
AcDbPolyline
 90
4
 70
0
 10
202.371099
 20
338.015166
 30
0.0
 10
203.695461
 20
342.495091
 30
0.0
 10
212.494868
 20
347.575430
 30
0.0
 10
217.036777
 20
346.482400
 30
0.0
  0
LWPOLYLINE
  5
206
100
AcDbEntity
  8
0
 62
5
100
AcDbPolyline
 90
4
 70
0
 10
206.731506
 20
339.946021
 30
0.0
 10
206.894771
 20
341.017994
 30
0.0
 10
212.174415
 20
344.066197
 30
0.0
 10
213.184404
 20
343.671603
 30
0.0
  0
LWPOLYLINE
  5
207
100
AcDbEntity
  8
0
 62
1
100
AcDbPolyline
 90
2
 70
0
 10
202.371099
 20
338.015166
 30
0.0
 10
206.477489
 20
340.385991
 30
0.0
  0
LWPOLYLINE
  5
208
100
AcDbEntity
  8
0
 62
1
100
AcDbPolyline
 90
2
 70
0
 10
217.036777
 20
346.482400
 30
0.0
 10
212.930387
 20
344.111573
 30
0.0
  0
SPLINE
  5
209
100
AcDbEntity
  8
0
 62
5
100
AcDbSpline
 70
0
 71
3
 72
10
 73
6
 74
4
 40
0.000000
 40
0.000000
 40
0.000000
 40
0.000000
 40
1.046216
 40
1.927106
 40
2.310856
 40
2.310856
 40
2.310856
 40
2.310856
 10
219.407455
 20
340.555708
 30
0.0
 10
219.145316
 20
340.791467
 30
0.0
 10
218.662463
 20
341.225728
 30
0.0
 10
217.914860
 20
341.471560
 30
0.0
 10
217.501023
 20
341.548396
 30
0.0
 10
217.375446
 20
341.571711
 30
0.0
 11
219.407455
 21
340.555708
 31
0.0
 11
218.579600
 21
341.195414
 31
0.0
 11
217.751744
 21
341.496452
 31
0.0
 11
217.375446
 21
341.571711
 31
0.0
  0
SPLINE
  5
20a
100
AcDbEntity
  8
0
 62
5
100
AcDbSpline
 70
0
 71
3
 72
10
 73
6
 74
4
 40
0.000000
 40
0.000000
 40
0.000000
 40
0.000000
 40
0.383749
 40
1.264638
 40
2.310852
 40
2.310852
 40
2.310852
 40
2.310852
 10
201.681091
 20
342.889443
 30
0.0
 10
201.799076
 20
342.938358
 30
0.0
 10
202.187893
 20
343.099557
 30
0.0
 10
202.868047
 20
343.495452
 30
0.0
 10
203.250059
 20
344.020614
 30
0.0
 10
203.457452
 20
344.305722
 30
0.0
 11
201.681091
 21
342.889443
 31
0.0
 11
202.033518
 21
343.041295
 31
0.0
 11
202.780691
 21
343.507875
 31
0.0
 11
203.457452
 21
344.305722
 31
0.0
  0
SPLINE
  5
20b
100
AcDbEntity
  8
0
 62
5
100
AcDbSpline
 70
0
 71
3
 72
10
 73
6
 74
4
 40
0.000000
 40
0.000000
 40
0.000000
 40
0.000000
 40
1.754125
 40
3.597981
 40
5.352107
 40
5.352107
 40
5.352107
 40
5.352107
 10
203.457452
 20
344.305722
 30
0.0
 10
203.612101
 20
344.874807
 30
0.0
 10
203.929310
 20
346.042089
 30
0.0
 10
203.538566
 20
347.880394
 30
0.0
 10
202.774005
 20
348.817738
 30
0.0
 10
202.401257
 20
349.274721
 30
0.0
 11
203.457452
 21
344.305722
 31
0.0
 11
203.783568
 21
346.029266
 31
0.0
 11
203.400209
 21
347.832829
 31
0.0
 11
202.401257
 21
349.274721
 31
0.0
  0
LWPOLYLINE
  5
20c
100
AcDbEntity
  8
0
 62
5
100
AcDbPolyline
 90
4
 70
0
 10
202.370811
 20
338.015663
 30
0.0
 10
201.138587
 20
343.812829
 30
0.0
 10
201.469851
 20
343.883244
 30
0.0
 10
201.681091
 20
342.889443
 30
0.0
  0
LWPOLYLINE
  5
20d
100
AcDbEntity
  8
0
 62
5
100
AcDbPolyline
 90
4
 70
0
 10
200.202419
 20
349.846043
 30
0.0
 10
200.413660
 20
348.852243
 30
0.0
 10
200.082393
 20
348.781831
 30
0.0
 10
198.850165
 20
354.578998
 30
0.0
  0
LWPOLYLINE
  5
20e
100
AcDbEntity
  8
0
 62
1
100
AcDbPolyline
 90
2
 70
0
 10
200.892139
 20
344.972263
 30
0.0
 10
200.328838
 20
347.622398
 30
0.0
  0
LWPOLYLINE
  5
20f
100
AcDbEntity
  8
0
 62
5
100
AcDbPolyline
 90
4
 70
0
 10
182.010499
 20
356.348985
 30
0.0
 10
185.714761
 20
359.194573
 30
0.0
 10
195.818687
 20
358.132607
 30
0.0
 10
198.850371
 20
354.579043
 30
0.0
  0
LWPOLYLINE
  5
210
100
AcDbEntity
  8
0
 62
5
100
AcDbPolyline
 90
4
 70
0
 10
186.672564
 20
355.348205
 30
0.0
 10
187.434657
 20
356.119400
 30
0.0
 10
193.497011
 20
355.482222
 30
0.0
 10
194.082108
 20
354.569430
 30
0.0
  0
LWPOLYLINE
  5
211
100
AcDbEntity
  8
0
 62
1
100
AcDbPolyline
 90
2
 70
0
 10
182.010499
 20
356.348985
 30
0.0
 10
186.725664
 20
355.853400
 30
0.0
  0
LWPOLYLINE
  5
212
100
AcDbEntity
  8
0
 62
1
100
AcDbPolyline
 90
2
 70
0
 10
198.850371
 20
354.579043
 30
0.0
 10
194.135208
 20
355.074628
 30
0.0
  0
SPLINE
  5
213
100
AcDbEntity
  8
0
 62
5
100
AcDbSpline
 70
0
 71
3
 72
10
 73
6
 74
4
 40
0.000000
 40
0.000000
 40
0.000000
 40
0.000000
 40
1.046213
 40
1.927102
 40
2.310852
 40
2.310852
 40
2.310852
 40
2.310852
 10
202.401257
 20
349.274721
 30
0.0
 10
202.095831
 20
349.450826
 30
0.0
 10
201.533243
 20
349.775206
 30
0.0
 10
200.750867
 20
349.860231
 30
0.0
 10
200.330099
 20
349.849346
 30
0.0
 10
200.202419
 20
349.846043
 30
0.0
 11
202.401257
 21
349.274721
 31
0.0
 11
201.458493
 21
349.728327
 31
0.0
 11
200.586141
 21
349.850665
 31
0.0
 11
200.202419
 21
349.846043
 31
0.0
  0
SPLINE
  5
214
100
AcDbEntity
  8
0
 62
5
100
AcDbSpline
 70
0
 71
3
 72
10
 73
6
 74
4
 40
0.000000
 40
0.000000
 40
0.000000
 40
0.000000
 40
0.168286
 40
0.650182
 40
1.455493
 40
1.455493
 40
1.455493
 40
1.455493
 10
178.188538
 20
348.597408
 30
0.0
 10
178.151866
 20
348.639951
 30
0.0
 10
178.010181
 20
348.804322
 30
0.0
 10
177.797290
 20
349.250589
 30
0.0
 10
177.721213
 20
349.673951
 30
0.0
 10
177.673618
 20
349.938818
 30
0.0
 11
178.188538
 21
348.597408
 31
0.0
 11
178.081643
 21
348.727382
 31
0.0
 11
177.860320
 21
349.155448
 31
0.0
 11
177.673618
 21
349.938818
 31
0.0
  0
SPLINE
  5
215
100
AcDbEntity
  8
0
 62
5
100
AcDbSpline
 70
0
 71
3
 72
10
 73
6
 74
4
 40
0.000000
 40
0.000000
 40
0.000000
 40
0.000000
 40
1.568768
 40
3.234008
 40
4.770399
 40
4.770399
 40
4.770399
 40
4.770399
 10
177.673618
 20
349.938818
 30
0.0
 10
177.717463
 20
350.459996
 30
0.0
 10
177.807851
 20
351.534403
 30
0.0
 10
178.033169
 20
353.109234
 30
0.0
 10
178.210549
 20
354.161559
 30
0.0
 10
178.295670
 20
354.666546
 30
0.0
 11
177.673618
 21
349.938818
 31
0.0
 11
177.819829
 21
351.500758
 31
0.0
 11
178.046331
 21
353.150522
 31
0.0
 11
178.295670
 21
354.666546
 31
0.0
  0
LWPOLYLINE
  5
216
100
AcDbEntity
  8
0
 62
5
100
AcDbPolyline
 90
4
 70
0
 10
175.123091
 20
340.879660
 30
0.0
 10
178.911171
 20
349.387825
 30
0.0
 10
178.601782
 20
349.525572
 30
0.0
 10
178.188538
 20
348.597408
 30
0.0
  0
LWPOLYLINE
  5
217
100
AcDbEntity
  8
0
 62
5
100
AcDbPolyline
 90
4
 70
0
 10
181.081251
 20
355.094553
 30
0.0
 10
180.668007
 20
354.166389
 30
0.0
 10
180.977393
 20
354.028642
 30
0.0
 10
182.010507
 20
356.349047
 30
0.0
  0
LWPOLYLINE
  5
218
100
AcDbEntity
  8
0
 62
1
100
AcDbPolyline
 90
2
 70
0
 10
179.393288
 20
350.470680
 30
0.0
 10
180.495276
 20
352.945783
 30
0.0
  0
LWPOLYLINE
  5
219
100
AcDbEntity
  8
0
 62
5
100
AcDbPolyline
 90
7
 70
0
 10
175.123040
 20
340.879683
 30
0.0
 10
174.241672
 20
339.394703
 30
0.0
 10
175.613348
 20
338.387497
 30
0.0
 10
176.909829
 20
338.815139
 30
0.0
 10
176.658154
 20
339.041747
 30
0.0
 10
176.884762
 20
339.293421
 30
0.0
 10
187.706768
 20
329.549245
 30
0.0
  0
LWPOLYLINE
  5
21a
100
AcDbEntity
  8
0
 62
1
100
AcDbPolyline
 90
2
 70
0
 10
175.626389
 20
340.426467
 30
0.0
 10
176.381413
 20
339.746639
 30
0.0
  0
LWPOLYLINE
  5
21b
100
AcDbEntity
  8
0
 62
5
100
AcDbPolyline
 90
8
 70
0
 10
187.706542
 20
329.548994
 30
0.0
 10
177.441476
 20
335.475531
 30
0.0
 10
177.740843
 20
336.671368
 30
0.0
 10
176.359069
 20
337.664661
 30
0.0
 10
175.117862
 20
337.208121
 30
0.0
 10
175.411150
 20
337.038790
 30
0.0
 10
175.241819
 20
336.745505
 30
0.0
 10
173.042162
 20
338.015477
 30
0.0
  0
LWPOLYLINE
  5
21c
100
AcDbEntity
  8
0
 62
1
100
AcDbPolyline
 90
2
 70
0
 10
176.854903
 20
335.814192
 30
0.0
 10
175.828396
 20
336.406844
 30
0.0
  0
LWPOLYLINE
  5
21d
100
AcDbEntity
  8
0
 62
5
100
AcDbPolyline
 90
5
 70
0
 10
173.042272
 20
354.949067
 30
0.0
 10
176.090286
 20
353.255728
 30
0.0
 10
174.904948
 20
343.095686
 30
0.0
 10
173.042272
 20
341.402344
 30
0.0
 10
173.042272
 20
338.015663
 30
0.0
  0
LWPOLYLINE
  5
21e
100
AcDbEntity
  8
0
 62
5
100
AcDbPolyline
 90
4
 70
0
 10
172.534270
 20
353.594395
 30
0.0
 10
173.380942
 20
352.917059
 30
0.0
 10
173.380942
 20
346.821033
 30
0.0
 10
172.534270
 20
346.143697
 30
0.0
  0
LWPOLYLINE
  5
21f
100
AcDbEntity
  8
0
 62
1
100
AcDbPolyline
 90
2
 70
0
 10
173.042272
 20
354.949067
 30
0.0
 10
173.042272
 20
353.594395
 30
0.0
  0
LWPOLYLINE
  5
220
100
AcDbEntity
  8
0
 62
1
100
AcDbPolyline
 90
2
 70
0
 10
173.042272
 20
341.402344
 30
0.0
 10
173.042272
 20
346.143697
 30
0.0
  0
SPLINE
  5
221
100
AcDbEntity
  8
0
 62
5
100
AcDbSpline
 70
0
 71
3
 72
10
 73
6
 74
4
 40
0.000000
 40
0.000000
 40
0.000000
 40
0.000000
 40
1.197286
 40
2.328491
 40
2.836647
 40
2.836647
 40
2.836647
 40
2.836647
 10
178.295670
 20
354.666546
 30
0.0
 10
178.675225
 20
354.795706
 30
0.0
 10
179.413386
 20
355.046899
 30
0.0
 10
180.366032
 20
355.098584
 30
0.0
 10
180.912012
 20
355.095506
 30
0.0
 10
181.081251
 20
355.094553
 30
0.0
 11
178.295670
 21
354.666546
 31
0.0
 11
179.445922
 21
354.998832
 31
0.0
 11
180.573096
 21
355.094248
 31
0.0
 11
181.081251
 21
355.094553
 31
0.0
  0
SPLINE
  5
222
100
AcDbEntity
  8
0
 62
5
100
AcDbSpline
 70
0
 71
3
 72
10
 73
6
 74
4
 40
0.000000
 40
0.000000
 40
0.000000
 40
0.000000
 40
0.383750
 40
1.264641
 40
2.310858
 40
2.310858
 40
2.310858
 40
2.310858
 10
162.460957
 20
349.231005
 30
0.0
 10
162.418360
 20
349.351416
 30
0.0
 10
162.277984
 20
349.748227
 30
0.0
 10
162.117080
 20
350.518587
 30
0.0
 10
162.251735
 20
351.153881
 30
0.0
 10
162.324838
 20
351.498779
 30
0.0
 11
162.460957
 21
349.231005
 31
0.0
 11
162.337985
 21
349.594518
 31
0.0
 11
162.184764
 21
350.461981
 31
0.0
 11
162.324838
 21
351.498779
 31
0.0
  0
SPLINE
  5
223
100
AcDbEntity
  8
0
 62
5
100
AcDbSpline
 70
0
 71
3
 72
10
 73
6
 74
4
 40
0.000000
 40
0.000000
 40
0.000000
 40
0.000000
 40
1.754129
 40
3.597989
 40
5.352120
 40
5.352120
 40
5.352120
 40
5.352120
 10
162.324838
 20
351.498779
 30
0.0
 10
162.644271
 20
351.994499
 30
0.0
 10
163.299478
 20
353.011297
 30
0.0
 10
164.927068
 20
353.950986
 30
0.0
 10
166.135245
 20
354.010013
 30
0.0
 10
166.724268
 20
354.038790
 30
0.0
 11
162.324838
 21
351.498779
 31
0.0
 11
163.387469
 21
352.894409
 31
0.0
 11
164.984300
 21
353.816339
 31
0.0
 11
166.724268
 21
354.038790
 31
0.0
  0
LWPOLYLINE
  5
224
100
AcDbEntity
  8
0
 62
5
100
AcDbPolyline
 90
4
 70
0
 10
158.377512
 20
346.482367
 30
0.0
 10
163.510177
 20
349.445711
 30
0.0
 10
163.340844
 20
349.739008
 30
0.0
 10
162.460957
 20
349.231005
 30
0.0
  0
LWPOLYLINE
  5
225
100
AcDbEntity
  8
0
 62
5
100
AcDbPolyline
 90
4
 70
0
 10
168.620158
 20
352.787019
 30
0.0
 10
167.740271
 20
352.279019
 30
0.0
 10
167.909604
 20
351.985722
 30
0.0
 10
173.042270
 20
354.949070
 30
0.0
  0
LWPOLYLINE
  5
226
100
AcDbEntity
  8
0
 62
1
100
AcDbPolyline
 90
2
 70
0
 10
164.536710
 20
350.038381
 30
0.0
 10
166.883072
 20
351.393053
 30
0.0
  0
LWPOLYLINE
  5
227
100
AcDbEntity
  8
0
 62
5
100
AcDbPolyline
 90
4
 70
0
 10
158.377492
 20
346.482400
 30
0.0
 10
153.835896
 20
347.575357
 30
0.0
 10
145.037099
 20
342.495368
 30
0.0
 10
143.712830
 20
338.015753
 30
0.0
  0
LWPOLYLINE
  5
228
100
AcDbEntity
  8
0
 62
5
100
AcDbPolyline
 90
4
 70
0
 10
154.525387
 20
343.671800
 30
0.0
 10
153.515466
 20
344.066367
 30
0.0
 10
148.236189
 20
341.018375
 30
0.0
 10
148.072935
 20
339.946475
 30
0.0
  0
LWPOLYLINE
  5
229
100
AcDbEntity
  8
0
 62
1
100
AcDbPolyline
 90
2
 70
0
 10
158.377492
 20
346.482400
 30
0.0
 10
154.271387
 20
344.111739
 30
0.0
  0
LWPOLYLINE
  5
22a
100
AcDbEntity
  8
0
 62
1
100
AcDbPolyline
 90
2
 70
0
 10
143.712830
 20
338.015753
 30
0.0
 10
147.818935
 20
340.386415
 30
0.0
  0
SPLINE
  5
22b
100
AcDbEntity
  8
0
 62
5
100
AcDbSpline
 70
0
 71
3
 72
10
 73
6
 74
4
 40
0.000000
 40
0.000000
 40
0.000000
 40
0.000000
 40
1.046217
 40
1.927108
 40
2.310858
 40
2.310858
 40
2.310858
 40
2.310858
 10
166.724268
 20
354.038790
 30
0.0
 10
167.059510
 20
353.929650
 30
0.0
 10
167.677018
 20
353.728617
 30
0.0
 10
168.263717
 20
353.204089
 30
0.0
 10
168.537177
 20
352.884114
 30
0.0
 10
168.620158
 20
352.787019
 30
0.0
 11
166.724268
 21
354.038790
 31
0.0
 11
167.692197
 21
353.641698
 31
0.0
 11
168.366832
 21
353.075273
 31
0.0
 11
168.620158
 21
352.787019
 31
0.0
  0
SPLINE
  5
22c
100
AcDbEntity
  8
0
 62
5
100
AcDbSpline
 70
0
 71
3
 72
10
 73
6
 74
4
 40
0.000000
 40
0.000000
 40
0.000000
 40
0.000000
 40
0.383747
 40
1.264631
 40
2.310838
 40
2.310838
 40
2.310838
 40
2.310838
 10
153.955440
 20
331.711064
 30
0.0
 10
153.872460
 20
331.613970
 30
0.0
 10
153.599002
 20
331.293998
 30
0.0
 10
153.012308
 20
330.769474
 30
0.0
 10
152.394805
 20
330.568443
 30
0.0
 10
152.059567
 20
330.459304
 30
0.0
 11
153.955440
 21
331.711064
 31
0.0
 11
153.702116
 21
331.422813
 31
0.0
 11
153.027487
 21
330.856392
 31
0.0
 11
152.059567
 21
330.459304
 31
0.0
  0
SPLINE
  5
22d
100
AcDbEntity
  8
0
 62
5
100
AcDbSpline
 70
0
 71
3
 72
10
 73
6
 74
4
 40
0.000000
 40
0.000000
 40
0.000000
 40
0.000000
 40
1.754115
 40
3.597959
 40
5.352073
 40
5.352073
 40
5.352073
 40
5.352073
 10
152.059567
 20
330.459304
 30
0.0
 10
151.470549
 20
330.488081
 30
0.0
 10
150.262382
 20
330.547107
 30
0.0
 10
148.634807
 20
331.486788
 30
0.0
 10
147.979607
 20
332.503577
 30
0.0
 10
147.660177
 20
332.999293
 30
0.0
 11
152.059567
 21
330.459304
 31
0.0
 11
150.319614
 21
330.681753
 31
0.0
 11
148.722798
 21
331.603675
 31
0.0
 11
147.660177
 21
332.999293
 31
0.0
  0
LWPOLYLINE
  5
22e
100
AcDbEntity
  8
0
 62
5
100
AcDbPolyline
 90
4
 70
0
 10
158.377515
 20
329.549033
 30
0.0
 10
153.244894
 20
332.512352
 30
0.0
 10
153.075561
 20
332.219061
 30
0.0
 10
153.955440
 20
331.711064
 30
0.0
  0
LWPOLYLINE
  5
22f
100
AcDbEntity
  8
0
 62
5
100
AcDbPolyline
 90
4
 70
0
 10
147.796292
 20
335.267047
 30
0.0
 10
148.676171
 20
334.759050
 30
0.0
 10
148.845504
 20
335.052341
 30
0.0
 10
143.712881
 20
338.015663
 30
0.0
  0
LWPOLYLINE
  5
230
100
AcDbEntity
  8
0
 62
1
100
AcDbPolyline
 90
2
 70
0
 10
152.218370
 20
333.105016
 30
0.0
 10
149.872028
 20
334.459677
 30
0.0
  0
LWPOLYLINE
  5
231
100
AcDbEntity
  8
0
 62
5
100
AcDbPolyline
 90
5
 70
0
 10
158.377495
 20
329.548997
 30
0.0
 10
158.319964
 20
326.062669
 30
0.0
 10
167.711487
 20
322.009180
 30
0.0
 10
170.109301
 20
322.775634
 30
0.0
 10
173.042253
 20
321.082293
 30
0.0
  0
LWPOLYLINE
  5
232
100
AcDbEntity
  8
0
 62
5
100
AcDbPolyline
 90
4
 70
0
 10
159.804676
 20
329.311602
 30
0.0
 10
159.967930
 20
328.239697
 30
0.0
 10
165.247244
 20
325.191684
 30
0.0
 10
166.257170
 20
325.586252
 30
0.0
  0
LWPOLYLINE
  5
233
100
AcDbEntity
  8
0
 62
1
100
AcDbPolyline
 90
2
 70
0
 10
158.377495
 20
329.548997
 30
0.0
 10
159.550673
 20
328.871660
 30
0.0
  0
LWPOLYLINE
  5
234
100
AcDbEntity
  8
0
 62
1
100
AcDbPolyline
 90
2
 70
0
 10
170.109301
 20
322.775634
 30
0.0
 10
166.003168
 20
325.146310
 30
0.0
  0
LWPOLYLINE
  5
235
100
AcDbEntity
  8
0
 62
5
100
AcDbPolyline
 90
8
 70
0
 10
173.042272
 20
304.148988
 30
0.0
 10
173.042272
 20
316.002325
 30
0.0
 10
171.856939
 20
316.340991
 30
0.0
 10
171.687606
 20
318.034325
 30
0.0
 10
172.703606
 20
318.880992
 30
0.0
 10
172.703606
 20
318.542325
 30
0.0
 10
173.042272
 20
318.542325
 30
0.0
 10
173.042272
 20
321.082326
 30
0.0
  0
LWPOLYLINE
  5
236
100
AcDbEntity
  8
0
 62
1
100
AcDbPolyline
 90
2
 70
0
 10
173.042272
 20
316.679658
 30
0.0
 10
173.042272
 20
317.864992
 30
0.0
  0
LWPOLYLINE
  5
237
100
AcDbEntity
  8
0
 62
5
100
AcDbPolyline
 90
7
 70
0
 10
169.521626
 20
320.712325
 30
0.0
 10
171.248372
 20
320.733122
 30
0.0
 10
171.434805
 20
319.041582
 30
0.0
 10
170.416197
 20
318.132603
 30
0.0
 10
170.345783
 20
318.463870
 30
0.0
 10
170.014516
 20
318.393457
 30
0.0
 10
173.042272
 20
304.148987
 30
0.0
  0
LWPOLYLINE
  5
238
100
AcDbEntity
  8
0
 62
1
100
AcDbPolyline
 90
2
 70
0
 10
169.662452
 20
320.049791
 30
0.0
 10
169.873690
 20
319.055991
 30
0.0
  0
SPLINE
  5
239
100
AcDbEntity
  8
0
 62
5
100
AcDbSpline
 70
0
 71
3
 72
10
 73
6
 74
4
 40
0.000000
 40
0.000000
 40
0.000000
 40
0.000000
 40
1.046208
 40
1.927091
 40
2.310838
 40
2.310838
 40
2.310838
 40
2.310838
 10
147.660177
 20
332.999293
 30
0.0
 10
147.587074
 20
333.344188
 30
0.0
 10
147.452420
 20
333.979477
 30
0.0
 10
147.613322
 20
334.749830
 30
0.0
 10
147.753696
 20
335.146638
 30
0.0
 10
147.796292
 20
335.267047
 30
0.0
 11
147.660177
 21
332.999293
 31
0.0
 11
147.520103
 21
334.036082
 31
0.0
 11
147.673322
 21
334.903537
 31
0.0
 11
147.796292
 21
335.267047
 31
0.0
  0
SPLINE
  5
23a
100
AcDbEntity
  8
0
 62
5
100
AcDbSpline
 70
0
 71
3
 72
10
 73
6
 74
4
 40
0.000000
 40
0.000000
 40
0.000000
 40
0.000000
 40
0.168285
 40
0.650178
 40
1.455486
 40
1.455486
 40
1.455486
 40
1.455486
 10
161.305192
 20
321.916451
 30
0.0
 10
161.286684
 20
321.969481
 30
0.0
 10
161.215178
 20
322.174368
 30
0.0
 10
160.935146
 20
322.581869
 30
0.0
 10
160.606543
 20
322.859433
 30
0.0
 10
160.400960
 20
323.033085
 30
0.0
 11
161.305192
 21
321.916451
 31
0.0
 11
161.246079
 21
322.074011
 31
0.0
 11
160.986025
 21
322.479713
 31
0.0
 11
160.400960
 21
323.033085
 31
0.0
  0
SPLINE
  5
23b
100
AcDbEntity
  8
0
 62
5
100
AcDbSpline
 70
0
 71
3
 72
10
 73
6
 74
4
 40
0.000000
 40
0.000000
 40
0.000000
 40
0.000000
 40
1.568764
 40
3.233999
 40
4.770386
 40
4.770386
 40
4.770386
 40
4.770386
 10
160.400960
 20
323.033085
 30
0.0
 10
159.927686
 20
323.255702
 30
0.0
 10
158.952032
 20
323.714627
 30
0.0
 10
157.475533
 20
324.306910
 30
0.0
 10
156.475506
 20
324.679455
 30
0.0
 10
155.995616
 20
324.858231
 30
0.0
 11
160.400960
 21
323.033085
 31
0.0
 11
158.975179
 21
323.687431
 31
0.0
 11
157.433195
 21
324.316155
 31
0.0
 11
155.995616
 21
324.858231
 31
0.0
  0
LWPOLYLINE
  5
23c
100
AcDbEntity
  8
0
 62
5
100
AcDbPolyline
 90
4
 70
0
 10
169.521660
 20
320.712334
 30
0.0
 10
160.259361
 20
321.685841
 30
0.0
 10
160.294760
 20
322.022652
 30
0.0
 10
161.305192
 20
321.916451
 30
0.0
  0
LWPOLYLINE
  5
23d
100
AcDbEntity
  8
0
 62
5
100
AcDbPolyline
 90
4
 70
0
 10
154.232164
 20
322.659856
 30
0.0
 10
155.242596
 20
322.553656
 30
0.0
 10
155.207197
 20
322.216845
 30
0.0
 10
152.681113
 20
322.482347
 30
0.0
  0
LWPOLYLINE
  5
23e
100
AcDbEntity
  8
0
 62
1
100
AcDbPolyline
 90
2
 70
0
 10
159.080522
 20
321.809742
 30
0.0
 10
156.386033
 20
322.092944
 30
0.0
  0
LWPOLYLINE
  5
23f
100
AcDbEntity
  8
0
 62
5
100
AcDbPolyline
 90
5
 70
0
 10
152.681119
 20
322.482374
 30
0.0
 10
149.207872
 20
322.175168
 30
0.0
 10
146.158266
 20
312.411371
 30
0.0
 10
147.171162
 20
310.106806
 30
0.0
 10
145.793672
 20
307.012914
 30
0.0
  0
LWPOLYLINE
  5
240
100
AcDbEntity
  8
0
 62
5
100
AcDbPolyline
 90
4
 70
0
 10
152.594206
 20
321.038193
 30
0.0
 10
151.545236
 20
320.763787
 30
0.0
 10
149.065756
 20
315.194782
 30
0.0
 10
149.563729
 20
314.231631
 30
0.0
  0
LWPOLYLINE
  5
241
100
AcDbEntity
  8
0
 62
1
100
AcDbPolyline
 90
2
 70
0
 10
152.681119
 20
322.482374
 30
0.0
 10
152.130122
 20
321.244817
 30
0.0
  0
LWPOLYLINE
  5
242
100
AcDbEntity
  8
0
 62
1
100
AcDbPolyline
 90
2
 70
0
 10
147.171162
 20
310.106806
 30
0.0
 10
149.099645
 20
314.438255
 30
0.0
  0
LWPOLYLINE
  5
243
100
AcDbEntity
  8
0
 62
5
100
AcDbPolyline
 90
8
 70
0
 10
158.377523
 20
295.682352
 30
0.0
 10
149.568812
 20
303.613751
 30
0.0
 10
148.523994
 20
302.959491
 30
0.0
 10
147.152304
 20
303.966709
 30
0.0
 10
147.202943
 20
305.288270
 30
0.0
 10
147.454620
 20
305.061659
 30
0.0
 10
147.681230
 20
305.313336
 30
0.0
 10
145.793652
 20
307.012922
 30
0.0
  0
LWPOLYLINE
  5
244
100
AcDbEntity
  8
0
 62
1
100
AcDbPolyline
 90
2
 70
0
 10
149.065457
 20
304.066974
 30
0.0
 10
148.184588
 20
304.860114
 30
0.0
  0
LWPOLYLINE
  5
245
100
AcDbEntity
  8
0
 62
5
100
AcDbPolyline
 90
7
 70
0
 10
143.712859
 20
304.148948
 30
0.0
 10
144.852816
 20
305.446079
 30
0.0
 10
146.234613
 20
304.452769
 30
0.0
 10
146.228545
 20
303.087580
 30
0.0
 10
145.935251
 20
303.256912
 30
0.0
 10
145.765921
 20
302.963620
 30
0.0
 10
158.377503
 20
295.682319
 30
0.0
  0
LWPOLYLINE
  5
246
100
AcDbEntity
  8
0
 62
1
100
AcDbPolyline
 90
2
 70
0
 10
144.299446
 20
303.810283
 30
0.0
 10
145.179322
 20
303.302285
 30
0.0
  0
SPLINE
  5
247
100
AcDbEntity
  8
0
 62
5
100
AcDbSpline
 70
0
 71
3
 72
10
 73
6
 74
4
 40
0.000000
 40
0.000000
 40
0.000000
 40
0.000000
 40
1.197284
 40
2.328486
 40
2.836640
 40
2.836640
 40
2.836640
 40
2.836640
 10
155.995616
 20
324.858231
 30
0.0
 10
155.693982
 20
324.594108
 30
0.0
 10
155.107364
 20
324.080440
 30
0.0
 10
154.586282
 20
323.281268
 30
0.0
 10
154.315957
 20
322.806898
 30
0.0
 10
154.232164
 20
322.659856
 30
0.0
 11
155.995616
 21
324.858231
 31
0.0
 11
155.132723
 21
324.028229
 31
0.0
 11
154.486505
 21
323.099779
 31
0.0
 11
154.232164
 21
322.659856
 31
0.0
  0
SPLINE
  5
248
100
AcDbEntity
  8
0
 62
5
100
AcDbSpline
 70
0
 71
3
 72
10
 73
6
 74
4
 40
0.000000
 40
0.000000
 40
0.000000
 40
0.000000
 40
0.168285
 40
0.650179
 40
1.455489
 40
1.455489
 40
1.455489
 40
1.455489
 10
144.051551
 20
312.446324
 30
0.0
 10
144.102356
 20
312.470273
 30
0.0
 10
144.298646
 20
312.562805
 30
0.0
 10
144.674643
 20
312.883898
 30
0.0
 10
144.916339
 20
313.239715
 30
0.0
 10
145.067551
 20
313.462324
 30
0.0
 11
144.051551
 21
312.446324
 31
0.0
 11
144.202069
 21
312.521583
 31
0.0
 11
144.578365
 21
312.822620
 31
0.0
 11
145.067551
 21
313.462324
 31
0.0
  0
SPLINE
  5
249
100
AcDbEntity
  8
0
 62
5
100
AcDbSpline
 70
0
 71
3
 72
10
 73
6
 74
4
 40
0.000000
 40
0.000000
 40
0.000000
 40
0.000000
 40
1.568767
 40
3.234006
 40
4.770396
 40
4.770396
 40
4.770396
 40
4.770396
 10
145.067551
 20
313.462324
 30
0.0
 10
145.239478
 20
313.956277
 30
0.0
 10
145.593906
 20
314.974559
 30
0.0
 10
146.028609
 20
316.504883
 30
0.0
 10
146.294583
 20
317.538375
 30
0.0
 10
146.422217
 20
318.034325
 30
0.0
 11
145.067551
 21
313.462324
 31
0.0
 11
145.569279
 21
314.948695
 31
0.0
 11
146.033378
 21
316.547955
 31
0.0
 11
146.422217
 21
318.034325
 31
0.0
  0
LWPOLYLINE
  5
24a
100
AcDbEntity
  8
0
 62
5
100
AcDbPolyline
 90
4
 70
0
 10
143.712884
 20
304.148988
 30
0.0
 10
143.712884
 20
313.462324
 30
0.0
 10
144.051551
 20
313.462324
 30
0.0
 10
144.051551
 20
312.446324
 30
0.0
  0
LWPOLYLINE
  5
24b
100
AcDbEntity
  8
0
 62
5
100
AcDbPolyline
 90
4
 70
0
 10
144.051551
 20
319.558326
 30
0.0
 10
144.051551
 20
318.542325
 30
0.0
 10
143.712884
 20
318.542325
 30
0.0
 10
143.712884
 20
321.082326
 30
0.0
  0
LWPOLYLINE
  5
24c
100
AcDbEntity
  8
0
 62
1
100
AcDbPolyline
 90
2
 70
0
 10
143.712884
 20
314.647658
 30
0.0
 10
143.712884
 20
317.356992
 30
0.0
  0
LWPOLYLINE
  5
24d
100
AcDbEntity
  8
0
 62
5
100
AcDbPolyline
 90
4
 70
0
 10
129.048123
 20
312.615624
 30
0.0
 10
130.372400
 20
317.095268
 30
0.0
 10
139.171257
 20
322.175290
 30
0.0
 10
143.712884
 20
321.082326
 30
0.0
  0
LWPOLYLINE
  5
24e
100
AcDbEntity
  8
0
 62
5
100
AcDbPolyline
 90
4
 70
0
 10
133.408256
 20
314.546358
 30
0.0
 10
133.571513
 20
315.618264
 30
0.0
 10
138.850824
 20
318.666277
 30
0.0
 10
139.860751
 20
318.271707
 30
0.0
  0
LWPOLYLINE
  5
24f
100
AcDbEntity
  8
0
 62
1
100
AcDbPolyline
 90
2
 70
0
 10
129.048123
 20
312.615624
 30
0.0
 10
133.154256
 20
314.986300
 30
0.0
  0
LWPOLYLINE
  5
250
100
AcDbEntity
  8
0
 62
1
100
AcDbPolyline
 90
2
 70
0
 10
143.712884
 20
321.082326
 30
0.0
 10
139.606751
 20
318.711650
 30
0.0
  0
SPLINE
  5
251
100
AcDbEntity
  8
0
 62
5
100
AcDbSpline
 70
0
 71
3
 72
10
 73
6
 74
4
 40
0.000000
 40
0.000000
 40
0.000000
 40
0.000000
 40
1.197285
 40
2.328489
 40
2.836644
 40
2.836644
 40
2.836644
 40
2.836644
 10
146.422217
 20
318.034325
 30
0.0
 10
146.128011
 20
318.306698
 30
0.0
 10
145.555837
 20
318.836411
 30
0.0
 10
144.706575
 20
319.271103
 30
0.0
 10
144.206546
 20
319.490362
 30
0.0
 10
144.051551
 20
319.558326
 30
0.0
 11
146.422217
 21
318.034325
 31
0.0
 11
145.506563
 21
318.805733
 31
0.0
 11
144.515649
 21
319.351363
 31
0.0
 11
144.051551
 21
319.558326
 31
0.0
  0
SPLINE
  5
252
100
AcDbEntity
  8
0
 62
5
100
AcDbSpline
 70
0
 71
3
 72
10
 73
6
 74
4
 40
0.000000
 40
0.000000
 40
0.000000
 40
0.000000
 40
0.383747
 40
1.264630
 40
2.310837
 40
2.310837
 40
2.310837
 40
2.310837
 10
124.626029
 20
310.453628
 30
0.0
 10
124.543049
 20
310.550722
 30
0.0
 10
124.269590
 20
310.870694
 30
0.0
 10
123.682897
 20
311.395216
 30
0.0
 10
123.065394
 20
311.596247
 30
0.0
 10
122.730156
 20
311.705386
 30
0.0
 11
124.626029
 21
310.453628
 31
0.0
 11
124.372705
 21
310.741879
 31
0.0
 11
123.698076
 21
311.308299
 31
0.0
 11
122.730156
 21
311.705386
 31
0.0
  0
SPLINE
  5
253
100
AcDbEntity
  8
0
 62
5
100
AcDbSpline
 70
0
 71
3
 72
10
 73
6
 74
4
 40
0.000000
 40
0.000000
 40
0.000000
 40
0.000000
 40
1.754115
 40
3.597959
 40
5.352073
 40
5.352073
 40
5.352073
 40
5.352073
 10
122.730156
 20
311.705386
 30
0.0
 10
122.141138
 20
311.676609
 30
0.0
 10
120.932971
 20
311.617584
 30
0.0
 10
119.305396
 20
310.677903
 30
0.0
 10
118.650196
 20
309.661113
 30
0.0
 10
118.330766
 20
309.165397
 30
0.0
 11
122.730156
 21
311.705386
 31
0.0
 11
120.990203
 21
311.482938
 31
0.0
 11
119.393387
 21
310.561016
 31
0.0
 11
118.330766
 21
309.165397
 31
0.0
  0
LWPOLYLINE
  5
254
100
AcDbEntity
  8
0
 62
5
100
AcDbPolyline
 90
4
 70
0
 10
129.048104
 20
312.615658
 30
0.0
 10
123.915483
 20
309.652337
 30
0.0
 10
123.746150
 20
309.945630
 30
0.0
 10
124.626029
 20
310.453628
 30
0.0
  0
LWPOLYLINE
  5
255
100
AcDbEntity
  8
0
 62
5
100
AcDbPolyline
 90
4
 70
0
 10
118.466881
 20
306.897643
 30
0.0
 10
119.346760
 20
307.405641
 30
0.0
 10
119.516093
 20
307.112348
 30
0.0
 10
114.383473
 20
304.149028
 30
0.0
  0
LWPOLYLINE
  5
256
100
AcDbEntity
  8
0
 62
1
100
AcDbPolyline
 90
2
 70
0
 10
122.888959
 20
309.059673
 30
0.0
 10
120.542617
 20
307.705013
 30
0.0
  0
LWPOLYLINE
  5
257
100
AcDbEntity
  8
0
 62
5
100
AcDbPolyline
 90
4
 70
0
 10
129.048126
 20
295.682358
 30
0.0
 10
124.506541
 20
294.589404
 30
0.0
 10
115.707761
 20
299.669381
 30
0.0
 10
114.383493
 20
304.148987
 30
0.0
  0
LWPOLYLINE
  5
258
100
AcDbEntity
  8
0
 62
5
100
AcDbPolyline
 90
4
 70
0
 10
125.196027
 20
298.492953
 30
0.0
 10
124.186112
 20
298.098387
 30
0.0
 10
118.906843
 20
301.146373
 30
0.0
 10
118.743589
 20
302.218270
 30
0.0
  0
LWPOLYLINE
  5
259
100
AcDbEntity
  8
0
 62
1
100
AcDbPolyline
 90
2
 70
0
 10
129.048126
 20
295.682358
 30
0.0
 10
124.942030
 20
298.053014
 30
0.0
  0
LWPOLYLINE
  5
25a
100
AcDbEntity
  8
0
 62
1
100
AcDbPolyline
 90
2
 70
0
 10
114.383493
 20
304.148987
 30
0.0
 10
118.489592
 20
301.778331
 30
0.0
  0
SPLINE
  5
25b
100
AcDbEntity
  8
0
 62
5
100
AcDbSpline
 70
0
 71
3
 72
10
 73
6
 74
4
 40
0.000000
 40
0.000000
 40
0.000000
 40
0.000000
 40
1.046207
 40
1.927090
 40
2.310837
 40
2.310837
 40
2.310837
 40
2.310837
 10
118.330766
 20
309.165397
 30
0.0
 10
118.257663
 20
308.820502
 30
0.0
 10
118.123008
 20
308.185214
 30
0.0
 10
118.283911
 20
307.414861
 30
0.0
 10
118.424285
 20
307.018053
 30
0.0
 10
118.466881
 20
306.897643
 30
0.0
 11
118.330766
 21
309.165397
 31
0.0
 11
118.190692
 21
308.128609
 31
0.0
 11
118.343911
 21
307.261154
 31
0.0
 11
118.466881
 21
306.897643
 31
0.0
  0
SPLINE
  5
25c
100
AcDbEntity
  8
0
 62
5
100
AcDbSpline
 70
0
 71
3
 72
10
 73
6
 74
4
 40
0.000000
 40
0.000000
 40
0.000000
 40
0.000000
 40
0.168285
 40
0.650182
 40
1.455494
 40
1.455494
 40
1.455494
 40
1.455494
 10
136.357797
 20
291.071004
 30
0.0
 10
136.311654
 20
291.038980
 30
0.0
 10
136.133373
 20
290.915253
 30
0.0
 10
135.667298
 20
290.750176
 30
0.0
 10
135.238302
 20
290.718770
 30
0.0
 10
134.969910
 20
290.699121
 30
0.0
 11
136.357797
 21
291.071004
 31
0.0
 11
136.217361
 21
290.978281
 31
0.0
 11
135.768506
 21
290.802916
 31
0.0
 11
134.969910
 21
290.699121
 31
0.0
  0
SPLINE
  5
25d
100
AcDbEntity
  8
0
 62
5
100
AcDbSpline
 70
0
 71
3
 72
10
 73
6
 74
4
 40
0.000000
 40
0.000000
 40
0.000000
 40
0.000000
 40
1.568773
 40
3.234018
 40
4.770414
 40
4.770414
 40
4.770414
 40
4.770414
 10
134.969910
 20
290.699121
 30
0.0
 10
134.456169
 20
290.797204
 30
0.0
 10
133.397093
 20
290.999402
 30
0.0
 10
131.854435
 20
291.388102
 30
0.0
 10
130.826414
 20
291.674509
 30
0.0
 10
130.333090
 20
291.811950
 30
0.0
 11
134.969910
 21
290.699121
 31
0.0
 11
133.431806
 21
291.007798
 31
0.0
 11
131.814750
 21
291.405508
 31
0.0
 11
130.333090
 21
291.811950
 31
0.0
  0
LWPOLYLINE
  5
25e
100
AcDbEntity
  8
0
 62
5
100
AcDbPolyline
 90
4
 70
0
 10
143.712864
 20
287.215615
 30
0.0
 10
135.647247
 20
291.872302
 30
0.0
 10
135.477913
 20
291.579006
 30
0.0
 10
136.357797
 20
291.071004
 30
0.0
  0
LWPOLYLINE
  5
25f
100
AcDbEntity
  8
0
 62
5
100
AcDbPolyline
 90
4
 70
0
 10
130.198599
 20
294.627020
 30
0.0
 10
131.078484
 20
294.119017
 30
0.0
 10
131.247820
 20
294.412313
 30
0.0
 10
129.048104
 20
295.682318
 30
0.0
  0
LWPOLYLINE
  5
260
100
AcDbEntity
  8
0
 62
1
100
AcDbPolyline
 90
2
 70
0
 10
134.620714
 20
292.464971
 30
0.0
 10
132.274352
 20
293.819643
 30
0.0
  0
LWPOLYLINE
  5
261
100
AcDbEntity
  8
0
 62
5
100
AcDbPolyline
 90
7
 70
0
 10
143.712884
 20
287.215651
 30
0.0
 10
142.019551
 20
286.876984
 30
0.0
 10
142.188884
 20
285.183650
 30
0.0
 10
143.374217
 20
284.506317
 30
0.0
 10
143.374217
 20
284.844984
 30
0.0
 10
143.712884
 20
284.844984
 30
0.0
 10
143.712884
 20
270.282313
 30
0.0
  0
LWPOLYLINE
  5
262
100
AcDbEntity
  8
0
 62
1
100
AcDbPolyline
 90
2
 70
0
 10
143.712884
 20
286.538317
 30
0.0
 10
143.712884
 20
285.522317
 30
0.0
  0
LWPOLYLINE
  5
263
100
AcDbEntity
  8
0
 62
5
100
AcDbPolyline
 90
8
 70
0
 10
143.712884
 20
270.282313
 30
0.0
 10
141.248432
 20
281.876649
 30
0.0
 10
142.337451
 20
282.454361
 30
0.0
 10
142.151021
 20
284.145901
 30
0.0
 10
140.981187
 20
284.762829
 30
0.0
 10
141.051602
 20
284.431562
 30
0.0
 10
140.720335
 20
284.361149
 30
0.0
 10
140.192238
 20
286.845650
 30
0.0
  0
LWPOLYLINE
  5
264
100
AcDbEntity
  8
0
 62
1
100
AcDbPolyline
 90
2
 70
0
 10
141.107606
 20
282.539182
 30
0.0
 10
140.861161
 20
283.698616
 30
0.0
  0
LWPOLYLINE
  5
265
100
AcDbEntity
  8
0
 62
5
100
AcDbPolyline
 90
5
 70
0
 10
123.351558
 20
288.615686
 30
0.0
 10
125.354235
 20
291.470012
 30
0.0
 10
135.334762
 20
289.229143
 30
0.0
 10
136.824130
 20
287.199662
 30
0.0
 10
140.192272
 20
286.845656
 30
0.0
  0
LWPOLYLINE
  5
266
100
AcDbEntity
  8
0
 62
5
100
AcDbPolyline
 90
4
 70
0
 10
124.645714
 20
287.968862
 30
0.0
 10
125.407843
 20
288.740097
 30
0.0
 10
131.470502
 20
288.102886
 30
0.0
 10
132.055627
 20
287.190049
 30
0.0
  0
LWPOLYLINE
  5
267
100
AcDbEntity
  8
0
 62
1
100
AcDbPolyline
 90
2
 70
0
 10
123.351558
 20
288.615686
 30
0.0
 10
124.698814
 20
288.474084
 30
0.0
  0
LWPOLYLINE
  5
268
100
AcDbEntity
  8
0
 62
1
100
AcDbPolyline
 90
2
 70
0
 10
136.824130
 20
287.199662
 30
0.0
 10
132.108730
 20
287.695270
 30
0.0
  0
SPLINE
  5
269
100
AcDbEntity
  8
0
 62
5
100
AcDbSpline
 70
0
 71
3
 72
10
 73
6
 74
4
 40
0.000000
 40
0.000000
 40
0.000000
 40
0.000000
 40
1.197290
 40
2.328499
 40
2.836656
 40
2.836656
 40
2.836656
 40
2.836656
 10
130.333090
 20
291.811950
 30
0.0
 10
130.244311
 20
292.202928
 30
0.0
 10
130.071653
 20
292.963305
 30
0.0
 10
130.119830
 20
293.916137
 30
0.0
 10
130.179961
 20
294.458807
 30
0.0
 10
130.198599
 20
294.627020
 30
0.0
 11
130.333090
 21
291.811950
 31
0.0
 11
130.122858
 21
292.990639
 31
0.0
 11
130.145785
 21
294.121615
 31
0.0
 11
130.198599
 21
294.627020
 31
0.0
  0
SPLINE
  5
26a
100
AcDbEntity
  8
0
 62
5
100
AcDbSpline
 70
0
 71
3
 72
10
 73
6
 74
4
 40
0.000000
 40
0.000000
 40
0.000000
 40
0.000000
 40
0.168285
 40
0.650180
 40
1.455490
 40
1.455490
 40
1.455490
 40
1.455490
 10
119.529589
 20
280.864054
 30
0.0
 10
119.492917
 20
280.906598
 30
0.0
 10
119.351233
 20
281.070968
 30
0.0
 10
119.138343
 20
281.517234
 30
0.0
 10
119.062267
 20
281.940596
 30
0.0
 10
119.014672
 20
282.205463
 30
0.0
 11
119.529589
 21
280.864054
 31
0.0
 11
119.422694
 21
280.994028
 31
0.0
 11
119.201373
 21
281.422093
 31
0.0
 11
119.014672
 21
282.205463
 31
0.0
  0
SPLINE
  5
26b
100
AcDbEntity
  8
0
 62
5
100
AcDbSpline
 70
0
 71
3
 72
10
 73
6
 74
4
 40
0.000000
 40
0.000000
 40
0.000000
 40
0.000000
 40
1.568769
 40
3.234010
 40
4.770403
 40
4.770403
 40
4.770403
 40
4.770403
 10
119.014672
 20
282.205463
 30
0.0
 10
119.058516
 20
282.726641
 30
0.0
 10
119.148902
 20
283.801048
 30
0.0
 10
119.374220
 20
285.375881
 30
0.0
 10
119.551602
 20
286.428206
 30
0.0
 10
119.636723
 20
286.933193
 30
0.0
 11
119.014672
 21
282.205463
 31
0.0
 11
119.160881
 21
283.767404
 31
0.0
 11
119.387383
 21
285.417169
 31
0.0
 11
119.636723
 21
286.933193
 31
0.0
  0
LWPOLYLINE
  5
26c
100
AcDbEntity
  8
0
 62
5
100
AcDbPolyline
 90
4
 70
0
 10
116.464142
 20
273.146301
 30
0.0
 10
120.252222
 20
281.654469
 30
0.0
 10
119.942836
 20
281.792218
 30
0.0
 10
119.529589
 20
280.864054
 30
0.0
  0
LWPOLYLINE
  5
26d
100
AcDbEntity
  8
0
 62
5
100
AcDbPolyline
 90
4
 70
0
 10
122.422305
 20
287.361200
 30
0.0
 10
122.009061
 20
286.433037
 30
0.0
 10
122.318447
 20
286.295288
 30
0.0
 10
123.351561
 20
288.615698
 30
0.0
  0
LWPOLYLINE
  5
26e
100
AcDbEntity
  8
0
 62
1
100
AcDbPolyline
 90
2
 70
0
 10
120.734342
 20
282.737327
 30
0.0
 10
121.836330
 20
285.212430
 30
0.0
  0
LWPOLYLINE
  5
26f
100
AcDbEntity
  8
0
 62
5
100
AcDbPolyline
 90
7
 70
0
 10
116.464263
 20
273.146247
 30
0.0
 10
115.582883
 20
271.661248
 30
0.0
 10
116.954577
 20
270.654030
 30
0.0
 10
118.251072
 20
271.081678
 30
0.0
 10
117.999394
 20
271.308289
 30
0.0
 10
118.226005
 20
271.559967
 30
0.0
 10
129.048135
 20
261.815677
 30
0.0
  0
LWPOLYLINE
  5
270
100
AcDbEntity
  8
0
 62
1
100
AcDbPolyline
 90
2
 70
0
 10
116.967618
 20
272.693024
 30
0.0
 10
117.722650
 20
272.013190
 30
0.0
  0
LWPOLYLINE
  5
271
100
AcDbEntity
  8
0
 62
5
100
AcDbPolyline
 90
8
 70
0
 10
129.048104
 20
261.815643
 30
0.0
 10
118.782860
 20
267.742285
 30
0.0
 10
119.082233
 20
268.938141
 30
0.0
 10
117.700436
 20
269.931450
 30
0.0
 10
116.459206
 20
269.474904
 30
0.0
 10
116.752500
 20
269.305571
 30
0.0
 10
116.583166
 20
269.012278
 30
0.0
 10
114.383473
 20
270.282273
 30
0.0
  0
LWPOLYLINE
  5
272
100
AcDbEntity
  8
0
 62
1
100
AcDbPolyline
 90
2
 70
0
 10
118.196275
 20
268.080949
 30
0.0
 10
117.169751
 20
268.673612
 30
0.0
  0
LWPOLYLINE
  5
273
100
AcDbEntity
  8
0
 62
5
100
AcDbPolyline
 90
5
 70
0
 10
114.383495
 20
287.215651
 30
0.0
 10
117.431495
 20
285.522317
 30
0.0
 10
116.246162
 20
275.362314
 30
0.0
 10
114.383495
 20
273.668980
 30
0.0
 10
114.383495
 20
270.282313
 30
0.0
  0
LWPOLYLINE
  5
274
100
AcDbEntity
  8
0
 62
5
100
AcDbPolyline
 90
4
 70
0
 10
113.875495
 20
285.860984
 30
0.0
 10
114.722162
 20
285.183650
 30
0.0
 10
114.722162
 20
279.087649
 30
0.0
 10
113.875495
 20
278.410315
 30
0.0
  0
LWPOLYLINE
  5
275
100
AcDbEntity
  8
0
 62
1
100
AcDbPolyline
 90
2
 70
0
 10
114.383495
 20
287.215651
 30
0.0
 10
114.383495
 20
285.860984
 30
0.0
  0
LWPOLYLINE
  5
276
100
AcDbEntity
  8
0
 62
1
100
AcDbPolyline
 90
2
 70
0
 10
114.383495
 20
273.668980
 30
0.0
 10
114.383495
 20
278.410315
 30
0.0
  0
SPLINE
  5
277
100
AcDbEntity
  8
0
 62
5
100
AcDbSpline
 70
0
 71
3
 72
10
 73
6
 74
4
 40
0.000000
 40
0.000000
 40
0.000000
 40
0.000000
 40
1.197286
 40
2.328491
 40
2.836647
 40
2.836647
 40
2.836647
 40
2.836647
 10
119.636723
 20
286.933193
 30
0.0
 10
120.016278
 20
287.062354
 30
0.0
 10
120.754439
 20
287.313547
 30
0.0
 10
121.707085
 20
287.365231
 30
0.0
 10
122.253066
 20
287.362154
 30
0.0
 10
122.422305
 20
287.361200
 30
0.0
 11
119.636723
 21
286.933193
 31
0.0
 11
120.786976
 21
287.265480
 31
0.0
 11
121.914149
 21
287.360896
 31
0.0
 11
122.422305
 21
287.361200
 31
0.0
  0
SPLINE
  5
278
100
AcDbEntity
  8
0
 62
5
100
AcDbSpline
 70
0
 71
3
 72
10
 73
6
 74
4
 40
0.000000
 40
0.000000
 40
0.000000
 40
0.000000
 40
0.383750
 40
1.264641
 40
2.310857
 40
2.310857
 40
2.310857
 40
2.310857
 10
103.802180
 20
281.497585
 30
0.0
 10
103.759583
 20
281.617995
 30
0.0
 10
103.619207
 20
282.014806
 30
0.0
 10
103.458303
 20
282.785166
 30
0.0
 10
103.592958
 20
283.420460
 30
0.0
 10
103.666061
 20
283.765358
 30
0.0
 11
103.802180
 21
281.497585
 31
0.0
 11
103.679208
 21
281.861098
 31
0.0
 11
103.525987
 21
282.728561
 31
0.0
 11
103.666061
 21
283.765358
 31
0.0
  0
SPLINE
  5
279
100
AcDbEntity
  8
0
 62
5
100
AcDbSpline
 70
0
 71
3
 72
10
 73
6
 74
4
 40
0.000000
 40
0.000000
 40
0.000000
 40
0.000000
 40
1.754130
 40
3.597990
 40
5.352120
 40
5.352120
 40
5.352120
 40
5.352120
 10
103.666061
 20
283.765358
 30
0.0
 10
103.985494
 20
284.261078
 30
0.0
 10
104.640701
 20
285.277877
 30
0.0
 10
106.268291
 20
286.217566
 30
0.0
 10
107.476468
 20
286.276592
 30
0.0
 10
108.065491
 20
286.305369
 30
0.0
 11
103.666061
 21
283.765358
 31
0.0
 11
104.728693
 21
285.160989
 31
0.0
 11
106.325523
 21
286.082919
 31
0.0
 11
108.065491
 21
286.305369
 31
0.0
  0
LWPOLYLINE
  5
27a
100
AcDbEntity
  8
0
 62
5
100
AcDbPolyline
 90
4
 70
0
 10
99.718735
 20
278.748946
 30
0.0
 10
104.851400
 20
281.712292
 30
0.0
 10
104.682067
 20
282.005587
 30
0.0
 10
103.802180
 20
281.497585
 30
0.0
  0
LWPOLYLINE
  5
27b
100
AcDbEntity
  8
0
 62
5
100
AcDbPolyline
 90
4
 70
0
 10
109.961381
 20
285.053600
 30
0.0
 10
109.081494
 20
284.545598
 30
0.0
 10
109.250827
 20
284.252302
 30
0.0
 10
114.383493
 20
287.215648
 30
0.0
  0
LWPOLYLINE
  5
27c
100
AcDbEntity
  8
0
 62
1
100
AcDbPolyline
 90
2
 70
0
 10
105.877933
 20
282.304961
 30
0.0
 10
108.224295
 20
283.659633
 30
0.0
  0
LWPOLYLINE
  5
27d
100
AcDbEntity
  8
0
 62
5
100
AcDbPolyline
 90
4
 70
0
 10
99.718715
 20
278.748980
 30
0.0
 10
95.177130
 20
279.841934
 30
0.0
 10
86.378350
 20
274.761956
 30
0.0
 10
85.054082
 20
270.282350
 30
0.0
  0
LWPOLYLINE
  5
27e
100
AcDbEntity
  8
0
 62
5
100
AcDbPolyline
 90
4
 70
0
 10
95.866616
 20
275.938384
 30
0.0
 10
94.856701
 20
276.332951
 30
0.0
 10
89.577432
 20
273.284964
 30
0.0
 10
89.414178
 20
272.213067
 30
0.0
  0
LWPOLYLINE
  5
27f
100
AcDbEntity
  8
0
 62
1
100
AcDbPolyline
 90
2
 70
0
 10
99.718715
 20
278.748980
 30
0.0
 10
95.612619
 20
276.378323
 30
0.0
  0
LWPOLYLINE
  5
280
100
AcDbEntity
  8
0
 62
1
100
AcDbPolyline
 90
2
 70
0
 10
85.054082
 20
270.282350
 30
0.0
 10
89.160181
 20
272.653006
 30
0.0
  0
SPLINE
  5
281
100
AcDbEntity
  8
0
 62
5
100
AcDbSpline
 70
0
 71
3
 72
10
 73
6
 74
4
 40
0.000000
 40
0.000000
 40
0.000000
 40
0.000000
 40
1.046216
 40
1.927107
 40
2.310857
 40
2.310857
 40
2.310857
 40
2.310857
 10
108.065491
 20
286.305369
 30
0.0
 10
108.400733
 20
286.196229
 30
0.0
 10
109.018241
 20
285.995197
 30
0.0
 10
109.604940
 20
285.470670
 30
0.0
 10
109.878400
 20
285.150695
 30
0.0
 10
109.961381
 20
285.053600
 30
0.0
 11
108.065491
 21
286.305369
 31
0.0
 11
109.033420
 21
285.908278
 31
0.0
 11
109.708055
 21
285.341854
 31
0.0
 11
109.961381
 21
285.053600
 31
0.0
  0
SPLINE
  5
282
100
AcDbEntity
  8
0
 62
5
100
AcDbSpline
 70
0
 71
3
 72
10
 73
6
 74
4
 40
0.000000
 40
0.000000
 40
0.000000
 40
0.000000
 40
0.383747
 40
1.264631
 40
2.310838
 40
2.310838
 40
2.310838
 40
2.310838
 10
95.296665
 20
263.977714
 30
0.0
 10
95.213686
 20
263.880620
 30
0.0
 10
94.940227
 20
263.560647
 30
0.0
 10
94.353534
 20
263.036124
 30
0.0
 10
93.736031
 20
262.835093
 30
0.0
 10
93.400793
 20
262.725954
 30
0.0
 11
95.296665
 21
263.977714
 31
0.0
 11
95.043342
 21
263.689462
 31
0.0
 11
94.368713
 21
263.123042
 31
0.0
 11
93.400793
 21
262.725954
 31
0.0
  0
SPLINE
  5
283
100
AcDbEntity
  8
0
 62
5
100
AcDbSpline
 70
0
 71
3
 72
10
 73
6
 74
4
 40
0.000000
 40
0.000000
 40
0.000000
 40
0.000000
 40
1.754115
 40
3.597959
 40
5.352073
 40
5.352073
 40
5.352073
 40
5.352073
 10
93.400793
 20
262.725954
 30
0.0
 10
92.811774
 20
262.754731
 30
0.0
 10
91.603608
 20
262.813756
 30
0.0
 10
89.976033
 20
263.753438
 30
0.0
 10
89.320833
 20
264.770227
 30
0.0
 10
89.001402
 20
265.265943
 30
0.0
 11
93.400793
 21
262.725954
 31
0.0
 11
91.660840
 21
262.948402
 31
0.0
 11
90.064024
 21
263.870325
 31
0.0
 11
89.001402
 21
265.265943
 31
0.0
  0
LWPOLYLINE
  5
284
100
AcDbEntity
  8
0
 62
5
100
AcDbPolyline
 90
4
 70
0
 10
99.718741
 20
261.815683
 30
0.0
 10
94.586120
 20
264.779002
 30
0.0
 10
94.416787
 20
264.485711
 30
0.0
 10
95.296665
 20
263.977714
 30
0.0
  0
LWPOLYLINE
  5
285
100
AcDbEntity
  8
0
 62
5
100
AcDbPolyline
 90
4
 70
0
 10
89.137518
 20
267.533697
 30
0.0
 10
90.017397
 20
267.025700
 30
0.0
 10
90.186730
 20
267.318991
 30
0.0
 10
85.054107
 20
270.282312
 30
0.0
  0
LWPOLYLINE
  5
286
100
AcDbEntity
  8
0
 62
1
100
AcDbPolyline
 90
2
 70
0
 10
93.559596
 20
265.371666
 30
0.0
 10
91.213254
 20
266.726327
 30
0.0
  0
LWPOLYLINE
  5
287
100
AcDbEntity
  8
0
 62
5
100
AcDbPolyline
 90
5
 70
0
 10
99.718715
 20
261.815643
 30
0.0
 10
99.661187
 20
258.329316
 30
0.0
 10
109.052710
 20
254.275828
 30
0.0
 10
111.450524
 20
255.042282
 30
0.0
 10
114.383476
 20
253.348940
 30
0.0
  0
LWPOLYLINE
  5
288
100
AcDbEntity
  8
0
 62
5
100
AcDbPolyline
 90
4
 70
0
 10
101.145899
 20
261.578249
 30
0.0
 10
101.309153
 20
260.506344
 30
0.0
 10
106.588467
 20
257.458330
 30
0.0
 10
107.598393
 20
257.852899
 30
0.0
  0
LWPOLYLINE
  5
289
100
AcDbEntity
  8
0
 62
1
100
AcDbPolyline
 90
2
 70
0
 10
99.718715
 20
261.815643
 30
0.0
 10
100.891896
 20
261.138307
 30
0.0
  0
LWPOLYLINE
  5
28a
100
AcDbEntity
  8
0
 62
1
100
AcDbPolyline
 90
2
 70
0
 10
111.450524
 20
255.042282
 30
0.0
 10
107.344391
 20
257.412957
 30
0.0
  0
LWPOLYLINE
  5
28b
100
AcDbEntity
  8
0
 62
5
100
AcDbPolyline
 90
8
 70
0
 10
114.383495
 20
236.415635
 30
0.0
 10
114.383495
 20
248.268971
 30
0.0
 10
113.198162
 20
248.607638
 30
0.0
 10
113.028829
 20
250.300971
 30
0.0
 10
114.044829
 20
251.147638
 30
0.0
 10
114.044829
 20
250.808971
 30
0.0
 10
114.383495
 20
250.808971
 30
0.0
 10
114.383495
 20
253.348974
 30
0.0
  0
LWPOLYLINE
  5
28c
100
AcDbEntity
  8
0
 62
1
100
AcDbPolyline
 90
2
 70
0
 10
114.383495
 20
248.946304
 30
0.0
 10
114.383495
 20
250.131638
 30
0.0
  0
LWPOLYLINE
  5
28d
100
AcDbEntity
  8
0
 62
5
100
AcDbPolyline
 90
7
 70
0
 10
110.862849
 20
252.978972
 30
0.0
 10
112.589595
 20
252.999772
 30
0.0
 10
112.776028
 20
251.308234
 30
0.0
 10
111.757420
 20
250.399255
 30
0.0
 10
111.687006
 20
250.730522
 30
0.0
 10
111.355739
 20
250.660107
 30
0.0
 10
114.383495
 20
236.415638
 30
0.0
  0
LWPOLYLINE
  5
28e
100
AcDbEntity
  8
0
 62
1
100
AcDbPolyline
 90
2
 70
0
 10
111.003675
 20
252.316439
 30
0.0
 10
111.214913
 20
251.322638
 30
0.0
  0
SPLINE
  5
28f
100
AcDbEntity
  8
0
 62
5
100
AcDbSpline
 70
0
 71
3
 72
10
 73
6
 74
4
 40
0.000000
 40
0.000000
 40
0.000000
 40
0.000000
 40
1.046208
 40
1.927091
 40
2.310838
 40
2.310838
 40
2.310838
 40
2.310838
 10
89.001402
 20
265.265943
 30
0.0
 10
88.928299
 20
265.610838
 30
0.0
 10
88.793645
 20
266.246127
 30
0.0
 10
88.954548
 20
267.016480
 30
0.0
 10
89.094922
 20
267.413287
 30
0.0
 10
89.137518
 20
267.533697
 30
0.0
 11
89.001402
 21
265.265943
 31
0.0
 11
88.861329
 21
266.302732
 31
0.0
 11
89.014548
 21
267.170187
 31
0.0
 11
89.137518
 21
267.533697
 31
0.0
  0
SPLINE
  5
290
100
AcDbEntity
  8
0
 62
5
100
AcDbSpline
 70
0
 71
3
 72
10
 73
6
 74
4
 40
0.000000
 40
0.000000
 40
0.000000
 40
0.000000
 40
0.168286
 40
0.650184
 40
1.455499
 40
1.455499
 40
1.455499
 40
1.455499
 10
102.646333
 20
254.183110
 30
0.0
 10
102.627825
 20
254.236141
 30
0.0
 10
102.556319
 20
254.441029
 30
0.0
 10
102.276284
 20
254.848534
 30
0.0
 10
101.947678
 20
255.126100
 30
0.0
 10
101.742093
 20
255.299753
 30
0.0
 11
102.646333
 21
254.183110
 31
0.0
 11
102.587220
 21
254.340672
 31
0.0
 11
102.327164
 21
254.746377
 31
0.0
 11
101.742093
 21
255.299753
 31
0.0
  0
SPLINE
  5
291
100
AcDbEntity
  8
0
 62
5
100
AcDbSpline
 70
0
 71
3
 72
10
 73
6
 74
4
 40
0.000000
 40
0.000000
 40
0.000000
 40
0.000000
 40
1.568780
 40
3.234033
 40
4.770435
 40
4.770435
 40
4.770435
 40
4.770435
 10
101.742093
 20
255.299753
 30
0.0
 10
101.268814
 20
255.522373
 30
0.0
 10
100.293151
 20
255.981304
 30
0.0
 10
98.816636
 20
256.573594
 30
0.0
 10
97.816599
 20
256.946143
 30
0.0
 10
97.336703
 20
257.124921
 30
0.0
 11
101.742093
 21
255.299753
 31
0.0
 11
100.316299
 21
255.954108
 31
0.0
 11
98.774299
 21
256.582838
 31
0.0
 11
97.336703
 21
257.124921
 31
0.0
  0
LWPOLYLINE
  5
292
100
AcDbEntity
  8
0
 62
5
100
AcDbPolyline
 90
4
 70
0
 10
110.862883
 20
252.978981
 30
0.0
 10
101.600491
 20
253.952498
 30
0.0
 10
101.635890
 20
254.289310
 30
0.0
 10
102.646333
 20
254.183110
 30
0.0
  0
LWPOLYLINE
  5
293
100
AcDbEntity
  8
0
 62
5
100
AcDbPolyline
 90
4
 70
0
 10
95.573235
 20
254.926523
 30
0.0
 10
96.583678
 20
254.820320
 30
0.0
 10
96.548276
 20
254.483507
 30
0.0
 10
94.022170
 20
254.749011
 30
0.0
  0
LWPOLYLINE
  5
294
100
AcDbEntity
  8
0
 62
1
100
AcDbPolyline
 90
2
 70
0
 10
100.421640
 20
254.076399
 30
0.0
 10
97.727127
 20
254.359603
 30
0.0
  0
LWPOLYLINE
  5
295
100
AcDbEntity
  8
0
 62
5
100
AcDbPolyline
 90
5
 70
0
 10
94.022172
 20
254.749022
 30
0.0
 10
90.548940
 20
254.441817
 30
0.0
 10
87.499345
 20
244.678060
 30
0.0
 10
88.512238
 20
242.373504
 30
0.0
 10
87.134754
 20
239.279626
 30
0.0
  0
LWPOLYLINE
  5
296
100
AcDbEntity
  8
0
 62
5
100
AcDbPolyline
 90
4
 70
0
 10
93.935262
 20
253.304848
 30
0.0
 10
92.886296
 20
253.030444
 30
0.0
 10
90.406824
 20
247.461460
 30
0.0
 10
90.904797
 20
246.498315
 30
0.0
  0
LWPOLYLINE
  5
297
100
AcDbEntity
  8
0
 62
1
100
AcDbPolyline
 90
2
 70
0
 10
94.022172
 20
254.749022
 30
0.0
 10
93.471179
 20
253.511472
 30
0.0
  0
LWPOLYLINE
  5
298
100
AcDbEntity
  8
0
 62
1
100
AcDbPolyline
 90
2
 70
0
 10
88.512238
 20
242.373504
 30
0.0
 10
90.440716
 20
246.704935
 30
0.0
  0
LWPOLYLINE
  5
299
100
AcDbEntity
  8
0
 62
5
100
AcDbPolyline
 90
8
 70
0
 10
99.718749
 20
227.949002
 30
0.0
 10
90.910037
 20
235.880401
 30
0.0
 10
89.865220
 20
235.226142
 30
0.0
 10
88.493529
 20
236.233359
 30
0.0
 10
88.544169
 20
237.554921
 30
0.0
 10
88.795846
 20
237.328308
 30
0.0
 10
89.022456
 20
237.579985
 30
0.0
 10
87.134878
 20
239.279572
 30
0.0
  0
LWPOLYLINE
  5
29a
100
AcDbEntity
  8
0
 62
1
100
AcDbPolyline
 90
2
 70
0
 10
90.406683
 20
236.333624
 30
0.0
 10
89.525814
 20
237.126764
 30
0.0
  0
LWPOLYLINE
  5
29b
100
AcDbEntity
  8
0
 62
5
100
AcDbPolyline
 90
7
 70
0
 10
85.054082
 20
236.415595
 30
0.0
 10
86.194039
 20
237.712725
 30
0.0
 10
87.575836
 20
236.719416
 30
0.0
 10
87.569768
 20
235.354228
 30
0.0
 10
87.276474
 20
235.523559
 30
0.0
 10
87.107144
 20
235.230268
 30
0.0
 10
99.718726
 20
227.948965
 30
0.0
  0
LWPOLYLINE
  5
29c
100
AcDbEntity
  8
0
 62
1
100
AcDbPolyline
 90
2
 70
0
 10
85.640669
 20
236.076929
 30
0.0
 10
86.520545
 20
235.568932
 30
0.0
  0
SPLINE
  5
29d
100
AcDbEntity
  8
0
 62
5
100
AcDbSpline
 70
0
 71
3
 72
10
 73
6
 74
4
 40
0.000000
 40
0.000000
 40
0.000000
 40
0.000000
 40
1.197296
 40
2.328509
 40
2.836668
 40
2.836668
 40
2.836668
 40
2.836668
 10
97.336703
 20
257.124921
 30
0.0
 10
97.035067
 20
256.860795
 30
0.0
 10
96.448443
 20
256.347120
 30
0.0
 10
95.927356
 20
255.547941
 30
0.0
 10
95.657029
 20
255.073566
 30
0.0
 10
95.573235
 20
254.926523
 30
0.0
 11
97.336703
 21
257.124921
 31
0.0
 11
96.473803
 21
256.294909
 31
0.0
 11
95.827578
 21
255.366449
 31
0.0
 11
95.573235
 21
254.926523
 31
0.0
  0
SPLINE
  5
29e
100
AcDbEntity
  8
0
 62
5
100
AcDbSpline
 70
0
 71
3
 72
10
 73
6
 74
4
 40
0.000000
 40
0.000000
 40
0.000000
 40
0.000000
 40
0.168285
 40
0.650179
 40
1.455488
 40
1.455488
 40
1.455488
 40
1.455488
 10
85.392774
 20
244.712971
 30
0.0
 10
85.443579
 20
244.736921
 30
0.0
 10
85.639869
 20
244.829452
 30
0.0
 10
86.015867
 20
245.150546
 30
0.0
 10
86.257562
 20
245.506363
 30
0.0
 10
86.408774
 20
245.728971
 30
0.0
 11
85.392774
 21
244.712971
 31
0.0
 11
85.543292
 21
244.788230
 31
0.0
 11
85.919588
 21
245.089267
 31
0.0
 11
86.408774
 21
245.728971
 31
0.0
  0
SPLINE
  5
29f
100
AcDbEntity
  8
0
 62
5
100
AcDbSpline
 70
0
 71
3
 72
10
 73
6
 74
4
 40
0.000000
 40
0.000000
 40
0.000000
 40
0.000000
 40
1.568766
 40
3.234005
 40
4.770394
 40
4.770394
 40
4.770394
 40
4.770394
 10
86.408774
 20
245.728971
 30
0.0
 10
86.580701
 20
246.222924
 30
0.0
 10
86.935129
 20
247.241205
 30
0.0
 10
87.369833
 20
248.771529
 30
0.0
 10
87.635806
 20
249.805021
 30
0.0
 10
87.763440
 20
250.300971
 30
0.0
 11
86.408774
 21
245.728971
 31
0.0
 11
86.910502
 21
247.215341
 31
0.0
 11
87.374601
 21
248.814601
 31
0.0
 11
87.763440
 21
250.300971
 31
0.0
  0
LWPOLYLINE
  5
2a0
100
AcDbEntity
  8
0
 62
5
100
AcDbPolyline
 90
4
 70
0
 10
85.054107
 20
236.415635
 30
0.0
 10
85.054107
 20
245.728971
 30
0.0
 10
85.392774
 20
245.728971
 30
0.0
 10
85.392774
 20
244.712971
 30
0.0
  0
LWPOLYLINE
  5
2a1
100
AcDbEntity
  8
0
 62
5
100
AcDbPolyline
 90
4
 70
0
 10
85.392774
 20
251.824974
 30
0.0
 10
85.392774
 20
250.808971
 30
0.0
 10
85.054107
 20
250.808971
 30
0.0
 10
85.054107
 20
253.348974
 30
0.0
  0
LWPOLYLINE
  5
2a2
100
AcDbEntity
  8
0
 62
1
100
AcDbPolyline
 90
2
 70
0
 10
85.054107
 20
246.914304
 30
0.0
 10
85.054107
 20
249.623638
 30
0.0
  0
LWPOLYLINE
  5
2a3
100
AcDbEntity
  8
0
 62
5
100
AcDbPolyline
 90
4
 70
0
 10
70.389346
 20
244.882271
 30
0.0
 10
71.713623
 20
249.361916
 30
0.0
 10
80.512480
 20
254.441936
 30
0.0
 10
85.054104
 20
253.348974
 30
0.0
  0
LWPOLYLINE
  5
2a4
100
AcDbEntity
  8
0
 62
5
100
AcDbPolyline
 90
4
 70
0
 10
74.749479
 20
246.813004
 30
0.0
 10
74.912736
 20
247.884912
 30
0.0
 10
80.192047
 20
250.932923
 30
0.0
 10
81.201974
 20
250.538354
 30
0.0
  0
LWPOLYLINE
  5
2a5
100
AcDbEntity
  8
0
 62
1
100
AcDbPolyline
 90
2
 70
0
 10
70.389346
 20
244.882271
 30
0.0
 10
74.495479
 20
247.252949
 30
0.0
  0
LWPOLYLINE
  5
2a6
100
AcDbEntity
  8
0
 62
1
100
AcDbPolyline
 90
2
 70
0
 10
85.054104
 20
253.348974
 30
0.0
 10
80.947974
 20
250.978296
 30
0.0
  0
SPLINE
  5
2a7
100
AcDbEntity
  8
0
 62
5
100
AcDbSpline
 70
0
 71
3
 72
10
 73
6
 74
4
 40
0.000000
 40
0.000000
 40
0.000000
 40
0.000000
 40
1.197286
 40
2.328490
 40
2.836645
 40
2.836645
 40
2.836645
 40
2.836645
 10
87.763440
 20
250.300971
 30
0.0
 10
87.469234
 20
250.573344
 30
0.0
 10
86.897060
 20
251.103057
 30
0.0
 10
86.047798
 20
251.537750
 30
0.0
 10
85.547769
 20
251.757010
 30
0.0
 10
85.392774
 20
251.824974
 30
0.0
 11
87.763440
 21
250.300971
 31
0.0
 11
86.847786
 21
251.072379
 31
0.0
 11
85.856872
 21
251.618010
 31
0.0
 11
85.392774
 21
251.824974
 31
0.0
  0
SPLINE
  5
2a8
100
AcDbEntity
  8
0
 62
5
100
AcDbSpline
 70
0
 71
3
 72
10
 73
6
 74
4
 40
0.000000
 40
0.000000
 40
0.000000
 40
0.000000
 40
0.383747
 40
1.264631
 40
2.310838
 40
2.310838
 40
2.310838
 40
2.310838
 10
65.967254
 20
242.720273
 30
0.0
 10
65.884275
 20
242.817368
 30
0.0
 10
65.610816
 20
243.137340
 30
0.0
 10
65.024123
 20
243.661863
 30
0.0
 10
64.406620
 20
243.862895
 30
0.0
 10
64.071381
 20
243.972033
 30
0.0
 11
65.967254
 21
242.720273
 31
0.0
 11
65.713930
 21
243.008525
 31
0.0
 11
65.039301
 21
243.574946
 31
0.0
 11
64.071381
 21
243.972033
 31
0.0
  0
SPLINE
  5
2a9
100
AcDbEntity
  8
0
 62
5
100
AcDbSpline
 70
0
 71
3
 72
10
 73
6
 74
4
 40
0.000000
 40
0.000000
 40
0.000000
 40
0.000000
 40
1.754115
 40
3.597959
 40
5.352073
 40
5.352073
 40
5.352073
 40
5.352073
 10
64.071381
 20
243.972033
 30
0.0
 10
63.482363
 20
243.943257
 30
0.0
 10
62.274197
 20
243.884231
 30
0.0
 10
60.646622
 20
242.944550
 30
0.0
 10
59.991422
 20
241.927760
 30
0.0
 10
59.671991
 20
241.432045
 30
0.0
 11
64.071381
 21
243.972033
 31
0.0
 11
62.331428
 21
243.749585
 31
0.0
 11
60.734613
 21
242.827663
 31
0.0
 11
59.671991
 21
241.432045
 31
0.0
  0
LWPOLYLINE
  5
2aa
100
AcDbEntity
  8
0
 62
5
100
AcDbPolyline
 90
4
 70
0
 10
70.389329
 20
244.882304
 30
0.0
 10
65.256709
 20
241.918985
 30
0.0
 10
65.087376
 20
242.212276
 30
0.0
 10
65.967254
 20
242.720273
 30
0.0
  0
LWPOLYLINE
  5
2ab
100
AcDbEntity
  8
0
 62
5
100
AcDbPolyline
 90
4
 70
0
 10
59.808107
 20
239.164290
 30
0.0
 10
60.687986
 20
239.672287
 30
0.0
 10
60.857319
 20
239.378997
 30
0.0
 10
55.724696
 20
236.415674
 30
0.0
  0
LWPOLYLINE
  5
2ac
100
AcDbEntity
  8
0
 62
1
100
AcDbPolyline
 90
2
 70
0
 10
64.230185
 20
241.326321
 30
0.0
 10
61.883843
 20
239.971660
 30
0.0
  0
LWPOLYLINE
  5
2ad
100
AcDbEntity
  8
0
 62
5
100
AcDbPolyline
 90
4
 70
0
 10
70.389352
 20
227.949005
 30
0.0
 10
65.847767
 20
226.856051
 30
0.0
 10
57.048987
 20
231.936029
 30
0.0
 10
55.724719
 20
236.415635
 30
0.0
  0
LWPOLYLINE
  5
2ae
100
AcDbEntity
  8
0
 62
5
100
AcDbPolyline
 90
4
 70
0
 10
66.537253
 20
230.759600
 30
0.0
 10
65.527338
 20
230.365033
 30
0.0
 10
60.248069
 20
233.413019
 30
0.0
 10
60.084815
 20
234.484916
 30
0.0
  0
LWPOLYLINE
  5
2af
100
AcDbEntity
  8
0
 62
1
100
AcDbPolyline
 90
2
 70
0
 10
70.389352
 20
227.949005
 30
0.0
 10
66.283256
 20
230.319660
 30
0.0
  0
LWPOLYLINE
  5
2b0
100
AcDbEntity
  8
0
 62
1
100
AcDbPolyline
 90
2
 70
0
 10
55.724719
 20
236.415635
 30
0.0
 10
59.830818
 20
234.044977
 30
0.0
  0
SPLINE
  5
2b1
100
AcDbEntity
  8
0
 62
5
100
AcDbSpline
 70
0
 71
3
 72
10
 73
6
 74
4
 40
0.000000
 40
0.000000
 40
0.000000
 40
0.000000
 40
1.046208
 40
1.927091
 40
2.310838
 40
2.310838
 40
2.310838
 40
2.310838
 10
59.671991
 20
241.432045
 30
0.0
 10
59.598888
 20
241.087150
 30
0.0
 10
59.464234
 20
240.451861
 30
0.0
 10
59.625137
 20
239.681507
 30
0.0
 10
59.765511
 20
239.284700
 30
0.0
 10
59.808107
 20
239.164290
 30
0.0
 11
59.671991
 21
241.432045
 31
0.0
 11
59.531918
 21
240.395256
 31
0.0
 11
59.685136
 21
239.527800
 31
0.0
 11
59.808107
 21
239.164290
 31
0.0
  0
SPLINE
  5
2b2
100
AcDbEntity
  8
0
 62
5
100
AcDbSpline
 70
0
 71
3
 72
10
 73
6
 74
4
 40
0.000000
 40
0.000000
 40
0.000000
 40
0.000000
 40
0.168285
 40
0.650182
 40
1.455494
 40
1.455494
 40
1.455494
 40
1.455494
 10
77.699021
 20
223.337655
 30
0.0
 10
77.652877
 20
223.305631
 30
0.0
 10
77.474597
 20
223.181904
 30
0.0
 10
77.008521
 20
223.016826
 30
0.0
 10
76.579525
 20
222.985419
 30
0.0
 10
76.311133
 20
222.965771
 30
0.0
 11
77.699021
 21
223.337655
 31
0.0
 11
77.558584
 21
223.244931
 31
0.0
 11
77.109729
 21
223.069567
 31
0.0
 11
76.311133
 21
222.965771
 31
0.0
  0
SPLINE
  5
2b3
100
AcDbEntity
  8
0
 62
5
100
AcDbSpline
 70
0
 71
3
 72
10
 73
6
 74
4
 40
0.000000
 40
0.000000
 40
0.000000
 40
0.000000
 40
1.568773
 40
3.234018
 40
4.770414
 40
4.770414
 40
4.770414
 40
4.770414
 10
76.311133
 20
222.965771
 30
0.0
 10
75.797392
 20
223.063854
 30
0.0
 10
74.738316
 20
223.266052
 30
0.0
 10
73.195658
 20
223.654752
 30
0.0
 10
72.167637
 20
223.941160
 30
0.0
 10
71.674313
 20
224.078601
 30
0.0
 11
76.311133
 21
222.965771
 31
0.0
 11
74.773029
 21
223.274448
 31
0.0
 11
73.155973
 21
223.672158
 31
0.0
 11
71.674313
 21
224.078601
 31
0.0
  0
LWPOLYLINE
  5
2b4
100
AcDbEntity
  8
0
 62
5
100
AcDbPolyline
 90
4
 70
0
 10
85.054087
 20
219.482265
 30
0.0
 10
76.988470
 20
224.138951
 30
0.0
 10
76.819136
 20
223.845658
 30
0.0
 10
77.699021
 20
223.337655
 30
0.0
  0
LWPOLYLINE
  5
2b5
100
AcDbEntity
  8
0
 62
5
100
AcDbPolyline
 90
4
 70
0
 10
71.539822
 20
226.893669
 30
0.0
 10
72.419707
 20
226.385666
 30
0.0
 10
72.589043
 20
226.678963
 30
0.0
 10
70.389327
 20
227.948968
 30
0.0
  0
LWPOLYLINE
  5
2b6
100
AcDbEntity
  8
0
 62
1
100
AcDbPolyline
 90
2
 70
0
 10
75.961937
 20
224.731621
 30
0.0
 10
73.615575
 20
226.086293
 30
0.0
  0
LWPOLYLINE
  5
2b7
100
AcDbEntity
  8
0
 62
5
100
AcDbPolyline
 90
7
 70
0
 10
85.054107
 20
219.482299
 30
0.0
 10
83.360774
 20
219.143632
 30
0.0
 10
83.530107
 20
217.450296
 30
0.0
 10
84.715440
 20
216.772963
 30
0.0
 10
84.715440
 20
217.111629
 30
0.0
 10
85.054107
 20
217.111629
 30
0.0
 10
85.054107
 20
202.548960
 30
0.0
  0
LWPOLYLINE
  5
2b8
100
AcDbEntity
  8
0
 62
1
100
AcDbPolyline
 90
2
 70
0
 10
85.054107
 20
218.804965
 30
0.0
 10
85.054107
 20
217.788965
 30
0.0
  0
LWPOLYLINE
  5
2b9
100
AcDbEntity
  8
0
 62
5
100
AcDbPolyline
 90
8
 70
0
 10
85.054107
 20
202.548960
 30
0.0
 10
82.589649
 20
214.143320
 30
0.0
 10
83.678672
 20
214.721032
 30
0.0
 10
83.492241
 20
216.412576
 30
0.0
 10
82.322405
 20
217.029505
 30
0.0
 10
82.392819
 20
216.698239
 30
0.0
 10
82.061552
 20
216.627824
 30
0.0
 10
81.533452
 20
219.112331
 30
0.0
  0
LWPOLYLINE
  5
2ba
100
AcDbEntity
  8
0
 62
1
100
AcDbPolyline
 90
2
 70
0
 10
82.448823
 20
214.805854
 30
0.0
 10
82.202378
 20
215.965291
 30
0.0
  0
LWPOLYLINE
  5
2bb
100
AcDbEntity
  8
0
 62
5
100
AcDbPolyline
 90
5
 70
0
 10
64.692781
 20
220.882319
 30
0.0
 10
66.695439
 20
223.736615
 30
0.0
 10
76.675866
 20
221.495768
 30
0.0
 10
78.165218
 20
219.466308
 30
0.0
 10
81.533328
 20
219.112305
 30
0.0
  0
LWPOLYLINE
  5
2bc
100
AcDbEntity
  8
0
 62
5
100
AcDbPolyline
 90
4
 70
0
 10
65.986925
 20
220.235502
 30
0.0
 10
66.749047
 20
221.006728
 30
0.0
 10
72.811646
 20
220.369524
 30
0.0
 10
73.396766
 20
219.456696
 30
0.0
  0
LWPOLYLINE
  5
2bd
100
AcDbEntity
  8
0
 62
1
100
AcDbPolyline
 90
2
 70
0
 10
64.692781
 20
220.882319
 30
0.0
 10
66.040025
 20
220.740716
 30
0.0
  0
LWPOLYLINE
  5
2be
100
AcDbEntity
  8
0
 62
1
100
AcDbPolyline
 90
2
 70
0
 10
78.165218
 20
219.466308
 30
0.0
 10
73.449866
 20
219.961913
 30
0.0
  0
SPLINE
  5
2bf
100
AcDbEntity
  8
0
 62
5
100
AcDbSpline
 70
0
 71
3
 72
10
 73
6
 74
4
 40
0.000000
 40
0.000000
 40
0.000000
 40
0.000000
 40
1.197289
 40
2.328497
 40
2.836654
 40
2.836654
 40
2.836654
 40
2.836654
 10
71.674313
 20
224.078601
 30
0.0
 10
71.585534
 20
224.469578
 30
0.0
 10
71.412876
 20
225.229955
 30
0.0
 10
71.461053
 20
226.182787
 30
0.0
 10
71.521184
 20
226.725457
 30
0.0
 10
71.539822
 20
226.893669
 30
0.0
 11
71.674313
 21
224.078601
 31
0.0
 11
71.464081
 21
225.257288
 31
0.0
 11
71.487008
 21
226.388264
 31
0.0
 11
71.539822
 21
226.893669
 31
0.0
  0
SPLINE
  5
2c0
100
AcDbEntity
  8
0
 62
5
100
AcDbSpline
 70
0
 71
3
 72
10
 73
6
 74
4
 40
0.000000
 40
0.000000
 40
0.000000
 40
0.000000
 40
0.168285
 40
0.650179
 40
1.455490
 40
1.455490
 40
1.455490
 40
1.455490
 10
60.870812
 20
213.130704
 30
0.0
 10
60.834140
 20
213.173248
 30
0.0
 10
60.692456
 20
213.337617
 30
0.0
 10
60.479566
 20
213.783884
 30
0.0
 10
60.403490
 20
214.207245
 30
0.0
 10
60.355895
 20
214.472112
 30
0.0
 11
60.870812
 21
213.130704
 31
0.0
 11
60.763917
 21
213.260678
 31
0.0
 11
60.542596
 21
213.688743
 31
0.0
 11
60.355895
 21
214.472112
 31
0.0
  0
SPLINE
  5
2c1
100
AcDbEntity
  8
0
 62
5
100
AcDbSpline
 70
0
 71
3
 72
10
 73
6
 74
4
 40
0.000000
 40
0.000000
 40
0.000000
 40
0.000000
 40
1.568769
 40
3.234010
 40
4.770402
 40
4.770402
 40
4.770402
 40
4.770402
 10
60.355895
 20
214.472112
 30
0.0
 10
60.399740
 20
214.993290
 30
0.0
 10
60.490125
 20
216.067697
 30
0.0
 10
60.715443
 20
217.642530
 30
0.0
 10
60.892825
 20
218.694855
 30
0.0
 10
60.977947
 20
219.199842
 30
0.0
 11
60.355895
 21
214.472112
 31
0.0
 11
60.502104
 21
216.034053
 31
0.0
 11
60.728606
 21
217.683818
 31
0.0
 11
60.977947
 21
219.199842
 31
0.0
  0
LWPOLYLINE
  5
2c2
100
AcDbEntity
  8
0
 62
5
100
AcDbPolyline
 90
4
 70
0
 10
57.805365
 20
205.412951
 30
0.0
 10
61.593445
 20
213.921118
 30
0.0
 10
61.284059
 20
214.058868
 30
0.0
 10
60.870812
 20
213.130704
 30
0.0
  0
LWPOLYLINE
  5
2c3
100
AcDbEntity
  8
0
 62
5
100
AcDbPolyline
 90
4
 70
0
 10
63.763528
 20
219.627849
 30
0.0
 10
63.350284
 20
218.699685
 30
0.0
 10
63.659670
 20
218.561938
 30
0.0
 10
64.692784
 20
220.882347
 30
0.0
  0
LWPOLYLINE
  5
2c4
100
AcDbEntity
  8
0
 62
1
100
AcDbPolyline
 90
2
 70
0
 10
62.075565
 20
215.003977
 30
0.0
 10
63.177553
 20
217.479080
 30
0.0
  0
LWPOLYLINE
  5
2c5
100
AcDbEntity
  8
0
 62
5
100
AcDbPolyline
 90
7
 70
0
 10
57.805489
 20
205.412897
 30
0.0
 10
56.924109
 20
203.927898
 30
0.0
 10
58.295802
 20
202.920680
 30
0.0
 10
59.592297
 20
203.348329
 30
0.0
 10
59.340620
 20
203.574939
 30
0.0
 10
59.567231
 20
203.826617
 30
0.0
 10
70.389361
 20
194.082327
 30
0.0
  0
LWPOLYLINE
  5
2c6
100
AcDbEntity
  8
0
 62
1
100
AcDbPolyline
 90
2
 70
0
 10
58.308844
 20
204.959674
 30
0.0
 10
59.063876
 20
204.279840
 30
0.0
  0
LWPOLYLINE
  5
2c7
100
AcDbEntity
  8
0
 62
5
100
AcDbPolyline
 90
8
 70
0
 10
70.389329
 20
194.082290
 30
0.0
 10
60.124086
 20
200.008932
 30
0.0
 10
60.423459
 20
201.204789
 30
0.0
 10
59.041662
 20
202.198098
 30
0.0
 10
57.800432
 20
201.741550
 30
0.0
 10
58.093726
 20
201.572217
 30
0.0
 10
57.924392
 20
201.278926
 30
0.0
 10
55.724696
 20
202.548920
 30
0.0
  0
LWPOLYLINE
  5
2c8
100
AcDbEntity
  8
0
 62
1
100
AcDbPolyline
 90
2
 70
0
 10
59.537501
 20
200.347595
 30
0.0
 10
58.510977
 20
200.940259
 30
0.0
  0
LWPOLYLINE
  5
2c9
100
AcDbEntity
  8
0
 62
5
100
AcDbPolyline
 90
5
 70
0
 10
55.724719
 20
219.482299
 30
0.0
 10
58.772719
 20
217.788965
 30
0.0
 10
57.587385
 20
207.628963
 30
0.0
 10
55.724719
 20
205.935626
 30
0.0
 10
55.724719
 20
202.548960
 30
0.0
  0
LWPOLYLINE
  5
2ca
100
AcDbEntity
  8
0
 62
5
100
AcDbPolyline
 90
4
 70
0
 10
55.216719
 20
218.127632
 30
0.0
 10
56.063385
 20
217.450296
 30
0.0
 10
56.063385
 20
211.354296
 30
0.0
 10
55.216719
 20
210.676963
 30
0.0
  0
LWPOLYLINE
  5
2cb
100
AcDbEntity
  8
0
 62
1
100
AcDbPolyline
 90
2
 70
0
 10
55.724719
 20
219.482299
 30
0.0
 10
55.724719
 20
218.127632
 30
0.0
  0
LWPOLYLINE
  5
2cc
100
AcDbEntity
  8
0
 62
1
100
AcDbPolyline
 90
2
 70
0
 10
55.724719
 20
205.935626
 30
0.0
 10
55.724719
 20
210.676963
 30
0.0
  0
SPLINE
  5
2cd
100
AcDbEntity
  8
0
 62
5
100
AcDbSpline
 70
0
 71
3
 72
10
 73
6
 74
4
 40
0.000000
 40
0.000000
 40
0.000000
 40
0.000000
 40
1.197286
 40
2.328491
 40
2.836647
 40
2.836647
 40
2.836647
 40
2.836647
 10
60.977947
 20
219.199842
 30
0.0
 10
61.357501
 20
219.329003
 30
0.0
 10
62.095662
 20
219.580196
 30
0.0
 10
63.048308
 20
219.631880
 30
0.0
 10
63.594289
 20
219.628803
 30
0.0
 10
63.763528
 20
219.627849
 30
0.0
 11
60.977947
 21
219.199842
 31
0.0
 11
62.128199
 21
219.532128
 31
0.0
 11
63.255372
 21
219.627545
 31
0.0
 11
63.763528
 21
219.627849
 31
0.0
  0
SPLINE
  5
2ce
100
AcDbEntity
  8
0
 62
5
100
AcDbSpline
 70
0
 71
3
 72
10
 73
6
 74
4
 40
0.000000
 40
0.000000
 40
0.000000
 40
0.000000
 40
0.383750
 40
1.264641
 40
2.310858
 40
2.310858
 40
2.310858
 40
2.310858
 10
45.143406
 20
213.764234
 30
0.0
 10
45.100809
 20
213.884644
 30
0.0
 10
44.960433
 20
214.281455
 30
0.0
 10
44.799529
 20
215.051815
 30
0.0
 10
44.934184
 20
215.687110
 30
0.0
 10
45.007287
 20
216.032008
 30
0.0
 11
45.143406
 21
213.764234
 31
0.0
 11
45.020434
 21
214.127747
 31
0.0
 11
44.867213
 21
214.995210
 31
0.0
 11
45.007287
 21
216.032008
 31
0.0
  0
SPLINE
  5
2cf
100
AcDbEntity
  8
0
 62
5
100
AcDbSpline
 70
0
 71
3
 72
10
 73
6
 74
4
 40
0.000000
 40
0.000000
 40
0.000000
 40
0.000000
 40
1.754129
 40
3.597989
 40
5.352120
 40
5.352120
 40
5.352120
 40
5.352120
 10
45.007287
 20
216.032008
 30
0.0
 10
45.326720
 20
216.527728
 30
0.0
 10
45.981927
 20
217.544526
 30
0.0
 10
47.609517
 20
218.484215
 30
0.0
 10
48.817694
 20
218.543242
 30
0.0
 10
49.406717
 20
218.572019
 30
0.0
 11
45.007287
 21
216.032008
 31
0.0
 11
46.069918
 21
217.427638
 31
0.0
 11
47.666749
 21
218.349568
 31
0.0
 11
49.406717
 21
218.572019
 31
0.0
  0
LWPOLYLINE
  5
2d0
100
AcDbEntity
  8
0
 62
5
100
AcDbPolyline
 90
4
 70
0
 10
41.059961
 20
211.015595
 30
0.0
 10
46.192626
 20
213.978940
 30
0.0
 10
46.023293
 20
214.272237
 30
0.0
 10
45.143406
 20
213.764234
 30
0.0
  0
LWPOLYLINE
  5
2d1
100
AcDbEntity
  8
0
 62
5
100
AcDbPolyline
 90
4
 70
0
 10
51.302607
 20
217.320251
 30
0.0
 10
50.422720
 20
216.812248
 30
0.0
 10
50.592053
 20
216.518951
 30
0.0
 10
55.724719
 20
219.482299
 30
0.0
  0
LWPOLYLINE
  5
2d2
100
AcDbEntity
  8
0
 62
1
100
AcDbPolyline
 90
2
 70
0
 10
47.219159
 20
214.571610
 30
0.0
 10
49.565520
 20
215.926282
 30
0.0
  0
LWPOLYLINE
  5
2d3
100
AcDbEntity
  8
0
 62
5
100
AcDbPolyline
 90
4
 70
0
 10
41.059941
 20
211.015629
 30
0.0
 10
43.502845
 20
214.997220
 30
0.0
 10
41.390457
 20
224.935222
 30
0.0
 10
37.539295
 20
227.578966
 30
0.0
  0
LWPOLYLINE
  5
2d4
100
AcDbEntity
  8
0
 62
5
100
AcDbPolyline
 90
4
 70
0
 10
39.577261
 20
215.547746
 30
0.0
 10
40.264602
 20
216.386310
 30
0.0
 10
38.997168
 20
222.349112
 30
0.0
 10
38.028174
 20
222.835612
 30
0.0
  0
LWPOLYLINE
  5
2d5
100
AcDbEntity
  8
0
 62
1
100
AcDbPolyline
 90
2
 70
0
 10
41.059941
 20
211.015629
 30
0.0
 10
40.074161
 20
215.653365
 30
0.0
  0
LWPOLYLINE
  5
2d6
100
AcDbEntity
  8
0
 62
1
100
AcDbPolyline
 90
2
 70
0
 10
37.539295
 20
227.578966
 30
0.0
 10
38.525075
 20
222.941231
 30
0.0
  0
SPLINE
  5
2d7
100
AcDbEntity
  8
0
 62
5
100
AcDbSpline
 70
0
 71
3
 72
10
 73
6
 74
4
 40
0.000000
 40
0.000000
 40
0.000000
 40
0.000000
 40
1.046216
 40
1.927107
 40
2.310857
 40
2.310857
 40
2.310857
 40
2.310857
 10
49.406717
 20
218.572019
 30
0.0
 10
49.741959
 20
218.462879
 30
0.0
 10
50.359467
 20
218.261846
 30
0.0
 10
50.946166
 20
217.737320
 30
0.0
 10
51.219626
 20
217.417346
 30
0.0
 10
51.302607
 20
217.320251
 30
0.0
 11
49.406717
 21
218.572019
 31
0.0
 11
50.374646
 21
218.174928
 31
0.0
 11
51.049281
 21
217.608504
 31
0.0
 11
51.302607
 21
217.320251
 31
0.0
  0
SPLINE
  5
2d8
100
AcDbEntity
  8
0
 62
5
100
AcDbSpline
 70
0
 71
3
 72
10
 73
6
 74
4
 40
0.000000
 40
0.000000
 40
0.000000
 40
0.000000
 40
0.383749
 40
1.264638
 40
2.310852
 40
2.310852
 40
2.310852
 40
2.310852
 10
25.617907
 20
229.172498
 30
0.0
 10
25.654222
 20
229.294949
 30
0.0
 10
25.773894
 20
229.698486
 30
0.0
 10
26.096525
 20
230.416296
 30
0.0
 10
26.578878
 20
230.851111
 30
0.0
 10
26.840745
 20
231.087169
 30
0.0
 11
25.617907
 21
229.172498
 31
0.0
 11
25.732088
 21
229.538867
 31
0.0
 11
26.118011
 21
230.330718
 31
0.0
 11
26.840745
 21
231.087169
 31
0.0
  0
SPLINE
  5
2d9
100
AcDbEntity
  8
0
 62
5
100
AcDbSpline
 70
0
 71
3
 72
10
 73
6
 74
4
 40
0.000000
 40
0.000000
 40
0.000000
 40
0.000000
 40
1.754125
 40
3.597979
 40
5.352103
 40
5.352103
 40
5.352103
 40
5.352103
 10
26.840745
 20
231.087169
 30
0.0
 10
27.390548
 20
231.300456
 30
0.0
 10
28.518277
 20
231.737941
 30
0.0
 10
30.387354
 20
231.541493
 30
0.0
 10
31.399481
 20
230.879099
 30
0.0
 10
31.892923
 20
230.556163
 30
0.0
 11
26.840745
 21
231.087169
 31
0.0
 11
28.520759
 21
231.591657
 31
0.0
 11
30.354513
 21
231.398921
 31
0.0
 11
31.892923
 21
230.556163
 31
0.0
  0
LWPOLYLINE
  5
2da
100
AcDbEntity
  8
0
 62
5
100
AcDbPolyline
 90
4
 70
0
 10
20.698734
 20
229.348991
 30
0.0
 10
26.592943
 20
228.729485
 30
0.0
 10
26.628343
 20
229.066297
 30
0.0
 10
25.617907
 20
229.172498
 30
0.0
  0
LWPOLYLINE
  5
2db
100
AcDbEntity
  8
0
 62
5
100
AcDbPolyline
 90
4
 70
0
 10
32.690957
 20
228.429090
 30
0.0
 10
31.680523
 20
228.535291
 30
0.0
 10
31.645121
 20
228.198478
 30
0.0
 10
37.539332
 20
227.578972
 30
0.0
  0
LWPOLYLINE
  5
2dc
100
AcDbEntity
  8
0
 62
1
100
AcDbPolyline
 90
2
 70
0
 10
27.771785
 20
228.605584
 30
0.0
 10
30.466281
 20
228.322379
 30
0.0
  0
LWPOLYLINE
  5
2dd
100
AcDbEntity
  8
0
 62
5
100
AcDbPolyline
 90
4
 70
0
 10
13.811298
 20
213.879575
 30
0.0
 10
12.249592
 20
218.282075
 30
0.0
 10
16.382055
 20
227.563741
 30
0.0
 10
20.698737
 20
229.349016
 30
0.0
  0
LWPOLYLINE
  5
2de
100
AcDbEntity
  8
0
 62
5
100
AcDbPolyline
 90
4
 70
0
 10
16.203864
 20
218.004394
 30
0.0
 10
15.705890
 20
218.967545
 30
0.0
 10
18.185367
 20
224.536543
 30
0.0
 10
19.234337
 20
224.810948
 30
0.0
  0
LWPOLYLINE
  5
2df
100
AcDbEntity
  8
0
 62
1
100
AcDbPolyline
 90
2
 70
0
 10
13.811298
 20
213.879575
 30
0.0
 10
15.739781
 20
218.211018
 30
0.0
  0
LWPOLYLINE
  5
2e0
100
AcDbEntity
  8
0
 62
1
100
AcDbPolyline
 90
2
 70
0
 10
20.698737
 20
229.349016
 30
0.0
 10
18.770254
 20
225.017571
 30
0.0
  0
LWPOLYLINE
  5
2e1
100
AcDbEntity
  8
0
 62
1
100
AcDbPolyline
 90
3
 70
0
 10
26.395328
 20
202.548946
 30
0.0
 10
41.059876
 20
211.015612
 30
0.0
 10
41.059876
 20
194.082279
 30
0.0
  0
LWPOLYLINE
  5
2e2
100
AcDbEntity
  8
0
 62
1
100
AcDbPolyline
 90
2
 70
0
 10
41.059876
 20
211.015612
 30
0.0
 10
55.724707
 20
202.548946
 30
0.0
  0
LWPOLYLINE
  5
2e3
100
AcDbEntity
  8
0
 62
1
100
AcDbPolyline
 90
4
 70
0
 10
41.059876
 20
194.082279
 30
0.0
 10
55.724707
 20
202.548946
 30
0.0
 10
55.724707
 20
185.615330
 30
0.0
 10
70.389256
 20
194.082279
 30
0.0
  0
LWPOLYLINE
  5
2e4
100
AcDbEntity
  8
0
 62
1
100
AcDbPolyline
 90
2
 70
0
 10
55.724707
 20
185.615330
 30
0.0
 10
70.389256
 20
177.148663
 30
0.0
  0
LWPOLYLINE
  5
2e5
100
AcDbEntity
  8
0
 62
1
100
AcDbPolyline
 90
2
 70
0
 10
70.389256
 20
244.882279
 30
0.0
 10
70.389256
 20
227.948946
 30
0.0
  0
LWPOLYLINE
  5
2e6
100
AcDbEntity
  8
0
 62
1
100
AcDbPolyline
 90
2
 70
0
 10
70.389256
 20
244.882279
 30
0.0
 10
85.054087
 20
236.415612
 30
0.0
  0
LWPOLYLINE
  5
2e7
100
AcDbEntity
  8
0
 62
1
100
AcDbPolyline
 90
2
 70
0
 10
70.389256
 20
227.948946
 30
0.0
 10
85.054087
 20
236.415612
 30
0.0
  0
LWPOLYLINE
  5
2e8
100
AcDbEntity
  8
0
 62
1
100
AcDbPolyline
 90
2
 70
0
 10
70.389256
 20
194.082279
 30
0.0
 10
70.389256
 20
177.148663
 30
0.0
  0
LWPOLYLINE
  5
2e9
100
AcDbEntity
  8
0
 62
1
100
AcDbPolyline
 90
2
 70
0
 10
70.389256
 20
194.082279
 30
0.0
 10
85.054087
 20
202.548946
 30
0.0
  0
LWPOLYLINE
  5
2ea
100
AcDbEntity
  8
0
 62
1
100
AcDbPolyline
 90
2
 70
0
 10
70.389256
 20
194.082279
 30
0.0
 10
85.054087
 20
185.615330
 30
0.0
  0
LWPOLYLINE
  5
2eb
100
AcDbEntity
  8
0
 62
1
100
AcDbPolyline
 90
2
 70
0
 10
70.389256
 20
177.148663
 30
0.0
 10
85.054087
 20
185.615330
 30
0.0
  0
LWPOLYLINE
  5
2ec
100
AcDbEntity
  8
0
 62
1
100
AcDbPolyline
 90
3
 70
0
 10
85.054087
 20
236.415612
 30
0.0
 10
85.054087
 20
219.482279
 30
0.0
 10
99.718636
 20
227.948946
 30
0.0
  0
LWPOLYLINE
  5
2ed
100
AcDbEntity
  8
0
 62
1
100
AcDbPolyline
 90
2
 70
0
 10
85.054087
 20
219.482279
 30
0.0
 10
99.718636
 20
211.015612
 30
0.0
  0
LWPOLYLINE
  5
2ee
100
AcDbEntity
  8
0
 62
1
100
AcDbPolyline
 90
2
 70
0
 10
85.054087
 20
202.548946
 30
0.0
 10
85.054087
 20
185.615330
 30
0.0
  0
LWPOLYLINE
  5
2ef
100
AcDbEntity
  8
0
 62
1
100
AcDbPolyline
 90
2
 70
0
 10
85.054087
 20
202.548946
 30
0.0
 10
99.718636
 20
211.015612
 30
0.0
  0
LWPOLYLINE
  5
2f0
100
AcDbEntity
  8
0
 62
1
100
AcDbPolyline
 90
2
 70
0
 10
85.054087
 20
202.548946
 30
0.0
 10
99.718636
 20
194.082279
 30
0.0
  0
LWPOLYLINE
  5
2f1
100
AcDbEntity
  8
0
 62
1
100
AcDbPolyline
 90
2
 70
0
 10
85.054087
 20
185.615330
 30
0.0
 10
99.718636
 20
194.082279
 30
0.0
  0
LWPOLYLINE
  5
2f2
100
AcDbEntity
  8
0
 62
1
100
AcDbPolyline
 90
2
 70
0
 10
99.718636
 20
278.748946
 30
0.0
 10
99.718636
 20
261.815612
 30
0.0
  0
LWPOLYLINE
  5
2f3
100
AcDbEntity
  8
0
 62
1
100
AcDbPolyline
 90
2
 70
0
 10
99.718636
 20
278.748946
 30
0.0
 10
114.383467
 20
270.282279
 30
0.0
  0
LWPOLYLINE
  5
2f4
100
AcDbEntity
  8
0
 62
1
100
AcDbPolyline
 90
2
 70
0
 10
99.718636
 20
261.815612
 30
0.0
 10
114.383467
 20
270.282279
 30
0.0
  0
LWPOLYLINE
  5
2f5
100
AcDbEntity
  8
0
 62
1
100
AcDbPolyline
 90
2
 70
0
 10
99.718636
 20
227.948946
 30
0.0
 10
99.718636
 20
211.015612
 30
0.0
  0
LWPOLYLINE
  5
2f6
100
AcDbEntity
  8
0
 62
1
100
AcDbPolyline
 90
2
 70
0
 10
99.718636
 20
227.948946
 30
0.0
 10
114.383467
 20
236.415612
 30
0.0
  0
LWPOLYLINE
  5
2f7
100
AcDbEntity
  8
0
 62
1
100
AcDbPolyline
 90
2
 70
0
 10
99.718636
 20
227.948946
 30
0.0
 10
114.383467
 20
219.482279
 30
0.0
  0
LWPOLYLINE
  5
2f8
100
AcDbEntity
  8
0
 62
1
100
AcDbPolyline
 90
2
 70
0
 10
99.718636
 20
211.015612
 30
0.0
 10
114.383467
 20
219.482279
 30
0.0
  0
LWPOLYLINE
  5
2f9
100
AcDbEntity
  8
0
 62
1
100
AcDbPolyline
 90
3
 70
0
 10
99.718636
 20
194.082279
 30
0.0
 10
99.718636
 20
177.148663
 30
0.0
 10
114.383467
 20
185.615330
 30
0.0
  0
LWPOLYLINE
  5
2fa
100
AcDbEntity
  8
0
 62
1
100
AcDbPolyline
 90
2
 70
0
 10
99.718636
 20
177.148663
 30
0.0
 10
114.383467
 20
168.681997
 30
0.0
  0
LWPOLYLINE
  5
2fb
100
AcDbEntity
  8
0
 62
1
100
AcDbPolyline
 90
3
 70
0
 10
114.383467
 20
270.282279
 30
0.0
 10
114.383467
 20
253.348946
 30
0.0
 10
129.048016
 20
261.815612
 30
0.0
  0
LWPOLYLINE
  5
2fc
100
AcDbEntity
  8
0
 62
1
100
AcDbPolyline
 90
2
 70
0
 10
114.383467
 20
253.348946
 30
0.0
 10
129.048016
 20
244.882279
 30
0.0
  0
LWPOLYLINE
  5
2fd
100
AcDbEntity
  8
0
 62
1
100
AcDbPolyline
 90
2
 70
0
 10
114.383467
 20
236.415612
 30
0.0
 10
114.383467
 20
219.482279
 30
0.0
  0
LWPOLYLINE
  5
2fe
100
AcDbEntity
  8
0
 62
1
100
AcDbPolyline
 90
2
 70
0
 10
114.383467
 20
236.415612
 30
0.0
 10
129.048016
 20
244.882279
 30
0.0
  0
LWPOLYLINE
  5
2ff
100
AcDbEntity
  8
0
 62
1
100
AcDbPolyline
 90
2
 70
0
 10
114.383467
 20
236.415612
 30
0.0
 10
129.048016
 20
227.948946
 30
0.0
  0
LWPOLYLINE
  5
300
100
AcDbEntity
  8
0
 62
1
100
AcDbPolyline
 90
2
 70
0
 10
114.383467
 20
219.482279
 30
0.0
 10
129.048016
 20
227.948946
 30
0.0
  0
LWPOLYLINE
  5
301
100
AcDbEntity
  8
0
 62
1
100
AcDbPolyline
 90
2
 70
0
 10
114.383467
 20
185.615330
 30
0.0
 10
114.383467
 20
168.681997
 30
0.0
  0
LWPOLYLINE
  5
302
100
AcDbEntity
  8
0
 62
1
100
AcDbPolyline
 90
2
 70
0
 10
129.048016
 20
312.615612
 30
0.0
 10
129.048016
 20
295.682279
 30
0.0
  0
LWPOLYLINE
  5
303
100
AcDbEntity
  8
0
 62
1
100
AcDbPolyline
 90
2
 70
0
 10
129.048016
 20
312.615612
 30
0.0
 10
143.712847
 20
304.148946
 30
0.0
  0
LWPOLYLINE
  5
304
100
AcDbEntity
  8
0
 62
1
100
AcDbPolyline
 90
2
 70
0
 10
129.048016
 20
295.682279
 30
0.0
 10
143.712847
 20
304.148946
 30
0.0
  0
LWPOLYLINE
  5
305
100
AcDbEntity
  8
0
 62
1
100
AcDbPolyline
 90
2
 70
0
 10
129.048016
 20
261.815612
 30
0.0
 10
129.048016
 20
244.882279
 30
0.0
  0
LWPOLYLINE
  5
306
100
AcDbEntity
  8
0
 62
1
100
AcDbPolyline
 90
2
 70
0
 10
129.048016
 20
261.815612
 30
0.0
 10
143.712847
 20
270.282279
 30
0.0
  0
LWPOLYLINE
  5
307
100
AcDbEntity
  8
0
 62
1
100
AcDbPolyline
 90
2
 70
0
 10
129.048016
 20
261.815612
 30
0.0
 10
143.712847
 20
253.348946
 30
0.0
  0
LWPOLYLINE
  5
308
100
AcDbEntity
  8
0
 62
1
100
AcDbPolyline
 90
2
 70
0
 10
129.048016
 20
244.882279
 30
0.0
 10
143.712847
 20
253.348946
 30
0.0
  0
LWPOLYLINE
  5
309
100
AcDbEntity
  8
0
 62
1
100
AcDbPolyline
 90
3
 70
0
 10
129.048016
 20
227.948946
 30
0.0
 10
129.048016
 20
211.015612
 30
0.0
 10
143.712847
 20
219.482279
 30
0.0
  0
LWPOLYLINE
  5
30a
100
AcDbEntity
  8
0
 62
1
100
AcDbPolyline
 90
2
 70
0
 10
129.048016
 20
211.015612
 30
0.0
 10
143.712847
 20
202.548946
 30
0.0
  0
LWPOLYLINE
  5
30b
100
AcDbEntity
  8
0
 62
1
100
AcDbPolyline
 90
3
 70
0
 10
143.712847
 20
304.148946
 30
0.0
 10
143.712847
 20
287.215612
 30
0.0
 10
158.377396
 20
295.682279
 30
0.0
  0
LWPOLYLINE
  5
30c
100
AcDbEntity
  8
0
 62
1
100
AcDbPolyline
 90
2
 70
0
 10
143.712847
 20
287.215612
 30
0.0
 10
158.377396
 20
278.748946
 30
0.0
  0
LWPOLYLINE
  5
30d
100
AcDbEntity
  8
0
 62
1
100
AcDbPolyline
 90
2
 70
0
 10
143.712847
 20
270.282279
 30
0.0
 10
143.712847
 20
253.348946
 30
0.0
  0
LWPOLYLINE
  5
30e
100
AcDbEntity
  8
0
 62
1
100
AcDbPolyline
 90
2
 70
0
 10
143.712847
 20
270.282279
 30
0.0
 10
158.377396
 20
278.748946
 30
0.0
  0
LWPOLYLINE
  5
30f
100
AcDbEntity
  8
0
 62
1
100
AcDbPolyline
 90
2
 70
0
 10
143.712847
 20
270.282279
 30
0.0
 10
158.377396
 20
261.815612
 30
0.0
  0
LWPOLYLINE
  5
310
100
AcDbEntity
  8
0
 62
1
100
AcDbPolyline
 90
2
 70
0
 10
143.712847
 20
253.348946
 30
0.0
 10
158.377396
 20
261.815612
 30
0.0
  0
LWPOLYLINE
  5
311
100
AcDbEntity
  8
0
 62
1
100
AcDbPolyline
 90
2
 70
0
 10
143.712847
 20
219.482279
 30
0.0
 10
143.712847
 20
202.548946
 30
0.0
  0
LWPOLYLINE
  5
312
100
AcDbEntity
  8
0
 62
1
100
AcDbPolyline
 90
2
 70
0
 10
158.377396
 20
346.482279
 30
0.0
 10
158.377396
 20
329.548946
 30
0.0
  0
LWPOLYLINE
  5
313
100
AcDbEntity
  8
0
 62
1
100
AcDbPolyline
 90
2
 70
0
 10
158.377396
 20
346.482279
 30
0.0
 10
173.042227
 20
338.015612
 30
0.0
  0
LWPOLYLINE
  5
314
100
AcDbEntity
  8
0
 62
1
100
AcDbPolyline
 90
2
 70
0
 10
158.377396
 20
329.548946
 30
0.0
 10
173.042227
 20
338.015612
 30
0.0
  0
LWPOLYLINE
  5
315
100
AcDbEntity
  8
0
 62
1
100
AcDbPolyline
 90
2
 70
0
 10
158.377396
 20
295.682279
 30
0.0
 10
158.377396
 20
278.748946
 30
0.0
  0
LWPOLYLINE
  5
316
100
AcDbEntity
  8
0
 62
1
100
AcDbPolyline
 90
2
 70
0
 10
158.377396
 20
295.682279
 30
0.0
 10
173.042227
 20
304.148946
 30
0.0
  0
LWPOLYLINE
  5
317
100
AcDbEntity
  8
0
 62
1
100
AcDbPolyline
 90
2
 70
0
 10
158.377396
 20
295.682279
 30
0.0
 10
173.042227
 20
287.215612
 30
0.0
  0
LWPOLYLINE
  5
318
100
AcDbEntity
  8
0
 62
1
100
AcDbPolyline
 90
2
 70
0
 10
158.377396
 20
278.748946
 30
0.0
 10
173.042227
 20
287.215612
 30
0.0
  0
LWPOLYLINE
  5
319
100
AcDbEntity
  8
0
 62
1
100
AcDbPolyline
 90
3
 70
0
 10
158.377396
 20
261.815612
 30
0.0
 10
158.377396
 20
244.882279
 30
0.0
 10
173.042227
 20
253.348946
 30
0.0
  0
LWPOLYLINE
  5
31a
100
AcDbEntity
  8
0
 62
1
100
AcDbPolyline
 90
2
 70
0
 10
158.377396
 20
244.882279
 30
0.0
 10
173.042227
 20
236.415612
 30
0.0
  0
LWPOLYLINE
  5
31b
100
AcDbEntity
  8
0
 62
1
100
AcDbPolyline
 90
3
 70
0
 10
173.042227
 20
338.015612
 30
0.0
 10
173.042227
 20
321.082279
 30
0.0
 10
187.706494
 20
329.548946
 30
0.0
  0
LWPOLYLINE
  5
31c
100
AcDbEntity
  8
0
 62
1
100
AcDbPolyline
 90
2
 70
0
 10
173.042227
 20
321.082279
 30
0.0
 10
187.706494
 20
312.615612
 30
0.0
  0
LWPOLYLINE
  5
31d
100
AcDbEntity
  8
0
 62
1
100
AcDbPolyline
 90
2
 70
0
 10
173.042227
 20
304.148946
 30
0.0
 10
173.042227
 20
287.215612
 30
0.0
  0
LWPOLYLINE
  5
31e
100
AcDbEntity
  8
0
 62
1
100
AcDbPolyline
 90
2
 70
0
 10
173.042227
 20
304.148946
 30
0.0
 10
187.706494
 20
312.615612
 30
0.0
  0
LWPOLYLINE
  5
31f
100
AcDbEntity
  8
0
 62
1
100
AcDbPolyline
 90
2
 70
0
 10
173.042227
 20
304.148946
 30
0.0
 10
187.706494
 20
295.682279
 30
0.0
  0
LWPOLYLINE
  5
320
100
AcDbEntity
  8
0
 62
1
100
AcDbPolyline
 90
2
 70
0
 10
173.042227
 20
287.215612
 30
0.0
 10
187.706494
 20
295.682279
 30
0.0
  0
LWPOLYLINE
  5
321
100
AcDbEntity
  8
0
 62
1
100
AcDbPolyline
 90
2
 70
0
 10
173.042227
 20
253.348946
 30
0.0
 10
173.042227
 20
236.415612
 30
0.0
  0
LWPOLYLINE
  5
322
100
AcDbEntity
  8
0
 62
1
100
AcDbPolyline
 90
2
 70
0
 10
187.706494
 20
329.548946
 30
0.0
 10
187.706494
 20
312.615612
 30
0.0
  0
LWPOLYLINE
  5
323
100
AcDbEntity
  8
0
 62
1
100
AcDbPolyline
 90
2
 70
0
 10
187.706494
 20
329.548946
 30
0.0
 10
202.370761
 20
338.015612
 30
0.0
  0
LWPOLYLINE
  5
324
100
AcDbEntity
  8
0
 62
1
100
AcDbPolyline
 90
2
 70
0
 10
187.706494
 20
329.548946
 30
0.0
 10
202.370761
 20
321.082279
 30
0.0
  0
LWPOLYLINE
  5
325
100
AcDbEntity
  8
0
 62
1
100
AcDbPolyline
 90
2
 70
0
 10
187.706494
 20
312.615612
 30
0.0
 10
202.370761
 20
321.082279
 30
0.0
  0
LWPOLYLINE
  5
326
100
AcDbEntity
  8
0
 62
1
100
AcDbPolyline
 90
3
 70
0
 10
187.706494
 20
295.682279
 30
0.0
 10
187.706494
 20
278.748946
 30
0.0
 10
202.370761
 20
287.215612
 30
0.0
  0
LWPOLYLINE
  5
327
100
AcDbEntity
  8
0
 62
1
100
AcDbPolyline
 90
2
 70
0
 10
187.706494
 20
278.748946
 30
0.0
 10
202.370761
 20
270.282279
 30
0.0
  0
LWPOLYLINE
  5
328
100
AcDbEntity
  8
0
 62
1
100
AcDbPolyline
 90
2
 70
0
 10
202.370761
 20
338.015612
 30
0.0
 10
202.370761
 20
321.082279
 30
0.0
  0
LWPOLYLINE
  5
329
100
AcDbEntity
  8
0
 62
1
100
AcDbPolyline
 90
2
 70
0
 10
202.370761
 20
338.015612
 30
0.0
 10
217.036721
 20
329.548946
 30
0.0
  0
LWPOLYLINE
  5
32a
100
AcDbEntity
  8
0
 62
1
100
AcDbPolyline
 90
2
 70
0
 10
202.370761
 20
321.082279
 30
0.0
 10
217.036721
 20
329.548946
 30
0.0
  0
LWPOLYLINE
  5
32b
100
AcDbEntity
  8
0
 62
1
100
AcDbPolyline
 90
2
 70
0
 10
202.370761
 20
287.215612
 30
0.0
 10
202.370761
 20
270.282279
 30
0.0
  0
LWPOLYLINE
  5
32c
100
AcDbEntity
  8
0
 62
1
100
AcDbPolyline
 90
3
 70
0
 10
217.036721
 20
329.548946
 30
0.0
 10
217.036721
 20
312.615612
 30
0.0
 10
231.700987
 20
321.082279
 30
0.0
  0
LWPOLYLINE
  5
32d
100
AcDbEntity
  8
0
 62
1
100
AcDbPolyline
 90
2
 70
0
 10
217.036721
 20
312.615612
 30
0.0
 10
231.700987
 20
304.148946
 30
0.0
  0
SPLINE
  5
32e
100
AcDbEntity
  8
0
 62
5
100
AcDbSpline
 70
0
 71
3
 72
10
 73
6
 74
4
 40
0.000000
 40
0.000000
 40
0.000000
 40
0.000000
 40
1.046214
 40
1.927102
 40
2.310851
 40
2.310851
 40
2.310851
 40
2.310851
 10
31.892923
 20
230.556163
 30
0.0
 10
32.099989
 20
230.270818
 30
0.0
 10
32.481400
 20
229.745219
 30
0.0
 10
32.647739
 20
228.976016
 30
0.0
 10
32.680896
 20
228.556416
 30
0.0
 10
32.690957
 20
228.429090
 30
0.0
 11
31.892923
 21
230.556163
 31
0.0
 11
32.442590
 21
229.665978
 31
0.0
 11
32.655444
 21
228.811193
 31
0.0
 11
32.690957
 21
228.429090
 31
0.0
  0
LWPOLYLINE
  5
32f
100
AcDbEntity
  8
0
 62
1
100
AcDbPolyline
 90
3
 70
0
 10
231.700987
 20
321.082279
 30
0.0
 10
231.700987
 20
304.148946
 30
0.0
 10
246.365254
 20
312.615612
 30
0.0
  0
ENDSEC
  0
SECTION
  2
OBJECTS
  0
DICTIONARY
  5
C
330
0
100
AcDbDictionary
  3
ACAD_GROUP
350
D
  3
ACAD_MLINESTYLE
350
17
  0
DICTIONARY
  5
D
330
C
100
AcDbDictionary
  0
DICTIONARY
  5
1A
330
C
100
AcDbDictionary
  0
DICTIONARY
  5
17
330
C
100
AcDbDictionary
  3
STANDARD
350
18
  0
DICTIONARY
  5
19
330
C
100
AcDbDictionary
  0
ENDSEC
  0
EOF
