999
DXF created by Inkscape
  0
SECTION
  2
HEADER
  9
$ACADVER
  1
AC1014
  9
$HANDSEED
  5
FFFF
  9
$MEASUREMENT
 70
     1
  0
ENDSEC
  0
SECTION
  2
TABLES
  0
TABLE
  2
VPORT
  5
8
330
0
100
AcDbSymbolTable
 70
     4
  0
VPORT
  5
2E
330
8
100
AcDbSymbolTableRecord
100
AcDbViewportTableRecord
  2
*ACTIVE
 70
     0
 10
0.0
 20
0.0
 11
1.0
 21
1.0
 12
210.0
 22
148.5
 13
0.0
 23
0.0
 14
10.0
 24
10.0
 15
10.0
 25
10.0
 16
0.0
 26
0.0
 36
1.0
 17
0.0
 27
0.0
 37
0.0
 40
341.0
 41
1.24
 42
50.0
 43
0.0
 44
0.0
 50
0.0
 51
0.0
 71
     0
 72
   100
 73
     1
 74
     3
 75
     0
 76
     0
 77
     0
 78
     0
  0
ENDTAB
  0
TABLE
  2
LTYPE
  5
5
330
0
100
AcDbSymbolTable
 70
     1
  0
LTYPE
  5
14
330
5
100
AcDbSymbolTableRecord
100
AcDbLinetypeTableRecord
  2
BYBLOCK
 70
     0
  3

 72
    65
 73
     0
 40
0.0
  0
LTYPE
  5
15
330
5
100
AcDbSymbolTableRecord
100
AcDbLinetypeTableRecord
  2
BYLAYER
 70
     0
  3

 72
    65
 73
     0
 40
0.0
  0
LTYPE
  5
16
330
5
100
AcDbSymbolTableRecord
100
AcDbLinetypeTableRecord
  2
CONTINUOUS
 70
     0
  3
Solid line
 72
    65
 73
     0
 40
0.0
  0
ENDTAB
  0
TABLE
  2
LAYER
  5
2
330
0
100
AcDbSymbolTable
 70
1
  0
LAYER
  5
10
330
2
100
AcDbSymbolTableRecord
100
AcDbLayerTableRecord
  2
0
 70
     0
 62
     7
  6
CONTINUOUS
  0
ENDTAB
  0
TABLE
  2
STYLE
  5
3
330
0
100
AcDbSymbolTable
 70
     1
  0
STYLE
  5
11
330
3
100
AcDbSymbolTableRecord
100
AcDbTextStyleTableRecord
  2
STANDARD
 70
     0
 40
0.0
 41
1.0
 50
0.0
 71
     0
 42
2.5
  3
txt
  4

  0
ENDTAB
  0
TABLE
  2
VIEW
  5
6
330
0
100
AcDbSymbolTable
 70
     0
  0
ENDTAB
  0
TABLE
  2
UCS
  5
7
330
0
100
AcDbSymbolTable
 70
     0
  0
ENDTAB
  0
TABLE
  2
APPID
  5
9
330
0
100
AcDbSymbolTable
 70
     2
  0
APPID
  5
12
330
9
100
AcDbSymbolTableRecord
100
AcDbRegAppTableRecord
  2
ACAD
 70
     0
  0
ENDTAB
  0
TABLE
  2
DIMSTYLE
  5
A
330
0
100
AcDbSymbolTable
 70
     1
  0
DIMSTYLE
105
27
330
A
100
AcDbSymbolTableRecord
100
AcDbDimStyleTableRecord
  2
ISO-25
 70
     0
  3

  4

  5

  6

  7

 40
1.0
 41
2.5
 42
0.625
 43
3.75
 44
1.25
 45
0.0
 46
0.0
 47
0.0
 48
0.0
140
2.5
141
2.5
142
0.0
143
0.03937007874016
144
1.0
145
0.0
146
1.0
147
0.625
 71
     0
 72
     0
 73
     0
 74
     0
 75
     0
 76
     0
 77
     1
 78
     8
170
     0
171
     3
172
     1
173
     0
174
     0
175
     0
176
     0
177
     0
178
     0
270
     2
271
     2
272
     2
273
     2
274
     3
340
11
275
     0
280
     0
281
     0
282
     0
283
     0
284
     8
285
     0
286
     0
287
     3
288
     0
  0
ENDTAB
  0
TABLE
  2
BLOCK_RECORD
  5
1
330
0
100
AcDbSymbolTable
 70
     1
  0
BLOCK_RECORD
  5
1F
330
1
100
AcDbSymbolTableRecord
100
AcDbBlockTableRecord
  2
*MODEL_SPACE
  0
BLOCK_RECORD
  5
1B
330
1
100
AcDbSymbolTableRecord
100
AcDbBlockTableRecord
  2
*PAPER_SPACE
  0
ENDTAB
  0
ENDSEC
  0
SECTION
  2
BLOCKS
  0
BLOCK
  5
20
330
1F
100
AcDbEntity
  8
0
100
AcDbBlockBegin
  2
*MODEL_SPACE
 70
     0
 10
0.0
 20
0.0
 30
0.0
  3
*MODEL_SPACE
  1

  0
ENDBLK
  5
21
330
1F
100
AcDbEntity
  8
0
100
AcDbBlockEnd
  0
BLOCK
  5
1C
330
1B
100
AcDbEntity
 67
     1
  8
0
100
AcDbBlockBegin
  2
*PAPER_SPACE
  1

  0
ENDBLK
  5
1D
330
1B
100
AcDbEntity
 67
     1
  8
0
100
AcDbBlockEnd
  0
ENDSEC
  0
SECTION
  2
ENTITIES
  0
SPLINE
  5
100
100
AcDbEntity
  8
0
 62
5
100
AcDbSpline
 70
0
 71
3
 72
10
 73
6
 74
4
 40
0.000000
 40
0.000000
 40
0.000000
 40
0.000000
 40
0.383748
 40
1.264636
 40
2.310848
 40
2.310848
 40
2.310848
 40
2.310848
 10
65.944352
 20
269.321582
 30
0.0
 10
65.818776
 20
269.298266
 30
0.0
 10
65.404941
 20
269.221430
 30
0.0
 10
64.657341
 20
268.975599
 30
0.0
 10
64.174489
 20
268.541338
 30
0.0
 10
63.912352
 20
268.305580
 30
0.0
 11
65.944352
 21
269.321582
 31
0.0
 11
65.568056
 21
269.246322
 31
0.0
 11
64.740204
 21
268.945285
 31
0.0
 11
63.912352
 21
268.305580
 31
0.0
  0
SPLINE
  5
101
100
AcDbEntity
  8
0
 62
5
100
AcDbSpline
 70
0
 71
3
 72
10
 73
6
 74
4
 40
0.000000
 40
0.000000
 40
0.000000
 40
0.000000
 40
1.754122
 40
3.597974
 40
5.352096
 40
5.352096
 40
5.352096
 40
5.352096
 10
63.912352
 20
268.305580
 30
0.0
 10
63.642763
 20
267.781085
 30
0.0
 10
63.089796
 20
266.705266
 30
0.0
 10
63.089796
 20
264.825895
 30
0.0
 10
63.642763
 20
263.750075
 30
0.0
 10
63.912352
 20
263.225580
 30
0.0
 11
63.912352
 21
268.305580
 31
0.0
 11
63.235019
 21
266.687506
 31
0.0
 11
63.235019
 21
264.843655
 31
0.0
 11
63.912352
 21
263.225580
 31
0.0
  0
LWPOLYLINE
  5
102
100
AcDbEntity
  8
0
 62
5
100
AcDbPolyline
 90
4
 70
0
 10
66.283019
 20
274.232248
 30
0.0
 10
66.283019
 20
268.305580
 30
0.0
 10
65.944352
 20
268.305580
 30
0.0
 10
65.944352
 20
269.321582
 30
0.0
  0
LWPOLYLINE
  5
103
100
AcDbEntity
  8
0
 62
5
100
AcDbPolyline
 90
4
 70
0
 10
65.944352
 20
262.209580
 30
0.0
 10
65.944352
 20
263.225580
 30
0.0
 10
66.283019
 20
263.225580
 30
0.0
 10
66.283019
 20
257.298914
 30
0.0
  0
LWPOLYLINE
  5
104
100
AcDbEntity
  8
0
 62
1
100
AcDbPolyline
 90
2
 70
0
 10
66.283019
 20
267.120247
 30
0.0
 10
66.283019
 20
264.410914
 30
0.0
  0
LWPOLYLINE
  5
105
100
AcDbEntity
  8
0
 62
5
100
AcDbPolyline
 90
4
 70
0
 10
80.947712
 20
265.765578
 30
0.0
 10
79.623440
 20
261.285955
 30
0.0
 10
70.824623
 20
256.205955
 30
0.0
 10
66.283019
 20
257.298914
 30
0.0
  0
LWPOLYLINE
  5
106
100
AcDbEntity
  8
0
 62
5
100
AcDbPolyline
 90
4
 70
0
 10
76.587598
 20
263.834853
 30
0.0
 10
76.424344
 20
262.762951
 30
0.0
 10
71.145056
 20
259.714953
 30
0.0
 10
70.135135
 20
260.109520
 30
0.0
  0
LWPOLYLINE
  5
107
100
AcDbEntity
  8
0
 62
1
100
AcDbPolyline
 90
2
 70
0
 10
80.947712
 20
265.765578
 30
0.0
 10
76.841598
 20
263.394911
 30
0.0
  0
LWPOLYLINE
  5
108
100
AcDbEntity
  8
0
 62
1
100
AcDbPolyline
 90
2
 70
0
 10
66.283019
 20
257.298914
 30
0.0
 10
70.389135
 20
259.669580
 30
0.0
  0
SPLINE
  5
109
100
AcDbEntity
  8
0
 62
5
100
AcDbSpline
 70
0
 71
3
 72
10
 73
6
 74
4
 40
0.000000
 40
0.000000
 40
0.000000
 40
0.000000
 40
1.046212
 40
1.927099
 40
2.310847
 40
2.310847
 40
2.310847
 40
2.310847
 10
63.912352
 20
263.225580
 30
0.0
 10
64.174490
 20
262.989823
 30
0.0
 10
64.657341
 20
262.555563
 30
0.0
 10
65.404941
 20
262.309732
 30
0.0
 10
65.818776
 20
262.232896
 30
0.0
 10
65.944352
 20
262.209580
 30
0.0
 11
63.912352
 21
263.225580
 31
0.0
 11
64.740204
 21
262.585877
 31
0.0
 11
65.568056
 21
262.284840
 31
0.0
 11
65.944352
 21
262.209580
 31
0.0
  0
SPLINE
  5
10a
100
AcDbEntity
  8
0
 62
5
100
AcDbSpline
 70
0
 71
3
 72
10
 73
6
 74
4
 40
0.000000
 40
0.000000
 40
0.000000
 40
0.000000
 40
0.383751
 40
1.264645
 40
2.310863
 40
2.310863
 40
2.310863
 40
2.310863
 10
83.109762
 20
261.343457
 30
0.0
 10
83.012667
 20
261.260477
 30
0.0
 10
82.692691
 20
260.987016
 30
0.0
 10
82.168163
 20
260.400315
 30
0.0
 10
81.967131
 20
259.782805
 30
0.0
 10
81.857991
 20
259.447562
 30
0.0
 11
83.109762
 21
261.343457
 31
0.0
 11
82.821508
 21
261.090131
 31
0.0
 11
82.255082
 21
260.415494
 31
0.0
 11
81.857991
 21
259.447562
 31
0.0
  0
SPLINE
  5
10b
100
AcDbEntity
  8
0
 62
5
100
AcDbSpline
 70
0
 71
3
 72
10
 73
6
 74
4
 40
0.000000
 40
0.000000
 40
0.000000
 40
0.000000
 40
1.754133
 40
3.597997
 40
5.352132
 40
5.352132
 40
5.352132
 40
5.352132
 10
81.857991
 20
259.447562
 30
0.0
 10
81.886768
 20
258.858538
 30
0.0
 10
81.945794
 20
257.650359
 30
0.0
 10
82.885485
 20
256.022766
 30
0.0
 10
83.902286
 20
255.367558
 30
0.0
 10
84.398008
 20
255.048124
 30
0.0
 11
81.857991
 21
259.447562
 31
0.0
 11
82.080441
 21
257.707591
 31
0.0
 11
83.002373
 21
256.110758
 31
0.0
 11
84.398008
 21
255.048124
 31
0.0
  0
LWPOLYLINE
  5
10c
100
AcDbEntity
  8
0
 62
5
100
AcDbPolyline
 90
4
 70
0
 10
80.947709
 20
265.765580
 30
0.0
 10
83.911062
 20
260.632904
 30
0.0
 10
83.617765
 20
260.463568
 30
0.0
 10
83.109762
 20
261.343457
 30
0.0
  0
LWPOLYLINE
  5
10d
100
AcDbEntity
  8
0
 62
5
100
AcDbPolyline
 90
4
 70
0
 10
86.665785
 20
255.184242
 30
0.0
 10
86.157782
 20
256.064132
 30
0.0
 10
86.451079
 20
256.233466
 30
0.0
 10
89.414429
 20
251.100789
 30
0.0
  0
LWPOLYLINE
  5
10e
100
AcDbEntity
  8
0
 62
1
100
AcDbPolyline
 90
2
 70
0
 10
84.503731
 20
259.606368
 30
0.0
 10
85.858406
 20
257.260001
 30
0.0
  0
LWPOLYLINE
  5
10f
100
AcDbEntity
  8
0
 62
5
100
AcDbPolyline
 90
5
 70
0
 10
89.414460
 20
251.100806
 30
0.0
 10
92.900785
 20
251.043275
 30
0.0
 10
96.954272
 20
260.434798
 30
0.0
 10
96.187822
 20
262.832609
 30
0.0
 10
97.881161
 20
265.765561
 30
0.0
  0
LWPOLYLINE
  5
110
100
AcDbEntity
  8
0
 62
5
100
AcDbPolyline
 90
4
 70
0
 10
89.651854
 20
252.527987
 30
0.0
 10
90.723760
 20
252.691241
 30
0.0
 10
93.771771
 20
257.970555
 30
0.0
 10
93.377202
 20
258.980478
 30
0.0
  0
LWPOLYLINE
  5
111
100
AcDbEntity
  8
0
 62
1
100
AcDbPolyline
 90
2
 70
0
 10
89.414460
 20
251.100806
 30
0.0
 10
90.091796
 20
252.273987
 30
0.0
  0
LWPOLYLINE
  5
112
100
AcDbEntity
  8
0
 62
1
100
AcDbPolyline
 90
2
 70
0
 10
96.187822
 20
262.832609
 30
0.0
 10
93.817144
 20
258.726478
 30
0.0
  0
SPLINE
  5
113
100
AcDbEntity
  8
0
 62
5
100
AcDbSpline
 70
0
 71
3
 72
10
 73
6
 74
4
 40
0.000000
 40
0.000000
 40
0.000000
 40
0.000000
 40
1.046218
 40
1.927110
 40
2.310861
 40
2.310861
 40
2.310861
 40
2.310861
 10
84.398008
 20
255.048124
 30
0.0
 10
84.742906
 20
254.975020
 30
0.0
 10
85.378201
 20
254.840366
 30
0.0
 10
86.148562
 20
255.001270
 30
0.0
 10
86.545374
 20
255.141646
 30
0.0
 10
86.665785
 20
255.184242
 30
0.0
 11
84.398008
 21
255.048124
 31
0.0
 11
85.434806
 21
254.908050
 31
0.0
 11
86.302271
 21
255.061270
 31
0.0
 11
86.665785
 21
255.184242
 31
0.0
  0
SPLINE
  5
114
100
AcDbEntity
  8
0
 62
5
100
AcDbSpline
 70
0
 71
3
 72
10
 73
6
 74
4
 40
0.000000
 40
0.000000
 40
0.000000
 40
0.000000
 40
0.168285
 40
0.650179
 40
1.455488
 40
1.455488
 40
1.455488
 40
1.455488
 10
97.542460
 20
257.468247
 30
0.0
 10
97.491655
 20
257.444297
 30
0.0
 10
97.295365
 20
257.351766
 30
0.0
 10
96.919367
 20
257.030673
 30
0.0
 10
96.677671
 20
256.674856
 30
0.0
 10
96.526460
 20
256.452247
 30
0.0
 11
97.542460
 21
257.468247
 31
0.0
 11
97.391942
 21
257.392988
 31
0.0
 11
97.015645
 21
257.091951
 31
0.0
 11
96.526460
 21
256.452247
 31
0.0
  0
SPLINE
  5
115
100
AcDbEntity
  8
0
 62
5
100
AcDbSpline
 70
0
 71
3
 72
10
 73
6
 74
4
 40
0.000000
 40
0.000000
 40
0.000000
 40
0.000000
 40
1.568766
 40
3.234005
 40
4.770394
 40
4.770394
 40
4.770394
 40
4.770394
 10
96.526460
 20
256.452247
 30
0.0
 10
96.354532
 20
255.958294
 30
0.0
 10
96.000104
 20
254.940013
 30
0.0
 10
95.565401
 20
253.409689
 30
0.0
 10
95.299428
 20
252.376197
 30
0.0
 10
95.171793
 20
251.880247
 30
0.0
 11
96.526460
 21
256.452247
 31
0.0
 11
96.024732
 21
254.965877
 31
0.0
 11
95.560633
 21
253.366618
 31
0.0
 11
95.171793
 21
251.880247
 31
0.0
  0
LWPOLYLINE
  5
116
100
AcDbEntity
  8
0
 62
5
100
AcDbPolyline
 90
4
 70
0
 10
97.881127
 20
265.765580
 30
0.0
 10
97.881127
 20
256.452247
 30
0.0
 10
97.542460
 20
256.452247
 30
0.0
 10
97.542460
 20
257.468247
 30
0.0
  0
LWPOLYLINE
  5
117
100
AcDbEntity
  8
0
 62
5
100
AcDbPolyline
 90
4
 70
0
 10
97.542460
 20
250.356247
 30
0.0
 10
97.542460
 20
251.372247
 30
0.0
 10
97.881127
 20
251.372247
 30
0.0
 10
97.881127
 20
248.832247
 30
0.0
  0
LWPOLYLINE
  5
118
100
AcDbEntity
  8
0
 62
1
100
AcDbPolyline
 90
2
 70
0
 10
97.881127
 20
255.266914
 30
0.0
 10
97.881127
 20
252.557580
 30
0.0
  0
LWPOLYLINE
  5
119
100
AcDbEntity
  8
0
 62
5
100
AcDbPolyline
 90
4
 70
0
 10
112.545755
 20
257.298874
 30
0.0
 10
111.221489
 20
252.819268
 30
0.0
 10
102.422712
 20
247.739294
 30
0.0
 10
97.881127
 20
248.832247
 30
0.0
  0
LWPOLYLINE
  5
11a
100
AcDbEntity
  8
0
 62
5
100
AcDbPolyline
 90
4
 70
0
 10
108.185661
 20
255.368158
 30
0.0
 10
108.022407
 20
254.296261
 30
0.0
 10
102.743141
 20
251.248275
 30
0.0
 10
101.733223
 20
251.642842
 30
0.0
  0
LWPOLYLINE
  5
11b
100
AcDbEntity
  8
0
 62
1
100
AcDbPolyline
 90
2
 70
0
 10
112.545755
 20
257.298874
 30
0.0
 10
108.439658
 20
254.928219
 30
0.0
  0
LWPOLYLINE
  5
11c
100
AcDbEntity
  8
0
 62
1
100
AcDbPolyline
 90
2
 70
0
 10
97.881127
 20
248.832247
 30
0.0
 10
101.987223
 20
251.202903
 30
0.0
  0
SPLINE
  5
11d
100
AcDbEntity
  8
0
 62
5
100
AcDbSpline
 70
0
 71
3
 72
10
 73
6
 74
4
 40
0.000000
 40
0.000000
 40
0.000000
 40
0.000000
 40
1.197285
 40
2.328489
 40
2.836644
 40
2.836644
 40
2.836644
 40
2.836644
 10
95.171793
 20
251.880247
 30
0.0
 10
95.465999
 20
251.607874
 30
0.0
 10
96.038173
 20
251.078162
 30
0.0
 10
96.887436
 20
250.643470
 30
0.0
 10
97.387465
 20
250.424211
 30
0.0
 10
97.542460
 20
250.356247
 30
0.0
 11
95.171793
 21
251.880247
 31
0.0
 11
96.087448
 21
251.108840
 31
0.0
 11
97.078361
 21
250.563210
 31
0.0
 11
97.542460
 21
250.356247
 31
0.0
  0
SPLINE
  5
11e
100
AcDbEntity
  8
0
 62
5
100
AcDbSpline
 70
0
 71
3
 72
10
 73
6
 74
4
 40
0.000000
 40
0.000000
 40
0.000000
 40
0.000000
 40
0.383750
 40
1.264641
 40
2.310857
 40
2.310857
 40
2.310857
 40
2.310857
 10
114.707780
 20
252.876802
 30
0.0
 10
114.610685
 20
252.793822
 30
0.0
 10
114.290710
 20
252.520361
 30
0.0
 10
113.766183
 20
251.933662
 30
0.0
 10
113.565151
 20
251.316154
 30
0.0
 10
113.456012
 20
250.980912
 30
0.0
 11
114.707780
 21
252.876802
 31
0.0
 11
114.419526
 21
252.623476
 31
0.0
 11
113.853102
 21
251.948842
 31
0.0
 11
113.456012
 21
250.980912
 31
0.0
  0
SPLINE
  5
11f
100
AcDbEntity
  8
0
 62
5
100
AcDbSpline
 70
0
 71
3
 72
10
 73
6
 74
4
 40
0.000000
 40
0.000000
 40
0.000000
 40
0.000000
 40
1.754130
 40
3.597989
 40
5.352119
 40
5.352119
 40
5.352119
 40
5.352119
 10
113.456012
 20
250.980912
 30
0.0
 10
113.484788
 20
250.391889
 30
0.0
 10
113.543813
 20
249.183713
 30
0.0
 10
114.483503
 20
247.556124
 30
0.0
 10
115.500302
 20
246.900918
 30
0.0
 10
115.996023
 20
246.581485
 30
0.0
 11
113.456012
 21
250.980912
 31
0.0
 11
113.678461
 21
249.240945
 31
0.0
 11
114.600391
 21
247.644116
 31
0.0
 11
115.996023
 21
246.581485
 31
0.0
  0
LWPOLYLINE
  5
120
100
AcDbEntity
  8
0
 62
5
100
AcDbPolyline
 90
4
 70
0
 10
112.545732
 20
257.298914
 30
0.0
 10
115.509077
 20
252.166248
 30
0.0
 10
115.215783
 20
251.996915
 30
0.0
 10
114.707780
 20
252.876802
 30
0.0
  0
LWPOLYLINE
  5
121
100
AcDbEntity
  8
0
 62
5
100
AcDbPolyline
 90
4
 70
0
 10
118.263794
 20
246.717604
 30
0.0
 10
117.755791
 20
247.597488
 30
0.0
 10
118.049088
 20
247.766822
 30
0.0
 10
121.012433
 20
242.634159
 30
0.0
  0
LWPOLYLINE
  5
122
100
AcDbEntity
  8
0
 62
1
100
AcDbPolyline
 90
2
 70
0
 10
116.101746
 20
251.139716
 30
0.0
 10
117.456418
 20
248.793357
 30
0.0
  0
LWPOLYLINE
  5
123
100
AcDbEntity
  8
0
 62
5
100
AcDbPolyline
 90
5
 70
0
 10
121.012399
 20
242.634139
 30
0.0
 10
124.498724
 20
242.576608
 30
0.0
 10
128.552211
 20
251.968131
 30
0.0
 10
127.785760
 20
254.365942
 30
0.0
 10
129.479099
 20
257.298894
 30
0.0
  0
LWPOLYLINE
  5
124
100
AcDbEntity
  8
0
 62
5
100
AcDbPolyline
 90
4
 70
0
 10
121.249793
 20
244.061320
 30
0.0
 10
122.321698
 20
244.224574
 30
0.0
 10
125.369709
 20
249.503888
 30
0.0
 10
124.975140
 20
250.513812
 30
0.0
  0
LWPOLYLINE
  5
125
100
AcDbEntity
  8
0
 62
1
100
AcDbPolyline
 90
2
 70
0
 10
121.012399
 20
242.634139
 30
0.0
 10
121.689735
 20
243.807320
 30
0.0
  0
LWPOLYLINE
  5
126
100
AcDbEntity
  8
0
 62
1
100
AcDbPolyline
 90
2
 70
0
 10
127.785760
 20
254.365942
 30
0.0
 10
125.415082
 20
250.259812
 30
0.0
  0
SPLINE
  5
127
100
AcDbEntity
  8
0
 62
5
100
AcDbSpline
 70
0
 71
3
 72
10
 73
6
 74
4
 40
0.000000
 40
0.000000
 40
0.000000
 40
0.000000
 40
1.046215
 40
1.927105
 40
2.310855
 40
2.310855
 40
2.310855
 40
2.310855
 10
115.996023
 20
246.581485
 30
0.0
 10
116.340920
 20
246.508382
 30
0.0
 10
116.976214
 20
246.373727
 30
0.0
 10
117.746573
 20
246.534631
 30
0.0
 10
118.143384
 20
246.675007
 30
0.0
 10
118.263794
 20
246.717604
 30
0.0
 11
115.996023
 21
246.581485
 31
0.0
 11
117.032819
 21
246.441411
 31
0.0
 11
117.900281
 21
246.594632
 31
0.0
 11
118.263794
 21
246.717604
 31
0.0
  0
SPLINE
  5
128
100
AcDbEntity
  8
0
 62
5
100
AcDbSpline
 70
0
 71
3
 72
10
 73
6
 74
4
 40
0.000000
 40
0.000000
 40
0.000000
 40
0.000000
 40
0.168285
 40
0.650179
 40
1.455488
 40
1.455488
 40
1.455488
 40
1.455488
 10
129.140399
 20
249.001580
 30
0.0
 10
129.089593
 20
248.977631
 30
0.0
 10
128.893303
 20
248.885100
 30
0.0
 10
128.517306
 20
248.564006
 30
0.0
 10
128.275610
 20
248.208189
 30
0.0
 10
128.124399
 20
247.985580
 30
0.0
 11
129.140399
 21
249.001580
 31
0.0
 11
128.989880
 21
248.926321
 31
0.0
 11
128.613584
 21
248.625284
 31
0.0
 11
128.124399
 21
247.985580
 31
0.0
  0
SPLINE
  5
129
100
AcDbEntity
  8
0
 62
5
100
AcDbSpline
 70
0
 71
3
 72
10
 73
6
 74
4
 40
0.000000
 40
0.000000
 40
0.000000
 40
0.000000
 40
1.568766
 40
3.234005
 40
4.770394
 40
4.770394
 40
4.770394
 40
4.770394
 10
128.124399
 20
247.985580
 30
0.0
 10
127.952471
 20
247.491628
 30
0.0
 10
127.598043
 20
246.473346
 30
0.0
 10
127.163340
 20
244.943022
 30
0.0
 10
126.897367
 20
243.909530
 30
0.0
 10
126.769732
 20
243.413580
 30
0.0
 11
128.124399
 21
247.985580
 31
0.0
 11
127.622670
 21
246.499210
 31
0.0
 11
127.158572
 21
244.899951
 31
0.0
 11
126.769732
 21
243.413580
 31
0.0
  0
LWPOLYLINE
  5
12a
100
AcDbEntity
  8
0
 62
5
100
AcDbPolyline
 90
4
 70
0
 10
129.479065
 20
257.298914
 30
0.0
 10
129.479065
 20
247.985580
 30
0.0
 10
129.140399
 20
247.985580
 30
0.0
 10
129.140399
 20
249.001580
 30
0.0
  0
LWPOLYLINE
  5
12b
100
AcDbEntity
  8
0
 62
5
100
AcDbPolyline
 90
4
 70
0
 10
129.140399
 20
241.889580
 30
0.0
 10
129.140399
 20
242.905580
 30
0.0
 10
129.479065
 20
242.905580
 30
0.0
 10
129.479065
 20
240.365580
 30
0.0
  0
LWPOLYLINE
  5
12c
100
AcDbEntity
  8
0
 62
1
100
AcDbPolyline
 90
2
 70
0
 10
129.479065
 20
246.800247
 30
0.0
 10
129.479065
 20
244.090914
 30
0.0
  0
LWPOLYLINE
  5
12d
100
AcDbEntity
  8
0
 62
5
100
AcDbPolyline
 90
5
 70
0
 10
129.479065
 20
240.365580
 30
0.0
 10
132.469546
 20
238.572594
 30
0.0
 10
140.675730
 20
244.679147
 30
0.0
 10
141.210868
 20
247.138942
 30
0.0
 10
144.143820
 20
248.832281
 30
0.0
  0
LWPOLYLINE
  5
12e
100
AcDbEntity
  8
0
 62
5
100
AcDbPolyline
 90
4
 70
0
 10
130.398243
 20
241.482859
 30
0.0
 10
131.408170
 20
241.088290
 30
0.0
 10
136.687481
 20
244.136301
 30
0.0
 10
136.850738
 20
245.208206
 30
0.0
  0
LWPOLYLINE
  5
12f
100
AcDbEntity
  8
0
 62
1
100
AcDbPolyline
 90
2
 70
0
 10
129.479065
 20
240.365580
 30
0.0
 10
130.652246
 20
241.042917
 30
0.0
  0
LWPOLYLINE
  5
130
100
AcDbEntity
  8
0
 62
1
100
AcDbPolyline
 90
2
 70
0
 10
141.210868
 20
247.138942
 30
0.0
 10
137.104738
 20
244.768264
 30
0.0
  0
SPLINE
  5
131
100
AcDbEntity
  8
0
 62
5
100
AcDbSpline
 70
0
 71
3
 72
10
 73
6
 74
4
 40
0.000000
 40
0.000000
 40
0.000000
 40
0.000000
 40
1.197285
 40
2.328489
 40
2.836644
 40
2.836644
 40
2.836644
 40
2.836644
 10
126.769732
 20
243.413580
 30
0.0
 10
127.063938
 20
243.141208
 30
0.0
 10
127.636112
 20
242.611495
 30
0.0
 10
128.485375
 20
242.176804
 30
0.0
 10
128.985404
 20
241.957545
 30
0.0
 10
129.140399
 20
241.889580
 30
0.0
 11
126.769732
 21
243.413580
 31
0.0
 11
127.685386
 21
242.642173
 31
0.0
 11
128.676300
 21
242.096543
 31
0.0
 11
129.140399
 21
241.889580
 31
0.0
  0
SPLINE
  5
132
100
AcDbEntity
  8
0
 62
5
100
AcDbSpline
 70
0
 71
3
 72
10
 73
6
 74
4
 40
0.000000
 40
0.000000
 40
0.000000
 40
0.000000
 40
0.168286
 40
0.650182
 40
1.455494
 40
1.455494
 40
1.455494
 40
1.455494
 10
139.701863
 20
241.815850
 30
0.0
 10
139.645889
 20
241.820512
 30
0.0
 10
139.429630
 20
241.838523
 30
0.0
 10
138.943458
 20
241.748447
 30
0.0
 10
138.556233
 20
241.561148
 30
0.0
 10
138.313976
 20
241.443969
 30
0.0
 11
139.701863
 21
241.815850
 31
0.0
 11
139.533879
 21
241.825933
 31
0.0
 11
139.057476
 21
241.753376
 31
0.0
 11
138.313976
 21
241.443969
 31
0.0
  0
SPLINE
  5
133
100
AcDbEntity
  8
0
 62
5
100
AcDbSpline
 70
0
 71
3
 72
10
 73
6
 74
4
 40
0.000000
 40
0.000000
 40
0.000000
 40
0.000000
 40
1.568774
 40
3.234018
 40
4.770413
 40
4.770413
 40
4.770413
 40
4.770413
 10
138.313976
 20
241.443969
 30
0.0
 10
137.918103
 20
241.102155
 30
0.0
 10
137.102015
 20
240.397509
 30
0.0
 10
135.960385
 20
239.289557
 30
0.0
 10
135.213297
 20
238.527509
 30
0.0
 10
134.854786
 20
238.161820
 30
0.0
 11
138.313976
 21
241.443969
 31
0.0
 11
137.136275
 21
240.407594
 31
0.0
 11
135.934720
 21
239.254639
 31
0.0
 11
134.854786
 21
238.161820
 31
0.0
  0
LWPOLYLINE
  5
134
100
AcDbEntity
  8
0
 62
5
100
AcDbPolyline
 90
4
 70
0
 10
144.143840
 20
248.832247
 30
0.0
 10
139.487154
 20
240.766632
 30
0.0
 10
139.193860
 20
240.935966
 30
0.0
 10
139.701863
 20
241.815850
 30
0.0
  0
LWPOLYLINE
  5
135
100
AcDbEntity
  8
0
 62
5
100
AcDbPolyline
 90
4
 70
0
 10
136.145849
 20
235.656655
 30
0.0
 10
136.653849
 20
236.536539
 30
0.0
 10
136.947145
 20
236.367206
 30
0.0
 10
135.677140
 20
234.167492
 30
0.0
  0
LWPOLYLINE
  5
136
100
AcDbEntity
  8
0
 62
1
100
AcDbPolyline
 90
2
 70
0
 10
138.894487
 20
239.740100
 30
0.0
 10
137.539815
 20
237.393738
 30
0.0
  0
LWPOLYLINE
  5
137
100
AcDbEntity
  8
0
 62
5
100
AcDbPolyline
 90
4
 70
0
 10
135.677173
 20
234.167472
 30
0.0
 10
131.135549
 20
235.260437
 30
0.0
 10
122.336695
 20
230.180415
 30
0.0
 10
121.012418
 20
225.700772
 30
0.0
  0
LWPOLYLINE
  5
138
100
AcDbEntity
  8
0
 62
5
100
AcDbPolyline
 90
4
 70
0
 10
131.825043
 20
231.356852
 30
0.0
 10
130.815117
 20
231.751424
 30
0.0
 10
125.535806
 20
228.703410
 30
0.0
 10
125.372551
 20
227.631505
 30
0.0
  0
LWPOLYLINE
  5
139
100
AcDbEntity
  8
0
 62
1
100
AcDbPolyline
 90
2
 70
0
 10
135.677173
 20
234.167472
 30
0.0
 10
131.571043
 20
231.796797
 30
0.0
  0
LWPOLYLINE
  5
13a
100
AcDbEntity
  8
0
 62
1
100
AcDbPolyline
 90
2
 70
0
 10
121.012418
 20
225.700772
 30
0.0
 10
125.118549
 20
228.071447
 30
0.0
  0
SPLINE
  5
13b
100
AcDbEntity
  8
0
 62
5
100
AcDbSpline
 70
0
 71
3
 72
10
 73
6
 74
4
 40
0.000000
 40
0.000000
 40
0.000000
 40
0.000000
 40
1.197290
 40
2.328497
 40
2.836654
 40
2.836654
 40
2.836654
 40
2.836654
 10
134.854786
 20
238.161820
 30
0.0
 10
134.973390
 20
237.778834
 30
0.0
 10
135.204052
 20
237.034000
 30
0.0
 10
135.722191
 20
236.232911
 30
0.0
 10
136.045601
 20
235.793011
 30
0.0
 10
136.145849
 20
235.656655
 30
0.0
 11
134.854786
 21
238.161820
 31
0.0
 11
135.262064
 21
237.035930
 31
0.0
 11
135.847407
 21
236.067941
 31
0.0
 11
136.145849
 21
235.656655
 31
0.0
  0
SPLINE
  5
13c
100
AcDbEntity
  8
0
 62
5
100
AcDbSpline
 70
0
 71
3
 72
10
 73
6
 74
4
 40
0.000000
 40
0.000000
 40
0.000000
 40
0.000000
 40
0.383750
 40
1.264641
 40
2.310857
 40
2.310857
 40
2.310857
 40
2.310857
 10
131.255042
 20
219.396153
 30
0.0
 10
131.172061
 20
219.299058
 30
0.0
 10
130.898601
 20
218.979083
 30
0.0
 10
130.311902
 20
218.454556
 30
0.0
 10
129.694394
 20
218.253524
 30
0.0
 10
129.359152
 20
218.144385
 30
0.0
 11
131.255042
 21
219.396153
 31
0.0
 11
131.001716
 21
219.107899
 31
0.0
 11
130.327081
 21
218.541475
 31
0.0
 11
129.359152
 21
218.144385
 31
0.0
  0
SPLINE
  5
13d
100
AcDbEntity
  8
0
 62
5
100
AcDbSpline
 70
0
 71
3
 72
10
 73
6
 74
4
 40
0.000000
 40
0.000000
 40
0.000000
 40
0.000000
 40
1.754130
 40
3.597989
 40
5.352119
 40
5.352119
 40
5.352119
 40
5.352119
 10
129.359152
 20
218.144385
 30
0.0
 10
128.770129
 20
218.173161
 30
0.0
 10
127.561953
 20
218.232187
 30
0.0
 10
125.934363
 20
219.171876
 30
0.0
 10
125.279158
 20
220.188675
 30
0.0
 10
124.959725
 20
220.684396
 30
0.0
 11
129.359152
 21
218.144385
 31
0.0
 11
127.619184
 21
218.366834
 31
0.0
 11
126.022356
 21
219.288764
 31
0.0
 11
124.959725
 21
220.684396
 31
0.0
  0
LWPOLYLINE
  5
13e
100
AcDbEntity
  8
0
 62
5
100
AcDbPolyline
 90
4
 70
0
 10
135.677154
 20
217.234105
 30
0.0
 10
130.544488
 20
220.197450
 30
0.0
 10
130.375155
 20
219.904156
 30
0.0
 10
131.255042
 20
219.396153
 30
0.0
  0
LWPOLYLINE
  5
13f
100
AcDbEntity
  8
0
 62
5
100
AcDbPolyline
 90
4
 70
0
 10
125.095844
 20
222.952167
 30
0.0
 10
125.975728
 20
222.444165
 30
0.0
 10
126.145061
 20
222.737461
 30
0.0
 10
121.012399
 20
225.700806
 30
0.0
  0
LWPOLYLINE
  5
140
100
AcDbEntity
  8
0
 62
1
100
AcDbPolyline
 90
2
 70
0
 10
129.517956
 20
220.790119
 30
0.0
 10
127.171597
 20
222.144792
 30
0.0
  0
LWPOLYLINE
  5
141
100
AcDbEntity
  8
0
 62
5
100
AcDbPolyline
 90
4
 70
0
 10
135.677173
 20
217.234139
 30
0.0
 10
134.584220
 20
212.692554
 30
0.0
 10
139.664194
 20
203.893777
 30
0.0
 10
144.143801
 20
202.569511
 30
0.0
  0
LWPOLYLINE
  5
142
100
AcDbEntity
  8
0
 62
5
100
AcDbPolyline
 90
4
 70
0
 10
138.487768
 20
213.382043
 30
0.0
 10
138.093202
 20
212.372125
 30
0.0
 10
141.141188
 20
207.092859
 30
0.0
 10
142.213084
 20
206.929605
 30
0.0
  0
LWPOLYLINE
  5
143
100
AcDbEntity
  8
0
 62
1
100
AcDbPolyline
 90
2
 70
0
 10
135.677173
 20
217.234139
 30
0.0
 10
138.047829
 20
213.128043
 30
0.0
  0
LWPOLYLINE
  5
144
100
AcDbEntity
  8
0
 62
1
100
AcDbPolyline
 90
2
 70
0
 10
144.143801
 20
202.569511
 30
0.0
 10
141.773145
 20
206.675608
 30
0.0
  0
SPLINE
  5
145
100
AcDbEntity
  8
0
 62
5
100
AcDbSpline
 70
0
 71
3
 72
10
 73
6
 74
4
 40
0.000000
 40
0.000000
 40
0.000000
 40
0.000000
 40
1.046215
 40
1.927105
 40
2.310855
 40
2.310855
 40
2.310855
 40
2.310855
 10
124.959725
 20
220.684396
 30
0.0
 10
124.886622
 20
221.029294
 30
0.0
 10
124.751967
 20
221.664587
 30
0.0
 10
124.912871
 20
222.434946
 30
0.0
 10
125.053247
 20
222.831757
 30
0.0
 10
125.095844
 20
222.952167
 30
0.0
 11
124.959725
 21
220.684396
 31
0.0
 11
124.819651
 21
221.721192
 31
0.0
 11
124.972872
 21
222.588654
 31
0.0
 11
125.095844
 21
222.952167
 31
0.0
  0
SPLINE
  5
146
100
AcDbEntity
  8
0
 62
5
100
AcDbSpline
 70
0
 71
3
 72
10
 73
6
 74
4
 40
0.000000
 40
0.000000
 40
0.000000
 40
0.000000
 40
0.383746
 40
1.264629
 40
2.310836
 40
2.310836
 40
2.310836
 40
2.310836
 10
150.448439
 20
212.812087
 30
0.0
 10
150.545533
 20
212.729107
 30
0.0
 10
150.865505
 20
212.455649
 30
0.0
 10
151.390027
 20
211.868956
 30
0.0
 10
151.591058
 20
211.251453
 30
0.0
 10
151.700196
 20
210.916214
 30
0.0
 11
150.448439
 21
212.812087
 31
0.0
 11
150.736690
 21
212.558763
 31
0.0
 11
151.303109
 21
211.884135
 31
0.0
 11
151.700196
 21
210.916214
 31
0.0
  0
SPLINE
  5
147
100
AcDbEntity
  8
0
 62
5
100
AcDbSpline
 70
0
 71
3
 72
10
 73
6
 74
4
 40
0.000000
 40
0.000000
 40
0.000000
 40
0.000000
 40
1.754113
 40
3.597956
 40
5.352070
 40
5.352070
 40
5.352070
 40
5.352070
 10
151.700196
 20
210.916214
 30
0.0
 10
151.671420
 20
210.327196
 30
0.0
 10
151.612394
 20
209.119031
 30
0.0
 10
150.672713
 20
207.491457
 30
0.0
 10
149.655924
 20
206.836257
 30
0.0
 10
149.160207
 20
206.516826
 30
0.0
 11
151.700196
 21
210.916214
 31
0.0
 11
151.477748
 21
209.176263
 31
0.0
 11
150.555827
 21
207.579448
 31
0.0
 11
149.160207
 21
206.516826
 31
0.0
  0
LWPOLYLINE
  5
148
100
AcDbEntity
  8
0
 62
5
100
AcDbPolyline
 90
4
 70
0
 10
152.610467
 20
217.234162
 30
0.0
 10
149.647148
 20
212.101541
 30
0.0
 10
149.940439
 20
211.932208
 30
0.0
 10
150.448439
 20
212.812087
 30
0.0
  0
LWPOLYLINE
  5
149
100
AcDbEntity
  8
0
 62
5
100
AcDbPolyline
 90
4
 70
0
 10
146.892456
 20
206.652942
 30
0.0
 10
147.400453
 20
207.532821
 30
0.0
 10
147.107159
 20
207.702154
 30
0.0
 10
144.143840
 20
202.569534
 30
0.0
  0
LWPOLYLINE
  5
14a
100
AcDbEntity
  8
0
 62
1
100
AcDbPolyline
 90
2
 70
0
 10
149.054484
 20
211.075017
 30
0.0
 10
147.699823
 20
208.728678
 30
0.0
  0
LWPOLYLINE
  5
14b
100
AcDbEntity
  8
0
 62
5
100
AcDbPolyline
 90
4
 70
0
 10
152.610507
 20
217.234139
 30
0.0
 10
157.152092
 20
216.141186
 30
0.0
 10
165.950869
 20
221.221160
 30
0.0
 10
167.275135
 20
225.700766
 30
0.0
  0
LWPOLYLINE
  5
14c
100
AcDbEntity
  8
0
 62
5
100
AcDbPolyline
 90
4
 70
0
 10
156.462603
 20
220.044734
 30
0.0
 10
157.472521
 20
219.650167
 30
0.0
 10
162.751787
 20
222.698153
 30
0.0
 10
162.915041
 20
223.770050
 30
0.0
  0
LWPOLYLINE
  5
14d
100
AcDbEntity
  8
0
 62
1
100
AcDbPolyline
 90
2
 70
0
 10
152.610507
 20
217.234139
 30
0.0
 10
156.716603
 20
219.604795
 30
0.0
  0
LWPOLYLINE
  5
14e
100
AcDbEntity
  8
0
 62
1
100
AcDbPolyline
 90
2
 70
0
 10
167.275135
 20
225.700766
 30
0.0
 10
163.169038
 20
223.330111
 30
0.0
  0
SPLINE
  5
14f
100
AcDbEntity
  8
0
 62
5
100
AcDbSpline
 70
0
 71
3
 72
10
 73
6
 74
4
 40
0.000000
 40
0.000000
 40
0.000000
 40
0.000000
 40
1.046206
 40
1.927089
 40
2.310835
 40
2.310835
 40
2.310835
 40
2.310835
 10
149.160207
 20
206.516826
 30
0.0
 10
148.815313
 20
206.443723
 30
0.0
 10
148.180025
 20
206.309069
 30
0.0
 10
147.409673
 20
206.469972
 30
0.0
 10
147.012865
 20
206.610346
 30
0.0
 10
146.892456
 20
206.652942
 30
0.0
 11
149.160207
 21
206.516826
 31
0.0
 11
148.123421
 21
206.376753
 31
0.0
 11
147.255966
 21
206.529972
 31
0.0
 11
146.892456
 21
206.652942
 31
0.0
  0
SPLINE
  5
150
100
AcDbEntity
  8
0
 62
5
100
AcDbSpline
 70
0
 71
3
 72
10
 73
6
 74
4
 40
0.000000
 40
0.000000
 40
0.000000
 40
0.000000
 40
0.168284
 40
0.650177
 40
1.455482
 40
1.455482
 40
1.455482
 40
1.455482
 10
159.965483
 20
230.312077
 30
0.0
 10
160.011627
 20
230.344101
 30
0.0
 10
160.189905
 20
230.467827
 30
0.0
 10
160.655977
 20
230.632903
 30
0.0
 10
161.084970
 20
230.664310
 30
0.0
 10
161.353359
 20
230.683958
 30
0.0
 11
159.965483
 21
230.312077
 31
0.0
 11
160.105918
 21
230.404800
 31
0.0
 11
160.554770
 21
230.580163
 31
0.0
 11
161.353359
 21
230.683958
 31
0.0
  0
SPLINE
  5
151
100
AcDbEntity
  8
0
 62
5
100
AcDbSpline
 70
0
 71
3
 72
10
 73
6
 74
4
 40
0.000000
 40
0.000000
 40
0.000000
 40
0.000000
 40
1.568760
 40
3.233991
 40
4.770373
 40
4.770373
 40
4.770373
 40
4.770373
 10
161.353359
 20
230.683958
 30
0.0
 10
161.867096
 20
230.585876
 30
0.0
 10
162.926163
 20
230.383680
 30
0.0
 10
164.468807
 20
229.994983
 30
0.0
 10
165.496820
 20
229.708579
 30
0.0
 10
165.990140
 20
229.571139
 30
0.0
 11
161.353359
 21
230.683958
 31
0.0
 11
162.891451
 21
230.375284
 31
0.0
 11
164.508493
 21
229.977577
 31
0.0
 11
165.990140
 21
229.571139
 31
0.0
  0
LWPOLYLINE
  5
152
100
AcDbEntity
  8
0
 62
5
100
AcDbPolyline
 90
4
 70
0
 10
152.610484
 20
234.167433
 30
0.0
 10
160.676028
 20
229.510789
 30
0.0
 10
160.845362
 20
229.804080
 30
0.0
 10
159.965483
 20
230.312077
 30
0.0
  0
LWPOLYLINE
  5
153
100
AcDbEntity
  8
0
 62
5
100
AcDbPolyline
 90
4
 70
0
 10
166.124628
 20
226.756094
 30
0.0
 10
165.244752
 20
227.264091
 30
0.0
 10
165.075418
 20
226.970800
 30
0.0
 10
167.275112
 20
225.700806
 30
0.0
  0
LWPOLYLINE
  5
154
100
AcDbEntity
  8
0
 62
1
100
AcDbPolyline
 90
2
 70
0
 10
161.702552
 20
228.918125
 30
0.0
 10
164.048894
 20
227.563464
 30
0.0
  0
LWPOLYLINE
  5
155
100
AcDbEntity
  8
0
 62
5
100
AcDbPolyline
 90
5
 70
0
 10
152.610507
 20
234.167472
 30
0.0
 10
156.096832
 20
234.109941
 30
0.0
 10
160.150319
 20
243.501464
 30
0.0
 10
159.383868
 20
245.899275
 30
0.0
 10
161.077207
 20
248.832227
 30
0.0
  0
LWPOLYLINE
  5
156
100
AcDbEntity
  8
0
 62
5
100
AcDbPolyline
 90
4
 70
0
 10
152.847901
 20
235.594653
 30
0.0
 10
153.919806
 20
235.757908
 30
0.0
 10
156.967817
 20
241.037221
 30
0.0
 10
156.573248
 20
242.047145
 30
0.0
  0
LWPOLYLINE
  5
157
100
AcDbEntity
  8
0
 62
1
100
AcDbPolyline
 90
2
 70
0
 10
152.610507
 20
234.167472
 30
0.0
 10
153.287843
 20
235.340653
 30
0.0
  0
LWPOLYLINE
  5
158
100
AcDbEntity
  8
0
 62
1
100
AcDbPolyline
 90
2
 70
0
 10
159.383868
 20
245.899275
 30
0.0
 10
157.013190
 20
241.793145
 30
0.0
  0
SPLINE
  5
159
100
AcDbEntity
  8
0
 62
5
100
AcDbSpline
 70
0
 71
3
 72
10
 73
6
 74
4
 40
0.000000
 40
0.000000
 40
0.000000
 40
0.000000
 40
1.197279
 40
2.328478
 40
2.836631
 40
2.836631
 40
2.836631
 40
2.836631
 10
165.990140
 20
229.571139
 30
0.0
 10
166.078918
 20
229.180165
 30
0.0
 10
166.251575
 20
228.419795
 30
0.0
 10
166.203397
 20
227.466970
 30
0.0
 10
166.143266
 20
226.924305
 30
0.0
 10
166.124628
 20
226.756094
 30
0.0
 11
165.990140
 21
229.571139
 31
0.0
 11
166.200370
 21
228.392461
 31
0.0
 11
166.177442
 21
227.261495
 31
0.0
 11
166.124628
 21
226.756094
 31
0.0
  0
SPLINE
  5
15a
100
AcDbEntity
  8
0
 62
5
100
AcDbSpline
 70
0
 71
3
 72
10
 73
6
 74
4
 40
0.000000
 40
0.000000
 40
0.000000
 40
0.000000
 40
0.168285
 40
0.650179
 40
1.455488
 40
1.455488
 40
1.455488
 40
1.455488
 10
160.738507
 20
240.534914
 30
0.0
 10
160.687701
 20
240.510964
 30
0.0
 10
160.491411
 20
240.418433
 30
0.0
 10
160.115414
 20
240.097339
 30
0.0
 10
159.873718
 20
239.741522
 30
0.0
 10
159.722507
 20
239.518914
 30
0.0
 11
160.738507
 21
240.534914
 31
0.0
 11
160.587988
 21
240.459655
 31
0.0
 11
160.211692
 21
240.158618
 31
0.0
 11
159.722507
 21
239.518914
 31
0.0
  0
SPLINE
  5
15b
100
AcDbEntity
  8
0
 62
5
100
AcDbSpline
 70
0
 71
3
 72
10
 73
6
 74
4
 40
0.000000
 40
0.000000
 40
0.000000
 40
0.000000
 40
1.568766
 40
3.234005
 40
4.770394
 40
4.770394
 40
4.770394
 40
4.770394
 10
159.722507
 20
239.518914
 30
0.0
 10
159.550579
 20
239.024961
 30
0.0
 10
159.196151
 20
238.006680
 30
0.0
 10
158.761448
 20
236.476356
 30
0.0
 10
158.495475
 20
235.442864
 30
0.0
 10
158.367840
 20
234.946914
 30
0.0
 11
159.722507
 21
239.518914
 31
0.0
 11
159.220778
 21
238.032543
 31
0.0
 11
158.756680
 21
236.433284
 31
0.0
 11
158.367840
 21
234.946914
 31
0.0
  0
LWPOLYLINE
  5
15c
100
AcDbEntity
  8
0
 62
5
100
AcDbPolyline
 90
4
 70
0
 10
161.077173
 20
248.832247
 30
0.0
 10
161.077173
 20
239.518914
 30
0.0
 10
160.738507
 20
239.518914
 30
0.0
 10
160.738507
 20
240.534914
 30
0.0
  0
LWPOLYLINE
  5
15d
100
AcDbEntity
  8
0
 62
5
100
AcDbPolyline
 90
4
 70
0
 10
160.738507
 20
233.422914
 30
0.0
 10
160.738507
 20
234.438914
 30
0.0
 10
161.077173
 20
234.438914
 30
0.0
 10
161.077173
 20
231.898914
 30
0.0
  0
LWPOLYLINE
  5
15e
100
AcDbEntity
  8
0
 62
1
100
AcDbPolyline
 90
2
 70
0
 10
161.077173
 20
238.333580
 30
0.0
 10
161.077173
 20
235.624247
 30
0.0
  0
LWPOLYLINE
  5
15f
100
AcDbEntity
  8
0
 62
5
100
AcDbPolyline
 90
5
 70
0
 10
175.741801
 20
240.365541
 30
0.0
 10
175.799332
 20
236.879244
 30
0.0
 10
166.407891
 20
232.825794
 30
0.0
 10
164.010100
 20
233.592239
 30
0.0
 10
161.077173
 20
231.898914
 30
0.0
  0
LWPOLYLINE
  5
160
100
AcDbEntity
  8
0
 62
5
100
AcDbPolyline
 90
4
 70
0
 10
174.314632
 20
240.128150
 30
0.0
 10
174.151377
 20
239.056253
 30
0.0
 10
168.872112
 20
236.008267
 30
0.0
 10
167.862196
 20
236.402833
 30
0.0
  0
LWPOLYLINE
  5
161
100
AcDbEntity
  8
0
 62
1
100
AcDbPolyline
 90
2
 70
0
 10
175.741801
 20
240.365541
 30
0.0
 10
174.568632
 20
239.688210
 30
0.0
  0
LWPOLYLINE
  5
162
100
AcDbEntity
  8
0
 62
1
100
AcDbPolyline
 90
2
 70
0
 10
164.010100
 20
233.592239
 30
0.0
 10
168.116194
 20
235.962894
 30
0.0
  0
SPLINE
  5
163
100
AcDbEntity
  8
0
 62
5
100
AcDbSpline
 70
0
 71
3
 72
10
 73
6
 74
4
 40
0.000000
 40
0.000000
 40
0.000000
 40
0.000000
 40
1.197285
 40
2.328489
 40
2.836644
 40
2.836644
 40
2.836644
 40
2.836644
 10
158.367840
 20
234.946914
 30
0.0
 10
158.662046
 20
234.674541
 30
0.0
 10
159.234220
 20
234.144829
 30
0.0
 10
160.083483
 20
233.710137
 30
0.0
 10
160.583512
 20
233.490878
 30
0.0
 10
160.738507
 20
233.422914
 30
0.0
 11
158.367840
 21
234.946914
 31
0.0
 11
159.283494
 21
234.175506
 31
0.0
 11
160.274408
 21
233.629877
 31
0.0
 11
160.738507
 21
233.422914
 31
0.0
  0
SPLINE
  5
164
100
AcDbEntity
  8
0
 62
5
100
AcDbSpline
 70
0
 71
3
 72
10
 73
6
 74
4
 40
0.000000
 40
0.000000
 40
0.000000
 40
0.000000
 40
0.383750
 40
1.264641
 40
2.310857
 40
2.310857
 40
2.310857
 40
2.310857
 10
177.903827
 20
235.943469
 30
0.0
 10
177.806732
 20
235.860488
 30
0.0
 10
177.486757
 20
235.587028
 30
0.0
 10
176.962230
 20
235.000329
 30
0.0
 10
176.761198
 20
234.382821
 30
0.0
 10
176.652058
 20
234.047579
 30
0.0
 11
177.903827
 21
235.943469
 31
0.0
 11
177.615573
 21
235.690143
 31
0.0
 11
177.049148
 21
235.015508
 31
0.0
 11
176.652058
 21
234.047579
 31
0.0
  0
SPLINE
  5
165
100
AcDbEntity
  8
0
 62
5
100
AcDbSpline
 70
0
 71
3
 72
10
 73
6
 74
4
 40
0.000000
 40
0.000000
 40
0.000000
 40
0.000000
 40
1.754130
 40
3.597989
 40
5.352119
 40
5.352119
 40
5.352119
 40
5.352119
 10
176.652058
 20
234.047579
 30
0.0
 10
176.680835
 20
233.458556
 30
0.0
 10
176.739860
 20
232.250379
 30
0.0
 10
177.679550
 20
230.622790
 30
0.0
 10
178.696349
 20
229.967585
 30
0.0
 10
179.192070
 20
229.648152
 30
0.0
 11
176.652058
 21
234.047579
 31
0.0
 11
176.874508
 21
232.307611
 31
0.0
 11
177.796438
 21
230.710783
 31
0.0
 11
179.192070
 21
229.648152
 31
0.0
  0
LWPOLYLINE
  5
166
100
AcDbEntity
  8
0
 62
5
100
AcDbPolyline
 90
4
 70
0
 10
175.741779
 20
240.365580
 30
0.0
 10
178.705123
 20
235.232915
 30
0.0
 10
178.411830
 20
235.063582
 30
0.0
 10
177.903827
 20
235.943469
 30
0.0
  0
LWPOLYLINE
  5
167
100
AcDbEntity
  8
0
 62
5
100
AcDbPolyline
 90
4
 70
0
 10
181.459841
 20
229.784271
 30
0.0
 10
180.951838
 20
230.664155
 30
0.0
 10
181.245135
 20
230.833488
 30
0.0
 10
184.208479
 20
225.700826
 30
0.0
  0
LWPOLYLINE
  5
168
100
AcDbEntity
  8
0
 62
1
100
AcDbPolyline
 90
2
 70
0
 10
179.297793
 20
234.206382
 30
0.0
 10
180.652465
 20
231.860024
 30
0.0
  0
LWPOLYLINE
  5
169
100
AcDbEntity
  8
0
 62
5
100
AcDbPolyline
 90
4
 70
0
 10
192.675146
 20
240.365561
 30
0.0
 10
193.768111
 20
235.823936
 30
0.0
 10
188.688088
 20
227.025083
 30
0.0
 10
184.208445
 20
225.700806
 30
0.0
  0
LWPOLYLINE
  5
16a
100
AcDbEntity
  8
0
 62
5
100
AcDbPolyline
 90
4
 70
0
 10
189.864526
 20
236.513431
 30
0.0
 10
190.259098
 20
235.503504
 30
0.0
 10
187.211084
 20
230.224193
 30
0.0
 10
186.139178
 20
230.060939
 30
0.0
  0
LWPOLYLINE
  5
16b
100
AcDbEntity
  8
0
 62
1
100
AcDbPolyline
 90
2
 70
0
 10
192.675146
 20
240.365561
 30
0.0
 10
190.304471
 20
236.259431
 30
0.0
  0
LWPOLYLINE
  5
16c
100
AcDbEntity
  8
0
 62
1
100
AcDbPolyline
 90
2
 70
0
 10
184.208445
 20
225.700806
 30
0.0
 10
186.579121
 20
229.806936
 30
0.0
  0
SPLINE
  5
16d
100
AcDbEntity
  8
0
 62
5
100
AcDbSpline
 70
0
 71
3
 72
10
 73
6
 74
4
 40
0.000000
 40
0.000000
 40
0.000000
 40
0.000000
 40
1.046215
 40
1.927105
 40
2.310855
 40
2.310855
 40
2.310855
 40
2.310855
 10
179.192070
 20
229.648152
 30
0.0
 10
179.536967
 20
229.575049
 30
0.0
 10
180.172261
 20
229.440394
 30
0.0
 10
180.942620
 20
229.601298
 30
0.0
 10
181.339430
 20
229.741674
 30
0.0
 10
181.459841
 20
229.784271
 30
0.0
 11
179.192070
 21
229.648152
 31
0.0
 11
180.228865
 21
229.508078
 31
0.0
 11
181.096328
 21
229.661299
 31
0.0
 11
181.459841
 21
229.784271
 31
0.0
  0
SPLINE
  5
16e
100
AcDbEntity
  8
0
 62
5
100
AcDbSpline
 70
0
 71
3
 72
10
 73
6
 74
4
 40
0.000000
 40
0.000000
 40
0.000000
 40
0.000000
 40
0.383750
 40
1.264641
 40
2.310857
 40
2.310857
 40
2.310857
 40
2.310857
 10
197.097224
 20
242.527628
 30
0.0
 10
197.180204
 20
242.430533
 30
0.0
 10
197.453665
 20
242.110559
 30
0.0
 10
198.040363
 20
241.586031
 30
0.0
 10
198.657872
 20
241.384999
 30
0.0
 10
198.993114
 20
241.275860
 30
0.0
 11
197.097224
 21
242.527628
 31
0.0
 11
197.350550
 21
242.239375
 31
0.0
 11
198.025184
 21
241.672950
 31
0.0
 11
198.993114
 21
241.275860
 31
0.0
  0
SPLINE
  5
16f
100
AcDbEntity
  8
0
 62
5
100
AcDbSpline
 70
0
 71
3
 72
10
 73
6
 74
4
 40
0.000000
 40
0.000000
 40
0.000000
 40
0.000000
 40
1.754130
 40
3.597989
 40
5.352119
 40
5.352119
 40
5.352119
 40
5.352119
 10
198.993114
 20
241.275860
 30
0.0
 10
199.582137
 20
241.304637
 30
0.0
 10
200.790313
 20
241.363662
 30
0.0
 10
202.417902
 20
242.303352
 30
0.0
 10
203.073108
 20
243.320151
 30
0.0
 10
203.392540
 20
243.815871
 30
0.0
 11
198.993114
 21
241.275860
 31
0.0
 11
200.733081
 21
241.498309
 31
0.0
 11
202.329910
 21
242.420239
 31
0.0
 11
203.392540
 21
243.815871
 31
0.0
  0
LWPOLYLINE
  5
170
100
AcDbEntity
  8
0
 62
5
100
AcDbPolyline
 90
4
 70
0
 10
192.675112
 20
240.365580
 30
0.0
 10
197.807778
 20
243.328925
 30
0.0
 10
197.977111
 20
243.035631
 30
0.0
 10
197.097224
 20
242.527628
 30
0.0
  0
LWPOLYLINE
  5
171
100
AcDbEntity
  8
0
 62
5
100
AcDbPolyline
 90
4
 70
0
 10
203.256422
 20
246.083643
 30
0.0
 10
202.376538
 20
245.575640
 30
0.0
 10
202.207204
 20
245.868936
 30
0.0
 10
207.339867
 20
248.832281
 30
0.0
  0
LWPOLYLINE
  5
172
100
AcDbEntity
  8
0
 62
1
100
AcDbPolyline
 90
2
 70
0
 10
198.834310
 20
243.921595
 30
0.0
 10
201.180669
 20
245.276267
 30
0.0
  0
LWPOLYLINE
  5
173
100
AcDbEntity
  8
0
 62
5
100
AcDbPolyline
 90
4
 70
0
 10
207.339887
 20
248.832247
 30
0.0
 10
210.557220
 20
252.218914
 30
0.0
 10
210.557220
 20
262.378914
 30
0.0
 10
207.339887
 20
265.765580
 30
0.0
  0
LWPOLYLINE
  5
174
100
AcDbEntity
  8
0
 62
5
100
AcDbPolyline
 90
4
 70
0
 10
206.831887
 20
253.573580
 30
0.0
 10
207.678553
 20
254.250914
 30
0.0
 10
207.678553
 20
260.346914
 30
0.0
 10
206.831887
 20
261.024247
 30
0.0
  0
LWPOLYLINE
  5
175
100
AcDbEntity
  8
0
 62
1
100
AcDbPolyline
 90
2
 70
0
 10
207.339887
 20
248.832247
 30
0.0
 10
207.339887
 20
253.573580
 30
0.0
  0
LWPOLYLINE
  5
176
100
AcDbEntity
  8
0
 62
1
100
AcDbPolyline
 90
2
 70
0
 10
207.339887
 20
265.765580
 30
0.0
 10
207.339887
 20
261.024247
 30
0.0
  0
SPLINE
  5
177
100
AcDbEntity
  8
0
 62
5
100
AcDbSpline
 70
0
 71
3
 72
10
 73
6
 74
4
 40
0.000000
 40
0.000000
 40
0.000000
 40
0.000000
 40
1.046215
 40
1.927105
 40
2.310855
 40
2.310855
 40
2.310855
 40
2.310855
 10
203.392540
 20
243.815871
 30
0.0
 10
203.465644
 20
244.160769
 30
0.0
 10
203.600299
 20
244.796062
 30
0.0
 10
203.439394
 20
245.566421
 30
0.0
 10
203.299018
 20
245.963232
 30
0.0
 10
203.256422
 20
246.083643
 30
0.0
 11
203.392540
 21
243.815871
 31
0.0
 11
203.532615
 21
244.852667
 31
0.0
 11
203.379394
 21
245.720129
 31
0.0
 11
203.256422
 21
246.083643
 31
0.0
  0
SPLINE
  5
178
100
AcDbEntity
  8
0
 62
5
100
AcDbSpline
 70
0
 71
3
 72
10
 73
6
 74
4
 40
0.000000
 40
0.000000
 40
0.000000
 40
0.000000
 40
0.383750
 40
1.264640
 40
2.310855
 40
2.310855
 40
2.310855
 40
2.310855
 10
196.758577
 20
260.047518
 30
0.0
 10
196.715980
 20
260.167929
 30
0.0
 10
196.575604
 20
260.564740
 30
0.0
 10
196.414700
 20
261.335099
 30
0.0
 10
196.549355
 20
261.970392
 30
0.0
 10
196.622458
 20
262.315290
 30
0.0
 11
196.758577
 21
260.047518
 31
0.0
 11
196.635605
 21
260.411032
 31
0.0
 11
196.482384
 21
261.278494
 31
0.0
 11
196.622458
 21
262.315290
 31
0.0
  0
SPLINE
  5
179
100
AcDbEntity
  8
0
 62
5
100
AcDbSpline
 70
0
 71
3
 72
10
 73
6
 74
4
 40
0.000000
 40
0.000000
 40
0.000000
 40
0.000000
 40
1.754129
 40
3.597989
 40
5.352118
 40
5.352118
 40
5.352118
 40
5.352118
 10
196.622458
 20
262.315290
 30
0.0
 10
196.941891
 20
262.811010
 30
0.0
 10
197.597097
 20
263.827809
 30
0.0
 10
199.224686
 20
264.767497
 30
0.0
 10
200.432862
 20
264.826524
 30
0.0
 10
201.021885
 20
264.855301
 30
0.0
 11
196.622458
 21
262.315290
 31
0.0
 11
197.685089
 21
263.710921
 31
0.0
 11
199.281918
 21
264.632850
 31
0.0
 11
201.021885
 21
264.855301
 31
0.0
  0
LWPOLYLINE
  5
17a
100
AcDbEntity
  8
0
 62
5
100
AcDbPolyline
 90
4
 70
0
 10
192.675132
 20
257.298880
 30
0.0
 10
197.807797
 20
260.262225
 30
0.0
 10
197.638461
 20
260.555521
 30
0.0
 10
196.758577
 20
260.047518
 30
0.0
  0
LWPOLYLINE
  5
17b
100
AcDbEntity
  8
0
 62
5
100
AcDbPolyline
 90
4
 70
0
 10
202.917775
 20
263.603532
 30
0.0
 10
202.037888
 20
263.095530
 30
0.0
 10
202.207224
 20
262.802236
 30
0.0
 10
207.339887
 20
265.765580
 30
0.0
  0
LWPOLYLINE
  5
17c
100
AcDbEntity
  8
0
 62
1
100
AcDbPolyline
 90
2
 70
0
 10
198.834330
 20
260.854894
 30
0.0
 10
201.180689
 20
262.209566
 30
0.0
  0
LWPOLYLINE
  5
17d
100
AcDbEntity
  8
0
 62
5
100
AcDbPolyline
 90
4
 70
0
 10
192.675112
 20
257.298914
 30
0.0
 10
193.768066
 20
261.840499
 30
0.0
 10
188.688091
 20
270.639275
 30
0.0
 10
184.208485
 20
271.963542
 30
0.0
  0
LWPOLYLINE
  5
17e
100
AcDbEntity
  8
0
 62
5
100
AcDbPolyline
 90
4
 70
0
 10
189.864517
 20
261.151010
 30
0.0
 10
190.259084
 20
262.160928
 30
0.0
 10
187.211098
 20
267.440194
 30
0.0
 10
186.139201
 20
267.603448
 30
0.0
  0
LWPOLYLINE
  5
17f
100
AcDbEntity
  8
0
 62
1
100
AcDbPolyline
 90
2
 70
0
 10
192.675112
 20
257.298914
 30
0.0
 10
190.304457
 20
261.405010
 30
0.0
  0
LWPOLYLINE
  5
180
100
AcDbEntity
  8
0
 62
1
100
AcDbPolyline
 90
2
 70
0
 10
184.208485
 20
271.963542
 30
0.0
 10
186.579140
 20
267.857445
 30
0.0
  0
SPLINE
  5
181
100
AcDbEntity
  8
0
 62
5
100
AcDbSpline
 70
0
 71
3
 72
10
 73
6
 74
4
 40
0.000000
 40
0.000000
 40
0.000000
 40
0.000000
 40
1.046216
 40
1.927107
 40
2.310857
 40
2.310857
 40
2.310857
 40
2.310857
 10
201.021885
 20
264.855301
 30
0.0
 10
201.357127
 20
264.746162
 30
0.0
 10
201.974635
 20
264.545130
 30
0.0
 10
202.561334
 20
264.020602
 30
0.0
 10
202.834795
 20
263.700628
 30
0.0
 10
202.917775
 20
263.603532
 30
0.0
 11
201.021885
 21
264.855301
 31
0.0
 11
201.989814
 21
264.458211
 31
0.0
 11
202.664449
 21
263.891786
 31
0.0
 11
202.917775
 21
263.603532
 31
0.0
  0
SPLINE
  5
182
100
AcDbEntity
  8
0
 62
5
100
AcDbSpline
 70
0
 71
3
 72
10
 73
6
 74
4
 40
0.000000
 40
0.000000
 40
0.000000
 40
0.000000
 40
0.168284
 40
0.650177
 40
1.455482
 40
1.455482
 40
1.455482
 40
1.455482
 10
179.597174
 20
264.653890
 30
0.0
 10
179.565150
 20
264.700034
 30
0.0
 10
179.441424
 20
264.878312
 30
0.0
 10
179.276348
 20
265.344384
 30
0.0
 10
179.244942
 20
265.773377
 30
0.0
 10
179.225293
 20
266.041766
 30
0.0
 11
179.597174
 21
264.653890
 31
0.0
 11
179.504451
 21
264.794325
 31
0.0
 11
179.329088
 21
265.243177
 31
0.0
 11
179.225293
 21
266.041766
 31
0.0
  0
SPLINE
  5
183
100
AcDbEntity
  8
0
 62
5
100
AcDbSpline
 70
0
 71
3
 72
10
 73
6
 74
4
 40
0.000000
 40
0.000000
 40
0.000000
 40
0.000000
 40
1.568760
 40
3.233990
 40
4.770373
 40
4.770373
 40
4.770373
 40
4.770373
 10
179.225293
 20
266.041766
 30
0.0
 10
179.323375
 20
266.555503
 30
0.0
 10
179.525571
 20
267.614570
 30
0.0
 10
179.914268
 20
269.157214
 30
0.0
 10
180.200673
 20
270.185227
 30
0.0
 10
180.338112
 20
270.678547
 30
0.0
 11
179.225293
 21
266.041766
 31
0.0
 11
179.533967
 21
267.579858
 31
0.0
 11
179.931674
 21
269.196899
 31
0.0
 11
180.338112
 21
270.678547
 31
0.0
  0
LWPOLYLINE
  5
184
100
AcDbEntity
  8
0
 62
5
100
AcDbPolyline
 90
4
 70
0
 10
175.741818
 20
257.298891
 30
0.0
 10
180.398462
 20
265.364435
 30
0.0
 10
180.105171
 20
265.533769
 30
0.0
 10
179.597174
 20
264.653890
 30
0.0
  0
LWPOLYLINE
  5
185
100
AcDbEntity
  8
0
 62
5
100
AcDbPolyline
 90
4
 70
0
 10
183.153157
 20
270.813035
 30
0.0
 10
182.645160
 20
269.933158
 30
0.0
 10
182.938451
 20
269.763825
 30
0.0
 10
184.208445
 20
271.963519
 30
0.0
  0
LWPOLYLINE
  5
186
100
AcDbEntity
  8
0
 62
1
100
AcDbPolyline
 90
2
 70
0
 10
180.991126
 20
266.390960
 30
0.0
 10
182.345787
 20
268.737301
 30
0.0
  0
LWPOLYLINE
  5
187
100
AcDbEntity
  8
0
 62
5
100
AcDbPolyline
 90
5
 70
0
 10
175.741779
 20
274.232247
 30
0.0
 10
178.789779
 20
272.538914
 30
0.0
 10
177.604445
 20
262.378914
 30
0.0
 10
175.741779
 20
260.685580
 30
0.0
 10
175.741779
 20
257.298914
 30
0.0
  0
LWPOLYLINE
  5
188
100
AcDbEntity
  8
0
 62
5
100
AcDbPolyline
 90
4
 70
0
 10
175.233779
 20
272.877580
 30
0.0
 10
176.080445
 20
272.200247
 30
0.0
 10
176.080445
 20
266.104247
 30
0.0
 10
175.233779
 20
265.426914
 30
0.0
  0
LWPOLYLINE
  5
189
100
AcDbEntity
  8
0
 62
1
100
AcDbPolyline
 90
2
 70
0
 10
175.741779
 20
274.232247
 30
0.0
 10
175.741779
 20
272.877580
 30
0.0
  0
LWPOLYLINE
  5
18a
100
AcDbEntity
  8
0
 62
1
100
AcDbPolyline
 90
2
 70
0
 10
175.741779
 20
260.685580
 30
0.0
 10
175.741779
 20
265.426914
 30
0.0
  0
SPLINE
  5
18b
100
AcDbEntity
  8
0
 62
5
100
AcDbSpline
 70
0
 71
3
 72
10
 73
6
 74
4
 40
0.000000
 40
0.000000
 40
0.000000
 40
0.000000
 40
1.197279
 40
2.328478
 40
2.836631
 40
2.836631
 40
2.836631
 40
2.836631
 10
180.338112
 20
270.678547
 30
0.0
 10
180.729086
 20
270.767325
 30
0.0
 10
181.489456
 20
270.939982
 30
0.0
 10
182.442281
 20
270.891805
 30
0.0
 10
182.984946
 20
270.831674
 30
0.0
 10
183.153157
 20
270.813035
 30
0.0
 11
180.338112
 21
270.678547
 31
0.0
 11
181.516790
 21
270.888777
 31
0.0
 11
182.647756
 21
270.865849
 31
0.0
 11
183.153157
 21
270.813035
 31
0.0
  0
SPLINE
  5
18c
100
AcDbEntity
  8
0
 62
5
100
AcDbSpline
 70
0
 71
3
 72
10
 73
6
 74
4
 40
0.000000
 40
0.000000
 40
0.000000
 40
0.000000
 40
0.168284
 40
0.650176
 40
1.455482
 40
1.455482
 40
1.455482
 40
1.455482
 10
168.093486
 20
270.207560
 30
0.0
 10
168.088824
 20
270.263533
 30
0.0
 10
168.070814
 20
270.479790
 30
0.0
 10
168.160891
 20
270.965958
 30
0.0
 10
168.348189
 20
271.353179
 30
0.0
 10
168.465367
 20
271.595435
 30
0.0
 11
168.093486
 21
270.207560
 31
0.0
 11
168.083403
 21
270.375542
 31
0.0
 11
168.155961
 21
270.851940
 31
0.0
 11
168.465367
 21
271.595435
 31
0.0
  0
SPLINE
  5
18d
100
AcDbEntity
  8
0
 62
5
100
AcDbSpline
 70
0
 71
3
 72
10
 73
6
 74
4
 40
0.000000
 40
0.000000
 40
0.000000
 40
0.000000
 40
1.568759
 40
3.233989
 40
4.770371
 40
4.770371
 40
4.770371
 40
4.770371
 10
168.465367
 20
271.595435
 30
0.0
 10
168.807177
 20
271.991303
 30
0.0
 10
169.511817
 20
272.807384
 30
0.0
 10
170.619759
 20
273.949004
 30
0.0
 10
171.381799
 20
274.696087
 30
0.0
 10
171.747485
 20
275.054595
 30
0.0
 11
168.465367
 21
271.595435
 31
0.0
 11
169.501732
 21
272.773124
 31
0.0
 11
170.654676
 21
273.974670
 31
0.0
 11
171.747485
 21
275.054595
 31
0.0
  0
LWPOLYLINE
  5
18e
100
AcDbEntity
  8
0
 62
5
100
AcDbPolyline
 90
4
 70
0
 10
161.077151
 20
265.765620
 30
0.0
 10
169.142695
 20
270.422265
 30
0.0
 10
168.973365
 20
270.715558
 30
0.0
 10
168.093486
 20
270.207560
 30
0.0
  0
LWPOLYLINE
  5
18f
100
AcDbEntity
  8
0
 62
5
100
AcDbPolyline
 90
4
 70
0
 10
174.252630
 20
273.763543
 30
0.0
 10
173.372752
 20
273.255546
 30
0.0
 10
173.542085
 20
272.962253
 30
0.0
 10
175.741779
 20
274.232247
 30
0.0
  0
LWPOLYLINE
  5
190
100
AcDbEntity
  8
0
 62
1
100
AcDbPolyline
 90
2
 70
0
 10
170.169219
 20
271.014929
 30
0.0
 10
172.515561
 20
272.369589
 30
0.0
  0
LWPOLYLINE
  5
191
100
AcDbEntity
  8
0
 62
5
100
AcDbPolyline
 90
5
 70
0
 10
169.543801
 20
280.430209
 30
0.0
 10
171.336770
 20
277.439753
 30
0.0
 10
165.230271
 20
269.233640
 30
0.0
 10
162.770498
 20
268.698507
 30
0.0
 10
161.077173
 20
265.765580
 30
0.0
  0
LWPOLYLINE
  5
192
100
AcDbEntity
  8
0
 62
5
100
AcDbPolyline
 90
4
 70
0
 10
168.426531
 20
279.511037
 30
0.0
 10
168.821097
 20
278.501121
 30
0.0
 10
165.773111
 20
273.221855
 30
0.0
 10
164.701214
 20
273.058601
 30
0.0
  0
LWPOLYLINE
  5
193
100
AcDbEntity
  8
0
 62
1
100
AcDbPolyline
 90
2
 70
0
 10
169.543801
 20
280.430209
 30
0.0
 10
168.866470
 20
279.257039
 30
0.0
  0
LWPOLYLINE
  5
194
100
AcDbEntity
  8
0
 62
1
100
AcDbPolyline
 90
2
 70
0
 10
162.770498
 20
268.698507
 30
0.0
 10
165.141154
 20
272.804602
 30
0.0
  0
SPLINE
  5
195
100
AcDbEntity
  8
0
 62
5
100
AcDbSpline
 70
0
 71
3
 72
10
 73
6
 74
4
 40
0.000000
 40
0.000000
 40
0.000000
 40
0.000000
 40
1.197280
 40
2.328479
 40
2.836632
 40
2.836632
 40
2.836632
 40
2.836632
 10
171.747485
 20
275.054595
 30
0.0
 10
172.130468
 20
274.935992
 30
0.0
 10
172.875296
 20
274.705332
 30
0.0
 10
173.676378
 20
274.187197
 30
0.0
 10
174.116275
 20
273.863790
 30
0.0
 10
174.252630
 20
273.763543
 30
0.0
 11
171.747485
 21
275.054595
 31
0.0
 11
172.873366
 21
274.647320
 31
0.0
 11
173.841347
 21
274.061982
 31
0.0
 11
174.252630
 21
273.763543
 31
0.0
  0
SPLINE
  5
196
100
AcDbEntity
  8
0
 62
5
100
AcDbSpline
 70
0
 71
3
 72
10
 73
6
 74
4
 40
0.000000
 40
0.000000
 40
0.000000
 40
0.000000
 40
0.383747
 40
1.264629
 40
2.310837
 40
2.310837
 40
2.310837
 40
2.310837
 10
173.965915
 20
282.592216
 30
0.0
 10
174.048895
 20
282.495122
 30
0.0
 10
174.322352
 20
282.175150
 30
0.0
 10
174.909046
 20
281.650628
 30
0.0
 10
175.526549
 20
281.449597
 30
0.0
 10
175.861788
 20
281.340459
 30
0.0
 11
173.965915
 21
282.592216
 31
0.0
 11
174.219238
 21
282.303965
 31
0.0
 11
174.893867
 21
281.737546
 31
0.0
 11
175.861788
 21
281.340459
 31
0.0
  0
SPLINE
  5
197
100
AcDbEntity
  8
0
 62
5
100
AcDbSpline
 70
0
 71
3
 72
10
 73
6
 74
4
 40
0.000000
 40
0.000000
 40
0.000000
 40
0.000000
 40
1.754113
 40
3.597956
 40
5.352070
 40
5.352070
 40
5.352070
 40
5.352070
 10
175.861788
 20
281.340459
 30
0.0
 10
176.450805
 20
281.369235
 30
0.0
 10
177.658971
 20
281.428261
 30
0.0
 10
179.286545
 20
282.367942
 30
0.0
 10
179.941745
 20
283.384731
 30
0.0
 10
180.261175
 20
283.880447
 30
0.0
 11
175.861788
 21
281.340459
 31
0.0
 11
177.601739
 21
281.562907
 31
0.0
 11
179.198554
 21
282.484828
 31
0.0
 11
180.261175
 21
283.880447
 31
0.0
  0
LWPOLYLINE
  5
198
100
AcDbEntity
  8
0
 62
5
100
AcDbPolyline
 90
4
 70
0
 10
169.543840
 20
280.430187
 30
0.0
 10
174.676460
 20
283.393506
 30
0.0
 10
174.845794
 20
283.100214
 30
0.0
 10
173.965915
 20
282.592216
 30
0.0
  0
LWPOLYLINE
  5
199
100
AcDbEntity
  8
0
 62
5
100
AcDbPolyline
 90
4
 70
0
 10
180.125060
 20
286.148200
 30
0.0
 10
179.245181
 20
285.640202
 30
0.0
 10
179.075848
 20
285.933495
 30
0.0
 10
184.208468
 20
288.896814
 30
0.0
  0
LWPOLYLINE
  5
19a
100
AcDbEntity
  8
0
 62
1
100
AcDbPolyline
 90
2
 70
0
 10
175.702984
 20
283.986170
 30
0.0
 10
178.049324
 20
285.340831
 30
0.0
  0
LWPOLYLINE
  5
19b
100
AcDbEntity
  8
0
 62
5
100
AcDbPolyline
 90
4
 70
0
 10
169.543781
 20
297.363502
 30
0.0
 10
174.085377
 20
298.456459
 30
0.0
 10
182.884177
 20
293.376470
 30
0.0
 10
184.208445
 20
288.896854
 30
0.0
  0
LWPOLYLINE
  5
19c
100
AcDbEntity
  8
0
 62
5
100
AcDbPolyline
 90
4
 70
0
 10
173.395888
 20
294.552900
 30
0.0
 10
174.405806
 20
294.947468
 30
0.0
 10
179.685086
 20
291.899474
 30
0.0
 10
179.848341
 20
290.827575
 30
0.0
  0
LWPOLYLINE
  5
19d
100
AcDbEntity
  8
0
 62
1
100
AcDbPolyline
 90
2
 70
0
 10
169.543781
 20
297.363502
 30
0.0
 10
173.649888
 20
294.992840
 30
0.0
  0
LWPOLYLINE
  5
19e
100
AcDbEntity
  8
0
 62
1
100
AcDbPolyline
 90
2
 70
0
 10
184.208445
 20
288.896854
 30
0.0
 10
180.102341
 20
291.267515
 30
0.0
  0
SPLINE
  5
19f
100
AcDbEntity
  8
0
 62
5
100
AcDbSpline
 70
0
 71
3
 72
10
 73
6
 74
4
 40
0.000000
 40
0.000000
 40
0.000000
 40
0.000000
 40
1.046207
 40
1.927090
 40
2.310836
 40
2.310836
 40
2.310836
 40
2.310836
 10
180.261175
 20
283.880447
 30
0.0
 10
180.334278
 20
284.225341
 30
0.0
 10
180.468932
 20
284.860630
 30
0.0
 10
180.308030
 20
285.630983
 30
0.0
 10
180.167656
 20
286.027790
 30
0.0
 10
180.125060
 20
286.148200
 30
0.0
 11
180.261175
 21
283.880447
 31
0.0
 11
180.401249
 21
284.917234
 31
0.0
 11
180.248030
 21
285.784690
 31
0.0
 11
180.125060
 21
286.148200
 31
0.0
  0
SPLINE
  5
1a0
100
AcDbEntity
  8
0
 62
5
100
AcDbSpline
 70
0
 71
3
 72
10
 73
6
 74
4
 40
0.000000
 40
0.000000
 40
0.000000
 40
0.000000
 40
0.383748
 40
1.264635
 40
2.310846
 40
2.310846
 40
2.310846
 40
2.310846
 10
167.381801
 20
301.785699
 30
0.0
 10
167.478895
 20
301.868679
 30
0.0
 10
167.798868
 20
302.142138
 30
0.0
 10
168.323393
 20
302.728834
 30
0.0
 10
168.524424
 20
303.346340
 30
0.0
 10
168.633563
 20
303.681580
 30
0.0
 11
167.381801
 21
301.785699
 31
0.0
 11
167.670053
 21
302.039023
 31
0.0
 11
168.236475
 21
302.713655
 31
0.0
 11
168.633563
 21
303.681580
 31
0.0
  0
SPLINE
  5
1a1
100
AcDbEntity
  8
0
 62
5
100
AcDbSpline
 70
0
 71
3
 72
10
 73
6
 74
4
 40
0.000000
 40
0.000000
 40
0.000000
 40
0.000000
 40
1.754121
 40
3.597972
 40
5.352094
 40
5.352094
 40
5.352094
 40
5.352094
 10
168.633563
 20
303.681580
 30
0.0
 10
168.604787
 20
304.270600
 30
0.0
 10
168.545763
 20
305.478771
 30
0.0
 10
167.606078
 20
307.106353
 30
0.0
 10
166.589284
 20
307.761556
 30
0.0
 10
166.093566
 20
308.080988
 30
0.0
 11
168.633563
 21
303.681580
 31
0.0
 11
168.411116
 21
305.421539
 31
0.0
 11
167.489191
 21
307.018361
 31
0.0
 11
166.093566
 21
308.080988
 31
0.0
  0
LWPOLYLINE
  5
1a2
100
AcDbEntity
  8
0
 62
5
100
AcDbPolyline
 90
4
 70
0
 10
169.543840
 20
297.363605
 30
0.0
 10
166.580507
 20
302.496247
 30
0.0
 10
166.873801
 20
302.665580
 30
0.0
 10
167.381801
 20
301.785699
 30
0.0
  0
LWPOLYLINE
  5
1a3
100
AcDbEntity
  8
0
 62
5
100
AcDbPolyline
 90
4
 70
0
 10
163.825803
 20
307.944869
 30
0.0
 10
164.333803
 20
307.064988
 30
0.0
 10
164.040510
 20
306.895655
 30
0.0
 10
161.077176
 20
312.028297
 30
0.0
  0
LWPOLYLINE
  5
1a4
100
AcDbEntity
  8
0
 62
1
100
AcDbPolyline
 90
2
 70
0
 10
165.987840
 20
303.522776
 30
0.0
 10
164.633176
 20
305.869126
 30
0.0
  0
LWPOLYLINE
  5
1a5
100
AcDbEntity
  8
0
 62
5
100
AcDbPolyline
 90
4
 70
0
 10
152.610510
 20
297.363603
 30
0.0
 10
151.517550
 20
301.905208
 30
0.0
 10
156.597550
 20
310.704023
 30
0.0
 10
161.077173
 20
312.028295
 30
0.0
  0
LWPOLYLINE
  5
1a6
100
AcDbEntity
  8
0
 62
5
100
AcDbPolyline
 90
4
 70
0
 10
155.421116
 20
301.215717
 30
0.0
 10
155.026549
 20
302.225638
 30
0.0
 10
158.074546
 20
307.504927
 30
0.0
 10
159.146449
 20
307.668181
 30
0.0
  0
LWPOLYLINE
  5
1a7
100
AcDbEntity
  8
0
 62
1
100
AcDbPolyline
 90
2
 70
0
 10
152.610510
 20
297.363603
 30
0.0
 10
154.981176
 20
301.469717
 30
0.0
  0
LWPOLYLINE
  5
1a8
100
AcDbEntity
  8
0
 62
1
100
AcDbPolyline
 90
2
 70
0
 10
161.077173
 20
312.028295
 30
0.0
 10
158.706507
 20
307.922181
 30
0.0
  0
SPLINE
  5
1a9
100
AcDbEntity
  8
0
 62
5
100
AcDbSpline
 70
0
 71
3
 72
10
 73
6
 74
4
 40
0.000000
 40
0.000000
 40
0.000000
 40
0.000000
 40
1.046212
 40
1.927098
 40
2.310847
 40
2.310847
 40
2.310847
 40
2.310847
 10
166.093566
 20
308.080988
 30
0.0
 10
165.748670
 20
308.154091
 30
0.0
 10
165.113379
 20
308.288745
 30
0.0
 10
164.343023
 20
308.127841
 30
0.0
 10
163.946213
 20
307.987466
 30
0.0
 10
163.825803
 20
307.944869
 30
0.0
 11
166.093566
 21
308.080988
 31
0.0
 11
165.056774
 21
308.221061
 31
0.0
 11
164.189315
 21
308.067841
 31
0.0
 11
163.825803
 21
307.944869
 31
0.0
  0
SPLINE
  5
1aa
100
AcDbEntity
  8
0
 62
5
100
AcDbSpline
 70
0
 71
3
 72
10
 73
6
 74
4
 40
0.000000
 40
0.000000
 40
0.000000
 40
0.000000
 40
0.383751
 40
1.264645
 40
2.310864
 40
2.310864
 40
2.310864
 40
2.310864
 10
148.188384
 20
295.201552
 30
0.0
 10
148.105403
 20
295.298647
 30
0.0
 10
147.831942
 20
295.618622
 30
0.0
 10
147.245241
 20
296.143151
 30
0.0
 10
146.627731
 20
296.344184
 30
0.0
 10
146.292488
 20
296.453323
 30
0.0
 11
148.188384
 21
295.201552
 31
0.0
 11
147.935057
 21
295.489806
 31
0.0
 11
147.260420
 21
296.056232
 31
0.0
 11
146.292488
 21
296.453323
 31
0.0
  0
SPLINE
  5
1ab
100
AcDbEntity
  8
0
 62
5
100
AcDbSpline
 70
0
 71
3
 72
10
 73
6
 74
4
 40
0.000000
 40
0.000000
 40
0.000000
 40
0.000000
 40
1.754133
 40
3.597997
 40
5.352131
 40
5.352131
 40
5.352131
 40
5.352131
 10
146.292488
 20
296.453323
 30
0.0
 10
145.703464
 20
296.424546
 30
0.0
 10
144.495285
 20
296.365520
 30
0.0
 10
142.867692
 20
295.425829
 30
0.0
 10
142.212484
 20
294.409028
 30
0.0
 10
141.893050
 20
293.913307
 30
0.0
 11
146.292488
 21
296.453323
 31
0.0
 11
144.552517
 21
296.230873
 31
0.0
 11
142.955684
 21
295.308941
 31
0.0
 11
141.893050
 21
293.913307
 31
0.0
  0
LWPOLYLINE
  5
1ac
100
AcDbEntity
  8
0
 62
5
100
AcDbPolyline
 90
4
 70
0
 10
152.610507
 20
297.363605
 30
0.0
 10
147.477830
 20
294.400252
 30
0.0
 10
147.308494
 20
294.693548
 30
0.0
 10
148.188384
 20
295.201552
 30
0.0
  0
LWPOLYLINE
  5
1ad
100
AcDbEntity
  8
0
 62
5
100
AcDbPolyline
 90
4
 70
0
 10
142.029169
 20
291.645528
 30
0.0
 10
142.909059
 20
292.153532
 30
0.0
 10
143.078392
 20
291.860236
 30
0.0
 10
137.945715
 20
288.896884
 30
0.0
  0
LWPOLYLINE
  5
1ae
100
AcDbEntity
  8
0
 62
1
100
AcDbPolyline
 90
2
 70
0
 10
146.451295
 20
293.807582
 30
0.0
 10
144.104927
 20
292.452906
 30
0.0
  0
LWPOLYLINE
  5
1af
100
AcDbEntity
  8
0
 62
5
100
AcDbPolyline
 90
5
 70
0
 10
137.945732
 20
288.896853
 30
0.0
 10
137.888201
 20
285.410528
 30
0.0
 10
147.279724
 20
281.357040
 30
0.0
 10
149.677535
 20
282.123493
 30
0.0
 10
152.610487
 20
280.430153
 30
0.0
  0
LWPOLYLINE
  5
1b0
100
AcDbEntity
  8
0
 62
5
100
AcDbPolyline
 90
4
 70
0
 10
139.372913
 20
288.659460
 30
0.0
 10
139.536167
 20
287.587554
 30
0.0
 10
144.815481
 20
284.539542
 30
0.0
 10
145.825405
 20
284.934112
 30
0.0
  0
LWPOLYLINE
  5
1b1
100
AcDbEntity
  8
0
 62
1
100
AcDbPolyline
 90
2
 70
0
 10
137.945732
 20
288.896853
 30
0.0
 10
139.118913
 20
288.219517
 30
0.0
  0
LWPOLYLINE
  5
1b2
100
AcDbEntity
  8
0
 62
1
100
AcDbPolyline
 90
2
 70
0
 10
149.677535
 20
282.123493
 30
0.0
 10
145.571405
 20
284.494169
 30
0.0
  0
SPLINE
  5
1b3
100
AcDbEntity
  8
0
 62
5
100
AcDbSpline
 70
0
 71
3
 72
10
 73
6
 74
4
 40
0.000000
 40
0.000000
 40
0.000000
 40
0.000000
 40
1.046219
 40
1.927111
 40
2.310862
 40
2.310862
 40
2.310862
 40
2.310862
 10
141.893050
 20
293.913307
 30
0.0
 10
141.819947
 20
293.568408
 30
0.0
 10
141.685292
 20
292.933113
 30
0.0
 10
141.846196
 20
292.162751
 30
0.0
 10
141.986572
 20
291.765939
 30
0.0
 10
142.029169
 20
291.645528
 30
0.0
 11
141.893050
 21
293.913307
 31
0.0
 11
141.752976
 21
292.876507
 31
0.0
 11
141.906197
 21
292.009043
 31
0.0
 11
142.029169
 21
291.645528
 31
0.0
  0
SPLINE
  5
1b4
100
AcDbEntity
  8
0
 62
5
100
AcDbSpline
 70
0
 71
3
 72
10
 73
6
 74
4
 40
0.000000
 40
0.000000
 40
0.000000
 40
0.000000
 40
0.168284
 40
0.650176
 40
1.455482
 40
1.455482
 40
1.455482
 40
1.455482
 10
147.999236
 20
273.120558
 30
0.0
 10
147.967212
 20
273.166702
 30
0.0
 10
147.843486
 20
273.344980
 30
0.0
 10
147.678410
 20
273.811052
 30
0.0
 10
147.647003
 20
274.240044
 30
0.0
 10
147.627354
 20
274.508433
 30
0.0
 11
147.999236
 21
273.120558
 31
0.0
 11
147.906513
 21
273.260993
 31
0.0
 11
147.731149
 21
273.709845
 31
0.0
 11
147.627354
 21
274.508433
 31
0.0
  0
SPLINE
  5
1b5
100
AcDbEntity
  8
0
 62
5
100
AcDbSpline
 70
0
 71
3
 72
10
 73
6
 74
4
 40
0.000000
 40
0.000000
 40
0.000000
 40
0.000000
 40
1.568759
 40
3.233990
 40
4.770372
 40
4.770372
 40
4.770372
 40
4.770372
 10
147.627354
 20
274.508433
 30
0.0
 10
147.725436
 20
275.022171
 30
0.0
 10
147.927632
 20
276.081237
 30
0.0
 10
148.316329
 20
277.623881
 30
0.0
 10
148.602734
 20
278.651893
 30
0.0
 10
148.740173
 20
279.145213
 30
0.0
 11
147.627354
 21
274.508433
 31
0.0
 11
147.936028
 21
276.046525
 31
0.0
 11
148.333735
 21
277.663566
 31
0.0
 11
148.740173
 21
279.145213
 31
0.0
  0
LWPOLYLINE
  5
1b6
100
AcDbEntity
  8
0
 62
5
100
AcDbPolyline
 90
4
 70
0
 10
144.143880
 20
265.765558
 30
0.0
 10
148.800524
 20
273.831104
 30
0.0
 10
148.507233
 20
274.000436
 30
0.0
 10
147.999236
 20
273.120558
 30
0.0
  0
LWPOLYLINE
  5
1b7
100
AcDbEntity
  8
0
 62
5
100
AcDbPolyline
 90
4
 70
0
 10
151.555219
 20
279.279702
 30
0.0
 10
151.047221
 20
278.399824
 30
0.0
 10
151.340512
 20
278.230492
 30
0.0
 10
152.610507
 20
280.430186
 30
0.0
  0
LWPOLYLINE
  5
1b8
100
AcDbEntity
  8
0
 62
1
100
AcDbPolyline
 90
2
 70
0
 10
149.393188
 20
274.857627
 30
0.0
 10
150.747849
 20
277.203968
 30
0.0
  0
LWPOLYLINE
  5
1b9
100
AcDbEntity
  8
0
 62
5
100
AcDbPolyline
 90
5
 70
0
 10
144.143840
 20
282.698914
 30
0.0
 10
147.191840
 20
281.005580
 30
0.0
 10
146.006507
 20
270.845580
 30
0.0
 10
144.143840
 20
269.152247
 30
0.0
 10
144.143840
 20
265.765580
 30
0.0
  0
LWPOLYLINE
  5
1ba
100
AcDbEntity
  8
0
 62
5
100
AcDbPolyline
 90
4
 70
0
 10
143.635840
 20
281.344247
 30
0.0
 10
144.482507
 20
280.666914
 30
0.0
 10
144.482507
 20
274.570914
 30
0.0
 10
143.635840
 20
273.893580
 30
0.0
  0
LWPOLYLINE
  5
1bb
100
AcDbEntity
  8
0
 62
1
100
AcDbPolyline
 90
2
 70
0
 10
144.143840
 20
282.698914
 30
0.0
 10
144.143840
 20
281.344247
 30
0.0
  0
LWPOLYLINE
  5
1bc
100
AcDbEntity
  8
0
 62
1
100
AcDbPolyline
 90
2
 70
0
 10
144.143840
 20
269.152247
 30
0.0
 10
144.143840
 20
273.893580
 30
0.0
  0
SPLINE
  5
1bd
100
AcDbEntity
  8
0
 62
5
100
AcDbSpline
 70
0
 71
3
 72
10
 73
6
 74
4
 40
0.000000
 40
0.000000
 40
0.000000
 40
0.000000
 40
1.197279
 40
2.328478
 40
2.836631
 40
2.836631
 40
2.836631
 40
2.836631
 10
148.740173
 20
279.145213
 30
0.0
 10
149.131148
 20
279.233992
 30
0.0
 10
149.891518
 20
279.406648
 30
0.0
 10
150.844342
 20
279.358471
 30
0.0
 10
151.387008
 20
279.298341
 30
0.0
 10
151.555219
 20
279.279702
 30
0.0
 11
148.740173
 21
279.145213
 31
0.0
 11
149.918851
 21
279.355444
 31
0.0
 11
151.049818
 21
279.332516
 31
0.0
 11
151.555219
 21
279.279702
 31
0.0
  0
SPLINE
  5
1be
100
AcDbEntity
  8
0
 62
5
100
AcDbSpline
 70
0
 71
3
 72
10
 73
6
 74
4
 40
0.000000
 40
0.000000
 40
0.000000
 40
0.000000
 40
0.168285
 40
0.650182
 40
1.455494
 40
1.455494
 40
1.455494
 40
1.455494
 10
136.788776
 20
278.843527
 30
0.0
 10
136.742632
 20
278.875551
 30
0.0
 10
136.564352
 20
278.999278
 30
0.0
 10
136.098276
 20
279.164355
 30
0.0
 10
135.669281
 20
279.195762
 30
0.0
 10
135.400889
 20
279.215410
 30
0.0
 11
136.788776
 21
278.843527
 31
0.0
 11
136.648340
 21
278.936250
 31
0.0
 11
136.199484
 21
279.111615
 31
0.0
 11
135.400889
 21
279.215410
 31
0.0
  0
SPLINE
  5
1bf
100
AcDbEntity
  8
0
 62
5
100
AcDbSpline
 70
0
 71
3
 72
10
 73
6
 74
4
 40
0.000000
 40
0.000000
 40
0.000000
 40
0.000000
 40
1.568773
 40
3.234018
 40
4.770414
 40
4.770414
 40
4.770414
 40
4.770414
 10
135.400889
 20
279.215410
 30
0.0
 10
134.887148
 20
279.117327
 30
0.0
 10
133.828072
 20
278.915129
 30
0.0
 10
132.285414
 20
278.526430
 30
0.0
 10
131.257393
 20
278.240022
 30
0.0
 10
130.764068
 20
278.102581
 30
0.0
 11
135.400889
 21
279.215410
 31
0.0
 11
133.862784
 21
278.906733
 31
0.0
 11
132.245729
 21
278.509023
 31
0.0
 11
130.764068
 21
278.102581
 31
0.0
  0
LWPOLYLINE
  5
1c0
100
AcDbEntity
  8
0
 62
5
100
AcDbPolyline
 90
4
 70
0
 10
144.143840
 20
282.698915
 30
0.0
 10
136.078225
 20
278.042230
 30
0.0
 10
135.908892
 20
278.335525
 30
0.0
 10
136.788776
 20
278.843527
 30
0.0
  0
LWPOLYLINE
  5
1c1
100
AcDbEntity
  8
0
 62
5
100
AcDbPolyline
 90
4
 70
0
 10
130.629578
 20
275.287513
 30
0.0
 10
131.509465
 20
275.795515
 30
0.0
 10
131.678799
 20
275.502220
 30
0.0
 10
129.479085
 20
274.232215
 30
0.0
  0
LWPOLYLINE
  5
1c2
100
AcDbEntity
  8
0
 62
1
100
AcDbPolyline
 90
2
 70
0
 10
135.051693
 20
277.449561
 30
0.0
 10
132.705331
 20
276.094889
 30
0.0
  0
LWPOLYLINE
  5
1c3
100
AcDbEntity
  8
0
 62
5
100
AcDbPolyline
 90
4
 70
0
 10
129.479065
 20
274.232248
 30
0.0
 10
130.572019
 20
278.773833
 30
0.0
 10
125.492044
 20
287.572610
 30
0.0
 10
121.012438
 20
288.896876
 30
0.0
  0
LWPOLYLINE
  5
1c4
100
AcDbEntity
  8
0
 62
5
100
AcDbPolyline
 90
4
 70
0
 10
126.668471
 20
278.084345
 30
0.0
 10
127.063037
 20
279.094262
 30
0.0
 10
124.015051
 20
284.373528
 30
0.0
 10
122.943154
 20
284.536782
 30
0.0
  0
LWPOLYLINE
  5
1c5
100
AcDbEntity
  8
0
 62
1
100
AcDbPolyline
 90
2
 70
0
 10
129.479065
 20
274.232248
 30
0.0
 10
127.108410
 20
278.338344
 30
0.0
  0
LWPOLYLINE
  5
1c6
100
AcDbEntity
  8
0
 62
1
100
AcDbPolyline
 90
2
 70
0
 10
121.012438
 20
288.896876
 30
0.0
 10
123.383094
 20
284.790780
 30
0.0
  0
SPLINE
  5
1c7
100
AcDbEntity
  8
0
 62
5
100
AcDbSpline
 70
0
 71
3
 72
10
 73
6
 74
4
 40
0.000000
 40
0.000000
 40
0.000000
 40
0.000000
 40
1.197290
 40
2.328498
 40
2.836655
 40
2.836655
 40
2.836655
 40
2.836655
 10
130.764068
 20
278.102581
 30
0.0
 10
130.675289
 20
277.711604
 30
0.0
 10
130.502631
 20
276.951227
 30
0.0
 10
130.550808
 20
275.998395
 30
0.0
 10
130.610939
 20
275.455725
 30
0.0
 10
130.629578
 20
275.287513
 30
0.0
 11
130.764068
 21
278.102581
 31
0.0
 11
130.553836
 21
276.923893
 31
0.0
 11
130.576764
 21
275.792918
 31
0.0
 11
130.629578
 21
275.287513
 31
0.0
  0
SPLINE
  5
1c8
100
AcDbEntity
  8
0
 62
5
100
AcDbSpline
 70
0
 71
3
 72
10
 73
6
 74
4
 40
0.000000
 40
0.000000
 40
0.000000
 40
0.000000
 40
0.168284
 40
0.650176
 40
1.455482
 40
1.455482
 40
1.455482
 40
1.455482
 10
116.401128
 20
281.587226
 30
0.0
 10
116.369104
 20
281.633370
 30
0.0
 10
116.245378
 20
281.811648
 30
0.0
 10
116.080302
 20
282.277720
 30
0.0
 10
116.048895
 20
282.706712
 30
0.0
 10
116.029246
 20
282.975101
 30
0.0
 11
116.401128
 21
281.587226
 31
0.0
 11
116.308405
 21
281.727661
 31
0.0
 11
116.133041
 21
282.176513
 31
0.0
 11
116.029246
 21
282.975101
 31
0.0
  0
SPLINE
  5
1c9
100
AcDbEntity
  8
0
 62
5
100
AcDbSpline
 70
0
 71
3
 72
10
 73
6
 74
4
 40
0.000000
 40
0.000000
 40
0.000000
 40
0.000000
 40
1.568759
 40
3.233990
 40
4.770372
 40
4.770372
 40
4.770372
 40
4.770372
 10
116.029246
 20
282.975101
 30
0.0
 10
116.127328
 20
283.488838
 30
0.0
 10
116.329524
 20
284.547905
 30
0.0
 10
116.718221
 20
286.090549
 30
0.0
 10
117.004626
 20
287.118561
 30
0.0
 10
117.142065
 20
287.611881
 30
0.0
 11
116.029246
 21
282.975101
 31
0.0
 11
116.337920
 21
284.513193
 31
0.0
 11
116.735627
 21
286.130234
 31
0.0
 11
117.142065
 21
287.611881
 31
0.0
  0
LWPOLYLINE
  5
1ca
100
AcDbEntity
  8
0
 62
5
100
AcDbPolyline
 90
4
 70
0
 10
112.545772
 20
274.232226
 30
0.0
 10
117.202416
 20
282.297771
 30
0.0
 10
116.909125
 20
282.467104
 30
0.0
 10
116.401128
 20
281.587226
 30
0.0
  0
LWPOLYLINE
  5
1cb
100
AcDbEntity
  8
0
 62
5
100
AcDbPolyline
 90
4
 70
0
 10
119.957111
 20
287.746370
 30
0.0
 10
119.449113
 20
286.866492
 30
0.0
 10
119.742404
 20
286.697160
 30
0.0
 10
121.012399
 20
288.896854
 30
0.0
  0
LWPOLYLINE
  5
1cc
100
AcDbEntity
  8
0
 62
1
100
AcDbPolyline
 90
2
 70
0
 10
117.795080
 20
283.324295
 30
0.0
 10
119.149741
 20
285.670636
 30
0.0
  0
LWPOLYLINE
  5
1cd
100
AcDbEntity
  8
0
 62
5
100
AcDbPolyline
 90
5
 70
0
 10
112.545732
 20
291.165582
 30
0.0
 10
115.593732
 20
289.472248
 30
0.0
 10
114.408399
 20
279.312248
 30
0.0
 10
112.545732
 20
277.618915
 30
0.0
 10
112.545732
 20
274.232248
 30
0.0
  0
LWPOLYLINE
  5
1ce
100
AcDbEntity
  8
0
 62
5
100
AcDbPolyline
 90
4
 70
0
 10
112.037732
 20
289.810915
 30
0.0
 10
112.884399
 20
289.133582
 30
0.0
 10
112.884399
 20
283.037582
 30
0.0
 10
112.037732
 20
282.360248
 30
0.0
  0
LWPOLYLINE
  5
1cf
100
AcDbEntity
  8
0
 62
1
100
AcDbPolyline
 90
2
 70
0
 10
112.545732
 20
291.165582
 30
0.0
 10
112.545732
 20
289.810915
 30
0.0
  0
LWPOLYLINE
  5
1d0
100
AcDbEntity
  8
0
 62
1
100
AcDbPolyline
 90
2
 70
0
 10
112.545732
 20
277.618915
 30
0.0
 10
112.545732
 20
282.360248
 30
0.0
  0
SPLINE
  5
1d1
100
AcDbEntity
  8
0
 62
5
100
AcDbSpline
 70
0
 71
3
 72
10
 73
6
 74
4
 40
0.000000
 40
0.000000
 40
0.000000
 40
0.000000
 40
1.197279
 40
2.328478
 40
2.836631
 40
2.836631
 40
2.836631
 40
2.836631
 10
117.142065
 20
287.611881
 30
0.0
 10
117.533040
 20
287.700659
 30
0.0
 10
118.293410
 20
287.873316
 30
0.0
 10
119.246234
 20
287.825139
 30
0.0
 10
119.788900
 20
287.765009
 30
0.0
 10
119.957111
 20
287.746370
 30
0.0
 11
117.142065
 21
287.611881
 31
0.0
 11
118.320743
 21
287.822111
 31
0.0
 11
119.451710
 21
287.799184
 31
0.0
 11
119.957111
 21
287.746370
 31
0.0
  0
SPLINE
  5
1d2
100
AcDbEntity
  8
0
 62
5
100
AcDbSpline
 70
0
 71
3
 72
10
 73
6
 74
4
 40
0.000000
 40
0.000000
 40
0.000000
 40
0.000000
 40
0.383746
 40
1.264629
 40
2.310836
 40
2.310836
 40
2.310836
 40
2.310836
 10
101.964513
 20
285.447569
 30
0.0
 10
101.921917
 20
285.567978
 30
0.0
 10
101.781542
 20
285.964786
 30
0.0
 10
101.620640
 20
286.735139
 30
0.0
 10
101.755294
 20
287.370427
 30
0.0
 10
101.828397
 20
287.715322
 30
0.0
 11
101.964513
 21
285.447569
 31
0.0
 11
101.841542
 21
285.811079
 31
0.0
 11
101.688323
 21
286.678534
 31
0.0
 11
101.828397
 21
287.715322
 31
0.0
  0
SPLINE
  5
1d3
100
AcDbEntity
  8
0
 62
5
100
AcDbSpline
 70
0
 71
3
 72
10
 73
6
 74
4
 40
0.000000
 40
0.000000
 40
0.000000
 40
0.000000
 40
1.754114
 40
3.597957
 40
5.352070
 40
5.352070
 40
5.352070
 40
5.352070
 10
101.828397
 20
287.715322
 30
0.0
 10
102.147827
 20
288.211038
 30
0.0
 10
102.803027
 20
289.227827
 30
0.0
 10
104.430601
 20
290.167508
 30
0.0
 10
105.638767
 20
290.226533
 30
0.0
 10
106.227784
 20
290.255310
 30
0.0
 11
101.828397
 21
287.715322
 31
0.0
 11
102.891018
 21
289.110940
 31
0.0
 11
104.487833
 21
290.032862
 31
0.0
 11
106.227784
 21
290.255310
 31
0.0
  0
LWPOLYLINE
  5
1d4
100
AcDbEntity
  8
0
 62
5
100
AcDbPolyline
 90
4
 70
0
 10
97.881104
 20
282.698954
 30
0.0
 10
103.013724
 20
285.662274
 30
0.0
 10
102.844391
 20
285.955567
 30
0.0
 10
101.964513
 20
285.447569
 30
0.0
  0
LWPOLYLINE
  5
1d5
100
AcDbEntity
  8
0
 62
5
100
AcDbPolyline
 90
4
 70
0
 10
108.123657
 20
289.003552
 30
0.0
 10
107.243781
 20
288.495555
 30
0.0
 10
107.413112
 20
288.202262
 30
0.0
 10
112.545732
 20
291.165582
 30
0.0
  0
LWPOLYLINE
  5
1d6
100
AcDbEntity
  8
0
 62
1
100
AcDbPolyline
 90
2
 70
0
 10
104.040249
 20
286.254938
 30
0.0
 10
106.386588
 20
287.609598
 30
0.0
  0
LWPOLYLINE
  5
1d7
100
AcDbEntity
  8
0
 62
5
100
AcDbPolyline
 90
4
 70
0
 10
97.881127
 20
282.698915
 30
0.0
 10
98.974086
 20
287.240519
 30
0.0
 10
93.894086
 20
296.039334
 30
0.0
 10
89.414463
 20
297.363607
 30
0.0
  0
LWPOLYLINE
  5
1d8
100
AcDbEntity
  8
0
 62
5
100
AcDbPolyline
 90
4
 70
0
 10
95.070521
 20
286.551029
 30
0.0
 10
95.465087
 20
287.560950
 30
0.0
 10
92.417090
 20
292.840239
 30
0.0
 10
91.345187
 20
293.003493
 30
0.0
  0
LWPOLYLINE
  5
1d9
100
AcDbEntity
  8
0
 62
1
100
AcDbPolyline
 90
2
 70
0
 10
97.881127
 20
282.698915
 30
0.0
 10
95.510460
 20
286.805029
 30
0.0
  0
LWPOLYLINE
  5
1da
100
AcDbEntity
  8
0
 62
1
100
AcDbPolyline
 90
2
 70
0
 10
89.414463
 20
297.363607
 30
0.0
 10
91.785130
 20
293.257493
 30
0.0
  0
SPLINE
  5
1db
100
AcDbEntity
  8
0
 62
5
100
AcDbSpline
 70
0
 71
3
 72
10
 73
6
 74
4
 40
0.000000
 40
0.000000
 40
0.000000
 40
0.000000
 40
1.046207
 40
1.927090
 40
2.310837
 40
2.310837
 40
2.310837
 40
2.310837
 10
106.227784
 20
290.255310
 30
0.0
 10
106.563023
 20
290.146172
 30
0.0
 10
107.180526
 20
289.945141
 30
0.0
 10
107.767220
 20
289.420618
 30
0.0
 10
108.040677
 20
289.100646
 30
0.0
 10
108.123657
 20
289.003552
 30
0.0
 11
106.227784
 21
290.255310
 31
0.0
 11
107.195705
 21
289.858223
 31
0.0
 11
107.870334
 21
289.291803
 31
0.0
 11
108.123657
 21
289.003552
 31
0.0
  0
SPLINE
  5
1dc
100
AcDbEntity
  8
0
 62
5
100
AcDbSpline
 70
0
 71
3
 72
10
 73
6
 74
4
 40
0.000000
 40
0.000000
 40
0.000000
 40
0.000000
 40
0.383749
 40
1.264639
 40
2.310853
 40
2.310853
 40
2.310853
 40
2.310853
 10
83.109819
 20
287.120980
 30
0.0
 10
83.012724
 20
287.203961
 30
0.0
 10
82.692750
 20
287.477420
 30
0.0
 10
82.168223
 20
288.064118
 30
0.0
 10
81.967190
 20
288.681625
 30
0.0
 10
81.858050
 20
289.016866
 30
0.0
 11
83.109819
 21
287.120980
 31
0.0
 11
82.821566
 21
287.374306
 31
0.0
 11
82.255142
 21
288.048939
 31
0.0
 11
81.858050
 21
289.016866
 31
0.0
  0
SPLINE
  5
1dd
100
AcDbEntity
  8
0
 62
5
100
AcDbSpline
 70
0
 71
3
 72
10
 73
6
 74
4
 40
0.000000
 40
0.000000
 40
0.000000
 40
0.000000
 40
1.754126
 40
3.597982
 40
5.352107
 40
5.352107
 40
5.352107
 40
5.352107
 10
81.858050
 20
289.016866
 30
0.0
 10
81.886828
 20
289.605888
 30
0.0
 10
81.945854
 20
290.814062
 30
0.0
 10
82.885541
 20
292.441647
 30
0.0
 10
83.902337
 20
293.096852
 30
0.0
 10
84.398056
 20
293.416285
 30
0.0
 11
81.858050
 21
289.016866
 31
0.0
 11
82.080501
 21
290.756830
 31
0.0
 11
83.002429
 21
292.353656
 31
0.0
 11
84.398056
 21
293.416285
 31
0.0
  0
LWPOLYLINE
  5
1de
100
AcDbEntity
  8
0
 62
5
100
AcDbPolyline
 90
4
 70
0
 10
80.947774
 20
282.698875
 30
0.0
 10
83.911113
 20
287.831530
 30
0.0
 10
83.617819
 20
288.000864
 30
0.0
 10
83.109819
 20
287.120980
 30
0.0
  0
LWPOLYLINE
  5
1df
100
AcDbEntity
  8
0
 62
5
100
AcDbPolyline
 90
4
 70
0
 10
86.665824
 20
293.280166
 30
0.0
 10
86.157824
 20
292.400283
 30
0.0
 10
86.451118
 20
292.230949
 30
0.0
 10
89.414457
 20
297.363604
 30
0.0
  0
LWPOLYLINE
  5
1e0
100
AcDbEntity
  8
0
 62
1
100
AcDbPolyline
 90
2
 70
0
 10
84.503782
 20
288.858061
 30
0.0
 10
85.858452
 20
291.204418
 30
0.0
  0
LWPOLYLINE
  5
1e1
100
AcDbEntity
  8
0
 62
5
100
AcDbPolyline
 90
4
 70
0
 10
80.947709
 20
282.698915
 30
0.0
 10
76.406104
 20
283.791874
 30
0.0
 10
67.607290
 20
278.711875
 30
0.0
 10
66.283016
 20
274.232251
 30
0.0
  0
LWPOLYLINE
  5
1e2
100
AcDbEntity
  8
0
 62
5
100
AcDbPolyline
 90
4
 70
0
 10
77.095596
 20
279.888308
 30
0.0
 10
76.085675
 20
280.282876
 30
0.0
 10
70.806386
 20
277.234877
 30
0.0
 10
70.643132
 20
276.162976
 30
0.0
  0
LWPOLYLINE
  5
1e3
100
AcDbEntity
  8
0
 62
1
100
AcDbPolyline
 90
2
 70
0
 10
80.947709
 20
282.698915
 30
0.0
 10
76.841596
 20
280.328249
 30
0.0
  0
LWPOLYLINE
  5
1e4
100
AcDbEntity
  8
0
 62
1
100
AcDbPolyline
 90
2
 70
0
 10
66.283016
 20
274.232251
 30
0.0
 10
70.389132
 20
276.602917
 30
0.0
  0
LWPOLYLINE
  5
1e5
100
AcDbEntity
  8
0
 62
1
100
AcDbPolyline
 90
2
 70
0
 10
66.283019
 20
274.232248
 30
0.0
 10
80.947850
 20
265.765580
 30
0.0
  0
LWPOLYLINE
  5
1e6
100
AcDbEntity
  8
0
 62
1
100
AcDbPolyline
 90
2
 70
0
 10
80.947850
 20
282.698915
 30
0.0
 10
80.947850
 20
265.765580
 30
0.0
  0
LWPOLYLINE
  5
1e7
100
AcDbEntity
  8
0
 62
1
100
AcDbPolyline
 90
2
 70
0
 10
80.947850
 20
282.698915
 30
0.0
 10
97.881183
 20
282.698915
 30
0.0
  0
LWPOLYLINE
  5
1e8
100
AcDbEntity
  8
0
 62
1
100
AcDbPolyline
 90
2
 70
0
 10
80.947850
 20
265.765580
 30
0.0
 10
97.881183
 20
265.765580
 30
0.0
  0
LWPOLYLINE
  5
1e9
100
AcDbEntity
  8
0
 62
1
100
AcDbPolyline
 90
2
 70
0
 10
97.881183
 20
282.698915
 30
0.0
 10
97.881183
 20
265.765580
 30
0.0
  0
LWPOLYLINE
  5
1ea
100
AcDbEntity
  8
0
 62
1
100
AcDbPolyline
 90
2
 70
0
 10
97.881183
 20
282.698915
 30
0.0
 10
112.545732
 20
274.232248
 30
0.0
  0
LWPOLYLINE
  5
1eb
100
AcDbEntity
  8
0
 62
1
100
AcDbPolyline
 90
2
 70
0
 10
97.881183
 20
265.765580
 30
0.0
 10
112.545732
 20
274.232248
 30
0.0
  0
LWPOLYLINE
  5
1ec
100
AcDbEntity
  8
0
 62
1
100
AcDbPolyline
 90
2
 70
0
 10
97.881183
 20
265.765580
 30
0.0
 10
112.545732
 20
257.298914
 30
0.0
  0
LWPOLYLINE
  5
1ed
100
AcDbEntity
  8
0
 62
1
100
AcDbPolyline
 90
2
 70
0
 10
112.545732
 20
274.232248
 30
0.0
 10
112.545732
 20
257.298914
 30
0.0
  0
LWPOLYLINE
  5
1ee
100
AcDbEntity
  8
0
 62
1
100
AcDbPolyline
 90
2
 70
0
 10
112.545732
 20
274.232248
 30
0.0
 10
129.479065
 20
274.232248
 30
0.0
  0
LWPOLYLINE
  5
1ef
100
AcDbEntity
  8
0
 62
1
100
AcDbPolyline
 90
2
 70
0
 10
112.545732
 20
257.298914
 30
0.0
 10
129.479065
 20
257.298914
 30
0.0
  0
LWPOLYLINE
  5
1f0
100
AcDbEntity
  8
0
 62
1
100
AcDbPolyline
 90
2
 70
0
 10
129.479065
 20
274.232248
 30
0.0
 10
129.479065
 20
257.298914
 30
0.0
  0
LWPOLYLINE
  5
1f1
100
AcDbEntity
  8
0
 62
1
100
AcDbPolyline
 90
2
 70
0
 10
129.479065
 20
274.232248
 30
0.0
 10
144.143897
 20
265.765580
 30
0.0
  0
LWPOLYLINE
  5
1f2
100
AcDbEntity
  8
0
 62
1
100
AcDbPolyline
 90
2
 70
0
 10
129.479065
 20
257.298914
 30
0.0
 10
144.143897
 20
265.765580
 30
0.0
  0
LWPOLYLINE
  5
1f3
100
AcDbEntity
  8
0
 62
1
100
AcDbPolyline
 90
2
 70
0
 10
129.479065
 20
257.298914
 30
0.0
 10
144.143897
 20
248.832247
 30
0.0
  0
LWPOLYLINE
  5
1f4
100
AcDbEntity
  8
0
 62
1
100
AcDbPolyline
 90
2
 70
0
 10
135.677230
 20
234.167416
 30
0.0
 10
135.677230
 20
217.234083
 30
0.0
  0
LWPOLYLINE
  5
1f5
100
AcDbEntity
  8
0
 62
1
100
AcDbPolyline
 90
2
 70
0
 10
135.677230
 20
234.167416
 30
0.0
 10
152.610563
 20
234.167416
 30
0.0
  0
LWPOLYLINE
  5
1f6
100
AcDbEntity
  8
0
 62
1
100
AcDbPolyline
 90
2
 70
0
 10
135.677230
 20
217.234083
 30
0.0
 10
152.610563
 20
217.234083
 30
0.0
  0
LWPOLYLINE
  5
1f7
100
AcDbEntity
  8
0
 62
1
100
AcDbPolyline
 90
2
 70
0
 10
144.143897
 20
265.765580
 30
0.0
 10
144.143897
 20
248.832247
 30
0.0
  0
LWPOLYLINE
  5
1f8
100
AcDbEntity
  8
0
 62
1
100
AcDbPolyline
 90
2
 70
0
 10
144.143897
 20
265.765580
 30
0.0
 10
161.077230
 20
265.765580
 30
0.0
  0
LWPOLYLINE
  5
1f9
100
AcDbEntity
  8
0
 62
1
100
AcDbPolyline
 90
2
 70
0
 10
144.143897
 20
248.832247
 30
0.0
 10
152.610563
 20
234.167416
 30
0.0
  0
LWPOLYLINE
  5
1fa
100
AcDbEntity
  8
0
 62
1
100
AcDbPolyline
 90
2
 70
0
 10
144.143897
 20
248.832247
 30
0.0
 10
161.077230
 20
248.832247
 30
0.0
  0
LWPOLYLINE
  5
1fb
100
AcDbEntity
  8
0
 62
1
100
AcDbPolyline
 90
2
 70
0
 10
152.610563
 20
297.363464
 30
0.0
 10
152.610563
 20
280.430130
 30
0.0
  0
LWPOLYLINE
  5
1fc
100
AcDbEntity
  8
0
 62
1
100
AcDbPolyline
 90
2
 70
0
 10
152.610563
 20
297.363464
 30
0.0
 10
169.543897
 20
297.363464
 30
0.0
  0
LWPOLYLINE
  5
1fd
100
AcDbEntity
  8
0
 62
1
100
AcDbPolyline
 90
2
 70
0
 10
152.610563
 20
280.430130
 30
0.0
 10
161.077230
 20
265.765580
 30
0.0
  0
LWPOLYLINE
  5
1fe
100
AcDbEntity
  8
0
 62
1
100
AcDbPolyline
 90
2
 70
0
 10
152.610563
 20
280.430130
 30
0.0
 10
169.543897
 20
280.430130
 30
0.0
  0
LWPOLYLINE
  5
1ff
100
AcDbEntity
  8
0
 62
1
100
AcDbPolyline
 90
2
 70
0
 10
152.610563
 20
234.167416
 30
0.0
 10
152.610563
 20
217.234083
 30
0.0
  0
LWPOLYLINE
  5
200
100
AcDbEntity
  8
0
 62
1
100
AcDbPolyline
 90
2
 70
0
 10
161.077230
 20
265.765580
 30
0.0
 10
161.077230
 20
248.832247
 30
0.0
  0
LWPOLYLINE
  5
201
100
AcDbEntity
  8
0
 62
1
100
AcDbPolyline
 90
2
 70
0
 10
161.077230
 20
265.765580
 30
0.0
 10
175.741779
 20
257.298914
 30
0.0
  0
LWPOLYLINE
  5
202
100
AcDbEntity
  8
0
 62
1
100
AcDbPolyline
 90
2
 70
0
 10
161.077230
 20
248.832247
 30
0.0
 10
175.741779
 20
257.298914
 30
0.0
  0
LWPOLYLINE
  5
203
100
AcDbEntity
  8
0
 62
1
100
AcDbPolyline
 90
2
 70
0
 10
161.077230
 20
248.832247
 30
0.0
 10
175.741779
 20
240.365580
 30
0.0
  0
LWPOLYLINE
  5
204
100
AcDbEntity
  8
0
 62
1
100
AcDbPolyline
 90
2
 70
0
 10
169.543897
 20
297.363464
 30
0.0
 10
169.543897
 20
280.430130
 30
0.0
  0
LWPOLYLINE
  5
205
100
AcDbEntity
  8
0
 62
1
100
AcDbPolyline
 90
2
 70
0
 10
175.741779
 20
257.298914
 30
0.0
 10
175.741779
 20
240.365580
 30
0.0
  0
LWPOLYLINE
  5
206
100
AcDbEntity
  8
0
 62
1
100
AcDbPolyline
 90
2
 70
0
 10
175.741779
 20
257.298914
 30
0.0
 10
192.675112
 20
257.298914
 30
0.0
  0
LWPOLYLINE
  5
207
100
AcDbEntity
  8
0
 62
1
100
AcDbPolyline
 90
2
 70
0
 10
175.741779
 20
240.365580
 30
0.0
 10
192.675112
 20
240.365580
 30
0.0
  0
LWPOLYLINE
  5
208
100
AcDbEntity
  8
0
 62
1
100
AcDbPolyline
 90
2
 70
0
 10
192.675112
 20
257.298914
 30
0.0
 10
192.675112
 20
240.365580
 30
0.0
  0
SPLINE
  5
209
100
AcDbEntity
  8
0
 62
5
100
AcDbSpline
 70
0
 71
3
 72
10
 73
6
 74
4
 40
0.000000
 40
0.000000
 40
0.000000
 40
0.000000
 40
1.046214
 40
1.927103
 40
2.310852
 40
2.310852
 40
2.310852
 40
2.310852
 10
84.398056
 20
293.416285
 30
0.0
 10
84.742953
 20
293.489388
 30
0.0
 10
85.378246
 20
293.624043
 30
0.0
 10
86.148604
 20
293.463139
 30
0.0
 10
86.545414
 20
293.322763
 30
0.0
 10
86.665824
 20
293.280166
 30
0.0
 11
84.398056
 21
293.416285
 31
0.0
 11
85.434851
 21
293.556359
 31
0.0
 11
86.302312
 21
293.403138
 31
0.0
 11
86.665824
 21
293.280166
 31
0.0
  0
LWPOLYLINE
  5
20a
100
AcDbEntity
  8
0
 62
1
100
AcDbPolyline
 90
2
 70
0
 10
192.675112
 20
257.298914
 30
0.0
 10
207.339943
 20
248.832247
 30
0.0
  0
ENDSEC
  0
SECTION
  2
OBJECTS
  0
DICTIONARY
  5
C
330
0
100
AcDbDictionary
  3
ACAD_GROUP
350
D
  3
ACAD_MLINESTYLE
350
17
  0
DICTIONARY
  5
D
330
C
100
AcDbDictionary
  0
DICTIONARY
  5
1A
330
C
100
AcDbDictionary
  0
DICTIONARY
  5
17
330
C
100
AcDbDictionary
  3
STANDARD
350
18
  0
DICTIONARY
  5
19
330
C
100
AcDbDictionary
  0
ENDSEC
  0
EOF
