999
DXF created by Inkscape
  0
SECTION
  2
HEADER
  9
$ACADVER
  1
AC1014
  9
$HANDSEED
  5
FFFF
  9
$MEASUREMENT
 70
     1
  0
ENDSEC
  0
SECTION
  2
TABLES
  0
TABLE
  2
VPORT
  5
8
330
0
100
AcDbSymbolTable
 70
     4
  0
VPORT
  5
2E
330
8
100
AcDbSymbolTableRecord
100
AcDbViewportTableRecord
  2
*ACTIVE
 70
     0
 10
0.0
 20
0.0
 11
1.0
 21
1.0
 12
210.0
 22
148.5
 13
0.0
 23
0.0
 14
10.0
 24
10.0
 15
10.0
 25
10.0
 16
0.0
 26
0.0
 36
1.0
 17
0.0
 27
0.0
 37
0.0
 40
341.0
 41
1.24
 42
50.0
 43
0.0
 44
0.0
 50
0.0
 51
0.0
 71
     0
 72
   100
 73
     1
 74
     3
 75
     0
 76
     0
 77
     0
 78
     0
  0
ENDTAB
  0
TABLE
  2
LTYPE
  5
5
330
0
100
AcDbSymbolTable
 70
     1
  0
LTYPE
  5
14
330
5
100
AcDbSymbolTableRecord
100
AcDbLinetypeTableRecord
  2
BYBLOCK
 70
     0
  3

 72
    65
 73
     0
 40
0.0
  0
LTYPE
  5
15
330
5
100
AcDbSymbolTableRecord
100
AcDbLinetypeTableRecord
  2
BYLAYER
 70
     0
  3

 72
    65
 73
     0
 40
0.0
  0
LTYPE
  5
16
330
5
100
AcDbSymbolTableRecord
100
AcDbLinetypeTableRecord
  2
CONTINUOUS
 70
     0
  3
Solid line
 72
    65
 73
     0
 40
0.0
  0
ENDTAB
  0
TABLE
  2
LAYER
  5
2
330
0
100
AcDbSymbolTable
 70
1
  0
LAYER
  5
10
330
2
100
AcDbSymbolTableRecord
100
AcDbLayerTableRecord
  2
0
 70
     0
 62
     7
  6
CONTINUOUS
  0
ENDTAB
  0
TABLE
  2
STYLE
  5
3
330
0
100
AcDbSymbolTable
 70
     1
  0
STYLE
  5
11
330
3
100
AcDbSymbolTableRecord
100
AcDbTextStyleTableRecord
  2
STANDARD
 70
     0
 40
0.0
 41
1.0
 50
0.0
 71
     0
 42
2.5
  3
txt
  4

  0
ENDTAB
  0
TABLE
  2
VIEW
  5
6
330
0
100
AcDbSymbolTable
 70
     0
  0
ENDTAB
  0
TABLE
  2
UCS
  5
7
330
0
100
AcDbSymbolTable
 70
     0
  0
ENDTAB
  0
TABLE
  2
APPID
  5
9
330
0
100
AcDbSymbolTable
 70
     2
  0
APPID
  5
12
330
9
100
AcDbSymbolTableRecord
100
AcDbRegAppTableRecord
  2
ACAD
 70
     0
  0
ENDTAB
  0
TABLE
  2
DIMSTYLE
  5
A
330
0
100
AcDbSymbolTable
 70
     1
  0
DIMSTYLE
105
27
330
A
100
AcDbSymbolTableRecord
100
AcDbDimStyleTableRecord
  2
ISO-25
 70
     0
  3

  4

  5

  6

  7

 40
1.0
 41
2.5
 42
0.625
 43
3.75
 44
1.25
 45
0.0
 46
0.0
 47
0.0
 48
0.0
140
2.5
141
2.5
142
0.0
143
0.03937007874016
144
1.0
145
0.0
146
1.0
147
0.625
 71
     0
 72
     0
 73
     0
 74
     0
 75
     0
 76
     0
 77
     1
 78
     8
170
     0
171
     3
172
     1
173
     0
174
     0
175
     0
176
     0
177
     0
178
     0
270
     2
271
     2
272
     2
273
     2
274
     3
340
11
275
     0
280
     0
281
     0
282
     0
283
     0
284
     8
285
     0
286
     0
287
     3
288
     0
  0
ENDTAB
  0
TABLE
  2
BLOCK_RECORD
  5
1
330
0
100
AcDbSymbolTable
 70
     1
  0
BLOCK_RECORD
  5
1F
330
1
100
AcDbSymbolTableRecord
100
AcDbBlockTableRecord
  2
*MODEL_SPACE
  0
BLOCK_RECORD
  5
1B
330
1
100
AcDbSymbolTableRecord
100
AcDbBlockTableRecord
  2
*PAPER_SPACE
  0
ENDTAB
  0
ENDSEC
  0
SECTION
  2
BLOCKS
  0
BLOCK
  5
20
330
1F
100
AcDbEntity
  8
0
100
AcDbBlockBegin
  2
*MODEL_SPACE
 70
     0
 10
0.0
 20
0.0
 30
0.0
  3
*MODEL_SPACE
  1

  0
ENDBLK
  5
21
330
1F
100
AcDbEntity
  8
0
100
AcDbBlockEnd
  0
BLOCK
  5
1C
330
1B
100
AcDbEntity
 67
     1
  8
0
100
AcDbBlockBegin
  2
*PAPER_SPACE
  1

  0
ENDBLK
  5
1D
330
1B
100
AcDbEntity
 67
     1
  8
0
100
AcDbBlockEnd
  0
ENDSEC
  0
SECTION
  2
ENTITIES
  0
SPLINE
  5
100
100
AcDbEntity
  8
0
 62
5
100
AcDbSpline
 70
0
 71
3
 72
10
 73
6
 74
4
 40
0.000000
 40
0.000000
 40
0.000000
 40
0.000000
 40
0.410611
 40
1.353161
 40
2.472607
 40
2.472607
 40
2.472607
 40
2.472607
 10
164.786832
 20
29.603275
 30
0.0
 10
164.873727
 20
29.497795
 30
0.0
 10
165.160088
 20
29.150187
 30
0.0
 10
165.603793
 20
28.434500
 30
0.0
 10
165.700894
 20
27.746454
 30
0.0
 10
165.753610
 20
27.372918
 30
0.0
 11
164.786832
 21
29.603275
 31
0.0
 11
165.043508
 21
29.282777
 31
0.0
 11
165.515024
 21
28.466645
 31
0.0
 11
165.753610
 21
27.372918
 31
0.0
  0
SPLINE
  5
101
100
AcDbEntity
  8
0
 62
5
100
AcDbSpline
 70
0
 71
3
 72
10
 73
6
 74
4
 40
0.000000
 40
0.000000
 40
0.000000
 40
0.000000
 40
1.876911
 40
3.849833
 40
5.726744
 40
5.726744
 40
5.726744
 40
5.726744
 10
165.753610
 20
27.372918
 30
0.0
 10
165.613844
 20
26.757588
 30
0.0
 10
165.327165
 20
25.495451
 30
0.0
 10
164.034565
 20
23.954992
 30
0.0
 10
162.841385
 20
23.453499
 30
0.0
 10
162.259673
 20
23.209006
 30
0.0
 11
165.753610
 21
27.372918
 31
0.0
 11
165.195915
 21
25.580776
 31
0.0
 11
163.927745
 21
24.069431
 31
0.0
 11
162.259673
 21
23.209006
 31
0.0
  0
LWPOLYLINE
  5
102
100
AcDbEntity
  8
0
 62
5
100
AcDbPolyline
 90
4
 70
0
 10
167.886710
 20
33.861317
 30
0.0
 10
163.810450
 20
29.003420
 30
0.0
 10
164.088044
 20
28.770491
 30
0.0
 10
164.786832
 20
29.603275
 30
0.0
  0
LWPOLYLINE
  5
103
100
AcDbEntity
  8
0
 62
5
100
AcDbPolyline
 90
4
 70
0
 10
159.895323
 20
23.773797
 30
0.0
 10
160.594108
 20
24.606582
 30
0.0
 10
160.316514
 20
24.839511
 30
0.0
 10
156.240257
 20
19.981614
 30
0.0
  0
LWPOLYLINE
  5
104
100
AcDbEntity
  8
0
 62
1
100
AcDbPolyline
 90
2
 70
0
 10
162.995201
 20
28.031842
 30
0.0
 10
161.131766
 20
25.811089
 30
0.0
  0
LWPOLYLINE
  5
105
100
AcDbEntity
  8
0
 62
5
100
AcDbPolyline
 90
4
 70
0
 10
167.886741
 20
33.861292
 30
0.0
 10
170.857604
 20
29.841826
 30
0.0
 10
181.563555
 20
27.954079
 30
0.0
 10
185.729990
 20
30.715044
 30
0.0
  0
LWPOLYLINE
  5
106
100
AcDbEntity
  8
0
 62
5
100
AcDbPolyline
 90
4
 70
0
 10
172.977237
 20
33.515640
 30
0.0
 10
173.533655
 20
32.497628
 30
0.0
 10
179.957225
 20
31.364980
 30
0.0
 10
180.828267
 20
32.131292
 30
0.0
  0
LWPOLYLINE
  5
107
100
AcDbEntity
  8
0
 62
1
100
AcDbPolyline
 90
2
 70
0
 10
167.886741
 20
33.861292
 30
0.0
 10
172.882851
 20
32.980343
 30
0.0
  0
LWPOLYLINE
  5
108
100
AcDbEntity
  8
0
 62
1
100
AcDbPolyline
 90
2
 70
0
 10
185.729990
 20
30.715044
 30
0.0
 10
180.733881
 20
31.595995
 30
0.0
  0
SPLINE
  5
109
100
AcDbEntity
  8
0
 62
5
100
AcDbSpline
 70
0
 71
3
 72
10
 73
6
 74
4
 40
0.000000
 40
0.000000
 40
0.000000
 40
0.000000
 40
1.119446
 40
2.061995
 40
2.472605
 40
2.472605
 40
2.472605
 40
2.472605
 10
162.259673
 20
23.209006
 30
0.0
 10
161.882658
 20
23.196057
 30
0.0
 10
161.188204
 20
23.172205
 30
0.0
 10
160.406342
 20
23.484891
 30
0.0
 10
160.014290
 20
23.706539
 30
0.0
 10
159.895323
 20
23.773797
 30
0.0
 11
162.259673
 21
23.209006
 31
0.0
 11
161.141133
 21
23.254044
 31
0.0
 11
160.255522
 21
23.576675
 31
0.0
 11
159.895323
 21
23.773797
 31
0.0
  0
SPLINE
  5
10a
100
AcDbEntity
  8
0
 62
5
100
AcDbSpline
 70
0
 71
3
 72
10
 73
6
 74
4
 40
0.000000
 40
0.000000
 40
0.000000
 40
0.000000
 40
0.410611
 40
1.353161
 40
2.472607
 40
2.472607
 40
2.472607
 40
2.472607
 10
194.276559
 20
40.336658
 30
0.0
 10
194.363455
 20
40.231177
 30
0.0
 10
194.649815
 20
39.883569
 30
0.0
 10
195.093521
 20
39.167883
 30
0.0
 10
195.190622
 20
38.479837
 30
0.0
 10
195.243337
 20
38.106301
 30
0.0
 11
194.276559
 21
40.336658
 31
0.0
 11
194.533236
 21
40.016160
 31
0.0
 11
195.004751
 21
39.200027
 31
0.0
 11
195.243337
 21
38.106301
 31
0.0
  0
SPLINE
  5
10b
100
AcDbEntity
  8
0
 62
5
100
AcDbSpline
 70
0
 71
3
 72
10
 73
6
 74
4
 40
0.000000
 40
0.000000
 40
0.000000
 40
0.000000
 40
1.876911
 40
3.849833
 40
5.726744
 40
5.726744
 40
5.726744
 40
5.726744
 10
195.243337
 20
38.106301
 30
0.0
 10
195.103572
 20
37.490970
 30
0.0
 10
194.816892
 20
36.228833
 30
0.0
 10
193.524292
 20
34.688375
 30
0.0
 10
192.331112
 20
34.186881
 30
0.0
 10
191.749401
 20
33.942388
 30
0.0
 11
195.243337
 21
38.106301
 31
0.0
 11
194.685642
 21
36.314158
 31
0.0
 11
193.417472
 21
34.802813
 31
0.0
 11
191.749401
 21
33.942388
 31
0.0
  0
LWPOLYLINE
  5
10c
100
AcDbEntity
  8
0
 62
5
100
AcDbPolyline
 90
4
 70
0
 10
197.376438
 20
44.594699
 30
0.0
 10
193.300178
 20
39.736803
 30
0.0
 10
193.577772
 20
39.503873
 30
0.0
 10
194.276559
 20
40.336658
 30
0.0
  0
LWPOLYLINE
  5
10d
100
AcDbEntity
  8
0
 62
5
100
AcDbPolyline
 90
4
 70
0
 10
189.385050
 20
34.507180
 30
0.0
 10
190.083835
 20
35.339964
 30
0.0
 10
189.806241
 20
35.572893
 30
0.0
 10
185.729984
 20
30.714996
 30
0.0
  0
LWPOLYLINE
  5
10e
100
AcDbEntity
  8
0
 62
1
100
AcDbPolyline
 90
2
 70
0
 10
192.484928
 20
38.765225
 30
0.0
 10
190.621494
 20
36.544471
 30
0.0
  0
LWPOLYLINE
  5
10f
100
AcDbEntity
  8
0
 62
5
100
AcDbPolyline
 90
4
 70
0
 10
191.179543
 20
61.620582
 30
0.0
 10
195.653852
 20
59.392816
 30
0.0
 10
199.372006
 20
49.177269
 30
0.0
 10
197.376469
 20
44.594671
 30
0.0
  0
LWPOLYLINE
  5
110
100
AcDbEntity
  8
0
 62
5
100
AcDbPolyline
 90
4
 70
0
 10
192.403905
 20
56.667418
 30
0.0
 10
193.503076
 20
56.296228
 30
0.0
 10
195.733969
 20
50.166901
 30
0.0
 10
195.130553
 20
49.176018
 30
0.0
  0
LWPOLYLINE
  5
111
100
AcDbEntity
  8
0
 62
1
100
AcDbPolyline
 90
2
 70
0
 10
191.179543
 20
61.620582
 30
0.0
 10
192.914682
 20
56.853327
 30
0.0
  0
LWPOLYLINE
  5
112
100
AcDbEntity
  8
0
 62
1
100
AcDbPolyline
 90
2
 70
0
 10
197.376469
 20
44.594671
 30
0.0
 10
195.641330
 20
49.361927
 30
0.0
  0
SPLINE
  5
113
100
AcDbEntity
  8
0
 62
5
100
AcDbSpline
 70
0
 71
3
 72
10
 73
6
 74
4
 40
0.000000
 40
0.000000
 40
0.000000
 40
0.000000
 40
1.119446
 40
2.061995
 40
2.472605
 40
2.472605
 40
2.472605
 40
2.472605
 10
191.749401
 20
33.942388
 30
0.0
 10
191.372385
 20
33.929439
 30
0.0
 10
190.677932
 20
33.905588
 30
0.0
 10
189.896070
 20
34.218273
 30
0.0
 10
189.504017
 20
34.439922
 30
0.0
 10
189.385050
 20
34.507180
 30
0.0
 11
191.749401
 21
33.942388
 31
0.0
 11
190.630860
 21
33.987426
 31
0.0
 11
189.745250
 21
34.310058
 31
0.0
 11
189.385050
 21
34.507180
 31
0.0
  0
SPLINE
  5
114
100
AcDbEntity
  8
0
 62
5
100
AcDbSpline
 70
0
 71
3
 72
10
 73
6
 74
4
 40
0.000000
 40
0.000000
 40
0.000000
 40
0.000000
 40
0.410611
 40
1.353161
 40
2.472608
 40
2.472608
 40
2.472608
 40
2.472608
 10
178.573650
 20
64.211303
 30
0.0
 10
178.621551
 20
64.339296
 30
0.0
 10
178.779409
 20
64.761096
 30
0.0
 10
179.177360
 20
65.503199
 30
0.0
 10
179.724674
 20
65.931314
 30
0.0
 10
180.021809
 20
66.163736
 30
0.0
 11
178.573650
 21
64.211303
 31
0.0
 11
178.722872
 21
64.593840
 31
0.0
 11
179.193906
 21
65.410250
 31
0.0
 11
180.021809
 21
66.163736
 31
0.0
  0
SPLINE
  5
115
100
AcDbEntity
  8
0
 62
5
100
AcDbSpline
 70
0
 71
3
 72
10
 73
6
 74
4
 40
0.000000
 40
0.000000
 40
0.000000
 40
0.000000
 40
1.876911
 40
3.849833
 40
5.726744
 40
5.726744
 40
5.726744
 40
5.726744
 10
180.021809
 20
66.163736
 30
0.0
 10
180.624583
 20
66.350360
 30
0.0
 10
181.860966
 20
66.733155
 30
0.0
 10
183.841342
 20
66.383961
 30
0.0
 10
184.872237
 20
65.601383
 30
0.0
 10
185.374830
 20
65.219852
 30
0.0
 11
180.021809
 21
66.163736
 31
0.0
 11
181.852697
 21
66.576828
 31
0.0
 11
183.795645
 21
66.234233
 31
0.0
 11
185.374830
 21
65.219852
 31
0.0
  0
LWPOLYLINE
  5
116
100
AcDbEntity
  8
0
 62
5
100
AcDbPolyline
 90
4
 70
0
 10
173.336139
 20
64.766855
 30
0.0
 10
179.581330
 20
63.665660
 30
0.0
 10
179.644254
 20
64.022527
 30
0.0
 10
178.573650
 20
64.211303
 30
0.0
  0
LWPOLYLINE
  5
117
100
AcDbEntity
  8
0
 62
5
100
AcDbPolyline
 90
4
 70
0
 10
186.067881
 20
62.889868
 30
0.0
 10
184.997276
 20
63.078644
 30
0.0
 10
184.934352
 20
62.721776
 30
0.0
 10
191.179543
 20
61.620582
 30
0.0
  0
LWPOLYLINE
  5
118
100
AcDbEntity
  8
0
 62
1
100
AcDbPolyline
 90
2
 70
0
 10
180.830370
 20
63.445420
 30
0.0
 10
183.685313
 20
62.942017
 30
0.0
  0
LWPOLYLINE
  5
119
100
AcDbEntity
  8
0
 62
5
100
AcDbPolyline
 90
5
 70
0
 10
173.336133
 20
64.766815
 30
0.0
 10
169.673171
 20
65.475198
 30
0.0
 10
163.656930
 20
56.332203
 30
0.0
 10
164.019049
 20
53.663149
 30
0.0
 10
161.689779
 20
50.887231
 30
0.0
  0
LWPOLYLINE
  5
11a
100
AcDbEntity
  8
0
 62
5
100
AcDbPolyline
 90
4
 70
0
 10
172.820813
 20
63.307057
 30
0.0
 10
171.660978
 20
63.334179
 30
0.0
 10
167.468290
 20
58.337530
 30
0.0
 10
167.696416
 20
57.200028
 30
0.0
  0
LWPOLYLINE
  5
11b
100
AcDbEntity
  8
0
 62
1
100
AcDbPolyline
 90
2
 70
0
 10
173.336133
 20
64.766815
 30
0.0
 10
172.404425
 20
63.656448
 30
0.0
  0
LWPOLYLINE
  5
11c
100
AcDbEntity
  8
0
 62
1
100
AcDbPolyline
 90
2
 70
0
 10
164.019049
 20
53.663149
 30
0.0
 10
167.280028
 20
57.549430
 30
0.0
  0
LWPOLYLINE
  5
11d
100
AcDbEntity
  8
0
 62
5
100
AcDbPolyline
 90
8
 70
0
 10
143.846412
 20
54.033472
 30
0.0
 10
156.336794
 20
51.831080
 30
0.0
 10
156.913902
 20
53.017193
 30
0.0
 10
158.729705
 20
52.881001
 30
0.0
 10
159.433099
 20
51.653083
 30
0.0
 10
159.076229
 20
51.716007
 30
0.0
 10
159.013305
 20
51.359140
 30
0.0
 10
161.689816
 20
50.887200
 30
0.0
  0
LWPOLYLINE
  5
11e
100
AcDbEntity
  8
0
 62
1
100
AcDbPolyline
 90
2
 70
0
 10
157.050531
 20
51.705229
 30
0.0
 10
158.299568
 20
51.484991
 30
0.0
  0
LWPOLYLINE
  5
11f
100
AcDbEntity
  8
0
 62
5
100
AcDbPolyline
 90
7
 70
0
 10
161.954043
 20
54.665766
 30
0.0
 10
161.655122
 20
52.842356
 30
0.0
 10
159.838037
 20
52.960198
 30
0.0
 10
159.069467
 20
54.202439
 30
0.0
 10
159.431620
 20
54.215082
 30
0.0
 10
159.418977
 20
54.577235
 30
0.0
 10
143.846412
 20
54.033430
 30
0.0
  0
LWPOLYLINE
  5
120
100
AcDbEntity
  8
0
 62
1
100
AcDbPolyline
 90
2
 70
0
 10
161.229737
 20
54.640473
 30
0.0
 10
160.143280
 20
54.602531
 30
0.0
  0
SPLINE
  5
121
100
AcDbEntity
  8
0
 62
5
100
AcDbSpline
 70
0
 71
3
 72
10
 73
6
 74
4
 40
0.000000
 40
0.000000
 40
0.000000
 40
0.000000
 40
1.119446
 40
2.061995
 40
2.472606
 40
2.472606
 40
2.472606
 40
2.472606
 10
185.374830
 20
65.219852
 30
0.0
 10
185.574552
 20
64.899822
 30
0.0
 10
185.942435
 20
64.310334
 30
0.0
 10
186.062571
 20
63.476878
 30
0.0
 10
186.066645
 20
63.026526
 30
0.0
 10
186.067881
 20
62.889868
 30
0.0
 11
185.374830
 21
65.219852
 31
0.0
 11
185.895096
 21
64.228650
 31
0.0
 11
186.058494
 21
63.300372
 31
0.0
 11
186.067881
 21
62.889868
 31
0.0
  0
SPLINE
  5
122
100
AcDbEntity
  8
0
 62
5
100
AcDbSpline
 70
0
 71
3
 72
10
 73
6
 74
4
 40
0.000000
 40
0.000000
 40
0.000000
 40
0.000000
 40
0.180064
 40
0.695691
 40
1.557377
 40
1.557377
 40
1.557377
 40
1.557377
 10
164.749528
 20
63.100084
 30
0.0
 10
164.808847
 20
63.109732
 30
0.0
 10
165.038032
 20
63.147008
 30
0.0
 10
165.519468
 20
63.366375
 30
0.0
 10
165.873005
 20
63.661071
 30
0.0
 10
166.094187
 20
63.845441
 30
0.0
 11
164.749528
 21
63.100084
 31
0.0
 11
164.926540
 21
63.133096
 31
0.0
 11
165.402366
 21
63.331743
 31
0.0
 11
166.094187
 21
63.845441
 31
0.0
  0
SPLINE
  5
123
100
AcDbEntity
  8
0
 62
5
100
AcDbSpline
 70
0
 71
3
 72
10
 73
6
 74
4
 40
0.000000
 40
0.000000
 40
0.000000
 40
0.000000
 40
1.678583
 40
3.460390
 40
5.104327
 40
5.104327
 40
5.104327
 40
5.104327
 10
166.094187
 20
63.845441
 30
0.0
 10
166.416706
 20
64.302790
 30
0.0
 10
167.081578
 20
65.245612
 30
0.0
 10
167.980035
 20
66.691420
 30
0.0
 10
168.558412
 20
67.675975
 30
0.0
 10
168.835962
 20
68.148441
 30
0.0
 11
166.094187
 21
63.845441
 31
0.0
 11
167.048620
 21
65.226274
 31
0.0
 11
167.997643
 21
66.734316
 31
0.0
 11
168.835962
 21
68.148441
 31
0.0
  0
LWPOLYLINE
  5
124
100
AcDbEntity
  8
0
 62
5
100
AcDbPolyline
 90
4
 70
0
 10
161.954041
 20
54.665735
 30
0.0
 10
164.700845
 20
64.244975
 30
0.0
 10
165.049180
 20
64.145091
 30
0.0
 10
164.749528
 20
63.100084
 30
0.0
  0
LWPOLYLINE
  5
125
100
AcDbEntity
  8
0
 62
5
100
AcDbPolyline
 90
4
 70
0
 10
166.847088
 20
70.415140
 30
0.0
 10
166.547436
 20
69.370133
 30
0.0
 10
166.199100
 20
69.470017
 30
0.0
 10
166.948228
 20
72.082537
 30
0.0
  0
LWPOLYLINE
  5
126
100
AcDbEntity
  8
0
 62
1
100
AcDbPolyline
 90
2
 70
0
 10
165.050436
 20
65.464152
 30
0.0
 10
165.849506
 20
68.250840
 30
0.0
  0
LWPOLYLINE
  5
127
100
AcDbEntity
  8
0
 62
5
100
AcDbPolyline
 90
5
 70
0
 10
166.948265
 20
72.082523
 30
0.0
 10
167.269888
 20
75.799500
 30
0.0
 10
157.548016
 20
80.827131
 30
0.0
 10
154.931406
 20
80.187996
 30
0.0
 10
151.927190
 20
82.214366
 30
0.0
  0
LWPOLYLINE
  5
128
100
AcDbEntity
  8
0
 62
5
100
AcDbPolyline
 90
4
 70
0
 10
165.442623
 20
72.442438
 30
0.0
 10
165.348372
 20
73.598765
 30
0.0
 10
159.940786
 20
77.246230
 30
0.0
 10
158.833352
 20
76.900449
 30
0.0
  0
LWPOLYLINE
  5
129
100
AcDbEntity
  8
0
 62
1
100
AcDbPolyline
 90
2
 70
0
 10
166.948265
 20
72.082523
 30
0.0
 10
165.746580
 20
72.893071
 30
0.0
  0
LWPOLYLINE
  5
12a
100
AcDbEntity
  8
0
 62
1
100
AcDbPolyline
 90
2
 70
0
 10
154.931406
 20
80.187996
 30
0.0
 10
159.137305
 20
77.351081
 30
0.0
  0
LWPOLYLINE
  5
12b
100
AcDbEntity
  8
0
 62
5
100
AcDbPolyline
 90
8
 70
0
 10
137.649461
 20
71.059369
 30
0.0
 10
147.643856
 20
78.867845
 30
0.0
 10
147.148561
 20
80.090387
 30
0.0
 10
148.464784
 20
81.348660
 30
0.0
 10
149.847966
 20
81.049745
 30
0.0
 10
149.562414
 20
80.826645
 30
0.0
 10
149.785513
 20
80.541093
 30
0.0
 10
151.927168
 20
82.214338
 30
0.0
  0
LWPOLYLINE
  5
12c
100
AcDbEntity
  8
0
 62
1
100
AcDbPolyline
 90
2
 70
0
 10
148.214963
 20
79.314044
 30
0.0
 10
149.214405
 20
80.094894
 30
0.0
  0
LWPOLYLINE
  5
12d
100
AcDbEntity
  8
0
 62
5
100
AcDbPolyline
 90
7
 70
0
 10
149.295937
 20
84.939043
 30
0.0
 10
150.450979
 20
83.496806
 30
0.0
 10
149.147536
 20
82.225299
 30
0.0
 10
147.710099
 20
82.485364
 30
0.0
 10
147.943028
 20
82.762958
 30
0.0
 10
147.665434
 20
82.995887
 30
0.0
 10
137.649483
 20
71.059340
 30
0.0
  0
LWPOLYLINE
  5
12e
100
AcDbEntity
  8
0
 62
1
100
AcDbPolyline
 90
2
 70
0
 10
148.830081
 20
84.383856
 30
0.0
 10
148.131293
 20
83.551075
 30
0.0
  0
SPLINE
  5
12f
100
AcDbEntity
  8
0
 62
5
100
AcDbSpline
 70
0
 71
3
 72
10
 73
6
 74
4
 40
0.000000
 40
0.000000
 40
0.000000
 40
0.000000
 40
1.281097
 40
2.491486
 40
3.035212
 40
3.035212
 40
3.035212
 40
3.035212
 10
168.835962
 20
68.148441
 30
0.0
 10
168.613688
 20
68.515362
 30
0.0
 10
168.181408
 20
69.228952
 30
0.0
 10
167.436103
 20
69.926529
 30
0.0
 10
166.986464
 20
70.299523
 30
0.0
 10
166.847088
 20
70.415140
 30
0.0
 11
168.835962
 21
68.148441
 31
0.0
 11
168.121679
 21
69.211931
 31
0.0
 11
167.263397
 21
70.065391
 31
0.0
 11
166.847088
 21
70.415140
 31
0.0
  0
SPLINE
  5
130
100
AcDbEntity
  8
0
 62
5
100
AcDbSpline
 70
0
 71
3
 72
10
 73
6
 74
4
 40
0.000000
 40
0.000000
 40
0.000000
 40
0.000000
 40
0.180063
 40
0.695685
 40
1.557358
 40
1.557358
 40
1.557358
 40
1.557358
 10
157.976237
 20
83.040492
 30
0.0
 10
157.992034
 20
82.982507
 30
0.0
 10
158.053066
 20
82.758477
 30
0.0
 10
158.321553
 20
82.302616
 30
0.0
 10
158.651582
 20
81.981821
 30
0.0
 10
158.858057
 20
81.781124
 30
0.0
 11
157.976237
 21
83.040492
 31
0.0
 11
158.027574
 21
82.867903
 31
0.0
 11
158.274871
 21
82.415453
 31
0.0
 11
158.858057
 21
81.781124
 31
0.0
  0
SPLINE
  5
131
100
AcDbEntity
  8
0
 62
5
100
AcDbSpline
 70
0
 71
3
 72
10
 73
6
 74
4
 40
0.000000
 40
0.000000
 40
0.000000
 40
0.000000
 40
1.678567
 40
3.460356
 40
5.104277
 40
5.104277
 40
5.104277
 40
5.104277
 10
158.858057
 20
81.781124
 30
0.0
 10
159.346608
 20
81.508180
 30
0.0
 10
160.353754
 20
80.945507
 30
0.0
 10
161.885542
 20
80.203108
 30
0.0
 10
162.925150
 20
79.730819
 30
0.0
 10
163.424035
 20
79.504177
 30
0.0
 11
158.858057
 21
81.781124
 31
0.0
 11
160.331077
 21
80.976263
 31
0.0
 11
161.930042
 21
80.190081
 31
0.0
 11
163.424035
 21
79.504177
 31
0.0
  0
LWPOLYLINE
  5
132
100
AcDbEntity
  8
0
 62
5
100
AcDbPolyline
 90
4
 70
0
 10
149.295970
 20
84.939018
 30
0.0
 10
159.109757
 20
83.208584
 30
0.0
 10
159.046833
 20
82.851717
 30
0.0
 10
157.976237
 20
83.040492
 30
0.0
  0
LWPOLYLINE
  5
133
100
AcDbEntity
  8
0
 62
5
100
AcDbPolyline
 90
4
 70
0
 10
165.470403
 20
81.719069
 30
0.0
 10
164.399807
 20
81.907844
 30
0.0
 10
164.462731
 20
82.264709
 30
0.0
 10
167.139219
 20
81.792771
 30
0.0
  0
LWPOLYLINE
  5
134
100
AcDbEntity
  8
0
 62
1
100
AcDbPolyline
 90
2
 70
0
 10
160.358785
 20
82.988346
 30
0.0
 10
163.213706
 20
82.484946
 30
0.0
  0
LWPOLYLINE
  5
135
100
AcDbEntity
  8
0
 62
5
100
AcDbPolyline
 90
4
 70
0
 10
178.785664
 20
95.672429
 30
0.0
 10
179.093518
 20
90.683663
 30
0.0
 10
172.105645
 20
82.355838
 30
0.0
 10
167.139211
 20
81.792726
 30
0.0
  0
LWPOLYLINE
  5
136
100
AcDbEntity
  8
0
 62
5
100
AcDbPolyline
 90
4
 70
0
 10
175.108266
 20
92.135504
 30
0.0
 10
175.336392
 20
90.997993
 30
0.0
 10
171.143670
 20
86.001300
 30
0.0
 10
169.983825
 20
86.028421
 30
0.0
  0
LWPOLYLINE
  5
137
100
AcDbEntity
  8
0
 62
1
100
AcDbPolyline
 90
2
 70
0
 10
178.785664
 20
95.672429
 30
0.0
 10
175.524657
 20
91.786113
 30
0.0
  0
LWPOLYLINE
  5
138
100
AcDbEntity
  8
0
 62
1
100
AcDbPolyline
 90
2
 70
0
 10
167.139211
 20
81.792726
 30
0.0
 10
170.400218
 20
85.679041
 30
0.0
  0
SPLINE
  5
139
100
AcDbEntity
  8
0
 62
5
100
AcDbSpline
 70
0
 71
3
 72
10
 73
6
 74
4
 40
0.000000
 40
0.000000
 40
0.000000
 40
0.000000
 40
1.281084
 40
2.491461
 40
3.035182
 40
3.035182
 40
3.035182
 40
3.035182
 10
163.424035
 20
79.504177
 30
0.0
 10
163.765707
 20
79.763585
 30
0.0
 10
164.430195
 20
80.268083
 30
0.0
 10
165.046040
 20
81.082214
 30
0.0
 10
165.369988
 20
81.568373
 30
0.0
 10
165.470403
 20
81.719069
 30
0.0
 11
163.424035
 21
79.504177
 31
0.0
 11
164.407024
 21
80.325705
 31
0.0
 11
165.166088
 21
81.268486
 31
0.0
 11
165.470403
 21
81.719069
 31
0.0
  0
SPLINE
  5
13a
100
AcDbEntity
  8
0
 62
5
100
AcDbSpline
 70
0
 71
3
 72
10
 73
6
 74
4
 40
0.000000
 40
0.000000
 40
0.000000
 40
0.000000
 40
0.410611
 40
1.353161
 40
2.472608
 40
2.472608
 40
2.472608
 40
2.472608
 10
184.049551
 20
95.493624
 30
0.0
 10
184.079173
 20
95.360210
 30
0.0
 10
184.176792
 20
94.920545
 30
0.0
 10
184.467589
 20
94.130280
 30
0.0
 10
184.949994
 20
93.630159
 30
0.0
 10
185.211889
 20
93.358647
 30
0.0
 11
184.049551
 21
95.493624
 31
0.0
 11
184.144082
 21
95.094042
 31
0.0
 11
184.496910
 21
94.220021
 31
0.0
 11
185.211889
 21
93.358647
 31
0.0
  0
SPLINE
  5
13b
100
AcDbEntity
  8
0
 62
5
100
AcDbSpline
 70
0
 71
3
 72
10
 73
6
 74
4
 40
0.000000
 40
0.000000
 40
0.000000
 40
0.000000
 40
1.876912
 40
3.849835
 40
5.726746
 40
5.726746
 40
5.726746
 40
5.726746
 10
185.211889
 20
93.358647
 30
0.0
 10
185.782825
 20
93.089949
 30
0.0
 10
186.953901
 20
92.538807
 30
0.0
 10
188.963603
 20
92.608988
 30
0.0
 10
190.093381
 20
93.240478
 30
0.0
 10
190.644182
 20
93.548348
 30
0.0
 11
185.211889
 21
93.358647
 31
0.0
 11
186.967469
 21
92.694765
 31
0.0
 11
188.939190
 21
92.763619
 31
0.0
 11
190.644182
 21
93.548348
 31
0.0
  0
LWPOLYLINE
  5
13c
100
AcDbEntity
  8
0
 62
5
100
AcDbPolyline
 90
4
 70
0
 10
178.785695
 20
95.672401
 30
0.0
 10
185.123368
 20
95.893716
 30
0.0
 10
185.136011
 20
95.531563
 30
0.0
 10
184.049551
 20
95.493624
 30
0.0
  0
LWPOLYLINE
  5
13d
100
AcDbEntity
  8
0
 62
5
100
AcDbPolyline
 90
4
 70
0
 10
191.654760
 20
95.759204
 30
0.0
 10
190.568301
 20
95.721264
 30
0.0
 10
190.555657
 20
96.083418
 30
0.0
 10
196.893330
 20
96.304734
 30
0.0
  0
LWPOLYLINE
  5
13e
100
AcDbEntity
  8
0
 62
1
100
AcDbPolyline
 90
2
 70
0
 10
186.390901
 20
95.937980
 30
0.0
 10
189.288124
 20
96.039154
 30
0.0
  0
LWPOLYLINE
  5
13f
100
AcDbEntity
  8
0
 62
5
100
AcDbPolyline
 90
4
 70
0
 10
201.887489
 20
113.721401
 30
0.0
 10
204.197831
 20
109.289171
 30
0.0
 10
201.201336
 20
98.839151
 30
0.0
 10
196.893330
 20
96.304700
 30
0.0
  0
LWPOLYLINE
  5
140
100
AcDbEntity
  8
0
 62
5
100
AcDbPolyline
 90
4
 70
0
 10
199.966622
 20
108.994548
 30
0.0
 10
200.637693
 20
108.048172
 30
0.0
 10
198.839796
 20
101.778163
 30
0.0
 10
197.769195
 20
101.331202
 30
0.0
  0
LWPOLYLINE
  5
141
100
AcDbEntity
  8
0
 62
1
100
AcDbPolyline
 90
2
 70
0
 10
201.887489
 20
113.721401
 30
0.0
 10
200.489126
 20
108.844725
 30
0.0
  0
LWPOLYLINE
  5
142
100
AcDbEntity
  8
0
 62
1
100
AcDbPolyline
 90
2
 70
0
 10
196.893330
 20
96.304700
 30
0.0
 10
198.291696
 20
101.181378
 30
0.0
  0
SPLINE
  5
143
100
AcDbEntity
  8
0
 62
5
100
AcDbSpline
 70
0
 71
3
 72
10
 73
6
 74
4
 40
0.000000
 40
0.000000
 40
0.000000
 40
0.000000
 40
1.119446
 40
2.061996
 40
2.472607
 40
2.472607
 40
2.472607
 40
2.472607
 10
190.644182
 20
93.548348
 30
0.0
 10
190.886500
 20
93.837468
 30
0.0
 10
191.332844
 20
94.370020
 30
0.0
 10
191.567806
 20
95.178645
 30
0.0
 10
191.634517
 20
95.624048
 30
0.0
 10
191.654760
 20
95.759204
 30
0.0
 11
190.644182
 21
93.548348
 31
0.0
 11
191.297333
 21
94.457498
 31
0.0
 11
191.588333
 21
95.354001
 31
0.0
 11
191.654760
 21
95.759204
 31
0.0
  0
SPLINE
  5
144
100
AcDbEntity
  8
0
 62
5
100
AcDbSpline
 70
0
 71
3
 72
10
 73
6
 74
4
 40
0.000000
 40
0.000000
 40
0.000000
 40
0.000000
 40
0.410609
 40
1.353154
 40
2.472596
 40
2.472596
 40
2.472596
 40
2.472596
 10
191.425119
 20
121.215417
 30
0.0
 10
191.520938
 20
121.312861
 30
0.0
 10
191.836707
 20
121.633986
 30
0.0
 10
192.502090
 20
122.150068
 30
0.0
 10
193.176214
 20
122.318558
 30
0.0
 10
193.542192
 20
122.410029
 30
0.0
 11
191.425119
 21
121.215417
 31
0.0
 11
191.717029
 21
121.504186
 31
0.0
 11
192.479401
 21
122.058426
 31
0.0
 11
193.542192
 21
122.410029
 31
0.0
  0
SPLINE
  5
145
100
AcDbEntity
  8
0
 62
5
100
AcDbSpline
 70
0
 71
3
 72
10
 73
6
 74
4
 40
0.000000
 40
0.000000
 40
0.000000
 40
0.000000
 40
1.876902
 40
3.849814
 40
5.726717
 40
5.726717
 40
5.726717
 40
5.726717
 10
193.542192
 20
122.410029
 30
0.0
 10
194.168758
 20
122.335350
 30
0.0
 10
195.453940
 20
122.182170
 30
0.0
 10
197.121065
 20
121.057678
 30
0.0
 10
197.744530
 20
119.923459
 30
0.0
 10
198.048488
 20
119.370493
 30
0.0
 11
193.542192
 21
122.410029
 31
0.0
 11
195.382802
 21
122.042721
 31
0.0
 11
197.018420
 21
120.939481
 31
0.0
 11
198.048488
 21
119.370493
 31
0.0
  0
LWPOLYLINE
  5
146
100
AcDbEntity
  8
0
 62
5
100
AcDbPolyline
 90
4
 70
0
 10
186.866397
 20
123.853215
 30
0.0
 10
192.123743
 20
120.307090
 30
0.0
 10
192.326379
 20
120.607510
 30
0.0
 10
191.425119
 20
121.215417
 30
0.0
  0
LWPOLYLINE
  5
147
100
AcDbEntity
  8
0
 62
5
100
AcDbPolyline
 90
4
 70
0
 10
197.733934
 20
116.960070
 30
0.0
 10
196.832674
 20
117.567977
 30
0.0
 10
196.630039
 20
117.267557
 30
0.0
 10
201.887384
 20
113.721432
 30
0.0
  0
LWPOLYLINE
  5
148
100
AcDbEntity
  8
0
 62
1
100
AcDbPolyline
 90
2
 70
0
 10
193.175213
 20
119.597866
 30
0.0
 10
195.578569
 20
117.976781
 30
0.0
  0
LWPOLYLINE
  5
149
100
AcDbEntity
  8
0
 62
5
100
AcDbPolyline
 90
4
 70
0
 10
172.588750
 20
112.698337
 30
0.0
 10
173.324847
 20
117.642094
 30
0.0
 10
181.891472
 20
124.335076
 30
0.0
 10
186.866457
 20
123.853305
 30
0.0
  0
LWPOLYLINE
  5
14a
100
AcDbEntity
  8
0
 62
5
100
AcDbPolyline
 90
4
 70
0
 10
176.921157
 20
115.393395
 30
0.0
 10
176.934506
 20
116.553481
 30
0.0
 10
182.074481
 20
120.569269
 30
0.0
 10
183.203336
 20
120.301584
 30
0.0
  0
LWPOLYLINE
  5
14b
100
AcDbEntity
  8
0
 62
1
100
AcDbPolyline
 90
2
 70
0
 10
172.588750
 20
112.698337
 30
0.0
 10
176.586507
 20
115.821727
 30
0.0
  0
LWPOLYLINE
  5
14c
100
AcDbEntity
  8
0
 62
1
100
AcDbPolyline
 90
2
 70
0
 10
186.866457
 20
123.853305
 30
0.0
 10
182.868700
 20
120.729913
 30
0.0
  0
SPLINE
  5
14d
100
AcDbEntity
  8
0
 62
5
100
AcDbSpline
 70
0
 71
3
 72
10
 73
6
 74
4
 40
0.000000
 40
0.000000
 40
0.000000
 40
0.000000
 40
1.119441
 40
2.061985
 40
2.472593
 40
2.472593
 40
2.472593
 40
2.472593
 10
198.048488
 20
119.370493
 30
0.0
 10
198.100775
 20
118.996899
 30
0.0
 10
198.197086
 20
118.308746
 30
0.0
 10
197.967841
 20
117.498486
 30
0.0
 10
197.788388
 20
117.085415
 30
0.0
 10
197.733934
 20
116.960070
 30
0.0
 11
198.048488
 21
119.370493
 31
0.0
 11
198.120616
 21
118.253378
 31
0.0
 11
197.892325
 21
117.338899
 31
0.0
 11
197.733934
 21
116.960070
 31
0.0
  0
SPLINE
  5
14e
100
AcDbEntity
  8
0
 62
5
100
AcDbSpline
 70
0
 71
3
 72
10
 73
6
 74
4
 40
0.000000
 40
0.000000
 40
0.000000
 40
0.000000
 40
0.410611
 40
1.353161
 40
2.472609
 40
2.472609
 40
2.472609
 40
2.472609
 10
167.477107
 20
113.967597
 30
0.0
 10
167.475871
 20
114.104255
 30
0.0
 10
167.471798
 20
114.554608
 30
0.0
 10
167.351661
 20
115.388064
 30
0.0
 10
166.983778
 20
115.977554
 30
0.0
 10
166.784057
 20
116.297584
 30
0.0
 11
167.477107
 21
113.967597
 31
0.0
 11
167.467720
 21
114.378101
 31
0.0
 11
167.304322
 21
115.306380
 31
0.0
 11
166.784057
 21
116.297584
 31
0.0
  0
SPLINE
  5
14f
100
AcDbEntity
  8
0
 62
5
100
AcDbSpline
 70
0
 71
3
 72
10
 73
6
 74
4
 40
0.000000
 40
0.000000
 40
0.000000
 40
0.000000
 40
1.876910
 40
3.849831
 40
5.726743
 40
5.726743
 40
5.726743
 40
5.726743
 10
166.784057
 20
116.297584
 30
0.0
 10
166.281464
 20
116.679114
 30
0.0
 10
165.250568
 20
117.461691
 30
0.0
 10
163.270192
 20
117.810885
 30
0.0
 10
162.033809
 20
117.428090
 30
0.0
 10
161.431035
 20
117.241465
 30
0.0
 11
166.784057
 21
116.297584
 31
0.0
 11
165.204871
 21
117.311963
 31
0.0
 11
163.261923
 21
117.654557
 31
0.0
 11
161.431035
 21
117.241465
 31
0.0
  0
LWPOLYLINE
  5
150
100
AcDbEntity
  8
0
 62
5
100
AcDbPolyline
 90
4
 70
0
 10
172.588769
 20
112.698311
 30
0.0
 10
166.343578
 20
113.799506
 30
0.0
 10
166.406503
 20
114.156376
 30
0.0
 10
167.477107
 20
113.967597
 30
0.0
  0
LWPOLYLINE
  5
151
100
AcDbEntity
  8
0
 62
5
100
AcDbPolyline
 90
4
 70
0
 10
159.982879
 20
115.289032
 30
0.0
 10
161.053484
 20
115.100257
 30
0.0
 10
160.990557
 20
114.743389
 30
0.0
 10
154.745365
 20
115.844584
 30
0.0
  0
LWPOLYLINE
  5
152
100
AcDbEntity
  8
0
 62
1
100
AcDbPolyline
 90
2
 70
0
 10
165.094539
 20
114.019746
 30
0.0
 10
162.239596
 20
114.523149
 30
0.0
  0
LWPOLYLINE
  5
153
100
AcDbEntity
  8
0
 62
5
100
AcDbPolyline
 90
5
 70
0
 10
154.745360
 20
115.844547
 30
0.0
 10
151.082398
 20
116.552931
 30
0.0
 10
145.066156
 20
107.409935
 30
0.0
 10
145.428276
 20
104.740881
 30
0.0
 10
143.099005
 20
101.964963
 30
0.0
  0
LWPOLYLINE
  5
154
100
AcDbEntity
  8
0
 62
5
100
AcDbPolyline
 90
4
 70
0
 10
154.230039
 20
114.384789
 30
0.0
 10
153.070204
 20
114.411911
 30
0.0
 10
148.877517
 20
109.415262
 30
0.0
 10
149.105643
 20
108.277760
 30
0.0
  0
LWPOLYLINE
  5
155
100
AcDbEntity
  8
0
 62
1
100
AcDbPolyline
 90
2
 70
0
 10
154.745360
 20
115.844547
 30
0.0
 10
153.813651
 20
114.734180
 30
0.0
  0
LWPOLYLINE
  5
156
100
AcDbEntity
  8
0
 62
1
100
AcDbPolyline
 90
2
 70
0
 10
145.428276
 20
104.740881
 30
0.0
 10
148.689255
 20
108.627163
 30
0.0
  0
LWPOLYLINE
  5
157
100
AcDbEntity
  8
0
 62
5
100
AcDbPolyline
 90
8
 70
0
 10
125.255638
 20
105.111201
 30
0.0
 10
137.746020
 20
102.908810
 30
0.0
 10
138.323128
 20
104.094922
 30
0.0
 10
140.138932
 20
103.958730
 30
0.0
 10
140.842325
 20
102.730812
 30
0.0
 10
140.485455
 20
102.793736
 30
0.0
 10
140.422531
 20
102.436869
 30
0.0
 10
143.099042
 20
101.964929
 30
0.0
  0
LWPOLYLINE
  5
158
100
AcDbEntity
  8
0
 62
1
100
AcDbPolyline
 90
2
 70
0
 10
138.459758
 20
102.782958
 30
0.0
 10
139.708794
 20
102.562721
 30
0.0
  0
LWPOLYLINE
  5
159
100
AcDbEntity
  8
0
 62
5
100
AcDbPolyline
 90
7
 70
0
 10
143.363270
 20
105.743495
 30
0.0
 10
143.064349
 20
103.920085
 30
0.0
 10
141.247264
 20
104.037927
 30
0.0
 10
140.478693
 20
105.280168
 30
0.0
 10
140.840847
 20
105.292811
 30
0.0
 10
140.828203
 20
105.654965
 30
0.0
 10
125.255638
 20
105.111159
 30
0.0
  0
LWPOLYLINE
  5
15a
100
AcDbEntity
  8
0
 62
1
100
AcDbPolyline
 90
2
 70
0
 10
142.638963
 20
105.718202
 30
0.0
 10
141.552507
 20
105.680260
 30
0.0
  0
SPLINE
  5
15b
100
AcDbEntity
  8
0
 62
5
100
AcDbSpline
 70
0
 71
3
 72
10
 73
6
 74
4
 40
0.000000
 40
0.000000
 40
0.000000
 40
0.000000
 40
1.119447
 40
2.061996
 40
2.472607
 40
2.472607
 40
2.472607
 40
2.472607
 10
161.431035
 20
117.241465
 30
0.0
 10
161.133901
 20
117.009044
 30
0.0
 10
160.586587
 20
116.580928
 30
0.0
 10
160.188637
 20
115.838825
 30
0.0
 10
160.030780
 20
115.417026
 30
0.0
 10
159.982879
 20
115.289032
 30
0.0
 11
161.431035
 21
117.241465
 31
0.0
 11
160.603134
 21
116.487979
 31
0.0
 11
160.132100
 21
115.671569
 31
0.0
 11
159.982879
 21
115.289032
 31
0.0
  0
SPLINE
  5
15c
100
AcDbEntity
  8
0
 62
5
100
AcDbSpline
 70
0
 71
3
 72
10
 73
6
 74
4
 40
0.000000
 40
0.000000
 40
0.000000
 40
0.000000
 40
0.180065
 40
0.695694
 40
1.557373
 40
1.557373
 40
1.557373
 40
1.557373
 10
146.158757
 20
114.177810
 30
0.0
 10
146.218077
 20
114.187461
 30
0.0
 10
146.447261
 20
114.224746
 30
0.0
 10
146.928693
 20
114.444114
 30
0.0
 10
147.282233
 20
114.738803
 30
0.0
 10
147.503416
 20
114.923168
 30
0.0
 11
146.158757
 21
114.177810
 31
0.0
 11
146.335769
 21
114.210829
 31
0.0
 11
146.811595
 21
114.409482
 31
0.0
 11
147.503416
 21
114.923168
 31
0.0
  0
SPLINE
  5
15d
100
AcDbEntity
  8
0
 62
5
100
AcDbSpline
 70
0
 71
3
 72
10
 73
6
 74
4
 40
0.000000
 40
0.000000
 40
0.000000
 40
0.000000
 40
1.678583
 40
3.460390
 40
5.104327
 40
5.104327
 40
5.104327
 40
5.104327
 10
147.503416
 20
114.923168
 30
0.0
 10
147.825936
 20
115.380517
 30
0.0
 10
148.490807
 20
116.323339
 30
0.0
 10
149.389264
 20
117.769147
 30
0.0
 10
149.967641
 20
118.753702
 30
0.0
 10
150.245191
 20
119.226168
 30
0.0
 11
147.503416
 21
114.923168
 31
0.0
 11
148.457849
 21
116.304000
 31
0.0
 11
149.406872
 21
117.812042
 31
0.0
 11
150.245191
 21
119.226168
 31
0.0
  0
LWPOLYLINE
  5
15e
100
AcDbEntity
  8
0
 62
5
100
AcDbPolyline
 90
4
 70
0
 10
143.363270
 20
105.743461
 30
0.0
 10
146.110074
 20
115.322701
 30
0.0
 10
146.458409
 20
115.222817
 30
0.0
 10
146.158757
 20
114.177810
 30
0.0
  0
LWPOLYLINE
  5
15f
100
AcDbEntity
  8
0
 62
5
100
AcDbPolyline
 90
4
 70
0
 10
148.256317
 20
121.492866
 30
0.0
 10
147.956665
 20
120.447860
 30
0.0
 10
147.608330
 20
120.547744
 30
0.0
 10
148.357457
 20
123.160264
 30
0.0
  0
LWPOLYLINE
  5
160
100
AcDbEntity
  8
0
 62
1
100
AcDbPolyline
 90
2
 70
0
 10
146.459665
 20
116.541879
 30
0.0
 10
147.258735
 20
119.328566
 30
0.0
  0
LWPOLYLINE
  5
161
100
AcDbEntity
  8
0
 62
5
100
AcDbPolyline
 90
5
 70
0
 10
148.357491
 20
123.160252
 30
0.0
 10
148.679114
 20
126.877229
 30
0.0
 10
138.957242
 20
131.904860
 30
0.0
 10
136.340633
 20
131.265725
 30
0.0
 10
133.336417
 20
133.292095
 30
0.0
  0
LWPOLYLINE
  5
162
100
AcDbEntity
  8
0
 62
5
100
AcDbPolyline
 90
4
 70
0
 10
146.851850
 20
123.520167
 30
0.0
 10
146.757599
 20
124.676494
 30
0.0
 10
141.350012
 20
128.323959
 30
0.0
 10
140.242578
 20
127.978178
 30
0.0
  0
LWPOLYLINE
  5
163
100
AcDbEntity
  8
0
 62
1
100
AcDbPolyline
 90
2
 70
0
 10
148.357491
 20
123.160252
 30
0.0
 10
147.155806
 20
123.970800
 30
0.0
  0
LWPOLYLINE
  5
164
100
AcDbEntity
  8
0
 62
1
100
AcDbPolyline
 90
2
 70
0
 10
136.340633
 20
131.265725
 30
0.0
 10
140.546531
 20
128.428811
 30
0.0
  0
LWPOLYLINE
  5
165
100
AcDbEntity
  8
0
 62
5
100
AcDbPolyline
 90
8
 70
0
 10
119.058687
 20
122.137095
 30
0.0
 10
129.053082
 20
129.945572
 30
0.0
 10
128.557788
 20
131.168113
 30
0.0
 10
129.874010
 20
132.426387
 30
0.0
 10
131.257192
 20
132.127471
 30
0.0
 10
130.971640
 20
131.904372
 30
0.0
 10
131.194739
 20
131.618819
 30
0.0
 10
133.336394
 20
133.292064
 30
0.0
  0
LWPOLYLINE
  5
166
100
AcDbEntity
  8
0
 62
1
100
AcDbPolyline
 90
2
 70
0
 10
129.624190
 20
130.391771
 30
0.0
 10
130.623632
 20
131.172620
 30
0.0
  0
LWPOLYLINE
  5
167
100
AcDbEntity
  8
0
 62
5
100
AcDbPolyline
 90
7
 70
0
 10
130.705163
 20
136.016776
 30
0.0
 10
131.860205
 20
134.574538
 30
0.0
 10
130.556762
 20
133.303031
 30
0.0
 10
129.119325
 20
133.563096
 30
0.0
 10
129.352254
 20
133.840690
 30
0.0
 10
129.074661
 20
134.073619
 30
0.0
 10
119.058710
 20
122.137073
 30
0.0
  0
LWPOLYLINE
  5
168
100
AcDbEntity
  8
0
 62
1
100
AcDbPolyline
 90
2
 70
0
 10
130.239307
 20
135.461588
 30
0.0
 10
129.540519
 20
134.628807
 30
0.0
  0
SPLINE
  5
169
100
AcDbEntity
  8
0
 62
5
100
AcDbSpline
 70
0
 71
3
 72
10
 73
6
 74
4
 40
0.000000
 40
0.000000
 40
0.000000
 40
0.000000
 40
1.281097
 40
2.491486
 40
3.035212
 40
3.035212
 40
3.035212
 40
3.035212
 10
150.245191
 20
119.226168
 30
0.0
 10
150.022917
 20
119.593088
 30
0.0
 10
149.590637
 20
120.306678
 30
0.0
 10
148.845332
 20
121.004256
 30
0.0
 10
148.395693
 20
121.377249
 30
0.0
 10
148.256317
 20
121.492866
 30
0.0
 11
150.245191
 21
119.226168
 31
0.0
 11
149.530908
 21
120.289657
 31
0.0
 11
148.672627
 21
121.143117
 31
0.0
 11
148.256317
 21
121.492866
 31
0.0
  0
SPLINE
  5
16a
100
AcDbEntity
  8
0
 62
5
100
AcDbSpline
 70
0
 71
3
 72
10
 73
6
 74
4
 40
0.000000
 40
0.000000
 40
0.000000
 40
0.000000
 40
0.180063
 40
0.695685
 40
1.557358
 40
1.557358
 40
1.557358
 40
1.557358
 10
139.385461
 20
134.118222
 30
0.0
 10
139.401257
 20
134.060236
 30
0.0
 10
139.462290
 20
133.836206
 30
0.0
 10
139.730777
 20
133.380345
 30
0.0
 10
140.060806
 20
133.059551
 30
0.0
 10
140.267281
 20
132.858853
 30
0.0
 11
139.385461
 21
134.118222
 31
0.0
 11
139.436797
 21
133.945632
 31
0.0
 11
139.684094
 21
133.493182
 31
0.0
 11
140.267281
 21
132.858853
 31
0.0
  0
SPLINE
  5
16b
100
AcDbEntity
  8
0
 62
5
100
AcDbSpline
 70
0
 71
3
 72
10
 73
6
 74
4
 40
0.000000
 40
0.000000
 40
0.000000
 40
0.000000
 40
1.678567
 40
3.460356
 40
5.104277
 40
5.104277
 40
5.104277
 40
5.104277
 10
140.267281
 20
132.858853
 30
0.0
 10
140.755832
 20
132.585909
 30
0.0
 10
141.762978
 20
132.023236
 30
0.0
 10
143.294765
 20
131.280838
 30
0.0
 10
144.334374
 20
130.808548
 30
0.0
 10
144.833258
 20
130.581907
 30
0.0
 11
140.267281
 21
132.858853
 31
0.0
 11
141.740300
 21
132.053992
 31
0.0
 11
143.339266
 21
131.267810
 31
0.0
 11
144.833258
 21
130.581907
 31
0.0
  0
LWPOLYLINE
  5
16c
100
AcDbEntity
  8
0
 62
5
100
AcDbPolyline
 90
4
 70
0
 10
130.705194
 20
136.016747
 30
0.0
 10
140.518981
 20
134.286313
 30
0.0
 10
140.456056
 20
133.929446
 30
0.0
 10
139.385461
 20
134.118222
 30
0.0
  0
LWPOLYLINE
  5
16d
100
AcDbEntity
  8
0
 62
5
100
AcDbPolyline
 90
4
 70
0
 10
146.879626
 20
132.796798
 30
0.0
 10
145.809030
 20
132.985573
 30
0.0
 10
145.871954
 20
133.342438
 30
0.0
 10
148.548443
 20
132.870500
 30
0.0
  0
LWPOLYLINE
  5
16e
100
AcDbEntity
  8
0
 62
1
100
AcDbPolyline
 90
2
 70
0
 10
141.768009
 20
134.066075
 30
0.0
 10
144.622929
 20
133.562676
 30
0.0
  0
LWPOLYLINE
  5
16f
100
AcDbEntity
  8
0
 62
5
100
AcDbPolyline
 90
4
 70
0
 10
160.194890
 20
146.750158
 30
0.0
 10
160.502744
 20
141.761392
 30
0.0
 10
153.514871
 20
133.433567
 30
0.0
 10
148.548437
 20
132.870455
 30
0.0
  0
LWPOLYLINE
  5
170
100
AcDbEntity
  8
0
 62
5
100
AcDbPolyline
 90
4
 70
0
 10
156.517492
 20
143.213233
 30
0.0
 10
156.745618
 20
142.075723
 30
0.0
 10
152.552897
 20
137.079029
 30
0.0
 10
151.393051
 20
137.106151
 30
0.0
  0
LWPOLYLINE
  5
171
100
AcDbEntity
  8
0
 62
1
100
AcDbPolyline
 90
2
 70
0
 10
160.194890
 20
146.750158
 30
0.0
 10
156.933883
 20
142.863842
 30
0.0
  0
LWPOLYLINE
  5
172
100
AcDbEntity
  8
0
 62
1
100
AcDbPolyline
 90
2
 70
0
 10
148.548437
 20
132.870455
 30
0.0
 10
151.809444
 20
136.756771
 30
0.0
  0
SPLINE
  5
173
100
AcDbEntity
  8
0
 62
5
100
AcDbSpline
 70
0
 71
3
 72
10
 73
6
 74
4
 40
0.000000
 40
0.000000
 40
0.000000
 40
0.000000
 40
1.281084
 40
2.491461
 40
3.035182
 40
3.035182
 40
3.035182
 40
3.035182
 10
144.833258
 20
130.581907
 30
0.0
 10
145.174931
 20
130.841314
 30
0.0
 10
145.839419
 20
131.345812
 30
0.0
 10
146.455264
 20
132.159943
 30
0.0
 10
146.779211
 20
132.646102
 30
0.0
 10
146.879626
 20
132.796798
 30
0.0
 11
144.833258
 21
130.581907
 31
0.0
 11
145.816248
 21
131.403434
 31
0.0
 11
146.575311
 21
132.346215
 31
0.0
 11
146.879626
 21
132.796798
 31
0.0
  0
SPLINE
  5
174
100
AcDbEntity
  8
0
 62
5
100
AcDbSpline
 70
0
 71
3
 72
10
 73
6
 74
4
 40
0.000000
 40
0.000000
 40
0.000000
 40
0.000000
 40
0.410609
 40
1.353154
 40
2.472597
 40
2.472597
 40
2.472597
 40
2.472597
 10
156.135623
 20
158.962464
 30
0.0
 10
156.270419
 20
158.984977
 30
0.0
 10
156.714634
 20
159.059168
 30
0.0
 10
157.556286
 20
159.085585
 30
0.0
 10
158.200699
 20
158.825657
 30
0.0
 10
158.550548
 20
158.684543
 30
0.0
 11
156.135623
 21
158.962464
 31
0.0
 11
156.541518
 21
159.024503
 31
0.0
 11
157.484063
 21
159.024781
 31
0.0
 11
158.550548
 21
158.684543
 31
0.0
  0
SPLINE
  5
175
100
AcDbEntity
  8
0
 62
5
100
AcDbSpline
 70
0
 71
3
 72
10
 73
6
 74
4
 40
0.000000
 40
0.000000
 40
0.000000
 40
0.000000
 40
1.876903
 40
3.849817
 40
5.726720
 40
5.726720
 40
5.726720
 40
5.726720
 10
158.550548
 20
158.684543
 30
0.0
 10
159.013555
 20
158.255839
 30
0.0
 10
159.963252
 20
157.376501
 30
0.0
 10
160.651026
 20
155.486856
 30
0.0
 10
160.488743
 20
154.202790
 30
0.0
 10
160.409625
 20
153.576769
 30
0.0
 11
158.550548
 21
158.684543
 31
0.0
 11
159.823735
 21
157.305499
 31
0.0
 11
160.498510
 21
155.451567
 31
0.0
 11
160.409625
 21
153.576769
 31
0.0
  0
LWPOLYLINE
  5
176
100
AcDbEntity
  8
0
 62
5
100
AcDbPolyline
 90
4
 70
0
 10
153.997996
 20
163.776040
 30
0.0
 10
156.166919
 20
157.816972
 30
0.0
 10
156.507437
 20
157.940910
 30
0.0
 10
156.135623
 20
158.962464
 30
0.0
  0
LWPOLYLINE
  5
177
100
AcDbEntity
  8
0
 62
5
100
AcDbPolyline
 90
4
 70
0
 10
158.738330
 20
151.811582
 30
0.0
 10
158.366514
 20
152.833139
 30
0.0
 10
158.025996
 20
152.709198
 30
0.0
 10
160.194921
 20
146.750130
 30
0.0
  0
LWPOLYLINE
  5
178
100
AcDbEntity
  8
0
 62
1
100
AcDbPolyline
 90
2
 70
0
 10
156.600703
 20
156.625159
 30
0.0
 10
157.592212
 20
153.901012
 30
0.0
  0
LWPOLYLINE
  5
179
100
AcDbEntity
  8
0
 62
5
100
AcDbPolyline
 90
4
 70
0
 10
136.154595
 20
166.922313
 30
0.0
 10
140.321067
 20
169.683304
 30
0.0
 10
151.027110
 20
167.795540
 30
0.0
 10
153.997999
 20
163.776040
 30
0.0
  0
LWPOLYLINE
  5
17a
100
AcDbEntity
  8
0
 62
5
100
AcDbPolyline
 90
4
 70
0
 10
141.056360
 20
165.506054
 30
0.0
 10
141.927408
 20
166.272372
 30
0.0
 10
148.351034
 20
165.139716
 30
0.0
 10
148.907458
 20
164.121695
 30
0.0
  0
LWPOLYLINE
  5
17b
100
AcDbEntity
  8
0
 62
1
100
AcDbPolyline
 90
2
 70
0
 10
136.154595
 20
166.922313
 30
0.0
 10
141.150746
 20
166.041356
 30
0.0
  0
LWPOLYLINE
  5
17c
100
AcDbEntity
  8
0
 62
1
100
AcDbPolyline
 90
2
 70
0
 10
153.997999
 20
163.776040
 30
0.0
 10
149.001844
 20
164.656997
 30
0.0
  0
SPLINE
  5
17d
100
AcDbEntity
  8
0
 62
5
100
AcDbSpline
 70
0
 71
3
 72
10
 73
6
 74
4
 40
0.000000
 40
0.000000
 40
0.000000
 40
0.000000
 40
1.119443
 40
2.061989
 40
2.472599
 40
2.472599
 40
2.472599
 40
2.472599
 10
160.409625
 20
153.576769
 30
0.0
 10
160.232332
 20
153.243791
 30
0.0
 10
159.905763
 20
152.630452
 30
0.0
 10
159.244039
 20
152.109684
 30
0.0
 10
158.856061
 20
151.880981
 30
0.0
 10
158.738330
 20
151.811582
 30
0.0
 11
160.409625
 21
153.576769
 31
0.0
 11
159.811353
 21
152.630606
 31
0.0
 11
159.089142
 21
152.024962
 31
0.0
 11
158.738330
 21
151.811582
 31
0.0
  0
SPLINE
  5
17e
100
AcDbEntity
  8
0
 62
5
100
AcDbSpline
 70
0
 71
3
 72
10
 73
6
 74
4
 40
0.000000
 40
0.000000
 40
0.000000
 40
0.000000
 40
0.180063
 40
0.695685
 40
1.557358
 40
1.557358
 40
1.557358
 40
1.557358
 10
129.937355
 20
160.076612
 30
0.0
 10
129.912184
 20
160.131186
 30
0.0
 10
129.814933
 20
160.342033
 30
0.0
 10
129.727584
 20
160.863823
 30
0.0
 10
129.774198
 20
161.321704
 30
0.0
 10
129.803361
 20
161.608167
 30
0.0
 11
129.937355
 21
160.076612
 31
0.0
 11
129.865742
 21
160.241822
 31
0.0
 11
129.764354
 21
160.747378
 31
0.0
 11
129.803361
 21
161.608167
 31
0.0
  0
SPLINE
  5
17f
100
AcDbEntity
  8
0
 62
5
100
AcDbSpline
 70
0
 71
3
 72
10
 73
6
 74
4
 40
0.000000
 40
0.000000
 40
0.000000
 40
0.000000
 40
1.678566
 40
3.460356
 40
5.104279
 40
5.104279
 40
5.104279
 40
5.104279
 10
129.803361
 20
161.608167
 30
0.0
 10
130.002168
 20
162.131289
 30
0.0
 10
130.412008
 20
163.209702
 30
0.0
 10
131.108221
 20
164.763027
 30
0.0
 10
131.601026
 20
165.793069
 30
0.0
 10
131.837512
 20
166.287364
 30
0.0
 11
129.803361
 21
161.608167
 31
0.0
 11
130.414406
 21
163.171564
 31
0.0
 11
131.133936
 21
164.801610
 31
0.0
 11
131.837512
 21
166.287364
 31
0.0
  0
LWPOLYLINE
  5
180
100
AcDbEntity
  8
0
 62
5
100
AcDbPolyline
 90
4
 70
0
 10
124.508235
 20
153.042689
 30
0.0
 10
130.913728
 20
160.676459
 30
0.0
 10
130.636137
 20
160.909388
 30
0.0
 10
129.937355
 20
160.076612
 30
0.0
  0
LWPOLYLINE
  5
181
100
AcDbEntity
  8
0
 62
5
100
AcDbPolyline
 90
4
 70
0
 10
134.828825
 20
165.906036
 30
0.0
 10
134.130042
 20
165.073264
 30
0.0
 10
134.407636
 20
164.840334
 30
0.0
 10
136.154589
 20
166.922274
 30
0.0
  0
LWPOLYLINE
  5
182
100
AcDbEntity
  8
0
 62
1
100
AcDbPolyline
 90
2
 70
0
 10
131.728975
 20
161.648031
 30
0.0
 10
133.592389
 20
163.868765
 30
0.0
  0
LWPOLYLINE
  5
183
100
AcDbEntity
  8
0
 62
5
100
AcDbPolyline
 90
7
 70
0
 10
124.508271
 20
153.042658
 30
0.0
 10
124.466031
 20
154.889924
 30
0.0
 10
122.650227
 20
155.026116
 30
0.0
 10
121.716252
 20
153.902928
 30
0.0
 10
122.073120
 20
153.840004
 30
0.0
 10
122.010195
 20
153.483136
 30
0.0
 10
106.664867
 20
156.188931
 30
0.0
  0
LWPOLYLINE
  5
184
100
AcDbEntity
  8
0
 62
1
100
AcDbPolyline
 90
2
 70
0
 10
123.794534
 20
153.168509
 30
0.0
 10
122.723930
 20
153.357285
 30
0.0
  0
LWPOLYLINE
  5
185
100
AcDbEntity
  8
0
 62
5
100
AcDbPolyline
 90
8
 70
0
 10
106.664862
 20
156.188891
 30
0.0
 10
119.340207
 20
156.631523
 30
0.0
 10
119.746621
 20
155.376636
 30
0.0
 10
121.563709
 20
155.258794
 30
0.0
 10
122.431150
 20
156.376868
 30
0.0
 10
122.068996
 20
156.364224
 30
0.0
 10
122.056353
 20
156.726378
 30
0.0
 10
124.772499
 20
156.821227
 30
0.0
  0
LWPOLYLINE
  5
186
100
AcDbEntity
  8
0
 62
1
100
AcDbPolyline
 90
2
 70
0
 10
120.064510
 20
156.656818
 30
0.0
 10
121.332046
 20
156.701079
 30
0.0
  0
LWPOLYLINE
  5
187
100
AcDbEntity
  8
0
 62
5
100
AcDbPolyline
 90
5
 70
0
 10
129.766684
 20
174.237993
 30
0.0
 10
132.402289
 20
171.597358
 30
0.0
 10
128.186601
 20
161.496870
 30
0.0
 10
125.771334
 20
160.304552
 30
0.0
 10
124.772496
 20
156.821190
 30
0.0
  0
LWPOLYLINE
  5
188
100
AcDbEntity
  8
0
 62
5
100
AcDbPolyline
 90
4
 70
0
 10
128.844644
 20
172.994474
 30
0.0
 10
129.515718
 20
172.048092
 30
0.0
 10
127.717810
 20
165.778043
 30
0.0
 10
126.647202
 20
165.331082
 30
0.0
  0
LWPOLYLINE
  5
189
100
AcDbEntity
  8
0
 62
1
100
AcDbPolyline
 90
2
 70
0
 10
129.766684
 20
174.237993
 30
0.0
 10
129.367147
 20
172.844648
 30
0.0
  0
LWPOLYLINE
  5
18a
100
AcDbEntity
  8
0
 62
1
100
AcDbPolyline
 90
2
 70
0
 10
125.771334
 20
160.304552
 30
0.0
 10
127.169706
 20
165.181256
 30
0.0
  0
SPLINE
  5
18b
100
AcDbEntity
  8
0
 62
5
100
AcDbSpline
 70
0
 71
3
 72
10
 73
6
 74
4
 40
0.000000
 40
0.000000
 40
0.000000
 40
0.000000
 40
1.281083
 40
2.491461
 40
3.035182
 40
3.035182
 40
3.035182
 40
3.035182
 10
131.837512
 20
166.287364
 30
0.0
 10
132.265992
 20
166.308269
 30
0.0
 10
133.099304
 20
166.348926
 30
0.0
 10
134.094382
 20
166.121122
 30
0.0
 10
134.655037
 20
165.956931
 30
0.0
 10
134.828825
 20
165.906036
 30
0.0
 11
131.837512
 21
166.287364
 31
0.0
 11
133.118593
 21
166.289890
 31
0.0
 11
134.306077
 21
166.055594
 31
0.0
 11
134.828825
 21
165.906036
 31
0.0
  0
SPLINE
  5
18c
100
AcDbEntity
  8
0
 62
5
100
AcDbSpline
 70
0
 71
3
 72
10
 73
6
 74
4
 40
0.000000
 40
0.000000
 40
0.000000
 40
0.000000
 40
0.180065
 40
0.695693
 40
1.557375
 40
1.557375
 40
1.557375
 40
1.557375
 10
122.308609
 20
179.705642
 30
0.0
 10
122.360253
 20
179.736380
 30
0.0
 10
122.559782
 20
179.855139
 30
0.0
 10
123.069588
 20
179.996554
 30
0.0
 10
123.529839
 20
179.998057
 30
0.0
 10
123.817784
 20
179.998998
 30
0.0
 11
122.308609
 21
179.705642
 31
0.0
 11
122.465430
 21
179.794133
 31
0.0
 11
122.957623
 21
179.947813
 31
0.0
 11
123.817784
 21
179.998998
 31
0.0
  0
SPLINE
  5
18d
100
AcDbEntity
  8
0
 62
5
100
AcDbSpline
 70
0
 71
3
 72
10
 73
6
 74
4
 40
0.000000
 40
0.000000
 40
0.000000
 40
0.000000
 40
1.678583
 40
3.460390
 40
5.104330
 40
5.104330
 40
5.104330
 40
5.104330
 10
123.817784
 20
179.998998
 30
0.0
 10
124.358826
 20
179.855960
 30
0.0
 10
125.474182
 20
179.561087
 30
0.0
 10
127.091788
 20
179.031049
 30
0.0
 10
128.167711
 20
178.648610
 30
0.0
 10
128.684023
 20
178.465086
 30
0.0
 11
123.817784
 21
179.998998
 31
0.0
 11
125.436503
 21
179.554716
 31
0.0
 11
127.132848
 21
179.009508
 31
0.0
 11
128.684023
 21
178.465086
 31
0.0
  0
LWPOLYLINE
  5
18e
100
AcDbEntity
  8
0
 62
5
100
AcDbPolyline
 90
4
 70
0
 10
114.745646
 20
184.369824
 30
0.0
 10
123.007236
 20
178.797310
 30
0.0
 10
123.209874
 20
179.097732
 30
0.0
 10
122.308609
 20
179.705642
 30
0.0
  0
LWPOLYLINE
  5
18f
100
AcDbEntity
  8
0
 62
5
100
AcDbPolyline
 90
4
 70
0
 10
128.617461
 20
175.450270
 30
0.0
 10
127.716195
 20
176.058179
 30
0.0
 10
127.513560
 20
175.757759
 30
0.0
 10
129.766720
 20
174.237982
 30
0.0
  0
LWPOLYLINE
  5
190
100
AcDbEntity
  8
0
 62
1
100
AcDbPolyline
 90
2
 70
0
 10
124.058711
 20
178.088082
 30
0.0
 10
126.462084
 20
176.466987
 30
0.0
  0
LWPOLYLINE
  5
191
100
AcDbEntity
  8
0
 62
5
100
AcDbPolyline
 90
7
 70
0
 10
114.745623
 20
184.369793
 30
0.0
 10
113.344573
 20
185.574464
 30
0.0
 10
112.028351
 20
184.316191
 30
0.0
 10
112.238090
 20
182.870553
 30
0.0
 10
112.523645
 20
183.093652
 30
0.0
 10
112.746745
 20
182.808097
 30
0.0
 10
100.467916
 20
173.214824
 30
0.0
  0
LWPOLYLINE
  5
192
100
AcDbEntity
  8
0
 62
1
100
AcDbPolyline
 90
2
 70
0
 10
114.174516
 20
183.923594
 30
0.0
 10
113.317853
 20
183.254296
 30
0.0
  0
LWPOLYLINE
  5
193
100
AcDbEntity
  8
0
 62
5
100
AcDbPolyline
 90
8
 70
0
 10
100.467936
 20
173.214799
 30
0.0
 10
108.620453
 20
182.930592
 30
0.0
 10
109.824963
 20
182.392934
 30
0.0
 10
111.128404
 20
183.664441
 30
0.0
 10
110.877945
 20
185.057213
 30
0.0
 10
110.645016
 20
184.779619
 30
0.0
 10
110.367422
 20
185.012549
 30
0.0
 10
112.114389
 20
187.094502
 30
0.0
  0
LWPOLYLINE
  5
194
100
AcDbEntity
  8
0
 62
1
100
AcDbPolyline
 90
2
 70
0
 10
109.086311
 20
183.485780
 30
0.0
 10
109.901564
 20
184.457358
 30
0.0
  0
LWPOLYLINE
  5
195
100
AcDbEntity
  8
0
 62
5
100
AcDbPolyline
 90
5
 70
0
 10
129.957672
 20
183.948229
 30
0.0
 10
127.607023
 20
181.051072
 30
0.0
 10
117.121311
 20
184.187845
 30
0.0
 10
115.683072
 20
186.465228
 30
0.0
 10
112.114423
 20
187.094477
 30
0.0
  0
LWPOLYLINE
  5
196
100
AcDbEntity
  8
0
 62
5
100
AcDbPolyline
 90
4
 70
0
 10
128.624598
 20
184.735229
 30
0.0
 10
127.753556
 20
183.968916
 30
0.0
 10
121.329986
 20
185.101564
 30
0.0
 10
120.773571
 20
186.119577
 30
0.0
  0
LWPOLYLINE
  5
197
100
AcDbEntity
  8
0
 62
1
100
AcDbPolyline
 90
2
 70
0
 10
129.957672
 20
183.948229
 30
0.0
 10
128.530212
 20
184.199929
 30
0.0
  0
LWPOLYLINE
  5
198
100
AcDbEntity
  8
0
 62
1
100
AcDbPolyline
 90
2
 70
0
 10
115.683072
 20
186.465228
 30
0.0
 10
120.679182
 20
185.584277
 30
0.0
  0
SPLINE
  5
199
100
AcDbEntity
  8
0
 62
5
100
AcDbSpline
 70
0
 71
3
 72
10
 73
6
 74
4
 40
0.000000
 40
0.000000
 40
0.000000
 40
0.000000
 40
1.281098
 40
2.491487
 40
3.035213
 40
3.035213
 40
3.035213
 40
3.035213
 10
128.684023
 20
178.465086
 30
0.0
 10
128.749602
 20
178.041133
 30
0.0
 10
128.877141
 20
177.216627
 30
0.0
 10
128.754599
 20
176.203179
 30
0.0
 10
128.649911
 20
175.628427
 30
0.0
 10
128.617461
 20
175.450270
 30
0.0
 11
128.684023
 21
178.465086
 31
0.0
 11
128.820445
 21
177.191273
 31
0.0
 11
128.711557
 21
175.985792
 31
0.0
 11
128.617461
 21
175.450270
 31
0.0
  0
SPLINE
  5
19a
100
AcDbEntity
  8
0
 62
5
100
AcDbSpline
 70
0
 71
3
 72
10
 73
6
 74
4
 40
0.000000
 40
0.000000
 40
0.000000
 40
0.000000
 40
0.410611
 40
1.353161
 40
2.472607
 40
2.472607
 40
2.472607
 40
2.472607
 10
138.504239
 20
193.569845
 30
0.0
 10
138.591134
 20
193.464365
 30
0.0
 10
138.877495
 20
193.116757
 30
0.0
 10
139.321200
 20
192.401070
 30
0.0
 10
139.418301
 20
191.713025
 30
0.0
 10
139.471016
 20
191.339488
 30
0.0
 11
138.504239
 21
193.569845
 31
0.0
 11
138.760915
 21
193.249347
 31
0.0
 11
139.232430
 21
192.433215
 31
0.0
 11
139.471016
 21
191.339488
 31
0.0
  0
SPLINE
  5
19b
100
AcDbEntity
  8
0
 62
5
100
AcDbSpline
 70
0
 71
3
 72
10
 73
6
 74
4
 40
0.000000
 40
0.000000
 40
0.000000
 40
0.000000
 40
1.876911
 40
3.849833
 40
5.726744
 40
5.726744
 40
5.726744
 40
5.726744
 10
139.471016
 20
191.339488
 30
0.0
 10
139.331251
 20
190.724158
 30
0.0
 10
139.044571
 20
189.462021
 30
0.0
 10
137.751972
 20
187.921562
 30
0.0
 10
136.558791
 20
187.420069
 30
0.0
 10
135.977080
 20
187.175576
 30
0.0
 11
139.471016
 21
191.339488
 31
0.0
 11
138.913321
 21
189.547346
 31
0.0
 11
137.645151
 21
188.036001
 31
0.0
 11
135.977080
 21
187.175576
 31
0.0
  0
LWPOLYLINE
  5
19c
100
AcDbEntity
  8
0
 62
5
100
AcDbPolyline
 90
4
 70
0
 10
141.604117
 20
197.827887
 30
0.0
 10
137.527857
 20
192.969990
 30
0.0
 10
137.805451
 20
192.737061
 30
0.0
 10
138.504239
 20
193.569845
 30
0.0
  0
LWPOLYLINE
  5
19d
100
AcDbEntity
  8
0
 62
5
100
AcDbPolyline
 90
4
 70
0
 10
133.612729
 20
187.740368
 30
0.0
 10
134.311514
 20
188.573152
 30
0.0
 10
134.033920
 20
188.806081
 30
0.0
 10
129.957663
 20
183.948184
 30
0.0
  0
LWPOLYLINE
  5
19e
100
AcDbEntity
  8
0
 62
1
100
AcDbPolyline
 90
2
 70
0
 10
136.712607
 20
191.998412
 30
0.0
 10
134.849173
 20
189.777659
 30
0.0
  0
LWPOLYLINE
  5
19f
100
AcDbEntity
  8
0
 62
5
100
AcDbPolyline
 90
4
 70
0
 10
135.407222
 20
214.853767
 30
0.0
 10
139.881531
 20
212.626001
 30
0.0
 10
143.599685
 20
202.410454
 30
0.0
 10
141.604148
 20
197.827856
 30
0.0
  0
LWPOLYLINE
  5
1a0
100
AcDbEntity
  8
0
 62
5
100
AcDbPolyline
 90
4
 70
0
 10
136.631584
 20
209.900603
 30
0.0
 10
137.730755
 20
209.529413
 30
0.0
 10
139.961648
 20
203.400086
 30
0.0
 10
139.358232
 20
202.409203
 30
0.0
  0
LWPOLYLINE
  5
1a1
100
AcDbEntity
  8
0
 62
1
100
AcDbPolyline
 90
2
 70
0
 10
135.407222
 20
214.853767
 30
0.0
 10
137.142361
 20
210.086511
 30
0.0
  0
LWPOLYLINE
  5
1a2
100
AcDbEntity
  8
0
 62
1
100
AcDbPolyline
 90
2
 70
0
 10
141.604148
 20
197.827856
 30
0.0
 10
139.869009
 20
202.595112
 30
0.0
  0
SPLINE
  5
1a3
100
AcDbEntity
  8
0
 62
5
100
AcDbSpline
 70
0
 71
3
 72
10
 73
6
 74
4
 40
0.000000
 40
0.000000
 40
0.000000
 40
0.000000
 40
1.119446
 40
2.061995
 40
2.472605
 40
2.472605
 40
2.472605
 40
2.472605
 10
135.977080
 20
187.175576
 30
0.0
 10
135.600064
 20
187.162627
 30
0.0
 10
134.905611
 20
187.138775
 30
0.0
 10
134.123749
 20
187.451461
 30
0.0
 10
133.731696
 20
187.673109
 30
0.0
 10
133.612729
 20
187.740368
 30
0.0
 11
135.977080
 21
187.175576
 31
0.0
 11
134.858540
 21
187.220614
 31
0.0
 11
133.972929
 21
187.543245
 31
0.0
 11
133.612729
 21
187.740368
 31
0.0
  0
SPLINE
  5
1a4
100
AcDbEntity
  8
0
 62
5
100
AcDbSpline
 70
0
 71
3
 72
10
 73
6
 74
4
 40
0.000000
 40
0.000000
 40
0.000000
 40
0.000000
 40
0.410611
 40
1.353161
 40
2.472608
 40
2.472608
 40
2.472608
 40
2.472608
 10
122.801332
 20
217.444491
 30
0.0
 10
122.849233
 20
217.572484
 30
0.0
 10
123.007091
 20
217.994284
 30
0.0
 10
123.405042
 20
218.736387
 30
0.0
 10
123.952356
 20
219.164502
 30
0.0
 10
124.249490
 20
219.396924
 30
0.0
 11
122.801332
 21
217.444491
 31
0.0
 11
122.950554
 21
217.827027
 31
0.0
 11
123.421588
 21
218.643438
 31
0.0
 11
124.249490
 21
219.396924
 31
0.0
  0
SPLINE
  5
1a5
100
AcDbEntity
  8
0
 62
5
100
AcDbSpline
 70
0
 71
3
 72
10
 73
6
 74
4
 40
0.000000
 40
0.000000
 40
0.000000
 40
0.000000
 40
1.876911
 40
3.849833
 40
5.726744
 40
5.726744
 40
5.726744
 40
5.726744
 10
124.249490
 20
219.396924
 30
0.0
 10
124.852265
 20
219.583548
 30
0.0
 10
126.088648
 20
219.966343
 30
0.0
 10
128.069024
 20
219.617149
 30
0.0
 10
129.099919
 20
218.834571
 30
0.0
 10
129.602512
 20
218.453040
 30
0.0
 11
124.249490
 21
219.396924
 31
0.0
 11
126.080378
 21
219.810015
 31
0.0
 11
128.023327
 21
219.467421
 31
0.0
 11
129.602512
 21
218.453040
 31
0.0
  0
LWPOLYLINE
  5
1a6
100
AcDbEntity
  8
0
 62
5
100
AcDbPolyline
 90
4
 70
0
 10
117.563821
 20
218.000042
 30
0.0
 10
123.809012
 20
216.898848
 30
0.0
 10
123.871936
 20
217.255715
 30
0.0
 10
122.801332
 20
217.444491
 30
0.0
  0
LWPOLYLINE
  5
1a7
100
AcDbEntity
  8
0
 62
5
100
AcDbPolyline
 90
4
 70
0
 10
130.295563
 20
216.123056
 30
0.0
 10
129.224958
 20
216.311831
 30
0.0
 10
129.162034
 20
215.954964
 30
0.0
 10
135.407225
 20
214.853770
 30
0.0
  0
LWPOLYLINE
  5
1a8
100
AcDbEntity
  8
0
 62
1
100
AcDbPolyline
 90
2
 70
0
 10
125.058051
 20
216.678607
 30
0.0
 10
127.912995
 20
216.175205
 30
0.0
  0
LWPOLYLINE
  5
1a9
100
AcDbEntity
  8
0
 62
5
100
AcDbPolyline
 90
5
 70
0
 10
117.563815
 20
218.000000
 30
0.0
 10
113.900853
 20
218.708383
 30
0.0
 10
107.884612
 20
209.565388
 30
0.0
 10
108.246731
 20
206.896334
 30
0.0
 10
105.917461
 20
204.120415
 30
0.0
  0
LWPOLYLINE
  5
1aa
100
AcDbEntity
  8
0
 62
5
100
AcDbPolyline
 90
4
 70
0
 10
117.048494
 20
216.540242
 30
0.0
 10
115.888660
 20
216.567364
 30
0.0
 10
111.695972
 20
211.570715
 30
0.0
 10
111.924098
 20
210.433213
 30
0.0
  0
LWPOLYLINE
  5
1ab
100
AcDbEntity
  8
0
 62
1
100
AcDbPolyline
 90
2
 70
0
 10
117.563815
 20
218.000000
 30
0.0
 10
116.632107
 20
216.889633
 30
0.0
  0
LWPOLYLINE
  5
1ac
100
AcDbEntity
  8
0
 62
1
100
AcDbPolyline
 90
2
 70
0
 10
108.246731
 20
206.896334
 30
0.0
 10
111.507710
 20
210.782615
 30
0.0
  0
LWPOLYLINE
  5
1ad
100
AcDbEntity
  8
0
 62
5
100
AcDbPolyline
 90
8
 70
0
 10
88.074094
 20
207.266657
 30
0.0
 10
100.564476
 20
205.064265
 30
0.0
 10
101.141584
 20
206.250378
 30
0.0
 10
102.957387
 20
206.114186
 30
0.0
 10
103.660781
 20
204.886268
 30
0.0
 10
103.303911
 20
204.949192
 30
0.0
 10
103.240987
 20
204.592325
 30
0.0
 10
105.917498
 20
204.120384
 30
0.0
  0
LWPOLYLINE
  5
1ae
100
AcDbEntity
  8
0
 62
1
100
AcDbPolyline
 90
2
 70
0
 10
101.278213
 20
204.938414
 30
0.0
 10
102.527250
 20
204.718176
 30
0.0
  0
LWPOLYLINE
  5
1af
100
AcDbEntity
  8
0
 62
5
100
AcDbPolyline
 90
7
 70
0
 10
106.181610
 20
207.898948
 30
0.0
 10
105.882691
 20
206.075547
 30
0.0
 10
104.065618
 20
206.193389
 30
0.0
 10
103.297053
 20
207.435623
 30
0.0
 10
103.659203
 20
207.448267
 30
0.0
 10
103.646560
 20
207.810417
 30
0.0
 10
88.074091
 20
207.266615
 30
0.0
  0
LWPOLYLINE
  5
1b0
100
AcDbEntity
  8
0
 62
1
100
AcDbPolyline
 90
2
 70
0
 10
105.457309
 20
207.873652
 30
0.0
 10
104.370858
 20
207.835713
 30
0.0
  0
SPLINE
  5
1b1
100
AcDbEntity
  8
0
 62
5
100
AcDbSpline
 70
0
 71
3
 72
10
 73
6
 74
4
 40
0.000000
 40
0.000000
 40
0.000000
 40
0.000000
 40
1.119446
 40
2.061995
 40
2.472606
 40
2.472606
 40
2.472606
 40
2.472606
 10
129.602512
 20
218.453040
 30
0.0
 10
129.802234
 20
218.133010
 30
0.0
 10
130.170117
 20
217.543521
 30
0.0
 10
130.290253
 20
216.710066
 30
0.0
 10
130.294327
 20
216.259713
 30
0.0
 10
130.295563
 20
216.123056
 30
0.0
 11
129.602512
 21
218.453040
 31
0.0
 11
130.122778
 21
217.461838
 31
0.0
 11
130.286176
 21
216.533559
 31
0.0
 11
130.295563
 21
216.123056
 31
0.0
  0
SPLINE
  5
1b2
100
AcDbEntity
  8
0
 62
5
100
AcDbSpline
 70
0
 71
3
 72
10
 73
6
 74
4
 40
0.000000
 40
0.000000
 40
0.000000
 40
0.000000
 40
0.180063
 40
0.695684
 40
1.557348
 40
1.557348
 40
1.557348
 40
1.557348
 10
108.977041
 20
216.333475
 30
0.0
 10
109.036359
 20
216.343125
 30
0.0
 10
109.265540
 20
216.380409
 30
0.0
 10
109.746964
 20
216.599774
 30
0.0
 10
110.100499
 20
216.894457
 30
0.0
 10
110.321680
 20
217.078818
 30
0.0
 11
108.977041
 21
216.333475
 31
0.0
 11
109.154050
 21
216.366493
 31
0.0
 11
109.629869
 21
216.565142
 31
0.0
 11
110.321680
 21
217.078818
 31
0.0
  0
SPLINE
  5
1b3
100
AcDbEntity
  8
0
 62
5
100
AcDbSpline
 70
0
 71
3
 72
10
 73
6
 74
4
 40
0.000000
 40
0.000000
 40
0.000000
 40
0.000000
 40
1.678555
 40
3.460333
 40
5.104245
 40
5.104245
 40
5.104245
 40
5.104245
 10
110.321680
 20
217.078818
 30
0.0
 10
110.644193
 20
217.536160
 30
0.0
 10
111.309053
 20
218.478967
 30
0.0
 10
112.207495
 20
219.924753
 30
0.0
 10
112.785863
 20
220.909292
 30
0.0
 10
113.063409
 20
221.381750
 30
0.0
 11
110.321680
 21
217.078818
 31
0.0
 11
111.276095
 21
218.459629
 31
0.0
 11
112.225102
 21
219.967647
 31
0.0
 11
113.063409
 21
221.381750
 31
0.0
  0
LWPOLYLINE
  5
1b4
100
AcDbEntity
  8
0
 62
5
100
AcDbPolyline
 90
4
 70
0
 10
106.181598
 20
207.899261
 30
0.0
 10
108.928357
 20
217.478346
 30
0.0
 10
109.276687
 20
217.378465
 30
0.0
 10
108.977041
 20
216.333475
 30
0.0
  0
LWPOLYLINE
  5
1b5
100
AcDbEntity
  8
0
 62
5
100
AcDbPolyline
 90
4
 70
0
 10
111.074567
 20
223.648412
 30
0.0
 10
110.774920
 20
222.603420
 30
0.0
 10
110.426590
 20
222.703304
 30
0.0
 10
111.175704
 20
225.315781
 30
0.0
  0
LWPOLYLINE
  5
1b6
100
AcDbEntity
  8
0
 62
1
100
AcDbPolyline
 90
2
 70
0
 10
109.277943
 20
218.697504
 30
0.0
 10
110.077002
 20
221.484146
 30
0.0
  0
LWPOLYLINE
  5
1b7
100
AcDbEntity
  8
0
 62
5
100
AcDbPolyline
 90
5
 70
0
 10
111.175947
 20
225.315711
 30
0.0
 10
111.497564
 20
229.032628
 30
0.0
 10
101.775850
 20
234.060177
 30
0.0
 10
99.159280
 20
233.421054
 30
0.0
 10
96.155115
 20
235.447390
 30
0.0
  0
LWPOLYLINE
  5
1b8
100
AcDbEntity
  8
0
 62
5
100
AcDbPolyline
 90
4
 70
0
 10
109.670328
 20
225.675620
 30
0.0
 10
109.576080
 20
226.831930
 30
0.0
 10
104.168581
 20
230.479333
 30
0.0
 10
103.061163
 20
230.133560
 30
0.0
  0
LWPOLYLINE
  5
1b9
100
AcDbEntity
  8
0
 62
1
100
AcDbPolyline
 90
2
 70
0
 10
111.175947
 20
225.315711
 30
0.0
 10
109.974278
 20
226.126245
 30
0.0
  0
LWPOLYLINE
  5
1ba
100
AcDbEntity
  8
0
 62
1
100
AcDbPolyline
 90
2
 70
0
 10
99.159280
 20
233.421054
 30
0.0
 10
103.365114
 20
230.584184
 30
0.0
  0
LWPOLYLINE
  5
1bb
100
AcDbEntity
  8
0
 62
5
100
AcDbPolyline
 90
8
 70
0
 10
81.877354
 20
224.292280
 30
0.0
 10
91.871687
 20
232.100708
 30
0.0
 10
91.376398
 20
233.323241
 30
0.0
 10
92.692609
 20
234.581507
 30
0.0
 10
94.075786
 20
234.282594
 30
0.0
 10
93.790234
 20
234.059497
 30
0.0
 10
94.013330
 20
233.773945
 30
0.0
 10
96.154974
 20
235.447178
 30
0.0
  0
LWPOLYLINE
  5
1bc
100
AcDbEntity
  8
0
 62
1
100
AcDbPolyline
 90
2
 70
0
 10
92.442792
 20
232.546905
 30
0.0
 10
93.442226
 20
233.327748
 30
0.0
  0
LWPOLYLINE
  5
1bd
100
AcDbEntity
  8
0
 62
5
100
AcDbPolyline
 90
7
 70
0
 10
93.523618
 20
238.172228
 30
0.0
 10
94.678661
 20
236.729991
 30
0.0
 10
93.375218
 20
235.458484
 30
0.0
 10
91.937781
 20
235.718549
 30
0.0
 10
92.170710
 20
235.996143
 30
0.0
 10
91.893116
 20
236.229072
 30
0.0
 10
81.877165
 20
224.292525
 30
0.0
  0
LWPOLYLINE
  5
1be
100
AcDbEntity
  8
0
 62
1
100
AcDbPolyline
 90
2
 70
0
 10
93.057763
 20
237.617041
 30
0.0
 10
92.358975
 20
236.784260
 30
0.0
  0
SPLINE
  5
1bf
100
AcDbEntity
  8
0
 62
5
100
AcDbSpline
 70
0
 71
3
 72
10
 73
6
 74
4
 40
0.000000
 40
0.000000
 40
0.000000
 40
0.000000
 40
1.281076
 40
2.491446
 40
3.035163
 40
3.035163
 40
3.035163
 40
3.035163
 10
113.063409
 20
221.381750
 30
0.0
 10
112.841139
 20
221.748665
 30
0.0
 10
112.408865
 20
222.462242
 30
0.0
 10
111.663572
 20
223.159809
 30
0.0
 10
111.213940
 20
223.532797
 30
0.0
 10
111.074567
 20
223.648412
 30
0.0
 11
113.063409
 21
221.381750
 31
0.0
 11
112.349137
 21
222.445221
 31
0.0
 11
111.490869
 21
223.298668
 31
0.0
 11
111.074567
 21
223.648412
 31
0.0
  0
SPLINE
  5
1c0
100
AcDbEntity
  8
0
 62
5
100
AcDbSpline
 70
0
 71
3
 72
10
 73
6
 74
4
 40
0.000000
 40
0.000000
 40
0.000000
 40
0.000000
 40
0.180063
 40
0.695685
 40
1.557358
 40
1.557358
 40
1.557358
 40
1.557358
 10
102.203916
 20
236.273677
 30
0.0
 10
102.219713
 20
236.215692
 30
0.0
 10
102.280746
 20
235.991662
 30
0.0
 10
102.549232
 20
235.535801
 30
0.0
 10
102.879261
 20
235.215006
 30
0.0
 10
103.085736
 20
235.014308
 30
0.0
 11
102.203916
 21
236.273677
 31
0.0
 11
102.255253
 21
236.101088
 31
0.0
 11
102.502550
 21
235.648638
 31
0.0
 11
103.085736
 21
235.014308
 31
0.0
  0
SPLINE
  5
1c1
100
AcDbEntity
  8
0
 62
5
100
AcDbSpline
 70
0
 71
3
 72
10
 73
6
 74
4
 40
0.000000
 40
0.000000
 40
0.000000
 40
0.000000
 40
1.678567
 40
3.460356
 40
5.104277
 40
5.104277
 40
5.104277
 40
5.104277
 10
103.085736
 20
235.014308
 30
0.0
 10
103.574288
 20
234.741364
 30
0.0
 10
104.581433
 20
234.178692
 30
0.0
 10
106.113221
 20
233.436293
 30
0.0
 10
107.152829
 20
232.964003
 30
0.0
 10
107.651714
 20
232.737362
 30
0.0
 11
103.085736
 21
235.014308
 31
0.0
 11
104.558756
 21
234.209448
 31
0.0
 11
106.157721
 21
233.423266
 31
0.0
 11
107.651714
 21
232.737362
 31
0.0
  0
LWPOLYLINE
  5
1c2
100
AcDbEntity
  8
0
 62
5
100
AcDbPolyline
 90
4
 70
0
 10
93.523649
 20
238.172203
 30
0.0
 10
103.337436
 20
236.441769
 30
0.0
 10
103.274512
 20
236.084902
 30
0.0
 10
102.203916
 20
236.273677
 30
0.0
  0
LWPOLYLINE
  5
1c3
100
AcDbEntity
  8
0
 62
5
100
AcDbPolyline
 90
4
 70
0
 10
109.698082
 20
234.952253
 30
0.0
 10
108.627486
 20
235.141029
 30
0.0
 10
108.690410
 20
235.497893
 30
0.0
 10
111.366898
 20
235.025956
 30
0.0
  0
LWPOLYLINE
  5
1c4
100
AcDbEntity
  8
0
 62
1
100
AcDbPolyline
 90
2
 70
0
 10
104.586464
 20
236.221531
 30
0.0
 10
107.441385
 20
235.718131
 30
0.0
  0
LWPOLYLINE
  5
1c5
100
AcDbEntity
  8
0
 62
5
100
AcDbPolyline
 90
4
 70
0
 10
123.013346
 20
248.905614
 30
0.0
 10
123.321199
 20
243.916848
 30
0.0
 10
116.333326
 20
235.589023
 30
0.0
 10
111.366893
 20
235.025911
 30
0.0
  0
LWPOLYLINE
  5
1c6
100
AcDbEntity
  8
0
 62
5
100
AcDbPolyline
 90
4
 70
0
 10
119.335948
 20
245.368689
 30
0.0
 10
119.564074
 20
244.231178
 30
0.0
 10
115.371352
 20
239.234485
 30
0.0
 10
114.211506
 20
239.261606
 30
0.0
  0
LWPOLYLINE
  5
1c7
100
AcDbEntity
  8
0
 62
1
100
AcDbPolyline
 90
2
 70
0
 10
123.013346
 20
248.905614
 30
0.0
 10
119.752339
 20
245.019298
 30
0.0
  0
LWPOLYLINE
  5
1c8
100
AcDbEntity
  8
0
 62
1
100
AcDbPolyline
 90
2
 70
0
 10
111.366893
 20
235.025911
 30
0.0
 10
114.627900
 20
238.912226
 30
0.0
  0
SPLINE
  5
1c9
100
AcDbEntity
  8
0
 62
5
100
AcDbSpline
 70
0
 71
3
 72
10
 73
6
 74
4
 40
0.000000
 40
0.000000
 40
0.000000
 40
0.000000
 40
1.281084
 40
2.491461
 40
3.035182
 40
3.035182
 40
3.035182
 40
3.035182
 10
107.651714
 20
232.737362
 30
0.0
 10
107.993387
 20
232.996770
 30
0.0
 10
108.657874
 20
233.501268
 30
0.0
 10
109.273719
 20
234.315399
 30
0.0
 10
109.597667
 20
234.801558
 30
0.0
 10
109.698082
 20
234.952253
 30
0.0
 11
107.651714
 21
232.737362
 31
0.0
 11
108.634703
 21
233.558890
 31
0.0
 11
109.393767
 21
234.501671
 31
0.0
 11
109.698082
 21
234.952253
 31
0.0
  0
SPLINE
  5
1ca
100
AcDbEntity
  8
0
 62
5
100
AcDbSpline
 70
0
 71
3
 72
10
 73
6
 74
4
 40
0.000000
 40
0.000000
 40
0.000000
 40
0.000000
 40
0.410609
 40
1.353154
 40
2.472597
 40
2.472597
 40
2.472597
 40
2.472597
 10
118.954076
 20
261.117922
 30
0.0
 10
119.088871
 20
261.140435
 30
0.0
 10
119.533087
 20
261.214627
 30
0.0
 10
120.374738
 20
261.241044
 30
0.0
 10
121.019152
 20
260.981115
 30
0.0
 10
121.369001
 20
260.840001
 30
0.0
 11
118.954076
 21
261.117922
 31
0.0
 11
119.359971
 21
261.179961
 31
0.0
 11
120.302516
 21
261.180240
 31
0.0
 11
121.369001
 21
260.840001
 31
0.0
  0
SPLINE
  5
1cb
100
AcDbEntity
  8
0
 62
5
100
AcDbSpline
 70
0
 71
3
 72
10
 73
6
 74
4
 40
0.000000
 40
0.000000
 40
0.000000
 40
0.000000
 40
1.876903
 40
3.849817
 40
5.726720
 40
5.726720
 40
5.726720
 40
5.726720
 10
121.369001
 20
260.840001
 30
0.0
 10
121.832007
 20
260.411297
 30
0.0
 10
122.781705
 20
259.531960
 30
0.0
 10
123.469479
 20
257.642315
 30
0.0
 10
123.307196
 20
256.358249
 30
0.0
 10
123.228077
 20
255.732228
 30
0.0
 11
121.369001
 21
260.840001
 31
0.0
 11
122.642187
 21
259.460957
 31
0.0
 11
123.316963
 21
257.607025
 31
0.0
 11
123.228077
 21
255.732228
 31
0.0
  0
LWPOLYLINE
  5
1cc
100
AcDbEntity
  8
0
 62
5
100
AcDbPolyline
 90
4
 70
0
 10
116.816449
 20
265.931499
 30
0.0
 10
118.985371
 20
259.972430
 30
0.0
 10
119.325890
 20
260.096368
 30
0.0
 10
118.954076
 20
261.117922
 30
0.0
  0
LWPOLYLINE
  5
1cd
100
AcDbEntity
  8
0
 62
5
100
AcDbPolyline
 90
4
 70
0
 10
121.556783
 20
253.967041
 30
0.0
 10
121.184966
 20
254.988598
 30
0.0
 10
120.844448
 20
254.864657
 30
0.0
 10
123.013374
 20
248.905588
 30
0.0
  0
LWPOLYLINE
  5
1ce
100
AcDbEntity
  8
0
 62
1
100
AcDbPolyline
 90
2
 70
0
 10
119.419156
 20
258.780617
 30
0.0
 10
120.410664
 20
256.056470
 30
0.0
  0
LWPOLYLINE
  5
1cf
100
AcDbEntity
  8
0
 62
5
100
AcDbPolyline
 90
4
 70
0
 10
98.973047
 20
269.077772
 30
0.0
 10
103.139519
 20
271.838763
 30
0.0
 10
113.845563
 20
269.950999
 30
0.0
 10
116.816451
 20
265.931499
 30
0.0
  0
LWPOLYLINE
  5
1d0
100
AcDbEntity
  8
0
 62
5
100
AcDbPolyline
 90
4
 70
0
 10
103.874813
 20
267.661513
 30
0.0
 10
104.745861
 20
268.427831
 30
0.0
 10
111.169487
 20
267.295174
 30
0.0
 10
111.725910
 20
266.277153
 30
0.0
  0
LWPOLYLINE
  5
1d1
100
AcDbEntity
  8
0
 62
1
100
AcDbPolyline
 90
2
 70
0
 10
98.973047
 20
269.077772
 30
0.0
 10
103.969199
 20
268.196815
 30
0.0
  0
LWPOLYLINE
  5
1d2
100
AcDbEntity
  8
0
 62
1
100
AcDbPolyline
 90
2
 70
0
 10
116.816451
 20
265.931499
 30
0.0
 10
111.820297
 20
266.812456
 30
0.0
  0
SPLINE
  5
1d3
100
AcDbEntity
  8
0
 62
5
100
AcDbSpline
 70
0
 71
3
 72
10
 73
6
 74
4
 40
0.000000
 40
0.000000
 40
0.000000
 40
0.000000
 40
1.119443
 40
2.061989
 40
2.472599
 40
2.472599
 40
2.472599
 40
2.472599
 10
123.228077
 20
255.732228
 30
0.0
 10
123.050785
 20
255.399249
 30
0.0
 10
122.724215
 20
254.785910
 30
0.0
 10
122.062492
 20
254.265142
 30
0.0
 10
121.674513
 20
254.036440
 30
0.0
 10
121.556783
 20
253.967041
 30
0.0
 11
123.228077
 21
255.732228
 31
0.0
 11
122.629806
 21
254.786065
 31
0.0
 11
121.907595
 21
254.180421
 31
0.0
 11
121.556783
 21
253.967041
 31
0.0
  0
SPLINE
  5
1d4
100
AcDbEntity
  8
0
 62
5
100
AcDbSpline
 70
0
 71
3
 72
10
 73
6
 74
4
 40
0.000000
 40
0.000000
 40
0.000000
 40
0.000000
 40
0.180063
 40
0.695685
 40
1.557358
 40
1.557358
 40
1.557358
 40
1.557358
 10
92.755807
 20
262.232071
 30
0.0
 10
92.730636
 20
262.286644
 30
0.0
 10
92.633386
 20
262.497492
 30
0.0
 10
92.546037
 20
263.019281
 30
0.0
 10
92.592651
 20
263.477163
 30
0.0
 10
92.621814
 20
263.763626
 30
0.0
 11
92.755807
 21
262.232071
 31
0.0
 11
92.684195
 21
262.397281
 31
0.0
 11
92.582807
 21
262.902836
 31
0.0
 11
92.621814
 21
263.763626
 31
0.0
  0
SPLINE
  5
1d5
100
AcDbEntity
  8
0
 62
5
100
AcDbSpline
 70
0
 71
3
 72
10
 73
6
 74
4
 40
0.000000
 40
0.000000
 40
0.000000
 40
0.000000
 40
1.678566
 40
3.460356
 40
5.104279
 40
5.104279
 40
5.104279
 40
5.104279
 10
92.621814
 20
263.763626
 30
0.0
 10
92.820621
 20
264.286747
 30
0.0
 10
93.230461
 20
265.365160
 30
0.0
 10
93.926674
 20
266.918485
 30
0.0
 10
94.419478
 20
267.948528
 30
0.0
 10
94.655965
 20
268.442822
 30
0.0
 11
92.621814
 21
263.763626
 31
0.0
 11
93.232858
 21
265.327023
 31
0.0
 11
93.952389
 21
266.957069
 31
0.0
 11
94.655965
 21
268.442822
 31
0.0
  0
LWPOLYLINE
  5
1d6
100
AcDbEntity
  8
0
 62
5
100
AcDbPolyline
 90
4
 70
0
 10
87.326687
 20
255.198148
 30
0.0
 10
93.732181
 20
262.831917
 30
0.0
 10
93.454590
 20
263.064846
 30
0.0
 10
92.755807
 20
262.232071
 30
0.0
  0
LWPOLYLINE
  5
1d7
100
AcDbEntity
  8
0
 62
5
100
AcDbPolyline
 90
4
 70
0
 10
97.647277
 20
268.061495
 30
0.0
 10
96.948495
 20
267.228722
 30
0.0
 10
97.226089
 20
266.995793
 30
0.0
 10
98.973042
 20
269.077731
 30
0.0
  0
LWPOLYLINE
  5
1d8
100
AcDbEntity
  8
0
 62
1
100
AcDbPolyline
 90
2
 70
0
 10
94.547428
 20
263.803490
 30
0.0
 10
96.410842
 20
266.024223
 30
0.0
  0
LWPOLYLINE
  5
1d9
100
AcDbEntity
  8
0
 62
5
100
AcDbPolyline
 90
7
 70
0
 10
87.326724
 20
255.198117
 30
0.0
 10
87.284484
 20
257.045382
 30
0.0
 10
85.468680
 20
257.181574
 30
0.0
 10
84.534705
 20
256.058386
 30
0.0
 10
84.891572
 20
255.995462
 30
0.0
 10
84.828648
 20
255.638595
 30
0.0
 10
69.483320
 20
258.344389
 30
0.0
  0
LWPOLYLINE
  5
1da
100
AcDbEntity
  8
0
 62
1
100
AcDbPolyline
 90
2
 70
0
 10
86.612987
 20
255.323968
 30
0.0
 10
85.542382
 20
255.512743
 30
0.0
  0
LWPOLYLINE
  5
1db
100
AcDbEntity
  8
0
 62
5
100
AcDbPolyline
 90
8
 70
0
 10
69.483314
 20
258.344347
 30
0.0
 10
82.158580
 20
258.786976
 30
0.0
 10
82.564994
 20
257.532097
 30
0.0
 10
84.382068
 20
257.414255
 30
0.0
 10
85.249506
 20
258.532324
 30
0.0
 10
84.887356
 20
258.519680
 30
0.0
 10
84.874712
 20
258.881831
 30
0.0
 10
87.590842
 20
258.976683
 30
0.0
  0
LWPOLYLINE
  5
1dc
100
AcDbEntity
  8
0
 62
1
100
AcDbPolyline
 90
2
 70
0
 10
82.882881
 20
258.812271
 30
0.0
 10
84.150406
 20
258.856532
 30
0.0
  0
LWPOLYLINE
  5
1dd
100
AcDbEntity
  8
0
 62
5
100
AcDbPolyline
 90
5
 70
0
 10
92.584930
 20
276.393507
 30
0.0
 10
95.220494
 20
273.752916
 30
0.0
 10
91.004873
 20
263.652591
 30
0.0
 10
88.589646
 20
262.460293
 30
0.0
 10
87.590825
 20
258.976987
 30
0.0
  0
LWPOLYLINE
  5
1de
100
AcDbEntity
  8
0
 62
5
100
AcDbPolyline
 90
4
 70
0
 10
91.662908
 20
275.150009
 30
0.0
 10
92.333970
 20
274.203643
 30
0.0
 10
90.536090
 20
267.933696
 30
0.0
 10
89.465500
 20
267.486741
 30
0.0
  0
LWPOLYLINE
  5
1df
100
AcDbEntity
  8
0
 62
1
100
AcDbPolyline
 90
2
 70
0
 10
92.584930
 20
276.393507
 30
0.0
 10
92.185403
 20
275.000186
 30
0.0
  0
LWPOLYLINE
  5
1e0
100
AcDbEntity
  8
0
 62
1
100
AcDbPolyline
 90
2
 70
0
 10
88.589646
 20
262.460293
 30
0.0
 10
89.987995
 20
267.336918
 30
0.0
  0
SPLINE
  5
1e1
100
AcDbEntity
  8
0
 62
5
100
AcDbSpline
 70
0
 71
3
 72
10
 73
6
 74
4
 40
0.000000
 40
0.000000
 40
0.000000
 40
0.000000
 40
1.281083
 40
2.491461
 40
3.035182
 40
3.035182
 40
3.035182
 40
3.035182
 10
94.655965
 20
268.442822
 30
0.0
 10
95.084445
 20
268.463728
 30
0.0
 10
95.917757
 20
268.504384
 30
0.0
 10
96.912835
 20
268.276580
 30
0.0
 10
97.473490
 20
268.112389
 30
0.0
 10
97.647277
 20
268.061495
 30
0.0
 11
94.655965
 21
268.442822
 31
0.0
 11
95.937045
 21
268.445349
 31
0.0
 11
97.124530
 21
268.211052
 31
0.0
 11
97.647277
 21
268.061495
 31
0.0
  0
SPLINE
  5
1e2
100
AcDbEntity
  8
0
 62
5
100
AcDbSpline
 70
0
 71
3
 72
10
 73
6
 74
4
 40
0.000000
 40
0.000000
 40
0.000000
 40
0.000000
 40
0.410605
 40
1.353141
 40
2.472572
 40
2.472572
 40
2.472572
 40
2.472572
 10
82.123015
 20
283.887346
 30
0.0
 10
82.218833
 20
283.984789
 30
0.0
 10
82.534600
 20
284.305911
 30
0.0
 10
83.199976
 20
284.821987
 30
0.0
 10
83.874093
 20
284.990474
 30
0.0
 10
84.240068
 20
285.081945
 30
0.0
 11
82.123015
 21
283.887346
 31
0.0
 11
82.414923
 21
284.176113
 31
0.0
 11
83.177287
 21
284.730346
 31
0.0
 11
84.240068
 21
285.081945
 31
0.0
  0
SPLINE
  5
1e3
100
AcDbEntity
  8
0
 62
5
100
AcDbSpline
 70
0
 71
3
 72
10
 73
6
 74
4
 40
0.000000
 40
0.000000
 40
0.000000
 40
0.000000
 40
1.876882
 40
3.849774
 40
5.726656
 40
5.726656
 40
5.726656
 40
5.726656
 10
84.240068
 20
285.081945
 30
0.0
 10
84.866627
 20
285.007266
 30
0.0
 10
86.151796
 20
284.854087
 30
0.0
 10
87.818904
 20
283.729608
 30
0.0
 10
88.442362
 20
282.595402
 30
0.0
 10
88.746316
 20
282.042442
 30
0.0
 11
84.240068
 21
285.081945
 31
0.0
 11
86.080659
 21
284.714640
 31
0.0
 11
87.716260
 21
283.611413
 31
0.0
 11
88.746316
 21
282.042442
 31
0.0
  0
LWPOLYLINE
  5
1e4
100
AcDbEntity
  8
0
 62
5
100
AcDbPolyline
 90
4
 70
0
 10
77.564341
 20
286.525116
 30
0.0
 10
82.821633
 20
282.979029
 30
0.0
 10
83.024266
 20
283.279445
 30
0.0
 10
82.123015
 20
283.887346
 30
0.0
  0
LWPOLYLINE
  5
1e5
100
AcDbEntity
  8
0
 62
5
100
AcDbPolyline
 90
4
 70
0
 10
88.431765
 20
279.632041
 30
0.0
 10
87.530514
 20
280.239942
 30
0.0
 10
87.327881
 20
279.939525
 30
0.0
 10
92.585173
 20
276.393438
 30
0.0
  0
LWPOLYLINE
  5
1e6
100
AcDbEntity
  8
0
 62
1
100
AcDbPolyline
 90
2
 70
0
 10
83.873092
 20
282.269811
 30
0.0
 10
86.276423
 20
280.648743
 30
0.0
  0
LWPOLYLINE
  5
1e7
100
AcDbEntity
  8
0
 62
5
100
AcDbPolyline
 90
4
 70
0
 10
63.286581
 20
275.370008
 30
0.0
 10
64.022673
 20
280.313736
 30
0.0
 10
72.589246
 20
287.006675
 30
0.0
 10
77.564200
 20
286.524907
 30
0.0
  0
LWPOLYLINE
  5
1e8
100
AcDbEntity
  8
0
 62
5
100
AcDbPolyline
 90
4
 70
0
 10
67.618960
 20
278.065052
 30
0.0
 10
67.632309
 20
279.225128
 30
0.0
 10
72.772253
 20
283.240892
 30
0.0
 10
73.901102
 20
282.973207
 30
0.0
  0
LWPOLYLINE
  5
1e9
100
AcDbEntity
  8
0
 62
1
100
AcDbPolyline
 90
2
 70
0
 10
63.286581
 20
275.370008
 30
0.0
 10
67.284315
 20
278.493380
 30
0.0
  0
LWPOLYLINE
  5
1ea
100
AcDbEntity
  8
0
 62
1
100
AcDbPolyline
 90
2
 70
0
 10
77.564200
 20
286.524907
 30
0.0
 10
73.566466
 20
283.401536
 30
0.0
  0
SPLINE
  5
1eb
100
AcDbEntity
  8
0
 62
5
100
AcDbSpline
 70
0
 71
3
 72
10
 73
6
 74
4
 40
0.000000
 40
0.000000
 40
0.000000
 40
0.000000
 40
1.119430
 40
2.061965
 40
2.472570
 40
2.472570
 40
2.472570
 40
2.472570
 10
88.746316
 20
282.042442
 30
0.0
 10
88.798602
 20
281.668851
 30
0.0
 10
88.894913
 20
280.980704
 30
0.0
 10
88.665670
 20
280.170453
 30
0.0
 10
88.486219
 20
279.757385
 30
0.0
 10
88.431765
 20
279.632041
 30
0.0
 11
88.746316
 21
282.042442
 31
0.0
 11
88.818444
 21
280.925337
 31
0.0
 11
88.590154
 21
280.010867
 31
0.0
 11
88.431765
 21
279.632041
 31
0.0
  0
SPLINE
  5
1ec
100
AcDbEntity
  8
0
 62
5
100
AcDbSpline
 70
0
 71
3
 72
10
 73
6
 74
4
 40
0.000000
 40
0.000000
 40
0.000000
 40
0.000000
 40
0.410607
 40
1.353148
 40
2.472585
 40
2.472585
 40
2.472585
 40
2.472585
 10
58.174771
 20
276.639534
 30
0.0
 10
58.173536
 20
276.776190
 30
0.0
 10
58.169462
 20
277.226538
 30
0.0
 10
58.049327
 20
278.059987
 30
0.0
 10
57.681447
 20
278.649471
 30
0.0
 10
57.481727
 20
278.969498
 30
0.0
 11
58.174771
 21
276.639534
 31
0.0
 11
58.165385
 21
277.050034
 31
0.0
 11
58.001988
 21
277.978303
 31
0.0
 11
57.481727
 21
278.969498
 31
0.0
  0
SPLINE
  5
1ed
100
AcDbEntity
  8
0
 62
5
100
AcDbSpline
 70
0
 71
3
 72
10
 73
6
 74
4
 40
0.000000
 40
0.000000
 40
0.000000
 40
0.000000
 40
1.876894
 40
3.849800
 40
5.726695
 40
5.726695
 40
5.726695
 40
5.726695
 10
57.481727
 20
278.969498
 30
0.0
 10
56.979138
 20
279.351025
 30
0.0
 10
55.948251
 20
280.133597
 30
0.0
 10
53.967892
 20
280.482787
 30
0.0
 10
52.731520
 20
280.099995
 30
0.0
 10
52.128750
 20
279.913372
 30
0.0
 11
57.481727
 21
278.969498
 31
0.0
 11
55.902555
 21
279.983869
 31
0.0
 11
53.959623
 21
280.326461
 31
0.0
 11
52.128750
 21
279.913372
 31
0.0
  0
LWPOLYLINE
  5
1ee
100
AcDbEntity
  8
0
 62
5
100
AcDbPolyline
 90
4
 70
0
 10
63.286389
 20
275.370257
 30
0.0
 10
57.041251
 20
276.471443
 30
0.0
 10
57.104176
 20
276.828308
 30
0.0
 10
58.174771
 20
276.639534
 30
0.0
  0
LWPOLYLINE
  5
1ef
100
AcDbEntity
  8
0
 62
5
100
AcDbPolyline
 90
4
 70
0
 10
50.680606
 20
277.960957
 30
0.0
 10
51.751202
 20
277.772182
 30
0.0
 10
51.688278
 20
277.415317
 30
0.0
 10
45.443140
 20
278.516503
 30
0.0
  0
LWPOLYLINE
  5
1f0
100
AcDbEntity
  8
0
 62
1
100
AcDbPolyline
 90
2
 70
0
 10
55.792223
 20
276.691681
 30
0.0
 10
52.937306
 20
277.195080
 30
0.0
  0
LWPOLYLINE
  5
1f1
100
AcDbEntity
  8
0
 62
5
100
AcDbPolyline
 90
4
 70
0
 10
33.796695
 20
264.636847
 30
0.0
 10
33.488842
 20
269.625614
 30
0.0
 10
40.476715
 20
277.953436
 30
0.0
 10
45.443148
 20
278.516551
 30
0.0
  0
LWPOLYLINE
  5
1f2
100
AcDbEntity
  8
0
 62
5
100
AcDbPolyline
 90
4
 70
0
 10
37.474093
 20
268.173771
 30
0.0
 10
37.245967
 20
269.311281
 30
0.0
 10
41.438689
 20
274.307974
 30
0.0
 10
42.598535
 20
274.280839
 30
0.0
  0
LWPOLYLINE
  5
1f3
100
AcDbEntity
  8
0
 62
1
100
AcDbPolyline
 90
2
 70
0
 10
33.796695
 20
264.636847
 30
0.0
 10
37.057703
 20
268.523163
 30
0.0
  0
LWPOLYLINE
  5
1f4
100
AcDbEntity
  8
0
 62
1
100
AcDbPolyline
 90
2
 70
0
 10
45.443148
 20
278.516551
 30
0.0
 10
42.182141
 20
274.630234
 30
0.0
  0
SPLINE
  5
1f5
100
AcDbEntity
  8
0
 62
5
100
AcDbSpline
 70
0
 71
3
 72
10
 73
6
 74
4
 40
0.000000
 40
0.000000
 40
0.000000
 40
0.000000
 40
1.119437
 40
2.061978
 40
2.472585
 40
2.472585
 40
2.472585
 40
2.472585
 10
52.128750
 20
279.913372
 30
0.0
 10
51.831619
 20
279.680953
 30
0.0
 10
51.284309
 20
279.252842
 30
0.0
 10
50.886362
 20
278.510745
 30
0.0
 10
50.728507
 20
278.088949
 30
0.0
 10
50.680606
 20
277.960957
 30
0.0
 11
52.128750
 21
279.913372
 31
0.0
 11
51.300855
 21
279.159894
 31
0.0
 11
50.829826
 21
278.343490
 31
0.0
 11
50.680606
 21
277.960957
 31
0.0
  0
SPLINE
  5
1f6
100
AcDbEntity
  8
0
 62
5
100
AcDbSpline
 70
0
 71
3
 72
10
 73
6
 74
4
 40
0.000000
 40
0.000000
 40
0.000000
 40
0.000000
 40
0.410607
 40
1.353148
 40
2.472585
 40
2.472585
 40
2.472585
 40
2.472585
 10
28.685044
 20
265.906153
 30
0.0
 10
28.683808
 20
266.042809
 30
0.0
 10
28.679735
 20
266.493157
 30
0.0
 10
28.559599
 20
267.326606
 30
0.0
 10
28.191719
 20
267.916090
 30
0.0
 10
27.991999
 20
268.236117
 30
0.0
 11
28.685044
 21
265.906153
 31
0.0
 11
28.675657
 21
266.316653
 31
0.0
 11
28.512261
 21
267.244922
 31
0.0
 11
27.991999
 21
268.236117
 31
0.0
  0
SPLINE
  5
1f7
100
AcDbEntity
  8
0
 62
5
100
AcDbSpline
 70
0
 71
3
 72
10
 73
6
 74
4
 40
0.000000
 40
0.000000
 40
0.000000
 40
0.000000
 40
1.876894
 40
3.849798
 40
5.726693
 40
5.726693
 40
5.726693
 40
5.726693
 10
27.991999
 20
268.236117
 30
0.0
 10
27.489410
 20
268.617644
 30
0.0
 10
26.458523
 20
269.400215
 30
0.0
 10
24.478165
 20
269.749405
 30
0.0
 10
23.241793
 20
269.366613
 30
0.0
 10
22.639024
 20
269.179990
 30
0.0
 11
27.991999
 21
268.236117
 31
0.0
 11
26.412827
 21
269.250488
 31
0.0
 11
24.469896
 21
269.593079
 31
0.0
 11
22.639024
 21
269.179990
 31
0.0
  0
LWPOLYLINE
  5
1f8
100
AcDbEntity
  8
0
 62
5
100
AcDbPolyline
 90
4
 70
0
 10
33.796661
 20
264.636875
 30
0.0
 10
27.551524
 20
265.738061
 30
0.0
 10
27.614449
 20
266.094925
 30
0.0
 10
28.685044
 20
265.906153
 30
0.0
  0
LWPOLYLINE
  5
1f9
100
AcDbEntity
  8
0
 62
5
100
AcDbPolyline
 90
4
 70
0
 10
21.190880
 20
267.227573
 30
0.0
 10
22.261475
 20
267.038801
 30
0.0
 10
22.198550
 20
266.681936
 30
0.0
 10
15.953413
 20
267.783122
 30
0.0
  0
LWPOLYLINE
  5
1fa
100
AcDbEntity
  8
0
 62
1
100
AcDbPolyline
 90
2
 70
0
 10
26.302497
 20
265.958299
 30
0.0
 10
23.447577
 20
266.461699
 30
0.0
  0
LWPOLYLINE
  5
1fb
100
AcDbEntity
  8
0
 62
5
100
AcDbPolyline
 90
4
 70
0
 10
4.306967
 20
253.903464
 30
0.0
 10
3.999115
 20
258.892230
 30
0.0
 10
10.986987
 20
267.220055
 30
0.0
 10
15.953422
 20
267.783167
 30
0.0
  0
LWPOLYLINE
  5
1fc
100
AcDbEntity
  8
0
 62
5
100
AcDbPolyline
 90
4
 70
0
 10
7.984366
 20
257.440389
 30
0.0
 10
7.756239
 20
258.577900
 30
0.0
 10
11.948962
 20
263.574593
 30
0.0
 10
13.108806
 20
263.547472
 30
0.0
  0
LWPOLYLINE
  5
1fd
100
AcDbEntity
  8
0
 62
1
100
AcDbPolyline
 90
2
 70
0
 10
4.306967
 20
253.903464
 30
0.0
 10
7.567975
 20
257.789780
 30
0.0
  0
LWPOLYLINE
  5
1fe
100
AcDbEntity
  8
0
 62
1
100
AcDbPolyline
 90
2
 70
0
 10
15.953422
 20
267.783167
 30
0.0
 10
12.692414
 20
263.896852
 30
0.0
  0
SPLINE
  5
1ff
100
AcDbEntity
  8
0
 62
5
100
AcDbSpline
 70
0
 71
3
 72
10
 73
6
 74
4
 40
0.000000
 40
0.000000
 40
0.000000
 40
0.000000
 40
1.119438
 40
2.061979
 40
2.472586
 40
2.472586
 40
2.472586
 40
2.472586
 10
22.639024
 20
269.179990
 30
0.0
 10
22.341893
 20
268.947570
 30
0.0
 10
21.794583
 20
268.519459
 30
0.0
 10
21.396636
 20
267.777362
 30
0.0
 10
21.238780
 20
267.355566
 30
0.0
 10
21.190880
 20
267.227573
 30
0.0
 11
22.639024
 21
269.179990
 31
0.0
 11
21.811129
 21
268.426511
 31
0.0
 11
21.340100
 21
267.610107
 31
0.0
 11
21.190880
 21
267.227573
 31
0.0
  0
SPLINE
  5
200
100
AcDbEntity
  8
0
 62
5
100
AcDbSpline
 70
0
 71
3
 72
10
 73
6
 74
4
 40
0.000000
 40
0.000000
 40
0.000000
 40
0.000000
 40
0.410609
 40
1.353155
 40
2.472597
 40
2.472597
 40
2.472597
 40
2.472597
 10
8.366234
 20
241.691159
 30
0.0
 10
8.231438
 20
241.668645
 30
0.0
 10
7.787222
 20
241.594454
 30
0.0
 10
6.945571
 20
241.568037
 30
0.0
 10
6.301157
 20
241.827966
 30
0.0
 10
5.951309
 20
241.969080
 30
0.0
 11
8.366234
 21
241.691159
 31
0.0
 11
7.960338
 21
241.629120
 31
0.0
 11
7.017793
 21
241.628841
 31
0.0
 11
5.951309
 21
241.969080
 31
0.0
  0
SPLINE
  5
201
100
AcDbEntity
  8
0
 62
5
100
AcDbSpline
 70
0
 71
3
 72
10
 73
6
 74
4
 40
0.000000
 40
0.000000
 40
0.000000
 40
0.000000
 40
1.876904
 40
3.849817
 40
5.726720
 40
5.726720
 40
5.726720
 40
5.726720
 10
5.951309
 20
241.969080
 30
0.0
 10
5.488302
 20
242.397784
 30
0.0
 10
4.538604
 20
243.277121
 30
0.0
 10
3.850829
 20
245.166766
 30
0.0
 10
4.013113
 20
246.450832
 30
0.0
 10
4.092232
 20
247.076853
 30
0.0
 11
5.951309
 21
241.969080
 31
0.0
 11
4.678122
 21
243.348124
 31
0.0
 11
4.003346
 21
245.202056
 31
0.0
 11
4.092232
 21
247.076853
 31
0.0
  0
LWPOLYLINE
  5
202
100
AcDbEntity
  8
0
 62
5
100
AcDbPolyline
 90
4
 70
0
 10
10.503860
 20
236.877582
 30
0.0
 10
8.334936
 20
242.836651
 30
0.0
 10
7.994418
 20
242.712713
 30
0.0
 10
8.366234
 20
241.691159
 30
0.0
  0
LWPOLYLINE
  5
203
100
AcDbEntity
  8
0
 62
5
100
AcDbPolyline
 90
4
 70
0
 10
5.763525
 20
248.842040
 30
0.0
 10
6.135341
 20
247.820483
 30
0.0
 10
6.475859
 20
247.944424
 30
0.0
 10
4.306935
 20
253.903493
 30
0.0
  0
LWPOLYLINE
  5
204
100
AcDbEntity
  8
0
 62
1
100
AcDbPolyline
 90
2
 70
0
 10
7.901151
 20
244.028464
 30
0.0
 10
6.909644
 20
246.752611
 30
0.0
  0
LWPOLYLINE
  5
205
100
AcDbEntity
  8
0
 62
5
100
AcDbPolyline
 90
4
 70
0
 10
28.347264
 20
233.731309
 30
0.0
 10
24.180791
 20
230.970318
 30
0.0
 10
13.474749
 20
232.858083
 30
0.0
 10
10.503860
 20
236.877582
 30
0.0
  0
LWPOLYLINE
  5
206
100
AcDbEntity
  8
0
 62
5
100
AcDbPolyline
 90
4
 70
0
 10
23.445499
 20
235.147568
 30
0.0
 10
22.574449
 20
234.381250
 30
0.0
 10
16.150824
 20
235.513907
 30
0.0
 10
15.594401
 20
236.531927
 30
0.0
  0
LWPOLYLINE
  5
207
100
AcDbEntity
  8
0
 62
1
100
AcDbPolyline
 90
2
 70
0
 10
28.347264
 20
233.731309
 30
0.0
 10
23.351111
 20
234.612266
 30
0.0
  0
LWPOLYLINE
  5
208
100
AcDbEntity
  8
0
 62
1
100
AcDbPolyline
 90
2
 70
0
 10
10.503860
 20
236.877582
 30
0.0
 10
15.500013
 20
235.996625
 30
0.0
  0
SPLINE
  5
209
100
AcDbEntity
  8
0
 62
5
100
AcDbSpline
 70
0
 71
3
 72
10
 73
6
 74
4
 40
0.000000
 40
0.000000
 40
0.000000
 40
0.000000
 40
1.119443
 40
2.061989
 40
2.472598
 40
2.472598
 40
2.472598
 40
2.472598
 10
4.092232
 20
247.076853
 30
0.0
 10
4.269524
 20
247.409832
 30
0.0
 10
4.596093
 20
248.023171
 30
0.0
 10
5.257816
 20
248.543938
 30
0.0
 10
5.645795
 20
248.772641
 30
0.0
 10
5.763525
 20
248.842040
 30
0.0
 11
4.092232
 21
247.076853
 31
0.0
 11
4.690503
 21
248.023016
 31
0.0
 11
5.412714
 21
248.628660
 31
0.0
 11
5.763525
 21
248.842040
 31
0.0
  0
SPLINE
  5
20a
100
AcDbEntity
  8
0
 62
5
100
AcDbSpline
 70
0
 71
3
 72
10
 73
6
 74
4
 40
0.000000
 40
0.000000
 40
0.000000
 40
0.000000
 40
0.180063
 40
0.695685
 40
1.557358
 40
1.557358
 40
1.557358
 40
1.557358
 10
34.564503
 20
240.577010
 30
0.0
 10
34.589675
 20
240.522437
 30
0.0
 10
34.686925
 20
240.311589
 30
0.0
 10
34.774274
 20
239.789799
 30
0.0
 10
34.727660
 20
239.331918
 30
0.0
 10
34.698497
 20
239.045455
 30
0.0
 11
34.564503
 21
240.577010
 31
0.0
 11
34.636116
 21
240.411800
 31
0.0
 11
34.737504
 21
239.906245
 31
0.0
 11
34.698497
 21
239.045455
 31
0.0
  0
SPLINE
  5
20b
100
AcDbEntity
  8
0
 62
5
100
AcDbSpline
 70
0
 71
3
 72
10
 73
6
 74
4
 40
0.000000
 40
0.000000
 40
0.000000
 40
0.000000
 40
1.678566
 40
3.460356
 40
5.104279
 40
5.104279
 40
5.104279
 40
5.104279
 10
34.698497
 20
239.045455
 30
0.0
 10
34.499690
 20
238.522333
 30
0.0
 10
34.089850
 20
237.443921
 30
0.0
 10
33.393637
 20
235.890596
 30
0.0
 10
32.900832
 20
234.860553
 30
0.0
 10
32.664346
 20
234.366259
 30
0.0
 11
34.698497
 21
239.045455
 31
0.0
 11
34.087453
 21
237.482058
 31
0.0
 11
33.367922
 21
235.852012
 31
0.0
 11
32.664346
 21
234.366259
 31
0.0
  0
LWPOLYLINE
  5
20c
100
AcDbEntity
  8
0
 62
5
100
AcDbPolyline
 90
4
 70
0
 10
39.993624
 20
247.610933
 30
0.0
 10
33.588130
 20
239.977164
 30
0.0
 10
33.865721
 20
239.744234
 30
0.0
 10
34.564503
 20
240.577010
 30
0.0
  0
LWPOLYLINE
  5
20d
100
AcDbEntity
  8
0
 62
5
100
AcDbPolyline
 90
4
 70
0
 10
29.673034
 20
234.747586
 30
0.0
 10
30.371816
 20
235.580359
 30
0.0
 10
30.094222
 20
235.813288
 30
0.0
 10
28.347269
 20
233.731349
 30
0.0
  0
LWPOLYLINE
  5
20e
100
AcDbEntity
  8
0
 62
1
100
AcDbPolyline
 90
2
 70
0
 10
32.772883
 20
239.005591
 30
0.0
 10
30.909469
 20
236.784858
 30
0.0
  0
LWPOLYLINE
  5
20f
100
AcDbEntity
  8
0
 62
5
100
AcDbPolyline
 90
7
 70
0
 10
39.993584
 20
247.610964
 30
0.0
 10
40.035824
 20
245.763699
 30
0.0
 10
41.851628
 20
245.627507
 30
0.0
 10
42.785603
 20
246.750695
 30
0.0
 10
42.428736
 20
246.813619
 30
0.0
 10
42.491660
 20
247.170486
 30
0.0
 10
57.836988
 20
244.464692
 30
0.0
  0
LWPOLYLINE
  5
210
100
AcDbEntity
  8
0
 62
1
100
AcDbPolyline
 90
2
 70
0
 10
40.707321
 20
247.485113
 30
0.0
 10
41.777926
 20
247.296337
 30
0.0
  0
LWPOLYLINE
  5
211
100
AcDbEntity
  8
0
 62
5
100
AcDbPolyline
 90
8
 70
0
 10
57.836997
 20
244.464731
 30
0.0
 10
45.161731
 20
244.022102
 30
0.0
 10
44.755316
 20
245.276981
 30
0.0
 10
42.938243
 20
245.394823
 30
0.0
 10
42.070805
 20
244.276754
 30
0.0
 10
42.432955
 20
244.289398
 30
0.0
 10
42.445599
 20
243.927248
 30
0.0
 10
39.729469
 20
243.832398
 30
0.0
  0
LWPOLYLINE
  5
212
100
AcDbEntity
  8
0
 62
1
100
AcDbPolyline
 90
2
 70
0
 10
44.437430
 20
243.996807
 30
0.0
 10
43.169905
 20
243.952546
 30
0.0
  0
LWPOLYLINE
  5
213
100
AcDbEntity
  8
0
 62
5
100
AcDbPolyline
 90
5
 70
0
 10
34.735409
 20
226.415672
 30
0.0
 10
32.099862
 20
229.056247
 30
0.0
 10
36.315458
 20
239.156515
 30
0.0
 10
38.730671
 20
240.348808
 30
0.0
 10
39.729486
 20
243.832091
 30
0.0
  0
LWPOLYLINE
  5
214
100
AcDbEntity
  8
0
 62
5
100
AcDbPolyline
 90
4
 70
0
 10
35.657429
 20
227.659163
 30
0.0
 10
34.986369
 20
228.605524
 30
0.0
 10
36.784238
 20
234.875435
 30
0.0
 10
37.854822
 20
235.322388
 30
0.0
  0
LWPOLYLINE
  5
215
100
AcDbEntity
  8
0
 62
1
100
AcDbPolyline
 90
2
 70
0
 10
34.735409
 20
226.415672
 30
0.0
 10
35.134934
 20
227.808986
 30
0.0
  0
LWPOLYLINE
  5
216
100
AcDbEntity
  8
0
 62
1
100
AcDbPolyline
 90
2
 70
0
 10
38.730671
 20
240.348808
 30
0.0
 10
37.332330
 20
235.472211
 30
0.0
  0
SPLINE
  5
217
100
AcDbEntity
  8
0
 62
5
100
AcDbSpline
 70
0
 71
3
 72
10
 73
6
 74
4
 40
0.000000
 40
0.000000
 40
0.000000
 40
0.000000
 40
1.281083
 40
2.491461
 40
3.035182
 40
3.035182
 40
3.035182
 40
3.035182
 10
32.664346
 20
234.366259
 30
0.0
 10
32.235866
 20
234.345353
 30
0.0
 10
31.402554
 20
234.304697
 30
0.0
 10
30.407476
 20
234.532501
 30
0.0
 10
29.846821
 20
234.696691
 30
0.0
 10
29.673034
 20
234.747586
 30
0.0
 11
32.664346
 21
234.366259
 31
0.0
 11
31.383265
 21
234.363732
 31
0.0
 11
30.195781
 21
234.598029
 31
0.0
 11
29.673034
 21
234.747586
 31
0.0
  0
SPLINE
  5
218
100
AcDbEntity
  8
0
 62
5
100
AcDbSpline
 70
0
 71
3
 72
10
 73
6
 74
4
 40
0.000000
 40
0.000000
 40
0.000000
 40
0.000000
 40
0.180061
 40
0.695677
 40
1.557340
 40
1.557340
 40
1.557340
 40
1.557340
 10
42.193255
 20
220.948161
 30
0.0
 10
42.141613
 20
220.917424
 30
0.0
 10
41.942088
 20
220.798668
 30
0.0
 10
41.432293
 20
220.657257
 30
0.0
 10
40.972053
 20
220.655754
 30
0.0
 10
40.684114
 20
220.654814
 30
0.0
 11
42.193255
 21
220.948161
 31
0.0
 11
42.036438
 21
220.859673
 31
0.0
 11
41.544256
 21
220.705996
 31
0.0
 11
40.684114
 21
220.654814
 31
0.0
  0
SPLINE
  5
219
100
AcDbEntity
  8
0
 62
5
100
AcDbSpline
 70
0
 71
3
 72
10
 73
6
 74
4
 40
0.000000
 40
0.000000
 40
0.000000
 40
0.000000
 40
1.678545
 40
3.460314
 40
5.104217
 40
5.104217
 40
5.104217
 40
5.104217
 10
40.684114
 20
220.654814
 30
0.0
 10
40.143084
 20
220.797849
 30
0.0
 10
39.027753
 20
221.092715
 30
0.0
 10
37.410182
 20
221.622741
 30
0.0
 10
36.334282
 20
222.005171
 30
0.0
 10
35.817982
 20
222.188691
 30
0.0
 11
40.684114
 21
220.654814
 31
0.0
 11
39.065430
 21
221.099086
 31
0.0
 11
37.369123
 21
221.644281
 31
0.0
 11
35.817982
 21
222.188691
 31
0.0
  0
LWPOLYLINE
  5
21a
100
AcDbEntity
  8
0
 62
5
100
AcDbPolyline
 90
4
 70
0
 10
49.756052
 20
216.284083
 30
0.0
 10
41.494642
 20
221.856473
 30
0.0
 10
41.292010
 20
221.556059
 30
0.0
 10
42.193255
 20
220.948161
 30
0.0
  0
LWPOLYLINE
  5
21b
100
AcDbEntity
  8
0
 62
5
100
AcDbPolyline
 90
4
 70
0
 10
35.884544
 20
225.203440
 30
0.0
 10
36.785787
 20
224.595545
 30
0.0
 10
36.988420
 20
224.895959
 30
0.0
 10
34.735310
 20
226.415703
 30
0.0
  0
LWPOLYLINE
  5
21c
100
AcDbEntity
  8
0
 62
1
100
AcDbPolyline
 90
2
 70
0
 10
40.443192
 20
222.565687
 30
0.0
 10
38.039873
 20
224.186746
 30
0.0
  0
LWPOLYLINE
  5
21d
100
AcDbEntity
  8
0
 62
5
100
AcDbPolyline
 90
7
 70
0
 10
49.756108
 20
216.284171
 30
0.0
 10
51.157149
 20
215.079505
 30
0.0
 10
52.473363
 20
216.337773
 30
0.0
 10
52.263624
 20
217.783400
 30
0.0
 10
51.978072
 20
217.560303
 30
0.0
 10
51.754975
 20
217.845856
 30
0.0
 10
64.033727
 20
227.439069
 30
0.0
  0
LWPOLYLINE
  5
21e
100
AcDbEntity
  8
0
 62
1
100
AcDbPolyline
 90
2
 70
0
 10
50.327213
 20
216.730367
 30
0.0
 10
51.183870
 20
217.399660
 30
0.0
  0
LWPOLYLINE
  5
21f
100
AcDbEntity
  8
0
 62
5
100
AcDbPolyline
 90
8
 70
0
 10
64.033922
 20
227.438821
 30
0.0
 10
55.881405
 20
217.723027
 30
0.0
 10
54.676895
 20
218.260686
 30
0.0
 10
53.373455
 20
216.989179
 30
0.0
 10
53.623913
 20
215.596406
 30
0.0
 10
53.856842
 20
215.874000
 30
0.0
 10
54.134436
 20
215.641071
 30
0.0
 10
52.387469
 20
213.559118
 30
0.0
  0
LWPOLYLINE
  5
220
100
AcDbEntity
  8
0
 62
1
100
AcDbPolyline
 90
2
 70
0
 10
55.415547
 20
217.167840
 30
0.0
 10
54.600294
 20
216.196261
 30
0.0
  0
LWPOLYLINE
  5
221
100
AcDbEntity
  8
0
 62
5
100
AcDbPolyline
 90
5
 70
0
 10
34.544186
 20
216.705390
 30
0.0
 10
36.894835
 20
219.602548
 30
0.0
 10
47.380548
 20
216.465775
 30
0.0
 10
48.818786
 20
214.188391
 30
0.0
 10
52.387435
 20
213.559143
 30
0.0
  0
LWPOLYLINE
  5
222
100
AcDbEntity
  8
0
 62
5
100
AcDbPolyline
 90
4
 70
0
 10
35.877260
 20
215.918391
 30
0.0
 10
36.748302
 20
216.684703
 30
0.0
 10
43.171872
 20
215.552055
 30
0.0
 10
43.728287
 20
214.534043
 30
0.0
  0
LWPOLYLINE
  5
223
100
AcDbEntity
  8
0
 62
1
100
AcDbPolyline
 90
2
 70
0
 10
34.544186
 20
216.705390
 30
0.0
 10
35.971647
 20
216.453690
 30
0.0
  0
LWPOLYLINE
  5
224
100
AcDbEntity
  8
0
 62
1
100
AcDbPolyline
 90
2
 70
0
 10
48.818786
 20
214.188391
 30
0.0
 10
43.822676
 20
215.069342
 30
0.0
  0
SPLINE
  5
225
100
AcDbEntity
  8
0
 62
5
100
AcDbSpline
 70
0
 71
3
 72
10
 73
6
 74
4
 40
0.000000
 40
0.000000
 40
0.000000
 40
0.000000
 40
1.281069
 40
2.491431
 40
3.035144
 40
3.035144
 40
3.035144
 40
3.035144
 10
35.817982
 20
222.188691
 30
0.0
 10
35.752405
 20
222.612635
 30
0.0
 10
35.624869
 20
223.437122
 30
0.0
 10
35.747409
 20
224.450548
 30
0.0
 10
35.852095
 20
225.025287
 30
0.0
 10
35.884544
 20
225.203440
 30
0.0
 11
35.817982
 21
222.188691
 31
0.0
 11
35.681563
 21
223.462476
 31
0.0
 11
35.790450
 21
224.667930
 31
0.0
 11
35.884544
 21
225.203440
 31
0.0
  0
SPLINE
  5
226
100
AcDbEntity
  8
0
 62
5
100
AcDbSpline
 70
0
 71
3
 72
10
 73
6
 74
4
 40
0.000000
 40
0.000000
 40
0.000000
 40
0.000000
 40
0.410611
 40
1.353160
 40
2.472607
 40
2.472607
 40
2.472607
 40
2.472607
 10
25.997619
 20
207.083774
 30
0.0
 10
25.910724
 20
207.189255
 30
0.0
 10
25.624363
 20
207.536863
 30
0.0
 10
25.180659
 20
208.252549
 30
0.0
 10
25.083557
 20
208.940595
 30
0.0
 10
25.030842
 20
209.314131
 30
0.0
 11
25.997619
 21
207.083774
 31
0.0
 11
25.740943
 21
207.404272
 31
0.0
 11
25.269428
 21
208.220405
 31
0.0
 11
25.030842
 21
209.314131
 31
0.0
  0
SPLINE
  5
227
100
AcDbEntity
  8
0
 62
5
100
AcDbSpline
 70
0
 71
3
 72
10
 73
6
 74
4
 40
0.000000
 40
0.000000
 40
0.000000
 40
0.000000
 40
1.876912
 40
3.849833
 40
5.726744
 40
5.726744
 40
5.726744
 40
5.726744
 10
25.030842
 20
209.314131
 30
0.0
 10
25.170607
 20
209.929462
 30
0.0
 10
25.457288
 20
211.191598
 30
0.0
 10
26.749887
 20
212.732057
 30
0.0
 10
27.943067
 20
213.233550
 30
0.0
 10
28.524779
 20
213.478044
 30
0.0
 11
25.030842
 21
209.314131
 31
0.0
 11
25.588537
 21
211.106273
 31
0.0
 11
26.856707
 21
212.617619
 31
0.0
 11
28.524779
 21
213.478044
 31
0.0
  0
LWPOLYLINE
  5
228
100
AcDbEntity
  8
0
 62
5
100
AcDbPolyline
 90
4
 70
0
 10
22.897741
 20
202.825732
 30
0.0
 10
26.974000
 20
207.683629
 30
0.0
 10
26.696406
 20
207.916558
 30
0.0
 10
25.997619
 20
207.083774
 30
0.0
  0
LWPOLYLINE
  5
229
100
AcDbEntity
  8
0
 62
5
100
AcDbPolyline
 90
4
 70
0
 10
30.889129
 20
212.913252
 30
0.0
 10
30.190341
 20
212.080468
 30
0.0
 10
30.467938
 20
211.847539
 30
0.0
 10
34.544195
 20
216.705435
 30
0.0
  0
LWPOLYLINE
  5
22a
100
AcDbEntity
  8
0
 62
1
100
AcDbPolyline
 90
2
 70
0
 10
27.789252
 20
208.655207
 30
0.0
 10
29.652685
 20
210.875960
 30
0.0
  0
LWPOLYLINE
  5
22b
100
AcDbEntity
  8
0
 62
5
100
AcDbPolyline
 90
4
 70
0
 10
29.094633
 20
185.799850
 30
0.0
 10
24.620326
 20
188.027616
 30
0.0
 10
20.902171
 20
198.243163
 30
0.0
 10
22.897709
 20
202.825761
 30
0.0
  0
LWPOLYLINE
  5
22c
100
AcDbEntity
  8
0
 62
5
100
AcDbPolyline
 90
4
 70
0
 10
27.870272
 20
190.753014
 30
0.0
 10
26.771099
 20
191.124204
 30
0.0
 10
24.540206
 20
197.253531
 30
0.0
 10
25.143625
 20
198.244413
 30
0.0
  0
LWPOLYLINE
  5
22d
100
AcDbEntity
  8
0
 62
1
100
AcDbPolyline
 90
2
 70
0
 10
29.094633
 20
185.799850
 30
0.0
 10
27.359494
 20
190.567105
 30
0.0
  0
LWPOLYLINE
  5
22e
100
AcDbEntity
  8
0
 62
1
100
AcDbPolyline
 90
2
 70
0
 10
22.897709
 20
202.825761
 30
0.0
 10
24.632848
 20
198.058505
 30
0.0
  0
SPLINE
  5
22f
100
AcDbEntity
  8
0
 62
5
100
AcDbSpline
 70
0
 71
3
 72
10
 73
6
 74
4
 40
0.000000
 40
0.000000
 40
0.000000
 40
0.000000
 40
1.119446
 40
2.061995
 40
2.472605
 40
2.472605
 40
2.472605
 40
2.472605
 10
28.524779
 20
213.478044
 30
0.0
 10
28.901794
 20
213.490993
 30
0.0
 10
29.596247
 20
213.514844
 30
0.0
 10
30.378109
 20
213.202158
 30
0.0
 10
30.770162
 20
212.980510
 30
0.0
 10
30.889129
 20
212.913252
 30
0.0
 11
28.524779
 21
213.478044
 31
0.0
 11
29.643319
 21
213.433005
 31
0.0
 11
30.528929
 21
213.110374
 31
0.0
 11
30.889129
 21
212.913252
 31
0.0
  0
SPLINE
  5
230
100
AcDbEntity
  8
0
 62
5
100
AcDbSpline
 70
0
 71
3
 72
10
 73
6
 74
4
 40
0.000000
 40
0.000000
 40
0.000000
 40
0.000000
 40
0.410611
 40
1.353161
 40
2.472608
 40
2.472608
 40
2.472608
 40
2.472608
 10
41.700526
 20
183.209129
 30
0.0
 10
41.652625
 20
183.081136
 30
0.0
 10
41.494767
 20
182.659336
 30
0.0
 10
41.096816
 20
181.917233
 30
0.0
 10
40.549502
 20
181.489117
 30
0.0
 10
40.252368
 20
181.256696
 30
0.0
 11
41.700526
 21
183.209129
 31
0.0
 11
41.551305
 21
182.826592
 31
0.0
 11
41.080270
 21
182.010182
 31
0.0
 11
40.252368
 21
181.256696
 31
0.0
  0
SPLINE
  5
231
100
AcDbEntity
  8
0
 62
5
100
AcDbSpline
 70
0
 71
3
 72
10
 73
6
 74
4
 40
0.000000
 40
0.000000
 40
0.000000
 40
0.000000
 40
1.876911
 40
3.849833
 40
5.726744
 40
5.726744
 40
5.726744
 40
5.726744
 10
40.252368
 20
181.256696
 30
0.0
 10
39.649593
 20
181.070071
 30
0.0
 10
38.413211
 20
180.687276
 30
0.0
 10
36.432835
 20
181.036470
 30
0.0
 10
35.401939
 20
181.819049
 30
0.0
 10
34.899346
 20
182.200580
 30
0.0
 11
40.252368
 21
181.256696
 31
0.0
 11
38.421480
 21
180.843604
 31
0.0
 11
36.478531
 21
181.186199
 31
0.0
 11
34.899346
 21
182.200580
 31
0.0
  0
LWPOLYLINE
  5
232
100
AcDbEntity
  8
0
 62
5
100
AcDbPolyline
 90
4
 70
0
 10
46.938037
 20
182.653577
 30
0.0
 10
40.692846
 20
183.754772
 30
0.0
 10
40.629922
 20
183.397905
 30
0.0
 10
41.700526
 20
183.209129
 30
0.0
  0
LWPOLYLINE
  5
233
100
AcDbEntity
  8
0
 62
5
100
AcDbPolyline
 90
4
 70
0
 10
34.206296
 20
184.530564
 30
0.0
 10
35.276900
 20
184.341788
 30
0.0
 10
35.339824
 20
184.698655
 30
0.0
 10
29.094633
 20
185.799850
 30
0.0
  0
LWPOLYLINE
  5
234
100
AcDbEntity
  8
0
 62
1
100
AcDbPolyline
 90
2
 70
0
 10
39.443807
 20
183.975012
 30
0.0
 10
36.588864
 20
184.478415
 30
0.0
  0
LWPOLYLINE
  5
235
100
AcDbEntity
  8
0
 62
5
100
AcDbPolyline
 90
5
 70
0
 10
46.938043
 20
182.653620
 30
0.0
 10
50.601005
 20
181.945236
 30
0.0
 10
56.617246
 20
191.088231
 30
0.0
 10
56.255127
 20
193.757286
 30
0.0
 10
58.584397
 20
196.533204
 30
0.0
  0
LWPOLYLINE
  5
236
100
AcDbEntity
  8
0
 62
5
100
AcDbPolyline
 90
4
 70
0
 10
47.453364
 20
184.113377
 30
0.0
 10
48.613198
 20
184.086256
 30
0.0
 10
52.805886
 20
189.082904
 30
0.0
 10
52.577760
 20
190.220407
 30
0.0
  0
LWPOLYLINE
  5
237
100
AcDbEntity
  8
0
 62
1
100
AcDbPolyline
 90
2
 70
0
 10
46.938043
 20
182.653620
 30
0.0
 10
47.869752
 20
183.763986
 30
0.0
  0
LWPOLYLINE
  5
238
100
AcDbEntity
  8
0
 62
1
100
AcDbPolyline
 90
2
 70
0
 10
56.255127
 20
193.757286
 30
0.0
 10
52.994148
 20
189.871004
 30
0.0
  0
LWPOLYLINE
  5
239
100
AcDbEntity
  8
0
 62
5
100
AcDbPolyline
 90
8
 70
0
 10
76.427762
 20
193.386960
 30
0.0
 10
63.937380
 20
195.589351
 30
0.0
 10
63.360272
 20
194.403239
 30
0.0
 10
61.544468
 20
194.539431
 30
0.0
 10
60.841074
 20
195.767349
 30
0.0
 10
61.197944
 20
195.704425
 30
0.0
 10
61.260869
 20
196.061292
 30
0.0
 10
58.584358
 20
196.533232
 30
0.0
  0
LWPOLYLINE
  5
23a
100
AcDbEntity
  8
0
 62
1
100
AcDbPolyline
 90
2
 70
0
 10
63.223642
 20
195.715203
 30
0.0
 10
61.974606
 20
195.935440
 30
0.0
  0
LWPOLYLINE
  5
23b
100
AcDbEntity
  8
0
 62
5
100
AcDbPolyline
 90
7
 70
0
 10
58.320249
 20
192.754672
 30
0.0
 10
58.619167
 20
194.578073
 30
0.0
 10
60.436241
 20
194.460231
 30
0.0
 10
61.204805
 20
193.217996
 30
0.0
 10
60.842655
 20
193.205353
 30
0.0
 10
60.855298
 20
192.843202
 30
0.0
 10
76.427767
 20
193.387005
 30
0.0
  0
LWPOLYLINE
  5
23c
100
AcDbEntity
  8
0
 62
1
100
AcDbPolyline
 90
2
 70
0
 10
59.044549
 20
192.779967
 30
0.0
 10
60.131000
 20
192.817907
 30
0.0
  0
SPLINE
  5
23d
100
AcDbEntity
  8
0
 62
5
100
AcDbSpline
 70
0
 71
3
 72
10
 73
6
 74
4
 40
0.000000
 40
0.000000
 40
0.000000
 40
0.000000
 40
1.119446
 40
2.061995
 40
2.472606
 40
2.472606
 40
2.472606
 40
2.472606
 10
34.899346
 20
182.200580
 30
0.0
 10
34.699624
 20
182.520610
 30
0.0
 10
34.331741
 20
183.110098
 30
0.0
 10
34.211605
 20
183.943554
 30
0.0
 10
34.207532
 20
184.393906
 30
0.0
 10
34.206296
 20
184.530564
 30
0.0
 11
34.899346
 21
182.200580
 31
0.0
 11
34.379081
 21
183.191782
 31
0.0
 11
34.215683
 21
184.120060
 31
0.0
 11
34.206296
 21
184.530564
 31
0.0
  0
SPLINE
  5
23e
100
AcDbEntity
  8
0
 62
5
100
AcDbSpline
 70
0
 71
3
 72
10
 73
6
 74
4
 40
0.000000
 40
0.000000
 40
0.000000
 40
0.000000
 40
0.180062
 40
0.695680
 40
1.557339
 40
1.557339
 40
1.557339
 40
1.557339
 10
55.524835
 20
184.320198
 30
0.0
 10
55.465516
 20
184.310548
 30
0.0
 10
55.236336
 20
184.273264
 30
0.0
 10
54.754915
 20
184.053900
 30
0.0
 10
54.401383
 20
183.759218
 30
0.0
 10
54.180204
 20
183.574858
 30
0.0
 11
55.524835
 21
184.320198
 31
0.0
 11
55.347826
 21
184.287181
 31
0.0
 11
54.872010
 21
184.088532
 31
0.0
 11
54.180204
 21
183.574858
 31
0.0
  0
SPLINE
  5
23f
100
AcDbEntity
  8
0
 62
5
100
AcDbSpline
 70
0
 71
3
 72
10
 73
6
 74
4
 40
0.000000
 40
0.000000
 40
0.000000
 40
0.000000
 40
1.678545
 40
3.460312
 40
5.104215
 40
5.104215
 40
5.104215
 40
5.104215
 10
54.180204
 20
183.574858
 30
0.0
 10
53.857692
 20
183.117519
 30
0.0
 10
53.192836
 20
182.174718
 30
0.0
 10
52.294398
 20
180.728941
 30
0.0
 10
51.716035
 20
179.744407
 30
0.0
 10
51.438491
 20
179.271951
 30
0.0
 11
54.180204
 21
183.574858
 31
0.0
 11
53.225793
 21
182.194056
 31
0.0
 11
52.276792
 21
180.686047
 31
0.0
 11
51.438491
 21
179.271951
 31
0.0
  0
LWPOLYLINE
  5
240
100
AcDbEntity
  8
0
 62
5
100
AcDbPolyline
 90
4
 70
0
 10
58.320260
 20
192.754361
 30
0.0
 10
55.573518
 20
183.175333
 30
0.0
 10
55.225188
 20
183.275214
 30
0.0
 10
55.524835
 20
184.320198
 30
0.0
  0
LWPOLYLINE
  5
241
100
AcDbEntity
  8
0
 62
5
100
AcDbPolyline
 90
4
 70
0
 10
53.427322
 20
177.005303
 30
0.0
 10
53.726966
 20
178.050287
 30
0.0
 10
54.075293
 20
177.950406
 30
0.0
 10
53.326182
 20
175.337943
 30
0.0
  0
LWPOLYLINE
  5
242
100
AcDbEntity
  8
0
 62
1
100
AcDbPolyline
 90
2
 70
0
 10
55.223932
 20
181.956184
 30
0.0
 10
54.424879
 20
179.169555
 30
0.0
  0
LWPOLYLINE
  5
243
100
AcDbEntity
  8
0
 62
5
100
AcDbPolyline
 90
5
 70
0
 10
53.326081
 20
175.337974
 30
0.0
 10
53.004460
 20
171.621017
 30
0.0
 10
62.726276
 20
166.593417
 30
0.0
 10
65.342872
 20
167.232546
 30
0.0
 10
68.347068
 20
165.206190
 30
0.0
  0
LWPOLYLINE
  5
244
100
AcDbEntity
  8
0
 62
5
100
AcDbPolyline
 90
4
 70
0
 10
54.831714
 20
174.978061
 30
0.0
 10
54.925965
 20
173.821740
 30
0.0
 10
60.333520
 20
170.174298
 30
0.0
 10
61.440949
 20
170.520076
 30
0.0
  0
LWPOLYLINE
  5
245
100
AcDbEntity
  8
0
 62
1
100
AcDbPolyline
 90
2
 70
0
 10
53.326081
 20
175.337974
 30
0.0
 10
54.527760
 20
174.527431
 30
0.0
  0
LWPOLYLINE
  5
246
100
AcDbEntity
  8
0
 62
1
100
AcDbPolyline
 90
2
 70
0
 10
65.342872
 20
167.232546
 30
0.0
 10
61.136996
 20
170.069446
 30
0.0
  0
LWPOLYLINE
  5
247
100
AcDbEntity
  8
0
 62
5
100
AcDbPolyline
 90
8
 70
0
 10
82.624716
 20
176.361069
 30
0.0
 10
72.630321
 20
168.552592
 30
0.0
 10
73.125615
 20
167.330051
 30
0.0
 10
71.809393
 20
166.071777
 30
0.0
 10
70.426210
 20
166.370693
 30
0.0
 10
70.711763
 20
166.593792
 30
0.0
 10
70.488663
 20
166.879345
 30
0.0
 10
68.347009
 20
165.206100
 30
0.0
  0
LWPOLYLINE
  5
248
100
AcDbEntity
  8
0
 62
1
100
AcDbPolyline
 90
2
 70
0
 10
72.059213
 20
168.106393
 30
0.0
 10
71.059771
 20
167.325544
 30
0.0
  0
LWPOLYLINE
  5
249
100
AcDbEntity
  8
0
 62
5
100
AcDbPolyline
 90
7
 70
0
 10
70.978243
 20
162.481388
 30
0.0
 10
69.823200
 20
163.923626
 30
0.0
 10
71.126644
 20
165.195133
 30
0.0
 10
72.564080
 20
164.935068
 30
0.0
 10
72.331151
 20
164.657474
 30
0.0
 10
72.608745
 20
164.424545
 30
0.0
 10
82.624696
 20
176.361091
 30
0.0
  0
LWPOLYLINE
  5
24a
100
AcDbEntity
  8
0
 62
1
100
AcDbPolyline
 90
2
 70
0
 10
71.444098
 20
163.036576
 30
0.0
 10
72.142886
 20
163.869357
 30
0.0
  0
SPLINE
  5
24b
100
AcDbEntity
  8
0
 62
5
100
AcDbSpline
 70
0
 71
3
 72
10
 73
6
 74
4
 40
0.000000
 40
0.000000
 40
0.000000
 40
0.000000
 40
1.281069
 40
2.491431
 40
3.035145
 40
3.035145
 40
3.035145
 40
3.035145
 10
51.438491
 20
179.271951
 30
0.0
 10
51.660761
 20
178.905039
 30
0.0
 10
52.093032
 20
178.191466
 30
0.0
 10
52.838321
 20
177.493903
 30
0.0
 10
53.287950
 20
177.120918
 30
0.0
 10
53.427322
 20
177.005303
 30
0.0
 11
51.438491
 21
179.271951
 31
0.0
 11
52.152760
 21
178.208486
 31
0.0
 11
53.011022
 21
177.355045
 31
0.0
 11
53.427322
 21
177.005303
 31
0.0
  0
SPLINE
  5
24c
100
AcDbEntity
  8
0
 62
5
100
AcDbSpline
 70
0
 71
3
 72
10
 73
6
 74
4
 40
0.000000
 40
0.000000
 40
0.000000
 40
0.000000
 40
0.180063
 40
0.695685
 40
1.557358
 40
1.557358
 40
1.557358
 40
1.557358
 10
62.297942
 20
164.379942
 30
0.0
 10
62.282145
 20
164.437928
 30
0.0
 10
62.221113
 20
164.661958
 30
0.0
 10
61.952626
 20
165.117819
 30
0.0
 10
61.622597
 20
165.438613
 30
0.0
 10
61.416122
 20
165.639311
 30
0.0
 11
62.297942
 21
164.379942
 31
0.0
 11
62.246605
 21
164.552532
 31
0.0
 11
61.999308
 21
165.004981
 31
0.0
 11
61.416122
 21
165.639311
 31
0.0
  0
SPLINE
  5
24d
100
AcDbEntity
  8
0
 62
5
100
AcDbSpline
 70
0
 71
3
 72
10
 73
6
 74
4
 40
0.000000
 40
0.000000
 40
0.000000
 40
0.000000
 40
1.678567
 40
3.460356
 40
5.104277
 40
5.104277
 40
5.104277
 40
5.104277
 10
61.416122
 20
165.639311
 30
0.0
 10
60.927571
 20
165.912255
 30
0.0
 10
59.920425
 20
166.474928
 30
0.0
 10
58.388637
 20
167.217326
 30
0.0
 10
57.349029
 20
167.689616
 30
0.0
 10
56.850145
 20
167.916257
 30
0.0
 11
61.416122
 21
165.639311
 31
0.0
 11
59.943102
 21
166.444171
 31
0.0
 11
58.344137
 21
167.230354
 31
0.0
 11
56.850145
 21
167.916257
 31
0.0
  0
LWPOLYLINE
  5
24e
100
AcDbEntity
  8
0
 62
5
100
AcDbPolyline
 90
4
 70
0
 10
70.978209
 20
162.481417
 30
0.0
 10
61.164422
 20
164.211851
 30
0.0
 10
61.227346
 20
164.568718
 30
0.0
 10
62.297942
 20
164.379942
 30
0.0
  0
LWPOLYLINE
  5
24f
100
AcDbEntity
  8
0
 62
5
100
AcDbPolyline
 90
4
 70
0
 10
54.803777
 20
165.701366
 30
0.0
 10
55.874372
 20
165.512590
 30
0.0
 10
55.811448
 20
165.155726
 30
0.0
 10
53.134960
 20
165.627664
 30
0.0
  0
LWPOLYLINE
  5
250
100
AcDbEntity
  8
0
 62
1
100
AcDbPolyline
 90
2
 70
0
 10
59.915394
 20
164.432089
 30
0.0
 10
57.060473
 20
164.935488
 30
0.0
  0
LWPOLYLINE
  5
251
100
AcDbEntity
  8
0
 62
5
100
AcDbPolyline
 90
4
 70
0
 10
41.488515
 20
151.748006
 30
0.0
 10
41.180662
 20
156.736772
 30
0.0
 10
48.168535
 20
165.064597
 30
0.0
 10
53.134968
 20
165.627709
 30
0.0
  0
LWPOLYLINE
  5
252
100
AcDbEntity
  8
0
 62
5
100
AcDbPolyline
 90
4
 70
0
 10
45.165913
 20
155.284931
 30
0.0
 10
44.937787
 20
156.422441
 30
0.0
 10
49.130509
 20
161.419135
 30
0.0
 10
50.290355
 20
161.391985
 30
0.0
  0
LWPOLYLINE
  5
253
100
AcDbEntity
  8
0
 62
1
100
AcDbPolyline
 90
2
 70
0
 10
41.488515
 20
151.748006
 30
0.0
 10
44.749522
 20
155.634322
 30
0.0
  0
LWPOLYLINE
  5
254
100
AcDbEntity
  8
0
 62
1
100
AcDbPolyline
 90
2
 70
0
 10
53.134968
 20
165.627709
 30
0.0
 10
49.873961
 20
161.741393
 30
0.0
  0
SPLINE
  5
255
100
AcDbEntity
  8
0
 62
5
100
AcDbSpline
 70
0
 71
3
 72
10
 73
6
 74
4
 40
0.000000
 40
0.000000
 40
0.000000
 40
0.000000
 40
1.281084
 40
2.491461
 40
3.035182
 40
3.035182
 40
3.035182
 40
3.035182
 10
56.850145
 20
167.916257
 30
0.0
 10
56.508472
 20
167.656850
 30
0.0
 10
55.843984
 20
167.152352
 30
0.0
 10
55.228139
 20
166.338221
 30
0.0
 10
54.904191
 20
165.852062
 30
0.0
 10
54.803777
 20
165.701366
 30
0.0
 11
56.850145
 21
167.916257
 31
0.0
 11
55.867155
 21
167.094729
 31
0.0
 11
55.108091
 21
166.151949
 31
0.0
 11
54.803777
 21
165.701366
 31
0.0
  0
SPLINE
  5
256
100
AcDbEntity
  8
0
 62
5
100
AcDbSpline
 70
0
 71
3
 72
10
 73
6
 74
4
 40
0.000000
 40
0.000000
 40
0.000000
 40
0.000000
 40
0.410609
 40
1.353154
 40
2.472597
 40
2.472597
 40
2.472597
 40
2.472597
 10
45.547780
 20
139.535700
 30
0.0
 10
45.412984
 20
139.513187
 30
0.0
 10
44.968769
 20
139.438995
 30
0.0
 10
44.127117
 20
139.412579
 30
0.0
 10
43.482704
 20
139.672507
 30
0.0
 10
43.132855
 20
139.813621
 30
0.0
 11
45.547780
 21
139.535700
 31
0.0
 11
45.141885
 21
139.473661
 31
0.0
 11
44.199340
 21
139.473382
 31
0.0
 11
43.132855
 21
139.813621
 31
0.0
  0
SPLINE
  5
257
100
AcDbEntity
  8
0
 62
5
100
AcDbSpline
 70
0
 71
3
 72
10
 73
6
 74
4
 40
0.000000
 40
0.000000
 40
0.000000
 40
0.000000
 40
1.876903
 40
3.849817
 40
5.726720
 40
5.726720
 40
5.726720
 40
5.726720
 10
43.132855
 20
139.813621
 30
0.0
 10
42.669848
 20
140.242325
 30
0.0
 10
41.720150
 20
141.121663
 30
0.0
 10
41.032376
 20
143.011308
 30
0.0
 10
41.194660
 20
144.295373
 30
0.0
 10
41.273778
 20
144.921395
 30
0.0
 11
43.132855
 21
139.813621
 31
0.0
 11
41.859668
 21
141.192665
 31
0.0
 11
41.184892
 21
143.046597
 31
0.0
 11
41.273778
 21
144.921395
 31
0.0
  0
LWPOLYLINE
  5
258
100
AcDbEntity
  8
0
 62
5
100
AcDbPolyline
 90
4
 70
0
 10
47.685407
 20
134.722123
 30
0.0
 10
45.516484
 20
140.681192
 30
0.0
 10
45.175966
 20
140.557254
 30
0.0
 10
45.547780
 20
139.535700
 30
0.0
  0
LWPOLYLINE
  5
259
100
AcDbEntity
  8
0
 62
5
100
AcDbPolyline
 90
4
 70
0
 10
42.945073
 20
146.686582
 30
0.0
 10
43.316889
 20
145.665025
 30
0.0
 10
43.657407
 20
145.788966
 30
0.0
 10
41.488481
 20
151.748034
 30
0.0
  0
LWPOLYLINE
  5
25a
100
AcDbEntity
  8
0
 62
1
100
AcDbPolyline
 90
2
 70
0
 10
45.082700
 20
141.873005
 30
0.0
 10
44.091191
 20
144.597152
 30
0.0
  0
LWPOLYLINE
  5
25b
100
AcDbEntity
  8
0
 62
5
100
AcDbPolyline
 90
4
 70
0
 10
65.528811
 20
131.575851
 30
0.0
 10
61.362339
 20
128.814860
 30
0.0
 10
50.656295
 20
130.702624
 30
0.0
 10
47.685407
 20
134.722123
 30
0.0
  0
LWPOLYLINE
  5
25c
100
AcDbEntity
  8
0
 62
5
100
AcDbPolyline
 90
4
 70
0
 10
60.627046
 20
132.992110
 30
0.0
 10
59.755998
 20
132.225792
 30
0.0
 10
53.332372
 20
133.358448
 30
0.0
 10
52.775948
 20
134.376469
 30
0.0
  0
LWPOLYLINE
  5
25d
100
AcDbEntity
  8
0
 62
1
100
AcDbPolyline
 90
2
 70
0
 10
65.528811
 20
131.575851
 30
0.0
 10
60.532659
 20
132.456808
 30
0.0
  0
LWPOLYLINE
  5
25e
100
AcDbEntity
  8
0
 62
1
100
AcDbPolyline
 90
2
 70
0
 10
47.685407
 20
134.722123
 30
0.0
 10
52.681561
 20
133.841167
 30
0.0
  0
SPLINE
  5
25f
100
AcDbEntity
  8
0
 62
5
100
AcDbSpline
 70
0
 71
3
 72
10
 73
6
 74
4
 40
0.000000
 40
0.000000
 40
0.000000
 40
0.000000
 40
1.119443
 40
2.061989
 40
2.472599
 40
2.472599
 40
2.472599
 40
2.472599
 10
41.273778
 20
144.921395
 30
0.0
 10
41.451071
 20
145.254373
 30
0.0
 10
41.777640
 20
145.867712
 30
0.0
 10
42.439363
 20
146.388480
 30
0.0
 10
42.827342
 20
146.617183
 30
0.0
 10
42.945073
 20
146.686582
 30
0.0
 11
41.273778
 21
144.921395
 31
0.0
 11
41.872050
 21
145.867557
 31
0.0
 11
42.594261
 21
146.473201
 31
0.0
 11
42.945073
 21
146.686582
 31
0.0
  0
SPLINE
  5
260
100
AcDbEntity
  8
0
 62
5
100
AcDbSpline
 70
0
 71
3
 72
10
 73
6
 74
4
 40
0.000000
 40
0.000000
 40
0.000000
 40
0.000000
 40
0.180063
 40
0.695685
 40
1.557358
 40
1.557358
 40
1.557358
 40
1.557358
 10
71.746051
 20
138.421552
 30
0.0
 10
71.771222
 20
138.366978
 30
0.0
 10
71.868472
 20
138.156131
 30
0.0
 10
71.955821
 20
137.634341
 30
0.0
 10
71.909207
 20
137.176460
 30
0.0
 10
71.880044
 20
136.889997
 30
0.0
 11
71.746051
 21
138.421552
 31
0.0
 11
71.817663
 21
138.256342
 31
0.0
 11
71.919052
 21
137.750786
 31
0.0
 11
71.880044
 21
136.889997
 31
0.0
  0
SPLINE
  5
261
100
AcDbEntity
  8
0
 62
5
100
AcDbSpline
 70
0
 71
3
 72
10
 73
6
 74
4
 40
0.000000
 40
0.000000
 40
0.000000
 40
0.000000
 40
1.678566
 40
3.460356
 40
5.104279
 40
5.104279
 40
5.104279
 40
5.104279
 10
71.880044
 20
136.889997
 30
0.0
 10
71.681237
 20
136.366875
 30
0.0
 10
71.271397
 20
135.288462
 30
0.0
 10
70.575185
 20
133.735137
 30
0.0
 10
70.082380
 20
132.705094
 30
0.0
 10
69.845894
 20
132.210800
 30
0.0
 11
71.880044
 21
136.889997
 31
0.0
 11
71.269000
 21
135.326600
 31
0.0
 11
70.549469
 21
133.696554
 31
0.0
 11
69.845894
 21
132.210800
 31
0.0
  0
LWPOLYLINE
  5
262
100
AcDbEntity
  8
0
 62
5
100
AcDbPolyline
 90
4
 70
0
 10
77.175171
 20
145.455475
 30
0.0
 10
70.769678
 20
137.821705
 30
0.0
 10
71.047269
 20
137.588776
 30
0.0
 10
71.746051
 20
138.421552
 30
0.0
  0
LWPOLYLINE
  5
263
100
AcDbEntity
  8
0
 62
5
100
AcDbPolyline
 90
4
 70
0
 10
66.854581
 20
132.592127
 30
0.0
 10
67.553363
 20
133.424900
 30
0.0
 10
67.275769
 20
133.657830
 30
0.0
 10
65.528817
 20
131.575890
 30
0.0
  0
LWPOLYLINE
  5
264
100
AcDbEntity
  8
0
 62
1
100
AcDbPolyline
 90
2
 70
0
 10
69.954431
 20
136.850133
 30
0.0
 10
68.091016
 20
134.629399
 30
0.0
  0
LWPOLYLINE
  5
265
100
AcDbEntity
  8
0
 62
5
100
AcDbPolyline
 90
7
 70
0
 10
77.175131
 20
145.455506
 30
0.0
 10
77.217372
 20
143.608240
 30
0.0
 10
79.033175
 20
143.472048
 30
0.0
 10
79.967150
 20
144.595236
 30
0.0
 10
79.610283
 20
144.658160
 30
0.0
 10
79.673207
 20
145.015028
 30
0.0
 10
95.018535
 20
142.309233
 30
0.0
  0
LWPOLYLINE
  5
266
100
AcDbEntity
  8
0
 62
1
100
AcDbPolyline
 90
2
 70
0
 10
77.888869
 20
145.329655
 30
0.0
 10
78.959473
 20
145.140879
 30
0.0
  0
LWPOLYLINE
  5
267
100
AcDbEntity
  8
0
 62
5
100
AcDbPolyline
 90
8
 70
0
 10
95.018544
 20
142.309273
 30
0.0
 10
82.343199
 20
141.866641
 30
0.0
 10
81.936785
 20
143.121528
 30
0.0
 10
80.119697
 20
143.239370
 30
0.0
 10
79.252256
 20
142.121296
 30
0.0
 10
79.614409
 20
142.133939
 30
0.0
 10
79.627053
 20
141.771786
 30
0.0
 10
76.910906
 20
141.676937
 30
0.0
  0
LWPOLYLINE
  5
268
100
AcDbEntity
  8
0
 62
1
100
AcDbPolyline
 90
2
 70
0
 10
81.618895
 20
141.841346
 30
0.0
 10
80.351359
 20
141.797085
 30
0.0
  0
LWPOLYLINE
  5
269
100
AcDbEntity
  8
0
 62
5
100
AcDbPolyline
 90
5
 70
0
 10
71.916750
 20
124.260278
 30
0.0
 10
69.281161
 20
126.900896
 30
0.0
 10
73.496825
 20
137.001325
 30
0.0
 10
75.912077
 20
138.193637
 30
0.0
 10
76.910909
 20
141.676976
 30
0.0
  0
LWPOLYLINE
  5
26a
100
AcDbEntity
  8
0
 62
5
100
AcDbPolyline
 90
4
 70
0
 10
72.838784
 20
125.503789
 30
0.0
 10
72.167716
 20
126.450165
 30
0.0
 10
73.965613
 20
132.720174
 30
0.0
 10
75.036214
 20
133.167135
 30
0.0
  0
LWPOLYLINE
  5
26b
100
AcDbEntity
  8
0
 62
1
100
AcDbPolyline
 90
2
 70
0
 10
71.916750
 20
124.260278
 30
0.0
 10
72.316284
 20
125.653612
 30
0.0
  0
LWPOLYLINE
  5
26c
100
AcDbEntity
  8
0
 62
1
100
AcDbPolyline
 90
2
 70
0
 10
75.912077
 20
138.193637
 30
0.0
 10
74.513714
 20
133.316962
 30
0.0
  0
SPLINE
  5
26d
100
AcDbEntity
  8
0
 62
5
100
AcDbSpline
 70
0
 71
3
 72
10
 73
6
 74
4
 40
0.000000
 40
0.000000
 40
0.000000
 40
0.000000
 40
1.281083
 40
2.491461
 40
3.035182
 40
3.035182
 40
3.035182
 40
3.035182
 10
69.845894
 20
132.210800
 30
0.0
 10
69.417413
 20
132.189895
 30
0.0
 10
68.584101
 20
132.149238
 30
0.0
 10
67.589024
 20
132.377042
 30
0.0
 10
67.028368
 20
132.541233
 30
0.0
 10
66.854581
 20
132.592127
 30
0.0
 11
69.845894
 21
132.210800
 31
0.0
 11
68.564813
 21
132.208273
 31
0.0
 11
67.377329
 21
132.442570
 31
0.0
 11
66.854581
 21
132.592127
 31
0.0
  0
SPLINE
  5
26e
100
AcDbEntity
  8
0
 62
5
100
AcDbSpline
 70
0
 71
3
 72
10
 73
6
 74
4
 40
0.000000
 40
0.000000
 40
0.000000
 40
0.000000
 40
0.180064
 40
0.695689
 40
1.557366
 40
1.557366
 40
1.557366
 40
1.557366
 10
79.374924
 20
118.792615
 30
0.0
 10
79.323280
 20
118.761877
 30
0.0
 10
79.123752
 20
118.643119
 30
0.0
 10
78.613949
 20
118.501706
 30
0.0
 10
78.153701
 20
118.500202
 30
0.0
 10
77.865757
 20
118.499262
 30
0.0
 11
79.374924
 21
118.792615
 31
0.0
 11
79.218104
 21
118.704125
 31
0.0
 11
78.725913
 21
118.550446
 31
0.0
 11
77.865757
 21
118.499262
 31
0.0
  0
SPLINE
  5
26f
100
AcDbEntity
  8
0
 62
5
100
AcDbSpline
 70
0
 71
3
 72
10
 73
6
 74
4
 40
0.000000
 40
0.000000
 40
0.000000
 40
0.000000
 40
1.678573
 40
3.460371
 40
5.104300
 40
5.104300
 40
5.104300
 40
5.104300
 10
77.865757
 20
118.499262
 30
0.0
 10
77.324718
 20
118.642300
 30
0.0
 10
76.209369
 20
118.937172
 30
0.0
 10
74.591772
 20
119.467205
 30
0.0
 10
73.515855
 20
119.849642
 30
0.0
 10
72.999546
 20
120.033165
 30
0.0
 11
77.865757
 21
118.499262
 31
0.0
 11
76.247047
 21
118.943542
 31
0.0
 11
74.550712
 21
119.488747
 31
0.0
 11
72.999546
 21
120.033165
 31
0.0
  0
LWPOLYLINE
  5
270
100
AcDbEntity
  8
0
 62
5
100
AcDbPolyline
 90
4
 70
0
 10
86.937842
 20
114.128461
 30
0.0
 10
78.676300
 20
119.700942
 30
0.0
 10
78.473664
 20
119.400522
 30
0.0
 10
79.374924
 20
118.792615
 30
0.0
  0
LWPOLYLINE
  5
271
100
AcDbEntity
  8
0
 62
5
100
AcDbPolyline
 90
4
 70
0
 10
73.066108
 20
123.047965
 30
0.0
 10
73.967368
 20
122.440058
 30
0.0
 10
74.170004
 20
122.740478
 30
0.0
 10
71.916854
 20
124.260244
 30
0.0
  0
LWPOLYLINE
  5
272
100
AcDbEntity
  8
0
 62
1
100
AcDbPolyline
 90
2
 70
0
 10
77.624830
 20
120.410166
 30
0.0
 10
75.221473
 20
122.031251
 30
0.0
  0
LWPOLYLINE
  5
273
100
AcDbEntity
  8
0
 62
5
100
AcDbPolyline
 90
7
 70
0
 10
86.937782
 20
114.128371
 30
0.0
 10
88.338832
 20
112.923700
 30
0.0
 10
89.655055
 20
114.181973
 30
0.0
 10
89.445315
 20
115.627611
 30
0.0
 10
89.159760
 20
115.404512
 30
0.0
 10
88.936661
 20
115.690067
 30
0.0
 10
101.215489
 20
125.283340
 30
0.0
  0
LWPOLYLINE
  5
274
100
AcDbEntity
  8
0
 62
1
100
AcDbPolyline
 90
2
 70
0
 10
87.508890
 20
114.574570
 30
0.0
 10
88.365553
 20
115.243868
 30
0.0
  0
LWPOLYLINE
  5
275
100
AcDbEntity
  8
0
 62
5
100
AcDbPolyline
 90
8
 70
0
 10
101.215467
 20
125.283365
 30
0.0
 10
93.062950
 20
115.567571
 30
0.0
 10
91.858440
 20
116.105230
 30
0.0
 10
90.554999
 20
114.833723
 30
0.0
 10
90.805457
 20
113.440951
 30
0.0
 10
91.038386
 20
113.718545
 30
0.0
 10
91.315980
 20
113.485615
 30
0.0
 10
89.569013
 20
111.403662
 30
0.0
  0
LWPOLYLINE
  5
276
100
AcDbEntity
  8
0
 62
1
100
AcDbPolyline
 90
2
 70
0
 10
92.597091
 20
115.012384
 30
0.0
 10
91.781839
 20
114.040806
 30
0.0
  0
LWPOLYLINE
  5
277
100
AcDbEntity
  8
0
 62
5
100
AcDbPolyline
 90
5
 70
0
 10
71.725734
 20
114.549935
 30
0.0
 10
74.076382
 20
117.447092
 30
0.0
 10
84.562095
 20
114.310319
 30
0.0
 10
86.000333
 20
112.032936
 30
0.0
 10
89.568982
 20
111.403687
 30
0.0
  0
LWPOLYLINE
  5
278
100
AcDbEntity
  8
0
 62
5
100
AcDbPolyline
 90
4
 70
0
 10
73.058807
 20
113.762935
 30
0.0
 10
73.929850
 20
114.529248
 30
0.0
 10
80.353419
 20
113.396600
 30
0.0
 10
80.909835
 20
112.378587
 30
0.0
  0
LWPOLYLINE
  5
279
100
AcDbEntity
  8
0
 62
1
100
AcDbPolyline
 90
2
 70
0
 10
71.725734
 20
114.549935
 30
0.0
 10
73.153194
 20
114.298235
 30
0.0
  0
LWPOLYLINE
  5
27a
100
AcDbEntity
  8
0
 62
1
100
AcDbPolyline
 90
2
 70
0
 10
86.000333
 20
112.032936
 30
0.0
 10
81.004224
 20
112.913887
 30
0.0
  0
SPLINE
  5
27b
100
AcDbEntity
  8
0
 62
5
100
AcDbSpline
 70
0
 71
3
 72
10
 73
6
 74
4
 40
0.000000
 40
0.000000
 40
0.000000
 40
0.000000
 40
1.281090
 40
2.491472
 40
3.035195
 40
3.035195
 40
3.035195
 40
3.035195
 10
72.999546
 20
120.033165
 30
0.0
 10
72.933968
 20
120.457115
 30
0.0
 10
72.806430
 20
121.281616
 30
0.0
 10
72.928972
 20
122.295059
 30
0.0
 10
73.033659
 20
122.869808
 30
0.0
 10
73.066108
 20
123.047965
 30
0.0
 11
72.999546
 21
120.033165
 31
0.0
 11
72.863125
 21
121.306970
 31
0.0
 11
72.972013
 21
122.512445
 31
0.0
 11
73.066108
 21
123.047965
 31
0.0
  0
SPLINE
  5
27c
100
AcDbEntity
  8
0
 62
5
100
AcDbSpline
 70
0
 71
3
 72
10
 73
6
 74
4
 40
0.000000
 40
0.000000
 40
0.000000
 40
0.000000
 40
0.410611
 40
1.353161
 40
2.472607
 40
2.472607
 40
2.472607
 40
2.472607
 10
63.179164
 20
104.928321
 30
0.0
 10
63.092269
 20
105.033802
 30
0.0
 10
62.805908
 20
105.381410
 30
0.0
 10
62.362203
 20
106.097096
 30
0.0
 10
62.265102
 20
106.785142
 30
0.0
 10
62.212387
 20
107.158678
 30
0.0
 11
63.179164
 21
104.928321
 31
0.0
 11
62.922488
 21
105.248819
 31
0.0
 11
62.450972
 21
106.064952
 31
0.0
 11
62.212387
 21
107.158678
 31
0.0
  0
SPLINE
  5
27d
100
AcDbEntity
  8
0
 62
5
100
AcDbSpline
 70
0
 71
3
 72
10
 73
6
 74
4
 40
0.000000
 40
0.000000
 40
0.000000
 40
0.000000
 40
1.876911
 40
3.849833
 40
5.726744
 40
5.726744
 40
5.726744
 40
5.726744
 10
62.212387
 20
107.158678
 30
0.0
 10
62.352152
 20
107.774009
 30
0.0
 10
62.638832
 20
109.036146
 30
0.0
 10
63.931431
 20
110.576604
 30
0.0
 10
65.124611
 20
111.078098
 30
0.0
 10
65.706323
 20
111.322591
 30
0.0
 11
62.212387
 21
107.158678
 31
0.0
 11
62.770081
 21
108.950820
 31
0.0
 11
64.038251
 21
110.462166
 31
0.0
 11
65.706323
 21
111.322591
 31
0.0
  0
LWPOLYLINE
  5
27e
100
AcDbEntity
  8
0
 62
5
100
AcDbPolyline
 90
4
 70
0
 10
60.079286
 20
100.670279
 30
0.0
 10
64.155546
 20
105.528176
 30
0.0
 10
63.877952
 20
105.761106
 30
0.0
 10
63.179164
 20
104.928321
 30
0.0
  0
LWPOLYLINE
  5
27f
100
AcDbEntity
  8
0
 62
5
100
AcDbPolyline
 90
4
 70
0
 10
68.070674
 20
110.757799
 30
0.0
 10
67.371889
 20
109.925015
 30
0.0
 10
67.649482
 20
109.692086
 30
0.0
 10
71.725739
 20
114.549982
 30
0.0
  0
LWPOLYLINE
  5
280
100
AcDbEntity
  8
0
 62
1
100
AcDbPolyline
 90
2
 70
0
 10
64.970795
 20
106.499754
 30
0.0
 10
66.834230
 20
108.720508
 30
0.0
  0
LWPOLYLINE
  5
281
100
AcDbEntity
  8
0
 62
5
100
AcDbPolyline
 90
4
 70
0
 10
66.276180
 20
83.644397
 30
0.0
 10
61.801872
 20
85.872163
 30
0.0
 10
58.083718
 20
96.087710
 30
0.0
 10
60.079255
 20
100.670308
 30
0.0
  0
LWPOLYLINE
  5
282
100
AcDbEntity
  8
0
 62
5
100
AcDbPolyline
 90
4
 70
0
 10
65.051819
 20
88.597561
 30
0.0
 10
63.952648
 20
88.968751
 30
0.0
 10
61.721754
 20
95.098078
 30
0.0
 10
62.325171
 20
96.088961
 30
0.0
  0
LWPOLYLINE
  5
283
100
AcDbEntity
  8
0
 62
1
100
AcDbPolyline
 90
2
 70
0
 10
66.276180
 20
83.644397
 30
0.0
 10
64.541042
 20
88.411652
 30
0.0
  0
LWPOLYLINE
  5
284
100
AcDbEntity
  8
0
 62
1
100
AcDbPolyline
 90
2
 70
0
 10
60.079255
 20
100.670308
 30
0.0
 10
61.814394
 20
95.903052
 30
0.0
  0
SPLINE
  5
285
100
AcDbEntity
  8
0
 62
5
100
AcDbSpline
 70
0
 71
3
 72
10
 73
6
 74
4
 40
0.000000
 40
0.000000
 40
0.000000
 40
0.000000
 40
1.119446
 40
2.061995
 40
2.472605
 40
2.472605
 40
2.472605
 40
2.472605
 10
65.706323
 20
111.322591
 30
0.0
 10
66.083338
 20
111.335540
 30
0.0
 10
66.777792
 20
111.359391
 30
0.0
 10
67.559654
 20
111.046706
 30
0.0
 10
67.951707
 20
110.825057
 30
0.0
 10
68.070674
 20
110.757799
 30
0.0
 11
65.706323
 21
111.322591
 31
0.0
 11
66.824863
 21
111.277553
 31
0.0
 11
67.710474
 21
110.954921
 31
0.0
 11
68.070674
 21
110.757799
 31
0.0
  0
SPLINE
  5
286
100
AcDbEntity
  8
0
 62
5
100
AcDbSpline
 70
0
 71
3
 72
10
 73
6
 74
4
 40
0.000000
 40
0.000000
 40
0.000000
 40
0.000000
 40
0.410611
 40
1.353161
 40
2.472608
 40
2.472608
 40
2.472608
 40
2.472608
 10
78.882073
 20
81.053673
 30
0.0
 10
78.834172
 20
80.925680
 30
0.0
 10
78.676315
 20
80.503880
 30
0.0
 10
78.278364
 20
79.761777
 30
0.0
 10
77.731049
 20
79.333662
 30
0.0
 10
77.433915
 20
79.101240
 30
0.0
 11
78.882073
 21
81.053673
 31
0.0
 11
78.732852
 21
80.671137
 31
0.0
 11
78.261817
 21
79.854726
 31
0.0
 11
77.433915
 21
79.101240
 31
0.0
  0
SPLINE
  5
287
100
AcDbEntity
  8
0
 62
5
100
AcDbSpline
 70
0
 71
3
 72
10
 73
6
 74
4
 40
0.000000
 40
0.000000
 40
0.000000
 40
0.000000
 40
1.876911
 40
3.849833
 40
5.726744
 40
5.726744
 40
5.726744
 40
5.726744
 10
77.433915
 20
79.101240
 30
0.0
 10
76.831141
 20
78.914616
 30
0.0
 10
75.594758
 20
78.531821
 30
0.0
 10
73.614382
 20
78.881015
 30
0.0
 10
72.583486
 20
79.663593
 30
0.0
 10
72.080893
 20
80.045124
 30
0.0
 11
77.433915
 21
79.101240
 31
0.0
 11
75.603027
 21
78.688148
 31
0.0
 11
73.660079
 21
79.030743
 31
0.0
 11
72.080893
 21
80.045124
 31
0.0
  0
LWPOLYLINE
  5
288
100
AcDbEntity
  8
0
 62
5
100
AcDbPolyline
 90
4
 70
0
 10
84.119585
 20
80.498122
 30
0.0
 10
77.874393
 20
81.599316
 30
0.0
 10
77.811469
 20
81.242449
 30
0.0
 10
78.882073
 20
81.053673
 30
0.0
  0
LWPOLYLINE
  5
289
100
AcDbEntity
  8
0
 62
5
100
AcDbPolyline
 90
4
 70
0
 10
71.387843
 20
82.375108
 30
0.0
 10
72.458447
 20
82.186333
 30
0.0
 10
72.521372
 20
82.543200
 30
0.0
 10
66.276180
 20
83.644394
 30
0.0
  0
LWPOLYLINE
  5
28a
100
AcDbEntity
  8
0
 62
1
100
AcDbPolyline
 90
2
 70
0
 10
76.625354
 20
81.819557
 30
0.0
 10
73.770411
 20
82.322959
 30
0.0
  0
LWPOLYLINE
  5
28b
100
AcDbEntity
  8
0
 62
5
100
AcDbPolyline
 90
5
 70
0
 10
84.119590
 20
80.498164
 30
0.0
 10
87.782552
 20
79.789781
 30
0.0
 10
93.798794
 20
88.932776
 30
0.0
 10
93.436674
 20
91.601830
 30
0.0
 10
95.765945
 20
94.377748
 30
0.0
  0
LWPOLYLINE
  5
28c
100
AcDbEntity
  8
0
 62
5
100
AcDbPolyline
 90
4
 70
0
 10
84.634911
 20
81.957922
 30
0.0
 10
85.794746
 20
81.930800
 30
0.0
 10
89.987433
 20
86.927449
 30
0.0
 10
89.759307
 20
88.064951
 30
0.0
  0
LWPOLYLINE
  5
28d
100
AcDbEntity
  8
0
 62
1
100
AcDbPolyline
 90
2
 70
0
 10
84.119590
 20
80.498164
 30
0.0
 10
85.051299
 20
81.608531
 30
0.0
  0
LWPOLYLINE
  5
28e
100
AcDbEntity
  8
0
 62
1
100
AcDbPolyline
 90
2
 70
0
 10
93.436674
 20
91.601830
 30
0.0
 10
90.175695
 20
87.715549
 30
0.0
  0
LWPOLYLINE
  5
28f
100
AcDbEntity
  8
0
 62
5
100
AcDbPolyline
 90
8
 70
0
 10
113.609309
 20
91.231504
 30
0.0
 10
101.118927
 20
93.433896
 30
0.0
 10
100.541819
 20
92.247783
 30
0.0
 10
98.726015
 20
92.383975
 30
0.0
 10
98.022622
 20
93.611893
 30
0.0
 10
98.379492
 20
93.548969
 30
0.0
 10
98.442416
 20
93.905836
 30
0.0
 10
95.765905
 20
94.377777
 30
0.0
  0
LWPOLYLINE
  5
290
100
AcDbEntity
  8
0
 62
1
100
AcDbPolyline
 90
2
 70
0
 10
100.405190
 20
93.559747
 30
0.0
 10
99.156153
 20
93.779985
 30
0.0
  0
LWPOLYLINE
  5
291
100
AcDbEntity
  8
0
 62
5
100
AcDbPolyline
 90
7
 70
0
 10
95.501683
 20
90.599213
 30
0.0
 10
95.800604
 20
92.422623
 30
0.0
 10
97.617689
 20
92.304781
 30
0.0
 10
98.386259
 20
91.062540
 30
0.0
 10
98.024106
 20
91.049897
 30
0.0
 10
98.036750
 20
90.687744
 30
0.0
 10
113.609315
 20
91.231549
 30
0.0
  0
LWPOLYLINE
  5
292
100
AcDbEntity
  8
0
 62
1
100
AcDbPolyline
 90
2
 70
0
 10
96.225989
 20
90.624506
 30
0.0
 10
97.312446
 20
90.662448
 30
0.0
  0
SPLINE
  5
293
100
AcDbEntity
  8
0
 62
5
100
AcDbSpline
 70
0
 71
3
 72
10
 73
6
 74
4
 40
0.000000
 40
0.000000
 40
0.000000
 40
0.000000
 40
1.119446
 40
2.061995
 40
2.472606
 40
2.472606
 40
2.472606
 40
2.472606
 10
72.080893
 20
80.045124
 30
0.0
 10
71.881172
 20
80.365154
 30
0.0
 10
71.513289
 20
80.954643
 30
0.0
 10
71.393152
 20
81.788098
 30
0.0
 10
71.389079
 20
82.238451
 30
0.0
 10
71.387843
 20
82.375108
 30
0.0
 11
72.080893
 21
80.045124
 31
0.0
 11
71.560628
 21
81.036326
 31
0.0
 11
71.397230
 21
81.964604
 31
0.0
 11
71.387843
 21
82.375108
 31
0.0
  0
SPLINE
  5
294
100
AcDbEntity
  8
0
 62
5
100
AcDbSpline
 70
0
 71
3
 72
10
 73
6
 74
4
 40
0.000000
 40
0.000000
 40
0.000000
 40
0.000000
 40
0.180065
 40
0.695691
 40
1.557366
 40
1.557366
 40
1.557366
 40
1.557366
 10
92.706213
 20
82.164946
 30
0.0
 10
92.646893
 20
82.155295
 30
0.0
 10
92.417710
 20
82.118011
 30
0.0
 10
91.936281
 20
81.898643
 30
0.0
 10
91.582742
 20
81.603955
 30
0.0
 10
91.361559
 20
81.419591
 30
0.0
 11
92.706213
 21
82.164946
 31
0.0
 11
92.529201
 21
82.131928
 31
0.0
 11
92.053378
 21
81.933275
 31
0.0
 11
91.361559
 21
81.419591
 31
0.0
  0
SPLINE
  5
295
100
AcDbEntity
  8
0
 62
5
100
AcDbSpline
 70
0
 71
3
 72
10
 73
6
 74
4
 40
0.000000
 40
0.000000
 40
0.000000
 40
0.000000
 40
1.678572
 40
3.460368
 40
5.104296
 40
5.104296
 40
5.104296
 40
5.104296
 10
91.361559
 20
81.419591
 30
0.0
 10
91.039042
 20
80.962245
 30
0.0
 10
90.374174
 20
80.019429
 30
0.0
 10
89.475723
 20
78.573630
 30
0.0
 10
88.897350
 20
77.589080
 30
0.0
 10
88.619801
 20
77.116617
 30
0.0
 11
91.361559
 21
81.419591
 31
0.0
 11
90.407133
 21
80.038768
 31
0.0
 11
89.458116
 21
78.530735
 31
0.0
 11
88.619801
 21
77.116617
 31
0.0
  0
LWPOLYLINE
  5
296
100
AcDbEntity
  8
0
 62
5
100
AcDbPolyline
 90
4
 70
0
 10
95.501683
 20
90.599244
 30
0.0
 10
92.754896
 20
81.020061
 30
0.0
 10
92.406563
 20
81.119942
 30
0.0
 10
92.706213
 20
82.164946
 30
0.0
  0
LWPOLYLINE
  5
297
100
AcDbEntity
  8
0
 62
5
100
AcDbPolyline
 90
4
 70
0
 10
90.608664
 20
74.849932
 30
0.0
 10
90.908316
 20
75.894933
 30
0.0
 10
91.256649
 20
75.795049
 30
0.0
 10
90.507524
 20
73.182543
 30
0.0
  0
LWPOLYLINE
  5
298
100
AcDbEntity
  8
0
 62
1
100
AcDbPolyline
 90
2
 70
0
 10
92.405304
 20
79.800892
 30
0.0
 10
91.606240
 20
77.014218
 30
0.0
  0
LWPOLYLINE
  5
299
100
AcDbEntity
  8
0
 62
5
100
AcDbPolyline
 90
5
 70
0
 10
90.507628
 20
73.182515
 30
0.0
 10
90.186008
 20
69.465558
 30
0.0
 10
99.907824
 20
64.437958
 30
0.0
 10
102.524419
 20
65.077087
 30
0.0
 10
105.528615
 20
63.050732
 30
0.0
  0
LWPOLYLINE
  5
29a
100
AcDbEntity
  8
0
 62
5
100
AcDbPolyline
 90
4
 70
0
 10
92.013261
 20
72.822603
 30
0.0
 10
92.107512
 20
71.666282
 30
0.0
 10
97.515068
 20
68.018839
 30
0.0
 10
98.622496
 20
68.364618
 30
0.0
  0
LWPOLYLINE
  5
29b
100
AcDbEntity
  8
0
 62
1
100
AcDbPolyline
 90
2
 70
0
 10
90.507628
 20
73.182515
 30
0.0
 10
91.709308
 20
72.371973
 30
0.0
  0
LWPOLYLINE
  5
29c
100
AcDbEntity
  8
0
 62
1
100
AcDbPolyline
 90
2
 70
0
 10
102.524419
 20
65.077087
 30
0.0
 10
98.318543
 20
67.913988
 30
0.0
  0
LWPOLYLINE
  5
29d
100
AcDbEntity
  8
0
 62
5
100
AcDbPolyline
 90
8
 70
0
 10
119.806263
 20
74.205610
 30
0.0
 10
109.811868
 20
66.397134
 30
0.0
 10
110.307162
 20
65.174592
 30
0.0
 10
108.990940
 20
63.916319
 30
0.0
 10
107.607758
 20
64.215234
 30
0.0
 10
107.893310
 20
64.438334
 30
0.0
 10
107.670211
 20
64.723886
 30
0.0
 10
105.528556
 20
63.050641
 30
0.0
  0
LWPOLYLINE
  5
29e
100
AcDbEntity
  8
0
 62
1
100
AcDbPolyline
 90
2
 70
0
 10
109.240760
 20
65.950935
 30
0.0
 10
108.241318
 20
65.170085
 30
0.0
  0
LWPOLYLINE
  5
29f
100
AcDbEntity
  8
0
 62
5
100
AcDbPolyline
 90
7
 70
0
 10
108.159787
 20
60.325933
 30
0.0
 10
107.004745
 20
61.768170
 30
0.0
 10
108.308188
 20
63.039677
 30
0.0
 10
109.745625
 20
62.779612
 30
0.0
 10
109.512695
 20
62.502018
 30
0.0
 10
109.790289
 20
62.269089
 30
0.0
 10
119.806240
 20
74.205636
 30
0.0
  0
LWPOLYLINE
  5
2a0
100
AcDbEntity
  8
0
 62
1
100
AcDbPolyline
 90
2
 70
0
 10
108.625643
 20
60.881120
 30
0.0
 10
109.324431
 20
61.713902
 30
0.0
  0
SPLINE
  5
2a1
100
AcDbEntity
  8
0
 62
5
100
AcDbSpline
 70
0
 71
3
 72
10
 73
6
 74
4
 40
0.000000
 40
0.000000
 40
0.000000
 40
0.000000
 40
1.281089
 40
2.491471
 40
3.035193
 40
3.035193
 40
3.035193
 40
3.035193
 10
88.619801
 20
77.116617
 30
0.0
 10
88.842074
 20
76.749699
 30
0.0
 10
89.274353
 20
76.036114
 30
0.0
 10
90.019653
 20
75.338541
 30
0.0
 10
90.469289
 20
74.965549
 30
0.0
 10
90.608664
 20
74.849932
 30
0.0
 11
88.619801
 21
77.116617
 31
0.0
 11
89.334082
 21
76.053135
 31
0.0
 11
90.192357
 21
75.199680
 31
0.0
 11
90.608664
 21
74.849932
 31
0.0
  0
SPLINE
  5
2a2
100
AcDbEntity
  8
0
 62
5
100
AcDbSpline
 70
0
 71
3
 72
10
 73
6
 74
4
 40
0.000000
 40
0.000000
 40
0.000000
 40
0.000000
 40
0.180063
 40
0.695685
 40
1.557358
 40
1.557358
 40
1.557358
 40
1.557358
 10
99.479489
 20
62.224484
 30
0.0
 10
99.463693
 20
62.282469
 30
0.0
 10
99.402660
 20
62.506499
 30
0.0
 10
99.134173
 20
62.962360
 30
0.0
 10
98.804144
 20
63.283155
 30
0.0
 10
98.597669
 20
63.483853
 30
0.0
 11
99.479489
 21
62.224484
 31
0.0
 11
99.428153
 21
62.397074
 31
0.0
 11
99.180856
 21
62.849523
 31
0.0
 11
98.597669
 21
63.483853
 31
0.0
  0
SPLINE
  5
2a3
100
AcDbEntity
  8
0
 62
5
100
AcDbSpline
 70
0
 71
3
 72
10
 73
6
 74
4
 40
0.000000
 40
0.000000
 40
0.000000
 40
0.000000
 40
1.678567
 40
3.460356
 40
5.104277
 40
5.104277
 40
5.104277
 40
5.104277
 10
98.597669
 20
63.483853
 30
0.0
 10
98.109118
 20
63.756797
 30
0.0
 10
97.101972
 20
64.319469
 30
0.0
 10
95.570185
 20
65.061868
 30
0.0
 10
94.530576
 20
65.534158
 30
0.0
 10
94.031692
 20
65.760799
 30
0.0
 11
98.597669
 21
63.483853
 31
0.0
 11
97.124650
 21
64.288713
 31
0.0
 11
95.525684
 21
65.074895
 31
0.0
 11
94.031692
 21
65.760799
 31
0.0
  0
LWPOLYLINE
  5
2a4
100
AcDbEntity
  8
0
 62
5
100
AcDbPolyline
 90
4
 70
0
 10
108.159756
 20
60.325958
 30
0.0
 10
98.345969
 20
62.056392
 30
0.0
 10
98.408894
 20
62.413260
 30
0.0
 10
99.479489
 20
62.224484
 30
0.0
  0
LWPOLYLINE
  5
2a5
100
AcDbEntity
  8
0
 62
5
100
AcDbPolyline
 90
4
 70
0
 10
91.985324
 20
63.545908
 30
0.0
 10
93.055920
 20
63.357132
 30
0.0
 10
92.992996
 20
63.000268
 30
0.0
 10
90.316507
 20
63.472205
 30
0.0
  0
LWPOLYLINE
  5
2a6
100
AcDbEntity
  8
0
 62
1
100
AcDbPolyline
 90
2
 70
0
 10
97.096941
 20
62.276630
 30
0.0
 10
94.242021
 20
62.780030
 30
0.0
  0
LWPOLYLINE
  5
2a7
100
AcDbEntity
  8
0
 62
5
100
AcDbPolyline
 90
4
 70
0
 10
78.670060
 20
49.592547
 30
0.0
 10
78.362206
 20
54.581313
 30
0.0
 10
85.350079
 20
62.909138
 30
0.0
 10
90.316513
 20
63.472250
 30
0.0
  0
LWPOLYLINE
  5
2a8
100
AcDbEntity
  8
0
 62
5
100
AcDbPolyline
 90
4
 70
0
 10
82.347458
 20
53.129472
 30
0.0
 10
82.119332
 20
54.266983
 30
0.0
 10
86.312053
 20
59.263676
 30
0.0
 10
87.471899
 20
59.236555
 30
0.0
  0
LWPOLYLINE
  5
2a9
100
AcDbEntity
  8
0
 62
1
100
AcDbPolyline
 90
2
 70
0
 10
78.670060
 20
49.592547
 30
0.0
 10
81.931067
 20
53.478863
 30
0.0
  0
LWPOLYLINE
  5
2aa
100
AcDbEntity
  8
0
 62
1
100
AcDbPolyline
 90
2
 70
0
 10
90.316513
 20
63.472250
 30
0.0
 10
87.055506
 20
59.585935
 30
0.0
  0
SPLINE
  5
2ab
100
AcDbEntity
  8
0
 62
5
100
AcDbSpline
 70
0
 71
3
 72
10
 73
6
 74
4
 40
0.000000
 40
0.000000
 40
0.000000
 40
0.000000
 40
1.281084
 40
2.491461
 40
3.035182
 40
3.035182
 40
3.035182
 40
3.035182
 10
94.031692
 20
65.760799
 30
0.0
 10
93.690019
 20
65.501391
 30
0.0
 10
93.025531
 20
64.996893
 30
0.0
 10
92.409686
 20
64.182762
 30
0.0
 10
92.085739
 20
63.696603
 30
0.0
 10
91.985324
 20
63.545908
 30
0.0
 11
94.031692
 21
65.760799
 31
0.0
 11
93.048702
 21
64.939271
 31
0.0
 11
92.289639
 21
63.996490
 31
0.0
 11
91.985324
 21
63.545908
 31
0.0
  0
SPLINE
  5
2ac
100
AcDbEntity
  8
0
 62
5
100
AcDbSpline
 70
0
 71
3
 72
10
 73
6
 74
4
 40
0.000000
 40
0.000000
 40
0.000000
 40
0.000000
 40
0.410609
 40
1.353153
 40
2.472596
 40
2.472596
 40
2.472596
 40
2.472596
 10
73.406195
 20
49.771352
 30
0.0
 10
73.376573
 20
49.904766
 30
0.0
 10
73.278957
 20
50.344428
 30
0.0
 10
72.988162
 20
51.134689
 30
0.0
 10
72.505757
 20
51.634807
 30
0.0
 10
72.243863
 20
51.906318
 30
0.0
 11
73.406195
 21
49.771352
 31
0.0
 11
73.311666
 21
50.170932
 31
0.0
 11
72.958840
 21
51.044948
 31
0.0
 11
72.243863
 21
51.906318
 31
0.0
  0
SPLINE
  5
2ad
100
AcDbEntity
  8
0
 62
5
100
AcDbSpline
 70
0
 71
3
 72
10
 73
6
 74
4
 40
0.000000
 40
0.000000
 40
0.000000
 40
0.000000
 40
1.876901
 40
3.849814
 40
5.726717
 40
5.726717
 40
5.726717
 40
5.726717
 10
72.243863
 20
51.906318
 30
0.0
 10
71.672930
 20
52.175015
 30
0.0
 10
70.501860
 20
52.726153
 30
0.0
 10
68.492169
 20
52.655972
 30
0.0
 10
67.362397
 20
52.024486
 30
0.0
 10
66.811598
 20
51.716617
 30
0.0
 11
72.243863
 21
51.906318
 31
0.0
 11
70.488293
 21
52.570196
 31
0.0
 11
68.516582
 21
52.501342
 31
0.0
 11
66.811598
 21
51.716617
 31
0.0
  0
LWPOLYLINE
  5
2ae
100
AcDbEntity
  8
0
 62
5
100
AcDbPolyline
 90
4
 70
0
 10
78.670029
 20
49.592576
 30
0.0
 10
72.332387
 20
49.371260
 30
0.0
 10
72.319744
 20
49.733410
 30
0.0
 10
73.406195
 20
49.771352
 30
0.0
  0
LWPOLYLINE
  5
2af
100
AcDbEntity
  8
0
 62
5
100
AcDbPolyline
 90
4
 70
0
 10
65.801026
 20
49.505773
 30
0.0
 10
66.887479
 20
49.543712
 30
0.0
 10
66.900123
 20
49.181561
 30
0.0
 10
60.562482
 20
48.960245
 30
0.0
  0
LWPOLYLINE
  5
2b0
100
AcDbEntity
  8
0
 62
1
100
AcDbPolyline
 90
2
 70
0
 10
71.064859
 20
49.326996
 30
0.0
 10
68.167651
 20
49.225825
 30
0.0
  0
LWPOLYLINE
  5
2b1
100
AcDbEntity
  8
0
 62
5
100
AcDbPolyline
 90
4
 70
0
 10
55.568305
 20
31.543556
 30
0.0
 10
53.257958
 20
35.975799
 30
0.0
 10
56.254461
 20
46.425850
 30
0.0
 10
60.562479
 20
48.960308
 30
0.0
  0
LWPOLYLINE
  5
2b2
100
AcDbEntity
  8
0
 62
5
100
AcDbPolyline
 90
4
 70
0
 10
57.489177
 20
36.270420
 30
0.0
 10
56.818107
 20
37.216798
 30
0.0
 10
58.616009
 20
43.486831
 30
0.0
 10
59.686613
 20
43.933791
 30
0.0
  0
LWPOLYLINE
  5
2b3
100
AcDbEntity
  8
0
 62
1
100
AcDbPolyline
 90
2
 70
0
 10
55.568305
 20
31.543556
 30
0.0
 10
56.966674
 20
36.420246
 30
0.0
  0
LWPOLYLINE
  5
2b4
100
AcDbEntity
  8
0
 62
1
100
AcDbPolyline
 90
2
 70
0
 10
60.562479
 20
48.960308
 30
0.0
 10
59.164110
 20
44.083618
 30
0.0
  0
SPLINE
  5
2b5
100
AcDbEntity
  8
0
 62
5
100
AcDbSpline
 70
0
 71
3
 72
10
 73
6
 74
4
 40
0.000000
 40
0.000000
 40
0.000000
 40
0.000000
 40
1.119441
 40
2.061986
 40
2.472594
 40
2.472594
 40
2.472594
 40
2.472594
 10
66.811598
 20
51.716617
 30
0.0
 10
66.569282
 20
51.427498
 30
0.0
 10
66.122939
 20
50.894949
 30
0.0
 10
65.887978
 20
50.086328
 30
0.0
 10
65.821268
 20
49.640927
 30
0.0
 10
65.801026
 20
49.505773
 30
0.0
 11
66.811598
 21
51.716617
 31
0.0
 11
66.158449
 21
50.807471
 31
0.0
 11
65.867452
 21
49.910973
 31
0.0
 11
65.801026
 21
49.505773
 31
0.0
  0
SPLINE
  5
2b6
100
AcDbEntity
  8
0
 62
5
100
AcDbSpline
 70
0
 71
3
 72
10
 73
6
 74
4
 40
0.000000
 40
0.000000
 40
0.000000
 40
0.000000
 40
0.410610
 40
1.353157
 40
2.472601
 40
2.472601
 40
2.472601
 40
2.472601
 10
66.030633
 20
24.049540
 30
0.0
 10
65.934814
 20
23.952095
 30
0.0
 10
65.619043
 20
23.630969
 30
0.0
 10
64.953659
 20
23.114886
 30
0.0
 10
64.279533
 20
22.946398
 30
0.0
 10
63.913554
 20
22.854927
 30
0.0
 11
66.030633
 21
24.049540
 31
0.0
 11
65.738722
 21
23.760769
 31
0.0
 11
64.976348
 21
23.206529
 31
0.0
 11
63.913554
 21
22.854927
 31
0.0
  0
SPLINE
  5
2b7
100
AcDbEntity
  8
0
 62
5
100
AcDbSpline
 70
0
 71
3
 72
10
 73
6
 74
4
 40
0.000000
 40
0.000000
 40
0.000000
 40
0.000000
 40
1.876907
 40
3.849825
 40
5.726732
 40
5.726732
 40
5.726732
 40
5.726732
 10
63.913554
 20
22.854927
 30
0.0
 10
63.286987
 20
22.929607
 30
0.0
 10
62.001800
 20
23.082787
 30
0.0
 10
60.334670
 20
24.207281
 30
0.0
 10
59.711204
 20
25.341502
 30
0.0
 10
59.407244
 20
25.894469
 30
0.0
 11
63.913554
 21
22.854927
 31
0.0
 11
62.072939
 21
23.222236
 31
0.0
 11
60.437316
 21
24.325478
 31
0.0
 11
59.407244
 21
25.894469
 31
0.0
  0
LWPOLYLINE
  5
2b8
100
AcDbEntity
  8
0
 62
5
100
AcDbPolyline
 90
4
 70
0
 10
70.589369
 20
21.411736
 30
0.0
 10
65.332009
 20
24.957869
 30
0.0
 10
65.129370
 20
24.657449
 30
0.0
 10
66.030633
 20
24.049540
 30
0.0
  0
LWPOLYLINE
  5
2b9
100
AcDbEntity
  8
0
 62
5
100
AcDbPolyline
 90
4
 70
0
 10
59.721801
 20
28.304901
 30
0.0
 10
60.623063
 20
27.696994
 30
0.0
 10
60.825699
 20
27.997414
 30
0.0
 10
55.568339
 20
31.543547
 30
0.0
  0
LWPOLYLINE
  5
2ba
100
AcDbEntity
  8
0
 62
1
100
AcDbPolyline
 90
2
 70
0
 10
64.280536
 20
25.667096
 30
0.0
 10
61.877171
 20
27.288187
 30
0.0
  0
LWPOLYLINE
  5
2bb
100
AcDbEntity
  8
0
 62
5
100
AcDbPolyline
 90
4
 70
0
 10
84.866991
 20
32.566617
 30
0.0
 10
84.130896
 20
27.622882
 30
0.0
 10
75.564311
 20
20.929934
 30
0.0
 10
70.589352
 20
21.411702
 30
0.0
  0
LWPOLYLINE
  5
2bc
100
AcDbEntity
  8
0
 62
5
100
AcDbPolyline
 90
4
 70
0
 10
80.534603
 20
29.871570
 30
0.0
 10
80.521254
 20
28.711492
 30
0.0
 10
75.381302
 20
24.695721
 30
0.0
 10
74.252452
 20
24.963406
 30
0.0
  0
LWPOLYLINE
  5
2bd
100
AcDbEntity
  8
0
 62
1
100
AcDbPolyline
 90
2
 70
0
 10
84.866991
 20
32.566617
 30
0.0
 10
80.869251
 20
29.443241
 30
0.0
  0
LWPOLYLINE
  5
2be
100
AcDbEntity
  8
0
 62
1
100
AcDbPolyline
 90
2
 70
0
 10
70.589352
 20
21.411702
 30
0.0
 10
74.587089
 20
24.535078
 30
0.0
  0
SPLINE
  5
2bf
100
AcDbEntity
  8
0
 62
5
100
AcDbSpline
 70
0
 71
3
 72
10
 73
6
 74
4
 40
0.000000
 40
0.000000
 40
0.000000
 40
0.000000
 40
1.119445
 40
2.061992
 40
2.472602
 40
2.472602
 40
2.472602
 40
2.472602
 10
59.407244
 20
25.894469
 30
0.0
 10
59.354958
 20
26.268065
 30
0.0
 10
59.258646
 20
26.956220
 30
0.0
 10
59.487893
 20
27.766482
 30
0.0
 10
59.667346
 20
28.179555
 30
0.0
 10
59.721801
 20
28.304901
 30
0.0
 11
59.407244
 21
25.894469
 31
0.0
 11
59.335117
 21
27.011587
 31
0.0
 11
59.563409
 21
27.926070
 31
0.0
 11
59.721801
 21
28.304901
 31
0.0
  0
SPLINE
  5
2c0
100
AcDbEntity
  8
0
 62
5
100
AcDbSpline
 70
0
 71
3
 72
10
 73
6
 74
4
 40
0.000000
 40
0.000000
 40
0.000000
 40
0.000000
 40
0.410611
 40
1.353161
 40
2.472609
 40
2.472609
 40
2.472609
 40
2.472609
 10
89.978617
 20
31.297379
 30
0.0
 10
89.979853
 20
31.160721
 30
0.0
 10
89.983926
 20
30.710369
 30
0.0
 10
90.104062
 20
29.876912
 30
0.0
 10
90.471945
 20
29.287423
 30
0.0
 10
90.671667
 20
28.967392
 30
0.0
 11
89.978617
 21
31.297379
 31
0.0
 11
89.988003
 21
30.886875
 31
0.0
 11
90.151401
 21
29.958596
 31
0.0
 11
90.671667
 21
28.967392
 31
0.0
  0
SPLINE
  5
2c1
100
AcDbEntity
  8
0
 62
5
100
AcDbSpline
 70
0
 71
3
 72
10
 73
6
 74
4
 40
0.000000
 40
0.000000
 40
0.000000
 40
0.000000
 40
1.876910
 40
3.849831
 40
5.726743
 40
5.726743
 40
5.726743
 40
5.726743
 10
90.671667
 20
28.967392
 30
0.0
 10
91.174260
 20
28.585862
 30
0.0
 10
92.205156
 20
27.803285
 30
0.0
 10
94.185531
 20
27.454091
 30
0.0
 10
95.421914
 20
27.836887
 30
0.0
 10
96.024689
 20
28.023511
 30
0.0
 11
90.671667
 21
28.967392
 31
0.0
 11
92.250852
 21
27.953013
 31
0.0
 11
94.193801
 21
27.610419
 31
0.0
 11
96.024689
 21
28.023511
 31
0.0
  0
LWPOLYLINE
  5
2c2
100
AcDbEntity
  8
0
 62
5
100
AcDbPolyline
 90
4
 70
0
 10
84.866954
 20
32.566665
 30
0.0
 10
91.112145
 20
31.465471
 30
0.0
 10
91.049221
 20
31.108601
 30
0.0
 10
89.978617
 20
31.297379
 30
0.0
  0
LWPOLYLINE
  5
2c3
100
AcDbEntity
  8
0
 62
5
100
AcDbPolyline
 90
4
 70
0
 10
97.472844
 20
29.975944
 30
0.0
 10
96.402240
 20
30.164720
 30
0.0
 10
96.465167
 20
30.521587
 30
0.0
 10
102.710358
 20
29.420392
 30
0.0
  0
LWPOLYLINE
  5
2c4
100
AcDbEntity
  8
0
 62
1
100
AcDbPolyline
 90
2
 70
0
 10
92.361185
 20
31.245230
 30
0.0
 10
95.216128
 20
30.741827
 30
0.0
  0
LWPOLYLINE
  5
2c5
100
AcDbEntity
  8
0
 62
5
100
AcDbPolyline
 90
5
 70
0
 10
102.710364
 20
29.420432
 30
0.0
 10
106.373326
 20
28.712048
 30
0.0
 10
112.389567
 20
37.855044
 30
0.0
 10
112.027448
 20
40.524098
 30
0.0
 10
114.356718
 20
43.300016
 30
0.0
  0
LWPOLYLINE
  5
2c6
100
AcDbEntity
  8
0
 62
5
100
AcDbPolyline
 90
4
 70
0
 10
103.225685
 20
30.880190
 30
0.0
 10
104.385519
 20
30.853068
 30
0.0
 10
108.578207
 20
35.849717
 30
0.0
 10
108.350081
 20
36.987219
 30
0.0
  0
LWPOLYLINE
  5
2c7
100
AcDbEntity
  8
0
 62
1
100
AcDbPolyline
 90
2
 70
0
 10
102.710364
 20
29.420432
 30
0.0
 10
103.642073
 20
30.530799
 30
0.0
  0
LWPOLYLINE
  5
2c8
100
AcDbEntity
  8
0
 62
1
100
AcDbPolyline
 90
2
 70
0
 10
112.027448
 20
40.524098
 30
0.0
 10
108.766469
 20
36.637816
 30
0.0
  0
LWPOLYLINE
  5
2c9
100
AcDbEntity
  8
0
 62
5
100
AcDbPolyline
 90
8
 70
0
 10
132.200083
 20
40.153775
 30
0.0
 10
119.709700
 20
42.356166
 30
0.0
 10
119.132593
 20
41.170054
 30
0.0
 10
117.316789
 20
41.306246
 30
0.0
 10
116.613395
 20
42.534164
 30
0.0
 10
116.970265
 20
42.471240
 30
0.0
 10
117.033190
 20
42.828107
 30
0.0
 10
114.356679
 20
43.300047
 30
0.0
  0
LWPOLYLINE
  5
2ca
100
AcDbEntity
  8
0
 62
1
100
AcDbPolyline
 90
2
 70
0
 10
118.995963
 20
42.482018
 30
0.0
 10
117.746927
 20
42.702256
 30
0.0
  0
LWPOLYLINE
  5
2cb
100
AcDbEntity
  8
0
 62
5
100
AcDbPolyline
 90
7
 70
0
 10
114.092457
 20
39.521484
 30
0.0
 10
114.391378
 20
41.344894
 30
0.0
 10
116.208463
 20
41.227052
 30
0.0
 10
116.977033
 20
39.984811
 30
0.0
 10
116.614880
 20
39.972168
 30
0.0
 10
116.627523
 20
39.610014
 30
0.0
 10
132.200088
 20
40.153820
 30
0.0
  0
LWPOLYLINE
  5
2cc
100
AcDbEntity
  8
0
 62
1
100
AcDbPolyline
 90
2
 70
0
 10
114.816763
 20
39.546777
 30
0.0
 10
115.903220
 20
39.584719
 30
0.0
  0
SPLINE
  5
2cd
100
AcDbEntity
  8
0
 62
5
100
AcDbSpline
 70
0
 71
3
 72
10
 73
6
 74
4
 40
0.000000
 40
0.000000
 40
0.000000
 40
0.000000
 40
1.119447
 40
2.061996
 40
2.472607
 40
2.472607
 40
2.472607
 40
2.472607
 10
96.024689
 20
28.023511
 30
0.0
 10
96.321823
 20
28.255932
 30
0.0
 10
96.869137
 20
28.684048
 30
0.0
 10
97.267086
 20
29.426151
 30
0.0
 10
97.424943
 20
29.847951
 30
0.0
 10
97.472844
 20
29.975944
 30
0.0
 11
96.024689
 21
28.023511
 31
0.0
 11
96.852590
 21
28.776997
 31
0.0
 11
97.323623
 21
29.593407
 31
0.0
 11
97.472844
 21
29.975944
 31
0.0
  0
SPLINE
  5
2ce
100
AcDbEntity
  8
0
 62
5
100
AcDbSpline
 70
0
 71
3
 72
10
 73
6
 74
4
 40
0.000000
 40
0.000000
 40
0.000000
 40
0.000000
 40
0.180065
 40
0.695691
 40
1.557366
 40
1.557366
 40
1.557366
 40
1.557366
 10
111.296986
 20
31.087219
 30
0.0
 10
111.237667
 20
31.077569
 30
0.0
 10
111.008483
 20
31.040284
 30
0.0
 10
110.527054
 20
30.820916
 30
0.0
 10
110.173516
 20
30.526229
 30
0.0
 10
109.952333
 20
30.341865
 30
0.0
 11
111.296986
 21
31.087219
 31
0.0
 11
111.119975
 21
31.054201
 31
0.0
 11
110.644151
 21
30.855549
 31
0.0
 11
109.952333
 21
30.341865
 31
0.0
  0
SPLINE
  5
2cf
100
AcDbEntity
  8
0
 62
5
100
AcDbSpline
 70
0
 71
3
 72
10
 73
6
 74
4
 40
0.000000
 40
0.000000
 40
0.000000
 40
0.000000
 40
1.678572
 40
3.460368
 40
5.104296
 40
5.104296
 40
5.104296
 40
5.104296
 10
109.952333
 20
30.341865
 30
0.0
 10
109.629816
 20
29.884519
 30
0.0
 10
108.964948
 20
28.941703
 30
0.0
 10
108.066497
 20
27.495903
 30
0.0
 10
107.488124
 20
26.511354
 30
0.0
 10
107.210575
 20
26.038890
 30
0.0
 11
109.952333
 21
30.341865
 31
0.0
 11
108.997906
 21
28.961041
 31
0.0
 11
108.048890
 21
27.453008
 31
0.0
 11
107.210575
 21
26.038890
 31
0.0
  0
LWPOLYLINE
  5
2d0
100
AcDbEntity
  8
0
 62
5
100
AcDbPolyline
 90
4
 70
0
 10
114.092457
 20
39.521518
 30
0.0
 10
111.345670
 20
29.942334
 30
0.0
 10
110.997337
 20
30.042215
 30
0.0
 10
111.296986
 20
31.087219
 30
0.0
  0
LWPOLYLINE
  5
2d1
100
AcDbEntity
  8
0
 62
5
100
AcDbPolyline
 90
4
 70
0
 10
109.199437
 20
23.772206
 30
0.0
 10
109.499090
 20
24.817207
 30
0.0
 10
109.847422
 20
24.717323
 30
0.0
 10
109.098297
 20
22.104820
 30
0.0
  0
LWPOLYLINE
  5
2d2
100
AcDbEntity
  8
0
 62
1
100
AcDbPolyline
 90
2
 70
0
 10
110.996078
 20
28.723165
 30
0.0
 10
110.197014
 20
25.936492
 30
0.0
  0
LWPOLYLINE
  5
2d3
100
AcDbEntity
  8
0
 62
5
100
AcDbPolyline
 90
4
 70
0
 10
124.119352
 20
11.973025
 30
0.0
 10
119.190129
 20
11.145408
 30
0.0
 10
110.177557
 20
17.224453
 30
0.0
 10
109.098402
 20
22.104783
 30
0.0
  0
LWPOLYLINE
  5
2d4
100
AcDbEntity
  8
0
 62
5
100
AcDbPolyline
 90
4
 70
0
 10
120.217438
 20
15.260547
 30
0.0
 10
119.110012
 20
14.914768
 30
0.0
 10
113.702471
 20
18.562203
 30
0.0
 10
113.608223
 20
19.718521
 30
0.0
  0
LWPOLYLINE
  5
2d5
100
AcDbEntity
  8
0
 62
1
100
AcDbPolyline
 90
2
 70
0
 10
124.119352
 20
11.973025
 30
0.0
 10
119.913487
 20
14.809917
 30
0.0
  0
LWPOLYLINE
  5
2d6
100
AcDbEntity
  8
0
 62
1
100
AcDbPolyline
 90
2
 70
0
 10
109.098402
 20
22.104783
 30
0.0
 10
113.304269
 20
19.267891
 30
0.0
  0
SPLINE
  5
2d7
100
AcDbEntity
  8
0
 62
5
100
AcDbSpline
 70
0
 71
3
 72
10
 73
6
 74
4
 40
0.000000
 40
0.000000
 40
0.000000
 40
0.000000
 40
1.281089
 40
2.491471
 40
3.035193
 40
3.035193
 40
3.035193
 40
3.035193
 10
107.210575
 20
26.038890
 30
0.0
 10
107.432848
 20
25.671972
 30
0.0
 10
107.865126
 20
24.958388
 30
0.0
 10
108.610427
 20
24.260814
 30
0.0
 10
109.060063
 20
23.887822
 30
0.0
 10
109.199437
 20
23.772206
 30
0.0
 11
107.210575
 21
26.038890
 31
0.0
 11
107.924855
 21
24.975408
 31
0.0
 11
108.783131
 21
24.121953
 31
0.0
 11
109.199437
 21
23.772206
 31
0.0
  0
SPLINE
  5
2d8
100
AcDbEntity
  8
0
 62
5
100
AcDbSpline
 70
0
 71
3
 72
10
 73
6
 74
4
 40
0.000000
 40
0.000000
 40
0.000000
 40
0.000000
 40
0.410611
 40
1.353160
 40
2.472606
 40
2.472606
 40
2.472606
 40
2.472606
 10
134.479569
 20
19.607433
 30
0.0
 10
134.542635
 20
19.486191
 30
0.0
 10
134.750466
 20
19.086641
 30
0.0
 10
135.035676
 20
18.294343
 30
0.0
 10
134.987602
 20
17.601145
 30
0.0
 10
134.961503
 20
17.224811
 30
0.0
 11
134.479569
 21
19.607433
 31
0.0
 11
134.664001
 21
19.240573
 31
0.0
 11
134.955530
 21
18.344241
 31
0.0
 11
134.961503
 21
17.224811
 31
0.0
  0
SPLINE
  5
2d9
100
AcDbEntity
  8
0
 62
5
100
AcDbSpline
 70
0
 71
3
 72
10
 73
6
 74
4
 40
0.000000
 40
0.000000
 40
0.000000
 40
0.000000
 40
1.876907
 40
3.849825
 40
5.726731
 40
5.726731
 40
5.726731
 40
5.726731
 10
134.961503
 20
17.224811
 30
0.0
 10
134.696858
 20
16.651987
 30
0.0
 10
134.154030
 20
15.477038
 30
0.0
 10
132.569399
 20
14.238993
 30
0.0
 10
131.298029
 20
13.996539
 30
0.0
 10
130.678197
 20
13.878336
 30
0.0
 11
134.961503
 21
17.224811
 31
0.0
 11
134.043389
 21
15.587787
 31
0.0
 11
132.488707
 21
14.373140
 31
0.0
 11
130.678197
 21
13.878336
 31
0.0
  0
LWPOLYLINE
  5
2da
100
AcDbEntity
  8
0
 62
5
100
AcDbPolyline
 90
4
 70
0
 10
138.397003
 20
23.127923
 30
0.0
 10
133.399809
 20
19.223689
 30
0.0
 10
133.622909
 20
18.938134
 30
0.0
 10
134.479569
 20
19.607433
 30
0.0
  0
LWPOLYLINE
  5
2db
100
AcDbEntity
  8
0
 62
5
100
AcDbPolyline
 90
4
 70
0
 10
128.482939
 20
14.922349
 30
0.0
 10
129.339600
 20
15.591647
 30
0.0
 10
129.116500
 20
15.877200
 30
0.0
 10
124.119307
 20
11.972969
 30
0.0
  0
LWPOLYLINE
  5
2dc
100
AcDbEntity
  8
0
 62
1
100
AcDbPolyline
 90
2
 70
0
 10
132.400370
 20
18.442843
 30
0.0
 10
130.115939
 20
16.658047
 30
0.0
  0
LWPOLYLINE
  5
2dd
100
AcDbEntity
  8
0
 62
5
100
AcDbPolyline
 90
4
 70
0
 10
138.397014
 20
23.127906
 30
0.0
 10
141.367877
 20
19.108441
 30
0.0
 10
152.073827
 20
17.220693
 30
0.0
 10
156.240263
 20
19.981659
 30
0.0
  0
LWPOLYLINE
  5
2de
100
AcDbEntity
  8
0
 62
5
100
AcDbPolyline
 90
4
 70
0
 10
143.487510
 20
22.782255
 30
0.0
 10
144.043928
 20
21.764243
 30
0.0
 10
150.467497
 20
20.631594
 30
0.0
 10
151.338540
 20
21.397907
 30
0.0
  0
LWPOLYLINE
  5
2df
100
AcDbEntity
  8
0
 62
1
100
AcDbPolyline
 90
2
 70
0
 10
138.397014
 20
23.127906
 30
0.0
 10
143.393123
 20
22.246958
 30
0.0
  0
LWPOLYLINE
  5
2e0
100
AcDbEntity
  8
0
 62
1
100
AcDbPolyline
 90
2
 70
0
 10
156.240263
 20
19.981659
 30
0.0
 10
151.244153
 20
20.862610
 30
0.0
  0
LWPOLYLINE
  5
2e1
100
AcDbEntity
  8
0
 62
1
100
AcDbPolyline
 90
2
 70
0
 10
84.866895
 20
32.566798
 30
0.0
 10
78.670048
 20
49.592491
 30
0.0
  0
LWPOLYLINE
  5
2e2
100
AcDbEntity
  8
0
 62
1
100
AcDbPolyline
 90
2
 70
0
 10
114.356738
 20
43.300225
 30
0.0
 10
108.159891
 20
60.325919
 30
0.0
  0
LWPOLYLINE
  5
2e3
100
AcDbEntity
  8
0
 62
1
100
AcDbPolyline
 90
2
 70
0
 10
95.765995
 20
94.377873
 30
0.0
 10
89.569044
 20
111.403848
 30
0.0
  0
LWPOLYLINE
  5
2e4
100
AcDbEntity
  8
0
 62
1
100
AcDbPolyline
 90
2
 70
0
 10
77.175250
 20
145.455520
 30
0.0
 10
70.978302
 20
162.481498
 30
0.0
  0
LWPOLYLINE
  5
2e5
100
AcDbEntity
  8
0
 62
1
100
AcDbPolyline
 90
2
 70
0
 10
58.584507
 20
196.533167
 30
0.0
 10
52.387556
 20
213.559146
 30
0.0
  0
LWPOLYLINE
  5
2e6
100
AcDbEntity
  8
0
 62
1
100
AcDbPolyline
 90
2
 70
0
 10
39.993660
 20
247.611100
 30
0.0
 10
33.796814
 20
264.636793
 30
0.0
  0
LWPOLYLINE
  5
2e7
100
AcDbEntity
  8
0
 62
1
100
AcDbPolyline
 90
3
 70
0
 10
138.396943
 20
23.127921
 30
0.0
 10
132.199992
 20
40.153896
 30
0.0
 10
143.846299
 20
54.033546
 30
0.0
  0
LWPOLYLINE
  5
2e8
100
AcDbEntity
  8
0
 62
1
100
AcDbPolyline
 90
2
 70
0
 10
119.806198
 20
74.205568
 30
0.0
 10
113.609250
 20
91.231544
 30
0.0
  0
LWPOLYLINE
  5
2e9
100
AcDbEntity
  8
0
 62
1
100
AcDbPolyline
 90
2
 70
0
 10
119.806198
 20
74.205568
 30
0.0
 10
137.649452
 20
71.059239
 30
0.0
  0
LWPOLYLINE
  5
2ea
100
AcDbEntity
  8
0
 62
1
100
AcDbPolyline
 90
2
 70
0
 10
113.609250
 20
91.231544
 30
0.0
 10
125.255556
 20
105.111196
 30
0.0
  0
LWPOLYLINE
  5
2eb
100
AcDbEntity
  8
0
 62
1
100
AcDbPolyline
 90
2
 70
0
 10
101.215455
 20
125.283215
 30
0.0
 10
95.018504
 20
142.309194
 30
0.0
  0
LWPOLYLINE
  5
2ec
100
AcDbEntity
  8
0
 62
1
100
AcDbPolyline
 90
2
 70
0
 10
101.215455
 20
125.283215
 30
0.0
 10
119.058605
 20
122.137171
 30
0.0
  0
LWPOLYLINE
  5
2ed
100
AcDbEntity
  8
0
 62
1
100
AcDbPolyline
 90
2
 70
0
 10
95.018504
 20
142.309194
 30
0.0
 10
106.664811
 20
156.188843
 30
0.0
  0
LWPOLYLINE
  5
2ee
100
AcDbEntity
  8
0
 62
1
100
AcDbPolyline
 90
2
 70
0
 10
82.624608
 20
176.361148
 30
0.0
 10
76.427762
 20
193.386841
 30
0.0
  0
LWPOLYLINE
  5
2ef
100
AcDbEntity
  8
0
 62
1
100
AcDbPolyline
 90
2
 70
0
 10
82.624608
 20
176.361148
 30
0.0
 10
100.467863
 20
173.214819
 30
0.0
  0
LWPOLYLINE
  5
2f0
100
AcDbEntity
  8
0
 62
1
100
AcDbPolyline
 90
2
 70
0
 10
76.427762
 20
193.386841
 30
0.0
 10
88.074068
 20
207.266491
 30
0.0
  0
LWPOLYLINE
  5
2f1
100
AcDbEntity
  8
0
 62
1
100
AcDbPolyline
 90
2
 70
0
 10
64.033863
 20
227.438795
 30
0.0
 10
57.836915
 20
244.464774
 30
0.0
  0
LWPOLYLINE
  5
2f2
100
AcDbEntity
  8
0
 62
1
100
AcDbPolyline
 90
2
 70
0
 10
64.033863
 20
227.438795
 30
0.0
 10
81.877117
 20
224.292469
 30
0.0
  0
LWPOLYLINE
  5
2f3
100
AcDbEntity
  8
0
 62
1
100
AcDbPolyline
 90
2
 70
0
 10
57.836915
 20
244.464774
 30
0.0
 10
69.483218
 20
258.344423
 30
0.0
  0
LWPOLYLINE
  5
2f4
100
AcDbEntity
  8
0
 62
1
100
AcDbPolyline
 90
2
 70
0
 10
143.846299
 20
54.033546
 30
0.0
 10
137.649452
 20
71.059239
 30
0.0
  0
LWPOLYLINE
  5
2f5
100
AcDbEntity
  8
0
 62
1
100
AcDbPolyline
 90
2
 70
0
 10
125.255556
 20
105.111196
 30
0.0
 10
119.058605
 20
122.137171
 30
0.0
  0
LWPOLYLINE
  5
2f6
100
AcDbEntity
  8
0
 62
1
100
AcDbPolyline
 90
2
 70
0
 10
106.664811
 20
156.188843
 30
0.0
 10
100.467863
 20
173.214819
 30
0.0
  0
LWPOLYLINE
  5
2f7
100
AcDbEntity
  8
0
 62
1
100
AcDbPolyline
 90
2
 70
0
 10
88.074068
 20
207.266491
 30
0.0
 10
81.877117
 20
224.292469
 30
0.0
  0
LWPOLYLINE
  5
2f8
100
AcDbEntity
  8
0
 62
1
100
AcDbPolyline
 90
2
 70
0
 10
69.483218
 20
258.344423
 30
0.0
 10
63.286375
 20
275.370116
 30
0.0
  0
LWPOLYLINE
  5
2f9
100
AcDbEntity
  8
0
 62
1
100
AcDbPolyline
 90
2
 70
0
 10
167.886786
 20
33.861345
 30
0.0
 10
161.689838
 20
50.887321
 30
0.0
  0
LWPOLYLINE
  5
2fa
100
AcDbEntity
  8
0
 62
1
100
AcDbPolyline
 90
2
 70
0
 10
149.296044
 20
84.938993
 30
0.0
 10
143.099093
 20
101.964971
 30
0.0
  0
LWPOLYLINE
  5
2fb
100
AcDbEntity
  8
0
 62
1
100
AcDbPolyline
 90
2
 70
0
 10
130.705298
 20
136.016640
 30
0.0
 10
124.508350
 20
153.042619
 30
0.0
  0
LWPOLYLINE
  5
2fc
100
AcDbEntity
  8
0
 62
1
100
AcDbPolyline
 90
2
 70
0
 10
112.114451
 20
187.094573
 30
0.0
 10
105.917605
 20
204.120266
 30
0.0
  0
LWPOLYLINE
  5
2fd
100
AcDbEntity
  8
0
 62
1
100
AcDbPolyline
 90
2
 70
0
 10
93.523706
 20
238.172220
 30
0.0
 10
87.326758
 20
255.198198
 30
0.0
  0
SPLINE
  5
2fe
100
AcDbEntity
  8
0
 62
5
100
AcDbSpline
 70
0
 71
3
 72
10
 73
6
 74
4
 40
0.000000
 40
0.000000
 40
0.000000
 40
0.000000
 40
1.119436
 40
2.061992
 40
2.472614
 40
2.472614
 40
2.472614
 40
2.472614
 10
130.678197
 20
13.878336
 30
0.0
 10
130.306726
 20
13.944035
 30
0.0
 10
129.622481
 20
14.065054
 30
0.0
 10
128.922719
 20
14.533486
 30
0.0
 10
128.585322
 20
14.831820
 30
0.0
 10
128.482939
 20
14.922349
 30
0.0
 11
130.678197
 21
13.878336
 31
0.0
 11
129.593462
 21
14.154901
 31
0.0
 11
128.794283
 21
14.654626
 31
0.0
 11
128.482939
 21
14.922349
 31
0.0
  0
LWPOLYLINE
  5
2ff
100
AcDbEntity
  8
0
 62
1
100
AcDbPolyline
 90
2
 70
0
 10
178.785602
 20
95.672316
 30
0.0
 10
172.588654
 20
112.698291
 30
0.0
  0
ENDSEC
  0
SECTION
  2
OBJECTS
  0
DICTIONARY
  5
C
330
0
100
AcDbDictionary
  3
ACAD_GROUP
350
D
  3
ACAD_MLINESTYLE
350
17
  0
DICTIONARY
  5
D
330
C
100
AcDbDictionary
  0
DICTIONARY
  5
1A
330
C
100
AcDbDictionary
  0
DICTIONARY
  5
17
330
C
100
AcDbDictionary
  3
STANDARD
350
18
  0
DICTIONARY
  5
19
330
C
100
AcDbDictionary
  0
ENDSEC
  0
EOF
