999
DXF created by Inkscape
  0
SECTION
  2
HEADER
  9
$ACADVER
  1
AC1014
  9
$HANDSEED
  5
FFFF
  9
$MEASUREMENT
 70
     1
  0
ENDSEC
  0
SECTION
  2
TABLES
  0
TABLE
  2
VPORT
  5
8
330
0
100
AcDbSymbolTable
 70
     4
  0
VPORT
  5
2E
330
8
100
AcDbSymbolTableRecord
100
AcDbViewportTableRecord
  2
*ACTIVE
 70
     0
 10
0.0
 20
0.0
 11
1.0
 21
1.0
 12
210.0
 22
148.5
 13
0.0
 23
0.0
 14
10.0
 24
10.0
 15
10.0
 25
10.0
 16
0.0
 26
0.0
 36
1.0
 17
0.0
 27
0.0
 37
0.0
 40
341.0
 41
1.24
 42
50.0
 43
0.0
 44
0.0
 50
0.0
 51
0.0
 71
     0
 72
   100
 73
     1
 74
     3
 75
     0
 76
     0
 77
     0
 78
     0
  0
ENDTAB
  0
TABLE
  2
LTYPE
  5
5
330
0
100
AcDbSymbolTable
 70
     1
  0
LTYPE
  5
14
330
5
100
AcDbSymbolTableRecord
100
AcDbLinetypeTableRecord
  2
BYBLOCK
 70
     0
  3

 72
    65
 73
     0
 40
0.0
  0
LTYPE
  5
15
330
5
100
AcDbSymbolTableRecord
100
AcDbLinetypeTableRecord
  2
BYLAYER
 70
     0
  3

 72
    65
 73
     0
 40
0.0
  0
LTYPE
  5
16
330
5
100
AcDbSymbolTableRecord
100
AcDbLinetypeTableRecord
  2
CONTINUOUS
 70
     0
  3
Solid line
 72
    65
 73
     0
 40
0.0
  0
ENDTAB
  0
TABLE
  2
LAYER
  5
2
330
0
100
AcDbSymbolTable
 70
1
  0
LAYER
  5
10
330
2
100
AcDbSymbolTableRecord
100
AcDbLayerTableRecord
  2
0
 70
     0
 62
     7
  6
CONTINUOUS
  0
ENDTAB
  0
TABLE
  2
STYLE
  5
3
330
0
100
AcDbSymbolTable
 70
     1
  0
STYLE
  5
11
330
3
100
AcDbSymbolTableRecord
100
AcDbTextStyleTableRecord
  2
STANDARD
 70
     0
 40
0.0
 41
1.0
 50
0.0
 71
     0
 42
2.5
  3
txt
  4

  0
ENDTAB
  0
TABLE
  2
VIEW
  5
6
330
0
100
AcDbSymbolTable
 70
     0
  0
ENDTAB
  0
TABLE
  2
UCS
  5
7
330
0
100
AcDbSymbolTable
 70
     0
  0
ENDTAB
  0
TABLE
  2
APPID
  5
9
330
0
100
AcDbSymbolTable
 70
     2
  0
APPID
  5
12
330
9
100
AcDbSymbolTableRecord
100
AcDbRegAppTableRecord
  2
ACAD
 70
     0
  0
ENDTAB
  0
TABLE
  2
DIMSTYLE
  5
A
330
0
100
AcDbSymbolTable
 70
     1
  0
DIMSTYLE
105
27
330
A
100
AcDbSymbolTableRecord
100
AcDbDimStyleTableRecord
  2
ISO-25
 70
     0
  3

  4

  5

  6

  7

 40
1.0
 41
2.5
 42
0.625
 43
3.75
 44
1.25
 45
0.0
 46
0.0
 47
0.0
 48
0.0
140
2.5
141
2.5
142
0.0
143
0.03937007874016
144
1.0
145
0.0
146
1.0
147
0.625
 71
     0
 72
     0
 73
     0
 74
     0
 75
     0
 76
     0
 77
     1
 78
     8
170
     0
171
     3
172
     1
173
     0
174
     0
175
     0
176
     0
177
     0
178
     0
270
     2
271
     2
272
     2
273
     2
274
     3
340
11
275
     0
280
     0
281
     0
282
     0
283
     0
284
     8
285
     0
286
     0
287
     3
288
     0
  0
ENDTAB
  0
TABLE
  2
BLOCK_RECORD
  5
1
330
0
100
AcDbSymbolTable
 70
     1
  0
BLOCK_RECORD
  5
1F
330
1
100
AcDbSymbolTableRecord
100
AcDbBlockTableRecord
  2
*MODEL_SPACE
  0
BLOCK_RECORD
  5
1B
330
1
100
AcDbSymbolTableRecord
100
AcDbBlockTableRecord
  2
*PAPER_SPACE
  0
ENDTAB
  0
ENDSEC
  0
SECTION
  2
BLOCKS
  0
BLOCK
  5
20
330
1F
100
AcDbEntity
  8
0
100
AcDbBlockBegin
  2
*MODEL_SPACE
 70
     0
 10
0.0
 20
0.0
 30
0.0
  3
*MODEL_SPACE
  1

  0
ENDBLK
  5
21
330
1F
100
AcDbEntity
  8
0
100
AcDbBlockEnd
  0
BLOCK
  5
1C
330
1B
100
AcDbEntity
 67
     1
  8
0
100
AcDbBlockBegin
  2
*PAPER_SPACE
  1

  0
ENDBLK
  5
1D
330
1B
100
AcDbEntity
 67
     1
  8
0
100
AcDbBlockEnd
  0
ENDSEC
  0
SECTION
  2
ENTITIES
  0
SPLINE
  5
100
100
AcDbEntity
  8
0
 62
5
100
AcDbSpline
 70
0
 71
3
 72
10
 73
6
 74
4
 40
0.000000
 40
0.000000
 40
0.000000
 40
0.000000
 40
0.383748
 40
1.264635
 40
2.310846
 40
2.310846
 40
2.310846
 40
2.310846
 10
57.525976
 20
174.578358
 30
0.0
 10
57.405566
 20
174.535762
 30
0.0
 10
57.008757
 20
174.395387
 30
0.0
 10
56.238401
 20
174.234483
 30
0.0
 10
55.603110
 20
174.369137
 30
0.0
 10
55.258214
 20
174.442240
 30
0.0
 11
57.525976
 21
174.578358
 31
0.0
 11
57.162465
 21
174.455387
 31
0.0
 11
56.295006
 21
174.302167
 31
0.0
 11
55.258214
 21
174.442240
 31
0.0
  0
SPLINE
  5
101
100
AcDbEntity
  8
0
 62
5
100
AcDbSpline
 70
0
 71
3
 72
10
 73
6
 74
4
 40
0.000000
 40
0.000000
 40
0.000000
 40
0.000000
 40
1.754123
 40
3.597974
 40
5.352096
 40
5.352096
 40
5.352096
 40
5.352096
 10
55.258214
 20
174.442240
 30
0.0
 10
54.762496
 20
174.761672
 30
0.0
 10
53.745702
 20
175.416876
 30
0.0
 10
52.806017
 20
177.044458
 30
0.0
 10
52.746991
 20
178.252630
 30
0.0
 10
52.718214
 20
178.841650
 30
0.0
 11
55.258214
 21
174.442240
 31
0.0
 11
53.862589
 21
175.504868
 31
0.0
 11
52.940663
 21
177.101690
 31
0.0
 11
52.718214
 21
178.841650
 31
0.0
  0
LWPOLYLINE
  5
102
100
AcDbEntity
  8
0
 62
5
100
AcDbPolyline
 90
4
 70
0
 10
60.274604
 20
170.494930
 30
0.0
 10
57.311270
 20
175.627573
 30
0.0
 10
57.017976
 20
175.458240
 30
0.0
 10
57.525976
 20
174.578358
 30
0.0
  0
LWPOLYLINE
  5
103
100
AcDbEntity
  8
0
 62
5
100
AcDbPolyline
 90
4
 70
0
 10
53.969976
 20
180.737531
 30
0.0
 10
54.477976
 20
179.857650
 30
0.0
 10
54.771270
 20
180.026983
 30
0.0
 10
51.807937
 20
185.159626
 30
0.0
  0
LWPOLYLINE
  5
104
100
AcDbEntity
  8
0
 62
1
100
AcDbPolyline
 90
2
 70
0
 10
56.718604
 20
176.654103
 30
0.0
 10
55.363937
 20
179.000453
 30
0.0
  0
LWPOLYLINE
  5
105
100
AcDbEntity
  8
0
 62
5
100
AcDbPolyline
 90
4
 70
0
 10
77.207835
 20
170.494911
 30
0.0
 10
73.821183
 20
167.277591
 30
0.0
 10
63.661222
 20
167.277591
 30
0.0
 10
60.274570
 20
170.494911
 30
0.0
  0
LWPOLYLINE
  5
106
100
AcDbEntity
  8
0
 62
5
100
AcDbPolyline
 90
4
 70
0
 10
72.466522
 20
171.002908
 30
0.0
 10
71.789191
 20
170.156244
 30
0.0
 10
65.693214
 20
170.156244
 30
0.0
 10
65.015883
 20
171.002908
 30
0.0
  0
LWPOLYLINE
  5
107
100
AcDbEntity
  8
0
 62
1
100
AcDbPolyline
 90
2
 70
0
 10
77.207835
 20
170.494911
 30
0.0
 10
72.466522
 20
170.494911
 30
0.0
  0
LWPOLYLINE
  5
108
100
AcDbEntity
  8
0
 62
1
100
AcDbPolyline
 90
2
 70
0
 10
60.274570
 20
170.494911
 30
0.0
 10
65.015883
 20
170.494911
 30
0.0
  0
SPLINE
  5
109
100
AcDbEntity
  8
0
 62
5
100
AcDbSpline
 70
0
 71
3
 72
10
 73
6
 74
4
 40
0.000000
 40
0.000000
 40
0.000000
 40
0.000000
 40
1.046212
 40
1.927099
 40
2.310847
 40
2.310847
 40
2.310847
 40
2.310847
 10
52.718214
 20
178.841650
 30
0.0
 10
52.827352
 20
179.176890
 30
0.0
 10
53.028384
 20
179.794396
 30
0.0
 10
53.552908
 20
180.381092
 30
0.0
 10
53.872882
 20
180.654551
 30
0.0
 10
53.969976
 20
180.737531
 30
0.0
 11
52.718214
 21
178.841650
 31
0.0
 11
53.115302
 21
179.809576
 31
0.0
 11
53.681724
 21
180.484207
 31
0.0
 11
53.969976
 21
180.737531
 31
0.0
  0
SPLINE
  5
10a
100
AcDbEntity
  8
0
 62
5
100
AcDbSpline
 70
0
 71
3
 72
10
 73
6
 74
4
 40
0.000000
 40
0.000000
 40
0.000000
 40
0.000000
 40
0.383749
 40
1.264635
 40
2.310847
 40
2.310847
 40
2.310847
 40
2.310847
 10
83.512462
 20
180.737511
 30
0.0
 10
83.609557
 20
180.654531
 30
0.0
 10
83.929530
 20
180.381072
 30
0.0
 10
84.454055
 20
179.794376
 30
0.0
 10
84.655086
 20
179.176870
 30
0.0
 10
84.764225
 20
178.841630
 30
0.0
 11
83.512462
 21
180.737511
 31
0.0
 11
83.800715
 21
180.484186
 31
0.0
 11
84.367137
 21
179.809555
 31
0.0
 11
84.764225
 21
178.841630
 31
0.0
  0
SPLINE
  5
10b
100
AcDbEntity
  8
0
 62
5
100
AcDbSpline
 70
0
 71
3
 72
10
 73
6
 74
4
 40
0.000000
 40
0.000000
 40
0.000000
 40
0.000000
 40
1.754123
 40
3.597975
 40
5.352097
 40
5.352097
 40
5.352097
 40
5.352097
 10
84.764225
 20
178.841630
 30
0.0
 10
84.735448
 20
178.252609
 30
0.0
 10
84.676422
 20
177.044437
 30
0.0
 10
83.736737
 20
175.416855
 30
0.0
 10
82.719943
 20
174.761652
 30
0.0
 10
82.224225
 20
174.442220
 30
0.0
 11
84.764225
 21
178.841630
 31
0.0
 11
84.541776
 21
177.101669
 31
0.0
 11
83.619850
 21
175.504846
 31
0.0
 11
82.224225
 21
174.442220
 31
0.0
  0
LWPOLYLINE
  5
10c
100
AcDbEntity
  8
0
 62
5
100
AcDbPolyline
 90
4
 70
0
 10
85.674502
 20
185.159606
 30
0.0
 10
82.711169
 20
180.026963
 30
0.0
 10
83.004462
 20
179.857630
 30
0.0
 10
83.512462
 20
180.737511
 30
0.0
  0
LWPOLYLINE
  5
10d
100
AcDbEntity
  8
0
 62
5
100
AcDbPolyline
 90
4
 70
0
 10
79.956462
 20
174.578339
 30
0.0
 10
80.464462
 20
175.458220
 30
0.0
 10
80.171169
 20
175.627553
 30
0.0
 10
77.207835
 20
170.494911
 30
0.0
  0
LWPOLYLINE
  5
10e
100
AcDbEntity
  8
0
 62
1
100
AcDbPolyline
 90
2
 70
0
 10
82.118502
 20
179.000434
 30
0.0
 10
80.763835
 20
176.654083
 30
0.0
  0
LWPOLYLINE
  5
10f
100
AcDbEntity
  8
0
 62
5
100
AcDbPolyline
 90
4
 70
0
 10
85.674468
 20
185.159626
 30
0.0
 10
84.581509
 20
180.618021
 30
0.0
 10
89.661509
 20
171.819202
 30
0.0
 10
94.141135
 20
170.494930
 30
0.0
  0
LWPOLYLINE
  5
110
100
AcDbEntity
  8
0
 62
5
100
AcDbPolyline
 90
4
 70
0
 10
88.485077
 20
181.307510
 30
0.0
 10
88.090508
 20
180.297589
 30
0.0
 10
91.138508
 20
175.018298
 30
0.0
 10
92.210410
 20
174.855043
 30
0.0
  0
LWPOLYLINE
  5
111
100
AcDbEntity
  8
0
 62
1
100
AcDbPolyline
 90
2
 70
0
 10
85.674468
 20
185.159626
 30
0.0
 10
88.045135
 20
181.053510
 30
0.0
  0
LWPOLYLINE
  5
112
100
AcDbEntity
  8
0
 62
1
100
AcDbPolyline
 90
2
 70
0
 10
94.141135
 20
170.494930
 30
0.0
 10
91.770468
 20
174.601043
 30
0.0
  0
SPLINE
  5
113
100
AcDbEntity
  8
0
 62
5
100
AcDbSpline
 70
0
 71
3
 72
10
 73
6
 74
4
 40
0.000000
 40
0.000000
 40
0.000000
 40
0.000000
 40
1.046212
 40
1.927098
 40
2.310847
 40
2.310847
 40
2.310847
 40
2.310847
 10
82.224225
 20
174.442220
 30
0.0
 10
81.879329
 20
174.369117
 30
0.0
 10
81.244038
 20
174.234462
 30
0.0
 10
80.473682
 20
174.395366
 30
0.0
 10
80.076873
 20
174.535742
 30
0.0
 10
79.956462
 20
174.578339
 30
0.0
 11
82.224225
 21
174.442220
 31
0.0
 11
81.187433
 21
174.302146
 31
0.0
 11
80.319974
 21
174.455367
 31
0.0
 11
79.956462
 21
174.578339
 31
0.0
  0
SPLINE
  5
114
100
AcDbEntity
  8
0
 62
5
100
AcDbSpline
 70
0
 71
3
 72
10
 73
6
 74
4
 40
0.000000
 40
0.000000
 40
0.000000
 40
0.000000
 40
0.383749
 40
1.264635
 40
2.310847
 40
2.310847
 40
2.310847
 40
2.310847
 10
100.445728
 20
180.737511
 30
0.0
 10
100.542823
 20
180.654531
 30
0.0
 10
100.862796
 20
180.381072
 30
0.0
 10
101.387320
 20
179.794376
 30
0.0
 10
101.588352
 20
179.176870
 30
0.0
 10
101.697491
 20
178.841630
 30
0.0
 11
100.445728
 21
180.737511
 31
0.0
 11
100.733980
 21
180.484186
 31
0.0
 11
101.300402
 21
179.809555
 31
0.0
 11
101.697491
 21
178.841630
 31
0.0
  0
SPLINE
  5
115
100
AcDbEntity
  8
0
 62
5
100
AcDbSpline
 70
0
 71
3
 72
10
 73
6
 74
4
 40
0.000000
 40
0.000000
 40
0.000000
 40
0.000000
 40
1.754123
 40
3.597975
 40
5.352097
 40
5.352097
 40
5.352097
 40
5.352097
 10
101.697491
 20
178.841630
 30
0.0
 10
101.668714
 20
178.252609
 30
0.0
 10
101.609688
 20
177.044437
 30
0.0
 10
100.670003
 20
175.416855
 30
0.0
 10
99.653209
 20
174.761652
 30
0.0
 10
99.157491
 20
174.442220
 30
0.0
 11
101.697491
 21
178.841630
 31
0.0
 11
101.475041
 21
177.101669
 31
0.0
 11
100.553115
 21
175.504846
 31
0.0
 11
99.157491
 21
174.442220
 31
0.0
  0
LWPOLYLINE
  5
116
100
AcDbEntity
  8
0
 62
5
100
AcDbPolyline
 90
4
 70
0
 10
102.607768
 20
185.159606
 30
0.0
 10
99.644434
 20
180.026963
 30
0.0
 10
99.937728
 20
179.857630
 30
0.0
 10
100.445728
 20
180.737511
 30
0.0
  0
LWPOLYLINE
  5
117
100
AcDbEntity
  8
0
 62
5
100
AcDbPolyline
 90
4
 70
0
 10
96.889728
 20
174.578339
 30
0.0
 10
97.397728
 20
175.458220
 30
0.0
 10
97.104434
 20
175.627553
 30
0.0
 10
94.141101
 20
170.494911
 30
0.0
  0
LWPOLYLINE
  5
118
100
AcDbEntity
  8
0
 62
1
100
AcDbPolyline
 90
2
 70
0
 10
99.051768
 20
179.000434
 30
0.0
 10
97.697101
 20
176.654083
 30
0.0
  0
LWPOLYLINE
  5
119
100
AcDbEntity
  8
0
 62
5
100
AcDbPolyline
 90
4
 70
0
 10
102.607734
 20
185.159626
 30
0.0
 10
101.514775
 20
180.618021
 30
0.0
 10
106.594775
 20
171.819202
 30
0.0
 10
111.074400
 20
170.494930
 30
0.0
  0
LWPOLYLINE
  5
11a
100
AcDbEntity
  8
0
 62
5
100
AcDbPolyline
 90
4
 70
0
 10
105.418342
 20
181.307510
 30
0.0
 10
105.023773
 20
180.297589
 30
0.0
 10
108.071773
 20
175.018298
 30
0.0
 10
109.143676
 20
174.855043
 30
0.0
  0
LWPOLYLINE
  5
11b
100
AcDbEntity
  8
0
 62
1
100
AcDbPolyline
 90
2
 70
0
 10
102.607734
 20
185.159626
 30
0.0
 10
104.978400
 20
181.053510
 30
0.0
  0
LWPOLYLINE
  5
11c
100
AcDbEntity
  8
0
 62
1
100
AcDbPolyline
 90
2
 70
0
 10
111.074400
 20
170.494930
 30
0.0
 10
108.703734
 20
174.601043
 30
0.0
  0
SPLINE
  5
11d
100
AcDbEntity
  8
0
 62
5
100
AcDbSpline
 70
0
 71
3
 72
10
 73
6
 74
4
 40
0.000000
 40
0.000000
 40
0.000000
 40
0.000000
 40
1.046212
 40
1.927098
 40
2.310847
 40
2.310847
 40
2.310847
 40
2.310847
 10
99.157491
 20
174.442220
 30
0.0
 10
98.812595
 20
174.369117
 30
0.0
 10
98.177303
 20
174.234462
 30
0.0
 10
97.406947
 20
174.395366
 30
0.0
 10
97.010138
 20
174.535742
 30
0.0
 10
96.889728
 20
174.578339
 30
0.0
 11
99.157491
 21
174.442220
 31
0.0
 11
98.120699
 21
174.302146
 31
0.0
 11
97.253240
 21
174.455367
 31
0.0
 11
96.889728
 21
174.578339
 31
0.0
  0
SPLINE
  5
11e
100
AcDbEntity
  8
0
 62
5
100
AcDbSpline
 70
0
 71
3
 72
10
 73
6
 74
4
 40
0.000000
 40
0.000000
 40
0.000000
 40
0.000000
 40
0.383747
 40
1.264630
 40
2.310838
 40
2.310838
 40
2.310838
 40
2.310838
 10
123.096988
 20
170.156244
 30
0.0
 10
123.073673
 20
170.030668
 30
0.0
 10
122.996837
 20
169.616835
 30
0.0
 10
122.751006
 20
168.869238
 30
0.0
 10
122.316748
 20
168.386389
 30
0.0
 10
122.080991
 20
168.124252
 30
0.0
 11
123.096988
 21
170.156244
 31
0.0
 11
123.021729
 21
169.779949
 31
0.0
 11
122.720693
 21
168.952101
 31
0.0
 11
122.080991
 21
168.124252
 31
0.0
  0
SPLINE
  5
11f
100
AcDbEntity
  8
0
 62
5
100
AcDbSpline
 70
0
 71
3
 72
10
 73
6
 74
4
 40
0.000000
 40
0.000000
 40
0.000000
 40
0.000000
 40
1.754114
 40
3.597958
 40
5.352072
 40
5.352072
 40
5.352072
 40
5.352072
 10
122.080991
 20
168.124252
 30
0.0
 10
121.556498
 20
167.854665
 30
0.0
 10
120.480683
 20
167.301700
 30
0.0
 10
118.601321
 20
167.301700
 30
0.0
 10
117.525506
 20
167.854665
 30
0.0
 10
117.001013
 20
168.124252
 30
0.0
 11
122.080991
 21
168.124252
 31
0.0
 11
120.462924
 21
167.446923
 31
0.0
 11
118.619080
 21
167.446923
 31
0.0
 11
117.001013
 21
168.124252
 31
0.0
  0
LWPOLYLINE
  5
120
100
AcDbEntity
  8
0
 62
5
100
AcDbPolyline
 90
4
 70
0
 10
128.007635
 20
170.494911
 30
0.0
 10
122.080991
 20
170.494911
 30
0.0
 10
122.080991
 20
170.156244
 30
0.0
 10
123.096988
 20
170.156244
 30
0.0
  0
LWPOLYLINE
  5
121
100
AcDbEntity
  8
0
 62
5
100
AcDbPolyline
 90
4
 70
0
 10
115.985016
 20
170.156244
 30
0.0
 10
117.001013
 20
170.156244
 30
0.0
 10
117.001013
 20
170.494911
 30
0.0
 10
111.074369
 20
170.494911
 30
0.0
  0
LWPOLYLINE
  5
122
100
AcDbEntity
  8
0
 62
1
100
AcDbPolyline
 90
2
 70
0
 10
120.895663
 20
170.494911
 30
0.0
 10
118.186341
 20
170.494911
 30
0.0
  0
LWPOLYLINE
  5
123
100
AcDbEntity
  8
0
 62
5
100
AcDbPolyline
 90
4
 70
0
 10
136.474302
 20
185.159606
 30
0.0
 10
137.567261
 20
180.618002
 30
0.0
 10
132.487261
 20
171.819182
 30
0.0
 10
128.007635
 20
170.494911
 30
0.0
  0
LWPOLYLINE
  5
124
100
AcDbEntity
  8
0
 62
5
100
AcDbPolyline
 90
4
 70
0
 10
133.663693
 20
181.307490
 30
0.0
 10
134.058262
 20
180.297569
 30
0.0
 10
131.010262
 20
175.018278
 30
0.0
 10
129.938359
 20
174.855024
 30
0.0
  0
LWPOLYLINE
  5
125
100
AcDbEntity
  8
0
 62
1
100
AcDbPolyline
 90
2
 70
0
 10
136.474302
 20
185.159606
 30
0.0
 10
134.103635
 20
181.053490
 30
0.0
  0
LWPOLYLINE
  5
126
100
AcDbEntity
  8
0
 62
1
100
AcDbPolyline
 90
2
 70
0
 10
128.007635
 20
170.494911
 30
0.0
 10
130.378302
 20
174.601024
 30
0.0
  0
SPLINE
  5
127
100
AcDbEntity
  8
0
 62
5
100
AcDbSpline
 70
0
 71
3
 72
10
 73
6
 74
4
 40
0.000000
 40
0.000000
 40
0.000000
 40
0.000000
 40
1.046208
 40
1.927092
 40
2.310838
 40
2.310838
 40
2.310838
 40
2.310838
 10
117.001013
 20
168.124252
 30
0.0
 10
116.765257
 20
168.386389
 30
0.0
 10
116.330998
 20
168.869238
 30
0.0
 10
116.085167
 20
169.616835
 30
0.0
 10
116.008332
 20
170.030668
 30
0.0
 10
115.985016
 20
170.156244
 30
0.0
 11
117.001013
 21
168.124252
 31
0.0
 11
116.361312
 21
168.952101
 31
0.0
 11
116.060275
 21
169.779949
 31
0.0
 11
115.985016
 21
170.156244
 31
0.0
  0
SPLINE
  5
128
100
AcDbEntity
  8
0
 62
5
100
AcDbSpline
 70
0
 71
3
 72
10
 73
6
 74
4
 40
0.000000
 40
0.000000
 40
0.000000
 40
0.000000
 40
0.383749
 40
1.264635
 40
2.310847
 40
2.310847
 40
2.310847
 40
2.310847
 10
138.636307
 20
180.737531
 30
0.0
 10
138.539213
 20
180.654551
 30
0.0
 10
138.219239
 20
180.381092
 30
0.0
 10
137.694715
 20
179.794395
 30
0.0
 10
137.493683
 20
179.176890
 30
0.0
 10
137.384544
 20
178.841650
 30
0.0
 11
138.636307
 21
180.737531
 31
0.0
 11
138.348055
 21
180.484206
 31
0.0
 11
137.781633
 21
179.809574
 31
0.0
 11
137.384544
 21
178.841650
 31
0.0
  0
SPLINE
  5
129
100
AcDbEntity
  8
0
 62
5
100
AcDbSpline
 70
0
 71
3
 72
10
 73
6
 74
4
 40
0.000000
 40
0.000000
 40
0.000000
 40
0.000000
 40
1.754123
 40
3.597975
 40
5.352097
 40
5.352097
 40
5.352097
 40
5.352097
 10
137.384544
 20
178.841650
 30
0.0
 10
137.413321
 20
178.252629
 30
0.0
 10
137.472347
 20
177.044457
 30
0.0
 10
138.412032
 20
175.416875
 30
0.0
 10
139.428826
 20
174.761671
 30
0.0
 10
139.924544
 20
174.442240
 30
0.0
 11
137.384544
 21
178.841650
 31
0.0
 11
137.606994
 21
177.101688
 31
0.0
 11
138.528920
 21
175.504866
 31
0.0
 11
139.924544
 21
174.442240
 31
0.0
  0
LWPOLYLINE
  5
12a
100
AcDbEntity
  8
0
 62
5
100
AcDbPolyline
 90
4
 70
0
 10
136.474268
 20
185.159626
 30
0.0
 10
139.437601
 20
180.026983
 30
0.0
 10
139.144307
 20
179.857650
 30
0.0
 10
138.636307
 20
180.737531
 30
0.0
  0
LWPOLYLINE
  5
12b
100
AcDbEntity
  8
0
 62
5
100
AcDbPolyline
 90
4
 70
0
 10
142.192307
 20
174.578358
 30
0.0
 10
141.684307
 20
175.458240
 30
0.0
 10
141.977601
 20
175.627573
 30
0.0
 10
144.940934
 20
170.494930
 30
0.0
  0
LWPOLYLINE
  5
12c
100
AcDbEntity
  8
0
 62
1
100
AcDbPolyline
 90
2
 70
0
 10
140.030268
 20
179.000453
 30
0.0
 10
141.384934
 20
176.654103
 30
0.0
  0
LWPOLYLINE
  5
12d
100
AcDbEntity
  8
0
 62
5
100
AcDbPolyline
 90
4
 70
0
 10
153.407567
 20
185.159606
 30
0.0
 10
154.500526
 20
180.618002
 30
0.0
 10
149.420526
 20
171.819182
 30
0.0
 10
144.940901
 20
170.494911
 30
0.0
  0
LWPOLYLINE
  5
12e
100
AcDbEntity
  8
0
 62
5
100
AcDbPolyline
 90
4
 70
0
 10
150.596958
 20
181.307490
 30
0.0
 10
150.991528
 20
180.297569
 30
0.0
 10
147.943528
 20
175.018278
 30
0.0
 10
146.871625
 20
174.855024
 30
0.0
  0
LWPOLYLINE
  5
12f
100
AcDbEntity
  8
0
 62
1
100
AcDbPolyline
 90
2
 70
0
 10
153.407567
 20
185.159606
 30
0.0
 10
151.036901
 20
181.053490
 30
0.0
  0
LWPOLYLINE
  5
130
100
AcDbEntity
  8
0
 62
1
100
AcDbPolyline
 90
2
 70
0
 10
144.940901
 20
170.494911
 30
0.0
 10
147.311567
 20
174.601024
 30
0.0
  0
SPLINE
  5
131
100
AcDbEntity
  8
0
 62
5
100
AcDbSpline
 70
0
 71
3
 72
10
 73
6
 74
4
 40
0.000000
 40
0.000000
 40
0.000000
 40
0.000000
 40
1.046212
 40
1.927098
 40
2.310847
 40
2.310847
 40
2.310847
 40
2.310847
 10
139.924544
 20
174.442240
 30
0.0
 10
140.269441
 20
174.369136
 30
0.0
 10
140.904732
 20
174.234482
 30
0.0
 10
141.675088
 20
174.395386
 30
0.0
 10
142.071897
 20
174.535762
 30
0.0
 10
142.192307
 20
174.578358
 30
0.0
 11
139.924544
 21
174.442240
 31
0.0
 11
140.961337
 21
174.302166
 31
0.0
 11
141.828796
 21
174.455386
 31
0.0
 11
142.192307
 21
174.578358
 31
0.0
  0
SPLINE
  5
132
100
AcDbEntity
  8
0
 62
5
100
AcDbSpline
 70
0
 71
3
 72
10
 73
6
 74
4
 40
0.000000
 40
0.000000
 40
0.000000
 40
0.000000
 40
0.383747
 40
1.264630
 40
2.310838
 40
2.310838
 40
2.310838
 40
2.310838
 10
156.156149
 20
189.243037
 30
0.0
 10
156.276559
 20
189.200441
 30
0.0
 10
156.673366
 20
189.060065
 30
0.0
 10
157.443719
 20
188.899162
 30
0.0
 10
158.079008
 20
189.033816
 30
0.0
 10
158.423904
 20
189.106919
 30
0.0
 11
156.156149
 21
189.243037
 31
0.0
 11
156.519659
 21
189.120066
 31
0.0
 11
157.387115
 21
188.966846
 31
0.0
 11
158.423904
 21
189.106919
 31
0.0
  0
SPLINE
  5
133
100
AcDbEntity
  8
0
 62
5
100
AcDbSpline
 70
0
 71
3
 72
10
 73
6
 74
4
 40
0.000000
 40
0.000000
 40
0.000000
 40
0.000000
 40
1.754114
 40
3.597958
 40
5.352072
 40
5.352072
 40
5.352072
 40
5.352072
 10
158.423904
 20
189.106919
 30
0.0
 10
158.919619
 20
189.426349
 30
0.0
 10
159.936408
 20
190.081550
 30
0.0
 10
160.876090
 20
191.709125
 30
0.0
 10
160.935115
 20
192.917291
 30
0.0
 10
160.963892
 20
193.506309
 30
0.0
 11
158.423904
 21
189.106919
 31
0.0
 11
159.819521
 21
190.169541
 31
0.0
 11
160.741444
 21
191.766357
 31
0.0
 11
160.963892
 21
193.506309
 31
0.0
  0
LWPOLYLINE
  5
134
100
AcDbEntity
  8
0
 62
5
100
AcDbPolyline
 90
4
 70
0
 10
153.407533
 20
185.159626
 30
0.0
 10
156.370853
 20
190.292246
 30
0.0
 10
156.664146
 20
190.122916
 30
0.0
 10
156.156149
 20
189.243037
 30
0.0
  0
LWPOLYLINE
  5
135
100
AcDbEntity
  8
0
 62
5
100
AcDbPolyline
 90
4
 70
0
 10
159.712132
 20
195.402182
 30
0.0
 10
159.204135
 20
194.522306
 30
0.0
 10
158.910844
 20
194.691636
 30
0.0
 10
161.874163
 20
199.824259
 30
0.0
  0
LWPOLYLINE
  5
136
100
AcDbEntity
  8
0
 62
1
100
AcDbPolyline
 90
2
 70
0
 10
156.963519
 20
191.318773
 30
0.0
 10
158.318177
 20
193.665112
 30
0.0
  0
LWPOLYLINE
  5
137
100
AcDbEntity
  8
0
 62
5
100
AcDbPolyline
 90
4
 70
0
 10
153.407536
 20
214.488893
 30
0.0
 10
157.887142
 20
213.164627
 30
0.0
 10
162.967120
 20
204.365847
 30
0.0
 10
161.874166
 20
199.824259
 30
0.0
  0
LWPOLYLINE
  5
138
100
AcDbEntity
  8
0
 62
5
100
AcDbPolyline
 90
4
 70
0
 10
155.338252
 20
210.128797
 30
0.0
 10
156.410149
 20
209.965543
 30
0.0
 10
159.458138
 20
204.686274
 30
0.0
 10
159.063571
 20
203.676359
 30
0.0
  0
LWPOLYLINE
  5
139
100
AcDbEntity
  8
0
 62
1
100
AcDbPolyline
 90
2
 70
0
 10
153.407536
 20
214.488893
 30
0.0
 10
155.778192
 20
210.382797
 30
0.0
  0
LWPOLYLINE
  5
13a
100
AcDbEntity
  8
0
 62
1
100
AcDbPolyline
 90
2
 70
0
 10
161.874166
 20
199.824259
 30
0.0
 10
159.503511
 20
203.930356
 30
0.0
  0
SPLINE
  5
13b
100
AcDbEntity
  8
0
 62
5
100
AcDbSpline
 70
0
 71
3
 72
10
 73
6
 74
4
 40
0.000000
 40
0.000000
 40
0.000000
 40
0.000000
 40
1.046208
 40
1.927091
 40
2.310838
 40
2.310838
 40
2.310838
 40
2.310838
 10
160.963892
 20
193.506309
 30
0.0
 10
160.854754
 20
193.841548
 30
0.0
 10
160.653722
 20
194.459051
 30
0.0
 10
160.129199
 20
195.045744
 30
0.0
 10
159.809227
 20
195.319202
 30
0.0
 10
159.712132
 20
195.402182
 30
0.0
 11
160.963892
 21
193.506309
 31
0.0
 11
160.566804
 21
194.474230
 31
0.0
 11
160.000384
 21
195.148858
 31
0.0
 11
159.712132
 21
195.402182
 31
0.0
  0
SPLINE
  5
13c
100
AcDbEntity
  8
0
 62
5
100
AcDbSpline
 70
0
 71
3
 72
10
 73
6
 74
4
 40
0.000000
 40
0.000000
 40
0.000000
 40
0.000000
 40
0.383747
 40
1.264630
 40
2.310838
 40
2.310838
 40
2.310838
 40
2.310838
 10
141.384915
 20
214.827557
 30
0.0
 10
141.408230
 20
214.953133
 30
0.0
 10
141.485066
 20
215.366966
 30
0.0
 10
141.730897
 20
216.114563
 30
0.0
 10
142.165155
 20
216.597412
 30
0.0
 10
142.400912
 20
216.859548
 30
0.0
 11
141.384915
 21
214.827557
 31
0.0
 11
141.460174
 21
215.203852
 31
0.0
 11
141.761210
 21
216.031700
 31
0.0
 11
142.400912
 21
216.859548
 31
0.0
  0
SPLINE
  5
13d
100
AcDbEntity
  8
0
 62
5
100
AcDbSpline
 70
0
 71
3
 72
10
 73
6
 74
4
 40
0.000000
 40
0.000000
 40
0.000000
 40
0.000000
 40
1.754114
 40
3.597958
 40
5.352072
 40
5.352072
 40
5.352072
 40
5.352072
 10
142.400912
 20
216.859548
 30
0.0
 10
142.925405
 20
217.129136
 30
0.0
 10
144.001220
 20
217.682100
 30
0.0
 10
145.880581
 20
217.682100
 30
0.0
 10
146.956396
 20
217.129136
 30
0.0
 10
147.480889
 20
216.859548
 30
0.0
 11
142.400912
 21
216.859548
 31
0.0
 11
144.018979
 21
217.536878
 31
0.0
 11
145.862822
 21
217.536878
 31
0.0
 11
147.480889
 21
216.859548
 31
0.0
  0
LWPOLYLINE
  5
13e
100
AcDbEntity
  8
0
 62
5
100
AcDbPolyline
 90
4
 70
0
 10
136.474268
 20
214.488890
 30
0.0
 10
142.400912
 20
214.488890
 30
0.0
 10
142.400912
 20
214.827557
 30
0.0
 10
141.384915
 20
214.827557
 30
0.0
  0
LWPOLYLINE
  5
13f
100
AcDbEntity
  8
0
 62
5
100
AcDbPolyline
 90
4
 70
0
 10
148.496886
 20
214.827557
 30
0.0
 10
147.480889
 20
214.827557
 30
0.0
 10
147.480889
 20
214.488890
 30
0.0
 10
153.407533
 20
214.488890
 30
0.0
  0
LWPOLYLINE
  5
140
100
AcDbEntity
  8
0
 62
1
100
AcDbPolyline
 90
2
 70
0
 10
143.586240
 20
214.488890
 30
0.0
 10
146.295562
 20
214.488890
 30
0.0
  0
LWPOLYLINE
  5
141
100
AcDbEntity
  8
0
 62
5
100
AcDbPolyline
 90
4
 70
0
 10
128.007638
 20
199.824257
 30
0.0
 10
126.914684
 20
204.365844
 30
0.0
 10
131.994662
 20
213.164622
 30
0.0
 10
136.474268
 20
214.488890
 30
0.0
  0
LWPOLYLINE
  5
142
100
AcDbEntity
  8
0
 62
5
100
AcDbPolyline
 90
4
 70
0
 10
130.818232
 20
203.676356
 30
0.0
 10
130.423666
 20
204.686271
 30
0.0
 10
133.471655
 20
209.965540
 30
0.0
 10
134.543552
 20
210.128794
 30
0.0
  0
LWPOLYLINE
  5
143
100
AcDbEntity
  8
0
 62
1
100
AcDbPolyline
 90
2
 70
0
 10
128.007638
 20
199.824257
 30
0.0
 10
130.378293
 20
203.930353
 30
0.0
  0
LWPOLYLINE
  5
144
100
AcDbEntity
  8
0
 62
1
100
AcDbPolyline
 90
2
 70
0
 10
136.474268
 20
214.488890
 30
0.0
 10
134.103612
 20
210.382794
 30
0.0
  0
SPLINE
  5
145
100
AcDbEntity
  8
0
 62
5
100
AcDbSpline
 70
0
 71
3
 72
10
 73
6
 74
4
 40
0.000000
 40
0.000000
 40
0.000000
 40
0.000000
 40
1.046208
 40
1.927092
 40
2.310838
 40
2.310838
 40
2.310838
 40
2.310838
 10
147.480889
 20
216.859548
 30
0.0
 10
147.716646
 20
216.597412
 30
0.0
 10
148.150904
 20
216.114563
 30
0.0
 10
148.396735
 20
215.366966
 30
0.0
 10
148.473571
 20
214.953133
 30
0.0
 10
148.496886
 20
214.827557
 30
0.0
 11
147.480889
 21
216.859548
 31
0.0
 11
148.120591
 21
216.031700
 31
0.0
 11
148.421627
 21
215.203852
 31
0.0
 11
148.496886
 21
214.827557
 31
0.0
  0
SPLINE
  5
146
100
AcDbEntity
  8
0
 62
5
100
AcDbSpline
 70
0
 71
3
 72
10
 73
6
 74
4
 40
0.000000
 40
0.000000
 40
0.000000
 40
0.000000
 40
0.383747
 40
1.264632
 40
2.310840
 40
2.310840
 40
2.310840
 40
2.310840
 10
125.845604
 20
204.246335
 30
0.0
 10
125.942698
 20
204.329314
 30
0.0
 10
126.262671
 20
204.602773
 30
0.0
 10
126.787194
 20
205.189467
 30
0.0
 10
126.988225
 20
205.806971
 30
0.0
 10
127.097364
 20
206.142210
 30
0.0
 11
125.845604
 21
204.246335
 31
0.0
 11
126.133856
 21
204.499659
 31
0.0
 11
126.700276
 21
205.174288
 31
0.0
 11
127.097364
 21
206.142210
 31
0.0
  0
SPLINE
  5
147
100
AcDbEntity
  8
0
 62
5
100
AcDbSpline
 70
0
 71
3
 72
10
 73
6
 74
4
 40
0.000000
 40
0.000000
 40
0.000000
 40
0.000000
 40
1.754113
 40
3.597957
 40
5.352072
 40
5.352072
 40
5.352072
 40
5.352072
 10
127.097364
 20
206.142210
 30
0.0
 10
127.068587
 20
206.731228
 30
0.0
 10
127.009561
 20
207.939393
 30
0.0
 10
126.069880
 20
209.566968
 30
0.0
 10
125.053091
 20
210.222169
 30
0.0
 10
124.557375
 20
210.541600
 30
0.0
 11
127.097364
 21
206.142210
 31
0.0
 11
126.874915
 21
207.882161
 31
0.0
 11
125.952993
 21
209.478977
 31
0.0
 11
124.557375
 21
210.541600
 31
0.0
  0
LWPOLYLINE
  5
148
100
AcDbEntity
  8
0
 62
5
100
AcDbPolyline
 90
4
 70
0
 10
128.007635
 20
199.824259
 30
0.0
 10
125.044316
 20
204.956880
 30
0.0
 10
125.337607
 20
205.126213
 30
0.0
 10
125.845604
 20
204.246335
 30
0.0
  0
LWPOLYLINE
  5
149
100
AcDbEntity
  8
0
 62
5
100
AcDbPolyline
 90
4
 70
0
 10
122.289621
 20
210.405482
 30
0.0
 10
122.797618
 20
209.525603
 30
0.0
 10
122.504324
 20
209.356270
 30
0.0
 10
119.541005
 20
214.488893
 30
0.0
  0
LWPOLYLINE
  5
14a
100
AcDbEntity
  8
0
 62
1
100
AcDbPolyline
 90
2
 70
0
 10
124.451649
 20
205.983407
 30
0.0
 10
123.096991
 20
208.329746
 30
0.0
  0
LWPOLYLINE
  5
14b
100
AcDbEntity
  8
0
 62
5
100
AcDbPolyline
 90
4
 70
0
 10
111.074369
 20
199.824257
 30
0.0
 10
109.981416
 20
204.365844
 30
0.0
 10
115.061393
 20
213.164622
 30
0.0
 10
119.540999
 20
214.488890
 30
0.0
  0
LWPOLYLINE
  5
14c
100
AcDbEntity
  8
0
 62
5
100
AcDbPolyline
 90
4
 70
0
 10
113.884964
 20
203.676356
 30
0.0
 10
113.490398
 20
204.686271
 30
0.0
 10
116.538386
 20
209.965540
 30
0.0
 10
117.610283
 20
210.128794
 30
0.0
  0
LWPOLYLINE
  5
14d
100
AcDbEntity
  8
0
 62
1
100
AcDbPolyline
 90
2
 70
0
 10
111.074369
 20
199.824257
 30
0.0
 10
113.445025
 20
203.930353
 30
0.0
  0
LWPOLYLINE
  5
14e
100
AcDbEntity
  8
0
 62
1
100
AcDbPolyline
 90
2
 70
0
 10
119.540999
 20
214.488890
 30
0.0
 10
117.170344
 20
210.382794
 30
0.0
  0
SPLINE
  5
14f
100
AcDbEntity
  8
0
 62
5
100
AcDbSpline
 70
0
 71
3
 72
10
 73
6
 74
4
 40
0.000000
 40
0.000000
 40
0.000000
 40
0.000000
 40
1.046208
 40
1.927091
 40
2.310838
 40
2.310838
 40
2.310838
 40
2.310838
 10
124.557375
 20
210.541600
 30
0.0
 10
124.212480
 20
210.614703
 30
0.0
 10
123.577191
 20
210.749357
 30
0.0
 10
122.806838
 20
210.588453
 30
0.0
 10
122.410030
 20
210.448078
 30
0.0
 10
122.289621
 20
210.405482
 30
0.0
 11
124.557375
 21
210.541600
 31
0.0
 11
123.520586
 21
210.681673
 31
0.0
 11
122.653131
 21
210.528453
 31
0.0
 11
122.289621
 21
210.405482
 31
0.0
  0
SPLINE
  5
150
100
AcDbEntity
  8
0
 62
5
100
AcDbSpline
 70
0
 71
3
 72
10
 73
6
 74
4
 40
0.000000
 40
0.000000
 40
0.000000
 40
0.000000
 40
0.383747
 40
1.264632
 40
2.310840
 40
2.310840
 40
2.310840
 40
2.310840
 10
108.912335
 20
204.246335
 30
0.0
 10
109.009430
 20
204.329314
 30
0.0
 10
109.329402
 20
204.602773
 30
0.0
 10
109.853926
 20
205.189467
 30
0.0
 10
110.054957
 20
205.806971
 30
0.0
 10
110.164095
 20
206.142210
 30
0.0
 11
108.912335
 21
204.246335
 31
0.0
 11
109.200587
 21
204.499659
 31
0.0
 11
109.767008
 21
205.174288
 31
0.0
 11
110.164095
 21
206.142210
 31
0.0
  0
SPLINE
  5
151
100
AcDbEntity
  8
0
 62
5
100
AcDbSpline
 70
0
 71
3
 72
10
 73
6
 74
4
 40
0.000000
 40
0.000000
 40
0.000000
 40
0.000000
 40
1.754113
 40
3.597957
 40
5.352072
 40
5.352072
 40
5.352072
 40
5.352072
 10
110.164095
 20
206.142210
 30
0.0
 10
110.135319
 20
206.731228
 30
0.0
 10
110.076293
 20
207.939393
 30
0.0
 10
109.136611
 20
209.566968
 30
0.0
 10
108.119822
 20
210.222169
 30
0.0
 10
107.624107
 20
210.541600
 30
0.0
 11
110.164095
 21
206.142210
 31
0.0
 11
109.941647
 21
207.882161
 31
0.0
 11
109.019725
 21
209.478977
 31
0.0
 11
107.624107
 21
210.541600
 31
0.0
  0
LWPOLYLINE
  5
152
100
AcDbEntity
  8
0
 62
5
100
AcDbPolyline
 90
4
 70
0
 10
111.074367
 20
199.824259
 30
0.0
 10
108.111047
 20
204.956880
 30
0.0
 10
108.404338
 20
205.126213
 30
0.0
 10
108.912335
 20
204.246335
 30
0.0
  0
LWPOLYLINE
  5
153
100
AcDbEntity
  8
0
 62
5
100
AcDbPolyline
 90
4
 70
0
 10
105.356352
 20
210.405482
 30
0.0
 10
105.864350
 20
209.525603
 30
0.0
 10
105.571056
 20
209.356270
 30
0.0
 10
102.607737
 20
214.488893
 30
0.0
  0
LWPOLYLINE
  5
154
100
AcDbEntity
  8
0
 62
1
100
AcDbPolyline
 90
2
 70
0
 10
107.518381
 20
205.983407
 30
0.0
 10
106.163722
 20
208.329746
 30
0.0
  0
LWPOLYLINE
  5
155
100
AcDbEntity
  8
0
 62
5
100
AcDbPolyline
 90
4
 70
0
 10
85.674468
 20
214.488890
 30
0.0
 10
89.061121
 20
217.706209
 30
0.0
 10
99.221081
 20
217.706209
 30
0.0
 10
102.607734
 20
214.488890
 30
0.0
  0
LWPOLYLINE
  5
156
100
AcDbEntity
  8
0
 62
5
100
AcDbPolyline
 90
4
 70
0
 10
90.415782
 20
213.980893
 30
0.0
 10
91.093112
 20
214.827557
 30
0.0
 10
97.189090
 20
214.827557
 30
0.0
 10
97.866420
 20
213.980893
 30
0.0
  0
LWPOLYLINE
  5
157
100
AcDbEntity
  8
0
 62
1
100
AcDbPolyline
 90
2
 70
0
 10
85.674468
 20
214.488890
 30
0.0
 10
90.415782
 20
214.488890
 30
0.0
  0
LWPOLYLINE
  5
158
100
AcDbEntity
  8
0
 62
1
100
AcDbPolyline
 90
2
 70
0
 10
102.607734
 20
214.488890
 30
0.0
 10
97.866420
 20
214.488890
 30
0.0
  0
SPLINE
  5
159
100
AcDbEntity
  8
0
 62
5
100
AcDbSpline
 70
0
 71
3
 72
10
 73
6
 74
4
 40
0.000000
 40
0.000000
 40
0.000000
 40
0.000000
 40
1.046208
 40
1.927091
 40
2.310838
 40
2.310838
 40
2.310838
 40
2.310838
 10
107.624107
 20
210.541600
 30
0.0
 10
107.279212
 20
210.614703
 30
0.0
 10
106.643923
 20
210.749357
 30
0.0
 10
105.873569
 20
210.588453
 30
0.0
 10
105.476762
 20
210.448078
 30
0.0
 10
105.356352
 20
210.405482
 30
0.0
 11
107.624107
 21
210.541600
 31
0.0
 11
106.587318
 21
210.681673
 31
0.0
 11
105.719862
 21
210.528453
 31
0.0
 11
105.356352
 21
210.405482
 31
0.0
  0
SPLINE
  5
15a
100
AcDbEntity
  8
0
 62
5
100
AcDbSpline
 70
0
 71
3
 72
10
 73
6
 74
4
 40
0.000000
 40
0.000000
 40
0.000000
 40
0.000000
 40
0.383747
 40
1.264632
 40
2.310840
 40
2.310840
 40
2.310840
 40
2.310840
 10
79.369869
 20
204.246332
 30
0.0
 10
79.272775
 20
204.329312
 30
0.0
 10
78.952802
 20
204.602770
 30
0.0
 10
78.428279
 20
205.189465
 30
0.0
 10
78.227248
 20
205.806968
 30
0.0
 10
78.118109
 20
206.142208
 30
0.0
 11
79.369869
 21
204.246332
 31
0.0
 11
79.081618
 21
204.499656
 31
0.0
 11
78.515197
 21
205.174286
 31
0.0
 11
78.118109
 21
206.142208
 31
0.0
  0
SPLINE
  5
15b
100
AcDbEntity
  8
0
 62
5
100
AcDbSpline
 70
0
 71
3
 72
10
 73
6
 74
4
 40
0.000000
 40
0.000000
 40
0.000000
 40
0.000000
 40
1.754113
 40
3.597957
 40
5.352072
 40
5.352072
 40
5.352072
 40
5.352072
 10
78.118109
 20
206.142208
 30
0.0
 10
78.146886
 20
206.731225
 30
0.0
 10
78.205912
 20
207.939391
 30
0.0
 10
79.145594
 20
209.566965
 30
0.0
 10
80.162382
 20
210.222167
 30
0.0
 10
80.658098
 20
210.541598
 30
0.0
 11
78.118109
 21
206.142208
 31
0.0
 11
78.340558
 21
207.882159
 31
0.0
 11
79.262480
 21
209.478974
 31
0.0
 11
80.658098
 21
210.541598
 31
0.0
  0
LWPOLYLINE
  5
15c
100
AcDbEntity
  8
0
 62
5
100
AcDbPolyline
 90
4
 70
0
 10
77.207838
 20
199.824257
 30
0.0
 10
80.171157
 20
204.956877
 30
0.0
 10
79.877866
 20
205.126210
 30
0.0
 10
79.369869
 20
204.246332
 30
0.0
  0
LWPOLYLINE
  5
15d
100
AcDbEntity
  8
0
 62
5
100
AcDbPolyline
 90
4
 70
0
 10
82.925852
 20
210.405479
 30
0.0
 10
82.417855
 20
209.525600
 30
0.0
 10
82.711149
 20
209.356267
 30
0.0
 10
85.674468
 20
214.488890
 30
0.0
  0
LWPOLYLINE
  5
15e
100
AcDbEntity
  8
0
 62
1
100
AcDbPolyline
 90
2
 70
0
 10
80.763824
 20
205.983404
 30
0.0
 10
82.118482
 20
208.329743
 30
0.0
  0
LWPOLYLINE
  5
15f
100
AcDbEntity
  8
0
 62
5
100
AcDbPolyline
 90
4
 70
0
 10
77.207835
 20
199.824259
 30
0.0
 10
78.300789
 20
204.365847
 30
0.0
 10
73.220811
 20
213.164625
 30
0.0
 10
68.741205
 20
214.488893
 30
0.0
  0
LWPOLYLINE
  5
160
100
AcDbEntity
  8
0
 62
5
100
AcDbPolyline
 90
4
 70
0
 10
74.397241
 20
203.676359
 30
0.0
 10
74.791807
 20
204.686274
 30
0.0
 10
71.743818
 20
209.965543
 30
0.0
 10
70.671921
 20
210.128797
 30
0.0
  0
LWPOLYLINE
  5
161
100
AcDbEntity
  8
0
 62
1
100
AcDbPolyline
 90
2
 70
0
 10
77.207835
 20
199.824259
 30
0.0
 10
74.837180
 20
203.930356
 30
0.0
  0
LWPOLYLINE
  5
162
100
AcDbEntity
  8
0
 62
1
100
AcDbPolyline
 90
2
 70
0
 10
68.741205
 20
214.488893
 30
0.0
 10
71.111861
 20
210.382797
 30
0.0
  0
SPLINE
  5
163
100
AcDbEntity
  8
0
 62
5
100
AcDbSpline
 70
0
 71
3
 72
10
 73
6
 74
4
 40
0.000000
 40
0.000000
 40
0.000000
 40
0.000000
 40
1.046208
 40
1.927091
 40
2.310838
 40
2.310838
 40
2.310838
 40
2.310838
 10
80.658098
 20
210.541598
 30
0.0
 10
81.002993
 20
210.614700
 30
0.0
 10
81.638282
 20
210.749354
 30
0.0
 10
82.408635
 20
210.588451
 30
0.0
 10
82.805443
 20
210.448075
 30
0.0
 10
82.925852
 20
210.405479
 30
0.0
 11
80.658098
 21
210.541598
 31
0.0
 11
81.694887
 21
210.681670
 31
0.0
 11
82.562342
 21
210.528450
 31
0.0
 11
82.925852
 21
210.405479
 31
0.0
  0
SPLINE
  5
164
100
AcDbEntity
  8
0
 62
5
100
AcDbSpline
 70
0
 71
3
 72
10
 73
6
 74
4
 40
0.000000
 40
0.000000
 40
0.000000
 40
0.000000
 40
0.383747
 40
1.264632
 40
2.310840
 40
2.310840
 40
2.310840
 40
2.310840
 10
62.436604
 20
204.246332
 30
0.0
 10
62.339509
 20
204.329312
 30
0.0
 10
62.019537
 20
204.602770
 30
0.0
 10
61.495014
 20
205.189465
 30
0.0
 10
61.293982
 20
205.806968
 30
0.0
 10
61.184844
 20
206.142208
 30
0.0
 11
62.436604
 21
204.246332
 31
0.0
 11
62.148352
 21
204.499656
 31
0.0
 11
61.581931
 21
205.174286
 31
0.0
 11
61.184844
 21
206.142208
 31
0.0
  0
SPLINE
  5
165
100
AcDbEntity
  8
0
 62
5
100
AcDbSpline
 70
0
 71
3
 72
10
 73
6
 74
4
 40
0.000000
 40
0.000000
 40
0.000000
 40
0.000000
 40
1.754113
 40
3.597957
 40
5.352072
 40
5.352072
 40
5.352072
 40
5.352072
 10
61.184844
 20
206.142208
 30
0.0
 10
61.213620
 20
206.731225
 30
0.0
 10
61.272646
 20
207.939391
 30
0.0
 10
62.212328
 20
209.566965
 30
0.0
 10
63.229117
 20
210.222167
 30
0.0
 10
63.724832
 20
210.541598
 30
0.0
 11
61.184844
 21
206.142208
 31
0.0
 11
61.407292
 21
207.882159
 31
0.0
 11
62.329214
 21
209.478974
 31
0.0
 11
63.724832
 21
210.541598
 31
0.0
  0
LWPOLYLINE
  5
166
100
AcDbEntity
  8
0
 62
5
100
AcDbPolyline
 90
4
 70
0
 10
60.274573
 20
199.824257
 30
0.0
 10
63.237892
 20
204.956877
 30
0.0
 10
62.944601
 20
205.126210
 30
0.0
 10
62.436604
 20
204.246332
 30
0.0
  0
LWPOLYLINE
  5
167
100
AcDbEntity
  8
0
 62
5
100
AcDbPolyline
 90
4
 70
0
 10
65.992587
 20
210.405479
 30
0.0
 10
65.484589
 20
209.525600
 30
0.0
 10
65.777883
 20
209.356267
 30
0.0
 10
68.741203
 20
214.488890
 30
0.0
  0
LWPOLYLINE
  5
168
100
AcDbEntity
  8
0
 62
1
100
AcDbPolyline
 90
2
 70
0
 10
63.830558
 20
205.983404
 30
0.0
 10
65.185217
 20
208.329743
 30
0.0
  0
LWPOLYLINE
  5
169
100
AcDbEntity
  8
0
 62
5
100
AcDbPolyline
 90
4
 70
0
 10
60.274570
 20
199.824259
 30
0.0
 10
55.794964
 20
198.499994
 30
0.0
 10
50.714986
 20
189.701214
 30
0.0
 10
51.807940
 20
185.159626
 30
0.0
  0
LWPOLYLINE
  5
16a
100
AcDbEntity
  8
0
 62
5
100
AcDbPolyline
 90
4
 70
0
 10
58.343854
 20
195.464163
 30
0.0
 10
57.271957
 20
195.300909
 30
0.0
 10
54.223968
 20
190.021640
 30
0.0
 10
54.618534
 20
189.011725
 30
0.0
  0
LWPOLYLINE
  5
16b
100
AcDbEntity
  8
0
 62
1
100
AcDbPolyline
 90
2
 70
0
 10
60.274570
 20
199.824259
 30
0.0
 10
57.903914
 20
195.718163
 30
0.0
  0
LWPOLYLINE
  5
16c
100
AcDbEntity
  8
0
 62
1
100
AcDbPolyline
 90
2
 70
0
 10
51.807940
 20
185.159626
 30
0.0
 10
54.178595
 20
189.265722
 30
0.0
  0
SPLINE
  5
16d
100
AcDbEntity
  8
0
 62
5
100
AcDbSpline
 70
0
 71
3
 72
10
 73
6
 74
4
 40
0.000000
 40
0.000000
 40
0.000000
 40
0.000000
 40
1.046208
 40
1.927091
 40
2.310838
 40
2.310838
 40
2.310838
 40
2.310838
 10
63.724832
 20
210.541598
 30
0.0
 10
64.069727
 20
210.614700
 30
0.0
 10
64.705016
 20
210.749354
 30
0.0
 10
65.475370
 20
210.588451
 30
0.0
 10
65.872177
 20
210.448075
 30
0.0
 10
65.992587
 20
210.405479
 30
0.0
 11
63.724832
 21
210.541598
 31
0.0
 11
64.761621
 21
210.681670
 31
0.0
 11
65.629077
 21
210.528450
 31
0.0
 11
65.992587
 21
210.405479
 31
0.0
  0
LWPOLYLINE
  5
16e
100
AcDbEntity
  8
0
 62
1
100
AcDbPolyline
 90
8
 70
0
 10
60.274604
 20
199.824341
 30
0.0
 10
77.207937
 20
199.824341
 30
0.0
 10
85.674604
 20
185.159510
 30
0.0
 10
102.607655
 20
185.159510
 30
0.0
 10
111.074321
 20
199.824341
 30
0.0
 10
128.007655
 20
199.824341
 30
0.0
 10
136.474321
 20
185.159510
 30
0.0
 10
153.407655
 20
185.159510
 30
0.0
  0
ENDSEC
  0
SECTION
  2
OBJECTS
  0
DICTIONARY
  5
C
330
0
100
AcDbDictionary
  3
ACAD_GROUP
350
D
  3
ACAD_MLINESTYLE
350
17
  0
DICTIONARY
  5
D
330
C
100
AcDbDictionary
  0
DICTIONARY
  5
1A
330
C
100
AcDbDictionary
  0
DICTIONARY
  5
17
330
C
100
AcDbDictionary
  3
STANDARD
350
18
  0
DICTIONARY
  5
19
330
C
100
AcDbDictionary
  0
ENDSEC
  0
EOF
