999
DXF created by Inkscape
  0
SECTION
  2
HEADER
  9
$ACADVER
  1
AC1014
  9
$HANDSEED
  5
FFFF
  9
$MEASUREMENT
 70
     1
  0
ENDSEC
  0
SECTION
  2
TABLES
  0
TABLE
  2
VPORT
  5
8
330
0
100
AcDbSymbolTable
 70
     4
  0
VPORT
  5
2E
330
8
100
AcDbSymbolTableRecord
100
AcDbViewportTableRecord
  2
*ACTIVE
 70
     0
 10
0.0
 20
0.0
 11
1.0
 21
1.0
 12
210.0
 22
148.5
 13
0.0
 23
0.0
 14
10.0
 24
10.0
 15
10.0
 25
10.0
 16
0.0
 26
0.0
 36
1.0
 17
0.0
 27
0.0
 37
0.0
 40
341.0
 41
1.24
 42
50.0
 43
0.0
 44
0.0
 50
0.0
 51
0.0
 71
     0
 72
   100
 73
     1
 74
     3
 75
     0
 76
     0
 77
     0
 78
     0
  0
ENDTAB
  0
TABLE
  2
LTYPE
  5
5
330
0
100
AcDbSymbolTable
 70
     1
  0
LTYPE
  5
14
330
5
100
AcDbSymbolTableRecord
100
AcDbLinetypeTableRecord
  2
BYBLOCK
 70
     0
  3

 72
    65
 73
     0
 40
0.0
  0
LTYPE
  5
15
330
5
100
AcDbSymbolTableRecord
100
AcDbLinetypeTableRecord
  2
BYLAYER
 70
     0
  3

 72
    65
 73
     0
 40
0.0
  0
LTYPE
  5
16
330
5
100
AcDbSymbolTableRecord
100
AcDbLinetypeTableRecord
  2
CONTINUOUS
 70
     0
  3
Solid line
 72
    65
 73
     0
 40
0.0
  0
ENDTAB
  0
TABLE
  2
LAYER
  5
2
330
0
100
AcDbSymbolTable
 70
1
  0
LAYER
  5
10
330
2
100
AcDbSymbolTableRecord
100
AcDbLayerTableRecord
  2
0
 70
     0
 62
     7
  6
CONTINUOUS
  0
ENDTAB
  0
TABLE
  2
STYLE
  5
3
330
0
100
AcDbSymbolTable
 70
     1
  0
STYLE
  5
11
330
3
100
AcDbSymbolTableRecord
100
AcDbTextStyleTableRecord
  2
STANDARD
 70
     0
 40
0.0
 41
1.0
 50
0.0
 71
     0
 42
2.5
  3
txt
  4

  0
ENDTAB
  0
TABLE
  2
VIEW
  5
6
330
0
100
AcDbSymbolTable
 70
     0
  0
ENDTAB
  0
TABLE
  2
UCS
  5
7
330
0
100
AcDbSymbolTable
 70
     0
  0
ENDTAB
  0
TABLE
  2
APPID
  5
9
330
0
100
AcDbSymbolTable
 70
     2
  0
APPID
  5
12
330
9
100
AcDbSymbolTableRecord
100
AcDbRegAppTableRecord
  2
ACAD
 70
     0
  0
ENDTAB
  0
TABLE
  2
DIMSTYLE
  5
A
330
0
100
AcDbSymbolTable
 70
     1
  0
DIMSTYLE
105
27
330
A
100
AcDbSymbolTableRecord
100
AcDbDimStyleTableRecord
  2
ISO-25
 70
     0
  3

  4

  5

  6

  7

 40
1.0
 41
2.5
 42
0.625
 43
3.75
 44
1.25
 45
0.0
 46
0.0
 47
0.0
 48
0.0
140
2.5
141
2.5
142
0.0
143
0.03937007874016
144
1.0
145
0.0
146
1.0
147
0.625
 71
     0
 72
     0
 73
     0
 74
     0
 75
     0
 76
     0
 77
     1
 78
     8
170
     0
171
     3
172
     1
173
     0
174
     0
175
     0
176
     0
177
     0
178
     0
270
     2
271
     2
272
     2
273
     2
274
     3
340
11
275
     0
280
     0
281
     0
282
     0
283
     0
284
     8
285
     0
286
     0
287
     3
288
     0
  0
ENDTAB
  0
TABLE
  2
BLOCK_RECORD
  5
1
330
0
100
AcDbSymbolTable
 70
     1
  0
BLOCK_RECORD
  5
1F
330
1
100
AcDbSymbolTableRecord
100
AcDbBlockTableRecord
  2
*MODEL_SPACE
  0
BLOCK_RECORD
  5
1B
330
1
100
AcDbSymbolTableRecord
100
AcDbBlockTableRecord
  2
*PAPER_SPACE
  0
ENDTAB
  0
ENDSEC
  0
SECTION
  2
BLOCKS
  0
BLOCK
  5
20
330
1F
100
AcDbEntity
  8
0
100
AcDbBlockBegin
  2
*MODEL_SPACE
 70
     0
 10
0.0
 20
0.0
 30
0.0
  3
*MODEL_SPACE
  1

  0
ENDBLK
  5
21
330
1F
100
AcDbEntity
  8
0
100
AcDbBlockEnd
  0
BLOCK
  5
1C
330
1B
100
AcDbEntity
 67
     1
  8
0
100
AcDbBlockBegin
  2
*PAPER_SPACE
  1

  0
ENDBLK
  5
1D
330
1B
100
AcDbEntity
 67
     1
  8
0
100
AcDbBlockEnd
  0
ENDSEC
  0
SECTION
  2
ENTITIES
  0
SPLINE
  5
100
100
AcDbEntity
  8
0
 62
5
100
AcDbSpline
 70
0
 71
3
 72
10
 73
6
 74
4
 40
0.000000
 40
0.000000
 40
0.000000
 40
0.000000
 40
0.383748
 40
1.264635
 40
2.310846
 40
2.310846
 40
2.310846
 40
2.310846
 10
34.948199
 20
148.624373
 30
0.0
 10
34.827789
 20
148.581777
 30
0.0
 10
34.430979
 20
148.441401
 30
0.0
 10
33.660623
 20
148.280498
 30
0.0
 10
33.025332
 20
148.415152
 30
0.0
 10
32.680436
 20
148.488255
 30
0.0
 11
34.948199
 21
148.624373
 31
0.0
 11
34.584687
 21
148.501402
 31
0.0
 11
33.717228
 21
148.348182
 31
0.0
 11
32.680436
 21
148.488255
 31
0.0
  0
SPLINE
  5
101
100
AcDbEntity
  8
0
 62
5
100
AcDbSpline
 70
0
 71
3
 72
10
 73
6
 74
4
 40
0.000000
 40
0.000000
 40
0.000000
 40
0.000000
 40
1.754123
 40
3.597974
 40
5.352096
 40
5.352096
 40
5.352096
 40
5.352096
 10
32.680436
 20
148.488255
 30
0.0
 10
32.184718
 20
148.807687
 30
0.0
 10
31.167924
 20
149.462891
 30
0.0
 10
30.228239
 20
151.090473
 30
0.0
 10
30.169213
 20
152.298644
 30
0.0
 10
30.140436
 20
152.887664
 30
0.0
 11
32.680436
 21
148.488255
 31
0.0
 11
31.284811
 21
149.550882
 31
0.0
 11
30.362885
 21
151.147705
 31
0.0
 11
30.140436
 21
152.887664
 31
0.0
  0
LWPOLYLINE
  5
102
100
AcDbEntity
  8
0
 62
5
100
AcDbPolyline
 90
4
 70
0
 10
37.696826
 20
144.540945
 30
0.0
 10
34.733492
 20
149.673588
 30
0.0
 10
34.440199
 20
149.504255
 30
0.0
 10
34.948199
 20
148.624373
 30
0.0
  0
LWPOLYLINE
  5
103
100
AcDbEntity
  8
0
 62
5
100
AcDbPolyline
 90
4
 70
0
 10
31.392199
 20
154.783546
 30
0.0
 10
31.900199
 20
153.903664
 30
0.0
 10
32.193492
 20
154.072998
 30
0.0
 10
29.230159
 20
159.205641
 30
0.0
  0
LWPOLYLINE
  5
104
100
AcDbEntity
  8
0
 62
1
100
AcDbPolyline
 90
2
 70
0
 10
34.140826
 20
150.700118
 30
0.0
 10
32.786159
 20
153.046468
 30
0.0
  0
LWPOLYLINE
  5
105
100
AcDbEntity
  8
0
 62
5
100
AcDbPolyline
 90
4
 70
0
 10
37.696865
 20
144.540968
 30
0.0
 10
34.479518
 20
141.154284
 30
0.0
 10
34.479518
 20
130.994239
 30
0.0
 10
37.696865
 20
127.607555
 30
0.0
  0
LWPOLYLINE
  5
106
100
AcDbEntity
  8
0
 62
5
100
AcDbPolyline
 90
4
 70
0
 10
38.204868
 20
139.799612
 30
0.0
 10
37.358196
 20
139.122276
 30
0.0
 10
37.358196
 20
133.026247
 30
0.0
 10
38.204868
 20
132.348911
 30
0.0
  0
LWPOLYLINE
  5
107
100
AcDbEntity
  8
0
 62
1
100
AcDbPolyline
 90
2
 70
0
 10
37.696865
 20
144.540968
 30
0.0
 10
37.696865
 20
139.799612
 30
0.0
  0
LWPOLYLINE
  5
108
100
AcDbEntity
  8
0
 62
1
100
AcDbPolyline
 90
2
 70
0
 10
37.696865
 20
127.607555
 30
0.0
 10
37.696865
 20
132.348911
 30
0.0
  0
SPLINE
  5
109
100
AcDbEntity
  8
0
 62
5
100
AcDbSpline
 70
0
 71
3
 72
10
 73
6
 74
4
 40
0.000000
 40
0.000000
 40
0.000000
 40
0.000000
 40
1.046212
 40
1.927099
 40
2.310847
 40
2.310847
 40
2.310847
 40
2.310847
 10
30.140436
 20
152.887664
 30
0.0
 10
30.249575
 20
153.222905
 30
0.0
 10
30.450606
 20
153.840411
 30
0.0
 10
30.975131
 20
154.427107
 30
0.0
 10
31.295104
 20
154.700566
 30
0.0
 10
31.392199
 20
154.783546
 30
0.0
 11
30.140436
 21
152.887664
 31
0.0
 11
30.537524
 21
153.855590
 31
0.0
 11
31.103946
 21
154.530222
 31
0.0
 11
31.392199
 21
154.783546
 31
0.0
  0
SPLINE
  5
10a
100
AcDbEntity
  8
0
 62
5
100
AcDbSpline
 70
0
 71
3
 72
10
 73
6
 74
4
 40
0.000000
 40
0.000000
 40
0.000000
 40
0.000000
 40
0.383750
 40
1.264641
 40
2.310858
 40
2.310858
 40
2.310858
 40
2.310858
 10
49.719588
 20
127.268886
 30
0.0
 10
49.696273
 20
127.143309
 30
0.0
 10
49.619437
 20
126.729472
 30
0.0
 10
49.373604
 20
125.981869
 30
0.0
 10
48.939342
 20
125.499016
 30
0.0
 10
48.703583
 20
125.236877
 30
0.0
 11
49.719588
 21
127.268886
 31
0.0
 11
49.644329
 21
126.892588
 31
0.0
 11
49.343290
 21
126.064733
 31
0.0
 11
48.703583
 21
125.236877
 31
0.0
  0
SPLINE
  5
10b
100
AcDbEntity
  8
0
 62
5
100
AcDbSpline
 70
0
 71
3
 72
10
 73
6
 74
4
 40
0.000000
 40
0.000000
 40
0.000000
 40
0.000000
 40
1.754130
 40
3.597990
 40
5.352120
 40
5.352120
 40
5.352120
 40
5.352120
 10
48.703583
 20
125.236877
 30
0.0
 10
48.179085
 20
124.967287
 30
0.0
 10
47.103261
 20
124.414316
 30
0.0
 10
45.223882
 20
124.414316
 30
0.0
 10
44.148057
 20
124.967287
 30
0.0
 10
43.623560
 20
125.236877
 30
0.0
 11
48.703583
 21
125.236877
 31
0.0
 11
47.085502
 21
124.559540
 31
0.0
 11
45.241641
 21
124.559540
 31
0.0
 11
43.623560
 21
125.236877
 31
0.0
  0
LWPOLYLINE
  5
10c
100
AcDbEntity
  8
0
 62
5
100
AcDbPolyline
 90
4
 70
0
 10
54.630278
 20
127.607555
 30
0.0
 10
48.703583
 20
127.607555
 30
0.0
 10
48.703583
 20
127.268886
 30
0.0
 10
49.719588
 20
127.268886
 30
0.0
  0
LWPOLYLINE
  5
10d
100
AcDbEntity
  8
0
 62
5
100
AcDbPolyline
 90
4
 70
0
 10
42.607555
 20
127.268886
 30
0.0
 10
43.623560
 20
127.268886
 30
0.0
 10
43.623560
 20
127.607555
 30
0.0
 10
37.696865
 20
127.607555
 30
0.0
  0
LWPOLYLINE
  5
10e
100
AcDbEntity
  8
0
 62
1
100
AcDbPolyline
 90
2
 70
0
 10
47.518244
 20
127.607555
 30
0.0
 10
44.808899
 20
127.607555
 30
0.0
  0
LWPOLYLINE
  5
10f
100
AcDbEntity
  8
0
 62
5
100
AcDbPolyline
 90
5
 70
0
 10
54.630278
 20
127.607555
 30
0.0
 10
57.678292
 20
129.300897
 30
0.0
 10
56.492953
 20
139.460945
 30
0.0
 10
54.630278
 20
141.154284
 30
0.0
 10
54.630278
 20
144.540968
 30
0.0
  0
LWPOLYLINE
  5
110
100
AcDbEntity
  8
0
 62
5
100
AcDbPolyline
 90
4
 70
0
 10
54.122275
 20
128.962228
 30
0.0
 10
54.968947
 20
129.639564
 30
0.0
 10
54.968947
 20
135.735592
 30
0.0
 10
54.122275
 20
136.412931
 30
0.0
  0
LWPOLYLINE
  5
111
100
AcDbEntity
  8
0
 62
1
100
AcDbPolyline
 90
2
 70
0
 10
54.630278
 20
127.607555
 30
0.0
 10
54.630278
 20
128.962228
 30
0.0
  0
LWPOLYLINE
  5
112
100
AcDbEntity
  8
0
 62
1
100
AcDbPolyline
 90
2
 70
0
 10
54.630278
 20
141.154284
 30
0.0
 10
54.630278
 20
136.412931
 30
0.0
  0
SPLINE
  5
113
100
AcDbEntity
  8
0
 62
5
100
AcDbSpline
 70
0
 71
3
 72
10
 73
6
 74
4
 40
0.000000
 40
0.000000
 40
0.000000
 40
0.000000
 40
1.046217
 40
1.927108
 40
2.310858
 40
2.310858
 40
2.310858
 40
2.310858
 10
43.623560
 20
125.236877
 30
0.0
 10
43.387801
 20
125.499016
 30
0.0
 10
42.953539
 20
125.981869
 30
0.0
 10
42.707706
 20
126.729472
 30
0.0
 10
42.630870
 20
127.143309
 30
0.0
 10
42.607555
 20
127.268886
 30
0.0
 11
43.623560
 21
125.236877
 31
0.0
 11
42.983853
 21
126.064733
 31
0.0
 11
42.682814
 21
126.892588
 31
0.0
 11
42.607555
 21
127.268886
 31
0.0
  0
SPLINE
  5
114
100
AcDbEntity
  8
0
 62
5
100
AcDbSpline
 70
0
 71
3
 72
10
 73
6
 74
4
 40
0.000000
 40
0.000000
 40
0.000000
 40
0.000000
 40
0.168287
 40
0.650186
 40
1.455503
 40
1.455503
 40
1.455503
 40
1.455503
 10
58.485684
 20
137.185870
 30
0.0
 10
58.453660
 20
137.139726
 30
0.0
 10
58.329932
 20
136.961444
 30
0.0
 10
58.164854
 20
136.495366
 30
0.0
 10
58.133449
 20
136.066367
 30
0.0
 10
58.113800
 20
135.797974
 30
0.0
 11
58.485684
 21
137.185870
 31
0.0
 11
58.392960
 21
137.045433
 31
0.0
 11
58.217595
 21
136.596574
 31
0.0
 11
58.113800
 21
135.797974
 31
0.0
  0
SPLINE
  5
115
100
AcDbEntity
  8
0
 62
5
100
AcDbSpline
 70
0
 71
3
 72
10
 73
6
 74
4
 40
0.000000
 40
0.000000
 40
0.000000
 40
0.000000
 40
1.568779
 40
3.234032
 40
4.770434
 40
4.770434
 40
4.770434
 40
4.770434
 10
58.113800
 20
135.797974
 30
0.0
 10
58.211884
 20
135.284231
 30
0.0
 10
58.414082
 20
134.225150
 30
0.0
 10
58.802783
 20
132.682486
 30
0.0
 10
59.089192
 20
131.654460
 30
0.0
 10
59.226633
 20
131.161134
 30
0.0
 11
58.113800
 21
135.797974
 31
0.0
 11
58.422478
 21
134.259863
 31
0.0
 11
58.820190
 21
132.642801
 31
0.0
 11
59.226633
 21
131.161134
 31
0.0
  0
LWPOLYLINE
  5
116
100
AcDbEntity
  8
0
 62
5
100
AcDbPolyline
 90
4
 70
0
 10
54.630278
 20
144.540968
 30
0.0
 10
59.286984
 20
136.475313
 30
0.0
 10
58.993687
 20
136.305980
 30
0.0
 10
58.485684
 20
137.185870
 30
0.0
  0
LWPOLYLINE
  5
117
100
AcDbEntity
  8
0
 62
5
100
AcDbPolyline
 90
4
 70
0
 10
62.041715
 20
131.026644
 30
0.0
 10
61.533710
 20
131.906533
 30
0.0
 10
61.827006
 20
132.075867
 30
0.0
 10
63.097018
 20
129.876145
 30
0.0
  0
LWPOLYLINE
  5
118
100
AcDbEntity
  8
0
 62
1
100
AcDbPolyline
 90
2
 70
0
 10
59.879656
 20
135.448778
 30
0.0
 10
61.234334
 20
133.102405
 30
0.0
  0
LWPOLYLINE
  5
119
100
AcDbEntity
  8
0
 62
5
100
AcDbPolyline
 90
4
 70
0
 10
80.030396
 20
129.876122
 30
0.0
 10
76.643713
 20
126.658775
 30
0.0
 10
66.483667
 20
126.658775
 30
0.0
 10
63.096984
 20
129.876122
 30
0.0
  0
LWPOLYLINE
  5
11a
100
AcDbEntity
  8
0
 62
5
100
AcDbPolyline
 90
4
 70
0
 10
75.289040
 20
130.384125
 30
0.0
 10
74.611704
 20
129.537453
 30
0.0
 10
68.515676
 20
129.537453
 30
0.0
 10
67.838340
 20
130.384125
 30
0.0
  0
LWPOLYLINE
  5
11b
100
AcDbEntity
  8
0
 62
1
100
AcDbPolyline
 90
2
 70
0
 10
80.030396
 20
129.876122
 30
0.0
 10
75.289040
 20
129.876122
 30
0.0
  0
LWPOLYLINE
  5
11c
100
AcDbEntity
  8
0
 62
1
100
AcDbPolyline
 90
2
 70
0
 10
63.096984
 20
129.876122
 30
0.0
 10
67.838340
 20
129.876122
 30
0.0
  0
SPLINE
  5
11d
100
AcDbEntity
  8
0
 62
5
100
AcDbSpline
 70
0
 71
3
 72
10
 73
6
 74
4
 40
0.000000
 40
0.000000
 40
0.000000
 40
0.000000
 40
1.197296
 40
2.328509
 40
2.836668
 40
2.836668
 40
2.836668
 40
2.836668
 10
59.226633
 20
131.161134
 30
0.0
 10
59.617613
 20
131.072354
 30
0.0
 10
60.377993
 20
130.899695
 30
0.0
 10
61.330830
 20
130.947873
 30
0.0
 10
61.873502
 20
131.008005
 30
0.0
 10
62.041715
 20
131.026644
 30
0.0
 11
59.226633
 21
131.161134
 31
0.0
 11
60.405327
 21
130.950901
 31
0.0
 11
61.536308
 21
130.973829
 31
0.0
 11
62.041715
 21
131.026644
 31
0.0
  0
SPLINE
  5
11e
100
AcDbEntity
  8
0
 62
5
100
AcDbSpline
 70
0
 71
3
 72
10
 73
6
 74
4
 40
0.000000
 40
0.000000
 40
0.000000
 40
0.000000
 40
0.168287
 40
0.650186
 40
1.455503
 40
1.455503
 40
1.455503
 40
1.455503
 10
84.641730
 20
137.185850
 30
0.0
 10
84.673754
 20
137.139706
 30
0.0
 10
84.797482
 20
136.961425
 30
0.0
 10
84.962560
 20
136.495346
 30
0.0
 10
84.993965
 20
136.066348
 30
0.0
 10
85.013614
 20
135.797955
 30
0.0
 11
84.641730
 21
137.185850
 31
0.0
 11
84.734454
 21
137.045413
 31
0.0
 11
84.909819
 21
136.596555
 31
0.0
 11
85.013614
 21
135.797955
 31
0.0
  0
SPLINE
  5
11f
100
AcDbEntity
  8
0
 62
5
100
AcDbSpline
 70
0
 71
3
 72
10
 73
6
 74
4
 40
0.000000
 40
0.000000
 40
0.000000
 40
0.000000
 40
1.568779
 40
3.234032
 40
4.770434
 40
4.770434
 40
4.770434
 40
4.770434
 10
85.013614
 20
135.797955
 30
0.0
 10
84.915530
 20
135.284211
 30
0.0
 10
84.713332
 20
134.225130
 30
0.0
 10
84.324631
 20
132.682466
 30
0.0
 10
84.038222
 20
131.654441
 30
0.0
 10
83.900780
 20
131.161114
 30
0.0
 11
85.013614
 21
135.797955
 31
0.0
 11
84.704936
 21
134.259843
 31
0.0
 11
84.307224
 21
132.642781
 31
0.0
 11
83.900780
 21
131.161114
 31
0.0
  0
LWPOLYLINE
  5
120
100
AcDbEntity
  8
0
 62
5
100
AcDbPolyline
 90
4
 70
0
 10
88.497136
 20
144.540948
 30
0.0
 10
83.840430
 20
136.475294
 30
0.0
 10
84.133727
 20
136.305960
 30
0.0
 10
84.641730
 20
137.185850
 30
0.0
  0
LWPOLYLINE
  5
121
100
AcDbEntity
  8
0
 62
5
100
AcDbPolyline
 90
4
 70
0
 10
81.085698
 20
131.026624
 30
0.0
 10
81.593704
 20
131.906514
 30
0.0
 10
81.300407
 20
132.075847
 30
0.0
 10
80.030396
 20
129.876125
 30
0.0
  0
LWPOLYLINE
  5
122
100
AcDbEntity
  8
0
 62
1
100
AcDbPolyline
 90
2
 70
0
 10
83.247758
 20
135.448758
 30
0.0
 10
81.893080
 20
133.102385
 30
0.0
  0
LWPOLYLINE
  5
123
100
AcDbEntity
  8
0
 62
5
100
AcDbPolyline
 90
5
 70
0
 10
88.497102
 20
127.607555
 30
0.0
 10
85.449088
 20
129.300897
 30
0.0
 10
86.634427
 20
139.460945
 30
0.0
 10
88.497102
 20
141.154284
 30
0.0
 10
88.497102
 20
144.540968
 30
0.0
  0
LWPOLYLINE
  5
124
100
AcDbEntity
  8
0
 62
5
100
AcDbPolyline
 90
4
 70
0
 10
89.005105
 20
128.962228
 30
0.0
 10
88.158433
 20
129.639564
 30
0.0
 10
88.158433
 20
135.735592
 30
0.0
 10
89.005105
 20
136.412931
 30
0.0
  0
LWPOLYLINE
  5
125
100
AcDbEntity
  8
0
 62
1
100
AcDbPolyline
 90
2
 70
0
 10
88.497102
 20
127.607555
 30
0.0
 10
88.497102
 20
128.962228
 30
0.0
  0
LWPOLYLINE
  5
126
100
AcDbEntity
  8
0
 62
1
100
AcDbPolyline
 90
2
 70
0
 10
88.497102
 20
141.154284
 30
0.0
 10
88.497102
 20
136.412931
 30
0.0
  0
SPLINE
  5
127
100
AcDbEntity
  8
0
 62
5
100
AcDbSpline
 70
0
 71
3
 72
10
 73
6
 74
4
 40
0.000000
 40
0.000000
 40
0.000000
 40
0.000000
 40
1.197296
 40
2.328509
 40
2.836668
 40
2.836668
 40
2.836668
 40
2.836668
 10
83.900780
 20
131.161114
 30
0.0
 10
83.509801
 20
131.072334
 30
0.0
 10
82.749421
 20
130.899675
 30
0.0
 10
81.796584
 20
130.947853
 30
0.0
 10
81.253912
 20
131.007985
 30
0.0
 10
81.085698
 20
131.026624
 30
0.0
 11
83.900780
 21
131.161114
 31
0.0
 11
82.722087
 21
130.950881
 31
0.0
 11
81.591106
 21
130.973809
 31
0.0
 11
81.085698
 21
131.026624
 31
0.0
  0
SPLINE
  5
128
100
AcDbEntity
  8
0
 62
5
100
AcDbSpline
 70
0
 71
3
 72
10
 73
6
 74
4
 40
0.000000
 40
0.000000
 40
0.000000
 40
0.000000
 40
0.383750
 40
1.264641
 40
2.310858
 40
2.310858
 40
2.310858
 40
2.310858
 10
100.519825
 20
127.268886
 30
0.0
 10
100.496510
 20
127.143309
 30
0.0
 10
100.419674
 20
126.729472
 30
0.0
 10
100.173841
 20
125.981869
 30
0.0
 10
99.739579
 20
125.499016
 30
0.0
 10
99.503820
 20
125.236877
 30
0.0
 11
100.519825
 21
127.268886
 31
0.0
 11
100.444566
 21
126.892588
 31
0.0
 11
100.143528
 21
126.064733
 31
0.0
 11
99.503820
 21
125.236877
 31
0.0
  0
SPLINE
  5
129
100
AcDbEntity
  8
0
 62
5
100
AcDbSpline
 70
0
 71
3
 72
10
 73
6
 74
4
 40
0.000000
 40
0.000000
 40
0.000000
 40
0.000000
 40
1.754130
 40
3.597990
 40
5.352120
 40
5.352120
 40
5.352120
 40
5.352120
 10
99.503820
 20
125.236877
 30
0.0
 10
98.979323
 20
124.967287
 30
0.0
 10
97.903498
 20
124.414316
 30
0.0
 10
96.024119
 20
124.414316
 30
0.0
 10
94.948295
 20
124.967287
 30
0.0
 10
94.423797
 20
125.236877
 30
0.0
 11
99.503820
 21
125.236877
 31
0.0
 11
97.885739
 21
124.559540
 31
0.0
 11
96.041878
 21
124.559540
 31
0.0
 11
94.423797
 21
125.236877
 31
0.0
  0
LWPOLYLINE
  5
12a
100
AcDbEntity
  8
0
 62
5
100
AcDbPolyline
 90
4
 70
0
 10
105.430515
 20
127.607555
 30
0.0
 10
99.503820
 20
127.607555
 30
0.0
 10
99.503820
 20
127.268886
 30
0.0
 10
100.519825
 20
127.268886
 30
0.0
  0
LWPOLYLINE
  5
12b
100
AcDbEntity
  8
0
 62
5
100
AcDbPolyline
 90
4
 70
0
 10
93.407792
 20
127.268886
 30
0.0
 10
94.423797
 20
127.268886
 30
0.0
 10
94.423797
 20
127.607555
 30
0.0
 10
88.497102
 20
127.607555
 30
0.0
  0
LWPOLYLINE
  5
12c
100
AcDbEntity
  8
0
 62
1
100
AcDbPolyline
 90
2
 70
0
 10
98.318481
 20
127.607555
 30
0.0
 10
95.609136
 20
127.607555
 30
0.0
  0
LWPOLYLINE
  5
12d
100
AcDbEntity
  8
0
 62
5
100
AcDbPolyline
 90
5
 70
0
 10
105.430515
 20
127.607555
 30
0.0
 10
108.478529
 20
129.300897
 30
0.0
 10
107.293190
 20
139.460945
 30
0.0
 10
105.430515
 20
141.154284
 30
0.0
 10
105.430515
 20
144.540968
 30
0.0
  0
LWPOLYLINE
  5
12e
100
AcDbEntity
  8
0
 62
5
100
AcDbPolyline
 90
4
 70
0
 10
104.922512
 20
128.962228
 30
0.0
 10
105.769184
 20
129.639564
 30
0.0
 10
105.769184
 20
135.735592
 30
0.0
 10
104.922512
 20
136.412931
 30
0.0
  0
LWPOLYLINE
  5
12f
100
AcDbEntity
  8
0
 62
1
100
AcDbPolyline
 90
2
 70
0
 10
105.430515
 20
127.607555
 30
0.0
 10
105.430515
 20
128.962228
 30
0.0
  0
LWPOLYLINE
  5
130
100
AcDbEntity
  8
0
 62
1
100
AcDbPolyline
 90
2
 70
0
 10
105.430515
 20
141.154284
 30
0.0
 10
105.430515
 20
136.412931
 30
0.0
  0
SPLINE
  5
131
100
AcDbEntity
  8
0
 62
5
100
AcDbSpline
 70
0
 71
3
 72
10
 73
6
 74
4
 40
0.000000
 40
0.000000
 40
0.000000
 40
0.000000
 40
1.046217
 40
1.927108
 40
2.310858
 40
2.310858
 40
2.310858
 40
2.310858
 10
94.423797
 20
125.236877
 30
0.0
 10
94.188038
 20
125.499016
 30
0.0
 10
93.753776
 20
125.981869
 30
0.0
 10
93.507943
 20
126.729472
 30
0.0
 10
93.431107
 20
127.143309
 30
0.0
 10
93.407792
 20
127.268886
 30
0.0
 11
94.423797
 21
125.236877
 31
0.0
 11
93.784090
 21
126.064733
 31
0.0
 11
93.483051
 21
126.892588
 31
0.0
 11
93.407792
 21
127.268886
 31
0.0
  0
SPLINE
  5
132
100
AcDbEntity
  8
0
 62
5
100
AcDbSpline
 70
0
 71
3
 72
10
 73
6
 74
4
 40
0.000000
 40
0.000000
 40
0.000000
 40
0.000000
 40
0.168287
 40
0.650186
 40
1.455503
 40
1.455503
 40
1.455503
 40
1.455503
 10
109.285921
 20
137.185870
 30
0.0
 10
109.253897
 20
137.139726
 30
0.0
 10
109.130169
 20
136.961444
 30
0.0
 10
108.965091
 20
136.495366
 30
0.0
 10
108.933686
 20
136.066367
 30
0.0
 10
108.914037
 20
135.797974
 30
0.0
 11
109.285921
 21
137.185870
 31
0.0
 11
109.193197
 21
137.045433
 31
0.0
 11
109.017832
 21
136.596574
 31
0.0
 11
108.914037
 21
135.797974
 31
0.0
  0
SPLINE
  5
133
100
AcDbEntity
  8
0
 62
5
100
AcDbSpline
 70
0
 71
3
 72
10
 73
6
 74
4
 40
0.000000
 40
0.000000
 40
0.000000
 40
0.000000
 40
1.568779
 40
3.234032
 40
4.770434
 40
4.770434
 40
4.770434
 40
4.770434
 10
108.914037
 20
135.797974
 30
0.0
 10
109.012121
 20
135.284231
 30
0.0
 10
109.214319
 20
134.225150
 30
0.0
 10
109.603020
 20
132.682486
 30
0.0
 10
109.889429
 20
131.654460
 30
0.0
 10
110.026871
 20
131.161134
 30
0.0
 11
108.914037
 21
135.797974
 31
0.0
 11
109.222715
 21
134.259863
 31
0.0
 11
109.620427
 21
132.642801
 31
0.0
 11
110.026871
 21
131.161134
 31
0.0
  0
LWPOLYLINE
  5
134
100
AcDbEntity
  8
0
 62
5
100
AcDbPolyline
 90
4
 70
0
 10
105.430515
 20
144.540968
 30
0.0
 10
110.087221
 20
136.475313
 30
0.0
 10
109.793924
 20
136.305980
 30
0.0
 10
109.285921
 20
137.185870
 30
0.0
  0
LWPOLYLINE
  5
135
100
AcDbEntity
  8
0
 62
5
100
AcDbPolyline
 90
4
 70
0
 10
112.841953
 20
131.026644
 30
0.0
 10
112.333947
 20
131.906533
 30
0.0
 10
112.627243
 20
132.075867
 30
0.0
 10
113.897255
 20
129.876145
 30
0.0
  0
LWPOLYLINE
  5
136
100
AcDbEntity
  8
0
 62
1
100
AcDbPolyline
 90
2
 70
0
 10
110.679893
 20
135.448778
 30
0.0
 10
112.034571
 20
133.102405
 30
0.0
  0
LWPOLYLINE
  5
137
100
AcDbEntity
  8
0
 62
5
100
AcDbPolyline
 90
4
 70
0
 10
113.897221
 20
129.876122
 30
0.0
 10
109.417595
 20
128.551851
 30
0.0
 10
104.337595
 20
119.753031
 30
0.0
 10
105.430554
 20
115.211427
 30
0.0
  0
LWPOLYLINE
  5
138
100
AcDbEntity
  8
0
 62
5
100
AcDbPolyline
 90
4
 70
0
 10
111.966496
 20
125.516006
 30
0.0
 10
110.894594
 20
125.352752
 30
0.0
 10
107.846594
 20
120.073461
 30
0.0
 10
108.241163
 20
119.063540
 30
0.0
  0
LWPOLYLINE
  5
139
100
AcDbEntity
  8
0
 62
1
100
AcDbPolyline
 90
2
 70
0
 10
113.897221
 20
129.876122
 30
0.0
 10
111.526554
 20
125.770006
 30
0.0
  0
LWPOLYLINE
  5
13a
100
AcDbEntity
  8
0
 62
1
100
AcDbPolyline
 90
2
 70
0
 10
105.430554
 20
115.211427
 30
0.0
 10
107.801221
 20
119.317540
 30
0.0
  0
SPLINE
  5
13b
100
AcDbEntity
  8
0
 62
5
100
AcDbSpline
 70
0
 71
3
 72
10
 73
6
 74
4
 40
0.000000
 40
0.000000
 40
0.000000
 40
0.000000
 40
1.197296
 40
2.328509
 40
2.836668
 40
2.836668
 40
2.836668
 40
2.836668
 10
110.026871
 20
131.161134
 30
0.0
 10
110.417850
 20
131.072354
 30
0.0
 10
111.178230
 20
130.899695
 30
0.0
 10
112.131067
 20
130.947873
 30
0.0
 10
112.673739
 20
131.008005
 30
0.0
 10
112.841953
 20
131.026644
 30
0.0
 11
110.026871
 21
131.161134
 31
0.0
 11
111.205564
 21
130.950901
 31
0.0
 11
112.336545
 21
130.973829
 31
0.0
 11
112.841953
 21
131.026644
 31
0.0
  0
SPLINE
  5
13c
100
AcDbEntity
  8
0
 62
5
100
AcDbSpline
 70
0
 71
3
 72
10
 73
6
 74
4
 40
0.000000
 40
0.000000
 40
0.000000
 40
0.000000
 40
0.383752
 40
1.264648
 40
2.310869
 40
2.310869
 40
2.310869
 40
2.310869
 10
111.148605
 20
104.630092
 30
0.0
 10
111.028194
 20
104.587495
 30
0.0
 10
110.631380
 20
104.447118
 30
0.0
 10
109.861017
 20
104.286212
 30
0.0
 10
109.225719
 20
104.420867
 30
0.0
 10
108.880820
 20
104.493970
 30
0.0
 11
111.148605
 21
104.630092
 31
0.0
 11
110.785089
 21
104.507119
 31
0.0
 11
109.917622
 21
104.353897
 31
0.0
 11
108.880820
 21
104.493970
 31
0.0
  0
SPLINE
  5
13d
100
AcDbEntity
  8
0
 62
5
100
AcDbSpline
 70
0
 71
3
 72
10
 73
6
 74
4
 40
0.000000
 40
0.000000
 40
0.000000
 40
0.000000
 40
1.754138
 40
3.598006
 40
5.352144
 40
5.352144
 40
5.352144
 40
5.352144
 10
108.880820
 20
104.493970
 30
0.0
 10
108.385097
 20
104.813405
 30
0.0
 10
107.368295
 20
105.468615
 30
0.0
 10
106.428602
 20
107.096212
 30
0.0
 10
106.369575
 20
108.304394
 30
0.0
 10
106.340797
 20
108.893419
 30
0.0
 11
108.880820
 21
104.493970
 31
0.0
 11
107.485183
 21
105.556607
 31
0.0
 11
106.563249
 21
107.153444
 31
0.0
 11
106.340797
 21
108.893419
 31
0.0
  0
LWPOLYLINE
  5
13e
100
AcDbEntity
  8
0
 62
5
100
AcDbPolyline
 90
4
 70
0
 10
113.897255
 20
100.546627
 30
0.0
 10
110.933896
 20
105.679315
 30
0.0
 10
110.640599
 20
105.509981
 30
0.0
 10
111.148605
 20
104.630092
 30
0.0
  0
LWPOLYLINE
  5
13f
100
AcDbEntity
  8
0
 62
5
100
AcDbPolyline
 90
4
 70
0
 10
107.592574
 20
110.789318
 30
0.0
 10
108.100577
 20
109.909428
 30
0.0
 10
108.393873
 20
110.078761
 30
0.0
 10
105.430515
 20
115.211449
 30
0.0
  0
LWPOLYLINE
  5
140
100
AcDbEntity
  8
0
 62
1
100
AcDbPolyline
 90
2
 70
0
 10
110.341224
 20
106.705853
 30
0.0
 10
108.986546
 20
109.052223
 30
0.0
  0
LWPOLYLINE
  5
141
100
AcDbEntity
  8
0
 62
5
100
AcDbPolyline
 90
4
 70
0
 10
130.830633
 20
100.546607
 30
0.0
 10
127.443950
 20
97.329259
 30
0.0
 10
117.283905
 20
97.329259
 30
0.0
 10
113.897221
 20
100.546607
 30
0.0
  0
LWPOLYLINE
  5
142
100
AcDbEntity
  8
0
 62
5
100
AcDbPolyline
 90
4
 70
0
 10
126.089277
 20
101.054610
 30
0.0
 10
125.411941
 20
100.207937
 30
0.0
 10
119.315913
 20
100.207937
 30
0.0
 10
118.638577
 20
101.054610
 30
0.0
  0
LWPOLYLINE
  5
143
100
AcDbEntity
  8
0
 62
1
100
AcDbPolyline
 90
2
 70
0
 10
130.830633
 20
100.546607
 30
0.0
 10
126.089277
 20
100.546607
 30
0.0
  0
LWPOLYLINE
  5
144
100
AcDbEntity
  8
0
 62
1
100
AcDbPolyline
 90
2
 70
0
 10
113.897221
 20
100.546607
 30
0.0
 10
118.638577
 20
100.546607
 30
0.0
  0
SPLINE
  5
145
100
AcDbEntity
  8
0
 62
5
100
AcDbSpline
 70
0
 71
3
 72
10
 73
6
 74
4
 40
0.000000
 40
0.000000
 40
0.000000
 40
0.000000
 40
1.046222
 40
1.927117
 40
2.310869
 40
2.310869
 40
2.310869
 40
2.310869
 10
106.340797
 20
108.893419
 30
0.0
 10
106.449937
 20
109.228663
 30
0.0
 10
106.650971
 20
109.846174
 30
0.0
 10
107.175502
 20
110.432876
 30
0.0
 10
107.495478
 20
110.706337
 30
0.0
 10
107.592574
 20
110.789318
 30
0.0
 11
106.340797
 21
108.893419
 31
0.0
 11
106.737891
 21
109.861354
 31
0.0
 11
107.304319
 21
110.535991
 31
0.0
 11
107.592574
 21
110.789318
 31
0.0
  0
SPLINE
  5
146
100
AcDbEntity
  8
0
 62
5
100
AcDbSpline
 70
0
 71
3
 72
10
 73
6
 74
4
 40
0.000000
 40
0.000000
 40
0.000000
 40
0.000000
 40
0.383752
 40
1.264647
 40
2.310869
 40
2.310869
 40
2.310869
 40
2.310869
 10
137.135314
 20
110.789295
 30
0.0
 10
137.232410
 20
110.706314
 30
0.0
 10
137.552386
 20
110.432853
 30
0.0
 10
138.076917
 20
109.846152
 30
0.0
 10
138.277951
 20
109.228640
 30
0.0
 10
138.387091
 20
108.893397
 30
0.0
 11
137.135314
 21
110.789295
 31
0.0
 11
137.423569
 21
110.535968
 31
0.0
 11
137.989997
 21
109.861331
 31
0.0
 11
138.387091
 21
108.893397
 31
0.0
  0
SPLINE
  5
147
100
AcDbEntity
  8
0
 62
5
100
AcDbSpline
 70
0
 71
3
 72
10
 73
6
 74
4
 40
0.000000
 40
0.000000
 40
0.000000
 40
0.000000
 40
1.754137
 40
3.598005
 40
5.352142
 40
5.352142
 40
5.352142
 40
5.352142
 10
138.387091
 20
108.893397
 30
0.0
 10
138.358313
 20
108.304372
 30
0.0
 10
138.299286
 20
107.096190
 30
0.0
 10
137.359594
 20
105.468594
 30
0.0
 10
136.342791
 20
104.813385
 30
0.0
 10
135.847068
 20
104.493950
 30
0.0
 11
138.387091
 21
108.893397
 31
0.0
 11
138.164639
 21
107.153422
 31
0.0
 11
137.242705
 21
105.556586
 31
0.0
 11
135.847068
 21
104.493950
 31
0.0
  0
LWPOLYLINE
  5
148
100
AcDbEntity
  8
0
 62
5
100
AcDbPolyline
 90
4
 70
0
 10
139.297373
 20
115.211430
 30
0.0
 10
136.334015
 20
110.078741
 30
0.0
 10
136.627311
 20
109.909405
 30
0.0
 10
137.135314
 20
110.789295
 30
0.0
  0
LWPOLYLINE
  5
149
100
AcDbEntity
  8
0
 62
5
100
AcDbPolyline
 90
4
 70
0
 10
133.579283
 20
104.630069
 30
0.0
 10
134.087289
 20
105.509959
 30
0.0
 10
133.793992
 20
105.679295
 30
0.0
 10
130.830633
 20
100.546607
 30
0.0
  0
LWPOLYLINE
  5
14a
100
AcDbEntity
  8
0
 62
1
100
AcDbPolyline
 90
2
 70
0
 10
135.741342
 20
109.052203
 30
0.0
 10
134.386664
 20
106.705833
 30
0.0
  0
LWPOLYLINE
  5
14b
100
AcDbEntity
  8
0
 62
5
100
AcDbPolyline
 90
4
 70
0
 10
130.830676
 20
129.876148
 30
0.0
 10
135.310301
 20
128.551876
 30
0.0
 10
140.390301
 20
119.753057
 30
0.0
 10
139.297342
 20
115.211452
 30
0.0
  0
LWPOLYLINE
  5
14c
100
AcDbEntity
  8
0
 62
5
100
AcDbPolyline
 90
4
 70
0
 10
132.761400
 20
125.516032
 30
0.0
 10
133.833303
 20
125.352777
 30
0.0
 10
136.881303
 20
120.073486
 30
0.0
 10
136.486733
 20
119.063565
 30
0.0
  0
LWPOLYLINE
  5
14d
100
AcDbEntity
  8
0
 62
1
100
AcDbPolyline
 90
2
 70
0
 10
130.830676
 20
129.876148
 30
0.0
 10
133.201342
 20
125.770032
 30
0.0
  0
LWPOLYLINE
  5
14e
100
AcDbEntity
  8
0
 62
1
100
AcDbPolyline
 90
2
 70
0
 10
139.297342
 20
115.211452
 30
0.0
 10
136.926676
 20
119.317565
 30
0.0
  0
SPLINE
  5
14f
100
AcDbEntity
  8
0
 62
5
100
AcDbSpline
 70
0
 71
3
 72
10
 73
6
 74
4
 40
0.000000
 40
0.000000
 40
0.000000
 40
0.000000
 40
1.046221
 40
1.927117
 40
2.310870
 40
2.310870
 40
2.310870
 40
2.310870
 10
135.847068
 20
104.493950
 30
0.0
 10
135.502169
 20
104.420846
 30
0.0
 10
134.866872
 20
104.286190
 30
0.0
 10
134.096508
 20
104.447095
 30
0.0
 10
133.699694
 20
104.587472
 30
0.0
 10
133.579283
 20
104.630069
 30
0.0
 11
135.847068
 21
104.493950
 31
0.0
 11
134.810266
 21
104.353875
 31
0.0
 11
133.942799
 21
104.507096
 31
0.0
 11
133.579283
 21
104.630069
 31
0.0
  0
SPLINE
  5
150
100
AcDbEntity
  8
0
 62
5
100
AcDbSpline
 70
0
 71
3
 72
10
 73
6
 74
4
 40
0.000000
 40
0.000000
 40
0.000000
 40
0.000000
 40
0.168287
 40
0.650186
 40
1.455503
 40
1.455503
 40
1.455503
 40
1.455503
 10
135.441967
 20
137.185850
 30
0.0
 10
135.473991
 20
137.139706
 30
0.0
 10
135.597719
 20
136.961425
 30
0.0
 10
135.762797
 20
136.495346
 30
0.0
 10
135.794202
 20
136.066348
 30
0.0
 10
135.813851
 20
135.797955
 30
0.0
 11
135.441967
 21
137.185850
 31
0.0
 11
135.534691
 21
137.045413
 31
0.0
 11
135.710056
 21
136.596555
 31
0.0
 11
135.813851
 21
135.797955
 31
0.0
  0
SPLINE
  5
151
100
AcDbEntity
  8
0
 62
5
100
AcDbSpline
 70
0
 71
3
 72
10
 73
6
 74
4
 40
0.000000
 40
0.000000
 40
0.000000
 40
0.000000
 40
1.568779
 40
3.234032
 40
4.770434
 40
4.770434
 40
4.770434
 40
4.770434
 10
135.813851
 20
135.797955
 30
0.0
 10
135.715767
 20
135.284211
 30
0.0
 10
135.513569
 20
134.225130
 30
0.0
 10
135.124868
 20
132.682466
 30
0.0
 10
134.838459
 20
131.654441
 30
0.0
 10
134.701018
 20
131.161114
 30
0.0
 11
135.813851
 21
135.797955
 31
0.0
 11
135.505173
 21
134.259843
 31
0.0
 11
135.107461
 21
132.642781
 31
0.0
 11
134.701018
 21
131.161114
 31
0.0
  0
LWPOLYLINE
  5
152
100
AcDbEntity
  8
0
 62
5
100
AcDbPolyline
 90
4
 70
0
 10
139.297373
 20
144.540948
 30
0.0
 10
134.640667
 20
136.475294
 30
0.0
 10
134.933964
 20
136.305960
 30
0.0
 10
135.441967
 20
137.185850
 30
0.0
  0
LWPOLYLINE
  5
153
100
AcDbEntity
  8
0
 62
5
100
AcDbPolyline
 90
4
 70
0
 10
131.885936
 20
131.026624
 30
0.0
 10
132.393941
 20
131.906514
 30
0.0
 10
132.100645
 20
132.075847
 30
0.0
 10
130.830633
 20
129.876125
 30
0.0
  0
LWPOLYLINE
  5
154
100
AcDbEntity
  8
0
 62
1
100
AcDbPolyline
 90
2
 70
0
 10
134.047995
 20
135.448758
 30
0.0
 10
132.693317
 20
133.102385
 30
0.0
  0
LWPOLYLINE
  5
155
100
AcDbEntity
  8
0
 62
5
100
AcDbPolyline
 90
5
 70
0
 10
139.297342
 20
127.607555
 30
0.0
 10
136.249328
 20
129.300897
 30
0.0
 10
137.434667
 20
139.460945
 30
0.0
 10
139.297342
 20
141.154284
 30
0.0
 10
139.297342
 20
144.540968
 30
0.0
  0
LWPOLYLINE
  5
156
100
AcDbEntity
  8
0
 62
5
100
AcDbPolyline
 90
4
 70
0
 10
139.805345
 20
128.962228
 30
0.0
 10
138.958673
 20
129.639564
 30
0.0
 10
138.958673
 20
135.735592
 30
0.0
 10
139.805345
 20
136.412931
 30
0.0
  0
LWPOLYLINE
  5
157
100
AcDbEntity
  8
0
 62
1
100
AcDbPolyline
 90
2
 70
0
 10
139.297342
 20
127.607555
 30
0.0
 10
139.297342
 20
128.962228
 30
0.0
  0
LWPOLYLINE
  5
158
100
AcDbEntity
  8
0
 62
1
100
AcDbPolyline
 90
2
 70
0
 10
139.297342
 20
141.154284
 30
0.0
 10
139.297342
 20
136.412931
 30
0.0
  0
SPLINE
  5
159
100
AcDbEntity
  8
0
 62
5
100
AcDbSpline
 70
0
 71
3
 72
10
 73
6
 74
4
 40
0.000000
 40
0.000000
 40
0.000000
 40
0.000000
 40
1.197296
 40
2.328509
 40
2.836668
 40
2.836668
 40
2.836668
 40
2.836668
 10
134.701018
 20
131.161114
 30
0.0
 10
134.310038
 20
131.072334
 30
0.0
 10
133.549658
 20
130.899675
 30
0.0
 10
132.596821
 20
130.947853
 30
0.0
 10
132.054149
 20
131.007985
 30
0.0
 10
131.885936
 20
131.026624
 30
0.0
 11
134.701018
 21
131.161114
 31
0.0
 11
133.522324
 21
130.950881
 31
0.0
 11
132.391343
 21
130.973809
 31
0.0
 11
131.885936
 21
131.026624
 31
0.0
  0
SPLINE
  5
15a
100
AcDbEntity
  8
0
 62
5
100
AcDbSpline
 70
0
 71
3
 72
10
 73
6
 74
4
 40
0.000000
 40
0.000000
 40
0.000000
 40
0.000000
 40
0.383750
 40
1.264641
 40
2.310858
 40
2.310858
 40
2.310858
 40
2.310858
 10
151.320065
 20
127.268886
 30
0.0
 10
151.296750
 20
127.143309
 30
0.0
 10
151.219914
 20
126.729472
 30
0.0
 10
150.974081
 20
125.981869
 30
0.0
 10
150.539819
 20
125.499016
 30
0.0
 10
150.304060
 20
125.236877
 30
0.0
 11
151.320065
 21
127.268886
 31
0.0
 11
151.244806
 21
126.892588
 31
0.0
 11
150.943767
 21
126.064733
 31
0.0
 11
150.304060
 21
125.236877
 31
0.0
  0
SPLINE
  5
15b
100
AcDbEntity
  8
0
 62
5
100
AcDbSpline
 70
0
 71
3
 72
10
 73
6
 74
4
 40
0.000000
 40
0.000000
 40
0.000000
 40
0.000000
 40
1.754130
 40
3.597990
 40
5.352120
 40
5.352120
 40
5.352120
 40
5.352120
 10
150.304060
 20
125.236877
 30
0.0
 10
149.779562
 20
124.967287
 30
0.0
 10
148.703738
 20
124.414316
 30
0.0
 10
146.824359
 20
124.414316
 30
0.0
 10
145.748534
 20
124.967287
 30
0.0
 10
145.224037
 20
125.236877
 30
0.0
 11
150.304060
 21
125.236877
 31
0.0
 11
148.685979
 21
124.559540
 31
0.0
 11
146.842118
 21
124.559540
 31
0.0
 11
145.224037
 21
125.236877
 31
0.0
  0
LWPOLYLINE
  5
15c
100
AcDbEntity
  8
0
 62
5
100
AcDbPolyline
 90
4
 70
0
 10
156.230755
 20
127.607555
 30
0.0
 10
150.304060
 20
127.607555
 30
0.0
 10
150.304060
 20
127.268886
 30
0.0
 10
151.320065
 20
127.268886
 30
0.0
  0
LWPOLYLINE
  5
15d
100
AcDbEntity
  8
0
 62
5
100
AcDbPolyline
 90
4
 70
0
 10
144.208032
 20
127.268886
 30
0.0
 10
145.224037
 20
127.268886
 30
0.0
 10
145.224037
 20
127.607555
 30
0.0
 10
139.297342
 20
127.607555
 30
0.0
  0
LWPOLYLINE
  5
15e
100
AcDbEntity
  8
0
 62
1
100
AcDbPolyline
 90
2
 70
0
 10
149.118721
 20
127.607555
 30
0.0
 10
146.409376
 20
127.607555
 30
0.0
  0
LWPOLYLINE
  5
15f
100
AcDbEntity
  8
0
 62
5
100
AcDbPolyline
 90
5
 70
0
 10
156.230755
 20
127.607555
 30
0.0
 10
159.278769
 20
129.300897
 30
0.0
 10
158.093430
 20
139.460945
 30
0.0
 10
156.230755
 20
141.154284
 30
0.0
 10
156.230755
 20
144.540968
 30
0.0
  0
LWPOLYLINE
  5
160
100
AcDbEntity
  8
0
 62
5
100
AcDbPolyline
 90
4
 70
0
 10
155.722752
 20
128.962228
 30
0.0
 10
156.569424
 20
129.639564
 30
0.0
 10
156.569424
 20
135.735592
 30
0.0
 10
155.722752
 20
136.412931
 30
0.0
  0
LWPOLYLINE
  5
161
100
AcDbEntity
  8
0
 62
1
100
AcDbPolyline
 90
2
 70
0
 10
156.230755
 20
127.607555
 30
0.0
 10
156.230755
 20
128.962228
 30
0.0
  0
LWPOLYLINE
  5
162
100
AcDbEntity
  8
0
 62
1
100
AcDbPolyline
 90
2
 70
0
 10
156.230755
 20
141.154284
 30
0.0
 10
156.230755
 20
136.412931
 30
0.0
  0
SPLINE
  5
163
100
AcDbEntity
  8
0
 62
5
100
AcDbSpline
 70
0
 71
3
 72
10
 73
6
 74
4
 40
0.000000
 40
0.000000
 40
0.000000
 40
0.000000
 40
1.046217
 40
1.927108
 40
2.310858
 40
2.310858
 40
2.310858
 40
2.310858
 10
145.224037
 20
125.236877
 30
0.0
 10
144.988278
 20
125.499016
 30
0.0
 10
144.554016
 20
125.981869
 30
0.0
 10
144.308183
 20
126.729472
 30
0.0
 10
144.231347
 20
127.143309
 30
0.0
 10
144.208032
 20
127.268886
 30
0.0
 11
145.224037
 21
125.236877
 31
0.0
 11
144.584329
 21
126.064733
 31
0.0
 11
144.283291
 21
126.892588
 31
0.0
 11
144.208032
 21
127.268886
 31
0.0
  0
SPLINE
  5
164
100
AcDbEntity
  8
0
 62
5
100
AcDbSpline
 70
0
 71
3
 72
10
 73
6
 74
4
 40
0.000000
 40
0.000000
 40
0.000000
 40
0.000000
 40
0.168287
 40
0.650186
 40
1.455503
 40
1.455503
 40
1.455503
 40
1.455503
 10
160.086161
 20
137.185870
 30
0.0
 10
160.054137
 20
137.139726
 30
0.0
 10
159.930409
 20
136.961444
 30
0.0
 10
159.765331
 20
136.495366
 30
0.0
 10
159.733925
 20
136.066367
 30
0.0
 10
159.714277
 20
135.797974
 30
0.0
 11
160.086161
 21
137.185870
 31
0.0
 11
159.993437
 21
137.045433
 31
0.0
 11
159.818072
 21
136.596574
 31
0.0
 11
159.714277
 21
135.797974
 31
0.0
  0
SPLINE
  5
165
100
AcDbEntity
  8
0
 62
5
100
AcDbSpline
 70
0
 71
3
 72
10
 73
6
 74
4
 40
0.000000
 40
0.000000
 40
0.000000
 40
0.000000
 40
1.568779
 40
3.234032
 40
4.770434
 40
4.770434
 40
4.770434
 40
4.770434
 10
159.714277
 20
135.797974
 30
0.0
 10
159.812361
 20
135.284231
 30
0.0
 10
160.014559
 20
134.225150
 30
0.0
 10
160.403260
 20
132.682486
 30
0.0
 10
160.689669
 20
131.654460
 30
0.0
 10
160.827110
 20
131.161134
 30
0.0
 11
159.714277
 21
135.797974
 31
0.0
 11
160.022955
 21
134.259863
 31
0.0
 11
160.420667
 21
132.642801
 31
0.0
 11
160.827110
 21
131.161134
 31
0.0
  0
LWPOLYLINE
  5
166
100
AcDbEntity
  8
0
 62
5
100
AcDbPolyline
 90
4
 70
0
 10
156.230755
 20
144.540968
 30
0.0
 10
160.887461
 20
136.475313
 30
0.0
 10
160.594164
 20
136.305980
 30
0.0
 10
160.086161
 20
137.185870
 30
0.0
  0
LWPOLYLINE
  5
167
100
AcDbEntity
  8
0
 62
5
100
AcDbPolyline
 90
4
 70
0
 10
163.642192
 20
131.026644
 30
0.0
 10
163.134187
 20
131.906533
 30
0.0
 10
163.427483
 20
132.075867
 30
0.0
 10
164.697495
 20
129.876145
 30
0.0
  0
LWPOLYLINE
  5
168
100
AcDbEntity
  8
0
 62
1
100
AcDbPolyline
 90
2
 70
0
 10
161.480133
 20
135.448778
 30
0.0
 10
162.834811
 20
133.102405
 30
0.0
  0
LWPOLYLINE
  5
169
100
AcDbEntity
  8
0
 62
5
100
AcDbPolyline
 90
4
 70
0
 10
181.630873
 20
129.876122
 30
0.0
 10
178.244190
 20
126.658775
 30
0.0
 10
168.084144
 20
126.658775
 30
0.0
 10
164.697461
 20
129.876122
 30
0.0
  0
LWPOLYLINE
  5
16a
100
AcDbEntity
  8
0
 62
5
100
AcDbPolyline
 90
4
 70
0
 10
176.889517
 20
130.384125
 30
0.0
 10
176.212181
 20
129.537453
 30
0.0
 10
170.116153
 20
129.537453
 30
0.0
 10
169.438817
 20
130.384125
 30
0.0
  0
LWPOLYLINE
  5
16b
100
AcDbEntity
  8
0
 62
1
100
AcDbPolyline
 90
2
 70
0
 10
181.630873
 20
129.876122
 30
0.0
 10
176.889517
 20
129.876122
 30
0.0
  0
LWPOLYLINE
  5
16c
100
AcDbEntity
  8
0
 62
1
100
AcDbPolyline
 90
2
 70
0
 10
164.697461
 20
129.876122
 30
0.0
 10
169.438817
 20
129.876122
 30
0.0
  0
SPLINE
  5
16d
100
AcDbEntity
  8
0
 62
5
100
AcDbSpline
 70
0
 71
3
 72
10
 73
6
 74
4
 40
0.000000
 40
0.000000
 40
0.000000
 40
0.000000
 40
1.197296
 40
2.328509
 40
2.836668
 40
2.836668
 40
2.836668
 40
2.836668
 10
160.827110
 20
131.161134
 30
0.0
 10
161.218090
 20
131.072354
 30
0.0
 10
161.978470
 20
130.899695
 30
0.0
 10
162.931307
 20
130.947873
 30
0.0
 10
163.473979
 20
131.008005
 30
0.0
 10
163.642192
 20
131.026644
 30
0.0
 11
160.827110
 21
131.161134
 31
0.0
 11
162.005804
 21
130.950901
 31
0.0
 11
163.136785
 21
130.973829
 31
0.0
 11
163.642192
 21
131.026644
 31
0.0
  0
SPLINE
  5
16e
100
AcDbEntity
  8
0
 62
5
100
AcDbSpline
 70
0
 71
3
 72
10
 73
6
 74
4
 40
0.000000
 40
0.000000
 40
0.000000
 40
0.000000
 40
0.383752
 40
1.264647
 40
2.310869
 40
2.310869
 40
2.310869
 40
2.310869
 10
187.935554
 20
140.118813
 30
0.0
 10
188.032650
 20
140.035833
 30
0.0
 10
188.352626
 20
139.762371
 30
0.0
 10
188.877157
 20
139.175670
 30
0.0
 10
189.078191
 20
138.558159
 30
0.0
 10
189.187331
 20
138.222915
 30
0.0
 11
187.935554
 21
140.118813
 31
0.0
 11
188.223809
 21
139.865487
 31
0.0
 11
188.790237
 21
139.190849
 31
0.0
 11
189.187331
 21
138.222915
 31
0.0
  0
SPLINE
  5
16f
100
AcDbEntity
  8
0
 62
5
100
AcDbSpline
 70
0
 71
3
 72
10
 73
6
 74
4
 40
0.000000
 40
0.000000
 40
0.000000
 40
0.000000
 40
1.754137
 40
3.598005
 40
5.352142
 40
5.352142
 40
5.352142
 40
5.352142
 10
189.187331
 20
138.222915
 30
0.0
 10
189.158553
 20
137.633890
 30
0.0
 10
189.099526
 20
136.425708
 30
0.0
 10
188.159834
 20
134.798112
 30
0.0
 10
187.143031
 20
134.142903
 30
0.0
 10
186.647308
 20
133.823469
 30
0.0
 11
189.187331
 21
138.222915
 31
0.0
 11
188.964879
 21
136.482941
 31
0.0
 11
188.042945
 21
134.886104
 31
0.0
 11
186.647308
 21
133.823469
 31
0.0
  0
LWPOLYLINE
  5
170
100
AcDbEntity
  8
0
 62
5
100
AcDbPolyline
 90
4
 70
0
 10
190.097613
 20
144.540948
 30
0.0
 10
187.134254
 20
139.408260
 30
0.0
 10
187.427551
 20
139.238924
 30
0.0
 10
187.935554
 20
140.118813
 30
0.0
  0
LWPOLYLINE
  5
171
100
AcDbEntity
  8
0
 62
5
100
AcDbPolyline
 90
4
 70
0
 10
184.379523
 20
133.959587
 30
0.0
 10
184.887529
 20
134.839477
 30
0.0
 10
184.594232
 20
135.008813
 30
0.0
 10
181.630873
 20
129.876125
 30
0.0
  0
LWPOLYLINE
  5
172
100
AcDbEntity
  8
0
 62
1
100
AcDbPolyline
 90
2
 70
0
 10
186.541582
 20
138.381722
 30
0.0
 10
185.186904
 20
136.035351
 30
0.0
  0
LWPOLYLINE
  5
173
100
AcDbEntity
  8
0
 62
5
100
AcDbPolyline
 90
4
 70
0
 10
181.630913
 20
159.205663
 30
0.0
 10
186.110539
 20
157.881392
 30
0.0
 10
191.190539
 20
149.082572
 30
0.0
 10
190.097579
 20
144.540968
 30
0.0
  0
LWPOLYLINE
  5
174
100
AcDbEntity
  8
0
 62
5
100
AcDbPolyline
 90
4
 70
0
 10
183.561637
 20
154.845547
 30
0.0
 10
184.633540
 20
154.682293
 30
0.0
 10
187.681540
 20
149.403002
 30
0.0
 10
187.286971
 20
148.393081
 30
0.0
  0
LWPOLYLINE
  5
175
100
AcDbEntity
  8
0
 62
1
100
AcDbPolyline
 90
2
 70
0
 10
181.630913
 20
159.205663
 30
0.0
 10
184.001579
 20
155.099547
 30
0.0
  0
LWPOLYLINE
  5
176
100
AcDbEntity
  8
0
 62
1
100
AcDbPolyline
 90
2
 70
0
 10
190.097579
 20
144.540968
 30
0.0
 10
187.726913
 20
148.647081
 30
0.0
  0
SPLINE
  5
177
100
AcDbEntity
  8
0
 62
5
100
AcDbSpline
 70
0
 71
3
 72
10
 73
6
 74
4
 40
0.000000
 40
0.000000
 40
0.000000
 40
0.000000
 40
1.046221
 40
1.927117
 40
2.310870
 40
2.310870
 40
2.310870
 40
2.310870
 10
186.647308
 20
133.823469
 30
0.0
 10
186.302409
 20
133.750365
 30
0.0
 10
185.667111
 20
133.615709
 30
0.0
 10
184.896748
 20
133.776614
 30
0.0
 10
184.499934
 20
133.916990
 30
0.0
 10
184.379523
 20
133.959587
 30
0.0
 11
186.647308
 21
133.823469
 31
0.0
 11
185.610506
 21
133.683393
 31
0.0
 11
184.743038
 21
133.836615
 31
0.0
 11
184.379523
 21
133.959587
 31
0.0
  0
SPLINE
  5
178
100
AcDbEntity
  8
0
 62
5
100
AcDbSpline
 70
0
 71
3
 72
10
 73
6
 74
4
 40
0.000000
 40
0.000000
 40
0.000000
 40
0.000000
 40
0.383750
 40
1.264641
 40
2.310858
 40
2.310858
 40
2.310858
 40
2.310858
 10
181.969543
 20
164.116330
 30
0.0
 10
182.095120
 20
164.139645
 30
0.0
 10
182.508956
 20
164.216481
 30
0.0
 10
183.256560
 20
164.462314
 30
0.0
 10
183.739413
 20
164.896577
 30
0.0
 10
184.001551
 20
165.132336
 30
0.0
 11
181.969543
 21
164.116330
 31
0.0
 11
182.345841
 21
164.191589
 31
0.0
 11
183.173696
 21
164.492628
 31
0.0
 11
184.001551
 21
165.132336
 31
0.0
  0
SPLINE
  5
179
100
AcDbEntity
  8
0
 62
5
100
AcDbSpline
 70
0
 71
3
 72
10
 73
6
 74
4
 40
0.000000
 40
0.000000
 40
0.000000
 40
0.000000
 40
1.754130
 40
3.597990
 40
5.352120
 40
5.352120
 40
5.352120
 40
5.352120
 10
184.001551
 20
165.132336
 30
0.0
 10
184.271141
 20
165.656833
 30
0.0
 10
184.824112
 20
166.732657
 30
0.0
 10
184.824112
 20
168.612036
 30
0.0
 10
184.271141
 20
169.687861
 30
0.0
 10
184.001551
 20
170.212358
 30
0.0
 11
184.001551
 21
165.132336
 31
0.0
 11
184.678888
 21
166.750417
 31
0.0
 11
184.678888
 21
168.594277
 31
0.0
 11
184.001551
 21
170.212358
 31
0.0
  0
LWPOLYLINE
  5
17a
100
AcDbEntity
  8
0
 62
5
100
AcDbPolyline
 90
4
 70
0
 10
181.630873
 20
159.205641
 30
0.0
 10
181.630873
 20
165.132336
 30
0.0
 10
181.969543
 20
165.132336
 30
0.0
 10
181.969543
 20
164.116330
 30
0.0
  0
LWPOLYLINE
  5
17b
100
AcDbEntity
  8
0
 62
5
100
AcDbPolyline
 90
4
 70
0
 10
181.969543
 20
171.228364
 30
0.0
 10
181.969543
 20
170.212358
 30
0.0
 10
181.630873
 20
170.212358
 30
0.0
 10
181.630873
 20
176.139053
 30
0.0
  0
LWPOLYLINE
  5
17c
100
AcDbEntity
  8
0
 62
1
100
AcDbPolyline
 90
2
 70
0
 10
181.630873
 20
166.317675
 30
0.0
 10
181.630873
 20
169.027019
 30
0.0
  0
LWPOLYLINE
  5
17d
100
AcDbEntity
  8
0
 62
5
100
AcDbPolyline
 90
4
 70
0
 10
164.697461
 20
176.139053
 30
0.0
 10
168.084144
 20
179.356400
 30
0.0
 10
178.244190
 20
179.356400
 30
0.0
 10
181.630873
 20
176.139053
 30
0.0
  0
LWPOLYLINE
  5
17e
100
AcDbEntity
  8
0
 62
5
100
AcDbPolyline
 90
4
 70
0
 10
169.438817
 20
175.631050
 30
0.0
 10
170.116153
 20
176.477722
 30
0.0
 10
176.212181
 20
176.477722
 30
0.0
 10
176.889517
 20
175.631050
 30
0.0
  0
LWPOLYLINE
  5
17f
100
AcDbEntity
  8
0
 62
1
100
AcDbPolyline
 90
2
 70
0
 10
164.697461
 20
176.139053
 30
0.0
 10
169.438817
 20
176.139053
 30
0.0
  0
LWPOLYLINE
  5
180
100
AcDbEntity
  8
0
 62
1
100
AcDbPolyline
 90
2
 70
0
 10
181.630873
 20
176.139053
 30
0.0
 10
176.889517
 20
176.139053
 30
0.0
  0
SPLINE
  5
181
100
AcDbEntity
  8
0
 62
5
100
AcDbSpline
 70
0
 71
3
 72
10
 73
6
 74
4
 40
0.000000
 40
0.000000
 40
0.000000
 40
0.000000
 40
1.046217
 40
1.927108
 40
2.310858
 40
2.310858
 40
2.310858
 40
2.310858
 10
184.001551
 20
170.212358
 30
0.0
 10
183.739413
 20
170.448117
 30
0.0
 10
183.256560
 20
170.882380
 30
0.0
 10
182.508956
 20
171.128212
 30
0.0
 10
182.095120
 20
171.205048
 30
0.0
 10
181.969543
 20
171.228364
 30
0.0
 11
184.001551
 21
170.212358
 31
0.0
 11
183.173696
 21
170.852066
 31
0.0
 11
182.345841
 21
171.153104
 31
0.0
 11
181.969543
 21
171.228364
 31
0.0
  0
SPLINE
  5
182
100
AcDbEntity
  8
0
 62
5
100
AcDbSpline
 70
0
 71
3
 72
10
 73
6
 74
4
 40
0.000000
 40
0.000000
 40
0.000000
 40
0.000000
 40
0.168285
 40
0.650180
 40
1.455492
 40
1.455492
 40
1.455492
 40
1.455492
 10
164.358791
 20
167.503013
 30
0.0
 10
164.307986
 20
167.526963
 30
0.0
 10
164.111695
 20
167.619495
 30
0.0
 10
163.735697
 20
167.940589
 30
0.0
 10
163.494001
 20
168.296407
 30
0.0
 10
163.342788
 20
168.519016
 30
0.0
 11
164.358791
 21
167.503013
 31
0.0
 11
164.208273
 21
167.578273
 31
0.0
 11
163.831976
 21
167.879311
 31
0.0
 11
163.342788
 21
168.519016
 31
0.0
  0
SPLINE
  5
183
100
AcDbEntity
  8
0
 62
5
100
AcDbSpline
 70
0
 71
3
 72
10
 73
6
 74
4
 40
0.000000
 40
0.000000
 40
0.000000
 40
0.000000
 40
1.568775
 40
3.234021
 40
4.770417
 40
4.770417
 40
4.770417
 40
4.770417
 10
163.342788
 20
168.519016
 30
0.0
 10
163.170860
 20
169.012972
 30
0.0
 10
162.816430
 20
170.031259
 30
0.0
 10
162.381725
 20
171.561590
 30
0.0
 10
162.115751
 20
172.595087
 30
0.0
 10
161.988116
 20
173.091039
 30
0.0
 11
163.342788
 21
168.519016
 31
0.0
 11
162.841057
 21
170.005395
 31
0.0
 11
162.376957
 21
171.604662
 31
0.0
 11
161.988116
 21
173.091039
 31
0.0
  0
LWPOLYLINE
  5
184
100
AcDbEntity
  8
0
 62
5
100
AcDbPolyline
 90
4
 70
0
 10
164.697461
 20
159.205641
 30
0.0
 10
164.697461
 20
168.519016
 30
0.0
 10
164.358791
 20
168.519016
 30
0.0
 10
164.358791
 20
167.503013
 30
0.0
  0
LWPOLYLINE
  5
185
100
AcDbEntity
  8
0
 62
5
100
AcDbPolyline
 90
4
 70
0
 10
164.358791
 20
174.615047
 30
0.0
 10
164.358791
 20
173.599042
 30
0.0
 10
164.697461
 20
173.599042
 30
0.0
 10
164.697461
 20
176.139053
 30
0.0
  0
LWPOLYLINE
  5
186
100
AcDbEntity
  8
0
 62
1
100
AcDbPolyline
 90
2
 70
0
 10
164.697461
 20
169.704355
 30
0.0
 10
164.697461
 20
172.413703
 30
0.0
  0
LWPOLYLINE
  5
187
100
AcDbEntity
  8
0
 62
5
100
AcDbPolyline
 90
5
 70
0
 10
156.230721
 20
173.870463
 30
0.0
 10
159.717063
 20
173.927994
 30
0.0
 10
163.770570
 20
164.536429
 30
0.0
 10
163.004113
 20
162.138604
 30
0.0
 10
164.697461
 20
159.205641
 30
0.0
  0
LWPOLYLINE
  5
188
100
AcDbEntity
  8
0
 62
5
100
AcDbPolyline
 90
4
 70
0
 10
156.468115
 20
172.443277
 30
0.0
 10
157.540026
 20
172.280020
 30
0.0
 10
160.588051
 20
167.000683
 30
0.0
 10
160.193482
 20
165.990754
 30
0.0
  0
LWPOLYLINE
  5
189
100
AcDbEntity
  8
0
 62
1
100
AcDbPolyline
 90
2
 70
0
 10
156.230721
 20
173.870463
 30
0.0
 10
156.908060
 20
172.697280
 30
0.0
  0
LWPOLYLINE
  5
18a
100
AcDbEntity
  8
0
 62
1
100
AcDbPolyline
 90
2
 70
0
 10
163.004113
 20
162.138604
 30
0.0
 10
160.633427
 20
166.244757
 30
0.0
  0
SPLINE
  5
18b
100
AcDbEntity
  8
0
 62
5
100
AcDbSpline
 70
0
 71
3
 72
10
 73
6
 74
4
 40
0.000000
 40
0.000000
 40
0.000000
 40
0.000000
 40
1.197290
 40
2.328498
 40
2.836655
 40
2.836655
 40
2.836655
 40
2.836655
 10
161.988116
 20
173.091039
 30
0.0
 10
162.282323
 20
173.363413
 30
0.0
 10
162.854499
 20
173.893127
 30
0.0
 10
163.703765
 20
174.327822
 30
0.0
 10
164.203796
 20
174.547083
 30
0.0
 10
164.358791
 20
174.615047
 30
0.0
 11
161.988116
 21
173.091039
 31
0.0
 11
162.903774
 21
173.862450
 31
0.0
 11
163.894691
 21
174.408083
 31
0.0
 11
164.358791
 21
174.615047
 31
0.0
  0
SPLINE
  5
18c
100
AcDbEntity
  8
0
 62
5
100
AcDbSpline
 70
0
 71
3
 72
10
 73
6
 74
4
 40
0.000000
 40
0.000000
 40
0.000000
 40
0.000000
 40
0.383750
 40
1.264641
 40
2.310858
 40
2.310858
 40
2.310858
 40
2.310858
 10
144.208032
 20
174.209153
 30
0.0
 10
144.231347
 20
174.334729
 30
0.0
 10
144.308183
 20
174.748566
 30
0.0
 10
144.554016
 20
175.496169
 30
0.0
 10
144.988278
 20
175.979023
 30
0.0
 10
145.224037
 20
176.241161
 30
0.0
 11
144.208032
 21
174.209153
 31
0.0
 11
144.283291
 21
174.585450
 31
0.0
 11
144.584329
 21
175.413306
 31
0.0
 11
145.224037
 21
176.241161
 31
0.0
  0
SPLINE
  5
18d
100
AcDbEntity
  8
0
 62
5
100
AcDbSpline
 70
0
 71
3
 72
10
 73
6
 74
4
 40
0.000000
 40
0.000000
 40
0.000000
 40
0.000000
 40
1.754130
 40
3.597990
 40
5.352120
 40
5.352120
 40
5.352120
 40
5.352120
 10
145.224037
 20
176.241161
 30
0.0
 10
145.748534
 20
176.510751
 30
0.0
 10
146.824359
 20
177.063722
 30
0.0
 10
148.703738
 20
177.063722
 30
0.0
 10
149.779562
 20
176.510751
 30
0.0
 10
150.304060
 20
176.241161
 30
0.0
 11
145.224037
 21
176.241161
 31
0.0
 11
146.842118
 21
176.918498
 31
0.0
 11
148.685979
 21
176.918498
 31
0.0
 11
150.304060
 21
176.241161
 31
0.0
  0
LWPOLYLINE
  5
18e
100
AcDbEntity
  8
0
 62
5
100
AcDbPolyline
 90
4
 70
0
 10
139.297342
 20
173.870483
 30
0.0
 10
145.224037
 20
173.870483
 30
0.0
 10
145.224037
 20
174.209153
 30
0.0
 10
144.208032
 20
174.209153
 30
0.0
  0
LWPOLYLINE
  5
18f
100
AcDbEntity
  8
0
 62
5
100
AcDbPolyline
 90
4
 70
0
 10
151.320065
 20
174.209153
 30
0.0
 10
150.304060
 20
174.209153
 30
0.0
 10
150.304060
 20
173.870483
 30
0.0
 10
156.230755
 20
173.870483
 30
0.0
  0
LWPOLYLINE
  5
190
100
AcDbEntity
  8
0
 62
1
100
AcDbPolyline
 90
2
 70
0
 10
146.409376
 20
173.870483
 30
0.0
 10
149.118721
 20
173.870483
 30
0.0
  0
LWPOLYLINE
  5
191
100
AcDbEntity
  8
0
 62
5
100
AcDbPolyline
 90
5
 70
0
 10
139.297342
 20
173.870483
 30
0.0
 10
135.811000
 20
173.928014
 30
0.0
 10
131.757493
 20
164.536449
 30
0.0
 10
132.523950
 20
162.138624
 30
0.0
 10
130.830602
 20
159.205660
 30
0.0
  0
LWPOLYLINE
  5
192
100
AcDbEntity
  8
0
 62
5
100
AcDbPolyline
 90
4
 70
0
 10
139.059948
 20
172.443297
 30
0.0
 10
137.988037
 20
172.280039
 30
0.0
 10
134.940012
 20
167.000703
 30
0.0
 10
135.334581
 20
165.990774
 30
0.0
  0
LWPOLYLINE
  5
193
100
AcDbEntity
  8
0
 62
1
100
AcDbPolyline
 90
2
 70
0
 10
139.297342
 20
173.870483
 30
0.0
 10
138.620003
 20
172.697299
 30
0.0
  0
LWPOLYLINE
  5
194
100
AcDbEntity
  8
0
 62
1
100
AcDbPolyline
 90
2
 70
0
 10
132.523950
 20
162.138624
 30
0.0
 10
134.894636
 20
166.244777
 30
0.0
  0
SPLINE
  5
195
100
AcDbEntity
  8
0
 62
5
100
AcDbSpline
 70
0
 71
3
 72
10
 73
6
 74
4
 40
0.000000
 40
0.000000
 40
0.000000
 40
0.000000
 40
1.046217
 40
1.927108
 40
2.310858
 40
2.310858
 40
2.310858
 40
2.310858
 10
150.304060
 20
176.241161
 30
0.0
 10
150.539819
 20
175.979023
 30
0.0
 10
150.974081
 20
175.496169
 30
0.0
 10
151.219914
 20
174.748566
 30
0.0
 10
151.296750
 20
174.334729
 30
0.0
 10
151.320065
 20
174.209153
 30
0.0
 11
150.304060
 21
176.241161
 31
0.0
 11
150.943767
 21
175.413306
 31
0.0
 11
151.244806
 21
174.585450
 31
0.0
 11
151.320065
 21
174.209153
 31
0.0
  0
SPLINE
  5
196
100
AcDbEntity
  8
0
 62
5
100
AcDbSpline
 70
0
 71
3
 72
10
 73
6
 74
4
 40
0.000000
 40
0.000000
 40
0.000000
 40
0.000000
 40
0.168285
 40
0.650180
 40
1.455492
 40
1.455492
 40
1.455492
 40
1.455492
 10
131.169303
 20
167.503013
 30
0.0
 10
131.220108
 20
167.526963
 30
0.0
 10
131.416399
 20
167.619495
 30
0.0
 10
131.792397
 20
167.940589
 30
0.0
 10
132.034094
 20
168.296407
 30
0.0
 10
132.185306
 20
168.519016
 30
0.0
 11
131.169303
 21
167.503013
 31
0.0
 11
131.319821
 21
167.578273
 31
0.0
 11
131.696118
 21
167.879311
 31
0.0
 11
132.185306
 21
168.519016
 31
0.0
  0
SPLINE
  5
197
100
AcDbEntity
  8
0
 62
5
100
AcDbSpline
 70
0
 71
3
 72
10
 73
6
 74
4
 40
0.000000
 40
0.000000
 40
0.000000
 40
0.000000
 40
1.568775
 40
3.234021
 40
4.770417
 40
4.770417
 40
4.770417
 40
4.770417
 10
132.185306
 20
168.519016
 30
0.0
 10
132.357234
 20
169.012972
 30
0.0
 10
132.711664
 20
170.031259
 30
0.0
 10
133.146369
 20
171.561590
 30
0.0
 10
133.412343
 20
172.595087
 30
0.0
 10
133.539978
 20
173.091039
 30
0.0
 11
132.185306
 21
168.519016
 31
0.0
 11
132.687037
 21
170.005395
 31
0.0
 11
133.151138
 21
171.604662
 31
0.0
 11
133.539978
 21
173.091039
 31
0.0
  0
LWPOLYLINE
  5
198
100
AcDbEntity
  8
0
 62
5
100
AcDbPolyline
 90
4
 70
0
 10
130.830633
 20
159.205641
 30
0.0
 10
130.830633
 20
168.519016
 30
0.0
 10
131.169303
 20
168.519016
 30
0.0
 10
131.169303
 20
167.503013
 30
0.0
  0
LWPOLYLINE
  5
199
100
AcDbEntity
  8
0
 62
5
100
AcDbPolyline
 90
4
 70
0
 10
131.169303
 20
174.615047
 30
0.0
 10
131.169303
 20
173.599042
 30
0.0
 10
130.830633
 20
173.599042
 30
0.0
 10
130.830633
 20
176.139053
 30
0.0
  0
LWPOLYLINE
  5
19a
100
AcDbEntity
  8
0
 62
1
100
AcDbPolyline
 90
2
 70
0
 10
130.830633
 20
169.704355
 30
0.0
 10
130.830633
 20
172.413703
 30
0.0
  0
LWPOLYLINE
  5
19b
100
AcDbEntity
  8
0
 62
5
100
AcDbPolyline
 90
4
 70
0
 10
113.897221
 20
176.139053
 30
0.0
 10
117.283905
 20
179.356400
 30
0.0
 10
127.443950
 20
179.356400
 30
0.0
 10
130.830633
 20
176.139053
 30
0.0
  0
LWPOLYLINE
  5
19c
100
AcDbEntity
  8
0
 62
5
100
AcDbPolyline
 90
4
 70
0
 10
118.638577
 20
175.631050
 30
0.0
 10
119.315913
 20
176.477722
 30
0.0
 10
125.411941
 20
176.477722
 30
0.0
 10
126.089277
 20
175.631050
 30
0.0
  0
LWPOLYLINE
  5
19d
100
AcDbEntity
  8
0
 62
1
100
AcDbPolyline
 90
2
 70
0
 10
113.897221
 20
176.139053
 30
0.0
 10
118.638577
 20
176.139053
 30
0.0
  0
LWPOLYLINE
  5
19e
100
AcDbEntity
  8
0
 62
1
100
AcDbPolyline
 90
2
 70
0
 10
130.830633
 20
176.139053
 30
0.0
 10
126.089277
 20
176.139053
 30
0.0
  0
SPLINE
  5
19f
100
AcDbEntity
  8
0
 62
5
100
AcDbSpline
 70
0
 71
3
 72
10
 73
6
 74
4
 40
0.000000
 40
0.000000
 40
0.000000
 40
0.000000
 40
1.197290
 40
2.328498
 40
2.836655
 40
2.836655
 40
2.836655
 40
2.836655
 10
133.539978
 20
173.091039
 30
0.0
 10
133.245771
 20
173.363413
 30
0.0
 10
132.673595
 20
173.893127
 30
0.0
 10
131.824329
 20
174.327822
 30
0.0
 10
131.324298
 20
174.547083
 30
0.0
 10
131.169303
 20
174.615047
 30
0.0
 11
133.539978
 21
173.091039
 31
0.0
 11
132.624320
 21
173.862450
 31
0.0
 11
131.633403
 21
174.408083
 31
0.0
 11
131.169303
 21
174.615047
 31
0.0
  0
SPLINE
  5
1a0
100
AcDbEntity
  8
0
 62
5
100
AcDbSpline
 70
0
 71
3
 72
10
 73
6
 74
4
 40
0.000000
 40
0.000000
 40
0.000000
 40
0.000000
 40
0.168285
 40
0.650180
 40
1.455492
 40
1.455492
 40
1.455492
 40
1.455492
 10
113.558551
 20
167.503013
 30
0.0
 10
113.507746
 20
167.526963
 30
0.0
 10
113.311456
 20
167.619495
 30
0.0
 10
112.935457
 20
167.940589
 30
0.0
 10
112.693761
 20
168.296407
 30
0.0
 10
112.542549
 20
168.519016
 30
0.0
 11
113.558551
 21
167.503013
 31
0.0
 11
113.408033
 21
167.578273
 31
0.0
 11
113.031736
 21
167.879311
 31
0.0
 11
112.542549
 21
168.519016
 31
0.0
  0
SPLINE
  5
1a1
100
AcDbEntity
  8
0
 62
5
100
AcDbSpline
 70
0
 71
3
 72
10
 73
6
 74
4
 40
0.000000
 40
0.000000
 40
0.000000
 40
0.000000
 40
1.568775
 40
3.234021
 40
4.770417
 40
4.770417
 40
4.770417
 40
4.770417
 10
112.542549
 20
168.519016
 30
0.0
 10
112.370620
 20
169.012972
 30
0.0
 10
112.016190
 20
170.031259
 30
0.0
 10
111.581485
 20
171.561590
 30
0.0
 10
111.315511
 20
172.595087
 30
0.0
 10
111.187876
 20
173.091039
 30
0.0
 11
112.542549
 21
168.519016
 31
0.0
 11
112.040817
 21
170.005395
 31
0.0
 11
111.576717
 21
171.604662
 31
0.0
 11
111.187876
 21
173.091039
 31
0.0
  0
LWPOLYLINE
  5
1a2
100
AcDbEntity
  8
0
 62
5
100
AcDbPolyline
 90
4
 70
0
 10
113.897221
 20
159.205641
 30
0.0
 10
113.897221
 20
168.519016
 30
0.0
 10
113.558551
 20
168.519016
 30
0.0
 10
113.558551
 20
167.503013
 30
0.0
  0
LWPOLYLINE
  5
1a3
100
AcDbEntity
  8
0
 62
5
100
AcDbPolyline
 90
4
 70
0
 10
113.558551
 20
174.615047
 30
0.0
 10
113.558551
 20
173.599042
 30
0.0
 10
113.897221
 20
173.599042
 30
0.0
 10
113.897221
 20
176.139053
 30
0.0
  0
LWPOLYLINE
  5
1a4
100
AcDbEntity
  8
0
 62
1
100
AcDbPolyline
 90
2
 70
0
 10
113.897221
 20
169.704355
 30
0.0
 10
113.897221
 20
172.413703
 30
0.0
  0
LWPOLYLINE
  5
1a5
100
AcDbEntity
  8
0
 62
5
100
AcDbPolyline
 90
5
 70
0
 10
105.430481
 20
173.870463
 30
0.0
 10
108.916823
 20
173.927994
 30
0.0
 10
112.970330
 20
164.536429
 30
0.0
 10
112.203873
 20
162.138604
 30
0.0
 10
113.897221
 20
159.205641
 30
0.0
  0
LWPOLYLINE
  5
1a6
100
AcDbEntity
  8
0
 62
5
100
AcDbPolyline
 90
4
 70
0
 10
105.667875
 20
172.443277
 30
0.0
 10
106.739786
 20
172.280020
 30
0.0
 10
109.787811
 20
167.000683
 30
0.0
 10
109.393242
 20
165.990754
 30
0.0
  0
LWPOLYLINE
  5
1a7
100
AcDbEntity
  8
0
 62
1
100
AcDbPolyline
 90
2
 70
0
 10
105.430481
 20
173.870463
 30
0.0
 10
106.107820
 20
172.697280
 30
0.0
  0
LWPOLYLINE
  5
1a8
100
AcDbEntity
  8
0
 62
1
100
AcDbPolyline
 90
2
 70
0
 10
112.203873
 20
162.138604
 30
0.0
 10
109.833187
 20
166.244757
 30
0.0
  0
SPLINE
  5
1a9
100
AcDbEntity
  8
0
 62
5
100
AcDbSpline
 70
0
 71
3
 72
10
 73
6
 74
4
 40
0.000000
 40
0.000000
 40
0.000000
 40
0.000000
 40
1.197290
 40
2.328498
 40
2.836655
 40
2.836655
 40
2.836655
 40
2.836655
 10
111.187876
 20
173.091039
 30
0.0
 10
111.482083
 20
173.363413
 30
0.0
 10
112.054260
 20
173.893127
 30
0.0
 10
112.903525
 20
174.327822
 30
0.0
 10
113.403556
 20
174.547083
 30
0.0
 10
113.558551
 20
174.615047
 30
0.0
 11
111.187876
 21
173.091039
 31
0.0
 11
112.103534
 21
173.862450
 31
0.0
 11
113.094451
 21
174.408083
 31
0.0
 11
113.558551
 21
174.615047
 31
0.0
  0
SPLINE
  5
1aa
100
AcDbEntity
  8
0
 62
5
100
AcDbSpline
 70
0
 71
3
 72
10
 73
6
 74
4
 40
0.000000
 40
0.000000
 40
0.000000
 40
0.000000
 40
0.383750
 40
1.264641
 40
2.310858
 40
2.310858
 40
2.310858
 40
2.310858
 10
108.179153
 20
177.953928
 30
0.0
 10
108.299564
 20
177.911332
 30
0.0
 10
108.696375
 20
177.770956
 30
0.0
 10
109.466735
 20
177.610051
 30
0.0
 10
110.102029
 20
177.744706
 30
0.0
 10
110.446927
 20
177.817810
 30
0.0
 11
108.179153
 21
177.953928
 31
0.0
 11
108.542666
 21
177.830956
 31
0.0
 11
109.410130
 21
177.677735
 31
0.0
 11
110.446927
 21
177.817810
 31
0.0
  0
SPLINE
  5
1ab
100
AcDbEntity
  8
0
 62
5
100
AcDbSpline
 70
0
 71
3
 72
10
 73
6
 74
4
 40
0.000000
 40
0.000000
 40
0.000000
 40
0.000000
 40
1.754131
 40
3.597990
 40
5.352120
 40
5.352120
 40
5.352120
 40
5.352120
 10
110.446927
 20
177.817810
 30
0.0
 10
110.942648
 20
178.137243
 30
0.0
 10
111.959446
 20
178.792450
 30
0.0
 10
112.899135
 20
180.420040
 30
0.0
 10
112.958161
 20
181.628216
 30
0.0
 10
112.986939
 20
182.217239
 30
0.0
 11
110.446927
 21
177.817810
 31
0.0
 11
111.842559
 21
178.880442
 31
0.0
 11
112.764488
 21
180.477271
 31
0.0
 11
112.986939
 21
182.217239
 31
0.0
  0
LWPOLYLINE
  5
1ac
100
AcDbEntity
  8
0
 62
5
100
AcDbPolyline
 90
4
 70
0
 10
105.430515
 20
173.870483
 30
0.0
 10
108.393862
 20
179.003149
 30
0.0
 10
108.687156
 20
178.833815
 30
0.0
 10
108.179153
 20
177.953928
 30
0.0
  0
LWPOLYLINE
  5
1ad
100
AcDbEntity
  8
0
 62
5
100
AcDbPolyline
 90
4
 70
0
 10
111.735170
 20
184.113129
 30
0.0
 10
111.227167
 20
183.233242
 30
0.0
 10
110.933871
 20
183.402578
 30
0.0
 10
113.897218
 20
188.535244
 30
0.0
  0
LWPOLYLINE
  5
1ae
100
AcDbEntity
  8
0
 62
1
100
AcDbPolyline
 90
2
 70
0
 10
108.986529
 20
180.029681
 30
0.0
 10
110.341204
 20
182.376043
 30
0.0
  0
LWPOLYLINE
  5
1af
100
AcDbEntity
  8
0
 62
5
100
AcDbPolyline
 90
4
 70
0
 10
105.430518
 20
203.200004
 30
0.0
 10
109.910163
 20
201.875724
 30
0.0
 10
114.990186
 20
193.076871
 30
0.0
 10
113.897221
 20
188.535244
 30
0.0
  0
LWPOLYLINE
  5
1b0
100
AcDbEntity
  8
0
 62
5
100
AcDbPolyline
 90
4
 70
0
 10
107.361251
 20
198.839871
 30
0.0
 10
108.433159
 20
198.676614
 30
0.0
 10
111.481170
 20
193.397300
 30
0.0
 10
111.086601
 20
192.387377
 30
0.0
  0
LWPOLYLINE
  5
1b1
100
AcDbEntity
  8
0
 62
1
100
AcDbPolyline
 90
2
 70
0
 10
105.430518
 20
203.200004
 30
0.0
 10
107.801196
 20
199.093871
 30
0.0
  0
LWPOLYLINE
  5
1b2
100
AcDbEntity
  8
0
 62
1
100
AcDbPolyline
 90
2
 70
0
 10
113.897221
 20
188.535244
 30
0.0
 10
111.526543
 20
192.641377
 30
0.0
  0
SPLINE
  5
1b3
100
AcDbEntity
  8
0
 62
5
100
AcDbSpline
 70
0
 71
3
 72
10
 73
6
 74
4
 40
0.000000
 40
0.000000
 40
0.000000
 40
0.000000
 40
1.046216
 40
1.927107
 40
2.310857
 40
2.310857
 40
2.310857
 40
2.310857
 10
112.986939
 20
182.217239
 30
0.0
 10
112.877799
 20
182.552481
 30
0.0
 10
112.676767
 20
183.169989
 30
0.0
 10
112.152240
 20
183.756688
 30
0.0
 10
111.832265
 20
184.030149
 30
0.0
 10
111.735170
 20
184.113129
 30
0.0
 11
112.986939
 21
182.217239
 31
0.0
 11
112.589849
 21
183.185169
 31
0.0
 11
112.023424
 21
183.859803
 31
0.0
 11
111.735170
 21
184.113129
 31
0.0
  0
SPLINE
  5
1b4
100
AcDbEntity
  8
0
 62
5
100
AcDbSpline
 70
0
 71
3
 72
10
 73
6
 74
4
 40
0.000000
 40
0.000000
 40
0.000000
 40
0.000000
 40
0.383750
 40
1.264641
 40
2.310858
 40
2.310858
 40
2.310858
 40
2.310858
 10
93.407792
 20
203.538671
 30
0.0
 10
93.431107
 20
203.664248
 30
0.0
 10
93.507943
 20
204.078084
 30
0.0
 10
93.753776
 20
204.825688
 30
0.0
 10
94.188038
 20
205.308541
 30
0.0
 10
94.423797
 20
205.570679
 30
0.0
 11
93.407792
 21
203.538671
 31
0.0
 11
93.483051
 21
203.914969
 31
0.0
 11
93.784090
 21
204.742824
 31
0.0
 11
94.423797
 21
205.570679
 31
0.0
  0
SPLINE
  5
1b5
100
AcDbEntity
  8
0
 62
5
100
AcDbSpline
 70
0
 71
3
 72
10
 73
6
 74
4
 40
0.000000
 40
0.000000
 40
0.000000
 40
0.000000
 40
1.754130
 40
3.597990
 40
5.352120
 40
5.352120
 40
5.352120
 40
5.352120
 10
94.423797
 20
205.570679
 30
0.0
 10
94.948295
 20
205.840269
 30
0.0
 10
96.024119
 20
206.393240
 30
0.0
 10
97.903498
 20
206.393240
 30
0.0
 10
98.979323
 20
205.840269
 30
0.0
 10
99.503820
 20
205.570679
 30
0.0
 11
94.423797
 21
205.570679
 31
0.0
 11
96.041878
 21
206.248016
 31
0.0
 11
97.885739
 21
206.248016
 31
0.0
 11
99.503820
 21
205.570679
 31
0.0
  0
LWPOLYLINE
  5
1b6
100
AcDbEntity
  8
0
 62
5
100
AcDbPolyline
 90
4
 70
0
 10
88.497102
 20
203.200001
 30
0.0
 10
94.423797
 20
203.200001
 30
0.0
 10
94.423797
 20
203.538671
 30
0.0
 10
93.407792
 20
203.538671
 30
0.0
  0
LWPOLYLINE
  5
1b7
100
AcDbEntity
  8
0
 62
5
100
AcDbPolyline
 90
4
 70
0
 10
100.519825
 20
203.538671
 30
0.0
 10
99.503820
 20
203.538671
 30
0.0
 10
99.503820
 20
203.200001
 30
0.0
 10
105.430515
 20
203.200001
 30
0.0
  0
LWPOLYLINE
  5
1b8
100
AcDbEntity
  8
0
 62
1
100
AcDbPolyline
 90
2
 70
0
 10
95.609136
 20
203.200001
 30
0.0
 10
98.318481
 20
203.200001
 30
0.0
  0
LWPOLYLINE
  5
1b9
100
AcDbEntity
  8
0
 62
5
100
AcDbPolyline
 90
4
 70
0
 10
80.030399
 20
188.535241
 30
0.0
 10
78.937434
 20
193.076865
 30
0.0
 10
84.017457
 20
201.875722
 30
0.0
 10
88.497102
 20
203.200001
 30
0.0
  0
LWPOLYLINE
  5
1ba
100
AcDbEntity
  8
0
 62
5
100
AcDbPolyline
 90
4
 70
0
 10
82.841019
 20
192.387374
 30
0.0
 10
82.446450
 20
193.397297
 30
0.0
 10
85.494461
 20
198.676611
 30
0.0
 10
86.566369
 20
198.839868
 30
0.0
  0
LWPOLYLINE
  5
1bb
100
AcDbEntity
  8
0
 62
1
100
AcDbPolyline
 90
2
 70
0
 10
80.030399
 20
188.535241
 30
0.0
 10
82.401077
 20
192.641374
 30
0.0
  0
LWPOLYLINE
  5
1bc
100
AcDbEntity
  8
0
 62
1
100
AcDbPolyline
 90
2
 70
0
 10
88.497102
 20
203.200001
 30
0.0
 10
86.126424
 20
199.093868
 30
0.0
  0
SPLINE
  5
1bd
100
AcDbEntity
  8
0
 62
5
100
AcDbSpline
 70
0
 71
3
 72
10
 73
6
 74
4
 40
0.000000
 40
0.000000
 40
0.000000
 40
0.000000
 40
1.046217
 40
1.927108
 40
2.310858
 40
2.310858
 40
2.310858
 40
2.310858
 10
99.503820
 20
205.570679
 30
0.0
 10
99.739579
 20
205.308541
 30
0.0
 10
100.173841
 20
204.825688
 30
0.0
 10
100.419674
 20
204.078084
 30
0.0
 10
100.496510
 20
203.664248
 30
0.0
 10
100.519825
 20
203.538671
 30
0.0
 11
99.503820
 21
205.570679
 31
0.0
 11
100.143528
 21
204.742824
 31
0.0
 11
100.444566
 21
203.914969
 31
0.0
 11
100.519825
 21
203.538671
 31
0.0
  0
SPLINE
  5
1be
100
AcDbEntity
  8
0
 62
5
100
AcDbSpline
 70
0
 71
3
 72
10
 73
6
 74
4
 40
0.000000
 40
0.000000
 40
0.000000
 40
0.000000
 40
0.383750
 40
1.264641
 40
2.310858
 40
2.310858
 40
2.310858
 40
2.310858
 10
85.748461
 20
177.953928
 30
0.0
 10
85.628050
 20
177.911332
 30
0.0
 10
85.231240
 20
177.770956
 30
0.0
 10
84.460880
 20
177.610051
 30
0.0
 10
83.825585
 20
177.744706
 30
0.0
 10
83.480687
 20
177.817810
 30
0.0
 11
85.748461
 21
177.953928
 31
0.0
 11
85.384948
 21
177.830956
 31
0.0
 11
84.517485
 21
177.677735
 31
0.0
 11
83.480687
 21
177.817810
 31
0.0
  0
SPLINE
  5
1bf
100
AcDbEntity
  8
0
 62
5
100
AcDbSpline
 70
0
 71
3
 72
10
 73
6
 74
4
 40
0.000000
 40
0.000000
 40
0.000000
 40
0.000000
 40
1.754131
 40
3.597990
 40
5.352120
 40
5.352120
 40
5.352120
 40
5.352120
 10
83.480687
 20
177.817810
 30
0.0
 10
82.984967
 20
178.137243
 30
0.0
 10
81.968168
 20
178.792450
 30
0.0
 10
81.028479
 20
180.420040
 30
0.0
 10
80.969453
 20
181.628216
 30
0.0
 10
80.940676
 20
182.217239
 30
0.0
 11
83.480687
 21
177.817810
 31
0.0
 11
82.085056
 21
178.880442
 31
0.0
 11
81.163126
 21
180.477271
 31
0.0
 11
80.940676
 21
182.217239
 31
0.0
  0
LWPOLYLINE
  5
1c0
100
AcDbEntity
  8
0
 62
5
100
AcDbPolyline
 90
4
 70
0
 10
88.497100
 20
173.870483
 30
0.0
 10
85.533752
 20
179.003149
 30
0.0
 10
85.240458
 20
178.833815
 30
0.0
 10
85.748461
 20
177.953928
 30
0.0
  0
LWPOLYLINE
  5
1c1
100
AcDbEntity
  8
0
 62
5
100
AcDbPolyline
 90
4
 70
0
 10
82.192444
 20
184.113129
 30
0.0
 10
82.700447
 20
183.233242
 30
0.0
 10
82.993744
 20
183.402578
 30
0.0
 10
80.030396
 20
188.535244
 30
0.0
  0
LWPOLYLINE
  5
1c2
100
AcDbEntity
  8
0
 62
1
100
AcDbPolyline
 90
2
 70
0
 10
84.941085
 20
180.029681
 30
0.0
 10
83.586410
 20
182.376043
 30
0.0
  0
LWPOLYLINE
  5
1c3
100
AcDbEntity
  8
0
 62
5
100
AcDbPolyline
 90
5
 70
0
 10
88.497102
 20
173.870483
 30
0.0
 10
85.010760
 20
173.928014
 30
0.0
 10
80.957253
 20
164.536449
 30
0.0
 10
81.723710
 20
162.138624
 30
0.0
 10
80.030362
 20
159.205660
 30
0.0
  0
LWPOLYLINE
  5
1c4
100
AcDbEntity
  8
0
 62
5
100
AcDbPolyline
 90
4
 70
0
 10
88.259708
 20
172.443297
 30
0.0
 10
87.187797
 20
172.280039
 30
0.0
 10
84.139772
 20
167.000703
 30
0.0
 10
84.534341
 20
165.990774
 30
0.0
  0
LWPOLYLINE
  5
1c5
100
AcDbEntity
  8
0
 62
1
100
AcDbPolyline
 90
2
 70
0
 10
88.497102
 20
173.870483
 30
0.0
 10
87.819763
 20
172.697299
 30
0.0
  0
LWPOLYLINE
  5
1c6
100
AcDbEntity
  8
0
 62
1
100
AcDbPolyline
 90
2
 70
0
 10
81.723710
 20
162.138624
 30
0.0
 10
84.094396
 20
166.244777
 30
0.0
  0
SPLINE
  5
1c7
100
AcDbEntity
  8
0
 62
5
100
AcDbSpline
 70
0
 71
3
 72
10
 73
6
 74
4
 40
0.000000
 40
0.000000
 40
0.000000
 40
0.000000
 40
1.046216
 40
1.927107
 40
2.310857
 40
2.310857
 40
2.310857
 40
2.310857
 10
80.940676
 20
182.217239
 30
0.0
 10
81.049815
 20
182.552481
 30
0.0
 10
81.250847
 20
183.169989
 30
0.0
 10
81.775374
 20
183.756688
 30
0.0
 10
82.095349
 20
184.030149
 30
0.0
 10
82.192444
 20
184.113129
 30
0.0
 11
80.940676
 21
182.217239
 31
0.0
 11
81.337766
 21
183.185169
 31
0.0
 11
81.904190
 21
183.859803
 31
0.0
 11
82.192444
 21
184.113129
 31
0.0
  0
SPLINE
  5
1c8
100
AcDbEntity
  8
0
 62
5
100
AcDbSpline
 70
0
 71
3
 72
10
 73
6
 74
4
 40
0.000000
 40
0.000000
 40
0.000000
 40
0.000000
 40
0.168285
 40
0.650180
 40
1.455492
 40
1.455492
 40
1.455492
 40
1.455492
 10
80.369066
 20
167.503013
 30
0.0
 10
80.419871
 20
167.526963
 30
0.0
 10
80.616162
 20
167.619495
 30
0.0
 10
80.992160
 20
167.940589
 30
0.0
 10
81.233856
 20
168.296407
 30
0.0
 10
81.385069
 20
168.519016
 30
0.0
 11
80.369066
 21
167.503013
 31
0.0
 11
80.519584
 21
167.578273
 31
0.0
 11
80.895881
 21
167.879311
 31
0.0
 11
81.385069
 21
168.519016
 31
0.0
  0
SPLINE
  5
1c9
100
AcDbEntity
  8
0
 62
5
100
AcDbSpline
 70
0
 71
3
 72
10
 73
6
 74
4
 40
0.000000
 40
0.000000
 40
0.000000
 40
0.000000
 40
1.568775
 40
3.234021
 40
4.770417
 40
4.770417
 40
4.770417
 40
4.770417
 10
81.385069
 20
168.519016
 30
0.0
 10
81.556997
 20
169.012972
 30
0.0
 10
81.911427
 20
170.031259
 30
0.0
 10
82.346132
 20
171.561590
 30
0.0
 10
82.612106
 20
172.595087
 30
0.0
 10
82.739741
 20
173.091039
 30
0.0
 11
81.385069
 21
168.519016
 31
0.0
 11
81.886800
 21
170.005395
 31
0.0
 11
82.350900
 21
171.604662
 31
0.0
 11
82.739741
 21
173.091039
 31
0.0
  0
LWPOLYLINE
  5
1ca
100
AcDbEntity
  8
0
 62
5
100
AcDbPolyline
 90
4
 70
0
 10
80.030396
 20
159.205641
 30
0.0
 10
80.030396
 20
168.519016
 30
0.0
 10
80.369066
 20
168.519016
 30
0.0
 10
80.369066
 20
167.503013
 30
0.0
  0
LWPOLYLINE
  5
1cb
100
AcDbEntity
  8
0
 62
5
100
AcDbPolyline
 90
4
 70
0
 10
80.369066
 20
174.615047
 30
0.0
 10
80.369066
 20
173.599042
 30
0.0
 10
80.030396
 20
173.599042
 30
0.0
 10
80.030396
 20
176.139053
 30
0.0
  0
LWPOLYLINE
  5
1cc
100
AcDbEntity
  8
0
 62
1
100
AcDbPolyline
 90
2
 70
0
 10
80.030396
 20
169.704355
 30
0.0
 10
80.030396
 20
172.413703
 30
0.0
  0
LWPOLYLINE
  5
1cd
100
AcDbEntity
  8
0
 62
5
100
AcDbPolyline
 90
4
 70
0
 10
63.096984
 20
176.139053
 30
0.0
 10
66.483667
 20
179.356400
 30
0.0
 10
76.643713
 20
179.356400
 30
0.0
 10
80.030396
 20
176.139053
 30
0.0
  0
LWPOLYLINE
  5
1ce
100
AcDbEntity
  8
0
 62
5
100
AcDbPolyline
 90
4
 70
0
 10
67.838340
 20
175.631050
 30
0.0
 10
68.515676
 20
176.477722
 30
0.0
 10
74.611704
 20
176.477722
 30
0.0
 10
75.289040
 20
175.631050
 30
0.0
  0
LWPOLYLINE
  5
1cf
100
AcDbEntity
  8
0
 62
1
100
AcDbPolyline
 90
2
 70
0
 10
63.096984
 20
176.139053
 30
0.0
 10
67.838340
 20
176.139053
 30
0.0
  0
LWPOLYLINE
  5
1d0
100
AcDbEntity
  8
0
 62
1
100
AcDbPolyline
 90
2
 70
0
 10
80.030396
 20
176.139053
 30
0.0
 10
75.289040
 20
176.139053
 30
0.0
  0
SPLINE
  5
1d1
100
AcDbEntity
  8
0
 62
5
100
AcDbSpline
 70
0
 71
3
 72
10
 73
6
 74
4
 40
0.000000
 40
0.000000
 40
0.000000
 40
0.000000
 40
1.197290
 40
2.328498
 40
2.836655
 40
2.836655
 40
2.836655
 40
2.836655
 10
82.739741
 20
173.091039
 30
0.0
 10
82.445534
 20
173.363413
 30
0.0
 10
81.873358
 20
173.893127
 30
0.0
 10
81.024092
 20
174.327822
 30
0.0
 10
80.524061
 20
174.547083
 30
0.0
 10
80.369066
 20
174.615047
 30
0.0
 11
82.739741
 21
173.091039
 31
0.0
 11
81.824083
 21
173.862450
 31
0.0
 11
80.833166
 21
174.408083
 31
0.0
 11
80.369066
 21
174.615047
 31
0.0
  0
SPLINE
  5
1d2
100
AcDbEntity
  8
0
 62
5
100
AcDbSpline
 70
0
 71
3
 72
10
 73
6
 74
4
 40
0.000000
 40
0.000000
 40
0.000000
 40
0.000000
 40
0.168285
 40
0.650180
 40
1.455492
 40
1.455492
 40
1.455492
 40
1.455492
 10
62.758314
 20
167.503013
 30
0.0
 10
62.707509
 20
167.526963
 30
0.0
 10
62.511218
 20
167.619495
 30
0.0
 10
62.135220
 20
167.940589
 30
0.0
 10
61.893524
 20
168.296407
 30
0.0
 10
61.742312
 20
168.519016
 30
0.0
 11
62.758314
 21
167.503013
 31
0.0
 11
62.607796
 21
167.578273
 31
0.0
 11
62.231499
 21
167.879311
 31
0.0
 11
61.742312
 21
168.519016
 31
0.0
  0
SPLINE
  5
1d3
100
AcDbEntity
  8
0
 62
5
100
AcDbSpline
 70
0
 71
3
 72
10
 73
6
 74
4
 40
0.000000
 40
0.000000
 40
0.000000
 40
0.000000
 40
1.568775
 40
3.234021
 40
4.770417
 40
4.770417
 40
4.770417
 40
4.770417
 10
61.742312
 20
168.519016
 30
0.0
 10
61.570383
 20
169.012972
 30
0.0
 10
61.215953
 20
170.031259
 30
0.0
 10
60.781248
 20
171.561590
 30
0.0
 10
60.515274
 20
172.595087
 30
0.0
 10
60.387639
 20
173.091039
 30
0.0
 11
61.742312
 21
168.519016
 31
0.0
 11
61.240580
 21
170.005395
 31
0.0
 11
60.776480
 21
171.604662
 31
0.0
 11
60.387639
 21
173.091039
 31
0.0
  0
LWPOLYLINE
  5
1d4
100
AcDbEntity
  8
0
 62
5
100
AcDbPolyline
 90
4
 70
0
 10
63.096984
 20
159.205641
 30
0.0
 10
63.096984
 20
168.519016
 30
0.0
 10
62.758314
 20
168.519016
 30
0.0
 10
62.758314
 20
167.503013
 30
0.0
  0
LWPOLYLINE
  5
1d5
100
AcDbEntity
  8
0
 62
5
100
AcDbPolyline
 90
4
 70
0
 10
62.758314
 20
174.615047
 30
0.0
 10
62.758314
 20
173.599042
 30
0.0
 10
63.096984
 20
173.599042
 30
0.0
 10
63.096984
 20
176.139053
 30
0.0
  0
LWPOLYLINE
  5
1d6
100
AcDbEntity
  8
0
 62
1
100
AcDbPolyline
 90
2
 70
0
 10
63.096984
 20
169.704355
 30
0.0
 10
63.096984
 20
172.413703
 30
0.0
  0
LWPOLYLINE
  5
1d7
100
AcDbEntity
  8
0
 62
5
100
AcDbPolyline
 90
5
 70
0
 10
54.630244
 20
173.870463
 30
0.0
 10
58.116586
 20
173.927994
 30
0.0
 10
62.170093
 20
164.536429
 30
0.0
 10
61.403636
 20
162.138604
 30
0.0
 10
63.096984
 20
159.205641
 30
0.0
  0
LWPOLYLINE
  5
1d8
100
AcDbEntity
  8
0
 62
5
100
AcDbPolyline
 90
4
 70
0
 10
54.867638
 20
172.443277
 30
0.0
 10
55.939549
 20
172.280020
 30
0.0
 10
58.987574
 20
167.000683
 30
0.0
 10
58.593005
 20
165.990754
 30
0.0
  0
LWPOLYLINE
  5
1d9
100
AcDbEntity
  8
0
 62
1
100
AcDbPolyline
 90
2
 70
0
 10
54.630244
 20
173.870463
 30
0.0
 10
55.307583
 20
172.697280
 30
0.0
  0
LWPOLYLINE
  5
1da
100
AcDbEntity
  8
0
 62
1
100
AcDbPolyline
 90
2
 70
0
 10
61.403636
 20
162.138604
 30
0.0
 10
59.032950
 20
166.244757
 30
0.0
  0
SPLINE
  5
1db
100
AcDbEntity
  8
0
 62
5
100
AcDbSpline
 70
0
 71
3
 72
10
 73
6
 74
4
 40
0.000000
 40
0.000000
 40
0.000000
 40
0.000000
 40
1.197290
 40
2.328498
 40
2.836655
 40
2.836655
 40
2.836655
 40
2.836655
 10
60.387639
 20
173.091039
 30
0.0
 10
60.681846
 20
173.363413
 30
0.0
 10
61.254023
 20
173.893127
 30
0.0
 10
62.103288
 20
174.327822
 30
0.0
 10
62.603319
 20
174.547083
 30
0.0
 10
62.758314
 20
174.615047
 30
0.0
 11
60.387639
 21
173.091039
 31
0.0
 11
61.303297
 21
173.862450
 31
0.0
 11
62.294214
 21
174.408083
 31
0.0
 11
62.758314
 21
174.615047
 31
0.0
  0
SPLINE
  5
1dc
100
AcDbEntity
  8
0
 62
5
100
AcDbSpline
 70
0
 71
3
 72
10
 73
6
 74
4
 40
0.000000
 40
0.000000
 40
0.000000
 40
0.000000
 40
0.383750
 40
1.264641
 40
2.310858
 40
2.310858
 40
2.310858
 40
2.310858
 10
42.607555
 20
174.209153
 30
0.0
 10
42.630870
 20
174.334729
 30
0.0
 10
42.707706
 20
174.748566
 30
0.0
 10
42.953539
 20
175.496169
 30
0.0
 10
43.387801
 20
175.979023
 30
0.0
 10
43.623560
 20
176.241161
 30
0.0
 11
42.607555
 21
174.209153
 31
0.0
 11
42.682814
 21
174.585450
 31
0.0
 11
42.983853
 21
175.413306
 31
0.0
 11
43.623560
 21
176.241161
 31
0.0
  0
SPLINE
  5
1dd
100
AcDbEntity
  8
0
 62
5
100
AcDbSpline
 70
0
 71
3
 72
10
 73
6
 74
4
 40
0.000000
 40
0.000000
 40
0.000000
 40
0.000000
 40
1.754130
 40
3.597990
 40
5.352120
 40
5.352120
 40
5.352120
 40
5.352120
 10
43.623560
 20
176.241161
 30
0.0
 10
44.148057
 20
176.510751
 30
0.0
 10
45.223882
 20
177.063722
 30
0.0
 10
47.103261
 20
177.063722
 30
0.0
 10
48.179085
 20
176.510751
 30
0.0
 10
48.703583
 20
176.241161
 30
0.0
 11
43.623560
 21
176.241161
 31
0.0
 11
45.241641
 21
176.918498
 31
0.0
 11
47.085502
 21
176.918498
 31
0.0
 11
48.703583
 21
176.241161
 31
0.0
  0
LWPOLYLINE
  5
1de
100
AcDbEntity
  8
0
 62
5
100
AcDbPolyline
 90
4
 70
0
 10
37.696865
 20
173.870483
 30
0.0
 10
43.623560
 20
173.870483
 30
0.0
 10
43.623560
 20
174.209153
 30
0.0
 10
42.607555
 20
174.209153
 30
0.0
  0
LWPOLYLINE
  5
1df
100
AcDbEntity
  8
0
 62
5
100
AcDbPolyline
 90
4
 70
0
 10
49.719588
 20
174.209153
 30
0.0
 10
48.703583
 20
174.209153
 30
0.0
 10
48.703583
 20
173.870483
 30
0.0
 10
54.630278
 20
173.870483
 30
0.0
  0
LWPOLYLINE
  5
1e0
100
AcDbEntity
  8
0
 62
1
100
AcDbPolyline
 90
2
 70
0
 10
44.808899
 20
173.870483
 30
0.0
 10
47.518244
 20
173.870483
 30
0.0
  0
LWPOLYLINE
  5
1e1
100
AcDbEntity
  8
0
 62
5
100
AcDbPolyline
 90
4
 70
0
 10
29.230125
 20
159.205660
 30
0.0
 10
28.137157
 20
163.747305
 30
0.0
 10
33.217200
 20
172.546200
 30
0.0
 10
37.696865
 20
173.870483
 30
0.0
  0
LWPOLYLINE
  5
1e2
100
AcDbEntity
  8
0
 62
5
100
AcDbPolyline
 90
4
 70
0
 10
32.040757
 20
163.057807
 30
0.0
 10
31.646185
 20
164.067740
 30
0.0
 10
34.694213
 20
169.347076
 30
0.0
 10
35.766124
 20
169.510330
 30
0.0
  0
LWPOLYLINE
  5
1e3
100
AcDbEntity
  8
0
 62
1
100
AcDbPolyline
 90
2
 70
0
 10
29.230125
 20
159.205660
 30
0.0
 10
31.600812
 20
163.311810
 30
0.0
  0
LWPOLYLINE
  5
1e4
100
AcDbEntity
  8
0
 62
1
100
AcDbPolyline
 90
2
 70
0
 10
37.696865
 20
173.870483
 30
0.0
 10
35.326179
 20
169.764333
 30
0.0
  0
LWPOLYLINE
  5
1e5
100
AcDbEntity
  8
0
 62
1
100
AcDbPolyline
 90
5
 70
0
 10
37.696826
 20
144.540959
 30
0.0
 10
54.630159
 20
144.540959
 30
0.0
 10
63.097108
 20
159.205508
 30
0.0
 10
80.030441
 20
159.205508
 30
0.0
 10
88.497108
 20
144.540959
 30
0.0
  0
LWPOLYLINE
  5
1e6
100
AcDbEntity
  8
0
 62
1
100
AcDbPolyline
 90
2
 70
0
 10
88.497108
 20
173.870621
 30
0.0
 10
105.430441
 20
173.870621
 30
0.0
  0
LWPOLYLINE
  5
1e7
100
AcDbEntity
  8
0
 62
1
100
AcDbPolyline
 90
4
 70
0
 10
88.497108
 20
144.540959
 30
0.0
 10
105.430441
 20
144.540959
 30
0.0
 10
113.897108
 20
159.205508
 30
0.0
 10
130.830724
 20
159.205508
 30
0.0
  0
LWPOLYLINE
  5
1e8
100
AcDbEntity
  8
0
 62
1
100
AcDbPolyline
 90
2
 70
0
 10
113.897108
 20
129.876128
 30
0.0
 10
130.830724
 20
129.876128
 30
0.0
  0
SPLINE
  5
1e9
100
AcDbEntity
  8
0
 62
5
100
AcDbSpline
 70
0
 71
3
 72
10
 73
6
 74
4
 40
0.000000
 40
0.000000
 40
0.000000
 40
0.000000
 40
1.046217
 40
1.927108
 40
2.310858
 40
2.310858
 40
2.310858
 40
2.310858
 10
48.703583
 20
176.241161
 30
0.0
 10
48.939342
 20
175.979023
 30
0.0
 10
49.373604
 20
175.496169
 30
0.0
 10
49.619437
 20
174.748566
 30
0.0
 10
49.696273
 20
174.334729
 30
0.0
 10
49.719588
 20
174.209153
 30
0.0
 11
48.703583
 21
176.241161
 31
0.0
 11
49.343290
 21
175.413306
 31
0.0
 11
49.644329
 21
174.585450
 31
0.0
 11
49.719588
 21
174.209153
 31
0.0
  0
LWPOLYLINE
  5
1ea
100
AcDbEntity
  8
0
 62
1
100
AcDbPolyline
 90
5
 70
0
 10
130.830724
 20
159.205508
 30
0.0
 10
139.297390
 20
144.540959
 30
0.0
 10
156.230724
 20
144.540959
 30
0.0
 10
164.697390
 20
159.205508
 30
0.0
 10
181.631006
 20
159.205508
 30
0.0
  0
ENDSEC
  0
SECTION
  2
OBJECTS
  0
DICTIONARY
  5
C
330
0
100
AcDbDictionary
  3
ACAD_GROUP
350
D
  3
ACAD_MLINESTYLE
350
17
  0
DICTIONARY
  5
D
330
C
100
AcDbDictionary
  0
DICTIONARY
  5
1A
330
C
100
AcDbDictionary
  0
DICTIONARY
  5
17
330
C
100
AcDbDictionary
  3
STANDARD
350
18
  0
DICTIONARY
  5
19
330
C
100
AcDbDictionary
  0
ENDSEC
  0
EOF
