999
DXF created by Inkscape
  0
SECTION
  2
HEADER
  9
$ACADVER
  1
AC1014
  9
$HANDSEED
  5
FFFF
  9
$MEASUREMENT
 70
     1
  0
ENDSEC
  0
SECTION
  2
TABLES
  0
TABLE
  2
VPORT
  5
8
330
0
100
AcDbSymbolTable
 70
     4
  0
VPORT
  5
2E
330
8
100
AcDbSymbolTableRecord
100
AcDbViewportTableRecord
  2
*ACTIVE
 70
     0
 10
0.0
 20
0.0
 11
1.0
 21
1.0
 12
210.0
 22
148.5
 13
0.0
 23
0.0
 14
10.0
 24
10.0
 15
10.0
 25
10.0
 16
0.0
 26
0.0
 36
1.0
 17
0.0
 27
0.0
 37
0.0
 40
341.0
 41
1.24
 42
50.0
 43
0.0
 44
0.0
 50
0.0
 51
0.0
 71
     0
 72
   100
 73
     1
 74
     3
 75
     0
 76
     0
 77
     0
 78
     0
  0
ENDTAB
  0
TABLE
  2
LTYPE
  5
5
330
0
100
AcDbSymbolTable
 70
     1
  0
LTYPE
  5
14
330
5
100
AcDbSymbolTableRecord
100
AcDbLinetypeTableRecord
  2
BYBLOCK
 70
     0
  3

 72
    65
 73
     0
 40
0.0
  0
LTYPE
  5
15
330
5
100
AcDbSymbolTableRecord
100
AcDbLinetypeTableRecord
  2
BYLAYER
 70
     0
  3

 72
    65
 73
     0
 40
0.0
  0
LTYPE
  5
16
330
5
100
AcDbSymbolTableRecord
100
AcDbLinetypeTableRecord
  2
CONTINUOUS
 70
     0
  3
Solid line
 72
    65
 73
     0
 40
0.0
  0
ENDTAB
  0
TABLE
  2
LAYER
  5
2
330
0
100
AcDbSymbolTable
 70
1
  0
LAYER
  5
10
330
2
100
AcDbSymbolTableRecord
100
AcDbLayerTableRecord
  2
0
 70
     0
 62
     7
  6
CONTINUOUS
  0
ENDTAB
  0
TABLE
  2
STYLE
  5
3
330
0
100
AcDbSymbolTable
 70
     1
  0
STYLE
  5
11
330
3
100
AcDbSymbolTableRecord
100
AcDbTextStyleTableRecord
  2
STANDARD
 70
     0
 40
0.0
 41
1.0
 50
0.0
 71
     0
 42
2.5
  3
txt
  4

  0
ENDTAB
  0
TABLE
  2
VIEW
  5
6
330
0
100
AcDbSymbolTable
 70
     0
  0
ENDTAB
  0
TABLE
  2
UCS
  5
7
330
0
100
AcDbSymbolTable
 70
     0
  0
ENDTAB
  0
TABLE
  2
APPID
  5
9
330
0
100
AcDbSymbolTable
 70
     2
  0
APPID
  5
12
330
9
100
AcDbSymbolTableRecord
100
AcDbRegAppTableRecord
  2
ACAD
 70
     0
  0
ENDTAB
  0
TABLE
  2
DIMSTYLE
  5
A
330
0
100
AcDbSymbolTable
 70
     1
  0
DIMSTYLE
105
27
330
A
100
AcDbSymbolTableRecord
100
AcDbDimStyleTableRecord
  2
ISO-25
 70
     0
  3

  4

  5

  6

  7

 40
1.0
 41
2.5
 42
0.625
 43
3.75
 44
1.25
 45
0.0
 46
0.0
 47
0.0
 48
0.0
140
2.5
141
2.5
142
0.0
143
0.03937007874016
144
1.0
145
0.0
146
1.0
147
0.625
 71
     0
 72
     0
 73
     0
 74
     0
 75
     0
 76
     0
 77
     1
 78
     8
170
     0
171
     3
172
     1
173
     0
174
     0
175
     0
176
     0
177
     0
178
     0
270
     2
271
     2
272
     2
273
     2
274
     3
340
11
275
     0
280
     0
281
     0
282
     0
283
     0
284
     8
285
     0
286
     0
287
     3
288
     0
  0
ENDTAB
  0
TABLE
  2
BLOCK_RECORD
  5
1
330
0
100
AcDbSymbolTable
 70
     1
  0
BLOCK_RECORD
  5
1F
330
1
100
AcDbSymbolTableRecord
100
AcDbBlockTableRecord
  2
*MODEL_SPACE
  0
BLOCK_RECORD
  5
1B
330
1
100
AcDbSymbolTableRecord
100
AcDbBlockTableRecord
  2
*PAPER_SPACE
  0
ENDTAB
  0
ENDSEC
  0
SECTION
  2
BLOCKS
  0
BLOCK
  5
20
330
1F
100
AcDbEntity
  8
0
100
AcDbBlockBegin
  2
*MODEL_SPACE
 70
     0
 10
0.0
 20
0.0
 30
0.0
  3
*MODEL_SPACE
  1

  0
ENDBLK
  5
21
330
1F
100
AcDbEntity
  8
0
100
AcDbBlockEnd
  0
BLOCK
  5
1C
330
1B
100
AcDbEntity
 67
     1
  8
0
100
AcDbBlockBegin
  2
*PAPER_SPACE
  1

  0
ENDBLK
  5
1D
330
1B
100
AcDbEntity
 67
     1
  8
0
100
AcDbBlockEnd
  0
ENDSEC
  0
SECTION
  2
ENTITIES
  0
SPLINE
  5
100
100
AcDbEntity
  8
0
 62
5
100
AcDbSpline
 70
0
 71
3
 72
10
 73
6
 74
4
 40
0.000000
 40
0.000000
 40
0.000000
 40
0.000000
 40
0.383748
 40
1.264635
 40
2.310847
 40
2.310847
 40
2.310847
 40
2.310847
 10
24.859746
 20
161.707109
 30
0.0
 10
24.734170
 20
161.730424
 30
0.0
 10
24.320335
 20
161.807260
 30
0.0
 10
23.572735
 20
162.053092
 30
0.0
 10
23.089883
 20
162.487351
 30
0.0
 10
22.827746
 20
162.723109
 30
0.0
 11
24.859746
 21
161.707109
 31
0.0
 11
24.483450
 21
161.782368
 31
0.0
 11
23.655598
 21
162.083405
 31
0.0
 11
22.827746
 21
162.723109
 31
0.0
  0
SPLINE
  5
101
100
AcDbEntity
  8
0
 62
5
100
AcDbSpline
 70
0
 71
3
 72
10
 73
6
 74
4
 40
0.000000
 40
0.000000
 40
0.000000
 40
0.000000
 40
1.754122
 40
3.597974
 40
5.352096
 40
5.352096
 40
5.352096
 40
5.352096
 10
22.827746
 20
162.723109
 30
0.0
 10
22.558157
 20
163.247604
 30
0.0
 10
22.005189
 20
164.323424
 30
0.0
 10
22.005189
 20
166.202794
 30
0.0
 10
22.558157
 20
167.278614
 30
0.0
 10
22.827746
 20
167.803109
 30
0.0
 11
22.827746
 21
162.723109
 31
0.0
 11
22.150413
 21
164.341183
 31
0.0
 11
22.150413
 21
166.185035
 31
0.0
 11
22.827746
 21
167.803109
 31
0.0
  0
LWPOLYLINE
  5
102
100
AcDbEntity
  8
0
 62
5
100
AcDbPolyline
 90
4
 70
0
 10
25.198413
 20
156.796442
 30
0.0
 10
25.198413
 20
162.723109
 30
0.0
 10
24.859746
 20
162.723109
 30
0.0
 10
24.859746
 20
161.707109
 30
0.0
  0
LWPOLYLINE
  5
103
100
AcDbEntity
  8
0
 62
5
100
AcDbPolyline
 90
4
 70
0
 10
24.859746
 20
168.819109
 30
0.0
 10
24.859746
 20
167.803109
 30
0.0
 10
25.198413
 20
167.803109
 30
0.0
 10
25.198413
 20
173.729776
 30
0.0
  0
LWPOLYLINE
  5
104
100
AcDbEntity
  8
0
 62
1
100
AcDbPolyline
 90
2
 70
0
 10
25.198413
 20
163.908442
 30
0.0
 10
25.198413
 20
166.617776
 30
0.0
  0
LWPOLYLINE
  5
105
100
AcDbEntity
  8
0
 62
5
100
AcDbPolyline
 90
4
 70
0
 10
37.172115
 20
144.822738
 30
0.0
 10
32.502371
 20
144.942477
 30
0.0
 10
25.318149
 20
152.126697
 30
0.0
 10
25.198411
 20
156.796442
 30
0.0
  0
LWPOLYLINE
  5
106
100
AcDbEntity
  8
0
 62
5
100
AcDbPolyline
 90
4
 70
0
 10
34.178689
 20
148.534587
 30
0.0
 10
33.101057
 20
148.414849
 30
0.0
 10
28.790522
 20
152.725384
 30
0.0
 10
28.910260
 20
153.803015
 30
0.0
  0
LWPOLYLINE
  5
107
100
AcDbEntity
  8
0
 62
1
100
AcDbPolyline
 90
2
 70
0
 10
37.172115
 20
144.822738
 30
0.0
 10
33.819479
 20
148.175375
 30
0.0
  0
LWPOLYLINE
  5
108
100
AcDbEntity
  8
0
 62
1
100
AcDbPolyline
 90
2
 70
0
 10
25.198411
 20
156.796442
 30
0.0
 10
28.551048
 20
153.443806
 30
0.0
  0
SPLINE
  5
109
100
AcDbEntity
  8
0
 62
5
100
AcDbSpline
 70
0
 71
3
 72
10
 73
6
 74
4
 40
0.000000
 40
0.000000
 40
0.000000
 40
0.000000
 40
1.046212
 40
1.927099
 40
2.310847
 40
2.310847
 40
2.310847
 40
2.310847
 10
22.827746
 20
167.803109
 30
0.0
 10
23.089883
 20
168.038866
 30
0.0
 10
23.572735
 20
168.473126
 30
0.0
 10
24.320335
 20
168.718958
 30
0.0
 10
24.734170
 20
168.795793
 30
0.0
 10
24.859746
 20
168.819109
 30
0.0
 11
22.827746
 21
167.803109
 31
0.0
 11
23.655598
 21
168.442813
 31
0.0
 11
24.483450
 21
168.743850
 31
0.0
 11
24.859746
 21
168.819109
 31
0.0
  0
SPLINE
  5
10a
100
AcDbEntity
  8
0
 62
5
100
AcDbSpline
 70
0
 71
3
 72
10
 73
6
 74
4
 40
0.000000
 40
0.000000
 40
0.000000
 40
0.000000
 40
0.383750
 40
1.264641
 40
2.310856
 40
2.310856
 40
2.310856
 40
2.310856
 10
49.194793
 20
144.484046
 30
0.0
 10
49.171478
 20
144.358469
 30
0.0
 10
49.094642
 20
143.944633
 30
0.0
 10
48.848810
 20
143.197030
 30
0.0
 10
48.414549
 20
142.714176
 30
0.0
 10
48.178791
 20
142.452038
 30
0.0
 11
49.194793
 21
144.484046
 31
0.0
 11
49.119534
 21
144.107748
 31
0.0
 11
48.818496
 21
143.279893
 31
0.0
 11
48.178791
 21
142.452038
 31
0.0
  0
SPLINE
  5
10b
100
AcDbEntity
  8
0
 62
5
100
AcDbSpline
 70
0
 71
3
 72
10
 73
6
 74
4
 40
0.000000
 40
0.000000
 40
0.000000
 40
0.000000
 40
1.754128
 40
3.597985
 40
5.352113
 40
5.352113
 40
5.352113
 40
5.352113
 10
48.178791
 20
142.452038
 30
0.0
 10
47.654294
 20
142.182448
 30
0.0
 10
46.578470
 20
141.629479
 30
0.0
 10
44.699094
 20
141.629479
 30
0.0
 10
43.623270
 20
142.182448
 30
0.0
 10
43.098774
 20
142.452038
 30
0.0
 11
48.178791
 21
142.452038
 31
0.0
 11
46.560711
 21
141.774702
 31
0.0
 11
44.716853
 21
141.774702
 31
0.0
 11
43.098774
 21
142.452038
 31
0.0
  0
LWPOLYLINE
  5
10c
100
AcDbEntity
  8
0
 62
5
100
AcDbPolyline
 90
4
 70
0
 10
54.105474
 20
144.822713
 30
0.0
 10
48.178791
 20
144.822713
 30
0.0
 10
48.178791
 20
144.484046
 30
0.0
 10
49.194793
 20
144.484046
 30
0.0
  0
LWPOLYLINE
  5
10d
100
AcDbEntity
  8
0
 62
5
100
AcDbPolyline
 90
4
 70
0
 10
42.082771
 20
144.484046
 30
0.0
 10
43.098774
 20
144.484046
 30
0.0
 10
43.098774
 20
144.822713
 30
0.0
 10
37.172090
 20
144.822713
 30
0.0
  0
LWPOLYLINE
  5
10e
100
AcDbEntity
  8
0
 62
1
100
AcDbPolyline
 90
2
 70
0
 10
46.993452
 20
144.822713
 30
0.0
 10
44.284113
 20
144.822713
 30
0.0
  0
LWPOLYLINE
  5
10f
100
AcDbEntity
  8
0
 62
5
100
AcDbPolyline
 90
5
 70
0
 10
54.105474
 20
144.822713
 30
0.0
 10
57.458094
 20
143.864822
 30
0.0
 10
63.804125
 20
151.887164
 30
0.0
 10
63.684390
 20
154.401629
 30
0.0
 10
66.079119
 20
156.796358
 30
0.0
  0
LWPOLYLINE
  5
110
100
AcDbEntity
  8
0
 62
5
100
AcDbPolyline
 90
4
 70
0
 10
54.704155
 20
146.139813
 30
0.0
 10
55.781784
 20
146.020077
 30
0.0
 10
60.092296
 20
150.330590
 30
0.0
 10
59.972561
 20
151.408219
 30
0.0
  0
LWPOLYLINE
  5
111
100
AcDbEntity
  8
0
 62
1
100
AcDbPolyline
 90
2
 70
0
 10
54.105474
 20
144.822713
 30
0.0
 10
55.063365
 20
145.780603
 30
0.0
  0
LWPOLYLINE
  5
112
100
AcDbEntity
  8
0
 62
1
100
AcDbPolyline
 90
2
 70
0
 10
63.684390
 20
154.401629
 30
0.0
 10
60.331771
 20
151.049009
 30
0.0
  0
SPLINE
  5
113
100
AcDbEntity
  8
0
 62
5
100
AcDbSpline
 70
0
 71
3
 72
10
 73
6
 74
4
 40
0.000000
 40
0.000000
 40
0.000000
 40
0.000000
 40
1.046216
 40
1.927106
 40
2.310856
 40
2.310856
 40
2.310856
 40
2.310856
 10
43.098774
 20
142.452038
 30
0.0
 10
42.863015
 20
142.714176
 30
0.0
 10
42.428754
 20
143.197030
 30
0.0
 10
42.182922
 20
143.944633
 30
0.0
 10
42.106086
 20
144.358469
 30
0.0
 10
42.082771
 20
144.484046
 30
0.0
 11
43.098774
 21
142.452038
 31
0.0
 11
42.459068
 21
143.279893
 31
0.0
 11
42.158030
 21
144.107748
 31
0.0
 11
42.082771
 21
144.484046
 31
0.0
  0
SPLINE
  5
114
100
AcDbEntity
  8
0
 62
5
100
AcDbSpline
 70
0
 71
3
 72
10
 73
6
 74
4
 40
0.000000
 40
0.000000
 40
0.000000
 40
0.000000
 40
0.168285
 40
0.650181
 40
1.455494
 40
1.455494
 40
1.455494
 40
1.455494
 10
63.604388
 20
148.869452
 30
0.0
 10
63.549115
 20
148.859468
 30
0.0
 10
63.335564
 20
148.820893
 30
0.0
 10
62.889272
 20
148.608055
 30
0.0
 10
62.563718
 20
148.326917
 30
0.0
 10
62.360042
 20
148.151030
 30
0.0
 11
63.604388
 21
148.869452
 31
0.0
 11
63.439520
 21
148.835714
 31
0.0
 11
62.998130
 21
148.642327
 31
0.0
 11
62.360042
 21
148.151030
 31
0.0
  0
SPLINE
  5
115
100
AcDbEntity
  8
0
 62
5
100
AcDbSpline
 70
0
 71
3
 72
10
 73
6
 74
4
 40
0.000000
 40
0.000000
 40
0.000000
 40
0.000000
 40
1.568774
 40
3.234019
 40
4.770415
 40
4.770415
 40
4.770415
 40
4.770415
 10
62.360042
 20
148.151030
 30
0.0
 10
62.066127
 20
147.718404
 30
0.0
 10
61.460223
 20
146.826549
 30
0.0
 10
60.644251
 20
145.460873
 30
0.0
 10
60.119851
 20
144.531431
 30
0.0
 10
59.868204
 20
144.085413
 30
0.0
 11
62.360042
 21
148.151030
 31
0.0
 11
61.490705
 21
146.845157
 31
0.0
 11
60.628498
 21
145.420503
 31
0.0
 11
59.868204
 21
144.085413
 31
0.0
  0
LWPOLYLINE
  5
116
100
AcDbEntity
  8
0
 62
5
100
AcDbPolyline
 90
4
 70
0
 10
66.079034
 20
156.796442
 30
0.0
 10
63.668557
 20
147.800414
 30
0.0
 10
63.341428
 20
147.888070
 30
0.0
 10
63.604388
 20
148.869452
 30
0.0
  0
LWPOLYLINE
  5
117
100
AcDbEntity
  8
0
 62
5
100
AcDbPolyline
 90
4
 70
0
 10
61.763659
 20
141.999760
 30
0.0
 10
62.026622
 20
142.981145
 30
0.0
 10
62.353749
 20
142.893490
 30
0.0
 10
61.696346
 20
140.440028
 30
0.0
  0
LWPOLYLINE
  5
118
100
AcDbEntity
  8
0
 62
1
100
AcDbPolyline
 90
2
 70
0
 10
63.361768
 20
146.655467
 30
0.0
 10
62.660538
 20
144.038440
 30
0.0
  0
LWPOLYLINE
  5
119
100
AcDbEntity
  8
0
 62
5
100
AcDbPolyline
 90
5
 70
0
 10
61.696349
 20
140.440028
 30
0.0
 10
64.120875
 20
137.934143
 30
0.0
 10
73.627934
 20
141.708704
 30
0.0
 10
74.781481
 20
143.946179
 30
0.0
 10
78.052763
 20
144.822716
 30
0.0
  0
LWPOLYLINE
  5
11a
100
AcDbEntity
  8
0
 62
5
100
AcDbPolyline
 90
4
 70
0
 10
62.873382
 20
141.281335
 30
0.0
 10
63.746772
 20
140.638822
 30
0.0
 10
69.635082
 20
142.216591
 30
0.0
 10
70.070204
 20
143.209717
 30
0.0
  0
LWPOLYLINE
  5
11b
100
AcDbEntity
  8
0
 62
1
100
AcDbPolyline
 90
2
 70
0
 10
61.696349
 20
140.440028
 30
0.0
 10
63.004864
 20
140.790643
 30
0.0
  0
LWPOLYLINE
  5
11c
100
AcDbEntity
  8
0
 62
1
100
AcDbPolyline
 90
2
 70
0
 10
74.781481
 20
143.946179
 30
0.0
 10
70.201686
 20
142.719026
 30
0.0
  0
SPLINE
  5
11d
100
AcDbEntity
  8
0
 62
5
100
AcDbSpline
 70
0
 71
3
 72
10
 73
6
 74
4
 40
0.000000
 40
0.000000
 40
0.000000
 40
0.000000
 40
1.197290
 40
2.328498
 40
2.836655
 40
2.836655
 40
2.836655
 40
2.836655
 10
59.868204
 20
144.085413
 30
0.0
 10
60.081890
 20
143.746173
 30
0.0
 10
60.497470
 20
143.086418
 30
0.0
 10
61.205291
 20
142.446730
 30
0.0
 10
61.631535
 20
142.105524
 30
0.0
 10
61.763659
 20
141.999760
 30
0.0
 11
59.868204
 21
144.085413
 31
0.0
 11
60.553005
 21
143.103297
 31
0.0
 11
61.368938
 21
142.319789
 31
0.0
 11
61.763659
 21
141.999760
 31
0.0
  0
SPLINE
  5
11e
100
AcDbEntity
  8
0
 62
5
100
AcDbSpline
 70
0
 71
3
 72
10
 73
6
 74
4
 40
0.000000
 40
0.000000
 40
0.000000
 40
0.000000
 40
0.168285
 40
0.650179
 40
1.455486
 40
1.455486
 40
1.455486
 40
1.455486
 10
71.946206
 20
139.195100
 30
0.0
 10
71.893346
 20
139.214090
 30
0.0
 10
71.689118
 20
139.287459
 30
0.0
 10
71.196201
 20
139.326282
 30
0.0
 10
70.773697
 20
139.245586
 30
0.0
 10
70.509367
 20
139.195100
 30
0.0
 11
71.946206
 21
139.195100
 31
0.0
 11
71.786556
 21
139.248317
 31
0.0
 11
71.307610
 21
139.301533
 31
0.0
 11
70.509367
 21
139.195100
 31
0.0
  0
SPLINE
  5
11f
100
AcDbEntity
  8
0
 62
5
100
AcDbSpline
 70
0
 71
3
 72
10
 73
6
 74
4
 40
0.000000
 40
0.000000
 40
0.000000
 40
0.000000
 40
1.568762
 40
3.233996
 40
4.770381
 40
4.770381
 40
4.770381
 40
4.770381
 10
70.509367
 20
139.195100
 30
0.0
 10
70.038520
 20
138.967394
 30
0.0
 10
69.067871
 20
138.497980
 30
0.0
 10
67.678391
 20
137.723261
 30
0.0
 10
66.759532
 20
137.180544
 30
0.0
 10
66.318593
 20
136.920107
 30
0.0
 11
70.509367
 21
139.195100
 31
0.0
 11
69.103573
 21
138.498854
 31
0.0
 11
67.644563
 21
137.696177
 31
0.0
 11
66.318593
 21
136.920107
 31
0.0
  0
LWPOLYLINE
  5
120
100
AcDbEntity
  8
0
 62
5
100
AcDbPolyline
 90
4
 70
0
 10
78.052763
 20
144.822713
 30
0.0
 10
71.467258
 20
138.237207
 30
0.0
 10
71.227786
 20
138.476681
 30
0.0
 10
71.946206
 20
139.195100
 30
0.0
  0
LWPOLYLINE
  5
121
100
AcDbEntity
  8
0
 62
5
100
AcDbPolyline
 90
4
 70
0
 10
66.917274
 20
134.166168
 30
0.0
 10
67.635693
 20
134.884587
 30
0.0
 10
67.875164
 20
134.645113
 30
0.0
 10
66.079119
 20
132.849068
 30
0.0
  0
LWPOLYLINE
  5
122
100
AcDbEntity
  8
0
 62
1
100
AcDbPolyline
 90
2
 70
0
 10
70.629103
 20
137.399052
 30
0.0
 10
68.713322
 20
135.483271
 30
0.0
  0
LWPOLYLINE
  5
123
100
AcDbEntity
  8
0
 62
5
100
AcDbPolyline
 90
4
 70
0
 10
66.079034
 20
115.915820
 30
0.0
 10
62.861701
 20
119.302486
 30
0.0
 10
62.861701
 20
129.462486
 30
0.0
 10
66.079034
 20
132.849153
 30
0.0
  0
LWPOLYLINE
  5
124
100
AcDbEntity
  8
0
 62
5
100
AcDbPolyline
 90
4
 70
0
 10
66.587034
 20
120.657153
 30
0.0
 10
65.740367
 20
121.334486
 30
0.0
 10
65.740367
 20
127.430486
 30
0.0
 10
66.587034
 20
128.107820
 30
0.0
  0
LWPOLYLINE
  5
125
100
AcDbEntity
  8
0
 62
1
100
AcDbPolyline
 90
2
 70
0
 10
66.079034
 20
115.915820
 30
0.0
 10
66.079034
 20
120.657153
 30
0.0
  0
LWPOLYLINE
  5
126
100
AcDbEntity
  8
0
 62
1
100
AcDbPolyline
 90
2
 70
0
 10
66.079034
 20
132.849153
 30
0.0
 10
66.079034
 20
128.107820
 30
0.0
  0
SPLINE
  5
127
100
AcDbEntity
  8
0
 62
5
100
AcDbSpline
 70
0
 71
3
 72
10
 73
6
 74
4
 40
0.000000
 40
0.000000
 40
0.000000
 40
0.000000
 40
1.197281
 40
2.328483
 40
2.836637
 40
2.836637
 40
2.836637
 40
2.836637
 10
66.318593
 20
136.920107
 30
0.0
 10
66.334031
 20
136.519476
 30
0.0
 10
66.364055
 20
135.740327
 30
0.0
 10
66.657200
 20
134.832436
 30
0.0
 10
66.855734
 20
134.323824
 30
0.0
 10
66.917274
 20
134.166168
 30
0.0
 11
66.318593
 21
136.920107
 31
0.0
 11
66.420589
 21
135.727178
 31
0.0
 11
66.735452
 21
134.640680
 31
0.0
 11
66.917274
 21
134.166168
 31
0.0
  0
SPLINE
  5
128
100
AcDbEntity
  8
0
 62
5
100
AcDbSpline
 70
0
 71
3
 72
10
 73
6
 74
4
 40
0.000000
 40
0.000000
 40
0.000000
 40
0.000000
 40
0.383750
 40
1.264640
 40
2.310855
 40
2.310855
 40
2.310855
 40
2.310855
 10
74.340906
 20
107.174997
 30
0.0
 10
74.235623
 20
107.102687
 30
0.0
 10
73.888666
 20
106.864392
 30
0.0
 10
73.186201
 20
106.509587
 30
0.0
 10
72.537703
 20
106.475228
 30
0.0
 10
72.185637
 20
106.456574
 30
0.0
 11
74.340906
 21
107.174997
 31
0.0
 11
74.021607
 21
106.962130
 31
0.0
 11
73.223359
 21
106.589615
 31
0.0
 11
72.185637
 21
106.456574
 31
0.0
  0
SPLINE
  5
129
100
AcDbEntity
  8
0
 62
5
100
AcDbSpline
 70
0
 71
3
 72
10
 73
6
 74
4
 40
0.000000
 40
0.000000
 40
0.000000
 40
0.000000
 40
1.754131
 40
3.597990
 40
5.352121
 40
5.352121
 40
5.352121
 40
5.352121
 10
72.185637
 20
106.456574
 30
0.0
 10
71.624132
 20
106.636821
 30
0.0
 10
70.472400
 20
107.006534
 30
0.0
 10
69.143478
 20
108.335456
 30
0.0
 10
68.773765
 20
109.487188
 30
0.0
 10
68.593518
 20
110.048693
 30
0.0
 11
72.185637
 21
106.456574
 31
0.0
 11
70.562531
 21
107.121781
 31
0.0
 11
69.258725
 21
108.425587
 31
0.0
 11
68.593518
 21
110.048693
 31
0.0
  0
LWPOLYLINE
  5
12a
100
AcDbEntity
  8
0
 62
5
100
AcDbPolyline
 90
4
 70
0
 10
78.052763
 20
103.942090
 30
0.0
 10
73.861958
 20
108.132895
 30
0.0
 10
73.622484
 20
107.893421
 30
0.0
 10
74.340906
 20
107.174997
 30
0.0
  0
LWPOLYLINE
  5
12b
100
AcDbEntity
  8
0
 62
5
100
AcDbPolyline
 90
4
 70
0
 10
69.311941
 20
112.203962
 30
0.0
 10
70.030365
 20
111.485540
 30
0.0
 10
70.269839
 20
111.725014
 30
0.0
 10
66.079034
 20
115.915820
 30
0.0
  0
LWPOLYLINE
  5
12c
100
AcDbEntity
  8
0
 62
1
100
AcDbPolyline
 90
2
 70
0
 10
73.023798
 20
108.971056
 30
0.0
 10
71.108000
 20
110.886854
 30
0.0
  0
LWPOLYLINE
  5
12d
100
AcDbEntity
  8
0
 62
5
100
AcDbPolyline
 90
4
 70
0
 10
94.986097
 20
103.942090
 30
0.0
 10
91.599430
 20
100.724757
 30
0.0
 10
81.439430
 20
100.724757
 30
0.0
 10
78.052763
 20
103.942090
 30
0.0
  0
LWPOLYLINE
  5
12e
100
AcDbEntity
  8
0
 62
5
100
AcDbPolyline
 90
4
 70
0
 10
90.244763
 20
104.450090
 30
0.0
 10
89.567430
 20
103.603424
 30
0.0
 10
83.471430
 20
103.603424
 30
0.0
 10
82.794097
 20
104.450090
 30
0.0
  0
LWPOLYLINE
  5
12f
100
AcDbEntity
  8
0
 62
1
100
AcDbPolyline
 90
2
 70
0
 10
94.986097
 20
103.942090
 30
0.0
 10
90.244763
 20
103.942090
 30
0.0
  0
LWPOLYLINE
  5
130
100
AcDbEntity
  8
0
 62
1
100
AcDbPolyline
 90
2
 70
0
 10
78.052763
 20
103.942090
 30
0.0
 10
82.794097
 20
103.942090
 30
0.0
  0
SPLINE
  5
131
100
AcDbEntity
  8
0
 62
5
100
AcDbSpline
 70
0
 71
3
 72
10
 73
6
 74
4
 40
0.000000
 40
0.000000
 40
0.000000
 40
0.000000
 40
1.046216
 40
1.927106
 40
2.310855
 40
2.310855
 40
2.310855
 40
2.310855
 10
68.593518
 20
110.048693
 30
0.0
 10
68.612172
 20
110.400759
 30
0.0
 10
68.646531
 20
111.049257
 30
0.0
 10
69.001336
 20
111.751722
 30
0.0
 10
69.239631
 20
112.098679
 30
0.0
 10
69.311941
 20
112.203962
 30
0.0
 11
68.593518
 21
110.048693
 31
0.0
 11
68.726559
 21
111.086415
 31
0.0
 11
69.099074
 21
111.884663
 31
0.0
 11
69.311941
 21
112.203962
 31
0.0
  0
SPLINE
  5
132
100
AcDbEntity
  8
0
 62
5
100
AcDbSpline
 70
0
 71
3
 72
10
 73
6
 74
4
 40
0.000000
 40
0.000000
 40
0.000000
 40
0.000000
 40
0.383750
 40
1.264640
 40
2.310855
 40
2.310855
 40
2.310855
 40
2.310855
 10
103.726920
 20
112.203962
 30
0.0
 10
103.799229
 20
112.098679
 30
0.0
 10
104.037525
 20
111.751722
 30
0.0
 10
104.392330
 20
111.049257
 30
0.0
 10
104.426689
 20
110.400759
 30
0.0
 10
104.445342
 20
110.048693
 30
0.0
 11
103.726920
 21
112.203962
 31
0.0
 11
103.939786
 21
111.884663
 31
0.0
 11
104.312301
 21
111.086415
 31
0.0
 11
104.445342
 21
110.048693
 31
0.0
  0
SPLINE
  5
133
100
AcDbEntity
  8
0
 62
5
100
AcDbSpline
 70
0
 71
3
 72
10
 73
6
 74
4
 40
0.000000
 40
0.000000
 40
0.000000
 40
0.000000
 40
1.754131
 40
3.597990
 40
5.352121
 40
5.352121
 40
5.352121
 40
5.352121
 10
104.445342
 20
110.048693
 30
0.0
 10
104.265095
 20
109.487188
 30
0.0
 10
103.895382
 20
108.335456
 30
0.0
 10
102.566460
 20
107.006534
 30
0.0
 10
101.414728
 20
106.636821
 30
0.0
 10
100.853223
 20
106.456574
 30
0.0
 11
104.445342
 21
110.048693
 31
0.0
 11
103.780135
 21
108.425587
 31
0.0
 11
102.476329
 21
107.121781
 31
0.0
 11
100.853223
 21
106.456574
 31
0.0
  0
LWPOLYLINE
  5
134
100
AcDbEntity
  8
0
 62
5
100
AcDbPolyline
 90
4
 70
0
 10
106.959826
 20
115.915820
 30
0.0
 10
102.769021
 20
111.725014
 30
0.0
 10
103.008495
 20
111.485540
 30
0.0
 10
103.726920
 20
112.203962
 30
0.0
  0
LWPOLYLINE
  5
135
100
AcDbEntity
  8
0
 62
5
100
AcDbPolyline
 90
4
 70
0
 10
98.697954
 20
107.174997
 30
0.0
 10
99.416376
 20
107.893421
 30
0.0
 10
99.176902
 20
108.132895
 30
0.0
 10
94.986097
 20
103.942090
 30
0.0
  0
LWPOLYLINE
  5
136
100
AcDbEntity
  8
0
 62
1
100
AcDbPolyline
 90
2
 70
0
 10
101.930860
 20
110.886854
 30
0.0
 10
100.015063
 20
108.971056
 30
0.0
  0
LWPOLYLINE
  5
137
100
AcDbEntity
  8
0
 62
5
100
AcDbPolyline
 90
4
 70
0
 10
106.959826
 20
132.849153
 30
0.0
 10
110.177159
 20
129.462486
 30
0.0
 10
110.177159
 20
119.302486
 30
0.0
 10
106.959826
 20
115.915820
 30
0.0
  0
LWPOLYLINE
  5
138
100
AcDbEntity
  8
0
 62
5
100
AcDbPolyline
 90
4
 70
0
 10
106.451826
 20
128.107820
 30
0.0
 10
107.298493
 20
127.430486
 30
0.0
 10
107.298493
 20
121.334486
 30
0.0
 10
106.451826
 20
120.657153
 30
0.0
  0
LWPOLYLINE
  5
139
100
AcDbEntity
  8
0
 62
1
100
AcDbPolyline
 90
2
 70
0
 10
106.959826
 20
132.849153
 30
0.0
 10
106.959826
 20
128.107820
 30
0.0
  0
LWPOLYLINE
  5
13a
100
AcDbEntity
  8
0
 62
1
100
AcDbPolyline
 90
2
 70
0
 10
106.959826
 20
115.915820
 30
0.0
 10
106.959826
 20
120.657153
 30
0.0
  0
SPLINE
  5
13b
100
AcDbEntity
  8
0
 62
5
100
AcDbSpline
 70
0
 71
3
 72
10
 73
6
 74
4
 40
0.000000
 40
0.000000
 40
0.000000
 40
0.000000
 40
1.046216
 40
1.927106
 40
2.310855
 40
2.310855
 40
2.310855
 40
2.310855
 10
100.853223
 20
106.456574
 30
0.0
 10
100.501157
 20
106.475228
 30
0.0
 10
99.852659
 20
106.509587
 30
0.0
 10
99.150194
 20
106.864392
 30
0.0
 10
98.803237
 20
107.102687
 30
0.0
 10
98.697954
 20
107.174997
 30
0.0
 11
100.853223
 21
106.456574
 31
0.0
 11
99.815501
 21
106.589615
 31
0.0
 11
99.017253
 21
106.962130
 31
0.0
 11
98.697954
 21
107.174997
 31
0.0
  0
SPLINE
  5
13c
100
AcDbEntity
  8
0
 62
5
100
AcDbSpline
 70
0
 71
3
 72
10
 73
6
 74
4
 40
0.000000
 40
0.000000
 40
0.000000
 40
0.000000
 40
0.168284
 40
0.650178
 40
1.455486
 40
1.455486
 40
1.455486
 40
1.455486
 10
101.092739
 20
139.195185
 30
0.0
 10
101.145599
 20
139.214175
 30
0.0
 10
101.349826
 20
139.287544
 30
0.0
 10
101.842743
 20
139.326366
 30
0.0
 10
102.265248
 20
139.245670
 30
0.0
 10
102.529578
 20
139.195185
 30
0.0
 11
101.092739
 21
139.195185
 31
0.0
 11
101.252388
 21
139.248401
 31
0.0
 11
101.731334
 21
139.301618
 31
0.0
 11
102.529578
 21
139.195185
 31
0.0
  0
SPLINE
  5
13d
100
AcDbEntity
  8
0
 62
5
100
AcDbSpline
 70
0
 71
3
 72
10
 73
6
 74
4
 40
0.000000
 40
0.000000
 40
0.000000
 40
0.000000
 40
1.568762
 40
3.233996
 40
4.770381
 40
4.770381
 40
4.770381
 40
4.770381
 10
102.529578
 20
139.195185
 30
0.0
 10
103.000425
 20
138.967479
 30
0.0
 10
103.971074
 20
138.498064
 30
0.0
 10
105.360554
 20
137.723346
 30
0.0
 10
106.279413
 20
137.180629
 30
0.0
 10
106.720352
 20
136.920191
 30
0.0
 11
102.529578
 21
139.195185
 31
0.0
 11
103.935372
 21
138.498939
 31
0.0
 11
105.394382
 21
137.696261
 31
0.0
 11
106.720352
 21
136.920191
 31
0.0
  0
LWPOLYLINE
  5
13e
100
AcDbEntity
  8
0
 62
5
100
AcDbPolyline
 90
4
 70
0
 10
94.986181
 20
144.822798
 30
0.0
 10
101.571685
 20
138.237294
 30
0.0
 10
101.811159
 20
138.476766
 30
0.0
 10
101.092739
 20
139.195185
 30
0.0
  0
LWPOLYLINE
  5
13f
100
AcDbEntity
  8
0
 62
5
100
AcDbPolyline
 90
4
 70
0
 10
106.121671
 20
134.166253
 30
0.0
 10
105.403252
 20
134.884672
 30
0.0
 10
105.163778
 20
134.645201
 30
0.0
 10
106.959826
 20
132.849153
 30
0.0
  0
LWPOLYLINE
  5
140
100
AcDbEntity
  8
0
 62
1
100
AcDbPolyline
 90
2
 70
0
 10
102.409842
 20
137.399137
 30
0.0
 10
104.325623
 20
135.483356
 30
0.0
  0
LWPOLYLINE
  5
141
100
AcDbEntity
  8
0
 62
5
100
AcDbPolyline
 90
5
 70
0
 10
111.342511
 20
140.440025
 30
0.0
 10
108.917986
 20
137.934140
 30
0.0
 10
99.410926
 20
141.708701
 30
0.0
 10
98.257380
 20
143.946176
 30
0.0
 10
94.986097
 20
144.822713
 30
0.0
  0
LWPOLYLINE
  5
142
100
AcDbEntity
  8
0
 62
5
100
AcDbPolyline
 90
4
 70
0
 10
110.165478
 20
141.281332
 30
0.0
 10
109.292088
 20
140.638819
 30
0.0
 10
103.403778
 20
142.216588
 30
0.0
 10
102.968656
 20
143.209714
 30
0.0
  0
LWPOLYLINE
  5
143
100
AcDbEntity
  8
0
 62
1
100
AcDbPolyline
 90
2
 70
0
 10
111.342511
 20
140.440025
 30
0.0
 10
110.033997
 20
140.790641
 30
0.0
  0
LWPOLYLINE
  5
144
100
AcDbEntity
  8
0
 62
1
100
AcDbPolyline
 90
2
 70
0
 10
98.257380
 20
143.946176
 30
0.0
 10
102.837175
 20
142.719023
 30
0.0
  0
SPLINE
  5
145
100
AcDbEntity
  8
0
 62
5
100
AcDbSpline
 70
0
 71
3
 72
10
 73
6
 74
4
 40
0.000000
 40
0.000000
 40
0.000000
 40
0.000000
 40
1.197281
 40
2.328483
 40
2.836637
 40
2.836637
 40
2.836637
 40
2.836637
 10
106.720352
 20
136.920191
 30
0.0
 10
106.704914
 20
136.519561
 30
0.0
 10
106.674890
 20
135.740412
 30
0.0
 10
106.381745
 20
134.832521
 30
0.0
 10
106.183211
 20
134.323909
 30
0.0
 10
106.121671
 20
134.166253
 30
0.0
 11
106.720352
 21
136.920191
 31
0.0
 11
106.618356
 21
135.727262
 31
0.0
 11
106.303493
 21
134.640765
 31
0.0
 11
106.121671
 21
134.166253
 31
0.0
  0
SPLINE
  5
146
100
AcDbEntity
  8
0
 62
5
100
AcDbSpline
 70
0
 71
3
 72
10
 73
6
 74
4
 40
0.000000
 40
0.000000
 40
0.000000
 40
0.000000
 40
0.168285
 40
0.650181
 40
1.455494
 40
1.455494
 40
1.455494
 40
1.455494
 10
109.434469
 20
148.869452
 30
0.0
 10
109.489742
 20
148.859468
 30
0.0
 10
109.703293
 20
148.820893
 30
0.0
 10
110.149586
 20
148.608055
 30
0.0
 10
110.475140
 20
148.326917
 30
0.0
 10
110.678815
 20
148.151030
 30
0.0
 11
109.434469
 21
148.869452
 31
0.0
 11
109.599338
 21
148.835714
 31
0.0
 11
110.040728
 21
148.642327
 31
0.0
 11
110.678815
 21
148.151030
 31
0.0
  0
SPLINE
  5
147
100
AcDbEntity
  8
0
 62
5
100
AcDbSpline
 70
0
 71
3
 72
10
 73
6
 74
4
 40
0.000000
 40
0.000000
 40
0.000000
 40
0.000000
 40
1.568774
 40
3.234019
 40
4.770415
 40
4.770415
 40
4.770415
 40
4.770415
 10
110.678815
 20
148.151030
 30
0.0
 10
110.972730
 20
147.718404
 30
0.0
 10
111.578634
 20
146.826549
 30
0.0
 10
112.394606
 20
145.460873
 30
0.0
 10
112.919006
 20
144.531431
 30
0.0
 10
113.170654
 20
144.085413
 30
0.0
 11
110.678815
 21
148.151030
 31
0.0
 11
111.548152
 21
146.845157
 31
0.0
 11
112.410360
 21
145.420503
 31
0.0
 11
113.170654
 21
144.085413
 31
0.0
  0
LWPOLYLINE
  5
148
100
AcDbEntity
  8
0
 62
5
100
AcDbPolyline
 90
4
 70
0
 10
106.959823
 20
156.796442
 30
0.0
 10
109.370300
 20
147.800414
 30
0.0
 10
109.697430
 20
147.888070
 30
0.0
 10
109.434469
 20
148.869452
 30
0.0
  0
LWPOLYLINE
  5
149
100
AcDbEntity
  8
0
 62
5
100
AcDbPolyline
 90
4
 70
0
 10
111.275199
 20
141.999760
 30
0.0
 10
111.012235
 20
142.981145
 30
0.0
 10
110.685109
 20
142.893490
 30
0.0
 10
111.342511
 20
140.440028
 30
0.0
  0
LWPOLYLINE
  5
14a
100
AcDbEntity
  8
0
 62
1
100
AcDbPolyline
 90
2
 70
0
 10
109.677090
 20
146.655467
 30
0.0
 10
110.378319
 20
144.038440
 30
0.0
  0
LWPOLYLINE
  5
14b
100
AcDbEntity
  8
0
 62
5
100
AcDbPolyline
 90
5
 70
0
 10
118.933471
 20
144.822798
 30
0.0
 10
115.580851
 20
143.864907
 30
0.0
 10
109.234819
 20
151.887249
 30
0.0
 10
109.354555
 20
154.401713
 30
0.0
 10
106.959826
 20
156.796442
 30
0.0
  0
LWPOLYLINE
  5
14c
100
AcDbEntity
  8
0
 62
5
100
AcDbPolyline
 90
4
 70
0
 10
118.334787
 20
146.139898
 30
0.0
 10
117.257161
 20
146.020162
 30
0.0
 10
112.946648
 20
150.330675
 30
0.0
 10
113.066384
 20
151.408303
 30
0.0
  0
LWPOLYLINE
  5
14d
100
AcDbEntity
  8
0
 62
1
100
AcDbPolyline
 90
2
 70
0
 10
118.933471
 20
144.822798
 30
0.0
 10
117.975580
 20
145.780688
 30
0.0
  0
LWPOLYLINE
  5
14e
100
AcDbEntity
  8
0
 62
1
100
AcDbPolyline
 90
2
 70
0
 10
109.354555
 20
154.401713
 30
0.0
 10
112.707174
 20
151.049094
 30
0.0
  0
SPLINE
  5
14f
100
AcDbEntity
  8
0
 62
5
100
AcDbSpline
 70
0
 71
3
 72
10
 73
6
 74
4
 40
0.000000
 40
0.000000
 40
0.000000
 40
0.000000
 40
1.197290
 40
2.328498
 40
2.836655
 40
2.836655
 40
2.836655
 40
2.836655
 10
113.170654
 20
144.085413
 30
0.0
 10
112.956967
 20
143.746173
 30
0.0
 10
112.541388
 20
143.086418
 30
0.0
 10
111.833567
 20
142.446730
 30
0.0
 10
111.407322
 20
142.105524
 30
0.0
 10
111.275199
 20
141.999760
 30
0.0
 11
113.170654
 21
144.085413
 31
0.0
 11
112.485852
 21
143.103297
 31
0.0
 11
111.669919
 21
142.319789
 31
0.0
 11
111.275199
 21
141.999760
 31
0.0
  0
SPLINE
  5
150
100
AcDbEntity
  8
0
 62
5
100
AcDbSpline
 70
0
 71
3
 72
10
 73
6
 74
4
 40
0.000000
 40
0.000000
 40
0.000000
 40
0.000000
 40
0.383748
 40
1.264635
 40
2.310847
 40
2.310847
 40
2.310847
 40
2.310847
 10
130.956053
 20
144.484046
 30
0.0
 10
130.932737
 20
144.358470
 30
0.0
 10
130.855902
 20
143.944635
 30
0.0
 10
130.610070
 20
143.197035
 30
0.0
 10
130.175810
 20
142.714184
 30
0.0
 10
129.940053
 20
142.452046
 30
0.0
 11
130.956053
 21
144.484046
 31
0.0
 11
130.880794
 21
144.107750
 31
0.0
 11
130.579757
 21
143.279898
 31
0.0
 11
129.940053
 21
142.452046
 31
0.0
  0
SPLINE
  5
151
100
AcDbEntity
  8
0
 62
5
100
AcDbSpline
 70
0
 71
3
 72
10
 73
6
 74
4
 40
0.000000
 40
0.000000
 40
0.000000
 40
0.000000
 40
1.754122
 40
3.597974
 40
5.352096
 40
5.352096
 40
5.352096
 40
5.352096
 10
129.940053
 20
142.452046
 30
0.0
 10
129.415558
 20
142.182457
 30
0.0
 10
128.339738
 20
141.629490
 30
0.0
 10
126.460368
 20
141.629490
 30
0.0
 10
125.384548
 20
142.182457
 30
0.0
 10
124.860053
 20
142.452046
 30
0.0
 11
129.940053
 21
142.452046
 31
0.0
 11
128.321979
 21
141.774713
 31
0.0
 11
126.478127
 21
141.774713
 31
0.0
 11
124.860053
 21
142.452046
 31
0.0
  0
LWPOLYLINE
  5
152
100
AcDbEntity
  8
0
 62
5
100
AcDbPolyline
 90
4
 70
0
 10
135.866719
 20
144.822713
 30
0.0
 10
129.940053
 20
144.822713
 30
0.0
 10
129.940053
 20
144.484046
 30
0.0
 10
130.956053
 20
144.484046
 30
0.0
  0
LWPOLYLINE
  5
153
100
AcDbEntity
  8
0
 62
5
100
AcDbPolyline
 90
4
 70
0
 10
123.844053
 20
144.484046
 30
0.0
 10
124.860053
 20
144.484046
 30
0.0
 10
124.860053
 20
144.822713
 30
0.0
 10
118.933386
 20
144.822713
 30
0.0
  0
LWPOLYLINE
  5
154
100
AcDbEntity
  8
0
 62
1
100
AcDbPolyline
 90
2
 70
0
 10
128.754719
 20
144.822713
 30
0.0
 10
126.045386
 20
144.822713
 30
0.0
  0
LWPOLYLINE
  5
155
100
AcDbEntity
  8
0
 62
5
100
AcDbPolyline
 90
4
 70
0
 10
135.866719
 20
144.822713
 30
0.0
 10
138.305292
 20
140.838458
 30
0.0
 10
148.119140
 20
138.208844
 30
0.0
 10
152.223134
 20
140.440025
 30
0.0
  0
LWPOLYLINE
  5
156
100
AcDbEntity
  8
0
 62
5
100
AcDbPolyline
 90
4
 70
0
 10
140.577996
 20
144.086254
 30
0.0
 10
141.013118
 20
143.093125
 30
0.0
 10
146.901428
 20
141.515356
 30
0.0
 10
147.774818
 20
142.157869
 30
0.0
  0
LWPOLYLINE
  5
157
100
AcDbEntity
  8
0
 62
1
100
AcDbPolyline
 90
2
 70
0
 10
135.866719
 20
144.822713
 30
0.0
 10
140.446514
 20
143.595560
 30
0.0
  0
LWPOLYLINE
  5
158
100
AcDbEntity
  8
0
 62
1
100
AcDbPolyline
 90
2
 70
0
 10
152.223134
 20
140.440025
 30
0.0
 10
147.643336
 20
141.667178
 30
0.0
  0
SPLINE
  5
159
100
AcDbEntity
  8
0
 62
5
100
AcDbSpline
 70
0
 71
3
 72
10
 73
6
 74
4
 40
0.000000
 40
0.000000
 40
0.000000
 40
0.000000
 40
1.046212
 40
1.927099
 40
2.310847
 40
2.310847
 40
2.310847
 40
2.310847
 10
124.860053
 20
142.452046
 30
0.0
 10
124.624295
 20
142.714184
 30
0.0
 10
124.190036
 20
143.197035
 30
0.0
 10
123.944204
 20
143.944635
 30
0.0
 10
123.867368
 20
144.358470
 30
0.0
 10
123.844053
 20
144.484046
 30
0.0
 11
124.860053
 21
142.452046
 31
0.0
 11
124.220349
 21
143.279898
 31
0.0
 11
123.919312
 21
144.107750
 31
0.0
 11
123.844053
 21
144.484046
 31
0.0
  0
SPLINE
  5
15a
100
AcDbEntity
  8
0
 62
5
100
AcDbSpline
 70
0
 71
3
 72
10
 73
6
 74
4
 40
0.000000
 40
0.000000
 40
0.000000
 40
0.000000
 40
0.168285
 40
0.650181
 40
1.455494
 40
1.455494
 40
1.455494
 40
1.455494
 10
150.315092
 20
148.869452
 30
0.0
 10
150.370365
 20
148.859468
 30
0.0
 10
150.583916
 20
148.820893
 30
0.0
 10
151.030208
 20
148.608055
 30
0.0
 10
151.355762
 20
148.326917
 30
0.0
 10
151.559438
 20
148.151030
 30
0.0
 11
150.315092
 21
148.869452
 31
0.0
 11
150.479960
 21
148.835714
 31
0.0
 11
150.921350
 21
148.642327
 31
0.0
 11
151.559438
 21
148.151030
 31
0.0
  0
SPLINE
  5
15b
100
AcDbEntity
  8
0
 62
5
100
AcDbSpline
 70
0
 71
3
 72
10
 73
6
 74
4
 40
0.000000
 40
0.000000
 40
0.000000
 40
0.000000
 40
1.568774
 40
3.234019
 40
4.770415
 40
4.770415
 40
4.770415
 40
4.770415
 10
151.559438
 20
148.151030
 30
0.0
 10
151.853353
 20
147.718404
 30
0.0
 10
152.459257
 20
146.826549
 30
0.0
 10
153.275229
 20
145.460873
 30
0.0
 10
153.799629
 20
144.531431
 30
0.0
 10
154.051277
 20
144.085413
 30
0.0
 11
151.559438
 21
148.151030
 31
0.0
 11
152.428775
 21
146.845157
 31
0.0
 11
153.290983
 21
145.420503
 31
0.0
 11
154.051277
 21
144.085413
 31
0.0
  0
LWPOLYLINE
  5
15c
100
AcDbEntity
  8
0
 62
5
100
AcDbPolyline
 90
4
 70
0
 10
147.840446
 20
156.796442
 30
0.0
 10
150.250923
 20
147.800414
 30
0.0
 10
150.578052
 20
147.888070
 30
0.0
 10
150.315092
 20
148.869452
 30
0.0
  0
LWPOLYLINE
  5
15d
100
AcDbEntity
  8
0
 62
5
100
AcDbPolyline
 90
4
 70
0
 10
152.155821
 20
141.999760
 30
0.0
 10
151.892858
 20
142.981145
 30
0.0
 10
151.565731
 20
142.893490
 30
0.0
 10
152.223134
 20
140.440028
 30
0.0
  0
LWPOLYLINE
  5
15e
100
AcDbEntity
  8
0
 62
1
100
AcDbPolyline
 90
2
 70
0
 10
150.557713
 20
146.655467
 30
0.0
 10
151.258942
 20
144.038440
 30
0.0
  0
LWPOLYLINE
  5
15f
100
AcDbEntity
  8
0
 62
5
100
AcDbPolyline
 90
5
 70
0
 10
159.814178
 20
144.822713
 30
0.0
 10
156.461533
 20
143.864814
 30
0.0
 10
150.115456
 20
151.887212
 30
0.0
 10
150.235195
 20
154.401696
 30
0.0
 10
147.840449
 20
156.796442
 30
0.0
  0
LWPOLYLINE
  5
160
100
AcDbEntity
  8
0
 62
5
100
AcDbPolyline
 90
4
 70
0
 10
159.215492
 20
146.139824
 30
0.0
 10
158.137857
 20
146.020086
 30
0.0
 10
153.827313
 20
150.330629
 30
0.0
 10
153.947052
 20
151.408264
 30
0.0
  0
LWPOLYLINE
  5
161
100
AcDbEntity
  8
0
 62
1
100
AcDbPolyline
 90
2
 70
0
 10
159.814178
 20
144.822713
 30
0.0
 10
158.856279
 20
145.780612
 30
0.0
  0
LWPOLYLINE
  5
162
100
AcDbEntity
  8
0
 62
1
100
AcDbPolyline
 90
2
 70
0
 10
150.235195
 20
154.401696
 30
0.0
 10
153.587839
 20
151.049052
 30
0.0
  0
SPLINE
  5
163
100
AcDbEntity
  8
0
 62
5
100
AcDbSpline
 70
0
 71
3
 72
10
 73
6
 74
4
 40
0.000000
 40
0.000000
 40
0.000000
 40
0.000000
 40
1.197290
 40
2.328498
 40
2.836655
 40
2.836655
 40
2.836655
 40
2.836655
 10
154.051277
 20
144.085413
 30
0.0
 10
153.837590
 20
143.746173
 30
0.0
 10
153.422011
 20
143.086418
 30
0.0
 10
152.714190
 20
142.446730
 30
0.0
 10
152.287945
 20
142.105524
 30
0.0
 10
152.155821
 20
141.999760
 30
0.0
 11
154.051277
 21
144.085413
 31
0.0
 11
153.366475
 21
143.103297
 31
0.0
 11
152.550542
 21
142.319789
 31
0.0
 11
152.155821
 21
141.999760
 31
0.0
  0
SPLINE
  5
164
100
AcDbEntity
  8
0
 62
5
100
AcDbSpline
 70
0
 71
3
 72
10
 73
6
 74
4
 40
0.000000
 40
0.000000
 40
0.000000
 40
0.000000
 40
0.383748
 40
1.264635
 40
2.310847
 40
2.310847
 40
2.310847
 40
2.310847
 10
171.836845
 20
144.484046
 30
0.0
 10
171.813529
 20
144.358470
 30
0.0
 10
171.736694
 20
143.944635
 30
0.0
 10
171.490862
 20
143.197035
 30
0.0
 10
171.056602
 20
142.714184
 30
0.0
 10
170.820845
 20
142.452046
 30
0.0
 11
171.836845
 21
144.484046
 31
0.0
 11
171.761586
 21
144.107750
 31
0.0
 11
171.460549
 21
143.279898
 31
0.0
 11
170.820845
 21
142.452046
 31
0.0
  0
SPLINE
  5
165
100
AcDbEntity
  8
0
 62
5
100
AcDbSpline
 70
0
 71
3
 72
10
 73
6
 74
4
 40
0.000000
 40
0.000000
 40
0.000000
 40
0.000000
 40
1.754122
 40
3.597974
 40
5.352096
 40
5.352096
 40
5.352096
 40
5.352096
 10
170.820845
 20
142.452046
 30
0.0
 10
170.296350
 20
142.182457
 30
0.0
 10
169.220530
 20
141.629490
 30
0.0
 10
167.341160
 20
141.629490
 30
0.0
 10
166.265340
 20
142.182457
 30
0.0
 10
165.740845
 20
142.452046
 30
0.0
 11
170.820845
 21
142.452046
 31
0.0
 11
169.202771
 21
141.774713
 31
0.0
 11
167.358919
 21
141.774713
 31
0.0
 11
165.740845
 21
142.452046
 31
0.0
  0
LWPOLYLINE
  5
166
100
AcDbEntity
  8
0
 62
5
100
AcDbPolyline
 90
4
 70
0
 10
176.747511
 20
144.822713
 30
0.0
 10
170.820845
 20
144.822713
 30
0.0
 10
170.820845
 20
144.484046
 30
0.0
 10
171.836845
 20
144.484046
 30
0.0
  0
LWPOLYLINE
  5
167
100
AcDbEntity
  8
0
 62
5
100
AcDbPolyline
 90
4
 70
0
 10
164.724845
 20
144.484046
 30
0.0
 10
165.740845
 20
144.484046
 30
0.0
 10
165.740845
 20
144.822713
 30
0.0
 10
159.814178
 20
144.822713
 30
0.0
  0
LWPOLYLINE
  5
168
100
AcDbEntity
  8
0
 62
1
100
AcDbPolyline
 90
2
 70
0
 10
169.635511
 20
144.822713
 30
0.0
 10
166.926178
 20
144.822713
 30
0.0
  0
LWPOLYLINE
  5
169
100
AcDbEntity
  8
0
 62
5
100
AcDbPolyline
 90
4
 70
0
 10
176.747511
 20
144.822713
 30
0.0
 10
179.186061
 20
140.838494
 30
0.0
 10
188.999814
 20
138.208908
 30
0.0
 10
193.103768
 20
140.440067
 30
0.0
  0
LWPOLYLINE
  5
16a
100
AcDbEntity
  8
0
 62
5
100
AcDbPolyline
 90
4
 70
0
 10
181.458743
 20
144.086260
 30
0.0
 10
181.893859
 20
143.093142
 30
0.0
 10
187.782113
 20
141.515390
 30
0.0
 10
188.655494
 20
142.157894
 30
0.0
  0
LWPOLYLINE
  5
16b
100
AcDbEntity
  8
0
 62
1
100
AcDbPolyline
 90
2
 70
0
 10
176.747511
 20
144.822713
 30
0.0
 10
181.327264
 20
143.595571
 30
0.0
  0
LWPOLYLINE
  5
16c
100
AcDbEntity
  8
0
 62
1
100
AcDbPolyline
 90
2
 70
0
 10
193.103768
 20
140.440067
 30
0.0
 10
188.524015
 20
141.667209
 30
0.0
  0
SPLINE
  5
16d
100
AcDbEntity
  8
0
 62
5
100
AcDbSpline
 70
0
 71
3
 72
10
 73
6
 74
4
 40
0.000000
 40
0.000000
 40
0.000000
 40
0.000000
 40
1.046212
 40
1.927099
 40
2.310847
 40
2.310847
 40
2.310847
 40
2.310847
 10
165.740845
 20
142.452046
 30
0.0
 10
165.505087
 20
142.714184
 30
0.0
 10
165.070828
 20
143.197035
 30
0.0
 10
164.824996
 20
143.944635
 30
0.0
 10
164.748160
 20
144.358470
 30
0.0
 10
164.724845
 20
144.484046
 30
0.0
 11
165.740845
 21
142.452046
 31
0.0
 11
165.101141
 21
143.279898
 31
0.0
 11
164.800104
 21
144.107750
 31
0.0
 11
164.724845
 21
144.484046
 31
0.0
  0
SPLINE
  5
16e
100
AcDbEntity
  8
0
 62
5
100
AcDbSpline
 70
0
 71
3
 72
10
 73
6
 74
4
 40
0.000000
 40
0.000000
 40
0.000000
 40
0.000000
 40
0.383750
 40
1.264639
 40
2.310855
 40
2.310855
 40
2.310855
 40
2.310855
 10
190.319177
 20
152.140735
 30
0.0
 10
190.446510
 20
152.150716
 30
0.0
 10
190.866131
 20
152.183607
 30
0.0
 10
191.651886
 20
152.139645
 30
0.0
 10
192.230681
 20
151.845152
 30
0.0
 10
192.544906
 20
151.685274
 30
0.0
 11
190.319177
 21
152.140735
 31
0.0
 11
190.702131
 21
152.165433
 31
0.0
 11
191.579692
 21
152.088917
 31
0.0
 11
192.544906
 21
151.685274
 31
0.0
  0
SPLINE
  5
16f
100
AcDbEntity
  8
0
 62
5
100
AcDbSpline
 70
0
 71
3
 72
10
 73
6
 74
4
 40
0.000000
 40
0.000000
 40
0.000000
 40
0.000000
 40
1.754130
 40
3.597990
 40
5.352120
 40
5.352120
 40
5.352120
 40
5.352120
 10
192.544906
 20
151.685274
 30
0.0
 10
192.941060
 20
151.248423
 30
0.0
 10
193.753633
 20
150.352376
 30
0.0
 10
194.240052
 20
148.537036
 30
0.0
 10
193.984368
 20
147.354750
 30
0.0
 10
193.859714
 20
146.778349
 30
0.0
 11
192.544906
 21
151.685274
 31
0.0
 11
193.617954
 21
150.297635
 31
0.0
 11
194.095180
 21
148.516603
 31
0.0
 11
193.859714
 21
146.778349
 31
0.0
  0
LWPOLYLINE
  5
170
100
AcDbEntity
  8
0
 62
5
100
AcDbPolyline
 90
4
 70
0
 10
188.721069
 20
156.796442
 30
0.0
 10
190.255009
 20
151.071697
 30
0.0
 10
190.582138
 20
151.159350
 30
0.0
 10
190.319177
 20
152.140735
 30
0.0
  0
LWPOLYLINE
  5
171
100
AcDbEntity
  8
0
 62
5
100
AcDbPolyline
 90
4
 70
0
 10
192.159904
 20
145.271043
 30
0.0
 10
191.896944
 20
146.252428
 30
0.0
 10
191.569817
 20
146.164773
 30
0.0
 10
193.103757
 20
140.440028
 30
0.0
  0
LWPOLYLINE
  5
172
100
AcDbEntity
  8
0
 62
1
100
AcDbPolyline
 90
2
 70
0
 10
190.561798
 20
149.926747
 30
0.0
 10
191.263027
 20
147.309723
 30
0.0
  0
LWPOLYLINE
  5
173
100
AcDbEntity
  8
0
 62
5
100
AcDbPolyline
 90
4
 70
0
 10
188.721071
 20
173.729776
 30
0.0
 10
191.938405
 20
170.343109
 30
0.0
 10
191.938405
 20
160.183109
 30
0.0
 10
188.721071
 20
156.796442
 30
0.0
  0
LWPOLYLINE
  5
174
100
AcDbEntity
  8
0
 62
5
100
AcDbPolyline
 90
4
 70
0
 10
188.213071
 20
168.988442
 30
0.0
 10
189.059738
 20
168.311109
 30
0.0
 10
189.059738
 20
162.215109
 30
0.0
 10
188.213071
 20
161.537776
 30
0.0
  0
LWPOLYLINE
  5
175
100
AcDbEntity
  8
0
 62
1
100
AcDbPolyline
 90
2
 70
0
 10
188.721071
 20
173.729776
 30
0.0
 10
188.721071
 20
168.988442
 30
0.0
  0
LWPOLYLINE
  5
176
100
AcDbEntity
  8
0
 62
1
100
AcDbPolyline
 90
2
 70
0
 10
188.721071
 20
156.796442
 30
0.0
 10
188.721071
 20
161.537776
 30
0.0
  0
SPLINE
  5
177
100
AcDbEntity
  8
0
 62
5
100
AcDbSpline
 70
0
 71
3
 72
10
 73
6
 74
4
 40
0.000000
 40
0.000000
 40
0.000000
 40
0.000000
 40
1.046217
 40
1.927108
 40
2.310858
 40
2.310858
 40
2.310858
 40
2.310858
 10
193.859714
 20
146.778349
 30
0.0
 10
193.667527
 20
146.482777
 30
0.0
 10
193.313521
 20
145.938341
 30
0.0
 10
192.655017
 20
145.507392
 30
0.0
 10
192.275168
 20
145.326065
 30
0.0
 10
192.159904
 20
145.271043
 30
0.0
 11
193.859714
 21
146.778349
 31
0.0
 11
193.225635
 21
145.946175
 31
0.0
 11
192.503902
 21
145.441131
 31
0.0
 11
192.159904
 21
145.271043
 31
0.0
  0
SPLINE
  5
178
100
AcDbEntity
  8
0
 62
5
100
AcDbSpline
 70
0
 71
3
 72
10
 73
6
 74
4
 40
0.000000
 40
0.000000
 40
0.000000
 40
0.000000
 40
0.383750
 40
1.264639
 40
2.310855
 40
2.310855
 40
2.310855
 40
2.310855
 10
190.319180
 20
178.385483
 30
0.0
 10
190.446513
 20
178.375502
 30
0.0
 10
190.866134
 20
178.342611
 30
0.0
 10
191.651889
 20
178.386573
 30
0.0
 10
192.230684
 20
178.681066
 30
0.0
 10
192.544909
 20
178.840944
 30
0.0
 11
190.319180
 21
178.385483
 31
0.0
 11
190.702134
 21
178.360785
 31
0.0
 11
191.579695
 21
178.437300
 31
0.0
 11
192.544909
 21
178.840944
 31
0.0
  0
SPLINE
  5
179
100
AcDbEntity
  8
0
 62
5
100
AcDbSpline
 70
0
 71
3
 72
10
 73
6
 74
4
 40
0.000000
 40
0.000000
 40
0.000000
 40
0.000000
 40
1.754130
 40
3.597990
 40
5.352120
 40
5.352120
 40
5.352120
 40
5.352120
 10
192.544909
 20
178.840944
 30
0.0
 10
192.941063
 20
179.277794
 30
0.0
 10
193.753636
 20
180.173841
 30
0.0
 10
194.240055
 20
181.989182
 30
0.0
 10
193.984371
 20
183.171468
 30
0.0
 10
193.859717
 20
183.747869
 30
0.0
 11
192.544909
 21
178.840944
 31
0.0
 11
193.617957
 21
180.228583
 31
0.0
 11
194.095183
 21
182.009614
 31
0.0
 11
193.859717
 21
183.747869
 31
0.0
  0
LWPOLYLINE
  5
17a
100
AcDbEntity
  8
0
 62
5
100
AcDbPolyline
 90
4
 70
0
 10
188.721071
 20
173.729776
 30
0.0
 10
190.255011
 20
179.454521
 30
0.0
 10
190.582141
 20
179.366868
 30
0.0
 10
190.319180
 20
178.385483
 30
0.0
  0
LWPOLYLINE
  5
17b
100
AcDbEntity
  8
0
 62
5
100
AcDbPolyline
 90
4
 70
0
 10
192.159907
 20
185.255175
 30
0.0
 10
191.896946
 20
184.273790
 30
0.0
 10
191.569820
 20
184.361445
 30
0.0
 10
193.103760
 20
190.086190
 30
0.0
  0
LWPOLYLINE
  5
17c
100
AcDbEntity
  8
0
 62
1
100
AcDbPolyline
 90
2
 70
0
 10
190.561801
 20
180.599471
 30
0.0
 10
191.263030
 20
183.216495
 30
0.0
  0
LWPOLYLINE
  5
17d
100
AcDbEntity
  8
0
 62
5
100
AcDbPolyline
 90
4
 70
0
 10
176.747500
 20
185.703544
 30
0.0
 10
179.186050
 20
189.687763
 30
0.0
 10
188.999803
 20
192.317349
 30
0.0
 10
193.103757
 20
190.086190
 30
0.0
  0
LWPOLYLINE
  5
17e
100
AcDbEntity
  8
0
 62
5
100
AcDbPolyline
 90
4
 70
0
 10
181.458732
 20
186.439998
 30
0.0
 10
181.893848
 20
187.433115
 30
0.0
 10
187.782101
 20
189.010867
 30
0.0
 10
188.655483
 20
188.368363
 30
0.0
  0
LWPOLYLINE
  5
17f
100
AcDbEntity
  8
0
 62
1
100
AcDbPolyline
 90
2
 70
0
 10
176.747500
 20
185.703544
 30
0.0
 10
181.327253
 20
186.930686
 30
0.0
  0
LWPOLYLINE
  5
180
100
AcDbEntity
  8
0
 62
1
100
AcDbPolyline
 90
2
 70
0
 10
193.103757
 20
190.086190
 30
0.0
 10
188.524004
 20
188.859048
 30
0.0
  0
SPLINE
  5
181
100
AcDbEntity
  8
0
 62
5
100
AcDbSpline
 70
0
 71
3
 72
10
 73
6
 74
4
 40
0.000000
 40
0.000000
 40
0.000000
 40
0.000000
 40
1.046217
 40
1.927108
 40
2.310858
 40
2.310858
 40
2.310858
 40
2.310858
 10
193.859717
 20
183.747869
 30
0.0
 10
193.667530
 20
184.043440
 30
0.0
 10
193.313524
 20
184.587877
 30
0.0
 10
192.655020
 20
185.018826
 30
0.0
 10
192.275171
 20
185.200152
 30
0.0
 10
192.159907
 20
185.255175
 30
0.0
 11
193.859717
 21
183.747869
 31
0.0
 11
193.225638
 21
184.580042
 31
0.0
 11
192.503905
 21
185.085087
 31
0.0
 11
192.159907
 21
185.255175
 31
0.0
  0
SPLINE
  5
182
100
AcDbEntity
  8
0
 62
5
100
AcDbSpline
 70
0
 71
3
 72
10
 73
6
 74
4
 40
0.000000
 40
0.000000
 40
0.000000
 40
0.000000
 40
0.383748
 40
1.264635
 40
2.310847
 40
2.310847
 40
2.310847
 40
2.310847
 10
171.836845
 20
186.042172
 30
0.0
 10
171.813529
 20
186.167748
 30
0.0
 10
171.736694
 20
186.581583
 30
0.0
 10
171.490862
 20
187.329183
 30
0.0
 10
171.056602
 20
187.812034
 30
0.0
 10
170.820845
 20
188.074172
 30
0.0
 11
171.836845
 21
186.042172
 31
0.0
 11
171.761586
 21
186.418468
 31
0.0
 11
171.460549
 21
187.246320
 31
0.0
 11
170.820845
 21
188.074172
 31
0.0
  0
SPLINE
  5
183
100
AcDbEntity
  8
0
 62
5
100
AcDbSpline
 70
0
 71
3
 72
10
 73
6
 74
4
 40
0.000000
 40
0.000000
 40
0.000000
 40
0.000000
 40
1.754122
 40
3.597974
 40
5.352096
 40
5.352096
 40
5.352096
 40
5.352096
 10
170.820845
 20
188.074172
 30
0.0
 10
170.296350
 20
188.343760
 30
0.0
 10
169.220530
 20
188.896728
 30
0.0
 10
167.341160
 20
188.896728
 30
0.0
 10
166.265340
 20
188.343760
 30
0.0
 10
165.740845
 20
188.074172
 30
0.0
 11
170.820845
 21
188.074172
 31
0.0
 11
169.202771
 21
188.751505
 31
0.0
 11
167.358919
 21
188.751505
 31
0.0
 11
165.740845
 21
188.074172
 31
0.0
  0
LWPOLYLINE
  5
184
100
AcDbEntity
  8
0
 62
5
100
AcDbPolyline
 90
4
 70
0
 10
176.747511
 20
185.703505
 30
0.0
 10
170.820845
 20
185.703505
 30
0.0
 10
170.820845
 20
186.042172
 30
0.0
 10
171.836845
 20
186.042172
 30
0.0
  0
LWPOLYLINE
  5
185
100
AcDbEntity
  8
0
 62
5
100
AcDbPolyline
 90
4
 70
0
 10
164.724845
 20
186.042172
 30
0.0
 10
165.740845
 20
186.042172
 30
0.0
 10
165.740845
 20
185.703505
 30
0.0
 10
159.814178
 20
185.703505
 30
0.0
  0
LWPOLYLINE
  5
186
100
AcDbEntity
  8
0
 62
1
100
AcDbPolyline
 90
2
 70
0
 10
169.635511
 20
185.703505
 30
0.0
 10
166.926178
 20
185.703505
 30
0.0
  0
LWPOLYLINE
  5
187
100
AcDbEntity
  8
0
 62
5
100
AcDbPolyline
 90
5
 70
0
 10
159.814178
 20
185.703505
 30
0.0
 10
156.461533
 20
186.661404
 30
0.0
 10
150.115456
 20
178.639006
 30
0.0
 10
150.235195
 20
176.124521
 30
0.0
 10
147.840449
 20
173.729776
 30
0.0
  0
LWPOLYLINE
  5
188
100
AcDbEntity
  8
0
 62
5
100
AcDbPolyline
 90
4
 70
0
 10
159.215492
 20
184.386393
 30
0.0
 10
158.137857
 20
184.506132
 30
0.0
 10
153.827313
 20
180.195588
 30
0.0
 10
153.947052
 20
179.117954
 30
0.0
  0
LWPOLYLINE
  5
189
100
AcDbEntity
  8
0
 62
1
100
AcDbPolyline
 90
2
 70
0
 10
159.814178
 20
185.703505
 30
0.0
 10
158.856279
 20
184.745606
 30
0.0
  0
LWPOLYLINE
  5
18a
100
AcDbEntity
  8
0
 62
1
100
AcDbPolyline
 90
2
 70
0
 10
150.235195
 20
176.124521
 30
0.0
 10
153.587839
 20
179.477166
 30
0.0
  0
SPLINE
  5
18b
100
AcDbEntity
  8
0
 62
5
100
AcDbSpline
 70
0
 71
3
 72
10
 73
6
 74
4
 40
0.000000
 40
0.000000
 40
0.000000
 40
0.000000
 40
1.046212
 40
1.927099
 40
2.310847
 40
2.310847
 40
2.310847
 40
2.310847
 10
165.740845
 20
188.074172
 30
0.0
 10
165.505087
 20
187.812034
 30
0.0
 10
165.070828
 20
187.329183
 30
0.0
 10
164.824996
 20
186.581583
 30
0.0
 10
164.748160
 20
186.167748
 30
0.0
 10
164.724845
 20
186.042172
 30
0.0
 11
165.740845
 21
188.074172
 31
0.0
 11
165.101141
 21
187.246320
 31
0.0
 11
164.800104
 21
186.418468
 31
0.0
 11
164.724845
 21
186.042172
 31
0.0
  0
SPLINE
  5
18c
100
AcDbEntity
  8
0
 62
5
100
AcDbSpline
 70
0
 71
3
 72
10
 73
6
 74
4
 40
0.000000
 40
0.000000
 40
0.000000
 40
0.000000
 40
0.168285
 40
0.650181
 40
1.455494
 40
1.455494
 40
1.455494
 40
1.455494
 10
150.315095
 20
181.656766
 30
0.0
 10
150.370368
 20
181.666750
 30
0.0
 10
150.583919
 20
181.705324
 30
0.0
 10
151.030211
 20
181.918162
 30
0.0
 10
151.355765
 20
182.199300
 30
0.0
 10
151.559441
 20
182.375188
 30
0.0
 11
150.315095
 21
181.656766
 31
0.0
 11
150.479963
 21
181.690503
 31
0.0
 11
150.921353
 21
181.883890
 31
0.0
 11
151.559441
 21
182.375188
 31
0.0
  0
SPLINE
  5
18d
100
AcDbEntity
  8
0
 62
5
100
AcDbSpline
 70
0
 71
3
 72
10
 73
6
 74
4
 40
0.000000
 40
0.000000
 40
0.000000
 40
0.000000
 40
1.568774
 40
3.234019
 40
4.770415
 40
4.770415
 40
4.770415
 40
4.770415
 10
151.559441
 20
182.375188
 30
0.0
 10
151.853356
 20
182.807813
 30
0.0
 10
152.459260
 20
183.699669
 30
0.0
 10
153.275232
 20
185.065345
 30
0.0
 10
153.799632
 20
185.994786
 30
0.0
 10
154.051279
 20
186.440805
 30
0.0
 11
151.559441
 21
182.375188
 31
0.0
 11
152.428778
 21
183.681060
 31
0.0
 11
153.290985
 21
185.105715
 31
0.0
 11
154.051279
 21
186.440805
 31
0.0
  0
LWPOLYLINE
  5
18e
100
AcDbEntity
  8
0
 62
5
100
AcDbPolyline
 90
4
 70
0
 10
147.840449
 20
173.729776
 30
0.0
 10
150.250926
 20
182.725804
 30
0.0
 10
150.578055
 20
182.638148
 30
0.0
 10
150.315095
 20
181.656766
 30
0.0
  0
LWPOLYLINE
  5
18f
100
AcDbEntity
  8
0
 62
5
100
AcDbPolyline
 90
4
 70
0
 10
152.155824
 20
188.526458
 30
0.0
 10
151.892861
 20
187.545073
 30
0.0
 10
151.565734
 20
187.632728
 30
0.0
 10
152.223137
 20
190.086190
 30
0.0
  0
LWPOLYLINE
  5
190
100
AcDbEntity
  8
0
 62
1
100
AcDbPolyline
 90
2
 70
0
 10
150.557715
 20
183.870751
 30
0.0
 10
151.258945
 20
186.487778
 30
0.0
  0
LWPOLYLINE
  5
191
100
AcDbEntity
  8
0
 62
5
100
AcDbPolyline
 90
4
 70
0
 10
135.866719
 20
185.703502
 30
0.0
 10
138.305292
 20
189.687757
 30
0.0
 10
148.119140
 20
192.317371
 30
0.0
 10
152.223134
 20
190.086190
 30
0.0
  0
LWPOLYLINE
  5
192
100
AcDbEntity
  8
0
 62
5
100
AcDbPolyline
 90
4
 70
0
 10
140.577996
 20
186.439961
 30
0.0
 10
141.013118
 20
187.433090
 30
0.0
 10
146.901428
 20
189.010859
 30
0.0
 10
147.774818
 20
188.368346
 30
0.0
  0
LWPOLYLINE
  5
193
100
AcDbEntity
  8
0
 62
1
100
AcDbPolyline
 90
2
 70
0
 10
135.866719
 20
185.703502
 30
0.0
 10
140.446514
 20
186.930655
 30
0.0
  0
LWPOLYLINE
  5
194
100
AcDbEntity
  8
0
 62
1
100
AcDbPolyline
 90
2
 70
0
 10
152.223134
 20
190.086190
 30
0.0
 10
147.643336
 20
188.859037
 30
0.0
  0
SPLINE
  5
195
100
AcDbEntity
  8
0
 62
5
100
AcDbSpline
 70
0
 71
3
 72
10
 73
6
 74
4
 40
0.000000
 40
0.000000
 40
0.000000
 40
0.000000
 40
1.197290
 40
2.328498
 40
2.836655
 40
2.836655
 40
2.836655
 40
2.836655
 10
154.051279
 20
186.440805
 30
0.0
 10
153.837593
 20
186.780044
 30
0.0
 10
153.422013
 20
187.439800
 30
0.0
 10
152.714192
 20
188.079487
 30
0.0
 10
152.287948
 20
188.420694
 30
0.0
 10
152.155824
 20
188.526458
 30
0.0
 11
154.051279
 21
186.440805
 31
0.0
 11
153.366478
 21
187.422920
 31
0.0
 11
152.550545
 21
188.206428
 31
0.0
 11
152.155824
 21
188.526458
 31
0.0
  0
SPLINE
  5
196
100
AcDbEntity
  8
0
 62
5
100
AcDbSpline
 70
0
 71
3
 72
10
 73
6
 74
4
 40
0.000000
 40
0.000000
 40
0.000000
 40
0.000000
 40
0.383748
 40
1.264635
 40
2.310847
 40
2.310847
 40
2.310847
 40
2.310847
 10
130.956053
 20
186.042172
 30
0.0
 10
130.932737
 20
186.167748
 30
0.0
 10
130.855902
 20
186.581583
 30
0.0
 10
130.610070
 20
187.329183
 30
0.0
 10
130.175810
 20
187.812034
 30
0.0
 10
129.940053
 20
188.074172
 30
0.0
 11
130.956053
 21
186.042172
 31
0.0
 11
130.880794
 21
186.418468
 31
0.0
 11
130.579757
 21
187.246320
 31
0.0
 11
129.940053
 21
188.074172
 31
0.0
  0
SPLINE
  5
197
100
AcDbEntity
  8
0
 62
5
100
AcDbSpline
 70
0
 71
3
 72
10
 73
6
 74
4
 40
0.000000
 40
0.000000
 40
0.000000
 40
0.000000
 40
1.754122
 40
3.597974
 40
5.352096
 40
5.352096
 40
5.352096
 40
5.352096
 10
129.940053
 20
188.074172
 30
0.0
 10
129.415558
 20
188.343760
 30
0.0
 10
128.339738
 20
188.896728
 30
0.0
 10
126.460368
 20
188.896728
 30
0.0
 10
125.384548
 20
188.343760
 30
0.0
 10
124.860053
 20
188.074172
 30
0.0
 11
129.940053
 21
188.074172
 31
0.0
 11
128.321979
 21
188.751505
 31
0.0
 11
126.478127
 21
188.751505
 31
0.0
 11
124.860053
 21
188.074172
 31
0.0
  0
LWPOLYLINE
  5
198
100
AcDbEntity
  8
0
 62
5
100
AcDbPolyline
 90
4
 70
0
 10
135.866719
 20
185.703505
 30
0.0
 10
129.940053
 20
185.703505
 30
0.0
 10
129.940053
 20
186.042172
 30
0.0
 10
130.956053
 20
186.042172
 30
0.0
  0
LWPOLYLINE
  5
199
100
AcDbEntity
  8
0
 62
5
100
AcDbPolyline
 90
4
 70
0
 10
123.844053
 20
186.042172
 30
0.0
 10
124.860053
 20
186.042172
 30
0.0
 10
124.860053
 20
185.703505
 30
0.0
 10
118.933386
 20
185.703505
 30
0.0
  0
LWPOLYLINE
  5
19a
100
AcDbEntity
  8
0
 62
1
100
AcDbPolyline
 90
2
 70
0
 10
128.754719
 20
185.703505
 30
0.0
 10
126.045386
 20
185.703505
 30
0.0
  0
LWPOLYLINE
  5
19b
100
AcDbEntity
  8
0
 62
5
100
AcDbPolyline
 90
5
 70
0
 10
118.933386
 20
185.703505
 30
0.0
 10
115.580767
 20
186.661395
 30
0.0
 10
109.234735
 20
178.639054
 30
0.0
 10
109.354470
 20
176.124589
 30
0.0
 10
106.959741
 20
173.729860
 30
0.0
  0
LWPOLYLINE
  5
19c
100
AcDbEntity
  8
0
 62
5
100
AcDbPolyline
 90
4
 70
0
 10
118.334703
 20
184.386405
 30
0.0
 10
117.257076
 20
184.506140
 30
0.0
 10
112.946564
 20
180.195628
 30
0.0
 10
113.066299
 20
179.118002
 30
0.0
  0
LWPOLYLINE
  5
19d
100
AcDbEntity
  8
0
 62
1
100
AcDbPolyline
 90
2
 70
0
 10
118.933386
 20
185.703505
 30
0.0
 10
117.975496
 20
184.745614
 30
0.0
  0
LWPOLYLINE
  5
19e
100
AcDbEntity
  8
0
 62
1
100
AcDbPolyline
 90
2
 70
0
 10
109.354470
 20
176.124589
 30
0.0
 10
112.707090
 20
179.477208
 30
0.0
  0
SPLINE
  5
19f
100
AcDbEntity
  8
0
 62
5
100
AcDbSpline
 70
0
 71
3
 72
10
 73
6
 74
4
 40
0.000000
 40
0.000000
 40
0.000000
 40
0.000000
 40
1.046212
 40
1.927099
 40
2.310847
 40
2.310847
 40
2.310847
 40
2.310847
 10
124.860053
 20
188.074172
 30
0.0
 10
124.624295
 20
187.812034
 30
0.0
 10
124.190036
 20
187.329183
 30
0.0
 10
123.944204
 20
186.581583
 30
0.0
 10
123.867368
 20
186.167748
 30
0.0
 10
123.844053
 20
186.042172
 30
0.0
 11
124.860053
 21
188.074172
 31
0.0
 11
124.220349
 21
187.246320
 31
0.0
 11
123.919312
 21
186.418468
 31
0.0
 11
123.844053
 21
186.042172
 31
0.0
  0
SPLINE
  5
1a0
100
AcDbEntity
  8
0
 62
5
100
AcDbSpline
 70
0
 71
3
 72
10
 73
6
 74
4
 40
0.000000
 40
0.000000
 40
0.000000
 40
0.000000
 40
0.168285
 40
0.650181
 40
1.455494
 40
1.455494
 40
1.455494
 40
1.455494
 10
109.434472
 20
181.656766
 30
0.0
 10
109.489745
 20
181.666750
 30
0.0
 10
109.703296
 20
181.705324
 30
0.0
 10
110.149588
 20
181.918162
 30
0.0
 10
110.475143
 20
182.199300
 30
0.0
 10
110.678818
 20
182.375188
 30
0.0
 11
109.434472
 21
181.656766
 31
0.0
 11
109.599341
 21
181.690503
 31
0.0
 11
110.040730
 21
181.883890
 31
0.0
 11
110.678818
 21
182.375188
 31
0.0
  0
SPLINE
  5
1a1
100
AcDbEntity
  8
0
 62
5
100
AcDbSpline
 70
0
 71
3
 72
10
 73
6
 74
4
 40
0.000000
 40
0.000000
 40
0.000000
 40
0.000000
 40
1.568774
 40
3.234019
 40
4.770415
 40
4.770415
 40
4.770415
 40
4.770415
 10
110.678818
 20
182.375188
 30
0.0
 10
110.972733
 20
182.807813
 30
0.0
 10
111.578637
 20
183.699669
 30
0.0
 10
112.394609
 20
185.065345
 30
0.0
 10
112.919009
 20
185.994786
 30
0.0
 10
113.170657
 20
186.440805
 30
0.0
 11
110.678818
 21
182.375188
 31
0.0
 11
111.548155
 21
183.681060
 31
0.0
 11
112.410363
 21
185.105715
 31
0.0
 11
113.170657
 21
186.440805
 31
0.0
  0
LWPOLYLINE
  5
1a2
100
AcDbEntity
  8
0
 62
5
100
AcDbPolyline
 90
4
 70
0
 10
106.959826
 20
173.729776
 30
0.0
 10
109.370303
 20
182.725804
 30
0.0
 10
109.697433
 20
182.638148
 30
0.0
 10
109.434472
 20
181.656766
 30
0.0
  0
LWPOLYLINE
  5
1a3
100
AcDbEntity
  8
0
 62
5
100
AcDbPolyline
 90
4
 70
0
 10
111.275201
 20
188.526458
 30
0.0
 10
111.012238
 20
187.545073
 30
0.0
 10
110.685112
 20
187.632728
 30
0.0
 10
111.342514
 20
190.086190
 30
0.0
  0
LWPOLYLINE
  5
1a4
100
AcDbEntity
  8
0
 62
1
100
AcDbPolyline
 90
2
 70
0
 10
109.677093
 20
183.870751
 30
0.0
 10
110.378322
 20
186.487778
 30
0.0
  0
LWPOLYLINE
  5
1a5
100
AcDbEntity
  8
0
 62
5
100
AcDbPolyline
 90
5
 70
0
 10
111.342511
 20
190.086190
 30
0.0
 10
108.917986
 20
192.592075
 30
0.0
 10
99.410926
 20
188.817514
 30
0.0
 10
98.257380
 20
186.580039
 30
0.0
 10
94.986097
 20
185.703502
 30
0.0
  0
LWPOLYLINE
  5
1a6
100
AcDbEntity
  8
0
 62
5
100
AcDbPolyline
 90
4
 70
0
 10
110.165478
 20
189.244883
 30
0.0
 10
109.292088
 20
189.887396
 30
0.0
 10
103.403778
 20
188.309627
 30
0.0
 10
102.968656
 20
187.316501
 30
0.0
  0
LWPOLYLINE
  5
1a7
100
AcDbEntity
  8
0
 62
1
100
AcDbPolyline
 90
2
 70
0
 10
111.342511
 20
190.086190
 30
0.0
 10
110.033997
 20
189.735574
 30
0.0
  0
LWPOLYLINE
  5
1a8
100
AcDbEntity
  8
0
 62
1
100
AcDbPolyline
 90
2
 70
0
 10
98.257380
 20
186.580039
 30
0.0
 10
102.837175
 20
187.807192
 30
0.0
  0
SPLINE
  5
1a9
100
AcDbEntity
  8
0
 62
5
100
AcDbSpline
 70
0
 71
3
 72
10
 73
6
 74
4
 40
0.000000
 40
0.000000
 40
0.000000
 40
0.000000
 40
1.197290
 40
2.328498
 40
2.836655
 40
2.836655
 40
2.836655
 40
2.836655
 10
113.170657
 20
186.440805
 30
0.0
 10
112.956970
 20
186.780044
 30
0.0
 10
112.541391
 20
187.439800
 30
0.0
 10
111.833570
 20
188.079487
 30
0.0
 10
111.407325
 20
188.420694
 30
0.0
 10
111.275201
 20
188.526458
 30
0.0
 11
113.170657
 21
186.440805
 31
0.0
 11
112.485855
 21
187.422920
 31
0.0
 11
111.669922
 21
188.206428
 31
0.0
 11
111.275201
 21
188.526458
 31
0.0
  0
SPLINE
  5
1aa
100
AcDbEntity
  8
0
 62
5
100
AcDbSpline
 70
0
 71
3
 72
10
 73
6
 74
4
 40
0.000000
 40
0.000000
 40
0.000000
 40
0.000000
 40
0.168285
 40
0.650179
 40
1.455486
 40
1.455486
 40
1.455486
 40
1.455486
 10
101.092655
 20
191.331118
 30
0.0
 10
101.145515
 20
191.312128
 30
0.0
 10
101.349742
 20
191.238760
 30
0.0
 10
101.842659
 20
191.199938
 30
0.0
 10
102.265163
 20
191.280633
 30
0.0
 10
102.529493
 20
191.331118
 30
0.0
 11
101.092655
 21
191.331118
 31
0.0
 11
101.252304
 21
191.277902
 31
0.0
 11
101.731250
 21
191.224686
 31
0.0
 11
102.529493
 21
191.331118
 31
0.0
  0
SPLINE
  5
1ab
100
AcDbEntity
  8
0
 62
5
100
AcDbSpline
 70
0
 71
3
 72
10
 73
6
 74
4
 40
0.000000
 40
0.000000
 40
0.000000
 40
0.000000
 40
1.568762
 40
3.233996
 40
4.770381
 40
4.770381
 40
4.770381
 40
4.770381
 10
102.529493
 20
191.331118
 30
0.0
 10
103.000340
 20
191.558823
 30
0.0
 10
103.970989
 20
192.028238
 30
0.0
 10
105.360470
 20
192.802957
 30
0.0
 10
106.279328
 20
193.345673
 30
0.0
 10
106.720267
 20
193.606111
 30
0.0
 11
102.529493
 21
191.331118
 31
0.0
 11
103.935287
 21
192.027364
 31
0.0
 11
105.394297
 21
192.830041
 31
0.0
 11
106.720267
 21
193.606111
 31
0.0
  0
LWPOLYLINE
  5
1ac
100
AcDbEntity
  8
0
 62
5
100
AcDbPolyline
 90
4
 70
0
 10
94.986097
 20
185.703505
 30
0.0
 10
101.571603
 20
192.289011
 30
0.0
 10
101.811074
 20
192.049537
 30
0.0
 10
101.092655
 20
191.331118
 30
0.0
  0
LWPOLYLINE
  5
1ad
100
AcDbEntity
  8
0
 62
5
100
AcDbPolyline
 90
4
 70
0
 10
106.121587
 20
196.360049
 30
0.0
 10
105.403167
 20
195.641630
 30
0.0
 10
105.163696
 20
195.881104
 30
0.0
 10
106.959741
 20
197.677150
 30
0.0
  0
LWPOLYLINE
  5
1ae
100
AcDbEntity
  8
0
 62
1
100
AcDbPolyline
 90
2
 70
0
 10
102.409758
 20
193.127166
 30
0.0
 10
104.325539
 20
195.042947
 30
0.0
  0
LWPOLYLINE
  5
1af
100
AcDbEntity
  8
0
 62
5
100
AcDbPolyline
 90
4
 70
0
 10
106.959826
 20
214.610449
 30
0.0
 10
110.177168
 20
211.223771
 30
0.0
 10
110.177168
 20
201.063743
 30
0.0
 10
106.959826
 20
197.677065
 30
0.0
  0
LWPOLYLINE
  5
1b0
100
AcDbEntity
  8
0
 62
5
100
AcDbPolyline
 90
4
 70
0
 10
106.451823
 20
209.869102
 30
0.0
 10
107.298493
 20
209.191765
 30
0.0
 10
107.298493
 20
203.095748
 30
0.0
 10
106.451823
 20
202.418412
 30
0.0
  0
LWPOLYLINE
  5
1b1
100
AcDbEntity
  8
0
 62
1
100
AcDbPolyline
 90
2
 70
0
 10
106.959826
 20
214.610449
 30
0.0
 10
106.959826
 20
209.869102
 30
0.0
  0
LWPOLYLINE
  5
1b2
100
AcDbEntity
  8
0
 62
1
100
AcDbPolyline
 90
2
 70
0
 10
106.959826
 20
197.677065
 30
0.0
 10
106.959826
 20
202.418412
 30
0.0
  0
SPLINE
  5
1b3
100
AcDbEntity
  8
0
 62
5
100
AcDbSpline
 70
0
 71
3
 72
10
 73
6
 74
4
 40
0.000000
 40
0.000000
 40
0.000000
 40
0.000000
 40
1.197283
 40
2.328483
 40
2.836637
 40
2.836637
 40
2.836637
 40
2.836637
 10
106.720267
 20
193.606111
 30
0.0
 10
106.704830
 20
194.006742
 30
0.0
 10
106.674806
 20
194.785891
 30
0.0
 10
106.381661
 20
195.693782
 30
0.0
 10
106.183127
 20
196.202394
 30
0.0
 10
106.121587
 20
196.360049
 30
0.0
 11
106.720267
 21
193.606111
 31
0.0
 11
106.618271
 21
194.799041
 31
0.0
 11
106.303409
 21
195.885538
 31
0.0
 11
106.121587
 21
196.360049
 31
0.0
  0
SPLINE
  5
1b4
100
AcDbEntity
  8
0
 62
5
100
AcDbSpline
 70
0
 71
3
 72
10
 73
6
 74
4
 40
0.000000
 40
0.000000
 40
0.000000
 40
0.000000
 40
0.383749
 40
1.264638
 40
2.310853
 40
2.310853
 40
2.310853
 40
2.310853
 10
98.697971
 20
223.351252
 30
0.0
 10
98.803254
 20
223.423562
 30
0.0
 10
99.150210
 20
223.661857
 30
0.0
 10
99.852674
 20
224.016662
 30
0.0
 10
100.501171
 20
224.051021
 30
0.0
 10
100.853237
 20
224.069674
 30
0.0
 11
98.697971
 21
223.351252
 31
0.0
 11
99.017269
 21
223.564118
 31
0.0
 11
99.815516
 21
223.936634
 31
0.0
 11
100.853237
 21
224.069674
 31
0.0
  0
SPLINE
  5
1b5
100
AcDbEntity
  8
0
 62
5
100
AcDbSpline
 70
0
 71
3
 72
10
 73
6
 74
4
 40
0.000000
 40
0.000000
 40
0.000000
 40
0.000000
 40
1.754126
 40
3.597982
 40
5.352108
 40
5.352108
 40
5.352108
 40
5.352108
 10
100.853237
 20
224.069674
 30
0.0
 10
101.414740
 20
223.889428
 30
0.0
 10
102.566470
 20
223.519715
 30
0.0
 10
103.895388
 20
222.190796
 30
0.0
 10
104.265101
 20
221.039067
 30
0.0
 10
104.445348
 20
220.477564
 30
0.0
 11
100.853237
 21
224.069674
 31
0.0
 11
102.476339
 21
223.404469
 31
0.0
 11
103.780142
 21
222.100666
 31
0.0
 11
104.445348
 21
220.477564
 31
0.0
  0
LWPOLYLINE
  5
1b6
100
AcDbEntity
  8
0
 62
5
100
AcDbPolyline
 90
4
 70
0
 10
94.986122
 20
226.584153
 30
0.0
 10
99.176919
 20
222.393356
 30
0.0
 10
99.416393
 20
222.632830
 30
0.0
 10
98.697971
 20
223.351252
 30
0.0
  0
LWPOLYLINE
  5
1b7
100
AcDbEntity
  8
0
 62
5
100
AcDbPolyline
 90
4
 70
0
 10
103.726925
 20
218.322298
 30
0.0
 10
103.008503
 20
219.040720
 30
0.0
 10
102.769029
 20
218.801246
 30
0.0
 10
106.959826
 20
214.610449
 30
0.0
  0
LWPOLYLINE
  5
1b8
100
AcDbEntity
  8
0
 62
1
100
AcDbPolyline
 90
2
 70
0
 10
100.015077
 20
221.555198
 30
0.0
 10
101.930872
 20
219.639403
 30
0.0
  0
LWPOLYLINE
  5
1b9
100
AcDbEntity
  8
0
 62
5
100
AcDbPolyline
 90
4
 70
0
 10
78.052763
 20
226.584128
 30
0.0
 10
81.439430
 20
229.801461
 30
0.0
 10
91.599430
 20
229.801461
 30
0.0
 10
94.986097
 20
226.584128
 30
0.0
  0
LWPOLYLINE
  5
1ba
100
AcDbEntity
  8
0
 62
5
100
AcDbPolyline
 90
4
 70
0
 10
82.794097
 20
226.076128
 30
0.0
 10
83.471430
 20
226.922794
 30
0.0
 10
89.567430
 20
226.922794
 30
0.0
 10
90.244763
 20
226.076128
 30
0.0
  0
LWPOLYLINE
  5
1bb
100
AcDbEntity
  8
0
 62
1
100
AcDbPolyline
 90
2
 70
0
 10
78.052763
 20
226.584128
 30
0.0
 10
82.794097
 20
226.584128
 30
0.0
  0
LWPOLYLINE
  5
1bc
100
AcDbEntity
  8
0
 62
1
100
AcDbPolyline
 90
2
 70
0
 10
94.986097
 20
226.584128
 30
0.0
 10
90.244763
 20
226.584128
 30
0.0
  0
SPLINE
  5
1bd
100
AcDbEntity
  8
0
 62
5
100
AcDbSpline
 70
0
 71
3
 72
10
 73
6
 74
4
 40
0.000000
 40
0.000000
 40
0.000000
 40
0.000000
 40
1.046215
 40
1.927104
 40
2.310853
 40
2.310853
 40
2.310853
 40
2.310853
 10
104.445348
 20
220.477564
 30
0.0
 10
104.426694
 20
220.125498
 30
0.0
 10
104.392336
 20
219.477001
 30
0.0
 10
104.037530
 20
218.774537
 30
0.0
 10
103.799235
 20
218.427580
 30
0.0
 10
103.726925
 20
218.322298
 30
0.0
 11
104.445348
 21
220.477564
 31
0.0
 11
104.312307
 21
219.439843
 31
0.0
 11
103.939792
 21
218.641596
 31
0.0
 11
103.726925
 21
218.322298
 31
0.0
  0
SPLINE
  5
1be
100
AcDbEntity
  8
0
 62
5
100
AcDbSpline
 70
0
 71
3
 72
10
 73
6
 74
4
 40
0.000000
 40
0.000000
 40
0.000000
 40
0.000000
 40
0.383749
 40
1.264638
 40
2.310853
 40
2.310853
 40
2.310853
 40
2.310853
 10
69.311960
 20
218.322272
 30
0.0
 10
69.239651
 20
218.427555
 30
0.0
 10
69.001355
 20
218.774512
 30
0.0
 10
68.646550
 20
219.476976
 30
0.0
 10
68.612191
 20
220.125473
 30
0.0
 10
68.593538
 20
220.477539
 30
0.0
 11
69.311960
 21
218.322272
 31
0.0
 11
69.099094
 21
218.641571
 31
0.0
 11
68.726579
 21
219.439817
 31
0.0
 11
68.593538
 21
220.477539
 31
0.0
  0
SPLINE
  5
1bf
100
AcDbEntity
  8
0
 62
5
100
AcDbSpline
 70
0
 71
3
 72
10
 73
6
 74
4
 40
0.000000
 40
0.000000
 40
0.000000
 40
0.000000
 40
1.754126
 40
3.597982
 40
5.352108
 40
5.352108
 40
5.352108
 40
5.352108
 10
68.593538
 20
220.477539
 30
0.0
 10
68.773785
 20
221.039042
 30
0.0
 10
69.143498
 20
222.190771
 30
0.0
 10
70.472416
 20
223.519689
 30
0.0
 10
71.624145
 20
223.889402
 30
0.0
 10
72.185649
 20
224.069649
 30
0.0
 11
68.593538
 21
220.477539
 31
0.0
 11
69.258744
 21
222.100640
 31
0.0
 11
70.562547
 21
223.404443
 31
0.0
 11
72.185649
 21
224.069649
 31
0.0
  0
LWPOLYLINE
  5
1c0
100
AcDbEntity
  8
0
 62
5
100
AcDbPolyline
 90
4
 70
0
 10
66.079060
 20
214.610424
 30
0.0
 10
70.269856
 20
218.801220
 30
0.0
 10
70.030382
 20
219.040694
 30
0.0
 10
69.311960
 20
218.322272
 30
0.0
  0
LWPOLYLINE
  5
1c1
100
AcDbEntity
  8
0
 62
5
100
AcDbPolyline
 90
4
 70
0
 10
74.340915
 20
223.351227
 30
0.0
 10
73.622493
 20
222.632805
 30
0.0
 10
73.861967
 20
222.393331
 30
0.0
 10
78.052763
 20
226.584128
 30
0.0
  0
LWPOLYLINE
  5
1c2
100
AcDbEntity
  8
0
 62
1
100
AcDbPolyline
 90
2
 70
0
 10
71.108014
 20
219.639378
 30
0.0
 10
73.023809
 20
221.555173
 30
0.0
  0
LWPOLYLINE
  5
1c3
100
AcDbEntity
  8
0
 62
5
100
AcDbPolyline
 90
4
 70
0
 10
66.079034
 20
197.677065
 30
0.0
 10
62.861692
 20
201.063743
 30
0.0
 10
62.861692
 20
211.223771
 30
0.0
 10
66.079034
 20
214.610449
 30
0.0
  0
LWPOLYLINE
  5
1c4
100
AcDbEntity
  8
0
 62
5
100
AcDbPolyline
 90
4
 70
0
 10
66.587037
 20
202.418412
 30
0.0
 10
65.740367
 20
203.095748
 30
0.0
 10
65.740367
 20
209.191765
 30
0.0
 10
66.587037
 20
209.869102
 30
0.0
  0
LWPOLYLINE
  5
1c5
100
AcDbEntity
  8
0
 62
1
100
AcDbPolyline
 90
2
 70
0
 10
66.079034
 20
197.677065
 30
0.0
 10
66.079034
 20
202.418412
 30
0.0
  0
LWPOLYLINE
  5
1c6
100
AcDbEntity
  8
0
 62
1
100
AcDbPolyline
 90
2
 70
0
 10
66.079034
 20
214.610449
 30
0.0
 10
66.079034
 20
209.869102
 30
0.0
  0
SPLINE
  5
1c7
100
AcDbEntity
  8
0
 62
5
100
AcDbSpline
 70
0
 71
3
 72
10
 73
6
 74
4
 40
0.000000
 40
0.000000
 40
0.000000
 40
0.000000
 40
1.046215
 40
1.927104
 40
2.310853
 40
2.310853
 40
2.310853
 40
2.310853
 10
72.185649
 20
224.069649
 30
0.0
 10
72.537714
 20
224.050996
 30
0.0
 10
73.186212
 20
224.016637
 30
0.0
 10
73.888675
 20
223.661832
 30
0.0
 10
74.235632
 20
223.423536
 30
0.0
 10
74.340915
 20
223.351227
 30
0.0
 11
72.185649
 21
224.069649
 31
0.0
 11
73.223370
 21
223.936608
 31
0.0
 11
74.021616
 21
223.564093
 31
0.0
 11
74.340915
 21
223.351227
 31
0.0
  0
SPLINE
  5
1c8
100
AcDbEntity
  8
0
 62
5
100
AcDbSpline
 70
0
 71
3
 72
10
 73
6
 74
4
 40
0.000000
 40
0.000000
 40
0.000000
 40
0.000000
 40
0.168284
 40
0.650177
 40
1.455486
 40
1.455486
 40
1.455486
 40
1.455486
 10
71.946121
 20
191.331033
 30
0.0
 10
71.893261
 20
191.312043
 30
0.0
 10
71.689034
 20
191.238675
 30
0.0
 10
71.196117
 20
191.199853
 30
0.0
 10
70.773613
 20
191.280548
 30
0.0
 10
70.509282
 20
191.331033
 30
0.0
 11
71.946121
 21
191.331033
 31
0.0
 11
71.786472
 21
191.277817
 31
0.0
 11
71.307526
 21
191.224601
 31
0.0
 11
70.509282
 21
191.331033
 31
0.0
  0
SPLINE
  5
1c9
100
AcDbEntity
  8
0
 62
5
100
AcDbSpline
 70
0
 71
3
 72
10
 73
6
 74
4
 40
0.000000
 40
0.000000
 40
0.000000
 40
0.000000
 40
1.568762
 40
3.233996
 40
4.770381
 40
4.770381
 40
4.770381
 40
4.770381
 10
70.509282
 20
191.331033
 30
0.0
 10
70.038435
 20
191.558739
 30
0.0
 10
69.067786
 20
192.028153
 30
0.0
 10
67.678306
 20
192.802872
 30
0.0
 10
66.759448
 20
193.345589
 30
0.0
 10
66.318508
 20
193.606026
 30
0.0
 11
70.509282
 21
191.331033
 31
0.0
 11
69.103489
 21
192.027279
 31
0.0
 11
67.644478
 21
192.829956
 31
0.0
 11
66.318508
 21
193.606026
 31
0.0
  0
LWPOLYLINE
  5
1ca
100
AcDbEntity
  8
0
 62
5
100
AcDbPolyline
 90
4
 70
0
 10
78.052679
 20
185.703420
 30
0.0
 10
71.467176
 20
192.288926
 30
0.0
 10
71.227702
 20
192.049452
 30
0.0
 10
71.946121
 20
191.331033
 30
0.0
  0
LWPOLYLINE
  5
1cb
100
AcDbEntity
  8
0
 62
5
100
AcDbPolyline
 90
4
 70
0
 10
66.917189
 20
196.359965
 30
0.0
 10
67.635608
 20
195.641546
 30
0.0
 10
67.875082
 20
195.881020
 30
0.0
 10
66.079034
 20
197.677065
 30
0.0
  0
LWPOLYLINE
  5
1cc
100
AcDbEntity
  8
0
 62
1
100
AcDbPolyline
 90
2
 70
0
 10
70.629018
 20
193.127081
 30
0.0
 10
68.713237
 20
195.042862
 30
0.0
  0
LWPOLYLINE
  5
1cd
100
AcDbEntity
  8
0
 62
5
100
AcDbPolyline
 90
5
 70
0
 10
61.696349
 20
190.086193
 30
0.0
 10
64.120875
 20
192.592078
 30
0.0
 10
73.627934
 20
188.817517
 30
0.0
 10
74.781481
 20
186.580042
 30
0.0
 10
78.052763
 20
185.703505
 30
0.0
  0
LWPOLYLINE
  5
1ce
100
AcDbEntity
  8
0
 62
5
100
AcDbPolyline
 90
4
 70
0
 10
62.873382
 20
189.244886
 30
0.0
 10
63.746772
 20
189.887398
 30
0.0
 10
69.635082
 20
188.309630
 30
0.0
 10
70.070204
 20
187.316504
 30
0.0
  0
LWPOLYLINE
  5
1cf
100
AcDbEntity
  8
0
 62
1
100
AcDbPolyline
 90
2
 70
0
 10
61.696349
 20
190.086193
 30
0.0
 10
63.004864
 20
189.735577
 30
0.0
  0
LWPOLYLINE
  5
1d0
100
AcDbEntity
  8
0
 62
1
100
AcDbPolyline
 90
2
 70
0
 10
74.781481
 20
186.580042
 30
0.0
 10
70.201686
 20
187.807195
 30
0.0
  0
SPLINE
  5
1d1
100
AcDbEntity
  8
0
 62
5
100
AcDbSpline
 70
0
 71
3
 72
10
 73
6
 74
4
 40
0.000000
 40
0.000000
 40
0.000000
 40
0.000000
 40
1.197283
 40
2.328483
 40
2.836637
 40
2.836637
 40
2.836637
 40
2.836637
 10
66.318508
 20
193.606026
 30
0.0
 10
66.333946
 20
194.006657
 30
0.0
 10
66.363970
 20
194.785807
 30
0.0
 10
66.657115
 20
195.693697
 30
0.0
 10
66.855649
 20
196.202309
 30
0.0
 10
66.917189
 20
196.359965
 30
0.0
 11
66.318508
 21
193.606026
 31
0.0
 11
66.420505
 21
194.798956
 31
0.0
 11
66.735367
 21
195.885454
 31
0.0
 11
66.917189
 21
196.359965
 31
0.0
  0
SPLINE
  5
1d2
100
AcDbEntity
  8
0
 62
5
100
AcDbSpline
 70
0
 71
3
 72
10
 73
6
 74
4
 40
0.000000
 40
0.000000
 40
0.000000
 40
0.000000
 40
0.168285
 40
0.650181
 40
1.455494
 40
1.455494
 40
1.455494
 40
1.455494
 10
63.604391
 20
181.656766
 30
0.0
 10
63.549118
 20
181.666750
 30
0.0
 10
63.335567
 20
181.705324
 30
0.0
 10
62.889275
 20
181.918162
 30
0.0
 10
62.563721
 20
182.199300
 30
0.0
 10
62.360045
 20
182.375188
 30
0.0
 11
63.604391
 21
181.656766
 31
0.0
 11
63.439523
 21
181.690503
 31
0.0
 11
62.998133
 21
181.883890
 31
0.0
 11
62.360045
 21
182.375188
 31
0.0
  0
SPLINE
  5
1d3
100
AcDbEntity
  8
0
 62
5
100
AcDbSpline
 70
0
 71
3
 72
10
 73
6
 74
4
 40
0.000000
 40
0.000000
 40
0.000000
 40
0.000000
 40
1.568774
 40
3.234019
 40
4.770415
 40
4.770415
 40
4.770415
 40
4.770415
 10
62.360045
 20
182.375188
 30
0.0
 10
62.066130
 20
182.807813
 30
0.0
 10
61.460226
 20
183.699669
 30
0.0
 10
60.644254
 20
185.065345
 30
0.0
 10
60.119854
 20
185.994786
 30
0.0
 10
59.868206
 20
186.440805
 30
0.0
 11
62.360045
 21
182.375188
 31
0.0
 11
61.490708
 21
183.681060
 31
0.0
 11
60.628500
 21
185.105715
 31
0.0
 11
59.868206
 21
186.440805
 31
0.0
  0
LWPOLYLINE
  5
1d4
100
AcDbEntity
  8
0
 62
5
100
AcDbPolyline
 90
4
 70
0
 10
66.079037
 20
173.729776
 30
0.0
 10
63.668560
 20
182.725804
 30
0.0
 10
63.341431
 20
182.638148
 30
0.0
 10
63.604391
 20
181.656766
 30
0.0
  0
LWPOLYLINE
  5
1d5
100
AcDbEntity
  8
0
 62
5
100
AcDbPolyline
 90
4
 70
0
 10
61.763662
 20
188.526458
 30
0.0
 10
62.026625
 20
187.545073
 30
0.0
 10
62.353752
 20
187.632728
 30
0.0
 10
61.696349
 20
190.086190
 30
0.0
  0
LWPOLYLINE
  5
1d6
100
AcDbEntity
  8
0
 62
1
100
AcDbPolyline
 90
2
 70
0
 10
63.361770
 20
183.870751
 30
0.0
 10
62.660541
 20
186.487778
 30
0.0
  0
LWPOLYLINE
  5
1d7
100
AcDbEntity
  8
0
 62
5
100
AcDbPolyline
 90
5
 70
0
 10
54.105389
 20
185.703420
 30
0.0
 10
57.458009
 20
186.661311
 30
0.0
 10
63.804041
 20
178.638969
 30
0.0
 10
63.684305
 20
176.124504
 30
0.0
 10
66.079034
 20
173.729776
 30
0.0
  0
LWPOLYLINE
  5
1d8
100
AcDbEntity
  8
0
 62
5
100
AcDbPolyline
 90
4
 70
0
 10
54.704070
 20
184.386320
 30
0.0
 10
55.781699
 20
184.506056
 30
0.0
 10
60.092212
 20
180.195543
 30
0.0
 10
59.972476
 20
179.117914
 30
0.0
  0
LWPOLYLINE
  5
1d9
100
AcDbEntity
  8
0
 62
1
100
AcDbPolyline
 90
2
 70
0
 10
54.105389
 20
185.703420
 30
0.0
 10
55.063280
 20
184.745530
 30
0.0
  0
LWPOLYLINE
  5
1da
100
AcDbEntity
  8
0
 62
1
100
AcDbPolyline
 90
2
 70
0
 10
63.684305
 20
176.124504
 30
0.0
 10
60.331686
 20
179.477124
 30
0.0
  0
SPLINE
  5
1db
100
AcDbEntity
  8
0
 62
5
100
AcDbSpline
 70
0
 71
3
 72
10
 73
6
 74
4
 40
0.000000
 40
0.000000
 40
0.000000
 40
0.000000
 40
1.197290
 40
2.328498
 40
2.836655
 40
2.836655
 40
2.836655
 40
2.836655
 10
59.868206
 20
186.440805
 30
0.0
 10
60.081893
 20
186.780044
 30
0.0
 10
60.497472
 20
187.439800
 30
0.0
 10
61.205293
 20
188.079487
 30
0.0
 10
61.631538
 20
188.420694
 30
0.0
 10
61.763662
 20
188.526458
 30
0.0
 11
59.868206
 21
186.440805
 31
0.0
 11
60.553008
 21
187.422920
 31
0.0
 11
61.368941
 21
188.206428
 31
0.0
 11
61.763662
 21
188.526458
 31
0.0
  0
SPLINE
  5
1dc
100
AcDbEntity
  8
0
 62
5
100
AcDbSpline
 70
0
 71
3
 72
10
 73
6
 74
4
 40
0.000000
 40
0.000000
 40
0.000000
 40
0.000000
 40
0.383750
 40
1.264641
 40
2.310856
 40
2.310856
 40
2.310856
 40
2.310856
 10
42.082771
 20
186.042172
 30
0.0
 10
42.106086
 20
186.167748
 30
0.0
 10
42.182922
 20
186.581585
 30
0.0
 10
42.428754
 20
187.329188
 30
0.0
 10
42.863015
 20
187.812041
 30
0.0
 10
43.098774
 20
188.074180
 30
0.0
 11
42.082771
 21
186.042172
 31
0.0
 11
42.158030
 21
186.418469
 31
0.0
 11
42.459068
 21
187.246325
 31
0.0
 11
43.098774
 21
188.074180
 31
0.0
  0
SPLINE
  5
1dd
100
AcDbEntity
  8
0
 62
5
100
AcDbSpline
 70
0
 71
3
 72
10
 73
6
 74
4
 40
0.000000
 40
0.000000
 40
0.000000
 40
0.000000
 40
1.754128
 40
3.597985
 40
5.352113
 40
5.352113
 40
5.352113
 40
5.352113
 10
43.098774
 20
188.074180
 30
0.0
 10
43.623270
 20
188.343769
 30
0.0
 10
44.699094
 20
188.896739
 30
0.0
 10
46.578470
 20
188.896739
 30
0.0
 10
47.654294
 20
188.343769
 30
0.0
 10
48.178791
 20
188.074180
 30
0.0
 11
43.098774
 21
188.074180
 31
0.0
 11
44.716853
 21
188.751515
 31
0.0
 11
46.560711
 21
188.751515
 31
0.0
 11
48.178791
 21
188.074180
 31
0.0
  0
LWPOLYLINE
  5
1de
100
AcDbEntity
  8
0
 62
5
100
AcDbPolyline
 90
4
 70
0
 10
37.172090
 20
185.703505
 30
0.0
 10
43.098774
 20
185.703505
 30
0.0
 10
43.098774
 20
186.042172
 30
0.0
 10
42.082771
 20
186.042172
 30
0.0
  0
LWPOLYLINE
  5
1df
100
AcDbEntity
  8
0
 62
5
100
AcDbPolyline
 90
4
 70
0
 10
49.194793
 20
186.042172
 30
0.0
 10
48.178791
 20
186.042172
 30
0.0
 10
48.178791
 20
185.703505
 30
0.0
 10
54.105474
 20
185.703505
 30
0.0
  0
LWPOLYLINE
  5
1e0
100
AcDbEntity
  8
0
 62
1
100
AcDbPolyline
 90
2
 70
0
 10
44.284113
 20
185.703505
 30
0.0
 10
46.993452
 20
185.703505
 30
0.0
  0
LWPOLYLINE
  5
1e1
100
AcDbEntity
  8
0
 62
5
100
AcDbPolyline
 90
4
 70
0
 10
25.198387
 20
173.729801
 30
0.0
 10
25.318124
 20
178.399546
 30
0.0
 10
32.502348
 20
185.583766
 30
0.0
 10
37.172090
 20
185.703505
 30
0.0
  0
LWPOLYLINE
  5
1e2
100
AcDbEntity
  8
0
 62
5
100
AcDbPolyline
 90
4
 70
0
 10
28.910235
 20
176.723228
 30
0.0
 10
28.790499
 20
177.800859
 30
0.0
 10
33.101032
 20
182.111395
 30
0.0
 10
34.178666
 20
181.991656
 30
0.0
  0
LWPOLYLINE
  5
1e3
100
AcDbEntity
  8
0
 62
1
100
AcDbPolyline
 90
2
 70
0
 10
25.198387
 20
173.729801
 30
0.0
 10
28.551025
 20
177.082437
 30
0.0
  0
LWPOLYLINE
  5
1e4
100
AcDbEntity
  8
0
 62
1
100
AcDbPolyline
 90
2
 70
0
 10
37.172090
 20
185.703505
 30
0.0
 10
33.819454
 20
182.350869
 30
0.0
  0
LWPOLYLINE
  5
1e5
100
AcDbEntity
  8
0
 62
1
100
AcDbPolyline
 90
2
 70
0
 10
66.079147
 20
173.729832
 30
0.0
 10
66.079147
 20
156.796499
 30
0.0
  0
LWPOLYLINE
  5
1e6
100
AcDbEntity
  8
0
 62
1
100
AcDbPolyline
 90
2
 70
0
 10
66.079147
 20
173.729832
 30
0.0
 10
78.052707
 20
185.703392
 30
0.0
  0
LWPOLYLINE
  5
1e7
100
AcDbEntity
  8
0
 62
1
100
AcDbPolyline
 90
2
 70
0
 10
66.079147
 20
156.796499
 30
0.0
 10
78.052707
 20
144.822656
 30
0.0
  0
LWPOLYLINE
  5
1e8
100
AcDbEntity
  8
0
 62
1
100
AcDbPolyline
 90
2
 70
0
 10
78.052707
 20
185.703392
 30
0.0
 10
94.986040
 20
185.703392
 30
0.0
  0
LWPOLYLINE
  5
1e9
100
AcDbEntity
  8
0
 62
1
100
AcDbPolyline
 90
2
 70
0
 10
78.052707
 20
144.822656
 30
0.0
 10
94.986040
 20
144.822656
 30
0.0
  0
LWPOLYLINE
  5
1ea
100
AcDbEntity
  8
0
 62
1
100
AcDbPolyline
 90
2
 70
0
 10
94.986040
 20
185.703392
 30
0.0
 10
106.959883
 20
173.729832
 30
0.0
  0
LWPOLYLINE
  5
1eb
100
AcDbEntity
  8
0
 62
1
100
AcDbPolyline
 90
2
 70
0
 10
94.986040
 20
144.822656
 30
0.0
 10
106.959883
 20
156.796499
 30
0.0
  0
LWPOLYLINE
  5
1ec
100
AcDbEntity
  8
0
 62
1
100
AcDbPolyline
 90
2
 70
0
 10
106.959883
 20
173.729832
 30
0.0
 10
106.959883
 20
156.796499
 30
0.0
  0
LWPOLYLINE
  5
1ed
100
AcDbEntity
  8
0
 62
1
100
AcDbPolyline
 90
2
 70
0
 10
135.866776
 20
185.703392
 30
0.0
 10
147.840336
 20
173.729832
 30
0.0
  0
LWPOLYLINE
  5
1ee
100
AcDbEntity
  8
0
 62
1
100
AcDbPolyline
 90
2
 70
0
 10
135.866776
 20
144.822656
 30
0.0
 10
147.840336
 20
156.796499
 30
0.0
  0
LWPOLYLINE
  5
1ef
100
AcDbEntity
  8
0
 62
1
100
AcDbPolyline
 90
2
 70
0
 10
147.840336
 20
173.729832
 30
0.0
 10
147.840336
 20
156.796499
 30
0.0
  0
LWPOLYLINE
  5
1f0
100
AcDbEntity
  8
0
 62
1
100
AcDbPolyline
 90
2
 70
0
 10
176.747511
 20
185.703392
 30
0.0
 10
188.721071
 20
173.729832
 30
0.0
  0
SPLINE
  5
1f1
100
AcDbEntity
  8
0
 62
5
100
AcDbSpline
 70
0
 71
3
 72
10
 73
6
 74
4
 40
0.000000
 40
0.000000
 40
0.000000
 40
0.000000
 40
1.046216
 40
1.927106
 40
2.310856
 40
2.310856
 40
2.310856
 40
2.310856
 10
48.178791
 20
188.074180
 30
0.0
 10
48.414549
 20
187.812041
 30
0.0
 10
48.848810
 20
187.329188
 30
0.0
 10
49.094642
 20
186.581585
 30
0.0
 10
49.171478
 20
186.167748
 30
0.0
 10
49.194793
 20
186.042172
 30
0.0
 11
48.178791
 21
188.074180
 31
0.0
 11
48.818496
 21
187.246325
 31
0.0
 11
49.119534
 21
186.418469
 31
0.0
 11
49.194793
 21
186.042172
 31
0.0
  0
LWPOLYLINE
  5
1f2
100
AcDbEntity
  8
0
 62
1
100
AcDbPolyline
 90
2
 70
0
 10
176.747511
 20
144.822656
 30
0.0
 10
188.721071
 20
156.796499
 30
0.0
  0
ENDSEC
  0
SECTION
  2
OBJECTS
  0
DICTIONARY
  5
C
330
0
100
AcDbDictionary
  3
ACAD_GROUP
350
D
  3
ACAD_MLINESTYLE
350
17
  0
DICTIONARY
  5
D
330
C
100
AcDbDictionary
  0
DICTIONARY
  5
1A
330
C
100
AcDbDictionary
  0
DICTIONARY
  5
17
330
C
100
AcDbDictionary
  3
STANDARD
350
18
  0
DICTIONARY
  5
19
330
C
100
AcDbDictionary
  0
ENDSEC
  0
EOF
