999
DXF created by Inkscape
  0
SECTION
  2
HEADER
  9
$ACADVER
  1
AC1014
  9
$HANDSEED
  5
FFFF
  9
$MEASUREMENT
 70
     1
  0
ENDSEC
  0
SECTION
  2
TABLES
  0
TABLE
  2
VPORT
  5
8
330
0
100
AcDbSymbolTable
 70
     4
  0
VPORT
  5
2E
330
8
100
AcDbSymbolTableRecord
100
AcDbViewportTableRecord
  2
*ACTIVE
 70
     0
 10
0.0
 20
0.0
 11
1.0
 21
1.0
 12
210.0
 22
148.5
 13
0.0
 23
0.0
 14
10.0
 24
10.0
 15
10.0
 25
10.0
 16
0.0
 26
0.0
 36
1.0
 17
0.0
 27
0.0
 37
0.0
 40
341.0
 41
1.24
 42
50.0
 43
0.0
 44
0.0
 50
0.0
 51
0.0
 71
     0
 72
   100
 73
     1
 74
     3
 75
     0
 76
     0
 77
     0
 78
     0
  0
ENDTAB
  0
TABLE
  2
LTYPE
  5
5
330
0
100
AcDbSymbolTable
 70
     1
  0
LTYPE
  5
14
330
5
100
AcDbSymbolTableRecord
100
AcDbLinetypeTableRecord
  2
BYBLOCK
 70
     0
  3

 72
    65
 73
     0
 40
0.0
  0
LTYPE
  5
15
330
5
100
AcDbSymbolTableRecord
100
AcDbLinetypeTableRecord
  2
BYLAYER
 70
     0
  3

 72
    65
 73
     0
 40
0.0
  0
LTYPE
  5
16
330
5
100
AcDbSymbolTableRecord
100
AcDbLinetypeTableRecord
  2
CONTINUOUS
 70
     0
  3
Solid line
 72
    65
 73
     0
 40
0.0
  0
ENDTAB
  0
TABLE
  2
LAYER
  5
2
330
0
100
AcDbSymbolTable
 70
1
  0
LAYER
  5
10
330
2
100
AcDbSymbolTableRecord
100
AcDbLayerTableRecord
  2
0
 70
     0
 62
     7
  6
CONTINUOUS
  0
ENDTAB
  0
TABLE
  2
STYLE
  5
3
330
0
100
AcDbSymbolTable
 70
     1
  0
STYLE
  5
11
330
3
100
AcDbSymbolTableRecord
100
AcDbTextStyleTableRecord
  2
STANDARD
 70
     0
 40
0.0
 41
1.0
 50
0.0
 71
     0
 42
2.5
  3
txt
  4

  0
ENDTAB
  0
TABLE
  2
VIEW
  5
6
330
0
100
AcDbSymbolTable
 70
     0
  0
ENDTAB
  0
TABLE
  2
UCS
  5
7
330
0
100
AcDbSymbolTable
 70
     0
  0
ENDTAB
  0
TABLE
  2
APPID
  5
9
330
0
100
AcDbSymbolTable
 70
     2
  0
APPID
  5
12
330
9
100
AcDbSymbolTableRecord
100
AcDbRegAppTableRecord
  2
ACAD
 70
     0
  0
ENDTAB
  0
TABLE
  2
DIMSTYLE
  5
A
330
0
100
AcDbSymbolTable
 70
     1
  0
DIMSTYLE
105
27
330
A
100
AcDbSymbolTableRecord
100
AcDbDimStyleTableRecord
  2
ISO-25
 70
     0
  3

  4

  5

  6

  7

 40
1.0
 41
2.5
 42
0.625
 43
3.75
 44
1.25
 45
0.0
 46
0.0
 47
0.0
 48
0.0
140
2.5
141
2.5
142
0.0
143
0.03937007874016
144
1.0
145
0.0
146
1.0
147
0.625
 71
     0
 72
     0
 73
     0
 74
     0
 75
     0
 76
     0
 77
     1
 78
     8
170
     0
171
     3
172
     1
173
     0
174
     0
175
     0
176
     0
177
     0
178
     0
270
     2
271
     2
272
     2
273
     2
274
     3
340
11
275
     0
280
     0
281
     0
282
     0
283
     0
284
     8
285
     0
286
     0
287
     3
288
     0
  0
ENDTAB
  0
TABLE
  2
BLOCK_RECORD
  5
1
330
0
100
AcDbSymbolTable
 70
     1
  0
BLOCK_RECORD
  5
1F
330
1
100
AcDbSymbolTableRecord
100
AcDbBlockTableRecord
  2
*MODEL_SPACE
  0
BLOCK_RECORD
  5
1B
330
1
100
AcDbSymbolTableRecord
100
AcDbBlockTableRecord
  2
*PAPER_SPACE
  0
ENDTAB
  0
ENDSEC
  0
SECTION
  2
BLOCKS
  0
BLOCK
  5
20
330
1F
100
AcDbEntity
  8
0
100
AcDbBlockBegin
  2
*MODEL_SPACE
 70
     0
 10
0.0
 20
0.0
 30
0.0
  3
*MODEL_SPACE
  1

  0
ENDBLK
  5
21
330
1F
100
AcDbEntity
  8
0
100
AcDbBlockEnd
  0
BLOCK
  5
1C
330
1B
100
AcDbEntity
 67
     1
  8
0
100
AcDbBlockBegin
  2
*PAPER_SPACE
  1

  0
ENDBLK
  5
1D
330
1B
100
AcDbEntity
 67
     1
  8
0
100
AcDbBlockEnd
  0
ENDSEC
  0
SECTION
  2
ENTITIES
  0
LINE
  5
100
100
AcDbEntity
  8
0
 62
7
100
AcDbLine
 10
0.000000
 20
203.200000
 30
0.0
 11
67.733333
 21
203.200000
 31
0.0
  0
LINE
  5
101
100
AcDbEntity
  8
0
 62
7
100
AcDbLine
 10
67.733333
 20
203.200000
 30
0.0
 11
67.733333
 21
165.664444
 31
0.0
  0
LINE
  5
102
100
AcDbEntity
  8
0
 62
7
100
AcDbLine
 10
67.733333
 20
165.664444
 30
0.0
 11
0.000000
 21
165.664444
 31
0.0
  0
LINE
  5
103
100
AcDbEntity
  8
0
 62
7
100
AcDbLine
 10
0.000000
 20
165.664444
 30
0.0
 11
0.000000
 21
203.200000
 31
0.0
  0
LINE
  5
104
100
AcDbEntity
  8
0
 62
7
100
AcDbLine
 10
0.000000
 20
203.200000
 30
0.0
 11
0.000000
 21
203.200000
 31
0.0
  0
LINE
  5
105
100
AcDbEntity
  8
0
 62
1
100
AcDbLine
 10
22.627301
 20
159.529365
 30
0.0
 11
33.905723
 21
144.005387
 31
0.0
  0
LINE
  5
106
100
AcDbEntity
  8
0
 62
1
100
AcDbLine
 10
22.627301
 20
159.529365
 30
0.0
 11
33.905723
 21
175.052660
 31
0.0
  0
LINE
  5
107
100
AcDbEntity
  8
0
 62
1
100
AcDbLine
 10
33.905723
 20
74.582932
 30
0.0
 11
33.905723
 21
93.771204
 31
0.0
  0
LINE
  5
108
100
AcDbEntity
  8
0
 62
1
100
AcDbLine
 10
33.905723
 20
74.582932
 30
0.0
 11
52.154463
 21
68.653431
 31
0.0
  0
LINE
  5
109
100
AcDbEntity
  8
0
 62
1
100
AcDbLine
 10
33.905723
 20
93.771204
 30
0.0
 11
52.154463
 21
99.700704
 31
0.0
  0
LINE
  5
10a
100
AcDbEntity
  8
0
 62
1
100
AcDbLine
 10
33.905723
 20
124.817796
 30
0.0
 11
52.154463
 21
118.888296
 31
0.0
  0
LINE
  5
10b
100
AcDbEntity
  8
0
 62
1
100
AcDbLine
 10
33.905723
 20
144.005387
 30
0.0
 11
52.154463
 21
149.934888
 31
0.0
  0
LINE
  5
10c
100
AcDbEntity
  8
0
 62
1
100
AcDbLine
 10
33.905723
 20
175.052660
 30
0.0
 11
52.154463
 21
169.123160
 31
0.0
  0
LINE
  5
10d
100
AcDbEntity
  8
0
 62
1
100
AcDbLine
 10
52.154463
 20
68.653431
 30
0.0
 11
63.432885
 21
84.176726
 31
0.0
  0
LINE
  5
10e
100
AcDbEntity
  8
0
 62
1
100
AcDbLine
 10
52.154463
 20
99.700704
 30
0.0
 11
63.432885
 21
84.176726
 31
0.0
  0
LINE
  5
10f
100
AcDbEntity
  8
0
 62
1
100
AcDbLine
 10
52.154463
 20
149.934888
 30
0.0
 11
52.154463
 21
169.123160
 31
0.0
  0
LINE
  5
110
100
AcDbEntity
  8
0
 62
5
100
AcDbLine
 10
63.432885
 20
134.411593
 30
0.0
 11
64.269933
 21
129.126688
 31
0.0
  0
LINE
  5
111
100
AcDbEntity
  8
0
 62
5
100
AcDbLine
 10
64.269933
 20
129.126688
 30
0.0
 11
57.439204
 21
119.724997
 31
0.0
  0
LINE
  5
112
100
AcDbEntity
  8
0
 62
5
100
AcDbLine
 10
57.439204
 20
119.724997
 30
0.0
 11
52.154300
 21
118.887951
 31
0.0
  0
LINE
  5
113
100
AcDbEntity
  8
0
 62
1
100
AcDbLine
 10
59.905429
 20
129.556270
 30
0.0
 11
63.432885
 21
134.411593
 31
0.0
  0
LINE
  5
114
100
AcDbEntity
  8
0
 62
1
100
AcDbLine
 10
52.154300
 20
118.887951
 30
0.0
 11
55.681759
 21
123.743271
 31
0.0
  0
LINE
  5
115
100
AcDbEntity
  8
0
 62
5
100
AcDbLine
 10
56.181512
 20
123.598330
 30
0.0
 11
60.199044
 21
129.127989
 31
0.0
  0
SPLINE
  5
116
100
AcDbEntity
  8
0
 62
5
100
AcDbSpline
 70
0
 71
3
 72
10
 73
6
 74
4
 40
0.000000
 40
0.000000
 40
0.000000
 40
0.000000
 40
0.773888
 40
1.059005
 40
1.099736
 40
1.099736
 40
1.099736
 40
1.099736
 10
55.109113
 20
123.842007
 30
0.0
 10
55.360663
 20
123.784848
 30
0.0
 10
55.704890
 20
123.706631
 30
0.0
 10
56.062357
 20
123.625406
 30
0.0
 10
56.168273
 20
123.601339
 30
0.0
 10
56.181512
 20
123.598330
 30
0.0
 11
55.109113
 21
123.842007
 31
0.0
 11
55.863764
 21
123.670531
 31
0.0
 11
56.141794
 21
123.607355
 31
0.0
 11
56.181512
 21
123.598330
 31
0.0
  0
LINE
  5
117
100
AcDbEntity
  8
0
 62
5
100
AcDbLine
 10
81.681630
 20
90.106215
 30
0.0
 11
85.465203
 21
93.889788
 31
0.0
  0
LINE
  5
118
100
AcDbEntity
  8
0
 62
5
100
AcDbLine
 10
85.465203
 20
93.889788
 30
0.0
 11
85.465203
 21
105.510917
 31
0.0
  0
LINE
  5
119
100
AcDbEntity
  8
0
 62
5
100
AcDbLine
 10
85.465203
 20
105.510917
 30
0.0
 11
81.681630
 21
109.294490
 31
0.0
  0
LINE
  5
11a
100
AcDbEntity
  8
0
 62
1
100
AcDbLine
 10
81.681743
 20
96.107639
 30
0.0
 11
81.681630
 21
90.106215
 31
0.0
  0
LINE
  5
11b
100
AcDbEntity
  8
0
 62
1
100
AcDbLine
 10
81.681630
 20
109.294490
 30
0.0
 11
81.681518
 21
103.293065
 31
0.0
  0
SPLINE
  5
11c
100
AcDbEntity
  8
0
 62
5
100
AcDbSpline
 70
0
 71
3
 72
10
 73
6
 74
4
 40
0.000000
 40
0.000000
 40
0.000000
 40
0.000000
 40
0.040731
 40
0.325847
 40
1.099734
 40
1.099734
 40
1.099734
 40
1.099734
 10
60.199044
 20
129.127989
 30
0.0
 10
60.192092
 20
129.139651
 30
0.0
 10
60.136473
 20
129.232946
 30
0.0
 10
59.948761
 20
129.547817
 30
0.0
 10
59.768001
 20
129.851026
 30
0.0
 10
59.635906
 20
130.072601
 30
0.0
 11
60.199044
 21
129.127989
 31
0.0
 11
60.178187
 21
129.162975
 31
0.0
 11
60.032189
 21
129.407874
 31
0.0
 11
59.635906
 21
130.072601
 31
0.0
  0
LINE
  5
11d
100
AcDbEntity
  8
0
 62
5
100
AcDbLine
 10
82.171021
 20
103.116578
 30
0.0
 11
82.171021
 21
96.281545
 31
0.0
  0
SPLINE
  5
11e
100
AcDbEntity
  8
0
 62
5
100
AcDbSpline
 70
0
 71
3
 72
10
 73
6
 74
4
 40
0.000000
 40
0.000000
 40
0.000000
 40
0.000000
 40
0.773886
 40
1.059002
 40
1.099733
 40
1.099733
 40
1.099733
 40
1.099733
 10
81.160205
 20
103.549780
 30
0.0
 10
81.397310
 20
103.448165
 30
0.0
 10
81.721769
 20
103.309112
 30
0.0
 10
82.058708
 20
103.164711
 30
0.0
 10
82.158542
 20
103.121926
 30
0.0
 10
82.171021
 20
103.116578
 30
0.0
 11
81.160205
 21
103.549780
 31
0.0
 11
81.871520
 21
103.244934
 31
0.0
 11
82.133583
 21
103.132622
 31
0.0
 11
82.171021
 21
103.116578
 31
0.0
  0
LINE
  5
11f
100
AcDbEntity
  8
0
 62
5
100
AcDbLine
 10
81.681630
 20
59.059634
 30
0.0
 11
79.252425
 21
54.292054
 31
0.0
  0
LINE
  5
120
100
AcDbEntity
  8
0
 62
5
100
AcDbLine
 10
79.252425
 20
54.292054
 30
0.0
 11
68.200075
 21
50.700929
 31
0.0
  0
LINE
  5
121
100
AcDbEntity
  8
0
 62
5
100
AcDbLine
 10
68.200075
 20
50.700929
 30
0.0
 11
63.432495
 21
53.130131
 31
0.0
  0
LINE
  5
122
100
AcDbEntity
  8
0
 62
1
100
AcDbLine
 10
75.973971
 20
57.204985
 30
0.0
 11
81.681630
 21
59.059634
 31
0.0
  0
LINE
  5
123
100
AcDbEntity
  8
0
 62
1
100
AcDbLine
 10
63.432495
 20
53.130131
 30
0.0
 11
69.140155
 21
54.984780
 31
0.0
  0
SPLINE
  5
124
100
AcDbEntity
  8
0
 62
5
100
AcDbSpline
 70
0
 71
3
 72
10
 73
6
 74
4
 40
0.000000
 40
0.000000
 40
0.000000
 40
0.000000
 40
0.040731
 40
0.325847
 40
1.099733
 40
1.099733
 40
1.099733
 40
1.099733
 10
82.171021
 20
96.281545
 30
0.0
 10
82.158542
 20
96.276197
 30
0.0
 10
82.058708
 20
96.233411
 30
0.0
 10
81.721769
 20
96.089010
 30
0.0
 10
81.397310
 20
95.949958
 30
0.0
 10
81.160205
 20
95.848342
 30
0.0
 11
82.171021
 21
96.281545
 31
0.0
 11
82.133583
 21
96.265500
 31
0.0
 11
81.871520
 21
96.153188
 31
0.0
 11
81.160205
 21
95.848342
 31
0.0
  0
LINE
  5
125
100
AcDbEntity
  8
0
 62
5
100
AcDbLine
 10
69.459269
 20
54.573774
 30
0.0
 11
75.959772
 21
56.685917
 31
0.0
  0
SPLINE
  5
126
100
AcDbEntity
  8
0
 62
5
100
AcDbSpline
 70
0
 71
3
 72
10
 73
6
 74
4
 40
0.000000
 40
0.000000
 40
0.000000
 40
0.000000
 40
0.773885
 40
1.059001
 40
1.099731
 40
1.099731
 40
1.099731
 40
1.099731
 10
68.734912
 20
55.401250
 30
0.0
 10
68.904823
 20
55.207150
 30
0.0
 10
69.137332
 20
54.941541
 30
0.0
 10
69.378785
 20
54.665716
 30
0.0
 10
69.450326
 20
54.583990
 30
0.0
 10
69.459269
 20
54.573774
 30
0.0
 11
68.734912
 21
55.401250
 31
0.0
 11
69.244645
 21
54.818952
 31
0.0
 11
69.432441
 21
54.604421
 31
0.0
 11
69.459269
 21
54.573774
 31
0.0
  0
LINE
  5
127
100
AcDbEntity
  8
0
 62
5
100
AcDbLine
 10
81.681794
 20
159.529029
 30
0.0
 11
82.518843
 21
164.813934
 31
0.0
  0
LINE
  5
128
100
AcDbEntity
  8
0
 62
5
100
AcDbLine
 10
82.518843
 20
164.813934
 30
0.0
 11
75.688114
 21
174.215625
 31
0.0
  0
LINE
  5
129
100
AcDbEntity
  8
0
 62
5
100
AcDbLine
 10
75.688114
 20
174.215625
 30
0.0
 11
70.403209
 21
175.052671
 31
0.0
  0
LINE
  5
12a
100
AcDbEntity
  8
0
 62
1
100
AcDbLine
 10
78.154338
 20
164.384352
 30
0.0
 11
81.681794
 21
159.529029
 31
0.0
  0
LINE
  5
12b
100
AcDbEntity
  8
0
 62
1
100
AcDbLine
 10
70.403209
 20
175.052671
 30
0.0
 11
73.930668
 21
170.197351
 31
0.0
  0
SPLINE
  5
12c
100
AcDbEntity
  8
0
 62
5
100
AcDbSpline
 70
0
 71
3
 72
10
 73
6
 74
4
 40
0.000000
 40
0.000000
 40
0.000000
 40
0.000000
 40
0.040731
 40
0.325846
 40
1.099732
 40
1.099732
 40
1.099732
 40
1.099732
 10
75.959772
 20
56.685917
 30
0.0
 10
75.961003
 20
56.699438
 30
0.0
 10
75.970844
 20
56.807606
 30
0.0
 10
76.004058
 20
57.172676
 30
0.0
 10
76.036041
 20
57.524224
 30
0.0
 10
76.059414
 20
57.781125
 30
0.0
 11
75.959772
 21
56.685917
 31
0.0
 11
75.963463
 21
56.726480
 31
0.0
 11
75.989296
 21
57.010423
 31
0.0
 11
76.059414
 21
57.781125
 31
0.0
  0
LINE
  5
12d
100
AcDbEntity
  8
0
 62
5
100
AcDbLine
 10
74.430422
 20
170.342289
 30
0.0
 11
78.447954
 21
164.812630
 31
0.0
  0
SPLINE
  5
12e
100
AcDbEntity
  8
0
 62
5
100
AcDbSpline
 70
0
 71
3
 72
10
 73
6
 74
4
 40
0.000000
 40
0.000000
 40
0.000000
 40
0.000000
 40
0.773888
 40
1.059004
 40
1.099735
 40
1.099735
 40
1.099735
 40
1.099735
 10
73.358022
 20
170.098616
 30
0.0
 10
73.609573
 20
170.155774
 30
0.0
 10
73.953800
 20
170.233990
 30
0.0
 10
74.311266
 20
170.315214
 30
0.0
 10
74.417182
 20
170.339281
 30
0.0
 10
74.430422
 20
170.342289
 30
0.0
 11
73.358022
 21
170.098616
 31
0.0
 11
74.112674
 21
170.270090
 31
0.0
 11
74.390703
 21
170.333264
 31
0.0
 11
74.430422
 21
170.342289
 31
0.0
  0
LINE
  5
12f
100
AcDbEntity
  8
0
 62
5
100
AcDbLine
 10
33.905165
 20
194.240594
 30
0.0
 11
36.334370
 21
199.008174
 31
0.0
  0
LINE
  5
130
100
AcDbEntity
  8
0
 62
5
100
AcDbLine
 10
36.334370
 20
199.008174
 30
0.0
 11
47.386720
 21
202.599300
 31
0.0
  0
LINE
  5
131
100
AcDbEntity
  8
0
 62
5
100
AcDbLine
 10
47.386720
 20
202.599300
 30
0.0
 11
52.154300
 21
200.170097
 31
0.0
  0
LINE
  5
132
100
AcDbEntity
  8
0
 62
1
100
AcDbLine
 10
39.612824
 20
196.095244
 30
0.0
 11
33.905165
 21
194.240594
 31
0.0
  0
LINE
  5
133
100
AcDbEntity
  8
0
 62
1
100
AcDbLine
 10
52.154300
 20
200.170097
 30
0.0
 11
46.446640
 21
198.315448
 31
0.0
  0
SPLINE
  5
134
100
AcDbEntity
  8
0
 62
5
100
AcDbSpline
 70
0
 71
3
 72
10
 73
6
 74
4
 40
0.000000
 40
0.000000
 40
0.000000
 40
0.000000
 40
0.040731
 40
0.325847
 40
1.099732
 40
1.099732
 40
1.099732
 40
1.099732
 10
78.447954
 20
164.812630
 30
0.0
 10
78.441001
 20
164.800968
 30
0.0
 10
78.385383
 20
164.707673
 30
0.0
 10
78.197670
 20
164.392804
 30
0.0
 10
78.016910
 20
164.089596
 30
0.0
 10
77.884816
 20
163.868021
 30
0.0
 11
78.447954
 21
164.812630
 31
0.0
 11
78.427097
 21
164.777645
 31
0.0
 11
78.281098
 21
164.532746
 31
0.0
 11
77.884816
 21
163.868021
 31
0.0
  0
LINE
  5
135
100
AcDbEntity
  8
0
 62
5
100
AcDbLine
 10
46.127526
 20
198.726455
 30
0.0
 11
39.627023
 21
196.614313
 31
0.0
  0
SPLINE
  5
136
100
AcDbEntity
  8
0
 62
5
100
AcDbSpline
 70
0
 71
3
 72
10
 73
6
 74
4
 40
0.000000
 40
0.000000
 40
0.000000
 40
0.000000
 40
0.773886
 40
1.059001
 40
1.099732
 40
1.099732
 40
1.099732
 40
1.099732
 10
46.851883
 20
197.898978
 30
0.0
 10
46.681972
 20
198.093078
 30
0.0
 10
46.449463
 20
198.358687
 30
0.0
 10
46.208010
 20
198.634513
 30
0.0
 10
46.136469
 20
198.716239
 30
0.0
 10
46.127526
 20
198.726455
 30
0.0
 11
46.851883
 21
197.898978
 31
0.0
 11
46.342150
 21
198.481276
 31
0.0
 11
46.154354
 21
198.695807
 31
0.0
 11
46.127526
 21
198.726455
 31
0.0
  0
LINE
  5
137
100
AcDbEntity
  8
0
 62
5
100
AcDbLine
 10
4.378167
 20
165.457971
 30
0.0
 11
0.594594
 21
169.241543
 31
0.0
  0
LINE
  5
138
100
AcDbEntity
  8
0
 62
5
100
AcDbLine
 10
0.594594
 20
169.241543
 30
0.0
 11
0.594594
 21
180.862673
 31
0.0
  0
LINE
  5
139
100
AcDbEntity
  8
0
 62
5
100
AcDbLine
 10
0.594594
 20
180.862673
 30
0.0
 11
4.378167
 21
184.646245
 31
0.0
  0
LINE
  5
13a
100
AcDbEntity
  8
0
 62
1
100
AcDbLine
 10
4.378054
 20
171.459395
 30
0.0
 11
4.378167
 21
165.457971
 31
0.0
  0
LINE
  5
13b
100
AcDbEntity
  8
0
 62
1
100
AcDbLine
 10
4.378167
 20
184.646245
 30
0.0
 11
4.378280
 21
178.644821
 31
0.0
  0
SPLINE
  5
13c
100
AcDbEntity
  8
0
 62
5
100
AcDbSpline
 70
0
 71
3
 72
10
 73
6
 74
4
 40
0.000000
 40
0.000000
 40
0.000000
 40
0.000000
 40
0.040731
 40
0.325847
 40
1.099733
 40
1.099733
 40
1.099733
 40
1.099733
 10
39.627023
 20
196.614313
 30
0.0
 10
39.625792
 20
196.600792
 30
0.0
 10
39.615951
 20
196.492623
 30
0.0
 10
39.582738
 20
196.127553
 30
0.0
 10
39.550754
 20
195.776004
 30
0.0
 10
39.527381
 20
195.519103
 30
0.0
 11
39.627023
 21
196.614313
 31
0.0
 11
39.623332
 21
196.573750
 31
0.0
 11
39.597499
 21
196.289806
 31
0.0
 11
39.527381
 21
195.519103
 31
0.0
  0
LINE
  5
13d
100
AcDbEntity
  8
0
 62
5
100
AcDbLine
 10
3.888777
 20
178.468333
 30
0.0
 11
3.888777
 21
171.633301
 31
0.0
  0
SPLINE
  5
13e
100
AcDbEntity
  8
0
 62
5
100
AcDbSpline
 70
0
 71
3
 72
10
 73
6
 74
4
 40
0.000000
 40
0.000000
 40
0.000000
 40
0.000000
 40
0.773886
 40
1.059002
 40
1.099733
 40
1.099733
 40
1.099733
 40
1.099733
 10
4.899593
 20
178.901535
 30
0.0
 10
4.662488
 20
178.799920
 30
0.0
 10
4.338028
 20
178.660868
 30
0.0
 10
4.001090
 20
178.516467
 30
0.0
 10
3.901256
 20
178.473681
 30
0.0
 10
3.888777
 20
178.468333
 30
0.0
 11
4.899593
 21
178.901535
 31
0.0
 11
4.188278
 21
178.596689
 31
0.0
 11
3.926214
 21
178.484378
 31
0.0
 11
3.888777
 21
178.468333
 31
0.0
  0
LINE
  5
13f
100
AcDbEntity
  8
0
 62
5
100
AcDbLine
 10
4.378393
 20
84.177062
 30
0.0
 11
3.541347
 21
89.461967
 31
0.0
  0
LINE
  5
140
100
AcDbEntity
  8
0
 62
5
100
AcDbLine
 10
3.541347
 20
89.461967
 30
0.0
 11
10.372075
 21
98.863658
 31
0.0
  0
LINE
  5
141
100
AcDbEntity
  8
0
 62
5
100
AcDbLine
 10
10.372075
 20
98.863658
 30
0.0
 11
15.656978
 21
99.700704
 31
0.0
  0
LINE
  5
142
100
AcDbEntity
  8
0
 62
1
100
AcDbLine
 10
7.905851
 20
89.032385
 30
0.0
 11
4.378393
 21
84.177062
 31
0.0
  0
LINE
  5
143
100
AcDbEntity
  8
0
 62
1
100
AcDbLine
 10
15.656978
 20
99.700704
 30
0.0
 11
12.129521
 21
94.845384
 31
0.0
  0
SPLINE
  5
144
100
AcDbEntity
  8
0
 62
5
100
AcDbSpline
 70
0
 71
3
 72
10
 73
6
 74
4
 40
0.000000
 40
0.000000
 40
0.000000
 40
0.000000
 40
0.040731
 40
0.325847
 40
1.099734
 40
1.099734
 40
1.099734
 40
1.099734
 10
3.888777
 20
171.633301
 30
0.0
 10
3.901256
 20
171.627952
 30
0.0
 10
4.001090
 20
171.585167
 30
0.0
 10
4.338028
 20
171.440766
 30
0.0
 10
4.662488
 20
171.301713
 30
0.0
 10
4.899593
 20
171.200098
 30
0.0
 11
3.888777
 21
171.633301
 31
0.0
 11
3.926214
 21
171.617256
 31
0.0
 11
4.188278
 21
171.504944
 31
0.0
 11
4.899593
 21
171.200098
 31
0.0
  0
LINE
  5
145
100
AcDbEntity
  8
0
 62
5
100
AcDbLine
 10
11.629766
 20
94.990322
 30
0.0
 11
7.612234
 21
89.460663
 31
0.0
  0
SPLINE
  5
146
100
AcDbEntity
  8
0
 62
5
100
AcDbSpline
 70
0
 71
3
 72
10
 73
6
 74
4
 40
0.000000
 40
0.000000
 40
0.000000
 40
0.000000
 40
0.773886
 40
1.059002
 40
1.099733
 40
1.099733
 40
1.099733
 40
1.099733
 10
12.702164
 20
94.746648
 30
0.0
 10
12.450614
 20
94.803806
 30
0.0
 10
12.106387
 20
94.882022
 30
0.0
 10
11.748921
 20
94.963247
 30
0.0
 10
11.643006
 20
94.987313
 30
0.0
 10
11.629766
 20
94.990322
 30
0.0
 11
12.702164
 21
94.746648
 31
0.0
 11
11.947514
 21
94.918122
 31
0.0
 11
11.669485
 21
94.981297
 31
0.0
 11
11.629766
 21
94.990322
 31
0.0
  0
LINE
  5
147
100
AcDbEntity
  8
0
 62
5
100
AcDbLine
 10
4.378171
 20
134.411390
 30
0.0
 11
6.807374
 21
129.643810
 31
0.0
  0
LINE
  5
148
100
AcDbEntity
  8
0
 62
5
100
AcDbLine
 10
6.807374
 20
129.643810
 30
0.0
 11
17.859725
 21
126.052682
 31
0.0
  0
LINE
  5
149
100
AcDbEntity
  8
0
 62
5
100
AcDbLine
 10
17.859725
 20
126.052682
 30
0.0
 11
22.627305
 21
128.481887
 31
0.0
  0
LINE
  5
14a
100
AcDbEntity
  8
0
 62
1
100
AcDbLine
 10
10.085830
 20
132.556738
 30
0.0
 11
4.378171
 21
134.411390
 31
0.0
  0
LINE
  5
14b
100
AcDbEntity
  8
0
 62
1
100
AcDbLine
 10
22.627305
 20
128.481887
 30
0.0
 11
16.919646
 21
130.336536
 31
0.0
  0
SPLINE
  5
14c
100
AcDbEntity
  8
0
 62
5
100
AcDbSpline
 70
0
 71
3
 72
10
 73
6
 74
4
 40
0.000000
 40
0.000000
 40
0.000000
 40
0.000000
 40
0.040731
 40
0.325847
 40
1.099732
 40
1.099732
 40
1.099732
 40
1.099732
 10
7.612234
 20
89.460663
 30
0.0
 10
7.619186
 20
89.449001
 30
0.0
 10
7.674805
 20
89.355706
 30
0.0
 10
7.862518
 20
89.040836
 30
0.0
 10
8.043278
 20
88.737629
 30
0.0
 10
8.175372
 20
88.516054
 30
0.0
 11
7.612234
 21
89.460663
 31
0.0
 11
7.633091
 21
89.425677
 31
0.0
 11
7.779090
 21
89.180778
 31
0.0
 11
8.175372
 21
88.516054
 31
0.0
  0
LINE
  5
14d
100
AcDbEntity
  8
0
 62
5
100
AcDbLine
 10
16.600531
 20
129.925527
 30
0.0
 11
10.100027
 21
132.037669
 31
0.0
  0
SPLINE
  5
14e
100
AcDbEntity
  8
0
 62
5
100
AcDbSpline
 70
0
 71
3
 72
10
 73
6
 74
4
 40
0.000000
 40
0.000000
 40
0.000000
 40
0.000000
 40
0.773886
 40
1.059002
 40
1.099733
 40
1.099733
 40
1.099733
 40
1.099733
 10
17.324890
 20
130.753002
 30
0.0
 10
17.154978
 20
130.558903
 30
0.0
 10
16.922468
 20
130.293294
 30
0.0
 10
16.681015
 20
130.017469
 30
0.0
 10
16.609473
 20
129.935743
 30
0.0
 10
16.600531
 20
129.925527
 30
0.0
 11
17.324890
 21
130.753002
 31
0.0
 11
16.815156
 21
130.170705
 31
0.0
 11
16.627359
 21
129.956174
 31
0.0
 11
16.600531
 21
129.925527
 31
0.0
  0
LINE
  5
14f
100
AcDbEntity
  8
0
 62
5
100
AcDbLine
 10
33.905884
 20
43.535992
 30
0.0
 11
28.620982
 21
44.373038
 31
0.0
  0
LINE
  5
150
100
AcDbEntity
  8
0
 62
5
100
AcDbLine
 10
28.620982
 20
44.373038
 30
0.0
 11
21.790254
 21
53.774729
 31
0.0
  0
LINE
  5
151
100
AcDbEntity
  8
0
 62
5
100
AcDbLine
 10
21.790254
 20
53.774729
 30
0.0
 11
22.627300
 21
59.059634
 31
0.0
  0
LINE
  5
152
100
AcDbEntity
  8
0
 62
1
100
AcDbLine
 10
30.378245
 20
48.391180
 30
0.0
 11
33.905884
 21
43.535992
 31
0.0
  0
LINE
  5
153
100
AcDbEntity
  8
0
 62
1
100
AcDbLine
 10
22.627300
 20
59.059634
 30
0.0
 11
26.154940
 21
54.204444
 31
0.0
  0
SPLINE
  5
154
100
AcDbEntity
  8
0
 62
5
100
AcDbSpline
 70
0
 71
3
 72
10
 73
6
 74
4
 40
0.000000
 40
0.000000
 40
0.000000
 40
0.000000
 40
0.040731
 40
0.325846
 40
1.099732
 40
1.099732
 40
1.099732
 40
1.099732
 10
10.100027
 20
132.037669
 30
0.0
 10
10.098797
 20
132.051191
 30
0.0
 10
10.088956
 20
132.159359
 30
0.0
 10
10.055742
 20
132.524429
 30
0.0
 10
10.023759
 20
132.875977
 30
0.0
 10
10.000387
 20
133.132878
 30
0.0
 11
10.100027
 21
132.037669
 31
0.0
 11
10.096337
 21
132.078233
 31
0.0
 11
10.070504
 21
132.362176
 31
0.0
 11
10.000387
 21
133.132878
 31
0.0
  0
LINE
  5
155
100
AcDbEntity
  8
0
 62
5
100
AcDbLine
 10
25.862659
 20
53.773939
 30
0.0
 11
29.880190
 21
48.244283
 31
0.0
  0
SPLINE
  5
156
100
AcDbEntity
  8
0
 62
5
100
AcDbSpline
 70
0
 71
3
 72
10
 73
6
 74
4
 40
0.000000
 40
0.000000
 40
0.000000
 40
0.000000
 40
0.773887
 40
1.059003
 40
1.099734
 40
1.099734
 40
1.099734
 40
1.099734
 10
26.425797
 20
54.718551
 30
0.0
 10
26.293703
 20
54.496976
 30
0.0
 10
26.112942
 20
54.193767
 30
0.0
 10
25.925230
 20
53.878896
 30
0.0
 10
25.869611
 20
53.785601
 30
0.0
 10
25.862659
 20
53.773939
 30
0.0
 11
26.425797
 21
54.718551
 31
0.0
 11
26.029515
 21
54.053824
 31
0.0
 11
25.883516
 21
53.808925
 31
0.0
 11
25.862659
 21
53.773939
 31
0.0
  0
LINE
  5
157
100
AcDbEntity
  8
0
 62
5
100
AcDbLine
 10
31.399881
 20
94.570694
 30
0.0
 11
21.790093
 21
104.009941
 31
0.0
  0
LINE
  5
158
100
AcDbEntity
  8
0
 62
5
100
AcDbLine
 10
21.790093
 20
104.009941
 30
0.0
 11
22.627139
 21
109.294845
 31
0.0
  0
LINE
  5
159
100
AcDbEntity
  8
0
 62
1
100
AcDbLine
 10
30.378084
 20
98.626391
 30
0.0
 11
33.905723
 21
93.771204
 31
0.0
  0
LINE
  5
15a
100
AcDbEntity
  8
0
 62
1
100
AcDbLine
 10
22.627139
 20
109.294845
 30
0.0
 11
26.154779
 21
104.439655
 31
0.0
  0
SPLINE
  5
15b
100
AcDbEntity
  8
0
 62
5
100
AcDbSpline
 70
0
 71
3
 72
10
 73
6
 74
4
 40
0.000000
 40
0.000000
 40
0.000000
 40
0.000000
 40
0.040731
 40
0.325847
 40
1.099735
 40
1.099735
 40
1.099735
 40
1.099735
 10
29.880190
 20
48.244283
 30
0.0
 10
29.893430
 20
48.247291
 30
0.0
 10
29.999346
 20
48.271358
 30
0.0
 10
30.356812
 20
48.352582
 30
0.0
 10
30.701039
 20
48.430799
 30
0.0
 10
30.952590
 20
48.487957
 30
0.0
 11
29.880190
 21
48.244283
 31
0.0
 11
29.919909
 21
48.253308
 31
0.0
 11
30.197938
 21
48.316483
 31
0.0
 11
30.952590
 21
48.487957
 31
0.0
  0
LINE
  5
15c
100
AcDbEntity
  8
0
 62
5
100
AcDbLine
 10
25.862498
 20
104.009150
 30
0.0
 11
29.880029
 21
98.479494
 31
0.0
  0
SPLINE
  5
15d
100
AcDbEntity
  8
0
 62
5
100
AcDbSpline
 70
0
 71
3
 72
10
 73
6
 74
4
 40
0.000000
 40
0.000000
 40
0.000000
 40
0.000000
 40
0.773887
 40
1.059003
 40
1.099734
 40
1.099734
 40
1.099734
 40
1.099734
 10
26.425636
 20
104.953762
 30
0.0
 10
26.293542
 20
104.732187
 30
0.0
 10
26.112782
 20
104.428978
 30
0.0
 10
25.925069
 20
104.114107
 30
0.0
 10
25.869450
 20
104.020812
 30
0.0
 10
25.862498
 20
104.009150
 30
0.0
 11
26.425636
 21
104.953762
 31
0.0
 11
26.029354
 21
104.289035
 31
0.0
 11
25.883355
 21
104.044136
 31
0.0
 11
25.862498
 21
104.009150
 31
0.0
  0
LINE
  5
15e
100
AcDbEntity
  8
0
 62
5
100
AcDbLine
 10
21.364704
 20
97.846267
 30
0.0
 11
22.018333
 21
97.633655
 31
0.0
  0
LINE
  5
15f
100
AcDbEntity
  8
0
 62
5
100
AcDbLine
 10
22.018333
 20
97.633655
 30
0.0
 11
22.169598
 21
98.099200
 31
0.0
  0
LINE
  5
160
100
AcDbEntity
  8
0
 62
5
100
AcDbLine
 10
22.169598
 20
98.099200
 30
0.0
 11
21.040402
 21
98.466097
 31
0.0
  0
SPLINE
  5
161
100
AcDbEntity
  8
0
 62
5
100
AcDbSpline
 70
0
 71
3
 72
10
 73
6
 74
4
 40
0.000000
 40
0.000000
 40
0.000000
 40
0.000000
 40
0.040731
 40
0.325847
 40
1.099735
 40
1.099735
 40
1.099735
 40
1.099735
 10
29.880029
 20
98.479494
 30
0.0
 10
29.893269
 20
98.482503
 30
0.0
 10
29.999185
 20
98.506569
 30
0.0
 10
30.356651
 20
98.587794
 30
0.0
 10
30.700878
 20
98.666010
 30
0.0
 10
30.952429
 20
98.723168
 30
0.0
 11
29.880029
 21
98.479494
 31
0.0
 11
29.919748
 21
98.488519
 31
0.0
 11
30.197777
 21
98.551694
 31
0.0
 11
30.952429
 21
98.723168
 31
0.0
  0
LINE
  5
162
100
AcDbEntity
  8
0
 62
5
100
AcDbLine
 10
28.825074
 20
95.936466
 30
0.0
 11
27.695882
 21
96.303363
 31
0.0
  0
LINE
  5
163
100
AcDbEntity
  8
0
 62
5
100
AcDbLine
 10
27.695882
 20
96.303363
 30
0.0
 11
27.544618
 21
95.837821
 31
0.0
  0
LINE
  5
164
100
AcDbEntity
  8
0
 62
5
100
AcDbLine
 10
27.544618
 20
95.837821
 30
0.0
 11
28.198384
 21
95.625635
 31
0.0
  0
LINE
  5
165
100
AcDbEntity
  8
0
 62
5
100
AcDbLine
 10
21.364708
 20
97.846267
 30
0.0
 11
15.656979
 21
99.700701
 31
0.0
  0
LINE
  5
166
100
AcDbEntity
  8
0
 62
5
100
AcDbLine
 10
33.906113
 20
93.771198
 30
0.0
 11
28.198384
 21
95.625635
 31
0.0
  0
LINE
  5
167
100
AcDbEntity
  8
0
 62
1
100
AcDbLine
 10
22.018335
 20
97.633655
 30
0.0
 11
27.544620
 21
95.837821
 31
0.0
  0
LINE
  5
168
100
AcDbEntity
  8
0
 62
5
100
AcDbLine
 10
32.370889
 20
72.446419
 30
0.0
 11
20.424046
 21
66.223856
 31
0.0
  0
LINE
  5
169
100
AcDbEntity
  8
0
 62
5
100
AcDbLine
 10
20.424046
 20
66.223856
 30
0.0
 11
15.656467
 21
68.653062
 31
0.0
  0
LINE
  5
16a
100
AcDbEntity
  8
0
 62
1
100
AcDbLine
 10
28.197941
 20
72.727913
 30
0.0
 11
33.905599
 21
74.582565
 31
0.0
  0
LINE
  5
16b
100
AcDbEntity
  8
0
 62
1
100
AcDbLine
 10
15.656467
 20
68.653062
 30
0.0
 11
21.364125
 21
70.507710
 31
0.0
  0
SPLINE
  5
16c
100
AcDbEntity
  8
0
 62
5
100
AcDbSpline
 70
0
 71
3
 72
16
 73
12
 74
10
 40
0.000000
 40
0.000000
 40
0.000000
 40
0.000000
 40
0.427745
 40
1.398606
 40
2.530431
 40
4.308945
 40
6.070412
 40
7.956245
 40
9.131091
 40
10.096679
 40
10.498457
 40
10.498457
 40
10.498457
 40
10.498457
 10
21.040402
 20
98.466097
 30
0.0
 10
21.111770
 20
98.589548
 30
0.0
 10
21.345121
 20
98.993196
 30
0.0
 10
21.880626
 20
99.655884
 30
0.0
 10
23.001022
 20
100.375520
 30
0.0
 10
24.663326
 20
100.380542
 30
0.0
 10
26.301764
 20
99.519827
 30
0.0
 10
27.416957
 20
98.331281
 30
0.0
 10
28.145121
 20
97.202814
 30
0.0
 10
28.560281
 20
96.463408
 30
0.0
 10
28.764939
 20
96.056136
 30
0.0
 10
28.825074
 20
95.936466
 30
0.0
 11
21.040402
 21
98.466097
 31
0.0
 11
21.260363
 21
98.832954
 31
0.0
 11
21.881099
 21
99.579449
 31
0.0
 11
22.843895
 21
100.174473
 31
0.0
 11
24.621279
 21
100.237855
 31
0.0
 11
26.204059
 21
99.464827
 31
0.0
 11
27.522808
 21
98.116765
 31
0.0
 11
28.171651
 21
97.137345
 31
0.0
 11
28.643059
 21
96.294650
 31
0.0
 11
28.825074
 21
95.936466
 31
0.0
  0
LINE
  5
16d
100
AcDbEntity
  8
0
 62
5
100
AcDbLine
 10
21.683239
 20
70.096702
 30
0.0
 11
28.183743
 21
72.208844
 31
0.0
  0
SPLINE
  5
16e
100
AcDbEntity
  8
0
 62
5
100
AcDbSpline
 70
0
 71
3
 72
10
 73
6
 74
4
 40
0.000000
 40
0.000000
 40
0.000000
 40
0.000000
 40
0.773887
 40
1.059004
 40
1.099735
 40
1.099735
 40
1.099735
 40
1.099735
 10
20.958880
 20
70.924180
 30
0.0
 10
21.128791
 20
70.730080
 30
0.0
 10
21.361302
 20
70.464470
 30
0.0
 10
21.602755
 20
70.188644
 30
0.0
 10
21.674296
 20
70.106918
 30
0.0
 10
21.683239
 20
70.096702
 30
0.0
 11
20.958880
 21
70.924180
 31
0.0
 11
21.468614
 21
70.341881
 31
0.0
 11
21.656411
 21
70.127349
 31
0.0
 11
21.683239
 21
70.096702
 31
0.0
  0
LINE
  5
16f
100
AcDbEntity
  8
0
 62
5
100
AcDbLine
 10
26.154598
 20
63.914607
 30
0.0
 11
26.558786
 21
64.470545
 31
0.0
  0
LINE
  5
170
100
AcDbEntity
  8
0
 62
5
100
AcDbLine
 10
26.558786
 20
64.470545
 30
0.0
 11
26.162769
 21
64.758268
 31
0.0
  0
LINE
  5
171
100
AcDbEntity
  8
0
 62
5
100
AcDbLine
 10
26.162769
 20
64.758268
 30
0.0
 11
25.464888
 21
63.797716
 31
0.0
  0
SPLINE
  5
172
100
AcDbEntity
  8
0
 62
5
100
AcDbSpline
 70
0
 71
3
 72
10
 73
6
 74
4
 40
0.000000
 40
0.000000
 40
0.000000
 40
0.000000
 40
0.040731
 40
0.325847
 40
1.099734
 40
1.099734
 40
1.099734
 40
1.099734
 10
28.183743
 20
72.208844
 30
0.0
 10
28.184973
 20
72.222366
 30
0.0
 10
28.194814
 20
72.330535
 30
0.0
 10
28.228027
 20
72.695605
 30
0.0
 10
28.260010
 20
73.047154
 30
0.0
 10
28.283383
 20
73.304056
 30
0.0
 11
28.183743
 21
72.208844
 31
0.0
 11
28.187433
 21
72.249408
 31
0.0
 11
28.213266
 21
72.533351
 31
0.0
 11
28.283383
 21
73.304056
 31
0.0
  0
LINE
  5
173
100
AcDbEntity
  8
0
 62
5
100
AcDbLine
 10
30.276306
 20
70.419680
 30
0.0
 11
29.578427
 21
69.459131
 31
0.0
  0
LINE
  5
174
100
AcDbEntity
  8
0
 62
5
100
AcDbLine
 10
29.578427
 20
69.459131
 30
0.0
 11
29.974441
 21
69.171411
 31
0.0
  0
LINE
  5
175
100
AcDbEntity
  8
0
 62
5
100
AcDbLine
 10
29.974441
 20
69.171411
 30
0.0
 11
30.378267
 21
69.727612
 31
0.0
  0
LINE
  5
176
100
AcDbEntity
  8
0
 62
5
100
AcDbLine
 10
26.154598
 20
63.914613
 30
0.0
 11
22.627140
 21
59.059290
 31
0.0
  0
LINE
  5
177
100
AcDbEntity
  8
0
 62
5
100
AcDbLine
 10
33.905723
 20
74.582932
 30
0.0
 11
30.378267
 21
69.727612
 31
0.0
  0
LINE
  5
178
100
AcDbEntity
  8
0
 62
1
100
AcDbLine
 10
26.558784
 20
64.470545
 30
0.0
 11
29.974438
 21
69.171411
 31
0.0
  0
LINE
  5
179
100
AcDbEntity
  8
0
 62
5
100
AcDbLine
 10
53.711562
 20
66.533838
 30
0.0
 11
55.937793
 21
53.248837
 31
0.0
  0
LINE
  5
17a
100
AcDbEntity
  8
0
 62
5
100
AcDbLine
 10
55.937793
 20
53.248837
 30
0.0
 11
52.154221
 21
49.465264
 31
0.0
  0
LINE
  5
17b
100
AcDbEntity
  8
0
 62
1
100
AcDbLine
 10
52.154334
 20
62.652114
 30
0.0
 11
52.154221
 21
68.653539
 31
0.0
  0
LINE
  5
17c
100
AcDbEntity
  8
0
 62
1
100
AcDbLine
 10
52.154221
 20
49.465264
 30
0.0
 11
52.154108
 21
55.466688
 31
0.0
  0
SPLINE
  5
17d
100
AcDbEntity
  8
0
 62
5
100
AcDbSpline
 70
0
 71
3
 72
16
 73
12
 74
10
 40
0.000000
 40
0.000000
 40
0.000000
 40
0.000000
 40
0.427746
 40
1.398606
 40
2.530432
 40
4.308945
 40
6.070411
 40
7.956245
 40
9.131090
 40
10.096678
 40
10.498456
 40
10.498456
 40
10.498456
 40
10.498456
 10
25.464888
 20
63.797716
 30
0.0
 10
25.369533
 20
63.903739
 30
0.0
 10
25.057750
 20
64.250404
 30
0.0
 10
24.592978
 20
64.964482
 30
0.0
 10
24.254785
 20
66.252421
 30
0.0
 10
24.763687
 20
67.834918
 30
0.0
 10
26.088582
 20
69.127189
 30
0.0
 10
27.563570
 20
69.820518
 30
0.0
 10
28.861820
 20
70.164329
 30
0.0
 10
29.693329
 20
70.330681
 30
0.0
 10
30.143910
 20
70.399468
 30
0.0
 10
30.276306
 20
70.419680
 30
0.0
 11
25.464888
 21
63.797716
 31
0.0
 11
25.183959
 21
64.120276
 31
0.0
 11
24.665817
 21
64.941312
 31
0.0
 11
24.397436
 21
66.040858
 31
0.0
 11
24.886398
 21
67.750836
 31
0.0
 11
26.110697
 21
69.017270
 31
0.0
 11
27.800296
 21
69.854899
 31
0.0
 11
28.932283
 21
70.169329
 31
0.0
 11
29.879407
 21
70.357258
 31
0.0
 11
30.276306
 21
70.419680
 31
0.0
  0
LINE
  5
17e
100
AcDbEntity
  8
0
 62
5
100
AcDbLine
 10
52.643611
 20
55.643176
 30
0.0
 11
52.643611
 21
62.478209
 31
0.0
  0
SPLINE
  5
17f
100
AcDbEntity
  8
0
 62
5
100
AcDbSpline
 70
0
 71
3
 72
10
 73
6
 74
4
 40
0.000000
 40
0.000000
 40
0.000000
 40
0.000000
 40
0.773886
 40
1.059002
 40
1.099733
 40
1.099733
 40
1.099733
 40
1.099733
 10
51.632795
 20
55.209973
 30
0.0
 10
51.869900
 20
55.311589
 30
0.0
 10
52.194360
 20
55.450642
 30
0.0
 10
52.531298
 20
55.595042
 30
0.0
 10
52.631132
 20
55.637828
 30
0.0
 10
52.643611
 20
55.643176
 30
0.0
 11
51.632795
 21
55.209973
 31
0.0
 11
52.344110
 21
55.514820
 31
0.0
 11
52.606173
 21
55.627132
 31
0.0
 11
52.643611
 21
55.643176
 31
0.0
  0
LINE
  5
180
100
AcDbEntity
  8
0
 62
5
100
AcDbLine
 10
59.904859
 20
57.985319
 30
0.0
 11
59.501032
 21
58.541519
 31
0.0
  0
LINE
  5
181
100
AcDbEntity
  8
0
 62
5
100
AcDbLine
 10
59.501032
 20
58.541519
 30
0.0
 11
59.105015
 21
58.253797
 31
0.0
  0
LINE
  5
182
100
AcDbEntity
  8
0
 62
5
100
AcDbLine
 10
59.105015
 20
58.253797
 30
0.0
 11
59.802897
 21
57.293245
 31
0.0
  0
SPLINE
  5
183
100
AcDbEntity
  8
0
 62
5
100
AcDbSpline
 70
0
 71
3
 72
10
 73
6
 74
4
 40
0.000000
 40
0.000000
 40
0.000000
 40
0.000000
 40
0.040731
 40
0.325847
 40
1.099733
 40
1.099733
 40
1.099733
 40
1.099733
 10
52.643611
 20
62.478209
 30
0.0
 10
52.631132
 20
62.483557
 30
0.0
 10
52.531298
 20
62.526342
 30
0.0
 10
52.194360
 20
62.670743
 30
0.0
 10
51.869900
 20
62.809796
 30
0.0
 10
51.632795
 20
62.911411
 30
0.0
 11
52.643611
 21
62.478209
 31
0.0
 11
52.606173
 21
62.494253
 31
0.0
 11
52.344110
 21
62.606565
 31
0.0
 11
51.632795
 21
62.911411
 31
0.0
  0
LINE
  5
184
100
AcDbEntity
  8
0
 62
5
100
AcDbLine
 10
54.991847
 20
63.915473
 30
0.0
 11
55.689726
 21
62.954924
 31
0.0
  0
LINE
  5
185
100
AcDbEntity
  8
0
 62
5
100
AcDbLine
 10
55.689726
 20
62.954924
 30
0.0
 11
56.085740
 21
63.242647
 31
0.0
  0
LINE
  5
186
100
AcDbEntity
  8
0
 62
5
100
AcDbLine
 10
56.085740
 20
63.242647
 30
0.0
 11
55.681553
 21
63.798583
 31
0.0
  0
LINE
  5
187
100
AcDbEntity
  8
0
 62
5
100
AcDbLine
 10
59.904856
 20
57.985319
 30
0.0
 11
63.432495
 21
53.130131
 31
0.0
  0
LINE
  5
188
100
AcDbEntity
  8
0
 62
5
100
AcDbLine
 10
52.153910
 20
68.653773
 30
0.0
 11
55.681553
 21
63.798583
 31
0.0
  0
LINE
  5
189
100
AcDbEntity
  8
0
 62
1
100
AcDbLine
 10
59.501030
 20
58.541511
 30
0.0
 11
56.085737
 21
63.242639
 31
0.0
  0
LINE
  5
18a
100
AcDbEntity
  8
0
 62
5
100
AcDbLine
 10
52.139923
 20
102.330608
 30
0.0
 11
58.147593
 21
114.386947
 31
0.0
  0
LINE
  5
18b
100
AcDbEntity
  8
0
 62
5
100
AcDbLine
 10
58.147593
 20
114.386947
 30
0.0
 11
63.432495
 21
115.223993
 31
0.0
  0
LINE
  5
18c
100
AcDbEntity
  8
0
 62
1
100
AcDbLine
 10
55.681369
 20
104.555674
 30
0.0
 11
52.153913
 21
99.700351
 31
0.0
  0
LINE
  5
18d
100
AcDbEntity
  8
0
 62
1
100
AcDbLine
 10
63.432495
 20
115.223993
 30
0.0
 11
59.905039
 21
110.368673
 31
0.0
  0
SPLINE
  5
18e
100
AcDbEntity
  8
0
 62
5
100
AcDbSpline
 70
0
 71
3
 72
16
 73
12
 74
10
 40
0.000000
 40
0.000000
 40
0.000000
 40
0.000000
 40
0.427745
 40
1.398605
 40
2.530430
 40
4.308944
 40
6.070411
 40
7.956244
 40
9.131090
 40
10.096677
 40
10.498454
 40
10.498454
 40
10.498454
 40
10.498454
 10
59.802897
 20
57.293245
 30
0.0
 10
59.672598
 20
57.235320
 30
0.0
 10
59.246554
 20
57.045922
 30
0.0
 10
58.423804
 20
56.824559
 30
0.0
 10
57.094394
 20
56.900913
 30
0.0
 10
55.746607
 20
57.873926
 30
0.0
 10
54.927000
 20
59.533310
 30
0.0
 10
54.723397
 20
61.150358
 30
0.0
 10
54.797604
 20
62.491310
 30
0.0
 10
54.896343
 20
63.333527
 30
0.0
 10
54.970157
 20
63.783312
 30
0.0
 10
54.991847
 20
63.915473
 30
0.0
 11
59.802897
 21
57.293245
 31
0.0
 11
59.409313
 21
57.125741
 31
0.0
 11
58.468348
 21
56.886674
 31
0.0
 11
57.339684
 21
56.971207
 31
0.0
 11
55.864494
 21
57.964648
 31
0.0
 11
55.038372
 21
59.520376
 31
0.0
 11
54.763853
 21
61.386122
 31
0.0
 11
54.814622
 21
62.559870
 31
0.0
 11
54.928567
 21
63.518711
 31
0.0
 11
54.991847
 21
63.915473
 31
0.0
  0
LINE
  5
18f
100
AcDbEntity
  8
0
 62
5
100
AcDbLine
 10
59.405286
 20
110.513614
 30
0.0
 11
55.387754
 21
104.983955
 31
0.0
  0
SPLINE
  5
190
100
AcDbEntity
  8
0
 62
5
100
AcDbSpline
 70
0
 71
3
 72
10
 73
6
 74
4
 40
0.000000
 40
0.000000
 40
0.000000
 40
0.000000
 40
0.773886
 40
1.059002
 40
1.099733
 40
1.099733
 40
1.099733
 40
1.099733
 10
60.477682
 20
110.269937
 30
0.0
 10
60.226132
 20
110.327096
 30
0.0
 10
59.881906
 20
110.405313
 30
0.0
 10
59.524441
 20
110.486538
 30
0.0
 10
59.418525
 20
110.510605
 30
0.0
 10
59.405286
 20
110.513614
 30
0.0
 11
60.477682
 21
110.269937
 31
0.0
 11
59.723033
 21
110.441413
 31
0.0
 11
59.445004
 21
110.504588
 31
0.0
 11
59.405286
 21
110.513614
 31
0.0
  0
LINE
  5
191
100
AcDbEntity
  8
0
 62
5
100
AcDbLine
 10
52.154136
 20
112.886834
 30
0.0
 11
52.153913
 21
112.199496
 31
0.0
  0
LINE
  5
192
100
AcDbEntity
  8
0
 62
5
100
AcDbLine
 10
52.153913
 20
112.199496
 30
0.0
 11
52.643416
 21
112.199496
 31
0.0
  0
LINE
  5
193
100
AcDbEntity
  8
0
 62
5
100
AcDbLine
 10
52.643416
 20
112.199496
 30
0.0
 11
52.643416
 21
113.386802
 31
0.0
  0
SPLINE
  5
194
100
AcDbEntity
  8
0
 62
5
100
AcDbSpline
 70
0
 71
3
 72
10
 73
6
 74
4
 40
0.000000
 40
0.000000
 40
0.000000
 40
0.000000
 40
0.040731
 40
0.325847
 40
1.099732
 40
1.099732
 40
1.099732
 40
1.099732
 10
55.387754
 20
104.983955
 30
0.0
 10
55.394706
 20
104.972293
 30
0.0
 10
55.450325
 20
104.878998
 30
0.0
 10
55.638037
 20
104.564128
 30
0.0
 10
55.818797
 20
104.260920
 30
0.0
 10
55.950891
 20
104.039345
 30
0.0
 11
55.387754
 21
104.983955
 31
0.0
 11
55.408611
 21
104.948969
 31
0.0
 11
55.554609
 21
104.704070
 31
0.0
 11
55.950891
 21
104.039345
 31
0.0
  0
LINE
  5
195
100
AcDbEntity
  8
0
 62
5
100
AcDbLine
 10
52.643191
 20
105.201441
 30
0.0
 11
52.643191
 21
106.388744
 31
0.0
  0
LINE
  5
196
100
AcDbEntity
  8
0
 62
5
100
AcDbLine
 10
52.643191
 20
106.388744
 30
0.0
 11
52.153690
 21
106.388744
 31
0.0
  0
LINE
  5
197
100
AcDbEntity
  8
0
 62
5
100
AcDbLine
 10
52.153690
 20
106.388744
 30
0.0
 11
52.153913
 21
105.701406
 31
0.0
  0
LINE
  5
198
100
AcDbEntity
  8
0
 62
5
100
AcDbLine
 10
52.154139
 20
112.886831
 30
0.0
 11
52.154026
 21
118.888256
 31
0.0
  0
LINE
  5
199
100
AcDbEntity
  8
0
 62
5
100
AcDbLine
 10
52.154026
 20
99.699984
 30
0.0
 11
52.153913
 21
105.701406
 31
0.0
  0
LINE
  5
19a
100
AcDbEntity
  8
0
 62
1
100
AcDbLine
 10
52.153916
 20
112.199496
 30
0.0
 11
52.153690
 21
106.388744
 31
0.0
  0
LINE
  5
19b
100
AcDbEntity
  8
0
 62
5
100
AcDbLine
 10
53.689174
 20
147.798742
 30
0.0
 11
65.636019
 21
141.576179
 31
0.0
  0
LINE
  5
19c
100
AcDbEntity
  8
0
 62
5
100
AcDbLine
 10
65.636019
 20
141.576179
 30
0.0
 11
70.403596
 21
144.005385
 31
0.0
  0
LINE
  5
19d
100
AcDbEntity
  8
0
 62
1
100
AcDbLine
 10
57.862123
 20
148.080236
 30
0.0
 11
52.154463
 21
149.934888
 31
0.0
  0
LINE
  5
19e
100
AcDbEntity
  8
0
 62
1
100
AcDbLine
 10
70.403596
 20
144.005385
 30
0.0
 11
64.695939
 21
145.860033
 31
0.0
  0
SPLINE
  5
19f
100
AcDbEntity
  8
0
 62
5
100
AcDbSpline
 70
0
 71
3
 72
16
 73
12
 74
10
 40
0.000000
 40
0.000000
 40
0.000000
 40
0.000000
 40
0.427745
 40
1.398605
 40
2.530431
 40
4.308945
 40
6.070412
 40
7.956245
 40
9.131091
 40
10.096679
 40
10.498456
 40
10.498456
 40
10.498456
 40
10.498456
 10
52.643416
 20
113.386802
 30
0.0
 10
52.782879
 20
113.357076
 30
0.0
 10
53.238880
 20
113.259881
 30
0.0
 10
54.034614
 20
112.955366
 30
0.0
 10
55.065249
 20
112.112187
 30
0.0
 10
55.583708
 20
110.532793
 30
0.0
 10
55.271423
 20
108.708570
 30
0.0
 10
54.485662
 20
107.280678
 30
0.0
 10
53.637442
 20
106.239438
 30
0.0
 10
53.062516
 20
105.616108
 30
0.0
 10
52.738421
 20
105.295613
 30
0.0
 10
52.643191
 20
105.201441
 30
0.0
 11
52.643416
 21
113.386802
 31
0.0
 11
53.060289
 21
113.290972
 31
0.0
 11
53.962066
 21
112.931297
 31
0.0
 11
54.825488
 21
112.199496
 31
0.0
 11
55.435010
 21
110.528690
 31
0.0
 11
55.188923
 21
108.784497
 31
0.0
 11
54.314355
 21
107.113719
 31
0.0
 11
53.583375
 21
106.193975
 31
0.0
 11
52.927598
 21
105.485233
 31
0.0
 11
52.643191
 21
105.201441
 31
0.0
  0
LINE
  5
1a0
100
AcDbEntity
  8
0
 62
5
100
AcDbLine
 10
64.376825
 20
145.449025
 30
0.0
 11
57.876321
 21
147.561167
 31
0.0
  0
SPLINE
  5
1a1
100
AcDbEntity
  8
0
 62
5
100
AcDbSpline
 70
0
 71
3
 72
10
 73
6
 74
4
 40
0.000000
 40
0.000000
 40
0.000000
 40
0.000000
 40
0.773887
 40
1.059003
 40
1.099734
 40
1.099734
 40
1.099734
 40
1.099734
 10
65.101182
 20
146.276503
 30
0.0
 10
64.931271
 20
146.082403
 30
0.0
 10
64.698761
 20
145.816793
 30
0.0
 10
64.457309
 20
145.540967
 30
0.0
 10
64.385768
 20
145.459240
 30
0.0
 10
64.376825
 20
145.449025
 30
0.0
 11
65.101182
 21
146.276503
 31
0.0
 11
64.591449
 21
145.694203
 31
0.0
 11
64.403653
 21
145.479672
 31
0.0
 11
64.376825
 21
145.449025
 31
0.0
  0
LINE
  5
1a2
100
AcDbEntity
  8
0
 62
5
100
AcDbLine
 10
59.905465
 20
139.266930
 30
0.0
 11
59.501278
 21
139.822868
 31
0.0
  0
LINE
  5
1a3
100
AcDbEntity
  8
0
 62
5
100
AcDbLine
 10
59.501278
 20
139.822868
 30
0.0
 11
59.897295
 21
140.110591
 31
0.0
  0
LINE
  5
1a4
100
AcDbEntity
  8
0
 62
5
100
AcDbLine
 10
59.897295
 20
140.110591
 30
0.0
 11
60.595174
 21
139.150039
 31
0.0
  0
SPLINE
  5
1a5
100
AcDbEntity
  8
0
 62
5
100
AcDbSpline
 70
0
 71
3
 72
10
 73
6
 74
4
 40
0.000000
 40
0.000000
 40
0.000000
 40
0.000000
 40
0.040731
 40
0.325847
 40
1.099735
 40
1.099735
 40
1.099735
 40
1.099735
 10
57.876321
 20
147.561167
 30
0.0
 10
57.875091
 20
147.574688
 30
0.0
 10
57.865250
 20
147.682858
 30
0.0
 10
57.832036
 20
148.047928
 30
0.0
 10
57.800053
 20
148.399477
 30
0.0
 10
57.776680
 20
148.656379
 30
0.0
 11
57.876321
 21
147.561167
 31
0.0
 11
57.872631
 21
147.601731
 31
0.0
 11
57.846798
 21
147.885674
 31
0.0
 11
57.776680
 21
148.656379
 31
0.0
  0
LINE
  5
1a6
100
AcDbEntity
  8
0
 62
5
100
AcDbLine
 10
55.783757
 20
145.772003
 30
0.0
 11
56.481636
 21
144.811454
 31
0.0
  0
LINE
  5
1a7
100
AcDbEntity
  8
0
 62
5
100
AcDbLine
 10
56.481636
 20
144.811454
 30
0.0
 11
56.085621
 21
144.523734
 31
0.0
  0
LINE
  5
1a8
100
AcDbEntity
  8
0
 62
5
100
AcDbLine
 10
56.085621
 20
144.523734
 30
0.0
 11
55.681795
 21
145.079934
 31
0.0
  0
LINE
  5
1a9
100
AcDbEntity
  8
0
 62
5
100
AcDbLine
 10
59.905465
 20
139.266936
 30
0.0
 11
63.432924
 21
134.411613
 31
0.0
  0
LINE
  5
1aa
100
AcDbEntity
  8
0
 62
5
100
AcDbLine
 10
52.154339
 20
149.935255
 30
0.0
 11
55.681795
 21
145.079934
 31
0.0
  0
LINE
  5
1ab
100
AcDbEntity
  8
0
 62
1
100
AcDbLine
 10
59.501278
 20
139.822868
 30
0.0
 11
56.085624
 21
144.523734
 31
0.0
  0
LINE
  5
1ac
100
AcDbEntity
  8
0
 62
5
100
AcDbLine
 10
54.660145
 20
169.922306
 30
0.0
 11
64.269933
 21
179.361553
 31
0.0
  0
LINE
  5
1ad
100
AcDbEntity
  8
0
 62
5
100
AcDbLine
 10
64.269933
 20
179.361553
 30
0.0
 11
63.432888
 21
184.646456
 31
0.0
  0
LINE
  5
1ae
100
AcDbEntity
  8
0
 62
1
100
AcDbLine
 10
55.681942
 20
173.978003
 30
0.0
 11
52.154303
 21
169.122815
 31
0.0
  0
LINE
  5
1af
100
AcDbEntity
  8
0
 62
1
100
AcDbLine
 10
63.432888
 20
184.646456
 30
0.0
 11
59.905248
 21
179.791268
 31
0.0
  0
SPLINE
  5
1b0
100
AcDbEntity
  8
0
 62
5
100
AcDbSpline
 70
0
 71
3
 72
16
 73
12
 74
10
 40
0.000000
 40
0.000000
 40
0.000000
 40
0.000000
 40
0.427746
 40
1.398607
 40
2.530432
 40
4.308945
 40
6.070411
 40
7.956244
 40
9.131090
 40
10.096679
 40
10.498457
 40
10.498457
 40
10.498457
 40
10.498457
 10
60.595174
 20
139.150039
 30
0.0
 10
60.690529
 20
139.256062
 30
0.0
 10
61.002312
 20
139.602726
 30
0.0
 10
61.467085
 20
140.316805
 30
0.0
 10
61.805277
 20
141.604744
 30
0.0
 10
61.296376
 20
143.187241
 30
0.0
 10
59.971482
 20
144.479512
 30
0.0
 10
58.496494
 20
145.172841
 30
0.0
 10
57.198243
 20
145.516652
 30
0.0
 10
56.366734
 20
145.683004
 30
0.0
 10
55.916153
 20
145.751791
 30
0.0
 10
55.783757
 20
145.772003
 30
0.0
 11
60.595174
 21
139.150039
 31
0.0
 11
60.876104
 21
139.472599
 31
0.0
 11
61.394246
 21
140.293635
 31
0.0
 11
61.662626
 21
141.393181
 31
0.0
 11
61.173665
 21
143.103159
 31
0.0
 11
59.949366
 21
144.369593
 31
0.0
 11
58.259768
 21
145.207222
 31
0.0
 11
57.127780
 21
145.521652
 31
0.0
 11
56.180656
 21
145.709581
 31
0.0
 11
55.783757
 21
145.772003
 31
0.0
  0
LINE
  5
1b1
100
AcDbEntity
  8
0
 62
5
100
AcDbLine
 10
60.197529
 20
179.360763
 30
0.0
 11
56.179997
 21
173.831106
 31
0.0
  0
SPLINE
  5
1b2
100
AcDbEntity
  8
0
 62
5
100
AcDbSpline
 70
0
 71
3
 72
10
 73
6
 74
4
 40
0.000000
 40
0.000000
 40
0.000000
 40
0.000000
 40
0.773886
 40
1.059003
 40
1.099733
 40
1.099733
 40
1.099733
 40
1.099733
 10
59.634391
 20
180.305374
 30
0.0
 10
59.766485
 20
180.083799
 30
0.0
 10
59.947245
 20
179.780590
 30
0.0
 10
60.134958
 20
179.465720
 30
0.0
 10
60.190576
 20
179.372425
 30
0.0
 10
60.197529
 20
179.360763
 30
0.0
 11
59.634391
 21
180.305374
 31
0.0
 11
60.030673
 21
179.640648
 31
0.0
 11
60.176672
 21
179.395749
 31
0.0
 11
60.197529
 21
179.360763
 31
0.0
  0
LINE
  5
1b3
100
AcDbEntity
  8
0
 62
5
100
AcDbLine
 10
64.695321
 20
173.197878
 30
0.0
 11
64.041695
 21
172.985266
 31
0.0
  0
LINE
  5
1b4
100
AcDbEntity
  8
0
 62
5
100
AcDbLine
 10
64.041695
 20
172.985266
 30
0.0
 11
63.890429
 21
173.450812
 31
0.0
  0
LINE
  5
1b5
100
AcDbEntity
  8
0
 62
5
100
AcDbLine
 10
63.890429
 20
173.450812
 30
0.0
 11
65.019623
 21
173.817709
 31
0.0
  0
SPLINE
  5
1b6
100
AcDbEntity
  8
0
 62
5
100
AcDbSpline
 70
0
 71
3
 72
10
 73
6
 74
4
 40
0.000000
 40
0.000000
 40
0.000000
 40
0.000000
 40
0.040731
 40
0.325847
 40
1.099735
 40
1.099735
 40
1.099735
 40
1.099735
 10
56.179997
 20
173.831106
 30
0.0
 10
56.166757
 20
173.834114
 30
0.0
 10
56.060841
 20
173.858181
 30
0.0
 10
55.703375
 20
173.939405
 30
0.0
 10
55.359148
 20
174.017622
 30
0.0
 10
55.107597
 20
174.074780
 30
0.0
 11
56.179997
 21
173.831106
 31
0.0
 11
56.140278
 21
173.840131
 31
0.0
 11
55.862249
 21
173.903306
 31
0.0
 11
55.107597
 21
174.074780
 31
0.0
  0
LINE
  5
1b7
100
AcDbEntity
  8
0
 62
5
100
AcDbLine
 10
57.234952
 20
171.288078
 30
0.0
 11
58.364145
 21
171.654975
 31
0.0
  0
LINE
  5
1b8
100
AcDbEntity
  8
0
 62
5
100
AcDbLine
 10
58.364145
 20
171.654975
 30
0.0
 11
58.515408
 21
171.189433
 31
0.0
  0
LINE
  5
1b9
100
AcDbEntity
  8
0
 62
5
100
AcDbLine
 10
58.515408
 20
171.189433
 30
0.0
 11
57.861643
 21
170.977247
 31
0.0
  0
LINE
  5
1ba
100
AcDbEntity
  8
0
 62
5
100
AcDbLine
 10
64.695318
 20
173.197878
 30
0.0
 11
70.403048
 21
175.052314
 31
0.0
  0
LINE
  5
1bb
100
AcDbEntity
  8
0
 62
5
100
AcDbLine
 10
52.153913
 20
169.122810
 30
0.0
 11
57.861643
 21
170.977247
 31
0.0
  0
LINE
  5
1bc
100
AcDbEntity
  8
0
 62
1
100
AcDbLine
 10
64.041692
 20
172.985266
 30
0.0
 11
58.515405
 21
171.189433
 31
0.0
  0
LINE
  5
1bd
100
AcDbEntity
  8
0
 62
5
100
AcDbLine
 10
33.919270
 20
177.682949
 30
0.0
 11
27.911600
 21
189.739287
 31
0.0
  0
LINE
  5
1be
100
AcDbEntity
  8
0
 62
5
100
AcDbLine
 10
27.911600
 20
189.739287
 30
0.0
 11
22.626697
 21
190.576333
 31
0.0
  0
LINE
  5
1bf
100
AcDbEntity
  8
0
 62
1
100
AcDbLine
 10
30.377824
 20
179.908013
 30
0.0
 11
33.905283
 21
175.052693
 31
0.0
  0
LINE
  5
1c0
100
AcDbEntity
  8
0
 62
1
100
AcDbLine
 10
22.626697
 20
190.576333
 30
0.0
 11
26.154155
 21
185.721013
 31
0.0
  0
SPLINE
  5
1c1
100
AcDbEntity
  8
0
 62
5
100
AcDbSpline
 70
0
 71
3
 72
16
 73
12
 74
10
 40
0.000000
 40
0.000000
 40
0.000000
 40
0.000000
 40
0.427745
 40
1.398604
 40
2.530429
 40
4.308944
 40
6.070411
 40
7.956245
 40
9.131091
 40
10.096679
 40
10.498456
 40
10.498456
 40
10.498456
 40
10.498456
 10
65.019623
 20
173.817709
 30
0.0
 10
64.948256
 20
173.941160
 30
0.0
 10
64.714905
 20
174.344808
 30
0.0
 10
64.179400
 20
175.007495
 30
0.0
 10
63.059005
 20
175.727131
 30
0.0
 10
61.396700
 20
175.732155
 30
0.0
 10
59.758262
 20
174.871439
 30
0.0
 10
58.643069
 20
173.682893
 30
0.0
 10
57.914905
 20
172.554426
 30
0.0
 10
57.499745
 20
171.815020
 30
0.0
 10
57.295087
 20
171.407748
 30
0.0
 10
57.234952
 20
171.288078
 30
0.0
 11
65.019623
 21
173.817709
 31
0.0
 11
64.799663
 21
174.184565
 31
0.0
 11
64.178927
 21
174.931061
 31
0.0
 11
63.216132
 21
175.526084
 31
0.0
 11
61.438748
 21
175.589467
 31
0.0
 11
59.855967
 21
174.816439
 31
0.0
 11
58.537218
 21
173.468377
 31
0.0
 11
57.888375
 21
172.488956
 31
0.0
 11
57.416967
 21
171.646262
 31
0.0
 11
57.234952
 21
171.288078
 31
0.0
  0
LINE
  5
1c2
100
AcDbEntity
  8
0
 62
5
100
AcDbLine
 10
26.653909
 20
185.865953
 30
0.0
 11
30.671440
 21
180.336294
 31
0.0
  0
SPLINE
  5
1c3
100
AcDbEntity
  8
0
 62
5
100
AcDbSpline
 70
0
 71
3
 72
10
 73
6
 74
4
 40
0.000000
 40
0.000000
 40
0.000000
 40
0.000000
 40
0.773886
 40
1.059002
 40
1.099733
 40
1.099733
 40
1.099733
 40
1.099733
 10
25.581512
 20
185.622278
 30
0.0
 10
25.833062
 20
185.679436
 30
0.0
 10
26.177288
 20
185.757653
 30
0.0
 10
26.534754
 20
185.838878
 30
0.0
 10
26.640669
 20
185.862945
 30
0.0
 10
26.653909
 20
185.865953
 30
0.0
 11
25.581512
 21
185.622278
 31
0.0
 11
26.336162
 21
185.793753
 31
0.0
 11
26.614190
 21
185.856928
 31
0.0
 11
26.653909
 21
185.865953
 31
0.0
  0
LINE
  5
1c4
100
AcDbEntity
  8
0
 62
5
100
AcDbLine
 10
33.905057
 20
188.239174
 30
0.0
 11
33.905280
 21
187.551836
 31
0.0
  0
LINE
  5
1c5
100
AcDbEntity
  8
0
 62
5
100
AcDbLine
 10
33.905280
 20
187.551836
 30
0.0
 11
33.415777
 21
187.551836
 31
0.0
  0
LINE
  5
1c6
100
AcDbEntity
  8
0
 62
5
100
AcDbLine
 10
33.415777
 20
187.551836
 30
0.0
 11
33.415777
 21
188.739142
 31
0.0
  0
SPLINE
  5
1c7
100
AcDbEntity
  8
0
 62
5
100
AcDbSpline
 70
0
 71
3
 72
10
 73
6
 74
4
 40
0.000000
 40
0.000000
 40
0.000000
 40
0.000000
 40
0.040731
 40
0.325847
 40
1.099733
 40
1.099733
 40
1.099733
 40
1.099733
 10
30.671440
 20
180.336294
 30
0.0
 10
30.664487
 20
180.324632
 30
0.0
 10
30.608869
 20
180.231337
 30
0.0
 10
30.421156
 20
179.916467
 30
0.0
 10
30.240396
 20
179.613259
 30
0.0
 10
30.108302
 20
179.391683
 30
0.0
 11
30.671440
 21
180.336294
 31
0.0
 11
30.650583
 21
180.301309
 31
0.0
 11
30.504584
 21
180.056409
 31
0.0
 11
30.108302
 21
179.391683
 31
0.0
  0
LINE
  5
1c8
100
AcDbEntity
  8
0
 62
5
100
AcDbLine
 10
33.416003
 20
180.553781
 30
0.0
 11
33.416003
 21
181.741084
 31
0.0
  0
LINE
  5
1c9
100
AcDbEntity
  8
0
 62
5
100
AcDbLine
 10
33.416003
 20
181.741084
 30
0.0
 11
33.905503
 21
181.741084
 31
0.0
  0
LINE
  5
1ca
100
AcDbEntity
  8
0
 62
5
100
AcDbLine
 10
33.905503
 20
181.741084
 30
0.0
 11
33.905280
 21
181.053746
 31
0.0
  0
LINE
  5
1cb
100
AcDbEntity
  8
0
 62
5
100
AcDbLine
 10
33.905055
 20
188.239171
 30
0.0
 11
33.905167
 21
194.240596
 31
0.0
  0
LINE
  5
1cc
100
AcDbEntity
  8
0
 62
5
100
AcDbLine
 10
33.905167
 20
175.052321
 30
0.0
 11
33.905280
 21
181.053746
 31
0.0
  0
LINE
  5
1cd
100
AcDbEntity
  8
0
 62
1
100
AcDbLine
 10
33.905280
 20
187.551836
 30
0.0
 11
33.905503
 21
181.741083
 31
0.0
  0
LINE
  5
1ce
100
AcDbEntity
  8
0
 62
5
100
AcDbLine
 10
32.348238
 20
141.885594
 30
0.0
 11
30.122007
 21
128.600592
 31
0.0
  0
LINE
  5
1cf
100
AcDbEntity
  8
0
 62
5
100
AcDbLine
 10
30.122007
 20
128.600592
 30
0.0
 11
33.905579
 21
124.817020
 31
0.0
  0
LINE
  5
1d0
100
AcDbEntity
  8
0
 62
1
100
AcDbLine
 10
33.905467
 20
138.003870
 30
0.0
 11
33.905579
 21
144.005294
 31
0.0
  0
LINE
  5
1d1
100
AcDbEntity
  8
0
 62
1
100
AcDbLine
 10
33.905579
 20
124.817020
 30
0.0
 11
33.905692
 21
130.818444
 31
0.0
  0
SPLINE
  5
1d2
100
AcDbEntity
  8
0
 62
5
100
AcDbSpline
 70
0
 71
3
 72
16
 73
12
 74
10
 40
0.000000
 40
0.000000
 40
0.000000
 40
0.000000
 40
0.427745
 40
1.398605
 40
2.530431
 40
4.308945
 40
6.070412
 40
7.956245
 40
9.131091
 40
10.096679
 40
10.498456
 40
10.498456
 40
10.498456
 40
10.498456
 10
33.415777
 20
188.739142
 30
0.0
 10
33.276315
 20
188.709416
 30
0.0
 10
32.820313
 20
188.612221
 30
0.0
 10
32.024580
 20
188.307706
 30
0.0
 10
30.993944
 20
187.464526
 30
0.0
 10
30.475486
 20
185.885133
 30
0.0
 10
30.787770
 20
184.060910
 30
0.0
 10
31.573532
 20
182.633018
 30
0.0
 10
32.421752
 20
181.591778
 30
0.0
 10
32.996677
 20
180.968448
 30
0.0
 10
33.320773
 20
180.647953
 30
0.0
 10
33.416003
 20
180.553781
 30
0.0
 11
33.415777
 21
188.739142
 31
0.0
 11
32.998905
 21
188.643312
 31
0.0
 11
32.097127
 21
188.283637
 31
0.0
 11
31.233705
 21
187.551836
 31
0.0
 11
30.624183
 21
185.881030
 31
0.0
 11
30.870270
 21
184.136837
 31
0.0
 11
31.744838
 21
182.466059
 31
0.0
 11
32.475819
 21
181.546315
 31
0.0
 11
33.131596
 21
180.837572
 31
0.0
 11
33.416003
 21
180.553781
 31
0.0
  0
LINE
  5
1d3
100
AcDbEntity
  8
0
 62
5
100
AcDbLine
 10
33.416189
 20
130.994932
 30
0.0
 11
33.416189
 21
137.829965
 31
0.0
  0
SPLINE
  5
1d4
100
AcDbEntity
  8
0
 62
5
100
AcDbSpline
 70
0
 71
3
 72
10
 73
6
 74
4
 40
0.000000
 40
0.000000
 40
0.000000
 40
0.000000
 40
0.773888
 40
1.059005
 40
1.099736
 40
1.099736
 40
1.099736
 40
1.099736
 10
34.427008
 20
130.561729
 30
0.0
 10
34.189902
 20
130.663345
 30
0.0
 10
33.865442
 20
130.802397
 30
0.0
 10
33.528502
 20
130.946798
 30
0.0
 10
33.428668
 20
130.989584
 30
0.0
 10
33.416189
 20
130.994932
 30
0.0
 11
34.427008
 21
130.561729
 31
0.0
 11
33.715691
 21
130.866575
 31
0.0
 11
33.453627
 21
130.978887
 31
0.0
 11
33.416189
 21
130.994932
 31
0.0
  0
LINE
  5
1d5
100
AcDbEntity
  8
0
 62
5
100
AcDbLine
 10
26.154942
 20
133.337074
 30
0.0
 11
26.558769
 21
133.893272
 31
0.0
  0
LINE
  5
1d6
100
AcDbEntity
  8
0
 62
5
100
AcDbLine
 10
26.558769
 20
133.893272
 30
0.0
 11
26.954785
 21
133.605549
 31
0.0
  0
LINE
  5
1d7
100
AcDbEntity
  8
0
 62
5
100
AcDbLine
 10
26.954785
 20
133.605549
 30
0.0
 11
26.256904
 21
132.645000
 31
0.0
  0
SPLINE
  5
1d8
100
AcDbEntity
  8
0
 62
5
100
AcDbSpline
 70
0
 71
3
 72
10
 73
6
 74
4
 40
0.000000
 40
0.000000
 40
0.000000
 40
0.000000
 40
0.040731
 40
0.325848
 40
1.099736
 40
1.099736
 40
1.099736
 40
1.099736
 10
33.416189
 20
137.829965
 30
0.0
 10
33.428668
 20
137.835313
 30
0.0
 10
33.528502
 20
137.878098
 30
0.0
 10
33.865442
 20
138.022499
 30
0.0
 10
34.189902
 20
138.161552
 30
0.0
 10
34.427008
 20
138.263167
 30
0.0
 11
33.416189
 21
137.829965
 31
0.0
 11
33.453627
 21
137.846009
 31
0.0
 11
33.715691
 21
137.958321
 31
0.0
 11
34.427008
 21
138.263167
 31
0.0
  0
LINE
  5
1d9
100
AcDbEntity
  8
0
 62
5
100
AcDbLine
 10
31.067956
 20
139.267229
 30
0.0
 11
30.370077
 21
138.306680
 31
0.0
  0
LINE
  5
1da
100
AcDbEntity
  8
0
 62
5
100
AcDbLine
 10
30.370077
 20
138.306680
 30
0.0
 11
29.974063
 21
138.594403
 31
0.0
  0
LINE
  5
1db
100
AcDbEntity
  8
0
 62
5
100
AcDbLine
 10
29.974063
 20
138.594403
 30
0.0
 11
30.378250
 21
139.150338
 31
0.0
  0
LINE
  5
1dc
100
AcDbEntity
  8
0
 62
5
100
AcDbLine
 10
26.154946
 20
133.337074
 30
0.0
 11
22.627306
 21
128.481887
 31
0.0
  0
LINE
  5
1dd
100
AcDbEntity
  8
0
 62
5
100
AcDbLine
 10
33.905890
 20
144.005526
 30
0.0
 11
30.378250
 21
139.150338
 31
0.0
  0
LINE
  5
1de
100
AcDbEntity
  8
0
 62
1
100
AcDbLine
 10
26.558770
 20
133.893272
 30
0.0
 11
29.974063
 21
138.594403
 31
0.0
  0
LINE
  5
1df
100
AcDbEntity
  8
0
 62
5
100
AcDbLine
 10
20.129782
 20
160.355686
 30
0.0
 11
6.807051
 21
158.367665
 31
0.0
  0
LINE
  5
1e0
100
AcDbEntity
  8
0
 62
5
100
AcDbLine
 10
6.807051
 20
158.367665
 30
0.0
 11
4.377848
 21
153.600088
 31
0.0
  0
LINE
  5
1e1
100
AcDbEntity
  8
0
 62
1
100
AcDbLine
 10
16.919253
 20
157.675154
 30
0.0
 11
22.626982
 21
159.529588
 31
0.0
  0
LINE
  5
1e2
100
AcDbEntity
  8
0
 62
1
100
AcDbLine
 10
4.377848
 20
153.600088
 30
0.0
 11
10.085577
 21
155.454522
 31
0.0
  0
SPLINE
  5
1e3
100
AcDbEntity
  8
0
 62
5
100
AcDbSpline
 70
0
 71
3
 72
16
 73
12
 74
10
 40
0.000000
 40
0.000000
 40
0.000000
 40
0.000000
 40
0.427746
 40
1.398606
 40
2.530432
 40
4.308944
 40
6.070411
 40
7.956244
 40
9.131090
 40
10.096677
 40
10.498454
 40
10.498454
 40
10.498454
 40
10.498454
 10
26.256904
 20
132.645000
 30
0.0
 10
26.387204
 20
132.587075
 30
0.0
 10
26.813247
 20
132.397677
 30
0.0
 10
27.635998
 20
132.176313
 30
0.0
 10
28.965408
 20
132.252670
 30
0.0
 10
30.313194
 20
133.225682
 30
0.0
 10
31.132800
 20
134.885066
 30
0.0
 10
31.336403
 20
136.502114
 30
0.0
 10
31.262197
 20
137.843066
 30
0.0
 10
31.163459
 20
138.685283
 30
0.0
 10
31.089645
 20
139.135067
 30
0.0
 10
31.067956
 20
139.267229
 30
0.0
 11
26.256904
 21
132.645000
 31
0.0
 11
26.650488
 21
132.477497
 31
0.0
 11
27.591454
 21
132.238429
 31
0.0
 11
28.720119
 21
132.322962
 31
0.0
 11
30.195307
 21
133.316404
 31
0.0
 11
31.021428
 21
134.872132
 31
0.0
 11
31.295947
 21
136.737877
 31
0.0
 11
31.245179
 21
137.911626
 31
0.0
 11
31.131236
 21
138.870467
 31
0.0
 11
31.067956
 21
139.267229
 31
0.0
  0
LINE
  5
1e4
100
AcDbEntity
  8
0
 62
5
100
AcDbLine
 10
10.102161
 20
155.974607
 30
0.0
 11
16.602665
 21
158.086747
 31
0.0
  0
SPLINE
  5
1e5
100
AcDbEntity
  8
0
 62
5
100
AcDbSpline
 70
0
 71
3
 72
10
 73
6
 74
4
 40
0.000000
 40
0.000000
 40
0.000000
 40
0.000000
 40
0.773887
 40
1.059004
 40
1.099735
 40
1.099735
 40
1.099735
 40
1.099735
 10
10.002521
 20
154.879396
 30
0.0
 10
10.025893
 20
155.136297
 30
0.0
 10
10.057877
 20
155.487846
 30
0.0
 10
10.091090
 20
155.852917
 30
0.0
 10
10.100931
 20
155.961086
 30
0.0
 10
10.102161
 20
155.974607
 30
0.0
 11
10.002521
 21
154.879396
 31
0.0
 11
10.072638
 21
155.650100
 31
0.0
 11
10.098471
 21
155.934044
 31
0.0
 11
10.102161
 21
155.974607
 31
0.0
  0
LINE
  5
1e6
100
AcDbEntity
  8
0
 62
5
100
AcDbLine
 10
10.085823
 20
163.604222
 30
0.0
 11
10.739589
 21
163.392036
 31
0.0
  0
LINE
  5
1e7
100
AcDbEntity
  8
0
 62
5
100
AcDbLine
 10
10.739589
 20
163.392036
 30
0.0
 11
10.588325
 21
162.926491
 31
0.0
  0
LINE
  5
1e8
100
AcDbEntity
  8
0
 62
5
100
AcDbLine
 10
10.588325
 20
162.926491
 30
0.0
 11
9.459129
 21
163.293388
 31
0.0
  0
SPLINE
  5
1e9
100
AcDbEntity
  8
0
 62
5
100
AcDbSpline
 70
0
 71
3
 72
10
 73
6
 74
4
 40
0.000000
 40
0.000000
 40
0.000000
 40
0.000000
 40
0.040731
 40
0.325847
 40
1.099733
 40
1.099733
 40
1.099733
 40
1.099733
 10
16.602665
 20
158.086747
 30
0.0
 10
16.611607
 20
158.076531
 30
0.0
 10
16.683149
 20
157.994805
 30
0.0
 10
16.924602
 20
157.718980
 30
0.0
 10
17.157112
 20
157.453370
 30
0.0
 10
17.327024
 20
157.259271
 30
0.0
 11
16.602665
 21
158.086747
 31
0.0
 11
16.629493
 21
158.056099
 31
0.0
 11
16.817290
 21
157.841569
 31
0.0
 11
17.327024
 21
157.259271
 31
0.0
  0
LINE
  5
1ea
100
AcDbEntity
  8
0
 62
5
100
AcDbLine
 10
17.243941
 20
160.764186
 30
0.0
 11
16.114748
 21
161.131083
 31
0.0
  0
LINE
  5
1eb
100
AcDbEntity
  8
0
 62
5
100
AcDbLine
 10
16.114748
 20
161.131083
 30
0.0
 11
16.266012
 21
161.596626
 31
0.0
  0
LINE
  5
1ec
100
AcDbEntity
  8
0
 62
5
100
AcDbLine
 10
16.266012
 20
161.596626
 30
0.0
 11
16.919641
 21
161.384014
 31
0.0
  0
LINE
  5
1ed
100
AcDbEntity
  8
0
 62
5
100
AcDbLine
 10
10.085825
 20
163.604219
 30
0.0
 11
4.378166
 21
165.458868
 31
0.0
  0
LINE
  5
1ee
100
AcDbEntity
  8
0
 62
5
100
AcDbLine
 10
22.627300
 20
159.529365
 30
0.0
 11
16.919641
 21
161.384014
 31
0.0
  0
LINE
  5
1ef
100
AcDbEntity
  8
0
 62
1
100
AcDbLine
 10
10.739590
 20
163.392033
 30
0.0
 11
16.266013
 21
161.596626
 31
0.0
  0
LINE
  5
1f0
100
AcDbEntity
  8
0
 62
5
100
AcDbLine
 10
65.929696
 20
85.003510
 30
0.0
 11
79.252428
 21
83.015489
 31
0.0
  0
LINE
  5
1f1
100
AcDbEntity
  8
0
 62
5
100
AcDbLine
 10
79.252428
 20
83.015489
 30
0.0
 11
81.681630
 21
78.247912
 31
0.0
  0
LINE
  5
1f2
100
AcDbEntity
  8
0
 62
1
100
AcDbLine
 10
69.140225
 20
82.322978
 30
0.0
 11
63.432495
 21
84.177412
 31
0.0
  0
LINE
  5
1f3
100
AcDbEntity
  8
0
 62
1
100
AcDbLine
 10
81.681630
 20
78.247912
 30
0.0
 11
75.973900
 21
80.102346
 31
0.0
  0
SPLINE
  5
1f4
100
AcDbEntity
  8
0
 62
5
100
AcDbSpline
 70
0
 71
3
 72
16
 73
12
 74
10
 40
0.000000
 40
0.000000
 40
0.000000
 40
0.000000
 40
0.427746
 40
1.398605
 40
2.530430
 40
4.308945
 40
6.070412
 40
7.956245
 40
9.131091
 40
10.096679
 40
10.498456
 40
10.498456
 40
10.498456
 40
10.498456
 10
9.459129
 20
163.293388
 30
0.0
 10
9.444304
 20
163.151566
 30
0.0
 10
9.395830
 20
162.687847
 30
0.0
 10
9.439546
 20
161.836960
 30
0.0
 10
9.922974
 20
160.596211
 30
0.0
 10
11.264853
 20
159.615067
 30
0.0
 10
13.096293
 20
159.348351
 30
0.0
 10
14.697113
 20
159.654411
 30
0.0
 10
15.949506
 20
160.139356
 30
0.0
 10
16.719990
 20
160.493523
 30
0.0
 10
17.124950
 20
160.702718
 30
0.0
 10
17.243941
 20
160.764186
 30
0.0
 11
9.459129
 21
163.293388
 31
0.0
 11
9.421448
 21
162.867306
 31
0.0
 11
9.484855
 21
161.898519
 31
0.0
 11
9.914027
 21
160.851218
 31
0.0
 11
11.314706
 21
159.755219
 31
0.0
 11
13.049577
 21
159.450276
 31
0.0
 11
14.908837
 21
159.765740
 31
0.0
 11
16.009451
 21
160.176728
 31
0.0
 11
16.886152
 21
160.581396
 31
0.0
 11
17.243941
 21
160.764186
 31
0.0
  0
LINE
  5
1f5
100
AcDbEntity
  8
0
 62
5
100
AcDbLine
 10
75.957317
 20
80.622431
 30
0.0
 11
69.456814
 21
82.734571
 31
0.0
  0
SPLINE
  5
1f6
100
AcDbEntity
  8
0
 62
5
100
AcDbSpline
 70
0
 71
3
 72
10
 73
6
 74
4
 40
0.000000
 40
0.000000
 40
0.000000
 40
0.000000
 40
0.773887
 40
1.059004
 40
1.099735
 40
1.099735
 40
1.099735
 40
1.099735
 10
76.056958
 20
79.527219
 30
0.0
 10
76.033586
 20
79.784121
 30
0.0
 10
76.001602
 20
80.135670
 30
0.0
 10
75.968388
 20
80.500741
 30
0.0
 10
75.958547
 20
80.608910
 30
0.0
 10
75.957317
 20
80.622431
 30
0.0
 11
76.056958
 21
79.527219
 31
0.0
 11
75.986840
 21
80.297924
 31
0.0
 11
75.961008
 21
80.581867
 31
0.0
 11
75.957317
 21
80.622431
 31
0.0
  0
LINE
  5
1f7
100
AcDbEntity
  8
0
 62
5
100
AcDbLine
 10
75.973655
 20
88.252046
 30
0.0
 11
75.319890
 21
88.039857
 31
0.0
  0
LINE
  5
1f8
100
AcDbEntity
  8
0
 62
5
100
AcDbLine
 10
75.319890
 20
88.039857
 30
0.0
 11
75.471153
 21
87.574315
 31
0.0
  0
LINE
  5
1f9
100
AcDbEntity
  8
0
 62
5
100
AcDbLine
 10
75.471153
 20
87.574315
 30
0.0
 11
76.600349
 21
87.941212
 31
0.0
  0
SPLINE
  5
1fa
100
AcDbEntity
  8
0
 62
5
100
AcDbSpline
 70
0
 71
3
 72
10
 73
6
 74
4
 40
0.000000
 40
0.000000
 40
0.000000
 40
0.000000
 40
0.040731
 40
0.325847
 40
1.099733
 40
1.099733
 40
1.099733
 40
1.099733
 10
69.456814
 20
82.734571
 30
0.0
 10
69.447871
 20
82.724355
 30
0.0
 10
69.376329
 20
82.642629
 30
0.0
 10
69.134876
 20
82.366804
 30
0.0
 10
68.902365
 20
82.101194
 30
0.0
 10
68.732454
 20
81.907095
 30
0.0
 11
69.456814
 21
82.734571
 31
0.0
 11
69.429985
 21
82.703923
 31
0.0
 11
69.242188
 21
82.489393
 31
0.0
 11
68.732454
 21
81.907095
 31
0.0
  0
LINE
  5
1fb
100
AcDbEntity
  8
0
 62
5
100
AcDbLine
 10
68.815537
 20
85.412010
 30
0.0
 11
69.944731
 21
85.778907
 31
0.0
  0
LINE
  5
1fc
100
AcDbEntity
  8
0
 62
5
100
AcDbLine
 10
69.944731
 20
85.778907
 30
0.0
 11
69.793465
 21
86.244450
 31
0.0
  0
LINE
  5
1fd
100
AcDbEntity
  8
0
 62
5
100
AcDbLine
 10
69.793465
 20
86.244450
 30
0.0
 11
69.139839
 21
86.031838
 31
0.0
  0
LINE
  5
1fe
100
AcDbEntity
  8
0
 62
5
100
AcDbLine
 10
75.973652
 20
88.252043
 30
0.0
 11
81.681312
 21
90.106692
 31
0.0
  0
LINE
  5
1ff
100
AcDbEntity
  8
0
 62
5
100
AcDbLine
 10
63.432179
 20
84.177189
 30
0.0
 11
69.139839
 21
86.031838
 31
0.0
  0
LINE
  5
200
100
AcDbEntity
  8
0
 62
1
100
AcDbLine
 10
75.319890
 20
88.039857
 30
0.0
 11
69.793465
 21
86.244450
 31
0.0
  0
LINE
  5
201
100
AcDbEntity
  8
0
 62
5
100
AcDbLine
 10
39.612816
 20
45.390198
 30
0.0
 11
40.266442
 21
45.602810
 31
0.0
  0
LINE
  5
202
100
AcDbEntity
  8
0
 62
5
100
AcDbLine
 10
40.266442
 20
45.602810
 30
0.0
 11
40.417708
 21
45.137265
 31
0.0
  0
LINE
  5
203
100
AcDbEntity
  8
0
 62
5
100
AcDbLine
 10
40.417708
 20
45.137265
 30
0.0
 11
39.288514
 21
44.770367
 31
0.0
  0
SPLINE
  5
204
100
AcDbEntity
  8
0
 62
5
100
AcDbSpline
 70
0
 71
3
 72
16
 73
12
 74
10
 40
0.000000
 40
0.000000
 40
0.000000
 40
0.000000
 40
0.427746
 40
1.398606
 40
2.530433
 40
4.308947
 40
6.070414
 40
7.956247
 40
9.131093
 40
10.096681
 40
10.498459
 40
10.498459
 40
10.498459
 40
10.498459
 10
76.600349
 20
87.941212
 30
0.0
 10
76.615174
 20
87.799390
 30
0.0
 10
76.663648
 20
87.335671
 30
0.0
 10
76.619932
 20
86.484783
 30
0.0
 10
76.136507
 20
85.244032
 30
0.0
 10
74.794625
 20
84.262891
 30
0.0
 10
72.963185
 20
83.996175
 30
0.0
 10
71.362365
 20
84.302235
 30
0.0
 10
70.109972
 20
84.787180
 30
0.0
 10
69.339488
 20
85.141347
 30
0.0
 10
68.934528
 20
85.350542
 30
0.0
 10
68.815537
 20
85.412010
 30
0.0
 11
76.600349
 21
87.941212
 31
0.0
 11
76.638030
 21
87.515129
 31
0.0
 11
76.574623
 21
86.546342
 31
0.0
 11
76.145452
 21
85.499039
 31
0.0
 11
74.744772
 21
84.403042
 31
0.0
 11
73.009902
 21
84.098100
 31
0.0
 11
71.150641
 21
84.413564
 31
0.0
 11
70.050026
 21
84.824552
 31
0.0
 11
69.173326
 21
85.229219
 31
0.0
 11
68.815537
 21
85.412010
 31
0.0
  0
LINE
  5
205
100
AcDbEntity
  8
0
 62
5
100
AcDbLine
 10
47.073185
 20
47.299999
 30
0.0
 11
45.943991
 21
46.933101
 31
0.0
  0
LINE
  5
206
100
AcDbEntity
  8
0
 62
5
100
AcDbLine
 10
45.943991
 20
46.933101
 30
0.0
 11
45.792729
 21
47.398644
 31
0.0
  0
LINE
  5
207
100
AcDbEntity
  8
0
 62
5
100
AcDbLine
 10
45.792729
 20
47.398644
 30
0.0
 11
46.446494
 21
47.610830
 31
0.0
  0
LINE
  5
208
100
AcDbEntity
  8
0
 62
5
100
AcDbLine
 10
39.612818
 20
45.390198
 30
0.0
 11
33.905088
 21
43.535764
 31
0.0
  0
LINE
  5
209
100
AcDbEntity
  8
0
 62
5
100
AcDbLine
 10
52.154224
 20
49.465267
 30
0.0
 11
46.446494
 21
47.610830
 31
0.0
  0
LINE
  5
20a
100
AcDbEntity
  8
0
 62
1
100
AcDbLine
 10
41.653116
 20
46.053443
 30
0.0
 11
44.406061
 21
46.948087
 31
0.0
  0
LINE
  5
20b
100
AcDbEntity
  8
0
 62
5
100
AcDbLine
 10
7.905851
 20
79.321745
 30
0.0
 11
8.310039
 21
78.765809
 31
0.0
  0
LINE
  5
20c
100
AcDbEntity
  8
0
 62
5
100
AcDbLine
 10
8.310039
 20
78.765809
 30
0.0
 11
7.914022
 21
78.478086
 31
0.0
  0
LINE
  5
20d
100
AcDbEntity
  8
0
 62
5
100
AcDbLine
 10
7.914022
 20
78.478086
 30
0.0
 11
7.216141
 21
79.438635
 31
0.0
  0
SPLINE
  5
20e
100
AcDbEntity
  8
0
 62
5
100
AcDbSpline
 70
0
 71
3
 72
16
 73
12
 74
10
 40
0.000000
 40
0.000000
 40
0.000000
 40
0.000000
 40
0.427745
 40
1.398605
 40
2.530430
 40
4.531213
 40
6.623225
 40
8.623986
 40
9.756294
 40
10.727710
 40
11.155657
 40
11.155657
 40
11.155657
 40
11.155657
 10
39.288514
 20
44.770367
 30
0.0
 10
39.359904
 20
44.646946
 30
0.0
 10
39.593329
 20
44.243393
 30
0.0
 10
40.127639
 20
43.579179
 30
0.0
 10
41.319605
 20
42.827797
 30
0.0
 10
43.154248
 20
42.830368
 30
0.0
 10
45.083734
 20
43.457190
 30
0.0
 10
46.569435
 20
44.533790
 30
0.0
 10
47.092508
 20
45.842363
 30
0.0
 10
47.135428
 20
46.694084
 30
0.0
 10
47.087762
 20
47.158097
 30
0.0
 10
47.073185
 20
47.299999
 30
0.0
 11
39.288514
 21
44.770367
 31
0.0
 11
39.508474
 21
44.403511
 31
0.0
 11
40.129209
 21
43.657015
 31
0.0
 11
41.092004
 21
43.061992
 31
0.0
 11
43.088460
 21
42.930454
 31
0.0
 11
45.078085
 21
43.576908
 31
0.0
 11
46.615903
 21
44.856815
 31
0.0
 11
47.045676
 21
45.904391
 31
0.0
 11
47.110240
 21
46.873660
 31
0.0
 11
47.073185
 21
47.299999
 31
0.0
  0
LINE
  5
20f
100
AcDbEntity
  8
0
 62
5
100
AcDbLine
 10
12.027559
 20
72.816672
 30
0.0
 11
11.329680
 21
73.777221
 31
0.0
  0
LINE
  5
210
100
AcDbEntity
  8
0
 62
5
100
AcDbLine
 10
11.329680
 20
73.777221
 30
0.0
 11
11.725694
 21
74.064941
 31
0.0
  0
LINE
  5
211
100
AcDbEntity
  8
0
 62
5
100
AcDbLine
 10
11.725694
 20
74.064941
 30
0.0
 11
12.129521
 21
73.508743
 31
0.0
  0
LINE
  5
212
100
AcDbEntity
  8
0
 62
5
100
AcDbLine
 10
7.905851
 20
79.321742
 30
0.0
 11
4.378393
 21
84.177062
 31
0.0
  0
LINE
  5
213
100
AcDbEntity
  8
0
 62
5
100
AcDbLine
 10
15.656978
 20
68.653423
 30
0.0
 11
12.129521
 21
73.508743
 31
0.0
  0
LINE
  5
214
100
AcDbEntity
  8
0
 62
1
100
AcDbLine
 10
9.167119
 20
77.586259
 30
0.0
 11
10.868683
 21
75.244514
 31
0.0
  0
LINE
  5
215
100
AcDbEntity
  8
0
 62
5
100
AcDbLine
 10
30.377943
 20
119.961832
 30
0.0
 11
29.974117
 21
119.405631
 31
0.0
  0
LINE
  5
216
100
AcDbEntity
  8
0
 62
5
100
AcDbLine
 10
29.974117
 20
119.405631
 30
0.0
 11
29.578100
 21
119.693354
 31
0.0
  0
LINE
  5
217
100
AcDbEntity
  8
0
 62
5
100
AcDbLine
 10
29.578100
 20
119.693354
 30
0.0
 11
30.275982
 21
120.653906
 31
0.0
  0
SPLINE
  5
218
100
AcDbEntity
  8
0
 62
5
100
AcDbSpline
 70
0
 71
3
 72
16
 73
12
 74
10
 40
0.000000
 40
0.000000
 40
0.000000
 40
0.000000
 40
0.427745
 40
1.398605
 40
2.530430
 40
4.531213
 40
6.623224
 40
8.623987
 40
9.756293
 40
10.727710
 40
11.155656
 40
11.155656
 40
11.155656
 40
11.155656
 10
7.216141
 20
79.438635
 30
0.0
 10
7.120822
 20
79.332600
 30
0.0
 10
6.809153
 20
78.985895
 30
0.0
 10
6.342559
 20
78.272482
 30
0.0
 10
5.996290
 20
76.906665
 30
0.0
 10
6.565669
 20
75.162610
 30
0.0
 10
7.758058
 20
73.521260
 30
0.0
 10
9.241072
 20
72.440960
 30
0.0
 10
10.647237
 20
72.347861
 30
0.0
 10
11.470535
 20
72.570237
 30
0.0
 10
11.897107
 20
72.758958
 30
0.0
 10
12.027559
 20
72.816672
 30
0.0
 11
7.216141
 21
79.438635
 31
0.0
 11
6.935212
 21
79.116076
 31
0.0
 11
6.417070
 21
78.295042
 31
0.0
 11
6.148689
 21
77.195497
 31
0.0
 11
6.640528
 21
75.256108
 31
0.0
 11
7.870170
 21
73.563627
 31
0.0
 11
9.562646
 21
72.496587
 31
0.0
 11
10.691757
 21
72.411568
 31
0.0
 11
11.633537
 21
72.649685
 31
0.0
 11
12.027559
 21
72.816672
 31
0.0
  0
LINE
  5
219
100
AcDbEntity
  8
0
 62
5
100
AcDbLine
 10
25.464930
 20
114.031677
 30
0.0
 11
26.162809
 21
114.992226
 31
0.0
  0
LINE
  5
21a
100
AcDbEntity
  8
0
 62
5
100
AcDbLine
 10
26.162809
 20
114.992226
 30
0.0
 11
26.558823
 21
114.704503
 31
0.0
  0
LINE
  5
21b
100
AcDbEntity
  8
0
 62
5
100
AcDbLine
 10
26.558823
 20
114.704503
 30
0.0
 11
26.154635
 21
114.148568
 31
0.0
  0
LINE
  5
21c
100
AcDbEntity
  8
0
 62
5
100
AcDbLine
 10
30.377940
 20
119.961832
 30
0.0
 11
33.905579
 21
124.817020
 31
0.0
  0
LINE
  5
21d
100
AcDbEntity
  8
0
 62
5
100
AcDbLine
 10
22.626995
 20
109.293378
 30
0.0
 11
26.154635
 21
114.148568
 31
0.0
  0
LINE
  5
21e
100
AcDbEntity
  8
0
 62
1
100
AcDbLine
 10
29.117152
 20
118.225999
 30
0.0
 11
27.415831
 21
115.884077
 31
0.0
  0
LINE
  5
21f
100
AcDbEntity
  8
0
 62
5
100
AcDbLine
 10
4.377738
 20
147.598663
 30
0.0
 11
4.377961
 21
146.911325
 31
0.0
  0
LINE
  5
220
100
AcDbEntity
  8
0
 62
5
100
AcDbLine
 10
4.377961
 20
146.911325
 30
0.0
 11
3.888458
 21
146.911325
 31
0.0
  0
LINE
  5
221
100
AcDbEntity
  8
0
 62
5
100
AcDbLine
 10
3.888458
 20
146.911325
 30
0.0
 11
3.888458
 21
148.098631
 31
0.0
  0
SPLINE
  5
222
100
AcDbEntity
  8
0
 62
5
100
AcDbSpline
 70
0
 71
3
 72
16
 73
12
 74
10
 40
0.000000
 40
0.000000
 40
0.000000
 40
0.000000
 40
0.427745
 40
1.398605
 40
2.530430
 40
4.531213
 40
6.623224
 40
8.623985
 40
9.756293
 40
10.727709
 40
11.155655
 40
11.155655
 40
11.155655
 40
11.155655
 10
30.275982
 20
120.653906
 30
0.0
 10
30.145680
 20
120.711794
 30
0.0
 10
29.719633
 20
120.901070
 30
0.0
 10
28.896951
 20
121.124370
 30
0.0
 10
27.490979
 20
121.031632
 30
0.0
 10
26.008232
 20
119.951177
 30
0.0
 10
24.815684
 20
118.309943
 30
0.0
 10
24.246535
 20
116.565683
 30
0.0
 10
24.592520
 20
115.199570
 30
0.0
 10
25.058426
 20
114.485286
 30
0.0
 10
25.369729
 20
114.137910
 30
0.0
 10
25.464930
 20
114.031677
 30
0.0
 11
30.275982
 21
120.653906
 31
0.0
 11
29.882397
 21
120.821409
 31
0.0
 11
28.941432
 21
121.060477
 31
0.0
 11
27.812768
 21
120.975944
 31
0.0
 11
26.120286
 21
119.908875
 31
0.0
 11
24.890622
 21
118.216410
 31
0.0
 11
24.398811
 21
116.277037
 31
0.0
 11
24.666867
 21
115.176916
 31
0.0
 11
25.184356
 21
114.354812
 31
0.0
 11
25.464930
 21
114.031677
 31
0.0
  0
LINE
  5
223
100
AcDbEntity
  8
0
 62
5
100
AcDbLine
 10
3.888684
 20
139.913270
 30
0.0
 11
3.888684
 21
141.100573
 31
0.0
  0
LINE
  5
224
100
AcDbEntity
  8
0
 62
5
100
AcDbLine
 10
3.888684
 20
141.100573
 30
0.0
 11
4.378184
 21
141.100573
 31
0.0
  0
LINE
  5
225
100
AcDbEntity
  8
0
 62
5
100
AcDbLine
 10
4.378184
 20
141.100573
 30
0.0
 11
4.377961
 21
140.413235
 31
0.0
  0
LINE
  5
226
100
AcDbEntity
  8
0
 62
5
100
AcDbLine
 10
4.377735
 20
147.598661
 30
0.0
 11
4.377848
 21
153.600085
 31
0.0
  0
LINE
  5
227
100
AcDbEntity
  8
0
 62
5
100
AcDbLine
 10
4.377848
 20
134.411810
 30
0.0
 11
4.377961
 21
140.413235
 31
0.0
  0
LINE
  5
228
100
AcDbEntity
  8
0
 62
1
100
AcDbLine
 10
4.378033
 20
145.453269
 30
0.0
 11
4.378184
 21
142.558603
 31
0.0
  0
LINE
  5
229
100
AcDbEntity
  8
0
 62
5
100
AcDbLine
 10
16.919574
 20
188.721312
 30
0.0
 11
16.265946
 21
188.508701
 31
0.0
  0
LINE
  5
22a
100
AcDbEntity
  8
0
 62
5
100
AcDbLine
 10
16.265946
 20
188.508701
 30
0.0
 11
16.114681
 21
188.974246
 31
0.0
  0
LINE
  5
22b
100
AcDbEntity
  8
0
 62
5
100
AcDbLine
 10
16.114681
 20
188.974246
 30
0.0
 11
17.243876
 21
189.341144
 31
0.0
  0
SPLINE
  5
22c
100
AcDbEntity
  8
0
 62
5
100
AcDbSpline
 70
0
 71
3
 72
16
 73
12
 74
10
 40
0.000000
 40
0.000000
 40
0.000000
 40
0.000000
 40
0.427745
 40
1.398605
 40
2.530431
 40
4.531214
 40
6.623225
 40
8.623987
 40
9.756294
 40
10.727710
 40
11.155657
 40
11.155657
 40
11.155657
 40
11.155657
 10
3.888458
 20
148.098631
 30
0.0
 10
3.749016
 20
148.068874
 30
0.0
 10
3.293082
 20
147.971578
 30
0.0
 10
2.496266
 20
147.668672
 30
0.0
 10
1.413321
 20
146.767235
 30
0.0
 10
0.848830
 20
145.021591
 30
0.0
 10
0.848730
 20
142.992843
 30
0.0
 10
1.413531
 20
141.247169
 30
0.0
 10
2.496419
 20
140.345326
 30
0.0
 10
3.293191
 20
140.041310
 30
0.0
 10
3.749222
 20
139.943256
 30
0.0
 10
3.888684
 20
139.913270
 30
0.0
 11
3.888458
 21
148.098631
 31
0.0
 11
3.471585
 21
148.002802
 31
0.0
 11
2.569808
 21
147.643126
 31
0.0
 11
1.706386
 21
146.911325
 31
0.0
 11
0.964348
 21
145.053232
 31
0.0
 11
0.964334
 21
142.961221
 31
0.0
 11
1.706386
 21
141.103155
 31
0.0
 11
2.569883
 21
140.370698
 31
0.0
 11
3.471761
 21
140.009775
 31
0.0
 11
3.888684
 21
139.913270
 31
0.0
  0
LINE
  5
22d
100
AcDbEntity
  8
0
 62
5
100
AcDbLine
 10
9.459204
 20
186.811513
 30
0.0
 11
10.588397
 21
187.178410
 31
0.0
  0
LINE
  5
22e
100
AcDbEntity
  8
0
 62
5
100
AcDbLine
 10
10.588397
 20
187.178410
 30
0.0
 11
10.739661
 21
186.712868
 31
0.0
  0
LINE
  5
22f
100
AcDbEntity
  8
0
 62
5
100
AcDbLine
 10
10.739661
 20
186.712868
 30
0.0
 11
10.085894
 21
186.500681
 31
0.0
  0
LINE
  5
230
100
AcDbEntity
  8
0
 62
5
100
AcDbLine
 10
16.919570
 20
188.721314
 30
0.0
 11
22.627299
 21
190.575749
 31
0.0
  0
LINE
  5
231
100
AcDbEntity
  8
0
 62
5
100
AcDbLine
 10
4.378166
 20
184.646246
 30
0.0
 11
10.085894
 21
186.500681
 31
0.0
  0
LINE
  5
232
100
AcDbEntity
  8
0
 62
1
100
AcDbLine
 10
14.879273
 20
188.058069
 30
0.0
 11
12.126330
 21
187.163424
 31
0.0
  0
LINE
  5
233
100
AcDbEntity
  8
0
 62
5
100
AcDbLine
 10
59.905426
 20
189.501773
 30
0.0
 11
59.501238
 21
190.057710
 31
0.0
  0
LINE
  5
234
100
AcDbEntity
  8
0
 62
5
100
AcDbLine
 10
59.501238
 20
190.057710
 30
0.0
 11
59.897256
 21
190.345433
 31
0.0
  0
LINE
  5
235
100
AcDbEntity
  8
0
 62
5
100
AcDbLine
 10
59.897256
 20
190.345433
 30
0.0
 11
60.595137
 21
189.384882
 31
0.0
  0
SPLINE
  5
236
100
AcDbEntity
  8
0
 62
5
100
AcDbSpline
 70
0
 71
3
 72
16
 73
12
 74
10
 40
0.000000
 40
0.000000
 40
0.000000
 40
0.000000
 40
0.427745
 40
1.398605
 40
2.530431
 40
4.531214
 40
6.623225
 40
8.623987
 40
9.756294
 40
10.727710
 40
11.155656
 40
11.155656
 40
11.155656
 40
11.155656
 10
17.243876
 20
189.341144
 30
0.0
 10
17.172486
 20
189.464565
 30
0.0
 10
16.939060
 20
189.868118
 30
0.0
 10
16.404749
 20
190.532332
 30
0.0
 10
15.212783
 20
191.283714
 30
0.0
 10
13.378140
 20
191.281144
 30
0.0
 10
11.448655
 20
190.654321
 30
0.0
 10
9.962954
 20
189.577721
 30
0.0
 10
9.439881
 20
188.269148
 30
0.0
 10
9.396961
 20
187.417427
 30
0.0
 10
9.444627
 20
186.953415
 30
0.0
 10
9.459204
 20
186.811513
 30
0.0
 11
17.243876
 21
189.341144
 31
0.0
 11
17.023916
 21
189.708000
 31
0.0
 11
16.403179
 21
190.454496
 31
0.0
 11
15.440384
 21
191.049519
 31
0.0
 11
13.443929
 21
191.181057
 31
0.0
 11
11.454304
 21
190.534603
 31
0.0
 11
9.916486
 21
189.254696
 31
0.0
 11
9.486713
 21
188.207121
 31
0.0
 11
9.422150
 21
187.237852
 31
0.0
 11
9.459204
 21
186.811513
 31
0.0
  0
LINE
  5
237
100
AcDbEntity
  8
0
 62
5
100
AcDbLine
 10
55.783720
 20
196.006846
 30
0.0
 11
56.481599
 21
195.046297
 31
0.0
  0
LINE
  5
238
100
AcDbEntity
  8
0
 62
5
100
AcDbLine
 10
56.481599
 20
195.046297
 30
0.0
 11
56.085585
 21
194.758576
 31
0.0
  0
LINE
  5
239
100
AcDbEntity
  8
0
 62
5
100
AcDbLine
 10
56.085585
 20
194.758576
 30
0.0
 11
55.681759
 21
195.314775
 31
0.0
  0
LINE
  5
23a
100
AcDbEntity
  8
0
 62
5
100
AcDbLine
 10
59.905429
 20
189.501777
 30
0.0
 11
63.432885
 21
184.646456
 31
0.0
  0
LINE
  5
23b
100
AcDbEntity
  8
0
 62
5
100
AcDbLine
 10
52.154300
 20
200.170096
 30
0.0
 11
55.681759
 21
195.314775
 31
0.0
  0
LINE
  5
23c
100
AcDbEntity
  8
0
 62
1
100
AcDbLine
 10
58.644158
 20
191.237258
 30
0.0
 11
56.942595
 21
193.579002
 31
0.0
  0
LINE
  5
23d
100
AcDbEntity
  8
0
 62
5
100
AcDbLine
 10
73.930846
 20
148.860578
 30
0.0
 11
74.334672
 21
149.416776
 31
0.0
  0
LINE
  5
23e
100
AcDbEntity
  8
0
 62
5
100
AcDbLine
 10
74.334672
 20
149.416776
 30
0.0
 11
74.730689
 21
149.129053
 31
0.0
  0
LINE
  5
23f
100
AcDbEntity
  8
0
 62
5
100
AcDbLine
 10
74.730689
 20
149.129053
 30
0.0
 11
74.032807
 21
148.168504
 31
0.0
  0
SPLINE
  5
240
100
AcDbEntity
  8
0
 62
5
100
AcDbSpline
 70
0
 71
3
 72
16
 73
12
 74
10
 40
0.000000
 40
0.000000
 40
0.000000
 40
0.000000
 40
0.427745
 40
1.398605
 40
2.530431
 40
4.531214
 40
6.623225
 40
8.623987
 40
9.756294
 40
10.727710
 40
11.155656
 40
11.155656
 40
11.155656
 40
11.155656
 10
60.595137
 20
189.384882
 30
0.0
 10
60.690457
 20
189.490917
 30
0.0
 10
61.002126
 20
189.837623
 30
0.0
 10
61.468719
 20
190.551036
 30
0.0
 10
61.814990
 20
191.916853
 30
0.0
 10
61.245609
 20
193.660908
 30
0.0
 10
60.053221
 20
195.302259
 30
0.0
 10
58.570206
 20
196.382557
 30
0.0
 10
57.164041
 20
196.475658
 30
0.0
 10
56.340744
 20
196.253281
 30
0.0
 10
55.914172
 20
196.064560
 30
0.0
 10
55.783720
 20
196.006846
 30
0.0
 11
60.595137
 21
189.384882
 31
0.0
 11
60.876067
 21
189.707441
 31
0.0
 11
61.394208
 21
190.528476
 31
0.0
 11
61.662589
 21
191.628022
 31
0.0
 11
61.170750
 21
193.567410
 31
0.0
 11
59.941108
 21
195.259891
 31
0.0
 11
58.248632
 21
196.326930
 31
0.0
 11
57.119521
 21
196.411950
 31
0.0
 11
56.177741
 21
196.173833
 31
0.0
 11
55.783720
 21
196.006846
 31
0.0
  0
LINE
  5
241
100
AcDbEntity
  8
0
 62
5
100
AcDbLine
 10
78.843861
 20
154.790733
 30
0.0
 11
78.145981
 21
153.830184
 31
0.0
  0
LINE
  5
242
100
AcDbEntity
  8
0
 62
5
100
AcDbLine
 10
78.145981
 20
153.830184
 30
0.0
 11
77.749967
 21
154.117906
 31
0.0
  0
LINE
  5
243
100
AcDbEntity
  8
0
 62
5
100
AcDbLine
 10
77.749967
 20
154.117906
 30
0.0
 11
78.154155
 21
154.673842
 31
0.0
  0
LINE
  5
244
100
AcDbEntity
  8
0
 62
5
100
AcDbLine
 10
73.930849
 20
148.860578
 30
0.0
 11
70.403209
 21
144.005390
 31
0.0
  0
LINE
  5
245
100
AcDbEntity
  8
0
 62
5
100
AcDbLine
 10
81.681794
 20
159.529029
 30
0.0
 11
78.154155
 21
154.673842
 31
0.0
  0
LINE
  5
246
100
AcDbEntity
  8
0
 62
1
100
AcDbLine
 10
75.191640
 20
150.596411
 30
0.0
 11
76.892960
 21
152.938333
 31
0.0
  0
LINE
  5
247
100
AcDbEntity
  8
0
 62
5
100
AcDbLine
 10
75.973974
 20
111.149136
 30
0.0
 11
75.320206
 21
111.361322
 31
0.0
  0
LINE
  5
248
100
AcDbEntity
  8
0
 62
5
100
AcDbLine
 10
75.320206
 20
111.361322
 30
0.0
 11
75.471472
 21
111.826867
 31
0.0
  0
LINE
  5
249
100
AcDbEntity
  8
0
 62
5
100
AcDbLine
 10
75.471472
 20
111.826867
 30
0.0
 11
76.600665
 21
111.459970
 31
0.0
  0
SPLINE
  5
24a
100
AcDbEntity
  8
0
 62
5
100
AcDbSpline
 70
0
 71
3
 72
16
 73
12
 74
10
 40
0.000000
 40
0.000000
 40
0.000000
 40
0.000000
 40
0.427746
 40
1.398607
 40
2.530433
 40
4.531215
 40
6.623226
 40
8.623987
 40
9.756295
 40
10.727710
 40
11.155655
 40
11.155655
 40
11.155655
 40
11.155655
 10
74.032807
 20
148.168504
 30
0.0
 10
74.163108
 20
148.110616
 30
0.0
 10
74.589157
 20
147.921339
 30
0.0
 10
75.411839
 20
147.698038
 30
0.0
 10
76.817811
 20
147.790779
 30
0.0
 10
78.300558
 20
148.871233
 30
0.0
 10
79.493106
 20
150.512466
 30
0.0
 10
80.062256
 20
152.256728
 30
0.0
 10
79.716264
 20
153.622838
 30
0.0
 10
79.250361
 20
154.337123
 30
0.0
 10
78.939061
 20
154.684500
 30
0.0
 10
78.843861
 20
154.790733
 30
0.0
 11
74.032807
 21
148.168504
 31
0.0
 11
74.426392
 21
148.001000
 31
0.0
 11
75.367358
 21
147.761932
 31
0.0
 11
76.496023
 21
147.846466
 31
0.0
 11
78.188504
 21
148.913535
 31
0.0
 11
79.418168
 21
150.606000
 31
0.0
 11
79.909978
 21
152.545373
 31
0.0
 11
79.641918
 21
153.645494
 31
0.0
 11
79.124432
 21
154.467598
 31
0.0
 11
78.843861
 21
154.790733
 31
0.0
  0
LINE
  5
24b
100
AcDbEntity
  8
0
 62
5
100
AcDbLine
 10
68.815856
 20
113.989172
 30
0.0
 11
69.945047
 21
113.622274
 31
0.0
  0
LINE
  5
24c
100
AcDbEntity
  8
0
 62
5
100
AcDbLine
 10
69.945047
 20
113.622274
 30
0.0
 11
69.793784
 21
113.156732
 31
0.0
  0
LINE
  5
24d
100
AcDbEntity
  8
0
 62
5
100
AcDbLine
 10
69.793784
 20
113.156732
 30
0.0
 11
69.140155
 21
113.369344
 31
0.0
  0
LINE
  5
24e
100
AcDbEntity
  8
0
 62
5
100
AcDbLine
 10
75.973971
 20
111.149138
 30
0.0
 11
81.681630
 21
109.294490
 31
0.0
  0
LINE
  5
24f
100
AcDbEntity
  8
0
 62
5
100
AcDbLine
 10
63.432495
 20
115.223993
 30
0.0
 11
69.140155
 21
113.369344
 31
0.0
  0
LINE
  5
250
100
AcDbEntity
  8
0
 62
1
100
AcDbLine
 10
73.933493
 20
111.811819
 30
0.0
 11
71.180455
 21
112.706175
 31
0.0
  0
LINE
  5
251
100
AcDbEntity
  8
0
 62
5
100
AcDbLine
 10
81.681741
 20
65.061056
 30
0.0
 11
81.681518
 21
65.748394
 31
0.0
  0
LINE
  5
252
100
AcDbEntity
  8
0
 62
5
100
AcDbLine
 10
81.681518
 20
65.748394
 30
0.0
 11
82.171021
 21
65.748394
 31
0.0
  0
LINE
  5
253
100
AcDbEntity
  8
0
 62
5
100
AcDbLine
 10
82.171021
 20
65.748394
 30
0.0
 11
82.171021
 21
64.561088
 31
0.0
  0
SPLINE
  5
254
100
AcDbEntity
  8
0
 62
5
100
AcDbSpline
 70
0
 71
3
 72
16
 73
12
 74
10
 40
0.000000
 40
0.000000
 40
0.000000
 40
0.000000
 40
0.427746
 40
1.398605
 40
2.530430
 40
4.531213
 40
6.623224
 40
8.623988
 40
9.756293
 40
10.727709
 40
11.155655
 40
11.155655
 40
11.155655
 40
11.155655
 10
76.600665
 20
111.459970
 30
0.0
 10
76.615455
 20
111.601782
 30
0.0
 10
76.663812
 20
112.065467
 30
0.0
 10
76.621962
 20
112.916887
 30
0.0
 10
76.099291
 20
114.225387
 30
0.0
 10
74.613525
 20
115.301686
 30
0.0
 10
72.684100
 20
115.928697
 30
0.0
 10
70.849333
 20
115.930983
 30
0.0
 10
69.656998
 20
115.179781
 30
0.0
 10
69.121647
 20
114.515952
 30
0.0
 10
68.887471
 20
114.112541
 30
0.0
 10
68.815856
 20
113.989172
 30
0.0
 11
76.600665
 21
111.459970
 31
0.0
 11
76.638347
 21
111.886052
 31
0.0
 11
76.574940
 21
112.854839
 31
0.0
 11
76.145768
 21
113.902140
 31
0.0
 11
74.607920
 21
115.182043
 31
0.0
 11
72.618303
 21
115.828523
 31
0.0
 11
70.621869
 21
115.696963
 31
0.0
 11
69.658428
 21
115.102072
 31
0.0
 11
69.036474
 21
114.355867
 31
0.0
 11
68.815856
 21
113.989172
 31
0.0
  0
LINE
  5
255
100
AcDbEntity
  8
0
 62
5
100
AcDbLine
 10
82.170795
 20
72.746449
 30
0.0
 11
82.170795
 21
71.559146
 31
0.0
  0
LINE
  5
256
100
AcDbEntity
  8
0
 62
5
100
AcDbLine
 10
82.170795
 20
71.559146
 30
0.0
 11
81.681295
 21
71.559146
 31
0.0
  0
LINE
  5
257
100
AcDbEntity
  8
0
 62
5
100
AcDbLine
 10
81.681295
 20
71.559146
 30
0.0
 11
81.681518
 21
72.246484
 31
0.0
  0
LINE
  5
258
100
AcDbEntity
  8
0
 62
5
100
AcDbLine
 10
81.681743
 20
65.061059
 30
0.0
 11
81.681630
 21
59.059634
 31
0.0
  0
LINE
  5
259
100
AcDbEntity
  8
0
 62
5
100
AcDbLine
 10
81.681630
 20
78.247909
 30
0.0
 11
81.681518
 21
72.246484
 31
0.0
  0
LINE
  5
25a
100
AcDbEntity
  8
0
 62
1
100
AcDbLine
 10
81.681447
 20
67.206450
 30
0.0
 11
81.681295
 21
70.101116
 31
0.0
  0
SPLINE
  5
25b
100
AcDbEntity
  8
0
 62
5
100
AcDbSpline
 70
0
 71
3
 72
16
 73
12
 74
10
 40
0.000000
 40
0.000000
 40
0.000000
 40
0.000000
 40
0.427745
 40
1.398605
 40
2.530431
 40
4.531214
 40
6.623225
 40
8.623987
 40
9.756294
 40
10.727710
 40
11.155657
 40
11.155657
 40
11.155657
 40
11.155657
 10
82.171021
 20
64.561088
 30
0.0
 10
82.310462
 20
64.590845
 30
0.0
 10
82.766396
 20
64.688141
 30
0.0
 10
83.563212
 20
64.991048
 30
0.0
 10
84.646157
 20
65.892485
 30
0.0
 10
85.210649
 20
67.638128
 30
0.0
 10
85.210748
 20
69.666877
 30
0.0
 10
84.645948
 20
71.412550
 30
0.0
 10
83.563060
 20
72.314393
 30
0.0
 10
82.766288
 20
72.618409
 30
0.0
 10
82.310256
 20
72.716463
 30
0.0
 10
82.170795
 20
72.746449
 30
0.0
 11
82.171021
 21
64.561088
 31
0.0
 11
82.587893
 21
64.656918
 31
0.0
 11
83.489671
 21
65.016593
 31
0.0
 11
84.353092
 21
65.748394
 31
0.0
 11
85.095130
 21
67.606487
 31
0.0
 11
85.095144
 21
69.698499
 31
0.0
 11
84.353092
 21
71.556564
 31
0.0
 11
83.489596
 21
72.289021
 31
0.0
 11
82.587718
 21
72.649945
 31
0.0
 11
82.170795
 21
72.746449
 31
0.0
  0
ENDSEC
  0
SECTION
  2
OBJECTS
  0
DICTIONARY
  5
C
330
0
100
AcDbDictionary
  3
ACAD_GROUP
350
D
  3
ACAD_MLINESTYLE
350
17
  0
DICTIONARY
  5
D
330
C
100
AcDbDictionary
  0
DICTIONARY
  5
1A
330
C
100
AcDbDictionary
  0
DICTIONARY
  5
17
330
C
100
AcDbDictionary
  3
STANDARD
350
18
  0
DICTIONARY
  5
19
330
C
100
AcDbDictionary
  0
ENDSEC
  0
EOF
