<?xml version="1.0" encoding="UTF-8" standalone="no"?>
<!-- Created with Inkscape (http://www.inkscape.org/) -->

<svg
   xmlns:dc="http://purl.org/dc/elements/1.1/"
   xmlns:cc="http://creativecommons.org/ns#"
   xmlns:rdf="http://www.w3.org/1999/02/22-rdf-syntax-ns#"
   xmlns:svg="http://www.w3.org/2000/svg"
   xmlns="http://www.w3.org/2000/svg"
   xmlns:sodipodi="http://sodipodi.sourceforge.net/DTD/sodipodi-0.dtd"
   xmlns:inkscape="http://www.inkscape.org/namespaces/inkscape"
   id="svg4468"
   version="1.1"
   inkscape:version="0.48.0 r9654"
   width="720"
   height="720"
   xml:space="preserve"
   sodipodi:docname="Dodecahedron.svg"><metadata
     id="metadata4474"><rdf:RDF><cc:Work
         rdf:about=""><dc:format>image/svg+xml</dc:format><dc:type
           rdf:resource="http://purl.org/dc/dcmitype/StillImage" /><dc:title /></cc:Work></rdf:RDF></metadata><defs
     id="defs4472"><clipPath
   clipPathUnits="userSpaceOnUse"
   id="clipPath4484"><path
     d="M 0,0 240,0 240,133 0,133 0,0 z"
     id="path4486"
     inkscape:connector-curvature="0" /></clipPath>
</defs><sodipodi:namedview
     pagecolor="#ffffff"
     bordercolor="#666666"
     borderopacity="1"
     objecttolerance="10"
     gridtolerance="10"
     guidetolerance="10"
     inkscape:pageopacity="0"
     inkscape:pageshadow="2"
     inkscape:window-width="1680"
     inkscape:window-height="944"
     id="namedview4470"
     showgrid="false"
     inkscape:zoom="1.0248248"
     inkscape:cx="355.97931"
     inkscape:cy="356.36748"
     inkscape:window-x="0"
     inkscape:window-y="0"
     inkscape:window-maximized="0"
     inkscape:current-layer="g4476"
     units="in"
     showguides="true"
     inkscape:guide-bbox="true"
     inkscape:object-nodes="true"
     inkscape:snap-nodes="true"
     inkscape:snap-bbox="true"
     inkscape:snap-global="true" /><g
     id="g4476"
     inkscape:groupmode="layer"
     inkscape:label="Dodecahedron"
     transform="matrix(1.25,0,0,-1.25,0,720)"><path
       style="fill:none;stroke:#ff0000;stroke-width:0.0648;stroke-linecap:square;stroke-linejoin:miter;stroke-miterlimit:4;stroke-opacity:1;stroke-dasharray:none"
       d="m 80.175476,154.73847 39.962914,55.00622"
       id="path4231" /><path
       style="fill:none;stroke:#ff0000;stroke-width:0.0648;stroke-linecap:square;stroke-linejoin:miter;stroke-miterlimit:4;stroke-opacity:1;stroke-dasharray:none"
       d="M 80.175476,154.73847 120.13839,99.73467"
       id="path4229" /><path
       style="fill:none;stroke:#ff0000;stroke-width:0.0648;stroke-linecap:square;stroke-linejoin:miter;stroke-miterlimit:4;stroke-opacity:1;stroke-dasharray:none"
       d="m 120.13839,455.72977 0,-67.98994"
       id="path4223" /><path
       style="fill:none;stroke:#ff0000;stroke-width:0.0648;stroke-linecap:square;stroke-linejoin:miter;stroke-miterlimit:4;stroke-opacity:1;stroke-dasharray:none"
       d="m 120.13839,455.72977 64.66089,21.01004"
       id="path4221" /><path
       style="fill:none;stroke:#ff0000;stroke-width:0.0648;stroke-linecap:square;stroke-linejoin:miter;stroke-miterlimit:4;stroke-opacity:1;stroke-dasharray:none"
       d="m 120.13839,387.73983 64.66089,-21.01004"
       id="path4219" /><path
       style="fill:none;stroke:#ff0000;stroke-width:0.0648;stroke-linecap:square;stroke-linejoin:miter;stroke-miterlimit:4;stroke-opacity:1;stroke-dasharray:none"
       d="m 120.13839,277.73222 64.66089,21.01004"
       id="path4215" /><path
       style="fill:none;stroke:#ff0000;stroke-width:0.0648;stroke-linecap:square;stroke-linejoin:miter;stroke-miterlimit:4;stroke-opacity:1;stroke-dasharray:none"
       d="m 120.13839,209.74469 64.66089,-21.01004"
       id="path4213" /><path
       style="fill:none;stroke:#ff0000;stroke-width:0.0648;stroke-linecap:square;stroke-linejoin:miter;stroke-miterlimit:4;stroke-opacity:1;stroke-dasharray:none"
       d="m 120.13839,99.73467 64.66089,21.01004"
       id="path4209" /><path
       style="fill:none;stroke:#ff0000;stroke-width:0.0648;stroke-linecap:square;stroke-linejoin:miter;stroke-miterlimit:4;stroke-opacity:1;stroke-dasharray:none"
       d="m 184.79928,476.73981 39.96291,-55.0038"
       id="path4201" /><path
       style="fill:none;stroke:#ff0000;stroke-width:0.0648;stroke-linecap:square;stroke-linejoin:miter;stroke-miterlimit:4;stroke-opacity:1;stroke-dasharray:none"
       d="m 184.79928,366.72979 39.96291,55.00622"
       id="path4197" /><path
       style="fill:none;stroke:#ff0000;stroke-width:0.0648;stroke-linecap:square;stroke-linejoin:miter;stroke-miterlimit:4;stroke-opacity:1;stroke-dasharray:none"
       d="m 184.79928,188.73465 0,-67.98994"
       id="path4191" /><path
       style="fill:none;stroke:#0000ff;stroke-width:0.0648;stroke-linecap:butt;stroke-linejoin:miter;stroke-miterlimit:4;stroke-opacity:1;stroke-dasharray:none"
       d="m 224.76219,243.73845 2.96592,18.72604 -24.20337,33.31308 -18.72604,2.96591"
       id="path3797" /><path
       style="fill:none;stroke:#ff0000;stroke-width:0.0648;stroke-linecap:butt;stroke-linejoin:miter;stroke-miterlimit:4;stroke-opacity:1;stroke-dasharray:none"
       d="m 212.26333,260.94235 12.49886,-17.2039"
       id="path3496" /><path
       style="fill:none;stroke:#ff0000;stroke-width:0.0648;stroke-linecap:butt;stroke-linejoin:miter;stroke-miterlimit:4;stroke-opacity:1;stroke-dasharray:none"
       d="m 184.7987,298.74348 12.49887,-17.20389"
       id="path4054" /><path
       style="fill:none;stroke:#0000ff;stroke-width:0.0648;stroke-linecap:butt;stroke-linejoin:miter;stroke-miterlimit:4;stroke-opacity:1;stroke-dasharray:none"
       d="m 195.26851,281.18974 c 3.79984,0.86342 3.79984,0.86342 3.79984,0.86342 l 14.23535,-19.59328 c 0,0 0,0 -1.99537,-3.34705"
       id="path4062" /><path
       style="fill:none;stroke:#0000ff;stroke-width:0.0648;stroke-linecap:butt;stroke-linejoin:miter;stroke-miterlimit:4;stroke-opacity:1;stroke-dasharray:none"
       d="m 289.4231,400.72601 13.40636,-13.40636 0,-41.17723 -13.40636,-13.40636"
       id="path4109" /><path
       style="fill:none;stroke:#ff0000;stroke-width:0.0648;stroke-linecap:butt;stroke-linejoin:miter;stroke-miterlimit:4;stroke-opacity:1;stroke-dasharray:none"
       d="m 289.4235,379.46112 -4e-4,21.26489"
       id="path3504" /><path
       style="fill:none;stroke:#ff0000;stroke-width:0.0648;stroke-linecap:butt;stroke-linejoin:miter;stroke-miterlimit:4;stroke-opacity:1;stroke-dasharray:none"
       d="m 289.4231,332.73606 -4e-4,21.26489"
       id="path4111" /><path
       style="fill:none;stroke:#0000ff;stroke-width:0.0648;stroke-linecap:butt;stroke-linejoin:miter;stroke-miterlimit:4;stroke-opacity:1;stroke-dasharray:none"
       d="m 287.57553,353.09133 c 3.58163,1.53497 3.58163,1.53497 3.58163,1.53497 l 0,24.21862 c 0,0 0,0 -3.58163,1.53497"
       id="path4113" /><path
       style="fill:none;stroke:#0000ff;stroke-width:0.0648;stroke-linecap:butt;stroke-linejoin:miter;stroke-miterlimit:4;stroke-opacity:1;stroke-dasharray:none"
       d="m 289.4231,510.73358 -8.60742,16.893 -39.16187,12.72446 -16.893,-8.60741"
       id="path4117" /><path
       style="fill:none;stroke:#ff0000;stroke-width:0.0648;stroke-linecap:butt;stroke-linejoin:miter;stroke-miterlimit:4;stroke-opacity:1;stroke-dasharray:none"
       d="m 269.19911,517.30517 20.22399,-6.57159"
       id="path3512" /><path
       style="fill:none;stroke:#ff0000;stroke-width:0.0648;stroke-linecap:butt;stroke-linejoin:miter;stroke-miterlimit:4;stroke-opacity:1;stroke-dasharray:none"
       d="m 224.76081,531.74363 20.22399,-6.57159"
       id="path4119" /><path
       style="fill:none;stroke:#0000ff;stroke-width:0.0648;stroke-linecap:butt;stroke-linejoin:miter;stroke-miterlimit:4;stroke-opacity:1;stroke-dasharray:none"
       d="m 243.5489,523.69636 c 2.56662,2.932 2.56662,2.932 2.56662,2.932 l 23.03328,-7.48397 c 0,0 0,0 0.35306,-3.88066"
       id="path4121" /><path
       style="fill:none;stroke:#0000ff;stroke-width:0.0648;stroke-linecap:butt;stroke-linejoin:miter;stroke-miterlimit:4;stroke-opacity:1;stroke-dasharray:none"
       d="m 289.42368,154.73966 2.96592,-18.72604 -24.20337,-33.31308 -18.72604,-2.965908"
       id="path4265" /><path
       style="fill:none;stroke:#ff0000;stroke-width:0.0648;stroke-linecap:butt;stroke-linejoin:miter;stroke-miterlimit:4;stroke-opacity:1;stroke-dasharray:none"
       d="m 276.92482,137.53576 12.49886,17.2039"
       id="path3520" /><path
       style="fill:none;stroke:#ff0000;stroke-width:0.0648;stroke-linecap:butt;stroke-linejoin:miter;stroke-miterlimit:4;stroke-opacity:1;stroke-dasharray:none"
       d="m 249.46019,99.734632 12.49887,17.203888"
       id="path4267" /><path
       style="fill:none;stroke:#0000ff;stroke-width:0.0648;stroke-linecap:butt;stroke-linejoin:miter;stroke-miterlimit:4;stroke-opacity:1;stroke-dasharray:none"
       d="m 259.93,117.28837 c 3.79984,-0.86341 3.79984,-0.86341 3.79984,-0.86341 l 14.23535,19.59328 c 0,0 0,0 -1.99537,3.34704"
       id="path4269" /><path
       style="fill:none;stroke:#0000ff;stroke-width:0.0648;stroke-linecap:butt;stroke-linejoin:miter;stroke-miterlimit:4;stroke-opacity:1;stroke-dasharray:none"
       d="m 120.13641,31.745926 8.60742,-16.892999 39.16187,-12.7244638 16.893,8.6074128"
       id="path4279" /><path
       style="fill:none;stroke:#ff0000;stroke-width:0.0648;stroke-linecap:butt;stroke-linejoin:miter;stroke-miterlimit:4;stroke-opacity:1;stroke-dasharray:none"
       d="m 140.3604,25.174333 -20.22399,6.571593"
       id="path3528" /><path
       style="fill:none;stroke:#ff0000;stroke-width:0.0648;stroke-linecap:butt;stroke-linejoin:miter;stroke-miterlimit:4;stroke-opacity:1;stroke-dasharray:none"
       d="m 184.7987,10.735876 -20.22399,6.571593"
       id="path4281" /><path
       style="fill:none;stroke:#0000ff;stroke-width:0.0648;stroke-linecap:butt;stroke-linejoin:miter;stroke-miterlimit:4;stroke-opacity:1;stroke-dasharray:none"
       d="m 166.01061,18.783148 c -2.56662,-2.932003 -2.56662,-2.932003 -2.56662,-2.932003 l -23.03328,7.483966 c 0,0 0,0 -0.35306,3.880666"
       id="path4283" /><path
       style="fill:none;stroke:#0000ff;stroke-width:0.0648;stroke-linecap:butt;stroke-linejoin:miter;stroke-miterlimit:4;stroke-opacity:1;stroke-dasharray:none"
       d="m 15.51319,133.7316 -13.40636,-13.40636 0,-41.17723 13.40636,-13.40636"
       id="path4293" /><path
       style="fill:none;stroke:#ff0000;stroke-width:0.0648;stroke-linecap:butt;stroke-linejoin:miter;stroke-miterlimit:4;stroke-opacity:1;stroke-dasharray:none"
       d="m 15.51279,112.46671 4e-4,21.26489"
       id="path3536" /><path
       style="fill:none;stroke:#ff0000;stroke-width:0.0648;stroke-linecap:butt;stroke-linejoin:miter;stroke-miterlimit:4;stroke-opacity:1;stroke-dasharray:none"
       d="m 15.51319,65.74165 4e-4,21.26489"
       id="path4295" /><path
       style="fill:none;stroke:#0000ff;stroke-width:0.0648;stroke-linecap:butt;stroke-linejoin:miter;stroke-miterlimit:4;stroke-opacity:1;stroke-dasharray:none"
       d="M 17.360762,86.096922 C 13.77913,87.63189 13.77913,87.63189 13.77913,87.63189 l 0,24.21862 c 0,0 0,0 3.581632,1.53497"
       id="path4297" /><path
       style="fill:none;stroke:#0000ff;stroke-width:0.0648;stroke-linecap:butt;stroke-linejoin:miter;stroke-miterlimit:4;stroke-opacity:1;stroke-dasharray:none"
       d="M 15.513992,421.73482 12.548079,403.00878 36.751447,369.6957 55.477481,366.72979"
       id="path4307" /><path
       style="fill:none;stroke:#ff0000;stroke-width:0.0648;stroke-linecap:butt;stroke-linejoin:miter;stroke-miterlimit:4;stroke-opacity:1;stroke-dasharray:none"
       d="m 28.012857,404.53092 -12.498865,17.2039"
       id="path3544" /><path
       style="fill:none;stroke:#ff0000;stroke-width:0.0648;stroke-linecap:butt;stroke-linejoin:miter;stroke-miterlimit:4;stroke-opacity:1;stroke-dasharray:none"
       d="M 55.477481,366.72979 42.978616,383.93368"
       id="path4309" /><path
       style="fill:none;stroke:#0000ff;stroke-width:0.0648;stroke-linecap:butt;stroke-linejoin:miter;stroke-miterlimit:4;stroke-opacity:1;stroke-dasharray:none"
       d="m 45.007666,384.28353 c -3.799833,-0.86341 -3.799833,-0.86341 -3.799833,-0.86341 l -14.23535,19.59328 c 0,0 0,0 1.99537,3.34704"
       id="path4311" /><path
       style="fill:none;stroke:#0000ff;stroke-width:0.0648;stroke-linecap:butt;stroke-linejoin:miter;stroke-miterlimit:4;stroke-opacity:1;stroke-dasharray:none"
       d="m 15.513204,243.73917 8.607413,16.893 39.161873,12.72447 16.892999,-8.60742"
       id="path4321" /><path
       style="fill:none;stroke:#ff0000;stroke-width:0.0648;stroke-linecap:butt;stroke-linejoin:miter;stroke-miterlimit:4;stroke-opacity:1;stroke-dasharray:none"
       d="m 35.737193,250.31077 -20.223989,-6.5716"
       id="path3552" /><path
       style="fill:none;stroke:#ff0000;stroke-width:0.0648;stroke-linecap:butt;stroke-linejoin:miter;stroke-miterlimit:4;stroke-opacity:1;stroke-dasharray:none"
       d="M 80.175489,264.74922 59.951501,258.17763"
       id="path4323" /><path
       style="fill:none;stroke:#0000ff;stroke-width:0.0648;stroke-linecap:butt;stroke-linejoin:miter;stroke-miterlimit:4;stroke-opacity:1;stroke-dasharray:none"
       d="m 61.387404,256.70196 c -2.566626,2.932 -2.566626,2.932 -2.566626,2.932 l -23.033281,-7.48397 c 0,0 0,0 -0.353056,-3.88066"
       id="path4325" /><path
       style="fill:none;stroke:#0000ff;stroke-width:0.0648;stroke-linecap:butt;stroke-linejoin:miter;stroke-miterlimit:4;stroke-opacity:1;stroke-dasharray:none"
       d="M 120.13896,565.73861 101.41293,562.7727 77.20956,529.45962 80.175472,510.73358"
       id="path4343" /><path
       style="fill:none;stroke:#ff0000;stroke-width:0.0648;stroke-linecap:butt;stroke-linejoin:miter;stroke-miterlimit:4;stroke-opacity:1;stroke-dasharray:none"
       d="m 107.63945,548.53519 12.49951,17.20342"
       id="path3560" /><path
       style="fill:none;stroke:#ff0000;stroke-width:0.0648;stroke-linecap:butt;stroke-linejoin:miter;stroke-miterlimit:4;stroke-opacity:1;stroke-dasharray:none"
       d="m 80.175472,510.73358 12.499513,17.20343"
       id="path4345" /><path
       style="fill:none;stroke:#0000ff;stroke-width:0.0648;stroke-linecap:butt;stroke-linejoin:miter;stroke-miterlimit:4;stroke-opacity:1;stroke-dasharray:none"
       d="m 93.634713,526.11537 c -1.99537,3.34705 -1.99537,3.34705 -1.99537,3.34705 l 14.235347,19.59327 c 0,0 0,0 3.79984,-0.86341"
       id="path4347" /><path
       style="fill:none;stroke:#0000ff;stroke-width:0.0648;stroke-linecap:butt;stroke-linejoin:miter;stroke-miterlimit:4;stroke-opacity:1;stroke-dasharray:none"
       d="M 111.25942,384.90699 77.20899,351.46084 80.174902,332.7348"
       id="path4363" /><path
       style="fill:none;stroke:#ff0000;stroke-width:0.0648;stroke-linecap:butt;stroke-linejoin:miter;stroke-miterlimit:4;stroke-opacity:1;stroke-dasharray:none"
       d="m 107.63888,370.53641 12.49951,17.20342"
       id="path3576" /><path
       style="fill:none;stroke:#ff0000;stroke-width:0.0648;stroke-linecap:butt;stroke-linejoin:miter;stroke-miterlimit:4;stroke-opacity:1;stroke-dasharray:none"
       d="m 80.174902,332.7348 12.499513,17.20343"
       id="path4365" /><path
       style="fill:none;stroke:#0000ff;stroke-width:0.0648;stroke-linecap:butt;stroke-linejoin:miter;stroke-miterlimit:4;stroke-opacity:1;stroke-dasharray:none"
       d="m 93.634143,348.11659 c -1.99537,3.34705 -1.99537,3.34705 -1.99537,3.34705 l 14.235347,19.59327 c 0,0 0,0 3.79984,-0.86341"
       id="path4367" /><path
       style="fill:none;stroke:#0000ff;stroke-width:0.0648;stroke-linecap:butt;stroke-linejoin:miter;stroke-miterlimit:4;stroke-opacity:1;stroke-dasharray:none"
       d="m 75.701708,373.30063 2.316006,0.75335 0.535978,-1.64957 -4.001085,-1.30003 c 0,0 2.442186,-4.8406 6.390327,-6.0533 6.560586,-2.01512 12.455871,1.80444 16.578825,7.29109 2.481171,3.30185 4.614331,7.72547 4.614331,7.72547 l -4.001076,-1.30003 -0.535975,1.64956 2.316495,0.75184"
       id="path3568" /><path
       style="fill:none;stroke:#0000ff;stroke-width:0.0648;stroke-linecap:butt;stroke-linejoin:miter;stroke-miterlimit:4;stroke-opacity:1;stroke-dasharray:none"
       d="M 75.70172,373.30063 55.477484,366.7298"
       id="path3566" /><path
       style="fill:none;stroke:#0000ff;stroke-width:0.0648;stroke-linecap:butt;stroke-linejoin:miter;stroke-miterlimit:4;stroke-opacity:1;stroke-dasharray:none"
       d="M 120.13977,387.73985 99.915534,381.16901"
       id="path4371" /><path
       style="fill:none;stroke:#ff0000;stroke-width:0.0648;stroke-linecap:butt;stroke-linejoin:miter;stroke-miterlimit:4;stroke-opacity:1;stroke-dasharray:none"
       d="m 78.017724,374.05398 19.581324,6.36319"
       id="path4373" /><path
       style="fill:none;stroke:#0000ff;stroke-width:0.0648;stroke-linecap:butt;stroke-linejoin:miter;stroke-miterlimit:4;stroke-opacity:1;stroke-dasharray:none"
       d="M 114.7,463.30009 72.368668,485.34854 55.475669,476.74112"
       id="path4388" /><path
       style="fill:none;stroke:#ff0000;stroke-width:0.0648;stroke-linecap:butt;stroke-linejoin:miter;stroke-miterlimit:4;stroke-opacity:1;stroke-dasharray:none"
       d="m 99.913965,462.30267 20.223985,-6.5716"
       id="path3592" /><path
       style="fill:none;stroke:#ff0000;stroke-width:0.0648;stroke-linecap:butt;stroke-linejoin:miter;stroke-miterlimit:4;stroke-opacity:1;stroke-dasharray:none"
       d="m 55.475669,476.74112 20.223988,-6.57159"
       id="path4390" /><path
       style="fill:none;stroke:#0000ff;stroke-width:0.0648;stroke-linecap:butt;stroke-linejoin:miter;stroke-miterlimit:4;stroke-opacity:1;stroke-dasharray:none"
       d="m 74.263748,468.69385 c 2.566627,2.93201 2.566627,2.93201 2.566627,2.93201 l 23.03328,-7.48397 c 0,0 0,0 0.353055,-3.88067"
       id="path4392" /><path
       style="fill:none;stroke:#0000ff;stroke-width:0.0648;stroke-linecap:butt;stroke-linejoin:miter;stroke-miterlimit:4;stroke-opacity:1;stroke-dasharray:none"
       d="m 92.673773,493.53092 1.432161,-1.96986 -1.403208,-1.01949 -2.472807,3.40353 c 0,0 -3.849005,-3.81849 -3.78231,-7.94814 0.110835,-6.86219 5.565201,-11.28863 12.057377,-13.51432 3.906964,-1.33941 8.773264,-2.00119 8.773264,-2.00119 l -2.4728,3.40352 1.4032,1.01948 1.43088,-1.97079"
       id="path3584" /><path
       style="fill:none;stroke:#0000ff;stroke-width:0.0648;stroke-linecap:butt;stroke-linejoin:miter;stroke-miterlimit:4;stroke-opacity:1;stroke-dasharray:none"
       d="M 92.673771,493.5309 80.174906,510.7348"
       id="path3582" /><path
       style="fill:none;stroke:#0000ff;stroke-width:0.0648;stroke-linecap:butt;stroke-linejoin:miter;stroke-miterlimit:4;stroke-opacity:1;stroke-dasharray:none"
       d="m 120.13839,455.72977 -12.49886,17.20389"
       id="path4396" /><path
       style="fill:none;stroke:#ff0000;stroke-width:0.0648;stroke-linecap:butt;stroke-linejoin:miter;stroke-miterlimit:4;stroke-opacity:1;stroke-dasharray:none"
       d="M 94.105926,491.56106 106.20864,474.90445"
       id="path4398" /><path
       style="fill:none;stroke:#0000ff;stroke-width:0.0648;stroke-linecap:butt;stroke-linejoin:miter;stroke-miterlimit:4;stroke-opacity:1;stroke-dasharray:none"
       d="m 190.31656,484.25018 7.88822,47.07284 -13.40636,13.40636"
       id="path4404" /><path
       style="fill:none;stroke:#ff0000;stroke-width:0.0648;stroke-linecap:butt;stroke-linejoin:miter;stroke-miterlimit:4;stroke-opacity:1;stroke-dasharray:none"
       d="m 184.79882,498.00432 -4e-4,-21.26489"
       id="path3608" /><path
       style="fill:none;stroke:#ff0000;stroke-width:0.0648;stroke-linecap:butt;stroke-linejoin:miter;stroke-miterlimit:4;stroke-opacity:1;stroke-dasharray:none"
       d="m 184.79842,544.72938 -4e-4,-21.26489"
       id="path4406" /><path
       style="fill:none;stroke:#0000ff;stroke-width:0.0648;stroke-linecap:butt;stroke-linejoin:miter;stroke-miterlimit:4;stroke-opacity:1;stroke-dasharray:none"
       d="m 182.95085,524.37411 c 3.58163,-1.53497 3.58163,-1.53497 3.58163,-1.53497 l 0,-24.21862 c 0,0 0,0 -3.58163,-1.53497"
       id="path4408" /><path
       style="fill:none;stroke:#0000ff;stroke-width:0.0648;stroke-linecap:butt;stroke-linejoin:miter;stroke-miterlimit:4;stroke-opacity:1;stroke-dasharray:none"
       d="m 212.26131,514.54021 -1.43088,-1.97079 -1.40321,1.01949 2.47281,3.40353 c 0,0 -4.821,2.48064 -8.72792,1.14108 -6.49209,-2.22594 -9.01639,-8.7812 -9.12696,-15.6434 -0.0665,-4.12965 0.80785,-8.96227 0.80785,-8.96227 l 2.4728,3.40352 1.4032,-1.01949 -1.43216,-1.96985"
       id="path3600" /><path
       style="fill:none;stroke:#0000ff;stroke-width:0.0648;stroke-linecap:butt;stroke-linejoin:miter;stroke-miterlimit:4;stroke-opacity:1;stroke-dasharray:none"
       d="m 212.2613,514.54021 12.49951,17.20342"
       id="path3598" /><path
       style="fill:none;stroke:#0000ff;stroke-width:0.0648;stroke-linecap:butt;stroke-linejoin:miter;stroke-miterlimit:4;stroke-opacity:1;stroke-dasharray:none"
       d="m 184.79732,476.7386 12.49952,17.20343"
       id="path4412" /><path
       style="fill:none;stroke:#ff0000;stroke-width:0.0648;stroke-linecap:butt;stroke-linejoin:miter;stroke-miterlimit:4;stroke-opacity:1;stroke-dasharray:none"
       d="M 210.83042,512.56945 198.72899,495.91191"
       id="path4414" /><path
       style="fill:none;stroke:#0000ff;stroke-width:0.0648;stroke-linecap:butt;stroke-linejoin:miter;stroke-miterlimit:4;stroke-opacity:1;stroke-dasharray:none"
       d="m 184.74776,357.41123 21.28702,-42.71931 18.72603,-2.96591"
       id="path4420" /><path
       style="fill:none;stroke:#ff0000;stroke-width:0.0648;stroke-linecap:butt;stroke-linejoin:miter;stroke-miterlimit:4;stroke-opacity:1;stroke-dasharray:none"
       d="m 197.29619,349.52714 -12.49886,17.2039"
       id="path3624" /><path
       style="fill:none;stroke:#ff0000;stroke-width:0.0648;stroke-linecap:butt;stroke-linejoin:miter;stroke-miterlimit:4;stroke-opacity:1;stroke-dasharray:none"
       d="M 224.76081,311.72601 212.26195,328.9299"
       id="path4422" /><path
       style="fill:none;stroke:#0000ff;stroke-width:0.0648;stroke-linecap:butt;stroke-linejoin:miter;stroke-miterlimit:4;stroke-opacity:1;stroke-dasharray:none"
       d="m 214.291,329.27975 c -3.79983,-0.86342 -3.79983,-0.86342 -3.79983,-0.86342 l -14.23535,19.59328 c 0,0 0,0 1.99537,3.34704"
       id="path4424" /><path
       style="fill:none;stroke:#0000ff;stroke-width:0.0648;stroke-linecap:butt;stroke-linejoin:miter;stroke-miterlimit:4;stroke-opacity:1;stroke-dasharray:none"
       d="m 184.79812,320.00728 -7.9e-4,2.43545 1.73446,0 0,-4.20699 c 0,0 5.35836,0.82683 7.73175,4.20699 3.94383,5.61678 2.13295,12.40384 -1.8111,18.02047 -2.37352,3.38006 -5.92145,6.77579 -5.92145,6.77579 l 0,-4.20698 -1.73445,0 7.9e-4,2.43545"
       id="path3616" /><path
       style="fill:none;stroke:#0000ff;stroke-width:0.0648;stroke-linecap:butt;stroke-linejoin:miter;stroke-miterlimit:4;stroke-opacity:1;stroke-dasharray:none"
       d="m 184.79813,320.00729 -4e-4,-21.26489"
       id="path3614" /><path
       style="fill:none;stroke:#0000ff;stroke-width:0.0648;stroke-linecap:butt;stroke-linejoin:miter;stroke-miterlimit:4;stroke-opacity:1;stroke-dasharray:none"
       d="m 184.79773,366.73234 -4e-4,-21.26488"
       id="path4428" /><path
       style="fill:none;stroke:#ff0000;stroke-width:0.0648;stroke-linecap:butt;stroke-linejoin:miter;stroke-miterlimit:4;stroke-opacity:1;stroke-dasharray:none"
       d="m 184.79734,322.44273 -8e-4,20.58928"
       id="path4430" /><path
       style="fill:none;stroke:#0000ff;stroke-width:0.0648;stroke-linecap:butt;stroke-linejoin:miter;stroke-miterlimit:4;stroke-opacity:1;stroke-dasharray:none"
       d="m 190.23723,196.30367 42.33134,22.04845 16.89299,-8.60742"
       id="path4436" /><path
       style="fill:none;stroke:#ff0000;stroke-width:0.0648;stroke-linecap:butt;stroke-linejoin:miter;stroke-miterlimit:4;stroke-opacity:1;stroke-dasharray:none"
       d="m 205.02327,195.30625 -20.22399,-6.5716"
       id="path3640" /><path
       style="fill:none;stroke:#ff0000;stroke-width:0.0648;stroke-linecap:butt;stroke-linejoin:miter;stroke-miterlimit:4;stroke-opacity:1;stroke-dasharray:none"
       d="m 249.46156,209.7447 -20.22398,-6.57159"
       id="path4438" /><path
       style="fill:none;stroke:#0000ff;stroke-width:0.0648;stroke-linecap:butt;stroke-linejoin:miter;stroke-miterlimit:4;stroke-opacity:1;stroke-dasharray:none"
       d="m 230.67348,201.69743 c -2.56662,2.93201 -2.56662,2.93201 -2.56662,2.93201 l -23.03328,-7.48397 c 0,0 0,0 -0.35306,-3.88067"
       id="path4440" /><path
       style="fill:none;stroke:#0000ff;stroke-width:0.0648;stroke-linecap:butt;stroke-linejoin:miter;stroke-miterlimit:4;stroke-opacity:1;stroke-dasharray:none"
       d="m 212.26346,226.5345 -1.43216,-1.96986 1.40321,-1.01949 2.4728,3.40353 c 0,0 3.84901,-3.81849 3.78231,-7.94814 -0.11083,-6.86219 -5.5652,-11.28863 -12.05737,-13.51432 -3.90697,-1.33941 -8.77327,-2.00119 -8.77327,-2.00119 l 2.4728,3.40352 -1.4032,1.01948 -1.43088,-1.97079"
       id="path3632" /><path
       style="fill:none;stroke:#0000ff;stroke-width:0.0648;stroke-linecap:butt;stroke-linejoin:miter;stroke-miterlimit:4;stroke-opacity:1;stroke-dasharray:none"
       d="m 212.26346,226.53448 12.49887,17.2039"
       id="path3630" /><path
       style="fill:none;stroke:#0000ff;stroke-width:0.0648;stroke-linecap:butt;stroke-linejoin:miter;stroke-miterlimit:4;stroke-opacity:1;stroke-dasharray:none"
       d="m 184.79884,188.73335 12.49886,17.20389"
       id="path4444" /><path
       style="fill:none;stroke:#ff0000;stroke-width:0.0648;stroke-linecap:butt;stroke-linejoin:miter;stroke-miterlimit:4;stroke-opacity:1;stroke-dasharray:none"
       d="M 210.8313,224.56464 198.72859,207.90803"
       id="path4446" /><path
       style="fill:none;stroke:#0000ff;stroke-width:0.0648;stroke-linecap:butt;stroke-linejoin:miter;stroke-miterlimit:4;stroke-opacity:1;stroke-dasharray:none"
       d="M 193.67768,117.91309 227.72811,84.466938 224.7622,65.740904"
       id="path4452" /><path
       style="fill:none;stroke:#ff0000;stroke-width:0.0648;stroke-linecap:butt;stroke-linejoin:miter;stroke-miterlimit:4;stroke-opacity:1;stroke-dasharray:none"
       d="m 197.29822,103.54251 -12.49951,17.20342"
       id="path3656" /><path
       style="fill:none;stroke:#ff0000;stroke-width:0.0648;stroke-linecap:butt;stroke-linejoin:miter;stroke-miterlimit:4;stroke-opacity:1;stroke-dasharray:none"
       d="M 224.7622,65.740904 212.26269,82.944326"
       id="path4454" /><path
       style="fill:none;stroke:#0000ff;stroke-width:0.0648;stroke-linecap:butt;stroke-linejoin:miter;stroke-miterlimit:4;stroke-opacity:1;stroke-dasharray:none"
       d="m 211.30296,81.12269 c 1.99537,3.347046 1.99537,3.347046 1.99537,3.347046 l -14.23535,19.593274 c 0,0 0,0 -3.79984,-0.86341"
       id="path4456" /><path
       style="fill:none;stroke:#0000ff;stroke-width:0.0648;stroke-linecap:butt;stroke-linejoin:miter;stroke-miterlimit:4;stroke-opacity:1;stroke-dasharray:none"
       d="m 229.23539,106.30673 -2.316,0.75335 -0.53598,-1.64957 4.00108,-1.30003 c 0,0 -2.44218,-4.840598 -6.39032,-6.053299 -6.56059,-2.015125 -12.45587,1.804441 -16.57883,7.291089 -2.48117,3.30185 -4.61433,7.72547 -4.61433,7.72547 l 4.00108,-1.30003 0.53597,1.64956 -2.31649,0.75184"
       id="path3648" /><path
       style="fill:none;stroke:#0000ff;stroke-width:0.0648;stroke-linecap:butt;stroke-linejoin:miter;stroke-miterlimit:4;stroke-opacity:1;stroke-dasharray:none"
       d="m 229.23538,106.30673 20.22424,-6.570833"
       id="path3646" /><path
       style="fill:none;stroke:#0000ff;stroke-width:0.0648;stroke-linecap:butt;stroke-linejoin:miter;stroke-miterlimit:4;stroke-opacity:1;stroke-dasharray:none"
       d="m 184.79733,120.74595 20.22424,-6.57084"
       id="path4460" /><path
       style="fill:none;stroke:#ff0000;stroke-width:0.0648;stroke-linecap:butt;stroke-linejoin:miter;stroke-miterlimit:4;stroke-opacity:1;stroke-dasharray:none"
       d="m 226.91938,107.06008 -19.58133,6.36319"
       id="path4462" /><path
       style="fill:none;stroke:#0000ff;stroke-width:0.0648;stroke-linecap:butt;stroke-linejoin:miter;stroke-miterlimit:4;stroke-opacity:1;stroke-dasharray:none"
       d="M 120.18639,90.414748 98.89937,47.69544 80.173336,44.729528"
       id="path4484" /><path
       style="fill:none;stroke:#ff0000;stroke-width:0.0648;stroke-linecap:butt;stroke-linejoin:miter;stroke-miterlimit:4;stroke-opacity:1;stroke-dasharray:none"
       d="m 107.63796,82.530661 12.49887,17.203893"
       id="path3672" /><path
       style="fill:none;stroke:#ff0000;stroke-width:0.0648;stroke-linecap:butt;stroke-linejoin:miter;stroke-miterlimit:4;stroke-opacity:1;stroke-dasharray:none"
       d="M 80.173336,44.729528 92.672201,61.93342"
       id="path4487" /><path
       style="fill:none;stroke:#0000ff;stroke-width:0.0648;stroke-linecap:butt;stroke-linejoin:miter;stroke-miterlimit:4;stroke-opacity:1;stroke-dasharray:none"
       d="m 90.643152,62.283267 c 3.799832,-0.863415 3.799832,-0.863415 3.799832,-0.863415 l 14.235346,19.593279 c 0,0 0,0 -1.99537,3.347046"
       id="path4489" /><path
       style="fill:none;stroke:#0000ff;stroke-width:0.0648;stroke-linecap:butt;stroke-linejoin:miter;stroke-miterlimit:4;stroke-opacity:1;stroke-dasharray:none"
       d="m 120.13603,53.0108 7.9e-4,2.43545 -1.73446,0 0,-4.20699 c 0,0 -5.35836,0.82683 -7.73175,4.20699 -3.94383,5.61678 -2.13295,12.40384 1.8111,18.02047 2.37352,3.38006 5.92145,6.77579 5.92145,6.77579 l 0,-4.20698 1.73445,0 -7.9e-4,2.43545"
       id="path3664" /><path
       style="fill:none;stroke:#0000ff;stroke-width:0.0648;stroke-linecap:butt;stroke-linejoin:miter;stroke-miterlimit:4;stroke-opacity:1;stroke-dasharray:none"
       d="m 120.13602,53.01081 4e-4,-21.26489"
       id="path3662" /><path
       style="fill:none;stroke:#0000ff;stroke-width:0.0648;stroke-linecap:butt;stroke-linejoin:miter;stroke-miterlimit:4;stroke-opacity:1;stroke-dasharray:none"
       d="m 120.13642,99.73587 4e-4,-21.26489"
       id="path4493" /><path
       style="fill:none;stroke:#ff0000;stroke-width:0.0648;stroke-linecap:butt;stroke-linejoin:miter;stroke-miterlimit:4;stroke-opacity:1;stroke-dasharray:none"
       d="m 120.13682,55.446252 7.9e-4,20.58928"
       id="path4495" /><path
       style="fill:none;stroke:#0000ff;stroke-width:0.0648;stroke-linecap:butt;stroke-linejoin:miter;stroke-miterlimit:4;stroke-opacity:1;stroke-dasharray:none"
       d="m 114.61974,217.25577 -7.88822,47.07284 13.40636,13.40636"
       id="path4501" /><path
       style="fill:none;stroke:#ff0000;stroke-width:0.0648;stroke-linecap:butt;stroke-linejoin:miter;stroke-miterlimit:4;stroke-opacity:1;stroke-dasharray:none"
       d="m 120.13748,231.00991 4e-4,-21.26489"
       id="path3688" /><path
       style="fill:none;stroke:#ff0000;stroke-width:0.0648;stroke-linecap:butt;stroke-linejoin:miter;stroke-miterlimit:4;stroke-opacity:1;stroke-dasharray:none"
       d="m 120.13788,277.73497 4e-4,-21.26489"
       id="path4503" /><path
       style="fill:none;stroke:#0000ff;stroke-width:0.0648;stroke-linecap:butt;stroke-linejoin:miter;stroke-miterlimit:4;stroke-opacity:1;stroke-dasharray:none"
       d="m 121.98546,257.3797 c -3.58164,-1.53497 -3.58164,-1.53497 -3.58164,-1.53497 l 0,-24.21862 c 0,0 0,0 3.58164,-1.53497"
       id="path4505" /><path
       style="fill:none;stroke:#0000ff;stroke-width:0.0648;stroke-linecap:butt;stroke-linejoin:miter;stroke-miterlimit:4;stroke-opacity:1;stroke-dasharray:none"
       d="m 92.67499,247.5458 1.430883,-1.97078 1.403207,1.01949 -2.472806,3.40352 c 0,0 4.821002,2.48065 8.727926,1.14108 6.49208,-2.22594 9.01638,-8.7812 9.12695,-15.6434 0.0665,-4.12965 -0.80784,-8.96227 -0.80784,-8.96227 l -2.4728,3.40352 -1.4032,-1.01949 1.43216,-1.96985"
       id="path3680" /><path
       style="fill:none;stroke:#0000ff;stroke-width:0.0648;stroke-linecap:butt;stroke-linejoin:miter;stroke-miterlimit:4;stroke-opacity:1;stroke-dasharray:none"
       d="M 92.675004,247.5458 80.175492,264.74922"
       id="path3678" /><path
       style="fill:none;stroke:#0000ff;stroke-width:0.0648;stroke-linecap:butt;stroke-linejoin:miter;stroke-miterlimit:4;stroke-opacity:1;stroke-dasharray:none"
       d="m 120.13898,209.7442 -12.49951,17.20342"
       id="path4509" /><path
       style="fill:none;stroke:#ff0000;stroke-width:0.0648;stroke-linecap:butt;stroke-linejoin:miter;stroke-miterlimit:4;stroke-opacity:1;stroke-dasharray:none"
       d="M 94.105877,245.57502 106.20731,228.91747"
       id="path4511" /><path
       style="fill:none;stroke:#0000ff;stroke-width:0.0648;stroke-linecap:butt;stroke-linejoin:miter;stroke-miterlimit:4;stroke-opacity:1;stroke-dasharray:none"
       d="m 71.325999,151.81056 -47.206526,7.04417 -8.607413,16.89299"
       id="path4517" /><path
       style="fill:none;stroke:#ff0000;stroke-width:0.0648;stroke-linecap:butt;stroke-linejoin:miter;stroke-miterlimit:4;stroke-opacity:1;stroke-dasharray:none"
       d="m 59.950109,161.30851 20.224236,-6.57083"
       id="path3704" /><path
       style="fill:none;stroke:#ff0000;stroke-width:0.0648;stroke-linecap:butt;stroke-linejoin:miter;stroke-miterlimit:4;stroke-opacity:1;stroke-dasharray:none"
       d="m 15.51206,175.74772 20.224236,-6.57083"
       id="path4519" /><path
       style="fill:none;stroke:#0000ff;stroke-width:0.0648;stroke-linecap:butt;stroke-linejoin:miter;stroke-miterlimit:4;stroke-opacity:1;stroke-dasharray:none"
       d="m 35.442003,171.21474 c 0.353056,-3.88067 0.353056,-3.88067 0.353056,-3.88067 l 23.03328,-7.48396 c 0,0 0,0 2.566627,2.932"
       id="path4521" /><path
       style="fill:none;stroke:#0000ff;stroke-width:0.0648;stroke-linecap:butt;stroke-linejoin:miter;stroke-miterlimit:4;stroke-opacity:1;stroke-dasharray:none"
       d="m 35.737169,140.3 2.316494,0.75184 -0.535977,1.64957 -4.001086,-1.30003 c 0,0 -0.869462,5.35161 1.611843,8.65336 4.123165,5.48649 11.137635,5.86156 17.698146,3.84618 3.948087,-1.21286 8.273988,-3.5378 8.273988,-3.5378 l -4.001075,-1.30003 0.535974,-1.64956 2.316007,0.75335"
       id="path3696" /><path
       style="fill:none;stroke:#0000ff;stroke-width:0.0648;stroke-linecap:butt;stroke-linejoin:miter;stroke-miterlimit:4;stroke-opacity:1;stroke-dasharray:none"
       d="M 35.737175,140.30001 15.513187,133.72842"
       id="path3694" /><path
       style="fill:none;stroke:#0000ff;stroke-width:0.0648;stroke-linecap:butt;stroke-linejoin:miter;stroke-miterlimit:4;stroke-opacity:1;stroke-dasharray:none"
       d="M 80.175471,154.73847 59.951483,148.16688"
       id="path4525" /><path
       style="fill:none;stroke:#ff0000;stroke-width:0.0648;stroke-linecap:butt;stroke-linejoin:miter;stroke-miterlimit:4;stroke-opacity:1;stroke-dasharray:none"
       d="m 38.053664,141.05185 19.581814,6.36168"
       id="path4527" /><path
       style="fill:none;stroke:#0000ff;stroke-width:0.0648;stroke-linecap:butt;stroke-linejoin:miter;stroke-miterlimit:4;stroke-opacity:1;stroke-dasharray:none"
       d="m 233.60916,418.80646 47.20653,7.04417 8.60741,16.89299"
       id="path4533" /><path
       style="fill:none;stroke:#ff0000;stroke-width:0.0648;stroke-linecap:butt;stroke-linejoin:miter;stroke-miterlimit:4;stroke-opacity:1;stroke-dasharray:none"
       d="m 244.98505,428.30441 -20.22424,-6.57083"
       id="path3720" /><path
       style="fill:none;stroke:#ff0000;stroke-width:0.0648;stroke-linecap:butt;stroke-linejoin:miter;stroke-miterlimit:4;stroke-opacity:1;stroke-dasharray:none"
       d="m 289.4231,442.74362 -20.22424,-6.57083"
       id="path4535" /><path
       style="fill:none;stroke:#0000ff;stroke-width:0.0648;stroke-linecap:butt;stroke-linejoin:miter;stroke-miterlimit:4;stroke-opacity:1;stroke-dasharray:none"
       d="m 269.49316,438.21064 c -0.35306,-3.88067 -0.35306,-3.88067 -0.35306,-3.88067 l -23.03328,-7.48396 c 0,0 0,0 -2.56663,2.932"
       id="path4537" /><path
       style="fill:none;stroke:#0000ff;stroke-width:0.0648;stroke-linecap:butt;stroke-linejoin:miter;stroke-miterlimit:4;stroke-opacity:1;stroke-dasharray:none"
       d="m 269.19799,407.2959 -2.31649,0.75185 0.53597,1.64956 4.00109,-1.30003 c 0,0 0.86946,5.35161 -1.61184,8.65337 -4.12317,5.48648 -11.13764,5.86155 -17.69815,3.84617 -3.94809,-1.21286 -8.27399,-3.5378 -8.27399,-3.5378 l 4.00108,-1.30003 -0.53598,-1.64956 -2.316,0.75335"
       id="path3712" /><path
       style="fill:none;stroke:#0000ff;stroke-width:0.0648;stroke-linecap:butt;stroke-linejoin:miter;stroke-miterlimit:4;stroke-opacity:1;stroke-dasharray:none"
       d="m 269.19798,407.29591 20.22399,-6.57159"
       id="path3710" /><path
       style="fill:none;stroke:#0000ff;stroke-width:0.0648;stroke-linecap:butt;stroke-linejoin:miter;stroke-miterlimit:4;stroke-opacity:1;stroke-dasharray:none"
       d="m 224.75969,421.73437 20.22399,-6.57159"
       id="path4541" /><path
       style="fill:none;stroke:#ff0000;stroke-width:0.0648;stroke-linecap:butt;stroke-linejoin:miter;stroke-miterlimit:4;stroke-opacity:1;stroke-dasharray:none"
       d="m 266.8815,408.04775 -19.58182,6.36168"
       id="path4543" /><path
       style="fill:none;stroke:#0000ff;stroke-width:0.0648;stroke-linecap:butt;stroke-linejoin:miter;stroke-miterlimit:4;stroke-opacity:1;stroke-dasharray:none"
       d="m 140.36037,559.16859 2.316,-0.75335 0.53598,1.64957 -4.00108,1.30003 c 0,0 2.44218,4.8406 6.39032,6.0533 6.56059,2.01512 15.44992,-0.87296 19.57287,-6.35961 2.48117,-3.30185 1.62029,-8.65695 1.62029,-8.65695 l -4.00108,1.30003 -0.53597,-1.64956 2.31649,-0.75184"
       id="path3730" /><path
       style="fill:none;stroke:#0000ff;stroke-width:0.0648;stroke-linecap:butt;stroke-linejoin:miter;stroke-miterlimit:4;stroke-opacity:1;stroke-dasharray:none"
       d="m 140.36038,559.16859 -20.22424,6.57083"
       id="path3728" /><path
       style="fill:none;stroke:#0000ff;stroke-width:0.0648;stroke-linecap:butt;stroke-linejoin:miter;stroke-miterlimit:4;stroke-opacity:1;stroke-dasharray:none"
       d="m 184.79843,544.72937 -20.22424,6.57084"
       id="path4561" /><path
       style="fill:none;stroke:#ff0000;stroke-width:0.0648;stroke-linecap:butt;stroke-linejoin:miter;stroke-miterlimit:4;stroke-opacity:1;stroke-dasharray:none"
       d="m 147.58978,556.81851 9.75453,-3.17"
       id="path4563" /><path
       style="fill:none;stroke:#0000ff;stroke-width:0.0648;stroke-linecap:butt;stroke-linejoin:miter;stroke-miterlimit:4;stroke-opacity:1;stroke-dasharray:none"
       d="m 28.012859,438.9387 1.432161,1.96985 -1.403208,1.01949 -2.472807,-3.40352 c 0,0 -3.849006,3.81848 -3.78231,7.94813 0.110835,6.8622 5.604521,14.42398 12.096697,16.64968 3.906967,1.3394 8.733943,-1.13416 8.733943,-1.13416 l -2.472801,-3.40352 1.4032,-1.01948 1.430882,1.97078"
       id="path3738" /><path
       style="fill:none;stroke:#0000ff;stroke-width:0.0648;stroke-linecap:butt;stroke-linejoin:miter;stroke-miterlimit:4;stroke-opacity:1;stroke-dasharray:none"
       d="M 28.012857,438.93871 15.513992,421.73482"
       id="path3736" /><path
       style="fill:none;stroke:#0000ff;stroke-width:0.0648;stroke-linecap:butt;stroke-linejoin:miter;stroke-miterlimit:4;stroke-opacity:1;stroke-dasharray:none"
       d="M 55.477481,476.73984 42.978616,459.53595"
       id="path4567" /><path
       style="fill:none;stroke:#ff0000;stroke-width:0.0648;stroke-linecap:butt;stroke-linejoin:miter;stroke-miterlimit:4;stroke-opacity:1;stroke-dasharray:none"
       d="m 32.481919,445.08806 6.029164,8.29752"
       id="path4569" /><path
       style="fill:none;stroke:#0000ff;stroke-width:0.0648;stroke-linecap:butt;stroke-linejoin:miter;stroke-miterlimit:4;stroke-opacity:1;stroke-dasharray:none"
       d="m 107.63838,294.93839 -1.43088,1.97079 -1.40321,-1.01949 2.47281,-3.40353 c 0,0 -4.821,-2.48064 -8.727923,-1.14108 -6.492086,2.22594 -11.986128,9.78747 -12.096697,16.64967 -0.06653,4.12965 3.777586,7.956 3.777586,7.956 l 2.4728,-3.40352 1.4032,1.01949 -1.432161,1.96985"
       id="path3746" /><path
       style="fill:none;stroke:#0000ff;stroke-width:0.0648;stroke-linecap:butt;stroke-linejoin:miter;stroke-miterlimit:4;stroke-opacity:1;stroke-dasharray:none"
       d="m 107.63837,294.93839 12.49951,-17.20342"
       id="path3744" /><path
       style="fill:none;stroke:#0000ff;stroke-width:0.0648;stroke-linecap:butt;stroke-linejoin:miter;stroke-miterlimit:4;stroke-opacity:1;stroke-dasharray:none"
       d="M 80.174393,332.74 92.673905,315.53657"
       id="path4573" /><path
       style="fill:none;stroke:#ff0000;stroke-width:0.0648;stroke-linecap:butt;stroke-linejoin:miter;stroke-miterlimit:4;stroke-opacity:1;stroke-dasharray:none"
       d="m 103.17101,301.08898 -6.028301,8.29815"
       id="path4575" /><path
       style="fill:none;stroke:#0000ff;stroke-width:0.0648;stroke-linecap:butt;stroke-linejoin:miter;stroke-miterlimit:4;stroke-opacity:1;stroke-dasharray:none"
       d="m 15.51167,197.01261 7.9e-4,2.43545 -1.73446,0 0,-4.20699 c 0,0 -5.35836,0.82683 -7.73175,4.20699 -3.94383,5.61678 -3.94405,14.9635 0,20.58013 2.37352,3.38006 7.73255,4.21613 7.73255,4.21613 l 0,-4.20698 1.73445,0 -7.9e-4,2.43545"
       id="path3754" /><path
       style="fill:none;stroke:#0000ff;stroke-width:0.0648;stroke-linecap:butt;stroke-linejoin:miter;stroke-miterlimit:4;stroke-opacity:1;stroke-dasharray:none"
       d="m 15.51166,197.01262 4e-4,-21.26489"
       id="path3752" /><path
       style="fill:none;stroke:#0000ff;stroke-width:0.0648;stroke-linecap:butt;stroke-linejoin:miter;stroke-miterlimit:4;stroke-opacity:1;stroke-dasharray:none"
       d="m 15.51206,243.73768 4e-4,-21.26489"
       id="path4579" /><path
       style="fill:none;stroke:#ff0000;stroke-width:0.0648;stroke-linecap:butt;stroke-linejoin:miter;stroke-miterlimit:4;stroke-opacity:1;stroke-dasharray:none"
       d="m 15.512714,204.6144 5.36e-4,10.25669"
       id="path4581" /><path
       style="fill:none;stroke:#0000ff;stroke-width:0.0648;stroke-linecap:butt;stroke-linejoin:miter;stroke-miterlimit:4;stroke-opacity:1;stroke-dasharray:none"
       d="m 59.951247,51.302438 -2.316007,0.753346 -0.535977,-1.649569 4.001085,-1.300032 c 0,0 -2.442186,-4.840598 -6.390327,-6.053299 -6.560586,-2.015125 -15.449913,0.872961 -19.572867,6.35961 -2.48117,3.301847 -1.620288,8.656947 -1.620288,8.656947 l 4.001075,-1.300028 0.535975,1.64956 -2.316495,0.751844"
       id="path3762" /><path
       style="fill:none;stroke:#0000ff;stroke-width:0.0648;stroke-linecap:butt;stroke-linejoin:miter;stroke-miterlimit:4;stroke-opacity:1;stroke-dasharray:none"
       d="M 59.951234,51.302431 80.17547,44.731599"
       id="path3760" /><path
       style="fill:none;stroke:#0000ff;stroke-width:0.0648;stroke-linecap:butt;stroke-linejoin:miter;stroke-miterlimit:4;stroke-opacity:1;stroke-dasharray:none"
       d="M 15.513185,65.741649 35.737421,59.170817"
       id="path4585" /><path
       style="fill:none;stroke:#ff0000;stroke-width:0.0648;stroke-linecap:butt;stroke-linejoin:miter;stroke-miterlimit:4;stroke-opacity:1;stroke-dasharray:none"
       d="M 52.721834,53.652511 42.96731,56.822512"
       id="path4587" /><path
       style="fill:none;stroke:#0000ff;stroke-width:0.0648;stroke-linecap:butt;stroke-linejoin:miter;stroke-miterlimit:4;stroke-opacity:1;stroke-dasharray:none"
       d="m 212.26332,48.537026 -1.43216,-1.969856 1.40321,-1.01949 2.47281,3.403526 c 0,0 3.849,-3.818484 3.78231,-7.948135 -0.11084,-6.862195 -5.60452,-14.42398 -12.0967,-16.649675 -3.90697,-1.339406 -8.73394,1.134158 -8.73394,1.134158 l 2.4728,3.403519 -1.4032,1.019484 -1.43088,-1.970785"
       id="path3770" /><path
       style="fill:none;stroke:#0000ff;stroke-width:0.0648;stroke-linecap:butt;stroke-linejoin:miter;stroke-miterlimit:4;stroke-opacity:1;stroke-dasharray:none"
       d="m 212.26333,48.537012 12.49886,17.203892"
       id="path3768" /><path
       style="fill:none;stroke:#0000ff;stroke-width:0.0648;stroke-linecap:butt;stroke-linejoin:miter;stroke-miterlimit:4;stroke-opacity:1;stroke-dasharray:none"
       d="m 184.7987,10.73588 12.49887,17.203892"
       id="path4591" /><path
       style="fill:none;stroke:#ff0000;stroke-width:0.0648;stroke-linecap:butt;stroke-linejoin:miter;stroke-miterlimit:4;stroke-opacity:1;stroke-dasharray:none"
       d="m 207.79426,42.387669 -6.02916,-8.29752"
       id="path4593" /><path
       style="fill:none;stroke:#0000ff;stroke-width:0.0648;stroke-linecap:butt;stroke-linejoin:miter;stroke-miterlimit:4;stroke-opacity:1;stroke-dasharray:none"
       d="m 261.95969,192.54126 1.43088,-1.97078 1.40321,1.01949 -2.47281,3.40352 c 0,0 4.82101,2.48065 8.72793,1.14108 6.49208,-2.22594 11.98613,-9.78747 12.09669,-16.64967 0.0665,-4.12965 -3.77758,-7.956 -3.77758,-7.956 l -2.4728,3.40352 -1.4032,-1.01949 1.43216,-1.96985"
       id="path3778" /><path
       style="fill:none;stroke:#0000ff;stroke-width:0.0648;stroke-linecap:butt;stroke-linejoin:miter;stroke-miterlimit:4;stroke-opacity:1;stroke-dasharray:none"
       d="m 261.9597,192.54126 -12.49951,17.20342"
       id="path3776" /><path
       style="fill:none;stroke:#0000ff;stroke-width:0.0648;stroke-linecap:butt;stroke-linejoin:miter;stroke-miterlimit:4;stroke-opacity:1;stroke-dasharray:none"
       d="m 289.42368,154.73966 -12.49951,17.20342"
       id="path4597" /><path
       style="fill:none;stroke:#ff0000;stroke-width:0.0648;stroke-linecap:butt;stroke-linejoin:miter;stroke-miterlimit:4;stroke-opacity:1;stroke-dasharray:none"
       d="m 266.42707,186.39067 6.0283,-8.29815"
       id="path4599" /><path
       style="fill:none;stroke:#0000ff;stroke-width:0.0648;stroke-linecap:butt;stroke-linejoin:miter;stroke-miterlimit:4;stroke-opacity:1;stroke-dasharray:none"
       d="m 269.19912,326.16448 -2.3165,-0.75184 0.53598,-1.64957 4.00108,1.30003 c 0,0 0.86947,-5.35161 -1.61184,-8.65336 -4.12316,-5.48649 -13.01235,-8.37499 -19.57287,-6.35961 -3.94808,1.21285 -6.39926,6.05123 -6.39926,6.05123 l 4.00107,1.30003 -0.53597,1.64956 -2.31601,-0.75335"
       id="path3786" /><path
       style="fill:none;stroke:#0000ff;stroke-width:0.0648;stroke-linecap:butt;stroke-linejoin:miter;stroke-miterlimit:4;stroke-opacity:1;stroke-dasharray:none"
       d="m 269.19911,326.16447 20.22399,6.57159"
       id="path3784" /><path
       style="fill:none;stroke:#0000ff;stroke-width:0.0648;stroke-linecap:butt;stroke-linejoin:miter;stroke-miterlimit:4;stroke-opacity:1;stroke-dasharray:none"
       d="m 224.76081,311.72601 20.22399,6.57159"
       id="path4603" /><path
       style="fill:none;stroke:#ff0000;stroke-width:0.0648;stroke-linecap:butt;stroke-linejoin:miter;stroke-miterlimit:4;stroke-opacity:1;stroke-dasharray:none"
       d="m 261.96907,323.81639 -9.75486,-3.16898"
       id="path4605" /><path
       style="fill:none;stroke:#0000ff;stroke-width:0.0648;stroke-linecap:butt;stroke-linejoin:miter;stroke-miterlimit:4;stroke-opacity:1;stroke-dasharray:none"
       d="m 289.42349,489.4687 -7.9e-4,-2.43545 1.73446,0 0,4.20699 c 0,0 5.35836,-0.82683 7.73175,-4.20699 3.94383,-5.61678 3.94405,-14.9635 0,-20.58013 -2.37352,-3.38006 -7.73255,-4.21613 -7.73255,-4.21613 l 0,4.20698 -1.73445,0 7.9e-4,-2.43545"
       id="path3794" /><path
       style="fill:none;stroke:#0000ff;stroke-width:0.0648;stroke-linecap:butt;stroke-linejoin:miter;stroke-miterlimit:4;stroke-opacity:1;stroke-dasharray:none"
       d="m 289.4235,489.46869 -4e-4,21.26489"
       id="path3792" /><path
       style="fill:none;stroke:#0000ff;stroke-width:0.0648;stroke-linecap:butt;stroke-linejoin:miter;stroke-miterlimit:4;stroke-opacity:1;stroke-dasharray:none"
       d="m 289.4231,442.74363 -4e-4,21.26489"
       id="path4609" /><path
       style="fill:none;stroke:#ff0000;stroke-width:0.0648;stroke-linecap:butt;stroke-linejoin:miter;stroke-miterlimit:4;stroke-opacity:1;stroke-dasharray:none"
       d="m 289.42245,481.86691 -5.4e-4,-10.25669"
       id="path4611" /></g></svg>