<?xml version="1.0" encoding="UTF-8" standalone="no"?>
<!-- Created with Inkscape (http://www.inkscape.org/) -->

<svg
   xmlns:dc="http://purl.org/dc/elements/1.1/"
   xmlns:cc="http://creativecommons.org/ns#"
   xmlns:rdf="http://www.w3.org/1999/02/22-rdf-syntax-ns#"
   xmlns:svg="http://www.w3.org/2000/svg"
   xmlns="http://www.w3.org/2000/svg"
   xmlns:sodipodi="http://sodipodi.sourceforge.net/DTD/sodipodi-0.dtd"
   xmlns:inkscape="http://www.inkscape.org/namespaces/inkscape"
   width="744.09448819"
   height="1052.3622047"
   id="svg2"
   sodipodi:version="0.32"
   inkscape:version="0.48.0 r9654"
   sodipodi:docname="icos.svg"
   inkscape:output_extension="org.inkscape.output.svg.inkscape"
   version="1.1">
  <sodipodi:namedview
     id="base"
     pagecolor="#ffffff"
     bordercolor="#666666"
     borderopacity="1.0"
     inkscape:pageopacity="0.0"
     inkscape:pageshadow="2"
     inkscape:zoom="1.1048545"
     inkscape:cx="246.2808"
     inkscape:cy="720.31801"
     inkscape:document-units="px"
     inkscape:current-layer="layer3"
     showgrid="false"
     inkscape:window-width="1680"
     inkscape:window-height="944"
     inkscape:window-x="38"
     inkscape:window-y="22"
     inkscape:window-maximized="1"
     inkscape:object-nodes="true" />
  <metadata
     id="metadata7">
    <rdf:RDF>
      <cc:Work
         rdf:about="">
        <dc:format>image/svg+xml</dc:format>
        <dc:type
           rdf:resource="http://purl.org/dc/dcmitype/StillImage" />
        <dc:title />
      </cc:Work>
    </rdf:RDF>
  </metadata>
  <g
     inkscape:groupmode="layer"
     id="layer3"
     inkscape:label="cuts"
     style="display:inline">
    <path
       style="fill:none;stroke:#ff0000;stroke-width:0.081;stroke-miterlimit:4;stroke-opacity:1;stroke-dasharray:none;display:inline"
       d="m 212.22249,376.15629 103.02653,59.18647"
       id="path5774" />
    <path
       style="fill:none;stroke:#ff0000;stroke-width:0.081;stroke-miterlimit:4;stroke-opacity:1;stroke-dasharray:none;display:inline"
       d="M 315.35824,316.73142 315.17432,78.50494 418.40148,137.86152"
       id="path4581" />
    <path
       style="fill:none;stroke:#ff0000;stroke-width:0.081;stroke-miterlimit:4;stroke-opacity:1;stroke-dasharray:none;display:inline"
       d="m 109.09554,554.60554 0.0261,-118.95747"
       id="path4579" />
    <path
       inkscape:connector-curvature="0"
       style="fill:none;stroke:#ff0000;stroke-width:0.081;stroke-miterlimit:4;stroke-opacity:1;stroke-dasharray:none;display:inline"
       d="M 314.97486,554.54059 212.2446,614.14387"
       id="path4552" />
    <path
       style="fill:none;stroke:#ff0000;stroke-width:0.081;stroke-miterlimit:4;stroke-opacity:1;stroke-dasharray:none;display:inline"
       d="M 109.09552,554.60554 212.2446,614.14387"
       id="path5794" />
    <path
       style="fill:none;stroke:#ff0000;stroke-width:0.081;stroke-miterlimit:4;stroke-opacity:1;stroke-dasharray:none;display:inline"
       d="m 418.33424,257.39356 -102.976,59.33786 -103.13575,59.42487 -103.15848,59.4669"
       id="path5812" />
    <path
       style="fill:none;stroke:#ff0000;stroke-width:0.081;stroke-miterlimit:4;stroke-opacity:1;stroke-dasharray:none;display:inline"
       d="m 212.12396,257.13116 103.23428,59.60026"
       id="path4587" />
    <path
       style="fill:none;stroke:#ff0000;stroke-width:0.081;stroke-miterlimit:4;stroke-opacity:1;stroke-dasharray:none;display:inline"
       d="M 315.17432,78.504949 212.26676,138.01639"
       id="path3695" />
    <path
       inkscape:connector-curvature="0"
       style="fill:none;stroke:#ff0000;stroke-width:0.081;stroke-miterlimit:4;stroke-opacity:1;stroke-dasharray:none;display:inline"
       d="m 212.22249,376.15629 0.0976,237.89616"
       id="path4469"
       sodipodi:nodetypes="cc" />
    <path
       inkscape:connector-curvature="0"
       style="fill:none;stroke:#ff0000;stroke-width:0.081;stroke-miterlimit:4;stroke-opacity:1;stroke-dasharray:none;display:inline"
       d="M 212.32772,137.94688 315.2149,197.52824"
       id="path4473"
       sodipodi:nodetypes="cc" />
    <path
       style="fill:none;stroke:#ff0000;stroke-width:0.081;stroke-miterlimit:4;stroke-opacity:1;stroke-dasharray:none;display:inline"
       d="M 315.2149,197.52824 212.12396,257.13116"
       id="path4475" />
    <path
       inkscape:connector-curvature="0"
       style="fill:none;stroke:#ff0000;stroke-width:0.081;stroke-miterlimit:4;stroke-opacity:1;stroke-dasharray:none;display:inline"
       d="M 212.12384,495.12716 108.7791,554.70907"
       id="path4479"
       sodipodi:nodetypes="cc" />
    <path
       style="fill:none;stroke:#ff0000;stroke-width:0.081;stroke-miterlimit:4;stroke-opacity:1;stroke-dasharray:none;display:inline"
       d="M 212.12384,495.12716 109.06401,435.62319"
       id="path4481" />
    <path
       style="fill:none;stroke:#ff0000;stroke-width:0.081;stroke-miterlimit:4;stroke-opacity:1;stroke-dasharray:none;display:inline"
       d="m 212.26679,138.01644 -0.11637,118.7144"
       id="path4583" />
    <path
       style="fill:none;stroke:#0000ff;stroke-width:0.08100001;stroke-linecap:butt;stroke-linejoin:miter;stroke-miterlimit:4;stroke-opacity:1;stroke-dasharray:none"
       d="m 211.51259,55.866288 0.001,4.26164 -3.03503,0 0,-7.361546 c 0,0 -9.37625,1.446817 -13.5293,7.361546 -6.90106,9.82845 -6.90144,26.183686 0,36.011873 4.15328,5.914559 13.5307,7.377539 13.5307,7.377539 l 0,-7.361528 3.03501,0 -0.001,4.261638"
       id="path3794"
       inkscape:connector-curvature="0" />
    <path
       style="fill:none;stroke:#0000ff;stroke-width:0.08100001;stroke-linecap:butt;stroke-linejoin:miter;stroke-miterlimit:4;stroke-opacity:1;stroke-dasharray:none"
       d="m 211.51258,55.866305 7e-4,-37.210091"
       id="path3792"
       inkscape:connector-curvature="0" />
    <path
       style="fill:none;stroke:#0000ff;stroke-width:0.08100001;stroke-linecap:butt;stroke-linejoin:miter;stroke-miterlimit:4;stroke-opacity:1;stroke-dasharray:none"
       d="m 211.51328,137.62754 7e-4,-37.21009"
       id="path4609"
       inkscape:connector-curvature="0" />
    <path
       style="fill:none;stroke:#ff0000;stroke-width:0.08100001;stroke-linecap:butt;stroke-linejoin:miter;stroke-miterlimit:4;stroke-opacity:1;stroke-dasharray:none"
       d="m 211.51441,69.168181 9.5e-4,17.947536"
       id="path4611"
       inkscape:connector-curvature="0" />
    <path
       id="path4736"
       d="m 419.08289,18.183791 23.60212,23.602124 0,72.493215 -23.60212,23.60212"
       style="fill:none;stroke:#0000ff;stroke-width:0.08099999;stroke-linecap:butt;stroke-linejoin:miter;stroke-miterlimit:4;stroke-opacity:1;stroke-dasharray:none"
       inkscape:connector-curvature="0" />
    <path
       id="path4738"
       d="m 419.08359,55.620991 -7e-4,-37.4372"
       style="fill:none;stroke:#ff0000;stroke-width:0.08099999;stroke-linecap:butt;stroke-linejoin:miter;stroke-miterlimit:4;stroke-opacity:1;stroke-dasharray:none"
       inkscape:connector-curvature="0" />
    <path
       id="path4740"
       d="m 419.08289,137.88125 -7.1e-4,-37.4372"
       style="fill:none;stroke:#ff0000;stroke-width:0.08099999;stroke-linecap:butt;stroke-linejoin:miter;stroke-miterlimit:4;stroke-opacity:1;stroke-dasharray:none"
       inkscape:connector-curvature="0" />
    <path
       id="path4742"
       d="m 415.83021,102.04545 c 6.30552,-2.702336 6.30552,-2.702336 6.30552,-2.702336 l 0,-42.637292 c 0,0 0,0 -6.30552,-2.702341"
       style="fill:none;stroke:#0000ff;stroke-width:0.08099999;stroke-linecap:butt;stroke-linejoin:miter;stroke-miterlimit:4;stroke-opacity:1;stroke-dasharray:none"
       inkscape:connector-curvature="0" />
    <path
       inkscape:connector-curvature="0"
       style="fill:none;stroke:#0000ff;stroke-width:0.08099999;stroke-linecap:butt;stroke-linejoin:miter;stroke-miterlimit:4;stroke-opacity:1;stroke-dasharray:none"
       d="m 315.249,553.73185 23.60212,23.60213 0,72.49321 -23.60212,23.60212"
       id="path5638" />
    <path
       inkscape:connector-curvature="0"
       style="fill:none;stroke:#ff0000;stroke-width:0.08099999;stroke-linecap:butt;stroke-linejoin:miter;stroke-miterlimit:4;stroke-opacity:1;stroke-dasharray:none"
       d="m 315.2497,591.16905 -7e-4,-37.4372"
       id="path5640" />
    <path
       inkscape:connector-curvature="0"
       style="fill:none;stroke:#ff0000;stroke-width:0.08099999;stroke-linecap:butt;stroke-linejoin:miter;stroke-miterlimit:4;stroke-opacity:1;stroke-dasharray:none"
       d="m 315.249,673.42931 -7.1e-4,-37.4372"
       id="path5642" />
    <path
       inkscape:connector-curvature="0"
       style="fill:none;stroke:#0000ff;stroke-width:0.08099999;stroke-linecap:butt;stroke-linejoin:miter;stroke-miterlimit:4;stroke-opacity:1;stroke-dasharray:none"
       d="m 311.99632,637.59351 c 6.30552,-2.70234 6.30552,-2.70234 6.30552,-2.70234 l 0,-42.63729 c 0,0 0,0 -6.30552,-2.70234"
       id="path5644" />
    <path
       id="path5648"
       d="m 314.6732,197.54482 32.2411,-8.63898 62.78096,36.24661 8.63898,32.2411"
       style="fill:none;stroke:#0000ff;stroke-width:0.08099999;stroke-linecap:butt;stroke-linejoin:miter;stroke-miterlimit:4;stroke-opacity:1;stroke-dasharray:none"
       inkscape:connector-curvature="0" />
    <path
       id="path5650"
       d="M 347.09512,216.26281 314.6732,197.54482"
       style="fill:none;stroke:#ff0000;stroke-width:0.08099999;stroke-linecap:butt;stroke-linejoin:miter;stroke-miterlimit:4;stroke-opacity:1;stroke-dasharray:none"
       inkscape:connector-curvature="0" />
    <path
       id="path5652"
       d="M 418.33424,257.39355 385.91232,238.67556"
       style="fill:none;stroke:#ff0000;stroke-width:0.08099999;stroke-linecap:butt;stroke-linejoin:miter;stroke-miterlimit:4;stroke-opacity:1;stroke-dasharray:none"
       inkscape:connector-curvature="0" />
    <path
       id="path5654"
       d="m 385.67319,242.29255 c 0.81246,-6.81191 0.81246,-6.81191 0.81246,-6.81191 l -36.92497,-21.31865 c 0,0 0,0 -5.49306,4.10958"
       style="fill:none;stroke:#0000ff;stroke-width:0.08099999;stroke-linecap:butt;stroke-linejoin:miter;stroke-miterlimit:4;stroke-opacity:1;stroke-dasharray:none"
       inkscape:connector-curvature="0" />
    <path
       inkscape:connector-curvature="0"
       style="fill:none;stroke:#0000ff;stroke-width:0.08099999;stroke-linecap:butt;stroke-linejoin:miter;stroke-miterlimit:4;stroke-opacity:1;stroke-dasharray:none"
       d="m 419.01928,376.58014 -32.2411,8.63898 -62.78097,-36.2466 -8.63897,-32.2411"
       id="path5658" />
    <path
       inkscape:connector-curvature="0"
       style="fill:none;stroke:#ff0000;stroke-width:0.08099999;stroke-linecap:butt;stroke-linejoin:miter;stroke-miterlimit:4;stroke-opacity:1;stroke-dasharray:none"
       d="m 386.59736,357.86215 32.42192,18.71799"
       id="path5660" />
    <path
       inkscape:connector-curvature="0"
       style="fill:none;stroke:#ff0000;stroke-width:0.08099999;stroke-linecap:butt;stroke-linejoin:miter;stroke-miterlimit:4;stroke-opacity:1;stroke-dasharray:none"
       d="m 315.35824,316.73142 32.42192,18.71798"
       id="path5662" />
    <path
       inkscape:connector-curvature="0"
       style="fill:none;stroke:#0000ff;stroke-width:0.08099999;stroke-linecap:butt;stroke-linejoin:miter;stroke-miterlimit:4;stroke-opacity:1;stroke-dasharray:none"
       d="m 348.01929,331.83241 c -0.81247,6.81191 -0.81247,6.81191 -0.81247,6.81191 l 36.92498,21.31865 c 0,0 0,0 5.49306,-4.10957"
       id="path5664" />
    <path
       id="path5668"
       d="m 109.68588,554.99797 -32.241103,8.63898 -62.780962,-36.2466 -8.6389772,-32.2411"
       style="fill:none;stroke:#0000ff;stroke-width:0.08099999;stroke-linecap:butt;stroke-linejoin:miter;stroke-miterlimit:4;stroke-opacity:1;stroke-dasharray:none"
       inkscape:connector-curvature="0" />
    <path
       id="path5670"
       d="m 77.263961,536.27998 32.421919,18.71799"
       style="fill:none;stroke:#ff0000;stroke-width:0.08099999;stroke-linecap:butt;stroke-linejoin:miter;stroke-miterlimit:4;stroke-opacity:1;stroke-dasharray:none"
       inkscape:connector-curvature="0" />
    <path
       id="path5672"
       d="M 6.0248378,495.14925 38.446755,513.86723"
       style="fill:none;stroke:#ff0000;stroke-width:0.08099999;stroke-linecap:butt;stroke-linejoin:miter;stroke-miterlimit:4;stroke-opacity:1;stroke-dasharray:none"
       inkscape:connector-curvature="0" />
    <path
       id="path5674"
       d="m 38.685888,510.25024 c -0.812464,6.81191 -0.812464,6.81191 -0.812464,6.81191 l 36.924977,21.31865 c 0,0 0,0 5.493056,-4.10957"
       style="fill:none;stroke:#0000ff;stroke-width:0.08099999;stroke-linecap:butt;stroke-linejoin:miter;stroke-miterlimit:4;stroke-opacity:1;stroke-dasharray:none"
       inkscape:connector-curvature="0" />
    <path
       inkscape:connector-curvature="0"
       style="fill:none;stroke:#0000ff;stroke-width:0.08099999;stroke-linecap:butt;stroke-linejoin:miter;stroke-miterlimit:4;stroke-opacity:1;stroke-dasharray:none"
       d="m 211.58798,495.19153 32.2411,8.63898 62.78096,-36.24661 8.63898,-32.2411"
       id="path5678" />
    <path
       inkscape:connector-curvature="0"
       style="fill:none;stroke:#ff0000;stroke-width:0.08099999;stroke-linecap:butt;stroke-linejoin:miter;stroke-miterlimit:4;stroke-opacity:1;stroke-dasharray:none"
       d="m 244.0099,476.47354 -32.42192,18.71799"
       id="path5680" />
    <path
       inkscape:connector-curvature="0"
       style="fill:none;stroke:#ff0000;stroke-width:0.08099999;stroke-linecap:butt;stroke-linejoin:miter;stroke-miterlimit:4;stroke-opacity:1;stroke-dasharray:none"
       d="M 315.24902,435.3428 282.8271,454.06079"
       id="path5682" />
    <path
       inkscape:connector-curvature="0"
       style="fill:none;stroke:#0000ff;stroke-width:0.08099999;stroke-linecap:butt;stroke-linejoin:miter;stroke-miterlimit:4;stroke-opacity:1;stroke-dasharray:none"
       d="m 282.58797,450.4438 c 0.81246,6.81191 0.81246,6.81191 0.81246,6.81191 l -36.92497,21.31865 c 0,0 0,0 -5.49306,-4.10958"
       id="path5684" />
    <path
       id="path5688"
       d="m 109.14153,317.16255 -23.602123,23.60213 0,72.49321 23.602123,23.60212"
       style="fill:none;stroke:#0000ff;stroke-width:0.08099999;stroke-linecap:butt;stroke-linejoin:miter;stroke-miterlimit:4;stroke-opacity:1;stroke-dasharray:none"
       inkscape:connector-curvature="0" />
    <path
       id="path5690"
       d="m 109.14083,354.59975 7e-4,-37.4372"
       style="fill:none;stroke:#ff0000;stroke-width:0.08099999;stroke-linecap:butt;stroke-linejoin:miter;stroke-miterlimit:4;stroke-opacity:1;stroke-dasharray:none"
       inkscape:connector-curvature="0" />
    <path
       id="path5692"
       d="m 109.14153,436.86001 7.1e-4,-37.4372"
       style="fill:none;stroke:#ff0000;stroke-width:0.08099999;stroke-linecap:butt;stroke-linejoin:miter;stroke-miterlimit:4;stroke-opacity:1;stroke-dasharray:none"
       inkscape:connector-curvature="0" />
    <path
       id="path5694"
       d="m 112.39421,401.02421 c -6.30552,-2.70234 -6.30552,-2.70234 -6.30552,-2.70234 l 0,-42.63729 c 0,0 0,0 6.30552,-2.70234"
       style="fill:none;stroke:#0000ff;stroke-width:0.08099999;stroke-linecap:butt;stroke-linejoin:miter;stroke-miterlimit:4;stroke-opacity:1;stroke-dasharray:none"
       inkscape:connector-curvature="0" />
    <path
       inkscape:connector-curvature="0"
       id="path5698"
       d="m 108.77841,591.91915 0.001,4.26164 -3.03503,0 0,-7.36155 c 0,0 -9.376252,1.44682 -13.529297,7.36155 -6.90106,9.82845 -6.901445,26.18368 0,36.01187 4.153273,5.91456 13.530697,7.37754 13.530697,7.37754 l 0,-7.36153 3.03501,0 -10e-4,4.26164"
       style="fill:none;stroke:#0000ff;stroke-width:0.08100001;stroke-linecap:butt;stroke-linejoin:miter;stroke-miterlimit:4;stroke-opacity:1;stroke-dasharray:none" />
    <path
       inkscape:connector-curvature="0"
       id="path5700"
       d="m 108.7784,591.91917 7e-4,-37.2101"
       style="fill:none;stroke:#0000ff;stroke-width:0.08100001;stroke-linecap:butt;stroke-linejoin:miter;stroke-miterlimit:4;stroke-opacity:1;stroke-dasharray:none" />
    <path
       inkscape:connector-curvature="0"
       id="path5702"
       d="m 108.7791,673.6804 7e-4,-37.21009"
       style="fill:none;stroke:#0000ff;stroke-width:0.08100001;stroke-linecap:butt;stroke-linejoin:miter;stroke-miterlimit:4;stroke-opacity:1;stroke-dasharray:none" />
    <path
       inkscape:connector-curvature="0"
       id="path5704"
       d="m 108.78023,605.22104 9.5e-4,17.94754"
       style="fill:none;stroke:#ff0000;stroke-width:0.08100001;stroke-linecap:butt;stroke-linejoin:miter;stroke-miterlimit:4;stroke-opacity:1;stroke-dasharray:none" />
    <path
       style="fill:none;stroke:#0000ff;stroke-width:0.08100001;stroke-linecap:butt;stroke-linejoin:miter;stroke-miterlimit:4;stroke-opacity:1;stroke-dasharray:none"
       d="m 244.16846,513.65935 3.68999,2.13202 1.51751,-2.62841 -6.37528,-3.68077 c 0,0 5.94111,-7.39667 13.13994,-8.03595 11.96221,-1.06226 26.12645,7.11502 31.18719,18.00594 3.04552,6.55412 -0.37621,15.4067 -0.37621,15.4067 l -6.37527,-3.68076 -1.51751,2.62839 3.69138,2.12962"
       id="path5708"
       inkscape:connector-curvature="0" />
    <path
       style="fill:none;stroke:#0000ff;stroke-width:0.08100001;stroke-linecap:butt;stroke-linejoin:miter;stroke-miterlimit:4;stroke-opacity:1;stroke-dasharray:none"
       d="M 244.16848,513.65935 211.94324,495.05491"
       id="path5710"
       inkscape:connector-curvature="0" />
    <path
       style="fill:none;stroke:#0000ff;stroke-width:0.08100001;stroke-linecap:butt;stroke-linejoin:miter;stroke-miterlimit:4;stroke-opacity:1;stroke-dasharray:none"
       d="M 314.97544,554.54057 282.7502,535.93613"
       id="path5712"
       inkscape:connector-curvature="0" />
    <path
       style="fill:none;stroke:#ff0000;stroke-width:0.08100001;stroke-linecap:butt;stroke-linejoin:miter;stroke-miterlimit:4;stroke-opacity:1;stroke-dasharray:none"
       d="m 255.68732,520.31188 15.54255,8.97458"
       id="path5714"
       inkscape:connector-curvature="0" />
    <path
       inkscape:connector-curvature="0"
       id="path5718"
       d="m 76.831825,454.26805 -3.689998,2.13202 -1.517511,-2.62841 6.375287,-3.68077 c 0,0 -5.94111,-7.39667 -13.139938,-8.03595 -11.962217,-1.06226 -26.12646,7.11502 -31.187197,18.00594 -3.045517,6.55412 0.376214,15.4067 0.376214,15.4067 l 6.375271,-3.68076 1.517503,2.62839 -3.691381,2.12962"
       style="fill:none;stroke:#0000ff;stroke-width:0.08100001;stroke-linecap:butt;stroke-linejoin:miter;stroke-miterlimit:4;stroke-opacity:1;stroke-dasharray:none" />
    <path
       inkscape:connector-curvature="0"
       id="path5720"
       d="M 76.831801,454.26805 109.05704,435.66361"
       style="fill:none;stroke:#0000ff;stroke-width:0.08100001;stroke-linecap:butt;stroke-linejoin:miter;stroke-miterlimit:4;stroke-opacity:1;stroke-dasharray:none" />
    <path
       inkscape:connector-curvature="0"
       id="path5722"
       d="M 6.0248409,495.14927 38.250075,476.54483"
       style="fill:none;stroke:#0000ff;stroke-width:0.08100001;stroke-linecap:butt;stroke-linejoin:miter;stroke-miterlimit:4;stroke-opacity:1;stroke-dasharray:none" />
    <path
       inkscape:connector-curvature="0"
       id="path5724"
       d="m 65.312957,460.92058 -15.542549,8.97458"
       style="fill:none;stroke:#ff0000;stroke-width:0.08100001;stroke-linecap:butt;stroke-linejoin:miter;stroke-miterlimit:4;stroke-opacity:1;stroke-dasharray:none" />
    <path
       inkscape:connector-curvature="0"
       id="path5728"
       d="m 347.44012,178.9238 3.68999,-2.13202 1.51751,2.62841 -6.37528,3.68077 c 0,0 5.94111,7.39667 13.13994,8.03595 11.96221,1.06226 26.12645,-7.11502 31.18719,-18.00594 3.04552,-6.55412 -0.37621,-15.4067 -0.37621,-15.4067 l -6.37527,3.68076 -1.51751,-2.62839 3.69138,-2.12962"
       style="fill:none;stroke:#0000ff;stroke-width:0.08100001;stroke-linecap:butt;stroke-linejoin:miter;stroke-miterlimit:4;stroke-opacity:1;stroke-dasharray:none" />
    <path
       inkscape:connector-curvature="0"
       id="path5730"
       d="M 347.44014,178.9238 315.2149,197.52824"
       style="fill:none;stroke:#0000ff;stroke-width:0.08100001;stroke-linecap:butt;stroke-linejoin:miter;stroke-miterlimit:4;stroke-opacity:1;stroke-dasharray:none" />
    <path
       inkscape:connector-curvature="0"
       id="path5732"
       d="m 418.2471,138.04258 -32.22524,18.60444"
       style="fill:none;stroke:#0000ff;stroke-width:0.08100001;stroke-linecap:butt;stroke-linejoin:miter;stroke-miterlimit:4;stroke-opacity:1;stroke-dasharray:none" />
    <path
       inkscape:connector-curvature="0"
       id="path5734"
       d="m 358.95898,172.27127 15.54255,-8.97458"
       style="fill:none;stroke:#ff0000;stroke-width:0.08100001;stroke-linecap:butt;stroke-linejoin:miter;stroke-miterlimit:4;stroke-opacity:1;stroke-dasharray:none" />
    <path
       style="fill:none;stroke:#0000ff;stroke-width:0.08100001;stroke-linecap:butt;stroke-linejoin:miter;stroke-miterlimit:4;stroke-opacity:1;stroke-dasharray:none"
       d="m 283.02379,654.82487 -3.69,-2.13202 -1.51751,2.62841 6.37528,3.68077 c 0,0 -5.9411,7.39667 -13.13993,8.03595 -11.96222,1.06226 -26.12646,-7.11502 -31.1872,-18.00594 -3.04552,-6.55412 0.37621,-15.4067 0.37621,-15.4067 l 6.37528,3.68076 1.5175,-2.62839 -3.69138,-2.12962"
       id="path5738"
       inkscape:connector-curvature="0" />
    <path
       style="fill:none;stroke:#0000ff;stroke-width:0.08100001;stroke-linecap:butt;stroke-linejoin:miter;stroke-miterlimit:4;stroke-opacity:1;stroke-dasharray:none"
       d="M 283.02376,654.82487 315.249,673.42931"
       id="path5740"
       inkscape:connector-curvature="0" />
    <path
       style="fill:none;stroke:#0000ff;stroke-width:0.08100001;stroke-linecap:butt;stroke-linejoin:miter;stroke-miterlimit:4;stroke-opacity:1;stroke-dasharray:none"
       d="m 212.2168,613.94365 32.22524,18.60444"
       id="path5742"
       inkscape:connector-curvature="0" />
    <path
       style="fill:none;stroke:#ff0000;stroke-width:0.08100001;stroke-linecap:butt;stroke-linejoin:miter;stroke-miterlimit:4;stroke-opacity:1;stroke-dasharray:none"
       d="m 271.50492,648.17234 -15.54255,-8.97458"
       id="path5744"
       inkscape:connector-curvature="0" />
    <path
       inkscape:connector-curvature="0"
       id="path5756"
       d="m 418.33493,294.60365 -10e-4,4.26164 3.03503,0 0,-7.36155 c 0,0 9.37625,1.44682 13.5293,7.36155 6.90106,9.82845 6.90144,26.18368 0,36.01187 -4.15328,5.91456 -13.5307,7.37754 -13.5307,7.37754 l 0,-7.36153 -3.03501,0 10e-4,4.26164"
       style="fill:none;stroke:#0000ff;stroke-width:0.08100001;stroke-linecap:butt;stroke-linejoin:miter;stroke-miterlimit:4;stroke-opacity:1;stroke-dasharray:none" />
    <path
       inkscape:connector-curvature="0"
       id="path5758"
       d="m 418.33494,294.60367 -7e-4,-37.2101"
       style="fill:none;stroke:#0000ff;stroke-width:0.08100001;stroke-linecap:butt;stroke-linejoin:miter;stroke-miterlimit:4;stroke-opacity:1;stroke-dasharray:none" />
    <path
       inkscape:connector-curvature="0"
       id="path5760"
       d="m 418.33424,376.3649 -7e-4,-37.21009"
       style="fill:none;stroke:#0000ff;stroke-width:0.08100001;stroke-linecap:butt;stroke-linejoin:miter;stroke-miterlimit:4;stroke-opacity:1;stroke-dasharray:none" />
    <path
       inkscape:connector-curvature="0"
       id="path5762"
       d="m 418.33311,307.90554 -9.5e-4,17.94754"
       style="fill:none;stroke:#ff0000;stroke-width:0.08100001;stroke-linecap:butt;stroke-linejoin:miter;stroke-miterlimit:4;stroke-opacity:1;stroke-dasharray:none" />
    <path
       inkscape:connector-curvature="0"
       id="path5784"
       d="m 315.24971,353.58155 -10e-4,4.26164 3.03503,0 0,-7.36155 c 0,0 9.37625,1.44682 13.5293,7.36155 6.90106,9.82845 6.90144,26.18368 0,36.01187 -4.15328,5.91456 -13.5307,7.37754 -13.5307,7.37754 l 0,-7.36153 -3.03501,0 0.001,4.26164"
       style="fill:none;stroke:#0000ff;stroke-width:0.08100001;stroke-linecap:butt;stroke-linejoin:miter;stroke-miterlimit:4;stroke-opacity:1;stroke-dasharray:none" />
    <path
       inkscape:connector-curvature="0"
       id="path5786"
       d="m 315.24972,353.58157 -7e-4,-37.2101"
       style="fill:none;stroke:#0000ff;stroke-width:0.08100001;stroke-linecap:butt;stroke-linejoin:miter;stroke-miterlimit:4;stroke-opacity:1;stroke-dasharray:none" />
    <path
       inkscape:connector-curvature="0"
       id="path5788"
       d="m 315.24902,435.3428 -7e-4,-37.21009"
       style="fill:none;stroke:#0000ff;stroke-width:0.08100001;stroke-linecap:butt;stroke-linejoin:miter;stroke-miterlimit:4;stroke-opacity:1;stroke-dasharray:none" />
    <path
       inkscape:connector-curvature="0"
       id="path5790"
       d="m 315.24789,366.88344 -9.5e-4,17.94754"
       style="fill:none;stroke:#ff0000;stroke-width:0.08100001;stroke-linecap:butt;stroke-linejoin:miter;stroke-miterlimit:4;stroke-opacity:1;stroke-dasharray:none" />
    <path
       id="path5798"
       d="m 108.58356,673.9926 32.2411,8.63898 62.78096,-36.24661 8.63898,-32.2411"
       style="fill:none;stroke:#0000ff;stroke-width:0.08099999;stroke-linecap:butt;stroke-linejoin:miter;stroke-miterlimit:4;stroke-opacity:1;stroke-dasharray:none"
       inkscape:connector-curvature="0" />
    <path
       id="path5800"
       d="M 141.00548,655.27461 108.58356,673.9926"
       style="fill:none;stroke:#ff0000;stroke-width:0.08099999;stroke-linecap:butt;stroke-linejoin:miter;stroke-miterlimit:4;stroke-opacity:1;stroke-dasharray:none"
       inkscape:connector-curvature="0" />
    <path
       id="path5802"
       d="m 212.2446,614.14387 -32.42192,18.71799"
       style="fill:none;stroke:#ff0000;stroke-width:0.08099999;stroke-linecap:butt;stroke-linejoin:miter;stroke-miterlimit:4;stroke-opacity:1;stroke-dasharray:none"
       inkscape:connector-curvature="0" />
    <path
       id="path5804"
       d="m 179.58355,629.24487 c 0.81246,6.81191 0.81246,6.81191 0.81246,6.81191 l -36.92497,21.31865 c 0,0 0,0 -5.49306,-4.10958"
       style="fill:none;stroke:#0000ff;stroke-width:0.08099999;stroke-linecap:butt;stroke-linejoin:miter;stroke-miterlimit:4;stroke-opacity:1;stroke-dasharray:none"
       inkscape:connector-curvature="0" />
    <path
       inkscape:connector-curvature="0"
       style="fill:none;stroke:#0000ff;stroke-width:0.08099999;stroke-linecap:butt;stroke-linejoin:miter;stroke-miterlimit:4;stroke-opacity:1;stroke-dasharray:none"
       d="m 212.12394,257.13115 -23.60212,23.60213 0,72.49321 23.60212,23.60212"
       id="path5816" />
    <path
       inkscape:connector-curvature="0"
       style="fill:none;stroke:#ff0000;stroke-width:0.08099999;stroke-linecap:butt;stroke-linejoin:miter;stroke-miterlimit:4;stroke-opacity:1;stroke-dasharray:none"
       d="m 212.12324,294.56835 7e-4,-37.4372"
       id="path5818" />
    <path
       inkscape:connector-curvature="0"
       style="fill:none;stroke:#ff0000;stroke-width:0.08099999;stroke-linecap:butt;stroke-linejoin:miter;stroke-miterlimit:4;stroke-opacity:1;stroke-dasharray:none"
       d="m 212.12394,376.82861 7.1e-4,-37.4372"
       id="path5820" />
    <path
       inkscape:connector-curvature="0"
       style="fill:none;stroke:#0000ff;stroke-width:0.08099999;stroke-linecap:butt;stroke-linejoin:miter;stroke-miterlimit:4;stroke-opacity:1;stroke-dasharray:none"
       d="m 215.37662,340.99281 c -6.30552,-2.70234 -6.30552,-2.70234 -6.30552,-2.70234 l 0,-42.63729 c 0,0 0,0 6.30552,-2.70234"
       id="path5822" />
    <path
       inkscape:connector-curvature="0"
       id="path5826"
       d="m 141.36675,335.76695 3.68999,2.13202 1.51751,-2.62841 -6.37528,-3.68077 c 0,0 5.94111,-7.39667 13.13994,-8.03595 11.96221,-1.06226 26.12645,7.11502 31.18719,18.00594 3.04552,6.55412 -0.37621,15.4067 -0.37621,15.4067 l -6.37527,-3.68076 -1.51751,2.62839 3.69138,2.12962"
       style="fill:none;stroke:#0000ff;stroke-width:0.08100001;stroke-linecap:butt;stroke-linejoin:miter;stroke-miterlimit:4;stroke-opacity:1;stroke-dasharray:none" />
    <path
       inkscape:connector-curvature="0"
       id="path5828"
       d="M 141.36677,335.76695 109.14153,317.16251"
       style="fill:none;stroke:#0000ff;stroke-width:0.08100001;stroke-linecap:butt;stroke-linejoin:miter;stroke-miterlimit:4;stroke-opacity:1;stroke-dasharray:none" />
    <path
       inkscape:connector-curvature="0"
       id="path5830"
       d="M 212.17373,376.64817 179.94849,358.04373"
       style="fill:none;stroke:#0000ff;stroke-width:0.08100001;stroke-linecap:butt;stroke-linejoin:miter;stroke-miterlimit:4;stroke-opacity:1;stroke-dasharray:none" />
    <path
       inkscape:connector-curvature="0"
       id="path5832"
       d="m 152.88561,342.41948 15.54255,8.97458"
       style="fill:none;stroke:#ff0000;stroke-width:0.08100001;stroke-linecap:butt;stroke-linejoin:miter;stroke-miterlimit:4;stroke-opacity:1;stroke-dasharray:none" />
    <path
       inkscape:connector-curvature="0"
       style="fill:none;stroke:#0000ff;stroke-width:0.08099999;stroke-linecap:butt;stroke-linejoin:miter;stroke-miterlimit:4;stroke-opacity:1;stroke-dasharray:none"
       d="m 212.26676,138.01644 -32.2411,-8.63898 -62.78096,36.2466 -8.63898,32.2411"
       id="path5836" />
    <path
       inkscape:connector-curvature="0"
       style="fill:none;stroke:#ff0000;stroke-width:0.08099999;stroke-linecap:butt;stroke-linejoin:miter;stroke-miterlimit:4;stroke-opacity:1;stroke-dasharray:none"
       d="m 179.84484,156.73443 32.42192,-18.71799"
       id="path5838" />
    <path
       inkscape:connector-curvature="0"
       style="fill:none;stroke:#ff0000;stroke-width:0.08099999;stroke-linecap:butt;stroke-linejoin:miter;stroke-miterlimit:4;stroke-opacity:1;stroke-dasharray:none"
       d="m 108.60572,197.86516 32.42192,-18.71798"
       id="path5840" />
    <path
       inkscape:connector-curvature="0"
       style="fill:none;stroke:#0000ff;stroke-width:0.08099999;stroke-linecap:butt;stroke-linejoin:miter;stroke-miterlimit:4;stroke-opacity:1;stroke-dasharray:none"
       d="m 141.26677,182.76417 c -0.81246,-6.81191 -0.81246,-6.81191 -0.81246,-6.81191 l 36.92497,-21.31865 c 0,0 0,0 5.49306,4.10957"
       id="path5842" />
    <path
       style="fill:none;stroke:#0000ff;stroke-width:0.08100001;stroke-linecap:butt;stroke-linejoin:miter;stroke-miterlimit:4;stroke-opacity:1;stroke-dasharray:none"
       d="m 179.4127,238.74639 -3.68999,-2.13202 -1.51751,2.62841 6.37528,3.68077 c 0,0 -5.94111,7.39667 -13.13994,8.03595 -11.96221,1.06226 -26.12645,-7.11502 -31.18719,-18.00594 -3.04552,-6.55412 0.37621,-15.4067 0.37621,-15.4067 l 6.37527,3.68076 1.51751,-2.62839 -3.69138,-2.12962"
       id="path5852"
       inkscape:connector-curvature="0" />
    <path
       style="fill:none;stroke:#0000ff;stroke-width:0.08100001;stroke-linecap:butt;stroke-linejoin:miter;stroke-miterlimit:4;stroke-opacity:1;stroke-dasharray:none"
       d="m 179.41268,238.74639 32.22524,18.60444"
       id="path5854"
       inkscape:connector-curvature="0" />
    <path
       style="fill:none;stroke:#0000ff;stroke-width:0.08100001;stroke-linecap:butt;stroke-linejoin:miter;stroke-miterlimit:4;stroke-opacity:1;stroke-dasharray:none"
       d="m 108.60572,197.86517 32.22524,18.60444"
       id="path5856"
       inkscape:connector-curvature="0" />
    <path
       style="fill:none;stroke:#ff0000;stroke-width:0.08100001;stroke-linecap:butt;stroke-linejoin:miter;stroke-miterlimit:4;stroke-opacity:1;stroke-dasharray:none"
       d="m 167.89384,232.09386 -15.54255,-8.97458"
       id="path5858"
       inkscape:connector-curvature="0" />
    <path
       inkscape:connector-curvature="0"
       style="fill:none;stroke:#0000ff;stroke-width:0.08099999;stroke-linecap:butt;stroke-linejoin:miter;stroke-miterlimit:4;stroke-opacity:1;stroke-dasharray:none"
       d="m 211.51328,18.656218 32.2411,-8.638977 62.78096,36.246607 8.63898,32.241101"
       id="path5862" />
    <path
       inkscape:connector-curvature="0"
       style="fill:none;stroke:#ff0000;stroke-width:0.08099999;stroke-linecap:butt;stroke-linejoin:miter;stroke-miterlimit:4;stroke-opacity:1;stroke-dasharray:none"
       d="M 243.9352,37.374208 211.51328,18.656218"
       id="path5864" />
    <path
       inkscape:connector-curvature="0"
       style="fill:none;stroke:#ff0000;stroke-width:0.08099999;stroke-linecap:butt;stroke-linejoin:miter;stroke-miterlimit:4;stroke-opacity:1;stroke-dasharray:none"
       d="M 315.17432,78.504949 282.7524,59.786959"
       id="path5866" />
    <path
       inkscape:connector-curvature="0"
       style="fill:none;stroke:#0000ff;stroke-width:0.08099999;stroke-linecap:butt;stroke-linejoin:miter;stroke-miterlimit:4;stroke-opacity:1;stroke-dasharray:none"
       d="m 282.51327,63.403952 c 0.81246,-6.811911 0.81246,-6.811911 0.81246,-6.811911 L 246.40076,35.273395 c 0,0 0,0 -5.49306,4.10957"
       id="path5868" />
    <path
       style="fill:none;stroke:#0000ff;stroke-width:0.08100001;stroke-linecap:butt;stroke-linejoin:miter;stroke-miterlimit:4;stroke-opacity:1;stroke-dasharray:none"
       d="m 386.85768,36.788253 -3.69,2.132018 -1.51751,-2.628407 6.37528,-3.680773 c 0,0 -5.9411,-7.396668 -13.13993,-8.035946 -11.96222,-1.062268 -26.12646,7.115016 -31.1872,18.005936 -3.04552,6.554117 0.37621,15.406702 0.37621,15.406702 l 6.37528,-3.680764 1.5175,2.628391 -3.69138,2.129623"
       id="path5876"
       inkscape:connector-curvature="0" />
    <path
       style="fill:none;stroke:#0000ff;stroke-width:0.08100001;stroke-linecap:butt;stroke-linejoin:miter;stroke-miterlimit:4;stroke-opacity:1;stroke-dasharray:none"
       d="m 386.85765,36.788247 32.22524,-18.60444"
       id="path5878"
       inkscape:connector-curvature="0" />
    <path
       style="fill:none;stroke:#0000ff;stroke-width:0.08100001;stroke-linecap:butt;stroke-linejoin:miter;stroke-miterlimit:4;stroke-opacity:1;stroke-dasharray:none"
       d="M 316.05069,77.669472 348.27593,59.065033"
       id="path5880"
       inkscape:connector-curvature="0" />
    <path
       style="fill:none;stroke:#ff0000;stroke-width:0.08100001;stroke-linecap:butt;stroke-linejoin:miter;stroke-miterlimit:4;stroke-opacity:1;stroke-dasharray:none"
       d="m 375.33881,43.440776 -15.54255,8.974586"
       id="path5882"
       inkscape:connector-curvature="0" />
  </g>
</svg>
