999
DXF created by Inkscape
  0
SECTION
  2
HEADER
  9
$ACADVER
  1
AC1014
  9
$HANDSEED
  5
FFFF
  9
$MEASUREMENT
 70
     1
  0
ENDSEC
  0
SECTION
  2
TABLES
  0
TABLE
  2
VPORT
  5
8
330
0
100
AcDbSymbolTable
 70
     4
  0
VPORT
  5
2E
330
8
100
AcDbSymbolTableRecord
100
AcDbViewportTableRecord
  2
*ACTIVE
 70
     0
 10
0.0
 20
0.0
 11
1.0
 21
1.0
 12
210.0
 22
148.5
 13
0.0
 23
0.0
 14
10.0
 24
10.0
 15
10.0
 25
10.0
 16
0.0
 26
0.0
 36
1.0
 17
0.0
 27
0.0
 37
0.0
 40
341.0
 41
1.24
 42
50.0
 43
0.0
 44
0.0
 50
0.0
 51
0.0
 71
     0
 72
   100
 73
     1
 74
     3
 75
     0
 76
     0
 77
     0
 78
     0
  0
ENDTAB
  0
TABLE
  2
LTYPE
  5
5
330
0
100
AcDbSymbolTable
 70
     1
  0
LTYPE
  5
14
330
5
100
AcDbSymbolTableRecord
100
AcDbLinetypeTableRecord
  2
BYBLOCK
 70
     0
  3

 72
    65
 73
     0
 40
0.0
  0
LTYPE
  5
15
330
5
100
AcDbSymbolTableRecord
100
AcDbLinetypeTableRecord
  2
BYLAYER
 70
     0
  3

 72
    65
 73
     0
 40
0.0
  0
LTYPE
  5
16
330
5
100
AcDbSymbolTableRecord
100
AcDbLinetypeTableRecord
  2
CONTINUOUS
 70
     0
  3
Solid line
 72
    65
 73
     0
 40
0.0
  0
ENDTAB
  0
TABLE
  2
LAYER
  5
2
330
0
100
AcDbSymbolTable
 70
1
  0
LAYER
  5
10
330
2
100
AcDbSymbolTableRecord
100
AcDbLayerTableRecord
  2
0
 70
     0
 62
     7
  6
CONTINUOUS
  0
ENDTAB
  0
TABLE
  2
STYLE
  5
3
330
0
100
AcDbSymbolTable
 70
     1
  0
STYLE
  5
11
330
3
100
AcDbSymbolTableRecord
100
AcDbTextStyleTableRecord
  2
STANDARD
 70
     0
 40
0.0
 41
1.0
 50
0.0
 71
     0
 42
2.5
  3
txt
  4

  0
ENDTAB
  0
TABLE
  2
VIEW
  5
6
330
0
100
AcDbSymbolTable
 70
     0
  0
ENDTAB
  0
TABLE
  2
UCS
  5
7
330
0
100
AcDbSymbolTable
 70
     0
  0
ENDTAB
  0
TABLE
  2
APPID
  5
9
330
0
100
AcDbSymbolTable
 70
     2
  0
APPID
  5
12
330
9
100
AcDbSymbolTableRecord
100
AcDbRegAppTableRecord
  2
ACAD
 70
     0
  0
ENDTAB
  0
TABLE
  2
DIMSTYLE
  5
A
330
0
100
AcDbSymbolTable
 70
     1
  0
DIMSTYLE
105
27
330
A
100
AcDbSymbolTableRecord
100
AcDbDimStyleTableRecord
  2
ISO-25
 70
     0
  3

  4

  5

  6

  7

 40
1.0
 41
2.5
 42
0.625
 43
3.75
 44
1.25
 45
0.0
 46
0.0
 47
0.0
 48
0.0
140
2.5
141
2.5
142
0.0
143
0.03937007874016
144
1.0
145
0.0
146
1.0
147
0.625
 71
     0
 72
     0
 73
     0
 74
     0
 75
     0
 76
     0
 77
     1
 78
     8
170
     0
171
     3
172
     1
173
     0
174
     0
175
     0
176
     0
177
     0
178
     0
270
     2
271
     2
272
     2
273
     2
274
     3
340
11
275
     0
280
     0
281
     0
282
     0
283
     0
284
     8
285
     0
286
     0
287
     3
288
     0
  0
ENDTAB
  0
TABLE
  2
BLOCK_RECORD
  5
1
330
0
100
AcDbSymbolTable
 70
     1
  0
BLOCK_RECORD
  5
1F
330
1
100
AcDbSymbolTableRecord
100
AcDbBlockTableRecord
  2
*MODEL_SPACE
  0
BLOCK_RECORD
  5
1B
330
1
100
AcDbSymbolTableRecord
100
AcDbBlockTableRecord
  2
*PAPER_SPACE
  0
ENDTAB
  0
ENDSEC
  0
SECTION
  2
BLOCKS
  0
BLOCK
  5
20
330
1F
100
AcDbEntity
  8
0
100
AcDbBlockBegin
  2
*MODEL_SPACE
 70
     0
 10
0.0
 20
0.0
 30
0.0
  3
*MODEL_SPACE
  1

  0
ENDBLK
  5
21
330
1F
100
AcDbEntity
  8
0
100
AcDbBlockEnd
  0
BLOCK
  5
1C
330
1B
100
AcDbEntity
 67
     1
  8
0
100
AcDbBlockBegin
  2
*PAPER_SPACE
  1

  0
ENDBLK
  5
1D
330
1B
100
AcDbEntity
 67
     1
  8
0
100
AcDbBlockEnd
  0
ENDSEC
  0
SECTION
  2
ENTITIES
  0
LINE
  5
100
100
AcDbEntity
  8
0
 62
7
100
AcDbLine
 10
0.000000
 20
203.200000
 30
0.0
 11
67.733333
 21
203.200000
 31
0.0
  0
LINE
  5
101
100
AcDbEntity
  8
0
 62
7
100
AcDbLine
 10
67.733333
 20
203.200000
 30
0.0
 11
67.733333
 21
147.037778
 31
0.0
  0
LINE
  5
102
100
AcDbEntity
  8
0
 62
7
100
AcDbLine
 10
67.733333
 20
147.037778
 30
0.0
 11
0.000000
 21
147.037778
 31
0.0
  0
LINE
  5
103
100
AcDbEntity
  8
0
 62
7
100
AcDbLine
 10
0.000000
 20
147.037778
 30
0.0
 11
0.000000
 21
203.200000
 31
0.0
  0
LINE
  5
104
100
AcDbEntity
  8
0
 62
7
100
AcDbLine
 10
0.000000
 20
203.200000
 30
0.0
 11
0.000000
 21
203.200000
 31
0.0
  0
LINE
  5
105
100
AcDbEntity
  8
0
 62
1
100
AcDbLine
 10
1.354667
 20
184.476531
 30
0.0
 11
1.354667
 21
176.670547
 31
0.0
  0
LINE
  5
106
100
AcDbEntity
  8
0
 62
1
100
AcDbLine
 10
1.354667
 20
184.476531
 30
0.0
 11
8.114736
 21
188.379382
 31
0.0
  0
LINE
  5
107
100
AcDbEntity
  8
0
 62
1
100
AcDbLine
 10
1.354667
 20
184.476531
 30
0.0
 11
8.114736
 21
180.573398
 31
0.0
  0
LINE
  5
108
100
AcDbEntity
  8
0
 62
1
100
AcDbLine
 10
1.354667
 20
176.670547
 30
0.0
 11
8.114736
 21
180.573398
 31
0.0
  0
LINE
  5
109
100
AcDbEntity
  8
0
 62
1
100
AcDbLine
 10
8.114736
 20
188.379382
 30
0.0
 11
8.114736
 21
180.573398
 31
0.0
  0
LINE
  5
10a
100
AcDbEntity
  8
0
 62
1
100
AcDbLine
 10
8.114736
 20
188.379382
 30
0.0
 11
12.017587
 21
195.139451
 31
0.0
  0
LINE
  5
10b
100
AcDbEntity
  8
0
 62
1
100
AcDbLine
 10
8.114736
 20
188.379382
 30
0.0
 11
15.920720
 21
188.379382
 31
0.0
  0
LINE
  5
10c
100
AcDbEntity
  8
0
 62
1
100
AcDbLine
 10
8.114736
 20
180.573398
 30
0.0
 11
12.017587
 21
173.813329
 31
0.0
  0
LINE
  5
10d
100
AcDbEntity
  8
0
 62
1
100
AcDbLine
 10
8.114736
 20
180.573398
 30
0.0
 11
15.920720
 21
180.573398
 31
0.0
  0
LINE
  5
10e
100
AcDbEntity
  8
0
 62
1
100
AcDbLine
 10
12.017587
 20
195.139451
 30
0.0
 11
15.920720
 21
188.379382
 31
0.0
  0
LINE
  5
10f
100
AcDbEntity
  8
0
 62
1
100
AcDbLine
 10
12.017587
 20
173.813329
 30
0.0
 11
15.920720
 21
180.573398
 31
0.0
  0
LINE
  5
110
100
AcDbEntity
  8
0
 62
1
100
AcDbLine
 10
15.920720
 20
188.379382
 30
0.0
 11
15.920720
 21
180.573398
 31
0.0
  0
LINE
  5
111
100
AcDbEntity
  8
0
 62
1
100
AcDbLine
 10
15.920720
 20
188.379382
 30
0.0
 11
22.680789
 21
192.282233
 31
0.0
  0
LINE
  5
112
100
AcDbEntity
  8
0
 62
1
100
AcDbLine
 10
15.920720
 20
188.379382
 30
0.0
 11
22.680789
 21
184.476531
 31
0.0
  0
LINE
  5
113
100
AcDbEntity
  8
0
 62
1
100
AcDbLine
 10
15.920720
 20
180.573398
 30
0.0
 11
15.920720
 21
172.767696
 31
0.0
  0
LINE
  5
114
100
AcDbEntity
  8
0
 62
1
100
AcDbLine
 10
15.920720
 20
180.573398
 30
0.0
 11
22.680789
 21
184.476531
 31
0.0
  0
LINE
  5
115
100
AcDbEntity
  8
0
 62
1
100
AcDbLine
 10
15.920720
 20
180.573398
 30
0.0
 11
22.680789
 21
176.670547
 31
0.0
  0
LINE
  5
116
100
AcDbEntity
  8
0
 62
1
100
AcDbLine
 10
15.920720
 20
172.767696
 30
0.0
 11
22.680789
 21
176.670547
 31
0.0
  0
LINE
  5
117
100
AcDbEntity
  8
0
 62
1
100
AcDbLine
 10
22.680789
 20
192.282233
 30
0.0
 11
22.680789
 21
176.670547
 31
0.0
  0
LINE
  5
118
100
AcDbEntity
  8
0
 62
1
100
AcDbLine
 10
22.680789
 20
184.476531
 30
0.0
 11
26.583640
 21
191.236600
 31
0.0
  0
LINE
  5
119
100
AcDbEntity
  8
0
 62
1
100
AcDbLine
 10
22.680789
 20
184.476531
 30
0.0
 11
30.486491
 21
184.476531
 31
0.0
  0
LINE
  5
11a
100
AcDbEntity
  8
0
 62
1
100
AcDbLine
 10
22.680789
 20
176.670547
 30
0.0
 11
26.583640
 21
169.910478
 31
0.0
  0
LINE
  5
11b
100
AcDbEntity
  8
0
 62
1
100
AcDbLine
 10
22.680789
 20
176.670547
 30
0.0
 11
30.486491
 21
176.670547
 31
0.0
  0
LINE
  5
11c
100
AcDbEntity
  8
0
 62
1
100
AcDbLine
 10
26.583640
 20
191.236600
 30
0.0
 11
30.486491
 21
184.476531
 31
0.0
  0
LINE
  5
11d
100
AcDbEntity
  8
0
 62
1
100
AcDbLine
 10
26.583640
 20
169.910478
 30
0.0
 11
30.486491
 21
176.670547
 31
0.0
  0
LINE
  5
11e
100
AcDbEntity
  8
0
 62
1
100
AcDbLine
 10
26.583640
 20
162.104493
 30
0.0
 11
33.343709
 21
166.007627
 31
0.0
  0
LINE
  5
11f
100
AcDbEntity
  8
0
 62
1
100
AcDbLine
 10
26.583640
 20
162.104493
 30
0.0
 11
33.343709
 21
158.201642
 31
0.0
  0
LINE
  5
120
100
AcDbEntity
  8
0
 62
1
100
AcDbLine
 10
30.486491
 20
184.476531
 30
0.0
 11
30.486491
 21
176.670547
 31
0.0
  0
LINE
  5
121
100
AcDbEntity
  8
0
 62
1
100
AcDbLine
 10
30.486491
 20
184.476531
 30
0.0
 11
37.246842
 21
188.379382
 31
0.0
  0
LINE
  5
122
100
AcDbEntity
  8
0
 62
1
100
AcDbLine
 10
30.486491
 20
184.476531
 30
0.0
 11
37.246842
 21
180.573398
 31
0.0
  0
LINE
  5
123
100
AcDbEntity
  8
0
 62
1
100
AcDbLine
 10
30.486491
 20
176.670547
 30
0.0
 11
30.486491
 21
168.864562
 31
0.0
  0
LINE
  5
124
100
AcDbEntity
  8
0
 62
1
100
AcDbLine
 10
30.486491
 20
176.670547
 30
0.0
 11
37.246842
 21
180.573398
 31
0.0
  0
LINE
  5
125
100
AcDbEntity
  8
0
 62
1
100
AcDbLine
 10
30.486491
 20
176.670547
 30
0.0
 11
37.246842
 21
172.767696
 31
0.0
  0
LINE
  5
126
100
AcDbEntity
  8
0
 62
1
100
AcDbLine
 10
30.486491
 20
168.864562
 30
0.0
 11
37.246842
 21
172.767696
 31
0.0
  0
LINE
  5
127
100
AcDbEntity
  8
0
 62
1
100
AcDbLine
 10
33.343709
 20
166.007627
 30
0.0
 11
33.343709
 21
158.201642
 31
0.0
  0
LINE
  5
128
100
AcDbEntity
  8
0
 62
1
100
AcDbLine
 10
33.343709
 20
166.007627
 30
0.0
 11
37.246842
 21
172.767696
 31
0.0
  0
LINE
  5
129
100
AcDbEntity
  8
0
 62
1
100
AcDbLine
 10
33.343709
 20
166.007627
 30
0.0
 11
41.149693
 21
166.007627
 31
0.0
  0
LINE
  5
12a
100
AcDbEntity
  8
0
 62
1
100
AcDbLine
 10
33.343709
 20
158.201642
 30
0.0
 11
37.246842
 21
151.441573
 31
0.0
  0
LINE
  5
12b
100
AcDbEntity
  8
0
 62
1
100
AcDbLine
 10
33.343709
 20
158.201642
 30
0.0
 11
41.149693
 21
158.201642
 31
0.0
  0
LINE
  5
12c
100
AcDbEntity
  8
0
 62
1
100
AcDbLine
 10
34.389624
 20
191.236600
 30
0.0
 11
41.149693
 21
195.139451
 31
0.0
  0
LINE
  5
12d
100
AcDbEntity
  8
0
 62
1
100
AcDbLine
 10
34.389624
 20
191.236600
 30
0.0
 11
41.149693
 21
187.333749
 31
0.0
  0
LINE
  5
12e
100
AcDbEntity
  8
0
 62
1
100
AcDbLine
 10
37.246842
 20
188.379382
 30
0.0
 11
37.246842
 21
172.767696
 31
0.0
  0
LINE
  5
12f
100
AcDbEntity
  8
0
 62
1
100
AcDbLine
 10
37.246842
 20
180.573398
 30
0.0
 11
41.149693
 21
187.333749
 31
0.0
  0
LINE
  5
130
100
AcDbEntity
  8
0
 62
1
100
AcDbLine
 10
37.246842
 20
180.573398
 30
0.0
 11
45.052544
 21
180.573398
 31
0.0
  0
LINE
  5
131
100
AcDbEntity
  8
0
 62
1
100
AcDbLine
 10
37.246842
 20
172.767696
 30
0.0
 11
41.149693
 21
166.007627
 31
0.0
  0
LINE
  5
132
100
AcDbEntity
  8
0
 62
1
100
AcDbLine
 10
37.246842
 20
172.767696
 30
0.0
 11
45.052544
 21
172.767696
 31
0.0
  0
LINE
  5
133
100
AcDbEntity
  8
0
 62
1
100
AcDbLine
 10
37.246842
 20
151.441573
 30
0.0
 11
41.149693
 21
158.201642
 31
0.0
  0
LINE
  5
134
100
AcDbEntity
  8
0
 62
1
100
AcDbLine
 10
41.149693
 20
195.139451
 30
0.0
 11
41.149693
 21
187.333749
 31
0.0
  0
LINE
  5
135
100
AcDbEntity
  8
0
 62
1
100
AcDbLine
 10
41.149693
 20
195.139451
 30
0.0
 11
45.052544
 21
201.899520
 31
0.0
  0
LINE
  5
136
100
AcDbEntity
  8
0
 62
1
100
AcDbLine
 10
41.149693
 20
195.139451
 30
0.0
 11
48.955678
 21
195.139451
 31
0.0
  0
LINE
  5
137
100
AcDbEntity
  8
0
 62
1
100
AcDbLine
 10
41.149693
 20
187.333749
 30
0.0
 11
45.052544
 21
180.573398
 31
0.0
  0
LINE
  5
138
100
AcDbEntity
  8
0
 62
1
100
AcDbLine
 10
41.149693
 20
187.333749
 30
0.0
 11
48.955678
 21
187.333749
 31
0.0
  0
LINE
  5
139
100
AcDbEntity
  8
0
 62
1
100
AcDbLine
 10
41.149693
 20
166.007627
 30
0.0
 11
41.149693
 21
158.201642
 31
0.0
  0
LINE
  5
13a
100
AcDbEntity
  8
0
 62
1
100
AcDbLine
 10
41.149693
 20
166.007627
 30
0.0
 11
45.052544
 21
172.767696
 31
0.0
  0
LINE
  5
13b
100
AcDbEntity
  8
0
 62
1
100
AcDbLine
 10
41.149693
 20
166.007627
 30
0.0
 11
47.909762
 21
162.104493
 31
0.0
  0
LINE
  5
13c
100
AcDbEntity
  8
0
 62
1
100
AcDbLine
 10
41.149693
 20
158.201642
 30
0.0
 11
47.909762
 21
162.104493
 31
0.0
  0
LINE
  5
13d
100
AcDbEntity
  8
0
 62
1
100
AcDbLine
 10
45.052544
 20
201.899520
 30
0.0
 11
48.955678
 21
195.139451
 31
0.0
  0
LINE
  5
13e
100
AcDbEntity
  8
0
 62
1
100
AcDbLine
 10
45.052544
 20
180.573398
 30
0.0
 11
45.052544
 21
172.767696
 31
0.0
  0
LINE
  5
13f
100
AcDbEntity
  8
0
 62
1
100
AcDbLine
 10
45.052544
 20
180.573398
 30
0.0
 11
48.955678
 21
187.333749
 31
0.0
  0
LINE
  5
140
100
AcDbEntity
  8
0
 62
1
100
AcDbLine
 10
45.052544
 20
180.573398
 30
0.0
 11
51.812613
 21
184.476531
 31
0.0
  0
LINE
  5
141
100
AcDbEntity
  8
0
 62
1
100
AcDbLine
 10
45.052544
 20
180.573398
 30
0.0
 11
51.812613
 21
176.670547
 31
0.0
  0
LINE
  5
142
100
AcDbEntity
  8
0
 62
1
100
AcDbLine
 10
45.052544
 20
172.767696
 30
0.0
 11
45.052544
 21
164.961711
 31
0.0
  0
LINE
  5
143
100
AcDbEntity
  8
0
 62
1
100
AcDbLine
 10
45.052544
 20
172.767696
 30
0.0
 11
51.812613
 21
176.670547
 31
0.0
  0
LINE
  5
144
100
AcDbEntity
  8
0
 62
1
100
AcDbLine
 10
45.052544
 20
172.767696
 30
0.0
 11
51.812613
 21
168.864562
 31
0.0
  0
LINE
  5
145
100
AcDbEntity
  8
0
 62
1
100
AcDbLine
 10
45.052544
 20
164.961711
 30
0.0
 11
51.812613
 21
168.864562
 31
0.0
  0
LINE
  5
146
100
AcDbEntity
  8
0
 62
1
100
AcDbLine
 10
48.955678
 20
195.139451
 30
0.0
 11
48.955678
 21
187.333749
 31
0.0
  0
LINE
  5
147
100
AcDbEntity
  8
0
 62
1
100
AcDbLine
 10
48.955678
 20
195.139451
 30
0.0
 11
55.715747
 21
191.236600
 31
0.0
  0
LINE
  5
148
100
AcDbEntity
  8
0
 62
1
100
AcDbLine
 10
48.955678
 20
187.333749
 30
0.0
 11
55.715747
 21
191.236600
 31
0.0
  0
LINE
  5
149
100
AcDbEntity
  8
0
 62
1
100
AcDbLine
 10
51.812613
 20
184.476531
 30
0.0
 11
51.812613
 21
168.864562
 31
0.0
  0
LINE
  5
14a
100
AcDbEntity
  8
0
 62
1
100
AcDbLine
 10
51.812613
 20
176.670547
 30
0.0
 11
55.715747
 21
183.430616
 31
0.0
  0
LINE
  5
14b
100
AcDbEntity
  8
0
 62
1
100
AcDbLine
 10
51.812613
 20
176.670547
 30
0.0
 11
59.618598
 21
176.670547
 31
0.0
  0
LINE
  5
14c
100
AcDbEntity
  8
0
 62
1
100
AcDbLine
 10
51.812613
 20
168.864562
 30
0.0
 11
55.715747
 21
162.104493
 31
0.0
  0
LINE
  5
14d
100
AcDbEntity
  8
0
 62
1
100
AcDbLine
 10
51.812613
 20
168.864562
 30
0.0
 11
59.618598
 21
168.864562
 31
0.0
  0
LINE
  5
14e
100
AcDbEntity
  8
0
 62
1
100
AcDbLine
 10
55.715747
 20
183.430616
 30
0.0
 11
59.618598
 21
176.670547
 31
0.0
  0
LINE
  5
14f
100
AcDbEntity
  8
0
 62
1
100
AcDbLine
 10
55.715747
 20
162.104493
 30
0.0
 11
59.618598
 21
168.864562
 31
0.0
  0
LINE
  5
150
100
AcDbEntity
  8
0
 62
1
100
AcDbLine
 10
59.618598
 20
176.670547
 30
0.0
 11
59.618598
 21
168.864562
 31
0.0
  0
LINE
  5
151
100
AcDbEntity
  8
0
 62
1
100
AcDbLine
 10
59.618598
 20
176.670547
 30
0.0
 11
66.378667
 21
180.573398
 31
0.0
  0
LINE
  5
152
100
AcDbEntity
  8
0
 62
1
100
AcDbLine
 10
59.618598
 20
176.670547
 30
0.0
 11
66.378667
 21
172.767696
 31
0.0
  0
LINE
  5
153
100
AcDbEntity
  8
0
 62
1
100
AcDbLine
 10
59.618598
 20
168.864562
 30
0.0
 11
66.378667
 21
172.767696
 31
0.0
  0
LINE
  5
154
100
AcDbEntity
  8
0
 62
1
100
AcDbLine
 10
66.378667
 20
180.573398
 30
0.0
 11
66.378667
 21
172.767696
 31
0.0
  0
LINE
  5
155
100
AcDbEntity
  8
0
 62
5
100
AcDbLine
 10
45.052686
 20
201.899632
 30
0.0
 11
43.341047
 21
201.440996
 31
0.0
  0
LINE
  5
156
100
AcDbEntity
  8
0
 62
5
100
AcDbLine
 10
43.341047
 20
201.440996
 30
0.0
 11
40.691062
 21
196.851090
 31
0.0
  0
LINE
  5
157
100
AcDbEntity
  8
0
 62
5
100
AcDbLine
 10
40.691062
 20
196.851090
 30
0.0
 11
41.149693
 21
195.139451
 31
0.0
  0
LINE
  5
158
100
AcDbEntity
  8
0
 62
5
100
AcDbLine
 10
12.017587
 20
195.139451
 30
0.0
 11
10.305948
 21
194.680815
 31
0.0
  0
LINE
  5
159
100
AcDbEntity
  8
0
 62
5
100
AcDbLine
 10
10.305948
 20
194.680815
 30
0.0
 11
7.655964
 21
190.090910
 31
0.0
  0
LINE
  5
15a
100
AcDbEntity
  8
0
 62
5
100
AcDbLine
 10
7.655964
 20
190.090910
 30
0.0
 11
8.114594
 21
188.379270
 31
0.0
  0
LINE
  5
15b
100
AcDbEntity
  8
0
 62
5
100
AcDbLine
 10
12.017728
 20
173.813216
 30
0.0
 11
10.306090
 21
174.271853
 31
0.0
  0
LINE
  5
15c
100
AcDbEntity
  8
0
 62
5
100
AcDbLine
 10
10.306090
 20
174.271853
 30
0.0
 11
7.656105
 21
178.861758
 31
0.0
  0
LINE
  5
15d
100
AcDbEntity
  8
0
 62
5
100
AcDbLine
 10
7.656105
 20
178.861758
 30
0.0
 11
8.114736
 21
180.573398
 31
0.0
  0
LINE
  5
15e
100
AcDbEntity
  8
0
 62
5
100
AcDbLine
 10
8.114741
 20
180.573396
 30
0.0
 11
7.656105
 21
178.861758
 31
0.0
  0
LINE
  5
15f
100
AcDbEntity
  8
0
 62
5
100
AcDbLine
 10
7.656105
 20
178.861758
 30
0.0
 11
3.066198
 21
176.211773
 31
0.0
  0
LINE
  5
160
100
AcDbEntity
  8
0
 62
5
100
AcDbLine
 10
3.066198
 20
176.211773
 30
0.0
 11
1.354559
 21
176.670401
 31
0.0
  0
LINE
  5
161
100
AcDbEntity
  8
0
 62
5
100
AcDbLine
 10
26.583781
 20
169.910365
 30
0.0
 11
24.872143
 21
170.369001
 31
0.0
  0
LINE
  5
162
100
AcDbEntity
  8
0
 62
5
100
AcDbLine
 10
24.872143
 20
170.369001
 30
0.0
 11
22.222158
 21
174.958906
 31
0.0
  0
LINE
  5
163
100
AcDbEntity
  8
0
 62
5
100
AcDbLine
 10
22.222158
 20
174.958906
 30
0.0
 11
22.680789
 21
176.670547
 31
0.0
  0
LINE
  5
164
100
AcDbEntity
  8
0
 62
5
100
AcDbLine
 10
22.680795
 20
176.670545
 30
0.0
 11
22.222158
 21
174.958906
 31
0.0
  0
LINE
  5
165
100
AcDbEntity
  8
0
 62
5
100
AcDbLine
 10
22.222158
 20
174.958906
 30
0.0
 11
17.632252
 21
172.308921
 31
0.0
  0
LINE
  5
166
100
AcDbEntity
  8
0
 62
5
100
AcDbLine
 10
17.632252
 20
172.308921
 30
0.0
 11
15.920613
 21
172.767549
 31
0.0
  0
LINE
  5
167
100
AcDbEntity
  8
0
 62
5
100
AcDbLine
 10
55.715600
 20
162.104383
 30
0.0
 11
54.003962
 21
162.563020
 31
0.0
  0
LINE
  5
168
100
AcDbEntity
  8
0
 62
5
100
AcDbLine
 10
54.003962
 20
162.563020
 30
0.0
 11
51.353977
 21
167.152924
 31
0.0
  0
LINE
  5
169
100
AcDbEntity
  8
0
 62
5
100
AcDbLine
 10
51.353977
 20
167.152924
 30
0.0
 11
51.812608
 21
168.864565
 31
0.0
  0
LINE
  5
16a
100
AcDbEntity
  8
0
 62
5
100
AcDbLine
 10
51.812613
 20
168.864562
 30
0.0
 11
51.353977
 21
167.152924
 31
0.0
  0
LINE
  5
16b
100
AcDbEntity
  8
0
 62
5
100
AcDbLine
 10
51.353977
 20
167.152924
 30
0.0
 11
46.764070
 21
164.502939
 31
0.0
  0
LINE
  5
16c
100
AcDbEntity
  8
0
 62
5
100
AcDbLine
 10
46.764070
 20
164.502939
 30
0.0
 11
45.052432
 21
164.961567
 31
0.0
  0
LINE
  5
16d
100
AcDbEntity
  8
0
 62
5
100
AcDbLine
 10
26.583505
 20
191.236710
 30
0.0
 11
28.295143
 21
190.778074
 31
0.0
  0
LINE
  5
16e
100
AcDbEntity
  8
0
 62
5
100
AcDbLine
 10
28.295143
 20
190.778074
 30
0.0
 11
30.945128
 21
186.188169
 31
0.0
  0
LINE
  5
16f
100
AcDbEntity
  8
0
 62
5
100
AcDbLine
 10
30.945128
 20
186.188169
 30
0.0
 11
30.486497
 21
184.476528
 31
0.0
  0
LINE
  5
170
100
AcDbEntity
  8
0
 62
5
100
AcDbLine
 10
30.486491
 20
184.476531
 30
0.0
 11
30.945128
 21
186.188169
 31
0.0
  0
LINE
  5
171
100
AcDbEntity
  8
0
 62
5
100
AcDbLine
 10
30.945128
 20
186.188169
 30
0.0
 11
35.535035
 21
188.838154
 31
0.0
  0
LINE
  5
172
100
AcDbEntity
  8
0
 62
5
100
AcDbLine
 10
35.535035
 20
188.838154
 30
0.0
 11
37.246673
 21
188.379526
 31
0.0
  0
LINE
  5
173
100
AcDbEntity
  8
0
 62
5
100
AcDbLine
 10
55.715606
 20
183.430727
 30
0.0
 11
57.427244
 21
182.972091
 31
0.0
  0
LINE
  5
174
100
AcDbEntity
  8
0
 62
5
100
AcDbLine
 10
57.427244
 20
182.972091
 30
0.0
 11
60.077229
 21
178.382187
 31
0.0
  0
LINE
  5
175
100
AcDbEntity
  8
0
 62
5
100
AcDbLine
 10
60.077229
 20
178.382187
 30
0.0
 11
59.618598
 21
176.670546
 31
0.0
  0
LINE
  5
176
100
AcDbEntity
  8
0
 62
5
100
AcDbLine
 10
59.618592
 20
176.670548
 30
0.0
 11
60.077229
 21
178.382187
 31
0.0
  0
LINE
  5
177
100
AcDbEntity
  8
0
 62
5
100
AcDbLine
 10
60.077229
 20
178.382187
 30
0.0
 11
64.667136
 21
181.032171
 31
0.0
  0
LINE
  5
178
100
AcDbEntity
  8
0
 62
5
100
AcDbLine
 10
64.667136
 20
181.032171
 30
0.0
 11
66.378774
 21
180.573543
 31
0.0
  0
LINE
  5
179
100
AcDbEntity
  8
0
 62
5
100
AcDbLine
 10
12.017587
 20
195.139451
 30
0.0
 11
13.729225
 21
194.680815
 31
0.0
  0
LINE
  5
17a
100
AcDbEntity
  8
0
 62
5
100
AcDbLine
 10
13.729225
 20
194.680815
 30
0.0
 11
16.379210
 21
190.090910
 31
0.0
  0
LINE
  5
17b
100
AcDbEntity
  8
0
 62
5
100
AcDbLine
 10
16.379210
 20
190.090910
 30
0.0
 11
15.920579
 21
188.379269
 31
0.0
  0
LINE
  5
17c
100
AcDbEntity
  8
0
 62
5
100
AcDbLine
 10
15.920573
 20
188.379272
 30
0.0
 11
16.379210
 21
190.090910
 31
0.0
  0
LINE
  5
17d
100
AcDbEntity
  8
0
 62
5
100
AcDbLine
 10
16.379210
 20
190.090910
 30
0.0
 11
20.969117
 21
192.740895
 31
0.0
  0
LINE
  5
17e
100
AcDbEntity
  8
0
 62
5
100
AcDbLine
 10
20.969117
 20
192.740895
 30
0.0
 11
22.680755
 21
192.282267
 31
0.0
  0
LINE
  5
17f
100
AcDbEntity
  8
0
 62
5
100
AcDbLine
 10
45.052544
 20
201.899520
 30
0.0
 11
46.764183
 21
201.440884
 31
0.0
  0
LINE
  5
180
100
AcDbEntity
  8
0
 62
5
100
AcDbLine
 10
46.764183
 20
201.440884
 30
0.0
 11
49.414168
 21
196.850978
 31
0.0
  0
LINE
  5
181
100
AcDbEntity
  8
0
 62
5
100
AcDbLine
 10
49.414168
 20
196.850978
 30
0.0
 11
48.955537
 21
195.139339
 31
0.0
  0
LINE
  5
182
100
AcDbEntity
  8
0
 62
5
100
AcDbLine
 10
37.246842
 20
151.441573
 30
0.0
 11
35.535204
 21
151.900210
 31
0.0
  0
LINE
  5
183
100
AcDbEntity
  8
0
 62
5
100
AcDbLine
 10
35.535204
 20
151.900210
 30
0.0
 11
32.885219
 21
156.490117
 31
0.0
  0
LINE
  5
184
100
AcDbEntity
  8
0
 62
5
100
AcDbLine
 10
32.885219
 20
156.490117
 30
0.0
 11
33.343850
 21
158.201755
 31
0.0
  0
LINE
  5
185
100
AcDbEntity
  8
0
 62
5
100
AcDbLine
 10
37.246842
 20
151.441573
 30
0.0
 11
38.958480
 21
151.900210
 31
0.0
  0
LINE
  5
186
100
AcDbEntity
  8
0
 62
5
100
AcDbLine
 10
38.958480
 20
151.900210
 30
0.0
 11
41.608465
 21
156.490117
 31
0.0
  0
LINE
  5
187
100
AcDbEntity
  8
0
 62
5
100
AcDbLine
 10
41.608465
 20
156.490117
 30
0.0
 11
41.149834
 21
158.201755
 31
0.0
  0
LINE
  5
188
100
AcDbEntity
  8
0
 62
5
100
AcDbLine
 10
55.715747
 20
162.104493
 30
0.0
 11
57.427385
 21
162.563130
 31
0.0
  0
LINE
  5
189
100
AcDbEntity
  8
0
 62
5
100
AcDbLine
 10
57.427385
 20
162.563130
 30
0.0
 11
60.077370
 21
167.153037
 31
0.0
  0
LINE
  5
18a
100
AcDbEntity
  8
0
 62
5
100
AcDbLine
 10
60.077370
 20
167.153037
 30
0.0
 11
59.618739
 21
168.864675
 31
0.0
  0
LINE
  5
18b
100
AcDbEntity
  8
0
 62
5
100
AcDbLine
 10
41.149580
 20
158.201501
 30
0.0
 11
42.861222
 21
157.742873
 31
0.0
  0
LINE
  5
18c
100
AcDbEntity
  8
0
 62
5
100
AcDbLine
 10
42.861222
 20
157.742873
 30
0.0
 11
47.451129
 21
160.392855
 31
0.0
  0
LINE
  5
18d
100
AcDbEntity
  8
0
 62
5
100
AcDbLine
 10
47.451129
 20
160.392855
 30
0.0
 11
47.909762
 21
162.104493
 31
0.0
  0
LINE
  5
18e
100
AcDbEntity
  8
0
 62
5
100
AcDbLine
 10
33.343822
 20
158.201501
 30
0.0
 11
31.632181
 21
157.742873
 31
0.0
  0
LINE
  5
18f
100
AcDbEntity
  8
0
 62
5
100
AcDbLine
 10
31.632181
 20
157.742873
 30
0.0
 11
27.042274
 21
160.392855
 31
0.0
  0
LINE
  5
190
100
AcDbEntity
  8
0
 62
5
100
AcDbLine
 10
27.042274
 20
160.392855
 30
0.0
 11
26.583640
 21
162.104493
 31
0.0
  0
LINE
  5
191
100
AcDbEntity
  8
0
 62
5
100
AcDbLine
 10
33.343709
 20
166.007627
 30
0.0
 11
31.632068
 21
166.466255
 31
0.0
  0
LINE
  5
192
100
AcDbEntity
  8
0
 62
5
100
AcDbLine
 10
31.632068
 20
166.466255
 30
0.0
 11
27.042161
 21
163.816273
 31
0.0
  0
LINE
  5
193
100
AcDbEntity
  8
0
 62
5
100
AcDbLine
 10
27.042161
 20
163.816273
 30
0.0
 11
26.583527
 21
162.104634
 31
0.0
  0
LINE
  5
194
100
AcDbEntity
  8
0
 62
5
100
AcDbLine
 10
41.149693
 20
166.007627
 30
0.0
 11
42.861334
 21
166.466255
 31
0.0
  0
LINE
  5
195
100
AcDbEntity
  8
0
 62
5
100
AcDbLine
 10
42.861334
 20
166.466255
 30
0.0
 11
45.052544
 21
164.961711
 31
0.0
  0
LINE
  5
196
100
AcDbEntity
  8
0
 62
5
100
AcDbLine
 10
45.052544
 20
164.961711
 30
0.0
 11
47.451241
 21
163.816273
 31
0.0
  0
LINE
  5
197
100
AcDbEntity
  8
0
 62
5
100
AcDbLine
 10
47.451241
 20
163.816273
 30
0.0
 11
47.909875
 21
162.104634
 31
0.0
  0
LINE
  5
198
100
AcDbEntity
  8
0
 62
5
100
AcDbLine
 10
41.149524
 20
187.333611
 30
0.0
 11
39.437883
 21
186.874983
 31
0.0
  0
LINE
  5
199
100
AcDbEntity
  8
0
 62
5
100
AcDbLine
 10
39.437883
 20
186.874983
 30
0.0
 11
37.246673
 21
188.379526
 31
0.0
  0
LINE
  5
19a
100
AcDbEntity
  8
0
 62
5
100
AcDbLine
 10
37.246673
 20
188.379526
 30
0.0
 11
34.847976
 21
189.524965
 31
0.0
  0
LINE
  5
19b
100
AcDbEntity
  8
0
 62
5
100
AcDbLine
 10
34.847976
 20
189.524965
 30
0.0
 11
34.389342
 21
191.236603
 31
0.0
  0
LINE
  5
19c
100
AcDbEntity
  8
0
 62
5
100
AcDbLine
 10
1.354554
 20
184.476390
 30
0.0
 11
1.813190
 21
186.188028
 31
0.0
  0
LINE
  5
19d
100
AcDbEntity
  8
0
 62
5
100
AcDbLine
 10
1.813190
 20
186.188028
 30
0.0
 11
6.403094
 21
188.838013
 31
0.0
  0
LINE
  5
19e
100
AcDbEntity
  8
0
 62
5
100
AcDbLine
 10
6.403094
 20
188.838013
 30
0.0
 11
8.114736
 21
188.379382
 31
0.0
  0
LINE
  5
19f
100
AcDbEntity
  8
0
 62
5
100
AcDbLine
 10
1.354667
 20
176.670547
 30
0.0
 11
0.101663
 21
177.923557
 31
0.0
  0
LINE
  5
1a0
100
AcDbEntity
  8
0
 62
5
100
AcDbLine
 10
0.101663
 20
177.923557
 30
0.0
 11
0.101661
 21
183.223523
 31
0.0
  0
LINE
  5
1a1
100
AcDbEntity
  8
0
 62
5
100
AcDbLine
 10
0.101661
 20
183.223523
 30
0.0
 11
1.354667
 21
184.476532
 31
0.0
  0
LINE
  5
1a2
100
AcDbEntity
  8
0
 62
5
100
AcDbLine
 10
66.378667
 20
172.767696
 30
0.0
 11
67.631671
 21
174.020706
 31
0.0
  0
LINE
  5
1a3
100
AcDbEntity
  8
0
 62
5
100
AcDbLine
 10
67.631671
 20
174.020706
 30
0.0
 11
67.631674
 21
179.320671
 31
0.0
  0
LINE
  5
1a4
100
AcDbEntity
  8
0
 62
5
100
AcDbLine
 10
67.631674
 20
179.320671
 30
0.0
 11
66.378667
 21
180.573681
 31
0.0
  0
LINE
  5
1a5
100
AcDbEntity
  8
0
 62
5
100
AcDbLine
 10
59.618739
 20
168.864675
 30
0.0
 11
61.330380
 21
168.406047
 31
0.0
  0
LINE
  5
1a6
100
AcDbEntity
  8
0
 62
5
100
AcDbLine
 10
61.330380
 20
168.406047
 30
0.0
 11
65.920290
 21
171.056026
 31
0.0
  0
LINE
  5
1a7
100
AcDbEntity
  8
0
 62
5
100
AcDbLine
 10
65.920290
 20
171.056026
 30
0.0
 11
66.378923
 21
172.767667
 31
0.0
  0
LINE
  5
1a8
100
AcDbEntity
  8
0
 62
5
100
AcDbLine
 10
48.955562
 20
187.333608
 30
0.0
 11
50.667203
 21
186.874980
 31
0.0
  0
LINE
  5
1a9
100
AcDbEntity
  8
0
 62
5
100
AcDbLine
 10
50.667203
 20
186.874980
 30
0.0
 11
55.257113
 21
189.524959
 31
0.0
  0
LINE
  5
1aa
100
AcDbEntity
  8
0
 62
5
100
AcDbLine
 10
55.257113
 20
189.524959
 30
0.0
 11
55.715747
 21
191.236600
 31
0.0
  0
LINE
  5
1ab
100
AcDbEntity
  8
0
 62
5
100
AcDbLine
 10
55.715747
 20
191.236600
 30
0.0
 11
55.257107
 21
192.948239
 31
0.0
  0
LINE
  5
1ac
100
AcDbEntity
  8
0
 62
5
100
AcDbLine
 10
55.257107
 20
192.948239
 30
0.0
 11
50.667203
 21
195.598228
 31
0.0
  0
LINE
  5
1ad
100
AcDbEntity
  8
0
 62
5
100
AcDbLine
 10
50.667203
 20
195.598228
 30
0.0
 11
48.955562
 21
195.139596
 31
0.0
  0
LINE
  5
1ae
100
AcDbEntity
  8
0
 62
5
100
AcDbLine
 10
34.389624
 20
191.236600
 30
0.0
 11
34.848264
 21
192.948239
 31
0.0
  0
LINE
  5
1af
100
AcDbEntity
  8
0
 62
5
100
AcDbLine
 10
34.848264
 20
192.948239
 30
0.0
 11
39.438168
 21
195.598228
 31
0.0
  0
LINE
  5
1b0
100
AcDbEntity
  8
0
 62
5
100
AcDbLine
 10
39.438168
 20
195.598228
 30
0.0
 11
41.149809
 21
195.139596
 31
0.0
  0
LINE
  5
1b1
100
AcDbEntity
  8
0
 62
5
100
AcDbLine
 10
51.812613
 20
176.670547
 30
0.0
 11
53.048227
 21
181.349281
 31
0.0
  0
LINE
  5
1b2
100
AcDbEntity
  8
0
 62
5
100
AcDbLine
 10
53.048227
 20
181.349281
 30
0.0
 11
53.065612
 21
183.223524
 31
0.0
  0
LINE
  5
1b3
100
AcDbEntity
  8
0
 62
5
100
AcDbLine
 10
53.065612
 20
183.223524
 30
0.0
 11
51.812613
 21
184.476531
 31
0.0
  0
LINE
  5
1b4
100
AcDbEntity
  8
0
 62
5
100
AcDbLine
 10
55.715606
 20
183.430727
 30
0.0
 11
54.003967
 21
182.972091
 31
0.0
  0
LINE
  5
1b5
100
AcDbEntity
  8
0
 62
5
100
AcDbLine
 10
54.003967
 20
182.972091
 30
0.0
 11
53.048227
 21
181.349281
 31
0.0
  0
LINE
  5
1b6
100
AcDbEntity
  8
0
 62
5
100
AcDbLine
 10
37.246529
 20
180.573438
 30
0.0
 11
38.482143
 21
185.252172
 31
0.0
  0
LINE
  5
1b7
100
AcDbEntity
  8
0
 62
5
100
AcDbLine
 10
38.482143
 20
185.252172
 30
0.0
 11
38.499528
 21
187.126415
 31
0.0
  0
LINE
  5
1b8
100
AcDbEntity
  8
0
 62
5
100
AcDbLine
 10
38.499528
 20
187.126415
 30
0.0
 11
37.246529
 21
188.379422
 31
0.0
  0
LINE
  5
1b9
100
AcDbEntity
  8
0
 62
5
100
AcDbLine
 10
41.149521
 20
187.333619
 30
0.0
 11
39.437883
 21
186.874983
 31
0.0
  0
LINE
  5
1ba
100
AcDbEntity
  8
0
 62
5
100
AcDbLine
 10
39.437883
 20
186.874983
 30
0.0
 11
38.482143
 21
185.252172
 31
0.0
  0
LINE
  5
1bb
100
AcDbEntity
  8
0
 62
5
100
AcDbLine
 10
22.680755
 20
184.476283
 30
0.0
 11
23.916369
 21
189.155017
 31
0.0
  0
LINE
  5
1bc
100
AcDbEntity
  8
0
 62
5
100
AcDbLine
 10
23.916369
 20
189.155017
 30
0.0
 11
23.933754
 21
191.029260
 31
0.0
  0
LINE
  5
1bd
100
AcDbEntity
  8
0
 62
5
100
AcDbLine
 10
23.933754
 20
191.029260
 30
0.0
 11
22.680755
 21
192.282267
 31
0.0
  0
LINE
  5
1be
100
AcDbEntity
  8
0
 62
5
100
AcDbLine
 10
26.583747
 20
191.236463
 30
0.0
 11
24.872109
 21
190.777827
 31
0.0
  0
LINE
  5
1bf
100
AcDbEntity
  8
0
 62
5
100
AcDbLine
 10
24.872109
 20
190.777827
 30
0.0
 11
23.916369
 21
189.155017
 31
0.0
  0
LINE
  5
1c0
100
AcDbEntity
  8
0
 62
5
100
AcDbLine
 10
15.920579
 20
180.573511
 30
0.0
 11
14.684965
 21
175.894777
 31
0.0
  0
LINE
  5
1c1
100
AcDbEntity
  8
0
 62
5
100
AcDbLine
 10
14.684965
 20
175.894777
 30
0.0
 11
14.667580
 21
174.020534
 31
0.0
  0
LINE
  5
1c2
100
AcDbEntity
  8
0
 62
5
100
AcDbLine
 10
14.667580
 20
174.020534
 30
0.0
 11
15.920579
 21
172.767526
 31
0.0
  0
LINE
  5
1c3
100
AcDbEntity
  8
0
 62
5
100
AcDbLine
 10
12.017587
 20
173.813329
 30
0.0
 11
13.729225
 21
174.271965
 31
0.0
  0
LINE
  5
1c4
100
AcDbEntity
  8
0
 62
5
100
AcDbLine
 10
13.729225
 20
174.271965
 30
0.0
 11
14.684965
 21
175.894777
 31
0.0
  0
LINE
  5
1c5
100
AcDbEntity
  8
0
 62
5
100
AcDbLine
 10
30.486632
 20
176.670660
 30
0.0
 11
29.251018
 21
171.991926
 31
0.0
  0
LINE
  5
1c6
100
AcDbEntity
  8
0
 62
5
100
AcDbLine
 10
29.251018
 20
171.991926
 30
0.0
 11
29.233633
 21
170.117683
 31
0.0
  0
LINE
  5
1c7
100
AcDbEntity
  8
0
 62
5
100
AcDbLine
 10
29.233633
 20
170.117683
 30
0.0
 11
30.486632
 21
168.864675
 31
0.0
  0
LINE
  5
1c8
100
AcDbEntity
  8
0
 62
5
100
AcDbLine
 10
26.583640
 20
169.910478
 30
0.0
 11
28.295278
 21
170.369114
 31
0.0
  0
LINE
  5
1c9
100
AcDbEntity
  8
0
 62
5
100
AcDbLine
 10
28.295278
 20
170.369114
 30
0.0
 11
29.251018
 21
171.991926
 31
0.0
  0
LINE
  5
1ca
100
AcDbEntity
  8
0
 62
5
100
AcDbLine
 10
45.052688
 20
172.767800
 30
0.0
 11
43.817074
 21
168.089066
 31
0.0
  0
LINE
  5
1cb
100
AcDbEntity
  8
0
 62
5
100
AcDbLine
 10
43.817074
 20
168.089066
 30
0.0
 11
43.799689
 21
166.214823
 31
0.0
  0
LINE
  5
1cc
100
AcDbEntity
  8
0
 62
5
100
AcDbLine
 10
43.799689
 20
166.214823
 30
0.0
 11
45.052688
 21
164.961816
 31
0.0
  0
LINE
  5
1cd
100
AcDbEntity
  8
0
 62
5
100
AcDbLine
 10
41.149696
 20
166.007618
 30
0.0
 11
42.861334
 21
166.466255
 31
0.0
  0
LINE
  5
1ce
100
AcDbEntity
  8
0
 62
5
100
AcDbLine
 10
42.861334
 20
166.466255
 30
0.0
 11
43.817074
 21
168.089066
 31
0.0
  0
LINE
  5
1cf
100
AcDbEntity
  8
0
 62
5
100
AcDbLine
 10
37.246814
 20
172.767667
 30
0.0
 11
33.837375
 21
169.333573
 31
0.0
  0
LINE
  5
1d0
100
AcDbEntity
  8
0
 62
5
100
AcDbLine
 10
33.837375
 20
169.333573
 30
0.0
 11
32.885197
 21
167.719124
 31
0.0
  0
LINE
  5
1d1
100
AcDbEntity
  8
0
 62
5
100
AcDbLine
 10
32.885197
 20
167.719124
 30
0.0
 11
33.343822
 21
166.007488
 31
0.0
  0
LINE
  5
1d2
100
AcDbEntity
  8
0
 62
5
100
AcDbLine
 10
30.486632
 20
168.864675
 30
0.0
 11
32.198273
 21
168.406047
 31
0.0
  0
LINE
  5
1d3
100
AcDbEntity
  8
0
 62
5
100
AcDbLine
 10
32.198273
 20
168.406047
 30
0.0
 11
33.837375
 21
169.333573
 31
0.0
  0
LINE
  5
1d4
100
AcDbEntity
  8
0
 62
5
100
AcDbLine
 10
45.052570
 20
180.573429
 30
0.0
 11
48.462009
 21
184.007523
 31
0.0
  0
LINE
  5
1d5
100
AcDbEntity
  8
0
 62
5
100
AcDbLine
 10
48.462009
 20
184.007523
 30
0.0
 11
49.414187
 21
185.621972
 31
0.0
  0
LINE
  5
1d6
100
AcDbEntity
  8
0
 62
5
100
AcDbLine
 10
49.414187
 20
185.621972
 30
0.0
 11
48.955562
 21
187.333608
 31
0.0
  0
LINE
  5
1d7
100
AcDbEntity
  8
0
 62
5
100
AcDbLine
 10
51.812752
 20
184.476421
 30
0.0
 11
50.101111
 21
184.935049
 31
0.0
  0
LINE
  5
1d8
100
AcDbEntity
  8
0
 62
5
100
AcDbLine
 10
50.101111
 20
184.935049
 30
0.0
 11
48.462009
 21
184.007523
 31
0.0
  0
ENDSEC
  0
SECTION
  2
OBJECTS
  0
DICTIONARY
  5
C
330
0
100
AcDbDictionary
  3
ACAD_GROUP
350
D
  3
ACAD_MLINESTYLE
350
17
  0
DICTIONARY
  5
D
330
C
100
AcDbDictionary
  0
DICTIONARY
  5
1A
330
C
100
AcDbDictionary
  0
DICTIONARY
  5
17
330
C
100
AcDbDictionary
  3
STANDARD
350
18
  0
DICTIONARY
  5
19
330
C
100
AcDbDictionary
  0
ENDSEC
  0
EOF
