<?xml version="1.0" encoding="UTF-8" standalone="no"?>
<!-- Created with Inkscape (http://www.inkscape.org/) -->

<svg
   xmlns:dc="http://purl.org/dc/elements/1.1/"
   xmlns:cc="http://creativecommons.org/ns#"
   xmlns:rdf="http://www.w3.org/1999/02/22-rdf-syntax-ns#"
   xmlns:svg="http://www.w3.org/2000/svg"
   xmlns="http://www.w3.org/2000/svg"
   xmlns:sodipodi="http://sodipodi.sourceforge.net/DTD/sodipodi-0.dtd"
   xmlns:inkscape="http://www.inkscape.org/namespaces/inkscape"
   id="svg4910"
   version="1.1"
   inkscape:version="0.48.0 r9654"
   width="720"
   height="720"
   xml:space="preserve"
   sodipodi:docname="SnubCube.svg"><metadata
     id="metadata4916"><rdf:RDF><cc:Work
         rdf:about=""><dc:format>image/svg+xml</dc:format><dc:type
           rdf:resource="http://purl.org/dc/dcmitype/StillImage" /><dc:title /></cc:Work></rdf:RDF></metadata><defs
     id="defs4914"><clipPath
   clipPathUnits="userSpaceOnUse"
   id="clipPath4926"><path
     d="M 0,0 240,0 240,199 0,199 0,0 z"
     id="path4928"
     inkscape:connector-curvature="0" /></clipPath>
</defs><sodipodi:namedview
     pagecolor="#ffffff"
     bordercolor="#666666"
     borderopacity="1"
     objecttolerance="10"
     gridtolerance="10"
     guidetolerance="10"
     inkscape:pageopacity="0"
     inkscape:pageshadow="2"
     inkscape:window-width="1680"
     inkscape:window-height="944"
     id="namedview4912"
     showgrid="false"
     inkscape:zoom="1.0083333"
     inkscape:cx="360"
     inkscape:cy="279.62443"
     inkscape:window-x="0"
     inkscape:window-y="0"
     inkscape:window-maximized="0"
     inkscape:current-layer="g4918"
     showguides="true"
     inkscape:guide-bbox="true"
     inkscape:object-nodes="true"
     units="in" /><g
     id="g4918"
     inkscape:groupmode="layer"
     inkscape:label="SnubCube"
     transform="matrix(1.25,0,0,-1.25,0,720)"><g
       id="g7035"
       transform="matrix(0,2.3747508,-2.3747508,0,439.70029,3.4118578)"
       style="fill:none;stroke-width:0.02728707;stroke-miterlimit:4;stroke-dasharray:none"><g
         id="g4920"
         style="fill:none;stroke-width:0.02728707;stroke-miterlimit:4;stroke-dasharray:none" /><g
         style="stroke:#ff0000;stroke-opacity:1;fill:none;stroke-width:0.02728707;stroke-miterlimit:4;stroke-dasharray:none"
         id="g6436"><path
           d="m 4.8,66.343 0,27.659 M 4.8,66.343 28.753,52.514 M 4.8,66.343 28.753,80.173 M 4.8,94.002 28.753,80.173 m 0,-27.659 0,27.659 m 0,-27.659 13.829,-23.953 m -13.829,23.953 27.659,0 m -27.659,27.659 13.829,23.953 m -13.829,-23.953 27.659,0 m -13.83,-51.612 13.83,23.953 m -13.83,51.612 13.83,-23.953 m 0,-27.659 0,27.659 m 0,-27.659 23.953,-13.829 M 56.412,52.514 80.365,66.343 m -23.953,13.83 0,27.658 m 0,-27.658 23.953,-13.83 M 56.412,80.173 80.365,94.002 M 56.412,107.831 80.365,94.002 m 0,-55.317 0,55.317 m 0,-27.659 13.829,-23.953 m -13.829,23.953 27.658,0 m -27.658,27.659 13.829,23.953 m -13.829,-23.953 27.658,0 M 94.194,42.39 108.023,66.343 m -13.829,51.612 13.829,-23.953 m -13.829,51.612 23.953,-13.83 m -23.953,13.83 23.953,13.829 m -10.124,-93.1 0,27.659 m 0,-27.659 23.954,-13.829 m -23.954,13.829 23.954,13.83 m -23.954,13.829 0,27.659 m 0,-27.659 23.954,-13.829 m -23.954,13.829 23.954,13.829 m -23.954,13.83 23.954,-13.83 m -13.83,23.953 0,27.659 m 0,-27.659 13.83,-23.953 m -13.83,23.953 27.659,0 m -27.659,27.659 13.83,23.953 m -13.83,-23.953 27.659,0 M 121.853,42.39 145.806,28.561 m -23.953,13.829 23.953,13.829 m -13.829,-3.705 0,55.317 m 0,-27.658 13.829,-23.954 m -13.829,23.954 27.658,0 m -27.658,27.658 13.829,23.953 m -13.829,-23.953 27.658,0 m -27.658,75.565 13.829,-23.953 m 0,-130.882 0,27.658 m 0,-27.658 13.829,-23.953 m -13.829,23.953 27.659,0 m -27.659,27.658 13.829,23.954 m -13.829,-23.954 27.659,0 m -27.659,75.565 0,27.659 m 0,-27.659 13.829,-23.953 m -13.829,23.953 23.953,13.83 m -23.953,13.829 23.953,-13.829 M 159.635,4.608 l 13.83,23.953 m -13.83,51.612 0,27.658 m 0,-27.658 13.83,-23.954 m -13.83,23.954 23.953,-13.83 m -23.953,13.83 23.953,13.829 m -23.953,13.829 0,27.659 m 0,-27.659 23.953,-13.829 m -23.953,13.829 23.953,13.83"
           style="fill:none;stroke:#ff0000;stroke-width:0.02728707;stroke-linecap:square;stroke-linejoin:miter;stroke-miterlimit:4;stroke-opacity:1;stroke-dasharray:none"
           id="path4930"
           inkscape:connector-curvature="0" /><path
           d="m 159.635,135.49 23.953,-13.829 m -10.123,-93.1 0,27.658 m 0,-27.658 23.953,13.829 M 173.465,56.219 197.418,42.39 m -13.83,23.953 0,55.318 m 0,-27.659 13.83,-23.953 m -13.83,23.953 27.659,0 m -27.659,27.659 13.83,23.953 m -13.83,-23.953 27.659,0 m -13.829,-51.612 13.829,23.953 m -13.829,51.612 13.829,-23.953 m 0,-27.659 0,27.659 m 0,-27.659 23.953,-13.829 m -23.953,13.829 23.953,13.829 m -23.953,13.83 23.953,-13.83 m 0,-27.658 0,27.658"
           style="fill:none;stroke:#ff0000;stroke-width:0.02728707;stroke-linecap:square;stroke-linejoin:miter;stroke-miterlimit:4;stroke-opacity:1;stroke-dasharray:none"
           id="path4932"
           inkscape:connector-curvature="0" /></g><path
         inkscape:connector-curvature="0"
         id="path6446"
         d="M 159.6355,4.607604 153.57064,6.2326916 144.18093,22.496137 145.806,28.561"
         style="fill:none;stroke:#0000ff;stroke-width:0.02728707;stroke-linecap:butt;stroke-linejoin:miter;stroke-opacity:1;stroke-miterlimit:4;stroke-dasharray:none" /><path
         inkscape:connector-curvature="0"
         id="path6958"
         d="m 42.582,28.561 -6.06486,1.625088 -9.38971,16.263445 1.62507,6.064863"
         style="fill:none;stroke:#0000ff;stroke-width:0.02728707;stroke-linecap:butt;stroke-linejoin:miter;stroke-opacity:1;stroke-miterlimit:4;stroke-dasharray:none" /><path
         style="fill:none;stroke:#0000ff;stroke-width:0.02728707;stroke-linecap:butt;stroke-linejoin:miter;stroke-opacity:1;stroke-miterlimit:4;stroke-dasharray:none"
         d="M 42.5825,104.1264 36.51764,102.50131 27.12793,86.237867 28.753,80.173"
         id="path6960"
         inkscape:connector-curvature="0" /><path
         inkscape:connector-curvature="0"
         id="path6962"
         d="m 28.75302,80.173007 -1.62509,6.06486 -16.263448,9.38971 -6.064862,-1.62506"
         style="fill:none;stroke:#0000ff;stroke-width:0.02728707;stroke-linecap:butt;stroke-linejoin:miter;stroke-opacity:1;stroke-miterlimit:4;stroke-dasharray:none" /><path
         inkscape:connector-curvature="0"
         id="path6964"
         d="M 94.1945,117.9554 88.12964,116.33031 78.73993,100.06687 80.365,94.002"
         style="fill:none;stroke:#0000ff;stroke-width:0.02728707;stroke-linecap:butt;stroke-linejoin:miter;stroke-opacity:1;stroke-miterlimit:4;stroke-dasharray:none" /><path
         style="fill:none;stroke:#0000ff;stroke-width:0.02728707;stroke-linecap:butt;stroke-linejoin:miter;stroke-opacity:1;stroke-miterlimit:4;stroke-dasharray:none"
         d="m 80.36502,94.002007 -1.62509,6.064863 -16.263448,9.38971 -6.064862,-1.62506"
         id="path6966"
         inkscape:connector-curvature="0" /><path
         style="fill:none;stroke:#0000ff;stroke-width:0.02728707;stroke-linecap:butt;stroke-linejoin:miter;stroke-opacity:1;stroke-miterlimit:4;stroke-dasharray:none"
         d="m 197.41748,145.61439 -6.06486,-1.62509 -9.38971,-16.26344 1.62507,-6.06487"
         id="path6968"
         inkscape:connector-curvature="0" /><path
         inkscape:connector-curvature="0"
         id="path6970"
         d="m 183.588,121.661 -1.62509,6.06486 -16.26345,9.38971 -6.06486,-1.62506"
         style="fill:none;stroke:#0000ff;stroke-width:0.02728707;stroke-linecap:butt;stroke-linejoin:miter;stroke-opacity:1;stroke-miterlimit:4;stroke-dasharray:none" /><path
         inkscape:connector-curvature="0"
         id="path6972"
         d="m 94.19352,42.38961 6.06486,1.62509 9.38971,16.26344 -1.62507,6.06487"
         style="fill:none;stroke:#0000ff;stroke-width:0.02728707;stroke-linecap:butt;stroke-linejoin:miter;stroke-opacity:1;stroke-miterlimit:4;stroke-dasharray:none" /><path
         style="fill:none;stroke:#0000ff;stroke-width:0.02728707;stroke-linecap:butt;stroke-linejoin:miter;stroke-opacity:1;stroke-miterlimit:4;stroke-dasharray:none"
         d="m 108.023,66.343 1.62509,-6.06486 16.26345,-9.38971 6.06486,1.62506"
         id="path6974"
         inkscape:connector-curvature="0" /><path
         style="fill:none;stroke:#0000ff;stroke-width:0.02728707;stroke-linecap:butt;stroke-linejoin:miter;stroke-opacity:1;stroke-miterlimit:4;stroke-dasharray:none"
         d="m 197.4175,70.048604 6.06486,1.62509 9.38971,16.26344 -1.62507,6.06487"
         id="path6976"
         inkscape:connector-curvature="0" /><path
         inkscape:connector-curvature="0"
         id="path6978"
         d="m 211.24698,94.001994 1.62509,-6.06486 16.26345,-9.38971 6.06486,1.62506"
         style="fill:none;stroke:#0000ff;stroke-width:0.02728707;stroke-linecap:butt;stroke-linejoin:miter;stroke-opacity:1;stroke-miterlimit:4;stroke-dasharray:none" /><path
         style="fill:none;stroke:#0000ff;stroke-width:0.02728707;stroke-linecap:butt;stroke-linejoin:miter;stroke-opacity:1;stroke-miterlimit:4;stroke-dasharray:none"
         d="m 42.582,28.561 6.06486,1.62509 9.38971,16.26344 -1.62507,6.06487"
         id="path6980"
         inkscape:connector-curvature="0" /><path
         inkscape:connector-curvature="0"
         id="path6982"
         d="m 56.41148,52.51439 1.62509,-6.06486 16.26345,-9.38971 6.06486,1.62506"
         style="fill:none;stroke:#0000ff;stroke-width:0.02728707;stroke-linecap:butt;stroke-linejoin:miter;stroke-opacity:1;stroke-miterlimit:4;stroke-dasharray:none" /><path
         style="fill:none;stroke:#0000ff;stroke-width:0.02728707;stroke-linecap:butt;stroke-linejoin:miter;stroke-opacity:1;stroke-miterlimit:4;stroke-dasharray:none"
         d="m 159.635,4.608 6.06486,1.625088 9.38971,16.263445 -1.62507,6.064863"
         id="path6984"
         inkscape:connector-curvature="0" /><path
         inkscape:connector-curvature="0"
         id="path6986"
         d="m 131.977,183.396 -6.06486,-1.62509 -9.38971,-16.26345 1.62507,-6.06486"
         style="fill:none;stroke:#0000ff;stroke-width:0.02728707;stroke-linecap:butt;stroke-linejoin:miter;stroke-opacity:1;stroke-miterlimit:4;stroke-dasharray:none" /><path
         style="fill:none;stroke:#0000ff;stroke-width:0.02728707;stroke-linecap:butt;stroke-linejoin:miter;stroke-opacity:1;stroke-miterlimit:4;stroke-dasharray:none"
         d="m 131.977,183.396 6.06486,-1.62509 9.38971,-16.26345 -1.62507,-6.06486"
         id="path6988"
         inkscape:connector-curvature="0" /><path
         inkscape:connector-curvature="0"
         id="path6990"
         d="m 197.418,145.614 6.06486,-1.62509 9.38971,-16.26345 -1.62507,-6.06486"
         style="fill:none;stroke:#0000ff;stroke-width:0.02728707;stroke-linecap:butt;stroke-linejoin:miter;stroke-opacity:1;stroke-miterlimit:4;stroke-dasharray:none" /><path
         style="fill:none;stroke:#0000ff;stroke-width:0.02728707;stroke-linecap:butt;stroke-linejoin:miter;stroke-opacity:1;stroke-miterlimit:4;stroke-dasharray:none"
         d="m 145.8056,159.4435 6.06487,1.62506 16.26345,-9.3897 1.62508,-6.06486"
         id="path6992"
         inkscape:connector-curvature="0" /><path
         inkscape:connector-curvature="0"
         id="path6994"
         d="m 118.1474,159.4435 -6.06487,1.62506 -16.26345,-9.3897 L 94.194,145.614"
         style="fill:none;stroke:#0000ff;stroke-width:0.02728707;stroke-linecap:butt;stroke-linejoin:miter;stroke-opacity:1;stroke-miterlimit:4;stroke-dasharray:none" /><path
         style="fill:none;stroke:#0000ff;stroke-width:0.02728707;stroke-linecap:butt;stroke-linejoin:miter;stroke-opacity:1;stroke-miterlimit:4;stroke-dasharray:none"
         d="m 118.147,131.784 -6.06487,-1.62506 -16.26345,9.3897 -1.62508,6.06486"
         id="path6996"
         inkscape:connector-curvature="0" /><path
         sodipodi:nodetypes="ccccc"
         inkscape:connector-curvature="0"
         id="path6998"
         d="m 145.806,131.784 6.06487,-1.62506 7.76413,5.33106 8.49932,4.05864 1.62508,6.06486"
         style="fill:none;stroke:#0000ff;stroke-width:0.02728707;stroke-linecap:butt;stroke-linejoin:miter;stroke-opacity:1;stroke-miterlimit:4;stroke-dasharray:none" /><path
         style="fill:none;stroke:#0000ff;stroke-width:0.02728707;stroke-linecap:butt;stroke-linejoin:miter;stroke-opacity:1;stroke-miterlimit:4;stroke-dasharray:none"
         d="m 145.8054,56.21949 -6.06487,1.62506 -7.76413,-5.33106 -8.49932,-4.05864 -1.62508,-6.06486"
         id="path7000"
         inkscape:connector-curvature="0"
         sodipodi:nodetypes="ccccc" /><path
         style="fill:none;stroke:#0000ff;stroke-width:0.02728707;stroke-linecap:butt;stroke-linejoin:miter;stroke-opacity:1;stroke-miterlimit:4;stroke-dasharray:none"
         d="M 4.7996,66.3435 6.42469,60.27864 22.68813,50.88893 28.753,52.514"
         id="path7002"
         inkscape:connector-curvature="0" /><path
         inkscape:connector-curvature="0"
         id="path7004"
         d="M 4.8,94.002 0.3602222,89.562201 0.3602149,70.782793 4.8000018,66.342997"
         style="fill:none;stroke:#0000ff;stroke-width:0.02728707;stroke-linecap:butt;stroke-linejoin:miter;stroke-opacity:1;stroke-miterlimit:4;stroke-dasharray:none" /><path
         style="fill:none;stroke:#0000ff;stroke-width:0.02728707;stroke-linecap:butt;stroke-linejoin:miter;stroke-opacity:1;stroke-miterlimit:4;stroke-dasharray:none"
         d="m 235.2,107.831 4.43978,-4.4398 1e-5,-18.779406 L 235.2,80.171998"
         id="path7006"
         inkscape:connector-curvature="0" /><path
         inkscape:connector-curvature="0"
         id="path7008"
         d="m 211.2475,121.6606 6.06487,1.62506 16.26346,-9.38969 1.62508,-6.06487"
         style="fill:none;stroke:#0000ff;stroke-width:0.02728707;stroke-linecap:butt;stroke-linejoin:miter;stroke-opacity:1;stroke-miterlimit:4;stroke-dasharray:none" /><path
         style="fill:none;stroke:#0000ff;stroke-width:0.02728707;stroke-linecap:butt;stroke-linejoin:miter;stroke-opacity:1;stroke-miterlimit:4;stroke-dasharray:none"
         d="m 173.46459,56.2195 6.06487,1.62506 16.26346,-9.38969 L 197.418,42.39"
         id="path7010"
         inkscape:connector-curvature="0" /><path
         inkscape:connector-curvature="0"
         id="path7012"
         d="m 197.418,42.39 -1.6251,-6.064862 -16.26344,-9.389724 -6.06487,1.625074"
         style="fill:none;stroke:#0000ff;stroke-width:0.02728707;stroke-linecap:butt;stroke-linejoin:miter;stroke-opacity:1;stroke-miterlimit:4;stroke-dasharray:none" /><path
         style="fill:none;stroke:#0000ff;stroke-width:0.02728707;stroke-linecap:butt;stroke-linejoin:miter;stroke-opacity:1;stroke-miterlimit:4;stroke-dasharray:none"
         d="m 121.853,42.39 1.6251,-6.064862 16.26344,-9.389724 6.06487,1.625074"
         id="path7014"
         inkscape:connector-curvature="0" /><path
         inkscape:connector-curvature="0"
         d="m 183.588,94.001999 4.37816,-16.578191 0.0616,-6.641018 L 183.588,66.343 m 13.8295,3.705604 -6.06486,1.625088 -3.38648,5.750116"
         style="fill:none;stroke:#0000ff;stroke-width:0.02728707;stroke-linecap:butt;stroke-linejoin:miter;stroke-opacity:1;stroke-miterlimit:4;stroke-dasharray:none"
         id="path7016" /><path
         inkscape:connector-curvature="0"
         id="path7021"
         style="fill:none;stroke:#0000ff;stroke-width:0.02728707;stroke-linecap:butt;stroke-linejoin:miter;stroke-opacity:1;stroke-miterlimit:4;stroke-dasharray:none"
         d="m 131.97589,80.172857 4.37816,-16.578191 0.0616,-6.641018 -4.43976,-4.43979 m 13.8295,3.705604 -6.06486,1.625088 -3.38648,5.750116" /><path
         d="m 80.36488,66.343879 4.37816,-16.578191 0.0616,-6.641018 -4.43976,-4.43979 m 13.8295,3.705604 -6.06486,1.625088 -3.38648,5.750116"
         style="fill:none;stroke:#0000ff;stroke-width:0.02728707;stroke-linecap:butt;stroke-linejoin:miter;stroke-opacity:1;stroke-miterlimit:4;stroke-dasharray:none"
         id="path7023"
         inkscape:connector-curvature="0" /><path
         inkscape:connector-curvature="0"
         id="path7025"
         style="fill:none;stroke:#0000ff;stroke-width:0.02728707;stroke-linecap:butt;stroke-linejoin:miter;stroke-opacity:1;stroke-miterlimit:4;stroke-dasharray:none"
         d="m 56.4115,80.1726 -4.37816,16.57819 -0.0616,6.64102 4.43976,4.43979 m -13.8295,-3.7056 6.06486,-1.62509 3.38648,-5.75012" /><path
         d="m 108.0235,94.0016 -4.37816,16.57819 -0.0616,6.64102 4.43976,4.43979 m -13.8295,-3.7056 6.06486,-1.62509 3.38648,-5.75012"
         style="fill:none;stroke:#0000ff;stroke-width:0.02728707;stroke-linecap:butt;stroke-linejoin:miter;stroke-opacity:1;stroke-miterlimit:4;stroke-dasharray:none"
         id="path7027"
         inkscape:connector-curvature="0" /><path
         inkscape:connector-curvature="0"
         id="path7029"
         style="fill:none;stroke:#0000ff;stroke-width:0.02728707;stroke-linecap:butt;stroke-linejoin:miter;stroke-opacity:1;stroke-miterlimit:4;stroke-dasharray:none"
         d="m 159.63551,107.83063 -4.37816,16.57819 -0.0616,6.64102 4.43976,4.43979 m -13.8295,-3.7056 6.06486,-1.62509 3.38648,-5.75012" /><path
         d="m 131.9769,107.8311 -12.08069,12.16805 -3.37386,5.72049 1.62505,6.06485 m -10.1239,-10.12389 6.06487,1.62506 5.80784,-3.28651"
         style="fill:none;stroke:#0000ff;stroke-width:0.02728707;stroke-linecap:butt;stroke-linejoin:miter;stroke-opacity:1;stroke-miterlimit:4;stroke-dasharray:none"
         id="path7031"
         inkscape:connector-curvature="0" /><path
         inkscape:connector-curvature="0"
         id="path7033"
         style="fill:none;stroke:#0000ff;stroke-width:0.02728707;stroke-linecap:butt;stroke-linejoin:miter;stroke-opacity:1;stroke-miterlimit:4;stroke-dasharray:none"
         d="m 159.63509,80.17289 12.08069,-12.16805 3.37386,-5.72049 -1.62505,-6.06485 m 10.1239,10.12389 -6.06487,-1.62506 -5.80784,3.28651" /></g></g></svg>