999
DXF created by Inkscape
  0
SECTION
  2
HEADER
  9
$ACADVER
  1
AC1014
  9
$HANDSEED
  5
FFFF
  9
$MEASUREMENT
 70
     1
  0
ENDSEC
  0
SECTION
  2
TABLES
  0
TABLE
  2
VPORT
  5
8
330
0
100
AcDbSymbolTable
 70
     4
  0
VPORT
  5
2E
330
8
100
AcDbSymbolTableRecord
100
AcDbViewportTableRecord
  2
*ACTIVE
 70
     0
 10
0.0
 20
0.0
 11
1.0
 21
1.0
 12
210.0
 22
148.5
 13
0.0
 23
0.0
 14
10.0
 24
10.0
 15
10.0
 25
10.0
 16
0.0
 26
0.0
 36
1.0
 17
0.0
 27
0.0
 37
0.0
 40
341.0
 41
1.24
 42
50.0
 43
0.0
 44
0.0
 50
0.0
 51
0.0
 71
     0
 72
   100
 73
     1
 74
     3
 75
     0
 76
     0
 77
     0
 78
     0
  0
ENDTAB
  0
TABLE
  2
LTYPE
  5
5
330
0
100
AcDbSymbolTable
 70
     1
  0
LTYPE
  5
14
330
5
100
AcDbSymbolTableRecord
100
AcDbLinetypeTableRecord
  2
BYBLOCK
 70
     0
  3

 72
    65
 73
     0
 40
0.0
  0
LTYPE
  5
15
330
5
100
AcDbSymbolTableRecord
100
AcDbLinetypeTableRecord
  2
BYLAYER
 70
     0
  3

 72
    65
 73
     0
 40
0.0
  0
LTYPE
  5
16
330
5
100
AcDbSymbolTableRecord
100
AcDbLinetypeTableRecord
  2
CONTINUOUS
 70
     0
  3
Solid line
 72
    65
 73
     0
 40
0.0
  0
ENDTAB
  0
TABLE
  2
LAYER
  5
2
330
0
100
AcDbSymbolTable
 70
1
  0
LAYER
  5
10
330
2
100
AcDbSymbolTableRecord
100
AcDbLayerTableRecord
  2
0
 70
     0
 62
     7
  6
CONTINUOUS
  0
ENDTAB
  0
TABLE
  2
STYLE
  5
3
330
0
100
AcDbSymbolTable
 70
     1
  0
STYLE
  5
11
330
3
100
AcDbSymbolTableRecord
100
AcDbTextStyleTableRecord
  2
STANDARD
 70
     0
 40
0.0
 41
1.0
 50
0.0
 71
     0
 42
2.5
  3
txt
  4

  0
ENDTAB
  0
TABLE
  2
VIEW
  5
6
330
0
100
AcDbSymbolTable
 70
     0
  0
ENDTAB
  0
TABLE
  2
UCS
  5
7
330
0
100
AcDbSymbolTable
 70
     0
  0
ENDTAB
  0
TABLE
  2
APPID
  5
9
330
0
100
AcDbSymbolTable
 70
     2
  0
APPID
  5
12
330
9
100
AcDbSymbolTableRecord
100
AcDbRegAppTableRecord
  2
ACAD
 70
     0
  0
ENDTAB
  0
TABLE
  2
DIMSTYLE
  5
A
330
0
100
AcDbSymbolTable
 70
     1
  0
DIMSTYLE
105
27
330
A
100
AcDbSymbolTableRecord
100
AcDbDimStyleTableRecord
  2
ISO-25
 70
     0
  3

  4

  5

  6

  7

 40
1.0
 41
2.5
 42
0.625
 43
3.75
 44
1.25
 45
0.0
 46
0.0
 47
0.0
 48
0.0
140
2.5
141
2.5
142
0.0
143
0.03937007874016
144
1.0
145
0.0
146
1.0
147
0.625
 71
     0
 72
     0
 73
     0
 74
     0
 75
     0
 76
     0
 77
     1
 78
     8
170
     0
171
     3
172
     1
173
     0
174
     0
175
     0
176
     0
177
     0
178
     0
270
     2
271
     2
272
     2
273
     2
274
     3
340
11
275
     0
280
     0
281
     0
282
     0
283
     0
284
     8
285
     0
286
     0
287
     3
288
     0
  0
ENDTAB
  0
TABLE
  2
BLOCK_RECORD
  5
1
330
0
100
AcDbSymbolTable
 70
     1
  0
BLOCK_RECORD
  5
1F
330
1
100
AcDbSymbolTableRecord
100
AcDbBlockTableRecord
  2
*MODEL_SPACE
  0
BLOCK_RECORD
  5
1B
330
1
100
AcDbSymbolTableRecord
100
AcDbBlockTableRecord
  2
*PAPER_SPACE
  0
ENDTAB
  0
ENDSEC
  0
SECTION
  2
BLOCKS
  0
BLOCK
  5
20
330
1F
100
AcDbEntity
  8
0
100
AcDbBlockBegin
  2
*MODEL_SPACE
 70
     0
 10
0.0
 20
0.0
 30
0.0
  3
*MODEL_SPACE
  1

  0
ENDBLK
  5
21
330
1F
100
AcDbEntity
  8
0
100
AcDbBlockEnd
  0
BLOCK
  5
1C
330
1B
100
AcDbEntity
 67
     1
  8
0
100
AcDbBlockBegin
  2
*PAPER_SPACE
  1

  0
ENDBLK
  5
1D
330
1B
100
AcDbEntity
 67
     1
  8
0
100
AcDbBlockEnd
  0
ENDSEC
  0
SECTION
  2
ENTITIES
  0
LINE
  5
100
100
AcDbEntity
  8
0
 62
1
100
AcDbLine
 10
46.161342
 20
148.316885
 30
0.0
 11
9.926090
 21
198.190431
 31
0.0
  0
LINE
  5
101
100
AcDbEntity
  8
0
 62
1
100
AcDbLine
 10
68.555963
 20
179.140429
 30
0.0
 11
9.926095
 21
198.190431
 31
0.0
  0
LINE
  5
102
100
AcDbEntity
  8
0
 62
1
100
AcDbLine
 10
9.926090
 20
188.850445
 30
0.0
 11
9.926090
 21
165.726880
 31
0.0
  0
LINE
  5
103
100
AcDbEntity
  8
0
 62
5
100
AcDbLine
 10
16.499725
 20
177.958866
 30
0.0
 11
16.499725
 21
145.761428
 31
0.0
  0
LINE
  5
104
100
AcDbEntity
  8
0
 62
5
100
AcDbLine
 10
16.499725
 20
145.761428
 30
0.0
 11
35.424903
 21
151.910590
 31
0.0
  0
LINE
  5
105
100
AcDbEntity
  8
0
 62
5
100
AcDbLine
 10
35.424903
 20
151.910590
 30
0.0
 11
16.499725
 21
177.958866
 31
0.0
  0
LINE
  5
106
100
AcDbEntity
  8
0
 62
5
100
AcDbLine
 10
27.136094
 20
185.686635
 30
0.0
 11
46.061272
 21
159.638359
 31
0.0
  0
LINE
  5
107
100
AcDbEntity
  8
0
 62
5
100
AcDbLine
 10
46.061272
 20
159.638359
 30
0.0
 11
57.757675
 21
175.737080
 31
0.0
  0
LINE
  5
108
100
AcDbEntity
  8
0
 62
5
100
AcDbLine
 10
57.757675
 20
175.737080
 30
0.0
 11
27.136094
 21
185.686635
 31
0.0
  0
LINE
  5
109
100
AcDbEntity
  8
0
 62
5
100
AcDbLine
 10
31.198820
 20
198.190431
 30
0.0
 11
61.820402
 21
188.240876
 31
0.0
  0
LINE
  5
10a
100
AcDbEntity
  8
0
 62
5
100
AcDbLine
 10
61.820402
 20
188.240876
 30
0.0
 11
61.820400
 21
208.139987
 31
0.0
  0
LINE
  5
10b
100
AcDbEntity
  8
0
 62
5
100
AcDbLine
 10
61.820400
 20
208.139987
 30
0.0
 11
31.198820
 21
198.190431
 31
0.0
  0
LINE
  5
10c
100
AcDbEntity
  8
0
 62
5
100
AcDbLine
 10
9.926087
 20
136.543339
 30
0.0
 11
9.926090
 21
142.077838
 31
0.0
  0
LINE
  5
10d
100
AcDbEntity
  8
0
 62
5
100
AcDbLine
 10
9.926090
 20
142.077838
 30
0.0
 11
4.281603
 21
147.722325
 31
0.0
  0
LINE
  5
10e
100
AcDbEntity
  8
0
 62
5
100
AcDbLine
 10
4.281603
 20
147.722325
 30
0.0
 11
4.281603
 21
187.244022
 31
0.0
  0
LINE
  5
10f
100
AcDbEntity
  8
0
 62
5
100
AcDbLine
 10
4.281603
 20
187.244022
 30
0.0
 11
9.926090
 21
192.888509
 31
0.0
  0
LINE
  5
110
100
AcDbEntity
  8
0
 62
5
100
AcDbLine
 10
9.926090
 20
192.888509
 30
0.0
 11
9.926095
 21
198.190431
 31
0.0
  0
LINE
  5
111
100
AcDbEntity
  8
0
 62
5
100
AcDbLine
 10
118.820430
 20
217.187777
 30
0.0
 11
126.059430
 21
209.567777
 31
0.0
  0
LINE
  5
112
100
AcDbEntity
  8
0
 62
5
100
AcDbLine
 10
126.059430
 20
209.567777
 30
0.0
 11
126.059430
 21
186.707777
 31
0.0
  0
LINE
  5
113
100
AcDbEntity
  8
0
 62
5
100
AcDbLine
 10
126.059430
 20
186.707777
 30
0.0
 11
118.820430
 21
179.087777
 31
0.0
  0
LINE
  5
114
100
AcDbEntity
  8
0
 62
5
100
AcDbLine
 10
117.677430
 20
206.519777
 30
0.0
 11
119.582430
 21
204.995777
 31
0.0
  0
LINE
  5
115
100
AcDbEntity
  8
0
 62
5
100
AcDbLine
 10
119.582430
 20
204.995777
 30
0.0
 11
119.582430
 21
191.279777
 31
0.0
  0
LINE
  5
116
100
AcDbEntity
  8
0
 62
5
100
AcDbLine
 10
119.582430
 20
191.279777
 30
0.0
 11
117.677430
 21
189.755777
 31
0.0
  0
LINE
  5
117
100
AcDbEntity
  8
0
 62
1
100
AcDbLine
 10
118.820430
 20
217.187777
 30
0.0
 11
118.820430
 21
206.519777
 31
0.0
  0
LINE
  5
118
100
AcDbEntity
  8
0
 62
1
100
AcDbLine
 10
118.820430
 20
179.087777
 30
0.0
 11
118.820430
 21
189.755777
 31
0.0
  0
LINE
  5
119
100
AcDbEntity
  8
0
 62
5
100
AcDbLine
 10
76.843120
 20
267.282004
 30
0.0
 11
87.178518
 21
265.372271
 31
0.0
  0
LINE
  5
11a
100
AcDbEntity
  8
0
 62
5
100
AcDbLine
 10
87.178518
 20
265.372271
 30
0.0
 11
100.615287
 21
246.878145
 31
0.0
  0
LINE
  5
11b
100
AcDbEntity
  8
0
 62
5
100
AcDbLine
 10
100.615287
 20
246.878145
 30
0.0
 11
99.237738
 21
236.458458
 31
0.0
  0
LINE
  5
11c
100
AcDbEntity
  8
0
 62
5
100
AcDbLine
 10
82.188905
 20
257.979573
 30
0.0
 11
84.625869
 21
257.866363
 31
0.0
  0
LINE
  5
11d
100
AcDbEntity
  8
0
 62
5
100
AcDbLine
 10
84.625869
 20
257.866363
 30
0.0
 11
92.687930
 21
246.769884
 31
0.0
  0
LINE
  5
11e
100
AcDbEntity
  8
0
 62
5
100
AcDbLine
 10
92.687930
 20
246.769884
 30
0.0
 11
92.042539
 21
244.417212
 31
0.0
  0
LINE
  5
11f
100
AcDbEntity
  8
0
 62
1
100
AcDbLine
 10
76.843120
 20
267.282004
 30
0.0
 11
83.113612
 21
258.651412
 31
0.0
  0
LINE
  5
120
100
AcDbEntity
  8
0
 62
1
100
AcDbLine
 10
99.237738
 20
236.458458
 30
0.0
 11
92.967246
 21
245.089051
 31
0.0
  0
LINE
  5
121
100
AcDbEntity
  8
0
 62
5
100
AcDbLine
 10
86.353975
 20
226.511471
 30
0.0
 11
78.515859
 21
237.299712
 31
0.0
  0
LINE
  5
122
100
AcDbEntity
  8
0
 62
5
100
AcDbLine
 10
78.515859
 20
237.299712
 30
0.0
 11
79.132328
 21
237.747604
 31
0.0
  0
LINE
  5
123
100
AcDbEntity
  8
0
 62
5
100
AcDbLine
 10
79.132328
 20
237.747604
 30
0.0
 11
80.476005
 21
235.898190
 31
0.0
  0
SPLINE
  5
124
100
AcDbEntity
  8
0
 62
5
100
AcDbSpline
 70
0
 71
3
 72
10
 73
6
 74
4
 40
0.000000
 40
0.000000
 40
0.000000
 40
0.000000
 40
0.863435
 40
2.845431
 40
5.199408
 40
5.199408
 40
5.199408
 40
5.199408
 10
80.476005
 20
235.898190
 30
0.0
 10
80.673756
 20
236.106708
 30
0.0
 10
81.325438
 20
236.793875
 30
0.0
 10
82.361170
 20
238.230073
 30
0.0
 10
82.665783
 20
239.659130
 30
0.0
 10
82.831155
 20
240.434958
 30
0.0
 11
80.476005
 21
235.898190
 31
0.0
 11
81.061442
 21
236.532843
 31
0.0
 11
82.170245
 21
238.175665
 31
0.0
 11
82.831155
 21
240.434958
 31
0.0
  0
SPLINE
  5
125
100
AcDbEntity
  8
0
 62
5
100
AcDbSpline
 70
0
 71
3
 72
10
 73
6
 74
4
 40
0.000000
 40
0.000000
 40
0.000000
 40
0.000000
 40
3.946776
 40
8.095443
 40
12.042217
 40
12.042217
 40
12.042217
 40
12.042217
 10
82.831155
 20
240.434958
 30
0.0
 10
82.628231
 20
241.746226
 30
0.0
 10
82.212001
 20
244.435838
 30
0.0
 10
79.726502
 20
247.856834
 30
0.0
 10
77.297151
 20
249.083826
 30
0.0
 10
76.112768
 20
249.682023
 30
0.0
 11
82.831155
 21
240.434958
 31
0.0
 11
81.924166
 21
244.276105
 31
0.0
 11
79.485640
 21
247.632447
 31
0.0
 11
76.112768
 21
249.682023
 31
0.0
  0
LINE
  5
126
100
AcDbEntity
  8
0
 62
5
100
AcDbLine
 10
71.070267
 20
248.844082
 30
0.0
 11
72.413944
 21
246.994669
 31
0.0
  0
LINE
  5
127
100
AcDbEntity
  8
0
 62
5
100
AcDbLine
 10
72.413944
 20
246.994669
 30
0.0
 11
71.797472
 21
246.546776
 31
0.0
  0
LINE
  5
128
100
AcDbEntity
  8
0
 62
5
100
AcDbLine
 10
71.797472
 20
246.546776
 30
0.0
 11
63.959356
 21
257.335017
 31
0.0
  0
LINE
  5
129
100
AcDbEntity
  8
0
 62
1
100
AcDbLine
 10
76.948236
 20
239.457360
 30
0.0
 11
73.365095
 21
244.389128
 31
0.0
  0
LINE
  5
12a
100
AcDbEntity
  8
0
 62
5
100
AcDbLine
 10
18.466397
 20
284.169424
 30
0.0
 11
27.950421
 21
288.699413
 31
0.0
  0
LINE
  5
12b
100
AcDbEntity
  8
0
 62
5
100
AcDbLine
 10
27.950421
 20
288.699413
 30
0.0
 11
49.691572
 21
281.635285
 31
0.0
  0
LINE
  5
12c
100
AcDbEntity
  8
0
 62
5
100
AcDbLine
 10
49.691572
 20
281.635285
 30
0.0
 11
54.701649
 21
272.395877
 31
0.0
  0
LINE
  5
12d
100
AcDbEntity
  8
0
 62
5
100
AcDbLine
 10
28.259061
 20
279.785774
 30
0.0
 11
30.297148
 21
281.126594
 31
0.0
  0
LINE
  5
12e
100
AcDbEntity
  8
0
 62
5
100
AcDbLine
 10
30.297148
 20
281.126594
 30
0.0
 11
43.341840
 21
276.888118
 31
0.0
  0
LINE
  5
12f
100
AcDbEntity
  8
0
 62
5
100
AcDbLine
 10
43.341840
 20
276.888118
 30
0.0
 11
44.202573
 21
274.605414
 31
0.0
  0
LINE
  5
130
100
AcDbEntity
  8
0
 62
1
100
AcDbLine
 10
18.466397
 20
284.169424
 30
0.0
 11
28.612267
 21
280.872831
 31
0.0
  0
LINE
  5
131
100
AcDbEntity
  8
0
 62
1
100
AcDbLine
 10
54.701649
 20
272.395877
 30
0.0
 11
44.555780
 21
275.692469
 31
0.0
  0
LINE
  5
132
100
AcDbEntity
  8
0
 62
5
100
AcDbLine
 10
50.125159
 20
256.775706
 30
0.0
 11
37.442820
 21
260.896447
 31
0.0
  0
LINE
  5
133
100
AcDbEntity
  8
0
 62
5
100
AcDbLine
 10
37.442820
 20
260.896447
 30
0.0
 11
37.678292
 21
261.621151
 31
0.0
  0
LINE
  5
134
100
AcDbEntity
  8
0
 62
5
100
AcDbLine
 10
37.678292
 20
261.621151
 30
0.0
 11
39.852405
 21
260.914741
 31
0.0
  0
SPLINE
  5
135
100
AcDbEntity
  8
0
 62
5
100
AcDbSpline
 70
0
 71
3
 72
10
 73
6
 74
4
 40
0.000000
 40
0.000000
 40
0.000000
 40
0.000000
 40
2.353976
 40
4.335971
 40
5.199405
 40
5.199405
 40
5.199405
 40
5.199405
 10
76.112768
 20
249.682023
 30
0.0
 10
75.323809
 20
249.764488
 30
0.0
 10
73.870565
 20
249.916387
 30
0.0
 10
72.184602
 20
249.375158
 30
0.0
 10
71.329687
 20
248.967718
 30
0.0
 10
71.070267
 20
248.844082
 30
0.0
 11
76.112768
 21
249.682023
 31
0.0
 11
73.759821
 21
249.751619
 31
0.0
 11
71.854766
 21
249.204746
 31
0.0
 11
71.070267
 21
248.844082
 31
0.0
  0
SPLINE
  5
136
100
AcDbEntity
  8
0
 62
5
100
AcDbSpline
 70
0
 71
3
 72
10
 73
6
 74
4
 40
0.000000
 40
0.000000
 40
0.000000
 40
0.000000
 40
0.863434
 40
2.845429
 40
5.199406
 40
5.199406
 40
5.199406
 40
5.199406
 10
39.852405
 20
260.914741
 30
0.0
 10
39.889825
 20
261.199670
 30
0.0
 10
40.013141
 20
262.138648
 30
0.0
 10
40.006889
 20
263.909344
 30
0.0
 10
39.413347
 20
265.244522
 30
0.0
 10
39.091116
 20
265.969383
 30
0.0
 11
39.852405
 21
260.914741
 31
0.0
 11
39.952994
 21
261.772295
 31
0.0
 11
39.884408
 21
263.753104
 31
0.0
 11
39.091116
 21
265.969383
 31
0.0
  0
SPLINE
  5
137
100
AcDbEntity
  8
0
 62
5
100
AcDbSpline
 70
0
 71
3
 72
10
 73
6
 74
4
 40
0.000000
 40
0.000000
 40
0.000000
 40
0.000000
 40
3.946774
 40
8.095441
 40
12.042216
 40
12.042216
 40
12.042216
 40
12.042216
 10
39.091116
 20
265.969383
 30
0.0
 10
38.156204
 20
266.910945
 30
0.0
 10
36.238553
 20
268.842233
 30
0.0
 10
32.216932
 20
270.148937
 30
0.0
 10
29.530337
 20
269.713659
 30
0.0
 10
28.220540
 20
269.501448
 30
0.0
 11
39.091116
 21
265.969383
 31
0.0
 11
36.099579
 21
268.543821
 31
0.0
 11
32.153962
 21
269.825829
 31
0.0
 11
28.220540
 21
269.501448
 31
0.0
  0
LINE
  5
138
100
AcDbEntity
  8
0
 62
5
100
AcDbLine
 10
24.633600
 20
265.859630
 30
0.0
 11
26.807715
 21
265.153216
 31
0.0
  0
LINE
  5
139
100
AcDbEntity
  8
0
 62
5
100
AcDbLine
 10
26.807715
 20
265.153216
 30
0.0
 11
26.572244
 21
264.428512
 31
0.0
  0
LINE
  5
13a
100
AcDbEntity
  8
0
 62
5
100
AcDbLine
 10
26.572244
 20
264.428512
 30
0.0
 11
13.889905
 21
268.549253
 31
0.0
  0
LINE
  5
13b
100
AcDbEntity
  8
0
 62
1
100
AcDbLine
 10
34.906354
 20
261.720595
 30
0.0
 11
29.108710
 21
263.604364
 31
0.0
  0
LINE
  5
13c
100
AcDbEntity
  8
0
 62
5
100
AcDbLine
 10
97.144865
 20
161.571161
 30
0.0
 11
98.522415
 21
151.151474
 31
0.0
  0
LINE
  5
13d
100
AcDbEntity
  8
0
 62
5
100
AcDbLine
 10
98.522415
 20
151.151474
 30
0.0
 11
85.085645
 21
132.657348
 31
0.0
  0
LINE
  5
13e
100
AcDbEntity
  8
0
 62
5
100
AcDbLine
 10
85.085645
 20
132.657348
 30
0.0
 11
74.750247
 21
130.747615
 31
0.0
  0
LINE
  5
13f
100
AcDbEntity
  8
0
 62
5
100
AcDbLine
 10
89.949666
 20
153.612407
 30
0.0
 11
90.595058
 21
151.259735
 31
0.0
  0
LINE
  5
140
100
AcDbEntity
  8
0
 62
5
100
AcDbLine
 10
90.595058
 20
151.259735
 30
0.0
 11
82.532996
 21
140.163256
 31
0.0
  0
LINE
  5
141
100
AcDbEntity
  8
0
 62
5
100
AcDbLine
 10
82.532996
 20
140.163256
 30
0.0
 11
80.096033
 21
140.050046
 31
0.0
  0
LINE
  5
142
100
AcDbEntity
  8
0
 62
1
100
AcDbLine
 10
97.144865
 20
161.571161
 30
0.0
 11
90.874373
 21
152.940568
 31
0.0
  0
LINE
  5
143
100
AcDbEntity
  8
0
 62
1
100
AcDbLine
 10
74.750247
 20
130.747615
 30
0.0
 11
81.020739
 21
139.378207
 31
0.0
  0
LINE
  5
144
100
AcDbEntity
  8
0
 62
5
100
AcDbLine
 10
61.308798
 20
139.927014
 30
0.0
 11
69.146914
 21
150.715255
 31
0.0
  0
LINE
  5
145
100
AcDbEntity
  8
0
 62
5
100
AcDbLine
 10
69.146914
 20
150.715255
 30
0.0
 11
69.763386
 21
150.267362
 31
0.0
  0
LINE
  5
146
100
AcDbEntity
  8
0
 62
5
100
AcDbLine
 10
69.763386
 20
150.267362
 30
0.0
 11
68.419709
 21
148.417949
 31
0.0
  0
SPLINE
  5
147
100
AcDbEntity
  8
0
 62
5
100
AcDbSpline
 70
0
 71
3
 72
10
 73
6
 74
4
 40
0.000000
 40
0.000000
 40
0.000000
 40
0.000000
 40
2.353977
 40
4.335973
 40
5.199407
 40
5.199407
 40
5.199407
 40
5.199407
 10
28.220540
 20
269.501448
 30
0.0
 10
27.533787
 20
269.104425
 30
0.0
 10
26.268804
 20
268.373119
 30
0.0
 10
25.222957
 20
266.944270
 30
0.0
 10
24.770804
 20
266.112137
 30
0.0
 10
24.633600
 20
265.859630
 30
0.0
 11
28.220540
 21
269.501448
 31
0.0
 11
26.276058
 21
268.174725
 31
0.0
 11
25.056280
 21
266.612531
 31
0.0
 11
24.633600
 21
265.859630
 31
0.0
  0
SPLINE
  5
148
100
AcDbEntity
  8
0
 62
5
100
AcDbSpline
 70
0
 71
3
 72
10
 73
6
 74
4
 40
0.000000
 40
0.000000
 40
0.000000
 40
0.000000
 40
0.863433
 40
2.845429
 40
5.199405
 40
5.199405
 40
5.199405
 40
5.199405
 10
68.419709
 20
148.417949
 30
0.0
 10
68.679129
 20
148.294313
 30
0.0
 10
69.534044
 20
147.886873
 30
0.0
 10
71.220008
 20
147.345645
 30
0.0
 10
72.673252
 20
147.497543
 30
0.0
 10
73.462210
 20
147.580009
 30
0.0
 11
68.419709
 21
148.417949
 31
0.0
 11
69.204208
 21
148.057285
 31
0.0
 11
71.109263
 21
147.510412
 31
0.0
 11
73.462210
 21
147.580009
 31
0.0
  0
SPLINE
  5
149
100
AcDbEntity
  8
0
 62
5
100
AcDbSpline
 70
0
 71
3
 72
10
 73
6
 74
4
 40
0.000000
 40
0.000000
 40
0.000000
 40
0.000000
 40
3.946775
 40
8.095442
 40
12.042217
 40
12.042217
 40
12.042217
 40
12.042217
 10
73.462210
 20
147.580009
 30
0.0
 10
74.646593
 20
148.178205
 30
0.0
 10
77.075944
 20
149.405197
 30
0.0
 10
79.561443
 20
152.826193
 30
0.0
 10
79.977673
 20
155.515805
 30
0.0
 10
80.180598
 20
156.827073
 30
0.0
 11
73.462210
 21
147.580009
 31
0.0
 11
76.835083
 21
149.629584
 31
0.0
 11
79.273608
 21
152.985926
 31
0.0
 11
80.180598
 21
156.827073
 31
0.0
  0
LINE
  5
14a
100
AcDbEntity
  8
0
 62
5
100
AcDbLine
 10
77.825448
 20
161.363841
 30
0.0
 11
76.481771
 21
159.514427
 31
0.0
  0
LINE
  5
14b
100
AcDbEntity
  8
0
 62
5
100
AcDbLine
 10
76.481771
 20
159.514427
 30
0.0
 11
75.865301
 21
159.962319
 31
0.0
  0
LINE
  5
14c
100
AcDbEntity
  8
0
 62
5
100
AcDbLine
 10
75.865301
 20
159.962319
 30
0.0
 11
83.703417
 21
170.750560
 31
0.0
  0
LINE
  5
14d
100
AcDbEntity
  8
0
 62
1
100
AcDbLine
 10
70.714537
 20
152.872903
 30
0.0
 11
74.297678
 21
157.804671
 31
0.0
  0
LINE
  5
14e
100
AcDbEntity
  8
0
 62
5
100
AcDbLine
 10
56.997498
 20
124.342449
 30
0.0
 11
51.987422
 21
115.103041
 31
0.0
  0
LINE
  5
14f
100
AcDbEntity
  8
0
 62
5
100
AcDbLine
 10
51.987422
 20
115.103041
 30
0.0
 11
30.246269
 21
108.038914
 31
0.0
  0
LINE
  5
150
100
AcDbEntity
  8
0
 62
5
100
AcDbLine
 10
30.246269
 20
108.038914
 30
0.0
 11
20.762245
 21
112.568903
 31
0.0
  0
LINE
  5
151
100
AcDbEntity
  8
0
 62
5
100
AcDbLine
 10
46.498420
 20
122.132914
 30
0.0
 11
45.637687
 21
119.850208
 31
0.0
  0
LINE
  5
152
100
AcDbEntity
  8
0
 62
5
100
AcDbLine
 10
45.637687
 20
119.850208
 30
0.0
 11
32.592998
 21
115.611732
 31
0.0
  0
LINE
  5
153
100
AcDbEntity
  8
0
 62
5
100
AcDbLine
 10
32.592998
 20
115.611732
 30
0.0
 11
30.554910
 21
116.952553
 31
0.0
  0
LINE
  5
154
100
AcDbEntity
  8
0
 62
1
100
AcDbLine
 10
56.997498
 20
124.342449
 30
0.0
 11
46.851626
 21
121.045856
 31
0.0
  0
LINE
  5
155
100
AcDbEntity
  8
0
 62
1
100
AcDbLine
 10
20.762245
 20
112.568903
 30
0.0
 11
30.908117
 21
115.865495
 31
0.0
  0
LINE
  5
156
100
AcDbEntity
  8
0
 62
5
100
AcDbLine
 10
15.283399
 20
127.895878
 30
0.0
 11
27.965737
 21
132.016619
 31
0.0
  0
LINE
  5
157
100
AcDbEntity
  8
0
 62
5
100
AcDbLine
 10
27.965737
 20
132.016619
 30
0.0
 11
28.201208
 21
131.291914
 31
0.0
  0
LINE
  5
158
100
AcDbEntity
  8
0
 62
5
100
AcDbLine
 10
28.201208
 20
131.291914
 30
0.0
 11
26.027093
 21
130.585501
 31
0.0
  0
SPLINE
  5
159
100
AcDbEntity
  8
0
 62
5
100
AcDbSpline
 70
0
 71
3
 72
10
 73
6
 74
4
 40
0.000000
 40
0.000000
 40
0.000000
 40
0.000000
 40
2.353977
 40
4.335973
 40
5.199408
 40
5.199408
 40
5.199408
 40
5.199408
 10
80.180598
 20
156.827073
 30
0.0
 10
80.015225
 20
157.602901
 30
0.0
 10
79.710612
 20
159.031958
 30
0.0
 10
78.674880
 20
160.468156
 30
0.0
 10
78.023198
 20
161.155323
 30
0.0
 10
77.825448
 20
161.363841
 30
0.0
 11
80.180598
 21
156.827073
 31
0.0
 11
79.519687
 21
159.086366
 31
0.0
 11
78.410884
 21
160.729188
 31
0.0
 11
77.825448
 21
161.363841
 31
0.0
  0
SPLINE
  5
15a
100
AcDbEntity
  8
0
 62
5
100
AcDbSpline
 70
0
 71
3
 72
10
 73
6
 74
4
 40
0.000000
 40
0.000000
 40
0.000000
 40
0.000000
 40
0.863434
 40
2.845430
 40
5.199408
 40
5.199408
 40
5.199408
 40
5.199408
 10
26.027093
 20
130.585501
 30
0.0
 10
26.164297
 20
130.332993
 30
0.0
 10
26.616451
 20
129.500861
 30
0.0
 10
27.662298
 20
128.072012
 30
0.0
 10
28.927282
 20
127.340705
 30
0.0
 10
29.614035
 20
126.943683
 30
0.0
 11
26.027093
 21
130.585501
 31
0.0
 11
26.449773
 21
129.832600
 31
0.0
 11
27.669551
 21
128.270405
 31
0.0
 11
29.614035
 21
126.943683
 31
0.0
  0
SPLINE
  5
15b
100
AcDbEntity
  8
0
 62
5
100
AcDbSpline
 70
0
 71
3
 72
10
 73
6
 74
4
 40
0.000000
 40
0.000000
 40
0.000000
 40
0.000000
 40
3.946773
 40
8.095440
 40
12.042216
 40
12.042216
 40
12.042216
 40
12.042216
 10
29.614035
 20
126.943683
 30
0.0
 10
30.923831
 20
126.731471
 30
0.0
 10
33.610425
 20
126.296194
 30
0.0
 10
37.632046
 20
127.602898
 30
0.0
 10
39.549698
 20
129.534186
 30
0.0
 10
40.484611
 20
130.475747
 30
0.0
 11
29.614035
 21
126.943683
 31
0.0
 11
33.547455
 21
126.619301
 31
0.0
 11
37.493072
 21
127.901310
 31
0.0
 11
40.484611
 21
130.475747
 31
0.0
  0
LINE
  5
15c
100
AcDbEntity
  8
0
 62
5
100
AcDbLine
 10
41.245900
 20
135.530390
 30
0.0
 11
39.071784
 21
134.823979
 31
0.0
  0
LINE
  5
15d
100
AcDbEntity
  8
0
 62
5
100
AcDbLine
 10
39.071784
 20
134.823979
 30
0.0
 11
38.836312
 21
135.548683
 31
0.0
  0
LINE
  5
15e
100
AcDbEntity
  8
0
 62
5
100
AcDbLine
 10
38.836312
 20
135.548683
 30
0.0
 11
51.518651
 21
139.669424
 31
0.0
  0
LINE
  5
15f
100
AcDbEntity
  8
0
 62
1
100
AcDbLine
 10
30.502205
 20
132.840767
 30
0.0
 11
36.299846
 21
134.724535
 31
0.0
  0
LINE
  5
160
100
AcDbEntity
  8
0
 62
5
100
AcDbLine
 10
11.069087
 20
147.211339
 30
0.0
 11
9.164087
 21
148.735339
 31
0.0
  0
LINE
  5
161
100
AcDbEntity
  8
0
 62
5
100
AcDbLine
 10
9.164087
 20
148.735339
 30
0.0
 11
9.164088
 21
162.451339
 31
0.0
  0
LINE
  5
162
100
AcDbEntity
  8
0
 62
5
100
AcDbLine
 10
9.164088
 20
162.451339
 30
0.0
 11
11.069088
 21
163.975339
 31
0.0
  0
LINE
  5
163
100
AcDbEntity
  8
0
 62
5
100
AcDbLine
 10
9.926093
 20
259.837521
 30
0.0
 11
9.926092
 21
246.502521
 31
0.0
  0
LINE
  5
164
100
AcDbEntity
  8
0
 62
5
100
AcDbLine
 10
9.926092
 20
246.502521
 30
0.0
 11
9.164092
 21
246.502521
 31
0.0
  0
LINE
  5
165
100
AcDbEntity
  8
0
 62
5
100
AcDbLine
 10
9.164092
 20
246.502521
 30
0.0
 11
9.164092
 21
248.788521
 31
0.0
  0
SPLINE
  5
166
100
AcDbEntity
  8
0
 62
5
100
AcDbSpline
 70
0
 71
3
 72
10
 73
6
 74
4
 40
0.000000
 40
0.000000
 40
0.000000
 40
0.000000
 40
2.353977
 40
4.335972
 40
5.199406
 40
5.199406
 40
5.199406
 40
5.199406
 10
40.484611
 20
130.475747
 30
0.0
 10
40.806842
 20
131.200609
 30
0.0
 10
41.400384
 20
132.535787
 30
0.0
 10
41.406635
 20
134.306482
 30
0.0
 10
41.283320
 20
135.245461
 30
0.0
 10
41.245900
 20
135.530390
 30
0.0
 11
40.484611
 21
130.475747
 31
0.0
 11
41.277903
 21
132.692027
 31
0.0
 11
41.346489
 21
134.672835
 31
0.0
 11
41.245900
 21
135.530390
 31
0.0
  0
SPLINE
  5
167
100
AcDbEntity
  8
0
 62
5
100
AcDbSpline
 70
0
 71
3
 72
10
 73
6
 74
4
 40
0.000000
 40
0.000000
 40
0.000000
 40
0.000000
 40
0.740628
 40
2.506048
 40
4.973445
 40
4.973445
 40
4.973445
 40
4.973445
 10
9.164092
 20
248.788521
 30
0.0
 10
8.920781
 20
248.748043
 30
0.0
 10
8.097492
 20
248.611076
 30
0.0
 10
6.532186
 20
247.875404
 30
0.0
 10
5.741850
 20
246.673244
 30
0.0
 10
5.281146
 20
245.972480
 30
0.0
 11
9.164092
 21
248.788521
 31
0.0
 11
8.437176
 21
248.646671
 31
0.0
 11
6.847382
 21
247.879035
 31
0.0
 11
5.281146
 21
245.972480
 31
0.0
  0
SPLINE
  5
168
100
AcDbEntity
  8
0
 62
5
100
AcDbSpline
 70
0
 71
3
 72
10
 73
6
 74
4
 40
0.000000
 40
0.000000
 40
0.000000
 40
0.000000
 40
3.929678
 40
7.122307
 40
10.806771
 40
10.806771
 40
10.806771
 40
10.806771
 10
5.281146
 20
245.972480
 30
0.0
 10
5.078288
 20
244.677106
 30
0.0
 10
4.710621
 20
242.329320
 30
0.0
 10
4.697633
 20
238.708601
 30
0.0
 10
5.077583
 20
236.444530
 30
0.0
 10
5.281145
 20
235.231534
 30
0.0
 11
5.281146
 21
245.972480
 31
0.0
 11
4.781892
 21
242.074645
 31
0.0
 11
4.781892
 21
238.882016
 31
0.0
 11
5.281145
 21
235.231534
 31
0.0
  0
LINE
  5
169
100
AcDbEntity
  8
0
 62
5
100
AcDbLine
 10
9.164092
 20
232.786521
 30
0.0
 11
9.164092
 21
235.072521
 31
0.0
  0
LINE
  5
16a
100
AcDbEntity
  8
0
 62
5
100
AcDbLine
 10
9.164092
 20
235.072521
 30
0.0
 11
9.926092
 21
235.072521
 31
0.0
  0
LINE
  5
16b
100
AcDbEntity
  8
0
 62
5
100
AcDbLine
 10
9.926092
 20
235.072521
 30
0.0
 11
9.926090
 21
198.190431
 31
0.0
  0
SPLINE
  5
16c
100
AcDbEntity
  8
0
 62
5
100
AcDbSpline
 70
0
 71
3
 72
10
 73
6
 74
4
 40
0.000000
 40
0.000000
 40
0.000000
 40
0.000000
 40
2.125664
 40
3.936583
 40
4.760038
 40
4.760038
 40
4.760038
 40
4.760038
 10
5.281145
 20
235.231534
 30
0.0
 10
5.697627
 20
234.636530
 30
0.0
 10
6.468922
 20
233.534625
 30
0.0
 10
8.031454
 20
232.976331
 30
0.0
 10
8.894363
 20
232.831723
 30
0.0
 10
9.164092
 20
232.786521
 30
0.0
 11
5.281145
 21
235.231534
 31
0.0
 11
6.682480
 21
233.633188
 31
0.0
 11
8.354724
 21
232.938186
 31
0.0
 11
9.164092
 21
232.786521
 31
0.0
  0
LINE
  5
16d
100
AcDbEntity
  8
0
 62
5
100
AcDbLine
 10
95.710719
 20
183.994823
 30
0.0
 11
95.710719
 21
197.329823
 31
0.0
  0
LINE
  5
16e
100
AcDbEntity
  8
0
 62
5
100
AcDbLine
 10
95.710719
 20
197.329823
 30
0.0
 11
96.472719
 21
197.329823
 31
0.0
  0
LINE
  5
16f
100
AcDbEntity
  8
0
 62
5
100
AcDbLine
 10
96.472719
 20
197.329823
 30
0.0
 11
96.472719
 21
195.043823
 31
0.0
  0
SPLINE
  5
170
100
AcDbEntity
  8
0
 62
1
100
AcDbSpline
 70
0
 71
3
 72
10
 73
6
 74
4
 40
0.000000
 40
0.000000
 40
0.000000
 40
0.000000
 40
1.950278
 40
2.668801
 40
2.771448
 40
2.771448
 40
2.771448
 40
2.771448
 10
9.926090
 20
138.446406
 30
0.0
 10
9.926090
 20
137.796313
 30
0.0
 10
9.926090
 20
136.906712
 30
0.0
 10
9.926090
 20
135.982897
 30
0.0
 10
9.926090
 20
135.709173
 30
0.0
 10
9.926090
 20
135.674958
 30
0.0
 11
9.926090
 21
138.446406
 31
0.0
 11
9.926090
 21
136.496128
 31
0.0
 11
9.926090
 21
135.777604
 31
0.0
 11
9.926090
 21
135.674958
 31
0.0
  0
SPLINE
  5
171
100
AcDbEntity
  8
0
 62
5
100
AcDbSpline
 70
0
 71
3
 72
10
 73
6
 74
4
 40
0.000000
 40
0.000000
 40
0.000000
 40
0.000000
 40
0.863434
 40
2.845430
 40
5.199407
 40
5.199407
 40
5.199407
 40
5.199407
 10
96.472719
 20
195.043823
 30
0.0
 10
96.755266
 20
195.096283
 30
0.0
 10
97.686394
 20
195.269163
 30
0.0
 10
99.368495
 20
195.822284
 30
0.0
 10
100.454910
 20
196.799369
 30
0.0
 10
101.044719
 20
197.329823
 30
0.0
 11
96.472719
 21
195.043823
 31
0.0
 11
97.319386
 21
195.213156
 31
0.0
 11
99.182053
 21
195.890490
 31
0.0
 11
101.044719
 21
197.329823
 31
0.0
  0
SPLINE
  5
172
100
AcDbEntity
  8
0
 62
5
100
AcDbSpline
 70
0
 71
3
 72
10
 73
6
 74
4
 40
0.000000
 40
0.000000
 40
0.000000
 40
0.000000
 40
3.946775
 40
8.095441
 40
12.042216
 40
12.042216
 40
12.042216
 40
12.042216
 10
101.044719
 20
197.329823
 30
0.0
 10
101.651294
 20
198.509937
 30
0.0
 10
102.895471
 20
200.930531
 30
0.0
 10
102.895471
 20
205.159114
 30
0.0
 10
101.651294
 20
207.579709
 30
0.0
 10
101.044719
 20
208.759823
 30
0.0
 11
101.044719
 21
197.329823
 31
0.0
 11
102.568719
 21
200.970490
 31
0.0
 11
102.568719
 21
205.119156
 31
0.0
 11
101.044719
 21
208.759823
 31
0.0
  0
LINE
  5
173
100
AcDbEntity
  8
0
 62
5
100
AcDbLine
 10
96.472719
 20
211.045823
 30
0.0
 11
96.472719
 21
208.759823
 31
0.0
  0
LINE
  5
174
100
AcDbEntity
  8
0
 62
5
100
AcDbLine
 10
96.472719
 20
208.759823
 30
0.0
 11
95.710719
 21
208.759823
 31
0.0
  0
LINE
  5
175
100
AcDbEntity
  8
0
 62
5
100
AcDbLine
 10
95.710719
 20
208.759823
 30
0.0
 11
95.710719
 21
222.094823
 31
0.0
  0
LINE
  5
176
100
AcDbEntity
  8
0
 62
1
100
AcDbLine
 10
95.710719
 20
199.996823
 30
0.0
 11
95.710719
 21
206.092823
 31
0.0
  0
LINE
  5
177
100
AcDbEntity
  8
0
 62
1
100
AcDbLine
 10
68.555963
 20
217.240429
 30
0.0
 11
9.926093
 21
198.190429
 31
0.0
  0
LINE
  5
178
100
AcDbEntity
  8
0
 62
1
100
AcDbLine
 10
46.161345
 20
248.063975
 30
0.0
 11
9.926093
 21
198.190429
 31
0.0
  0
LINE
  5
179
100
AcDbEntity
  8
0
 62
5
100
AcDbLine
 10
27.136088
 20
210.694225
 30
0.0
 11
57.757672
 21
220.643780
 31
0.0
  0
LINE
  5
17a
100
AcDbEntity
  8
0
 62
5
100
AcDbLine
 10
57.757672
 20
220.643780
 30
0.0
 11
46.061269
 21
236.742498
 31
0.0
  0
LINE
  5
17b
100
AcDbEntity
  8
0
 62
5
100
AcDbLine
 10
46.061269
 20
236.742498
 30
0.0
 11
27.136088
 21
210.694225
 31
0.0
  0
LINE
  5
17c
100
AcDbEntity
  8
0
 62
5
100
AcDbLine
 10
16.499728
 20
218.421994
 30
0.0
 11
35.424906
 21
244.470267
 31
0.0
  0
LINE
  5
17d
100
AcDbEntity
  8
0
 62
5
100
AcDbLine
 10
35.424906
 20
244.470267
 30
0.0
 11
16.499728
 21
250.619432
 31
0.0
  0
LINE
  5
17e
100
AcDbEntity
  8
0
 62
5
100
AcDbLine
 10
16.499728
 20
250.619432
 30
0.0
 11
16.499728
 21
218.421994
 31
0.0
  0
LINE
  5
17f
100
AcDbEntity
  8
0
 62
1
100
AcDbLine
 10
9.926092
 20
243.835521
 30
0.0
 11
9.926092
 21
237.739521
 31
0.0
  0
LINE
  5
180
100
AcDbEntity
  8
0
 62
7
100
AcDbLine
 10
54.378959
 20
250.305141
 30
0.0
 11
76.773577
 21
219.481595
 31
0.0
  0
LINE
  5
181
100
AcDbEntity
  8
0
 62
7
100
AcDbLine
 10
135.182443
 20
248.492185
 30
0.0
 11
193.812315
 21
267.542185
 31
0.0
  0
LINE
  5
182
100
AcDbEntity
  8
0
 62
7
100
AcDbLine
 10
193.812315
 20
267.542185
 30
0.0
 11
193.812315
 21
229.442185
 31
0.0
  0
LINE
  5
183
100
AcDbEntity
  8
0
 62
7
100
AcDbLine
 10
193.812315
 20
229.442185
 30
0.0
 11
135.182443
 21
248.492185
 31
0.0
  0
LINE
  5
184
100
AcDbEntity
  8
0
 62
7
100
AcDbLine
 10
156.455172
 20
248.492188
 30
0.0
 11
187.076755
 21
238.542632
 31
0.0
  0
LINE
  5
185
100
AcDbEntity
  8
0
 62
7
100
AcDbLine
 10
187.076755
 20
238.542632
 30
0.0
 11
187.076752
 21
258.441743
 31
0.0
  0
LINE
  5
186
100
AcDbEntity
  8
0
 62
7
100
AcDbLine
 10
187.076752
 20
258.441743
 30
0.0
 11
156.455172
 21
248.492188
 31
0.0
  0
SPLINE
  5
187
100
AcDbEntity
  8
0
 62
5
100
AcDbSpline
 70
0
 71
3
 72
10
 73
6
 74
4
 40
0.000000
 40
0.000000
 40
0.000000
 40
0.000000
 40
2.353977
 40
4.335973
 40
5.199407
 40
5.199407
 40
5.199407
 40
5.199407
 10
101.044719
 20
208.759823
 30
0.0
 10
100.454910
 20
209.290277
 30
0.0
 10
99.368495
 20
210.267362
 30
0.0
 10
97.686394
 20
210.820483
 30
0.0
 10
96.755266
 20
210.993363
 30
0.0
 10
96.472719
 20
211.045823
 30
0.0
 11
101.044719
 21
208.759823
 31
0.0
 11
99.182053
 21
210.199156
 31
0.0
 11
97.319386
 21
210.876490
 31
0.0
 11
96.472719
 21
211.045823
 31
0.0
  0
ENDSEC
  0
SECTION
  2
OBJECTS
  0
DICTIONARY
  5
C
330
0
100
AcDbDictionary
  3
ACAD_GROUP
350
D
  3
ACAD_MLINESTYLE
350
17
  0
DICTIONARY
  5
D
330
C
100
AcDbDictionary
  0
DICTIONARY
  5
1A
330
C
100
AcDbDictionary
  0
DICTIONARY
  5
17
330
C
100
AcDbDictionary
  3
STANDARD
350
18
  0
DICTIONARY
  5
19
330
C
100
AcDbDictionary
  0
ENDSEC
  0
EOF
