999
DXF created by Inkscape
  0
SECTION
  2
HEADER
  9
$ACADVER
  1
AC1014
  9
$HANDSEED
  5
FFFF
  9
$MEASUREMENT
 70
     1
  0
ENDSEC
  0
SECTION
  2
TABLES
  0
TABLE
  2
VPORT
  5
8
330
0
100
AcDbSymbolTable
 70
     4
  0
VPORT
  5
2E
330
8
100
AcDbSymbolTableRecord
100
AcDbViewportTableRecord
  2
*ACTIVE
 70
     0
 10
0.0
 20
0.0
 11
1.0
 21
1.0
 12
210.0
 22
148.5
 13
0.0
 23
0.0
 14
10.0
 24
10.0
 15
10.0
 25
10.0
 16
0.0
 26
0.0
 36
1.0
 17
0.0
 27
0.0
 37
0.0
 40
341.0
 41
1.24
 42
50.0
 43
0.0
 44
0.0
 50
0.0
 51
0.0
 71
     0
 72
   100
 73
     1
 74
     3
 75
     0
 76
     0
 77
     0
 78
     0
  0
ENDTAB
  0
TABLE
  2
LTYPE
  5
5
330
0
100
AcDbSymbolTable
 70
     1
  0
LTYPE
  5
14
330
5
100
AcDbSymbolTableRecord
100
AcDbLinetypeTableRecord
  2
BYBLOCK
 70
     0
  3

 72
    65
 73
     0
 40
0.0
  0
LTYPE
  5
15
330
5
100
AcDbSymbolTableRecord
100
AcDbLinetypeTableRecord
  2
BYLAYER
 70
     0
  3

 72
    65
 73
     0
 40
0.0
  0
LTYPE
  5
16
330
5
100
AcDbSymbolTableRecord
100
AcDbLinetypeTableRecord
  2
CONTINUOUS
 70
     0
  3
Solid line
 72
    65
 73
     0
 40
0.0
  0
ENDTAB
  0
TABLE
  2
LAYER
  5
2
330
0
100
AcDbSymbolTable
 70
1
  0
LAYER
  5
10
330
2
100
AcDbSymbolTableRecord
100
AcDbLayerTableRecord
  2
0
 70
     0
 62
     7
  6
CONTINUOUS
  0
ENDTAB
  0
TABLE
  2
STYLE
  5
3
330
0
100
AcDbSymbolTable
 70
     1
  0
STYLE
  5
11
330
3
100
AcDbSymbolTableRecord
100
AcDbTextStyleTableRecord
  2
STANDARD
 70
     0
 40
0.0
 41
1.0
 50
0.0
 71
     0
 42
2.5
  3
txt
  4

  0
ENDTAB
  0
TABLE
  2
VIEW
  5
6
330
0
100
AcDbSymbolTable
 70
     0
  0
ENDTAB
  0
TABLE
  2
UCS
  5
7
330
0
100
AcDbSymbolTable
 70
     0
  0
ENDTAB
  0
TABLE
  2
APPID
  5
9
330
0
100
AcDbSymbolTable
 70
     2
  0
APPID
  5
12
330
9
100
AcDbSymbolTableRecord
100
AcDbRegAppTableRecord
  2
ACAD
 70
     0
  0
ENDTAB
  0
TABLE
  2
DIMSTYLE
  5
A
330
0
100
AcDbSymbolTable
 70
     1
  0
DIMSTYLE
105
27
330
A
100
AcDbSymbolTableRecord
100
AcDbDimStyleTableRecord
  2
ISO-25
 70
     0
  3

  4

  5

  6

  7

 40
1.0
 41
2.5
 42
0.625
 43
3.75
 44
1.25
 45
0.0
 46
0.0
 47
0.0
 48
0.0
140
2.5
141
2.5
142
0.0
143
0.03937007874016
144
1.0
145
0.0
146
1.0
147
0.625
 71
     0
 72
     0
 73
     0
 74
     0
 75
     0
 76
     0
 77
     1
 78
     8
170
     0
171
     3
172
     1
173
     0
174
     0
175
     0
176
     0
177
     0
178
     0
270
     2
271
     2
272
     2
273
     2
274
     3
340
11
275
     0
280
     0
281
     0
282
     0
283
     0
284
     8
285
     0
286
     0
287
     3
288
     0
  0
ENDTAB
  0
TABLE
  2
BLOCK_RECORD
  5
1
330
0
100
AcDbSymbolTable
 70
     1
  0
BLOCK_RECORD
  5
1F
330
1
100
AcDbSymbolTableRecord
100
AcDbBlockTableRecord
  2
*MODEL_SPACE
  0
BLOCK_RECORD
  5
1B
330
1
100
AcDbSymbolTableRecord
100
AcDbBlockTableRecord
  2
*PAPER_SPACE
  0
ENDTAB
  0
ENDSEC
  0
SECTION
  2
BLOCKS
  0
BLOCK
  5
20
330
1F
100
AcDbEntity
  8
0
100
AcDbBlockBegin
  2
*MODEL_SPACE
 70
     0
 10
0.0
 20
0.0
 30
0.0
  3
*MODEL_SPACE
  1

  0
ENDBLK
  5
21
330
1F
100
AcDbEntity
  8
0
100
AcDbBlockEnd
  0
BLOCK
  5
1C
330
1B
100
AcDbEntity
 67
     1
  8
0
100
AcDbBlockBegin
  2
*PAPER_SPACE
  1

  0
ENDBLK
  5
1D
330
1B
100
AcDbEntity
 67
     1
  8
0
100
AcDbBlockEnd
  0
ENDSEC
  0
SECTION
  2
ENTITIES
  0
LINE
  5
100
100
AcDbEntity
  8
0
 62
5
100
AcDbLine
 10
199.245141
 20
165.930422
 30
0.0
 11
199.244294
 21
163.735853
 31
0.0
  0
LINE
  5
101
100
AcDbEntity
  8
0
 62
5
100
AcDbLine
 10
199.244294
 20
163.735853
 30
0.0
 11
199.749052
 21
163.735853
 31
0.0
  0
LINE
  5
102
100
AcDbEntity
  8
0
 62
5
100
AcDbLine
 10
199.749052
 20
163.735853
 30
0.0
 11
199.749052
 21
167.526747
 31
0.0
  0
LINE
  5
103
100
AcDbEntity
  8
0
 62
5
100
AcDbLine
 10
199.749052
 20
141.392097
 30
0.0
 11
199.749052
 21
145.182979
 31
0.0
  0
LINE
  5
104
100
AcDbEntity
  8
0
 62
5
100
AcDbLine
 10
199.749052
 20
145.182979
 30
0.0
 11
199.243419
 21
145.182979
 31
0.0
  0
LINE
  5
105
100
AcDbEntity
  8
0
 62
5
100
AcDbLine
 10
199.243419
 20
145.182979
 30
0.0
 11
199.244266
 21
142.988411
 31
0.0
  0
LINE
  5
106
100
AcDbEntity
  8
0
 62
5
100
AcDbLine
 10
199.245152
 20
165.930413
 30
0.0
 11
199.244588
 21
185.092072
 31
0.0
  0
LINE
  5
107
100
AcDbEntity
  8
0
 62
5
100
AcDbLine
 10
199.244709
 20
123.826753
 30
0.0
 11
199.244145
 21
142.988411
 31
0.0
  0
LINE
  5
108
100
AcDbEntity
  8
0
 62
1
100
AcDbLine
 10
199.243990
 20
159.080494
 30
0.0
 11
199.243425
 21
149.838258
 31
0.0
  0
LINE
  5
109
100
AcDbEntity
  8
0
 62
5
100
AcDbLine
 10
199.244698
 20
123.826750
 30
0.0
 11
184.391740
 21
108.973792
 31
0.0
  0
LINE
  5
10a
100
AcDbEntity
  8
0
 62
5
100
AcDbLine
 10
184.391740
 20
108.973792
 30
0.0
 11
152.832336
 21
108.973792
 31
0.0
  0
LINE
  5
10b
100
AcDbEntity
  8
0
 62
5
100
AcDbLine
 10
152.832336
 20
108.973792
 30
0.0
 11
137.979379
 21
123.826750
 31
0.0
  0
LINE
  5
10c
100
AcDbEntity
  8
0
 62
1
100
AcDbLine
 10
181.706291
 20
123.827314
 30
0.0
 11
199.244698
 21
123.826750
 31
0.0
  0
LINE
  5
10d
100
AcDbEntity
  8
0
 62
1
100
AcDbLine
 10
137.979379
 20
123.826750
 30
0.0
 11
155.571642
 21
123.827314
 31
0.0
  0
SPLINE
  5
10e
100
AcDbEntity
  8
0
 62
5
100
AcDbSpline
 70
0
 71
3
 72
16
 73
12
 74
10
 40
0.000000
 40
0.000000
 40
0.000000
 40
0.000000
 40
2.027281
 40
6.403382
 40
10.827885
 40
17.437213
 40
24.116695
 40
30.725967
 40
35.151632
 40
39.528749
 40
41.556325
 40
41.556325
 40
41.556325
 40
41.556325
 10
199.749052
 20
167.526747
 30
0.0
 10
200.418381
 20
167.431951
 30
0.0
 10
202.532529
 20
167.132529
 30
0.0
 10
206.041172
 20
166.262098
 30
0.0
 10
210.682985
 20
163.652278
 30
0.0
 10
213.105478
 20
157.792531
 30
0.0
 10
213.105793
 20
151.134356
 30
0.0
 10
210.682333
 20
145.274882
 30
0.0
 10
206.041153
 20
142.663359
 30
0.0
 10
202.532644
 20
141.789353
 30
0.0
 10
200.418378
 20
141.487619
 30
0.0
 10
199.749052
 20
141.392097
 30
0.0
 11
199.749052
 21
167.526747
 31
0.0
 11
201.753110
 21
167.220776
 31
0.0
 11
205.975841
 21
166.072385
 31
0.0
 11
209.733080
 21
163.735853
 31
0.0
 11
212.646372
 21
157.803236
 31
0.0
 11
212.646427
 21
151.123754
 31
0.0
 11
209.733080
 21
145.191226
 31
0.0
 11
205.975777
 21
142.852598
 31
0.0
 11
201.753078
 21
141.700222
 31
0.0
 11
199.749052
 21
141.392097
 31
0.0
  0
LINE
  5
10f
100
AcDbEntity
  8
0
 62
5
100
AcDbLine
 10
157.704539
 20
123.234893
 30
0.0
 11
179.527784
 21
123.234893
 31
0.0
  0
SPLINE
  5
110
100
AcDbEntity
  8
0
 62
5
100
AcDbSpline
 70
0
 71
3
 72
10
 73
6
 74
4
 40
0.000000
 40
0.000000
 40
0.000000
 40
0.000000
 40
1.761224
 40
2.410096
 40
2.502792
 40
2.502792
 40
2.502792
 40
2.502792
 10
155.571642
 20
124.544365
 30
0.0
 10
156.071951
 20
124.237205
 30
0.0
 10
156.756584
 20
123.816880
 30
0.0
 10
157.467550
 20
123.380390
 30
0.0
 10
157.678207
 20
123.251059
 30
0.0
 10
157.704539
 20
123.234893
 30
0.0
 11
155.571642
 21
124.544365
 31
0.0
 11
157.072569
 21
123.622885
 31
0.0
 11
157.625543
 21
123.283392
 31
0.0
 11
157.704539
 21
123.234893
 31
0.0
  0
LINE
  5
111
100
AcDbEntity
  8
0
 62
1
100
AcDbLine
 10
137.979266
 20
185.092072
 30
0.0
 11
137.979266
 21
123.856169
 31
0.0
  0
LINE
  5
112
100
AcDbEntity
  8
0
 62
5
100
AcDbLine
 10
199.244585
 20
185.092069
 30
0.0
 11
184.391627
 21
199.945027
 31
0.0
  0
LINE
  5
113
100
AcDbEntity
  8
0
 62
5
100
AcDbLine
 10
184.391627
 20
199.945027
 30
0.0
 11
152.832223
 21
199.945027
 31
0.0
  0
LINE
  5
114
100
AcDbEntity
  8
0
 62
5
100
AcDbLine
 10
152.832223
 20
199.945027
 30
0.0
 11
137.979266
 21
185.092069
 31
0.0
  0
LINE
  5
115
100
AcDbEntity
  8
0
 62
1
100
AcDbLine
 10
181.706179
 20
185.091505
 30
0.0
 11
199.244585
 21
185.092069
 31
0.0
  0
LINE
  5
116
100
AcDbEntity
  8
0
 62
1
100
AcDbLine
 10
137.979266
 20
185.092069
 30
0.0
 11
155.571529
 21
185.091505
 31
0.0
  0
SPLINE
  5
117
100
AcDbEntity
  8
0
 62
5
100
AcDbSpline
 70
0
 71
3
 72
10
 73
6
 74
4
 40
0.000000
 40
0.000000
 40
0.000000
 40
0.000000
 40
0.094140
 40
0.753118
 40
2.541773
 40
2.541773
 40
2.541773
 40
2.541773
 10
179.527784
 20
123.234893
 30
0.0
 10
179.554679
 20
123.251059
 30
0.0
 10
179.769841
 20
123.380390
 30
0.0
 10
180.496010
 20
123.816880
 30
0.0
 10
181.195284
 20
124.237205
 30
0.0
 10
181.706291
 20
124.544365
 30
0.0
 11
179.527784
 21
123.234893
 31
0.0
 11
179.608470
 21
123.283392
 31
0.0
 11
180.173268
 21
123.622885
 31
0.0
 11
181.706291
 21
124.544365
 31
0.0
  0
LINE
  5
118
100
AcDbEntity
  8
0
 62
5
100
AcDbLine
 10
157.704426
 20
185.683926
 30
0.0
 11
179.527671
 21
185.683926
 31
0.0
  0
SPLINE
  5
119
100
AcDbEntity
  8
0
 62
5
100
AcDbSpline
 70
0
 71
3
 72
10
 73
6
 74
4
 40
0.000000
 40
0.000000
 40
0.000000
 40
0.000000
 40
1.761224
 40
2.410096
 40
2.502792
 40
2.502792
 40
2.502792
 40
2.502792
 10
155.571529
 20
184.374454
 30
0.0
 10
156.071838
 20
184.681614
 30
0.0
 10
156.756472
 20
185.101938
 30
0.0
 10
157.467437
 20
185.538429
 30
0.0
 10
157.678094
 20
185.667759
 30
0.0
 10
157.704426
 20
185.683926
 30
0.0
 11
155.571529
 21
184.374454
 31
0.0
 11
157.072456
 21
185.295934
 31
0.0
 11
157.625430
 21
185.635427
 31
0.0
 11
157.704426
 21
185.683926
 31
0.0
  0
LINE
  5
11a
100
AcDbEntity
  8
0
 62
5
100
AcDbLine
 10
137.979698
 20
227.195738
 30
0.0
 11
137.978851
 21
225.001170
 31
0.0
  0
LINE
  5
11b
100
AcDbEntity
  8
0
 62
5
100
AcDbLine
 10
137.978851
 20
225.001170
 30
0.0
 11
138.483608
 21
225.001170
 31
0.0
  0
LINE
  5
11c
100
AcDbEntity
  8
0
 62
5
100
AcDbLine
 10
138.483608
 20
225.001170
 30
0.0
 11
138.483608
 21
228.792064
 31
0.0
  0
SPLINE
  5
11d
100
AcDbEntity
  8
0
 62
5
100
AcDbSpline
 70
0
 71
3
 72
10
 73
6
 74
4
 40
0.000000
 40
0.000000
 40
0.000000
 40
0.000000
 40
0.094140
 40
0.753118
 40
2.541773
 40
2.541773
 40
2.541773
 40
2.541773
 10
179.527671
 20
185.683926
 30
0.0
 10
179.554566
 20
185.667759
 30
0.0
 10
179.769728
 20
185.538429
 30
0.0
 10
180.495897
 20
185.101938
 30
0.0
 10
181.195171
 20
184.681614
 30
0.0
 10
181.706179
 20
184.374454
 30
0.0
 11
179.527671
 21
185.683926
 31
0.0
 11
179.608357
 21
185.635427
 31
0.0
 11
180.173155
 21
185.295934
 31
0.0
 11
181.706179
 21
184.374454
 31
0.0
  0
LINE
  5
11e
100
AcDbEntity
  8
0
 62
5
100
AcDbLine
 10
138.483608
 20
202.657414
 30
0.0
 11
138.483608
 21
206.448296
 31
0.0
  0
LINE
  5
11f
100
AcDbEntity
  8
0
 62
5
100
AcDbLine
 10
138.483608
 20
206.448296
 30
0.0
 11
137.977976
 21
206.448296
 31
0.0
  0
LINE
  5
120
100
AcDbEntity
  8
0
 62
5
100
AcDbLine
 10
137.977976
 20
206.448296
 30
0.0
 11
137.978823
 21
204.253727
 31
0.0
  0
LINE
  5
121
100
AcDbEntity
  8
0
 62
5
100
AcDbLine
 10
137.979709
 20
227.195730
 30
0.0
 11
137.979144
 21
246.357388
 31
0.0
  0
LINE
  5
122
100
AcDbEntity
  8
0
 62
5
100
AcDbLine
 10
137.979266
 20
185.092069
 30
0.0
 11
137.978701
 21
204.253727
 31
0.0
  0
LINE
  5
123
100
AcDbEntity
  8
0
 62
1
100
AcDbLine
 10
137.978546
 20
220.345810
 30
0.0
 11
137.977982
 21
211.103574
 31
0.0
  0
LINE
  5
124
100
AcDbEntity
  8
0
 62
5
100
AcDbLine
 10
95.875475
 20
246.357820
 30
0.0
 11
98.070043
 21
246.356973
 31
0.0
  0
LINE
  5
125
100
AcDbEntity
  8
0
 62
5
100
AcDbLine
 10
98.070043
 20
246.356973
 30
0.0
 11
98.070043
 21
246.861731
 31
0.0
  0
LINE
  5
126
100
AcDbEntity
  8
0
 62
5
100
AcDbLine
 10
98.070043
 20
246.861731
 30
0.0
 11
94.279150
 21
246.861731
 31
0.0
  0
SPLINE
  5
127
100
AcDbEntity
  8
0
 62
5
100
AcDbSpline
 70
0
 71
3
 72
16
 73
12
 74
10
 40
0.000000
 40
0.000000
 40
0.000000
 40
0.000000
 40
2.027280
 40
6.403381
 40
10.827885
 40
17.437213
 40
24.116695
 40
30.725967
 40
35.151633
 40
39.528750
 40
41.556324
 40
41.556324
 40
41.556324
 40
41.556324
 10
138.483608
 20
228.792064
 30
0.0
 10
139.152937
 20
228.697268
 30
0.0
 10
141.267085
 20
228.397845
 30
0.0
 10
144.775727
 20
227.527414
 30
0.0
 10
149.417542
 20
224.917596
 30
0.0
 10
151.840034
 20
219.057848
 30
0.0
 10
151.840350
 20
212.399672
 30
0.0
 10
149.416890
 20
206.540198
 30
0.0
 10
144.775709
 20
203.928676
 30
0.0
 10
141.267200
 20
203.054669
 30
0.0
 10
139.152935
 20
202.752935
 30
0.0
 10
138.483608
 20
202.657414
 30
0.0
 11
138.483608
 21
228.792064
 31
0.0
 11
140.487666
 21
228.486093
 31
0.0
 11
144.710396
 21
227.337701
 31
0.0
 11
148.467637
 21
225.001170
 31
0.0
 11
151.380928
 21
219.068552
 31
0.0
 11
151.380983
 21
212.389070
 31
0.0
 11
148.467637
 21
206.456542
 31
0.0
 11
144.710332
 21
204.117915
 31
0.0
 11
140.487634
 21
202.965539
 31
0.0
 11
138.483608
 21
202.657414
 31
0.0
  0
LINE
  5
128
100
AcDbEntity
  8
0
 62
5
100
AcDbLine
 10
120.413800
 20
246.861731
 30
0.0
 11
116.622917
 21
246.861731
 31
0.0
  0
LINE
  5
129
100
AcDbEntity
  8
0
 62
5
100
AcDbLine
 10
116.622917
 20
246.861731
 30
0.0
 11
116.622917
 21
246.356099
 31
0.0
  0
LINE
  5
12a
100
AcDbEntity
  8
0
 62
5
100
AcDbLine
 10
116.622917
 20
246.356099
 30
0.0
 11
118.817486
 21
246.356945
 31
0.0
  0
LINE
  5
12b
100
AcDbEntity
  8
0
 62
5
100
AcDbLine
 10
95.875483
 20
246.357831
 30
0.0
 11
76.713825
 21
246.357267
 31
0.0
  0
LINE
  5
12c
100
AcDbEntity
  8
0
 62
5
100
AcDbLine
 10
137.979144
 20
246.357388
 30
0.0
 11
118.817486
 21
246.356824
 31
0.0
  0
LINE
  5
12d
100
AcDbEntity
  8
0
 62
1
100
AcDbLine
 10
102.725403
 20
246.356669
 30
0.0
 11
111.967639
 21
246.356104
 31
0.0
  0
LINE
  5
12e
100
AcDbEntity
  8
0
 62
5
100
AcDbLine
 10
137.979819
 20
104.694519
 30
0.0
 11
137.978972
 21
102.499950
 31
0.0
  0
LINE
  5
12f
100
AcDbEntity
  8
0
 62
5
100
AcDbLine
 10
137.978972
 20
102.499950
 30
0.0
 11
138.483729
 21
102.499950
 31
0.0
  0
LINE
  5
130
100
AcDbEntity
  8
0
 62
5
100
AcDbLine
 10
138.483729
 20
102.499950
 30
0.0
 11
138.483729
 21
106.290844
 31
0.0
  0
SPLINE
  5
131
100
AcDbEntity
  8
0
 62
5
100
AcDbSpline
 70
0
 71
3
 72
16
 73
12
 74
10
 40
0.000000
 40
0.000000
 40
0.000000
 40
0.000000
 40
2.027280
 40
6.403381
 40
10.827884
 40
17.437213
 40
24.116695
 40
30.725967
 40
35.151632
 40
39.528749
 40
41.556324
 40
41.556324
 40
41.556324
 40
41.556324
 10
94.279150
 20
246.861731
 30
0.0
 10
94.373946
 20
247.531060
 30
0.0
 10
94.673368
 20
249.645208
 30
0.0
 10
95.543799
 20
253.153850
 30
0.0
 10
98.153618
 20
257.795664
 30
0.0
 10
104.013365
 20
260.218157
 30
0.0
 10
110.671542
 20
260.218473
 30
0.0
 10
116.531015
 20
257.795012
 30
0.0
 10
119.142538
 20
253.153832
 30
0.0
 10
120.016544
 20
249.645323
 30
0.0
 10
120.318278
 20
247.531057
 30
0.0
 10
120.413800
 20
246.861731
 30
0.0
 11
94.279150
 21
246.861731
 31
0.0
 11
94.585121
 21
248.865788
 31
0.0
 11
95.733512
 21
253.088519
 31
0.0
 11
98.070043
 21
256.845759
 31
0.0
 11
104.002661
 21
259.759051
 31
0.0
 11
110.682143
 21
259.759106
 31
0.0
 11
116.614671
 21
256.845759
 31
0.0
 11
118.953299
 21
253.088455
 31
0.0
 11
120.105675
 21
248.865756
 31
0.0
 11
120.413800
 21
246.861731
 31
0.0
  0
LINE
  5
132
100
AcDbEntity
  8
0
 62
5
100
AcDbLine
 10
138.483729
 20
80.156194
 30
0.0
 11
138.483729
 21
83.947076
 31
0.0
  0
LINE
  5
133
100
AcDbEntity
  8
0
 62
5
100
AcDbLine
 10
138.483729
 20
83.947076
 30
0.0
 11
137.978097
 21
83.947076
 31
0.0
  0
LINE
  5
134
100
AcDbEntity
  8
0
 62
5
100
AcDbLine
 10
137.978097
 20
83.947076
 30
0.0
 11
137.978944
 21
81.752508
 31
0.0
  0
LINE
  5
135
100
AcDbEntity
  8
0
 62
5
100
AcDbLine
 10
137.979830
 20
104.694510
 30
0.0
 11
137.979266
 21
123.856169
 31
0.0
  0
LINE
  5
136
100
AcDbEntity
  8
0
 62
5
100
AcDbLine
 10
137.979387
 20
62.590849
 30
0.0
 11
137.978823
 21
81.752508
 31
0.0
  0
LINE
  5
137
100
AcDbEntity
  8
0
 62
1
100
AcDbLine
 10
137.978667
 20
97.844590
 30
0.0
 11
137.978103
 21
88.602354
 31
0.0
  0
LINE
  5
138
100
AcDbEntity
  8
0
 62
5
100
AcDbLine
 10
137.979390
 20
1.325555
 30
0.0
 11
152.832348
 21
16.178513
 31
0.0
  0
LINE
  5
139
100
AcDbEntity
  8
0
 62
5
100
AcDbLine
 10
152.832348
 20
16.178513
 30
0.0
 11
152.832348
 21
47.737917
 31
0.0
  0
LINE
  5
13a
100
AcDbEntity
  8
0
 62
5
100
AcDbLine
 10
152.832348
 20
47.737917
 30
0.0
 11
137.979390
 21
62.590875
 31
0.0
  0
LINE
  5
13b
100
AcDbEntity
  8
0
 62
1
100
AcDbLine
 10
137.978825
 20
18.863962
 30
0.0
 11
137.979390
 21
1.325555
 31
0.0
  0
LINE
  5
13c
100
AcDbEntity
  8
0
 62
1
100
AcDbLine
 10
137.979390
 20
62.590875
 30
0.0
 11
137.978825
 21
44.998612
 31
0.0
  0
SPLINE
  5
13d
100
AcDbEntity
  8
0
 62
5
100
AcDbSpline
 70
0
 71
3
 72
16
 73
12
 74
10
 40
0.000000
 40
0.000000
 40
0.000000
 40
0.000000
 40
2.027280
 40
6.403381
 40
10.827885
 40
17.437213
 40
24.116695
 40
30.725967
 40
35.151633
 40
39.528750
 40
41.556324
 40
41.556324
 40
41.556324
 40
41.556324
 10
138.483729
 20
106.290844
 30
0.0
 10
139.153059
 20
106.196048
 30
0.0
 10
141.267207
 20
105.896625
 30
0.0
 10
144.775849
 20
105.026194
 30
0.0
 10
149.417663
 20
102.416376
 30
0.0
 10
151.840156
 20
96.556628
 30
0.0
 10
151.840471
 20
89.898452
 30
0.0
 10
149.417011
 20
84.038978
 30
0.0
 10
144.775830
 20
81.427456
 30
0.0
 10
141.267321
 20
80.553450
 30
0.0
 10
139.153056
 20
80.251716
 30
0.0
 10
138.483729
 20
80.156194
 30
0.0
 11
138.483729
 21
106.290844
 31
0.0
 11
140.487787
 21
105.984873
 31
0.0
 11
144.710518
 21
104.836482
 31
0.0
 11
148.467758
 21
102.499950
 31
0.0
 11
151.381050
 21
96.567332
 31
0.0
 11
151.381104
 21
89.887850
 31
0.0
 11
148.467758
 21
83.955323
 31
0.0
 11
144.710454
 21
81.616695
 31
0.0
 11
140.487755
 21
80.464319
 31
0.0
 11
138.483729
 21
80.156194
 31
0.0
  0
LINE
  5
13e
100
AcDbEntity
  8
0
 62
5
100
AcDbLine
 10
138.571247
 20
42.865715
 30
0.0
 11
138.571247
 21
21.042469
 31
0.0
  0
SPLINE
  5
13f
100
AcDbEntity
  8
0
 62
5
100
AcDbSpline
 70
0
 71
3
 72
10
 73
6
 74
4
 40
0.000000
 40
0.000000
 40
0.000000
 40
0.000000
 40
1.761224
 40
2.410096
 40
2.502792
 40
2.502792
 40
2.502792
 40
2.502792
 10
137.261775
 20
44.998612
 30
0.0
 10
137.568935
 20
44.498303
 30
0.0
 10
137.989259
 20
43.813669
 30
0.0
 10
138.425750
 20
43.102703
 30
0.0
 10
138.555080
 20
42.892047
 30
0.0
 10
138.571247
 20
42.865715
 30
0.0
 11
137.261775
 21
44.998612
 31
0.0
 11
138.183255
 21
43.497684
 31
0.0
 11
138.522748
 21
42.944711
 31
0.0
 11
138.571247
 21
42.865715
 31
0.0
  0
LINE
  5
140
100
AcDbEntity
  8
0
 62
5
100
AcDbLine
 10
137.979387
 20
1.325541
 30
0.0
 11
123.126429
 21
-13.527419
 31
0.0
  0
LINE
  5
141
100
AcDbEntity
  8
0
 62
5
100
AcDbLine
 10
123.126429
 20
-13.527419
 30
0.0
 11
91.567025
 21
-13.527419
 31
0.0
  0
LINE
  5
142
100
AcDbEntity
  8
0
 62
5
100
AcDbLine
 10
91.567025
 20
-13.527419
 30
0.0
 11
76.714068
 21
1.325541
 31
0.0
  0
LINE
  5
143
100
AcDbEntity
  8
0
 62
1
100
AcDbLine
 10
120.440981
 20
1.326106
 30
0.0
 11
137.979387
 21
1.325541
 31
0.0
  0
LINE
  5
144
100
AcDbEntity
  8
0
 62
1
100
AcDbLine
 10
76.714068
 20
1.325541
 30
0.0
 11
94.306331
 21
1.326106
 31
0.0
  0
SPLINE
  5
145
100
AcDbEntity
  8
0
 62
5
100
AcDbSpline
 70
0
 71
3
 72
10
 73
6
 74
4
 40
0.000000
 40
0.000000
 40
0.000000
 40
0.000000
 40
0.094140
 40
0.753118
 40
2.541773
 40
2.541773
 40
2.541773
 40
2.541773
 10
138.571247
 20
21.042469
 30
0.0
 10
138.555080
 20
21.015574
 30
0.0
 10
138.425750
 20
20.800413
 30
0.0
 10
137.989259
 20
20.074244
 30
0.0
 10
137.568935
 20
19.374970
 30
0.0
 10
137.261775
 20
18.863962
 30
0.0
 11
138.571247
 21
21.042469
 31
0.0
 11
138.522748
 21
20.961784
 31
0.0
 11
138.183255
 21
20.396986
 31
0.0
 11
137.261775
 21
18.863962
 31
0.0
  0
LINE
  5
146
100
AcDbEntity
  8
0
 62
5
100
AcDbLine
 10
96.439228
 20
0.733685
 30
0.0
 11
118.262473
 21
0.733685
 31
0.0
  0
SPLINE
  5
147
100
AcDbEntity
  8
0
 62
5
100
AcDbSpline
 70
0
 71
3
 72
10
 73
6
 74
4
 40
0.000000
 40
0.000000
 40
0.000000
 40
0.000000
 40
1.761224
 40
2.410096
 40
2.502792
 40
2.502792
 40
2.502792
 40
2.502792
 10
94.306331
 20
2.043156
 30
0.0
 10
94.806640
 20
1.735996
 30
0.0
 10
95.491274
 20
1.315672
 30
0.0
 10
96.202239
 20
0.879181
 30
0.0
 10
96.412896
 20
0.749851
 30
0.0
 10
96.439228
 20
0.733685
 30
0.0
 11
94.306331
 21
2.043156
 31
0.0
 11
95.807258
 21
1.121676
 31
0.0
 11
96.360232
 21
0.782184
 31
0.0
 11
96.439228
 21
0.733685
 31
0.0
  0
LINE
  5
148
100
AcDbEntity
  8
0
 62
5
100
AcDbLine
 10
15.447823
 20
165.930301
 30
0.0
 11
15.448669
 21
163.735732
 31
0.0
  0
LINE
  5
149
100
AcDbEntity
  8
0
 62
5
100
AcDbLine
 10
15.448669
 20
163.735732
 30
0.0
 11
14.943912
 21
163.735732
 31
0.0
  0
LINE
  5
14a
100
AcDbEntity
  8
0
 62
5
100
AcDbLine
 10
14.943912
 20
163.735732
 30
0.0
 11
14.943912
 21
167.526626
 31
0.0
  0
SPLINE
  5
14b
100
AcDbEntity
  8
0
 62
5
100
AcDbSpline
 70
0
 71
3
 72
10
 73
6
 74
4
 40
0.000000
 40
0.000000
 40
0.000000
 40
0.000000
 40
0.094140
 40
0.753118
 40
2.541773
 40
2.541773
 40
2.541773
 40
2.541773
 10
118.262473
 20
0.733685
 30
0.0
 10
118.289369
 20
0.749851
 30
0.0
 10
118.504530
 20
0.879181
 30
0.0
 10
119.230699
 20
1.315672
 30
0.0
 10
119.929973
 20
1.735996
 30
0.0
 10
120.440981
 20
2.043156
 30
0.0
 11
118.262473
 21
0.733685
 31
0.0
 11
118.343159
 21
0.782184
 31
0.0
 11
118.907957
 21
1.121676
 31
0.0
 11
120.440981
 21
2.043156
 31
0.0
  0
LINE
  5
14c
100
AcDbEntity
  8
0
 62
5
100
AcDbLine
 10
14.943912
 20
141.391976
 30
0.0
 11
14.943912
 21
145.182858
 31
0.0
  0
LINE
  5
14d
100
AcDbEntity
  8
0
 62
5
100
AcDbLine
 10
14.943912
 20
145.182858
 30
0.0
 11
15.449544
 21
145.182858
 31
0.0
  0
LINE
  5
14e
100
AcDbEntity
  8
0
 62
5
100
AcDbLine
 10
15.449544
 20
145.182858
 30
0.0
 11
15.448698
 21
142.988290
 31
0.0
  0
LINE
  5
14f
100
AcDbEntity
  8
0
 62
5
100
AcDbLine
 10
15.447811
 20
165.930292
 30
0.0
 11
15.448376
 21
185.091951
 31
0.0
  0
LINE
  5
150
100
AcDbEntity
  8
0
 62
5
100
AcDbLine
 10
15.448255
 20
123.826631
 30
0.0
 11
15.448819
 21
142.988290
 31
0.0
  0
LINE
  5
151
100
AcDbEntity
  8
0
 62
1
100
AcDbLine
 10
15.448974
 20
159.080372
 30
0.0
 11
15.449539
 21
149.838136
 31
0.0
  0
LINE
  5
152
100
AcDbEntity
  8
0
 62
5
100
AcDbLine
 10
15.448263
 20
123.826626
 30
0.0
 11
30.301221
 21
108.973668
 31
0.0
  0
LINE
  5
153
100
AcDbEntity
  8
0
 62
5
100
AcDbLine
 10
30.301221
 20
108.973668
 30
0.0
 11
61.860625
 21
108.973668
 31
0.0
  0
LINE
  5
154
100
AcDbEntity
  8
0
 62
5
100
AcDbLine
 10
61.860625
 20
108.973668
 30
0.0
 11
76.713582
 21
123.826626
 31
0.0
  0
LINE
  5
155
100
AcDbEntity
  8
0
 62
1
100
AcDbLine
 10
32.986670
 20
123.827190
 30
0.0
 11
15.448263
 21
123.826626
 31
0.0
  0
LINE
  5
156
100
AcDbEntity
  8
0
 62
1
100
AcDbLine
 10
76.713582
 20
123.826626
 30
0.0
 11
59.121319
 21
123.827190
 31
0.0
  0
SPLINE
  5
157
100
AcDbEntity
  8
0
 62
5
100
AcDbSpline
 70
0
 71
3
 72
16
 73
12
 74
10
 40
0.000000
 40
0.000000
 40
0.000000
 40
0.000000
 40
2.027280
 40
6.403381
 40
10.827884
 40
17.437213
 40
24.116695
 40
30.725967
 40
35.151632
 40
39.528749
 40
41.556324
 40
41.556324
 40
41.556324
 40
41.556324
 10
14.943912
 20
167.526626
 30
0.0
 10
14.274583
 20
167.431830
 30
0.0
 10
12.160435
 20
167.132407
 30
0.0
 10
8.651792
 20
166.261976
 30
0.0
 10
4.009979
 20
163.652157
 30
0.0
 10
1.587485
 20
157.792410
 30
0.0
 10
1.587170
 20
151.134234
 30
0.0
 10
4.010631
 20
145.274761
 30
0.0
 10
8.651811
 20
142.663238
 30
0.0
 10
12.160320
 20
141.789231
 30
0.0
 10
14.274585
 20
141.487498
 30
0.0
 10
14.943912
 20
141.391976
 30
0.0
 11
14.943912
 21
167.526626
 31
0.0
 11
12.939854
 21
167.220655
 31
0.0
 11
8.717124
 21
166.072263
 31
0.0
 11
4.959884
 21
163.735732
 31
0.0
 11
2.046591
 21
157.803114
 31
0.0
 11
2.046537
 21
151.123632
 31
0.0
 11
4.959884
 21
145.191105
 31
0.0
 11
8.717188
 21
142.852477
 31
0.0
 11
12.939886
 21
141.700101
 31
0.0
 11
14.943912
 21
141.391976
 31
0.0
  0
LINE
  5
158
100
AcDbEntity
  8
0
 62
5
100
AcDbLine
 10
56.988422
 20
123.234769
 30
0.0
 11
35.165177
 21
123.234769
 31
0.0
  0
SPLINE
  5
159
100
AcDbEntity
  8
0
 62
5
100
AcDbSpline
 70
0
 71
3
 72
10
 73
6
 74
4
 40
0.000000
 40
0.000000
 40
0.000000
 40
0.000000
 40
1.761224
 40
2.410096
 40
2.502792
 40
2.502792
 40
2.502792
 40
2.502792
 10
59.121319
 20
124.544241
 30
0.0
 10
58.621010
 20
124.237081
 30
0.0
 10
57.936376
 20
123.816756
 30
0.0
 10
57.225411
 20
123.380266
 30
0.0
 10
57.014754
 20
123.250935
 30
0.0
 10
56.988422
 20
123.234769
 30
0.0
 11
59.121319
 21
124.544241
 31
0.0
 11
57.620392
 21
123.622760
 31
0.0
 11
57.067418
 21
123.283268
 31
0.0
 11
56.988422
 21
123.234769
 31
0.0
  0
LINE
  5
15a
100
AcDbEntity
  8
0
 62
1
100
AcDbLine
 10
76.713709
 20
185.091951
 30
0.0
 11
76.713709
 21
123.856047
 31
0.0
  0
LINE
  5
15b
100
AcDbEntity
  8
0
 62
5
100
AcDbLine
 10
15.448376
 20
185.091948
 30
0.0
 11
30.301334
 21
199.944905
 31
0.0
  0
LINE
  5
15c
100
AcDbEntity
  8
0
 62
5
100
AcDbLine
 10
30.301334
 20
199.944905
 30
0.0
 11
61.860738
 21
199.944905
 31
0.0
  0
LINE
  5
15d
100
AcDbEntity
  8
0
 62
5
100
AcDbLine
 10
61.860738
 20
199.944905
 30
0.0
 11
76.713695
 21
185.091948
 31
0.0
  0
LINE
  5
15e
100
AcDbEntity
  8
0
 62
1
100
AcDbLine
 10
32.986782
 20
185.091383
 30
0.0
 11
15.448376
 21
185.091948
 31
0.0
  0
LINE
  5
15f
100
AcDbEntity
  8
0
 62
1
100
AcDbLine
 10
76.713695
 20
185.091948
 30
0.0
 11
59.121432
 21
185.091383
 31
0.0
  0
SPLINE
  5
160
100
AcDbEntity
  8
0
 62
5
100
AcDbSpline
 70
0
 71
3
 72
10
 73
6
 74
4
 40
0.000000
 40
0.000000
 40
0.000000
 40
0.000000
 40
0.094140
 40
0.753118
 40
2.541773
 40
2.541773
 40
2.541773
 40
2.541773
 10
35.165177
 20
123.234769
 30
0.0
 10
35.138282
 20
123.250935
 30
0.0
 10
34.923120
 20
123.380266
 30
0.0
 10
34.196951
 20
123.816756
 30
0.0
 10
33.497677
 20
124.237081
 30
0.0
 10
32.986670
 20
124.544241
 30
0.0
 11
35.165177
 21
123.234769
 31
0.0
 11
35.084491
 21
123.283268
 31
0.0
 11
34.519693
 21
123.622760
 31
0.0
 11
32.986670
 21
124.544241
 31
0.0
  0
LINE
  5
161
100
AcDbEntity
  8
0
 62
5
100
AcDbLine
 10
56.988535
 20
185.683804
 30
0.0
 11
35.165290
 21
185.683804
 31
0.0
  0
SPLINE
  5
162
100
AcDbEntity
  8
0
 62
5
100
AcDbSpline
 70
0
 71
3
 72
10
 73
6
 74
4
 40
0.000000
 40
0.000000
 40
0.000000
 40
0.000000
 40
1.761224
 40
2.410096
 40
2.502792
 40
2.502792
 40
2.502792
 40
2.502792
 10
59.121432
 20
184.374333
 30
0.0
 10
58.621123
 20
184.681493
 30
0.0
 10
57.936489
 20
185.101817
 30
0.0
 10
57.225524
 20
185.538308
 30
0.0
 10
57.014867
 20
185.667638
 30
0.0
 10
56.988535
 20
185.683804
 30
0.0
 11
59.121432
 21
184.374333
 31
0.0
 11
57.620505
 21
185.295813
 31
0.0
 11
57.067531
 21
185.635305
 31
0.0
 11
56.988535
 21
185.683804
 31
0.0
  0
LINE
  5
163
100
AcDbEntity
  8
0
 62
5
100
AcDbLine
 10
76.713263
 20
227.195617
 30
0.0
 11
76.714110
 21
225.001049
 31
0.0
  0
LINE
  5
164
100
AcDbEntity
  8
0
 62
5
100
AcDbLine
 10
76.714110
 20
225.001049
 30
0.0
 11
76.209353
 21
225.001049
 31
0.0
  0
LINE
  5
165
100
AcDbEntity
  8
0
 62
5
100
AcDbLine
 10
76.209353
 20
225.001049
 30
0.0
 11
76.209353
 21
228.791942
 31
0.0
  0
SPLINE
  5
166
100
AcDbEntity
  8
0
 62
5
100
AcDbSpline
 70
0
 71
3
 72
10
 73
6
 74
4
 40
0.000000
 40
0.000000
 40
0.000000
 40
0.000000
 40
0.094140
 40
0.753118
 40
2.541773
 40
2.541773
 40
2.541773
 40
2.541773
 10
35.165290
 20
185.683804
 30
0.0
 10
35.138394
 20
185.667638
 30
0.0
 10
34.923233
 20
185.538308
 30
0.0
 10
34.197064
 20
185.101817
 30
0.0
 10
33.497790
 20
184.681493
 30
0.0
 10
32.986782
 20
184.374333
 30
0.0
 11
35.165290
 21
185.683804
 31
0.0
 11
35.084604
 21
185.635305
 31
0.0
 11
34.519806
 21
185.295813
 31
0.0
 11
32.986782
 21
184.374333
 31
0.0
  0
LINE
  5
167
100
AcDbEntity
  8
0
 62
5
100
AcDbLine
 10
76.209353
 20
202.657292
 30
0.0
 11
76.209353
 21
206.448175
 31
0.0
  0
LINE
  5
168
100
AcDbEntity
  8
0
 62
5
100
AcDbLine
 10
76.209353
 20
206.448175
 30
0.0
 11
76.714985
 21
206.448175
 31
0.0
  0
LINE
  5
169
100
AcDbEntity
  8
0
 62
5
100
AcDbLine
 10
76.714985
 20
206.448175
 30
0.0
 11
76.714138
 21
204.253606
 31
0.0
  0
LINE
  5
16a
100
AcDbEntity
  8
0
 62
5
100
AcDbLine
 10
76.713252
 20
227.195609
 30
0.0
 11
76.713817
 21
246.357267
 31
0.0
  0
LINE
  5
16b
100
AcDbEntity
  8
0
 62
5
100
AcDbLine
 10
76.713695
 20
185.091948
 30
0.0
 11
76.714260
 21
204.253606
 31
0.0
  0
LINE
  5
16c
100
AcDbEntity
  8
0
 62
1
100
AcDbLine
 10
76.714415
 20
220.345689
 30
0.0
 11
76.714979
 21
211.103453
 31
0.0
  0
LINE
  5
16d
100
AcDbEntity
  8
0
 62
5
100
AcDbLine
 10
76.713122
 20
104.694397
 30
0.0
 11
76.713969
 21
102.499829
 31
0.0
  0
LINE
  5
16e
100
AcDbEntity
  8
0
 62
5
100
AcDbLine
 10
76.713969
 20
102.499829
 30
0.0
 11
76.209212
 21
102.499829
 31
0.0
  0
LINE
  5
16f
100
AcDbEntity
  8
0
 62
5
100
AcDbLine
 10
76.209212
 20
102.499829
 30
0.0
 11
76.209212
 21
106.290722
 31
0.0
  0
SPLINE
  5
170
100
AcDbEntity
  8
0
 62
5
100
AcDbSpline
 70
0
 71
3
 72
16
 73
12
 74
10
 40
0.000000
 40
0.000000
 40
0.000000
 40
0.000000
 40
2.027280
 40
6.403381
 40
10.827885
 40
17.437213
 40
24.116695
 40
30.725967
 40
35.151633
 40
39.528750
 40
41.556324
 40
41.556324
 40
41.556324
 40
41.556324
 10
76.209353
 20
228.791942
 30
0.0
 10
75.540024
 20
228.697146
 30
0.0
 10
73.425876
 20
228.397724
 30
0.0
 10
69.917233
 20
227.527292
 30
0.0
 10
65.275419
 20
224.917474
 30
0.0
 10
62.852927
 20
219.057726
 30
0.0
 10
62.852611
 20
212.399551
 30
0.0
 10
65.276071
 20
206.540077
 30
0.0
 10
69.917252
 20
203.928555
 30
0.0
 10
73.425761
 20
203.054548
 30
0.0
 10
75.540026
 20
202.752814
 30
0.0
 10
76.209353
 20
202.657292
 30
0.0
 11
76.209353
 21
228.791942
 31
0.0
 11
74.205295
 21
228.485971
 31
0.0
 11
69.982565
 21
227.337580
 31
0.0
 11
66.225324
 21
225.001049
 31
0.0
 11
63.312032
 21
219.068431
 31
0.0
 11
63.311978
 21
212.388949
 31
0.0
 11
66.225324
 21
206.456421
 31
0.0
 11
69.982629
 21
204.117794
 31
0.0
 11
74.205327
 21
202.965418
 31
0.0
 11
76.209353
 21
202.657292
 31
0.0
  0
LINE
  5
171
100
AcDbEntity
  8
0
 62
5
100
AcDbLine
 10
76.209212
 20
80.156073
 30
0.0
 11
76.209212
 21
83.946955
 31
0.0
  0
LINE
  5
172
100
AcDbEntity
  8
0
 62
5
100
AcDbLine
 10
76.209212
 20
83.946955
 30
0.0
 11
76.714844
 21
83.946955
 31
0.0
  0
LINE
  5
173
100
AcDbEntity
  8
0
 62
5
100
AcDbLine
 10
76.714844
 20
83.946955
 30
0.0
 11
76.713997
 21
81.752386
 31
0.0
  0
LINE
  5
174
100
AcDbEntity
  8
0
 62
5
100
AcDbLine
 10
76.713111
 20
104.694389
 30
0.0
 11
76.713675
 21
123.856047
 31
0.0
  0
LINE
  5
175
100
AcDbEntity
  8
0
 62
5
100
AcDbLine
 10
76.713554
 20
62.590728
 30
0.0
 11
76.714119
 21
81.752386
 31
0.0
  0
LINE
  5
176
100
AcDbEntity
  8
0
 62
1
100
AcDbLine
 10
76.714274
 20
97.844469
 30
0.0
 11
76.714838
 21
88.602233
 31
0.0
  0
LINE
  5
177
100
AcDbEntity
  8
0
 62
5
100
AcDbLine
 10
76.713560
 20
1.325414
 30
0.0
 11
61.860602
 21
16.178372
 31
0.0
  0
LINE
  5
178
100
AcDbEntity
  8
0
 62
5
100
AcDbLine
 10
61.860602
 20
16.178372
 30
0.0
 11
61.860602
 21
47.737776
 31
0.0
  0
LINE
  5
179
100
AcDbEntity
  8
0
 62
5
100
AcDbLine
 10
61.860602
 20
47.737776
 30
0.0
 11
76.713560
 21
62.590734
 31
0.0
  0
LINE
  5
17a
100
AcDbEntity
  8
0
 62
1
100
AcDbLine
 10
76.714124
 20
18.863821
 30
0.0
 11
76.713560
 21
1.325414
 31
0.0
  0
LINE
  5
17b
100
AcDbEntity
  8
0
 62
1
100
AcDbLine
 10
76.713560
 20
62.590734
 30
0.0
 11
76.714124
 21
44.998471
 31
0.0
  0
SPLINE
  5
17c
100
AcDbEntity
  8
0
 62
5
100
AcDbSpline
 70
0
 71
3
 72
16
 73
12
 74
10
 40
0.000000
 40
0.000000
 40
0.000000
 40
0.000000
 40
2.027280
 40
6.403381
 40
10.827885
 40
17.437213
 40
24.116695
 40
30.725967
 40
35.151633
 40
39.528750
 40
41.556324
 40
41.556324
 40
41.556324
 40
41.556324
 10
76.209212
 20
106.290722
 30
0.0
 10
75.539882
 20
106.195927
 30
0.0
 10
73.425735
 20
105.896504
 30
0.0
 10
69.917092
 20
105.026073
 30
0.0
 10
65.275278
 20
102.416254
 30
0.0
 10
62.852785
 20
96.556507
 30
0.0
 10
62.852470
 20
89.898331
 30
0.0
 10
65.275930
 20
84.038857
 30
0.0
 10
69.917111
 20
81.427335
 30
0.0
 10
73.425620
 20
80.553328
 30
0.0
 10
75.539885
 20
80.251594
 30
0.0
 10
76.209212
 20
80.156073
 30
0.0
 11
76.209212
 21
106.290722
 31
0.0
 11
74.205154
 21
105.984752
 31
0.0
 11
69.982424
 21
104.836360
 31
0.0
 11
66.225183
 21
102.499829
 31
0.0
 11
63.311891
 21
96.567211
 31
0.0
 11
63.311837
 21
89.887729
 31
0.0
 11
66.225183
 21
83.955201
 31
0.0
 11
69.982488
 21
81.616574
 31
0.0
 11
74.205186
 21
80.464198
 31
0.0
 11
76.209212
 21
80.156073
 31
0.0
  0
LINE
  5
17d
100
AcDbEntity
  8
0
 62
5
100
AcDbLine
 10
76.121703
 20
42.865573
 30
0.0
 11
76.121703
 21
21.042328
 31
0.0
  0
SPLINE
  5
17e
100
AcDbEntity
  8
0
 62
5
100
AcDbSpline
 70
0
 71
3
 72
10
 73
6
 74
4
 40
0.000000
 40
0.000000
 40
0.000000
 40
0.000000
 40
1.761224
 40
2.410096
 40
2.502792
 40
2.502792
 40
2.502792
 40
2.502792
 10
77.431175
 20
44.998471
 30
0.0
 10
77.124015
 20
44.498161
 30
0.0
 10
76.703690
 20
43.813528
 30
0.0
 10
76.267200
 20
43.102562
 30
0.0
 10
76.137869
 20
42.891905
 30
0.0
 10
76.121703
 20
42.865573
 30
0.0
 11
77.431175
 21
44.998471
 31
0.0
 11
76.509695
 21
43.497543
 31
0.0
 11
76.170202
 21
42.944570
 31
0.0
 11
76.121703
 21
42.865573
 31
0.0
  0
LINE
  5
17f
100
AcDbEntity
  8
0
 62
1
100
AcDbLine
 10
137.949596
 20
185.091951
 30
0.0
 11
76.713695
 21
185.091951
 31
0.0
  0
LINE
  5
180
100
AcDbEntity
  8
0
 62
1
100
AcDbLine
 10
137.979379
 20
123.826750
 30
0.0
 11
76.743478
 21
123.826750
 31
0.0
  0
LINE
  5
181
100
AcDbEntity
  8
0
 62
1
100
AcDbLine
 10
137.949455
 20
62.590728
 30
0.0
 11
76.713554
 21
62.590728
 31
0.0
  0
SPLINE
  5
182
100
AcDbEntity
  8
0
 62
5
100
AcDbSpline
 70
0
 71
3
 72
10
 73
6
 74
4
 40
0.000000
 40
0.000000
 40
0.000000
 40
0.000000
 40
0.094140
 40
0.753118
 40
2.541773
 40
2.541773
 40
2.541773
 40
2.541773
 10
76.121703
 20
21.042328
 30
0.0
 10
76.137869
 20
21.015433
 30
0.0
 10
76.267200
 20
20.800272
 30
0.0
 10
76.703690
 20
20.074103
 30
0.0
 10
77.124015
 20
19.374829
 30
0.0
 10
77.431175
 20
18.863821
 30
0.0
 11
76.121703
 21
21.042328
 31
0.0
 11
76.170202
 21
20.961643
 31
0.0
 11
76.509695
 21
20.396844
 31
0.0
 11
77.431175
 21
18.863821
 31
0.0
  0
ENDSEC
  0
SECTION
  2
OBJECTS
  0
DICTIONARY
  5
C
330
0
100
AcDbDictionary
  3
ACAD_GROUP
350
D
  3
ACAD_MLINESTYLE
350
17
  0
DICTIONARY
  5
D
330
C
100
AcDbDictionary
  0
DICTIONARY
  5
1A
330
C
100
AcDbDictionary
  0
DICTIONARY
  5
17
330
C
100
AcDbDictionary
  3
STANDARD
350
18
  0
DICTIONARY
  5
19
330
C
100
AcDbDictionary
  0
ENDSEC
  0
EOF
