999
DXF created by Inkscape
  0
SECTION
  2
HEADER
  9
$ACADVER
  1
AC1014
  9
$HANDSEED
  5
FFFF
  9
$MEASUREMENT
 70
     1
  0
ENDSEC
  0
SECTION
  2
TABLES
  0
TABLE
  2
VPORT
  5
8
330
0
100
AcDbSymbolTable
 70
     4
  0
VPORT
  5
2E
330
8
100
AcDbSymbolTableRecord
100
AcDbViewportTableRecord
  2
*ACTIVE
 70
     0
 10
0.0
 20
0.0
 11
1.0
 21
1.0
 12
210.0
 22
148.5
 13
0.0
 23
0.0
 14
10.0
 24
10.0
 15
10.0
 25
10.0
 16
0.0
 26
0.0
 36
1.0
 17
0.0
 27
0.0
 37
0.0
 40
341.0
 41
1.24
 42
50.0
 43
0.0
 44
0.0
 50
0.0
 51
0.0
 71
     0
 72
   100
 73
     1
 74
     3
 75
     0
 76
     0
 77
     0
 78
     0
  0
ENDTAB
  0
TABLE
  2
LTYPE
  5
5
330
0
100
AcDbSymbolTable
 70
     1
  0
LTYPE
  5
14
330
5
100
AcDbSymbolTableRecord
100
AcDbLinetypeTableRecord
  2
BYBLOCK
 70
     0
  3

 72
    65
 73
     0
 40
0.0
  0
LTYPE
  5
15
330
5
100
AcDbSymbolTableRecord
100
AcDbLinetypeTableRecord
  2
BYLAYER
 70
     0
  3

 72
    65
 73
     0
 40
0.0
  0
LTYPE
  5
16
330
5
100
AcDbSymbolTableRecord
100
AcDbLinetypeTableRecord
  2
CONTINUOUS
 70
     0
  3
Solid line
 72
    65
 73
     0
 40
0.0
  0
ENDTAB
  0
TABLE
  2
LAYER
  5
2
330
0
100
AcDbSymbolTable
 70
1
  0
LAYER
  5
10
330
2
100
AcDbSymbolTableRecord
100
AcDbLayerTableRecord
  2
0
 70
     0
 62
     7
  6
CONTINUOUS
  0
ENDTAB
  0
TABLE
  2
STYLE
  5
3
330
0
100
AcDbSymbolTable
 70
     1
  0
STYLE
  5
11
330
3
100
AcDbSymbolTableRecord
100
AcDbTextStyleTableRecord
  2
STANDARD
 70
     0
 40
0.0
 41
1.0
 50
0.0
 71
     0
 42
2.5
  3
txt
  4

  0
ENDTAB
  0
TABLE
  2
VIEW
  5
6
330
0
100
AcDbSymbolTable
 70
     0
  0
ENDTAB
  0
TABLE
  2
UCS
  5
7
330
0
100
AcDbSymbolTable
 70
     0
  0
ENDTAB
  0
TABLE
  2
APPID
  5
9
330
0
100
AcDbSymbolTable
 70
     2
  0
APPID
  5
12
330
9
100
AcDbSymbolTableRecord
100
AcDbRegAppTableRecord
  2
ACAD
 70
     0
  0
ENDTAB
  0
TABLE
  2
DIMSTYLE
  5
A
330
0
100
AcDbSymbolTable
 70
     1
  0
DIMSTYLE
105
27
330
A
100
AcDbSymbolTableRecord
100
AcDbDimStyleTableRecord
  2
ISO-25
 70
     0
  3

  4

  5

  6

  7

 40
1.0
 41
2.5
 42
0.625
 43
3.75
 44
1.25
 45
0.0
 46
0.0
 47
0.0
 48
0.0
140
2.5
141
2.5
142
0.0
143
0.03937007874016
144
1.0
145
0.0
146
1.0
147
0.625
 71
     0
 72
     0
 73
     0
 74
     0
 75
     0
 76
     0
 77
     1
 78
     8
170
     0
171
     3
172
     1
173
     0
174
     0
175
     0
176
     0
177
     0
178
     0
270
     2
271
     2
272
     2
273
     2
274
     3
340
11
275
     0
280
     0
281
     0
282
     0
283
     0
284
     8
285
     0
286
     0
287
     3
288
     0
  0
ENDTAB
  0
TABLE
  2
BLOCK_RECORD
  5
1
330
0
100
AcDbSymbolTable
 70
     1
  0
BLOCK_RECORD
  5
1F
330
1
100
AcDbSymbolTableRecord
100
AcDbBlockTableRecord
  2
*MODEL_SPACE
  0
BLOCK_RECORD
  5
1B
330
1
100
AcDbSymbolTableRecord
100
AcDbBlockTableRecord
  2
*PAPER_SPACE
  0
ENDTAB
  0
ENDSEC
  0
SECTION
  2
BLOCKS
  0
BLOCK
  5
20
330
1F
100
AcDbEntity
  8
0
100
AcDbBlockBegin
  2
*MODEL_SPACE
 70
     0
 10
0.0
 20
0.0
 30
0.0
  3
*MODEL_SPACE
  1

  0
ENDBLK
  5
21
330
1F
100
AcDbEntity
  8
0
100
AcDbBlockEnd
  0
BLOCK
  5
1C
330
1B
100
AcDbEntity
 67
     1
  8
0
100
AcDbBlockBegin
  2
*PAPER_SPACE
  1

  0
ENDBLK
  5
1D
330
1B
100
AcDbEntity
 67
     1
  8
0
100
AcDbBlockEnd
  0
ENDSEC
  0
SECTION
  2
ENTITIES
  0
LINE
  5
100
100
AcDbEntity
  8
0
 62
1
100
AcDbLine
 10
59.893903
 20
190.840336
 30
0.0
 11
88.970279
 21
174.136599
 31
0.0
  0
LINE
  5
101
100
AcDbEntity
  8
0
 62
1
100
AcDbLine
 10
89.001103
 20
207.611355
 30
0.0
 11
88.949197
 21
274.844161
 31
0.0
  0
LINE
  5
102
100
AcDbEntity
  8
0
 62
1
100
AcDbLine
 10
88.949197
 20
274.844161
 30
0.0
 11
118.082195
 21
258.092415
 31
0.0
  0
LINE
  5
103
100
AcDbEntity
  8
0
 62
1
100
AcDbLine
 10
30.789186
 20
140.477992
 30
0.0
 11
30.796552
 21
174.050434
 31
0.0
  0
LINE
  5
104
100
AcDbEntity
  8
0
 62
1
100
AcDbLine
 10
88.892905
 20
140.496322
 30
0.0
 11
59.900143
 21
123.674952
 31
0.0
  0
LINE
  5
105
100
AcDbEntity
  8
0
 62
1
100
AcDbLine
 10
30.789180
 20
140.477992
 30
0.0
 11
59.900143
 21
123.674952
 31
0.0
  0
LINE
  5
106
100
AcDbEntity
  8
0
 62
1
100
AcDbLine
 10
118.063219
 20
224.357818
 30
0.0
 11
89.001103
 21
207.611355
 31
0.0
  0
LINE
  5
107
100
AcDbEntity
  8
0
 62
1
100
AcDbLine
 10
89.001103
 20
207.611355
 30
0.0
 11
59.893903
 21
190.840336
 31
0.0
  0
LINE
  5
108
100
AcDbEntity
  8
0
 62
1
100
AcDbLine
 10
59.893903
 20
190.840336
 30
0.0
 11
30.780287
 21
174.057455
 31
0.0
  0
LINE
  5
109
100
AcDbEntity
  8
0
 62
1
100
AcDbLine
 10
59.866095
 20
224.431873
 30
0.0
 11
89.001103
 21
207.611355
 31
0.0
  0
LINE
  5
10a
100
AcDbEntity
  8
0
 62
1
100
AcDbLine
 10
88.949197
 20
274.844159
 30
0.0
 11
59.906397
 21
258.048708
 31
0.0
  0
LINE
  5
10b
100
AcDbEntity
  8
0
 62
1
100
AcDbLine
 10
59.893903
 20
190.840336
 30
0.0
 11
59.921448
 21
123.700753
 31
0.0
  0
LINE
  5
10c
100
AcDbEntity
  8
0
 62
1
100
AcDbLine
 10
59.923601
 20
258.068325
 30
0.0
 11
88.960650
 21
241.253141
 31
0.0
  0
LINE
  5
10d
100
AcDbEntity
  8
0
 62
1
100
AcDbLine
 10
88.960650
 20
241.253141
 30
0.0
 11
59.866095
 21
224.431873
 31
0.0
  0
LINE
  5
10e
100
AcDbEntity
  8
0
 62
1
100
AcDbLine
 10
59.866062
 20
157.264113
 30
0.0
 11
30.699879
 21
140.448774
 31
0.0
  0
LINE
  5
10f
100
AcDbEntity
  8
0
 62
1
100
AcDbLine
 10
59.866062
 20
157.264113
 30
0.0
 11
30.780287
 21
174.057455
 31
0.0
  0
LINE
  5
110
100
AcDbEntity
  8
0
 62
1
100
AcDbLine
 10
59.906405
 20
258.048694
 30
0.0
 11
59.873563
 21
224.544852
 31
0.0
  0
LINE
  5
111
100
AcDbEntity
  8
0
 62
5
100
AcDbLine
 10
59.693553
 20
281.233292
 30
0.0
 11
59.693835
 21
280.030563
 31
0.0
  0
LINE
  5
112
100
AcDbEntity
  8
0
 62
5
100
AcDbLine
 10
59.693835
 20
280.030563
 30
0.0
 11
58.837282
 21
280.030563
 31
0.0
  0
LINE
  5
113
100
AcDbEntity
  8
0
 62
5
100
AcDbLine
 10
58.837282
 20
280.030563
 30
0.0
 11
58.837282
 21
282.108154
 31
0.0
  0
LINE
  5
114
100
AcDbEntity
  8
0
 62
5
100
AcDbLine
 10
58.837678
 20
267.785106
 30
0.0
 11
58.837678
 21
269.862693
 31
0.0
  0
LINE
  5
115
100
AcDbEntity
  8
0
 62
5
100
AcDbLine
 10
58.837678
 20
269.862693
 30
0.0
 11
59.694225
 21
269.862693
 31
0.0
  0
LINE
  5
116
100
AcDbEntity
  8
0
 62
5
100
AcDbLine
 10
59.694225
 20
269.862693
 30
0.0
 11
59.693943
 21
268.659964
 31
0.0
  0
LINE
  5
117
100
AcDbEntity
  8
0
 62
5
100
AcDbLine
 10
59.693550
 20
281.233287
 30
0.0
 11
59.693748
 21
291.734802
 31
0.0
  0
LINE
  5
118
100
AcDbEntity
  8
0
 62
5
100
AcDbLine
 10
59.693748
 20
258.158450
 30
0.0
 11
59.693945
 21
268.659964
 31
0.0
  0
LINE
  5
119
100
AcDbEntity
  8
0
 62
1
100
AcDbLine
 10
59.694067
 20
277.479202
 30
0.0
 11
59.694335
 21
272.414009
 31
0.0
  0
LINE
  5
11a
100
AcDbEntity
  8
0
 62
5
100
AcDbLine
 10
118.274505
 20
291.868130
 30
0.0
 11
124.935547
 21
285.207086
 31
0.0
  0
LINE
  5
11b
100
AcDbEntity
  8
0
 62
5
100
AcDbLine
 10
124.935547
 20
285.207086
 30
0.0
 11
124.935547
 21
264.747890
 31
0.0
  0
LINE
  5
11c
100
AcDbEntity
  8
0
 62
5
100
AcDbLine
 10
124.935547
 20
264.747890
 30
0.0
 11
118.274505
 21
258.086847
 31
0.0
  0
LINE
  5
11d
100
AcDbEntity
  8
0
 62
1
100
AcDbLine
 10
118.274702
 20
281.302520
 30
0.0
 11
118.274505
 21
291.868130
 31
0.0
  0
LINE
  5
11e
100
AcDbEntity
  8
0
 62
1
100
AcDbLine
 10
118.274505
 20
258.086847
 30
0.0
 11
118.274304
 21
268.652457
 31
0.0
  0
SPLINE
  5
11f
100
AcDbEntity
  8
0
 62
5
100
AcDbSpline
 70
0
 71
3
 72
16
 73
12
 74
10
 40
0.000000
 40
0.000000
 40
0.000000
 40
0.000000
 40
0.748484
 40
2.447330
 40
4.427841
 40
7.928885
 40
11.589563
 40
15.090570
 40
17.071924
 40
18.771743
 40
19.520579
 40
19.520579
 40
19.520579
 40
19.520579
 10
58.837282
 20
282.108154
 30
0.0
 10
58.593283
 20
282.056085
 30
0.0
 10
57.795473
 20
281.885832
 30
0.0
 10
56.401175
 20
281.355795
 30
0.0
 10
54.506198
 20
279.778428
 30
0.0
 10
53.518429
 20
276.723836
 30
0.0
 10
53.518257
 20
273.173857
 30
0.0
 10
54.506564
 20
270.119212
 30
0.0
 10
56.401442
 20
268.541133
 30
0.0
 10
57.795663
 20
268.009156
 30
0.0
 10
58.593643
 20
267.837578
 30
0.0
 10
58.837678
 20
267.785106
 30
0.0
 11
58.837282
 21
282.108154
 31
0.0
 11
58.107824
 21
281.940468
 31
0.0
 11
56.529861
 21
281.311094
 31
0.0
 11
55.019013
 21
280.030563
 31
0.0
 11
53.720568
 21
276.779202
 31
0.0
 11
53.720544
 21
273.118523
 31
0.0
 11
55.019013
 21
269.867212
 31
0.0
 11
56.529992
 21
268.585531
 31
0.0
 11
58.108131
 21
267.953974
 31
0.0
 11
58.837678
 21
267.785106
 31
0.0
  0
LINE
  5
120
100
AcDbEntity
  8
0
 62
5
100
AcDbLine
 10
119.136084
 20
268.963166
 30
0.0
 11
119.136084
 21
280.996357
 31
0.0
  0
SPLINE
  5
121
100
AcDbEntity
  8
0
 62
5
100
AcDbSpline
 70
0
 71
3
 72
10
 73
6
 74
4
 40
0.000000
 40
0.000000
 40
0.000000
 40
0.000000
 40
1.362439
 40
1.864391
 40
1.936098
 40
1.936098
 40
1.936098
 40
1.936098
 10
117.356526
 20
268.200506
 30
0.0
 10
117.773953
 20
268.379402
 30
0.0
 10
118.345169
 20
268.624206
 30
0.0
 10
118.938355
 20
268.878426
 30
0.0
 10
119.114114
 20
268.953750
 30
0.0
 10
119.136084
 20
268.963166
 30
0.0
 11
117.356526
 21
268.200506
 31
0.0
 11
118.608807
 21
268.737192
 31
0.0
 11
119.070174
 21
268.934919
 31
0.0
 11
119.136084
 21
268.963166
 31
0.0
  0
LINE
  5
122
100
AcDbEntity
  8
0
 62
5
100
AcDbLine
 10
88.970273
 20
140.724567
 30
0.0
 11
95.631316
 21
134.063521
 31
0.0
  0
LINE
  5
123
100
AcDbEntity
  8
0
 62
5
100
AcDbLine
 10
95.631316
 20
134.063521
 30
0.0
 11
95.631316
 21
113.604326
 31
0.0
  0
LINE
  5
124
100
AcDbEntity
  8
0
 62
5
100
AcDbLine
 10
95.631316
 20
113.604326
 30
0.0
 11
88.970273
 21
106.943284
 31
0.0
  0
LINE
  5
125
100
AcDbEntity
  8
0
 62
1
100
AcDbLine
 10
88.970471
 20
130.158957
 30
0.0
 11
88.970273
 21
140.724567
 31
0.0
  0
LINE
  5
126
100
AcDbEntity
  8
0
 62
1
100
AcDbLine
 10
88.970273
 20
106.943284
 30
0.0
 11
88.970073
 21
117.508893
 31
0.0
  0
SPLINE
  5
127
100
AcDbEntity
  8
0
 62
5
100
AcDbSpline
 70
0
 71
3
 72
10
 73
6
 74
4
 40
0.000000
 40
0.000000
 40
0.000000
 40
0.000000
 40
0.071707
 40
0.573659
 40
1.936099
 40
1.936099
 40
1.936099
 40
1.936099
 10
119.136084
 20
280.996357
 30
0.0
 10
119.114114
 20
281.005772
 30
0.0
 10
118.938355
 20
281.081097
 30
0.0
 10
118.345169
 20
281.335317
 30
0.0
 10
117.773953
 20
281.580122
 30
0.0
 10
117.356526
 20
281.759018
 30
0.0
 11
119.136084
 21
280.996357
 31
0.0
 11
119.070174
 21
281.024604
 31
0.0
 11
118.608807
 21
281.222330
 31
0.0
 11
117.356526
 21
281.759018
 31
0.0
  0
LINE
  5
128
100
AcDbEntity
  8
0
 62
5
100
AcDbLine
 10
89.831853
 20
117.819603
 30
0.0
 11
89.831853
 21
129.852794
 31
0.0
  0
SPLINE
  5
129
100
AcDbEntity
  8
0
 62
5
100
AcDbSpline
 70
0
 71
3
 72
10
 73
6
 74
4
 40
0.000000
 40
0.000000
 40
0.000000
 40
0.000000
 40
1.362440
 40
1.864391
 40
1.936098
 40
1.936098
 40
1.936098
 40
1.936098
 10
88.052295
 20
117.056943
 30
0.0
 10
88.469722
 20
117.235838
 30
0.0
 10
89.040938
 20
117.480643
 30
0.0
 10
89.634124
 20
117.734863
 30
0.0
 10
89.809883
 20
117.810188
 30
0.0
 10
89.831853
 20
117.819603
 30
0.0
 11
88.052295
 21
117.056943
 31
0.0
 11
89.304576
 21
117.593630
 31
0.0
 11
89.765943
 21
117.791356
 31
0.0
 11
89.831853
 21
117.819603
 31
0.0
  0
LINE
  5
12a
100
AcDbEntity
  8
0
 62
5
100
AcDbLine
 10
88.807770
 20
241.248462
 30
0.0
 11
97.906925
 21
243.686574
 31
0.0
  0
LINE
  5
12b
100
AcDbEntity
  8
0
 62
5
100
AcDbLine
 10
97.906925
 20
243.686574
 30
0.0
 11
115.625107
 21
233.456975
 31
0.0
  0
LINE
  5
12c
100
AcDbEntity
  8
0
 62
5
100
AcDbLine
 10
115.625107
 20
233.456975
 30
0.0
 11
118.063219
 21
224.357820
 31
0.0
  0
LINE
  5
12d
100
AcDbEntity
  8
0
 62
1
100
AcDbLine
 10
97.957956
 20
235.965829
 30
0.0
 11
88.807770
 21
241.248462
 31
0.0
  0
LINE
  5
12e
100
AcDbEntity
  8
0
 62
1
100
AcDbLine
 10
118.063219
 20
224.357820
 30
0.0
 11
108.913033
 21
229.640453
 31
0.0
  0
SPLINE
  5
12f
100
AcDbEntity
  8
0
 62
5
100
AcDbSpline
 70
0
 71
3
 72
10
 73
6
 74
4
 40
0.000000
 40
0.000000
 40
0.000000
 40
0.000000
 40
0.071707
 40
0.573659
 40
1.936098
 40
1.936098
 40
1.936098
 40
1.936098
 10
89.831853
 20
129.852794
 30
0.0
 10
89.809883
 20
129.862209
 30
0.0
 10
89.634124
 20
129.937534
 30
0.0
 10
89.040938
 20
130.191754
 30
0.0
 10
88.469722
 20
130.436559
 30
0.0
 10
88.052295
 20
130.615454
 30
0.0
 11
89.831853
 21
129.852794
 31
0.0
 11
89.765943
 21
129.881041
 31
0.0
 11
89.304576
 21
130.078767
 31
0.0
 11
88.052295
 21
130.615454
 31
0.0
  0
LINE
  5
130
100
AcDbEntity
  8
0
 62
5
100
AcDbLine
 10
109.074839
 20
230.542130
 30
0.0
 11
98.653792
 21
236.558727
 31
0.0
  0
SPLINE
  5
131
100
AcDbEntity
  8
0
 62
5
100
AcDbSpline
 70
0
 71
3
 72
10
 73
6
 74
4
 40
0.000000
 40
0.000000
 40
0.000000
 40
0.000000
 40
1.362439
 40
1.864391
 40
1.936098
 40
1.936098
 40
1.936098
 40
1.936098
 10
108.845545
 20
228.619658
 30
0.0
 10
108.899330
 20
229.070608
 30
0.0
 10
108.972930
 20
229.687698
 30
0.0
 10
109.049362
 20
230.328522
 30
0.0
 10
109.072008
 20
230.518396
 30
0.0
 10
109.074839
 20
230.542130
 30
0.0
 11
108.845545
 21
228.619658
 31
0.0
 11
109.006900
 21
229.972509
 31
0.0
 11
109.066347
 21
230.470928
 31
0.0
 11
109.074839
 21
230.542130
 31
0.0
  0
LINE
  5
132
100
AcDbEntity
  8
0
 62
5
100
AcDbLine
 10
118.256552
 20
190.720716
 30
0.0
 11
109.157397
 21
188.282604
 31
0.0
  0
LINE
  5
133
100
AcDbEntity
  8
0
 62
5
100
AcDbLine
 10
109.157397
 20
188.282604
 30
0.0
 11
91.439213
 21
198.512200
 31
0.0
  0
LINE
  5
134
100
AcDbEntity
  8
0
 62
5
100
AcDbLine
 10
91.439213
 20
198.512200
 30
0.0
 11
89.001103
 21
207.611355
 31
0.0
  0
LINE
  5
135
100
AcDbEntity
  8
0
 62
1
100
AcDbLine
 10
109.106366
 20
196.003349
 30
0.0
 11
118.256552
 21
190.720716
 31
0.0
  0
LINE
  5
136
100
AcDbEntity
  8
0
 62
1
100
AcDbLine
 10
89.001103
 20
207.611355
 30
0.0
 11
98.151290
 21
202.328725
 31
0.0
  0
SPLINE
  5
137
100
AcDbEntity
  8
0
 62
5
100
AcDbSpline
 70
0
 71
3
 72
10
 73
6
 74
4
 40
0.000000
 40
0.000000
 40
0.000000
 40
0.000000
 40
0.071707
 40
0.573660
 40
1.936101
 40
1.936101
 40
1.936101
 40
1.936101
 10
98.653792
 20
236.558727
 30
0.0
 10
98.634653
 20
236.544409
 30
0.0
 10
98.481540
 20
236.429859
 30
0.0
 10
97.964786
 20
236.043254
 30
0.0
 10
97.467170
 20
235.670968
 30
0.0
 10
97.103528
 20
235.398912
 30
0.0
 11
98.653792
 21
236.558727
 31
0.0
 11
98.596375
 21
236.515771
 31
0.0
 11
98.194455
 21
236.215078
 31
0.0
 11
97.103528
 21
235.398912
 31
0.0
  0
LINE
  5
138
100
AcDbEntity
  8
0
 62
5
100
AcDbLine
 10
97.989480
 20
201.427047
 30
0.0
 11
108.410530
 21
195.410451
 31
0.0
  0
SPLINE
  5
139
100
AcDbEntity
  8
0
 62
5
100
AcDbSpline
 70
0
 71
3
 72
10
 73
6
 74
4
 40
0.000000
 40
0.000000
 40
0.000000
 40
0.000000
 40
1.362440
 40
1.864391
 40
1.936098
 40
1.936098
 40
1.936098
 40
1.936098
 10
98.218777
 20
203.349520
 30
0.0
 10
98.164992
 20
202.898570
 30
0.0
 10
98.091390
 20
202.281480
 30
0.0
 10
98.014958
 20
201.640656
 30
0.0
 10
97.992311
 20
201.450782
 30
0.0
 10
97.989480
 20
201.427047
 30
0.0
 11
98.218777
 21
203.349520
 31
0.0
 11
98.057420
 21
201.996669
 31
0.0
 11
97.997973
 21
201.498250
 31
0.0
 11
97.989480
 21
201.427047
 31
0.0
  0
LINE
  5
13a
100
AcDbEntity
  8
0
 62
5
100
AcDbLine
 10
30.955793
 20
140.367240
 30
0.0
 11
21.856637
 21
137.929127
 31
0.0
  0
LINE
  5
13b
100
AcDbEntity
  8
0
 62
5
100
AcDbLine
 10
21.856637
 20
137.929127
 30
0.0
 11
4.138454
 21
148.158723
 31
0.0
  0
LINE
  5
13c
100
AcDbEntity
  8
0
 62
5
100
AcDbLine
 10
4.138454
 20
148.158723
 30
0.0
 11
1.700343
 21
157.257878
 31
0.0
  0
LINE
  5
13d
100
AcDbEntity
  8
0
 62
1
100
AcDbLine
 10
21.805607
 20
145.649872
 30
0.0
 11
30.955793
 21
140.367240
 31
0.0
  0
LINE
  5
13e
100
AcDbEntity
  8
0
 62
1
100
AcDbLine
 10
1.700343
 20
157.257878
 30
0.0
 11
10.850529
 21
151.975248
 31
0.0
  0
SPLINE
  5
13f
100
AcDbEntity
  8
0
 62
5
100
AcDbSpline
 70
0
 71
3
 72
10
 73
6
 74
4
 40
0.000000
 40
0.000000
 40
0.000000
 40
0.000000
 40
0.071707
 40
0.573659
 40
1.936099
 40
1.936099
 40
1.936099
 40
1.936099
 10
108.410530
 20
195.410451
 30
0.0
 10
108.429669
 20
195.424769
 30
0.0
 10
108.582782
 20
195.539319
 30
0.0
 10
109.099536
 20
195.925923
 30
0.0
 10
109.597152
 20
196.298208
 30
0.0
 10
109.960794
 20
196.570263
 30
0.0
 11
108.410530
 21
195.410451
 31
0.0
 11
108.467947
 21
195.453407
 31
0.0
 11
108.869868
 21
195.754099
 31
0.0
 11
109.960794
 21
196.570263
 31
0.0
  0
LINE
  5
140
100
AcDbEntity
  8
0
 62
5
100
AcDbLine
 10
10.688722
 20
151.073571
 30
0.0
 11
21.109771
 21
145.056974
 31
0.0
  0
SPLINE
  5
141
100
AcDbEntity
  8
0
 62
5
100
AcDbSpline
 70
0
 71
3
 72
10
 73
6
 74
4
 40
0.000000
 40
0.000000
 40
0.000000
 40
0.000000
 40
1.362440
 40
1.864391
 40
1.936098
 40
1.936098
 40
1.936098
 40
1.936098
 10
10.918017
 20
152.996043
 30
0.0
 10
10.864232
 20
152.545093
 30
0.0
 10
10.790631
 20
151.928003
 30
0.0
 10
10.714199
 20
151.287179
 30
0.0
 10
10.691553
 20
151.097305
 30
0.0
 10
10.688722
 20
151.073571
 30
0.0
 11
10.918017
 21
152.996043
 31
0.0
 11
10.756661
 21
151.643192
 31
0.0
 11
10.697214
 21
151.144774
 31
0.0
 11
10.688722
 21
151.073571
 31
0.0
  0
LINE
  5
142
100
AcDbEntity
  8
0
 62
5
100
AcDbLine
 10
59.714830
 20
157.245946
 30
0.0
 11
68.813985
 21
154.807834
 31
0.0
  0
LINE
  5
143
100
AcDbEntity
  8
0
 62
5
100
AcDbLine
 10
68.813985
 20
154.807834
 30
0.0
 11
86.532167
 21
165.037433
 31
0.0
  0
LINE
  5
144
100
AcDbEntity
  8
0
 62
5
100
AcDbLine
 10
86.532167
 20
165.037433
 30
0.0
 11
88.970279
 21
174.136588
 31
0.0
  0
LINE
  5
145
100
AcDbEntity
  8
0
 62
1
100
AcDbLine
 10
68.865016
 20
162.528579
 30
0.0
 11
59.714830
 21
157.245946
 31
0.0
  0
LINE
  5
146
100
AcDbEntity
  8
0
 62
1
100
AcDbLine
 10
88.970279
 20
174.136588
 30
0.0
 11
79.820093
 21
168.853955
 31
0.0
  0
SPLINE
  5
147
100
AcDbEntity
  8
0
 62
5
100
AcDbSpline
 70
0
 71
3
 72
10
 73
6
 74
4
 40
0.000000
 40
0.000000
 40
0.000000
 40
0.000000
 40
0.071707
 40
0.573659
 40
1.936099
 40
1.936099
 40
1.936099
 40
1.936099
 10
21.109771
 20
145.056974
 30
0.0
 10
21.128910
 20
145.071293
 30
0.0
 10
21.282022
 20
145.185842
 30
0.0
 10
21.798776
 20
145.572446
 30
0.0
 10
22.296392
 20
145.944732
 30
0.0
 10
22.660033
 20
146.216786
 30
0.0
 11
21.109771
 21
145.056974
 31
0.0
 11
21.167188
 21
145.099930
 31
0.0
 11
21.569108
 21
145.400622
 31
0.0
 11
22.660033
 21
146.216786
 31
0.0
  0
LINE
  5
148
100
AcDbEntity
  8
0
 62
5
100
AcDbLine
 10
79.981899
 20
167.952277
 30
0.0
 11
69.560852
 21
161.935681
 31
0.0
  0
SPLINE
  5
149
100
AcDbEntity
  8
0
 62
5
100
AcDbSpline
 70
0
 71
3
 72
10
 73
6
 74
4
 40
0.000000
 40
0.000000
 40
0.000000
 40
0.000000
 40
1.362439
 40
1.864391
 40
1.936098
 40
1.936098
 40
1.936098
 40
1.936098
 10
79.752605
 20
169.874750
 30
0.0
 10
79.806390
 20
169.423799
 30
0.0
 10
79.879991
 20
168.806710
 30
0.0
 10
79.956422
 20
168.165885
 30
0.0
 10
79.979068
 20
167.976012
 30
0.0
 10
79.981899
 20
167.952277
 30
0.0
 11
79.752605
 21
169.874750
 31
0.0
 11
79.913960
 21
168.521899
 31
0.0
 11
79.973407
 21
168.023480
 31
0.0
 11
79.981899
 21
167.952277
 31
0.0
  0
LINE
  5
14a
100
AcDbEntity
  8
0
 62
5
100
AcDbLine
 10
30.802165
 20
207.489680
 30
0.0
 11
24.141122
 21
200.828635
 31
0.0
  0
LINE
  5
14b
100
AcDbEntity
  8
0
 62
5
100
AcDbLine
 10
24.141122
 20
200.828635
 30
0.0
 11
24.141122
 21
180.369440
 31
0.0
  0
LINE
  5
14c
100
AcDbEntity
  8
0
 62
5
100
AcDbLine
 10
24.141122
 20
180.369440
 30
0.0
 11
30.802165
 21
173.708397
 31
0.0
  0
LINE
  5
14d
100
AcDbEntity
  8
0
 62
1
100
AcDbLine
 10
30.801968
 20
196.924071
 30
0.0
 11
30.802165
 21
207.489680
 31
0.0
  0
LINE
  5
14e
100
AcDbEntity
  8
0
 62
1
100
AcDbLine
 10
30.802165
 20
173.708397
 30
0.0
 11
30.802366
 21
184.274007
 31
0.0
  0
SPLINE
  5
14f
100
AcDbEntity
  8
0
 62
5
100
AcDbSpline
 70
0
 71
3
 72
10
 73
6
 74
4
 40
0.000000
 40
0.000000
 40
0.000000
 40
0.000000
 40
0.071707
 40
0.573660
 40
1.936101
 40
1.936101
 40
1.936101
 40
1.936101
 10
69.560852
 20
161.935681
 30
0.0
 10
69.541713
 20
161.949999
 30
0.0
 10
69.388601
 20
162.064549
 30
0.0
 10
68.871846
 20
162.451154
 30
0.0
 10
68.374231
 20
162.823440
 30
0.0
 10
68.010588
 20
163.095495
 30
0.0
 11
69.560852
 21
161.935681
 31
0.0
 11
69.503435
 21
161.978637
 31
0.0
 11
69.101515
 21
162.279329
 31
0.0
 11
68.010588
 21
163.095495
 31
0.0
  0
LINE
  5
150
100
AcDbEntity
  8
0
 62
5
100
AcDbLine
 10
29.940586
 20
184.584717
 30
0.0
 11
29.940586
 21
196.617907
 31
0.0
  0
SPLINE
  5
151
100
AcDbEntity
  8
0
 62
5
100
AcDbSpline
 70
0
 71
3
 72
10
 73
6
 74
4
 40
0.000000
 40
0.000000
 40
0.000000
 40
0.000000
 40
1.362440
 40
1.864391
 40
1.936098
 40
1.936098
 40
1.936098
 40
1.936098
 10
31.720144
 20
183.822056
 30
0.0
 10
31.302717
 20
184.000952
 30
0.0
 10
30.731500
 20
184.245757
 30
0.0
 10
30.138314
 20
184.499977
 30
0.0
 10
29.962556
 20
184.575301
 30
0.0
 10
29.940586
 20
184.584717
 30
0.0
 11
31.720144
 21
183.822056
 31
0.0
 11
30.467862
 21
184.358743
 31
0.0
 11
30.006495
 21
184.556470
 31
0.0
 11
29.940586
 21
184.584717
 31
0.0
  0
LINE
  5
152
100
AcDbEntity
  8
0
 62
5
100
AcDbLine
 10
30.699685
 20
129.947262
 30
0.0
 11
30.699967
 21
128.744533
 31
0.0
  0
LINE
  5
153
100
AcDbEntity
  8
0
 62
5
100
AcDbLine
 10
30.699967
 20
128.744533
 30
0.0
 11
29.843414
 21
128.744533
 31
0.0
  0
LINE
  5
154
100
AcDbEntity
  8
0
 62
5
100
AcDbLine
 10
29.843414
 20
128.744533
 30
0.0
 11
29.843414
 21
130.822126
 31
0.0
  0
SPLINE
  5
155
100
AcDbEntity
  8
0
 62
5
100
AcDbSpline
 70
0
 71
3
 72
10
 73
6
 74
4
 40
0.000000
 40
0.000000
 40
0.000000
 40
0.000000
 40
0.071707
 40
0.573659
 40
1.936098
 40
1.936098
 40
1.936098
 40
1.936098
 10
29.940586
 20
196.617907
 30
0.0
 10
29.962556
 20
196.627323
 30
0.0
 10
30.138314
 20
196.702647
 30
0.0
 10
30.731500
 20
196.956868
 30
0.0
 10
31.302717
 20
197.201672
 30
0.0
 10
31.720144
 20
197.380568
 30
0.0
 11
29.940586
 21
196.617907
 31
0.0
 11
30.006495
 21
196.646154
 31
0.0
 11
30.467862
 21
196.843881
 31
0.0
 11
31.720144
 21
197.380568
 31
0.0
  0
LINE
  5
156
100
AcDbEntity
  8
0
 62
5
100
AcDbLine
 10
29.843809
 20
116.499077
 30
0.0
 11
29.843809
 21
118.576664
 31
0.0
  0
LINE
  5
157
100
AcDbEntity
  8
0
 62
5
100
AcDbLine
 10
29.843809
 20
118.576664
 30
0.0
 11
30.700356
 21
118.576664
 31
0.0
  0
LINE
  5
158
100
AcDbEntity
  8
0
 62
5
100
AcDbLine
 10
30.700356
 20
118.576664
 30
0.0
 11
30.700074
 21
117.373935
 31
0.0
  0
LINE
  5
159
100
AcDbEntity
  8
0
 62
5
100
AcDbLine
 10
30.699682
 20
129.947256
 30
0.0
 11
30.699879
 21
140.448774
 31
0.0
  0
LINE
  5
15a
100
AcDbEntity
  8
0
 62
5
100
AcDbLine
 10
30.699879
 20
106.872420
 30
0.0
 11
30.700077
 21
117.373935
 31
0.0
  0
LINE
  5
15b
100
AcDbEntity
  8
0
 62
1
100
AcDbLine
 10
30.700198
 20
126.193173
 30
0.0
 11
30.700466
 21
121.127979
 31
0.0
  0
LINE
  5
15c
100
AcDbEntity
  8
0
 62
5
100
AcDbLine
 10
68.909765
 20
152.033917
 30
0.0
 11
69.951163
 21
151.432213
 31
0.0
  0
LINE
  5
15d
100
AcDbEntity
  8
0
 62
5
100
AcDbLine
 10
69.951163
 20
151.432213
 30
0.0
 11
70.379438
 21
152.174009
 31
0.0
  0
LINE
  5
15e
100
AcDbEntity
  8
0
 62
5
100
AcDbLine
 10
70.379438
 20
152.174009
 30
0.0
 11
68.580192
 21
153.212804
 31
0.0
  0
SPLINE
  5
15f
100
AcDbEntity
  8
0
 62
5
100
AcDbSpline
 70
0
 71
3
 72
16
 73
12
 74
10
 40
0.000000
 40
0.000000
 40
0.000000
 40
0.000000
 40
0.748484
 40
2.447331
 40
4.427841
 40
7.928884
 40
11.589562
 40
15.090570
 40
17.071922
 40
18.771742
 40
19.520578
 40
19.520578
 40
19.520578
 40
19.520578
 10
29.843414
 20
130.822126
 30
0.0
 10
29.599414
 20
130.770056
 30
0.0
 10
28.801604
 20
130.599803
 30
0.0
 10
27.407306
 20
130.069765
 30
0.0
 10
25.512331
 20
128.492397
 30
0.0
 10
24.524561
 20
125.437807
 30
0.0
 10
24.524388
 20
121.887827
 30
0.0
 10
25.512697
 20
118.833184
 30
0.0
 10
27.407573
 20
117.255104
 30
0.0
 10
28.801794
 20
116.723127
 30
0.0
 10
29.599775
 20
116.551548
 30
0.0
 10
29.843809
 20
116.499077
 30
0.0
 11
29.843414
 21
130.822126
 31
0.0
 11
29.113955
 21
130.654439
 31
0.0
 11
27.535992
 21
130.025065
 31
0.0
 11
26.025146
 21
128.744533
 31
0.0
 11
24.726700
 21
125.493172
 31
0.0
 11
24.726676
 21
121.832494
 31
0.0
 11
26.025146
 21
118.581183
 31
0.0
 11
27.536123
 21
117.299502
 31
0.0
 11
29.114262
 21
116.667944
 31
0.0
 11
29.843809
 21
116.499077
 31
0.0
  0
LINE
  5
160
100
AcDbEntity
  8
0
 62
5
100
AcDbLine
 10
80.984118
 20
146.050938
 30
0.0
 11
79.184875
 21
147.089731
 31
0.0
  0
LINE
  5
161
100
AcDbEntity
  8
0
 62
5
100
AcDbLine
 10
79.184875
 20
147.089731
 30
0.0
 11
78.756600
 21
146.347941
 31
0.0
  0
LINE
  5
162
100
AcDbEntity
  8
0
 62
5
100
AcDbLine
 10
78.756600
 20
146.347941
 30
0.0
 11
79.798390
 21
145.746914
 31
0.0
  0
LINE
  5
163
100
AcDbEntity
  8
0
 62
5
100
AcDbLine
 10
68.909771
 20
152.033917
 30
0.0
 11
59.815092
 21
157.284503
 31
0.0
  0
LINE
  5
164
100
AcDbEntity
  8
0
 62
5
100
AcDbLine
 10
88.893069
 20
140.496328
 30
0.0
 11
79.798390
 21
145.746914
 31
0.0
  0
LINE
  5
165
100
AcDbEntity
  8
0
 62
1
100
AcDbLine
 10
72.160644
 20
150.156425
 30
0.0
 11
76.547097
 21
147.623599
 31
0.0
  0
LINE
  5
166
100
AcDbEntity
  8
0
 62
5
100
AcDbLine
 10
21.683648
 20
168.795461
 30
0.0
 11
20.642249
 21
168.193758
 31
0.0
  0
LINE
  5
167
100
AcDbEntity
  8
0
 62
5
100
AcDbLine
 10
20.642249
 20
168.193758
 30
0.0
 11
20.213974
 21
168.935554
 31
0.0
  0
LINE
  5
168
100
AcDbEntity
  8
0
 62
5
100
AcDbLine
 10
20.213974
 20
168.935554
 30
0.0
 11
22.013221
 21
169.974349
 31
0.0
  0
SPLINE
  5
169
100
AcDbEntity
  8
0
 62
5
100
AcDbSpline
 70
0
 71
3
 72
16
 73
12
 74
10
 40
0.000000
 40
0.000000
 40
0.000000
 40
0.000000
 40
0.748485
 40
2.447332
 40
4.427843
 40
7.928885
 40
11.589563
 40
15.090570
 40
17.071923
 40
18.771743
 40
19.520579
 40
19.520579
 40
19.520579
 40
19.520579
 10
68.580192
 20
153.212804
 30
0.0
 10
68.747286
 20
153.398079
 30
0.0
 10
69.293634
 20
154.003877
 30
0.0
 10
70.449809
 20
154.946357
 30
0.0
 10
72.763338
 20
155.798772
 30
0.0
 10
75.902575
 20
155.126907
 30
0.0
 10
78.977033
 20
153.352068
 30
0.0
 10
81.128278
 20
150.968846
 30
0.0
 10
81.547497
 20
148.538794
 30
0.0
 10
81.311093
 20
147.065375
 30
0.0
 10
81.060694
 20
146.288514
 30
0.0
 10
80.984118
 20
146.050938
 30
0.0
 11
68.580192
 21
153.212804
 31
0.0
 11
69.090142
 21
153.760691
 31
0.0
 11
70.424178
 21
154.812561
 31
0.0
 11
72.288575
 21
155.480728
 31
0.0
 11
75.753557
 21
154.979533
 31
0.0
 11
78.923809
 21
153.149215
 31
0.0
 11
81.090293
 21
150.399051
 31
0.0
 11
81.444772
 21
148.449666
 31
0.0
 11
81.202648
 21
146.767178
 31
0.0
 11
80.984118
 21
146.050938
 31
0.0
  0
LINE
  5
16a
100
AcDbEntity
  8
0
 62
5
100
AcDbLine
 10
9.609295
 20
162.812483
 30
0.0
 11
11.408538
 21
163.851275
 31
0.0
  0
LINE
  5
16b
100
AcDbEntity
  8
0
 62
5
100
AcDbLine
 10
11.408538
 20
163.851275
 30
0.0
 11
11.836811
 21
163.109485
 31
0.0
  0
LINE
  5
16c
100
AcDbEntity
  8
0
 62
5
100
AcDbLine
 10
11.836811
 20
163.109485
 30
0.0
 11
10.795021
 21
162.508459
 31
0.0
  0
LINE
  5
16d
100
AcDbEntity
  8
0
 62
5
100
AcDbLine
 10
21.683642
 20
168.795461
 30
0.0
 11
30.778320
 21
174.046048
 31
0.0
  0
LINE
  5
16e
100
AcDbEntity
  8
0
 62
5
100
AcDbLine
 10
1.700344
 20
157.257873
 30
0.0
 11
10.795021
 21
162.508459
 31
0.0
  0
LINE
  5
16f
100
AcDbEntity
  8
0
 62
1
100
AcDbLine
 10
18.432768
 20
166.917970
 30
0.0
 11
14.046315
 21
164.385144
 31
0.0
  0
LINE
  5
170
100
AcDbEntity
  8
0
 62
5
100
AcDbLine
 10
98.055323
 20
246.503728
 30
0.0
 11
99.096720
 21
247.105431
 31
0.0
  0
LINE
  5
171
100
AcDbEntity
  8
0
 62
5
100
AcDbLine
 10
99.096720
 20
247.105431
 30
0.0
 11
99.524995
 21
246.363635
 31
0.0
  0
LINE
  5
172
100
AcDbEntity
  8
0
 62
5
100
AcDbLine
 10
99.524995
 20
246.363635
 30
0.0
 11
97.725749
 21
245.324840
 31
0.0
  0
SPLINE
  5
173
100
AcDbEntity
  8
0
 62
5
100
AcDbSpline
 70
0
 71
3
 72
16
 73
12
 74
10
 40
0.000000
 40
0.000000
 40
0.000000
 40
0.000000
 40
0.748485
 40
2.447332
 40
4.427842
 40
7.928886
 40
11.589565
 40
15.090572
 40
17.071925
 40
18.771745
 40
19.520581
 40
19.520581
 40
19.520581
 40
19.520581
 10
22.013221
 20
169.974349
 30
0.0
 10
21.846128
 20
170.159624
 30
0.0
 10
21.299779
 20
170.765422
 30
0.0
 10
20.143605
 20
171.707901
 30
0.0
 10
17.830076
 20
172.560317
 30
0.0
 10
14.690838
 20
171.888452
 30
0.0
 10
11.616378
 20
170.113613
 30
0.0
 10
9.465133
 20
167.730391
 30
0.0
 10
9.045916
 20
165.300339
 30
0.0
 10
9.282320
 20
163.826920
 30
0.0
 10
9.532719
 20
163.050059
 30
0.0
 10
9.609295
 20
162.812483
 30
0.0
 11
22.013221
 21
169.974349
 31
0.0
 11
21.503271
 21
170.522236
 31
0.0
 11
20.169235
 21
171.574106
 31
0.0
 11
18.304839
 21
172.242272
 31
0.0
 11
14.839855
 21
171.741078
 31
0.0
 11
11.669602
 21
169.910759
 31
0.0
 11
9.503119
 21
167.160596
 31
0.0
 11
9.148640
 21
165.211210
 31
0.0
 11
9.390765
 21
163.528723
 31
0.0
 11
9.609295
 21
162.812483
 31
0.0
  0
LINE
  5
174
100
AcDbEntity
  8
0
 62
5
100
AcDbLine
 10
110.129676
 20
252.486706
 30
0.0
 11
108.330433
 21
251.447914
 31
0.0
  0
LINE
  5
175
100
AcDbEntity
  8
0
 62
5
100
AcDbLine
 10
108.330433
 20
251.447914
 30
0.0
 11
107.902158
 21
252.189704
 31
0.0
  0
LINE
  5
176
100
AcDbEntity
  8
0
 62
5
100
AcDbLine
 10
107.902158
 20
252.189704
 30
0.0
 11
108.943947
 21
252.790730
 31
0.0
  0
LINE
  5
177
100
AcDbEntity
  8
0
 62
5
100
AcDbLine
 10
98.055328
 20
246.503728
 30
0.0
 11
88.960650
 21
241.253141
 31
0.0
  0
LINE
  5
178
100
AcDbEntity
  8
0
 62
5
100
AcDbLine
 10
118.038626
 20
258.041316
 30
0.0
 11
108.943947
 21
252.790730
 31
0.0
  0
LINE
  5
179
100
AcDbEntity
  8
0
 62
1
100
AcDbLine
 10
101.306201
 20
248.381219
 30
0.0
 11
105.692654
 21
250.914045
 31
0.0
  0
LINE
  5
17a
100
AcDbEntity
  8
0
 62
5
100
AcDbLine
 10
79.875603
 20
112.193870
 30
0.0
 11
78.834203
 21
112.795573
 31
0.0
  0
LINE
  5
17b
100
AcDbEntity
  8
0
 62
5
100
AcDbLine
 10
78.834203
 20
112.795573
 30
0.0
 11
78.405928
 21
112.053778
 31
0.0
  0
LINE
  5
17c
100
AcDbEntity
  8
0
 62
5
100
AcDbLine
 10
78.405928
 20
112.053778
 30
0.0
 11
80.205174
 21
111.014983
 31
0.0
  0
SPLINE
  5
17d
100
AcDbEntity
  8
0
 62
5
100
AcDbSpline
 70
0
 71
3
 72
16
 73
12
 74
10
 40
0.000000
 40
0.000000
 40
0.000000
 40
0.000000
 40
0.748485
 40
2.447332
 40
4.427843
 40
7.928885
 40
11.589563
 40
15.090570
 40
17.071923
 40
18.771743
 40
19.520579
 40
19.520579
 40
19.520579
 40
19.520579
 10
97.725749
 20
245.324840
 30
0.0
 10
97.892843
 20
245.139565
 30
0.0
 10
98.439192
 20
244.533767
 30
0.0
 10
99.595366
 20
243.591288
 30
0.0
 10
101.908895
 20
242.738873
 30
0.0
 10
105.048132
 20
243.410738
 30
0.0
 10
108.122591
 20
245.185577
 30
0.0
 10
110.273836
 20
247.568798
 30
0.0
 10
110.693054
 20
249.998850
 30
0.0
 10
110.456650
 20
251.472269
 30
0.0
 10
110.206251
 20
252.249130
 30
0.0
 10
110.129676
 20
252.486706
 30
0.0
 11
97.725749
 21
245.324840
 31
0.0
 11
98.235700
 21
244.776953
 31
0.0
 11
99.569735
 21
243.725083
 31
0.0
 11
101.434132
 21
243.056917
 31
0.0
 11
104.899115
 21
243.558111
 31
0.0
 11
108.069367
 21
245.388430
 31
0.0
 11
110.235850
 21
248.138593
 31
0.0
 11
110.590330
 21
250.087979
 31
0.0
 11
110.348205
 21
251.770466
 31
0.0
 11
110.129676
 21
252.486706
 31
0.0
  0
LINE
  5
17e
100
AcDbEntity
  8
0
 62
5
100
AcDbLine
 10
67.801247
 20
118.176848
 30
0.0
 11
69.600493
 21
117.138056
 31
0.0
  0
LINE
  5
17f
100
AcDbEntity
  8
0
 62
5
100
AcDbLine
 10
69.600493
 20
117.138056
 30
0.0
 11
70.028765
 21
117.879846
 31
0.0
  0
LINE
  5
180
100
AcDbEntity
  8
0
 62
5
100
AcDbLine
 10
70.028765
 20
117.879846
 30
0.0
 11
68.986976
 21
118.480872
 31
0.0
  0
LINE
  5
181
100
AcDbEntity
  8
0
 62
5
100
AcDbLine
 10
79.875594
 20
112.193870
 30
0.0
 11
88.970273
 21
106.943284
 31
0.0
  0
LINE
  5
182
100
AcDbEntity
  8
0
 62
5
100
AcDbLine
 10
59.892297
 20
123.731459
 30
0.0
 11
68.986976
 21
118.480872
 31
0.0
  0
LINE
  5
183
100
AcDbEntity
  8
0
 62
1
100
AcDbLine
 10
76.624722
 20
114.071362
 30
0.0
 11
72.238269
 21
116.604188
 31
0.0
  0
LINE
  5
184
100
AcDbEntity
  8
0
 62
5
100
AcDbLine
 10
118.063414
 20
213.856303
 30
0.0
 11
118.063131
 21
212.653574
 31
0.0
  0
LINE
  5
185
100
AcDbEntity
  8
0
 62
5
100
AcDbLine
 10
118.063131
 20
212.653574
 30
0.0
 11
118.919684
 21
212.653574
 31
0.0
  0
LINE
  5
186
100
AcDbEntity
  8
0
 62
5
100
AcDbLine
 10
118.919684
 20
212.653574
 30
0.0
 11
118.919684
 21
214.731167
 31
0.0
  0
SPLINE
  5
187
100
AcDbEntity
  8
0
 62
5
100
AcDbSpline
 70
0
 71
3
 72
16
 73
12
 74
10
 40
0.000000
 40
0.000000
 40
0.000000
 40
0.000000
 40
0.748484
 40
2.447331
 40
4.427841
 40
7.928885
 40
11.589564
 40
15.090571
 40
17.071924
 40
18.771744
 40
19.520580
 40
19.520580
 40
19.520580
 40
19.520580
 10
80.205174
 20
111.014983
 30
0.0
 10
80.038080
 20
110.829707
 30
0.0
 10
79.491732
 20
110.223910
 30
0.0
 10
78.335559
 20
109.281430
 30
0.0
 10
76.022030
 20
108.429015
 30
0.0
 10
72.882792
 20
109.100880
 30
0.0
 10
69.808333
 20
110.875719
 30
0.0
 10
67.657087
 20
113.258941
 30
0.0
 10
67.237869
 20
115.688992
 30
0.0
 10
67.474273
 20
117.162412
 30
0.0
 10
67.724672
 20
117.939273
 30
0.0
 10
67.801247
 20
118.176848
 30
0.0
 11
80.205174
 21
111.014983
 31
0.0
 11
79.695224
 21
110.467096
 31
0.0
 11
78.361190
 21
109.415225
 31
0.0
 11
76.496793
 21
108.747059
 31
0.0
 11
73.031809
 21
109.248254
 31
0.0
 11
69.861556
 21
111.078572
 31
0.0
 11
67.695072
 21
113.828735
 31
0.0
 11
67.340593
 21
115.778121
 31
0.0
 11
67.582718
 21
117.460608
 31
0.0
 11
67.801247
 21
118.176848
 31
0.0
  0
LINE
  5
188
100
AcDbEntity
  8
0
 62
5
100
AcDbLine
 10
118.919289
 20
200.408118
 30
0.0
 11
118.919289
 21
202.485705
 31
0.0
  0
LINE
  5
189
100
AcDbEntity
  8
0
 62
5
100
AcDbLine
 10
118.919289
 20
202.485705
 30
0.0
 11
118.062742
 21
202.485705
 31
0.0
  0
LINE
  5
18a
100
AcDbEntity
  8
0
 62
5
100
AcDbLine
 10
118.062742
 20
202.485705
 30
0.0
 11
118.063024
 21
201.282976
 31
0.0
  0
LINE
  5
18b
100
AcDbEntity
  8
0
 62
5
100
AcDbLine
 10
118.063416
 20
213.856298
 30
0.0
 11
118.063219
 21
224.357815
 31
0.0
  0
LINE
  5
18c
100
AcDbEntity
  8
0
 62
5
100
AcDbLine
 10
118.063219
 20
190.781462
 30
0.0
 11
118.063021
 21
201.282976
 31
0.0
  0
LINE
  5
18d
100
AcDbEntity
  8
0
 62
1
100
AcDbLine
 10
118.062900
 20
210.102214
 30
0.0
 11
118.062632
 21
205.037020
 31
0.0
  0
LINE
  5
18e
100
AcDbEntity
  8
0
 62
5
100
AcDbLine
 10
88.970474
 20
197.211429
 30
0.0
 11
88.970191
 21
196.008700
 31
0.0
  0
LINE
  5
18f
100
AcDbEntity
  8
0
 62
5
100
AcDbLine
 10
88.970191
 20
196.008700
 30
0.0
 11
89.826744
 21
196.008700
 31
0.0
  0
LINE
  5
190
100
AcDbEntity
  8
0
 62
5
100
AcDbLine
 10
89.826744
 20
196.008700
 30
0.0
 11
89.826744
 21
198.086293
 31
0.0
  0
SPLINE
  5
191
100
AcDbEntity
  8
0
 62
5
100
AcDbSpline
 70
0
 71
3
 72
16
 73
12
 74
10
 40
0.000000
 40
0.000000
 40
0.000000
 40
0.000000
 40
0.748484
 40
2.447331
 40
4.427841
 40
7.928885
 40
11.589563
 40
15.090570
 40
17.071923
 40
18.771743
 40
19.520579
 40
19.520579
 40
19.520579
 40
19.520579
 10
118.919684
 20
214.731167
 30
0.0
 10
119.163684
 20
214.679097
 30
0.0
 10
119.961494
 20
214.508844
 30
0.0
 10
121.355792
 20
213.978806
 30
0.0
 10
123.250769
 20
212.401439
 30
0.0
 10
124.238537
 20
209.346848
 30
0.0
 10
124.238710
 20
205.796869
 30
0.0
 10
123.250403
 20
202.742224
 30
0.0
 10
121.355525
 20
201.164145
 30
0.0
 10
119.961304
 20
200.632168
 30
0.0
 10
119.163324
 20
200.460589
 30
0.0
 10
118.919289
 20
200.408118
 30
0.0
 11
118.919684
 21
214.731167
 31
0.0
 11
119.649143
 21
214.563480
 31
0.0
 11
121.227106
 21
213.934106
 31
0.0
 11
122.737953
 21
212.653574
 31
0.0
 11
124.036399
 21
209.402213
 31
0.0
 11
124.036423
 21
205.741535
 31
0.0
 11
122.737953
 21
202.490224
 31
0.0
 11
121.226975
 21
201.208543
 31
0.0
 11
119.648836
 21
200.576985
 31
0.0
 11
118.919289
 21
200.408118
 31
0.0
  0
LINE
  5
192
100
AcDbEntity
  8
0
 62
5
100
AcDbLine
 10
89.826349
 20
183.763244
 30
0.0
 11
89.826349
 21
185.840831
 31
0.0
  0
LINE
  5
193
100
AcDbEntity
  8
0
 62
5
100
AcDbLine
 10
89.826349
 20
185.840831
 30
0.0
 11
88.969802
 21
185.840831
 31
0.0
  0
LINE
  5
194
100
AcDbEntity
  8
0
 62
5
100
AcDbLine
 10
88.969802
 20
185.840831
 30
0.0
 11
88.970084
 21
184.638102
 31
0.0
  0
LINE
  5
195
100
AcDbEntity
  8
0
 62
5
100
AcDbLine
 10
88.970477
 20
197.211424
 30
0.0
 11
88.970279
 21
207.712941
 31
0.0
  0
LINE
  5
196
100
AcDbEntity
  8
0
 62
5
100
AcDbLine
 10
88.970279
 20
174.136588
 30
0.0
 11
88.970081
 21
184.638102
 31
0.0
  0
LINE
  5
197
100
AcDbEntity
  8
0
 62
1
100
AcDbLine
 10
88.969960
 20
193.457340
 30
0.0
 11
88.969692
 21
188.392146
 31
0.0
  0
LINE
  5
198
100
AcDbEntity
  8
0
 62
5
100
AcDbLine
 10
30.644694
 20
106.784311
 30
0.0
 11
39.743848
 21
104.346199
 31
0.0
  0
LINE
  5
199
100
AcDbEntity
  8
0
 62
5
100
AcDbLine
 10
39.743848
 20
104.346199
 30
0.0
 11
57.462031
 21
114.575797
 31
0.0
  0
LINE
  5
19a
100
AcDbEntity
  8
0
 62
5
100
AcDbLine
 10
57.462031
 20
114.575797
 30
0.0
 11
59.900143
 21
123.674952
 31
0.0
  0
LINE
  5
19b
100
AcDbEntity
  8
0
 62
1
100
AcDbLine
 10
39.794880
 20
112.066943
 30
0.0
 11
30.644694
 21
106.784311
 31
0.0
  0
LINE
  5
19c
100
AcDbEntity
  8
0
 62
1
100
AcDbLine
 10
59.900143
 20
123.674952
 30
0.0
 11
50.749956
 21
118.392320
 31
0.0
  0
SPLINE
  5
19d
100
AcDbEntity
  8
0
 62
5
100
AcDbSpline
 70
0
 71
3
 72
16
 73
12
 74
10
 40
0.000000
 40
0.000000
 40
0.000000
 40
0.000000
 40
0.748484
 40
2.447331
 40
4.427841
 40
7.928885
 40
11.589563
 40
15.090570
 40
17.071923
 40
18.771743
 40
19.520579
 40
19.520579
 40
19.520579
 40
19.520579
 10
89.826744
 20
198.086293
 30
0.0
 10
90.070744
 20
198.034223
 30
0.0
 10
90.868554
 20
197.863970
 30
0.0
 10
92.262852
 20
197.333932
 30
0.0
 10
94.157829
 20
195.756565
 30
0.0
 10
95.145598
 20
192.701974
 30
0.0
 10
95.145770
 20
189.151995
 30
0.0
 10
94.157463
 20
186.097350
 30
0.0
 10
92.262585
 20
184.519271
 30
0.0
 10
90.868364
 20
183.987294
 30
0.0
 10
90.070384
 20
183.815715
 30
0.0
 10
89.826349
 20
183.763244
 30
0.0
 11
89.826744
 21
198.086293
 31
0.0
 11
90.556203
 21
197.918606
 31
0.0
 11
92.134166
 21
197.289232
 31
0.0
 11
93.645014
 21
196.008700
 31
0.0
 11
94.943459
 21
192.757339
 31
0.0
 11
94.943483
 21
189.096661
 31
0.0
 11
93.645014
 21
185.845350
 31
0.0
 11
92.134035
 21
184.563669
 31
0.0
 11
90.555896
 21
183.932111
 31
0.0
 11
89.826349
 21
183.763244
 31
0.0
  0
LINE
  5
19e
100
AcDbEntity
  8
0
 62
5
100
AcDbLine
 10
50.911763
 20
117.490642
 30
0.0
 11
40.490716
 21
111.474045
 31
0.0
  0
SPLINE
  5
19f
100
AcDbEntity
  8
0
 62
5
100
AcDbSpline
 70
0
 71
3
 72
10
 73
6
 74
4
 40
0.000000
 40
0.000000
 40
0.000000
 40
0.000000
 40
1.362439
 40
1.864391
 40
1.936098
 40
1.936098
 40
1.936098
 40
1.936098
 10
50.682469
 20
119.413114
 30
0.0
 10
50.736254
 20
118.962164
 30
0.0
 10
50.809854
 20
118.345074
 30
0.0
 10
50.886286
 20
117.704250
 30
0.0
 10
50.908932
 20
117.514376
 30
0.0
 10
50.911763
 20
117.490642
 30
0.0
 11
50.682469
 21
119.413114
 31
0.0
 11
50.843824
 21
118.060264
 31
0.0
 11
50.903270
 21
117.561845
 31
0.0
 11
50.911763
 21
117.490642
 31
0.0
  0
LINE
  5
1a0
100
AcDbEntity
  8
0
 62
5
100
AcDbLine
 10
59.866090
 20
224.431875
 30
0.0
 11
53.205047
 21
217.770830
 31
0.0
  0
LINE
  5
1a1
100
AcDbEntity
  8
0
 62
5
100
AcDbLine
 10
53.205047
 20
217.770830
 30
0.0
 11
53.205047
 21
197.311635
 31
0.0
  0
LINE
  5
1a2
100
AcDbEntity
  8
0
 62
5
100
AcDbLine
 10
53.205047
 20
197.311635
 30
0.0
 11
59.866090
 21
190.650592
 31
0.0
  0
LINE
  5
1a3
100
AcDbEntity
  8
0
 62
1
100
AcDbLine
 10
59.865892
 20
213.866266
 30
0.0
 11
59.866090
 21
224.431875
 31
0.0
  0
LINE
  5
1a4
100
AcDbEntity
  8
0
 62
1
100
AcDbLine
 10
59.866090
 20
190.650592
 30
0.0
 11
59.866290
 21
201.216202
 31
0.0
  0
SPLINE
  5
1a5
100
AcDbEntity
  8
0
 62
5
100
AcDbSpline
 70
0
 71
3
 72
10
 73
6
 74
4
 40
0.000000
 40
0.000000
 40
0.000000
 40
0.000000
 40
0.071707
 40
0.573660
 40
1.936101
 40
1.936101
 40
1.936101
 40
1.936101
 10
40.490716
 20
111.474045
 30
0.0
 10
40.471577
 20
111.488364
 30
0.0
 10
40.318464
 20
111.602914
 30
0.0
 10
39.801710
 20
111.989519
 30
0.0
 10
39.304094
 20
112.361805
 30
0.0
 10
38.940452
 20
112.633860
 30
0.0
 11
40.490716
 21
111.474045
 31
0.0
 11
40.433299
 21
111.517001
 31
0.0
 11
40.031378
 21
111.817694
 31
0.0
 11
38.940452
 21
112.633860
 31
0.0
  0
LINE
  5
1a6
100
AcDbEntity
  8
0
 62
5
100
AcDbLine
 10
59.004510
 20
201.526912
 30
0.0
 11
59.004510
 21
213.560103
 31
0.0
  0
SPLINE
  5
1a7
100
AcDbEntity
  8
0
 62
5
100
AcDbSpline
 70
0
 71
3
 72
10
 73
6
 74
4
 40
0.000000
 40
0.000000
 40
0.000000
 40
0.000000
 40
1.362440
 40
1.864391
 40
1.936098
 40
1.936098
 40
1.936098
 40
1.936098
 10
60.784068
 20
200.764251
 30
0.0
 10
60.366641
 20
200.943147
 30
0.0
 10
59.795425
 20
201.187952
 30
0.0
 10
59.202239
 20
201.442172
 30
0.0
 10
59.026480
 20
201.517496
 30
0.0
 10
59.004510
 20
201.526912
 30
0.0
 11
60.784068
 21
200.764251
 31
0.0
 11
59.531787
 21
201.300938
 31
0.0
 11
59.070420
 21
201.498665
 31
0.0
 11
59.004510
 21
201.526912
 31
0.0
  0
LINE
  5
1a8
100
AcDbEntity
  8
0
 62
5
100
AcDbLine
 10
39.896838
 20
202.239105
 30
0.0
 11
40.938236
 21
201.637402
 31
0.0
  0
LINE
  5
1a9
100
AcDbEntity
  8
0
 62
5
100
AcDbLine
 10
40.938236
 20
201.637402
 30
0.0
 11
41.366511
 21
202.379198
 31
0.0
  0
LINE
  5
1aa
100
AcDbEntity
  8
0
 62
5
100
AcDbLine
 10
41.366511
 20
202.379198
 30
0.0
 11
39.567265
 21
203.417993
 31
0.0
  0
SPLINE
  5
1ab
100
AcDbEntity
  8
0
 62
5
100
AcDbSpline
 70
0
 71
3
 72
10
 73
6
 74
4
 40
0.000000
 40
0.000000
 40
0.000000
 40
0.000000
 40
0.071707
 40
0.573659
 40
1.936098
 40
1.936098
 40
1.936098
 40
1.936098
 10
59.004510
 20
213.560103
 30
0.0
 10
59.026480
 20
213.569518
 30
0.0
 10
59.202239
 20
213.644843
 30
0.0
 10
59.795425
 20
213.899063
 30
0.0
 10
60.366641
 20
214.143867
 30
0.0
 10
60.784068
 20
214.322763
 30
0.0
 11
59.004510
 21
213.560103
 31
0.0
 11
59.070420
 21
213.588349
 31
0.0
 11
59.531787
 21
213.786076
 31
0.0
 11
60.784068
 21
214.322763
 31
0.0
  0
LINE
  5
1ac
100
AcDbEntity
  8
0
 62
5
100
AcDbLine
 10
51.971191
 20
196.256127
 30
0.0
 11
50.171948
 21
197.294919
 31
0.0
  0
LINE
  5
1ad
100
AcDbEntity
  8
0
 62
5
100
AcDbLine
 10
50.171948
 20
197.294919
 30
0.0
 11
49.743673
 21
196.553129
 31
0.0
  0
LINE
  5
1ae
100
AcDbEntity
  8
0
 62
5
100
AcDbLine
 10
49.743673
 20
196.553129
 30
0.0
 11
50.785463
 21
195.952103
 31
0.0
  0
LINE
  5
1af
100
AcDbEntity
  8
0
 62
5
100
AcDbLine
 10
39.896844
 20
202.239105
 30
0.0
 11
30.802165
 21
207.489692
 31
0.0
  0
LINE
  5
1b0
100
AcDbEntity
  8
0
 62
5
100
AcDbLine
 10
59.880142
 20
190.701516
 30
0.0
 11
50.785463
 21
195.952103
 31
0.0
  0
LINE
  5
1b1
100
AcDbEntity
  8
0
 62
1
100
AcDbLine
 10
43.147717
 20
200.361613
 30
0.0
 11
47.534170
 21
197.828788
 31
0.0
  0
LINE
  5
1b2
100
AcDbEntity
  8
0
 62
5
100
AcDbLine
 10
59.906397
 20
258.048694
 30
0.0
 11
50.807242
 21
260.486806
 31
0.0
  0
LINE
  5
1b3
100
AcDbEntity
  8
0
 62
5
100
AcDbLine
 10
50.807242
 20
260.486806
 30
0.0
 11
33.089060
 21
250.257210
 31
0.0
  0
LINE
  5
1b4
100
AcDbEntity
  8
0
 62
5
100
AcDbLine
 10
33.089060
 20
250.257210
 30
0.0
 11
30.650948
 21
241.158055
 31
0.0
  0
LINE
  5
1b5
100
AcDbEntity
  8
0
 62
1
100
AcDbLine
 10
50.756210
 20
252.766061
 30
0.0
 11
59.906397
 21
258.048694
 31
0.0
  0
LINE
  5
1b6
100
AcDbEntity
  8
0
 62
1
100
AcDbLine
 10
30.650948
 20
241.158055
 30
0.0
 11
39.801134
 21
246.440685
 31
0.0
  0
SPLINE
  5
1b7
100
AcDbEntity
  8
0
 62
5
100
AcDbSpline
 70
0
 71
3
 72
16
 73
12
 74
10
 40
0.000000
 40
0.000000
 40
0.000000
 40
0.000000
 40
0.748485
 40
2.447332
 40
4.427843
 40
7.928885
 40
11.589563
 40
15.090570
 40
17.071923
 40
18.771743
 40
19.520579
 40
19.520579
 40
19.520579
 40
19.520579
 10
39.567265
 20
203.417993
 30
0.0
 10
39.734359
 20
203.603268
 30
0.0
 10
40.280707
 20
204.209065
 30
0.0
 10
41.436882
 20
205.151545
 30
0.0
 10
43.750410
 20
206.003960
 30
0.0
 10
46.889648
 20
205.332095
 30
0.0
 10
49.964106
 20
203.557256
 30
0.0
 10
52.115351
 20
201.174034
 30
0.0
 10
52.534570
 20
198.743983
 30
0.0
 10
52.298166
 20
197.270563
 30
0.0
 10
52.047767
 20
196.493702
 30
0.0
 10
51.971191
 20
196.256127
 30
0.0
 11
39.567265
 21
203.417993
 31
0.0
 11
40.077215
 21
203.965880
 31
0.0
 11
41.411251
 21
205.017750
 31
0.0
 11
43.275648
 21
205.685916
 31
0.0
 11
46.740630
 21
205.184722
 31
0.0
 11
49.910882
 21
203.354403
 31
0.0
 11
52.077366
 21
200.604240
 31
0.0
 11
52.431845
 21
198.654854
 31
0.0
 11
52.189721
 21
196.972367
 31
0.0
 11
51.971191
 21
196.256127
 31
0.0
  0
LINE
  5
1b8
100
AcDbEntity
  8
0
 62
5
100
AcDbLine
 10
39.639327
 20
247.342362
 30
0.0
 11
50.060375
 21
253.358959
 31
0.0
  0
SPLINE
  5
1b9
100
AcDbEntity
  8
0
 62
5
100
AcDbSpline
 70
0
 71
3
 72
10
 73
6
 74
4
 40
0.000000
 40
0.000000
 40
0.000000
 40
0.000000
 40
1.362439
 40
1.864391
 40
1.936098
 40
1.936098
 40
1.936098
 40
1.936098
 10
39.868622
 20
245.419890
 30
0.0
 10
39.814837
 20
245.870840
 30
0.0
 10
39.741236
 20
246.487930
 30
0.0
 10
39.664805
 20
247.128754
 30
0.0
 10
39.642158
 20
247.318628
 30
0.0
 10
39.639327
 20
247.342362
 30
0.0
 11
39.868622
 21
245.419890
 31
0.0
 11
39.707267
 21
246.772741
 31
0.0
 11
39.647820
 21
247.271159
 31
0.0
 11
39.639327
 21
247.342362
 31
0.0
  0
LINE
  5
1ba
100
AcDbEntity
  8
0
 62
5
100
AcDbLine
 10
50.634251
 20
229.620463
 30
0.0
 11
49.592854
 21
230.222167
 31
0.0
  0
LINE
  5
1bb
100
AcDbEntity
  8
0
 62
5
100
AcDbLine
 10
49.592854
 20
230.222167
 30
0.0
 11
49.164579
 21
229.480371
 31
0.0
  0
LINE
  5
1bc
100
AcDbEntity
  8
0
 62
5
100
AcDbLine
 10
49.164579
 20
229.480371
 30
0.0
 11
50.963824
 21
228.441576
 31
0.0
  0
SPLINE
  5
1bd
100
AcDbEntity
  8
0
 62
5
100
AcDbSpline
 70
0
 71
3
 72
10
 73
6
 74
4
 40
0.000000
 40
0.000000
 40
0.000000
 40
0.000000
 40
0.071707
 40
0.573659
 40
1.936099
 40
1.936099
 40
1.936099
 40
1.936099
 10
50.060375
 20
253.358959
 30
0.0
 10
50.079514
 20
253.344640
 30
0.0
 10
50.232626
 20
253.230091
 30
0.0
 10
50.749381
 20
252.843487
 30
0.0
 10
51.246996
 20
252.471202
 30
0.0
 10
51.610638
 20
252.199147
 30
0.0
 11
50.060375
 21
253.358959
 31
0.0
 11
50.117792
 21
253.316003
 31
0.0
 11
50.519712
 21
253.015311
 31
0.0
 11
51.610638
 21
252.199147
 31
0.0
  0
LINE
  5
1be
100
AcDbEntity
  8
0
 62
5
100
AcDbLine
 10
38.559898
 20
235.603442
 30
0.0
 11
40.359141
 21
234.564649
 31
0.0
  0
LINE
  5
1bf
100
AcDbEntity
  8
0
 62
5
100
AcDbLine
 10
40.359141
 20
234.564649
 30
0.0
 11
40.787416
 21
235.306440
 31
0.0
  0
LINE
  5
1c0
100
AcDbEntity
  8
0
 62
5
100
AcDbLine
 10
40.787416
 20
235.306440
 30
0.0
 11
39.745626
 21
235.907466
 31
0.0
  0
LINE
  5
1c1
100
AcDbEntity
  8
0
 62
5
100
AcDbLine
 10
50.634245
 20
229.620463
 30
0.0
 11
59.728924
 21
224.369877
 31
0.0
  0
LINE
  5
1c2
100
AcDbEntity
  8
0
 62
5
100
AcDbLine
 10
30.650948
 20
241.158052
 30
0.0
 11
39.745626
 21
235.907466
 31
0.0
  0
LINE
  5
1c3
100
AcDbEntity
  8
0
 62
1
100
AcDbLine
 10
47.383373
 20
231.497955
 30
0.0
 11
42.996920
 21
234.030781
 31
0.0
  0
LINE
  5
1c4
100
AcDbEntity
  8
0
 62
5
100
AcDbLine
 10
59.693748
 20
291.734801
 30
0.0
 11
68.792903
 21
294.172912
 31
0.0
  0
LINE
  5
1c5
100
AcDbEntity
  8
0
 62
5
100
AcDbLine
 10
68.792903
 20
294.172912
 30
0.0
 11
86.511085
 21
283.943314
 31
0.0
  0
LINE
  5
1c6
100
AcDbEntity
  8
0
 62
5
100
AcDbLine
 10
86.511085
 20
283.943314
 30
0.0
 11
88.949197
 21
274.844159
 31
0.0
  0
LINE
  5
1c7
100
AcDbEntity
  8
0
 62
1
100
AcDbLine
 10
68.843934
 20
286.452168
 30
0.0
 11
59.693748
 21
291.734801
 31
0.0
  0
LINE
  5
1c8
100
AcDbEntity
  8
0
 62
1
100
AcDbLine
 10
88.949197
 20
274.844159
 30
0.0
 11
79.799011
 21
280.126792
 31
0.0
  0
SPLINE
  5
1c9
100
AcDbEntity
  8
0
 62
5
100
AcDbSpline
 70
0
 71
3
 72
16
 73
12
 74
10
 40
0.000000
 40
0.000000
 40
0.000000
 40
0.000000
 40
0.748485
 40
2.447332
 40
4.427843
 40
7.928885
 40
11.589563
 40
15.090570
 40
17.071923
 40
18.771743
 40
19.520579
 40
19.520579
 40
19.520579
 40
19.520579
 10
50.963824
 20
228.441576
 30
0.0
 10
50.796731
 20
228.256301
 30
0.0
 10
50.250382
 20
227.650503
 30
0.0
 10
49.094207
 20
226.708023
 30
0.0
 10
46.780679
 20
225.855608
 30
0.0
 10
43.641442
 20
226.527473
 30
0.0
 10
40.566983
 20
228.302312
 30
0.0
 10
38.415738
 20
230.685534
 30
0.0
 10
37.996520
 20
233.115586
 30
0.0
 10
38.232924
 20
234.589005
 30
0.0
 10
38.483322
 20
235.365866
 30
0.0
 10
38.559898
 20
235.603442
 30
0.0
 11
50.963824
 21
228.441576
 31
0.0
 11
50.453874
 21
227.893689
 31
0.0
 11
49.119838
 21
226.841819
 31
0.0
 11
47.255441
 21
226.173652
 31
0.0
 11
43.790459
 21
226.674847
 31
0.0
 11
40.620207
 21
228.505165
 31
0.0
 11
38.453723
 21
231.255329
 31
0.0
 11
38.099244
 21
233.204714
 31
0.0
 11
38.341368
 21
234.887202
 31
0.0
 11
38.559898
 21
235.603442
 31
0.0
  0
LINE
  5
1ca
100
AcDbEntity
  8
0
 62
5
100
AcDbLine
 10
79.960817
 20
281.028468
 30
0.0
 11
69.539770
 21
287.045064
 31
0.0
  0
SPLINE
  5
1cb
100
AcDbEntity
  8
0
 62
5
100
AcDbSpline
 70
0
 71
3
 72
10
 73
6
 74
4
 40
0.000000
 40
0.000000
 40
0.000000
 40
0.000000
 40
1.362440
 40
1.864391
 40
1.936098
 40
1.936098
 40
1.936098
 40
1.936098
 10
79.731523
 20
279.105996
 30
0.0
 10
79.785308
 20
279.556946
 30
0.0
 10
79.858909
 20
280.174036
 30
0.0
 10
79.935340
 20
280.814860
 30
0.0
 10
79.957986
 20
281.004734
 30
0.0
 10
79.960817
 20
281.028468
 30
0.0
 11
79.731523
 21
279.105996
 31
0.0
 11
79.892878
 21
280.458847
 31
0.0
 11
79.952325
 21
280.957266
 31
0.0
 11
79.960817
 21
281.028468
 31
0.0
  0
LINE
  5
1cc
100
AcDbEntity
  8
0
 62
5
100
AcDbLine
 10
109.179834
 20
286.617537
 30
0.0
 11
108.138434
 21
286.015835
 31
0.0
  0
LINE
  5
1cd
100
AcDbEntity
  8
0
 62
5
100
AcDbLine
 10
108.138434
 20
286.015835
 30
0.0
 11
107.710159
 21
286.757629
 31
0.0
  0
LINE
  5
1ce
100
AcDbEntity
  8
0
 62
5
100
AcDbLine
 10
107.710159
 20
286.757629
 30
0.0
 11
109.509405
 21
287.796425
 31
0.0
  0
SPLINE
  5
1cf
100
AcDbEntity
  8
0
 62
5
100
AcDbSpline
 70
0
 71
3
 72
10
 73
6
 74
4
 40
0.000000
 40
0.000000
 40
0.000000
 40
0.000000
 40
0.071707
 40
0.573659
 40
1.936099
 40
1.936099
 40
1.936099
 40
1.936099
 10
69.539770
 20
287.045064
 30
0.0
 10
69.520631
 20
287.030745
 30
0.0
 10
69.367519
 20
286.916196
 30
0.0
 10
68.850764
 20
286.529592
 30
0.0
 10
68.353149
 20
286.157307
 30
0.0
 10
67.989506
 20
285.885252
 30
0.0
 11
69.539770
 21
287.045064
 31
0.0
 11
69.482353
 21
287.002108
 31
0.0
 11
69.080433
 21
286.701416
 31
0.0
 11
67.989506
 21
285.885252
 31
0.0
  0
LINE
  5
1d0
100
AcDbEntity
  8
0
 62
5
100
AcDbLine
 10
97.105478
 20
280.634559
 30
0.0
 11
98.904724
 21
281.673352
 31
0.0
  0
LINE
  5
1d1
100
AcDbEntity
  8
0
 62
5
100
AcDbLine
 10
98.904724
 20
281.673352
 30
0.0
 11
99.332996
 21
280.931562
 31
0.0
  0
LINE
  5
1d2
100
AcDbEntity
  8
0
 62
5
100
AcDbLine
 10
99.332996
 20
280.931562
 30
0.0
 11
98.291207
 21
280.330535
 31
0.0
  0
LINE
  5
1d3
100
AcDbEntity
  8
0
 62
5
100
AcDbLine
 10
109.179826
 20
286.617539
 30
0.0
 11
118.274505
 21
291.868126
 31
0.0
  0
LINE
  5
1d4
100
AcDbEntity
  8
0
 62
5
100
AcDbLine
 10
89.196528
 20
275.079949
 30
0.0
 11
98.291207
 21
280.330535
 31
0.0
  0
LINE
  5
1d5
100
AcDbEntity
  8
0
 62
1
100
AcDbLine
 10
105.928953
 20
284.740048
 30
0.0
 11
101.542500
 21
282.207220
 31
0.0
  0
SPLINE
  5
1d6
100
AcDbEntity
  8
0
 62
5
100
AcDbSpline
 70
0
 71
3
 72
16
 73
12
 74
10
 40
0.000000
 40
0.000000
 40
0.000000
 40
0.000000
 40
0.748484
 40
2.447330
 40
4.427840
 40
7.928884
 40
11.589563
 40
15.090570
 40
17.071923
 40
18.771743
 40
19.520580
 40
19.520580
 40
19.520580
 40
19.520580
 10
109.509405
 20
287.796425
 30
0.0
 10
109.342311
 20
287.981701
 30
0.0
 10
108.795964
 20
288.587498
 30
0.0
 10
107.639790
 20
289.529978
 30
0.0
 10
105.326261
 20
290.382391
 30
0.0
 10
102.187023
 20
289.710529
 30
0.0
 10
99.112564
 20
287.935689
 30
0.0
 10
96.961319
 20
285.552467
 30
0.0
 10
96.542100
 20
283.122416
 30
0.0
 10
96.778504
 20
281.648996
 30
0.0
 10
97.028903
 20
280.872135
 30
0.0
 10
97.105478
 20
280.634559
 30
0.0
 11
109.509405
 21
287.796425
 31
0.0
 11
108.999455
 21
288.344312
 31
0.0
 11
107.665421
 21
289.396182
 31
0.0
 11
105.801025
 21
290.064348
 31
0.0
 11
102.336040
 21
289.563155
 31
0.0
 11
99.165787
 21
287.732836
 31
0.0
 11
96.999304
 21
284.982673
 31
0.0
 11
96.644824
 21
283.033287
 31
0.0
 11
96.886949
 21
281.350799
 31
0.0
 11
97.105478
 21
280.634559
 31
0.0
  0
ENDSEC
  0
SECTION
  2
OBJECTS
  0
DICTIONARY
  5
C
330
0
100
AcDbDictionary
  3
ACAD_GROUP
350
D
  3
ACAD_MLINESTYLE
350
17
  0
DICTIONARY
  5
D
330
C
100
AcDbDictionary
  0
DICTIONARY
  5
1A
330
C
100
AcDbDictionary
  0
DICTIONARY
  5
17
330
C
100
AcDbDictionary
  3
STANDARD
350
18
  0
DICTIONARY
  5
19
330
C
100
AcDbDictionary
  0
ENDSEC
  0
EOF
