999
DXF created by Inkscape
  0
SECTION
  2
HEADER
  9
$ACADVER
  1
AC1014
  9
$HANDSEED
  5
FFFF
  9
$MEASUREMENT
 70
     1
  0
ENDSEC
  0
SECTION
  2
TABLES
  0
TABLE
  2
VPORT
  5
8
330
0
100
AcDbSymbolTable
 70
     4
  0
VPORT
  5
2E
330
8
100
AcDbSymbolTableRecord
100
AcDbViewportTableRecord
  2
*ACTIVE
 70
     0
 10
0.0
 20
0.0
 11
1.0
 21
1.0
 12
210.0
 22
148.5
 13
0.0
 23
0.0
 14
10.0
 24
10.0
 15
10.0
 25
10.0
 16
0.0
 26
0.0
 36
1.0
 17
0.0
 27
0.0
 37
0.0
 40
341.0
 41
1.24
 42
50.0
 43
0.0
 44
0.0
 50
0.0
 51
0.0
 71
     0
 72
   100
 73
     1
 74
     3
 75
     0
 76
     0
 77
     0
 78
     0
  0
ENDTAB
  0
TABLE
  2
LTYPE
  5
5
330
0
100
AcDbSymbolTable
 70
     1
  0
LTYPE
  5
14
330
5
100
AcDbSymbolTableRecord
100
AcDbLinetypeTableRecord
  2
BYBLOCK
 70
     0
  3

 72
    65
 73
     0
 40
0.0
  0
LTYPE
  5
15
330
5
100
AcDbSymbolTableRecord
100
AcDbLinetypeTableRecord
  2
BYLAYER
 70
     0
  3

 72
    65
 73
     0
 40
0.0
  0
LTYPE
  5
16
330
5
100
AcDbSymbolTableRecord
100
AcDbLinetypeTableRecord
  2
CONTINUOUS
 70
     0
  3
Solid line
 72
    65
 73
     0
 40
0.0
  0
ENDTAB
  0
TABLE
  2
LAYER
  5
2
330
0
100
AcDbSymbolTable
 70
1
  0
LAYER
  5
10
330
2
100
AcDbSymbolTableRecord
100
AcDbLayerTableRecord
  2
0
 70
     0
 62
     7
  6
CONTINUOUS
  0
ENDTAB
  0
TABLE
  2
STYLE
  5
3
330
0
100
AcDbSymbolTable
 70
     1
  0
STYLE
  5
11
330
3
100
AcDbSymbolTableRecord
100
AcDbTextStyleTableRecord
  2
STANDARD
 70
     0
 40
0.0
 41
1.0
 50
0.0
 71
     0
 42
2.5
  3
txt
  4

  0
ENDTAB
  0
TABLE
  2
VIEW
  5
6
330
0
100
AcDbSymbolTable
 70
     0
  0
ENDTAB
  0
TABLE
  2
UCS
  5
7
330
0
100
AcDbSymbolTable
 70
     0
  0
ENDTAB
  0
TABLE
  2
APPID
  5
9
330
0
100
AcDbSymbolTable
 70
     2
  0
APPID
  5
12
330
9
100
AcDbSymbolTableRecord
100
AcDbRegAppTableRecord
  2
ACAD
 70
     0
  0
ENDTAB
  0
TABLE
  2
DIMSTYLE
  5
A
330
0
100
AcDbSymbolTable
 70
     1
  0
DIMSTYLE
105
27
330
A
100
AcDbSymbolTableRecord
100
AcDbDimStyleTableRecord
  2
ISO-25
 70
     0
  3

  4

  5

  6

  7

 40
1.0
 41
2.5
 42
0.625
 43
3.75
 44
1.25
 45
0.0
 46
0.0
 47
0.0
 48
0.0
140
2.5
141
2.5
142
0.0
143
0.03937007874016
144
1.0
145
0.0
146
1.0
147
0.625
 71
     0
 72
     0
 73
     0
 74
     0
 75
     0
 76
     0
 77
     1
 78
     8
170
     0
171
     3
172
     1
173
     0
174
     0
175
     0
176
     0
177
     0
178
     0
270
     2
271
     2
272
     2
273
     2
274
     3
340
11
275
     0
280
     0
281
     0
282
     0
283
     0
284
     8
285
     0
286
     0
287
     3
288
     0
  0
ENDTAB
  0
TABLE
  2
BLOCK_RECORD
  5
1
330
0
100
AcDbSymbolTable
 70
     1
  0
BLOCK_RECORD
  5
1F
330
1
100
AcDbSymbolTableRecord
100
AcDbBlockTableRecord
  2
*MODEL_SPACE
  0
BLOCK_RECORD
  5
1B
330
1
100
AcDbSymbolTableRecord
100
AcDbBlockTableRecord
  2
*PAPER_SPACE
  0
ENDTAB
  0
ENDSEC
  0
SECTION
  2
BLOCKS
  0
BLOCK
  5
20
330
1F
100
AcDbEntity
  8
0
100
AcDbBlockBegin
  2
*MODEL_SPACE
 70
     0
 10
0.0
 20
0.0
 30
0.0
  3
*MODEL_SPACE
  1

  0
ENDBLK
  5
21
330
1F
100
AcDbEntity
  8
0
100
AcDbBlockEnd
  0
BLOCK
  5
1C
330
1B
100
AcDbEntity
 67
     1
  8
0
100
AcDbBlockBegin
  2
*PAPER_SPACE
  1

  0
ENDBLK
  5
1D
330
1B
100
AcDbEntity
 67
     1
  8
0
100
AcDbBlockEnd
  0
ENDSEC
  0
SECTION
  2
ENTITIES
  0
LINE
  5
100
100
AcDbEntity
  8
0
 62
5
100
AcDbLine
 10
162.131211
 20
163.105554
 30
0.0
 11
163.923495
 21
156.309084
 31
0.0
  0
LINE
  5
101
100
AcDbEntity
  8
0
 62
5
100
AcDbLine
 10
163.923495
 20
156.309084
 30
0.0
 11
156.260625
 21
143.036068
 31
0.0
  0
LINE
  5
102
100
AcDbEntity
  8
0
 62
5
100
AcDbLine
 10
156.260625
 20
143.036068
 30
0.0
 11
149.478633
 21
141.189759
 31
0.0
  0
LINE
  5
103
100
AcDbEntity
  8
0
 62
1
100
AcDbLine
 10
158.506185
 20
156.826948
 30
0.0
 11
162.131211
 21
163.105554
 31
0.0
  0
LINE
  5
104
100
AcDbEntity
  8
0
 62
1
100
AcDbLine
 10
149.478633
 20
141.189759
 30
0.0
 11
153.108832
 21
147.478077
 31
0.0
  0
LINE
  5
105
100
AcDbEntity
  8
0
 62
5
100
AcDbLine
 10
154.064741
 20
147.949981
 30
0.0
 11
158.571703
 21
155.756580
 31
0.0
  0
SPLINE
  5
106
100
AcDbEntity
  8
0
 62
5
100
AcDbSpline
 70
0
 71
3
 72
10
 73
6
 74
4
 40
0.000000
 40
0.000000
 40
0.000000
 40
0.000000
 40
1.112708
 40
1.522653
 40
1.581217
 40
1.581217
 40
1.581217
 40
1.581217
 10
152.487585
 20
147.836742
 30
0.0
 10
152.857535
 20
147.863304
 30
0.0
 10
153.363783
 20
147.899652
 30
0.0
 10
153.889502
 20
147.937398
 30
0.0
 10
154.045270
 20
147.948583
 30
0.0
 10
154.064741
 20
147.949981
 30
0.0
 11
152.487585
 21
147.836742
 31
0.0
 11
153.597436
 21
147.916428
 31
0.0
 11
154.006328
 21
147.945787
 31
0.0
 11
154.064741
 21
147.949981
 31
0.0
  0
LINE
  5
107
100
AcDbEntity
  8
0
 62
5
100
AcDbLine
 10
156.442963
 20
168.691485
 30
0.0
 11
155.795986
 21
169.326406
 31
0.0
  0
LINE
  5
108
100
AcDbEntity
  8
0
 62
5
100
AcDbLine
 10
155.795986
 20
169.326406
 30
0.0
 11
156.150050
 21
169.686968
 31
0.0
  0
LINE
  5
109
100
AcDbEntity
  8
0
 62
5
100
AcDbLine
 10
156.150050
 20
169.686968
 30
0.0
 11
157.267298
 21
168.589857
 31
0.0
  0
SPLINE
  5
10a
100
AcDbEntity
  8
0
 62
5
100
AcDbSpline
 70
0
 71
3
 72
10
 73
6
 74
4
 40
0.000000
 40
0.000000
 40
0.000000
 40
0.000000
 40
0.058722
 40
0.469774
 40
1.585488
 40
1.585488
 40
1.585488
 40
1.585488
 10
158.571703
 20
155.756580
 30
0.0
 10
158.563225
 20
155.774223
 30
0.0
 10
158.495396
 20
155.915361
 30
0.0
 10
158.266474
 20
156.391704
 30
0.0
 10
158.046031
 20
156.850405
 30
0.0
 10
157.884938
 20
157.185610
 30
0.0
 11
158.571703
 21
155.756580
 31
0.0
 11
158.546268
 21
155.809507
 31
0.0
 11
158.368217
 21
156.179996
 31
0.0
 11
157.884938
 21
157.185610
 31
0.0
  0
LINE
  5
10b
100
AcDbEntity
  8
0
 62
5
100
AcDbLine
 10
149.564962
 20
176.153376
 30
0.0
 11
150.682198
 21
175.056274
 31
0.0
  0
LINE
  5
10c
100
AcDbEntity
  8
0
 62
5
100
AcDbLine
 10
150.682198
 20
175.056274
 30
0.0
 11
150.327930
 21
174.695503
 31
0.0
  0
LINE
  5
10d
100
AcDbEntity
  8
0
 62
5
100
AcDbLine
 10
150.327930
 20
174.695503
 30
0.0
 11
149.681351
 21
175.330825
 31
0.0
  0
LINE
  5
10e
100
AcDbEntity
  8
0
 62
5
100
AcDbLine
 10
156.442963
 20
168.691491
 30
0.0
 11
162.090106
 21
163.145861
 31
0.0
  0
LINE
  5
10f
100
AcDbEntity
  8
0
 62
5
100
AcDbLine
 10
144.034174
 20
180.876430
 30
0.0
 11
149.681319
 21
175.330800
 31
0.0
  0
LINE
  5
110
100
AcDbEntity
  8
0
 62
1
100
AcDbLine
 10
154.423900
 20
170.673619
 30
0.0
 11
151.699920
 21
173.348245
 31
0.0
  0
LINE
  5
111
100
AcDbEntity
  8
0
 62
1
100
AcDbLine
 10
144.034171
 20
180.876430
 30
0.0
 11
0.962232
 21
141.139902
 31
0.0
  0
LINE
  5
112
100
AcDbEntity
  8
0
 62
5
100
AcDbLine
 10
150.374824
 20
205.434583
 30
0.0
 11
153.920531
 21
199.365626
 31
0.0
  0
LINE
  5
113
100
AcDbEntity
  8
0
 62
5
100
AcDbLine
 10
153.920531
 20
199.365626
 30
0.0
 11
150.089114
 21
184.526060
 31
0.0
  0
LINE
  5
114
100
AcDbEntity
  8
0
 62
5
100
AcDbLine
 10
150.089114
 20
184.526060
 30
0.0
 11
144.048565
 21
180.932171
 31
0.0
  0
LINE
  5
115
100
AcDbEntity
  8
0
 62
1
100
AcDbLine
 10
148.562218
 20
198.414884
 30
0.0
 11
150.374824
 21
205.434583
 31
0.0
  0
LINE
  5
116
100
AcDbEntity
  8
0
 62
1
100
AcDbLine
 10
144.048565
 20
180.932171
 30
0.0
 11
145.863553
 21
187.962615
 31
0.0
  0
SPLINE
  5
117
100
AcDbEntity
  8
0
 62
5
100
AcDbSpline
 70
0
 71
3
 72
16
 73
12
 74
10
 40
0.000000
 40
0.000000
 40
0.000000
 40
0.000000
 40
0.594052
 40
1.926274
 40
3.438882
 40
6.074692
 40
8.833683
 40
11.469467
 40
12.982642
 40
14.315439
 40
14.909670
 40
14.909670
 40
14.909670
 40
14.909670
 10
157.267298
 20
168.589857
 30
0.0
 10
157.375295
 20
168.755815
 30
0.0
 10
157.725488
 20
169.293952
 30
0.0
 10
158.210354
 20
170.345364
 30
0.0
 10
158.391773
 20
172.222709
 30
0.0
 10
157.248365
 20
174.368797
 30
0.0
 10
155.345760
 20
176.237304
 30
0.0
 10
153.178945
 20
177.341186
 30
0.0
 10
151.304950
 20
177.126195
 30
0.0
 10
150.261571
 20
176.623432
 30
0.0
 10
149.729145
 20
176.264163
 30
0.0
 10
149.564962
 20
176.153376
 30
0.0
 11
157.267298
 21
168.589857
 31
0.0
 11
157.583815
 21
169.092564
 31
0.0
 11
158.117609
 21
170.313171
 31
0.0
 11
158.245040
 21
171.820401
 31
0.0
 11
157.176824
 21
174.230050
 31
0.0
 11
155.208276
 21
176.163144
 31
0.0
 11
152.779611
 21
177.187325
 31
0.0
 11
151.274317
 21
177.033096
 31
0.0
 11
150.062456
 21
176.478353
 31
0.0
 11
149.564962
 21
176.153376
 31
0.0
  0
LINE
  5
118
100
AcDbEntity
  8
0
 62
5
100
AcDbLine
 10
146.658316
 20
188.673115
 30
0.0
 11
148.911784
 21
197.401091
 31
0.0
  0
SPLINE
  5
119
100
AcDbEntity
  8
0
 62
5
100
AcDbSpline
 70
0
 71
3
 72
10
 73
6
 74
4
 40
0.000000
 40
0.000000
 40
0.000000
 40
0.000000
 40
1.112709
 40
1.522655
 40
1.581218
 40
1.581218
 40
1.581218
 40
1.581218
 10
145.168984
 20
188.141944
 30
0.0
 10
145.518334
 20
188.266540
 30
0.0
 10
145.996391
 20
188.437039
 30
0.0
 10
146.492835
 20
188.614096
 30
0.0
 10
146.639929
 20
188.666557
 30
0.0
 10
146.658316
 20
188.673115
 30
0.0
 11
145.168984
 21
188.141944
 31
0.0
 11
146.217032
 21
188.515731
 31
0.0
 11
146.603155
 21
188.653442
 31
0.0
 11
146.658316
 21
188.673115
 31
0.0
  0
LINE
  5
11a
100
AcDbEntity
  8
0
 62
5
100
AcDbLine
 10
143.399197
 20
209.294562
 30
0.0
 11
142.605907
 21
209.733189
 31
0.0
  0
LINE
  5
11b
100
AcDbEntity
  8
0
 62
5
100
AcDbLine
 10
142.605907
 20
209.733189
 30
0.0
 11
142.850568
 21
210.175352
 31
0.0
  0
LINE
  5
11c
100
AcDbEntity
  8
0
 62
5
100
AcDbLine
 10
142.850568
 20
210.175352
 30
0.0
 11
144.220661
 21
209.417238
 31
0.0
  0
SPLINE
  5
11d
100
AcDbEntity
  8
0
 62
5
100
AcDbSpline
 70
0
 71
3
 72
10
 73
6
 74
4
 40
0.000000
 40
0.000000
 40
0.000000
 40
0.000000
 40
0.058722
 40
0.469774
 40
1.585486
 40
1.585486
 40
1.585486
 40
1.585486
 10
148.911784
 20
197.401091
 30
0.0
 10
148.898894
 20
197.415821
 30
0.0
 10
148.795769
 20
197.533661
 30
0.0
 10
148.447724
 20
197.931369
 30
0.0
 10
148.112570
 20
198.314348
 30
0.0
 10
147.867649
 20
198.594217
 30
0.0
 11
148.911784
 21
197.401091
 31
0.0
 11
148.873112
 21
197.445281
 31
0.0
 11
148.602411
 21
197.754610
 31
0.0
 11
147.867649
 21
198.594217
 31
0.0
  0
LINE
  5
11e
100
AcDbEntity
  8
0
 62
5
100
AcDbLine
 10
134.775188
 20
214.643689
 30
0.0
 11
136.145267
 21
213.885584
 31
0.0
  0
LINE
  5
11f
100
AcDbEntity
  8
0
 62
5
100
AcDbLine
 10
136.145267
 20
213.885584
 30
0.0
 11
135.900468
 21
213.443167
 31
0.0
  0
LINE
  5
120
100
AcDbEntity
  8
0
 62
5
100
AcDbLine
 10
135.900468
 20
213.443167
 30
0.0
 11
135.107451
 21
213.882287
 31
0.0
  0
LINE
  5
121
100
AcDbEntity
  8
0
 62
5
100
AcDbLine
 10
143.399194
 20
209.294568
 30
0.0
 11
150.324433
 21
205.462422
 31
0.0
  0
LINE
  5
122
100
AcDbEntity
  8
0
 62
5
100
AcDbLine
 10
128.182192
 20
217.714397
 30
0.0
 11
135.107429
 21
213.882254
 31
0.0
  0
LINE
  5
123
100
AcDbEntity
  8
0
 62
1
100
AcDbLine
 10
140.923337
 20
210.664085
 30
0.0
 11
137.582955
 21
212.512200
 31
0.0
  0
LINE
  5
124
100
AcDbEntity
  8
0
 62
1
100
AcDbLine
 10
128.182192
 20
217.714397
 30
0.0
 11
0.962232
 21
141.139902
 31
0.0
  0
LINE
  5
125
100
AcDbEntity
  8
0
 62
5
100
AcDbLine
 10
127.719622
 20
243.073675
 30
0.0
 11
132.760110
 21
238.174929
 31
0.0
  0
LINE
  5
126
100
AcDbEntity
  8
0
 62
5
100
AcDbLine
 10
132.760110
 20
238.174929
 30
0.0
 11
133.039626
 21
222.851273
 31
0.0
  0
LINE
  5
127
100
AcDbEntity
  8
0
 62
5
100
AcDbLine
 10
133.039626
 20
222.851273
 30
0.0
 11
128.181142
 21
217.771962
 31
0.0
  0
LINE
  5
128
100
AcDbEntity
  8
0
 62
1
100
AcDbLine
 10
127.851654
 20
235.824933
 30
0.0
 11
127.719619
 21
243.073675
 31
0.0
  0
LINE
  5
129
100
AcDbEntity
  8
0
 62
1
100
AcDbLine
 10
128.181142
 20
217.771962
 30
0.0
 11
128.048532
 21
225.031694
 31
0.0
  0
SPLINE
  5
12a
100
AcDbEntity
  8
0
 62
5
100
AcDbSpline
 70
0
 71
3
 72
16
 73
12
 74
10
 40
0.000000
 40
0.000000
 40
0.000000
 40
0.000000
 40
0.594053
 40
1.926274
 40
3.438882
 40
6.074692
 40
8.833683
 40
11.469466
 40
12.982641
 40
14.315438
 40
14.909669
 40
14.909669
 40
14.909669
 40
14.909669
 10
144.220661
 20
209.417238
 30
0.0
 10
144.280308
 20
209.606045
 30
0.0
 10
144.473720
 20
210.218269
 30
0.0
 10
144.659536
 20
211.361088
 30
0.0
 10
144.331945
 20
213.218511
 30
0.0
 10
142.655929
 20
214.980340
 30
0.0
 10
140.322689
 20
216.271547
 30
0.0
 10
137.939494
 20
216.755308
 30
0.0
 10
136.191381
 20
216.046663
 30
0.0
 10
135.320600
 20
215.283020
 30
0.0
 10
134.903735
 20
214.794372
 30
0.0
 10
134.775188
 20
214.643689
 30
0.0
 11
144.220661
 21
209.417238
 31
0.0
 11
144.391107
 21
209.986314
 31
0.0
 11
144.578788
 21
211.305249
 31
0.0
 11
144.298224
 21
212.791609
 31
0.0
 11
142.624126
 21
214.827510
 31
0.0
 11
140.210064
 21
216.163300
 31
0.0
 11
137.595901
 21
216.500195
 31
0.0
 11
136.186780
 21
215.948762
 31
0.0
 11
135.167572
 21
215.089947
 31
0.0
 11
134.775188
 21
214.643689
 31
0.0
  0
LINE
  5
12b
100
AcDbEntity
  8
0
 62
5
100
AcDbLine
 10
128.624169
 20
225.928966
 30
0.0
 11
128.459772
 21
234.941662
 31
0.0
  0
SPLINE
  5
12c
100
AcDbEntity
  8
0
 62
5
100
AcDbSpline
 70
0
 71
3
 72
10
 73
6
 74
4
 40
0.000000
 40
0.000000
 40
0.000000
 40
0.000000
 40
1.112709
 40
1.522654
 40
1.581218
 40
1.581218
 40
1.581218
 40
1.581218
 10
127.331303
 20
225.018610
 30
0.0
 10
127.634568
 20
225.232150
 30
0.0
 10
128.049562
 20
225.524363
 30
0.0
 10
128.480517
 20
225.827815
 30
0.0
 10
128.608208
 20
225.917727
 30
0.0
 10
128.624169
 20
225.928966
 30
0.0
 11
127.331303
 21
225.018610
 31
0.0
 11
128.241098
 21
225.659231
 31
0.0
 11
128.576285
 21
225.895249
 31
0.0
 11
128.624169
 21
225.928966
 31
0.0
  0
LINE
  5
12d
100
AcDbEntity
  8
0
 62
5
100
AcDbLine
 10
119.965445
 20
244.926136
 30
0.0
 11
119.083709
 21
245.136477
 31
0.0
  0
LINE
  5
12e
100
AcDbEntity
  8
0
 62
5
100
AcDbLine
 10
119.083709
 20
245.136477
 30
0.0
 11
119.201119
 21
245.627984
 31
0.0
  0
LINE
  5
12f
100
AcDbEntity
  8
0
 62
5
100
AcDbLine
 10
119.201119
 20
245.627984
 30
0.0
 11
120.724120
 21
245.264171
 31
0.0
  0
SPLINE
  5
130
100
AcDbEntity
  8
0
 62
5
100
AcDbSpline
 70
0
 71
3
 72
10
 73
6
 74
4
 40
0.000000
 40
0.000000
 40
0.000000
 40
0.000000
 40
0.058722
 40
0.469774
 40
1.585487
 40
1.585487
 40
1.585487
 40
1.585487
 10
128.459772
 20
234.941662
 30
0.0
 10
128.443410
 20
234.952405
 30
0.0
 10
128.312511
 20
235.038349
 30
0.0
 10
127.870729
 20
235.328411
 30
0.0
 10
127.445309
 20
235.607731
 30
0.0
 10
127.134425
 20
235.811849
 30
0.0
 11
128.459772
 21
234.941662
 31
0.0
 11
128.410685
 21
234.973891
 31
0.0
 11
128.067077
 21
235.199495
 31
0.0
 11
127.134425
 21
235.811849
 31
0.0
  0
LINE
  5
131
100
AcDbEntity
  8
0
 62
5
100
AcDbLine
 10
110.224502
 20
247.772311
 30
0.0
 11
111.747486
 21
247.408501
 31
0.0
  0
LINE
  5
132
100
AcDbEntity
  8
0
 62
5
100
AcDbLine
 10
111.747486
 20
247.408501
 30
0.0
 11
111.630008
 21
246.916709
 31
0.0
  0
LINE
  5
133
100
AcDbEntity
  8
0
 62
5
100
AcDbLine
 10
111.630008
 20
246.916709
 30
0.0
 11
110.748405
 21
247.127597
 31
0.0
  0
LINE
  5
134
100
AcDbEntity
  8
0
 62
5
100
AcDbLine
 10
119.965442
 20
244.926142
 30
0.0
 11
127.663615
 21
243.087016
 31
0.0
  0
LINE
  5
135
100
AcDbEntity
  8
0
 62
5
100
AcDbLine
 10
103.050219
 20
248.966687
 30
0.0
 11
110.748391
 21
247.127557
 31
0.0
  0
LINE
  5
136
100
AcDbEntity
  8
0
 62
1
100
AcDbLine
 10
117.213391
 20
245.583153
 30
0.0
 11
113.500267
 21
246.469946
 31
0.0
  0
LINE
  5
137
100
AcDbEntity
  8
0
 62
1
100
AcDbLine
 10
103.050221
 20
248.966684
 30
0.0
 11
0.962232
 21
141.139902
 31
0.0
  0
LINE
  5
138
100
AcDbEntity
  8
0
 62
5
100
AcDbLine
 10
95.818164
 20
273.277260
 30
0.0
 11
101.985761
 21
269.906058
 31
0.0
  0
LINE
  5
139
100
AcDbEntity
  8
0
 62
5
100
AcDbLine
 10
101.985761
 20
269.906058
 30
0.0
 11
106.355820
 21
255.216091
 31
0.0
  0
LINE
  5
13a
100
AcDbEntity
  8
0
 62
5
100
AcDbLine
 10
106.355820
 20
255.216091
 30
0.0
 11
103.033802
 21
249.021861
 31
0.0
  0
LINE
  5
13b
100
AcDbEntity
  8
0
 62
1
100
AcDbLine
 10
97.885205
 20
266.328227
 30
0.0
 11
95.818164
 21
273.277260
 31
0.0
  0
LINE
  5
13c
100
AcDbEntity
  8
0
 62
1
100
AcDbLine
 10
103.033802
 20
249.021861
 30
0.0
 11
100.963264
 21
255.981328
 31
0.0
  0
SPLINE
  5
13d
100
AcDbEntity
  8
0
 62
5
100
AcDbSpline
 70
0
 71
3
 72
16
 73
12
 74
10
 40
0.000000
 40
0.000000
 40
0.000000
 40
0.000000
 40
0.594052
 40
1.926274
 40
3.438882
 40
6.074692
 40
8.833683
 40
11.469464
 40
12.982641
 40
14.315439
 40
14.909670
 40
14.909670
 40
14.909670
 40
14.909670
 10
120.724120
 20
245.264171
 30
0.0
 10
120.731065
 20
245.462053
 30
0.0
 10
120.753586
 20
246.103707
 30
0.0
 10
120.626796
 20
247.254570
 30
0.0
 10
119.814092
 20
248.956583
 30
0.0
 10
117.727723
 20
250.205639
 30
0.0
 10
115.134044
 20
250.825357
 30
0.0
 10
112.708311
 20
250.653711
 30
0.0
 10
111.213595
 20
249.503102
 30
0.0
 10
110.578930
 20
248.534281
 30
0.0
 10
110.308037
 20
247.951898
 30
0.0
 10
110.224502
 20
247.772311
 30
0.0
 11
120.724120
 21
245.264171
 31
0.0
 11
120.736059
 21
245.858103
 31
0.0
 11
120.563937
 21
247.179159
 31
0.0
 11
119.895843
 21
248.536227
 31
0.0
 11
117.737979
 21
250.049871
 31
0.0
 11
115.054494
 21
250.690918
 31
0.0
 11
112.445521
 21
250.315954
 31
0.0
 11
111.235361
 21
249.407540
 31
0.0
 11
110.483152
 21
248.307298
 31
0.0
 11
110.224502
 21
247.772311
 31
0.0
  0
LINE
  5
13e
100
AcDbEntity
  8
0
 62
5
100
AcDbLine
 10
101.277790
 20
256.999919
 30
0.0
 11
98.707516
 21
265.639907
 31
0.0
  0
SPLINE
  5
13f
100
AcDbEntity
  8
0
 62
5
100
AcDbSpline
 70
0
 71
3
 72
10
 73
6
 74
4
 40
0.000000
 40
0.000000
 40
0.000000
 40
0.000000
 40
1.112709
 40
1.522655
 40
1.581218
 40
1.581218
 40
1.581218
 40
1.581218
 10
100.275695
 20
255.776785
 30
0.0
 10
100.510754
 20
256.063693
 30
0.0
 10
100.832414
 20
256.456304
 30
0.0
 10
101.166446
 20
256.864015
 30
0.0
 10
101.265418
 20
256.984819
 30
0.0
 10
101.277790
 20
256.999919
 30
0.0
 11
100.275695
 21
255.776785
 31
0.0
 11
100.980873
 21
256.637509
 31
0.0
 11
101.240675
 21
256.954618
 31
0.0
 11
101.277790
 21
256.999919
 31
0.0
  0
LINE
  5
140
100
AcDbEntity
  8
0
 62
5
100
AcDbLine
 10
87.851070
 20
272.987075
 30
0.0
 11
86.945205
 21
272.953782
 31
0.0
  0
LINE
  5
141
100
AcDbEntity
  8
0
 62
5
100
AcDbLine
 10
86.945205
 20
272.953782
 30
0.0
 11
86.926804
 21
273.458785
 31
0.0
  0
LINE
  5
142
100
AcDbEntity
  8
0
 62
5
100
AcDbLine
 10
86.926804
 20
273.458785
 30
0.0
 11
88.491616
 21
273.515808
 31
0.0
  0
SPLINE
  5
143
100
AcDbEntity
  8
0
 62
5
100
AcDbSpline
 70
0
 71
3
 72
10
 73
6
 74
4
 40
0.000000
 40
0.000000
 40
0.000000
 40
0.000000
 40
0.058722
 40
0.469774
 40
1.585488
 40
1.585488
 40
1.585488
 40
1.585488
 10
98.707516
 20
265.639907
 30
0.0
 10
98.688875
 20
265.645880
 30
0.0
 10
98.539752
 20
265.693660
 30
0.0
 10
98.036459
 20
265.854920
 30
0.0
 10
97.551807
 20
266.010207
 30
0.0
 10
97.197638
 20
266.123687
 30
0.0
 11
98.707516
 21
265.639907
 31
0.0
 11
98.651594
 21
265.657825
 31
0.0
 11
98.260145
 21
265.783249
 31
0.0
 11
97.197638
 21
266.123687
 31
0.0
  0
LINE
  5
144
100
AcDbEntity
  8
0
 62
5
100
AcDbLine
 10
77.703742
 20
273.122686
 30
0.0
 11
79.268540
 21
273.179709
 31
0.0
  0
LINE
  5
145
100
AcDbEntity
  8
0
 62
5
100
AcDbLine
 10
79.268540
 20
273.179709
 30
0.0
 11
79.286941
 21
272.674415
 31
0.0
  0
LINE
  5
146
100
AcDbEntity
  8
0
 62
5
100
AcDbLine
 10
79.286941
 20
272.674415
 30
0.0
 11
78.381056
 21
272.641686
 31
0.0
  0
LINE
  5
147
100
AcDbEntity
  8
0
 62
5
100
AcDbLine
 10
87.851065
 20
272.987079
 30
0.0
 11
95.760633
 21
273.275125
 31
0.0
  0
LINE
  5
148
100
AcDbEntity
  8
0
 62
5
100
AcDbLine
 10
70.471496
 20
272.353600
 30
0.0
 11
78.381064
 21
272.641645
 31
0.0
  0
LINE
  5
149
100
AcDbEntity
  8
0
 62
1
100
AcDbLine
 10
85.023565
 20
272.883654
 30
0.0
 11
81.208555
 21
272.744442
 31
0.0
  0
LINE
  5
14a
100
AcDbEntity
  8
0
 62
1
100
AcDbLine
 10
70.471496
 20
272.353598
 30
0.0
 11
0.962232
 21
141.139902
 31
0.0
  0
LINE
  5
14b
100
AcDbEntity
  8
0
 62
5
100
AcDbLine
 10
56.997498
 20
293.842157
 30
0.0
 11
63.842310
 21
292.244410
 31
0.0
  0
LINE
  5
14c
100
AcDbEntity
  8
0
 62
5
100
AcDbLine
 10
63.842310
 20
292.244410
 30
0.0
 11
71.984142
 21
279.259684
 31
0.0
  0
LINE
  5
14d
100
AcDbEntity
  8
0
 62
5
100
AcDbLine
 10
71.984142
 20
279.259684
 30
0.0
 11
70.440914
 21
272.402373
 31
0.0
  0
LINE
  5
14e
100
AcDbEntity
  8
0
 62
1
100
AcDbLine
 10
60.848768
 20
287.699728
 30
0.0
 11
56.997496
 21
293.842156
 31
0.0
  0
LINE
  5
14f
100
AcDbEntity
  8
0
 62
1
100
AcDbLine
 10
70.440914
 20
272.402373
 30
0.0
 11
66.583481
 21
278.553917
 31
0.0
  0
SPLINE
  5
150
100
AcDbEntity
  8
0
 62
5
100
AcDbSpline
 70
0
 71
3
 72
16
 73
12
 74
10
 40
0.000000
 40
0.000000
 40
0.000000
 40
0.000000
 40
0.594052
 40
1.926273
 40
3.438880
 40
6.074692
 40
8.833683
 40
11.469466
 40
12.982642
 40
14.315439
 40
14.909670
 40
14.909670
 40
14.909670
 40
14.909670
 10
88.491616
 20
273.515808
 30
0.0
 10
88.445353
 20
273.708332
 30
0.0
 10
88.295340
 20
274.332609
 30
0.0
 10
87.865195
 20
275.407568
 30
0.0
 10
86.626659
 20
276.830018
 30
0.0
 10
84.282127
 20
277.475188
 30
0.0
 10
81.617202
 20
277.378214
 30
0.0
 10
79.325874
 20
276.563682
 30
0.0
 10
78.193587
 20
275.055040
 30
0.0
 10
77.841334
 20
273.951713
 30
0.0
 10
77.736171
 20
273.318078
 30
0.0
 10
77.703742
 20
273.122686
 30
0.0
 11
88.491616
 21
273.515808
 31
0.0
 11
88.344178
 21
274.091273
 31
0.0
 11
87.824808
 21
275.318086
 31
0.0
 11
86.817920
 21
276.446870
 31
0.0
 11
84.333693
 21
277.327847
 31
0.0
 11
81.576531
 21
277.227391
 31
0.0
 11
79.163054
 21
276.167918
 31
0.0
 11
78.240132
 21
274.968788
 31
0.0
 11
77.809791
 21
273.707378
 31
0.0
 11
77.703742
 21
273.122686
 31
0.0
  0
LINE
  5
151
100
AcDbEntity
  8
0
 62
5
100
AcDbLine
 10
66.613950
 20
279.619528
 30
0.0
 11
61.825288
 21
287.256570
 31
0.0
  0
SPLINE
  5
152
100
AcDbEntity
  8
0
 62
5
100
AcDbSpline
 70
0
 71
3
 72
10
 73
6
 74
4
 40
0.000000
 40
0.000000
 40
0.000000
 40
0.000000
 40
1.112709
 40
1.522654
 40
1.581218
 40
1.581218
 40
1.581218
 40
1.581218
 10
65.975724
 20
278.172836
 30
0.0
 10
66.125431
 20
278.512184
 30
0.0
 10
66.330294
 20
278.976554
 30
0.0
 10
66.543036
 20
279.458785
 30
0.0
 10
66.606070
 20
279.601668
 30
0.0
 10
66.613950
 20
279.619528
 30
0.0
 11
65.975724
 21
278.172836
 31
0.0
 11
66.424846
 21
279.190879
 31
0.0
 11
66.590312
 21
279.565947
 31
0.0
 11
66.613950
 21
279.619528
 31
0.0
  0
LINE
  5
153
100
AcDbEntity
  8
0
 62
5
100
AcDbLine
 10
49.398631
 20
291.430493
 30
0.0
 11
48.534715
 21
291.155997
 31
0.0
  0
LINE
  5
154
100
AcDbEntity
  8
0
 62
5
100
AcDbLine
 10
48.534715
 20
291.155997
 30
0.0
 11
48.381841
 21
291.637656
 31
0.0
  0
LINE
  5
155
100
AcDbEntity
  8
0
 62
5
100
AcDbLine
 10
48.381841
 20
291.637656
 30
0.0
 11
49.874320
 21
292.111357
 31
0.0
  0
SPLINE
  5
156
100
AcDbEntity
  8
0
 62
5
100
AcDbSpline
 70
0
 71
3
 72
10
 73
6
 74
4
 40
0.000000
 40
0.000000
 40
0.000000
 40
0.000000
 40
0.058722
 40
0.469775
 40
1.585490
 40
1.585490
 40
1.585490
 40
1.585490
 10
61.825288
 20
287.256570
 30
0.0
 10
61.805729
 20
287.257336
 30
0.0
 10
61.649257
 20
287.263467
 30
0.0
 10
61.121166
 20
287.284160
 30
0.0
 10
60.612633
 20
287.304086
 30
0.0
 10
60.241013
 20
287.318648
 30
0.0
 11
61.825288
 21
287.256570
 31
0.0
 11
61.766611
 21
287.258869
 31
0.0
 11
61.355873
 21
287.274963
 31
0.0
 11
60.241013
 21
287.318648
 31
0.0
  0
LINE
  5
157
100
AcDbEntity
  8
0
 62
5
100
AcDbLine
 10
39.585107
 20
288.845647
 30
0.0
 11
41.077574
 21
289.319344
 31
0.0
  0
LINE
  5
158
100
AcDbEntity
  8
0
 62
5
100
AcDbLine
 10
41.077574
 20
289.319344
 30
0.0
 11
41.230539
 21
288.837407
 31
0.0
  0
LINE
  5
159
100
AcDbEntity
  8
0
 62
5
100
AcDbLine
 10
41.230539
 20
288.837407
 30
0.0
 11
40.366450
 21
288.563449
 31
0.0
  0
LINE
  5
15a
100
AcDbEntity
  8
0
 62
5
100
AcDbLine
 10
49.398628
 20
291.430496
 30
0.0
 11
56.942632
 21
293.824703
 31
0.0
  0
LINE
  5
15b
100
AcDbEntity
  8
0
 62
5
100
AcDbLine
 10
32.822453
 20
286.169202
 30
0.0
 11
40.366459
 21
288.563409
 31
0.0
  0
LINE
  5
15c
100
AcDbEntity
  8
0
 62
1
100
AcDbLine
 10
46.701930
 20
290.574180
 30
0.0
 11
43.063315
 21
289.419117
 31
0.0
  0
LINE
  5
15d
100
AcDbEntity
  8
0
 62
5
100
AcDbLine
 10
56.946797
 20
141.139902
 30
0.0
 11
51.996487
 21
136.189592
 31
0.0
  0
LINE
  5
15e
100
AcDbEntity
  8
0
 62
5
100
AcDbLine
 10
51.996487
 20
136.189592
 30
0.0
 11
20.364472
 21
136.189592
 31
0.0
  0
LINE
  5
15f
100
AcDbEntity
  8
0
 62
5
100
AcDbLine
 10
20.364472
 20
136.189592
 30
0.0
 11
0.962232
 21
141.139902
 31
0.0
  0
LINE
  5
160
100
AcDbEntity
  8
0
 62
1
100
AcDbLine
 10
29.973064
 20
141.140091
 30
0.0
 11
56.946797
 21
141.139902
 31
0.0
  0
LINE
  5
161
100
AcDbEntity
  8
0
 62
1
100
AcDbLine
 10
0.962232
 20
141.139902
 30
0.0
 11
19.178030
 21
141.140091
 31
0.0
  0
SPLINE
  5
162
100
AcDbEntity
  8
0
 62
5
100
AcDbSpline
 70
0
 71
3
 72
16
 73
12
 74
10
 40
0.000000
 40
0.000000
 40
0.000000
 40
0.000000
 40
0.594052
 40
1.926273
 40
3.438880
 40
6.074691
 40
8.833682
 40
11.469464
 40
12.982640
 40
14.315438
 40
14.909669
 40
14.909669
 40
14.909669
 40
14.909669
 10
49.874320
 20
292.111357
 30
0.0
 10
49.778223
 20
292.284478
 30
0.0
 10
49.466620
 20
292.845843
 30
0.0
 10
48.764495
 20
293.766485
 30
0.0
 10
47.190472
 20
294.805612
 30
0.0
 10
44.758798
 20
294.799835
 30
0.0
 10
42.217020
 20
293.993242
 30
0.0
 10
40.227239
 20
292.595239
 30
0.0
 10
39.539973
 20
290.838611
 30
0.0
 10
39.495826
 20
289.681259
 30
0.0
 10
39.564065
 20
289.042591
 30
0.0
 10
39.585107
 20
288.845647
 30
0.0
 11
49.874320
 21
292.111357
 31
0.0
 11
49.578260
 21
292.626378
 31
0.0
 11
48.749528
 21
293.669458
 31
0.0
 11
47.477291
 21
294.487621
 31
0.0
 11
44.847913
 21
294.671667
 31
0.0
 11
42.218194
 21
293.837035
 31
0.0
 11
40.176267
 21
292.170338
 31
0.0
 11
39.607902
 21
290.767960
 31
0.0
 11
39.530820
 21
289.437394
 31
0.0
 11
39.585107
 21
288.845647
 31
0.0
  0
LINE
  5
163
100
AcDbEntity
  8
0
 62
5
100
AcDbLine
 10
20.064655
 20
140.548184
 30
0.0
 11
29.078849
 21
140.548184
 31
0.0
  0
SPLINE
  5
164
100
AcDbEntity
  8
0
 62
5
100
AcDbSpline
 70
0
 71
3
 72
10
 73
6
 74
4
 40
0.000000
 40
0.000000
 40
0.000000
 40
0.000000
 40
1.112709
 40
1.522654
 40
1.581218
 40
1.581218
 40
1.581218
 40
1.581218
 10
19.178030
 20
141.857438
 30
0.0
 10
19.386004
 20
141.550329
 30
0.0
 10
19.670600
 20
141.130074
 30
0.0
 10
19.966141
 20
140.693656
 30
0.0
 10
20.053709
 20
140.564347
 30
0.0
 10
20.064655
 20
140.548184
 30
0.0
 11
19.178030
 21
141.857438
 31
0.0
 11
19.801951
 21
140.936111
 31
0.0
 11
20.031817
 21
140.596674
 31
0.0
 11
20.064655
 21
140.548184
 31
0.0
  0
LINE
  5
165
100
AcDbEntity
  8
0
 62
5
100
AcDbLine
 10
82.005878
 20
141.139716
 30
0.0
 11
82.912356
 21
141.139998
 31
0.0
  0
LINE
  5
166
100
AcDbEntity
  8
0
 62
5
100
AcDbLine
 10
82.912356
 20
141.139998
 30
0.0
 11
82.912356
 21
140.634662
 31
0.0
  0
LINE
  5
167
100
AcDbEntity
  8
0
 62
5
100
AcDbLine
 10
82.912356
 20
140.634662
 30
0.0
 11
81.346506
 21
140.634662
 31
0.0
  0
SPLINE
  5
168
100
AcDbEntity
  8
0
 62
5
100
AcDbSpline
 70
0
 71
3
 72
10
 73
6
 74
4
 40
0.000000
 40
0.000000
 40
0.000000
 40
0.000000
 40
0.058722
 40
0.469774
 40
1.585487
 40
1.585487
 40
1.585487
 40
1.585487
 10
29.078849
 20
140.548184
 30
0.0
 10
29.089888
 20
140.564347
 30
0.0
 10
29.178206
 20
140.693656
 30
0.0
 10
29.476278
 20
141.130074
 30
0.0
 10
29.763310
 20
141.550329
 30
0.0
 10
29.973064
 20
141.857438
 30
0.0
 11
29.078849
 21
140.548184
 31
0.0
 11
29.111968
 21
140.596674
 31
0.0
 11
29.343801
 21
140.936111
 31
0.0
 11
29.973064
 21
141.857438
 31
0.0
  0
LINE
  5
169
100
AcDbEntity
  8
0
 62
5
100
AcDbLine
 10
92.141540
 20
140.634662
 30
0.0
 11
90.575703
 21
140.634662
 31
0.0
  0
LINE
  5
16a
100
AcDbEntity
  8
0
 62
5
100
AcDbLine
 10
90.575703
 20
140.634662
 30
0.0
 11
90.575703
 21
141.140291
 31
0.0
  0
LINE
  5
16b
100
AcDbEntity
  8
0
 62
5
100
AcDbLine
 10
90.575703
 20
141.140291
 30
0.0
 11
91.482178
 21
141.140009
 31
0.0
  0
LINE
  5
16c
100
AcDbEntity
  8
0
 62
5
100
AcDbLine
 10
82.005884
 20
141.139713
 30
0.0
 11
56.946797
 21
141.139902
 31
0.0
  0
LINE
  5
16d
100
AcDbEntity
  8
0
 62
5
100
AcDbLine
 10
112.060987
 20
141.139902
 30
0.0
 11
91.482181
 21
141.140088
 31
0.0
  0
LINE
  5
16e
100
AcDbEntity
  8
0
 62
1
100
AcDbLine
 10
84.835272
 20
141.140099
 30
0.0
 11
88.652821
 21
141.140289
 31
0.0
  0
LINE
  5
16f
100
AcDbEntity
  8
0
 62
5
100
AcDbLine
 10
5.057753
 20
159.530343
 30
0.0
 11
5.252496
 21
160.415654
 31
0.0
  0
LINE
  5
170
100
AcDbEntity
  8
0
 62
5
100
AcDbLine
 10
5.252496
 20
160.415654
 30
0.0
 11
4.758924
 21
160.524067
 31
0.0
  0
LINE
  5
171
100
AcDbEntity
  8
0
 62
5
100
AcDbLine
 10
4.758924
 20
160.524067
 30
0.0
 11
4.423001
 21
158.994674
 31
0.0
  0
SPLINE
  5
172
100
AcDbEntity
  8
0
 62
5
100
AcDbSpline
 70
0
 71
3
 72
16
 73
12
 74
10
 40
0.000000
 40
0.000000
 40
0.000000
 40
0.000000
 40
0.594052
 40
1.926273
 40
3.438880
 40
6.074691
 40
8.833683
 40
11.469466
 40
12.982641
 40
14.315438
 40
14.909670
 40
14.909670
 40
14.909670
 40
14.909670
 10
81.346506
 20
140.634662
 30
0.0
 10
81.385727
 20
140.440581
 30
0.0
 10
81.512905
 20
139.811255
 30
0.0
 10
81.903618
 20
138.721344
 30
0.0
 10
83.089532
 20
137.254736
 30
0.0
 10
85.409013
 20
136.524611
 30
0.0
 10
88.075702
 20
136.524472
 30
0.0
 10
90.395171
 20
137.255022
 30
0.0
 10
91.581649
 20
138.721429
 30
0.0
 10
91.973848
 20
139.811196
 30
0.0
 10
92.102017
 20
140.440581
 30
0.0
 10
92.141540
 20
140.634662
 30
0.0
 11
81.346506
 21
140.634662
 31
0.0
 11
81.472888
 21
140.054209
 31
0.0
 11
81.947236
 21
138.809297
 31
0.0
 11
82.912351
 21
137.644594
 31
0.0
 11
85.362847
 21
136.673733
 31
0.0
 11
88.121838
 21
136.673715
 31
0.0
 11
90.572296
 21
137.644594
 31
0.0
 11
91.538276
 21
138.809319
 31
0.0
 11
92.014268
 21
140.054220
 31
0.0
 11
92.141540
 21
140.634662
 31
0.0
  0
LINE
  5
173
100
AcDbEntity
  8
0
 62
5
100
AcDbLine
 10
6.738868
 20
169.538369
 30
0.0
 11
6.402947
 21
168.008987
 31
0.0
  0
LINE
  5
174
100
AcDbEntity
  8
0
 62
5
100
AcDbLine
 10
6.402947
 20
168.008987
 30
0.0
 11
6.896804
 21
167.900515
 31
0.0
  0
LINE
  5
175
100
AcDbEntity
  8
0
 62
5
100
AcDbLine
 10
6.896804
 20
167.900515
 30
0.0
 11
7.090996
 21
168.785948
 31
0.0
  0
LINE
  5
176
100
AcDbEntity
  8
0
 62
5
100
AcDbLine
 10
5.057750
 20
159.530349
 30
0.0
 11
1.009810
 21
141.099979
 31
0.0
  0
LINE
  5
177
100
AcDbEntity
  8
0
 62
5
100
AcDbLine
 10
13.020221
 20
195.781068
 30
0.0
 11
7.091075
 21
168.785934
 31
0.0
  0
LINE
  5
178
100
AcDbEntity
  8
0
 62
1
100
AcDbLine
 10
5.665120
 20
162.293781
 30
0.0
 11
6.484285
 21
166.022405
 31
0.0
  0
LINE
  5
179
100
AcDbEntity
  8
0
 62
5
100
AcDbLine
 10
24.843913
 20
249.612047
 30
0.0
 11
18.946866
 21
245.838987
 31
0.0
  0
LINE
  5
17a
100
AcDbEntity
  8
0
 62
5
100
AcDbLine
 10
18.946866
 20
245.838987
 30
0.0
 11
9.247164
 21
201.678115
 31
0.0
  0
LINE
  5
17b
100
AcDbEntity
  8
0
 62
5
100
AcDbLine
 10
9.247164
 20
201.678115
 30
0.0
 11
13.020223
 21
195.781068
 31
0.0
  0
LINE
  5
17c
100
AcDbEntity
  8
0
 62
1
100
AcDbLine
 10
20.571945
 20
230.161720
 30
0.0
 11
24.843914
 21
249.612047
 31
0.0
  0
LINE
  5
17d
100
AcDbEntity
  8
0
 62
1
100
AcDbLine
 10
13.020223
 20
195.781068
 30
0.0
 11
18.256076
 21
219.618025
 31
0.0
  0
SPLINE
  5
17e
100
AcDbEntity
  8
0
 62
5
100
AcDbSpline
 70
0
 71
3
 72
16
 73
12
 74
10
 40
0.000000
 40
0.000000
 40
0.000000
 40
0.000000
 40
0.594052
 40
1.926273
 40
3.438881
 40
6.074691
 40
8.833682
 40
11.469464
 40
12.982640
 40
14.315437
 40
14.909669
 40
14.909669
 40
14.909669
 40
14.909669
 10
4.423001
 20
158.994674
 30
0.0
 10
4.241853
 20
159.074618
 30
0.0
 10
3.654463
 20
159.333845
 30
0.0
 10
2.673748
 20
159.949281
 30
0.0
 10
1.495701
 20
161.422217
 30
0.0
 10
1.280176
 20
163.844327
 30
0.0
 10
1.852127
 20
166.448957
 30
0.0
 10
3.063265
 20
168.557697
 30
0.0
 10
4.750066
 20
169.401961
 30
0.0
 10
5.898599
 20
169.551240
 30
0.0
 10
6.540826
 20
169.541403
 30
0.0
 10
6.738868
 20
169.538369
 30
0.0
 11
4.423001
 21
158.994674
 31
0.0
 11
3.883176
 21
159.242639
 31
0.0
 11
2.769010
 21
159.973015
 31
0.0
 11
1.838471
 21
161.165524
 31
0.0
 11
1.415922
 21
163.767244
 31
0.0
 11
2.007793
 21
166.462002
 31
0.0
 11
3.481765
 21
168.647123
 31
0.0
 11
4.826604
 21
169.340742
 31
0.0
 11
6.144636
 21
169.538583
 31
0.0
 11
6.738868
 21
169.538369
 31
0.0
  0
LINE
  5
17f
100
AcDbEntity
  8
0
 62
5
100
AcDbLine
 10
17.868160
 20
220.610987
 30
0.0
 11
19.801982
 21
229.415305
 31
0.0
  0
SPLINE
  5
180
100
AcDbEntity
  8
0
 62
5
100
AcDbSpline
 70
0
 71
3
 72
10
 73
6
 74
4
 40
0.000000
 40
0.000000
 40
0.000000
 40
0.000000
 40
1.112710
 40
1.522655
 40
1.581219
 40
1.581219
 40
1.581219
 40
1.581219
 10
18.956724
 20
219.464129
 30
0.0
 10
18.701382
 20
219.733145
 30
0.0
 10
18.351966
 20
220.101273
 30
0.0
 10
17.989112
 20
220.483559
 30
0.0
 10
17.881599
 20
220.596829
 30
0.0
 10
17.868160
 20
220.610987
 30
0.0
 11
18.956724
 21
219.464129
 31
0.0
 11
18.190698
 21
220.271178
 31
0.0
 11
17.908477
 21
220.568511
 31
0.0
 11
17.868160
 21
220.610987
 31
0.0
  0
LINE
  5
181
100
AcDbEntity
  8
0
 62
5
100
AcDbLine
 10
29.091379
 20
269.183033
 30
0.0
 11
29.286124
 21
270.068344
 31
0.0
  0
LINE
  5
182
100
AcDbEntity
  8
0
 62
5
100
AcDbLine
 10
29.286124
 20
270.068344
 30
0.0
 11
28.792551
 21
270.176756
 31
0.0
  0
LINE
  5
183
100
AcDbEntity
  8
0
 62
5
100
AcDbLine
 10
28.792551
 20
270.176756
 30
0.0
 11
28.456628
 21
268.647363
 31
0.0
  0
SPLINE
  5
184
100
AcDbEntity
  8
0
 62
5
100
AcDbSpline
 70
0
 71
3
 72
10
 73
6
 74
4
 40
0.000000
 40
0.000000
 40
0.000000
 40
0.000000
 40
0.058722
 40
0.469774
 40
1.585488
 40
1.585488
 40
1.585488
 40
1.585488
 10
19.801982
 20
229.415305
 30
0.0
 10
19.820138
 20
229.422620
 30
0.0
 10
19.965383
 20
229.481140
 30
0.0
 10
20.455586
 20
229.678648
 30
0.0
 10
20.927633
 20
229.868841
 30
0.0
 10
21.272591
 20
230.007827
 30
0.0
 11
19.801982
 21
229.415305
 31
0.0
 11
19.856449
 21
229.437250
 31
0.0
 11
20.237718
 21
229.590867
 31
0.0
 11
21.272591
 21
230.007827
 31
0.0
  0
LINE
  5
185
100
AcDbEntity
  8
0
 62
5
100
AcDbLine
 10
30.772495
 20
279.191057
 30
0.0
 11
30.436574
 21
277.661678
 31
0.0
  0
LINE
  5
186
100
AcDbEntity
  8
0
 62
5
100
AcDbLine
 10
30.436574
 20
277.661678
 30
0.0
 11
30.930429
 21
277.553203
 31
0.0
  0
LINE
  5
187
100
AcDbEntity
  8
0
 62
5
100
AcDbLine
 10
30.930429
 20
277.553203
 30
0.0
 11
31.124621
 21
278.438635
 31
0.0
  0
LINE
  5
188
100
AcDbEntity
  8
0
 62
5
100
AcDbLine
 10
29.091376
 20
269.183038
 30
0.0
 11
24.843913
 21
249.612050
 31
0.0
  0
LINE
  5
189
100
AcDbEntity
  8
0
 62
5
100
AcDbLine
 10
32.822450
 20
286.169204
 30
0.0
 11
31.124663
 21
278.438631
 31
0.0
  0
LINE
  5
18a
100
AcDbEntity
  8
0
 62
1
100
AcDbLine
 10
29.698747
 20
271.946469
 30
0.0
 11
30.517911
 21
275.675094
 31
0.0
  0
LINE
  5
18b
100
AcDbEntity
  8
0
 62
5
100
AcDbLine
 10
149.449849
 20
141.139902
 30
0.0
 11
144.459988
 21
136.189592
 31
0.0
  0
LINE
  5
18c
100
AcDbEntity
  8
0
 62
5
100
AcDbLine
 10
144.459988
 20
136.189592
 30
0.0
 11
117.011298
 21
136.189592
 31
0.0
  0
LINE
  5
18d
100
AcDbEntity
  8
0
 62
5
100
AcDbLine
 10
117.011298
 20
136.189592
 30
0.0
 11
112.060987
 21
141.139902
 31
0.0
  0
LINE
  5
18e
100
AcDbEntity
  8
0
 62
1
100
AcDbLine
 10
142.199902
 20
141.140091
 30
0.0
 11
149.449849
 21
141.139905
 31
0.0
  0
LINE
  5
18f
100
AcDbEntity
  8
0
 62
1
100
AcDbLine
 10
112.060987
 20
141.139902
 30
0.0
 11
131.404868
 21
141.140091
 31
0.0
  0
SPLINE
  5
190
100
AcDbEntity
  8
0
 62
5
100
AcDbSpline
 70
0
 71
3
 72
16
 73
12
 74
10
 40
0.000000
 40
0.000000
 40
0.000000
 40
0.000000
 40
0.594052
 40
1.926273
 40
3.438881
 40
6.074691
 40
8.833682
 40
11.469465
 40
12.982640
 40
14.315438
 40
14.909670
 40
14.909670
 40
14.909670
 40
14.909670
 10
28.456628
 20
268.647363
 30
0.0
 10
28.275480
 20
268.727307
 30
0.0
 10
27.688089
 20
268.986534
 30
0.0
 10
26.707375
 20
269.601969
 30
0.0
 10
25.529327
 20
271.074905
 30
0.0
 10
25.313803
 20
273.497016
 30
0.0
 10
25.885754
 20
276.101646
 30
0.0
 10
27.096891
 20
278.210387
 30
0.0
 10
28.783692
 20
279.054650
 30
0.0
 10
29.932226
 20
279.203929
 30
0.0
 10
30.574453
 20
279.194091
 30
0.0
 10
30.772495
 20
279.191057
 30
0.0
 11
28.456628
 21
268.647363
 31
0.0
 11
27.916802
 21
268.895328
 31
0.0
 11
26.802637
 21
269.625704
 31
0.0
 11
25.872098
 21
270.818213
 31
0.0
 11
25.449549
 21
273.419933
 31
0.0
 11
26.041420
 21
276.114691
 31
0.0
 11
27.515392
 21
278.299812
 31
0.0
 11
28.860231
 21
278.993432
 31
0.0
 11
30.178263
 21
279.191272
 31
0.0
 11
30.772495
 21
279.191057
 31
0.0
  0
LINE
  5
191
100
AcDbEntity
  8
0
 62
5
100
AcDbLine
 10
132.291492
 20
140.548184
 30
0.0
 11
141.305686
 21
140.548184
 31
0.0
  0
SPLINE
  5
192
100
AcDbEntity
  8
0
 62
5
100
AcDbSpline
 70
0
 71
3
 72
10
 73
6
 74
4
 40
0.000000
 40
0.000000
 40
0.000000
 40
0.000000
 40
1.112709
 40
1.522654
 40
1.581217
 40
1.581217
 40
1.581217
 40
1.581217
 10
131.404868
 20
141.857438
 30
0.0
 10
131.612841
 20
141.550329
 30
0.0
 10
131.897437
 20
141.130074
 30
0.0
 10
132.192978
 20
140.693656
 30
0.0
 10
132.280546
 20
140.564347
 30
0.0
 10
132.291492
 20
140.548184
 30
0.0
 11
131.404868
 21
141.857438
 31
0.0
 11
132.028788
 21
140.936111
 31
0.0
 11
132.258654
 21
140.596674
 31
0.0
 11
132.291492
 21
140.548184
 31
0.0
  0
SPLINE
  5
193
100
AcDbEntity
  8
0
 62
5
100
AcDbSpline
 70
0
 71
3
 72
10
 73
6
 74
4
 40
0.000000
 40
0.000000
 40
0.000000
 40
0.000000
 40
0.058722
 40
0.469774
 40
1.585487
 40
1.585487
 40
1.585487
 40
1.585487
 10
141.305686
 20
140.548184
 30
0.0
 10
141.316726
 20
140.564347
 30
0.0
 10
141.405044
 20
140.693656
 30
0.0
 10
141.703115
 20
141.130074
 30
0.0
 10
141.990148
 20
141.550329
 30
0.0
 10
142.199902
 20
141.857438
 30
0.0
 11
141.305686
 21
140.548184
 31
0.0
 11
141.338805
 21
140.596674
 31
0.0
 11
141.570639
 21
140.936111
 31
0.0
 11
142.199902
 21
141.857438
 31
0.0
  0
ENDSEC
  0
SECTION
  2
OBJECTS
  0
DICTIONARY
  5
C
330
0
100
AcDbDictionary
  3
ACAD_GROUP
350
D
  3
ACAD_MLINESTYLE
350
17
  0
DICTIONARY
  5
D
330
C
100
AcDbDictionary
  0
DICTIONARY
  5
1A
330
C
100
AcDbDictionary
  0
DICTIONARY
  5
17
330
C
100
AcDbDictionary
  3
STANDARD
350
18
  0
DICTIONARY
  5
19
330
C
100
AcDbDictionary
  0
ENDSEC
  0
EOF
