999
DXF created by Inkscape
  0
SECTION
  2
HEADER
  9
$ACADVER
  1
AC1014
  9
$HANDSEED
  5
FFFF
  9
$MEASUREMENT
 70
     1
  0
ENDSEC
  0
SECTION
  2
TABLES
  0
TABLE
  2
VPORT
  5
8
330
0
100
AcDbSymbolTable
 70
     4
  0
VPORT
  5
2E
330
8
100
AcDbSymbolTableRecord
100
AcDbViewportTableRecord
  2
*ACTIVE
 70
     0
 10
0.0
 20
0.0
 11
1.0
 21
1.0
 12
210.0
 22
148.5
 13
0.0
 23
0.0
 14
10.0
 24
10.0
 15
10.0
 25
10.0
 16
0.0
 26
0.0
 36
1.0
 17
0.0
 27
0.0
 37
0.0
 40
341.0
 41
1.24
 42
50.0
 43
0.0
 44
0.0
 50
0.0
 51
0.0
 71
     0
 72
   100
 73
     1
 74
     3
 75
     0
 76
     0
 77
     0
 78
     0
  0
ENDTAB
  0
TABLE
  2
LTYPE
  5
5
330
0
100
AcDbSymbolTable
 70
     1
  0
LTYPE
  5
14
330
5
100
AcDbSymbolTableRecord
100
AcDbLinetypeTableRecord
  2
BYBLOCK
 70
     0
  3

 72
    65
 73
     0
 40
0.0
  0
LTYPE
  5
15
330
5
100
AcDbSymbolTableRecord
100
AcDbLinetypeTableRecord
  2
BYLAYER
 70
     0
  3

 72
    65
 73
     0
 40
0.0
  0
LTYPE
  5
16
330
5
100
AcDbSymbolTableRecord
100
AcDbLinetypeTableRecord
  2
CONTINUOUS
 70
     0
  3
Solid line
 72
    65
 73
     0
 40
0.0
  0
ENDTAB
  0
TABLE
  2
LAYER
  5
2
330
0
100
AcDbSymbolTable
 70
1
  0
LAYER
  5
10
330
2
100
AcDbSymbolTableRecord
100
AcDbLayerTableRecord
  2
0
 70
     0
 62
     7
  6
CONTINUOUS
  0
ENDTAB
  0
TABLE
  2
STYLE
  5
3
330
0
100
AcDbSymbolTable
 70
     1
  0
STYLE
  5
11
330
3
100
AcDbSymbolTableRecord
100
AcDbTextStyleTableRecord
  2
STANDARD
 70
     0
 40
0.0
 41
1.0
 50
0.0
 71
     0
 42
2.5
  3
txt
  4

  0
ENDTAB
  0
TABLE
  2
VIEW
  5
6
330
0
100
AcDbSymbolTable
 70
     0
  0
ENDTAB
  0
TABLE
  2
UCS
  5
7
330
0
100
AcDbSymbolTable
 70
     0
  0
ENDTAB
  0
TABLE
  2
APPID
  5
9
330
0
100
AcDbSymbolTable
 70
     2
  0
APPID
  5
12
330
9
100
AcDbSymbolTableRecord
100
AcDbRegAppTableRecord
  2
ACAD
 70
     0
  0
ENDTAB
  0
TABLE
  2
DIMSTYLE
  5
A
330
0
100
AcDbSymbolTable
 70
     1
  0
DIMSTYLE
105
27
330
A
100
AcDbSymbolTableRecord
100
AcDbDimStyleTableRecord
  2
ISO-25
 70
     0
  3

  4

  5

  6

  7

 40
1.0
 41
2.5
 42
0.625
 43
3.75
 44
1.25
 45
0.0
 46
0.0
 47
0.0
 48
0.0
140
2.5
141
2.5
142
0.0
143
0.03937007874016
144
1.0
145
0.0
146
1.0
147
0.625
 71
     0
 72
     0
 73
     0
 74
     0
 75
     0
 76
     0
 77
     1
 78
     8
170
     0
171
     3
172
     1
173
     0
174
     0
175
     0
176
     0
177
     0
178
     0
270
     2
271
     2
272
     2
273
     2
274
     3
340
11
275
     0
280
     0
281
     0
282
     0
283
     0
284
     8
285
     0
286
     0
287
     3
288
     0
  0
ENDTAB
  0
TABLE
  2
BLOCK_RECORD
  5
1
330
0
100
AcDbSymbolTable
 70
     1
  0
BLOCK_RECORD
  5
1F
330
1
100
AcDbSymbolTableRecord
100
AcDbBlockTableRecord
  2
*MODEL_SPACE
  0
BLOCK_RECORD
  5
1B
330
1
100
AcDbSymbolTableRecord
100
AcDbBlockTableRecord
  2
*PAPER_SPACE
  0
ENDTAB
  0
ENDSEC
  0
SECTION
  2
BLOCKS
  0
BLOCK
  5
20
330
1F
100
AcDbEntity
  8
0
100
AcDbBlockBegin
  2
*MODEL_SPACE
 70
     0
 10
0.0
 20
0.0
 30
0.0
  3
*MODEL_SPACE
  1

  0
ENDBLK
  5
21
330
1F
100
AcDbEntity
  8
0
100
AcDbBlockEnd
  0
BLOCK
  5
1C
330
1B
100
AcDbEntity
 67
     1
  8
0
100
AcDbBlockBegin
  2
*PAPER_SPACE
  1

  0
ENDBLK
  5
1D
330
1B
100
AcDbEntity
 67
     1
  8
0
100
AcDbBlockEnd
  0
ENDSEC
  0
SECTION
  2
ENTITIES
  0
LINE
  5
100
100
AcDbEntity
  8
0
 62
5
100
AcDbLine
 10
4.267191
 20
87.946645
 30
0.0
 11
2.475026
 21
94.743146
 31
0.0
  0
LINE
  5
101
100
AcDbEntity
  8
0
 62
5
100
AcDbLine
 10
2.475026
 20
94.743146
 30
0.0
 11
10.138127
 21
108.016029
 31
0.0
  0
LINE
  5
102
100
AcDbEntity
  8
0
 62
5
100
AcDbLine
 10
10.138127
 20
108.016029
 30
0.0
 11
16.920152
 21
109.862219
 31
0.0
  0
LINE
  5
103
100
AcDbEntity
  8
0
 62
1
100
AcDbLine
 10
7.892327
 20
94.225189
 30
0.0
 11
4.267192
 21
87.946645
 31
0.0
  0
LINE
  5
104
100
AcDbEntity
  8
0
 62
1
100
AcDbLine
 10
16.920152
 20
109.862219
 30
0.0
 11
13.289844
 21
103.573964
 31
0.0
  0
LINE
  5
105
100
AcDbEntity
  8
0
 62
5
100
AcDbLine
 10
12.333926
 20
103.102077
 30
0.0
 11
7.826829
 21
95.295556
 31
0.0
  0
SPLINE
  5
106
100
AcDbEntity
  8
0
 62
5
100
AcDbSpline
 70
0
 71
3
 72
10
 73
6
 74
4
 40
0.000000
 40
0.000000
 40
0.000000
 40
0.000000
 40
1.112709
 40
1.522654
 40
1.581218
 40
1.581218
 40
1.581218
 40
1.581218
 10
13.911086
 20
103.215288
 30
0.0
 10
13.541134
 20
103.188732
 30
0.0
 10
13.034886
 20
103.152393
 30
0.0
 10
12.509166
 20
103.114656
 30
0.0
 10
12.353397
 20
103.103475
 30
0.0
 10
12.333926
 20
103.102077
 30
0.0
 11
13.911086
 21
103.215288
 31
0.0
 11
12.801232
 21
103.135621
 31
0.0
 11
12.392339
 21
103.106270
 31
0.0
 11
12.333926
 21
103.102077
 31
0.0
  0
LINE
  5
107
100
AcDbEntity
  8
0
 62
5
100
AcDbLine
 10
63.458194
 20
116.716742
 30
0.0
 11
63.004711
 21
117.501633
 31
0.0
  0
LINE
  5
108
100
AcDbEntity
  8
0
 62
5
100
AcDbLine
 10
63.004711
 20
117.501633
 30
0.0
 11
63.442348
 21
117.754304
 31
0.0
  0
LINE
  5
109
100
AcDbEntity
  8
0
 62
5
100
AcDbLine
 10
63.442348
 20
117.754304
 30
0.0
 11
64.225272
 21
116.398238
 31
0.0
  0
SPLINE
  5
10a
100
AcDbEntity
  8
0
 62
5
100
AcDbSpline
 70
0
 71
3
 72
10
 73
6
 74
4
 40
0.000000
 40
0.000000
 40
0.000000
 40
0.000000
 40
0.058722
 40
0.469774
 40
1.585487
 40
1.585487
 40
1.585487
 40
1.585487
 10
7.826829
 20
95.295556
 30
0.0
 10
7.835307
 20
95.277914
 30
0.0
 10
7.903133
 20
95.136774
 30
0.0
 10
8.132046
 20
94.660427
 30
0.0
 10
8.352481
 20
94.201723
 30
0.0
 10
8.513568
 20
93.866516
 30
0.0
 11
7.826829
 21
95.295556
 31
0.0
 11
7.852264
 21
95.242629
 31
0.0
 11
8.030307
 21
94.872137
 31
0.0
 11
8.513568
 21
93.866516
 31
0.0
  0
LINE
  5
10b
100
AcDbEntity
  8
0
 62
5
100
AcDbLine
 10
58.827755
 20
125.747010
 30
0.0
 11
59.610676
 21
124.390954
 31
0.0
  0
LINE
  5
10c
100
AcDbEntity
  8
0
 62
5
100
AcDbLine
 10
59.610676
 20
124.390954
 30
0.0
 11
59.172788
 21
124.138140
 31
0.0
  0
LINE
  5
10d
100
AcDbEntity
  8
0
 62
5
100
AcDbLine
 10
59.172788
 20
124.138140
 30
0.0
 11
58.719793
 21
124.923313
 31
0.0
  0
LINE
  5
10e
100
AcDbEntity
  8
0
 62
5
100
AcDbLine
 10
63.458197
 20
116.716748
 30
0.0
 11
67.415441
 21
109.862225
 31
0.0
  0
LINE
  5
10f
100
AcDbEntity
  8
0
 62
5
100
AcDbLine
 10
54.762513
 20
131.777819
 30
0.0
 11
58.719757
 21
124.923296
 31
0.0
  0
LINE
  5
110
100
AcDbEntity
  8
0
 62
1
100
AcDbLine
 10
62.043166
 20
119.166877
 30
0.0
 11
60.134229
 21
122.472879
 31
0.0
  0
LINE
  5
111
100
AcDbEntity
  8
0
 62
1
100
AcDbLine
 10
16.920154
 20
109.862216
 30
0.0
 11
29.514871
 21
88.047528
 31
0.0
  0
LINE
  5
112
100
AcDbEntity
  8
0
 62
1
100
AcDbLine
 10
42.109588
 20
109.862222
 30
0.0
 11
54.704305
 21
88.047531
 31
0.0
  0
LINE
  5
113
100
AcDbEntity
  8
0
 62
1
100
AcDbLine
 10
42.109585
 20
109.862219
 30
0.0
 11
29.514868
 21
88.047531
 31
0.0
  0
LINE
  5
114
100
AcDbEntity
  8
0
 62
5
100
AcDbLine
 10
21.600063
 20
88.047347
 30
0.0
 11
20.693587
 21
88.047630
 31
0.0
  0
LINE
  5
115
100
AcDbEntity
  8
0
 62
5
100
AcDbLine
 10
20.693587
 20
88.047630
 30
0.0
 11
20.693586
 21
87.542294
 31
0.0
  0
LINE
  5
116
100
AcDbEntity
  8
0
 62
5
100
AcDbLine
 10
20.693586
 20
87.542294
 30
0.0
 11
22.259437
 21
87.542294
 31
0.0
  0
SPLINE
  5
117
100
AcDbEntity
  8
0
 62
5
100
AcDbSpline
 70
0
 71
3
 72
16
 73
12
 74
10
 40
0.000000
 40
0.000000
 40
0.000000
 40
0.000000
 40
0.594052
 40
1.926274
 40
3.438882
 40
6.074693
 40
8.833683
 40
11.469466
 40
12.982642
 40
14.315441
 40
14.909673
 40
14.909673
 40
14.909673
 40
14.909673
 10
64.225272
 20
116.398238
 30
0.0
 10
64.373740
 20
116.529244
 30
0.0
 10
64.855164
 20
116.954047
 30
0.0
 10
65.603699
 20
117.837370
 30
0.0
 10
66.280864
 20
119.597706
 30
0.0
 10
65.753429
 20
121.971498
 30
0.0
 10
64.420204
 20
124.280986
 30
0.0
 10
62.627795
 20
125.924432
 30
0.0
 10
60.764610
 20
126.218748
 30
0.0
 10
59.624744
 20
126.013518
 30
0.0
 10
59.015596
 20
125.809822
 30
0.0
 10
58.827755
 20
125.747010
 30
0.0
 11
64.225272
 21
116.398238
 31
0.0
 11
64.664768
 21
116.797914
 31
0.0
 11
65.505721
 21
117.831168
 31
0.0
 11
66.031827
 21
119.249334
 31
0.0
 11
65.647368
 21
121.856955
 31
0.0
 11
64.267888
 21
124.246320
 31
0.0
 11
62.201854
 21
125.883041
 31
0.0
 11
60.710182
 21
126.137240
 31
0.0
 11
59.394069
 21
125.927010
 31
0.0
 11
58.827755
 21
125.747010
 31
0.0
  0
LINE
  5
118
100
AcDbEntity
  8
0
 62
5
100
AcDbLine
 10
11.464403
 20
87.542294
 30
0.0
 11
13.030240
 21
87.542294
 31
0.0
  0
LINE
  5
119
100
AcDbEntity
  8
0
 62
5
100
AcDbLine
 10
13.030240
 20
87.542294
 30
0.0
 11
13.030241
 21
88.047923
 31
0.0
  0
LINE
  5
11a
100
AcDbEntity
  8
0
 62
5
100
AcDbLine
 10
13.030241
 20
88.047923
 30
0.0
 11
12.123764
 21
88.047641
 31
0.0
  0
LINE
  5
11b
100
AcDbEntity
  8
0
 62
5
100
AcDbLine
 10
21.600060
 20
88.047345
 30
0.0
 11
29.514871
 21
88.047534
 31
0.0
  0
LINE
  5
11c
100
AcDbEntity
  8
0
 62
5
100
AcDbLine
 10
4.208948
 20
88.047491
 30
0.0
 11
12.123760
 21
88.047680
 31
0.0
  0
LINE
  5
11d
100
AcDbEntity
  8
0
 62
1
100
AcDbLine
 10
18.770669
 20
88.047731
 30
0.0
 11
14.953120
 21
88.047920
 31
0.0
  0
LINE
  5
11e
100
AcDbEntity
  8
0
 62
5
100
AcDbLine
 10
92.780101
 20
109.862219
 30
0.0
 11
87.790240
 21
114.812530
 31
0.0
  0
LINE
  5
11f
100
AcDbEntity
  8
0
 62
5
100
AcDbLine
 10
87.790240
 20
114.812530
 30
0.0
 11
72.464038
 21
114.812530
 31
0.0
  0
LINE
  5
120
100
AcDbEntity
  8
0
 62
5
100
AcDbLine
 10
72.464038
 20
114.812530
 30
0.0
 11
67.474177
 21
109.862219
 31
0.0
  0
LINE
  5
121
100
AcDbEntity
  8
0
 62
1
100
AcDbLine
 10
85.530157
 20
109.862030
 30
0.0
 11
92.780101
 21
109.862216
 31
0.0
  0
LINE
  5
122
100
AcDbEntity
  8
0
 62
1
100
AcDbLine
 10
67.474177
 20
109.862219
 30
0.0
 11
74.735120
 21
109.862030
 31
0.0
  0
SPLINE
  5
123
100
AcDbEntity
  8
0
 62
5
100
AcDbSpline
 70
0
 71
3
 72
16
 73
12
 74
10
 40
0.000000
 40
0.000000
 40
0.000000
 40
0.000000
 40
0.594052
 40
1.926273
 40
3.438881
 40
6.074691
 40
8.833682
 40
11.469465
 40
12.982641
 40
14.315438
 40
14.909669
 40
14.909669
 40
14.909669
 40
14.909669
 10
22.259437
 20
87.542294
 30
0.0
 10
22.220216
 20
87.348213
 30
0.0
 10
22.093037
 20
86.718887
 30
0.0
 10
21.702324
 20
85.628976
 30
0.0
 10
20.516409
 20
84.162368
 30
0.0
 10
18.196929
 20
83.432243
 30
0.0
 10
15.530240
 20
83.432104
 30
0.0
 10
13.210771
 20
84.162654
 30
0.0
 10
12.024294
 20
85.629061
 30
0.0
 10
11.632094
 20
86.718827
 30
0.0
 10
11.503926
 20
87.348212
 30
0.0
 10
11.464403
 20
87.542294
 30
0.0
 11
22.259437
 21
87.542294
 31
0.0
 11
22.133054
 21
86.961841
 31
0.0
 11
21.658706
 21
85.716929
 31
0.0
 11
20.693591
 21
84.552226
 31
0.0
 11
18.243095
 21
83.581365
 31
0.0
 11
15.484104
 21
83.581347
 31
0.0
 11
13.033646
 21
84.552226
 31
0.0
 11
12.067667
 21
85.716950
 31
0.0
 11
11.591674
 21
86.961852
 31
0.0
 11
11.464403
 21
87.542294
 31
0.0
  0
LINE
  5
124
100
AcDbEntity
  8
0
 62
5
100
AcDbLine
 10
75.621746
 20
110.453938
 30
0.0
 11
84.635938
 21
110.453938
 31
0.0
  0
SPLINE
  5
125
100
AcDbEntity
  8
0
 62
5
100
AcDbSpline
 70
0
 71
3
 72
10
 73
6
 74
4
 40
0.000000
 40
0.000000
 40
0.000000
 40
0.000000
 40
1.112710
 40
1.522655
 40
1.581219
 40
1.581219
 40
1.581219
 40
1.581219
 10
74.735120
 20
109.144683
 30
0.0
 10
74.943094
 20
109.451792
 30
0.0
 10
75.227690
 20
109.872047
 30
0.0
 10
75.523232
 20
110.308465
 30
0.0
 10
75.610800
 20
110.437774
 30
0.0
 10
75.621746
 20
110.453938
 30
0.0
 11
74.735120
 21
109.144683
 31
0.0
 11
75.359042
 21
110.066010
 31
0.0
 11
75.588908
 21
110.405447
 31
0.0
 11
75.621746
 21
110.453938
 31
0.0
  0
LINE
  5
126
100
AcDbEntity
  8
0
 62
5
100
AcDbLine
 10
80.010229
 20
88.047536
 30
0.0
 11
75.020368
 21
83.097226
 31
0.0
  0
LINE
  5
127
100
AcDbEntity
  8
0
 62
5
100
AcDbLine
 10
75.020368
 20
83.097226
 30
0.0
 11
59.694166
 21
83.097226
 31
0.0
  0
LINE
  5
128
100
AcDbEntity
  8
0
 62
5
100
AcDbLine
 10
59.694166
 20
83.097226
 30
0.0
 11
54.704305
 21
88.047536
 31
0.0
  0
LINE
  5
129
100
AcDbEntity
  8
0
 62
1
100
AcDbLine
 10
72.760284
 20
88.047726
 30
0.0
 11
80.010229
 21
88.047539
 31
0.0
  0
LINE
  5
12a
100
AcDbEntity
  8
0
 62
1
100
AcDbLine
 10
54.704305
 20
88.047536
 30
0.0
 11
61.965247
 21
88.047726
 31
0.0
  0
SPLINE
  5
12b
100
AcDbEntity
  8
0
 62
5
100
AcDbSpline
 70
0
 71
3
 72
10
 73
6
 74
4
 40
0.000000
 40
0.000000
 40
0.000000
 40
0.000000
 40
0.058722
 40
0.469774
 40
1.585488
 40
1.585488
 40
1.585488
 40
1.585488
 10
84.635938
 20
110.453938
 30
0.0
 10
84.646978
 20
110.437774
 30
0.0
 10
84.735296
 20
110.308465
 30
0.0
 10
85.033369
 20
109.872047
 30
0.0
 10
85.320402
 20
109.451792
 30
0.0
 10
85.530157
 20
109.144683
 30
0.0
 11
84.635938
 21
110.453938
 31
0.0
 11
84.669058
 21
110.405447
 31
0.0
 11
84.900892
 21
110.066010
 31
0.0
 11
85.530157
 21
109.144683
 31
0.0
  0
LINE
  5
12c
100
AcDbEntity
  8
0
 62
5
100
AcDbLine
 10
62.851874
 20
87.455818
 30
0.0
 11
71.866066
 21
87.455818
 31
0.0
  0
SPLINE
  5
12d
100
AcDbEntity
  8
0
 62
5
100
AcDbSpline
 70
0
 71
3
 72
10
 73
6
 74
4
 40
0.000000
 40
0.000000
 40
0.000000
 40
0.000000
 40
1.112710
 40
1.522655
 40
1.581219
 40
1.581219
 40
1.581219
 40
1.581219
 10
61.965247
 20
88.765072
 30
0.0
 10
62.173221
 20
88.457963
 30
0.0
 10
62.457818
 20
88.037709
 30
0.0
 10
62.753360
 20
87.601291
 30
0.0
 10
62.840928
 20
87.471982
 30
0.0
 10
62.851874
 20
87.455818
 30
0.0
 11
61.965247
 21
88.765072
 31
0.0
 11
62.589170
 21
87.843745
 31
0.0
 11
62.819036
 21
87.504309
 31
0.0
 11
62.851874
 21
87.455818
 31
0.0
  0
LINE
  5
12e
100
AcDbEntity
  8
0
 62
1
100
AcDbLine
 10
80.068894
 20
88.047531
 30
0.0
 11
67.474177
 21
109.862219
 31
0.0
  0
LINE
  5
12f
100
AcDbEntity
  8
0
 62
1
100
AcDbLine
 10
67.474177
 20
109.862219
 30
0.0
 11
42.109585
 21
109.862214
 31
0.0
  0
LINE
  5
130
100
AcDbEntity
  8
0
 62
1
100
AcDbLine
 10
67.474177
 20
109.862219
 30
0.0
 11
54.879460
 21
88.047531
 31
0.0
  0
LINE
  5
131
100
AcDbEntity
  8
0
 62
1
100
AcDbLine
 10
54.879463
 20
88.047534
 30
0.0
 11
29.514871
 21
88.047528
 31
0.0
  0
LINE
  5
132
100
AcDbEntity
  8
0
 62
5
100
AcDbLine
 10
88.705910
 20
103.108613
 30
0.0
 11
88.252427
 21
102.323722
 31
0.0
  0
LINE
  5
133
100
AcDbEntity
  8
0
 62
5
100
AcDbLine
 10
88.252427
 20
102.323722
 30
0.0
 11
88.690063
 21
102.071051
 31
0.0
  0
LINE
  5
134
100
AcDbEntity
  8
0
 62
5
100
AcDbLine
 10
88.690063
 20
102.071051
 30
0.0
 11
89.472987
 21
103.427118
 31
0.0
  0
SPLINE
  5
135
100
AcDbEntity
  8
0
 62
5
100
AcDbSpline
 70
0
 71
3
 72
10
 73
6
 74
4
 40
0.000000
 40
0.000000
 40
0.000000
 40
0.000000
 40
0.058722
 40
0.469774
 40
1.585488
 40
1.585488
 40
1.585488
 40
1.585488
 10
71.866066
 20
87.455818
 30
0.0
 10
71.877105
 20
87.471982
 30
0.0
 10
71.965423
 20
87.601291
 30
0.0
 10
72.263496
 20
88.037709
 30
0.0
 10
72.550529
 20
88.457963
 30
0.0
 10
72.760284
 20
88.765072
 30
0.0
 11
71.866066
 21
87.455818
 31
0.0
 11
71.899185
 21
87.504309
 31
0.0
 11
72.131019
 21
87.843745
 31
0.0
 11
72.760284
 21
88.765072
 31
0.0
  0
LINE
  5
136
100
AcDbEntity
  8
0
 62
5
100
AcDbLine
 10
84.075470
 20
94.078346
 30
0.0
 11
84.858392
 21
95.434401
 31
0.0
  0
LINE
  5
137
100
AcDbEntity
  8
0
 62
5
100
AcDbLine
 10
84.858392
 20
95.434401
 30
0.0
 11
84.420504
 21
95.687216
 31
0.0
  0
LINE
  5
138
100
AcDbEntity
  8
0
 62
5
100
AcDbLine
 10
84.420504
 20
95.687216
 30
0.0
 11
83.967509
 21
94.902043
 31
0.0
  0
LINE
  5
139
100
AcDbEntity
  8
0
 62
5
100
AcDbLine
 10
88.705913
 20
103.108608
 30
0.0
 11
92.663157
 21
109.963131
 31
0.0
  0
LINE
  5
13a
100
AcDbEntity
  8
0
 62
5
100
AcDbLine
 10
80.010229
 20
88.047536
 30
0.0
 11
83.967472
 21
94.902060
 31
0.0
  0
LINE
  5
13b
100
AcDbEntity
  8
0
 62
1
100
AcDbLine
 10
87.290882
 20
100.658478
 30
0.0
 11
85.381945
 21
97.352477
 31
0.0
  0
LINE
  5
13c
100
AcDbEntity
  8
0
 62
5
100
AcDbLine
 10
50.805269
 20
81.293916
 30
0.0
 11
50.351786
 21
80.509025
 31
0.0
  0
LINE
  5
13d
100
AcDbEntity
  8
0
 62
5
100
AcDbLine
 10
50.351786
 20
80.509025
 30
0.0
 11
50.789422
 21
80.256355
 31
0.0
  0
LINE
  5
13e
100
AcDbEntity
  8
0
 62
5
100
AcDbLine
 10
50.789422
 20
80.256355
 30
0.0
 11
51.572346
 21
81.612421
 31
0.0
  0
SPLINE
  5
13f
100
AcDbEntity
  8
0
 62
5
100
AcDbSpline
 70
0
 71
3
 72
16
 73
12
 74
10
 40
0.000000
 40
0.000000
 40
0.000000
 40
0.000000
 40
0.594052
 40
1.926274
 40
3.438882
 40
6.074693
 40
8.833683
 40
11.469466
 40
12.982642
 40
14.315441
 40
14.909673
 40
14.909673
 40
14.909673
 40
14.909673
 10
89.472987
 20
103.427118
 30
0.0
 10
89.621456
 20
103.296111
 30
0.0
 10
90.102880
 20
102.871308
 30
0.0
 10
90.851415
 20
101.987986
 30
0.0
 10
91.528579
 20
100.227649
 30
0.0
 10
91.001144
 20
97.853858
 30
0.0
 10
89.667920
 20
95.544370
 30
0.0
 10
87.875511
 20
93.900923
 30
0.0
 10
86.012326
 20
93.606608
 30
0.0
 10
84.872460
 20
93.811837
 30
0.0
 10
84.263311
 20
94.015533
 30
0.0
 10
84.075470
 20
94.078346
 30
0.0
 11
89.472987
 21
103.427118
 31
0.0
 11
89.912483
 21
103.027441
 31
0.0
 11
90.753436
 21
101.994188
 31
0.0
 11
91.279543
 21
100.576022
 31
0.0
 11
90.895084
 21
97.968400
 31
0.0
 11
89.515604
 21
95.579035
 31
0.0
 11
87.449570
 21
93.942315
 31
0.0
 11
85.957898
 21
93.688115
 31
0.0
 11
84.641784
 21
93.898345
 31
0.0
 11
84.075470
 21
94.078346
 31
0.0
  0
LINE
  5
140
100
AcDbEntity
  8
0
 62
5
100
AcDbLine
 10
46.174829
 20
72.263649
 30
0.0
 11
46.957750
 21
73.619704
 31
0.0
  0
LINE
  5
141
100
AcDbEntity
  8
0
 62
5
100
AcDbLine
 10
46.957750
 20
73.619704
 30
0.0
 11
46.519863
 21
73.872519
 31
0.0
  0
LINE
  5
142
100
AcDbEntity
  8
0
 62
5
100
AcDbLine
 10
46.519863
 20
73.872519
 30
0.0
 11
46.066868
 21
73.087346
 31
0.0
  0
LINE
  5
143
100
AcDbEntity
  8
0
 62
5
100
AcDbLine
 10
50.805272
 20
81.293911
 30
0.0
 11
54.762516
 21
88.148434
 31
0.0
  0
LINE
  5
144
100
AcDbEntity
  8
0
 62
5
100
AcDbLine
 10
42.109588
 20
66.232840
 30
0.0
 11
46.066831
 21
73.087363
 31
0.0
  0
LINE
  5
145
100
AcDbEntity
  8
0
 62
1
100
AcDbLine
 10
49.390241
 20
78.843782
 30
0.0
 11
47.481304
 21
75.537780
 31
0.0
  0
LINE
  5
146
100
AcDbEntity
  8
0
 62
5
100
AcDbLine
 10
29.456628
 20
88.148414
 30
0.0
 11
27.664463
 21
81.351913
 31
0.0
  0
LINE
  5
147
100
AcDbEntity
  8
0
 62
5
100
AcDbLine
 10
27.664463
 20
81.351913
 30
0.0
 11
35.327565
 21
68.079030
 31
0.0
  0
LINE
  5
148
100
AcDbEntity
  8
0
 62
5
100
AcDbLine
 10
35.327565
 20
68.079030
 30
0.0
 11
42.109588
 21
66.232840
 31
0.0
  0
LINE
  5
149
100
AcDbEntity
  8
0
 62
1
100
AcDbLine
 10
33.081764
 20
81.869870
 30
0.0
 11
29.456628
 21
88.148414
 31
0.0
  0
LINE
  5
14a
100
AcDbEntity
  8
0
 62
1
100
AcDbLine
 10
42.109588
 20
66.232840
 30
0.0
 11
38.479281
 21
72.521095
 31
0.0
  0
SPLINE
  5
14b
100
AcDbEntity
  8
0
 62
5
100
AcDbSpline
 70
0
 71
3
 72
16
 73
12
 74
10
 40
0.000000
 40
0.000000
 40
0.000000
 40
0.000000
 40
0.594052
 40
1.926274
 40
3.438882
 40
6.074693
 40
8.833683
 40
11.469466
 40
12.982642
 40
14.315441
 40
14.909673
 40
14.909673
 40
14.909673
 40
14.909673
 10
51.572346
 20
81.612421
 30
0.0
 10
51.720815
 20
81.481414
 30
0.0
 10
52.202239
 20
81.056612
 30
0.0
 10
52.950774
 20
80.173289
 30
0.0
 10
53.627938
 20
78.412953
 30
0.0
 10
53.100503
 20
76.039161
 30
0.0
 10
51.767279
 20
73.729673
 30
0.0
 10
49.974870
 20
72.086226
 30
0.0
 10
48.111685
 20
71.791911
 30
0.0
 10
46.971819
 20
71.997141
 30
0.0
 10
46.362670
 20
72.200836
 30
0.0
 10
46.174829
 20
72.263649
 30
0.0
 11
51.572346
 21
81.612421
 31
0.0
 11
52.011842
 21
81.212744
 31
0.0
 11
52.852795
 21
80.179491
 31
0.0
 11
53.378902
 21
78.761325
 31
0.0
 11
52.994443
 21
76.153703
 31
0.0
 11
51.614963
 21
73.764338
 31
0.0
 11
49.548929
 21
72.127618
 31
0.0
 11
48.057257
 21
71.873418
 31
0.0
 11
46.741143
 21
72.083648
 31
0.0
 11
46.174829
 21
72.263649
 31
0.0
  0
LINE
  5
14c
100
AcDbEntity
  8
0
 62
5
100
AcDbLine
 10
37.523364
 20
72.992982
 30
0.0
 11
33.016266
 21
80.799503
 31
0.0
  0
SPLINE
  5
14d
100
AcDbEntity
  8
0
 62
5
100
AcDbSpline
 70
0
 71
3
 72
10
 73
6
 74
4
 40
0.000000
 40
0.000000
 40
0.000000
 40
0.000000
 40
1.112709
 40
1.522654
 40
1.581217
 40
1.581217
 40
1.581217
 40
1.581217
 10
39.100523
 20
72.879771
 30
0.0
 10
38.730572
 20
72.906327
 30
0.0
 10
38.224323
 20
72.942666
 30
0.0
 10
37.698603
 20
72.980403
 30
0.0
 10
37.542835
 20
72.991584
 30
0.0
 10
37.523364
 20
72.992982
 30
0.0
 11
39.100523
 21
72.879771
 31
0.0
 11
37.990670
 21
72.959438
 31
0.0
 11
37.581777
 21
72.988789
 31
0.0
 11
37.523364
 21
72.992982
 31
0.0
  0
LINE
  5
14e
100
AcDbEntity
  8
0
 62
5
100
AcDbLine
 10
46.066831
 20
116.716737
 30
0.0
 11
46.520314
 21
117.501628
 31
0.0
  0
LINE
  5
14f
100
AcDbEntity
  8
0
 62
5
100
AcDbLine
 10
46.520314
 20
117.501628
 30
0.0
 11
46.082678
 21
117.754298
 31
0.0
  0
LINE
  5
150
100
AcDbEntity
  8
0
 62
5
100
AcDbLine
 10
46.082678
 20
117.754298
 30
0.0
 11
45.299754
 21
116.398232
 31
0.0
  0
SPLINE
  5
151
100
AcDbEntity
  8
0
 62
5
100
AcDbSpline
 70
0
 71
3
 72
10
 73
6
 74
4
 40
0.000000
 40
0.000000
 40
0.000000
 40
0.000000
 40
0.058722
 40
0.469774
 40
1.585487
 40
1.585487
 40
1.585487
 40
1.585487
 10
33.016266
 20
80.799503
 30
0.0
 10
33.024744
 20
80.817145
 30
0.0
 10
33.092571
 20
80.958285
 30
0.0
 10
33.321484
 20
81.434632
 30
0.0
 10
33.541919
 20
81.893336
 30
0.0
 10
33.703006
 20
82.228543
 30
0.0
 11
33.016266
 21
80.799503
 31
0.0
 11
33.041701
 21
80.852430
 31
0.0
 11
33.219745
 21
81.222922
 31
0.0
 11
33.703006
 21
82.228543
 31
0.0
  0
LINE
  5
152
100
AcDbEntity
  8
0
 62
5
100
AcDbLine
 10
50.697271
 20
125.747004
 30
0.0
 11
49.914350
 21
124.390949
 31
0.0
  0
LINE
  5
153
100
AcDbEntity
  8
0
 62
5
100
AcDbLine
 10
49.914350
 20
124.390949
 30
0.0
 11
50.352238
 21
124.138134
 31
0.0
  0
LINE
  5
154
100
AcDbEntity
  8
0
 62
5
100
AcDbLine
 10
50.352238
 20
124.138134
 30
0.0
 11
50.805232
 21
124.923307
 31
0.0
  0
LINE
  5
155
100
AcDbEntity
  8
0
 62
5
100
AcDbLine
 10
46.066829
 20
116.716742
 30
0.0
 11
42.109585
 21
109.862219
 31
0.0
  0
LINE
  5
156
100
AcDbEntity
  8
0
 62
5
100
AcDbLine
 10
54.762513
 20
131.777813
 30
0.0
 11
50.805269
 21
124.923290
 31
0.0
  0
LINE
  5
157
100
AcDbEntity
  8
0
 62
1
100
AcDbLine
 10
47.481860
 20
119.166871
 30
0.0
 11
49.390797
 21
122.472873
 31
0.0
  0
LINE
  5
158
100
AcDbEntity
  8
0
 62
5
100
AcDbLine
 10
42.109588
 20
109.862225
 30
0.0
 11
37.119727
 21
114.812535
 31
0.0
  0
LINE
  5
159
100
AcDbEntity
  8
0
 62
5
100
AcDbLine
 10
37.119727
 20
114.812535
 30
0.0
 11
21.793525
 21
114.812535
 31
0.0
  0
LINE
  5
15a
100
AcDbEntity
  8
0
 62
5
100
AcDbLine
 10
21.793525
 20
114.812535
 30
0.0
 11
16.803664
 21
109.862225
 31
0.0
  0
LINE
  5
15b
100
AcDbEntity
  8
0
 62
1
100
AcDbLine
 10
34.859643
 20
109.862036
 30
0.0
 11
42.109588
 21
109.862222
 31
0.0
  0
LINE
  5
15c
100
AcDbEntity
  8
0
 62
1
100
AcDbLine
 10
16.803664
 20
109.862225
 30
0.0
 11
24.064607
 21
109.862036
 31
0.0
  0
SPLINE
  5
15d
100
AcDbEntity
  8
0
 62
5
100
AcDbSpline
 70
0
 71
3
 72
16
 73
12
 74
10
 40
0.000000
 40
0.000000
 40
0.000000
 40
0.000000
 40
0.594052
 40
1.926274
 40
3.438882
 40
6.074693
 40
8.833683
 40
11.469466
 40
12.982642
 40
14.315441
 40
14.909673
 40
14.909673
 40
14.909673
 40
14.909673
 10
45.299754
 20
116.398232
 30
0.0
 10
45.151286
 20
116.529239
 30
0.0
 10
44.669862
 20
116.954041
 30
0.0
 10
43.921327
 20
117.837364
 30
0.0
 10
43.244162
 20
119.597700
 30
0.0
 10
43.771597
 20
121.971492
 30
0.0
 10
45.104822
 20
124.280980
 30
0.0
 10
46.897230
 20
125.924427
 30
0.0
 10
48.760415
 20
126.218742
 30
0.0
 10
49.900282
 20
126.013512
 30
0.0
 10
50.509430
 20
125.809817
 30
0.0
 10
50.697271
 20
125.747004
 30
0.0
 11
45.299754
 21
116.398232
 31
0.0
 11
44.860258
 21
116.797909
 31
0.0
 11
44.019305
 21
117.831162
 31
0.0
 11
43.493199
 21
119.249328
 31
0.0
 11
43.877657
 21
121.856950
 31
0.0
 11
45.257137
 21
124.246315
 31
0.0
 11
47.323172
 21
125.883035
 31
0.0
 11
48.814843
 21
126.137235
 31
0.0
 11
50.130957
 21
125.927005
 31
0.0
 11
50.697271
 21
125.747004
 31
0.0
  0
LINE
  5
15e
100
AcDbEntity
  8
0
 62
5
100
AcDbLine
 10
24.951231
 20
110.453943
 30
0.0
 11
33.965425
 21
110.453943
 31
0.0
  0
SPLINE
  5
15f
100
AcDbEntity
  8
0
 62
5
100
AcDbSpline
 70
0
 71
3
 72
10
 73
6
 74
4
 40
0.000000
 40
0.000000
 40
0.000000
 40
0.000000
 40
1.112709
 40
1.522654
 40
1.581218
 40
1.581218
 40
1.581218
 40
1.581218
 10
24.064607
 20
109.144689
 30
0.0
 10
24.272581
 20
109.451798
 30
0.0
 10
24.557176
 20
109.872052
 30
0.0
 10
24.852718
 20
110.308471
 30
0.0
 10
24.940285
 20
110.437780
 30
0.0
 10
24.951231
 20
110.453943
 30
0.0
 11
24.064607
 21
109.144689
 31
0.0
 11
24.688528
 21
110.066016
 31
0.0
 11
24.918393
 21
110.405452
 31
0.0
 11
24.951231
 21
110.453943
 31
0.0
  0
LINE
  5
160
100
AcDbEntity
  8
0
 62
5
100
AcDbLine
 10
94.557836
 20
87.615909
 30
0.0
 11
92.765671
 21
94.412410
 31
0.0
  0
LINE
  5
161
100
AcDbEntity
  8
0
 62
5
100
AcDbLine
 10
92.765671
 20
94.412410
 30
0.0
 11
100.428772
 21
107.685292
 31
0.0
  0
LINE
  5
162
100
AcDbEntity
  8
0
 62
5
100
AcDbLine
 10
100.428772
 20
107.685292
 30
0.0
 11
107.210795
 21
109.531483
 31
0.0
  0
LINE
  5
163
100
AcDbEntity
  8
0
 62
1
100
AcDbLine
 10
98.182972
 20
93.894453
 30
0.0
 11
94.557836
 21
87.615909
 31
0.0
  0
LINE
  5
164
100
AcDbEntity
  8
0
 62
1
100
AcDbLine
 10
107.210795
 20
109.531483
 30
0.0
 11
103.580489
 21
103.243228
 31
0.0
  0
SPLINE
  5
165
100
AcDbEntity
  8
0
 62
5
100
AcDbSpline
 70
0
 71
3
 72
10
 73
6
 74
4
 40
0.000000
 40
0.000000
 40
0.000000
 40
0.000000
 40
0.058722
 40
0.469774
 40
1.585488
 40
1.585488
 40
1.585488
 40
1.585488
 10
33.965425
 20
110.453943
 30
0.0
 10
33.976464
 20
110.437780
 30
0.0
 10
34.064782
 20
110.308471
 30
0.0
 10
34.362855
 20
109.872052
 30
0.0
 10
34.649888
 20
109.451798
 30
0.0
 10
34.859643
 20
109.144689
 30
0.0
 11
33.965425
 21
110.453943
 31
0.0
 11
33.998544
 21
110.405452
 31
0.0
 11
34.230378
 21
110.066016
 31
0.0
 11
34.859643
 21
109.144689
 31
0.0
  0
LINE
  5
166
100
AcDbEntity
  8
0
 62
5
100
AcDbLine
 10
102.624571
 20
102.771341
 30
0.0
 11
98.117474
 21
94.964820
 31
0.0
  0
SPLINE
  5
167
100
AcDbEntity
  8
0
 62
5
100
AcDbSpline
 70
0
 71
3
 72
10
 73
6
 74
4
 40
0.000000
 40
0.000000
 40
0.000000
 40
0.000000
 40
1.112709
 40
1.522654
 40
1.581217
 40
1.581217
 40
1.581217
 40
1.581217
 10
104.201730
 20
102.884551
 30
0.0
 10
103.831780
 20
102.857996
 30
0.0
 10
103.325531
 20
102.821657
 30
0.0
 10
102.799811
 20
102.783920
 30
0.0
 10
102.644042
 20
102.772738
 30
0.0
 10
102.624571
 20
102.771341
 30
0.0
 11
104.201730
 21
102.884551
 31
0.0
 11
103.091878
 21
102.804885
 31
0.0
 11
102.682984
 21
102.775534
 31
0.0
 11
102.624571
 21
102.771341
 31
0.0
  0
LINE
  5
168
100
AcDbEntity
  8
0
 62
5
100
AcDbLine
 10
153.748839
 20
116.386006
 30
0.0
 11
153.295356
 21
117.170897
 31
0.0
  0
LINE
  5
169
100
AcDbEntity
  8
0
 62
5
100
AcDbLine
 10
153.295356
 20
117.170897
 30
0.0
 11
153.732992
 21
117.423568
 31
0.0
  0
LINE
  5
16a
100
AcDbEntity
  8
0
 62
5
100
AcDbLine
 10
153.732992
 20
117.423568
 30
0.0
 11
154.515916
 21
116.067501
 31
0.0
  0
SPLINE
  5
16b
100
AcDbEntity
  8
0
 62
5
100
AcDbSpline
 70
0
 71
3
 72
10
 73
6
 74
4
 40
0.000000
 40
0.000000
 40
0.000000
 40
0.000000
 40
0.058722
 40
0.469774
 40
1.585487
 40
1.585487
 40
1.585487
 40
1.585487
 10
98.117474
 20
94.964820
 30
0.0
 10
98.125952
 20
94.947178
 30
0.0
 10
98.193778
 20
94.806038
 30
0.0
 10
98.422691
 20
94.329691
 30
0.0
 10
98.643126
 20
93.870986
 30
0.0
 10
98.804214
 20
93.535779
 30
0.0
 11
98.117474
 21
94.964820
 31
0.0
 11
98.142909
 21
94.911893
 31
0.0
 11
98.320952
 21
94.541401
 31
0.0
 11
98.804214
 21
93.535779
 31
0.0
  0
LINE
  5
16c
100
AcDbEntity
  8
0
 62
5
100
AcDbLine
 10
149.118399
 20
125.416273
 30
0.0
 11
149.901320
 21
124.060218
 31
0.0
  0
LINE
  5
16d
100
AcDbEntity
  8
0
 62
5
100
AcDbLine
 10
149.901320
 20
124.060218
 30
0.0
 11
149.463433
 21
123.807403
 31
0.0
  0
LINE
  5
16e
100
AcDbEntity
  8
0
 62
5
100
AcDbLine
 10
149.463433
 20
123.807403
 30
0.0
 11
149.010438
 21
124.592577
 31
0.0
  0
LINE
  5
16f
100
AcDbEntity
  8
0
 62
5
100
AcDbLine
 10
153.748842
 20
116.386012
 30
0.0
 11
157.706085
 21
109.531489
 31
0.0
  0
LINE
  5
170
100
AcDbEntity
  8
0
 62
5
100
AcDbLine
 10
145.053157
 20
131.447083
 30
0.0
 11
149.010401
 21
124.592560
 31
0.0
  0
LINE
  5
171
100
AcDbEntity
  8
0
 62
1
100
AcDbLine
 10
152.333810
 20
118.836141
 30
0.0
 11
150.424873
 21
122.142143
 31
0.0
  0
LINE
  5
172
100
AcDbEntity
  8
0
 62
1
100
AcDbLine
 10
107.210798
 20
109.531480
 30
0.0
 11
119.805515
 21
87.716792
 31
0.0
  0
LINE
  5
173
100
AcDbEntity
  8
0
 62
1
100
AcDbLine
 10
132.400232
 20
109.531486
 30
0.0
 11
144.994949
 21
87.716795
 31
0.0
  0
LINE
  5
174
100
AcDbEntity
  8
0
 62
1
100
AcDbLine
 10
132.400229
 20
109.531483
 30
0.0
 11
119.805512
 21
87.716795
 31
0.0
  0
LINE
  5
175
100
AcDbEntity
  8
0
 62
5
100
AcDbLine
 10
111.890708
 20
87.716611
 30
0.0
 11
110.984230
 21
87.716893
 31
0.0
  0
LINE
  5
176
100
AcDbEntity
  8
0
 62
5
100
AcDbLine
 10
110.984230
 20
87.716893
 30
0.0
 11
110.984230
 21
87.211558
 31
0.0
  0
LINE
  5
177
100
AcDbEntity
  8
0
 62
5
100
AcDbLine
 10
110.984230
 20
87.211558
 30
0.0
 11
112.550081
 21
87.211558
 31
0.0
  0
SPLINE
  5
178
100
AcDbEntity
  8
0
 62
5
100
AcDbSpline
 70
0
 71
3
 72
16
 73
12
 74
10
 40
0.000000
 40
0.000000
 40
0.000000
 40
0.000000
 40
0.594052
 40
1.926274
 40
3.438882
 40
6.074693
 40
8.833683
 40
11.469466
 40
12.982642
 40
14.315441
 40
14.909673
 40
14.909673
 40
14.909673
 40
14.909673
 10
154.515916
 20
116.067501
 30
0.0
 10
154.664385
 20
116.198508
 30
0.0
 10
155.145809
 20
116.623311
 30
0.0
 10
155.894343
 20
117.506633
 30
0.0
 10
156.571508
 20
119.266970
 30
0.0
 10
156.044073
 20
121.640761
 30
0.0
 10
154.710848
 20
123.950250
 30
0.0
 10
152.918440
 20
125.593696
 30
0.0
 10
151.055255
 20
125.888011
 30
0.0
 10
149.915389
 20
125.682782
 30
0.0
 10
149.306240
 20
125.479086
 30
0.0
 10
149.118399
 20
125.416273
 30
0.0
 11
154.515916
 21
116.067501
 31
0.0
 11
154.955412
 21
116.467178
 31
0.0
 11
155.796365
 21
117.500432
 31
0.0
 11
156.322471
 21
118.918598
 31
0.0
 11
155.938013
 21
121.526219
 31
0.0
 11
154.558533
 21
123.915584
 31
0.0
 11
152.492498
 21
125.552304
 31
0.0
 11
151.000827
 21
125.806504
 31
0.0
 11
149.684713
 21
125.596274
 31
0.0
 11
149.118399
 21
125.416273
 31
0.0
  0
LINE
  5
179
100
AcDbEntity
  8
0
 62
5
100
AcDbLine
 10
101.755047
 20
87.211558
 30
0.0
 11
103.320884
 21
87.211558
 31
0.0
  0
LINE
  5
17a
100
AcDbEntity
  8
0
 62
5
100
AcDbLine
 10
103.320884
 20
87.211558
 30
0.0
 11
103.320884
 21
87.717187
 31
0.0
  0
LINE
  5
17b
100
AcDbEntity
  8
0
 62
5
100
AcDbLine
 10
103.320884
 20
87.717187
 30
0.0
 11
102.414409
 21
87.716905
 31
0.0
  0
LINE
  5
17c
100
AcDbEntity
  8
0
 62
5
100
AcDbLine
 10
111.890703
 20
87.716608
 30
0.0
 11
119.805515
 21
87.716797
 31
0.0
  0
LINE
  5
17d
100
AcDbEntity
  8
0
 62
5
100
AcDbLine
 10
94.499594
 20
87.716755
 30
0.0
 11
102.414406
 21
87.716944
 31
0.0
  0
LINE
  5
17e
100
AcDbEntity
  8
0
 62
1
100
AcDbLine
 10
109.061315
 20
87.716995
 30
0.0
 11
105.243765
 21
87.717184
 31
0.0
  0
LINE
  5
17f
100
AcDbEntity
  8
0
 62
5
100
AcDbLine
 10
183.070746
 20
109.531483
 30
0.0
 11
178.080884
 21
114.481793
 31
0.0
  0
LINE
  5
180
100
AcDbEntity
  8
0
 62
5
100
AcDbLine
 10
178.080884
 20
114.481793
 30
0.0
 11
162.754683
 21
114.481793
 31
0.0
  0
LINE
  5
181
100
AcDbEntity
  8
0
 62
5
100
AcDbLine
 10
162.754683
 20
114.481793
 30
0.0
 11
157.764821
 21
109.531483
 31
0.0
  0
LINE
  5
182
100
AcDbEntity
  8
0
 62
1
100
AcDbLine
 10
175.820801
 20
109.531294
 30
0.0
 11
183.070746
 21
109.531480
 31
0.0
  0
LINE
  5
183
100
AcDbEntity
  8
0
 62
1
100
AcDbLine
 10
157.764821
 20
109.531483
 30
0.0
 11
165.025764
 21
109.531294
 31
0.0
  0
SPLINE
  5
184
100
AcDbEntity
  8
0
 62
5
100
AcDbSpline
 70
0
 71
3
 72
16
 73
12
 74
10
 40
0.000000
 40
0.000000
 40
0.000000
 40
0.000000
 40
0.594052
 40
1.926273
 40
3.438880
 40
6.074691
 40
8.833683
 40
11.469466
 40
12.982641
 40
14.315438
 40
14.909670
 40
14.909670
 40
14.909670
 40
14.909670
 10
112.550081
 20
87.211558
 30
0.0
 10
112.510860
 20
87.017477
 30
0.0
 10
112.383682
 20
86.388151
 30
0.0
 10
111.992969
 20
85.298240
 30
0.0
 10
110.807054
 20
83.831631
 30
0.0
 10
108.487574
 20
83.101506
 30
0.0
 10
105.820885
 20
83.101368
 30
0.0
 10
103.501415
 20
83.831918
 30
0.0
 10
102.314938
 20
85.298324
 30
0.0
 10
101.922739
 20
86.388091
 30
0.0
 10
101.794570
 20
87.017476
 30
0.0
 10
101.755047
 20
87.211558
 30
0.0
 11
112.550081
 21
87.211558
 31
0.0
 11
112.423699
 21
86.631105
 31
0.0
 11
111.949351
 21
85.386193
 31
0.0
 11
110.984236
 21
84.221489
 31
0.0
 11
108.533740
 21
83.250629
 31
0.0
 11
105.774749
 21
83.250610
 31
0.0
 11
103.324290
 21
84.221489
 31
0.0
 11
102.358311
 21
85.386214
 31
0.0
 11
101.882319
 21
86.631116
 31
0.0
 11
101.755047
 21
87.211558
 31
0.0
  0
LINE
  5
185
100
AcDbEntity
  8
0
 62
5
100
AcDbLine
 10
165.912391
 20
110.123201
 30
0.0
 11
174.926583
 21
110.123201
 31
0.0
  0
SPLINE
  5
186
100
AcDbEntity
  8
0
 62
5
100
AcDbSpline
 70
0
 71
3
 72
10
 73
6
 74
4
 40
0.000000
 40
0.000000
 40
0.000000
 40
0.000000
 40
1.112710
 40
1.522655
 40
1.581219
 40
1.581219
 40
1.581219
 40
1.581219
 10
165.025764
 20
108.813947
 30
0.0
 10
165.233738
 20
109.121056
 30
0.0
 10
165.518335
 20
109.541311
 30
0.0
 10
165.813877
 20
109.977729
 30
0.0
 10
165.901445
 20
110.107038
 30
0.0
 10
165.912391
 20
110.123201
 30
0.0
 11
165.025764
 21
108.813947
 31
0.0
 11
165.649687
 21
109.735274
 31
0.0
 11
165.879553
 21
110.074711
 31
0.0
 11
165.912391
 21
110.123201
 31
0.0
  0
LINE
  5
187
100
AcDbEntity
  8
0
 62
5
100
AcDbLine
 10
170.300873
 20
87.716800
 30
0.0
 11
165.311012
 21
82.766490
 31
0.0
  0
LINE
  5
188
100
AcDbEntity
  8
0
 62
5
100
AcDbLine
 10
165.311012
 20
82.766490
 30
0.0
 11
149.984810
 21
82.766490
 31
0.0
  0
LINE
  5
189
100
AcDbEntity
  8
0
 62
5
100
AcDbLine
 10
149.984810
 20
82.766490
 30
0.0
 11
144.994949
 21
87.716800
 31
0.0
  0
LINE
  5
18a
100
AcDbEntity
  8
0
 62
1
100
AcDbLine
 10
163.050928
 20
87.716989
 30
0.0
 11
170.300873
 21
87.716803
 31
0.0
  0
LINE
  5
18b
100
AcDbEntity
  8
0
 62
1
100
AcDbLine
 10
144.994949
 20
87.716800
 30
0.0
 11
152.255892
 21
87.716989
 31
0.0
  0
SPLINE
  5
18c
100
AcDbEntity
  8
0
 62
5
100
AcDbSpline
 70
0
 71
3
 72
10
 73
6
 74
4
 40
0.000000
 40
0.000000
 40
0.000000
 40
0.000000
 40
0.058722
 40
0.469774
 40
1.585488
 40
1.585488
 40
1.585488
 40
1.585488
 10
174.926583
 20
110.123201
 30
0.0
 10
174.937622
 20
110.107038
 30
0.0
 10
175.025940
 20
109.977729
 30
0.0
 10
175.324013
 20
109.541311
 30
0.0
 10
175.611046
 20
109.121056
 30
0.0
 10
175.820801
 20
108.813947
 30
0.0
 11
174.926583
 21
110.123201
 31
0.0
 11
174.959702
 21
110.074711
 31
0.0
 11
175.191536
 21
109.735274
 31
0.0
 11
175.820801
 21
108.813947
 31
0.0
  0
LINE
  5
18d
100
AcDbEntity
  8
0
 62
5
100
AcDbLine
 10
153.142518
 20
87.125082
 30
0.0
 11
162.156710
 21
87.125082
 31
0.0
  0
SPLINE
  5
18e
100
AcDbEntity
  8
0
 62
5
100
AcDbSpline
 70
0
 71
3
 72
10
 73
6
 74
4
 40
0.000000
 40
0.000000
 40
0.000000
 40
0.000000
 40
1.112710
 40
1.522655
 40
1.581219
 40
1.581219
 40
1.581219
 40
1.581219
 10
152.255892
 20
88.434336
 30
0.0
 10
152.463866
 20
88.127227
 30
0.0
 10
152.748462
 20
87.706973
 30
0.0
 10
153.044004
 20
87.270555
 30
0.0
 10
153.131572
 20
87.141245
 30
0.0
 10
153.142518
 20
87.125082
 30
0.0
 11
152.255892
 21
88.434336
 31
0.0
 11
152.879814
 21
87.513009
 31
0.0
 11
153.109680
 21
87.173573
 31
0.0
 11
153.142518
 21
87.125082
 31
0.0
  0
LINE
  5
18f
100
AcDbEntity
  8
0
 62
1
100
AcDbLine
 10
170.359538
 20
87.716795
 30
0.0
 11
157.764821
 21
109.531483
 31
0.0
  0
LINE
  5
190
100
AcDbEntity
  8
0
 62
1
100
AcDbLine
 10
157.764821
 20
109.531483
 30
0.0
 11
132.400229
 21
109.531477
 31
0.0
  0
LINE
  5
191
100
AcDbEntity
  8
0
 62
1
100
AcDbLine
 10
157.764821
 20
109.531483
 30
0.0
 11
145.170104
 21
87.716795
 31
0.0
  0
LINE
  5
192
100
AcDbEntity
  8
0
 62
1
100
AcDbLine
 10
145.170107
 20
87.716797
 30
0.0
 11
119.805515
 21
87.716792
 31
0.0
  0
LINE
  5
193
100
AcDbEntity
  8
0
 62
5
100
AcDbLine
 10
178.996554
 20
102.777877
 30
0.0
 11
178.543071
 21
101.992986
 31
0.0
  0
LINE
  5
194
100
AcDbEntity
  8
0
 62
5
100
AcDbLine
 10
178.543071
 20
101.992986
 30
0.0
 11
178.980708
 21
101.740315
 31
0.0
  0
LINE
  5
195
100
AcDbEntity
  8
0
 62
5
100
AcDbLine
 10
178.980708
 20
101.740315
 30
0.0
 11
179.763632
 21
103.096382
 31
0.0
  0
SPLINE
  5
196
100
AcDbEntity
  8
0
 62
5
100
AcDbSpline
 70
0
 71
3
 72
10
 73
6
 74
4
 40
0.000000
 40
0.000000
 40
0.000000
 40
0.000000
 40
0.058722
 40
0.469774
 40
1.585488
 40
1.585488
 40
1.585488
 40
1.585488
 10
162.156710
 20
87.125082
 30
0.0
 10
162.167750
 20
87.141245
 30
0.0
 10
162.256068
 20
87.270555
 30
0.0
 10
162.554140
 20
87.706973
 30
0.0
 10
162.841173
 20
88.127227
 30
0.0
 10
163.050928
 20
88.434336
 30
0.0
 11
162.156710
 21
87.125082
 31
0.0
 11
162.189829
 21
87.173573
 31
0.0
 11
162.421664
 21
87.513009
 31
0.0
 11
163.050928
 21
88.434336
 31
0.0
  0
LINE
  5
197
100
AcDbEntity
  8
0
 62
5
100
AcDbLine
 10
174.366115
 20
93.747610
 30
0.0
 11
175.149036
 21
95.103665
 31
0.0
  0
LINE
  5
198
100
AcDbEntity
  8
0
 62
5
100
AcDbLine
 10
175.149036
 20
95.103665
 30
0.0
 11
174.711148
 21
95.356480
 31
0.0
  0
LINE
  5
199
100
AcDbEntity
  8
0
 62
5
100
AcDbLine
 10
174.711148
 20
95.356480
 30
0.0
 11
174.258153
 21
94.571306
 31
0.0
  0
LINE
  5
19a
100
AcDbEntity
  8
0
 62
5
100
AcDbLine
 10
178.996557
 20
102.777871
 30
0.0
 11
182.953801
 21
109.632394
 31
0.0
  0
LINE
  5
19b
100
AcDbEntity
  8
0
 62
5
100
AcDbLine
 10
170.300873
 20
87.716800
 30
0.0
 11
174.258117
 21
94.571323
 31
0.0
  0
LINE
  5
19c
100
AcDbEntity
  8
0
 62
1
100
AcDbLine
 10
177.581526
 20
100.327742
 30
0.0
 11
175.672589
 21
97.021740
 31
0.0
  0
LINE
  5
19d
100
AcDbEntity
  8
0
 62
5
100
AcDbLine
 10
141.095913
 20
80.963180
 30
0.0
 11
140.642430
 21
80.178289
 31
0.0
  0
LINE
  5
19e
100
AcDbEntity
  8
0
 62
5
100
AcDbLine
 10
140.642430
 20
80.178289
 30
0.0
 11
141.080067
 21
79.925618
 31
0.0
  0
LINE
  5
19f
100
AcDbEntity
  8
0
 62
5
100
AcDbLine
 10
141.080067
 20
79.925618
 30
0.0
 11
141.862991
 21
81.281685
 31
0.0
  0
SPLINE
  5
1a0
100
AcDbEntity
  8
0
 62
5
100
AcDbSpline
 70
0
 71
3
 72
16
 73
12
 74
10
 40
0.000000
 40
0.000000
 40
0.000000
 40
0.000000
 40
0.594052
 40
1.926274
 40
3.438882
 40
6.074693
 40
8.833683
 40
11.469466
 40
12.982642
 40
14.315441
 40
14.909673
 40
14.909673
 40
14.909673
 40
14.909673
 10
179.763632
 20
103.096382
 30
0.0
 10
179.912100
 20
102.965375
 30
0.0
 10
180.393524
 20
102.540572
 30
0.0
 10
181.142059
 20
101.657250
 30
0.0
 10
181.819224
 20
99.896913
 30
0.0
 10
181.291789
 20
97.523122
 30
0.0
 10
179.958564
 20
95.213633
 30
0.0
 10
178.166155
 20
93.570187
 30
0.0
 10
176.302970
 20
93.275872
 30
0.0
 10
175.163104
 20
93.481101
 30
0.0
 10
174.553956
 20
93.684797
 30
0.0
 10
174.366115
 20
93.747610
 30
0.0
 11
179.763632
 21
103.096382
 31
0.0
 11
180.203128
 21
102.696705
 31
0.0
 11
181.044081
 21
101.663451
 31
0.0
 11
181.570187
 21
100.245285
 31
0.0
 11
181.185728
 21
97.637664
 31
0.0
 11
179.806248
 21
95.248299
 31
0.0
 11
177.740214
 21
93.611579
 31
0.0
 11
176.248542
 21
93.357379
 31
0.0
 11
174.932429
 21
93.567609
 31
0.0
 11
174.366115
 21
93.747610
 31
0.0
  0
LINE
  5
1a1
100
AcDbEntity
  8
0
 62
5
100
AcDbLine
 10
136.465474
 20
71.932913
 30
0.0
 11
137.248395
 21
73.288968
 31
0.0
  0
LINE
  5
1a2
100
AcDbEntity
  8
0
 62
5
100
AcDbLine
 10
137.248395
 20
73.288968
 30
0.0
 11
136.810507
 21
73.541783
 31
0.0
  0
LINE
  5
1a3
100
AcDbEntity
  8
0
 62
5
100
AcDbLine
 10
136.810507
 20
73.541783
 30
0.0
 11
136.357512
 21
72.756609
 31
0.0
  0
LINE
  5
1a4
100
AcDbEntity
  8
0
 62
5
100
AcDbLine
 10
141.095916
 20
80.963175
 30
0.0
 11
145.053160
 21
87.817698
 31
0.0
  0
LINE
  5
1a5
100
AcDbEntity
  8
0
 62
5
100
AcDbLine
 10
132.400232
 20
65.902103
 30
0.0
 11
136.357476
 21
72.756626
 31
0.0
  0
LINE
  5
1a6
100
AcDbEntity
  8
0
 62
1
100
AcDbLine
 10
139.680885
 20
78.513045
 30
0.0
 11
137.771948
 21
75.207043
 31
0.0
  0
LINE
  5
1a7
100
AcDbEntity
  8
0
 62
5
100
AcDbLine
 10
119.747273
 20
87.817678
 30
0.0
 11
117.955108
 21
81.021177
 31
0.0
  0
LINE
  5
1a8
100
AcDbEntity
  8
0
 62
5
100
AcDbLine
 10
117.955108
 20
81.021177
 30
0.0
 11
125.618209
 21
67.748294
 31
0.0
  0
LINE
  5
1a9
100
AcDbEntity
  8
0
 62
5
100
AcDbLine
 10
125.618209
 20
67.748294
 30
0.0
 11
132.400232
 21
65.902103
 31
0.0
  0
LINE
  5
1aa
100
AcDbEntity
  8
0
 62
1
100
AcDbLine
 10
123.372409
 20
81.539134
 30
0.0
 11
119.747273
 21
87.817678
 31
0.0
  0
LINE
  5
1ab
100
AcDbEntity
  8
0
 62
1
100
AcDbLine
 10
132.400232
 20
65.902103
 30
0.0
 11
128.769926
 21
72.190359
 31
0.0
  0
SPLINE
  5
1ac
100
AcDbEntity
  8
0
 62
5
100
AcDbSpline
 70
0
 71
3
 72
16
 73
12
 74
10
 40
0.000000
 40
0.000000
 40
0.000000
 40
0.000000
 40
0.594052
 40
1.926274
 40
3.438882
 40
6.074693
 40
8.833683
 40
11.469466
 40
12.982642
 40
14.315441
 40
14.909673
 40
14.909673
 40
14.909673
 40
14.909673
 10
141.862991
 20
81.281685
 30
0.0
 10
142.011459
 20
81.150678
 30
0.0
 10
142.492883
 20
80.725875
 30
0.0
 10
143.241418
 20
79.842553
 30
0.0
 10
143.918583
 20
78.082216
 30
0.0
 10
143.391148
 20
75.708425
 30
0.0
 10
142.057923
 20
73.398936
 30
0.0
 10
140.265514
 20
71.755490
 30
0.0
 10
138.402329
 20
71.461175
 30
0.0
 10
137.262463
 20
71.666404
 30
0.0
 10
136.653315
 20
71.870100
 30
0.0
 10
136.465474
 20
71.932913
 30
0.0
 11
141.862991
 21
81.281685
 31
0.0
 11
142.302487
 21
80.882008
 31
0.0
 11
143.143440
 21
79.848754
 31
0.0
 11
143.669546
 21
78.430588
 31
0.0
 11
143.285087
 21
75.822967
 31
0.0
 11
141.905607
 21
73.433602
 31
0.0
 11
139.839573
 21
71.796882
 31
0.0
 11
138.347901
 21
71.542682
 31
0.0
 11
137.031788
 21
71.752912
 31
0.0
 11
136.465474
 21
71.932913
 31
0.0
  0
LINE
  5
1ad
100
AcDbEntity
  8
0
 62
5
100
AcDbLine
 10
127.814008
 20
72.662246
 30
0.0
 11
123.306911
 21
80.468766
 31
0.0
  0
SPLINE
  5
1ae
100
AcDbEntity
  8
0
 62
5
100
AcDbSpline
 70
0
 71
3
 72
10
 73
6
 74
4
 40
0.000000
 40
0.000000
 40
0.000000
 40
0.000000
 40
1.112709
 40
1.522654
 40
1.581217
 40
1.581217
 40
1.581217
 40
1.581217
 10
129.391167
 20
72.549035
 30
0.0
 10
129.021216
 20
72.575591
 30
0.0
 10
128.514968
 20
72.611930
 30
0.0
 10
127.989248
 20
72.649667
 30
0.0
 10
127.833479
 20
72.660848
 30
0.0
 10
127.814008
 20
72.662246
 30
0.0
 11
129.391167
 21
72.549035
 31
0.0
 11
128.281314
 21
72.628702
 31
0.0
 11
127.872421
 21
72.658053
 31
0.0
 11
127.814008
 21
72.662246
 31
0.0
  0
LINE
  5
1af
100
AcDbEntity
  8
0
 62
5
100
AcDbLine
 10
136.357476
 20
116.386000
 30
0.0
 11
136.810959
 21
117.170891
 31
0.0
  0
LINE
  5
1b0
100
AcDbEntity
  8
0
 62
5
100
AcDbLine
 10
136.810959
 20
117.170891
 30
0.0
 11
136.373322
 21
117.423562
 31
0.0
  0
LINE
  5
1b1
100
AcDbEntity
  8
0
 62
5
100
AcDbLine
 10
136.373322
 20
117.423562
 30
0.0
 11
135.590399
 21
116.067496
 31
0.0
  0
SPLINE
  5
1b2
100
AcDbEntity
  8
0
 62
5
100
AcDbSpline
 70
0
 71
3
 72
10
 73
6
 74
4
 40
0.000000
 40
0.000000
 40
0.000000
 40
0.000000
 40
0.058722
 40
0.469774
 40
1.585487
 40
1.585487
 40
1.585487
 40
1.585487
 10
123.306911
 20
80.468766
 30
0.0
 10
123.315389
 20
80.486409
 30
0.0
 10
123.383215
 20
80.627549
 30
0.0
 10
123.612128
 20
81.103896
 30
0.0
 10
123.832563
 20
81.562600
 30
0.0
 10
123.993650
 20
81.897807
 30
0.0
 11
123.306911
 21
80.468766
 31
0.0
 11
123.332345
 21
80.521694
 31
0.0
 11
123.510389
 21
80.892186
 31
0.0
 11
123.993650
 21
81.897807
 31
0.0
  0
LINE
  5
1b3
100
AcDbEntity
  8
0
 62
5
100
AcDbLine
 10
140.987915
 20
125.416268
 30
0.0
 11
140.204994
 21
124.060212
 31
0.0
  0
LINE
  5
1b4
100
AcDbEntity
  8
0
 62
5
100
AcDbLine
 10
140.204994
 20
124.060212
 30
0.0
 11
140.642882
 21
123.807398
 31
0.0
  0
LINE
  5
1b5
100
AcDbEntity
  8
0
 62
5
100
AcDbLine
 10
140.642882
 20
123.807398
 30
0.0
 11
141.095877
 21
124.592571
 31
0.0
  0
LINE
  5
1b6
100
AcDbEntity
  8
0
 62
5
100
AcDbLine
 10
136.357473
 20
116.386006
 30
0.0
 11
132.400229
 21
109.531483
 31
0.0
  0
LINE
  5
1b7
100
AcDbEntity
  8
0
 62
5
100
AcDbLine
 10
145.053157
 20
131.447077
 30
0.0
 11
141.095913
 21
124.592554
 31
0.0
  0
LINE
  5
1b8
100
AcDbEntity
  8
0
 62
1
100
AcDbLine
 10
137.772504
 20
118.836135
 30
0.0
 11
139.681441
 21
122.142137
 31
0.0
  0
LINE
  5
1b9
100
AcDbEntity
  8
0
 62
5
100
AcDbLine
 10
132.400232
 20
109.531489
 30
0.0
 11
127.410371
 21
114.481799
 31
0.0
  0
LINE
  5
1ba
100
AcDbEntity
  8
0
 62
5
100
AcDbLine
 10
127.410371
 20
114.481799
 30
0.0
 11
112.084169
 21
114.481799
 31
0.0
  0
LINE
  5
1bb
100
AcDbEntity
  8
0
 62
5
100
AcDbLine
 10
112.084169
 20
114.481799
 30
0.0
 11
107.094308
 21
109.531489
 31
0.0
  0
LINE
  5
1bc
100
AcDbEntity
  8
0
 62
1
100
AcDbLine
 10
125.150287
 20
109.531300
 30
0.0
 11
132.400232
 21
109.531486
 31
0.0
  0
LINE
  5
1bd
100
AcDbEntity
  8
0
 62
1
100
AcDbLine
 10
107.094308
 20
109.531489
 30
0.0
 11
114.355251
 21
109.531300
 31
0.0
  0
SPLINE
  5
1be
100
AcDbEntity
  8
0
 62
5
100
AcDbSpline
 70
0
 71
3
 72
16
 73
12
 74
10
 40
0.000000
 40
0.000000
 40
0.000000
 40
0.000000
 40
0.594052
 40
1.926274
 40
3.438882
 40
6.074693
 40
8.833683
 40
11.469466
 40
12.982642
 40
14.315441
 40
14.909673
 40
14.909673
 40
14.909673
 40
14.909673
 10
135.590399
 20
116.067496
 30
0.0
 10
135.441930
 20
116.198503
 30
0.0
 10
134.960506
 20
116.623305
 30
0.0
 10
134.211971
 20
117.506628
 30
0.0
 10
133.534807
 20
119.266964
 30
0.0
 10
134.062242
 20
121.640756
 30
0.0
 10
135.395466
 20
123.950244
 30
0.0
 10
137.187875
 20
125.593690
 30
0.0
 10
139.051060
 20
125.888006
 30
0.0
 10
140.190926
 20
125.682776
 30
0.0
 10
140.800074
 20
125.479081
 30
0.0
 10
140.987915
 20
125.416268
 30
0.0
 11
135.590399
 21
116.067496
 31
0.0
 11
135.150902
 21
116.467172
 31
0.0
 11
134.309950
 21
117.500426
 31
0.0
 11
133.783843
 21
118.918592
 31
0.0
 11
134.168302
 21
121.526213
 31
0.0
 11
135.547782
 21
123.915578
 31
0.0
 11
137.613816
 21
125.552299
 31
0.0
 11
139.105488
 21
125.806499
 31
0.0
 11
140.421602
 21
125.596269
 31
0.0
 11
140.987915
 21
125.416268
 31
0.0
  0
LINE
  5
1bf
100
AcDbEntity
  8
0
 62
5
100
AcDbLine
 10
115.241877
 20
110.123207
 30
0.0
 11
124.256069
 21
110.123207
 31
0.0
  0
SPLINE
  5
1c0
100
AcDbEntity
  8
0
 62
5
100
AcDbSpline
 70
0
 71
3
 72
10
 73
6
 74
4
 40
0.000000
 40
0.000000
 40
0.000000
 40
0.000000
 40
1.112710
 40
1.522655
 40
1.581219
 40
1.581219
 40
1.581219
 40
1.581219
 10
114.355251
 20
108.813953
 30
0.0
 10
114.563225
 20
109.121062
 30
0.0
 10
114.847821
 20
109.541316
 30
0.0
 10
115.143363
 20
109.977734
 30
0.0
 10
115.230931
 20
110.107043
 30
0.0
 10
115.241877
 20
110.123207
 30
0.0
 11
114.355251
 21
108.813953
 31
0.0
 11
114.979173
 21
109.735280
 31
0.0
 11
115.209039
 21
110.074716
 31
0.0
 11
115.241877
 21
110.123207
 31
0.0
  0
LINE
  5
1c1
100
AcDbEntity
  8
0
 62
5
100
AcDbLine
 10
12.535565
 20
36.351992
 30
0.0
 11
10.743401
 21
43.148493
 31
0.0
  0
LINE
  5
1c2
100
AcDbEntity
  8
0
 62
5
100
AcDbLine
 10
10.743401
 20
43.148493
 30
0.0
 11
18.406502
 21
56.421376
 31
0.0
  0
LINE
  5
1c3
100
AcDbEntity
  8
0
 62
5
100
AcDbLine
 10
18.406502
 20
56.421376
 30
0.0
 11
25.188527
 21
58.267566
 31
0.0
  0
LINE
  5
1c4
100
AcDbEntity
  8
0
 62
1
100
AcDbLine
 10
16.160702
 20
42.630536
 30
0.0
 11
12.535566
 21
36.351992
 31
0.0
  0
LINE
  5
1c5
100
AcDbEntity
  8
0
 62
1
100
AcDbLine
 10
25.188527
 20
58.267566
 30
0.0
 11
21.558218
 21
51.979311
 31
0.0
  0
SPLINE
  5
1c6
100
AcDbEntity
  8
0
 62
5
100
AcDbSpline
 70
0
 71
3
 72
10
 73
6
 74
4
 40
0.000000
 40
0.000000
 40
0.000000
 40
0.000000
 40
0.058722
 40
0.469774
 40
1.585488
 40
1.585488
 40
1.585488
 40
1.585488
 10
124.256069
 20
110.123207
 30
0.0
 10
124.267109
 20
110.107043
 30
0.0
 10
124.355427
 20
109.977734
 30
0.0
 10
124.653499
 20
109.541316
 30
0.0
 10
124.940532
 20
109.121062
 30
0.0
 10
125.150287
 20
108.813953
 30
0.0
 11
124.256069
 21
110.123207
 31
0.0
 11
124.289188
 21
110.074716
 31
0.0
 11
124.521023
 21
109.735280
 31
0.0
 11
125.150287
 21
108.813953
 31
0.0
  0
LINE
  5
1c7
100
AcDbEntity
  8
0
 62
5
100
AcDbLine
 10
20.602300
 20
51.507424
 30
0.0
 11
16.095203
 21
43.700903
 31
0.0
  0
SPLINE
  5
1c8
100
AcDbEntity
  8
0
 62
5
100
AcDbSpline
 70
0
 71
3
 72
10
 73
6
 74
4
 40
0.000000
 40
0.000000
 40
0.000000
 40
0.000000
 40
1.112709
 40
1.522654
 40
1.581218
 40
1.581218
 40
1.581218
 40
1.581218
 10
22.179460
 20
51.620634
 30
0.0
 10
21.809509
 20
51.594079
 30
0.0
 10
21.303260
 20
51.557740
 30
0.0
 10
20.777540
 20
51.520003
 30
0.0
 10
20.621771
 20
51.508822
 30
0.0
 10
20.602300
 20
51.507424
 30
0.0
 11
22.179460
 21
51.620634
 31
0.0
 11
21.069607
 21
51.540968
 31
0.0
 11
20.660713
 21
51.511617
 31
0.0
 11
20.602300
 21
51.507424
 31
0.0
  0
LINE
  5
1c9
100
AcDbEntity
  8
0
 62
5
100
AcDbLine
 10
71.726569
 20
65.122089
 30
0.0
 11
71.273086
 21
65.906980
 31
0.0
  0
LINE
  5
1ca
100
AcDbEntity
  8
0
 62
5
100
AcDbLine
 10
71.273086
 20
65.906980
 30
0.0
 11
71.710722
 21
66.159651
 31
0.0
  0
LINE
  5
1cb
100
AcDbEntity
  8
0
 62
5
100
AcDbLine
 10
71.710722
 20
66.159651
 30
0.0
 11
72.493646
 21
64.803584
 31
0.0
  0
SPLINE
  5
1cc
100
AcDbEntity
  8
0
 62
5
100
AcDbSpline
 70
0
 71
3
 72
10
 73
6
 74
4
 40
0.000000
 40
0.000000
 40
0.000000
 40
0.000000
 40
0.058722
 40
0.469774
 40
1.585487
 40
1.585487
 40
1.585487
 40
1.585487
 10
16.095203
 20
43.700903
 30
0.0
 10
16.103682
 20
43.683261
 30
0.0
 10
16.171508
 20
43.542121
 30
0.0
 10
16.400421
 20
43.065774
 30
0.0
 10
16.620856
 20
42.607070
 30
0.0
 10
16.781943
 20
42.271863
 30
0.0
 11
16.095203
 21
43.700903
 31
0.0
 11
16.120638
 21
43.647976
 31
0.0
 11
16.298682
 21
43.277484
 31
0.0
 11
16.781943
 21
42.271863
 31
0.0
  0
LINE
  5
1cd
100
AcDbEntity
  8
0
 62
5
100
AcDbLine
 10
67.096129
 20
74.152356
 30
0.0
 11
67.879050
 21
72.796301
 31
0.0
  0
LINE
  5
1ce
100
AcDbEntity
  8
0
 62
5
100
AcDbLine
 10
67.879050
 20
72.796301
 30
0.0
 11
67.441163
 21
72.543487
 31
0.0
  0
LINE
  5
1cf
100
AcDbEntity
  8
0
 62
5
100
AcDbLine
 10
67.441163
 20
72.543487
 30
0.0
 11
66.988168
 21
73.328660
 31
0.0
  0
LINE
  5
1d0
100
AcDbEntity
  8
0
 62
5
100
AcDbLine
 10
71.726572
 20
65.122095
 30
0.0
 11
75.683816
 21
58.267572
 31
0.0
  0
LINE
  5
1d1
100
AcDbEntity
  8
0
 62
5
100
AcDbLine
 10
63.030887
 20
80.183166
 30
0.0
 11
66.988131
 21
73.328643
 31
0.0
  0
LINE
  5
1d2
100
AcDbEntity
  8
0
 62
1
100
AcDbLine
 10
70.311541
 20
67.572224
 30
0.0
 11
68.402604
 21
70.878226
 31
0.0
  0
LINE
  5
1d3
100
AcDbEntity
  8
0
 62
1
100
AcDbLine
 10
25.188528
 20
58.267563
 30
0.0
 11
37.783245
 21
36.452875
 31
0.0
  0
LINE
  5
1d4
100
AcDbEntity
  8
0
 62
1
100
AcDbLine
 10
50.377962
 20
58.267569
 30
0.0
 11
62.972679
 21
36.452878
 31
0.0
  0
LINE
  5
1d5
100
AcDbEntity
  8
0
 62
1
100
AcDbLine
 10
50.377959
 20
58.267566
 30
0.0
 11
37.783242
 21
36.452878
 31
0.0
  0
LINE
  5
1d6
100
AcDbEntity
  8
0
 62
5
100
AcDbLine
 10
29.868439
 20
36.452694
 30
0.0
 11
28.961961
 21
36.452977
 31
0.0
  0
LINE
  5
1d7
100
AcDbEntity
  8
0
 62
5
100
AcDbLine
 10
28.961961
 20
36.452977
 30
0.0
 11
28.961961
 21
35.947641
 31
0.0
  0
LINE
  5
1d8
100
AcDbEntity
  8
0
 62
5
100
AcDbLine
 10
28.961961
 20
35.947641
 30
0.0
 11
30.527811
 21
35.947641
 31
0.0
  0
SPLINE
  5
1d9
100
AcDbEntity
  8
0
 62
5
100
AcDbSpline
 70
0
 71
3
 72
16
 73
12
 74
10
 40
0.000000
 40
0.000000
 40
0.000000
 40
0.000000
 40
0.594052
 40
1.926274
 40
3.438882
 40
6.074693
 40
8.833683
 40
11.469466
 40
12.982642
 40
14.315441
 40
14.909673
 40
14.909673
 40
14.909673
 40
14.909673
 10
72.493646
 20
64.803584
 30
0.0
 10
72.642115
 20
64.934591
 30
0.0
 10
73.123539
 20
65.359394
 30
0.0
 10
73.872074
 20
66.242717
 30
0.0
 10
74.549238
 20
68.003053
 30
0.0
 10
74.021803
 20
70.376845
 30
0.0
 10
72.688579
 20
72.686333
 30
0.0
 10
70.896170
 20
74.329779
 30
0.0
 10
69.032985
 20
74.624094
 30
0.0
 10
67.893119
 20
74.418865
 30
0.0
 10
67.283970
 20
74.215169
 30
0.0
 10
67.096129
 20
74.152356
 30
0.0
 11
72.493646
 21
64.803584
 31
0.0
 11
72.933142
 21
65.203261
 31
0.0
 11
73.774095
 21
66.236515
 31
0.0
 11
74.300201
 21
67.654681
 31
0.0
 11
73.915743
 21
70.262302
 31
0.0
 11
72.536263
 21
72.651667
 31
0.0
 11
70.470228
 21
74.288388
 31
0.0
 11
68.978557
 21
74.542587
 31
0.0
 11
67.662443
 21
74.332357
 31
0.0
 11
67.096129
 21
74.152356
 31
0.0
  0
LINE
  5
1da
100
AcDbEntity
  8
0
 62
5
100
AcDbLine
 10
19.732777
 20
35.947641
 30
0.0
 11
21.298614
 21
35.947641
 31
0.0
  0
LINE
  5
1db
100
AcDbEntity
  8
0
 62
5
100
AcDbLine
 10
21.298614
 20
35.947641
 30
0.0
 11
21.298615
 21
36.453270
 31
0.0
  0
LINE
  5
1dc
100
AcDbEntity
  8
0
 62
5
100
AcDbLine
 10
21.298615
 20
36.453270
 30
0.0
 11
20.392139
 21
36.452988
 31
0.0
  0
LINE
  5
1dd
100
AcDbEntity
  8
0
 62
5
100
AcDbLine
 10
29.868433
 20
36.452691
 30
0.0
 11
37.783245
 21
36.452881
 31
0.0
  0
LINE
  5
1de
100
AcDbEntity
  8
0
 62
5
100
AcDbLine
 10
12.477323
 20
36.452838
 30
0.0
 11
20.392135
 21
36.453027
 31
0.0
  0
LINE
  5
1df
100
AcDbEntity
  8
0
 62
1
100
AcDbLine
 10
27.039044
 20
36.453078
 30
0.0
 11
23.221495
 21
36.453267
 31
0.0
  0
LINE
  5
1e0
100
AcDbEntity
  8
0
 62
5
100
AcDbLine
 10
101.048476
 20
58.267566
 30
0.0
 11
96.058615
 21
63.217877
 31
0.0
  0
LINE
  5
1e1
100
AcDbEntity
  8
0
 62
5
100
AcDbLine
 10
96.058615
 20
63.217877
 30
0.0
 11
80.732413
 21
63.217877
 31
0.0
  0
LINE
  5
1e2
100
AcDbEntity
  8
0
 62
5
100
AcDbLine
 10
80.732413
 20
63.217877
 30
0.0
 11
75.742552
 21
58.267566
 31
0.0
  0
LINE
  5
1e3
100
AcDbEntity
  8
0
 62
1
100
AcDbLine
 10
93.798531
 20
58.267377
 30
0.0
 11
101.048476
 21
58.267563
 31
0.0
  0
LINE
  5
1e4
100
AcDbEntity
  8
0
 62
1
100
AcDbLine
 10
75.742552
 20
58.267566
 30
0.0
 11
83.003494
 21
58.267377
 31
0.0
  0
SPLINE
  5
1e5
100
AcDbEntity
  8
0
 62
5
100
AcDbSpline
 70
0
 71
3
 72
16
 73
12
 74
10
 40
0.000000
 40
0.000000
 40
0.000000
 40
0.000000
 40
0.594052
 40
1.926273
 40
3.438880
 40
6.074692
 40
8.833683
 40
11.469466
 40
12.982641
 40
14.315438
 40
14.909670
 40
14.909670
 40
14.909670
 40
14.909670
 10
30.527811
 20
35.947641
 30
0.0
 10
30.488590
 20
35.753560
 30
0.0
 10
30.361412
 20
35.124234
 30
0.0
 10
29.970699
 20
34.034323
 30
0.0
 10
28.784785
 20
32.567714
 30
0.0
 10
26.465304
 20
31.837590
 30
0.0
 10
23.798615
 20
31.837451
 30
0.0
 10
21.479145
 20
32.568001
 30
0.0
 10
20.292668
 20
34.034407
 30
0.0
 10
19.900469
 20
35.124174
 30
0.0
 10
19.772300
 20
35.753559
 30
0.0
 10
19.732777
 20
35.947641
 30
0.0
 11
30.527811
 21
35.947641
 31
0.0
 11
30.401429
 21
35.367188
 31
0.0
 11
29.927081
 21
34.122276
 31
0.0
 11
28.961966
 21
32.957572
 31
0.0
 11
26.511470
 21
31.986712
 31
0.0
 11
23.752479
 21
31.986694
 31
0.0
 11
21.302020
 21
32.957572
 31
0.0
 11
20.336041
 21
34.122297
 31
0.0
 11
19.860049
 21
35.367199
 31
0.0
 11
19.732777
 21
35.947641
 31
0.0
  0
LINE
  5
1e6
100
AcDbEntity
  8
0
 62
5
100
AcDbLine
 10
83.890121
 20
58.859285
 30
0.0
 11
92.904313
 21
58.859285
 31
0.0
  0
SPLINE
  5
1e7
100
AcDbEntity
  8
0
 62
5
100
AcDbSpline
 70
0
 71
3
 72
10
 73
6
 74
4
 40
0.000000
 40
0.000000
 40
0.000000
 40
0.000000
 40
1.112710
 40
1.522655
 40
1.581219
 40
1.581219
 40
1.581219
 40
1.581219
 10
83.003494
 20
57.550030
 30
0.0
 10
83.211469
 20
57.857139
 30
0.0
 10
83.496065
 20
58.277394
 30
0.0
 10
83.791607
 20
58.713812
 30
0.0
 10
83.879175
 20
58.843121
 30
0.0
 10
83.890121
 20
58.859285
 30
0.0
 11
83.003494
 21
57.550030
 31
0.0
 11
83.627417
 21
58.471357
 31
0.0
 11
83.857283
 21
58.810794
 31
0.0
 11
83.890121
 21
58.859285
 31
0.0
  0
LINE
  5
1e8
100
AcDbEntity
  8
0
 62
5
100
AcDbLine
 10
88.278603
 20
36.452883
 30
0.0
 11
83.288742
 21
31.502573
 31
0.0
  0
LINE
  5
1e9
100
AcDbEntity
  8
0
 62
5
100
AcDbLine
 10
83.288742
 20
31.502573
 30
0.0
 11
67.962540
 21
31.502573
 31
0.0
  0
LINE
  5
1ea
100
AcDbEntity
  8
0
 62
5
100
AcDbLine
 10
67.962540
 20
31.502573
 30
0.0
 11
62.972679
 21
36.452883
 31
0.0
  0
LINE
  5
1eb
100
AcDbEntity
  8
0
 62
1
100
AcDbLine
 10
81.028659
 20
36.453072
 30
0.0
 11
88.278603
 21
36.452886
 31
0.0
  0
LINE
  5
1ec
100
AcDbEntity
  8
0
 62
1
100
AcDbLine
 10
62.972679
 20
36.452883
 30
0.0
 11
70.233622
 21
36.453072
 31
0.0
  0
SPLINE
  5
1ed
100
AcDbEntity
  8
0
 62
5
100
AcDbSpline
 70
0
 71
3
 72
10
 73
6
 74
4
 40
0.000000
 40
0.000000
 40
0.000000
 40
0.000000
 40
0.058722
 40
0.469774
 40
1.585488
 40
1.585488
 40
1.585488
 40
1.585488
 10
92.904313
 20
58.859285
 30
0.0
 10
92.915353
 20
58.843121
 30
0.0
 10
93.003670
 20
58.713812
 30
0.0
 10
93.301743
 20
58.277394
 30
0.0
 10
93.588776
 20
57.857139
 30
0.0
 10
93.798531
 20
57.550030
 30
0.0
 11
92.904313
 21
58.859285
 31
0.0
 11
92.937432
 21
58.810794
 31
0.0
 11
93.169266
 21
58.471357
 31
0.0
 11
93.798531
 21
57.550030
 31
0.0
  0
LINE
  5
1ee
100
AcDbEntity
  8
0
 62
5
100
AcDbLine
 10
71.120248
 20
35.861165
 30
0.0
 11
80.134440
 21
35.861165
 31
0.0
  0
SPLINE
  5
1ef
100
AcDbEntity
  8
0
 62
5
100
AcDbSpline
 70
0
 71
3
 72
10
 73
6
 74
4
 40
0.000000
 40
0.000000
 40
0.000000
 40
0.000000
 40
1.112710
 40
1.522655
 40
1.581219
 40
1.581219
 40
1.581219
 40
1.581219
 10
70.233622
 20
37.170419
 30
0.0
 10
70.441596
 20
36.863310
 30
0.0
 10
70.726192
 20
36.443056
 30
0.0
 10
71.021734
 20
36.006638
 30
0.0
 10
71.109302
 20
35.877329
 30
0.0
 10
71.120248
 20
35.861165
 30
0.0
 11
70.233622
 21
37.170419
 31
0.0
 11
70.857544
 21
36.249092
 31
0.0
 11
71.087410
 21
35.909656
 31
0.0
 11
71.120248
 21
35.861165
 31
0.0
  0
LINE
  5
1f0
100
AcDbEntity
  8
0
 62
1
100
AcDbLine
 10
88.337269
 20
36.452878
 30
0.0
 11
75.742552
 21
58.267566
 31
0.0
  0
LINE
  5
1f1
100
AcDbEntity
  8
0
 62
1
100
AcDbLine
 10
75.742552
 20
58.267566
 30
0.0
 11
50.377959
 21
58.267560
 31
0.0
  0
LINE
  5
1f2
100
AcDbEntity
  8
0
 62
1
100
AcDbLine
 10
75.742552
 20
58.267566
 30
0.0
 11
63.147835
 21
36.452878
 31
0.0
  0
LINE
  5
1f3
100
AcDbEntity
  8
0
 62
1
100
AcDbLine
 10
63.147837
 20
36.452881
 30
0.0
 11
37.783245
 21
36.452875
 31
0.0
  0
LINE
  5
1f4
100
AcDbEntity
  8
0
 62
5
100
AcDbLine
 10
96.974285
 20
51.513960
 30
0.0
 11
96.520802
 21
50.729069
 31
0.0
  0
LINE
  5
1f5
100
AcDbEntity
  8
0
 62
5
100
AcDbLine
 10
96.520802
 20
50.729069
 30
0.0
 11
96.958438
 21
50.476398
 31
0.0
  0
LINE
  5
1f6
100
AcDbEntity
  8
0
 62
5
100
AcDbLine
 10
96.958438
 20
50.476398
 30
0.0
 11
97.741362
 21
51.832465
 31
0.0
  0
SPLINE
  5
1f7
100
AcDbEntity
  8
0
 62
5
100
AcDbSpline
 70
0
 71
3
 72
10
 73
6
 74
4
 40
0.000000
 40
0.000000
 40
0.000000
 40
0.000000
 40
0.058722
 40
0.469774
 40
1.585488
 40
1.585488
 40
1.585488
 40
1.585488
 10
80.134440
 20
35.861165
 30
0.0
 10
80.145480
 20
35.877329
 30
0.0
 10
80.233798
 20
36.006638
 30
0.0
 10
80.531871
 20
36.443056
 30
0.0
 10
80.818904
 20
36.863310
 30
0.0
 10
81.028659
 20
37.170419
 30
0.0
 11
80.134440
 21
35.861165
 31
0.0
 11
80.167559
 21
35.909656
 31
0.0
 11
80.399394
 21
36.249092
 31
0.0
 11
81.028659
 21
37.170419
 31
0.0
  0
LINE
  5
1f8
100
AcDbEntity
  8
0
 62
5
100
AcDbLine
 10
92.343845
 20
42.483693
 30
0.0
 11
93.126766
 21
43.839748
 31
0.0
  0
LINE
  5
1f9
100
AcDbEntity
  8
0
 62
5
100
AcDbLine
 10
93.126766
 20
43.839748
 30
0.0
 11
92.688878
 21
44.092563
 31
0.0
  0
LINE
  5
1fa
100
AcDbEntity
  8
0
 62
5
100
AcDbLine
 10
92.688878
 20
44.092563
 30
0.0
 11
92.235884
 21
43.307389
 31
0.0
  0
LINE
  5
1fb
100
AcDbEntity
  8
0
 62
5
100
AcDbLine
 10
96.974287
 20
51.513954
 30
0.0
 11
100.931531
 21
58.368478
 31
0.0
  0
LINE
  5
1fc
100
AcDbEntity
  8
0
 62
5
100
AcDbLine
 10
88.278603
 20
36.452883
 30
0.0
 11
92.235847
 21
43.307406
 31
0.0
  0
LINE
  5
1fd
100
AcDbEntity
  8
0
 62
1
100
AcDbLine
 10
95.559256
 20
49.063825
 30
0.0
 11
93.650319
 21
45.757823
 31
0.0
  0
LINE
  5
1fe
100
AcDbEntity
  8
0
 62
5
100
AcDbLine
 10
59.073644
 20
29.699263
 30
0.0
 11
58.620160
 21
28.914372
 31
0.0
  0
LINE
  5
1ff
100
AcDbEntity
  8
0
 62
5
100
AcDbLine
 10
58.620160
 20
28.914372
 30
0.0
 11
59.057797
 21
28.661701
 31
0.0
  0
LINE
  5
200
100
AcDbEntity
  8
0
 62
5
100
AcDbLine
 10
59.057797
 20
28.661701
 30
0.0
 11
59.840721
 21
30.017768
 31
0.0
  0
SPLINE
  5
201
100
AcDbEntity
  8
0
 62
5
100
AcDbSpline
 70
0
 71
3
 72
16
 73
12
 74
10
 40
0.000000
 40
0.000000
 40
0.000000
 40
0.000000
 40
0.594052
 40
1.926274
 40
3.438882
 40
6.074693
 40
8.833683
 40
11.469466
 40
12.982642
 40
14.315441
 40
14.909673
 40
14.909673
 40
14.909673
 40
14.909673
 10
97.741362
 20
51.832465
 30
0.0
 10
97.889830
 20
51.701458
 30
0.0
 10
98.371254
 20
51.276655
 30
0.0
 10
99.119789
 20
50.393333
 30
0.0
 10
99.796954
 20
48.632996
 30
0.0
 10
99.269519
 20
46.259205
 30
0.0
 10
97.936294
 20
43.949716
 30
0.0
 10
96.143886
 20
42.306270
 30
0.0
 10
94.280701
 20
42.011955
 30
0.0
 10
93.140834
 20
42.217184
 30
0.0
 10
92.531686
 20
42.420880
 30
0.0
 10
92.343845
 20
42.483693
 30
0.0
 11
97.741362
 21
51.832465
 31
0.0
 11
98.180858
 21
51.432788
 31
0.0
 11
99.021811
 21
50.399534
 31
0.0
 11
99.547917
 21
48.981368
 31
0.0
 11
99.163459
 21
46.373747
 31
0.0
 11
97.783979
 21
43.984382
 31
0.0
 11
95.717944
 21
42.347662
 31
0.0
 11
94.226273
 21
42.093462
 31
0.0
 11
92.910159
 21
42.303692
 31
0.0
 11
92.343845
 21
42.483693
 31
0.0
  0
LINE
  5
202
100
AcDbEntity
  8
0
 62
5
100
AcDbLine
 10
54.443204
 20
20.668996
 30
0.0
 11
55.226125
 21
22.025051
 31
0.0
  0
LINE
  5
203
100
AcDbEntity
  8
0
 62
5
100
AcDbLine
 10
55.226125
 20
22.025051
 30
0.0
 11
54.788237
 21
22.277866
 31
0.0
  0
LINE
  5
204
100
AcDbEntity
  8
0
 62
5
100
AcDbLine
 10
54.788237
 20
22.277866
 30
0.0
 11
54.335243
 21
21.492693
 31
0.0
  0
LINE
  5
205
100
AcDbEntity
  8
0
 62
5
100
AcDbLine
 10
59.073646
 20
29.699258
 30
0.0
 11
63.030890
 21
36.553781
 31
0.0
  0
LINE
  5
206
100
AcDbEntity
  8
0
 62
5
100
AcDbLine
 10
50.377962
 20
14.638187
 30
0.0
 11
54.335206
 21
21.492710
 31
0.0
  0
LINE
  5
207
100
AcDbEntity
  8
0
 62
1
100
AcDbLine
 10
57.658615
 20
27.249128
 30
0.0
 11
55.749678
 21
23.943127
 31
0.0
  0
LINE
  5
208
100
AcDbEntity
  8
0
 62
5
100
AcDbLine
 10
37.725003
 20
36.553761
 30
0.0
 11
35.932838
 21
29.757260
 31
0.0
  0
LINE
  5
209
100
AcDbEntity
  8
0
 62
5
100
AcDbLine
 10
35.932838
 20
29.757260
 30
0.0
 11
43.595939
 21
16.484377
 31
0.0
  0
LINE
  5
20a
100
AcDbEntity
  8
0
 62
5
100
AcDbLine
 10
43.595939
 20
16.484377
 30
0.0
 11
50.377962
 21
14.638187
 31
0.0
  0
LINE
  5
20b
100
AcDbEntity
  8
0
 62
1
100
AcDbLine
 10
41.350139
 20
30.275217
 30
0.0
 11
37.725003
 21
36.553761
 31
0.0
  0
LINE
  5
20c
100
AcDbEntity
  8
0
 62
1
100
AcDbLine
 10
50.377962
 20
14.638187
 30
0.0
 11
46.747656
 21
20.926442
 31
0.0
  0
SPLINE
  5
20d
100
AcDbEntity
  8
0
 62
5
100
AcDbSpline
 70
0
 71
3
 72
16
 73
12
 74
10
 40
0.000000
 40
0.000000
 40
0.000000
 40
0.000000
 40
0.594052
 40
1.926274
 40
3.438882
 40
6.074693
 40
8.833683
 40
11.469466
 40
12.982642
 40
14.315441
 40
14.909673
 40
14.909673
 40
14.909673
 40
14.909673
 10
59.840721
 20
30.017768
 30
0.0
 10
59.989189
 20
29.886761
 30
0.0
 10
60.470613
 20
29.461958
 30
0.0
 10
61.219148
 20
28.578636
 30
0.0
 10
61.896313
 20
26.818299
 30
0.0
 10
61.368878
 20
24.444508
 30
0.0
 10
60.035653
 20
22.135020
 30
0.0
 10
58.243245
 20
20.491573
 30
0.0
 10
56.380059
 20
20.197258
 30
0.0
 10
55.240193
 20
20.402487
 30
0.0
 10
54.631045
 20
20.606183
 30
0.0
 10
54.443204
 20
20.668996
 30
0.0
 11
59.840721
 21
30.017768
 31
0.0
 11
60.280217
 21
29.618091
 31
0.0
 11
61.121170
 21
28.584838
 31
0.0
 11
61.647276
 21
27.166672
 31
0.0
 11
61.262818
 21
24.559050
 31
0.0
 11
59.883338
 21
22.169685
 31
0.0
 11
57.817303
 21
20.532965
 31
0.0
 11
56.325632
 21
20.278765
 31
0.0
 11
55.009518
 21
20.488995
 31
0.0
 11
54.443204
 21
20.668996
 31
0.0
  0
LINE
  5
20e
100
AcDbEntity
  8
0
 62
5
100
AcDbLine
 10
45.791738
 20
21.398329
 30
0.0
 11
41.284641
 21
29.204849
 31
0.0
  0
SPLINE
  5
20f
100
AcDbEntity
  8
0
 62
5
100
AcDbSpline
 70
0
 71
3
 72
10
 73
6
 74
4
 40
0.000000
 40
0.000000
 40
0.000000
 40
0.000000
 40
1.112709
 40
1.522654
 40
1.581217
 40
1.581217
 40
1.581217
 40
1.581217
 10
47.368897
 20
21.285118
 30
0.0
 10
46.998946
 20
21.311674
 30
0.0
 10
46.492698
 20
21.348013
 30
0.0
 10
45.966978
 20
21.385750
 30
0.0
 10
45.811209
 20
21.396931
 30
0.0
 10
45.791738
 20
21.398329
 30
0.0
 11
47.368897
 21
21.285118
 31
0.0
 11
46.259045
 21
21.364785
 31
0.0
 11
45.850151
 21
21.394136
 31
0.0
 11
45.791738
 21
21.398329
 31
0.0
  0
LINE
  5
210
100
AcDbEntity
  8
0
 62
5
100
AcDbLine
 10
54.335206
 20
65.122081
 30
0.0
 11
54.788689
 21
65.906972
 31
0.0
  0
LINE
  5
211
100
AcDbEntity
  8
0
 62
5
100
AcDbLine
 10
54.788689
 20
65.906972
 30
0.0
 11
54.351053
 21
66.159642
 31
0.0
  0
LINE
  5
212
100
AcDbEntity
  8
0
 62
5
100
AcDbLine
 10
54.351053
 20
66.159642
 30
0.0
 11
53.568129
 21
64.803576
 31
0.0
  0
SPLINE
  5
213
100
AcDbEntity
  8
0
 62
5
100
AcDbSpline
 70
0
 71
3
 72
10
 73
6
 74
4
 40
0.000000
 40
0.000000
 40
0.000000
 40
0.000000
 40
0.058722
 40
0.469774
 40
1.585487
 40
1.585487
 40
1.585487
 40
1.585487
 10
41.284641
 20
29.204849
 30
0.0
 10
41.293119
 20
29.222492
 30
0.0
 10
41.360945
 20
29.363632
 30
0.0
 10
41.589858
 20
29.839979
 30
0.0
 10
41.810293
 20
30.298683
 30
0.0
 10
41.971381
 20
30.633890
 30
0.0
 11
41.284641
 21
29.204849
 31
0.0
 11
41.310076
 21
29.257777
 31
0.0
 11
41.488119
 21
29.628269
 31
0.0
 11
41.971381
 21
30.633890
 31
0.0
  0
LINE
  5
214
100
AcDbEntity
  8
0
 62
5
100
AcDbLine
 10
58.965646
 20
74.152348
 30
0.0
 11
58.182724
 21
72.796293
 31
0.0
  0
LINE
  5
215
100
AcDbEntity
  8
0
 62
5
100
AcDbLine
 10
58.182724
 20
72.796293
 30
0.0
 11
58.620612
 21
72.543478
 31
0.0
  0
LINE
  5
216
100
AcDbEntity
  8
0
 62
5
100
AcDbLine
 10
58.620612
 20
72.543478
 30
0.0
 11
59.073607
 21
73.328651
 31
0.0
  0
LINE
  5
217
100
AcDbEntity
  8
0
 62
5
100
AcDbLine
 10
54.335203
 20
65.122086
 30
0.0
 11
50.377959
 21
58.267563
 31
0.0
  0
LINE
  5
218
100
AcDbEntity
  8
0
 62
5
100
AcDbLine
 10
63.030887
 20
80.183157
 30
0.0
 11
59.073644
 21
73.328634
 31
0.0
  0
LINE
  5
219
100
AcDbEntity
  8
0
 62
1
100
AcDbLine
 10
55.750234
 20
67.572215
 30
0.0
 11
57.659171
 21
70.878217
 31
0.0
  0
LINE
  5
21a
100
AcDbEntity
  8
0
 62
5
100
AcDbLine
 10
50.377962
 20
58.267572
 30
0.0
 11
45.388101
 21
63.217882
 31
0.0
  0
LINE
  5
21b
100
AcDbEntity
  8
0
 62
5
100
AcDbLine
 10
45.388101
 20
63.217882
 30
0.0
 11
30.061899
 21
63.217882
 31
0.0
  0
LINE
  5
21c
100
AcDbEntity
  8
0
 62
5
100
AcDbLine
 10
30.061899
 20
63.217882
 30
0.0
 11
25.072039
 21
58.267572
 31
0.0
  0
LINE
  5
21d
100
AcDbEntity
  8
0
 62
1
100
AcDbLine
 10
43.128017
 20
58.267383
 30
0.0
 11
50.377962
 21
58.267569
 31
0.0
  0
LINE
  5
21e
100
AcDbEntity
  8
0
 62
1
100
AcDbLine
 10
25.072039
 20
58.267572
 30
0.0
 11
32.332981
 21
58.267383
 31
0.0
  0
SPLINE
  5
21f
100
AcDbEntity
  8
0
 62
5
100
AcDbSpline
 70
0
 71
3
 72
16
 73
12
 74
10
 40
0.000000
 40
0.000000
 40
0.000000
 40
0.000000
 40
0.594052
 40
1.926274
 40
3.438882
 40
6.074693
 40
8.833683
 40
11.469466
 40
12.982642
 40
14.315441
 40
14.909673
 40
14.909673
 40
14.909673
 40
14.909673
 10
53.568129
 20
64.803576
 30
0.0
 10
53.419660
 20
64.934583
 30
0.0
 10
52.938236
 20
65.359386
 30
0.0
 10
52.189701
 20
66.242708
 30
0.0
 10
51.512537
 20
68.003045
 30
0.0
 10
52.039972
 20
70.376836
 30
0.0
 10
53.373196
 20
72.686324
 30
0.0
 10
55.165605
 20
74.329771
 30
0.0
 10
57.028790
 20
74.624086
 30
0.0
 10
58.168656
 20
74.418857
 30
0.0
 10
58.777805
 20
74.215161
 30
0.0
 10
58.965646
 20
74.152348
 30
0.0
 11
53.568129
 21
64.803576
 31
0.0
 11
53.128633
 21
65.203253
 31
0.0
 11
52.287680
 21
66.236506
 31
0.0
 11
51.761573
 21
67.654672
 31
0.0
 11
52.146032
 21
70.262294
 31
0.0
 11
53.525512
 21
72.651659
 31
0.0
 11
55.591546
 21
74.288379
 31
0.0
 11
57.083218
 21
74.542579
 31
0.0
 11
58.399332
 21
74.332349
 31
0.0
 11
58.965646
 21
74.152348
 31
0.0
  0
LINE
  5
220
100
AcDbEntity
  8
0
 62
5
100
AcDbLine
 10
33.219607
 20
58.859290
 30
0.0
 11
42.233799
 21
58.859290
 31
0.0
  0
SPLINE
  5
221
100
AcDbEntity
  8
0
 62
5
100
AcDbSpline
 70
0
 71
3
 72
10
 73
6
 74
4
 40
0.000000
 40
0.000000
 40
0.000000
 40
0.000000
 40
1.112710
 40
1.522655
 40
1.581219
 40
1.581219
 40
1.581219
 40
1.581219
 10
32.332981
 20
57.550036
 30
0.0
 10
32.540955
 20
57.857145
 30
0.0
 10
32.825551
 20
58.277399
 30
0.0
 10
33.121093
 20
58.713817
 30
0.0
 10
33.208661
 20
58.843127
 30
0.0
 10
33.219607
 20
58.859290
 30
0.0
 11
32.332981
 21
57.550036
 31
0.0
 11
32.956903
 21
58.471363
 31
0.0
 11
33.186769
 21
58.810799
 31
0.0
 11
33.219607
 21
58.859290
 31
0.0
  0
LINE
  5
222
100
AcDbEntity
  8
0
 62
5
100
AcDbLine
 10
102.826210
 20
36.021256
 30
0.0
 11
101.034046
 21
42.817756
 31
0.0
  0
LINE
  5
223
100
AcDbEntity
  8
0
 62
5
100
AcDbLine
 10
101.034046
 20
42.817756
 30
0.0
 11
108.697147
 21
56.090639
 31
0.0
  0
LINE
  5
224
100
AcDbEntity
  8
0
 62
5
100
AcDbLine
 10
108.697147
 20
56.090639
 30
0.0
 11
115.479170
 21
57.936830
 31
0.0
  0
LINE
  5
225
100
AcDbEntity
  8
0
 62
1
100
AcDbLine
 10
106.451346
 20
42.299800
 30
0.0
 11
102.826210
 21
36.021256
 31
0.0
  0
LINE
  5
226
100
AcDbEntity
  8
0
 62
1
100
AcDbLine
 10
115.479170
 20
57.936830
 30
0.0
 11
111.848863
 21
51.648574
 31
0.0
  0
SPLINE
  5
227
100
AcDbEntity
  8
0
 62
5
100
AcDbSpline
 70
0
 71
3
 72
10
 73
6
 74
4
 40
0.000000
 40
0.000000
 40
0.000000
 40
0.000000
 40
0.058722
 40
0.469774
 40
1.585488
 40
1.585488
 40
1.585488
 40
1.585488
 10
42.233799
 20
58.859290
 30
0.0
 10
42.244839
 20
58.843127
 30
0.0
 10
42.333157
 20
58.713817
 30
0.0
 10
42.631230
 20
58.277399
 30
0.0
 10
42.918263
 20
57.857145
 30
0.0
 10
43.128017
 20
57.550036
 30
0.0
 11
42.233799
 21
58.859290
 31
0.0
 11
42.266918
 21
58.810799
 31
0.0
 11
42.498753
 21
58.471363
 31
0.0
 11
43.128017
 21
57.550036
 31
0.0
  0
LINE
  5
228
100
AcDbEntity
  8
0
 62
5
100
AcDbLine
 10
110.892946
 20
51.176688
 30
0.0
 11
106.385848
 21
43.370167
 31
0.0
  0
SPLINE
  5
229
100
AcDbEntity
  8
0
 62
5
100
AcDbSpline
 70
0
 71
3
 72
10
 73
6
 74
4
 40
0.000000
 40
0.000000
 40
0.000000
 40
0.000000
 40
1.112709
 40
1.522654
 40
1.581217
 40
1.581217
 40
1.581217
 40
1.581217
 10
112.470105
 20
51.289898
 30
0.0
 10
112.100154
 20
51.263343
 30
0.0
 10
111.593905
 20
51.227003
 30
0.0
 10
111.068186
 20
51.189267
 30
0.0
 10
110.912417
 20
51.178085
 30
0.0
 10
110.892946
 20
51.176688
 30
0.0
 11
112.470105
 21
51.289898
 31
0.0
 11
111.360252
 21
51.210232
 31
0.0
 11
110.951359
 21
51.180881
 31
0.0
 11
110.892946
 21
51.176688
 31
0.0
  0
LINE
  5
22a
100
AcDbEntity
  8
0
 62
5
100
AcDbLine
 10
162.017213
 20
64.791353
 30
0.0
 11
161.563730
 21
65.576244
 31
0.0
  0
LINE
  5
22b
100
AcDbEntity
  8
0
 62
5
100
AcDbLine
 10
161.563730
 20
65.576244
 30
0.0
 11
162.001367
 21
65.828915
 31
0.0
  0
LINE
  5
22c
100
AcDbEntity
  8
0
 62
5
100
AcDbLine
 10
162.001367
 20
65.828915
 30
0.0
 11
162.784290
 21
64.472848
 31
0.0
  0
SPLINE
  5
22d
100
AcDbEntity
  8
0
 62
5
100
AcDbSpline
 70
0
 71
3
 72
10
 73
6
 74
4
 40
0.000000
 40
0.000000
 40
0.000000
 40
0.000000
 40
0.058722
 40
0.469774
 40
1.585487
 40
1.585487
 40
1.585487
 40
1.585487
 10
106.385848
 20
43.370167
 30
0.0
 10
106.394327
 20
43.352525
 30
0.0
 10
106.462153
 20
43.211385
 30
0.0
 10
106.691066
 20
42.735038
 30
0.0
 10
106.911501
 20
42.276333
 30
0.0
 10
107.072588
 20
41.941126
 30
0.0
 11
106.385848
 21
43.370167
 31
0.0
 11
106.411283
 21
43.317240
 31
0.0
 11
106.589327
 21
42.946748
 31
0.0
 11
107.072588
 21
41.941126
 31
0.0
  0
LINE
  5
22e
100
AcDbEntity
  8
0
 62
5
100
AcDbLine
 10
157.386774
 20
73.821620
 30
0.0
 11
158.169695
 21
72.465565
 31
0.0
  0
LINE
  5
22f
100
AcDbEntity
  8
0
 62
5
100
AcDbLine
 10
158.169695
 20
72.465565
 30
0.0
 11
157.731807
 21
72.212750
 31
0.0
  0
LINE
  5
230
100
AcDbEntity
  8
0
 62
5
100
AcDbLine
 10
157.731807
 20
72.212750
 30
0.0
 11
157.278812
 21
72.997924
 31
0.0
  0
LINE
  5
231
100
AcDbEntity
  8
0
 62
5
100
AcDbLine
 10
162.017216
 20
64.791359
 30
0.0
 11
165.974460
 21
57.936836
 31
0.0
  0
LINE
  5
232
100
AcDbEntity
  8
0
 62
5
100
AcDbLine
 10
153.321532
 20
79.852430
 30
0.0
 11
157.278776
 21
72.997907
 31
0.0
  0
LINE
  5
233
100
AcDbEntity
  8
0
 62
1
100
AcDbLine
 10
160.602185
 20
67.241488
 30
0.0
 11
158.693248
 21
70.547490
 31
0.0
  0
LINE
  5
234
100
AcDbEntity
  8
0
 62
1
100
AcDbLine
 10
115.479172
 20
57.936827
 30
0.0
 11
128.073889
 21
36.122139
 31
0.0
  0
LINE
  5
235
100
AcDbEntity
  8
0
 62
1
100
AcDbLine
 10
140.668606
 20
57.936833
 30
0.0
 11
153.263323
 21
36.122142
 31
0.0
  0
LINE
  5
236
100
AcDbEntity
  8
0
 62
1
100
AcDbLine
 10
140.668604
 20
57.936830
 30
0.0
 11
128.073887
 21
36.122142
 31
0.0
  0
LINE
  5
237
100
AcDbEntity
  8
0
 62
5
100
AcDbLine
 10
120.159083
 20
36.121958
 30
0.0
 11
119.252605
 21
36.122240
 31
0.0
  0
LINE
  5
238
100
AcDbEntity
  8
0
 62
5
100
AcDbLine
 10
119.252605
 20
36.122240
 30
0.0
 11
119.252605
 21
35.616904
 31
0.0
  0
LINE
  5
239
100
AcDbEntity
  8
0
 62
5
100
AcDbLine
 10
119.252605
 20
35.616904
 30
0.0
 11
120.818456
 21
35.616904
 31
0.0
  0
SPLINE
  5
23a
100
AcDbEntity
  8
0
 62
5
100
AcDbSpline
 70
0
 71
3
 72
16
 73
12
 74
10
 40
0.000000
 40
0.000000
 40
0.000000
 40
0.000000
 40
0.594052
 40
1.926274
 40
3.438882
 40
6.074693
 40
8.833683
 40
11.469466
 40
12.982642
 40
14.315441
 40
14.909673
 40
14.909673
 40
14.909673
 40
14.909673
 10
162.784290
 20
64.472848
 30
0.0
 10
162.932759
 20
64.603855
 30
0.0
 10
163.414183
 20
65.028658
 30
0.0
 10
164.162718
 20
65.911980
 30
0.0
 10
164.839882
 20
67.672317
 30
0.0
 10
164.312447
 20
70.046108
 30
0.0
 10
162.979223
 20
72.355597
 30
0.0
 10
161.186814
 20
73.999043
 30
0.0
 10
159.323629
 20
74.293358
 30
0.0
 10
158.183763
 20
74.088129
 30
0.0
 10
157.574615
 20
73.884433
 30
0.0
 10
157.386774
 20
73.821620
 30
0.0
 11
162.784290
 21
64.472848
 31
0.0
 11
163.223787
 21
64.872525
 31
0.0
 11
164.064739
 21
65.905779
 31
0.0
 11
164.590846
 21
67.323945
 31
0.0
 11
164.206387
 21
69.931566
 31
0.0
 11
162.826907
 21
72.320931
 31
0.0
 11
160.760873
 21
73.957651
 31
0.0
 11
159.269201
 21
74.211851
 31
0.0
 11
157.953087
 21
74.001621
 31
0.0
 11
157.386774
 21
73.821620
 31
0.0
  0
LINE
  5
23b
100
AcDbEntity
  8
0
 62
5
100
AcDbLine
 10
110.023422
 20
35.616904
 30
0.0
 11
111.589258
 21
35.616904
 31
0.0
  0
LINE
  5
23c
100
AcDbEntity
  8
0
 62
5
100
AcDbLine
 10
111.589258
 20
35.616904
 30
0.0
 11
111.589258
 21
36.122534
 31
0.0
  0
LINE
  5
23d
100
AcDbEntity
  8
0
 62
5
100
AcDbLine
 10
111.589258
 20
36.122534
 30
0.0
 11
110.682783
 21
36.122252
 31
0.0
  0
LINE
  5
23e
100
AcDbEntity
  8
0
 62
5
100
AcDbLine
 10
120.159077
 20
36.121955
 30
0.0
 11
128.073889
 21
36.122144
 31
0.0
  0
LINE
  5
23f
100
AcDbEntity
  8
0
 62
5
100
AcDbLine
 10
102.767968
 20
36.122102
 30
0.0
 11
110.682780
 21
36.122291
 31
0.0
  0
LINE
  5
240
100
AcDbEntity
  8
0
 62
1
100
AcDbLine
 10
117.329689
 20
36.122342
 30
0.0
 11
113.512140
 21
36.122531
 31
0.0
  0
LINE
  5
241
100
AcDbEntity
  8
0
 62
5
100
AcDbLine
 10
191.339120
 20
57.936830
 30
0.0
 11
186.349259
 21
62.887140
 31
0.0
  0
LINE
  5
242
100
AcDbEntity
  8
0
 62
5
100
AcDbLine
 10
186.349259
 20
62.887140
 30
0.0
 11
171.023057
 21
62.887140
 31
0.0
  0
LINE
  5
243
100
AcDbEntity
  8
0
 62
5
100
AcDbLine
 10
171.023057
 20
62.887140
 30
0.0
 11
166.033196
 21
57.936830
 31
0.0
  0
LINE
  5
244
100
AcDbEntity
  8
0
 62
1
100
AcDbLine
 10
184.089175
 20
57.936641
 30
0.0
 11
191.339120
 21
57.936827
 31
0.0
  0
LINE
  5
245
100
AcDbEntity
  8
0
 62
1
100
AcDbLine
 10
166.033196
 20
57.936830
 30
0.0
 11
173.294139
 21
57.936641
 31
0.0
  0
SPLINE
  5
246
100
AcDbEntity
  8
0
 62
5
100
AcDbSpline
 70
0
 71
3
 72
16
 73
12
 74
10
 40
0.000000
 40
0.000000
 40
0.000000
 40
0.000000
 40
0.594052
 40
1.926273
 40
3.438880
 40
6.074691
 40
8.833683
 40
11.469466
 40
12.982641
 40
14.315438
 40
14.909670
 40
14.909670
 40
14.909670
 40
14.909670
 10
120.818456
 20
35.616904
 30
0.0
 10
120.779235
 20
35.422824
 30
0.0
 10
120.652056
 20
34.793497
 30
0.0
 10
120.261344
 20
33.703587
 30
0.0
 10
119.075429
 20
32.236978
 30
0.0
 10
116.755948
 20
31.506853
 30
0.0
 10
114.089260
 20
31.506715
 30
0.0
 10
111.769790
 20
32.237265
 30
0.0
 10
110.583312
 20
33.703671
 30
0.0
 10
110.191113
 20
34.793438
 30
0.0
 10
110.062945
 20
35.422823
 30
0.0
 10
110.023422
 20
35.616904
 30
0.0
 11
120.818456
 21
35.616904
 31
0.0
 11
120.692073
 21
35.036452
 31
0.0
 11
120.217725
 21
33.791540
 31
0.0
 11
119.252611
 21
32.626836
 31
0.0
 11
116.802114
 21
31.655975
 31
0.0
 11
114.043123
 21
31.655957
 31
0.0
 11
111.592665
 21
32.626836
 31
0.0
 11
110.626685
 21
33.791561
 31
0.0
 11
110.150693
 21
35.036463
 31
0.0
 11
110.023422
 21
35.616904
 31
0.0
  0
LINE
  5
247
100
AcDbEntity
  8
0
 62
5
100
AcDbLine
 10
174.180765
 20
58.528548
 30
0.0
 11
183.194957
 21
58.528548
 31
0.0
  0
SPLINE
  5
248
100
AcDbEntity
  8
0
 62
5
100
AcDbSpline
 70
0
 71
3
 72
10
 73
6
 74
4
 40
0.000000
 40
0.000000
 40
0.000000
 40
0.000000
 40
1.112710
 40
1.522655
 40
1.581219
 40
1.581219
 40
1.581219
 40
1.581219
 10
173.294139
 20
57.219294
 30
0.0
 10
173.502113
 20
57.526403
 30
0.0
 10
173.786709
 20
57.946658
 30
0.0
 10
174.082251
 20
58.383076
 30
0.0
 10
174.169819
 20
58.512385
 30
0.0
 10
174.180765
 20
58.528548
 30
0.0
 11
173.294139
 21
57.219294
 31
0.0
 11
173.918061
 21
58.140621
 31
0.0
 11
174.147927
 21
58.480057
 31
0.0
 11
174.180765
 21
58.528548
 31
0.0
  0
LINE
  5
249
100
AcDbEntity
  8
0
 62
5
100
AcDbLine
 10
178.569247
 20
36.122147
 30
0.0
 11
173.579386
 21
31.171837
 31
0.0
  0
LINE
  5
24a
100
AcDbEntity
  8
0
 62
5
100
AcDbLine
 10
173.579386
 20
31.171837
 30
0.0
 11
158.253184
 21
31.171837
 31
0.0
  0
LINE
  5
24b
100
AcDbEntity
  8
0
 62
5
100
AcDbLine
 10
158.253184
 20
31.171837
 30
0.0
 11
153.263323
 21
36.122147
 31
0.0
  0
LINE
  5
24c
100
AcDbEntity
  8
0
 62
1
100
AcDbLine
 10
171.319303
 20
36.122336
 30
0.0
 11
178.569247
 21
36.122150
 31
0.0
  0
LINE
  5
24d
100
AcDbEntity
  8
0
 62
1
100
AcDbLine
 10
153.263323
 20
36.122147
 30
0.0
 11
160.524266
 21
36.122336
 31
0.0
  0
SPLINE
  5
24e
100
AcDbEntity
  8
0
 62
5
100
AcDbSpline
 70
0
 71
3
 72
10
 73
6
 74
4
 40
0.000000
 40
0.000000
 40
0.000000
 40
0.000000
 40
0.058722
 40
0.469774
 40
1.585488
 40
1.585488
 40
1.585488
 40
1.585488
 10
183.194957
 20
58.528548
 30
0.0
 10
183.205997
 20
58.512385
 30
0.0
 10
183.294315
 20
58.383076
 30
0.0
 10
183.592388
 20
57.946658
 30
0.0
 10
183.879421
 20
57.526403
 30
0.0
 10
184.089175
 20
57.219294
 30
0.0
 11
183.194957
 21
58.528548
 31
0.0
 11
183.228076
 21
58.480057
 31
0.0
 11
183.459911
 21
58.140621
 31
0.0
 11
184.089175
 21
57.219294
 31
0.0
  0
LINE
  5
24f
100
AcDbEntity
  8
0
 62
5
100
AcDbLine
 10
161.410893
 20
35.530429
 30
0.0
 11
170.425085
 21
35.530429
 31
0.0
  0
SPLINE
  5
250
100
AcDbEntity
  8
0
 62
5
100
AcDbSpline
 70
0
 71
3
 72
10
 73
6
 74
4
 40
0.000000
 40
0.000000
 40
0.000000
 40
0.000000
 40
1.112710
 40
1.522655
 40
1.581219
 40
1.581219
 40
1.581219
 40
1.581219
 10
160.524266
 20
36.839683
 30
0.0
 10
160.732240
 20
36.532574
 30
0.0
 10
161.016836
 20
36.112320
 30
0.0
 10
161.312379
 20
35.675901
 30
0.0
 10
161.399947
 20
35.546592
 30
0.0
 10
161.410893
 20
35.530429
 30
0.0
 11
160.524266
 21
36.839683
 31
0.0
 11
161.148189
 21
35.918356
 31
0.0
 11
161.378055
 21
35.578920
 31
0.0
 11
161.410893
 21
35.530429
 31
0.0
  0
LINE
  5
251
100
AcDbEntity
  8
0
 62
1
100
AcDbLine
 10
178.627913
 20
36.122142
 30
0.0
 11
166.033196
 21
57.936830
 31
0.0
  0
LINE
  5
252
100
AcDbEntity
  8
0
 62
1
100
AcDbLine
 10
166.033196
 20
57.936830
 30
0.0
 11
140.668604
 21
57.936824
 31
0.0
  0
LINE
  5
253
100
AcDbEntity
  8
0
 62
1
100
AcDbLine
 10
166.033196
 20
57.936830
 30
0.0
 11
153.438479
 21
36.122142
 31
0.0
  0
LINE
  5
254
100
AcDbEntity
  8
0
 62
1
100
AcDbLine
 10
153.438482
 20
36.122144
 30
0.0
 11
128.073889
 21
36.122139
 31
0.0
  0
LINE
  5
255
100
AcDbEntity
  8
0
 62
5
100
AcDbLine
 10
187.264929
 20
51.183224
 30
0.0
 11
186.811446
 21
50.398333
 31
0.0
  0
LINE
  5
256
100
AcDbEntity
  8
0
 62
5
100
AcDbLine
 10
186.811446
 20
50.398333
 30
0.0
 11
187.249082
 21
50.145662
 31
0.0
  0
LINE
  5
257
100
AcDbEntity
  8
0
 62
5
100
AcDbLine
 10
187.249082
 20
50.145662
 30
0.0
 11
188.032006
 21
51.501729
 31
0.0
  0
SPLINE
  5
258
100
AcDbEntity
  8
0
 62
5
100
AcDbSpline
 70
0
 71
3
 72
10
 73
6
 74
4
 40
0.000000
 40
0.000000
 40
0.000000
 40
0.000000
 40
0.058722
 40
0.469774
 40
1.585488
 40
1.585488
 40
1.585488
 40
1.585488
 10
170.425085
 20
35.530429
 30
0.0
 10
170.436124
 20
35.546592
 30
0.0
 10
170.524442
 20
35.675901
 30
0.0
 10
170.822515
 20
36.112320
 30
0.0
 10
171.109548
 20
36.532574
 30
0.0
 10
171.319303
 20
36.839683
 30
0.0
 11
170.425085
 21
35.530429
 31
0.0
 11
170.458204
 21
35.578920
 31
0.0
 11
170.690038
 21
35.918356
 31
0.0
 11
171.319303
 21
36.839683
 31
0.0
  0
LINE
  5
259
100
AcDbEntity
  8
0
 62
5
100
AcDbLine
 10
182.634489
 20
42.152957
 30
0.0
 11
183.417410
 21
43.509012
 31
0.0
  0
LINE
  5
25a
100
AcDbEntity
  8
0
 62
5
100
AcDbLine
 10
183.417410
 20
43.509012
 30
0.0
 11
182.979523
 21
43.761827
 31
0.0
  0
LINE
  5
25b
100
AcDbEntity
  8
0
 62
5
100
AcDbLine
 10
182.979523
 20
43.761827
 30
0.0
 11
182.526528
 21
42.976653
 31
0.0
  0
LINE
  5
25c
100
AcDbEntity
  8
0
 62
5
100
AcDbLine
 10
187.264932
 20
51.183218
 30
0.0
 11
191.222176
 21
58.037741
 31
0.0
  0
LINE
  5
25d
100
AcDbEntity
  8
0
 62
5
100
AcDbLine
 10
178.569247
 20
36.122147
 30
0.0
 11
182.526491
 21
42.976670
 31
0.0
  0
LINE
  5
25e
100
AcDbEntity
  8
0
 62
1
100
AcDbLine
 10
185.849901
 20
48.733089
 30
0.0
 11
183.940964
 21
45.427087
 31
0.0
  0
LINE
  5
25f
100
AcDbEntity
  8
0
 62
5
100
AcDbLine
 10
149.364288
 20
29.368527
 30
0.0
 11
148.910805
 21
28.583636
 31
0.0
  0
LINE
  5
260
100
AcDbEntity
  8
0
 62
5
100
AcDbLine
 10
148.910805
 20
28.583636
 30
0.0
 11
149.348441
 21
28.330965
 31
0.0
  0
LINE
  5
261
100
AcDbEntity
  8
0
 62
5
100
AcDbLine
 10
149.348441
 20
28.330965
 30
0.0
 11
150.131365
 21
29.687032
 31
0.0
  0
SPLINE
  5
262
100
AcDbEntity
  8
0
 62
5
100
AcDbSpline
 70
0
 71
3
 72
16
 73
12
 74
10
 40
0.000000
 40
0.000000
 40
0.000000
 40
0.000000
 40
0.594052
 40
1.926274
 40
3.438882
 40
6.074693
 40
8.833683
 40
11.469466
 40
12.982642
 40
14.315441
 40
14.909673
 40
14.909673
 40
14.909673
 40
14.909673
 10
188.032006
 20
51.501729
 30
0.0
 10
188.180475
 20
51.370722
 30
0.0
 10
188.661899
 20
50.945919
 30
0.0
 10
189.410434
 20
50.062596
 30
0.0
 10
190.087598
 20
48.302260
 30
0.0
 10
189.560163
 20
45.928468
 30
0.0
 10
188.226939
 20
43.618980
 30
0.0
 10
186.434530
 20
41.975534
 30
0.0
 10
184.571345
 20
41.681219
 30
0.0
 10
183.431479
 20
41.886448
 30
0.0
 10
182.822330
 20
42.090144
 30
0.0
 10
182.634489
 20
42.152957
 30
0.0
 11
188.032006
 21
51.501729
 31
0.0
 11
188.471502
 21
51.102052
 31
0.0
 11
189.312455
 21
50.068798
 31
0.0
 11
189.838561
 21
48.650632
 31
0.0
 11
189.454103
 21
46.043011
 31
0.0
 11
188.074623
 21
43.653646
 31
0.0
 11
186.008589
 21
42.016926
 31
0.0
 11
184.516917
 21
41.762726
 31
0.0
 11
183.200803
 21
41.972956
 31
0.0
 11
182.634489
 21
42.152957
 31
0.0
  0
LINE
  5
263
100
AcDbEntity
  8
0
 62
5
100
AcDbLine
 10
144.733848
 20
20.338260
 30
0.0
 11
145.516769
 21
21.694315
 31
0.0
  0
LINE
  5
264
100
AcDbEntity
  8
0
 62
5
100
AcDbLine
 10
145.516769
 20
21.694315
 30
0.0
 11
145.078882
 21
21.947130
 31
0.0
  0
LINE
  5
265
100
AcDbEntity
  8
0
 62
5
100
AcDbLine
 10
145.078882
 20
21.947130
 30
0.0
 11
144.625887
 21
21.161956
 31
0.0
  0
LINE
  5
266
100
AcDbEntity
  8
0
 62
5
100
AcDbLine
 10
149.364291
 20
29.368521
 30
0.0
 11
153.321535
 21
36.223044
 31
0.0
  0
LINE
  5
267
100
AcDbEntity
  8
0
 62
5
100
AcDbLine
 10
140.668606
 20
14.307450
 30
0.0
 11
144.625850
 21
21.161973
 31
0.0
  0
LINE
  5
268
100
AcDbEntity
  8
0
 62
1
100
AcDbLine
 10
147.949260
 20
26.918392
 30
0.0
 11
146.040323
 21
23.612390
 31
0.0
  0
LINE
  5
269
100
AcDbEntity
  8
0
 62
5
100
AcDbLine
 10
128.015647
 20
36.223025
 30
0.0
 11
126.223482
 21
29.426524
 31
0.0
  0
LINE
  5
26a
100
AcDbEntity
  8
0
 62
5
100
AcDbLine
 10
126.223482
 20
29.426524
 30
0.0
 11
133.886583
 21
16.153641
 31
0.0
  0
LINE
  5
26b
100
AcDbEntity
  8
0
 62
5
100
AcDbLine
 10
133.886583
 20
16.153641
 30
0.0
 11
140.668606
 21
14.307450
 31
0.0
  0
LINE
  5
26c
100
AcDbEntity
  8
0
 62
1
100
AcDbLine
 10
131.640783
 20
29.944481
 30
0.0
 11
128.015647
 21
36.223025
 31
0.0
  0
LINE
  5
26d
100
AcDbEntity
  8
0
 62
1
100
AcDbLine
 10
140.668606
 20
14.307450
 30
0.0
 11
137.038300
 21
20.595706
 31
0.0
  0
SPLINE
  5
26e
100
AcDbEntity
  8
0
 62
5
100
AcDbSpline
 70
0
 71
3
 72
16
 73
12
 74
10
 40
0.000000
 40
0.000000
 40
0.000000
 40
0.000000
 40
0.594052
 40
1.926274
 40
3.438882
 40
6.074693
 40
8.833683
 40
11.469466
 40
12.982642
 40
14.315441
 40
14.909673
 40
14.909673
 40
14.909673
 40
14.909673
 10
150.131365
 20
29.687032
 30
0.0
 10
150.279834
 20
29.556025
 30
0.0
 10
150.761258
 20
29.131222
 30
0.0
 10
151.509793
 20
28.247900
 30
0.0
 10
152.186957
 20
26.487563
 30
0.0
 10
151.659522
 20
24.113772
 30
0.0
 10
150.326298
 20
21.804283
 30
0.0
 10
148.533889
 20
20.160837
 30
0.0
 10
146.670704
 20
19.866522
 30
0.0
 10
145.530838
 20
20.071751
 30
0.0
 10
144.921689
 20
20.275447
 30
0.0
 10
144.733848
 20
20.338260
 30
0.0
 11
150.131365
 21
29.687032
 31
0.0
 11
150.570861
 21
29.287355
 31
0.0
 11
151.411814
 21
28.254101
 31
0.0
 11
151.937920
 21
26.835935
 31
0.0
 11
151.553462
 21
24.228314
 31
0.0
 11
150.173982
 21
21.838949
 31
0.0
 11
148.107948
 21
20.202229
 31
0.0
 11
146.616276
 21
19.948029
 31
0.0
 11
145.300162
 21
20.158259
 31
0.0
 11
144.733848
 21
20.338260
 31
0.0
  0
LINE
  5
26f
100
AcDbEntity
  8
0
 62
5
100
AcDbLine
 10
136.082382
 20
21.067593
 30
0.0
 11
131.575285
 21
28.874113
 31
0.0
  0
SPLINE
  5
270
100
AcDbEntity
  8
0
 62
5
100
AcDbSpline
 70
0
 71
3
 72
10
 73
6
 74
4
 40
0.000000
 40
0.000000
 40
0.000000
 40
0.000000
 40
1.112709
 40
1.522654
 40
1.581217
 40
1.581217
 40
1.581217
 40
1.581217
 10
137.659542
 20
20.954382
 30
0.0
 10
137.289591
 20
20.980938
 30
0.0
 10
136.783342
 20
21.017277
 30
0.0
 10
136.257622
 20
21.055014
 30
0.0
 10
136.101854
 20
21.066195
 30
0.0
 10
136.082382
 20
21.067593
 30
0.0
 11
137.659542
 21
20.954382
 31
0.0
 11
136.549689
 21
21.034049
 31
0.0
 11
136.140796
 21
21.063400
 31
0.0
 11
136.082382
 21
21.067593
 31
0.0
  0
LINE
  5
271
100
AcDbEntity
  8
0
 62
5
100
AcDbLine
 10
144.625850
 20
64.791347
 30
0.0
 11
145.079333
 21
65.576238
 31
0.0
  0
LINE
  5
272
100
AcDbEntity
  8
0
 62
5
100
AcDbLine
 10
145.079333
 20
65.576238
 30
0.0
 11
144.641697
 21
65.828909
 31
0.0
  0
LINE
  5
273
100
AcDbEntity
  8
0
 62
5
100
AcDbLine
 10
144.641697
 20
65.828909
 30
0.0
 11
143.858773
 21
64.472843
 31
0.0
  0
SPLINE
  5
274
100
AcDbEntity
  8
0
 62
5
100
AcDbSpline
 70
0
 71
3
 72
10
 73
6
 74
4
 40
0.000000
 40
0.000000
 40
0.000000
 40
0.000000
 40
0.058722
 40
0.469774
 40
1.585487
 40
1.585487
 40
1.585487
 40
1.585487
 10
131.575285
 20
28.874113
 30
0.0
 10
131.583763
 20
28.891756
 30
0.0
 10
131.651589
 20
29.032896
 30
0.0
 10
131.880503
 20
29.509242
 30
0.0
 10
132.100938
 20
29.967947
 30
0.0
 10
132.262025
 20
30.303154
 30
0.0
 11
131.575285
 21
28.874113
 31
0.0
 11
131.600720
 21
28.927041
 31
0.0
 11
131.778764
 21
29.297533
 31
0.0
 11
132.262025
 21
30.303154
 31
0.0
  0
LINE
  5
275
100
AcDbEntity
  8
0
 62
5
100
AcDbLine
 10
149.256290
 20
73.821615
 30
0.0
 11
148.473369
 21
72.465559
 31
0.0
  0
LINE
  5
276
100
AcDbEntity
  8
0
 62
5
100
AcDbLine
 10
148.473369
 20
72.465559
 30
0.0
 11
148.911256
 21
72.212745
 31
0.0
  0
LINE
  5
277
100
AcDbEntity
  8
0
 62
5
100
AcDbLine
 10
148.911256
 20
72.212745
 30
0.0
 11
149.364251
 21
72.997918
 31
0.0
  0
LINE
  5
278
100
AcDbEntity
  8
0
 62
5
100
AcDbLine
 10
144.625847
 20
64.791353
 30
0.0
 11
140.668604
 21
57.936830
 31
0.0
  0
LINE
  5
279
100
AcDbEntity
  8
0
 62
5
100
AcDbLine
 10
153.321532
 20
79.852424
 30
0.0
 11
149.364288
 21
72.997901
 31
0.0
  0
LINE
  5
27a
100
AcDbEntity
  8
0
 62
1
100
AcDbLine
 10
146.040879
 20
67.241482
 30
0.0
 11
147.949816
 21
70.547484
 31
0.0
  0
LINE
  5
27b
100
AcDbEntity
  8
0
 62
5
100
AcDbLine
 10
140.668606
 20
57.936836
 30
0.0
 11
135.678745
 21
62.887146
 31
0.0
  0
LINE
  5
27c
100
AcDbEntity
  8
0
 62
5
100
AcDbLine
 10
135.678745
 20
62.887146
 30
0.0
 11
120.352543
 21
62.887146
 31
0.0
  0
LINE
  5
27d
100
AcDbEntity
  8
0
 62
5
100
AcDbLine
 10
120.352543
 20
62.887146
 30
0.0
 11
115.362682
 21
57.936836
 31
0.0
  0
LINE
  5
27e
100
AcDbEntity
  8
0
 62
1
100
AcDbLine
 10
133.418662
 20
57.936646
 30
0.0
 11
140.668606
 21
57.936833
 31
0.0
  0
LINE
  5
27f
100
AcDbEntity
  8
0
 62
1
100
AcDbLine
 10
115.362682
 20
57.936836
 30
0.0
 11
122.623625
 21
57.936646
 31
0.0
  0
SPLINE
  5
280
100
AcDbEntity
  8
0
 62
5
100
AcDbSpline
 70
0
 71
3
 72
16
 73
12
 74
10
 40
0.000000
 40
0.000000
 40
0.000000
 40
0.000000
 40
0.594052
 40
1.926274
 40
3.438882
 40
6.074693
 40
8.833683
 40
11.469466
 40
12.982642
 40
14.315441
 40
14.909673
 40
14.909673
 40
14.909673
 40
14.909673
 10
143.858773
 20
64.472843
 30
0.0
 10
143.710304
 20
64.603849
 30
0.0
 10
143.228880
 20
65.028652
 30
0.0
 10
142.480346
 20
65.911975
 30
0.0
 10
141.803181
 20
67.672311
 30
0.0
 10
142.330616
 20
70.046103
 30
0.0
 10
143.663841
 20
72.355591
 30
0.0
 10
145.456249
 20
73.999037
 30
0.0
 10
147.319434
 20
74.293353
 30
0.0
 10
148.459300
 20
74.088123
 30
0.0
 10
149.068449
 20
73.884428
 30
0.0
 10
149.256290
 20
73.821615
 30
0.0
 11
143.858773
 21
64.472843
 31
0.0
 11
143.419277
 21
64.872519
 31
0.0
 11
142.578324
 21
65.905773
 31
0.0
 11
142.052218
 21
67.323939
 31
0.0
 11
142.436676
 21
69.931560
 31
0.0
 11
143.816156
 21
72.320925
 31
0.0
 11
145.882191
 21
73.957646
 31
0.0
 11
147.373862
 21
74.211846
 31
0.0
 11
148.689976
 21
74.001615
 31
0.0
 11
149.256290
 21
73.821615
 31
0.0
  0
LINE
  5
281
100
AcDbEntity
  8
0
 62
5
100
AcDbLine
 10
123.510252
 20
58.528554
 30
0.0
 11
132.524444
 21
58.528554
 31
0.0
  0
SPLINE
  5
282
100
AcDbEntity
  8
0
 62
5
100
AcDbSpline
 70
0
 71
3
 72
10
 73
6
 74
4
 40
0.000000
 40
0.000000
 40
0.000000
 40
0.000000
 40
1.112710
 40
1.522655
 40
1.581219
 40
1.581219
 40
1.581219
 40
1.581219
 10
122.623625
 20
57.219300
 30
0.0
 10
122.831599
 20
57.526409
 30
0.0
 10
123.116195
 20
57.946663
 30
0.0
 10
123.411738
 20
58.383081
 30
0.0
 10
123.499306
 20
58.512390
 30
0.0
 10
123.510252
 20
58.528554
 30
0.0
 11
122.623625
 21
57.219300
 31
0.0
 11
123.247548
 21
58.140627
 31
0.0
 11
123.477414
 21
58.480063
 31
0.0
 11
123.510252
 21
58.528554
 31
0.0
  0
LINE
  5
283
100
AcDbEntity
  8
0
 62
5
100
AcDbLine
 10
20.803940
 20
-14.911928
 30
0.0
 11
19.011775
 21
-8.115427
 31
0.0
  0
LINE
  5
284
100
AcDbEntity
  8
0
 62
5
100
AcDbLine
 10
19.011775
 20
-8.115427
 30
0.0
 11
26.674877
 21
5.157456
 31
0.0
  0
LINE
  5
285
100
AcDbEntity
  8
0
 62
5
100
AcDbLine
 10
26.674877
 20
5.157456
 30
0.0
 11
33.456900
 21
7.003646
 31
0.0
  0
LINE
  5
286
100
AcDbEntity
  8
0
 62
1
100
AcDbLine
 10
24.429076
 20
-8.633384
 30
0.0
 11
20.803941
 21
-14.911928
 31
0.0
  0
LINE
  5
287
100
AcDbEntity
  8
0
 62
1
100
AcDbLine
 10
33.456900
 20
7.003646
 30
0.0
 11
29.826593
 21
0.715391
 31
0.0
  0
SPLINE
  5
288
100
AcDbEntity
  8
0
 62
5
100
AcDbSpline
 70
0
 71
3
 72
10
 73
6
 74
4
 40
0.000000
 40
0.000000
 40
0.000000
 40
0.000000
 40
0.058722
 40
0.469774
 40
1.585488
 40
1.585488
 40
1.585488
 40
1.585488
 10
132.524444
 20
58.528554
 30
0.0
 10
132.535483
 20
58.512390
 30
0.0
 10
132.623801
 20
58.383081
 30
0.0
 10
132.921874
 20
57.946663
 30
0.0
 10
133.208907
 20
57.526409
 30
0.0
 10
133.418662
 20
57.219300
 30
0.0
 11
132.524444
 21
58.528554
 31
0.0
 11
132.557563
 21
58.480063
 31
0.0
 11
132.789397
 21
58.140627
 31
0.0
 11
133.418662
 21
57.219300
 31
0.0
  0
LINE
  5
289
100
AcDbEntity
  8
0
 62
5
100
AcDbLine
 10
28.870676
 20
0.243504
 30
0.0
 11
24.363578
 21
-7.563017
 31
0.0
  0
SPLINE
  5
28a
100
AcDbEntity
  8
0
 62
5
100
AcDbSpline
 70
0
 71
3
 72
10
 73
6
 74
4
 40
0.000000
 40
0.000000
 40
0.000000
 40
0.000000
 40
1.112709
 40
1.522654
 40
1.581217
 40
1.581217
 40
1.581217
 40
1.581217
 10
30.447835
 20
0.356715
 30
0.0
 10
30.077884
 20
0.330159
 30
0.0
 10
29.571635
 20
0.293820
 30
0.0
 10
29.045916
 20
0.256083
 30
0.0
 10
28.890147
 20
0.244902
 30
0.0
 10
28.870676
 20
0.243504
 30
0.0
 11
30.447835
 21
0.356715
 31
0.0
 11
29.337982
 21
0.277048
 31
0.0
 11
28.929089
 21
0.247697
 31
0.0
 11
28.870676
 21
0.243504
 31
0.0
  0
LINE
  5
28b
100
AcDbEntity
  8
0
 62
5
100
AcDbLine
 10
79.994943
 20
13.858169
 30
0.0
 11
79.541460
 21
14.643060
 31
0.0
  0
LINE
  5
28c
100
AcDbEntity
  8
0
 62
5
100
AcDbLine
 10
79.541460
 20
14.643060
 30
0.0
 11
79.979097
 21
14.895731
 31
0.0
  0
LINE
  5
28d
100
AcDbEntity
  8
0
 62
5
100
AcDbLine
 10
79.979097
 20
14.895731
 30
0.0
 11
80.762021
 21
13.539665
 31
0.0
  0
SPLINE
  5
28e
100
AcDbEntity
  8
0
 62
5
100
AcDbSpline
 70
0
 71
3
 72
10
 73
6
 74
4
 40
0.000000
 40
0.000000
 40
0.000000
 40
0.000000
 40
0.058722
 40
0.469774
 40
1.585487
 40
1.585487
 40
1.585487
 40
1.585487
 10
24.363578
 20
-7.563017
 30
0.0
 10
24.372056
 20
-7.580659
 30
0.0
 10
24.439882
 20
-7.721799
 30
0.0
 10
24.668795
 20
-8.198146
 30
0.0
 10
24.889230
 20
-8.656850
 30
0.0
 10
25.050317
 20
-8.992057
 30
0.0
 11
24.363578
 21
-7.563017
 31
0.0
 11
24.389013
 21
-7.615944
 31
0.0
 11
24.567056
 21
-7.986436
 31
0.0
 11
25.050317
 21
-8.992057
 31
0.0
  0
LINE
  5
28f
100
AcDbEntity
  8
0
 62
5
100
AcDbLine
 10
75.364504
 20
22.888437
 30
0.0
 11
76.147425
 21
21.532382
 31
0.0
  0
LINE
  5
290
100
AcDbEntity
  8
0
 62
5
100
AcDbLine
 10
76.147425
 20
21.532382
 30
0.0
 11
75.709537
 21
21.279567
 31
0.0
  0
LINE
  5
291
100
AcDbEntity
  8
0
 62
5
100
AcDbLine
 10
75.709537
 20
21.279567
 30
0.0
 11
75.256542
 21
22.064740
 31
0.0
  0
LINE
  5
292
100
AcDbEntity
  8
0
 62
5
100
AcDbLine
 10
79.994946
 20
13.858175
 30
0.0
 11
83.952190
 21
7.003652
 31
0.0
  0
LINE
  5
293
100
AcDbEntity
  8
0
 62
5
100
AcDbLine
 10
71.299262
 20
28.919246
 30
0.0
 11
75.256506
 21
22.064723
 31
0.0
  0
LINE
  5
294
100
AcDbEntity
  8
0
 62
1
100
AcDbLine
 10
78.579915
 20
16.308304
 30
0.0
 11
76.670978
 21
19.614306
 31
0.0
  0
LINE
  5
295
100
AcDbEntity
  8
0
 62
1
100
AcDbLine
 10
33.456903
 20
7.003644
 30
0.0
 11
46.051620
 21
-14.811045
 31
0.0
  0
LINE
  5
296
100
AcDbEntity
  8
0
 62
1
100
AcDbLine
 10
58.646337
 20
7.003649
 30
0.0
 11
71.241054
 21
-14.811042
 31
0.0
  0
LINE
  5
297
100
AcDbEntity
  8
0
 62
1
100
AcDbLine
 10
58.646334
 20
7.003646
 30
0.0
 11
46.051617
 21
-14.811042
 31
0.0
  0
LINE
  5
298
100
AcDbEntity
  8
0
 62
5
100
AcDbLine
 10
38.136813
 20
-14.811225
 30
0.0
 11
37.230335
 21
-14.810943
 31
0.0
  0
LINE
  5
299
100
AcDbEntity
  8
0
 62
5
100
AcDbLine
 10
37.230335
 20
-14.810943
 30
0.0
 11
37.230335
 21
-15.316279
 31
0.0
  0
LINE
  5
29a
100
AcDbEntity
  8
0
 62
5
100
AcDbLine
 10
37.230335
 20
-15.316279
 30
0.0
 11
38.796186
 21
-15.316279
 31
0.0
  0
SPLINE
  5
29b
100
AcDbEntity
  8
0
 62
5
100
AcDbSpline
 70
0
 71
3
 72
16
 73
12
 74
10
 40
0.000000
 40
0.000000
 40
0.000000
 40
0.000000
 40
0.594052
 40
1.926274
 40
3.438882
 40
6.074693
 40
8.833683
 40
11.469466
 40
12.982642
 40
14.315441
 40
14.909673
 40
14.909673
 40
14.909673
 40
14.909673
 10
80.762021
 20
13.539665
 30
0.0
 10
80.910489
 20
13.670672
 30
0.0
 10
81.391913
 20
14.095474
 30
0.0
 10
82.140448
 20
14.978797
 30
0.0
 10
82.817613
 20
16.739133
 30
0.0
 10
82.290178
 20
19.112925
 30
0.0
 10
80.956953
 20
21.422413
 30
0.0
 10
79.164544
 20
23.065859
 30
0.0
 10
77.301359
 20
23.360175
 30
0.0
 10
76.161493
 20
23.154945
 30
0.0
 10
75.552345
 20
22.951250
 30
0.0
 10
75.364504
 20
22.888437
 30
0.0
 11
80.762021
 21
13.539665
 31
0.0
 11
81.201517
 21
13.939341
 31
0.0
 11
82.042470
 21
14.972595
 31
0.0
 11
82.568576
 21
16.390761
 31
0.0
 11
82.184117
 21
18.998382
 31
0.0
 11
80.804637
 21
21.387747
 31
0.0
 11
78.738603
 21
23.024468
 31
0.0
 11
77.246931
 21
23.278668
 31
0.0
 11
75.930818
 21
23.068438
 31
0.0
 11
75.364504
 21
22.888437
 31
0.0
  0
LINE
  5
29c
100
AcDbEntity
  8
0
 62
5
100
AcDbLine
 10
28.001152
 20
-15.316279
 30
0.0
 11
29.566989
 21
-15.316279
 31
0.0
  0
LINE
  5
29d
100
AcDbEntity
  8
0
 62
5
100
AcDbLine
 10
29.566989
 20
-15.316279
 30
0.0
 11
29.566989
 21
-14.810650
 31
0.0
  0
LINE
  5
29e
100
AcDbEntity
  8
0
 62
5
100
AcDbLine
 10
29.566989
 20
-14.810650
 30
0.0
 11
28.660513
 21
-14.810932
 31
0.0
  0
LINE
  5
29f
100
AcDbEntity
  8
0
 62
5
100
AcDbLine
 10
38.136807
 20
-14.811228
 30
0.0
 11
46.051620
 21
-14.811039
 31
0.0
  0
LINE
  5
2a0
100
AcDbEntity
  8
0
 62
5
100
AcDbLine
 10
20.745697
 20
-14.811081
 30
0.0
 11
28.660511
 21
-14.810892
 31
0.0
  0
LINE
  5
2a1
100
AcDbEntity
  8
0
 62
1
100
AcDbLine
 10
35.307420
 20
-14.810842
 30
0.0
 11
31.489870
 21
-14.810653
 31
0.0
  0
LINE
  5
2a2
100
AcDbEntity
  8
0
 62
5
100
AcDbLine
 10
109.316850
 20
7.003646
 30
0.0
 11
104.326989
 21
11.953957
 31
0.0
  0
LINE
  5
2a3
100
AcDbEntity
  8
0
 62
5
100
AcDbLine
 10
104.326989
 20
11.953957
 30
0.0
 11
89.000787
 21
11.953957
 31
0.0
  0
LINE
  5
2a4
100
AcDbEntity
  8
0
 62
5
100
AcDbLine
 10
89.000787
 20
11.953957
 30
0.0
 11
84.010926
 21
7.003646
 31
0.0
  0
LINE
  5
2a5
100
AcDbEntity
  8
0
 62
1
100
AcDbLine
 10
102.066906
 20
7.003457
 30
0.0
 11
109.316850
 21
7.003644
 31
0.0
  0
LINE
  5
2a6
100
AcDbEntity
  8
0
 62
1
100
AcDbLine
 10
84.010926
 20
7.003646
 30
0.0
 11
91.271869
 21
7.003457
 31
0.0
  0
SPLINE
  5
2a7
100
AcDbEntity
  8
0
 62
5
100
AcDbSpline
 70
0
 71
3
 72
16
 73
12
 74
10
 40
0.000000
 40
0.000000
 40
0.000000
 40
0.000000
 40
0.594052
 40
1.926273
 40
3.438880
 40
6.074691
 40
8.833683
 40
11.469466
 40
12.982641
 40
14.315438
 40
14.909670
 40
14.909670
 40
14.909670
 40
14.909670
 10
38.796186
 20
-15.316279
 30
0.0
 10
38.756965
 20
-15.510360
 30
0.0
 10
38.629787
 20
-16.139686
 30
0.0
 10
38.239074
 20
-17.229597
 30
0.0
 10
37.053159
 20
-18.696205
 30
0.0
 10
34.733678
 20
-19.426330
 30
0.0
 10
32.066990
 20
-19.426469
 30
0.0
 10
29.747520
 20
-18.695919
 30
0.0
 10
28.561042
 20
-17.229512
 30
0.0
 10
28.168843
 20
-16.139746
 30
0.0
 10
28.040675
 20
-15.510360
 30
0.0
 10
28.001152
 20
-15.316279
 30
0.0
 11
38.796186
 21
-15.316279
 31
0.0
 11
38.669803
 21
-15.896732
 31
0.0
 11
38.195455
 21
-17.141644
 31
0.0
 11
37.230341
 21
-18.306347
 31
0.0
 11
34.779845
 21
-19.277208
 31
0.0
 11
32.020853
 21
-19.277226
 31
0.0
 11
29.570395
 21
-18.306347
 31
0.0
 11
28.604415
 21
-17.141623
 31
0.0
 11
28.128423
 21
-15.896721
 31
0.0
 11
28.001152
 21
-15.316279
 31
0.0
  0
LINE
  5
2a8
100
AcDbEntity
  8
0
 62
5
100
AcDbLine
 10
92.158495
 20
7.595365
 30
0.0
 11
101.172687
 21
7.595365
 31
0.0
  0
SPLINE
  5
2a9
100
AcDbEntity
  8
0
 62
5
100
AcDbSpline
 70
0
 71
3
 72
10
 73
6
 74
4
 40
0.000000
 40
0.000000
 40
0.000000
 40
0.000000
 40
1.112710
 40
1.522655
 40
1.581219
 40
1.581219
 40
1.581219
 40
1.581219
 10
91.271869
 20
6.286111
 30
0.0
 10
91.479843
 20
6.593220
 30
0.0
 10
91.764439
 20
7.013474
 30
0.0
 10
92.059981
 20
7.449892
 30
0.0
 10
92.147549
 20
7.579201
 30
0.0
 10
92.158495
 20
7.595365
 30
0.0
 11
91.271869
 21
6.286111
 31
0.0
 11
91.895791
 21
7.207438
 31
0.0
 11
92.125657
 21
7.546874
 31
0.0
 11
92.158495
 21
7.595365
 31
0.0
  0
LINE
  5
2aa
100
AcDbEntity
  8
0
 62
5
100
AcDbLine
 10
96.546978
 20
-14.811036
 30
0.0
 11
91.557117
 21
-19.761347
 31
0.0
  0
LINE
  5
2ab
100
AcDbEntity
  8
0
 62
5
100
AcDbLine
 10
91.557117
 20
-19.761347
 30
0.0
 11
76.230915
 21
-19.761347
 31
0.0
  0
LINE
  5
2ac
100
AcDbEntity
  8
0
 62
5
100
AcDbLine
 10
76.230915
 20
-19.761347
 30
0.0
 11
71.241054
 21
-14.811036
 31
0.0
  0
LINE
  5
2ad
100
AcDbEntity
  8
0
 62
1
100
AcDbLine
 10
89.297033
 20
-14.810847
 30
0.0
 11
96.546978
 21
-14.811034
 31
0.0
  0
LINE
  5
2ae
100
AcDbEntity
  8
0
 62
1
100
AcDbLine
 10
71.241054
 20
-14.811036
 30
0.0
 11
78.501996
 21
-14.810847
 31
0.0
  0
SPLINE
  5
2af
100
AcDbEntity
  8
0
 62
5
100
AcDbSpline
 70
0
 71
3
 72
10
 73
6
 74
4
 40
0.000000
 40
0.000000
 40
0.000000
 40
0.000000
 40
0.058722
 40
0.469774
 40
1.585488
 40
1.585488
 40
1.585488
 40
1.585488
 10
101.172687
 20
7.595365
 30
0.0
 10
101.183727
 20
7.579201
 30
0.0
 10
101.272045
 20
7.449892
 30
0.0
 10
101.570118
 20
7.013474
 30
0.0
 10
101.857151
 20
6.593220
 30
0.0
 10
102.066906
 20
6.286111
 30
0.0
 11
101.172687
 21
7.595365
 31
0.0
 11
101.205807
 21
7.546874
 31
0.0
 11
101.437641
 21
7.207438
 31
0.0
 11
102.066906
 21
6.286111
 31
0.0
  0
LINE
  5
2b0
100
AcDbEntity
  8
0
 62
5
100
AcDbLine
 10
79.388623
 20
-15.402755
 30
0.0
 11
88.402815
 21
-15.402755
 31
0.0
  0
SPLINE
  5
2b1
100
AcDbEntity
  8
0
 62
5
100
AcDbSpline
 70
0
 71
3
 72
10
 73
6
 74
4
 40
0.000000
 40
0.000000
 40
0.000000
 40
0.000000
 40
1.112710
 40
1.522655
 40
1.581219
 40
1.581219
 40
1.581219
 40
1.581219
 10
78.501996
 20
-14.093500
 30
0.0
 10
78.709970
 20
-14.400609
 30
0.0
 10
78.994567
 20
-14.820864
 30
0.0
 10
79.290109
 20
-15.257282
 30
0.0
 10
79.377677
 20
-15.386591
 30
0.0
 10
79.388623
 20
-15.402755
 30
0.0
 11
78.501996
 21
-14.093500
 31
0.0
 11
79.125919
 21
-15.014828
 31
0.0
 11
79.355785
 21
-15.354264
 31
0.0
 11
79.388623
 21
-15.402755
 31
0.0
  0
LINE
  5
2b2
100
AcDbEntity
  8
0
 62
1
100
AcDbLine
 10
96.605643
 20
-14.811042
 30
0.0
 11
84.010926
 21
7.003646
 31
0.0
  0
LINE
  5
2b3
100
AcDbEntity
  8
0
 62
1
100
AcDbLine
 10
84.010926
 20
7.003646
 30
0.0
 11
58.646334
 21
7.003641
 31
0.0
  0
LINE
  5
2b4
100
AcDbEntity
  8
0
 62
1
100
AcDbLine
 10
84.010926
 20
7.003646
 30
0.0
 11
71.416209
 21
-14.811042
 31
0.0
  0
LINE
  5
2b5
100
AcDbEntity
  8
0
 62
1
100
AcDbLine
 10
71.416212
 20
-14.811039
 30
0.0
 11
46.051620
 21
-14.811045
 31
0.0
  0
LINE
  5
2b6
100
AcDbEntity
  8
0
 62
5
100
AcDbLine
 10
105.242659
 20
0.250040
 30
0.0
 11
104.789176
 21
-0.534851
 31
0.0
  0
LINE
  5
2b7
100
AcDbEntity
  8
0
 62
5
100
AcDbLine
 10
104.789176
 20
-0.534851
 30
0.0
 11
105.226812
 21
-0.787521
 31
0.0
  0
LINE
  5
2b8
100
AcDbEntity
  8
0
 62
5
100
AcDbLine
 10
105.226812
 20
-0.787521
 30
0.0
 11
106.009736
 21
0.568545
 31
0.0
  0
SPLINE
  5
2b9
100
AcDbEntity
  8
0
 62
5
100
AcDbSpline
 70
0
 71
3
 72
10
 73
6
 74
4
 40
0.000000
 40
0.000000
 40
0.000000
 40
0.000000
 40
0.058722
 40
0.469774
 40
1.585488
 40
1.585488
 40
1.585488
 40
1.585488
 10
88.402815
 20
-15.402755
 30
0.0
 10
88.413854
 20
-15.386591
 30
0.0
 10
88.502172
 20
-15.257282
 30
0.0
 10
88.800245
 20
-14.820864
 30
0.0
 10
89.087278
 20
-14.400609
 30
0.0
 10
89.297033
 20
-14.093500
 30
0.0
 11
88.402815
 21
-15.402755
 31
0.0
 11
88.435934
 21
-15.354264
 31
0.0
 11
88.667768
 21
-15.014828
 31
0.0
 11
89.297033
 21
-14.093500
 31
0.0
  0
LINE
  5
2ba
100
AcDbEntity
  8
0
 62
5
100
AcDbLine
 10
100.612219
 20
-8.780227
 30
0.0
 11
101.395141
 21
-7.424172
 31
0.0
  0
LINE
  5
2bb
100
AcDbEntity
  8
0
 62
5
100
AcDbLine
 10
101.395141
 20
-7.424172
 30
0.0
 11
100.957253
 21
-7.171357
 31
0.0
  0
LINE
  5
2bc
100
AcDbEntity
  8
0
 62
5
100
AcDbLine
 10
100.957253
 20
-7.171357
 30
0.0
 11
100.504258
 21
-7.956530
 31
0.0
  0
LINE
  5
2bd
100
AcDbEntity
  8
0
 62
5
100
AcDbLine
 10
105.242662
 20
0.250035
 30
0.0
 11
109.199906
 21
7.104558
 31
0.0
  0
LINE
  5
2be
100
AcDbEntity
  8
0
 62
5
100
AcDbLine
 10
96.546978
 20
-14.811036
 30
0.0
 11
100.504221
 21
-7.956513
 31
0.0
  0
LINE
  5
2bf
100
AcDbEntity
  8
0
 62
1
100
AcDbLine
 10
103.827631
 20
-2.200094
 30
0.0
 11
101.918694
 21
-5.506096
 31
0.0
  0
LINE
  5
2c0
100
AcDbEntity
  8
0
 62
5
100
AcDbLine
 10
67.342018
 20
-21.564656
 30
0.0
 11
66.888535
 21
-22.349547
 31
0.0
  0
LINE
  5
2c1
100
AcDbEntity
  8
0
 62
5
100
AcDbLine
 10
66.888535
 20
-22.349547
 30
0.0
 11
67.326171
 21
-22.602218
 31
0.0
  0
LINE
  5
2c2
100
AcDbEntity
  8
0
 62
5
100
AcDbLine
 10
67.326171
 20
-22.602218
 30
0.0
 11
68.109095
 21
-21.246152
 31
0.0
  0
SPLINE
  5
2c3
100
AcDbEntity
  8
0
 62
5
100
AcDbSpline
 70
0
 71
3
 72
16
 73
12
 74
10
 40
0.000000
 40
0.000000
 40
0.000000
 40
0.000000
 40
0.594052
 40
1.926274
 40
3.438882
 40
6.074693
 40
8.833683
 40
11.469466
 40
12.982642
 40
14.315441
 40
14.909673
 40
14.909673
 40
14.909673
 40
14.909673
 10
106.009736
 20
0.568545
 30
0.0
 10
106.158205
 20
0.437538
 30
0.0
 10
106.639629
 20
0.012736
 30
0.0
 10
107.388164
 20
-0.870587
 30
0.0
 10
108.065328
 20
-2.630923
 30
0.0
 10
107.537893
 20
-5.004715
 30
0.0
 10
106.204669
 20
-7.314203
 30
0.0
 10
104.412260
 20
-8.957650
 30
0.0
 10
102.549075
 20
-9.251965
 30
0.0
 10
101.409209
 20
-9.046735
 30
0.0
 10
100.800060
 20
-8.843040
 30
0.0
 10
100.612219
 20
-8.780227
 30
0.0
 11
106.009736
 21
0.568545
 31
0.0
 11
106.449232
 21
0.168868
 31
0.0
 11
107.290185
 21
-0.864385
 31
0.0
 11
107.816292
 21
-2.282551
 31
0.0
 11
107.431833
 21
-4.890173
 31
0.0
 11
106.052353
 21
-7.279538
 31
0.0
 11
103.986319
 21
-8.916258
 31
0.0
 11
102.494647
 21
-9.170458
 31
0.0
 11
101.178533
 21
-8.960228
 31
0.0
 11
100.612219
 21
-8.780227
 31
0.0
  0
LINE
  5
2c4
100
AcDbEntity
  8
0
 62
5
100
AcDbLine
 10
62.711578
 20
-30.594924
 30
0.0
 11
63.494497
 21
-29.238869
 31
0.0
  0
LINE
  5
2c5
100
AcDbEntity
  8
0
 62
5
100
AcDbLine
 10
63.494497
 20
-29.238869
 30
0.0
 11
63.056609
 21
-28.986054
 31
0.0
  0
LINE
  5
2c6
100
AcDbEntity
  8
0
 62
5
100
AcDbLine
 10
63.056609
 20
-28.986054
 30
0.0
 11
62.603617
 21
-29.771227
 31
0.0
  0
LINE
  5
2c7
100
AcDbEntity
  8
0
 62
5
100
AcDbLine
 10
67.342018
 20
-21.564662
 30
0.0
 11
71.299262
 21
-14.710139
 31
0.0
  0
LINE
  5
2c8
100
AcDbEntity
  8
0
 62
5
100
AcDbLine
 10
58.646337
 20
-36.625733
 30
0.0
 11
62.603578
 21
-29.771210
 31
0.0
  0
LINE
  5
2c9
100
AcDbEntity
  8
0
 62
1
100
AcDbLine
 10
65.926990
 20
-24.014791
 30
0.0
 11
64.018050
 21
-27.320793
 31
0.0
  0
LINE
  5
2ca
100
AcDbEntity
  8
0
 62
5
100
AcDbLine
 10
45.993377
 20
-14.710159
 30
0.0
 11
44.201213
 21
-21.506660
 31
0.0
  0
LINE
  5
2cb
100
AcDbEntity
  8
0
 62
5
100
AcDbLine
 10
44.201213
 20
-21.506660
 30
0.0
 11
51.864314
 21
-34.779543
 31
0.0
  0
LINE
  5
2cc
100
AcDbEntity
  8
0
 62
5
100
AcDbLine
 10
51.864314
 20
-34.779543
 30
0.0
 11
58.646337
 21
-36.625733
 31
0.0
  0
LINE
  5
2cd
100
AcDbEntity
  8
0
 62
1
100
AcDbLine
 10
49.618513
 20
-20.988703
 30
0.0
 11
45.993377
 21
-14.710159
 31
0.0
  0
LINE
  5
2ce
100
AcDbEntity
  8
0
 62
1
100
AcDbLine
 10
58.646337
 20
-36.625733
 30
0.0
 11
55.016030
 21
-30.337478
 31
0.0
  0
SPLINE
  5
2cf
100
AcDbEntity
  8
0
 62
5
100
AcDbSpline
 70
0
 71
3
 72
16
 73
12
 74
10
 40
0.000000
 40
0.000000
 40
0.000000
 40
0.000000
 40
0.594052
 40
1.926273
 40
3.438880
 40
6.074691
 40
8.833682
 40
11.469465
 40
12.982640
 40
14.315437
 40
14.909669
 40
14.909669
 40
14.909669
 40
14.909669
 10
68.109095
 20
-21.246152
 30
0.0
 10
68.257564
 20
-21.377159
 30
0.0
 10
68.738987
 20
-21.801961
 30
0.0
 10
69.487521
 20
-22.685284
 30
0.0
 10
70.164684
 20
-24.445620
 30
0.0
 10
69.637250
 20
-26.819412
 30
0.0
 10
68.304025
 20
-29.128900
 30
0.0
 10
66.511616
 20
-30.772346
 30
0.0
 10
64.648432
 20
-31.066662
 30
0.0
 10
63.508567
 20
-30.861432
 30
0.0
 10
62.899419
 20
-30.657737
 30
0.0
 10
62.711578
 20
-30.594924
 30
0.0
 11
68.109095
 21
-21.246152
 31
0.0
 11
68.548591
 21
-21.645828
 31
0.0
 11
69.389542
 21
-22.679082
 31
0.0
 11
69.915648
 21
-24.097248
 31
0.0
 11
69.531189
 21
-26.704869
 31
0.0
 11
68.151709
 21
-29.094234
 31
0.0
 11
66.085675
 21
-30.730955
 31
0.0
 11
64.594004
 21
-30.985155
 31
0.0
 11
63.277892
 21
-30.774925
 31
0.0
 11
62.711578
 21
-30.594924
 31
0.0
  0
LINE
  5
2d0
100
AcDbEntity
  8
0
 62
5
100
AcDbLine
 10
54.060113
 20
-29.865591
 30
0.0
 11
49.553015
 21
-22.059070
 31
0.0
  0
SPLINE
  5
2d1
100
AcDbEntity
  8
0
 62
5
100
AcDbSpline
 70
0
 71
3
 72
10
 73
6
 74
4
 40
0.000000
 40
0.000000
 40
0.000000
 40
0.000000
 40
1.112709
 40
1.522654
 40
1.581217
 40
1.581217
 40
1.581217
 40
1.581217
 10
55.637272
 20
-29.978802
 30
0.0
 10
55.267321
 20
-29.952246
 30
0.0
 10
54.761072
 20
-29.915907
 30
0.0
 10
54.235353
 20
-29.878170
 30
0.0
 10
54.079584
 20
-29.866989
 30
0.0
 10
54.060113
 20
-29.865591
 30
0.0
 11
55.637272
 21
-29.978802
 31
0.0
 11
54.527419
 21
-29.899135
 31
0.0
 11
54.118526
 21
-29.869784
 31
0.0
 11
54.060113
 21
-29.865591
 31
0.0
  0
LINE
  5
2d2
100
AcDbEntity
  8
0
 62
5
100
AcDbLine
 10
62.603580
 20
13.858164
 30
0.0
 11
63.057064
 21
14.643055
 31
0.0
  0
LINE
  5
2d3
100
AcDbEntity
  8
0
 62
5
100
AcDbLine
 10
63.057064
 20
14.643055
 30
0.0
 11
62.619427
 21
14.895726
 31
0.0
  0
LINE
  5
2d4
100
AcDbEntity
  8
0
 62
5
100
AcDbLine
 10
62.619427
 20
14.895726
 30
0.0
 11
61.836503
 21
13.539659
 31
0.0
  0
SPLINE
  5
2d5
100
AcDbEntity
  8
0
 62
5
100
AcDbSpline
 70
0
 71
3
 72
10
 73
6
 74
4
 40
0.000000
 40
0.000000
 40
0.000000
 40
0.000000
 40
0.058722
 40
0.469774
 40
1.585487
 40
1.585487
 40
1.585487
 40
1.585487
 10
49.553015
 20
-22.059070
 30
0.0
 10
49.561493
 20
-22.041428
 30
0.0
 10
49.629320
 20
-21.900288
 30
0.0
 10
49.858233
 20
-21.423941
 30
0.0
 10
50.078668
 20
-20.965237
 30
0.0
 10
50.239755
 20
-20.630030
 30
0.0
 11
49.553015
 21
-22.059070
 31
0.0
 11
49.578450
 21
-22.006143
 31
0.0
 11
49.756494
 21
-21.635651
 31
0.0
 11
50.239755
 21
-20.630030
 31
0.0
  0
LINE
  5
2d6
100
AcDbEntity
  8
0
 62
5
100
AcDbLine
 10
67.234020
 20
22.888431
 30
0.0
 11
66.451099
 21
21.532376
 31
0.0
  0
LINE
  5
2d7
100
AcDbEntity
  8
0
 62
5
100
AcDbLine
 10
66.451099
 20
21.532376
 30
0.0
 11
66.888987
 21
21.279561
 31
0.0
  0
LINE
  5
2d8
100
AcDbEntity
  8
0
 62
5
100
AcDbLine
 10
66.888987
 20
21.279561
 30
0.0
 11
67.341981
 21
22.064734
 31
0.0
  0
LINE
  5
2d9
100
AcDbEntity
  8
0
 62
5
100
AcDbLine
 10
62.603578
 20
13.858169
 30
0.0
 11
58.646334
 21
7.003646
 31
0.0
  0
LINE
  5
2da
100
AcDbEntity
  8
0
 62
5
100
AcDbLine
 10
71.299262
 20
28.919241
 30
0.0
 11
67.342018
 21
22.064718
 31
0.0
  0
LINE
  5
2db
100
AcDbEntity
  8
0
 62
1
100
AcDbLine
 10
64.018609
 20
16.308299
 30
0.0
 11
65.927546
 21
19.614301
 31
0.0
  0
LINE
  5
2dc
100
AcDbEntity
  8
0
 62
5
100
AcDbLine
 10
58.646337
 20
7.003652
 30
0.0
 11
53.656476
 21
11.953962
 31
0.0
  0
LINE
  5
2dd
100
AcDbEntity
  8
0
 62
5
100
AcDbLine
 10
53.656476
 20
11.953962
 30
0.0
 11
38.330274
 21
11.953962
 31
0.0
  0
LINE
  5
2de
100
AcDbEntity
  8
0
 62
5
100
AcDbLine
 10
38.330274
 20
11.953962
 30
0.0
 11
33.340413
 21
7.003652
 31
0.0
  0
LINE
  5
2df
100
AcDbEntity
  8
0
 62
1
100
AcDbLine
 10
51.396392
 20
7.003463
 30
0.0
 11
58.646337
 21
7.003649
 31
0.0
  0
LINE
  5
2e0
100
AcDbEntity
  8
0
 62
1
100
AcDbLine
 10
33.340413
 20
7.003652
 30
0.0
 11
40.601355
 21
7.003463
 31
0.0
  0
SPLINE
  5
2e1
100
AcDbEntity
  8
0
 62
5
100
AcDbSpline
 70
0
 71
3
 72
16
 73
12
 74
10
 40
0.000000
 40
0.000000
 40
0.000000
 40
0.000000
 40
0.594052
 40
1.926274
 40
3.438882
 40
6.074693
 40
8.833683
 40
11.469466
 40
12.982642
 40
14.315441
 40
14.909673
 40
14.909673
 40
14.909673
 40
14.909673
 10
61.836503
 20
13.539659
 30
0.0
 10
61.688035
 20
13.670666
 30
0.0
 10
61.206611
 20
14.095469
 30
0.0
 10
60.458076
 20
14.978791
 30
0.0
 10
59.780911
 20
16.739128
 30
0.0
 10
60.308346
 20
19.112919
 30
0.0
 10
61.641571
 20
21.422407
 30
0.0
 10
63.433979
 20
23.065854
 30
0.0
 10
65.297165
 20
23.360169
 30
0.0
 10
66.437031
 20
23.154940
 30
0.0
 10
67.046179
 20
22.951244
 30
0.0
 10
67.234020
 20
22.888431
 30
0.0
 11
61.836503
 21
13.539659
 31
0.0
 11
61.397007
 21
13.939336
 31
0.0
 11
60.556054
 21
14.972590
 31
0.0
 11
60.029948
 21
16.390755
 31
0.0
 11
60.414406
 21
18.998377
 31
0.0
 11
61.793886
 21
21.387742
 31
0.0
 11
63.859921
 21
23.024462
 31
0.0
 11
65.351592
 21
23.278662
 31
0.0
 11
66.667706
 21
23.068432
 31
0.0
 11
67.234020
 21
22.888431
 31
0.0
  0
LINE
  5
2e2
100
AcDbEntity
  8
0
 62
5
100
AcDbLine
 10
41.487982
 20
7.595370
 30
0.0
 11
50.502174
 21
7.595370
 31
0.0
  0
SPLINE
  5
2e3
100
AcDbEntity
  8
0
 62
5
100
AcDbSpline
 70
0
 71
3
 72
10
 73
6
 74
4
 40
0.000000
 40
0.000000
 40
0.000000
 40
0.000000
 40
1.112710
 40
1.522655
 40
1.581219
 40
1.581219
 40
1.581219
 40
1.581219
 10
40.601355
 20
6.286116
 30
0.0
 10
40.809329
 20
6.593225
 30
0.0
 10
41.093926
 20
7.013480
 30
0.0
 10
41.389468
 20
7.449898
 30
0.0
 10
41.477036
 20
7.579207
 30
0.0
 10
41.487982
 20
7.595370
 30
0.0
 11
40.601355
 21
6.286116
 31
0.0
 11
41.225278
 21
7.207443
 31
0.0
 11
41.455144
 21
7.546880
 31
0.0
 11
41.487982
 21
7.595370
 31
0.0
  0
LINE
  5
2e4
100
AcDbEntity
  8
0
 62
5
100
AcDbLine
 10
111.094585
 20
-15.242664
 30
0.0
 11
109.302420
 21
-8.446163
 31
0.0
  0
LINE
  5
2e5
100
AcDbEntity
  8
0
 62
5
100
AcDbLine
 10
109.302420
 20
-8.446163
 30
0.0
 11
116.965521
 21
4.826720
 31
0.0
  0
LINE
  5
2e6
100
AcDbEntity
  8
0
 62
5
100
AcDbLine
 10
116.965521
 20
4.826720
 30
0.0
 11
123.747544
 21
6.672910
 31
0.0
  0
LINE
  5
2e7
100
AcDbEntity
  8
0
 62
1
100
AcDbLine
 10
114.719721
 20
-8.964120
 30
0.0
 11
111.094585
 21
-15.242664
 31
0.0
  0
LINE
  5
2e8
100
AcDbEntity
  8
0
 62
1
100
AcDbLine
 10
123.747544
 20
6.672910
 30
0.0
 11
120.117238
 21
0.384655
 31
0.0
  0
SPLINE
  5
2e9
100
AcDbEntity
  8
0
 62
5
100
AcDbSpline
 70
0
 71
3
 72
10
 73
6
 74
4
 40
0.000000
 40
0.000000
 40
0.000000
 40
0.000000
 40
0.058722
 40
0.469774
 40
1.585488
 40
1.585488
 40
1.585488
 40
1.585488
 10
50.502174
 20
7.595370
 30
0.0
 10
50.513213
 20
7.579207
 30
0.0
 10
50.601531
 20
7.449898
 30
0.0
 10
50.899604
 20
7.013480
 30
0.0
 10
51.186637
 20
6.593225
 30
0.0
 10
51.396392
 20
6.286116
 30
0.0
 11
50.502174
 21
7.595370
 31
0.0
 11
50.535293
 21
7.546880
 31
0.0
 11
50.767127
 21
7.207443
 31
0.0
 11
51.396392
 21
6.286116
 31
0.0
  0
LINE
  5
2ea
100
AcDbEntity
  8
0
 62
5
100
AcDbLine
 10
119.161320
 20
-0.087232
 30
0.0
 11
114.654223
 21
-7.893753
 31
0.0
  0
SPLINE
  5
2eb
100
AcDbEntity
  8
0
 62
5
100
AcDbSpline
 70
0
 71
3
 72
10
 73
6
 74
4
 40
0.000000
 40
0.000000
 40
0.000000
 40
0.000000
 40
1.112709
 40
1.522654
 40
1.581217
 40
1.581217
 40
1.581217
 40
1.581217
 10
120.738479
 20
0.025979
 30
0.0
 10
120.368529
 20
-0.000577
 30
0.0
 10
119.862280
 20
-0.036916
 30
0.0
 10
119.336560
 20
-0.074653
 30
0.0
 10
119.180791
 20
-0.085834
 30
0.0
 10
119.161320
 20
-0.087232
 30
0.0
 11
120.738479
 21
0.025979
 31
0.0
 11
119.628627
 21
-0.053688
 31
0.0
 11
119.219733
 21
-0.083039
 31
0.0
 11
119.161320
 21
-0.087232
 31
0.0
  0
LINE
  5
2ec
100
AcDbEntity
  8
0
 62
5
100
AcDbLine
 10
170.285588
 20
13.527433
 30
0.0
 11
169.832105
 21
14.312324
 31
0.0
  0
LINE
  5
2ed
100
AcDbEntity
  8
0
 62
5
100
AcDbLine
 10
169.832105
 20
14.312324
 30
0.0
 11
170.269741
 21
14.564995
 31
0.0
  0
LINE
  5
2ee
100
AcDbEntity
  8
0
 62
5
100
AcDbLine
 10
170.269741
 20
14.564995
 30
0.0
 11
171.052665
 21
13.208929
 31
0.0
  0
SPLINE
  5
2ef
100
AcDbEntity
  8
0
 62
5
100
AcDbSpline
 70
0
 71
3
 72
10
 73
6
 74
4
 40
0.000000
 40
0.000000
 40
0.000000
 40
0.000000
 40
0.058722
 40
0.469774
 40
1.585487
 40
1.585487
 40
1.585487
 40
1.585487
 10
114.654223
 20
-7.893753
 30
0.0
 10
114.662701
 20
-7.911395
 30
0.0
 10
114.730527
 20
-8.052535
 30
0.0
 10
114.959440
 20
-8.528882
 30
0.0
 10
115.179875
 20
-8.987586
 30
0.0
 10
115.340963
 20
-9.322793
 30
0.0
 11
114.654223
 21
-7.893753
 31
0.0
 11
114.679658
 21
-7.946680
 31
0.0
 11
114.857701
 21
-8.317172
 31
0.0
 11
115.340963
 21
-9.322793
 31
0.0
  0
LINE
  5
2f0
100
AcDbEntity
  8
0
 62
5
100
AcDbLine
 10
165.655148
 20
22.557700
 30
0.0
 11
166.438069
 21
21.201645
 31
0.0
  0
LINE
  5
2f1
100
AcDbEntity
  8
0
 62
5
100
AcDbLine
 10
166.438069
 20
21.201645
 30
0.0
 11
166.000182
 21
20.948831
 31
0.0
  0
LINE
  5
2f2
100
AcDbEntity
  8
0
 62
5
100
AcDbLine
 10
166.000182
 20
20.948831
 30
0.0
 11
165.547187
 21
21.734004
 31
0.0
  0
LINE
  5
2f3
100
AcDbEntity
  8
0
 62
5
100
AcDbLine
 10
170.285591
 20
13.527439
 30
0.0
 11
174.242834
 21
6.672916
 31
0.0
  0
LINE
  5
2f4
100
AcDbEntity
  8
0
 62
5
100
AcDbLine
 10
161.589906
 20
28.588510
 30
0.0
 11
165.547150
 21
21.733987
 31
0.0
  0
LINE
  5
2f5
100
AcDbEntity
  8
0
 62
1
100
AcDbLine
 10
168.870559
 20
15.977568
 30
0.0
 11
166.961622
 21
19.283570
 31
0.0
  0
LINE
  5
2f6
100
AcDbEntity
  8
0
 62
1
100
AcDbLine
 10
123.747547
 20
6.672907
 30
0.0
 11
136.342264
 21
-15.141781
 31
0.0
  0
LINE
  5
2f7
100
AcDbEntity
  8
0
 62
1
100
AcDbLine
 10
148.936981
 20
6.672913
 30
0.0
 11
161.531698
 21
-15.141778
 31
0.0
  0
LINE
  5
2f8
100
AcDbEntity
  8
0
 62
1
100
AcDbLine
 10
148.936978
 20
6.672910
 30
0.0
 11
136.342261
 21
-15.141778
 31
0.0
  0
LINE
  5
2f9
100
AcDbEntity
  8
0
 62
5
100
AcDbLine
 10
128.427457
 20
-15.141962
 30
0.0
 11
127.520979
 21
-15.141679
 31
0.0
  0
LINE
  5
2fa
100
AcDbEntity
  8
0
 62
5
100
AcDbLine
 10
127.520979
 20
-15.141679
 30
0.0
 11
127.520979
 21
-15.647015
 31
0.0
  0
LINE
  5
2fb
100
AcDbEntity
  8
0
 62
5
100
AcDbLine
 10
127.520979
 20
-15.647015
 30
0.0
 11
129.086830
 21
-15.647015
 31
0.0
  0
SPLINE
  5
2fc
100
AcDbEntity
  8
0
 62
5
100
AcDbSpline
 70
0
 71
3
 72
16
 73
12
 74
10
 40
0.000000
 40
0.000000
 40
0.000000
 40
0.000000
 40
0.594052
 40
1.926274
 40
3.438882
 40
6.074693
 40
8.833683
 40
11.469466
 40
12.982642
 40
14.315441
 40
14.909673
 40
14.909673
 40
14.909673
 40
14.909673
 10
171.052665
 20
13.208929
 30
0.0
 10
171.201134
 20
13.339935
 30
0.0
 10
171.682558
 20
13.764738
 30
0.0
 10
172.431092
 20
14.648061
 30
0.0
 10
173.108257
 20
16.408397
 30
0.0
 10
172.580822
 20
18.782189
 30
0.0
 10
171.247597
 20
21.091677
 30
0.0
 10
169.455189
 20
22.735123
 30
0.0
 10
167.592004
 20
23.029439
 30
0.0
 10
166.452138
 20
22.824209
 30
0.0
 10
165.842989
 20
22.620513
 30
0.0
 10
165.655148
 20
22.557700
 30
0.0
 11
171.052665
 21
13.208929
 31
0.0
 11
171.492161
 21
13.608605
 31
0.0
 11
172.333114
 21
14.641859
 31
0.0
 11
172.859220
 21
16.060025
 31
0.0
 11
172.474762
 21
18.667646
 31
0.0
 11
171.095282
 21
21.057011
 31
0.0
 11
169.029247
 21
22.693732
 31
0.0
 11
167.537576
 21
22.947931
 31
0.0
 11
166.221462
 21
22.737701
 31
0.0
 11
165.655148
 21
22.557700
 31
0.0
  0
LINE
  5
2fd
100
AcDbEntity
  8
0
 62
5
100
AcDbLine
 10
118.291796
 20
-15.647015
 30
0.0
 11
119.857633
 21
-15.647015
 31
0.0
  0
LINE
  5
2fe
100
AcDbEntity
  8
0
 62
5
100
AcDbLine
 10
119.857633
 20
-15.647015
 30
0.0
 11
119.857633
 21
-15.141386
 31
0.0
  0
LINE
  5
2ff
100
AcDbEntity
  8
0
 62
5
100
AcDbLine
 10
119.857633
 20
-15.141386
 30
0.0
 11
118.951158
 21
-15.141668
 31
0.0
  0
LINE
  5
300
100
AcDbEntity
  8
0
 62
5
100
AcDbLine
 10
128.427452
 20
-15.141964
 30
0.0
 11
136.342264
 21
-15.141775
 31
0.0
  0
LINE
  5
301
100
AcDbEntity
  8
0
 62
5
100
AcDbLine
 10
111.036343
 20
-15.141818
 30
0.0
 11
118.951155
 21
-15.141629
 31
0.0
  0
LINE
  5
302
100
AcDbEntity
  8
0
 62
1
100
AcDbLine
 10
125.598064
 20
-15.141578
 30
0.0
 11
121.780514
 21
-15.141389
 31
0.0
  0
LINE
  5
303
100
AcDbEntity
  8
0
 62
5
100
AcDbLine
 10
199.607495
 20
6.672910
 30
0.0
 11
194.617634
 21
11.623221
 31
0.0
  0
LINE
  5
304
100
AcDbEntity
  8
0
 62
5
100
AcDbLine
 10
194.617634
 20
11.623221
 30
0.0
 11
179.291432
 21
11.623221
 31
0.0
  0
LINE
  5
305
100
AcDbEntity
  8
0
 62
5
100
AcDbLine
 10
179.291432
 20
11.623221
 30
0.0
 11
174.301571
 21
6.672910
 31
0.0
  0
LINE
  5
306
100
AcDbEntity
  8
0
 62
1
100
AcDbLine
 10
192.357550
 20
6.672721
 30
0.0
 11
199.607495
 21
6.672907
 31
0.0
  0
LINE
  5
307
100
AcDbEntity
  8
0
 62
1
100
AcDbLine
 10
174.301571
 20
6.672910
 30
0.0
 11
181.562513
 21
6.672721
 31
0.0
  0
SPLINE
  5
308
100
AcDbEntity
  8
0
 62
5
100
AcDbSpline
 70
0
 71
3
 72
16
 73
12
 74
10
 40
0.000000
 40
0.000000
 40
0.000000
 40
0.000000
 40
0.594052
 40
1.926273
 40
3.438880
 40
6.074691
 40
8.833683
 40
11.469466
 40
12.982641
 40
14.315438
 40
14.909670
 40
14.909670
 40
14.909670
 40
14.909670
 10
129.086830
 20
-15.647015
 30
0.0
 10
129.047609
 20
-15.841096
 30
0.0
 10
128.920431
 20
-16.470422
 30
0.0
 10
128.529718
 20
-17.560333
 30
0.0
 10
127.343804
 20
-19.026942
 30
0.0
 10
125.024323
 20
-19.757066
 30
0.0
 10
122.357634
 20
-19.757205
 30
0.0
 10
120.038164
 20
-19.026655
 30
0.0
 10
118.851687
 20
-17.560249
 30
0.0
 10
118.459488
 20
-16.470482
 30
0.0
 10
118.331319
 20
-15.841097
 30
0.0
 10
118.291796
 20
-15.647015
 30
0.0
 11
129.086830
 21
-15.647015
 31
0.0
 11
128.960448
 21
-16.227468
 31
0.0
 11
128.486100
 21
-17.472380
 31
0.0
 11
127.520985
 21
-18.637083
 31
0.0
 11
125.070489
 21
-19.607944
 31
0.0
 11
122.311498
 21
-19.607962
 31
0.0
 11
119.861039
 21
-18.637083
 31
0.0
 11
118.895060
 21
-17.472359
 31
0.0
 11
118.419068
 21
-16.227457
 31
0.0
 11
118.291796
 21
-15.647015
 31
0.0
  0
LINE
  5
309
100
AcDbEntity
  8
0
 62
5
100
AcDbLine
 10
182.449140
 20
7.264629
 30
0.0
 11
191.463332
 21
7.264629
 31
0.0
  0
SPLINE
  5
30a
100
AcDbEntity
  8
0
 62
5
100
AcDbSpline
 70
0
 71
3
 72
10
 73
6
 74
4
 40
0.000000
 40
0.000000
 40
0.000000
 40
0.000000
 40
1.112710
 40
1.522655
 40
1.581219
 40
1.581219
 40
1.581219
 40
1.581219
 10
181.562513
 20
5.955374
 30
0.0
 10
181.770487
 20
6.262483
 30
0.0
 10
182.055084
 20
6.682738
 30
0.0
 10
182.350626
 20
7.119156
 30
0.0
 10
182.438194
 20
7.248465
 30
0.0
 10
182.449140
 20
7.264629
 30
0.0
 11
181.562513
 21
5.955374
 31
0.0
 11
182.186436
 21
6.876701
 31
0.0
 11
182.416302
 21
7.216138
 31
0.0
 11
182.449140
 21
7.264629
 31
0.0
  0
LINE
  5
30b
100
AcDbEntity
  8
0
 62
5
100
AcDbLine
 10
186.837622
 20
-15.141773
 30
0.0
 11
181.847761
 21
-20.092083
 31
0.0
  0
LINE
  5
30c
100
AcDbEntity
  8
0
 62
5
100
AcDbLine
 10
181.847761
 20
-20.092083
 30
0.0
 11
166.521559
 21
-20.092083
 31
0.0
  0
LINE
  5
30d
100
AcDbEntity
  8
0
 62
5
100
AcDbLine
 10
166.521559
 20
-20.092083
 30
0.0
 11
161.531698
 21
-15.141773
 31
0.0
  0
LINE
  5
30e
100
AcDbEntity
  8
0
 62
1
100
AcDbLine
 10
179.587677
 20
-15.141583
 30
0.0
 11
186.837622
 21
-15.141770
 31
0.0
  0
LINE
  5
30f
100
AcDbEntity
  8
0
 62
1
100
AcDbLine
 10
161.531698
 20
-15.141773
 30
0.0
 11
168.792641
 21
-15.141583
 31
0.0
  0
SPLINE
  5
310
100
AcDbEntity
  8
0
 62
5
100
AcDbSpline
 70
0
 71
3
 72
10
 73
6
 74
4
 40
0.000000
 40
0.000000
 40
0.000000
 40
0.000000
 40
0.058722
 40
0.469774
 40
1.585488
 40
1.585488
 40
1.585488
 40
1.585488
 10
191.463332
 20
7.264629
 30
0.0
 10
191.474371
 20
7.248465
 30
0.0
 10
191.562689
 20
7.119156
 30
0.0
 10
191.860762
 20
6.682738
 30
0.0
 10
192.147795
 20
6.262483
 30
0.0
 10
192.357550
 20
5.955374
 30
0.0
 11
191.463332
 21
7.264629
 31
0.0
 11
191.496451
 21
7.216138
 31
0.0
 11
191.728285
 21
6.876701
 31
0.0
 11
192.357550
 21
5.955374
 31
0.0
  0
LINE
  5
311
100
AcDbEntity
  8
0
 62
5
100
AcDbLine
 10
169.679267
 20
-15.733491
 30
0.0
 11
178.693459
 21
-15.733491
 31
0.0
  0
SPLINE
  5
312
100
AcDbEntity
  8
0
 62
5
100
AcDbSpline
 70
0
 71
3
 72
10
 73
6
 74
4
 40
0.000000
 40
0.000000
 40
0.000000
 40
0.000000
 40
1.112710
 40
1.522655
 40
1.581219
 40
1.581219
 40
1.581219
 40
1.581219
 10
168.792641
 20
-14.424237
 30
0.0
 10
169.000615
 20
-14.731346
 30
0.0
 10
169.285211
 20
-15.151600
 30
0.0
 10
169.580753
 20
-15.588018
 30
0.0
 10
169.668321
 20
-15.717327
 30
0.0
 10
169.679267
 20
-15.733491
 30
0.0
 11
168.792641
 21
-14.424237
 31
0.0
 11
169.416563
 21
-15.345564
 31
0.0
 11
169.646429
 21
-15.685000
 31
0.0
 11
169.679267
 21
-15.733491
 31
0.0
  0
LINE
  5
313
100
AcDbEntity
  8
0
 62
1
100
AcDbLine
 10
186.896288
 20
-15.141778
 30
0.0
 11
174.301571
 21
6.672910
 31
0.0
  0
LINE
  5
314
100
AcDbEntity
  8
0
 62
1
100
AcDbLine
 10
174.301571
 20
6.672910
 30
0.0
 11
148.936978
 21
6.672905
 31
0.0
  0
LINE
  5
315
100
AcDbEntity
  8
0
 62
1
100
AcDbLine
 10
174.301571
 20
6.672910
 30
0.0
 11
161.706854
 21
-15.141778
 31
0.0
  0
LINE
  5
316
100
AcDbEntity
  8
0
 62
1
100
AcDbLine
 10
161.706856
 20
-15.141775
 30
0.0
 11
136.342264
 21
-15.141781
 31
0.0
  0
LINE
  5
317
100
AcDbEntity
  8
0
 62
5
100
AcDbLine
 10
195.533304
 20
-0.080696
 30
0.0
 11
195.079820
 21
-0.865587
 31
0.0
  0
LINE
  5
318
100
AcDbEntity
  8
0
 62
5
100
AcDbLine
 10
195.079820
 20
-0.865587
 30
0.0
 11
195.517457
 21
-1.118258
 31
0.0
  0
LINE
  5
319
100
AcDbEntity
  8
0
 62
5
100
AcDbLine
 10
195.517457
 20
-1.118258
 30
0.0
 11
196.300381
 21
0.237809
 31
0.0
  0
SPLINE
  5
31a
100
AcDbEntity
  8
0
 62
5
100
AcDbSpline
 70
0
 71
3
 72
10
 73
6
 74
4
 40
0.000000
 40
0.000000
 40
0.000000
 40
0.000000
 40
0.058722
 40
0.469774
 40
1.585488
 40
1.585488
 40
1.585488
 40
1.585488
 10
178.693459
 20
-15.733491
 30
0.0
 10
178.704499
 20
-15.717327
 30
0.0
 10
178.792817
 20
-15.588018
 30
0.0
 10
179.090889
 20
-15.151600
 30
0.0
 10
179.377922
 20
-14.731346
 30
0.0
 10
179.587677
 20
-14.424237
 30
0.0
 11
178.693459
 21
-15.733491
 31
0.0
 11
178.726578
 21
-15.685000
 31
0.0
 11
178.958413
 21
-15.345564
 31
0.0
 11
179.587677
 21
-14.424237
 31
0.0
  0
LINE
  5
31b
100
AcDbEntity
  8
0
 62
5
100
AcDbLine
 10
190.902864
 20
-9.110963
 30
0.0
 11
191.685785
 21
-7.754908
 31
0.0
  0
LINE
  5
31c
100
AcDbEntity
  8
0
 62
5
100
AcDbLine
 10
191.685785
 20
-7.754908
 30
0.0
 11
191.247897
 21
-7.502093
 31
0.0
  0
LINE
  5
31d
100
AcDbEntity
  8
0
 62
5
100
AcDbLine
 10
191.247897
 20
-7.502093
 30
0.0
 11
190.794902
 21
-8.287266
 31
0.0
  0
LINE
  5
31e
100
AcDbEntity
  8
0
 62
5
100
AcDbLine
 10
195.533306
 20
-0.080701
 30
0.0
 11
199.490550
 21
6.773822
 31
0.0
  0
LINE
  5
31f
100
AcDbEntity
  8
0
 62
5
100
AcDbLine
 10
186.837622
 20
-15.141773
 30
0.0
 11
190.794866
 21
-8.287250
 31
0.0
  0
LINE
  5
320
100
AcDbEntity
  8
0
 62
1
100
AcDbLine
 10
194.118275
 20
-2.530831
 30
0.0
 11
192.209338
 21
-5.836833
 31
0.0
  0
LINE
  5
321
100
AcDbEntity
  8
0
 62
5
100
AcDbLine
 10
157.632662
 20
-21.895393
 30
0.0
 11
157.179179
 21
-22.680284
 31
0.0
  0
LINE
  5
322
100
AcDbEntity
  8
0
 62
5
100
AcDbLine
 10
157.179179
 20
-22.680284
 30
0.0
 11
157.616816
 21
-22.932954
 31
0.0
  0
LINE
  5
323
100
AcDbEntity
  8
0
 62
5
100
AcDbLine
 10
157.616816
 20
-22.932954
 30
0.0
 11
158.399740
 21
-21.576888
 31
0.0
  0
SPLINE
  5
324
100
AcDbEntity
  8
0
 62
5
100
AcDbSpline
 70
0
 71
3
 72
16
 73
12
 74
10
 40
0.000000
 40
0.000000
 40
0.000000
 40
0.000000
 40
0.594052
 40
1.926274
 40
3.438882
 40
6.074693
 40
8.833683
 40
11.469466
 40
12.982642
 40
14.315441
 40
14.909673
 40
14.909673
 40
14.909673
 40
14.909673
 10
196.300381
 20
0.237809
 30
0.0
 10
196.448849
 20
0.106802
 30
0.0
 10
196.930273
 20
-0.318001
 30
0.0
 10
197.678808
 20
-1.201323
 30
0.0
 10
198.355973
 20
-2.961660
 30
0.0
 10
197.828538
 20
-5.335451
 30
0.0
 10
196.495313
 20
-7.644939
 30
0.0
 10
194.702904
 20
-9.288386
 30
0.0
 10
192.839719
 20
-9.582701
 30
0.0
 10
191.699853
 20
-9.377472
 30
0.0
 10
191.090705
 20
-9.173776
 30
0.0
 10
190.902864
 20
-9.110963
 30
0.0
 11
196.300381
 21
0.237809
 31
0.0
 11
196.739877
 21
-0.161868
 31
0.0
 11
197.580830
 21
-1.195122
 31
0.0
 11
198.106936
 21
-2.613287
 31
0.0
 11
197.722477
 21
-5.220909
 31
0.0
 11
196.342997
 21
-7.610274
 31
0.0
 11
194.276963
 21
-9.246994
 31
0.0
 11
192.785291
 21
-9.501194
 31
0.0
 11
191.469178
 21
-9.290964
 31
0.0
 11
190.902864
 21
-9.110963
 31
0.0
  0
LINE
  5
325
100
AcDbEntity
  8
0
 62
5
100
AcDbLine
 10
153.002223
 20
-30.925660
 30
0.0
 11
153.785144
 21
-29.569605
 31
0.0
  0
LINE
  5
326
100
AcDbEntity
  8
0
 62
5
100
AcDbLine
 10
153.785144
 20
-29.569605
 30
0.0
 11
153.347256
 21
-29.316790
 31
0.0
  0
LINE
  5
327
100
AcDbEntity
  8
0
 62
5
100
AcDbLine
 10
153.347256
 20
-29.316790
 30
0.0
 11
152.894261
 21
-30.101963
 31
0.0
  0
LINE
  5
328
100
AcDbEntity
  8
0
 62
5
100
AcDbLine
 10
157.632665
 20
-21.895398
 30
0.0
 11
161.589909
 21
-15.040875
 31
0.0
  0
LINE
  5
329
100
AcDbEntity
  8
0
 62
5
100
AcDbLine
 10
148.936981
 20
-36.956469
 30
0.0
 11
152.894225
 21
-30.101946
 31
0.0
  0
LINE
  5
32a
100
AcDbEntity
  8
0
 62
1
100
AcDbLine
 10
156.217634
 20
-24.345527
 30
0.0
 11
154.308697
 21
-27.651529
 31
0.0
  0
LINE
  5
32b
100
AcDbEntity
  8
0
 62
5
100
AcDbLine
 10
136.284022
 20
-15.040895
 30
0.0
 11
134.491857
 21
-21.837396
 31
0.0
  0
LINE
  5
32c
100
AcDbEntity
  8
0
 62
5
100
AcDbLine
 10
134.491857
 20
-21.837396
 30
0.0
 11
142.154958
 21
-35.110279
 31
0.0
  0
LINE
  5
32d
100
AcDbEntity
  8
0
 62
5
100
AcDbLine
 10
142.154958
 20
-35.110279
 30
0.0
 11
148.936981
 21
-36.956469
 31
0.0
  0
LINE
  5
32e
100
AcDbEntity
  8
0
 62
1
100
AcDbLine
 10
139.909158
 20
-21.319439
 30
0.0
 11
136.284022
 21
-15.040895
 31
0.0
  0
LINE
  5
32f
100
AcDbEntity
  8
0
 62
1
100
AcDbLine
 10
148.936981
 20
-36.956469
 30
0.0
 11
145.306675
 21
-30.668214
 31
0.0
  0
SPLINE
  5
330
100
AcDbEntity
  8
0
 62
5
100
AcDbSpline
 70
0
 71
3
 72
16
 73
12
 74
10
 40
0.000000
 40
0.000000
 40
0.000000
 40
0.000000
 40
0.594052
 40
1.926274
 40
3.438882
 40
6.074693
 40
8.833683
 40
11.469466
 40
12.982642
 40
14.315441
 40
14.909673
 40
14.909673
 40
14.909673
 40
14.909673
 10
158.399740
 20
-21.576888
 30
0.0
 10
158.548208
 20
-21.707895
 30
0.0
 10
159.029632
 20
-22.132698
 30
0.0
 10
159.778167
 20
-23.016020
 30
0.0
 10
160.455332
 20
-24.776357
 30
0.0
 10
159.927897
 20
-27.150148
 30
0.0
 10
158.594672
 20
-29.459636
 30
0.0
 10
156.802263
 20
-31.103083
 30
0.0
 10
154.939078
 20
-31.397398
 30
0.0
 10
153.799212
 20
-31.192169
 30
0.0
 10
153.190064
 20
-30.988473
 30
0.0
 10
153.002223
 20
-30.925660
 30
0.0
 11
158.399740
 21
-21.576888
 31
0.0
 11
158.839236
 21
-21.976565
 31
0.0
 11
159.680189
 21
-23.009818
 31
0.0
 11
160.206295
 21
-24.427984
 31
0.0
 11
159.821836
 21
-27.035606
 31
0.0
 11
158.442356
 21
-29.424971
 31
0.0
 11
156.376322
 21
-31.061691
 31
0.0
 11
154.884650
 21
-31.315891
 31
0.0
 11
153.568537
 21
-31.105661
 31
0.0
 11
153.002223
 21
-30.925660
 31
0.0
  0
LINE
  5
331
100
AcDbEntity
  8
0
 62
5
100
AcDbLine
 10
144.350757
 20
-30.196327
 30
0.0
 11
139.843660
 21
-22.389806
 31
0.0
  0
SPLINE
  5
332
100
AcDbEntity
  8
0
 62
5
100
AcDbSpline
 70
0
 71
3
 72
10
 73
6
 74
4
 40
0.000000
 40
0.000000
 40
0.000000
 40
0.000000
 40
1.112709
 40
1.522654
 40
1.581217
 40
1.581217
 40
1.581217
 40
1.581217
 10
145.927916
 20
-30.309538
 30
0.0
 10
145.557965
 20
-30.282982
 30
0.0
 10
145.051717
 20
-30.246643
 30
0.0
 10
144.525997
 20
-30.208906
 30
0.0
 10
144.370228
 20
-30.197725
 30
0.0
 10
144.350757
 20
-30.196327
 30
0.0
 11
145.927916
 21
-30.309538
 31
0.0
 11
144.818063
 21
-30.229871
 31
0.0
 11
144.409170
 21
-30.200520
 31
0.0
 11
144.350757
 21
-30.196327
 31
0.0
  0
LINE
  5
333
100
AcDbEntity
  8
0
 62
5
100
AcDbLine
 10
152.894225
 20
13.527425
 30
0.0
 11
153.347708
 21
14.312316
 31
0.0
  0
LINE
  5
334
100
AcDbEntity
  8
0
 62
5
100
AcDbLine
 10
153.347708
 20
14.312316
 30
0.0
 11
152.910072
 21
14.564987
 31
0.0
  0
LINE
  5
335
100
AcDbEntity
  8
0
 62
5
100
AcDbLine
 10
152.910072
 20
14.564987
 30
0.0
 11
152.127148
 21
13.208920
 31
0.0
  0
SPLINE
  5
336
100
AcDbEntity
  8
0
 62
5
100
AcDbSpline
 70
0
 71
3
 72
10
 73
6
 74
4
 40
0.000000
 40
0.000000
 40
0.000000
 40
0.000000
 40
0.058722
 40
0.469774
 40
1.585487
 40
1.585487
 40
1.585487
 40
1.585487
 10
139.843660
 20
-22.389806
 30
0.0
 10
139.852138
 20
-22.372164
 30
0.0
 10
139.919964
 20
-22.231024
 30
0.0
 10
140.148877
 20
-21.754677
 30
0.0
 10
140.369312
 20
-21.295973
 30
0.0
 10
140.530399
 20
-20.960766
 30
0.0
 11
139.843660
 21
-22.389806
 31
0.0
 11
139.869094
 21
-22.336879
 31
0.0
 11
140.047138
 21
-21.966387
 31
0.0
 11
140.530399
 21
-20.960766
 31
0.0
  0
LINE
  5
337
100
AcDbEntity
  8
0
 62
5
100
AcDbLine
 10
157.524664
 20
22.557692
 30
0.0
 11
156.741743
 21
21.201637
 31
0.0
  0
LINE
  5
338
100
AcDbEntity
  8
0
 62
5
100
AcDbLine
 10
156.741743
 20
21.201637
 30
0.0
 11
157.179631
 21
20.948822
 31
0.0
  0
LINE
  5
339
100
AcDbEntity
  8
0
 62
5
100
AcDbLine
 10
157.179631
 20
20.948822
 30
0.0
 11
157.632626
 21
21.733995
 31
0.0
  0
LINE
  5
33a
100
AcDbEntity
  8
0
 62
5
100
AcDbLine
 10
152.894222
 20
13.527430
 30
0.0
 11
148.936978
 21
6.672907
 31
0.0
  0
LINE
  5
33b
100
AcDbEntity
  8
0
 62
5
100
AcDbLine
 10
161.589906
 20
28.588502
 30
0.0
 11
157.632662
 21
21.733978
 31
0.0
  0
LINE
  5
33c
100
AcDbEntity
  8
0
 62
1
100
AcDbLine
 10
154.309253
 20
15.977560
 30
0.0
 11
156.218190
 21
19.283561
 31
0.0
  0
LINE
  5
33d
100
AcDbEntity
  8
0
 62
5
100
AcDbLine
 10
148.936981
 20
6.672916
 30
0.0
 11
143.947120
 21
11.623226
 31
0.0
  0
LINE
  5
33e
100
AcDbEntity
  8
0
 62
5
100
AcDbLine
 10
143.947120
 20
11.623226
 30
0.0
 11
128.620918
 21
11.623226
 31
0.0
  0
LINE
  5
33f
100
AcDbEntity
  8
0
 62
5
100
AcDbLine
 10
128.620918
 20
11.623226
 30
0.0
 11
123.631057
 21
6.672916
 31
0.0
  0
LINE
  5
340
100
AcDbEntity
  8
0
 62
1
100
AcDbLine
 10
141.687036
 20
6.672727
 30
0.0
 11
148.936981
 21
6.672913
 31
0.0
  0
LINE
  5
341
100
AcDbEntity
  8
0
 62
1
100
AcDbLine
 10
123.631057
 20
6.672916
 30
0.0
 11
130.892000
 21
6.672727
 31
0.0
  0
SPLINE
  5
342
100
AcDbEntity
  8
0
 62
5
100
AcDbSpline
 70
0
 71
3
 72
16
 73
12
 74
10
 40
0.000000
 40
0.000000
 40
0.000000
 40
0.000000
 40
0.594052
 40
1.926274
 40
3.438882
 40
6.074693
 40
8.833683
 40
11.469466
 40
12.982642
 40
14.315441
 40
14.909673
 40
14.909673
 40
14.909673
 40
14.909673
 10
152.127148
 20
13.208920
 30
0.0
 10
151.978679
 20
13.339927
 30
0.0
 10
151.497255
 20
13.764730
 30
0.0
 10
150.748720
 20
14.648052
 30
0.0
 10
150.071556
 20
16.408389
 30
0.0
 10
150.598991
 20
18.782180
 30
0.0
 10
151.932215
 20
21.091668
 30
0.0
 10
153.724624
 20
22.735115
 30
0.0
 10
155.587809
 20
23.029430
 30
0.0
 10
156.727675
 20
22.824201
 30
0.0
 10
157.336823
 20
22.620505
 30
0.0
 10
157.524664
 20
22.557692
 30
0.0
 11
152.127148
 21
13.208920
 31
0.0
 11
151.687651
 21
13.608597
 31
0.0
 11
150.846699
 21
14.641850
 31
0.0
 11
150.320592
 21
16.060016
 31
0.0
 11
150.705051
 21
18.667638
 31
0.0
 11
152.084531
 21
21.057003
 31
0.0
 11
154.150565
 21
22.693723
 31
0.0
 11
155.642237
 21
22.947923
 31
0.0
 11
156.958351
 21
22.737693
 31
0.0
 11
157.524664
 21
22.557692
 31
0.0
  0
LINE
  5
343
100
AcDbEntity
  8
0
 62
5
100
AcDbLine
 10
131.778626
 20
7.264634
 30
0.0
 11
140.792818
 21
7.264634
 31
0.0
  0
SPLINE
  5
344
100
AcDbEntity
  8
0
 62
5
100
AcDbSpline
 70
0
 71
3
 72
10
 73
6
 74
4
 40
0.000000
 40
0.000000
 40
0.000000
 40
0.000000
 40
1.112710
 40
1.522655
 40
1.581219
 40
1.581219
 40
1.581219
 40
1.581219
 10
130.892000
 20
5.955380
 30
0.0
 10
131.099974
 20
6.262489
 30
0.0
 10
131.384570
 20
6.682743
 30
0.0
 10
131.680112
 20
7.119162
 30
0.0
 10
131.767680
 20
7.248471
 30
0.0
 10
131.778626
 20
7.264634
 30
0.0
 11
130.892000
 21
5.955380
 31
0.0
 11
131.515922
 21
6.876707
 31
0.0
 11
131.745788
 21
7.216143
 31
0.0
 11
131.778626
 21
7.264634
 31
0.0
  0
LINE
  5
345
100
AcDbEntity
  8
0
 62
5
100
AcDbLine
 10
222.027798
 20
30.550474
 30
0.0
 11
215.231297
 21
28.758309
 31
0.0
  0
LINE
  5
346
100
AcDbEntity
  8
0
 62
5
100
AcDbLine
 10
215.231297
 20
28.758309
 30
0.0
 11
201.958414
 21
36.421410
 31
0.0
  0
LINE
  5
347
100
AcDbEntity
  8
0
 62
5
100
AcDbLine
 10
201.958414
 20
36.421410
 30
0.0
 11
200.112224
 21
43.203433
 31
0.0
  0
LINE
  5
348
100
AcDbEntity
  8
0
 62
1
100
AcDbLine
 10
215.749254
 20
34.175610
 30
0.0
 11
222.027798
 21
30.550474
 31
0.0
  0
LINE
  5
349
100
AcDbEntity
  8
0
 62
1
100
AcDbLine
 10
200.112224
 20
43.203433
 30
0.0
 11
206.400479
 21
39.573127
 31
0.0
  0
SPLINE
  5
34a
100
AcDbEntity
  8
0
 62
5
100
AcDbSpline
 70
0
 71
3
 72
10
 73
6
 74
4
 40
0.000000
 40
0.000000
 40
0.000000
 40
0.000000
 40
0.058722
 40
0.469774
 40
1.585488
 40
1.585488
 40
1.585488
 40
1.585488
 10
140.792818
 20
7.264634
 30
0.0
 10
140.803858
 20
7.248471
 30
0.0
 10
140.892176
 20
7.119162
 30
0.0
 10
141.190248
 20
6.682743
 30
0.0
 10
141.477281
 20
6.262489
 30
0.0
 10
141.687036
 20
5.955380
 30
0.0
 11
140.792818
 21
7.264634
 31
0.0
 11
140.825937
 21
7.216143
 31
0.0
 11
141.057772
 21
6.876707
 31
0.0
 11
141.687036
 21
5.955380
 31
0.0
  0
LINE
  5
34b
100
AcDbEntity
  8
0
 62
5
100
AcDbLine
 10
206.872366
 20
38.617209
 30
0.0
 11
214.678887
 21
34.110112
 31
0.0
  0
SPLINE
  5
34c
100
AcDbEntity
  8
0
 62
5
100
AcDbSpline
 70
0
 71
3
 72
10
 73
6
 74
4
 40
0.000000
 40
0.000000
 40
0.000000
 40
0.000000
 40
1.112709
 40
1.522654
 40
1.581217
 40
1.581217
 40
1.581217
 40
1.581217
 10
206.759155
 20
40.194368
 30
0.0
 10
206.785711
 20
39.824417
 30
0.0
 10
206.822050
 20
39.318169
 30
0.0
 10
206.859787
 20
38.792449
 30
0.0
 10
206.870968
 20
38.636680
 30
0.0
 10
206.872366
 20
38.617209
 30
0.0
 11
206.759155
 21
40.194368
 31
0.0
 11
206.838822
 21
39.084515
 31
0.0
 11
206.868173
 21
38.675622
 31
0.0
 11
206.872366
 21
38.617209
 31
0.0
  0
LINE
  5
34d
100
AcDbEntity
  8
0
 62
5
100
AcDbLine
 10
193.257701
 20
89.741477
 30
0.0
 11
192.472810
 21
89.287993
 31
0.0
  0
LINE
  5
34e
100
AcDbEntity
  8
0
 62
5
100
AcDbLine
 10
192.472810
 20
89.287993
 30
0.0
 11
192.220139
 21
89.725630
 31
0.0
  0
LINE
  5
34f
100
AcDbEntity
  8
0
 62
5
100
AcDbLine
 10
192.220139
 20
89.725630
 30
0.0
 11
193.576205
 21
90.508554
 31
0.0
  0
SPLINE
  5
350
100
AcDbEntity
  8
0
 62
5
100
AcDbSpline
 70
0
 71
3
 72
10
 73
6
 74
4
 40
0.000000
 40
0.000000
 40
0.000000
 40
0.000000
 40
0.058722
 40
0.469774
 40
1.585487
 40
1.585487
 40
1.585487
 40
1.585487
 10
214.678887
 20
34.110112
 30
0.0
 10
214.696529
 20
34.118590
 30
0.0
 10
214.837669
 20
34.186416
 30
0.0
 10
215.314016
 20
34.415329
 30
0.0
 10
215.772720
 20
34.635764
 30
0.0
 10
216.107927
 20
34.796851
 30
0.0
 11
214.678887
 21
34.110112
 31
0.0
 11
214.731814
 21
34.135546
 31
0.0
 11
215.102306
 21
34.313590
 31
0.0
 11
216.107927
 21
34.796851
 31
0.0
  0
LINE
  5
351
100
AcDbEntity
  8
0
 62
5
100
AcDbLine
 10
184.227433
 20
85.111037
 30
0.0
 11
185.583489
 21
85.893958
 31
0.0
  0
LINE
  5
352
100
AcDbEntity
  8
0
 62
5
100
AcDbLine
 10
185.583489
 20
85.893958
 30
0.0
 11
185.836303
 21
85.456070
 31
0.0
  0
LINE
  5
353
100
AcDbEntity
  8
0
 62
5
100
AcDbLine
 10
185.836303
 20
85.456070
 30
0.0
 11
185.051130
 21
85.003076
 31
0.0
  0
LINE
  5
354
100
AcDbEntity
  8
0
 62
5
100
AcDbLine
 10
193.257695
 20
89.741479
 30
0.0
 11
200.112218
 21
93.698723
 31
0.0
  0
LINE
  5
355
100
AcDbEntity
  8
0
 62
5
100
AcDbLine
 10
178.196624
 20
81.045795
 30
0.0
 11
185.051147
 21
85.003039
 31
0.0
  0
LINE
  5
356
100
AcDbEntity
  8
0
 62
1
100
AcDbLine
 10
190.807566
 20
88.326448
 30
0.0
 11
187.501564
 21
86.417511
 31
0.0
  0
LINE
  5
357
100
AcDbEntity
  8
0
 62
1
100
AcDbLine
 10
200.112226
 20
43.203436
 30
0.0
 11
221.926915
 21
55.798153
 31
0.0
  0
LINE
  5
358
100
AcDbEntity
  8
0
 62
1
100
AcDbLine
 10
200.112221
 20
68.392870
 30
0.0
 11
221.926912
 21
80.987587
 31
0.0
  0
LINE
  5
359
100
AcDbEntity
  8
0
 62
1
100
AcDbLine
 10
200.112224
 20
68.392867
 30
0.0
 11
221.926912
 21
55.798150
 31
0.0
  0
LINE
  5
35a
100
AcDbEntity
  8
0
 62
5
100
AcDbLine
 10
221.927095
 20
47.883346
 30
0.0
 11
221.926813
 21
46.976868
 31
0.0
  0
LINE
  5
35b
100
AcDbEntity
  8
0
 62
5
100
AcDbLine
 10
221.926813
 20
46.976868
 30
0.0
 11
222.432149
 21
46.976868
 31
0.0
  0
LINE
  5
35c
100
AcDbEntity
  8
0
 62
5
100
AcDbLine
 10
222.432149
 20
46.976868
 30
0.0
 11
222.432149
 21
48.542719
 31
0.0
  0
SPLINE
  5
35d
100
AcDbEntity
  8
0
 62
5
100
AcDbSpline
 70
0
 71
3
 72
16
 73
12
 74
10
 40
0.000000
 40
0.000000
 40
0.000000
 40
0.000000
 40
0.594052
 40
1.926274
 40
3.438882
 40
6.074693
 40
8.833683
 40
11.469466
 40
12.982642
 40
14.315441
 40
14.909673
 40
14.909673
 40
14.909673
 40
14.909673
 10
193.576205
 20
90.508554
 30
0.0
 10
193.445198
 20
90.657022
 30
0.0
 10
193.020396
 20
91.138446
 30
0.0
 10
192.137073
 20
91.886981
 30
0.0
 10
190.376737
 20
92.564146
 30
0.0
 10
188.002945
 20
92.036711
 30
0.0
 10
185.693457
 20
90.703486
 30
0.0
 10
184.050011
 20
88.911078
 30
0.0
 10
183.755695
 20
87.047892
 30
0.0
 10
183.960925
 20
85.908026
 30
0.0
 10
184.164620
 20
85.298878
 30
0.0
 10
184.227433
 20
85.111037
 30
0.0
 11
193.576205
 21
90.508554
 31
0.0
 11
193.176529
 21
90.948050
 31
0.0
 11
192.143275
 21
91.789003
 31
0.0
 11
190.725109
 21
92.315109
 31
0.0
 11
188.117488
 21
91.930651
 31
0.0
 11
185.728123
 21
90.551171
 31
0.0
 11
184.091402
 21
88.485136
 31
0.0
 11
183.837202
 21
86.993465
 31
0.0
 11
184.047432
 21
85.677351
 31
0.0
 11
184.227433
 21
85.111037
 31
0.0
  0
LINE
  5
35e
100
AcDbEntity
  8
0
 62
5
100
AcDbLine
 10
222.432149
 20
37.747685
 30
0.0
 11
222.432149
 21
39.313522
 31
0.0
  0
LINE
  5
35f
100
AcDbEntity
  8
0
 62
5
100
AcDbLine
 10
222.432149
 20
39.313522
 30
0.0
 11
221.926520
 21
39.313522
 31
0.0
  0
LINE
  5
360
100
AcDbEntity
  8
0
 62
5
100
AcDbLine
 10
221.926520
 20
39.313522
 30
0.0
 11
221.926802
 21
38.407046
 31
0.0
  0
LINE
  5
361
100
AcDbEntity
  8
0
 62
5
100
AcDbLine
 10
221.927098
 20
47.883341
 30
0.0
 11
221.926909
 21
55.798153
 31
0.0
  0
LINE
  5
362
100
AcDbEntity
  8
0
 62
5
100
AcDbLine
 10
221.926952
 20
30.492232
 30
0.0
 11
221.926762
 21
38.407044
 31
0.0
  0
LINE
  5
363
100
AcDbEntity
  8
0
 62
1
100
AcDbLine
 10
221.926712
 20
45.053953
 30
0.0
 11
221.926523
 21
41.236403
 31
0.0
  0
LINE
  5
364
100
AcDbEntity
  8
0
 62
5
100
AcDbLine
 10
200.112224
 20
119.063383
 30
0.0
 11
195.161913
 21
114.073522
 31
0.0
  0
LINE
  5
365
100
AcDbEntity
  8
0
 62
5
100
AcDbLine
 10
195.161913
 20
114.073522
 30
0.0
 11
195.161913
 21
98.747320
 31
0.0
  0
LINE
  5
366
100
AcDbEntity
  8
0
 62
5
100
AcDbLine
 10
195.161913
 20
98.747320
 30
0.0
 11
200.112224
 21
93.757459
 31
0.0
  0
LINE
  5
367
100
AcDbEntity
  8
0
 62
1
100
AcDbLine
 10
200.112413
 20
111.813439
 30
0.0
 11
200.112226
 21
119.063383
 31
0.0
  0
LINE
  5
368
100
AcDbEntity
  8
0
 62
1
100
AcDbLine
 10
200.112224
 20
93.757459
 30
0.0
 11
200.112413
 21
101.018402
 31
0.0
  0
SPLINE
  5
369
100
AcDbEntity
  8
0
 62
5
100
AcDbSpline
 70
0
 71
3
 72
16
 73
12
 74
10
 40
0.000000
 40
0.000000
 40
0.000000
 40
0.000000
 40
0.594052
 40
1.926273
 40
3.438880
 40
6.074691
 40
8.833683
 40
11.469466
 40
12.982641
 40
14.315438
 40
14.909670
 40
14.909670
 40
14.909670
 40
14.909670
 10
222.432149
 20
48.542719
 30
0.0
 10
222.626230
 20
48.503498
 30
0.0
 10
223.255556
 20
48.376320
 30
0.0
 10
224.345467
 20
47.985607
 30
0.0
 10
225.812075
 20
46.799692
 30
0.0
 10
226.542200
 20
44.480212
 30
0.0
 10
226.542339
 20
41.813523
 30
0.0
 10
225.811789
 20
39.494053
 30
0.0
 10
224.345382
 20
38.307576
 30
0.0
 10
223.255616
 20
37.915376
 30
0.0
 10
222.626230
 20
37.787208
 30
0.0
 10
222.432149
 20
37.747685
 30
0.0
 11
222.432149
 21
48.542719
 31
0.0
 11
223.012602
 21
48.416337
 31
0.0
 11
224.257514
 21
47.941989
 31
0.0
 11
225.422217
 21
46.976874
 31
0.0
 11
226.393078
 21
44.526378
 31
0.0
 11
226.393096
 21
41.767387
 31
0.0
 11
225.422217
 21
39.316928
 31
0.0
 11
224.257493
 21
38.350949
 31
0.0
 11
223.012591
 21
37.874957
 31
0.0
 11
222.432149
 21
37.747685
 31
0.0
  0
LINE
  5
36a
100
AcDbEntity
  8
0
 62
5
100
AcDbLine
 10
199.520505
 20
101.905029
 30
0.0
 11
199.520505
 21
110.919220
 31
0.0
  0
SPLINE
  5
36b
100
AcDbEntity
  8
0
 62
5
100
AcDbSpline
 70
0
 71
3
 72
10
 73
6
 74
4
 40
0.000000
 40
0.000000
 40
0.000000
 40
0.000000
 40
1.112710
 40
1.522655
 40
1.581219
 40
1.581219
 40
1.581219
 40
1.581219
 10
200.829759
 20
101.018402
 30
0.0
 10
200.522650
 20
101.226376
 30
0.0
 10
200.102396
 20
101.510972
 30
0.0
 10
199.665978
 20
101.806515
 30
0.0
 10
199.536669
 20
101.894083
 30
0.0
 10
199.520505
 20
101.905029
 30
0.0
 11
200.829759
 21
101.018402
 31
0.0
 11
199.908432
 21
101.642324
 31
0.0
 11
199.568996
 21
101.872191
 31
0.0
 11
199.520505
 21
101.905029
 31
0.0
  0
LINE
  5
36c
100
AcDbEntity
  8
0
 62
5
100
AcDbLine
 10
221.926906
 20
106.293511
 30
0.0
 11
226.877217
 21
101.303650
 31
0.0
  0
LINE
  5
36d
100
AcDbEntity
  8
0
 62
5
100
AcDbLine
 10
226.877217
 20
101.303650
 30
0.0
 11
226.877217
 21
85.977448
 31
0.0
  0
LINE
  5
36e
100
AcDbEntity
  8
0
 62
5
100
AcDbLine
 10
226.877217
 20
85.977448
 30
0.0
 11
221.926906
 21
80.987587
 31
0.0
  0
LINE
  5
36f
100
AcDbEntity
  8
0
 62
1
100
AcDbLine
 10
221.926717
 20
99.043566
 30
0.0
 11
221.926904
 21
106.293511
 31
0.0
  0
LINE
  5
370
100
AcDbEntity
  8
0
 62
1
100
AcDbLine
 10
221.926906
 20
80.987587
 30
0.0
 11
221.926717
 21
88.248530
 31
0.0
  0
SPLINE
  5
371
100
AcDbEntity
  8
0
 62
5
100
AcDbSpline
 70
0
 71
3
 72
10
 73
6
 74
4
 40
0.000000
 40
0.000000
 40
0.000000
 40
0.000000
 40
0.058722
 40
0.469774
 40
1.585488
 40
1.585488
 40
1.585488
 40
1.585488
 10
199.520505
 20
110.919220
 30
0.0
 10
199.536669
 20
110.930260
 30
0.0
 10
199.665978
 20
111.018578
 30
0.0
 10
200.102396
 20
111.316651
 30
0.0
 10
200.522650
 20
111.603684
 30
0.0
 10
200.829759
 20
111.813439
 30
0.0
 11
199.520505
 21
110.919220
 31
0.0
 11
199.568996
 21
110.952340
 31
0.0
 11
199.908432
 21
111.184174
 31
0.0
 11
200.829759
 21
111.813439
 31
0.0
  0
LINE
  5
372
100
AcDbEntity
  8
0
 62
5
100
AcDbLine
 10
222.518625
 20
89.135156
 30
0.0
 11
222.518625
 21
98.149348
 31
0.0
  0
SPLINE
  5
373
100
AcDbEntity
  8
0
 62
5
100
AcDbSpline
 70
0
 71
3
 72
10
 73
6
 74
4
 40
0.000000
 40
0.000000
 40
0.000000
 40
0.000000
 40
1.112710
 40
1.522655
 40
1.581219
 40
1.581219
 40
1.581219
 40
1.581219
 10
221.209370
 20
88.248530
 30
0.0
 10
221.516479
 20
88.456504
 30
0.0
 10
221.936734
 20
88.741100
 30
0.0
 10
222.373152
 20
89.036642
 30
0.0
 10
222.502461
 20
89.124210
 30
0.0
 10
222.518625
 20
89.135156
 30
0.0
 11
221.209370
 21
88.248530
 31
0.0
 11
222.130698
 21
88.872452
 31
0.0
 11
222.470134
 21
89.102318
 31
0.0
 11
222.518625
 21
89.135156
 31
0.0
  0
LINE
  5
374
100
AcDbEntity
  8
0
 62
1
100
AcDbLine
 10
221.926912
 20
106.352176
 30
0.0
 11
200.112224
 21
93.757459
 31
0.0
  0
LINE
  5
375
100
AcDbEntity
  8
0
 62
1
100
AcDbLine
 10
200.112224
 20
93.757459
 30
0.0
 11
200.112229
 21
68.392867
 31
0.0
  0
LINE
  5
376
100
AcDbEntity
  8
0
 62
1
100
AcDbLine
 10
200.112224
 20
93.757459
 30
0.0
 11
221.926912
 21
81.162742
 31
0.0
  0
LINE
  5
377
100
AcDbEntity
  8
0
 62
1
100
AcDbLine
 10
221.926909
 20
81.162745
 30
0.0
 11
221.926915
 21
55.798153
 31
0.0
  0
LINE
  5
378
100
AcDbEntity
  8
0
 62
5
100
AcDbLine
 10
206.865830
 20
114.989192
 30
0.0
 11
207.650721
 21
114.535709
 31
0.0
  0
LINE
  5
379
100
AcDbEntity
  8
0
 62
5
100
AcDbLine
 10
207.650721
 20
114.535709
 30
0.0
 11
207.903391
 21
114.973346
 31
0.0
  0
LINE
  5
37a
100
AcDbEntity
  8
0
 62
5
100
AcDbLine
 10
207.903391
 20
114.973346
 30
0.0
 11
206.547325
 21
115.756269
 31
0.0
  0
SPLINE
  5
37b
100
AcDbEntity
  8
0
 62
5
100
AcDbSpline
 70
0
 71
3
 72
10
 73
6
 74
4
 40
0.000000
 40
0.000000
 40
0.000000
 40
0.000000
 40
0.058722
 40
0.469774
 40
1.585488
 40
1.585488
 40
1.585488
 40
1.585488
 10
222.518625
 20
98.149348
 30
0.0
 10
222.502461
 20
98.160388
 30
0.0
 10
222.373152
 20
98.248705
 30
0.0
 10
221.936734
 20
98.546778
 30
0.0
 10
221.516479
 20
98.833811
 30
0.0
 10
221.209370
 20
99.043566
 30
0.0
 11
222.518625
 21
98.149348
 31
0.0
 11
222.470134
 21
98.182467
 31
0.0
 11
222.130698
 21
98.414301
 31
0.0
 11
221.209370
 21
99.043566
 31
0.0
  0
LINE
  5
37c
100
AcDbEntity
  8
0
 62
5
100
AcDbLine
 10
215.896097
 20
110.358753
 30
0.0
 11
214.540042
 21
111.141674
 31
0.0
  0
LINE
  5
37d
100
AcDbEntity
  8
0
 62
5
100
AcDbLine
 10
214.540042
 20
111.141674
 30
0.0
 11
214.287227
 21
110.703786
 31
0.0
  0
LINE
  5
37e
100
AcDbEntity
  8
0
 62
5
100
AcDbLine
 10
214.287227
 20
110.703786
 30
0.0
 11
215.072400
 21
110.250791
 31
0.0
  0
LINE
  5
37f
100
AcDbEntity
  8
0
 62
5
100
AcDbLine
 10
206.865835
 20
114.989195
 30
0.0
 11
200.011312
 21
118.946439
 31
0.0
  0
LINE
  5
380
100
AcDbEntity
  8
0
 62
5
100
AcDbLine
 10
221.926906
 20
106.293511
 30
0.0
 11
215.072383
 21
110.250755
 31
0.0
  0
LINE
  5
381
100
AcDbEntity
  8
0
 62
1
100
AcDbLine
 10
209.315964
 20
113.574164
 30
0.0
 11
212.621966
 21
111.665227
 31
0.0
  0
LINE
  5
382
100
AcDbEntity
  8
0
 62
5
100
AcDbLine
 10
228.680526
 20
77.088551
 30
0.0
 11
229.465418
 21
76.635068
 31
0.0
  0
LINE
  5
383
100
AcDbEntity
  8
0
 62
5
100
AcDbLine
 10
229.465418
 20
76.635068
 30
0.0
 11
229.718088
 21
77.072704
 31
0.0
  0
LINE
  5
384
100
AcDbEntity
  8
0
 62
5
100
AcDbLine
 10
229.718088
 20
77.072704
 30
0.0
 11
228.362022
 21
77.855628
 31
0.0
  0
SPLINE
  5
385
100
AcDbEntity
  8
0
 62
5
100
AcDbSpline
 70
0
 71
3
 72
16
 73
12
 74
10
 40
0.000000
 40
0.000000
 40
0.000000
 40
0.000000
 40
0.594052
 40
1.926274
 40
3.438882
 40
6.074693
 40
8.833683
 40
11.469466
 40
12.982642
 40
14.315441
 40
14.909673
 40
14.909673
 40
14.909673
 40
14.909673
 10
206.547325
 20
115.756269
 30
0.0
 10
206.678332
 20
115.904738
 30
0.0
 10
207.103134
 20
116.386162
 30
0.0
 10
207.986457
 20
117.134697
 30
0.0
 10
209.746793
 20
117.811861
 30
0.0
 10
212.120585
 20
117.284426
 30
0.0
 10
214.430073
 20
115.951202
 30
0.0
 10
216.073520
 20
114.158793
 30
0.0
 10
216.367835
 20
112.295608
 30
0.0
 10
216.162605
 20
111.155742
 30
0.0
 10
215.958910
 20
110.546594
 30
0.0
 10
215.896097
 20
110.358753
 30
0.0
 11
206.547325
 21
115.756269
 31
0.0
 11
206.947002
 21
116.195766
 31
0.0
 11
207.980255
 21
117.036718
 31
0.0
 11
209.398421
 21
117.562825
 31
0.0
 11
212.006043
 21
117.178366
 31
0.0
 11
214.395408
 21
115.798886
 31
0.0
 11
216.032128
 21
113.732852
 31
0.0
 11
216.286328
 21
112.241180
 31
0.0
 11
216.076098
 21
110.925066
 31
0.0
 11
215.896097
 21
110.358753
 31
0.0
  0
LINE
  5
386
100
AcDbEntity
  8
0
 62
5
100
AcDbLine
 10
237.710794
 20
72.458112
 30
0.0
 11
236.354739
 21
73.241033
 31
0.0
  0
LINE
  5
387
100
AcDbEntity
  8
0
 62
5
100
AcDbLine
 10
236.354739
 20
73.241033
 30
0.0
 11
236.101924
 21
72.803145
 31
0.0
  0
LINE
  5
388
100
AcDbEntity
  8
0
 62
5
100
AcDbLine
 10
236.101924
 20
72.803145
 30
0.0
 11
236.887097
 21
72.350150
 31
0.0
  0
LINE
  5
389
100
AcDbEntity
  8
0
 62
5
100
AcDbLine
 10
228.680532
 20
77.088554
 30
0.0
 11
221.826009
 21
81.045798
 31
0.0
  0
LINE
  5
38a
100
AcDbEntity
  8
0
 62
5
100
AcDbLine
 10
243.741603
 20
68.392870
 30
0.0
 11
236.887080
 21
72.350114
 31
0.0
  0
LINE
  5
38b
100
AcDbEntity
  8
0
 62
1
100
AcDbLine
 10
231.130661
 20
75.673523
 30
0.0
 11
234.436663
 21
73.764586
 31
0.0
  0
LINE
  5
38c
100
AcDbEntity
  8
0
 62
5
100
AcDbLine
 10
221.826029
 20
55.739911
 30
0.0
 11
228.622530
 21
53.947746
 31
0.0
  0
LINE
  5
38d
100
AcDbEntity
  8
0
 62
5
100
AcDbLine
 10
228.622530
 20
53.947746
 30
0.0
 11
241.895413
 21
61.610847
 31
0.0
  0
LINE
  5
38e
100
AcDbEntity
  8
0
 62
5
100
AcDbLine
 10
241.895413
 20
61.610847
 30
0.0
 11
243.741603
 21
68.392870
 31
0.0
  0
LINE
  5
38f
100
AcDbEntity
  8
0
 62
1
100
AcDbLine
 10
228.104573
 20
59.365047
 30
0.0
 11
221.826029
 21
55.739911
 31
0.0
  0
LINE
  5
390
100
AcDbEntity
  8
0
 62
1
100
AcDbLine
 10
243.741603
 20
68.392870
 30
0.0
 11
237.453348
 21
64.762563
 31
0.0
  0
SPLINE
  5
391
100
AcDbEntity
  8
0
 62
5
100
AcDbSpline
 70
0
 71
3
 72
16
 73
12
 74
10
 40
0.000000
 40
0.000000
 40
0.000000
 40
0.000000
 40
0.594052
 40
1.926274
 40
3.438882
 40
6.074693
 40
8.833683
 40
11.469466
 40
12.982642
 40
14.315441
 40
14.909673
 40
14.909673
 40
14.909673
 40
14.909673
 10
228.362022
 20
77.855628
 30
0.0
 10
228.493029
 20
78.004097
 30
0.0
 10
228.917831
 20
78.485521
 30
0.0
 10
229.801154
 20
79.234056
 30
0.0
 10
231.561490
 20
79.911220
 30
0.0
 10
233.935282
 20
79.383785
 30
0.0
 10
236.244770
 20
78.050561
 30
0.0
 10
237.888216
 20
76.258152
 30
0.0
 10
238.182532
 20
74.394967
 30
0.0
 10
237.977302
 20
73.255101
 30
0.0
 10
237.773607
 20
72.645953
 30
0.0
 10
237.710794
 20
72.458112
 30
0.0
 11
228.362022
 21
77.855628
 31
0.0
 11
228.761698
 21
78.295125
 31
0.0
 11
229.794952
 21
79.136077
 31
0.0
 11
231.213118
 21
79.662184
 31
0.0
 11
233.820739
 21
79.277725
 31
0.0
 11
236.210104
 21
77.898245
 31
0.0
 11
237.846825
 21
75.832211
 31
0.0
 11
238.101025
 21
74.340539
 31
0.0
 11
237.890795
 21
73.024425
 31
0.0
 11
237.710794
 21
72.458112
 31
0.0
  0
LINE
  5
392
100
AcDbEntity
  8
0
 62
5
100
AcDbLine
 10
236.981461
 20
63.806646
 30
0.0
 11
229.174940
 21
59.299548
 31
0.0
  0
SPLINE
  5
393
100
AcDbEntity
  8
0
 62
5
100
AcDbSpline
 70
0
 71
3
 72
10
 73
6
 74
4
 40
0.000000
 40
0.000000
 40
0.000000
 40
0.000000
 40
1.112709
 40
1.522654
 40
1.581217
 40
1.581217
 40
1.581217
 40
1.581217
 10
237.094672
 20
65.383805
 30
0.0
 10
237.068116
 20
65.013854
 30
0.0
 10
237.031777
 20
64.507605
 30
0.0
 10
236.994040
 20
63.981886
 30
0.0
 10
236.982859
 20
63.826117
 30
0.0
 10
236.981461
 20
63.806646
 30
0.0
 11
237.094672
 21
65.383805
 31
0.0
 11
237.015005
 21
64.273952
 31
0.0
 11
236.985654
 21
63.865059
 31
0.0
 11
236.981461
 21
63.806646
 31
0.0
  0
LINE
  5
394
100
AcDbEntity
  8
0
 62
5
100
AcDbLine
 10
193.257706
 20
72.350114
 30
0.0
 11
192.472815
 21
72.803597
 31
0.0
  0
LINE
  5
395
100
AcDbEntity
  8
0
 62
5
100
AcDbLine
 10
192.472815
 20
72.803597
 30
0.0
 11
192.220144
 21
72.365960
 31
0.0
  0
LINE
  5
396
100
AcDbEntity
  8
0
 62
5
100
AcDbLine
 10
192.220144
 20
72.365960
 30
0.0
 11
193.576211
 21
71.583036
 31
0.0
  0
SPLINE
  5
397
100
AcDbEntity
  8
0
 62
5
100
AcDbSpline
 70
0
 71
3
 72
10
 73
6
 74
4
 40
0.000000
 40
0.000000
 40
0.000000
 40
0.000000
 40
0.058722
 40
0.469774
 40
1.585487
 40
1.585487
 40
1.585487
 40
1.585487
 10
229.174940
 20
59.299548
 30
0.0
 10
229.157298
 20
59.308027
 30
0.0
 10
229.016158
 20
59.375853
 30
0.0
 10
228.539811
 20
59.604766
 30
0.0
 10
228.081107
 20
59.825201
 30
0.0
 10
227.745900
 20
59.986288
 30
0.0
 11
229.174940
 21
59.299548
 31
0.0
 11
229.122013
 21
59.324983
 31
0.0
 11
228.751521
 21
59.503027
 31
0.0
 11
227.745900
 21
59.986288
 31
0.0
  0
LINE
  5
398
100
AcDbEntity
  8
0
 62
5
100
AcDbLine
 10
184.227439
 20
76.980553
 30
0.0
 11
185.583494
 21
76.197632
 31
0.0
  0
LINE
  5
399
100
AcDbEntity
  8
0
 62
5
100
AcDbLine
 10
185.583494
 20
76.197632
 30
0.0
 11
185.836309
 21
76.635520
 31
0.0
  0
LINE
  5
39a
100
AcDbEntity
  8
0
 62
5
100
AcDbLine
 10
185.836309
 20
76.635520
 30
0.0
 11
185.051136
 21
77.088515
 31
0.0
  0
LINE
  5
39b
100
AcDbEntity
  8
0
 62
5
100
AcDbLine
 10
193.257701
 20
72.350111
 30
0.0
 11
200.112224
 21
68.392867
 31
0.0
  0
LINE
  5
39c
100
AcDbEntity
  8
0
 62
5
100
AcDbLine
 10
178.196629
 20
81.045795
 30
0.0
 11
185.051152
 21
77.088551
 31
0.0
  0
LINE
  5
39d
100
AcDbEntity
  8
0
 62
1
100
AcDbLine
 10
190.807571
 20
73.765142
 30
0.0
 11
187.501570
 21
75.674079
 31
0.0
  0
LINE
  5
39e
100
AcDbEntity
  8
0
 62
5
100
AcDbLine
 10
200.112218
 20
68.392870
 30
0.0
 11
195.161908
 21
63.403009
 31
0.0
  0
LINE
  5
39f
100
AcDbEntity
  8
0
 62
5
100
AcDbLine
 10
195.161908
 20
63.403009
 30
0.0
 11
195.161908
 21
48.076807
 31
0.0
  0
LINE
  5
3a0
100
AcDbEntity
  8
0
 62
5
100
AcDbLine
 10
195.161908
 20
48.076807
 30
0.0
 11
200.112218
 21
43.086946
 31
0.0
  0
LINE
  5
3a1
100
AcDbEntity
  8
0
 62
1
100
AcDbLine
 10
200.112407
 20
61.142925
 30
0.0
 11
200.112221
 21
68.392870
 31
0.0
  0
LINE
  5
3a2
100
AcDbEntity
  8
0
 62
1
100
AcDbLine
 10
200.112218
 20
43.086946
 30
0.0
 11
200.112407
 21
50.347888
 31
0.0
  0
SPLINE
  5
3a3
100
AcDbEntity
  8
0
 62
5
100
AcDbSpline
 70
0
 71
3
 72
16
 73
12
 74
10
 40
0.000000
 40
0.000000
 40
0.000000
 40
0.000000
 40
0.594052
 40
1.926274
 40
3.438882
 40
6.074693
 40
8.833683
 40
11.469466
 40
12.982642
 40
14.315441
 40
14.909673
 40
14.909673
 40
14.909673
 40
14.909673
 10
193.576211
 20
71.583036
 30
0.0
 10
193.445204
 20
71.434568
 30
0.0
 10
193.020401
 20
70.953144
 30
0.0
 10
192.137079
 20
70.204609
 30
0.0
 10
190.376742
 20
69.527444
 30
0.0
 10
188.002951
 20
70.054879
 30
0.0
 10
185.693463
 20
71.388104
 30
0.0
 10
184.050016
 20
73.180513
 30
0.0
 10
183.755701
 20
75.043698
 30
0.0
 10
183.960930
 20
76.183564
 30
0.0
 10
184.164626
 20
76.792712
 30
0.0
 10
184.227439
 20
76.980553
 30
0.0
 11
193.576211
 21
71.583036
 31
0.0
 11
193.176534
 21
71.143540
 31
0.0
 11
192.143280
 21
70.302587
 31
0.0
 11
190.725115
 21
69.776481
 31
0.0
 11
188.117493
 21
70.160940
 31
0.0
 11
185.728128
 21
71.540420
 31
0.0
 11
184.091408
 21
73.606454
 31
0.0
 11
183.837208
 21
75.098126
 31
0.0
 11
184.047438
 21
76.414239
 31
0.0
 11
184.227439
 21
76.980553
 31
0.0
  0
LINE
  5
3a4
100
AcDbEntity
  8
0
 62
5
100
AcDbLine
 10
199.520500
 20
51.234515
 30
0.0
 11
199.520500
 21
60.248707
 31
0.0
  0
SPLINE
  5
3a5
100
AcDbEntity
  8
0
 62
5
100
AcDbSpline
 70
0
 71
3
 72
10
 73
6
 74
4
 40
0.000000
 40
0.000000
 40
0.000000
 40
0.000000
 40
1.112710
 40
1.522655
 40
1.581219
 40
1.581219
 40
1.581219
 40
1.581219
 10
200.829754
 20
50.347888
 30
0.0
 10
200.522645
 20
50.555863
 30
0.0
 10
200.102390
 20
50.840459
 30
0.0
 10
199.665972
 20
51.136001
 30
0.0
 10
199.536663
 20
51.223569
 30
0.0
 10
199.520500
 20
51.234515
 30
0.0
 11
200.829754
 21
50.347888
 31
0.0
 11
199.908427
 21
50.971811
 31
0.0
 11
199.568990
 21
51.201677
 31
0.0
 11
199.520500
 21
51.234515
 31
0.0
  0
SPLINE
  5
3a6
100
AcDbEntity
  8
0
 62
5
100
AcDbSpline
 70
0
 71
3
 72
10
 73
6
 74
4
 40
0.000000
 40
0.000000
 40
0.000000
 40
0.000000
 40
0.058722
 40
0.469774
 40
1.585488
 40
1.585488
 40
1.585488
 40
1.585488
 10
199.520500
 20
60.248707
 30
0.0
 10
199.536663
 20
60.259747
 30
0.0
 10
199.665972
 20
60.348064
 30
0.0
 10
200.102390
 20
60.646137
 30
0.0
 10
200.522645
 20
60.933170
 30
0.0
 10
200.829754
 20
61.142925
 30
0.0
 11
199.520500
 21
60.248707
 31
0.0
 11
199.568990
 21
60.281826
 31
0.0
 11
199.908427
 21
60.513660
 31
0.0
 11
200.829754
 21
61.142925
 31
0.0
  0
ENDSEC
  0
SECTION
  2
OBJECTS
  0
DICTIONARY
  5
C
330
0
100
AcDbDictionary
  3
ACAD_GROUP
350
D
  3
ACAD_MLINESTYLE
350
17
  0
DICTIONARY
  5
D
330
C
100
AcDbDictionary
  0
DICTIONARY
  5
1A
330
C
100
AcDbDictionary
  0
DICTIONARY
  5
17
330
C
100
AcDbDictionary
  3
STANDARD
350
18
  0
DICTIONARY
  5
19
330
C
100
AcDbDictionary
  0
ENDSEC
  0
EOF
