999
DXF created by Inkscape
  0
SECTION
  2
HEADER
  9
$ACADVER
  1
AC1014
  9
$HANDSEED
  5
FFFF
  9
$MEASUREMENT
 70
     1
  0
ENDSEC
  0
SECTION
  2
TABLES
  0
TABLE
  2
VPORT
  5
8
330
0
100
AcDbSymbolTable
 70
     4
  0
VPORT
  5
2E
330
8
100
AcDbSymbolTableRecord
100
AcDbViewportTableRecord
  2
*ACTIVE
 70
     0
 10
0.0
 20
0.0
 11
1.0
 21
1.0
 12
210.0
 22
148.5
 13
0.0
 23
0.0
 14
10.0
 24
10.0
 15
10.0
 25
10.0
 16
0.0
 26
0.0
 36
1.0
 17
0.0
 27
0.0
 37
0.0
 40
341.0
 41
1.24
 42
50.0
 43
0.0
 44
0.0
 50
0.0
 51
0.0
 71
     0
 72
   100
 73
     1
 74
     3
 75
     0
 76
     0
 77
     0
 78
     0
  0
ENDTAB
  0
TABLE
  2
LTYPE
  5
5
330
0
100
AcDbSymbolTable
 70
     1
  0
LTYPE
  5
14
330
5
100
AcDbSymbolTableRecord
100
AcDbLinetypeTableRecord
  2
BYBLOCK
 70
     0
  3

 72
    65
 73
     0
 40
0.0
  0
LTYPE
  5
15
330
5
100
AcDbSymbolTableRecord
100
AcDbLinetypeTableRecord
  2
BYLAYER
 70
     0
  3

 72
    65
 73
     0
 40
0.0
  0
LTYPE
  5
16
330
5
100
AcDbSymbolTableRecord
100
AcDbLinetypeTableRecord
  2
CONTINUOUS
 70
     0
  3
Solid line
 72
    65
 73
     0
 40
0.0
  0
ENDTAB
  0
TABLE
  2
LAYER
  5
2
330
0
100
AcDbSymbolTable
 70
1
  0
LAYER
  5
10
330
2
100
AcDbSymbolTableRecord
100
AcDbLayerTableRecord
  2
0
 70
     0
 62
     7
  6
CONTINUOUS
  0
ENDTAB
  0
TABLE
  2
STYLE
  5
3
330
0
100
AcDbSymbolTable
 70
     1
  0
STYLE
  5
11
330
3
100
AcDbSymbolTableRecord
100
AcDbTextStyleTableRecord
  2
STANDARD
 70
     0
 40
0.0
 41
1.0
 50
0.0
 71
     0
 42
2.5
  3
txt
  4

  0
ENDTAB
  0
TABLE
  2
VIEW
  5
6
330
0
100
AcDbSymbolTable
 70
     0
  0
ENDTAB
  0
TABLE
  2
UCS
  5
7
330
0
100
AcDbSymbolTable
 70
     0
  0
ENDTAB
  0
TABLE
  2
APPID
  5
9
330
0
100
AcDbSymbolTable
 70
     2
  0
APPID
  5
12
330
9
100
AcDbSymbolTableRecord
100
AcDbRegAppTableRecord
  2
ACAD
 70
     0
  0
ENDTAB
  0
TABLE
  2
DIMSTYLE
  5
A
330
0
100
AcDbSymbolTable
 70
     1
  0
DIMSTYLE
105
27
330
A
100
AcDbSymbolTableRecord
100
AcDbDimStyleTableRecord
  2
ISO-25
 70
     0
  3

  4

  5

  6

  7

 40
1.0
 41
2.5
 42
0.625
 43
3.75
 44
1.25
 45
0.0
 46
0.0
 47
0.0
 48
0.0
140
2.5
141
2.5
142
0.0
143
0.03937007874016
144
1.0
145
0.0
146
1.0
147
0.625
 71
     0
 72
     0
 73
     0
 74
     0
 75
     0
 76
     0
 77
     1
 78
     8
170
     0
171
     3
172
     1
173
     0
174
     0
175
     0
176
     0
177
     0
178
     0
270
     2
271
     2
272
     2
273
     2
274
     3
340
11
275
     0
280
     0
281
     0
282
     0
283
     0
284
     8
285
     0
286
     0
287
     3
288
     0
  0
ENDTAB
  0
TABLE
  2
BLOCK_RECORD
  5
1
330
0
100
AcDbSymbolTable
 70
     1
  0
BLOCK_RECORD
  5
1F
330
1
100
AcDbSymbolTableRecord
100
AcDbBlockTableRecord
  2
*MODEL_SPACE
  0
BLOCK_RECORD
  5
1B
330
1
100
AcDbSymbolTableRecord
100
AcDbBlockTableRecord
  2
*PAPER_SPACE
  0
ENDTAB
  0
ENDSEC
  0
SECTION
  2
BLOCKS
  0
BLOCK
  5
20
330
1F
100
AcDbEntity
  8
0
100
AcDbBlockBegin
  2
*MODEL_SPACE
 70
     0
 10
0.0
 20
0.0
 30
0.0
  3
*MODEL_SPACE
  1

  0
ENDBLK
  5
21
330
1F
100
AcDbEntity
  8
0
100
AcDbBlockEnd
  0
BLOCK
  5
1C
330
1B
100
AcDbEntity
 67
     1
  8
0
100
AcDbBlockBegin
  2
*PAPER_SPACE
  1

  0
ENDBLK
  5
1D
330
1B
100
AcDbEntity
 67
     1
  8
0
100
AcDbBlockEnd
  0
ENDSEC
  0
SECTION
  2
ENTITIES
  0
LINE
  5
100
100
AcDbEntity
  8
0
 62
1
100
AcDbLine
 10
85.522026
 20
148.302671
 30
0.0
 11
47.569947
 21
214.037600
 31
0.0
  0
LINE
  5
101
100
AcDbEntity
  8
0
 62
1
100
AcDbLine
 10
47.569947
 20
214.037600
 30
0.0
 11
123.474105
 21
214.037600
 31
0.0
  0
LINE
  5
102
100
AcDbEntity
  8
0
 62
5
100
AcDbLine
 10
199.383946
 20
82.557909
 30
0.0
 11
204.760280
 21
102.946808
 31
0.0
  0
LINE
  5
103
100
AcDbEntity
  8
0
 62
5
100
AcDbLine
 10
204.760280
 20
102.946808
 30
0.0
 11
181.771657
 21
142.764274
 31
0.0
  0
LINE
  5
104
100
AcDbEntity
  8
0
 62
5
100
AcDbLine
 10
181.771657
 20
142.764274
 30
0.0
 11
161.426186
 21
148.302682
 31
0.0
  0
LINE
  5
105
100
AcDbEntity
  8
0
 62
1
100
AcDbLine
 10
187.512463
 20
103.120807
 30
0.0
 11
199.383842
 21
82.557850
 31
0.0
  0
LINE
  5
106
100
AcDbEntity
  8
0
 62
1
100
AcDbLine
 10
161.426186
 20
148.302682
 30
0.0
 11
173.297562
 21
127.739723
 31
0.0
  0
LINE
  5
107
100
AcDbEntity
  8
0
 62
5
100
AcDbLine
 10
174.159652
 20
127.431183
 30
0.0
 11
187.680541
 21
104.012318
 31
0.0
  0
SPLINE
  5
108
100
AcDbEntity
  8
0
 62
5
100
AcDbSpline
 70
0
 71
3
 72
10
 73
6
 74
4
 40
0.000000
 40
0.000000
 40
0.000000
 40
0.000000
 40
1.517719
 40
2.076879
 40
2.156759
 40
2.156759
 40
2.156759
 40
2.156759
 10
172.168854
 20
128.260840
 30
0.0
 10
172.635831
 20
128.066229
 30
0.0
 10
173.274853
 20
127.799920
 30
0.0
 10
173.938452
 20
127.523367
 30
0.0
 10
174.135074
 20
127.441426
 30
0.0
 10
174.159652
 20
127.431183
 30
0.0
 11
172.168854
 21
128.260840
 31
0.0
 11
173.569786
 21
127.677008
 31
0.0
 11
174.085919
 21
127.461911
 31
0.0
 11
174.159652
 21
127.431183
 31
0.0
  0
LINE
  5
109
100
AcDbEntity
  8
0
 62
5
100
AcDbLine
 10
47.569842
 20
214.037662
 30
0.0
 11
27.224372
 21
208.499254
 31
0.0
  0
LINE
  5
10a
100
AcDbEntity
  8
0
 62
5
100
AcDbLine
 10
27.224372
 20
208.499254
 30
0.0
 11
4.235749
 21
168.681788
 31
0.0
  0
LINE
  5
10b
100
AcDbEntity
  8
0
 62
5
100
AcDbLine
 10
4.235749
 20
168.681788
 30
0.0
 11
9.612082
 21
148.292889
 31
0.0
  0
LINE
  5
10c
100
AcDbEntity
  8
0
 62
1
100
AcDbLine
 10
35.697595
 20
193.475208
 30
0.0
 11
47.569950
 21
214.037600
 31
0.0
  0
LINE
  5
10d
100
AcDbEntity
  8
0
 62
1
100
AcDbLine
 10
9.612082
 20
148.292889
 30
0.0
 11
21.484437
 21
168.855284
 31
0.0
  0
SPLINE
  5
10e
100
AcDbEntity
  8
0
 62
5
100
AcDbSpline
 70
0
 71
3
 72
10
 73
6
 74
4
 40
0.000000
 40
0.000000
 40
0.000000
 40
0.000000
 40
0.079880
 40
0.639039
 40
2.156757
 40
2.156757
 40
2.156757
 40
2.156757
 10
187.680541
 20
104.012318
 30
0.0
 10
187.677122
 20
103.985912
 30
0.0
 10
187.649774
 20
103.774662
 30
0.0
 10
187.557476
 20
103.061692
 30
0.0
 10
187.468595
 20
102.375129
 30
0.0
 10
187.403644
 20
101.873410
 30
0.0
 11
187.680541
 21
104.012318
 31
0.0
 11
187.670285
 21
103.933100
 31
0.0
 11
187.598497
 21
103.378568
 31
0.0
 11
187.403644
 21
101.873410
 31
0.0
  0
LINE
  5
10f
100
AcDbEntity
  8
0
 62
5
100
AcDbLine
 10
21.320595
 20
169.756146
 30
0.0
 11
34.841482
 21
193.175011
 31
0.0
  0
SPLINE
  5
110
100
AcDbEntity
  8
0
 62
5
100
AcDbSpline
 70
0
 71
3
 72
10
 73
6
 74
4
 40
0.000000
 40
0.000000
 40
0.000000
 40
0.000000
 40
1.517720
 40
2.076880
 40
2.156760
 40
2.156760
 40
2.156760
 40
2.156760
 10
21.597492
 20
167.617234
 30
0.0
 10
21.532541
 20
168.118954
 30
0.0
 10
21.443660
 20
168.805519
 30
0.0
 10
21.351362
 20
169.518489
 30
0.0
 10
21.324014
 20
169.729740
 30
0.0
 10
21.320595
 20
169.756146
 30
0.0
 11
21.597492
 21
167.617234
 31
0.0
 11
21.402639
 21
169.122394
 31
0.0
 11
21.330851
 21
169.676927
 31
0.0
 11
21.320595
 21
169.756146
 31
0.0
  0
LINE
  5
111
100
AcDbEntity
  8
0
 62
5
100
AcDbLine
 10
199.389636
 20
214.037600
 30
0.0
 11
184.420499
 21
228.888091
 31
0.0
  0
LINE
  5
112
100
AcDbEntity
  8
0
 62
5
100
AcDbLine
 10
184.420499
 20
228.888091
 30
0.0
 11
138.443253
 21
228.888091
 31
0.0
  0
LINE
  5
113
100
AcDbEntity
  8
0
 62
5
100
AcDbLine
 10
138.443253
 20
228.888091
 30
0.0
 11
123.474116
 21
214.037600
 31
0.0
  0
LINE
  5
114
100
AcDbEntity
  8
0
 62
1
100
AcDbLine
 10
175.645905
 20
214.038043
 30
0.0
 11
199.389636
 21
214.037479
 31
0.0
  0
LINE
  5
115
100
AcDbEntity
  8
0
 62
1
100
AcDbLine
 10
123.474116
 20
214.037600
 30
0.0
 11
147.217847
 21
214.037036
 31
0.0
  0
SPLINE
  5
116
100
AcDbEntity
  8
0
 62
5
100
AcDbSpline
 70
0
 71
3
 72
10
 73
6
 74
4
 40
0.000000
 40
0.000000
 40
0.000000
 40
0.000000
 40
0.079880
 40
0.639040
 40
2.156760
 40
2.156760
 40
2.156760
 40
2.156760
 10
34.841482
 20
193.175011
 30
0.0
 10
34.866060
 20
193.185253
 30
0.0
 10
35.062682
 20
193.267195
 30
0.0
 10
35.726283
 20
193.543746
 30
0.0
 10
36.365305
 20
193.810055
 30
0.0
 10
36.832283
 20
194.004665
 30
0.0
 11
34.841482
 21
193.175011
 31
0.0
 11
34.915215
 21
193.205739
 31
0.0
 11
35.431349
 21
193.420834
 31
0.0
 11
36.832283
 21
194.004665
 31
0.0
  0
LINE
  5
117
100
AcDbEntity
  8
0
 62
5
100
AcDbLine
 10
147.916096
 20
214.629358
 30
0.0
 11
174.957873
 21
214.629358
 31
0.0
  0
SPLINE
  5
118
100
AcDbEntity
  8
0
 62
5
100
AcDbSpline
 70
0
 71
3
 72
10
 73
6
 74
4
 40
0.000000
 40
0.000000
 40
0.000000
 40
0.000000
 40
1.517719
 40
2.076878
 40
2.156758
 40
2.156758
 40
2.156758
 40
2.156758
 10
146.202194
 20
213.320104
 30
0.0
 10
146.604220
 20
213.627213
 30
0.0
 10
147.154362
 20
214.047467
 30
0.0
 10
147.725662
 20
214.483885
 30
0.0
 10
147.894936
 20
214.613194
 30
0.0
 10
147.916096
 20
214.629358
 30
0.0
 11
146.202194
 21
213.320104
 31
0.0
 11
147.408273
 21
214.241431
 31
0.0
 11
147.852618
 21
214.580867
 31
0.0
 11
147.916096
 21
214.629358
 31
0.0
  0
LINE
  5
119
100
AcDbEntity
  8
0
 62
5
100
AcDbLine
 10
33.350223
 20
148.302236
 30
0.0
 11
36.069572
 21
148.303083
 31
0.0
  0
LINE
  5
11a
100
AcDbEntity
  8
0
 62
5
100
AcDbLine
 10
36.069572
 20
148.303083
 30
0.0
 11
36.069572
 21
147.798464
 31
0.0
  0
LINE
  5
11b
100
AcDbEntity
  8
0
 62
5
100
AcDbLine
 10
36.069572
 20
147.798464
 30
0.0
 11
31.372175
 21
147.798464
 31
0.0
  0
SPLINE
  5
11c
100
AcDbEntity
  8
0
 62
5
100
AcDbSpline
 70
0
 71
3
 72
10
 73
6
 74
4
 40
0.000000
 40
0.000000
 40
0.000000
 40
0.000000
 40
0.079880
 40
0.639039
 40
2.156758
 40
2.156758
 40
2.156758
 40
2.156758
 10
174.957873
 20
214.629358
 30
0.0
 10
174.979032
 20
214.613194
 30
0.0
 10
175.148306
 20
214.483885
 30
0.0
 10
175.719607
 20
214.047467
 30
0.0
 10
176.269748
 20
213.627213
 30
0.0
 10
176.671774
 20
213.320104
 30
0.0
 11
174.957873
 21
214.629358
 31
0.0
 11
175.021350
 21
214.580867
 31
0.0
 11
175.465695
 21
214.241431
 31
0.0
 11
176.671774
 21
213.320104
 31
0.0
  0
LINE
  5
11d
100
AcDbEntity
  8
0
 62
5
100
AcDbLine
 10
63.756328
 20
147.798464
 30
0.0
 11
59.058943
 21
147.798464
 31
0.0
  0
LINE
  5
11e
100
AcDbEntity
  8
0
 62
5
100
AcDbLine
 10
59.058943
 20
147.798464
 30
0.0
 11
59.058943
 21
148.303958
 31
0.0
  0
LINE
  5
11f
100
AcDbEntity
  8
0
 62
5
100
AcDbLine
 10
59.058943
 20
148.303958
 30
0.0
 11
61.778292
 21
148.303111
 31
0.0
  0
LINE
  5
120
100
AcDbEntity
  8
0
 62
5
100
AcDbLine
 10
33.350234
 20
148.302225
 30
0.0
 11
9.606500
 21
148.302789
 31
0.0
  0
LINE
  5
121
100
AcDbEntity
  8
0
 62
5
100
AcDbLine
 10
85.522026
 20
148.302668
 30
0.0
 11
61.778292
 21
148.303233
 31
0.0
  0
LINE
  5
122
100
AcDbEntity
  8
0
 62
1
100
AcDbLine
 10
41.838155
 20
148.303388
 30
0.0
 11
53.290464
 21
148.303952
 31
0.0
  0
LINE
  5
123
100
AcDbEntity
  8
0
 62
1
100
AcDbLine
 10
47.575735
 20
214.047385
 30
0.0
 11
85.527820
 21
279.782314
 31
0.0
  0
LINE
  5
124
100
AcDbEntity
  8
0
 62
1
100
AcDbLine
 10
161.426184
 20
148.302671
 30
0.0
 11
123.474105
 21
214.037600
 31
0.0
  0
LINE
  5
125
100
AcDbEntity
  8
0
 62
1
100
AcDbLine
 10
85.522026
 20
148.302671
 30
0.0
 11
161.426184
 21
148.302671
 31
0.0
  0
LINE
  5
126
100
AcDbEntity
  8
0
 62
1
100
AcDbLine
 10
123.474105
 20
82.567742
 30
0.0
 11
161.426186
 21
148.302674
 31
0.0
  0
LINE
  5
127
100
AcDbEntity
  8
0
 62
1
100
AcDbLine
 10
85.522026
 20
148.302668
 30
0.0
 11
123.474105
 21
214.037600
 31
0.0
  0
LINE
  5
128
100
AcDbEntity
  8
0
 62
5
100
AcDbLine
 10
85.521921
 20
148.302609
 30
0.0
 11
80.145588
 21
127.913710
 31
0.0
  0
LINE
  5
129
100
AcDbEntity
  8
0
 62
5
100
AcDbLine
 10
80.145588
 20
127.913710
 30
0.0
 11
103.134211
 21
88.096244
 31
0.0
  0
LINE
  5
12a
100
AcDbEntity
  8
0
 62
5
100
AcDbLine
 10
103.134211
 20
88.096244
 30
0.0
 11
123.479681
 21
82.557836
 31
0.0
  0
LINE
  5
12b
100
AcDbEntity
  8
0
 62
1
100
AcDbLine
 10
97.393404
 20
127.739711
 30
0.0
 11
85.522026
 21
148.302668
 31
0.0
  0
LINE
  5
12c
100
AcDbEntity
  8
0
 62
1
100
AcDbLine
 10
123.479681
 20
82.557836
 30
0.0
 11
111.608306
 21
103.120795
 31
0.0
  0
SPLINE
  5
12d
100
AcDbEntity
  8
0
 62
5
100
AcDbSpline
 70
0
 71
3
 72
16
 73
12
 74
10
 40
0.000000
 40
0.000000
 40
0.000000
 40
0.000000
 40
2.039066
 40
6.494020
 40
11.236554
 40
19.143752
 40
27.420481
 40
35.327594
 40
40.071765
 40
44.528269
 40
46.567801
 40
46.567801
 40
46.567801
 40
46.567801
 10
31.372175
 20
147.798464
 30
0.0
 10
31.489802
 20
147.129088
 30
0.0
 10
31.864422
 20
144.997260
 30
0.0
 10
32.973398
 20
141.389631
 30
0.0
 10
36.479118
 20
136.622641
 30
0.0
 10
43.581889
 20
134.469153
 30
0.0
 10
51.536628
 20
134.468737
 30
0.0
 10
58.639264
 20
136.623500
 30
0.0
 10
62.146825
 20
141.389755
 30
0.0
 10
63.260275
 20
144.997079
 30
0.0
 10
63.637799
 20
147.129087
 30
0.0
 10
63.756328
 20
147.798464
 30
0.0
 11
31.372175
 21
147.798464
 31
0.0
 11
31.751311
 21
145.794956
 31
0.0
 11
33.174314
 21
141.573383
 31
0.0
 11
36.069572
 21
137.817173
 31
0.0
 11
43.420841
 21
134.904679
 31
0.0
 11
51.697570
 21
134.904624
 31
0.0
 11
59.048726
 21
137.817173
 31
0.0
 11
61.946581
 21
141.573447
 31
0.0
 11
63.374522
 21
145.794988
 31
0.0
 11
63.756328
 21
147.798464
 31
0.0
  0
LINE
  5
12e
100
AcDbEntity
  8
0
 62
5
100
AcDbLine
 10
110.746215
 20
103.429335
 30
0.0
 11
97.225327
 21
126.848200
 31
0.0
  0
SPLINE
  5
12f
100
AcDbEntity
  8
0
 62
5
100
AcDbSpline
 70
0
 71
3
 72
10
 73
6
 74
4
 40
0.000000
 40
0.000000
 40
0.000000
 40
0.000000
 40
1.517719
 40
2.076879
 40
2.156759
 40
2.156759
 40
2.156759
 40
2.156759
 10
112.737014
 20
102.599678
 30
0.0
 10
112.270036
 20
102.794289
 30
0.0
 10
111.631015
 20
103.060598
 30
0.0
 10
110.967415
 20
103.337151
 30
0.0
 10
110.770793
 20
103.419092
 30
0.0
 10
110.746215
 20
103.429335
 30
0.0
 11
112.737014
 21
102.599678
 31
0.0
 11
111.336082
 21
103.183510
 31
0.0
 11
110.819949
 21
103.398607
 31
0.0
 11
110.746215
 21
103.429335
 31
0.0
  0
LINE
  5
130
100
AcDbEntity
  8
0
 62
5
100
AcDbLine
 10
85.527817
 20
279.782314
 30
0.0
 11
70.558680
 21
294.632805
 31
0.0
  0
LINE
  5
131
100
AcDbEntity
  8
0
 62
5
100
AcDbLine
 10
70.558680
 20
294.632805
 30
0.0
 11
24.581433
 21
294.632805
 31
0.0
  0
LINE
  5
132
100
AcDbEntity
  8
0
 62
5
100
AcDbLine
 10
24.581433
 20
294.632805
 30
0.0
 11
9.612296
 21
279.782314
 31
0.0
  0
LINE
  5
133
100
AcDbEntity
  8
0
 62
1
100
AcDbLine
 10
61.784086
 20
279.782757
 30
0.0
 11
85.527817
 21
279.782192
 31
0.0
  0
LINE
  5
134
100
AcDbEntity
  8
0
 62
1
100
AcDbLine
 10
9.612296
 20
279.782314
 30
0.0
 11
33.356028
 21
279.781749
 31
0.0
  0
SPLINE
  5
135
100
AcDbEntity
  8
0
 62
5
100
AcDbSpline
 70
0
 71
3
 72
10
 73
6
 74
4
 40
0.000000
 40
0.000000
 40
0.000000
 40
0.000000
 40
0.079880
 40
0.639039
 40
2.156757
 40
2.156757
 40
2.156757
 40
2.156757
 10
97.225327
 20
126.848200
 30
0.0
 10
97.228745
 20
126.874606
 30
0.0
 10
97.256093
 20
127.085856
 30
0.0
 10
97.348392
 20
127.798826
 30
0.0
 10
97.437273
 20
128.485389
 30
0.0
 10
97.502224
 20
128.987108
 30
0.0
 11
97.225327
 21
126.848200
 31
0.0
 11
97.235582
 21
126.927418
 31
0.0
 11
97.307370
 21
127.481950
 31
0.0
 11
97.502224
 21
128.987108
 31
0.0
  0
LINE
  5
136
100
AcDbEntity
  8
0
 62
5
100
AcDbLine
 10
34.054277
 20
280.374072
 30
0.0
 11
61.096054
 21
280.374072
 31
0.0
  0
SPLINE
  5
137
100
AcDbEntity
  8
0
 62
5
100
AcDbSpline
 70
0
 71
3
 72
10
 73
6
 74
4
 40
0.000000
 40
0.000000
 40
0.000000
 40
0.000000
 40
1.517719
 40
2.076878
 40
2.156758
 40
2.156758
 40
2.156758
 40
2.156758
 10
32.340375
 20
279.064817
 30
0.0
 10
32.742401
 20
279.371926
 30
0.0
 10
33.292543
 20
279.792181
 30
0.0
 10
33.863843
 20
280.228599
 30
0.0
 10
34.033117
 20
280.357908
 30
0.0
 10
34.054277
 20
280.374072
 30
0.0
 11
32.340375
 21
279.064817
 31
0.0
 11
33.546454
 21
279.986144
 31
0.0
 11
33.990799
 21
280.325581
 31
0.0
 11
34.054277
 21
280.374072
 31
0.0
  0
LINE
  5
138
100
AcDbEntity
  8
0
 62
5
100
AcDbLine
 10
21.483679
 20
259.219371
 30
0.0
 11
22.844087
 21
256.864769
 31
0.0
  0
LINE
  5
139
100
AcDbEntity
  8
0
 62
5
100
AcDbLine
 10
22.844087
 20
256.864769
 30
0.0
 11
22.407074
 21
256.612459
 31
0.0
  0
LINE
  5
13a
100
AcDbEntity
  8
0
 62
5
100
AcDbLine
 10
22.407074
 20
256.612459
 30
0.0
 11
20.058375
 21
260.680523
 31
0.0
  0
SPLINE
  5
13b
100
AcDbEntity
  8
0
 62
5
100
AcDbSpline
 70
0
 71
3
 72
10
 73
6
 74
4
 40
0.000000
 40
0.000000
 40
0.000000
 40
0.000000
 40
0.079880
 40
0.639039
 40
2.156758
 40
2.156758
 40
2.156758
 40
2.156758
 10
61.096054
 20
280.374072
 30
0.0
 10
61.117213
 20
280.357908
 30
0.0
 10
61.286487
 20
280.228599
 30
0.0
 10
61.857788
 20
279.792181
 30
0.0
 10
62.407929
 20
279.371926
 30
0.0
 10
62.809955
 20
279.064817
 30
0.0
 11
61.096054
 21
280.374072
 31
0.0
 11
61.159532
 21
280.325581
 31
0.0
 11
61.603876
 21
279.986144
 31
0.0
 11
62.809955
 21
279.064817
 31
0.0
  0
LINE
  5
13c
100
AcDbEntity
  8
0
 62
5
100
AcDbLine
 10
36.250451
 20
232.635023
 30
0.0
 11
33.901758
 21
236.703081
 31
0.0
  0
LINE
  5
13d
100
AcDbEntity
  8
0
 62
5
100
AcDbLine
 10
33.901758
 20
236.703081
 30
0.0
 11
34.339530
 21
236.955828
 31
0.0
  0
LINE
  5
13e
100
AcDbEntity
  8
0
 62
5
100
AcDbLine
 10
34.339530
 20
236.955828
 30
0.0
 11
35.698472
 21
234.600379
 31
0.0
  0
LINE
  5
13f
100
AcDbEntity
  8
0
 62
5
100
AcDbLine
 10
21.483675
 20
259.219354
 30
0.0
 11
9.612296
 21
279.782314
 31
0.0
  0
LINE
  5
140
100
AcDbEntity
  8
0
 62
5
100
AcDbLine
 10
47.569955
 20
214.037479
 30
0.0
 11
35.698577
 21
234.600438
 31
0.0
  0
LINE
  5
141
100
AcDbEntity
  8
0
 62
1
100
AcDbLine
 10
25.728642
 20
251.869181
 30
0.0
 11
31.455284
 21
241.951475
 31
0.0
  0
LINE
  5
142
100
AcDbEntity
  8
0
 62
5
100
AcDbLine
 10
147.212036
 20
82.557418
 30
0.0
 11
149.931385
 21
82.558265
 31
0.0
  0
LINE
  5
143
100
AcDbEntity
  8
0
 62
5
100
AcDbLine
 10
149.931385
 20
82.558265
 30
0.0
 11
149.931385
 21
82.053646
 31
0.0
  0
LINE
  5
144
100
AcDbEntity
  8
0
 62
5
100
AcDbLine
 10
149.931385
 20
82.053646
 30
0.0
 11
145.233988
 21
82.053646
 31
0.0
  0
SPLINE
  5
145
100
AcDbEntity
  8
0
 62
5
100
AcDbSpline
 70
0
 71
3
 72
16
 73
12
 74
10
 40
0.000000
 40
0.000000
 40
0.000000
 40
0.000000
 40
2.039066
 40
6.494019
 40
11.236553
 40
19.143752
 40
27.420480
 40
35.327595
 40
40.071765
 40
44.528268
 40
46.567800
 40
46.567800
 40
46.567800
 40
46.567800
 10
20.058375
 20
260.680523
 30
0.0
 10
19.537493
 20
260.243967
 30
0.0
 10
17.878585
 20
258.853624
 30
0.0
 10
15.308774
 20
256.089408
 30
0.0
 10
12.933301
 20
250.669870
 30
0.0
 10
14.619710
 20
243.441946
 30
0.0
 10
18.596721
 20
236.552732
 30
0.0
 10
24.014117
 20
231.479049
 30
0.0
 10
29.895595
 20
230.824539
 30
0.0
 10
33.576354
 20
231.663925
 30
0.0
 10
35.611488
 20
232.402984
 30
0.0
 10
36.250451
 20
232.635023
 30
0.0
 11
20.058375
 21
260.680523
 31
0.0
 11
18.512854
 21
259.350428
 31
0.0
 11
15.568366
 21
256.007286
 31
0.0
 11
13.763022
 21
251.621813
 31
0.0
 11
14.916363
 21
243.799180
 31
0.0
 11
19.054680
 21
236.631296
 31
0.0
 11
25.252600
 21
231.721280
 31
0.0
 11
29.954555
 21
231.089801
 31
0.0
 11
34.324487
 21
231.963939
 31
0.0
 11
36.250451
 21
232.635023
 31
0.0
  0
LINE
  5
146
100
AcDbEntity
  8
0
 62
5
100
AcDbLine
 10
177.618142
 20
82.053646
 30
0.0
 11
172.920756
 21
82.053646
 31
0.0
  0
LINE
  5
147
100
AcDbEntity
  8
0
 62
5
100
AcDbLine
 10
172.920756
 20
82.053646
 30
0.0
 11
172.920756
 21
82.559140
 31
0.0
  0
LINE
  5
148
100
AcDbEntity
  8
0
 62
5
100
AcDbLine
 10
172.920756
 20
82.559140
 30
0.0
 11
175.640105
 21
82.558293
 31
0.0
  0
LINE
  5
149
100
AcDbEntity
  8
0
 62
5
100
AcDbLine
 10
147.212047
 20
82.557407
 30
0.0
 11
123.468313
 21
82.557971
 31
0.0
  0
LINE
  5
14a
100
AcDbEntity
  8
0
 62
5
100
AcDbLine
 10
199.383842
 20
82.557850
 30
0.0
 11
175.640105
 21
82.558414
 31
0.0
  0
LINE
  5
14b
100
AcDbEntity
  8
0
 62
1
100
AcDbLine
 10
155.699968
 20
82.558570
 30
0.0
 11
167.152278
 21
82.559134
 31
0.0
  0
LINE
  5
14c
100
AcDbEntity
  8
0
 62
5
100
AcDbLine
 10
111.614094
 20
234.600300
 30
0.0
 11
110.253687
 21
236.954902
 31
0.0
  0
LINE
  5
14d
100
AcDbEntity
  8
0
 62
5
100
AcDbLine
 10
110.253687
 20
236.954902
 30
0.0
 11
110.690700
 21
237.207212
 31
0.0
  0
LINE
  5
14e
100
AcDbEntity
  8
0
 62
5
100
AcDbLine
 10
110.690700
 20
237.207212
 30
0.0
 11
113.039398
 21
233.139148
 31
0.0
  0
SPLINE
  5
14f
100
AcDbEntity
  8
0
 62
5
100
AcDbSpline
 70
0
 71
3
 72
16
 73
12
 74
10
 40
0.000000
 40
0.000000
 40
0.000000
 40
0.000000
 40
2.039066
 40
6.494020
 40
11.236554
 40
19.143752
 40
27.420481
 40
35.327594
 40
40.071766
 40
44.528269
 40
46.567802
 40
46.567802
 40
46.567802
 40
46.567802
 10
145.233988
 20
82.053646
 30
0.0
 10
145.351616
 20
81.384270
 30
0.0
 10
145.726235
 20
79.252442
 30
0.0
 10
146.835212
 20
75.644813
 30
0.0
 10
150.340932
 20
70.877823
 30
0.0
 10
157.443702
 20
68.724335
 30
0.0
 10
165.398441
 20
68.723919
 30
0.0
 10
172.501077
 20
70.878683
 30
0.0
 10
176.008640
 20
75.644936
 30
0.0
 10
177.122089
 20
79.252260
 30
0.0
 10
177.499612
 20
81.384268
 30
0.0
 10
177.618142
 20
82.053646
 30
0.0
 11
145.233988
 21
82.053646
 31
0.0
 11
145.613125
 21
80.050138
 31
0.0
 11
147.036127
 21
75.828564
 31
0.0
 11
149.931385
 21
72.072355
 31
0.0
 11
157.282654
 21
69.159861
 31
0.0
 11
165.559383
 21
69.159806
 31
0.0
 11
172.910540
 21
72.072355
 31
0.0
 11
175.808396
 21
75.828628
 31
0.0
 11
177.236336
 21
80.050169
 31
0.0
 11
177.618142
 21
82.053646
 31
0.0
  0
LINE
  5
150
100
AcDbEntity
  8
0
 62
5
100
AcDbLine
 10
96.847321
 20
261.184648
 30
0.0
 11
99.196014
 21
257.116590
 31
0.0
  0
LINE
  5
151
100
AcDbEntity
  8
0
 62
5
100
AcDbLine
 10
99.196014
 20
257.116590
 30
0.0
 11
98.758242
 21
256.863843
 31
0.0
  0
LINE
  5
152
100
AcDbEntity
  8
0
 62
5
100
AcDbLine
 10
98.758242
 20
256.863843
 30
0.0
 11
97.399303
 21
259.219292
 31
0.0
  0
LINE
  5
153
100
AcDbEntity
  8
0
 62
5
100
AcDbLine
 10
111.614097
 20
234.600317
 30
0.0
 11
123.485475
 21
214.037357
 31
0.0
  0
LINE
  5
154
100
AcDbEntity
  8
0
 62
5
100
AcDbLine
 10
85.527817
 20
279.782192
 30
0.0
 11
97.399196
 21
259.219233
 31
0.0
  0
LINE
  5
155
100
AcDbEntity
  8
0
 62
1
100
AcDbLine
 10
107.369130
 20
241.950490
 30
0.0
 11
101.642489
 21
251.868196
 31
0.0
  0
LINE
  5
156
100
AcDbEntity
  8
0
 62
5
100
AcDbLine
 10
187.518254
 20
193.474536
 30
0.0
 11
186.157845
 21
191.119933
 31
0.0
  0
LINE
  5
157
100
AcDbEntity
  8
0
 62
5
100
AcDbLine
 10
186.157845
 20
191.119933
 30
0.0
 11
186.594860
 21
190.867624
 31
0.0
  0
LINE
  5
158
100
AcDbEntity
  8
0
 62
5
100
AcDbLine
 10
186.594860
 20
190.867624
 30
0.0
 11
188.943559
 21
194.935688
 31
0.0
  0
SPLINE
  5
159
100
AcDbEntity
  8
0
 62
5
100
AcDbSpline
 70
0
 71
3
 72
16
 73
12
 74
10
 40
0.000000
 40
0.000000
 40
0.000000
 40
0.000000
 40
2.039066
 40
6.494019
 40
11.236554
 40
19.143752
 40
27.420481
 40
35.327594
 40
40.071766
 40
44.528269
 40
46.567801
 40
46.567801
 40
46.567801
 40
46.567801
 10
113.039398
 20
233.139148
 30
0.0
 10
113.560281
 20
233.575704
 30
0.0
 10
115.219189
 20
234.966047
 30
0.0
 10
117.788999
 20
237.730263
 30
0.0
 10
120.164473
 20
243.149801
 30
0.0
 10
118.478062
 20
250.377725
 30
0.0
 10
114.501053
 20
257.266939
 30
0.0
 10
109.083656
 20
262.340622
 30
0.0
 10
103.202177
 20
262.995131
 30
0.0
 10
99.521419
 20
262.155746
 30
0.0
 10
97.486284
 20
261.416687
 30
0.0
 10
96.847321
 20
261.184648
 30
0.0
 11
113.039398
 21
233.139148
 31
0.0
 11
114.584919
 21
234.469243
 31
0.0
 11
117.529407
 21
237.812385
 31
0.0
 11
119.334751
 21
242.197857
 31
0.0
 11
118.181410
 21
250.020491
 31
0.0
 11
114.043093
 21
257.188375
 31
0.0
 11
107.845174
 21
262.098391
 31
0.0
 11
103.143217
 21
262.729870
 31
0.0
 11
98.773286
 21
261.855732
 31
0.0
 11
96.847321
 21
261.184648
 31
0.0
  0
LINE
  5
15a
100
AcDbEntity
  8
0
 62
5
100
AcDbLine
 10
172.751482
 20
166.890188
 30
0.0
 11
175.100175
 21
170.958243
 31
0.0
  0
LINE
  5
15b
100
AcDbEntity
  8
0
 62
5
100
AcDbLine
 10
175.100175
 20
170.958243
 30
0.0
 11
174.662403
 21
171.210990
 31
0.0
  0
LINE
  5
15c
100
AcDbEntity
  8
0
 62
5
100
AcDbLine
 10
174.662403
 20
171.210990
 30
0.0
 11
173.303461
 21
168.855541
 31
0.0
  0
LINE
  5
15d
100
AcDbEntity
  8
0
 62
5
100
AcDbLine
 10
187.518257
 20
193.474519
 30
0.0
 11
199.389636
 21
214.037479
 31
0.0
  0
LINE
  5
15e
100
AcDbEntity
  8
0
 62
5
100
AcDbLine
 10
161.431978
 20
148.292644
 30
0.0
 11
173.303356
 21
168.855603
 31
0.0
  0
LINE
  5
15f
100
AcDbEntity
  8
0
 62
1
100
AcDbLine
 10
183.273291
 20
186.124346
 30
0.0
 11
177.546649
 21
176.206637
 31
0.0
  0
SPLINE
  5
160
100
AcDbEntity
  8
0
 62
5
100
AcDbSpline
 70
0
 71
3
 72
16
 73
12
 74
10
 40
0.000000
 40
0.000000
 40
0.000000
 40
0.000000
 40
2.039066
 40
6.494019
 40
11.236554
 40
19.143752
 40
27.420481
 40
35.327594
 40
40.071766
 40
44.528269
 40
46.567801
 40
46.567801
 40
46.567801
 40
46.567801
 10
188.943559
 20
194.935688
 30
0.0
 10
189.464441
 20
194.499132
 30
0.0
 10
191.123349
 20
193.108789
 30
0.0
 10
193.693159
 20
190.344572
 30
0.0
 10
196.068634
 20
184.925035
 30
0.0
 10
194.382223
 20
177.697111
 30
0.0
 10
190.405213
 20
170.807897
 30
0.0
 10
184.987817
 20
165.734213
 30
0.0
 10
179.106338
 20
165.079704
 30
0.0
 10
175.425579
 20
165.919090
 30
0.0
 10
173.390444
 20
166.658149
 30
0.0
 10
172.751482
 20
166.890188
 30
0.0
 11
188.943559
 21
194.935688
 31
0.0
 11
190.489079
 21
193.605593
 31
0.0
 11
193.433568
 21
190.262451
 31
0.0
 11
195.238912
 21
185.876978
 31
0.0
 11
194.085570
 21
178.054345
 31
0.0
 11
189.947254
 21
170.886461
 31
0.0
 11
183.749335
 21
165.976445
 31
0.0
 11
179.047378
 21
165.344966
 31
0.0
 11
174.677446
 21
166.219104
 31
0.0
 11
172.751482
 21
166.890188
 31
0.0
  0
ENDSEC
  0
SECTION
  2
OBJECTS
  0
DICTIONARY
  5
C
330
0
100
AcDbDictionary
  3
ACAD_GROUP
350
D
  3
ACAD_MLINESTYLE
350
17
  0
DICTIONARY
  5
D
330
C
100
AcDbDictionary
  0
DICTIONARY
  5
1A
330
C
100
AcDbDictionary
  0
DICTIONARY
  5
17
330
C
100
AcDbDictionary
  3
STANDARD
350
18
  0
DICTIONARY
  5
19
330
C
100
AcDbDictionary
  0
ENDSEC
  0
EOF
