999
DXF created by Inkscape
  0
SECTION
  2
HEADER
  9
$ACADVER
  1
AC1014
  9
$HANDSEED
  5
FFFF
  9
$MEASUREMENT
 70
     1
  0
ENDSEC
  0
SECTION
  2
TABLES
  0
TABLE
  2
VPORT
  5
8
330
0
100
AcDbSymbolTable
 70
     4
  0
VPORT
  5
2E
330
8
100
AcDbSymbolTableRecord
100
AcDbViewportTableRecord
  2
*ACTIVE
 70
     0
 10
0.0
 20
0.0
 11
1.0
 21
1.0
 12
210.0
 22
148.5
 13
0.0
 23
0.0
 14
10.0
 24
10.0
 15
10.0
 25
10.0
 16
0.0
 26
0.0
 36
1.0
 17
0.0
 27
0.0
 37
0.0
 40
341.0
 41
1.24
 42
50.0
 43
0.0
 44
0.0
 50
0.0
 51
0.0
 71
     0
 72
   100
 73
     1
 74
     3
 75
     0
 76
     0
 77
     0
 78
     0
  0
ENDTAB
  0
TABLE
  2
LTYPE
  5
5
330
0
100
AcDbSymbolTable
 70
     1
  0
LTYPE
  5
14
330
5
100
AcDbSymbolTableRecord
100
AcDbLinetypeTableRecord
  2
BYBLOCK
 70
     0
  3

 72
    65
 73
     0
 40
0.0
  0
LTYPE
  5
15
330
5
100
AcDbSymbolTableRecord
100
AcDbLinetypeTableRecord
  2
BYLAYER
 70
     0
  3

 72
    65
 73
     0
 40
0.0
  0
LTYPE
  5
16
330
5
100
AcDbSymbolTableRecord
100
AcDbLinetypeTableRecord
  2
CONTINUOUS
 70
     0
  3
Solid line
 72
    65
 73
     0
 40
0.0
  0
ENDTAB
  0
TABLE
  2
LAYER
  5
2
330
0
100
AcDbSymbolTable
 70
1
  0
LAYER
  5
10
330
2
100
AcDbSymbolTableRecord
100
AcDbLayerTableRecord
  2
0
 70
     0
 62
     7
  6
CONTINUOUS
  0
ENDTAB
  0
TABLE
  2
STYLE
  5
3
330
0
100
AcDbSymbolTable
 70
     1
  0
STYLE
  5
11
330
3
100
AcDbSymbolTableRecord
100
AcDbTextStyleTableRecord
  2
STANDARD
 70
     0
 40
0.0
 41
1.0
 50
0.0
 71
     0
 42
2.5
  3
txt
  4

  0
ENDTAB
  0
TABLE
  2
VIEW
  5
6
330
0
100
AcDbSymbolTable
 70
     0
  0
ENDTAB
  0
TABLE
  2
UCS
  5
7
330
0
100
AcDbSymbolTable
 70
     0
  0
ENDTAB
  0
TABLE
  2
APPID
  5
9
330
0
100
AcDbSymbolTable
 70
     2
  0
APPID
  5
12
330
9
100
AcDbSymbolTableRecord
100
AcDbRegAppTableRecord
  2
ACAD
 70
     0
  0
ENDTAB
  0
TABLE
  2
DIMSTYLE
  5
A
330
0
100
AcDbSymbolTable
 70
     1
  0
DIMSTYLE
105
27
330
A
100
AcDbSymbolTableRecord
100
AcDbDimStyleTableRecord
  2
ISO-25
 70
     0
  3

  4

  5

  6

  7

 40
1.0
 41
2.5
 42
0.625
 43
3.75
 44
1.25
 45
0.0
 46
0.0
 47
0.0
 48
0.0
140
2.5
141
2.5
142
0.0
143
0.03937007874016
144
1.0
145
0.0
146
1.0
147
0.625
 71
     0
 72
     0
 73
     0
 74
     0
 75
     0
 76
     0
 77
     1
 78
     8
170
     0
171
     3
172
     1
173
     0
174
     0
175
     0
176
     0
177
     0
178
     0
270
     2
271
     2
272
     2
273
     2
274
     3
340
11
275
     0
280
     0
281
     0
282
     0
283
     0
284
     8
285
     0
286
     0
287
     3
288
     0
  0
ENDTAB
  0
TABLE
  2
BLOCK_RECORD
  5
1
330
0
100
AcDbSymbolTable
 70
     1
  0
BLOCK_RECORD
  5
1F
330
1
100
AcDbSymbolTableRecord
100
AcDbBlockTableRecord
  2
*MODEL_SPACE
  0
BLOCK_RECORD
  5
1B
330
1
100
AcDbSymbolTableRecord
100
AcDbBlockTableRecord
  2
*PAPER_SPACE
  0
ENDTAB
  0
ENDSEC
  0
SECTION
  2
BLOCKS
  0
BLOCK
  5
20
330
1F
100
AcDbEntity
  8
0
100
AcDbBlockBegin
  2
*MODEL_SPACE
 70
     0
 10
0.0
 20
0.0
 30
0.0
  3
*MODEL_SPACE
  1

  0
ENDBLK
  5
21
330
1F
100
AcDbEntity
  8
0
100
AcDbBlockEnd
  0
BLOCK
  5
1C
330
1B
100
AcDbEntity
 67
     1
  8
0
100
AcDbBlockBegin
  2
*PAPER_SPACE
  1

  0
ENDBLK
  5
1D
330
1B
100
AcDbEntity
 67
     1
  8
0
100
AcDbBlockEnd
  0
ENDSEC
  0
SECTION
  2
ENTITIES
  0
LINE
  5
100
100
AcDbEntity
  8
0
 62
1
100
AcDbLine
 10
60.551980
 20
201.748589
 30
0.0
 11
16.578320
 21
176.360394
 31
0.0
  0
LINE
  5
101
100
AcDbEntity
  8
0
 62
1
100
AcDbLine
 10
60.762645
 20
226.754748
 30
0.0
 11
16.788985
 21
252.142942
 31
0.0
  0
LINE
  5
102
100
AcDbEntity
  8
0
 62
1
100
AcDbLine
 10
16.578320
 20
176.360394
 30
0.0
 11
82.313255
 21
138.408321
 31
0.0
  0
LINE
  5
103
100
AcDbEntity
  8
0
 62
5
100
AcDbLine
 10
16.788985
 20
252.142942
 30
0.0
 11
22.327393
 21
272.488413
 31
0.0
  0
LINE
  5
104
100
AcDbEntity
  8
0
 62
5
100
AcDbLine
 10
22.327393
 20
272.488413
 30
0.0
 11
62.144856
 21
295.477036
 31
0.0
  0
LINE
  5
105
100
AcDbEntity
  8
0
 62
5
100
AcDbLine
 10
62.144856
 20
295.477036
 30
0.0
 11
82.533755
 21
290.100703
 31
0.0
  0
LINE
  5
106
100
AcDbEntity
  8
0
 62
1
100
AcDbLine
 10
35.610004
 20
263.008611
 30
0.0
 11
16.788985
 21
252.142942
 31
0.0
  0
LINE
  5
107
100
AcDbEntity
  8
0
 62
1
100
AcDbLine
 10
82.533755
 20
290.100703
 30
0.0
 11
63.655507
 21
279.200688
 31
0.0
  0
SPLINE
  5
108
100
AcDbEntity
  8
0
 62
1
100
AcDbSpline
 70
0
 71
3
 72
10
 73
6
 74
4
 40
0.000000
 40
0.000000
 40
0.000000
 40
0.000000
 40
17.849123
 40
24.425116
 40
25.364543
 40
25.364543
 40
25.364543
 40
25.364543
 10
60.567415
 20
226.899220
 30
0.0
 10
65.720013
 20
229.874074
 30
0.0
 10
72.770936
 20
233.944928
 30
0.0
 10
80.093048
 20
238.172352
 30
0.0
 10
82.262563
 20
239.424922
 30
0.0
 10
82.533752
 20
239.581494
 30
0.0
 11
60.567415
 21
226.899220
 31
0.0
 11
76.025208
 21
235.823783
 31
0.0
 11
81.720184
 21
239.111780
 31
0.0
 11
82.533752
 21
239.581494
 31
0.0
  0
LINE
  5
109
100
AcDbEntity
  8
0
 62
5
100
AcDbLine
 10
61.070501
 20
278.392189
 30
0.0
 11
37.651636
 21
264.871303
 31
0.0
  0
SPLINE
  5
10a
100
AcDbEntity
  8
0
 62
5
100
AcDbSpline
 70
0
 71
3
 72
10
 73
6
 74
4
 40
0.000000
 40
0.000000
 40
0.000000
 40
0.000000
 40
2.075535
 40
2.840205
 40
2.949444
 40
2.949444
 40
2.949444
 40
2.949444
 10
64.013972
 20
278.579807
 30
0.0
 10
63.323528
 20
278.535798
 30
0.0
 10
62.378710
 20
278.475575
 30
0.0
 10
61.397554
 20
278.413036
 30
0.0
 10
61.106840
 20
278.394506
 30
0.0
 10
61.070501
 20
278.392189
 30
0.0
 11
64.013972
 21
278.579807
 31
0.0
 11
61.942641
 21
278.447780
 31
0.0
 11
61.179519
 21
278.399138
 31
0.0
 11
61.070501
 21
278.392189
 31
0.0
  0
LINE
  5
10b
100
AcDbEntity
  8
0
 62
5
100
AcDbLine
 10
82.534125
 20
274.271086
 30
0.0
 11
82.533561
 21
272.458133
 31
0.0
  0
LINE
  5
10c
100
AcDbEntity
  8
0
 62
5
100
AcDbLine
 10
82.533561
 20
272.458133
 30
0.0
 11
83.038744
 21
272.453581
 31
0.0
  0
LINE
  5
10d
100
AcDbEntity
  8
0
 62
5
100
AcDbLine
 10
83.038744
 20
272.453581
 30
0.0
 11
83.038744
 21
275.589831
 31
0.0
  0
SPLINE
  5
10e
100
AcDbEntity
  8
0
 62
5
100
AcDbSpline
 70
0
 71
3
 72
10
 73
6
 74
4
 40
0.000000
 40
0.000000
 40
0.000000
 40
0.000000
 40
0.111118
 40
0.888948
 40
3.000198
 40
3.000198
 40
3.000198
 40
3.000198
 10
37.651636
 20
264.871303
 30
0.0
 10
37.630857
 20
264.840642
 30
0.0
 10
37.464618
 20
264.595350
 30
0.0
 10
36.903563
 20
263.767492
 30
0.0
 10
36.363288
 20
262.970295
 30
0.0
 10
35.968472
 20
262.387728
 30
0.0
 11
37.651636
 21
264.871303
 31
0.0
 11
37.589297
 21
264.779319
 31
0.0
 11
37.152921
 21
264.135429
 31
0.0
 11
35.968472
 21
262.387728
 31
0.0
  0
LINE
  5
10f
100
AcDbEntity
  8
0
 62
5
100
AcDbLine
 10
83.038744
 20
253.999764
 30
0.0
 11
83.038744
 21
257.131449
 31
0.0
  0
LINE
  5
110
100
AcDbEntity
  8
0
 62
5
100
AcDbLine
 10
83.038744
 20
257.131449
 30
0.0
 11
82.532976
 21
257.131440
 31
0.0
  0
LINE
  5
111
100
AcDbEntity
  8
0
 62
5
100
AcDbLine
 10
82.532976
 20
257.131440
 30
0.0
 11
82.533541
 21
255.318487
 31
0.0
  0
LINE
  5
112
100
AcDbEntity
  8
0
 62
5
100
AcDbLine
 10
82.534133
 20
274.271079
 30
0.0
 11
82.533851
 21
290.100703
 31
0.0
  0
LINE
  5
113
100
AcDbEntity
  8
0
 62
5
100
AcDbLine
 10
82.533837
 20
239.488857
 30
0.0
 11
82.533555
 21
255.318481
 31
0.0
  0
LINE
  5
114
100
AcDbEntity
  8
0
 62
1
100
AcDbLine
 10
82.533357
 20
268.612300
 30
0.0
 11
82.533075
 21
260.977201
 31
0.0
  0
LINE
  5
115
100
AcDbEntity
  8
0
 62
5
100
AcDbLine
 10
16.788432
 20
228.399220
 30
0.0
 11
16.789279
 21
225.679871
 31
0.0
  0
LINE
  5
116
100
AcDbEntity
  8
0
 62
5
100
AcDbLine
 10
16.789279
 20
225.679871
 30
0.0
 11
16.284660
 21
225.679871
 31
0.0
  0
LINE
  5
117
100
AcDbEntity
  8
0
 62
5
100
AcDbLine
 10
16.284660
 20
225.679871
 30
0.0
 11
16.284660
 21
230.377268
 31
0.0
  0
SPLINE
  5
118
100
AcDbEntity
  8
0
 62
5
100
AcDbSpline
 70
0
 71
3
 72
16
 73
12
 74
10
 40
0.000000
 40
0.000000
 40
0.000000
 40
0.000000
 40
1.316453
 40
4.209628
 40
7.336872
 40
12.608493
 40
18.126475
 40
23.398041
 40
26.526385
 40
29.420620
 40
30.737395
 40
30.737395
 40
30.737395
 40
30.737395
 10
83.038744
 20
275.589831
 30
0.0
 10
83.470457
 20
275.511416
 30
0.0
 10
84.850946
 20
275.260666
 30
0.0
 10
87.200327
 20
274.511435
 30
0.0
 10
90.317042
 20
272.164674
 30
0.0
 10
91.758301
 20
267.453484
 30
0.0
 10
91.758578
 20
262.142764
 30
0.0
 10
90.316470
 20
257.431648
 30
0.0
 10
87.200224
 20
255.083687
 30
0.0
 10
84.851067
 20
254.331476
 30
0.0
 10
83.470458
 20
254.078781
 30
0.0
 10
83.038744
 20
253.999764
 30
0.0
 11
83.038744
 21
275.589831
 31
0.0
 11
84.330703
 21
275.337066
 31
0.0
 11
87.063914
 21
274.388370
 31
0.0
 11
89.524374
 21
272.458140
 31
0.0
 11
91.466094
 21
267.557149
 31
0.0
 11
91.466130
 21
262.039167
 31
0.0
 11
89.524374
 21
257.138250
 31
0.0
 11
87.063871
 21
255.206293
 31
0.0
 11
84.330682
 21
254.254308
 31
0.0
 11
83.038744
 21
253.999764
 31
0.0
  0
LINE
  5
119
100
AcDbEntity
  8
0
 62
5
100
AcDbLine
 10
16.284660
 20
197.993114
 30
0.0
 11
16.284660
 21
202.690500
 31
0.0
  0
LINE
  5
11a
100
AcDbEntity
  8
0
 62
5
100
AcDbLine
 10
16.284660
 20
202.690500
 30
0.0
 11
16.790154
 21
202.690500
 31
0.0
  0
LINE
  5
11b
100
AcDbEntity
  8
0
 62
5
100
AcDbLine
 10
16.790154
 20
202.690500
 30
0.0
 11
16.789307
 21
199.971151
 31
0.0
  0
LINE
  5
11c
100
AcDbEntity
  8
0
 62
5
100
AcDbLine
 10
16.788421
 20
228.399209
 30
0.0
 11
16.788985
 21
252.142942
 31
0.0
  0
LINE
  5
11d
100
AcDbEntity
  8
0
 62
5
100
AcDbLine
 10
16.788864
 20
176.227417
 30
0.0
 11
16.789428
 21
199.971151
 31
0.0
  0
LINE
  5
11e
100
AcDbEntity
  8
0
 62
1
100
AcDbLine
 10
16.789583
 20
219.911288
 30
0.0
 11
16.790148
 21
208.458978
 31
0.0
  0
LINE
  5
11f
100
AcDbEntity
  8
0
 62
5
100
AcDbLine
 10
16.578320
 20
100.444874
 30
0.0
 11
1.727829
 21
115.414011
 31
0.0
  0
LINE
  5
120
100
AcDbEntity
  8
0
 62
5
100
AcDbLine
 10
1.727829
 20
115.414011
 30
0.0
 11
1.727829
 21
161.391257
 31
0.0
  0
LINE
  5
121
100
AcDbEntity
  8
0
 62
5
100
AcDbLine
 10
1.727829
 20
161.391257
 30
0.0
 11
16.578320
 21
176.360394
 31
0.0
  0
LINE
  5
122
100
AcDbEntity
  8
0
 62
1
100
AcDbLine
 10
16.578885
 20
122.177188
 30
0.0
 11
16.578320
 21
100.444874
 31
0.0
  0
LINE
  5
123
100
AcDbEntity
  8
0
 62
1
100
AcDbLine
 10
16.578320
 20
176.360394
 30
0.0
 11
16.578885
 21
154.561344
 31
0.0
  0
SPLINE
  5
124
100
AcDbEntity
  8
0
 62
5
100
AcDbSpline
 70
0
 71
3
 72
16
 73
12
 74
10
 40
0.000000
 40
0.000000
 40
0.000000
 40
0.000000
 40
2.039066
 40
6.494020
 40
11.236554
 40
19.143752
 40
27.420481
 40
35.327594
 40
40.071765
 40
44.528269
 40
46.567801
 40
46.567801
 40
46.567801
 40
46.567801
 10
16.284660
 20
230.377268
 30
0.0
 10
15.615284
 20
230.259640
 30
0.0
 10
13.483456
 20
229.885021
 30
0.0
 10
9.875827
 20
228.776044
 30
0.0
 10
5.108837
 20
225.270324
 30
0.0
 10
2.955349
 20
218.167554
 30
0.0
 10
2.954933
 20
210.212815
 30
0.0
 10
5.109696
 20
203.110179
 30
0.0
 10
9.875951
 20
199.602617
 30
0.0
 10
13.483274
 20
198.489168
 30
0.0
 10
15.615282
 20
198.111644
 30
0.0
 10
16.284660
 20
197.993114
 30
0.0
 11
16.284660
 21
230.377268
 31
0.0
 11
14.281151
 21
229.998131
 31
0.0
 11
10.059578
 21
228.575129
 31
0.0
 11
6.303368
 21
225.679871
 31
0.0
 11
3.390875
 21
218.328602
 31
0.0
 11
3.390820
 21
210.051873
 31
0.0
 11
6.303368
 21
202.700716
 31
0.0
 11
10.059642
 21
199.802861
 31
0.0
 11
14.281183
 21
198.374921
 31
0.0
 11
16.284660
 21
197.993114
 31
0.0
  0
LINE
  5
125
100
AcDbEntity
  8
0
 62
5
100
AcDbLine
 10
15.986562
 20
151.918415
 30
0.0
 11
15.986562
 21
124.876638
 31
0.0
  0
SPLINE
  5
126
100
AcDbEntity
  8
0
 62
5
100
AcDbSpline
 70
0
 71
3
 72
10
 73
6
 74
4
 40
0.000000
 40
0.000000
 40
0.000000
 40
0.000000
 40
2.075535
 40
2.840206
 40
2.949444
 40
2.949444
 40
2.949444
 40
2.949444
 10
17.295817
 20
154.561344
 30
0.0
 10
16.988708
 20
153.941397
 30
0.0
 10
16.568453
 20
153.093050
 30
0.0
 10
16.132035
 20
152.212073
 30
0.0
 10
16.002726
 20
151.951043
 30
0.0
 10
15.986562
 20
151.918415
 30
0.0
 11
17.295817
 21
154.561344
 31
0.0
 11
16.374490
 21
152.701505
 31
0.0
 11
16.035053
 21
152.016301
 31
0.0
 11
15.986562
 21
151.918415
 31
0.0
  0
LINE
  5
127
100
AcDbEntity
  8
0
 62
5
100
AcDbLine
 10
37.131363
 20
112.322044
 30
0.0
 11
39.485965
 21
113.682454
 31
0.0
  0
LINE
  5
128
100
AcDbEntity
  8
0
 62
5
100
AcDbLine
 10
39.485965
 20
113.682454
 30
0.0
 11
39.738275
 21
113.245438
 31
0.0
  0
LINE
  5
129
100
AcDbEntity
  8
0
 62
5
100
AcDbLine
 10
39.738275
 20
113.245438
 30
0.0
 11
35.670211
 21
110.896740
 31
0.0
  0
SPLINE
  5
12a
100
AcDbEntity
  8
0
 62
5
100
AcDbSpline
 70
0
 71
3
 72
10
 73
6
 74
4
 40
0.000000
 40
0.000000
 40
0.000000
 40
0.000000
 40
0.111118
 40
0.888947
 40
3.000196
 40
3.000196
 40
3.000196
 40
3.000196
 10
15.986562
 20
124.876638
 30
0.0
 10
16.002726
 20
124.843311
 30
0.0
 10
16.132035
 20
124.576699
 30
0.0
 10
16.568453
 20
123.676882
 30
0.0
 10
16.988708
 20
122.810392
 30
0.0
 10
17.295817
 20
122.177188
 30
0.0
 11
15.986562
 21
124.876638
 31
0.0
 11
16.035053
 21
124.776658
 31
0.0
 11
16.374490
 21
124.076801
 31
0.0
 11
17.295817
 21
122.177188
 31
0.0
  0
LINE
  5
12b
100
AcDbEntity
  8
0
 62
5
100
AcDbLine
 10
63.715711
 20
127.088817
 30
0.0
 11
59.647653
 21
124.740124
 31
0.0
  0
LINE
  5
12c
100
AcDbEntity
  8
0
 62
5
100
AcDbLine
 10
59.647653
 20
124.740124
 30
0.0
 11
59.394906
 21
125.177896
 31
0.0
  0
LINE
  5
12d
100
AcDbEntity
  8
0
 62
5
100
AcDbLine
 10
59.394906
 20
125.177896
 30
0.0
 11
61.750355
 21
126.536838
 31
0.0
  0
LINE
  5
12e
100
AcDbEntity
  8
0
 62
5
100
AcDbLine
 10
37.131379
 20
112.322041
 30
0.0
 11
16.568420
 21
100.450663
 31
0.0
  0
LINE
  5
12f
100
AcDbEntity
  8
0
 62
5
100
AcDbLine
 10
82.313255
 20
138.408321
 30
0.0
 11
61.750296
 21
126.536942
 31
0.0
  0
LINE
  5
130
100
AcDbEntity
  8
0
 62
1
100
AcDbLine
 10
44.481552
 20
116.567008
 30
0.0
 11
54.399259
 21
122.293649
 31
0.0
  0
LINE
  5
131
100
AcDbEntity
  8
0
 62
5
100
AcDbLine
 10
82.313258
 20
138.408321
 30
0.0
 11
92.213876
 21
148.388040
 31
0.0
  0
LINE
  5
132
100
AcDbEntity
  8
0
 62
5
100
AcDbLine
 10
92.213876
 20
148.388040
 30
0.0
 11
92.213876
 21
179.040447
 31
0.0
  0
LINE
  5
133
100
AcDbEntity
  8
0
 62
5
100
AcDbLine
 10
92.213876
 20
179.040447
 30
0.0
 11
82.313258
 21
189.020166
 31
0.0
  0
LINE
  5
134
100
AcDbEntity
  8
0
 62
1
100
AcDbLine
 10
82.312880
 20
152.884995
 30
0.0
 11
82.313162
 21
138.408321
 31
0.0
  0
LINE
  5
135
100
AcDbEntity
  8
0
 62
1
100
AcDbLine
 10
82.313258
 20
189.020166
 30
0.0
 11
82.312976
 21
174.475062
 31
0.0
  0
SPLINE
  5
136
100
AcDbEntity
  8
0
 62
5
100
AcDbSpline
 70
0
 71
3
 72
16
 73
12
 74
10
 40
0.000000
 40
0.000000
 40
0.000000
 40
0.000000
 40
2.039066
 40
6.494019
 40
11.236554
 40
19.143752
 40
27.420481
 40
35.327594
 40
40.071766
 40
44.528269
 40
46.567801
 40
46.567801
 40
46.567801
 40
46.567801
 10
35.670211
 20
110.896740
 30
0.0
 10
36.106766
 20
110.375857
 30
0.0
 10
37.497110
 20
108.716949
 30
0.0
 10
40.261326
 20
106.147139
 30
0.0
 10
45.680864
 20
103.771665
 30
0.0
 10
52.908787
 20
105.458076
 30
0.0
 10
59.798001
 20
109.435085
 30
0.0
 10
64.871685
 20
114.852482
 30
0.0
 10
65.526194
 20
120.733961
 30
0.0
 10
64.686809
 20
124.414719
 30
0.0
 10
63.947750
 20
126.449854
 30
0.0
 10
63.715711
 20
127.088817
 30
0.0
 11
35.670211
 21
110.896740
 31
0.0
 11
37.000306
 21
109.351219
 31
0.0
 11
40.343448
 21
106.406731
 31
0.0
 11
44.728920
 21
104.601387
 31
0.0
 11
52.551553
 21
105.754728
 31
0.0
 11
59.719438
 21
109.893045
 31
0.0
 11
64.629453
 21
116.090964
 31
0.0
 11
65.260932
 21
120.792921
 31
0.0
 11
64.386795
 21
125.162852
 31
0.0
 11
63.715711
 21
127.088817
 31
0.0
  0
LINE
  5
137
100
AcDbEntity
  8
0
 62
5
100
AcDbLine
 10
82.905016
 20
172.725031
 30
0.0
 11
82.905016
 21
154.696647
 31
0.0
  0
SPLINE
  5
138
100
AcDbEntity
  8
0
 62
5
100
AcDbSpline
 70
0
 71
3
 72
10
 73
6
 74
4
 40
0.000000
 40
0.000000
 40
0.000000
 40
0.000000
 40
1.537999
 40
2.104630
 40
2.185577
 40
2.185577
 40
2.185577
 40
2.185577
 10
81.595762
 20
174.475059
 30
0.0
 10
81.902871
 20
174.064559
 30
0.0
 10
82.323125
 20
173.502821
 30
0.0
 10
82.759543
 20
172.919478
 30
0.0
 10
82.888852
 20
172.746636
 30
0.0
 10
82.905016
 20
172.725031
 30
0.0
 11
81.595762
 21
174.475059
 31
0.0
 11
82.517089
 21
173.243558
 31
0.0
 11
82.856525
 21
172.789846
 31
0.0
 11
82.905016
 21
172.725031
 31
0.0
  0
LINE
  5
139
100
AcDbEntity
  8
0
 62
5
100
AcDbLine
 10
82.467552
 20
189.095627
 30
0.0
 11
80.621361
 21
195.877653
 31
0.0
  0
LINE
  5
13a
100
AcDbEntity
  8
0
 62
5
100
AcDbLine
 10
80.621361
 20
195.877653
 30
0.0
 11
67.348481
 21
203.540754
 31
0.0
  0
LINE
  5
13b
100
AcDbEntity
  8
0
 62
5
100
AcDbLine
 10
67.348481
 20
203.540754
 30
0.0
 11
60.551980
 21
201.748589
 31
0.0
  0
LINE
  5
13c
100
AcDbEntity
  8
0
 62
1
100
AcDbLine
 10
76.188821
 20
192.720438
 30
0.0
 11
82.467552
 21
189.095627
 31
0.0
  0
LINE
  5
13d
100
AcDbEntity
  8
0
 62
1
100
AcDbLine
 10
60.551980
 20
201.748589
 30
0.0
 11
66.840046
 21
198.117955
 31
0.0
  0
SPLINE
  5
13e
100
AcDbEntity
  8
0
 62
5
100
AcDbSpline
 70
0
 71
3
 72
10
 73
6
 74
4
 40
0.000000
 40
0.000000
 40
0.000000
 40
0.000000
 40
0.082786
 40
0.662289
 40
2.235225
 40
2.235225
 40
2.235225
 40
2.235225
 10
82.905016
 20
154.696647
 30
0.0
 10
82.888852
 20
154.674281
 30
0.0
 10
82.759543
 20
154.495352
 30
0.0
 10
82.323125
 20
153.891468
 30
0.0
 10
81.902871
 20
153.309950
 30
0.0
 10
81.595762
 20
152.884995
 30
0.0
 11
82.905016
 21
154.696647
 31
0.0
 11
82.856525
 21
154.629549
 31
0.0
 11
82.517089
 21
154.159861
 31
0.0
 11
81.595762
 21
152.884995
 31
0.0
  0
LINE
  5
13f
100
AcDbEntity
  8
0
 62
5
100
AcDbLine
 10
67.903841
 20
198.187249
 30
0.0
 11
75.710361
 21
193.680152
 31
0.0
  0
SPLINE
  5
140
100
AcDbEntity
  8
0
 62
5
100
AcDbSpline
 70
0
 71
3
 72
10
 73
6
 74
4
 40
0.000000
 40
0.000000
 40
0.000000
 40
0.000000
 40
1.112710
 40
1.522655
 40
1.581219
 40
1.581219
 40
1.581219
 40
1.581219
 10
66.481373
 20
197.496714
 30
0.0
 10
66.815038
 20
197.658691
 30
0.0
 10
67.271633
 20
197.880344
 30
0.0
 10
67.745789
 20
198.110523
 30
0.0
 10
67.886279
 20
198.178724
 30
0.0
 10
67.903841
 20
198.187249
 30
0.0
 11
66.481373
 21
197.496714
 31
0.0
 11
67.482369
 21
197.982646
 31
0.0
 11
67.851157
 21
198.161674
 31
0.0
 11
67.903841
 21
198.187249
 31
0.0
  0
LINE
  5
141
100
AcDbEntity
  8
0
 62
5
100
AcDbLine
 10
60.551980
 20
201.748589
 30
0.0
 11
65.502290
 21
206.738450
 31
0.0
  0
LINE
  5
142
100
AcDbEntity
  8
0
 62
5
100
AcDbLine
 10
65.502290
 20
206.738450
 30
0.0
 11
65.502290
 21
222.064652
 31
0.0
  0
LINE
  5
143
100
AcDbEntity
  8
0
 62
5
100
AcDbLine
 10
65.502290
 20
222.064652
 30
0.0
 11
60.551980
 21
227.054513
 31
0.0
  0
LINE
  5
144
100
AcDbEntity
  8
0
 62
1
100
AcDbLine
 10
60.551791
 20
208.998533
 30
0.0
 11
60.551980
 21
201.748589
 31
0.0
  0
LINE
  5
145
100
AcDbEntity
  8
0
 62
1
100
AcDbLine
 10
60.551980
 20
227.054513
 30
0.0
 11
60.551794
 21
219.793570
 31
0.0
  0
SPLINE
  5
146
100
AcDbEntity
  8
0
 62
5
100
AcDbSpline
 70
0
 71
3
 72
10
 73
6
 74
4
 40
0.000000
 40
0.000000
 40
0.000000
 40
0.000000
 40
0.058722
 40
0.469774
 40
1.585487
 40
1.585487
 40
1.585487
 40
1.585487
 10
75.710361
 20
193.680152
 30
0.0
 10
75.711840
 20
193.660634
 30
0.0
 10
75.723671
 20
193.504490
 30
0.0
 10
75.763600
 20
192.977505
 30
0.0
 10
75.802050
 20
192.470038
 30
0.0
 10
75.830148
 20
192.099197
 30
0.0
 11
75.710361
 21
193.680152
 31
0.0
 11
75.714798
 21
193.621598
 31
0.0
 11
75.745854
 21
193.211721
 31
0.0
 11
75.830148
 21
192.099197
 31
0.0
  0
LINE
  5
147
100
AcDbEntity
  8
0
 62
5
100
AcDbLine
 10
61.143698
 20
218.906944
 30
0.0
 11
61.143698
 21
209.892752
 31
0.0
  0
SPLINE
  5
148
100
AcDbEntity
  8
0
 62
5
100
AcDbSpline
 70
0
 71
3
 72
10
 73
6
 74
4
 40
0.000000
 40
0.000000
 40
0.000000
 40
0.000000
 40
1.112710
 40
1.522655
 40
1.581219
 40
1.581219
 40
1.581219
 40
1.581219
 10
59.834444
 20
219.793570
 30
0.0
 10
60.141553
 20
219.585596
 30
0.0
 10
60.561808
 20
219.301000
 30
0.0
 10
60.998226
 20
219.005458
 30
0.0
 10
61.127535
 20
218.917890
 30
0.0
 10
61.143698
 20
218.906944
 30
0.0
 11
59.834444
 21
219.793570
 31
0.0
 11
60.755771
 21
219.169648
 31
0.0
 11
61.095208
 21
218.939782
 31
0.0
 11
61.143698
 21
218.906944
 31
0.0
  0
LINE
  5
149
100
AcDbEntity
  8
0
 62
5
100
AcDbLine
 10
67.406314
 20
223.096947
 30
0.0
 11
68.191487
 21
222.643955
 31
0.0
  0
LINE
  5
14a
100
AcDbEntity
  8
0
 62
5
100
AcDbLine
 10
68.191487
 20
222.643955
 30
0.0
 11
67.938819
 21
222.206319
 31
0.0
  0
LINE
  5
14b
100
AcDbEntity
  8
0
 62
5
100
AcDbLine
 10
67.938819
 20
222.206319
 30
0.0
 11
66.582750
 21
222.989243
 31
0.0
  0
SPLINE
  5
14c
100
AcDbEntity
  8
0
 62
5
100
AcDbSpline
 70
0
 71
3
 72
10
 73
6
 74
4
 40
0.000000
 40
0.000000
 40
0.000000
 40
0.000000
 40
0.058722
 40
0.469774
 40
1.585488
 40
1.585488
 40
1.585488
 40
1.585488
 10
61.143698
 20
209.892752
 30
0.0
 10
61.127535
 20
209.881712
 30
0.0
 10
60.998226
 20
209.793394
 30
0.0
 10
60.561808
 20
209.495321
 30
0.0
 10
60.141553
 20
209.208288
 30
0.0
 10
59.834444
 20
208.998533
 30
0.0
 11
61.143698
 21
209.892752
 31
0.0
 11
61.095208
 21
209.859633
 31
0.0
 11
60.755771
 21
209.627798
 31
0.0
 11
59.834444
 21
208.998533
 31
0.0
  0
LINE
  5
14d
100
AcDbEntity
  8
0
 62
5
100
AcDbLine
 10
75.931525
 20
217.591726
 30
0.0
 11
74.575470
 21
218.374647
 31
0.0
  0
LINE
  5
14e
100
AcDbEntity
  8
0
 62
5
100
AcDbLine
 10
74.575470
 20
218.374647
 30
0.0
 11
74.828284
 21
218.812535
 31
0.0
  0
LINE
  5
14f
100
AcDbEntity
  8
0
 62
5
100
AcDbLine
 10
74.828284
 20
218.812535
 30
0.0
 11
75.613175
 21
218.359052
 31
0.0
  0
LINE
  5
150
100
AcDbEntity
  8
0
 62
5
100
AcDbLine
 10
67.406314
 20
223.096942
 30
0.0
 11
60.551980
 21
227.054513
 31
0.0
  0
LINE
  5
151
100
AcDbEntity
  8
0
 62
5
100
AcDbLine
 10
82.467532
 20
214.401514
 30
0.0
 11
75.613198
 21
218.359085
 31
0.0
  0
LINE
  5
152
100
AcDbEntity
  8
0
 62
1
100
AcDbLine
 10
69.856833
 20
221.682582
 30
0.0
 11
73.163021
 21
219.773973
 31
0.0
  0
LINE
  5
153
100
AcDbEntity
  8
0
 62
5
100
AcDbLine
 10
82.533896
 20
222.190379
 30
0.0
 11
82.533614
 21
223.096857
 31
0.0
  0
LINE
  5
154
100
AcDbEntity
  8
0
 62
5
100
AcDbLine
 10
82.533614
 20
223.096857
 30
0.0
 11
83.038953
 21
223.096857
 31
0.0
  0
LINE
  5
155
100
AcDbEntity
  8
0
 62
5
100
AcDbLine
 10
83.038953
 20
223.096857
 30
0.0
 11
83.038953
 21
221.531006
 31
0.0
  0
SPLINE
  5
156
100
AcDbEntity
  8
0
 62
5
100
AcDbSpline
 70
0
 71
3
 72
16
 73
12
 74
10
 40
0.000000
 40
0.000000
 40
0.000000
 40
0.000000
 40
0.594052
 40
1.926272
 40
3.438880
 40
6.074690
 40
8.833680
 40
11.469462
 40
12.982639
 40
14.315436
 40
14.909667
 40
14.909667
 40
14.909667
 40
14.909667
 10
66.582750
 20
222.989243
 30
0.0
 10
66.519676
 20
222.801554
 30
0.0
 10
66.315154
 20
222.192952
 30
0.0
 10
66.108567
 20
221.053705
 30
0.0
 10
66.402296
 20
219.190628
 30
0.0
 10
68.045961
 20
217.398581
 30
0.0
 10
70.355311
 20
216.065117
 30
0.0
 10
72.729305
 20
215.538056
 30
0.0
 10
74.490028
 20
216.214762
 30
0.0
 10
75.374567
 20
216.962429
 30
0.0
 10
75.800256
 20
217.443408
 30
0.0
 10
75.931525
 20
217.591726
 30
0.0
 11
66.582750
 21
222.989243
 31
0.0
 11
66.401975
 21
222.423365
 31
0.0
 11
66.190318
 21
221.108066
 31
0.0
 11
66.443781
 21
219.616845
 31
0.0
 11
68.080541
 21
217.550808
 31
0.0
 11
70.469888
 21
216.171297
 31
0.0
 11
73.077485
 21
215.786873
 31
0.0
 11
74.496411
 21
216.312564
 31
0.0
 11
75.531084
 21
217.152684
 31
0.0
 11
75.931525
 21
217.591726
 31
0.0
  0
LINE
  5
157
100
AcDbEntity
  8
0
 62
5
100
AcDbLine
 10
83.038953
 20
232.326040
 30
0.0
 11
83.038953
 21
230.760204
 31
0.0
  0
LINE
  5
158
100
AcDbEntity
  8
0
 62
5
100
AcDbLine
 10
83.038953
 20
230.760204
 30
0.0
 11
82.533323
 21
230.760204
 31
0.0
  0
LINE
  5
159
100
AcDbEntity
  8
0
 62
5
100
AcDbLine
 10
82.533323
 20
230.760204
 30
0.0
 11
82.533606
 21
231.666679
 31
0.0
  0
LINE
  5
15a
100
AcDbEntity
  8
0
 62
5
100
AcDbLine
 10
82.533899
 20
222.190385
 30
0.0
 11
82.533713
 21
214.275573
 31
0.0
  0
LINE
  5
15b
100
AcDbEntity
  8
0
 62
5
100
AcDbLine
 10
82.533752
 20
239.581494
 30
0.0
 11
82.533563
 21
231.666682
 31
0.0
  0
LINE
  5
15c
100
AcDbEntity
  8
0
 62
1
100
AcDbLine
 10
82.533513
 20
225.019773
 30
0.0
 11
82.533323
 21
228.837322
 31
0.0
  0
SPLINE
  5
15d
100
AcDbEntity
  8
0
 62
5
100
AcDbSpline
 70
0
 71
3
 72
16
 73
12
 74
10
 40
0.000000
 40
0.000000
 40
0.000000
 40
0.000000
 40
0.594052
 40
1.926273
 40
3.438880
 40
6.074691
 40
8.833682
 40
11.469464
 40
12.982640
 40
14.315437
 40
14.909668
 40
14.909668
 40
14.909668
 40
14.909668
 10
83.038953
 20
221.531006
 30
0.0
 10
83.233034
 20
221.570227
 30
0.0
 10
83.862360
 20
221.697406
 30
0.0
 10
84.952270
 20
222.088118
 30
0.0
 10
86.418879
 20
223.274033
 30
0.0
 10
87.149002
 20
225.593514
 30
0.0
 10
87.149140
 20
228.260202
 30
0.0
 10
86.418593
 20
230.579672
 30
0.0
 10
84.952186
 20
231.766150
 30
0.0
 10
83.862419
 20
232.158349
 30
0.0
 10
83.233034
 20
232.286517
 30
0.0
 10
83.038953
 20
232.326040
 30
0.0
 11
83.038953
 21
221.531006
 31
0.0
 11
83.619405
 21
221.657389
 31
0.0
 11
84.864318
 21
222.131737
 31
0.0
 11
86.029021
 21
223.096851
 31
0.0
 11
86.999880
 21
225.547347
 31
0.0
 11
86.999898
 21
228.306339
 31
0.0
 11
86.029021
 21
230.756797
 31
0.0
 11
84.864296
 21
231.722777
 31
0.0
 11
83.619395
 21
232.198769
 31
0.0
 11
83.038953
 21
232.326040
 31
0.0
  0
ENDSEC
  0
SECTION
  2
OBJECTS
  0
DICTIONARY
  5
C
330
0
100
AcDbDictionary
  3
ACAD_GROUP
350
D
  3
ACAD_MLINESTYLE
350
17
  0
DICTIONARY
  5
D
330
C
100
AcDbDictionary
  0
DICTIONARY
  5
1A
330
C
100
AcDbDictionary
  0
DICTIONARY
  5
17
330
C
100
AcDbDictionary
  3
STANDARD
350
18
  0
DICTIONARY
  5
19
330
C
100
AcDbDictionary
  0
ENDSEC
  0
EOF
