999
DXF created by Inkscape
  0
SECTION
  2
HEADER
  9
$ACADVER
  1
AC1014
  9
$HANDSEED
  5
FFFF
  9
$MEASUREMENT
 70
     1
  0
ENDSEC
  0
SECTION
  2
TABLES
  0
TABLE
  2
VPORT
  5
8
330
0
100
AcDbSymbolTable
 70
     4
  0
VPORT
  5
2E
330
8
100
AcDbSymbolTableRecord
100
AcDbViewportTableRecord
  2
*ACTIVE
 70
     0
 10
0.0
 20
0.0
 11
1.0
 21
1.0
 12
210.0
 22
148.5
 13
0.0
 23
0.0
 14
10.0
 24
10.0
 15
10.0
 25
10.0
 16
0.0
 26
0.0
 36
1.0
 17
0.0
 27
0.0
 37
0.0
 40
341.0
 41
1.24
 42
50.0
 43
0.0
 44
0.0
 50
0.0
 51
0.0
 71
     0
 72
   100
 73
     1
 74
     3
 75
     0
 76
     0
 77
     0
 78
     0
  0
ENDTAB
  0
TABLE
  2
LTYPE
  5
5
330
0
100
AcDbSymbolTable
 70
     1
  0
LTYPE
  5
14
330
5
100
AcDbSymbolTableRecord
100
AcDbLinetypeTableRecord
  2
BYBLOCK
 70
     0
  3

 72
    65
 73
     0
 40
0.0
  0
LTYPE
  5
15
330
5
100
AcDbSymbolTableRecord
100
AcDbLinetypeTableRecord
  2
BYLAYER
 70
     0
  3

 72
    65
 73
     0
 40
0.0
  0
LTYPE
  5
16
330
5
100
AcDbSymbolTableRecord
100
AcDbLinetypeTableRecord
  2
CONTINUOUS
 70
     0
  3
Solid line
 72
    65
 73
     0
 40
0.0
  0
ENDTAB
  0
TABLE
  2
LAYER
  5
2
330
0
100
AcDbSymbolTable
 70
1
  0
LAYER
  5
10
330
2
100
AcDbSymbolTableRecord
100
AcDbLayerTableRecord
  2
0
 70
     0
 62
     7
  6
CONTINUOUS
  0
ENDTAB
  0
TABLE
  2
STYLE
  5
3
330
0
100
AcDbSymbolTable
 70
     1
  0
STYLE
  5
11
330
3
100
AcDbSymbolTableRecord
100
AcDbTextStyleTableRecord
  2
STANDARD
 70
     0
 40
0.0
 41
1.0
 50
0.0
 71
     0
 42
2.5
  3
txt
  4

  0
ENDTAB
  0
TABLE
  2
VIEW
  5
6
330
0
100
AcDbSymbolTable
 70
     0
  0
ENDTAB
  0
TABLE
  2
UCS
  5
7
330
0
100
AcDbSymbolTable
 70
     0
  0
ENDTAB
  0
TABLE
  2
APPID
  5
9
330
0
100
AcDbSymbolTable
 70
     2
  0
APPID
  5
12
330
9
100
AcDbSymbolTableRecord
100
AcDbRegAppTableRecord
  2
ACAD
 70
     0
  0
ENDTAB
  0
TABLE
  2
DIMSTYLE
  5
A
330
0
100
AcDbSymbolTable
 70
     1
  0
DIMSTYLE
105
27
330
A
100
AcDbSymbolTableRecord
100
AcDbDimStyleTableRecord
  2
ISO-25
 70
     0
  3

  4

  5

  6

  7

 40
1.0
 41
2.5
 42
0.625
 43
3.75
 44
1.25
 45
0.0
 46
0.0
 47
0.0
 48
0.0
140
2.5
141
2.5
142
0.0
143
0.03937007874016
144
1.0
145
0.0
146
1.0
147
0.625
 71
     0
 72
     0
 73
     0
 74
     0
 75
     0
 76
     0
 77
     1
 78
     8
170
     0
171
     3
172
     1
173
     0
174
     0
175
     0
176
     0
177
     0
178
     0
270
     2
271
     2
272
     2
273
     2
274
     3
340
11
275
     0
280
     0
281
     0
282
     0
283
     0
284
     8
285
     0
286
     0
287
     3
288
     0
  0
ENDTAB
  0
TABLE
  2
BLOCK_RECORD
  5
1
330
0
100
AcDbSymbolTable
 70
     1
  0
BLOCK_RECORD
  5
1F
330
1
100
AcDbSymbolTableRecord
100
AcDbBlockTableRecord
  2
*MODEL_SPACE
  0
BLOCK_RECORD
  5
1B
330
1
100
AcDbSymbolTableRecord
100
AcDbBlockTableRecord
  2
*PAPER_SPACE
  0
ENDTAB
  0
ENDSEC
  0
SECTION
  2
BLOCKS
  0
BLOCK
  5
20
330
1F
100
AcDbEntity
  8
0
100
AcDbBlockBegin
  2
*MODEL_SPACE
 70
     0
 10
0.0
 20
0.0
 30
0.0
  3
*MODEL_SPACE
  1

  0
ENDBLK
  5
21
330
1F
100
AcDbEntity
  8
0
100
AcDbBlockEnd
  0
BLOCK
  5
1C
330
1B
100
AcDbEntity
 67
     1
  8
0
100
AcDbBlockBegin
  2
*PAPER_SPACE
  1

  0
ENDBLK
  5
1D
330
1B
100
AcDbEntity
 67
     1
  8
0
100
AcDbBlockEnd
  0
ENDSEC
  0
SECTION
  2
ENTITIES
  0
LINE
  5
100
100
AcDbEntity
  8
0
 62
1
100
AcDbLine
 10
85.522026
 20
148.302671
 30
0.0
 11
47.569947
 21
214.037600
 31
0.0
  0
LINE
  5
101
100
AcDbEntity
  8
0
 62
1
100
AcDbLine
 10
47.575735
 20
214.047385
 30
0.0
 11
98.145473
 21
214.047385
 31
0.0
  0
LINE
  5
102
100
AcDbEntity
  8
0
 62
5
100
AcDbLine
 10
125.766988
 20
227.242727
 30
0.0
 11
124.981815
 21
227.695719
 31
0.0
  0
LINE
  5
103
100
AcDbEntity
  8
0
 62
5
100
AcDbLine
 10
124.981815
 20
227.695719
 30
0.0
 11
125.234483
 21
228.133355
 31
0.0
  0
LINE
  5
104
100
AcDbEntity
  8
0
 62
5
100
AcDbLine
 10
125.234483
 20
228.133355
 30
0.0
 11
126.590552
 21
227.350429
 31
0.0
  0
LINE
  5
105
100
AcDbEntity
  8
0
 62
5
100
AcDbLine
 10
117.241777
 20
232.747946
 30
0.0
 11
118.597832
 21
231.965027
 31
0.0
  0
LINE
  5
106
100
AcDbEntity
  8
0
 62
5
100
AcDbLine
 10
118.597832
 20
231.965027
 30
0.0
 11
118.345018
 21
231.527140
 31
0.0
  0
LINE
  5
107
100
AcDbEntity
  8
0
 62
5
100
AcDbLine
 10
118.345018
 20
231.527140
 30
0.0
 11
117.560127
 21
231.980623
 31
0.0
  0
LINE
  5
108
100
AcDbEntity
  8
0
 62
5
100
AcDbLine
 10
125.766988
 20
227.242730
 30
0.0
 11
132.621322
 21
223.285161
 31
0.0
  0
LINE
  5
109
100
AcDbEntity
  8
0
 62
5
100
AcDbLine
 10
110.705770
 20
235.938157
 30
0.0
 11
117.560104
 21
231.980589
 31
0.0
  0
LINE
  5
10a
100
AcDbEntity
  8
0
 62
1
100
AcDbLine
 10
123.316469
 20
228.657089
 30
0.0
 11
120.010281
 21
230.565702
 31
0.0
  0
LINE
  5
10b
100
AcDbEntity
  8
0
 62
1
100
AcDbLine
 10
47.575735
 20
214.047385
 30
0.0
 11
85.527820
 21
279.782314
 31
0.0
  0
LINE
  5
10c
100
AcDbEntity
  8
0
 62
1
100
AcDbLine
 10
85.522026
 20
148.302671
 30
0.0
 11
161.426184
 21
148.302671
 31
0.0
  0
LINE
  5
10d
100
AcDbEntity
  8
0
 62
1
100
AcDbLine
 10
123.474105
 20
82.567742
 30
0.0
 11
161.426186
 21
148.302674
 31
0.0
  0
LINE
  5
10e
100
AcDbEntity
  8
0
 62
5
100
AcDbLine
 10
21.483679
 20
259.219371
 30
0.0
 11
22.844087
 21
256.864769
 31
0.0
  0
LINE
  5
10f
100
AcDbEntity
  8
0
 62
5
100
AcDbLine
 10
22.844087
 20
256.864769
 30
0.0
 11
22.407074
 21
256.612459
 31
0.0
  0
LINE
  5
110
100
AcDbEntity
  8
0
 62
5
100
AcDbLine
 10
22.407074
 20
256.612459
 30
0.0
 11
20.058375
 21
260.680523
 31
0.0
  0
SPLINE
  5
111
100
AcDbEntity
  8
0
 62
5
100
AcDbSpline
 70
0
 71
3
 72
16
 73
12
 74
10
 40
0.000000
 40
0.000000
 40
0.000000
 40
0.000000
 40
0.594052
 40
1.926274
 40
3.438882
 40
6.074693
 40
8.833683
 40
11.469465
 40
12.982642
 40
14.315440
 40
14.909672
 40
14.909672
 40
14.909672
 40
14.909672
 10
126.590552
 20
227.350429
 30
0.0
 10
126.653626
 20
227.538118
 30
0.0
 10
126.858148
 20
228.146721
 30
0.0
 10
127.064735
 20
229.285968
 30
0.0
 10
126.771006
 20
231.149046
 30
0.0
 10
125.127341
 20
232.941093
 30
0.0
 10
122.817991
 20
234.274557
 30
0.0
 10
120.443997
 20
234.801618
 30
0.0
 10
118.683273
 20
234.124911
 30
0.0
 10
117.798735
 20
233.377244
 30
0.0
 10
117.373046
 20
232.896264
 30
0.0
 10
117.241777
 20
232.747946
 30
0.0
 11
126.590552
 21
227.350429
 31
0.0
 11
126.771327
 21
227.916307
 31
0.0
 11
126.982984
 21
229.231608
 31
0.0
 11
126.729521
 21
230.722829
 31
0.0
 11
125.092761
 21
232.788866
 31
0.0
 11
122.703414
 21
234.168378
 31
0.0
 11
120.095817
 21
234.552802
 31
0.0
 11
118.676891
 21
234.027110
 31
0.0
 11
117.642218
 21
233.186988
 31
0.0
 11
117.241777
 21
232.747946
 31
0.0
  0
LINE
  5
112
100
AcDbEntity
  8
0
 62
5
100
AcDbLine
 10
36.250451
 20
232.635023
 30
0.0
 11
33.901758
 21
236.703081
 31
0.0
  0
LINE
  5
113
100
AcDbEntity
  8
0
 62
5
100
AcDbLine
 10
33.901758
 20
236.703081
 30
0.0
 11
34.339530
 21
236.955828
 31
0.0
  0
LINE
  5
114
100
AcDbEntity
  8
0
 62
5
100
AcDbLine
 10
34.339530
 20
236.955828
 30
0.0
 11
35.698472
 21
234.600379
 31
0.0
  0
LINE
  5
115
100
AcDbEntity
  8
0
 62
5
100
AcDbLine
 10
21.483675
 20
259.219354
 30
0.0
 11
9.612296
 21
279.782314
 31
0.0
  0
LINE
  5
116
100
AcDbEntity
  8
0
 62
5
100
AcDbLine
 10
47.569955
 20
214.037479
 30
0.0
 11
35.698577
 21
234.600438
 31
0.0
  0
LINE
  5
117
100
AcDbEntity
  8
0
 62
1
100
AcDbLine
 10
25.728642
 20
251.869181
 30
0.0
 11
31.455284
 21
241.951475
 31
0.0
  0
LINE
  5
118
100
AcDbEntity
  8
0
 62
5
100
AcDbLine
 10
147.212036
 20
82.557418
 30
0.0
 11
149.931385
 21
82.558265
 31
0.0
  0
LINE
  5
119
100
AcDbEntity
  8
0
 62
5
100
AcDbLine
 10
149.931385
 20
82.558265
 30
0.0
 11
149.931385
 21
82.053646
 31
0.0
  0
LINE
  5
11a
100
AcDbEntity
  8
0
 62
5
100
AcDbLine
 10
149.931385
 20
82.053646
 30
0.0
 11
145.233988
 21
82.053646
 31
0.0
  0
SPLINE
  5
11b
100
AcDbEntity
  8
0
 62
5
100
AcDbSpline
 70
0
 71
3
 72
16
 73
12
 74
10
 40
0.000000
 40
0.000000
 40
0.000000
 40
0.000000
 40
2.039066
 40
6.494019
 40
11.236553
 40
19.143752
 40
27.420480
 40
35.327595
 40
40.071765
 40
44.528268
 40
46.567800
 40
46.567800
 40
46.567800
 40
46.567800
 10
20.058375
 20
260.680523
 30
0.0
 10
19.537493
 20
260.243967
 30
0.0
 10
17.878585
 20
258.853624
 30
0.0
 10
15.308774
 20
256.089408
 30
0.0
 10
12.933301
 20
250.669870
 30
0.0
 10
14.619710
 20
243.441946
 30
0.0
 10
18.596721
 20
236.552732
 30
0.0
 10
24.014117
 20
231.479049
 30
0.0
 10
29.895595
 20
230.824539
 30
0.0
 10
33.576354
 20
231.663925
 30
0.0
 10
35.611488
 20
232.402984
 30
0.0
 10
36.250451
 20
232.635023
 30
0.0
 11
20.058375
 21
260.680523
 31
0.0
 11
18.512854
 21
259.350428
 31
0.0
 11
15.568366
 21
256.007286
 31
0.0
 11
13.763022
 21
251.621813
 31
0.0
 11
14.916363
 21
243.799180
 31
0.0
 11
19.054680
 21
236.631296
 31
0.0
 11
25.252600
 21
231.721280
 31
0.0
 11
29.954555
 21
231.089801
 31
0.0
 11
34.324487
 21
231.963939
 31
0.0
 11
36.250451
 21
232.635023
 31
0.0
  0
LINE
  5
11c
100
AcDbEntity
  8
0
 62
5
100
AcDbLine
 10
177.618142
 20
82.053646
 30
0.0
 11
172.920756
 21
82.053646
 31
0.0
  0
LINE
  5
11d
100
AcDbEntity
  8
0
 62
5
100
AcDbLine
 10
172.920756
 20
82.053646
 30
0.0
 11
172.920756
 21
82.559140
 31
0.0
  0
LINE
  5
11e
100
AcDbEntity
  8
0
 62
5
100
AcDbLine
 10
172.920756
 20
82.559140
 30
0.0
 11
175.640105
 21
82.558293
 31
0.0
  0
LINE
  5
11f
100
AcDbEntity
  8
0
 62
5
100
AcDbLine
 10
147.212047
 20
82.557407
 30
0.0
 11
123.468313
 21
82.557971
 31
0.0
  0
LINE
  5
120
100
AcDbEntity
  8
0
 62
5
100
AcDbLine
 10
199.383842
 20
82.557850
 30
0.0
 11
175.640105
 21
82.558414
 31
0.0
  0
LINE
  5
121
100
AcDbEntity
  8
0
 62
1
100
AcDbLine
 10
155.699968
 20
82.558570
 30
0.0
 11
167.152278
 21
82.559134
 31
0.0
  0
LINE
  5
122
100
AcDbEntity
  8
0
 62
5
100
AcDbLine
 10
187.518254
 20
193.474536
 30
0.0
 11
186.157845
 21
191.119933
 31
0.0
  0
LINE
  5
123
100
AcDbEntity
  8
0
 62
5
100
AcDbLine
 10
186.157845
 20
191.119933
 30
0.0
 11
186.594860
 21
190.867624
 31
0.0
  0
LINE
  5
124
100
AcDbEntity
  8
0
 62
5
100
AcDbLine
 10
186.594860
 20
190.867624
 30
0.0
 11
188.943559
 21
194.935688
 31
0.0
  0
SPLINE
  5
125
100
AcDbEntity
  8
0
 62
5
100
AcDbSpline
 70
0
 71
3
 72
16
 73
12
 74
10
 40
0.000000
 40
0.000000
 40
0.000000
 40
0.000000
 40
2.039066
 40
6.494020
 40
11.236554
 40
19.143752
 40
27.420481
 40
35.327594
 40
40.071766
 40
44.528269
 40
46.567802
 40
46.567802
 40
46.567802
 40
46.567802
 10
145.233988
 20
82.053646
 30
0.0
 10
145.351616
 20
81.384270
 30
0.0
 10
145.726235
 20
79.252442
 30
0.0
 10
146.835212
 20
75.644813
 30
0.0
 10
150.340932
 20
70.877823
 30
0.0
 10
157.443702
 20
68.724335
 30
0.0
 10
165.398441
 20
68.723919
 30
0.0
 10
172.501077
 20
70.878683
 30
0.0
 10
176.008640
 20
75.644936
 30
0.0
 10
177.122089
 20
79.252260
 30
0.0
 10
177.499612
 20
81.384268
 30
0.0
 10
177.618142
 20
82.053646
 30
0.0
 11
145.233988
 21
82.053646
 31
0.0
 11
145.613125
 21
80.050138
 31
0.0
 11
147.036127
 21
75.828564
 31
0.0
 11
149.931385
 21
72.072355
 31
0.0
 11
157.282654
 21
69.159861
 31
0.0
 11
165.559383
 21
69.159806
 31
0.0
 11
172.910540
 21
72.072355
 31
0.0
 11
175.808396
 21
75.828628
 31
0.0
 11
177.236336
 21
80.050169
 31
0.0
 11
177.618142
 21
82.053646
 31
0.0
  0
LINE
  5
126
100
AcDbEntity
  8
0
 62
5
100
AcDbLine
 10
172.751482
 20
166.890188
 30
0.0
 11
175.100175
 21
170.958243
 31
0.0
  0
LINE
  5
127
100
AcDbEntity
  8
0
 62
5
100
AcDbLine
 10
175.100175
 20
170.958243
 30
0.0
 11
174.662403
 21
171.210990
 31
0.0
  0
LINE
  5
128
100
AcDbEntity
  8
0
 62
5
100
AcDbLine
 10
174.662403
 20
171.210990
 30
0.0
 11
173.303461
 21
168.855541
 31
0.0
  0
LINE
  5
129
100
AcDbEntity
  8
0
 62
5
100
AcDbLine
 10
187.518257
 20
193.474519
 30
0.0
 11
199.389636
 21
214.037479
 31
0.0
  0
LINE
  5
12a
100
AcDbEntity
  8
0
 62
5
100
AcDbLine
 10
161.431978
 20
148.292644
 30
0.0
 11
173.303356
 21
168.855603
 31
0.0
  0
LINE
  5
12b
100
AcDbEntity
  8
0
 62
1
100
AcDbLine
 10
183.273291
 20
186.124346
 30
0.0
 11
177.546649
 21
176.206637
 31
0.0
  0
LINE
  5
12c
100
AcDbEntity
  8
0
 62
1
100
AcDbLine
 10
85.522026
 20
148.302671
 30
0.0
 11
110.806893
 21
192.097351
 31
0.0
  0
LINE
  5
12d
100
AcDbEntity
  8
0
 62
1
100
AcDbLine
 10
161.426186
 20
148.302682
 30
0.0
 11
136.141319
 21
192.097362
 31
0.0
  0
LINE
  5
12e
100
AcDbEntity
  8
0
 62
5
100
AcDbLine
 10
102.919183
 20
249.660042
 30
0.0
 11
102.012217
 21
251.229824
 31
0.0
  0
LINE
  5
12f
100
AcDbEntity
  8
0
 62
5
100
AcDbLine
 10
102.012217
 20
251.229824
 30
0.0
 11
102.447443
 21
251.486355
 31
0.0
  0
LINE
  5
130
100
AcDbEntity
  8
0
 62
5
100
AcDbLine
 10
102.447443
 20
251.486355
 30
0.0
 11
104.015568
 21
248.770282
 31
0.0
  0
SPLINE
  5
131
100
AcDbEntity
  8
0
 62
5
100
AcDbSpline
 70
0
 71
3
 72
16
 73
12
 74
10
 40
0.000000
 40
0.000000
 40
0.000000
 40
0.000000
 40
2.039066
 40
6.494019
 40
11.236554
 40
19.143752
 40
27.420481
 40
35.327594
 40
40.071766
 40
44.528269
 40
46.567801
 40
46.567801
 40
46.567801
 40
46.567801
 10
188.943559
 20
194.935688
 30
0.0
 10
189.464441
 20
194.499132
 30
0.0
 10
191.123349
 20
193.108789
 30
0.0
 10
193.693159
 20
190.344572
 30
0.0
 10
196.068634
 20
184.925035
 30
0.0
 10
194.382223
 20
177.697111
 30
0.0
 10
190.405213
 20
170.807897
 30
0.0
 10
184.987817
 20
165.734213
 30
0.0
 10
179.106338
 20
165.079704
 30
0.0
 10
175.425579
 20
165.919090
 30
0.0
 10
173.390444
 20
166.658149
 30
0.0
 10
172.751482
 20
166.890188
 30
0.0
 11
188.943559
 21
194.935688
 31
0.0
 11
190.489079
 21
193.605593
 31
0.0
 11
193.433568
 21
190.262451
 31
0.0
 11
195.238912
 21
185.876978
 31
0.0
 11
194.085570
 21
178.054345
 31
0.0
 11
189.947254
 21
170.886461
 31
0.0
 11
183.749335
 21
165.976445
 31
0.0
 11
179.047378
 21
165.344966
 31
0.0
 11
174.677446
 21
166.219104
 31
0.0
 11
172.751482
 21
166.890188
 31
0.0
  0
LINE
  5
132
100
AcDbEntity
  8
0
 62
5
100
AcDbLine
 10
93.220534
 20
267.467829
 30
0.0
 11
94.786377
 21
264.755713
 31
0.0
  0
LINE
  5
133
100
AcDbEntity
  8
0
 62
5
100
AcDbLine
 10
94.786377
 20
264.755713
 30
0.0
 11
94.348365
 21
264.502836
 31
0.0
  0
LINE
  5
134
100
AcDbEntity
  8
0
 62
5
100
AcDbLine
 10
94.348365
 20
264.502836
 30
0.0
 11
93.442378
 21
266.073180
 31
0.0
  0
LINE
  5
135
100
AcDbEntity
  8
0
 62
5
100
AcDbLine
 10
102.919186
 20
249.660050
 30
0.0
 11
110.833670
 21
235.951007
 31
0.0
  0
LINE
  5
136
100
AcDbEntity
  8
0
 62
5
100
AcDbLine
 10
85.527817
 20
279.782192
 30
0.0
 11
93.442305
 21
266.073146
 31
0.0
  0
LINE
  5
137
100
AcDbEntity
  8
0
 62
1
100
AcDbLine
 10
100.089123
 20
254.560311
 30
0.0
 11
96.271249
 21
261.172312
 31
0.0
  0
LINE
  5
138
100
AcDbEntity
  8
0
 62
5
100
AcDbLine
 10
85.516345
 20
148.312512
 30
0.0
 11
80.140011
 21
127.923613
 31
0.0
  0
LINE
  5
139
100
AcDbEntity
  8
0
 62
5
100
AcDbLine
 10
80.140011
 20
127.923613
 30
0.0
 11
103.128634
 21
88.106150
 31
0.0
  0
LINE
  5
13a
100
AcDbEntity
  8
0
 62
5
100
AcDbLine
 10
103.128634
 20
88.106150
 30
0.0
 11
123.474105
 21
82.567742
 31
0.0
  0
LINE
  5
13b
100
AcDbEntity
  8
0
 62
1
100
AcDbLine
 10
96.382990
 20
129.492057
 30
0.0
 11
85.516345
 21
148.312512
 31
0.0
  0
LINE
  5
13c
100
AcDbEntity
  8
0
 62
1
100
AcDbLine
 10
123.474105
 20
82.567742
 30
0.0
 11
112.575069
 21
101.446554
 31
0.0
  0
SPLINE
  5
13d
100
AcDbEntity
  8
0
 62
5
100
AcDbSpline
 70
0
 71
3
 72
16
 73
12
 74
10
 40
0.000000
 40
0.000000
 40
0.000000
 40
0.000000
 40
1.316453
 40
4.209627
 40
7.336872
 40
12.608493
 40
18.126475
 40
23.398039
 40
26.526384
 40
29.420620
 40
30.737394
 40
30.737394
 40
30.737394
 40
30.737394
 10
104.015568
 20
248.770282
 30
0.0
 10
104.350234
 20
249.054049
 30
0.0
 10
105.420398
 20
249.961449
 30
0.0
 10
107.080405
 20
251.784993
 30
0.0
 10
108.606179
 20
255.375706
 30
0.0
 10
107.498751
 20
260.176345
 30
0.0
 10
104.843632
 20
264.775702
 30
0.0
 10
101.239172
 20
268.134594
 30
0.0
 10
97.366444
 20
268.609866
 30
0.0
 10
94.955908
 20
268.086720
 30
0.0
 10
93.633918
 20
267.615255
 30
0.0
 10
93.220534
 20
267.467829
 30
0.0
 11
104.015568
 21
248.770282
 31
0.0
 11
105.008055
 21
249.635163
 31
0.0
 11
106.900735
 21
251.823363
 31
0.0
 11
108.066442
 21
254.725222
 31
0.0
 11
107.297525
 21
259.940465
 31
0.0
 11
104.538566
 21
264.719196
 31
0.0
 11
100.406499
 21
267.992636
 31
0.0
 11
97.309661
 21
268.435509
 31
0.0
 11
94.466657
 21
267.893357
 31
0.0
 11
93.220534
 21
267.467829
 31
0.0
  0
LINE
  5
13e
100
AcDbEntity
  8
0
 62
5
100
AcDbLine
 10
110.740639
 20
103.439238
 30
0.0
 11
97.219750
 21
126.858103
 31
0.0
  0
SPLINE
  5
13f
100
AcDbEntity
  8
0
 62
5
100
AcDbSpline
 70
0
 71
3
 72
10
 73
6
 74
4
 40
0.000000
 40
0.000000
 40
0.000000
 40
0.000000
 40
2.075534
 40
2.840204
 40
2.949443
 40
2.949443
 40
2.949443
 40
2.949443
 10
113.195949
 20
101.805022
 30
0.0
 10
112.620012
 20
102.188356
 30
0.0
 10
111.831888
 20
102.712920
 30
0.0
 10
111.013451
 20
103.257658
 30
0.0
 10
110.770951
 20
103.419062
 30
0.0
 10
110.740639
 20
103.439238
 30
0.0
 11
113.195949
 21
101.805022
 31
0.0
 11
111.468138
 21
102.955026
 31
0.0
 11
110.831576
 21
103.378711
 31
0.0
 11
110.740639
 21
103.439238
 31
0.0
  0
LINE
  5
140
100
AcDbEntity
  8
0
 62
5
100
AcDbLine
 10
33.350118
 20
148.302177
 30
0.0
 11
36.069468
 21
148.303024
 31
0.0
  0
LINE
  5
141
100
AcDbEntity
  8
0
 62
5
100
AcDbLine
 10
36.069468
 20
148.303024
 30
0.0
 11
36.069468
 21
147.798405
 31
0.0
  0
LINE
  5
142
100
AcDbEntity
  8
0
 62
5
100
AcDbLine
 10
36.069468
 20
147.798405
 30
0.0
 11
31.372071
 21
147.798405
 31
0.0
  0
SPLINE
  5
143
100
AcDbEntity
  8
0
 62
5
100
AcDbSpline
 70
0
 71
3
 72
10
 73
6
 74
4
 40
0.000000
 40
0.000000
 40
0.000000
 40
0.000000
 40
0.111118
 40
0.888948
 40
3.000199
 40
3.000199
 40
3.000199
 40
3.000199
 10
97.219750
 20
126.858103
 30
0.0
 10
97.217085
 20
126.895046
 30
0.0
 10
97.195764
 20
127.190594
 30
0.0
 10
97.123805
 20
128.188068
 30
0.0
 10
97.054511
 20
129.148599
 30
0.0
 10
97.003873
 20
129.850525
 30
0.0
 11
97.219750
 21
126.858103
 31
0.0
 11
97.211755
 21
126.968933
 31
0.0
 11
97.155787
 21
127.744746
 31
0.0
 11
97.003873
 21
129.850525
 31
0.0
  0
LINE
  5
144
100
AcDbEntity
  8
0
 62
5
100
AcDbLine
 10
63.756224
 20
147.798405
 30
0.0
 11
59.058838
 21
147.798405
 31
0.0
  0
LINE
  5
145
100
AcDbEntity
  8
0
 62
5
100
AcDbLine
 10
59.058838
 20
147.798405
 30
0.0
 11
59.058838
 21
148.303899
 31
0.0
  0
LINE
  5
146
100
AcDbEntity
  8
0
 62
5
100
AcDbLine
 10
59.058838
 20
148.303899
 30
0.0
 11
61.778188
 21
148.303052
 31
0.0
  0
LINE
  5
147
100
AcDbEntity
  8
0
 62
5
100
AcDbLine
 10
33.350129
 20
148.302166
 30
0.0
 11
9.606395
 21
148.302730
 31
0.0
  0
LINE
  5
148
100
AcDbEntity
  8
0
 62
5
100
AcDbLine
 10
85.521921
 20
148.302609
 30
0.0
 11
61.778188
 21
148.303173
 31
0.0
  0
LINE
  5
149
100
AcDbEntity
  8
0
 62
1
100
AcDbLine
 10
41.838047
 20
148.303328
 30
0.0
 11
53.290357
 21
148.303893
 31
0.0
  0
LINE
  5
14a
100
AcDbEntity
  8
0
 62
5
100
AcDbLine
 10
9.617975
 20
148.302620
 30
0.0
 11
4.241641
 21
168.691519
 31
0.0
  0
LINE
  5
14b
100
AcDbEntity
  8
0
 62
5
100
AcDbLine
 10
4.241641
 20
168.691519
 30
0.0
 11
27.230265
 21
208.508985
 31
0.0
  0
LINE
  5
14c
100
AcDbEntity
  8
0
 62
5
100
AcDbLine
 10
27.230265
 20
208.508985
 30
0.0
 11
47.575735
 21
214.047393
 31
0.0
  0
LINE
  5
14d
100
AcDbEntity
  8
0
 62
1
100
AcDbLine
 10
20.484622
 20
167.123075
 30
0.0
 11
9.617975
 21
148.302620
 31
0.0
  0
LINE
  5
14e
100
AcDbEntity
  8
0
 62
1
100
AcDbLine
 10
47.575735
 20
214.047393
 30
0.0
 11
36.676700
 21
195.168578
 31
0.0
  0
SPLINE
  5
14f
100
AcDbEntity
  8
0
 62
5
100
AcDbSpline
 70
0
 71
3
 72
16
 73
12
 74
10
 40
0.000000
 40
0.000000
 40
0.000000
 40
0.000000
 40
2.039066
 40
6.494020
 40
11.236555
 40
19.143752
 40
27.420480
 40
35.327595
 40
40.071766
 40
44.528269
 40
46.567802
 40
46.567802
 40
46.567802
 40
46.567802
 10
31.372071
 20
147.798405
 30
0.0
 10
31.489698
 20
147.129029
 30
0.0
 10
31.864316
 20
144.997201
 30
0.0
 10
32.973293
 20
141.389571
 30
0.0
 10
36.479014
 20
136.622583
 30
0.0
 10
43.581783
 20
134.469094
 30
0.0
 10
51.536523
 20
134.468679
 30
0.0
 10
58.639159
 20
136.623441
 30
0.0
 10
62.146721
 20
141.389696
 30
0.0
 10
63.260171
 20
144.997019
 30
0.0
 10
63.637694
 20
147.129027
 30
0.0
 10
63.756224
 20
147.798405
 30
0.0
 11
31.372071
 21
147.798405
 31
0.0
 11
31.751206
 21
145.794896
 31
0.0
 11
33.174208
 21
141.573323
 31
0.0
 11
36.069468
 21
137.817113
 31
0.0
 11
43.420736
 21
134.904620
 31
0.0
 11
51.697464
 21
134.904565
 31
0.0
 11
59.048622
 21
137.817113
 31
0.0
 11
61.946477
 21
141.573387
 31
0.0
 11
63.374417
 21
145.794928
 31
0.0
 11
63.756224
 21
147.798405
 31
0.0
  0
LINE
  5
150
100
AcDbEntity
  8
0
 62
5
100
AcDbLine
 10
34.842269
 20
193.175894
 30
0.0
 11
21.321381
 21
169.757029
 31
0.0
  0
SPLINE
  5
151
100
AcDbEntity
  8
0
 62
5
100
AcDbSpline
 70
0
 71
3
 72
10
 73
6
 74
4
 40
0.000000
 40
0.000000
 40
0.000000
 40
0.000000
 40
2.075535
 40
2.840206
 40
2.949445
 40
2.949445
 40
2.949445
 40
2.949445
 10
37.297580
 20
194.810113
 30
0.0
 10
36.721643
 20
194.426778
 30
0.0
 10
35.933519
 20
193.902214
 30
0.0
 10
35.115082
 20
193.357474
 30
0.0
 10
34.872582
 20
193.196070
 30
0.0
 10
34.842269
 20
193.175894
 30
0.0
 11
37.297580
 21
194.810113
 31
0.0
 11
35.569769
 21
193.660107
 31
0.0
 11
34.933207
 21
193.236421
 31
0.0
 11
34.842269
 21
193.175894
 31
0.0
  0
LINE
  5
152
100
AcDbEntity
  8
0
 62
5
100
AcDbLine
 10
9.612296
 20
279.782192
 30
0.0
 11
24.581433
 21
294.632683
 31
0.0
  0
LINE
  5
153
100
AcDbEntity
  8
0
 62
5
100
AcDbLine
 10
24.581433
 20
294.632683
 30
0.0
 11
70.558680
 21
294.632683
 31
0.0
  0
LINE
  5
154
100
AcDbEntity
  8
0
 62
5
100
AcDbLine
 10
70.558680
 20
294.632683
 30
0.0
 11
85.527817
 21
279.782192
 31
0.0
  0
LINE
  5
155
100
AcDbEntity
  8
0
 62
1
100
AcDbLine
 10
31.344610
 20
279.781628
 30
0.0
 11
9.612296
 21
279.782192
 31
0.0
  0
LINE
  5
156
100
AcDbEntity
  8
0
 62
1
100
AcDbLine
 10
85.527817
 20
279.782192
 30
0.0
 11
63.728767
 21
279.781628
 31
0.0
  0
SPLINE
  5
157
100
AcDbEntity
  8
0
 62
5
100
AcDbSpline
 70
0
 71
3
 72
10
 73
6
 74
4
 40
0.000000
 40
0.000000
 40
0.000000
 40
0.000000
 40
0.111118
 40
0.888947
 40
3.000196
 40
3.000196
 40
3.000196
 40
3.000196
 10
21.321381
 20
169.757029
 30
0.0
 10
21.318715
 20
169.720086
 30
0.0
 10
21.297394
 20
169.424538
 30
0.0
 10
21.225435
 20
168.427065
 30
0.0
 10
21.156141
 20
167.466536
 30
0.0
 10
21.105503
 20
166.764610
 30
0.0
 11
21.321381
 21
169.757029
 31
0.0
 11
21.313385
 21
169.646199
 31
0.0
 11
21.257417
 21
168.870387
 31
0.0
 11
21.105503
 21
166.764610
 31
0.0
  0
LINE
  5
158
100
AcDbEntity
  8
0
 62
5
100
AcDbLine
 10
61.085837
 20
280.373950
 30
0.0
 11
34.044060
 21
280.373950
 31
0.0
  0
SPLINE
  5
159
100
AcDbEntity
  8
0
 62
5
100
AcDbSpline
 70
0
 71
3
 72
10
 73
6
 74
4
 40
0.000000
 40
0.000000
 40
0.000000
 40
0.000000
 40
2.075535
 40
2.840206
 40
2.949444
 40
2.949444
 40
2.949444
 40
2.949444
 10
63.728767
 20
279.064696
 30
0.0
 10
63.108820
 20
279.371805
 30
0.0
 10
62.260472
 20
279.792059
 30
0.0
 10
61.379496
 20
280.228478
 30
0.0
 10
61.118466
 20
280.357787
 30
0.0
 10
61.085837
 20
280.373950
 30
0.0
 11
63.728767
 21
279.064696
 31
0.0
 11
61.868927
 21
279.986023
 31
0.0
 11
61.183724
 21
280.325459
 31
0.0
 11
61.085837
 21
280.373950
 31
0.0
  0
LINE
  5
15a
100
AcDbEntity
  8
0
 62
5
100
AcDbLine
 10
199.383946
 20
82.557909
 30
0.0
 11
204.760280
 21
102.946808
 31
0.0
  0
LINE
  5
15b
100
AcDbEntity
  8
0
 62
5
100
AcDbLine
 10
204.760280
 20
102.946808
 30
0.0
 11
181.771657
 21
142.764274
 31
0.0
  0
LINE
  5
15c
100
AcDbEntity
  8
0
 62
5
100
AcDbLine
 10
181.771657
 20
142.764274
 30
0.0
 11
161.426186
 21
148.302682
 31
0.0
  0
LINE
  5
15d
100
AcDbEntity
  8
0
 62
1
100
AcDbLine
 10
188.517301
 20
101.378364
 30
0.0
 11
199.383946
 21
82.557909
 31
0.0
  0
LINE
  5
15e
100
AcDbEntity
  8
0
 62
1
100
AcDbLine
 10
161.426186
 20
148.302682
 30
0.0
 11
172.325222
 21
129.423867
 31
0.0
  0
SPLINE
  5
15f
100
AcDbEntity
  8
0
 62
5
100
AcDbSpline
 70
0
 71
3
 72
10
 73
6
 74
4
 40
0.000000
 40
0.000000
 40
0.000000
 40
0.000000
 40
0.111118
 40
0.888947
 40
3.000196
 40
3.000196
 40
3.000196
 40
3.000196
 10
34.044060
 20
280.373950
 30
0.0
 10
34.010734
 20
280.357787
 30
0.0
 10
33.744121
 20
280.228478
 30
0.0
 10
32.844305
 20
279.792059
 30
0.0
 10
31.977815
 20
279.371805
 30
0.0
 10
31.344610
 20
279.064696
 30
0.0
 11
34.044060
 21
280.373950
 31
0.0
 11
33.944081
 21
280.325459
 31
0.0
 11
33.244223
 21
279.986023
 31
0.0
 11
31.344610
 21
279.064696
 31
0.0
  0
LINE
  5
160
100
AcDbEntity
  8
0
 62
5
100
AcDbLine
 10
174.159652
 20
127.431183
 30
0.0
 11
187.680541
 21
104.012318
 31
0.0
  0
SPLINE
  5
161
100
AcDbEntity
  8
0
 62
5
100
AcDbSpline
 70
0
 71
3
 72
10
 73
6
 74
4
 40
0.000000
 40
0.000000
 40
0.000000
 40
0.000000
 40
2.075535
 40
2.840206
 40
2.949445
 40
2.949445
 40
2.949445
 40
2.949445
 10
171.704341
 20
129.065402
 30
0.0
 10
172.280279
 20
128.682067
 30
0.0
 10
173.068403
 20
128.157503
 30
0.0
 10
173.886840
 20
127.612763
 30
0.0
 10
174.129340
 20
127.451359
 30
0.0
 10
174.159652
 20
127.431183
 30
0.0
 11
171.704341
 21
129.065402
 31
0.0
 11
173.432153
 21
127.915396
 31
0.0
 11
174.068715
 21
127.491710
 31
0.0
 11
174.159652
 21
127.431183
 31
0.0
  0
LINE
  5
162
100
AcDbEntity
  8
0
 62
1
100
AcDbLine
 10
110.764509
 20
235.904197
 30
0.0
 11
98.145473
 21
214.047385
 31
0.0
  0
LINE
  5
163
100
AcDbEntity
  8
0
 62
5
100
AcDbLine
 10
199.233463
 20
214.047385
 30
0.0
 11
189.253743
 21
223.948003
 31
0.0
  0
LINE
  5
164
100
AcDbEntity
  8
0
 62
5
100
AcDbLine
 10
189.253743
 20
223.948003
 30
0.0
 11
158.601337
 21
223.948003
 31
0.0
  0
LINE
  5
165
100
AcDbEntity
  8
0
 62
5
100
AcDbLine
 10
158.601337
 20
223.948003
 30
0.0
 11
148.621617
 21
214.047385
 31
0.0
  0
LINE
  5
166
100
AcDbEntity
  8
0
 62
1
100
AcDbLine
 10
184.756789
 20
214.047006
 30
0.0
 11
199.233463
 21
214.047289
 31
0.0
  0
LINE
  5
167
100
AcDbEntity
  8
0
 62
1
100
AcDbLine
 10
148.621617
 20
214.047385
 30
0.0
 11
163.166721
 21
214.047102
 31
0.0
  0
SPLINE
  5
168
100
AcDbEntity
  8
0
 62
5
100
AcDbSpline
 70
0
 71
3
 72
10
 73
6
 74
4
 40
0.000000
 40
0.000000
 40
0.000000
 40
0.000000
 40
0.111118
 40
0.888947
 40
3.000196
 40
3.000196
 40
3.000196
 40
3.000196
 10
187.680541
 20
104.012318
 30
0.0
 10
187.683206
 20
103.975375
 30
0.0
 10
187.704527
 20
103.679827
 30
0.0
 10
187.776486
 20
102.682354
 30
0.0
 10
187.845780
 20
101.721825
 30
0.0
 10
187.896418
 20
101.019899
 30
0.0
 11
187.680541
 21
104.012318
 31
0.0
 11
187.688536
 21
103.901488
 31
0.0
 11
187.744504
 21
103.125676
 31
0.0
 11
187.896418
 21
101.019899
 31
0.0
  0
LINE
  5
169
100
AcDbEntity
  8
0
 62
5
100
AcDbLine
 10
164.916753
 20
214.639143
 30
0.0
 11
182.945137
 21
214.639143
 31
0.0
  0
SPLINE
  5
16a
100
AcDbEntity
  8
0
 62
5
100
AcDbSpline
 70
0
 71
3
 72
10
 73
6
 74
4
 40
0.000000
 40
0.000000
 40
0.000000
 40
0.000000
 40
1.537999
 40
2.104630
 40
2.185577
 40
2.185577
 40
2.185577
 40
2.185577
 10
163.166724
 20
213.329888
 30
0.0
 10
163.577225
 20
213.636997
 30
0.0
 10
164.138962
 20
214.057252
 30
0.0
 10
164.722305
 20
214.493670
 30
0.0
 10
164.895148
 20
214.622979
 30
0.0
 10
164.916753
 20
214.639143
 30
0.0
 11
163.166724
 21
213.329888
 31
0.0
 11
164.398226
 21
214.251215
 31
0.0
 11
164.851937
 21
214.590652
 31
0.0
 11
164.916753
 21
214.639143
 31
0.0
  0
LINE
  5
16b
100
AcDbEntity
  8
0
 62
1
100
AcDbLine
 10
107.391587
 20
208.709417
 30
0.0
 11
110.697775
 21
206.800804
 31
0.0
  0
LINE
  5
16c
100
AcDbEntity
  8
0
 62
5
100
AcDbLine
 10
123.925889
 20
208.223944
 30
0.0
 11
124.378881
 21
209.009117
 31
0.0
  0
LINE
  5
16d
100
AcDbEntity
  8
0
 62
5
100
AcDbLine
 10
124.378881
 20
209.009117
 30
0.0
 11
124.816517
 21
208.756449
 31
0.0
  0
LINE
  5
16e
100
AcDbEntity
  8
0
 62
5
100
AcDbLine
 10
124.816517
 20
208.756449
 30
0.0
 11
124.033590
 21
207.400380
 31
0.0
  0
SPLINE
  5
16f
100
AcDbEntity
  8
0
 62
5
100
AcDbSpline
 70
0
 71
3
 72
10
 73
6
 74
4
 40
0.000000
 40
0.000000
 40
0.000000
 40
0.000000
 40
0.082786
 40
0.662289
 40
2.235225
 40
2.235225
 40
2.235225
 40
2.235225
 10
182.945137
 20
214.639143
 30
0.0
 10
182.967503
 20
214.622979
 30
0.0
 10
183.146432
 20
214.493670
 30
0.0
 10
183.750316
 20
214.057252
 30
0.0
 10
184.331834
 20
213.636997
 30
0.0
 10
184.756789
 20
213.329888
 30
0.0
 11
182.945137
 21
214.639143
 31
0.0
 11
183.012235
 21
214.590652
 31
0.0
 11
183.481923
 21
214.251215
 31
0.0
 11
184.756789
 21
213.329888
 31
0.0
  0
LINE
  5
170
100
AcDbEntity
  8
0
 62
5
100
AcDbLine
 10
129.431107
 20
216.749154
 30
0.0
 11
128.648189
 21
215.393099
 31
0.0
  0
LINE
  5
171
100
AcDbEntity
  8
0
 62
5
100
AcDbLine
 10
128.648189
 20
215.393099
 30
0.0
 11
128.210302
 21
215.645914
 31
0.0
  0
LINE
  5
172
100
AcDbEntity
  8
0
 62
5
100
AcDbLine
 10
128.210302
 20
215.645914
 30
0.0
 11
128.663785
 21
216.430805
 31
0.0
  0
LINE
  5
173
100
AcDbEntity
  8
0
 62
5
100
AcDbLine
 10
123.925892
 20
208.223944
 30
0.0
 11
119.968323
 21
201.369610
 31
0.0
  0
LINE
  5
174
100
AcDbEntity
  8
0
 62
5
100
AcDbLine
 10
132.621319
 20
223.285161
 30
0.0
 11
128.663751
 21
216.430827
 31
0.0
  0
LINE
  5
175
100
AcDbEntity
  8
0
 62
1
100
AcDbLine
 10
125.340251
 20
210.674462
 30
0.0
 11
127.248864
 21
213.980650
 31
0.0
  0
LINE
  5
176
100
AcDbEntity
  8
0
 62
5
100
AcDbLine
 10
136.112817
 20
192.097351
 30
0.0
 11
131.122956
 21
197.047661
 31
0.0
  0
LINE
  5
177
100
AcDbEntity
  8
0
 62
5
100
AcDbLine
 10
131.122956
 20
197.047661
 30
0.0
 11
115.796751
 21
197.047661
 31
0.0
  0
LINE
  5
178
100
AcDbEntity
  8
0
 62
5
100
AcDbLine
 10
115.796751
 20
197.047661
 30
0.0
 11
110.806893
 21
192.097351
 31
0.0
  0
LINE
  5
179
100
AcDbEntity
  8
0
 62
1
100
AcDbLine
 10
128.862870
 20
192.097162
 30
0.0
 11
136.112817
 21
192.097348
 31
0.0
  0
LINE
  5
17a
100
AcDbEntity
  8
0
 62
1
100
AcDbLine
 10
110.806893
 20
192.097351
 30
0.0
 11
118.067836
 21
192.097162
 31
0.0
  0
SPLINE
  5
17b
100
AcDbEntity
  8
0
 62
5
100
AcDbSpline
 70
0
 71
3
 72
16
 73
12
 74
10
 40
0.000000
 40
0.000000
 40
0.000000
 40
0.000000
 40
0.594052
 40
1.926274
 40
3.438882
 40
6.074693
 40
8.833683
 40
11.469465
 40
12.982642
 40
14.315440
 40
14.909672
 40
14.909672
 40
14.909672
 40
14.909672
 10
124.033590
 20
207.400380
 30
0.0
 10
124.221280
 20
207.337306
 30
0.0
 10
124.829882
 20
207.132783
 30
0.0
 10
125.969130
 20
206.926197
 30
0.0
 10
127.832208
 20
207.219925
 30
0.0
 10
129.624255
 20
208.863591
 30
0.0
 10
130.957719
 20
211.172941
 30
0.0
 10
131.484780
 20
213.546935
 30
0.0
 10
130.808073
 20
215.307658
 30
0.0
 10
130.060406
 20
216.192196
 30
0.0
 10
129.579426
 20
216.617886
 30
0.0
 10
129.431107
 20
216.749154
 30
0.0
 11
124.033590
 21
207.400380
 31
0.0
 11
124.599469
 21
207.219604
 31
0.0
 11
125.914770
 21
207.007947
 31
0.0
 11
127.405991
 21
207.261411
 31
0.0
 11
129.472028
 21
208.898171
 31
0.0
 11
130.851540
 21
211.287517
 31
0.0
 11
131.235964
 21
213.895114
 31
0.0
 11
130.710271
 21
215.314041
 31
0.0
 11
129.870150
 21
216.348713
 31
0.0
 11
129.431107
 21
216.749154
 31
0.0
  0
LINE
  5
17c
100
AcDbEntity
  8
0
 62
5
100
AcDbLine
 10
118.954460
 20
192.689069
 30
0.0
 11
127.968654
 21
192.689069
 31
0.0
  0
SPLINE
  5
17d
100
AcDbEntity
  8
0
 62
5
100
AcDbSpline
 70
0
 71
3
 72
10
 73
6
 74
4
 40
0.000000
 40
0.000000
 40
0.000000
 40
0.000000
 40
1.112709
 40
1.522654
 40
1.581217
 40
1.581217
 40
1.581217
 40
1.581217
 10
118.067836
 20
191.379815
 30
0.0
 10
118.275809
 20
191.686924
 30
0.0
 10
118.560405
 20
192.107178
 30
0.0
 10
118.855946
 20
192.543597
 30
0.0
 10
118.943514
 20
192.672906
 30
0.0
 10
118.954460
 20
192.689069
 30
0.0
 11
118.067836
 21
191.379815
 31
0.0
 11
118.691756
 21
192.301142
 31
0.0
 11
118.921622
 21
192.640578
 31
0.0
 11
118.954460
 21
192.689069
 31
0.0
  0
LINE
  5
17e
100
AcDbEntity
  8
0
 62
5
100
AcDbLine
 10
110.739696
 20
192.165773
 30
0.0
 11
112.531861
 21
198.962274
 31
0.0
  0
LINE
  5
17f
100
AcDbEntity
  8
0
 62
5
100
AcDbLine
 10
112.531861
 20
198.962274
 30
0.0
 11
110.314438
 21
202.788798
 31
0.0
  0
LINE
  5
180
100
AcDbEntity
  8
0
 62
5
100
AcDbLine
 10
110.314438
 20
202.788798
 30
0.0
 11
103.743664
 21
208.712515
 31
0.0
  0
LINE
  5
181
100
AcDbEntity
  8
0
 62
5
100
AcDbLine
 10
103.743664
 20
208.712515
 30
0.0
 11
101.930062
 21
210.347525
 31
0.0
  0
LINE
  5
182
100
AcDbEntity
  8
0
 62
5
100
AcDbLine
 10
101.930062
 20
210.347525
 30
0.0
 11
100.780683
 21
209.414910
 31
0.0
  0
LINE
  5
183
100
AcDbEntity
  8
0
 62
5
100
AcDbLine
 10
120.002286
 20
201.428349
 30
0.0
 11
113.147952
 21
205.385917
 31
0.0
  0
LINE
  5
184
100
AcDbEntity
  8
0
 62
5
100
AcDbLine
 10
104.941068
 20
210.123776
 30
0.0
 11
98.086734
 21
214.081344
 31
0.0
  0
SPLINE
  5
185
100
AcDbEntity
  8
0
 62
5
100
AcDbSpline
 70
0
 71
3
 72
10
 73
6
 74
4
 40
0.000000
 40
0.000000
 40
0.000000
 40
0.000000
 40
0.058722
 40
0.469774
 40
1.585487
 40
1.585487
 40
1.585487
 40
1.585487
 10
127.968654
 20
192.689069
 30
0.0
 10
127.979694
 20
192.672906
 30
0.0
 10
128.068012
 20
192.543597
 30
0.0
 10
128.366083
 20
192.107178
 30
0.0
 10
128.653116
 20
191.686924
 30
0.0
 10
128.862870
 20
191.379815
 30
0.0
 11
127.968654
 21
192.689069
 31
0.0
 11
128.001773
 21
192.640578
 31
0.0
 11
128.233607
 21
192.301142
 31
0.0
 11
128.862870
 21
191.379815
 31
0.0
  0
LINE
  5
186
100
AcDbEntity
  8
0
 62
5
100
AcDbLine
 10
113.466282
 20
204.618557
 30
0.0
 11
112.110226
 21
205.401476
 31
0.0
  0
LINE
  5
187
100
AcDbEntity
  8
0
 62
5
100
AcDbLine
 10
112.110226
 20
205.401476
 30
0.0
 11
112.363041
 21
205.839363
 31
0.0
  0
LINE
  5
188
100
AcDbEntity
  8
0
 62
5
100
AcDbLine
 10
112.363041
 20
205.839363
 30
0.0
 11
113.147932
 21
205.385880
 31
0.0
  0
LINE
  5
189
100
AcDbEntity
  8
0
 62
5
100
AcDbLine
 10
104.941071
 20
210.123776
 30
0.0
 11
105.726241
 21
209.670784
 31
0.0
  0
LINE
  5
18a
100
AcDbEntity
  8
0
 62
5
100
AcDbLine
 10
105.726241
 20
209.670784
 30
0.0
 11
105.473576
 21
209.233148
 31
0.0
  0
LINE
  5
18b
100
AcDbEntity
  8
0
 62
5
100
AcDbLine
 10
105.473576
 20
209.233148
 30
0.0
 11
104.117507
 21
210.016074
 31
0.0
  0
SPLINE
  5
18c
100
AcDbEntity
  8
0
 62
5
100
AcDbSpline
 70
0
 71
3
 72
10
 73
6
 74
4
 40
0.000000
 40
0.000000
 40
0.000000
 40
0.000000
 40
1.587954
 40
3.041887
 40
3.695048
 40
3.695048
 40
3.695048
 40
3.695048
 10
110.314438
 20
202.788798
 30
0.0
 10
110.828911
 20
202.933379
 30
0.0
 10
111.814436
 20
203.210339
 30
0.0
 10
112.800806
 20
203.985400
 30
0.0
 10
113.308810
 20
204.468733
 30
0.0
 10
113.466282
 20
204.618557
 30
0.0
 11
110.314438
 21
202.788798
 31
0.0
 11
111.810572
 21
203.320945
 31
0.0
 11
112.988632
 21
204.173058
 31
0.0
 11
113.466282
 21
204.618557
 31
0.0
  0
LINE
  5
18d
100
AcDbEntity
  8
0
 62
1
100
AcDbLine
 10
107.114560
 20
198.444317
 30
0.0
 11
110.739696
 21
192.165773
 31
0.0
  0
LINE
  5
18e
100
AcDbEntity
  8
0
 62
1
100
AcDbLine
 10
98.086737
 20
214.081347
 30
0.0
 11
101.717043
 21
207.793092
 31
0.0
  0
SPLINE
  5
18f
100
AcDbEntity
  8
0
 62
5
100
AcDbSpline
 70
0
 71
3
 72
10
 73
6
 74
4
 40
0.000000
 40
0.000000
 40
0.000000
 40
0.000000
 40
0.167467
 40
0.634250
 40
1.363294
 40
1.363294
 40
1.363294
 40
1.363294
 10
104.117507
 20
210.016074
 30
0.0
 10
104.091346
 20
209.966742
 30
0.0
 10
103.992267
 20
209.779904
 30
0.0
 10
103.841712
 20
209.347566
 30
0.0
 10
103.780801
 20
208.953039
 30
0.0
 10
103.743667
 20
208.712513
 30
0.0
 11
104.117507
 21
210.016074
 31
0.0
 11
104.041049
 21
209.867080
 31
0.0
 11
103.881516
 21
209.428405
 31
0.0
 11
103.743667
 21
208.712513
 31
0.0
  0
LINE
  5
190
100
AcDbEntity
  8
0
 62
5
100
AcDbLine
 10
102.672961
 20
207.321205
 30
0.0
 11
107.180058
 21
199.514684
 31
0.0
  0
SPLINE
  5
191
100
AcDbEntity
  8
0
 62
5
100
AcDbSpline
 70
0
 71
3
 72
10
 73
6
 74
4
 40
0.000000
 40
0.000000
 40
0.000000
 40
0.000000
 40
1.112709
 40
1.522654
 40
1.581217
 40
1.581217
 40
1.581217
 40
1.581217
 10
101.095802
 20
207.434416
 30
0.0
 10
101.465752
 20
207.407860
 30
0.0
 10
101.972001
 20
207.371521
 30
0.0
 10
102.497721
 20
207.333784
 30
0.0
 10
102.653490
 20
207.322603
 30
0.0
 10
102.672961
 20
207.321205
 30
0.0
 11
101.095802
 21
207.434416
 31
0.0
 11
102.205654
 21
207.354749
 31
0.0
 11
102.614548
 21
207.325398
 31
0.0
 11
102.672961
 21
207.321205
 31
0.0
  0
LINE
  5
192
100
AcDbEntity
  8
0
 62
5
100
AcDbLine
 10
136.141319
 20
192.097362
 30
0.0
 11
134.349154
 21
198.893863
 31
0.0
  0
LINE
  5
193
100
AcDbEntity
  8
0
 62
5
100
AcDbLine
 10
134.349154
 20
198.893863
 30
0.0
 11
142.012255
 21
212.166746
 31
0.0
  0
LINE
  5
194
100
AcDbEntity
  8
0
 62
5
100
AcDbLine
 10
142.012255
 20
212.166746
 30
0.0
 11
148.794278
 21
214.012937
 31
0.0
  0
LINE
  5
195
100
AcDbEntity
  8
0
 62
1
100
AcDbLine
 10
139.766455
 20
198.375906
 30
0.0
 11
136.141319
 21
192.097362
 31
0.0
  0
LINE
  5
196
100
AcDbEntity
  8
0
 62
1
100
AcDbLine
 10
148.794278
 20
214.012937
 30
0.0
 11
145.163972
 21
207.724681
 31
0.0
  0
SPLINE
  5
197
100
AcDbEntity
  8
0
 62
5
100
AcDbSpline
 70
0
 71
3
 72
10
 73
6
 74
4
 40
0.000000
 40
0.000000
 40
0.000000
 40
0.000000
 40
0.058722
 40
0.469774
 40
1.585487
 40
1.585487
 40
1.585487
 40
1.585487
 10
107.180058
 20
199.514684
 30
0.0
 10
107.171580
 20
199.497042
 30
0.0
 10
107.103754
 20
199.355902
 30
0.0
 10
106.874841
 20
198.879555
 30
0.0
 10
106.654406
 20
198.420851
 30
0.0
 10
106.493318
 20
198.085644
 30
0.0
 11
107.180058
 21
199.514684
 31
0.0
 11
107.154623
 21
199.461757
 31
0.0
 11
106.976580
 21
199.091265
 31
0.0
 11
106.493318
 21
198.085644
 31
0.0
  0
LINE
  5
198
100
AcDbEntity
  8
0
 62
5
100
AcDbLine
 10
144.208054
 20
207.252794
 30
0.0
 11
139.700957
 21
199.446274
 31
0.0
  0
SPLINE
  5
199
100
AcDbEntity
  8
0
 62
5
100
AcDbSpline
 70
0
 71
3
 72
10
 73
6
 74
4
 40
0.000000
 40
0.000000
 40
0.000000
 40
0.000000
 40
1.112709
 40
1.522654
 40
1.581217
 40
1.581217
 40
1.581217
 40
1.581217
 10
145.785213
 20
207.366005
 30
0.0
 10
145.415263
 20
207.339449
 30
0.0
 10
144.909014
 20
207.303110
 30
0.0
 10
144.383294
 20
207.265373
 30
0.0
 10
144.227525
 20
207.254192
 30
0.0
 10
144.208054
 20
207.252794
 30
0.0
 11
145.785213
 21
207.366005
 31
0.0
 11
144.675361
 21
207.286338
 31
0.0
 11
144.266467
 21
207.256987
 31
0.0
 11
144.208054
 21
207.252794
 31
0.0
  0
SPLINE
  5
19a
100
AcDbEntity
  8
0
 62
5
100
AcDbSpline
 70
0
 71
3
 72
10
 73
6
 74
4
 40
0.000000
 40
0.000000
 40
0.000000
 40
0.000000
 40
0.058722
 40
0.469774
 40
1.585487
 40
1.585487
 40
1.585487
 40
1.585487
 10
139.700957
 20
199.446274
 30
0.0
 10
139.709435
 20
199.428631
 30
0.0
 10
139.777261
 20
199.287491
 30
0.0
 10
140.006174
 20
198.811144
 30
0.0
 10
140.226609
 20
198.352440
 30
0.0
 10
140.387697
 20
198.017233
 30
0.0
 11
139.700957
 21
199.446274
 31
0.0
 11
139.726392
 21
199.393346
 31
0.0
 11
139.904435
 21
199.022854
 31
0.0
 11
140.387697
 21
198.017233
 31
0.0
  0
ENDSEC
  0
SECTION
  2
OBJECTS
  0
DICTIONARY
  5
C
330
0
100
AcDbDictionary
  3
ACAD_GROUP
350
D
  3
ACAD_MLINESTYLE
350
17
  0
DICTIONARY
  5
D
330
C
100
AcDbDictionary
  0
DICTIONARY
  5
1A
330
C
100
AcDbDictionary
  0
DICTIONARY
  5
17
330
C
100
AcDbDictionary
  3
STANDARD
350
18
  0
DICTIONARY
  5
19
330
C
100
AcDbDictionary
  0
ENDSEC
  0
EOF
