999
DXF created by Inkscape
  0
SECTION
  2
HEADER
  9
$ACADVER
  1
AC1014
  9
$HANDSEED
  5
FFFF
  9
$MEASUREMENT
 70
     1
  0
ENDSEC
  0
SECTION
  2
TABLES
  0
TABLE
  2
VPORT
  5
8
330
0
100
AcDbSymbolTable
 70
     4
  0
VPORT
  5
2E
330
8
100
AcDbSymbolTableRecord
100
AcDbViewportTableRecord
  2
*ACTIVE
 70
     0
 10
0.0
 20
0.0
 11
1.0
 21
1.0
 12
210.0
 22
148.5
 13
0.0
 23
0.0
 14
10.0
 24
10.0
 15
10.0
 25
10.0
 16
0.0
 26
0.0
 36
1.0
 17
0.0
 27
0.0
 37
0.0
 40
341.0
 41
1.24
 42
50.0
 43
0.0
 44
0.0
 50
0.0
 51
0.0
 71
     0
 72
   100
 73
     1
 74
     3
 75
     0
 76
     0
 77
     0
 78
     0
  0
ENDTAB
  0
TABLE
  2
LTYPE
  5
5
330
0
100
AcDbSymbolTable
 70
     1
  0
LTYPE
  5
14
330
5
100
AcDbSymbolTableRecord
100
AcDbLinetypeTableRecord
  2
BYBLOCK
 70
     0
  3

 72
    65
 73
     0
 40
0.0
  0
LTYPE
  5
15
330
5
100
AcDbSymbolTableRecord
100
AcDbLinetypeTableRecord
  2
BYLAYER
 70
     0
  3

 72
    65
 73
     0
 40
0.0
  0
LTYPE
  5
16
330
5
100
AcDbSymbolTableRecord
100
AcDbLinetypeTableRecord
  2
CONTINUOUS
 70
     0
  3
Solid line
 72
    65
 73
     0
 40
0.0
  0
ENDTAB
  0
TABLE
  2
LAYER
  5
2
330
0
100
AcDbSymbolTable
 70
1
  0
LAYER
  5
10
330
2
100
AcDbSymbolTableRecord
100
AcDbLayerTableRecord
  2
0
 70
     0
 62
     7
  6
CONTINUOUS
  0
ENDTAB
  0
TABLE
  2
STYLE
  5
3
330
0
100
AcDbSymbolTable
 70
     1
  0
STYLE
  5
11
330
3
100
AcDbSymbolTableRecord
100
AcDbTextStyleTableRecord
  2
STANDARD
 70
     0
 40
0.0
 41
1.0
 50
0.0
 71
     0
 42
2.5
  3
txt
  4

  0
ENDTAB
  0
TABLE
  2
VIEW
  5
6
330
0
100
AcDbSymbolTable
 70
     0
  0
ENDTAB
  0
TABLE
  2
UCS
  5
7
330
0
100
AcDbSymbolTable
 70
     0
  0
ENDTAB
  0
TABLE
  2
APPID
  5
9
330
0
100
AcDbSymbolTable
 70
     2
  0
APPID
  5
12
330
9
100
AcDbSymbolTableRecord
100
AcDbRegAppTableRecord
  2
ACAD
 70
     0
  0
ENDTAB
  0
TABLE
  2
DIMSTYLE
  5
A
330
0
100
AcDbSymbolTable
 70
     1
  0
DIMSTYLE
105
27
330
A
100
AcDbSymbolTableRecord
100
AcDbDimStyleTableRecord
  2
ISO-25
 70
     0
  3

  4

  5

  6

  7

 40
1.0
 41
2.5
 42
0.625
 43
3.75
 44
1.25
 45
0.0
 46
0.0
 47
0.0
 48
0.0
140
2.5
141
2.5
142
0.0
143
0.03937007874016
144
1.0
145
0.0
146
1.0
147
0.625
 71
     0
 72
     0
 73
     0
 74
     0
 75
     0
 76
     0
 77
     1
 78
     8
170
     0
171
     3
172
     1
173
     0
174
     0
175
     0
176
     0
177
     0
178
     0
270
     2
271
     2
272
     2
273
     2
274
     3
340
11
275
     0
280
     0
281
     0
282
     0
283
     0
284
     8
285
     0
286
     0
287
     3
288
     0
  0
ENDTAB
  0
TABLE
  2
BLOCK_RECORD
  5
1
330
0
100
AcDbSymbolTable
 70
     1
  0
BLOCK_RECORD
  5
1F
330
1
100
AcDbSymbolTableRecord
100
AcDbBlockTableRecord
  2
*MODEL_SPACE
  0
BLOCK_RECORD
  5
1B
330
1
100
AcDbSymbolTableRecord
100
AcDbBlockTableRecord
  2
*PAPER_SPACE
  0
ENDTAB
  0
ENDSEC
  0
SECTION
  2
BLOCKS
  0
BLOCK
  5
20
330
1F
100
AcDbEntity
  8
0
100
AcDbBlockBegin
  2
*MODEL_SPACE
 70
     0
 10
0.0
 20
0.0
 30
0.0
  3
*MODEL_SPACE
  1

  0
ENDBLK
  5
21
330
1F
100
AcDbEntity
  8
0
100
AcDbBlockEnd
  0
BLOCK
  5
1C
330
1B
100
AcDbEntity
 67
     1
  8
0
100
AcDbBlockBegin
  2
*PAPER_SPACE
  1

  0
ENDBLK
  5
1D
330
1B
100
AcDbEntity
 67
     1
  8
0
100
AcDbBlockEnd
  0
ENDSEC
  0
SECTION
  2
ENTITIES
  0
LINE
  5
100
100
AcDbEntity
  8
0
 62
5
100
AcDbLine
 10
5.140475
 20
116.659959
 30
0.0
 11
10.079364
 21
108.105552
 31
0.0
  0
LINE
  5
101
100
AcDbEntity
  8
0
 62
5
100
AcDbLine
 10
10.079364
 20
108.105552
 30
0.0
 11
9.590541
 21
107.823330
 31
0.0
  0
LINE
  5
102
100
AcDbEntity
  8
0
 62
5
100
AcDbLine
 10
9.590541
 20
107.823330
 30
0.0
 11
8.743874
 21
109.289799
 31
0.0
  0
SPLINE
  5
103
100
AcDbEntity
  8
0
 62
5
100
AcDbSpline
 70
0
 71
3
 72
10
 73
6
 74
4
 40
0.000000
 40
0.000000
 40
0.000000
 40
0.000000
 40
0.639580
 40
2.107725
 40
3.851412
 40
3.851412
 40
3.851412
 40
3.851412
 10
8.743874
 20
109.289799
 30
0.0
 10
8.582050
 20
109.151499
 30
0.0
 10
8.048761
 20
108.695735
 30
0.0
 10
7.174552
 20
107.717908
 30
0.0
 10
6.839500
 20
106.688731
 30
0.0
 10
6.657602
 20
106.129997
 30
0.0
 11
8.743874
 21
109.289799
 31
0.0
 11
8.263454
 21
108.867592
 31
0.0
 11
7.319416
 21
107.743206
 31
0.0
 11
6.657602
 21
106.129997
 31
0.0
  0
SPLINE
  5
104
100
AcDbEntity
  8
0
 62
5
100
AcDbSpline
 70
0
 71
3
 72
10
 73
6
 74
4
 40
0.000000
 40
0.000000
 40
0.000000
 40
0.000000
 40
2.923536
 40
5.996623
 40
8.920159
 40
8.920159
 40
8.920159
 40
8.920159
 10
6.657602
 20
106.129997
 30
0.0
 10
6.705563
 20
105.148296
 30
0.0
 10
6.803940
 20
103.134678
 30
0.0
 10
8.370081
 20
100.422041
 30
0.0
 10
10.064738
 20
99.330035
 30
0.0
 10
10.890935
 20
98.797649
 30
0.0
 11
6.657602
 21
106.129997
 31
0.0
 11
7.028350
 21
103.230064
 31
0.0
 11
8.564894
 21
100.568693
 31
0.0
 11
10.890935
 21
98.797649
 31
0.0
  0
LINE
  5
105
100
AcDbEntity
  8
0
 62
5
100
AcDbLine
 10
14.670541
 20
99.024513
 30
0.0
 11
13.823874
 21
100.490982
 31
0.0
  0
LINE
  5
106
100
AcDbEntity
  8
0
 62
5
100
AcDbLine
 10
13.823874
 20
100.490982
 30
0.0
 11
14.312698
 21
100.773205
 31
0.0
  0
LINE
  5
107
100
AcDbEntity
  8
0
 62
5
100
AcDbLine
 10
14.312698
 20
100.773205
 30
0.0
 11
19.251587
 21
92.218798
 31
0.0
  0
LINE
  5
108
100
AcDbEntity
  8
0
 62
1
100
AcDbLine
 10
11.067142
 20
106.394671
 30
0.0
 11
13.324920
 21
102.484087
 31
0.0
  0
LINE
  5
109
100
AcDbEntity
  8
0
 62
5
100
AcDbLine
 10
33.362640
 20
116.659925
 30
0.0
 11
35.184238
 21
109.090581
 31
0.0
  0
LINE
  5
10a
100
AcDbEntity
  8
0
 62
5
100
AcDbLine
 10
35.184238
 20
109.090581
 30
0.0
 11
26.717572
 21
94.425886
 31
0.0
  0
LINE
  5
10b
100
AcDbEntity
  8
0
 62
5
100
AcDbLine
 10
26.717572
 20
94.425886
 30
0.0
 11
19.251529
 21
92.218764
 31
0.0
  0
LINE
  5
10c
100
AcDbEntity
  8
0
 62
5
100
AcDbLine
 10
28.678293
 20
110.239734
 30
0.0
 11
29.335908
 21
108.556532
 31
0.0
  0
LINE
  5
10d
100
AcDbEntity
  8
0
 62
5
100
AcDbLine
 10
29.335908
 20
108.556532
 30
0.0
 11
24.255908
 21
99.757713
 31
0.0
  0
LINE
  5
10e
100
AcDbEntity
  8
0
 62
5
100
AcDbLine
 10
24.255908
 20
99.757713
 30
0.0
 11
22.469406
 21
99.485622
 31
0.0
  0
LINE
  5
10f
100
AcDbEntity
  8
0
 62
1
100
AcDbLine
 10
33.362640
 20
116.659925
 30
0.0
 11
29.411529
 21
109.816400
 31
0.0
  0
LINE
  5
110
100
AcDbEntity
  8
0
 62
1
100
AcDbLine
 10
19.251529
 20
92.218764
 30
0.0
 11
23.202640
 21
99.062289
 31
0.0
  0
LINE
  5
111
100
AcDbEntity
  8
0
 62
5
100
AcDbLine
 10
33.362584
 20
116.659959
 30
0.0
 11
38.301473
 21
108.105552
 31
0.0
  0
LINE
  5
112
100
AcDbEntity
  8
0
 62
5
100
AcDbLine
 10
38.301473
 20
108.105552
 30
0.0
 11
37.812650
 21
107.823330
 31
0.0
  0
LINE
  5
113
100
AcDbEntity
  8
0
 62
5
100
AcDbLine
 10
37.812650
 20
107.823330
 30
0.0
 11
36.965983
 21
109.289799
 31
0.0
  0
SPLINE
  5
114
100
AcDbEntity
  8
0
 62
5
100
AcDbSpline
 70
0
 71
3
 72
10
 73
6
 74
4
 40
0.000000
 40
0.000000
 40
0.000000
 40
0.000000
 40
1.743687
 40
3.211832
 40
3.851413
 40
3.851413
 40
3.851413
 40
3.851413
 10
10.890935
 20
98.797649
 30
0.0
 10
11.465762
 20
98.675810
 30
0.0
 10
12.524581
 20
98.451386
 30
0.0
 10
13.808509
 20
98.719559
 30
0.0
 10
14.469857
 20
98.953519
 30
0.0
 10
14.670541
 20
99.024513
 30
0.0
 11
10.890935
 21
98.797649
 31
0.0
 11
12.618923
 21
98.564193
 31
0.0
 11
14.064688
 21
98.819560
 31
0.0
 11
14.670541
 21
99.024513
 31
0.0
  0
SPLINE
  5
115
100
AcDbEntity
  8
0
 62
5
100
AcDbSpline
 70
0
 71
3
 72
10
 73
6
 74
4
 40
0.000000
 40
0.000000
 40
0.000000
 40
0.000000
 40
0.639580
 40
2.107725
 40
3.851413
 40
3.851413
 40
3.851413
 40
3.851413
 10
36.965983
 20
109.289799
 30
0.0
 10
36.804159
 20
109.151499
 30
0.0
 10
36.270870
 20
108.695735
 30
0.0
 10
35.396661
 20
107.717907
 30
0.0
 10
35.061608
 20
106.688731
 30
0.0
 10
34.879709
 20
106.129997
 30
0.0
 11
36.965983
 21
109.289799
 31
0.0
 11
36.485562
 21
108.867592
 31
0.0
 11
35.541525
 21
107.743206
 31
0.0
 11
34.879709
 21
106.129997
 31
0.0
  0
SPLINE
  5
116
100
AcDbEntity
  8
0
 62
5
100
AcDbSpline
 70
0
 71
3
 72
10
 73
6
 74
4
 40
0.000000
 40
0.000000
 40
0.000000
 40
0.000000
 40
2.923536
 40
5.996623
 40
8.920159
 40
8.920159
 40
8.920159
 40
8.920159
 10
34.879709
 20
106.129997
 30
0.0
 10
34.927671
 20
105.148296
 30
0.0
 10
35.026047
 20
103.134678
 30
0.0
 10
36.592189
 20
100.422041
 30
0.0
 10
38.286846
 20
99.330035
 30
0.0
 10
39.113042
 20
98.797649
 30
0.0
 11
34.879709
 21
106.129997
 31
0.0
 11
35.250458
 21
103.230064
 31
0.0
 11
36.787001
 21
100.568693
 31
0.0
 11
39.113042
 21
98.797649
 31
0.0
  0
LINE
  5
117
100
AcDbEntity
  8
0
 62
5
100
AcDbLine
 10
42.892650
 20
99.024513
 30
0.0
 11
42.045983
 21
100.490982
 31
0.0
  0
LINE
  5
118
100
AcDbEntity
  8
0
 62
5
100
AcDbLine
 10
42.045983
 20
100.490982
 30
0.0
 11
42.534806
 21
100.773205
 31
0.0
  0
LINE
  5
119
100
AcDbEntity
  8
0
 62
5
100
AcDbLine
 10
42.534806
 20
100.773205
 30
0.0
 11
47.473695
 21
92.218798
 31
0.0
  0
LINE
  5
11a
100
AcDbEntity
  8
0
 62
1
100
AcDbLine
 10
39.289251
 20
106.394671
 30
0.0
 11
41.547028
 21
102.484087
 31
0.0
  0
LINE
  5
11b
100
AcDbEntity
  8
0
 62
5
100
AcDbLine
 10
61.584750
 20
116.659925
 30
0.0
 11
63.406347
 21
109.090581
 31
0.0
  0
LINE
  5
11c
100
AcDbEntity
  8
0
 62
5
100
AcDbLine
 10
63.406347
 20
109.090581
 30
0.0
 11
54.939681
 21
94.425886
 31
0.0
  0
LINE
  5
11d
100
AcDbEntity
  8
0
 62
5
100
AcDbLine
 10
54.939681
 20
94.425886
 30
0.0
 11
47.473639
 21
92.218764
 31
0.0
  0
LINE
  5
11e
100
AcDbEntity
  8
0
 62
5
100
AcDbLine
 10
56.900403
 20
110.239734
 30
0.0
 11
57.558017
 21
108.556532
 31
0.0
  0
LINE
  5
11f
100
AcDbEntity
  8
0
 62
5
100
AcDbLine
 10
57.558017
 20
108.556532
 30
0.0
 11
52.478017
 21
99.757713
 31
0.0
  0
LINE
  5
120
100
AcDbEntity
  8
0
 62
5
100
AcDbLine
 10
52.478017
 20
99.757713
 30
0.0
 11
50.691514
 21
99.485622
 31
0.0
  0
LINE
  5
121
100
AcDbEntity
  8
0
 62
1
100
AcDbLine
 10
61.584750
 20
116.659925
 30
0.0
 11
57.633639
 21
109.816400
 31
0.0
  0
LINE
  5
122
100
AcDbEntity
  8
0
 62
1
100
AcDbLine
 10
47.473639
 20
92.218764
 30
0.0
 11
51.424750
 21
99.062289
 31
0.0
  0
LINE
  5
123
100
AcDbEntity
  8
0
 62
5
100
AcDbLine
 10
61.584693
 20
116.659959
 30
0.0
 11
66.523582
 21
108.105552
 31
0.0
  0
LINE
  5
124
100
AcDbEntity
  8
0
 62
5
100
AcDbLine
 10
66.523582
 20
108.105552
 30
0.0
 11
66.034759
 21
107.823330
 31
0.0
  0
LINE
  5
125
100
AcDbEntity
  8
0
 62
5
100
AcDbLine
 10
66.034759
 20
107.823330
 30
0.0
 11
65.188092
 21
109.289799
 31
0.0
  0
SPLINE
  5
126
100
AcDbEntity
  8
0
 62
5
100
AcDbSpline
 70
0
 71
3
 72
10
 73
6
 74
4
 40
0.000000
 40
0.000000
 40
0.000000
 40
0.000000
 40
1.743688
 40
3.211833
 40
3.851414
 40
3.851414
 40
3.851414
 40
3.851414
 10
39.113042
 20
98.797649
 30
0.0
 10
39.687870
 20
98.675810
 30
0.0
 10
40.746690
 20
98.451386
 30
0.0
 10
42.030618
 20
98.719559
 30
0.0
 10
42.691966
 20
98.953519
 30
0.0
 10
42.892650
 20
99.024513
 30
0.0
 11
39.113042
 21
98.797649
 31
0.0
 11
40.841031
 21
98.564193
 31
0.0
 11
42.286797
 21
98.819560
 31
0.0
 11
42.892650
 21
99.024513
 31
0.0
  0
SPLINE
  5
127
100
AcDbEntity
  8
0
 62
5
100
AcDbSpline
 70
0
 71
3
 72
10
 73
6
 74
4
 40
0.000000
 40
0.000000
 40
0.000000
 40
0.000000
 40
0.639580
 40
2.107725
 40
3.851413
 40
3.851413
 40
3.851413
 40
3.851413
 10
65.188092
 20
109.289799
 30
0.0
 10
65.026268
 20
109.151499
 30
0.0
 10
64.492979
 20
108.695735
 30
0.0
 10
63.618771
 20
107.717907
 30
0.0
 10
63.283717
 20
106.688731
 30
0.0
 10
63.101818
 20
106.129997
 30
0.0
 11
65.188092
 21
109.289799
 31
0.0
 11
64.707672
 21
108.867592
 31
0.0
 11
63.763635
 21
107.743206
 31
0.0
 11
63.101818
 21
106.129997
 31
0.0
  0
SPLINE
  5
128
100
AcDbEntity
  8
0
 62
5
100
AcDbSpline
 70
0
 71
3
 72
10
 73
6
 74
4
 40
0.000000
 40
0.000000
 40
0.000000
 40
0.000000
 40
2.923536
 40
5.996623
 40
8.920159
 40
8.920159
 40
8.920159
 40
8.920159
 10
63.101818
 20
106.129997
 30
0.0
 10
63.149780
 20
105.148296
 30
0.0
 10
63.248157
 20
103.134678
 30
0.0
 10
64.814298
 20
100.422041
 30
0.0
 10
66.508955
 20
99.330035
 30
0.0
 10
67.335152
 20
98.797649
 30
0.0
 11
63.101818
 21
106.129997
 31
0.0
 11
63.472567
 21
103.230064
 31
0.0
 11
65.009111
 21
100.568693
 31
0.0
 11
67.335152
 21
98.797649
 31
0.0
  0
LINE
  5
129
100
AcDbEntity
  8
0
 62
5
100
AcDbLine
 10
71.114759
 20
99.024513
 30
0.0
 11
70.268092
 21
100.490982
 31
0.0
  0
LINE
  5
12a
100
AcDbEntity
  8
0
 62
5
100
AcDbLine
 10
70.268092
 20
100.490982
 30
0.0
 11
70.756915
 21
100.773205
 31
0.0
  0
LINE
  5
12b
100
AcDbEntity
  8
0
 62
5
100
AcDbLine
 10
70.756915
 20
100.773205
 30
0.0
 11
75.695804
 21
92.218798
 31
0.0
  0
LINE
  5
12c
100
AcDbEntity
  8
0
 62
1
100
AcDbLine
 10
67.511360
 20
106.394671
 30
0.0
 11
69.769138
 21
102.484087
 31
0.0
  0
LINE
  5
12d
100
AcDbEntity
  8
0
 62
5
100
AcDbLine
 10
89.806859
 20
116.659925
 30
0.0
 11
91.628457
 21
109.090581
 31
0.0
  0
LINE
  5
12e
100
AcDbEntity
  8
0
 62
5
100
AcDbLine
 10
91.628457
 20
109.090581
 30
0.0
 11
83.161790
 21
94.425886
 31
0.0
  0
LINE
  5
12f
100
AcDbEntity
  8
0
 62
5
100
AcDbLine
 10
83.161790
 20
94.425886
 30
0.0
 11
75.695748
 21
92.218764
 31
0.0
  0
LINE
  5
130
100
AcDbEntity
  8
0
 62
5
100
AcDbLine
 10
85.122512
 20
110.239734
 30
0.0
 11
85.780126
 21
108.556532
 31
0.0
  0
LINE
  5
131
100
AcDbEntity
  8
0
 62
5
100
AcDbLine
 10
85.780126
 20
108.556532
 30
0.0
 11
80.700126
 21
99.757713
 31
0.0
  0
LINE
  5
132
100
AcDbEntity
  8
0
 62
5
100
AcDbLine
 10
80.700126
 20
99.757713
 30
0.0
 11
78.913623
 21
99.485622
 31
0.0
  0
LINE
  5
133
100
AcDbEntity
  8
0
 62
1
100
AcDbLine
 10
89.806859
 20
116.659925
 30
0.0
 11
85.855748
 21
109.816400
 31
0.0
  0
LINE
  5
134
100
AcDbEntity
  8
0
 62
1
100
AcDbLine
 10
75.695748
 20
92.218764
 30
0.0
 11
79.646859
 21
99.062289
 31
0.0
  0
LINE
  5
135
100
AcDbEntity
  8
0
 62
5
100
AcDbLine
 10
89.806805
 20
116.659959
 30
0.0
 11
94.745694
 21
108.105552
 31
0.0
  0
LINE
  5
136
100
AcDbEntity
  8
0
 62
5
100
AcDbLine
 10
94.745694
 20
108.105552
 30
0.0
 11
94.256871
 21
107.823330
 31
0.0
  0
LINE
  5
137
100
AcDbEntity
  8
0
 62
5
100
AcDbLine
 10
94.256871
 20
107.823330
 30
0.0
 11
93.410205
 21
109.289799
 31
0.0
  0
SPLINE
  5
138
100
AcDbEntity
  8
0
 62
5
100
AcDbSpline
 70
0
 71
3
 72
10
 73
6
 74
4
 40
0.000000
 40
0.000000
 40
0.000000
 40
0.000000
 40
1.743688
 40
3.211833
 40
3.851414
 40
3.851414
 40
3.851414
 40
3.851414
 10
67.335152
 20
98.797649
 30
0.0
 10
67.909979
 20
98.675810
 30
0.0
 10
68.968799
 20
98.451386
 30
0.0
 10
70.252727
 20
98.719559
 30
0.0
 10
70.914076
 20
98.953519
 30
0.0
 10
71.114759
 20
99.024513
 30
0.0
 11
67.335152
 21
98.797649
 31
0.0
 11
69.063141
 21
98.564193
 31
0.0
 11
70.508906
 21
98.819560
 31
0.0
 11
71.114759
 21
99.024513
 31
0.0
  0
SPLINE
  5
139
100
AcDbEntity
  8
0
 62
5
100
AcDbSpline
 70
0
 71
3
 72
10
 73
6
 74
4
 40
0.000000
 40
0.000000
 40
0.000000
 40
0.000000
 40
0.639580
 40
2.107725
 40
3.851413
 40
3.851413
 40
3.851413
 40
3.851413
 10
93.410205
 20
109.289799
 30
0.0
 10
93.248380
 20
109.151499
 30
0.0
 10
92.715091
 20
108.695735
 30
0.0
 10
91.840883
 20
107.717907
 30
0.0
 10
91.505829
 20
106.688731
 30
0.0
 10
91.323930
 20
106.129997
 30
0.0
 11
93.410205
 21
109.289799
 31
0.0
 11
92.929784
 21
108.867592
 31
0.0
 11
91.985747
 21
107.743206
 31
0.0
 11
91.323930
 21
106.129997
 31
0.0
  0
SPLINE
  5
13a
100
AcDbEntity
  8
0
 62
5
100
AcDbSpline
 70
0
 71
3
 72
10
 73
6
 74
4
 40
0.000000
 40
0.000000
 40
0.000000
 40
0.000000
 40
2.923536
 40
5.996623
 40
8.920159
 40
8.920159
 40
8.920159
 40
8.920159
 10
91.323930
 20
106.129997
 30
0.0
 10
91.371892
 20
105.148296
 30
0.0
 10
91.470269
 20
103.134678
 30
0.0
 10
93.036410
 20
100.422041
 30
0.0
 10
94.731067
 20
99.330035
 30
0.0
 10
95.557264
 20
98.797649
 30
0.0
 11
91.323930
 21
106.129997
 31
0.0
 11
91.694680
 21
103.230064
 31
0.0
 11
93.231223
 21
100.568693
 31
0.0
 11
95.557264
 21
98.797649
 31
0.0
  0
LINE
  5
13b
100
AcDbEntity
  8
0
 62
5
100
AcDbLine
 10
99.336871
 20
99.024513
 30
0.0
 11
98.490205
 21
100.490982
 31
0.0
  0
LINE
  5
13c
100
AcDbEntity
  8
0
 62
5
100
AcDbLine
 10
98.490205
 20
100.490982
 30
0.0
 11
98.979028
 21
100.773205
 31
0.0
  0
LINE
  5
13d
100
AcDbEntity
  8
0
 62
5
100
AcDbLine
 10
98.979028
 20
100.773205
 30
0.0
 11
103.917917
 21
92.218798
 31
0.0
  0
LINE
  5
13e
100
AcDbEntity
  8
0
 62
1
100
AcDbLine
 10
95.733472
 20
106.394671
 30
0.0
 11
97.991250
 21
102.484087
 31
0.0
  0
LINE
  5
13f
100
AcDbEntity
  8
0
 62
5
100
AcDbLine
 10
118.028971
 20
116.659925
 30
0.0
 11
119.850569
 21
109.090581
 31
0.0
  0
LINE
  5
140
100
AcDbEntity
  8
0
 62
5
100
AcDbLine
 10
119.850569
 20
109.090581
 30
0.0
 11
111.383902
 21
94.425886
 31
0.0
  0
LINE
  5
141
100
AcDbEntity
  8
0
 62
5
100
AcDbLine
 10
111.383902
 20
94.425886
 30
0.0
 11
103.917860
 21
92.218764
 31
0.0
  0
LINE
  5
142
100
AcDbEntity
  8
0
 62
5
100
AcDbLine
 10
113.344624
 20
110.239734
 30
0.0
 11
114.002239
 21
108.556532
 31
0.0
  0
LINE
  5
143
100
AcDbEntity
  8
0
 62
5
100
AcDbLine
 10
114.002239
 20
108.556532
 30
0.0
 11
108.922239
 21
99.757713
 31
0.0
  0
LINE
  5
144
100
AcDbEntity
  8
0
 62
5
100
AcDbLine
 10
108.922239
 20
99.757713
 30
0.0
 11
107.135735
 21
99.485622
 31
0.0
  0
LINE
  5
145
100
AcDbEntity
  8
0
 62
1
100
AcDbLine
 10
118.028971
 20
116.659925
 30
0.0
 11
114.077860
 21
109.816400
 31
0.0
  0
LINE
  5
146
100
AcDbEntity
  8
0
 62
1
100
AcDbLine
 10
103.917860
 20
92.218764
 30
0.0
 11
107.868971
 21
99.062289
 31
0.0
  0
LINE
  5
147
100
AcDbEntity
  8
0
 62
5
100
AcDbLine
 10
118.028915
 20
116.659959
 30
0.0
 11
122.967804
 21
108.105552
 31
0.0
  0
LINE
  5
148
100
AcDbEntity
  8
0
 62
5
100
AcDbLine
 10
122.967804
 20
108.105552
 30
0.0
 11
122.478981
 21
107.823330
 31
0.0
  0
LINE
  5
149
100
AcDbEntity
  8
0
 62
5
100
AcDbLine
 10
122.478981
 20
107.823330
 30
0.0
 11
121.632314
 21
109.289799
 31
0.0
  0
SPLINE
  5
14a
100
AcDbEntity
  8
0
 62
5
100
AcDbSpline
 70
0
 71
3
 72
10
 73
6
 74
4
 40
0.000000
 40
0.000000
 40
0.000000
 40
0.000000
 40
1.743688
 40
3.211833
 40
3.851414
 40
3.851414
 40
3.851414
 40
3.851414
 10
95.557264
 20
98.797649
 30
0.0
 10
96.132092
 20
98.675810
 30
0.0
 10
97.190911
 20
98.451386
 30
0.0
 10
98.474839
 20
98.719559
 30
0.0
 10
99.136188
 20
98.953519
 30
0.0
 10
99.336871
 20
99.024513
 30
0.0
 11
95.557264
 21
98.797649
 31
0.0
 11
97.285253
 21
98.564193
 31
0.0
 11
98.731018
 21
98.819560
 31
0.0
 11
99.336871
 21
99.024513
 31
0.0
  0
SPLINE
  5
14b
100
AcDbEntity
  8
0
 62
5
100
AcDbSpline
 70
0
 71
3
 72
10
 73
6
 74
4
 40
0.000000
 40
0.000000
 40
0.000000
 40
0.000000
 40
0.639580
 40
2.107725
 40
3.851413
 40
3.851413
 40
3.851413
 40
3.851413
 10
121.632314
 20
109.289799
 30
0.0
 10
121.470490
 20
109.151499
 30
0.0
 10
120.937200
 20
108.695735
 30
0.0
 10
120.062992
 20
107.717907
 30
0.0
 10
119.727939
 20
106.688731
 30
0.0
 10
119.546040
 20
106.129997
 30
0.0
 11
121.632314
 21
109.289799
 31
0.0
 11
121.151893
 21
108.867592
 31
0.0
 11
120.207856
 21
107.743206
 31
0.0
 11
119.546040
 21
106.129997
 31
0.0
  0
SPLINE
  5
14c
100
AcDbEntity
  8
0
 62
5
100
AcDbSpline
 70
0
 71
3
 72
10
 73
6
 74
4
 40
0.000000
 40
0.000000
 40
0.000000
 40
0.000000
 40
2.923536
 40
5.996623
 40
8.920159
 40
8.920159
 40
8.920159
 40
8.920159
 10
119.546040
 20
106.129997
 30
0.0
 10
119.594001
 20
105.148296
 30
0.0
 10
119.692378
 20
103.134678
 30
0.0
 10
121.258520
 20
100.422041
 30
0.0
 10
122.953176
 20
99.330035
 30
0.0
 10
123.779373
 20
98.797649
 30
0.0
 11
119.546040
 21
106.129997
 31
0.0
 11
119.916789
 21
103.230064
 31
0.0
 11
121.453332
 21
100.568693
 31
0.0
 11
123.779373
 21
98.797649
 31
0.0
  0
LINE
  5
14d
100
AcDbEntity
  8
0
 62
5
100
AcDbLine
 10
127.558981
 20
99.024513
 30
0.0
 11
126.712314
 21
100.490982
 31
0.0
  0
LINE
  5
14e
100
AcDbEntity
  8
0
 62
5
100
AcDbLine
 10
126.712314
 20
100.490982
 30
0.0
 11
127.201137
 21
100.773205
 31
0.0
  0
LINE
  5
14f
100
AcDbEntity
  8
0
 62
5
100
AcDbLine
 10
127.201137
 20
100.773205
 30
0.0
 11
132.140026
 21
92.218798
 31
0.0
  0
LINE
  5
150
100
AcDbEntity
  8
0
 62
1
100
AcDbLine
 10
123.955581
 20
106.394671
 30
0.0
 11
126.213359
 21
102.484087
 31
0.0
  0
LINE
  5
151
100
AcDbEntity
  8
0
 62
5
100
AcDbLine
 10
146.251081
 20
116.659925
 30
0.0
 11
148.072678
 21
109.090581
 31
0.0
  0
LINE
  5
152
100
AcDbEntity
  8
0
 62
5
100
AcDbLine
 10
148.072678
 20
109.090581
 30
0.0
 11
139.606012
 21
94.425886
 31
0.0
  0
LINE
  5
153
100
AcDbEntity
  8
0
 62
5
100
AcDbLine
 10
139.606012
 20
94.425886
 30
0.0
 11
132.139969
 21
92.218764
 31
0.0
  0
LINE
  5
154
100
AcDbEntity
  8
0
 62
5
100
AcDbLine
 10
141.566733
 20
110.239734
 30
0.0
 11
142.224348
 21
108.556532
 31
0.0
  0
LINE
  5
155
100
AcDbEntity
  8
0
 62
5
100
AcDbLine
 10
142.224348
 20
108.556532
 30
0.0
 11
137.144348
 21
99.757713
 31
0.0
  0
LINE
  5
156
100
AcDbEntity
  8
0
 62
5
100
AcDbLine
 10
137.144348
 20
99.757713
 30
0.0
 11
135.357845
 21
99.485622
 31
0.0
  0
LINE
  5
157
100
AcDbEntity
  8
0
 62
1
100
AcDbLine
 10
146.251081
 20
116.659925
 30
0.0
 11
142.299969
 21
109.816400
 31
0.0
  0
LINE
  5
158
100
AcDbEntity
  8
0
 62
1
100
AcDbLine
 10
132.139969
 20
92.218764
 30
0.0
 11
136.091081
 21
99.062289
 31
0.0
  0
LINE
  5
159
100
AcDbEntity
  8
0
 62
5
100
AcDbLine
 10
146.251024
 20
116.659959
 30
0.0
 11
151.189890
 21
125.214329
 31
0.0
  0
LINE
  5
15a
100
AcDbEntity
  8
0
 62
5
100
AcDbLine
 10
151.189890
 20
125.214329
 30
0.0
 11
151.678713
 21
124.932107
 31
0.0
  0
LINE
  5
15b
100
AcDbEntity
  8
0
 62
5
100
AcDbLine
 10
151.678713
 20
124.932107
 30
0.0
 11
150.832050
 21
123.465644
 31
0.0
  0
SPLINE
  5
15c
100
AcDbEntity
  8
0
 62
5
100
AcDbSpline
 70
0
 71
3
 72
10
 73
6
 74
4
 40
0.000000
 40
0.000000
 40
0.000000
 40
0.000000
 40
1.743688
 40
3.211833
 40
3.851414
 40
3.851414
 40
3.851414
 40
3.851414
 10
123.779373
 20
98.797649
 30
0.0
 10
124.354201
 20
98.675810
 30
0.0
 10
125.413021
 20
98.451386
 30
0.0
 10
126.696948
 20
98.719559
 30
0.0
 10
127.358297
 20
98.953519
 30
0.0
 10
127.558981
 20
99.024513
 30
0.0
 11
123.779373
 21
98.797649
 31
0.0
 11
125.507362
 21
98.564193
 31
0.0
 11
126.953128
 21
98.819560
 31
0.0
 11
127.558981
 21
99.024513
 31
0.0
  0
SPLINE
  5
15d
100
AcDbEntity
  8
0
 62
5
100
AcDbSpline
 70
0
 71
3
 72
10
 73
6
 74
4
 40
0.000000
 40
0.000000
 40
0.000000
 40
0.000000
 40
0.639578
 40
2.107717
 40
3.851397
 40
3.851397
 40
3.851397
 40
3.851397
 10
150.832050
 20
123.465644
 30
0.0
 10
151.032732
 20
123.394650
 30
0.0
 10
151.694078
 20
123.160692
 30
0.0
 10
152.978000
 20
122.892520
 30
0.0
 10
154.036815
 20
123.116944
 30
0.0
 10
154.611640
 20
123.238782
 30
0.0
 11
150.832050
 21
123.465644
 31
0.0
 11
151.437900
 21
123.260692
 31
0.0
 11
152.883659
 21
123.005326
 31
0.0
 11
154.611640
 21
123.238782
 31
0.0
  0
SPLINE
  5
15e
100
AcDbEntity
  8
0
 62
5
100
AcDbSpline
 70
0
 71
3
 72
10
 73
6
 74
4
 40
0.000000
 40
0.000000
 40
0.000000
 40
0.000000
 40
2.923523
 40
5.996597
 40
8.920121
 40
8.920121
 40
8.920121
 40
8.920121
 10
154.611640
 20
123.238782
 30
0.0
 10
155.437833
 20
123.771166
 30
0.0
 10
157.132483
 20
124.863166
 30
0.0
 10
158.698617
 20
127.575792
 30
0.0
 10
158.796993
 20
129.589402
 30
0.0
 10
158.844954
 20
130.571099
 30
0.0
 11
154.611640
 21
123.238782
 31
0.0
 11
156.937671
 21
125.009818
 31
0.0
 11
158.474207
 21
127.671178
 31
0.0
 11
158.844954
 21
130.571099
 31
0.0
  0
LINE
  5
15f
100
AcDbEntity
  8
0
 62
5
100
AcDbLine
 10
156.758691
 20
133.730887
 30
0.0
 11
155.912027
 21
132.264424
 31
0.0
  0
LINE
  5
160
100
AcDbEntity
  8
0
 62
5
100
AcDbLine
 10
155.912027
 20
132.264424
 30
0.0
 11
155.423207
 21
132.546646
 31
0.0
  0
LINE
  5
161
100
AcDbEntity
  8
0
 62
5
100
AcDbLine
 10
155.423207
 20
132.546646
 30
0.0
 11
160.362073
 21
141.101016
 31
0.0
  0
LINE
  5
162
100
AcDbEntity
  8
0
 62
1
100
AcDbLine
 10
152.177665
 20
126.925203
 30
0.0
 11
154.435432
 21
130.835773
 31
0.0
  0
LINE
  5
163
100
AcDbEntity
  8
0
 62
5
100
AcDbLine
 10
160.362079
 20
141.101013
 30
0.0
 11
162.183668
 21
148.670323
 31
0.0
  0
LINE
  5
164
100
AcDbEntity
  8
0
 62
5
100
AcDbLine
 10
162.183668
 20
148.670323
 30
0.0
 11
153.717038
 21
163.334957
 31
0.0
  0
LINE
  5
165
100
AcDbEntity
  8
0
 62
5
100
AcDbLine
 10
153.717038
 20
163.334957
 30
0.0
 11
146.251030
 21
165.542070
 31
0.0
  0
LINE
  5
166
100
AcDbEntity
  8
0
 62
5
100
AcDbLine
 10
155.677754
 20
147.521176
 30
0.0
 11
156.335363
 21
149.204372
 31
0.0
  0
LINE
  5
167
100
AcDbEntity
  8
0
 62
5
100
AcDbLine
 10
156.335363
 20
149.204372
 30
0.0
 11
151.255386
 21
158.003153
 31
0.0
  0
LINE
  5
168
100
AcDbEntity
  8
0
 62
5
100
AcDbLine
 10
151.255386
 20
158.003153
 30
0.0
 11
149.468891
 21
158.275243
 31
0.0
  0
LINE
  5
169
100
AcDbEntity
  8
0
 62
1
100
AcDbLine
 10
160.362079
 20
141.101013
 30
0.0
 11
156.410985
 21
147.944510
 31
0.0
  0
LINE
  5
16a
100
AcDbEntity
  8
0
 62
1
100
AcDbLine
 10
146.251030
 20
165.542070
 30
0.0
 11
150.202124
 21
158.698573
 31
0.0
  0
LINE
  5
16b
100
AcDbEntity
  8
0
 62
5
100
AcDbLine
 10
132.139975
 20
141.101010
 30
0.0
 11
137.078841
 21
149.655380
 31
0.0
  0
LINE
  5
16c
100
AcDbEntity
  8
0
 62
5
100
AcDbLine
 10
137.078841
 20
149.655380
 30
0.0
 11
136.590021
 21
149.937600
 31
0.0
  0
LINE
  5
16d
100
AcDbEntity
  8
0
 62
5
100
AcDbLine
 10
136.590021
 20
149.937600
 30
0.0
 11
135.743357
 21
148.471136
 31
0.0
  0
SPLINE
  5
16e
100
AcDbEntity
  8
0
 62
5
100
AcDbSpline
 70
0
 71
3
 72
10
 73
6
 74
4
 40
0.000000
 40
0.000000
 40
0.000000
 40
0.000000
 40
1.743679
 40
3.211817
 40
3.851394
 40
3.851394
 40
3.851394
 40
3.851394
 10
158.844954
 20
130.571099
 30
0.0
 10
158.663056
 20
131.129831
 30
0.0
 10
158.328005
 20
132.159002
 30
0.0
 10
157.453801
 20
133.136825
 30
0.0
 10
156.920514
 20
133.592588
 30
0.0
 10
156.758691
 20
133.730887
 30
0.0
 11
158.844954
 21
130.571099
 31
0.0
 11
158.183142
 21
132.184301
 31
0.0
 11
157.239109
 21
133.308682
 31
0.0
 11
156.758691
 21
133.730887
 31
0.0
  0
SPLINE
  5
16f
100
AcDbEntity
  8
0
 62
5
100
AcDbSpline
 70
0
 71
3
 72
10
 73
6
 74
4
 40
0.000000
 40
0.000000
 40
0.000000
 40
0.000000
 40
0.639578
 40
2.107717
 40
3.851397
 40
3.851397
 40
3.851397
 40
3.851397
 10
135.743357
 20
148.471136
 30
0.0
 10
135.581534
 20
148.609436
 30
0.0
 10
135.048247
 20
149.065200
 30
0.0
 10
134.174043
 20
150.043023
 30
0.0
 10
133.838992
 20
151.072195
 30
0.0
 10
133.657094
 20
151.630928
 30
0.0
 11
135.743357
 21
148.471136
 31
0.0
 11
135.262939
 21
148.893343
 31
0.0
 11
134.318907
 21
150.017725
 31
0.0
 11
133.657094
 21
151.630928
 31
0.0
  0
SPLINE
  5
170
100
AcDbEntity
  8
0
 62
5
100
AcDbSpline
 70
0
 71
3
 72
10
 73
6
 74
4
 40
0.000000
 40
0.000000
 40
0.000000
 40
0.000000
 40
2.923524
 40
5.996597
 40
8.920123
 40
8.920123
 40
8.920123
 40
8.920123
 10
133.657094
 20
151.630928
 30
0.0
 10
133.705055
 20
152.612624
 30
0.0
 10
133.803431
 20
154.626234
 30
0.0
 10
135.369567
 20
157.338859
 30
0.0
 10
137.064217
 20
158.430860
 30
0.0
 10
137.890411
 20
158.963244
 30
0.0
 11
133.657094
 21
151.630928
 31
0.0
 11
134.027841
 21
154.530848
 31
0.0
 11
135.564378
 21
157.192207
 31
0.0
 11
137.890411
 21
158.963244
 31
0.0
  0
LINE
  5
171
100
AcDbEntity
  8
0
 62
5
100
AcDbLine
 10
141.669999
 20
158.736380
 30
0.0
 11
140.823338
 21
157.269917
 31
0.0
  0
LINE
  5
172
100
AcDbEntity
  8
0
 62
5
100
AcDbLine
 10
140.823338
 20
157.269917
 30
0.0
 11
141.312158
 21
156.987697
 31
0.0
  0
LINE
  5
173
100
AcDbEntity
  8
0
 62
5
100
AcDbLine
 10
141.312158
 20
156.987697
 30
0.0
 11
146.251024
 21
165.542067
 31
0.0
  0
LINE
  5
174
100
AcDbEntity
  8
0
 62
1
100
AcDbLine
 10
138.066616
 20
151.366254
 30
0.0
 11
140.324383
 21
155.276824
 31
0.0
  0
LINE
  5
175
100
AcDbEntity
  8
0
 62
5
100
AcDbLine
 10
132.139969
 20
141.101013
 30
0.0
 11
133.961559
 21
148.670323
 31
0.0
  0
LINE
  5
176
100
AcDbEntity
  8
0
 62
5
100
AcDbLine
 10
133.961559
 20
148.670323
 30
0.0
 11
125.494929
 21
163.334957
 31
0.0
  0
LINE
  5
177
100
AcDbEntity
  8
0
 62
5
100
AcDbLine
 10
125.494929
 20
163.334957
 30
0.0
 11
118.028920
 21
165.542070
 31
0.0
  0
LINE
  5
178
100
AcDbEntity
  8
0
 62
5
100
AcDbLine
 10
127.455645
 20
147.521176
 30
0.0
 11
128.113254
 21
149.204372
 31
0.0
  0
LINE
  5
179
100
AcDbEntity
  8
0
 62
5
100
AcDbLine
 10
128.113254
 20
149.204372
 30
0.0
 11
123.033276
 21
158.003153
 31
0.0
  0
LINE
  5
17a
100
AcDbEntity
  8
0
 62
5
100
AcDbLine
 10
123.033276
 20
158.003153
 30
0.0
 11
121.246781
 21
158.275243
 31
0.0
  0
LINE
  5
17b
100
AcDbEntity
  8
0
 62
1
100
AcDbLine
 10
132.139969
 20
141.101013
 30
0.0
 11
128.188875
 21
147.944510
 31
0.0
  0
LINE
  5
17c
100
AcDbEntity
  8
0
 62
1
100
AcDbLine
 10
118.028920
 20
165.542070
 30
0.0
 11
121.980015
 21
158.698573
 31
0.0
  0
LINE
  5
17d
100
AcDbEntity
  8
0
 62
5
100
AcDbLine
 10
103.917863
 20
141.101010
 30
0.0
 11
108.856729
 21
149.655380
 31
0.0
  0
LINE
  5
17e
100
AcDbEntity
  8
0
 62
5
100
AcDbLine
 10
108.856729
 20
149.655380
 30
0.0
 11
108.367909
 21
149.937600
 31
0.0
  0
LINE
  5
17f
100
AcDbEntity
  8
0
 62
5
100
AcDbLine
 10
108.367909
 20
149.937600
 30
0.0
 11
107.521245
 21
148.471136
 31
0.0
  0
SPLINE
  5
180
100
AcDbEntity
  8
0
 62
5
100
AcDbSpline
 70
0
 71
3
 72
10
 73
6
 74
4
 40
0.000000
 40
0.000000
 40
0.000000
 40
0.000000
 40
1.743678
 40
3.211816
 40
3.851394
 40
3.851394
 40
3.851394
 40
3.851394
 10
137.890411
 20
158.963244
 30
0.0
 10
138.465235
 20
159.085082
 30
0.0
 10
139.524049
 20
159.309504
 30
0.0
 10
140.807970
 20
159.041332
 30
0.0
 10
141.469316
 20
158.807374
 30
0.0
 10
141.669999
 20
158.736380
 30
0.0
 11
137.890411
 21
158.963244
 31
0.0
 11
139.618390
 21
159.196698
 31
0.0
 11
141.064148
 21
158.941332
 31
0.0
 11
141.669999
 21
158.736380
 31
0.0
  0
SPLINE
  5
181
100
AcDbEntity
  8
0
 62
5
100
AcDbSpline
 70
0
 71
3
 72
10
 73
6
 74
4
 40
0.000000
 40
0.000000
 40
0.000000
 40
0.000000
 40
0.639578
 40
2.107717
 40
3.851397
 40
3.851397
 40
3.851397
 40
3.851397
 10
107.521245
 20
148.471136
 30
0.0
 10
107.359422
 20
148.609436
 30
0.0
 10
106.826135
 20
149.065200
 30
0.0
 10
105.951931
 20
150.043023
 30
0.0
 10
105.616880
 20
151.072195
 30
0.0
 10
105.434982
 20
151.630928
 30
0.0
 11
107.521245
 21
148.471136
 31
0.0
 11
107.040827
 21
148.893343
 31
0.0
 11
106.096794
 21
150.017725
 31
0.0
 11
105.434982
 21
151.630928
 31
0.0
  0
SPLINE
  5
182
100
AcDbEntity
  8
0
 62
5
100
AcDbSpline
 70
0
 71
3
 72
10
 73
6
 74
4
 40
0.000000
 40
0.000000
 40
0.000000
 40
0.000000
 40
2.923524
 40
5.996597
 40
8.920123
 40
8.920123
 40
8.920123
 40
8.920123
 10
105.434982
 20
151.630928
 30
0.0
 10
105.482943
 20
152.612624
 30
0.0
 10
105.581319
 20
154.626234
 30
0.0
 10
107.147455
 20
157.338859
 30
0.0
 10
108.842105
 20
158.430860
 30
0.0
 10
109.668299
 20
158.963244
 30
0.0
 11
105.434982
 21
151.630928
 31
0.0
 11
105.805729
 21
154.530848
 31
0.0
 11
107.342266
 21
157.192207
 31
0.0
 11
109.668299
 21
158.963244
 31
0.0
  0
LINE
  5
183
100
AcDbEntity
  8
0
 62
5
100
AcDbLine
 10
113.447886
 20
158.736380
 30
0.0
 11
112.601225
 21
157.269917
 31
0.0
  0
LINE
  5
184
100
AcDbEntity
  8
0
 62
5
100
AcDbLine
 10
112.601225
 20
157.269917
 30
0.0
 11
113.090046
 21
156.987697
 31
0.0
  0
LINE
  5
185
100
AcDbEntity
  8
0
 62
5
100
AcDbLine
 10
113.090046
 20
156.987697
 30
0.0
 11
118.028912
 21
165.542067
 31
0.0
  0
LINE
  5
186
100
AcDbEntity
  8
0
 62
1
100
AcDbLine
 10
109.844504
 20
151.366254
 30
0.0
 11
112.102271
 21
155.276824
 31
0.0
  0
LINE
  5
187
100
AcDbEntity
  8
0
 62
5
100
AcDbLine
 10
103.917860
 20
141.101013
 30
0.0
 11
105.739449
 21
148.670323
 31
0.0
  0
LINE
  5
188
100
AcDbEntity
  8
0
 62
5
100
AcDbLine
 10
105.739449
 20
148.670323
 30
0.0
 11
97.272819
 21
163.334957
 31
0.0
  0
LINE
  5
189
100
AcDbEntity
  8
0
 62
5
100
AcDbLine
 10
97.272819
 20
163.334957
 30
0.0
 11
89.806811
 21
165.542070
 31
0.0
  0
LINE
  5
18a
100
AcDbEntity
  8
0
 62
5
100
AcDbLine
 10
99.233536
 20
147.521176
 30
0.0
 11
99.891144
 21
149.204372
 31
0.0
  0
LINE
  5
18b
100
AcDbEntity
  8
0
 62
5
100
AcDbLine
 10
99.891144
 20
149.204372
 30
0.0
 11
94.811167
 21
158.003153
 31
0.0
  0
LINE
  5
18c
100
AcDbEntity
  8
0
 62
5
100
AcDbLine
 10
94.811167
 20
158.003153
 30
0.0
 11
93.024672
 21
158.275243
 31
0.0
  0
LINE
  5
18d
100
AcDbEntity
  8
0
 62
1
100
AcDbLine
 10
103.917860
 20
141.101013
 30
0.0
 11
99.966766
 21
147.944510
 31
0.0
  0
LINE
  5
18e
100
AcDbEntity
  8
0
 62
1
100
AcDbLine
 10
89.806811
 20
165.542070
 30
0.0
 11
93.757905
 21
158.698573
 31
0.0
  0
LINE
  5
18f
100
AcDbEntity
  8
0
 62
5
100
AcDbLine
 10
75.695754
 20
141.101010
 30
0.0
 11
80.634620
 21
149.655380
 31
0.0
  0
LINE
  5
190
100
AcDbEntity
  8
0
 62
5
100
AcDbLine
 10
80.634620
 20
149.655380
 30
0.0
 11
80.145800
 21
149.937600
 31
0.0
  0
LINE
  5
191
100
AcDbEntity
  8
0
 62
5
100
AcDbLine
 10
80.145800
 20
149.937600
 30
0.0
 11
79.299136
 21
148.471136
 31
0.0
  0
SPLINE
  5
192
100
AcDbEntity
  8
0
 62
5
100
AcDbSpline
 70
0
 71
3
 72
10
 73
6
 74
4
 40
0.000000
 40
0.000000
 40
0.000000
 40
0.000000
 40
1.743678
 40
3.211816
 40
3.851394
 40
3.851394
 40
3.851394
 40
3.851394
 10
109.668299
 20
158.963244
 30
0.0
 10
110.243123
 20
159.085082
 30
0.0
 10
111.301937
 20
159.309504
 30
0.0
 10
112.585858
 20
159.041332
 30
0.0
 10
113.247204
 20
158.807374
 30
0.0
 10
113.447886
 20
158.736380
 30
0.0
 11
109.668299
 21
158.963244
 31
0.0
 11
111.396278
 21
159.196698
 31
0.0
 11
112.842036
 21
158.941332
 31
0.0
 11
113.447886
 21
158.736380
 31
0.0
  0
SPLINE
  5
193
100
AcDbEntity
  8
0
 62
5
100
AcDbSpline
 70
0
 71
3
 72
10
 73
6
 74
4
 40
0.000000
 40
0.000000
 40
0.000000
 40
0.000000
 40
0.639578
 40
2.107717
 40
3.851397
 40
3.851397
 40
3.851397
 40
3.851397
 10
79.299136
 20
148.471136
 30
0.0
 10
79.137312
 20
148.609436
 30
0.0
 10
78.604026
 20
149.065200
 30
0.0
 10
77.729822
 20
150.043023
 30
0.0
 10
77.394771
 20
151.072195
 30
0.0
 10
77.212873
 20
151.630928
 30
0.0
 11
79.299136
 21
148.471136
 31
0.0
 11
78.818717
 21
148.893343
 31
0.0
 11
77.874685
 21
150.017725
 31
0.0
 11
77.212873
 21
151.630928
 31
0.0
  0
SPLINE
  5
194
100
AcDbEntity
  8
0
 62
5
100
AcDbSpline
 70
0
 71
3
 72
10
 73
6
 74
4
 40
0.000000
 40
0.000000
 40
0.000000
 40
0.000000
 40
2.923524
 40
5.996597
 40
8.920123
 40
8.920123
 40
8.920123
 40
8.920123
 10
77.212873
 20
151.630928
 30
0.0
 10
77.260834
 20
152.612624
 30
0.0
 10
77.359209
 20
154.626234
 30
0.0
 10
78.925345
 20
157.338859
 30
0.0
 10
80.619996
 20
158.430860
 30
0.0
 10
81.446189
 20
158.963244
 30
0.0
 11
77.212873
 21
151.630928
 31
0.0
 11
77.583620
 21
154.530848
 31
0.0
 11
79.120156
 21
157.192207
 31
0.0
 11
81.446189
 21
158.963244
 31
0.0
  0
LINE
  5
195
100
AcDbEntity
  8
0
 62
5
100
AcDbLine
 10
85.225777
 20
158.736380
 30
0.0
 11
84.379116
 21
157.269917
 31
0.0
  0
LINE
  5
196
100
AcDbEntity
  8
0
 62
5
100
AcDbLine
 10
84.379116
 20
157.269917
 30
0.0
 11
84.867936
 21
156.987697
 31
0.0
  0
LINE
  5
197
100
AcDbEntity
  8
0
 62
5
100
AcDbLine
 10
84.867936
 20
156.987697
 30
0.0
 11
89.806803
 21
165.542067
 31
0.0
  0
LINE
  5
198
100
AcDbEntity
  8
0
 62
1
100
AcDbLine
 10
81.622395
 20
151.366254
 30
0.0
 11
83.880161
 21
155.276824
 31
0.0
  0
LINE
  5
199
100
AcDbEntity
  8
0
 62
5
100
AcDbLine
 10
75.695748
 20
141.101013
 30
0.0
 11
77.517337
 21
148.670323
 31
0.0
  0
LINE
  5
19a
100
AcDbEntity
  8
0
 62
5
100
AcDbLine
 10
77.517337
 20
148.670323
 30
0.0
 11
69.050707
 21
163.334957
 31
0.0
  0
LINE
  5
19b
100
AcDbEntity
  8
0
 62
5
100
AcDbLine
 10
69.050707
 20
163.334957
 30
0.0
 11
61.584699
 21
165.542070
 31
0.0
  0
LINE
  5
19c
100
AcDbEntity
  8
0
 62
5
100
AcDbLine
 10
71.011423
 20
147.521176
 30
0.0
 11
71.669032
 21
149.204372
 31
0.0
  0
LINE
  5
19d
100
AcDbEntity
  8
0
 62
5
100
AcDbLine
 10
71.669032
 20
149.204372
 30
0.0
 11
66.589055
 21
158.003153
 31
0.0
  0
LINE
  5
19e
100
AcDbEntity
  8
0
 62
5
100
AcDbLine
 10
66.589055
 20
158.003153
 30
0.0
 11
64.802560
 21
158.275243
 31
0.0
  0
LINE
  5
19f
100
AcDbEntity
  8
0
 62
1
100
AcDbLine
 10
75.695748
 20
141.101013
 30
0.0
 11
71.744654
 21
147.944510
 31
0.0
  0
LINE
  5
1a0
100
AcDbEntity
  8
0
 62
1
100
AcDbLine
 10
61.584699
 20
165.542070
 30
0.0
 11
65.535793
 21
158.698573
 31
0.0
  0
LINE
  5
1a1
100
AcDbEntity
  8
0
 62
5
100
AcDbLine
 10
47.473644
 20
141.101010
 30
0.0
 11
52.412511
 21
149.655380
 31
0.0
  0
LINE
  5
1a2
100
AcDbEntity
  8
0
 62
5
100
AcDbLine
 10
52.412511
 20
149.655380
 30
0.0
 11
51.923690
 21
149.937600
 31
0.0
  0
LINE
  5
1a3
100
AcDbEntity
  8
0
 62
5
100
AcDbLine
 10
51.923690
 20
149.937600
 30
0.0
 11
51.077027
 21
148.471136
 31
0.0
  0
SPLINE
  5
1a4
100
AcDbEntity
  8
0
 62
5
100
AcDbSpline
 70
0
 71
3
 72
10
 73
6
 74
4
 40
0.000000
 40
0.000000
 40
0.000000
 40
0.000000
 40
1.743678
 40
3.211816
 40
3.851394
 40
3.851394
 40
3.851394
 40
3.851394
 10
81.446189
 20
158.963244
 30
0.0
 10
82.021014
 20
159.085082
 30
0.0
 10
83.079828
 20
159.309504
 30
0.0
 10
84.363749
 20
159.041332
 30
0.0
 10
85.025094
 20
158.807374
 30
0.0
 10
85.225777
 20
158.736380
 30
0.0
 11
81.446189
 21
158.963244
 31
0.0
 11
83.174168
 21
159.196698
 31
0.0
 11
84.619927
 21
158.941332
 31
0.0
 11
85.225777
 21
158.736380
 31
0.0
  0
SPLINE
  5
1a5
100
AcDbEntity
  8
0
 62
5
100
AcDbSpline
 70
0
 71
3
 72
10
 73
6
 74
4
 40
0.000000
 40
0.000000
 40
0.000000
 40
0.000000
 40
0.639578
 40
2.107717
 40
3.851397
 40
3.851397
 40
3.851397
 40
3.851397
 10
51.077027
 20
148.471136
 30
0.0
 10
50.915203
 20
148.609436
 30
0.0
 10
50.381916
 20
149.065200
 30
0.0
 10
49.507713
 20
150.043023
 30
0.0
 10
49.172661
 20
151.072195
 30
0.0
 10
48.990764
 20
151.630928
 30
0.0
 11
51.077027
 21
148.471136
 31
0.0
 11
50.596608
 21
148.893343
 31
0.0
 11
49.652576
 21
150.017725
 31
0.0
 11
48.990764
 21
151.630928
 31
0.0
  0
SPLINE
  5
1a6
100
AcDbEntity
  8
0
 62
5
100
AcDbSpline
 70
0
 71
3
 72
10
 73
6
 74
4
 40
0.000000
 40
0.000000
 40
0.000000
 40
0.000000
 40
2.923524
 40
5.996597
 40
8.920123
 40
8.920123
 40
8.920123
 40
8.920123
 10
48.990764
 20
151.630928
 30
0.0
 10
49.038725
 20
152.612624
 30
0.0
 10
49.137100
 20
154.626234
 30
0.0
 10
50.703236
 20
157.338859
 30
0.0
 10
52.397886
 20
158.430860
 30
0.0
 10
53.224080
 20
158.963244
 30
0.0
 11
48.990764
 21
151.630928
 31
0.0
 11
49.361510
 21
154.530848
 31
0.0
 11
50.898047
 21
157.192207
 31
0.0
 11
53.224080
 21
158.963244
 31
0.0
  0
LINE
  5
1a7
100
AcDbEntity
  8
0
 62
5
100
AcDbLine
 10
57.003668
 20
158.736380
 30
0.0
 11
56.157007
 21
157.269917
 31
0.0
  0
LINE
  5
1a8
100
AcDbEntity
  8
0
 62
5
100
AcDbLine
 10
56.157007
 20
157.269917
 30
0.0
 11
56.645827
 21
156.987697
 31
0.0
  0
LINE
  5
1a9
100
AcDbEntity
  8
0
 62
5
100
AcDbLine
 10
56.645827
 20
156.987697
 30
0.0
 11
61.584693
 21
165.542067
 31
0.0
  0
LINE
  5
1aa
100
AcDbEntity
  8
0
 62
1
100
AcDbLine
 10
53.400285
 20
151.366254
 30
0.0
 11
55.658052
 21
155.276824
 31
0.0
  0
LINE
  5
1ab
100
AcDbEntity
  8
0
 62
5
100
AcDbLine
 10
47.473639
 20
141.101013
 30
0.0
 11
49.295228
 21
148.670323
 31
0.0
  0
LINE
  5
1ac
100
AcDbEntity
  8
0
 62
5
100
AcDbLine
 10
49.295228
 20
148.670323
 30
0.0
 11
40.828598
 21
163.334957
 31
0.0
  0
LINE
  5
1ad
100
AcDbEntity
  8
0
 62
5
100
AcDbLine
 10
40.828598
 20
163.334957
 30
0.0
 11
33.362590
 21
165.542070
 31
0.0
  0
LINE
  5
1ae
100
AcDbEntity
  8
0
 62
5
100
AcDbLine
 10
42.789314
 20
147.521176
 30
0.0
 11
43.446923
 21
149.204372
 31
0.0
  0
LINE
  5
1af
100
AcDbEntity
  8
0
 62
5
100
AcDbLine
 10
43.446923
 20
149.204372
 30
0.0
 11
38.366946
 21
158.003153
 31
0.0
  0
LINE
  5
1b0
100
AcDbEntity
  8
0
 62
5
100
AcDbLine
 10
38.366946
 20
158.003153
 30
0.0
 11
36.580451
 21
158.275243
 31
0.0
  0
LINE
  5
1b1
100
AcDbEntity
  8
0
 62
1
100
AcDbLine
 10
47.473639
 20
141.101013
 30
0.0
 11
43.522544
 21
147.944510
 31
0.0
  0
LINE
  5
1b2
100
AcDbEntity
  8
0
 62
1
100
AcDbLine
 10
33.362590
 20
165.542070
 30
0.0
 11
37.313684
 21
158.698573
 31
0.0
  0
LINE
  5
1b3
100
AcDbEntity
  8
0
 62
5
100
AcDbLine
 10
19.251535
 20
141.101010
 30
0.0
 11
24.190403
 21
149.655380
 31
0.0
  0
LINE
  5
1b4
100
AcDbEntity
  8
0
 62
5
100
AcDbLine
 10
24.190403
 20
149.655380
 30
0.0
 11
23.701582
 21
149.937600
 31
0.0
  0
LINE
  5
1b5
100
AcDbEntity
  8
0
 62
5
100
AcDbLine
 10
23.701582
 20
149.937600
 30
0.0
 11
22.854919
 21
148.471136
 31
0.0
  0
SPLINE
  5
1b6
100
AcDbEntity
  8
0
 62
5
100
AcDbSpline
 70
0
 71
3
 72
10
 73
6
 74
4
 40
0.000000
 40
0.000000
 40
0.000000
 40
0.000000
 40
1.743678
 40
3.211816
 40
3.851394
 40
3.851394
 40
3.851394
 40
3.851394
 10
53.224080
 20
158.963244
 30
0.0
 10
53.798905
 20
159.085082
 30
0.0
 10
54.857718
 20
159.309504
 30
0.0
 10
56.141639
 20
159.041332
 30
0.0
 10
56.802985
 20
158.807374
 30
0.0
 10
57.003668
 20
158.736380
 30
0.0
 11
53.224080
 21
158.963244
 31
0.0
 11
54.952059
 21
159.196698
 31
0.0
 11
56.397818
 21
158.941332
 31
0.0
 11
57.003668
 21
158.736380
 31
0.0
  0
SPLINE
  5
1b7
100
AcDbEntity
  8
0
 62
5
100
AcDbSpline
 70
0
 71
3
 72
10
 73
6
 74
4
 40
0.000000
 40
0.000000
 40
0.000000
 40
0.000000
 40
0.639578
 40
2.107718
 40
3.851397
 40
3.851397
 40
3.851397
 40
3.851397
 10
22.854919
 20
148.471136
 30
0.0
 10
22.693095
 20
148.609436
 30
0.0
 10
22.159808
 20
149.065200
 30
0.0
 10
21.285604
 20
150.043023
 30
0.0
 10
20.950552
 20
151.072195
 30
0.0
 10
20.768655
 20
151.630928
 30
0.0
 11
22.854919
 21
148.471136
 31
0.0
 11
22.374500
 21
148.893343
 31
0.0
 11
21.430467
 21
150.017725
 31
0.0
 11
20.768655
 21
151.630928
 31
0.0
  0
SPLINE
  5
1b8
100
AcDbEntity
  8
0
 62
5
100
AcDbSpline
 70
0
 71
3
 72
10
 73
6
 74
4
 40
0.000000
 40
0.000000
 40
0.000000
 40
0.000000
 40
2.923524
 40
5.996597
 40
8.920121
 40
8.920121
 40
8.920121
 40
8.920121
 10
20.768655
 20
151.630928
 30
0.0
 10
20.816616
 20
152.612624
 30
0.0
 10
20.914992
 20
154.626234
 30
0.0
 10
22.481127
 20
157.338859
 30
0.0
 10
24.175777
 20
158.430860
 30
0.0
 10
25.001970
 20
158.963244
 30
0.0
 11
20.768655
 21
151.630928
 31
0.0
 11
21.139402
 21
154.530848
 31
0.0
 11
22.675938
 21
157.192207
 31
0.0
 11
25.001970
 21
158.963244
 31
0.0
  0
LINE
  5
1b9
100
AcDbEntity
  8
0
 62
5
100
AcDbLine
 10
28.781558
 20
158.736380
 30
0.0
 11
27.934897
 21
157.269917
 31
0.0
  0
LINE
  5
1ba
100
AcDbEntity
  8
0
 62
5
100
AcDbLine
 10
27.934897
 20
157.269917
 30
0.0
 11
28.423718
 21
156.987697
 31
0.0
  0
LINE
  5
1bb
100
AcDbEntity
  8
0
 62
5
100
AcDbLine
 10
28.423718
 20
156.987697
 30
0.0
 11
33.362584
 21
165.542067
 31
0.0
  0
LINE
  5
1bc
100
AcDbEntity
  8
0
 62
1
100
AcDbLine
 10
25.178176
 20
151.366254
 30
0.0
 11
27.435944
 21
155.276824
 31
0.0
  0
LINE
  5
1bd
100
AcDbEntity
  8
0
 62
5
100
AcDbLine
 10
19.251530
 20
141.101013
 30
0.0
 11
11.785520
 21
138.893903
 31
0.0
  0
LINE
  5
1be
100
AcDbEntity
  8
0
 62
5
100
AcDbLine
 10
11.785520
 20
138.893903
 30
0.0
 11
3.318890
 21
124.229269
 31
0.0
  0
LINE
  5
1bf
100
AcDbEntity
  8
0
 62
5
100
AcDbLine
 10
3.318890
 20
124.229269
 30
0.0
 11
5.140481
 21
116.659959
 31
0.0
  0
LINE
  5
1c0
100
AcDbEntity
  8
0
 62
5
100
AcDbLine
 10
16.033668
 20
133.834186
 30
0.0
 11
14.247173
 21
133.562096
 31
0.0
  0
LINE
  5
1c1
100
AcDbEntity
  8
0
 62
5
100
AcDbLine
 10
14.247173
 20
133.562096
 30
0.0
 11
9.167195
 21
124.763316
 31
0.0
  0
LINE
  5
1c2
100
AcDbEntity
  8
0
 62
5
100
AcDbLine
 10
9.167195
 20
124.763316
 30
0.0
 11
9.824806
 21
123.080122
 31
0.0
  0
LINE
  5
1c3
100
AcDbEntity
  8
0
 62
1
100
AcDbLine
 10
19.251530
 20
141.101013
 30
0.0
 11
15.300436
 21
134.257517
 31
0.0
  0
LINE
  5
1c4
100
AcDbEntity
  8
0
 62
1
100
AcDbLine
 10
5.140481
 20
116.659959
 30
0.0
 11
9.091574
 21
123.503453
 31
0.0
  0
LINE
  5
1c5
100
AcDbEntity
  8
0
 62
1
100
AcDbLine
 10
19.251587
 20
141.101056
 30
0.0
 11
47.473526
 21
141.101056
 31
0.0
  0
LINE
  5
1c6
100
AcDbEntity
  8
0
 62
1
100
AcDbLine
 10
19.251587
 20
141.101056
 30
0.0
 11
33.362697
 21
116.660047
 31
0.0
  0
LINE
  5
1c7
100
AcDbEntity
  8
0
 62
1
100
AcDbLine
 10
47.473526
 20
141.101056
 30
0.0
 11
75.695748
 21
141.101056
 31
0.0
  0
LINE
  5
1c8
100
AcDbEntity
  8
0
 62
1
100
AcDbLine
 10
47.473526
 20
141.101056
 30
0.0
 11
33.362697
 21
116.660047
 31
0.0
  0
LINE
  5
1c9
100
AcDbEntity
  8
0
 62
1
100
AcDbLine
 10
47.473526
 20
141.101056
 30
0.0
 11
61.584637
 21
116.660047
 31
0.0
  0
LINE
  5
1ca
100
AcDbEntity
  8
0
 62
1
100
AcDbLine
 10
75.695748
 20
141.101056
 30
0.0
 11
103.917970
 21
141.101056
 31
0.0
  0
LINE
  5
1cb
100
AcDbEntity
  8
0
 62
1
100
AcDbLine
 10
75.695748
 20
141.101056
 30
0.0
 11
61.584637
 21
116.660047
 31
0.0
  0
LINE
  5
1cc
100
AcDbEntity
  8
0
 62
1
100
AcDbLine
 10
75.695748
 20
141.101056
 30
0.0
 11
89.806859
 21
116.660047
 31
0.0
  0
LINE
  5
1cd
100
AcDbEntity
  8
0
 62
1
100
AcDbLine
 10
103.917970
 20
141.101056
 30
0.0
 11
132.139910
 21
141.101056
 31
0.0
  0
LINE
  5
1ce
100
AcDbEntity
  8
0
 62
1
100
AcDbLine
 10
103.917970
 20
141.101056
 30
0.0
 11
89.806859
 21
116.660047
 31
0.0
  0
LINE
  5
1cf
100
AcDbEntity
  8
0
 62
1
100
AcDbLine
 10
103.917970
 20
141.101056
 30
0.0
 11
118.028799
 21
116.660047
 31
0.0
  0
LINE
  5
1d0
100
AcDbEntity
  8
0
 62
1
100
AcDbLine
 10
132.139910
 20
141.101056
 30
0.0
 11
160.362132
 21
141.101056
 31
0.0
  0
LINE
  5
1d1
100
AcDbEntity
  8
0
 62
1
100
AcDbLine
 10
132.139910
 20
141.101056
 30
0.0
 11
118.028799
 21
116.660047
 31
0.0
  0
LINE
  5
1d2
100
AcDbEntity
  8
0
 62
1
100
AcDbLine
 10
132.139910
 20
141.101056
 30
0.0
 11
146.251021
 21
116.660047
 31
0.0
  0
LINE
  5
1d3
100
AcDbEntity
  8
0
 62
1
100
AcDbLine
 10
5.140475
 20
116.660047
 30
0.0
 11
33.362697
 21
116.660047
 31
0.0
  0
LINE
  5
1d4
100
AcDbEntity
  8
0
 62
1
100
AcDbLine
 10
33.362697
 20
116.660047
 30
0.0
 11
61.584637
 21
116.660047
 31
0.0
  0
LINE
  5
1d5
100
AcDbEntity
  8
0
 62
1
100
AcDbLine
 10
61.584637
 20
116.660047
 30
0.0
 11
89.806859
 21
116.660047
 31
0.0
  0
LINE
  5
1d6
100
AcDbEntity
  8
0
 62
1
100
AcDbLine
 10
89.806859
 20
116.660047
 30
0.0
 11
118.028799
 21
116.660047
 31
0.0
  0
LINE
  5
1d7
100
AcDbEntity
  8
0
 62
1
100
AcDbLine
 10
118.028799
 20
116.660047
 30
0.0
 11
146.251021
 21
116.660047
 31
0.0
  0
LINE
  5
1d8
100
AcDbEntity
  8
0
 62
5
100
AcDbLine
 10
10.674211
 20
33.036208
 30
0.0
 11
8.441007
 21
41.641144
 31
0.0
  0
LINE
  5
1d9
100
AcDbEntity
  8
0
 62
5
100
AcDbLine
 10
8.441007
 20
41.641144
 30
0.0
 11
7.949297
 21
41.513531
 31
0.0
  0
LINE
  5
1da
100
AcDbEntity
  8
0
 62
5
100
AcDbLine
 10
7.949297
 20
41.513531
 30
0.0
 11
8.332132
 21
40.038398
 31
0.0
  0
SPLINE
  5
1db
100
AcDbEntity
  8
0
 62
5
100
AcDbSpline
 70
0
 71
3
 72
10
 73
6
 74
4
 40
0.000000
 40
0.000000
 40
0.000000
 40
0.000000
 40
1.743679
 40
3.211817
 40
3.851395
 40
3.851395
 40
3.851395
 40
3.851395
 10
25.001970
 20
158.963244
 30
0.0
 10
25.576795
 20
159.085082
 30
0.0
 10
26.635609
 20
159.309504
 30
0.0
 10
27.919530
 20
159.041332
 30
0.0
 10
28.580876
 20
158.807374
 30
0.0
 10
28.781558
 20
158.736380
 30
0.0
 11
25.001970
 21
158.963244
 31
0.0
 11
26.729950
 21
159.196698
 31
0.0
 11
28.175708
 21
158.941332
 31
0.0
 11
28.781558
 21
158.736380
 31
0.0
  0
SPLINE
  5
1dc
100
AcDbEntity
  8
0
 62
5
100
AcDbSpline
 70
0
 71
3
 72
10
 73
6
 74
4
 40
0.000000
 40
0.000000
 40
0.000000
 40
0.000000
 40
0.575623
 40
1.896953
 40
3.466271
 40
3.466271
 40
3.466271
 40
3.466271
 10
8.332132
 20
40.038398
 30
0.0
 10
8.141022
 20
40.024932
 30
0.0
 10
7.511222
 20
39.980555
 30
0.0
 10
6.333150
 20
40.055778
 30
0.0
 10
5.468466
 20
40.504339
 30
0.0
 10
4.999034
 20
40.747860
 30
0.0
 11
8.332132
 21
40.038398
 31
0.0
 11
7.757428
 21
40.005877
 31
0.0
 11
6.442037
 21
40.131014
 31
0.0
 11
4.999034
 21
40.747860
 31
0.0
  0
SPLINE
  5
1dd
100
AcDbEntity
  8
0
 62
5
100
AcDbSpline
 70
0
 71
3
 72
10
 73
6
 74
4
 40
0.000000
 40
0.000000
 40
0.000000
 40
0.000000
 40
2.631184
 40
5.396962
 40
8.028146
 40
8.028146
 40
8.028146
 40
8.028146
 10
4.999034
 20
40.747860
 30
0.0
 10
4.409984
 20
41.407792
 30
0.0
 10
3.201754
 20
42.761416
 30
0.0
 10
2.493596
 20
45.490076
 30
0.0
 10
2.891076
 20
47.260422
 30
0.0
 10
3.084859
 20
48.123520
 30
0.0
 11
4.999034
 21
40.747860
 31
0.0
 11
3.405912
 21
42.841921
 31
0.0
 11
2.711138
 21
45.519013
 31
0.0
 11
3.084859
 21
48.123520
 31
0.0
  0
LINE
  5
1de
100
AcDbEntity
  8
0
 62
5
100
AcDbLine
 10
5.652287
 20
50.364319
 30
0.0
 11
6.035122
 21
48.889189
 31
0.0
  0
LINE
  5
1df
100
AcDbEntity
  8
0
 62
5
100
AcDbLine
 10
6.035122
 20
48.889189
 30
0.0
 11
6.526833
 21
49.016801
 31
0.0
  0
LINE
  5
1e0
100
AcDbEntity
  8
0
 62
5
100
AcDbLine
 10
6.526833
 20
49.016801
 30
0.0
 11
4.293629
 21
57.621734
 31
0.0
  0
LINE
  5
1e1
100
AcDbEntity
  8
0
 62
1
100
AcDbLine
 10
7.994367
 20
43.362129
 30
0.0
 11
6.973473
 21
47.295813
 31
0.0
  0
LINE
  5
1e2
100
AcDbEntity
  8
0
 62
5
100
AcDbLine
 10
10.674184
 20
33.036202
 30
0.0
 11
12.934347
 21
28.319589
 31
0.0
  0
LINE
  5
1e3
100
AcDbEntity
  8
0
 62
5
100
AcDbLine
 10
12.934347
 20
28.319589
 30
0.0
 11
28.253738
 21
29.176935
 31
0.0
  0
LINE
  5
1e4
100
AcDbEntity
  8
0
 62
5
100
AcDbLine
 10
28.253738
 20
29.176935
 30
0.0
 11
30.957325
 21
31.812961
 31
0.0
  0
LINE
  5
1e5
100
AcDbEntity
  8
0
 62
5
100
AcDbLine
 10
30.957325
 20
31.812961
 30
0.0
 11
36.028111
 21
31.507151
 31
0.0
  0
LINE
  5
1e6
100
AcDbEntity
  8
0
 62
5
100
AcDbLine
 10
12.748370
 20
33.674496
 30
0.0
 11
13.686074
 21
32.345636
 31
0.0
  0
LINE
  5
1e7
100
AcDbEntity
  8
0
 62
5
100
AcDbLine
 10
13.686074
 20
32.345636
 30
0.0
 11
22.813488
 21
31.795178
 31
0.0
  0
LINE
  5
1e8
100
AcDbEntity
  8
0
 62
5
100
AcDbLine
 10
22.813488
 20
31.795178
 30
0.0
 11
23.904097
 21
33.001712
 31
0.0
  0
LINE
  5
1e9
100
AcDbEntity
  8
0
 62
1
100
AcDbLine
 10
10.674184
 20
33.036202
 30
0.0
 11
12.702498
 21
32.913879
 31
0.0
  0
LINE
  5
1ea
100
AcDbEntity
  8
0
 62
1
100
AcDbLine
 10
30.957325
 20
31.812961
 30
0.0
 11
23.858226
 21
32.241095
 31
0.0
  0
LINE
  5
1eb
100
AcDbEntity
  8
0
 62
5
100
AcDbLine
 10
36.028111
 20
31.507151
 30
0.0
 11
24.252373
 21
23.991079
 31
0.0
  0
LINE
  5
1ec
100
AcDbEntity
  8
0
 62
5
100
AcDbLine
 10
24.252373
 20
23.991079
 30
0.0
 11
23.979061
 21
24.419286
 31
0.0
  0
LINE
  5
1ed
100
AcDbEntity
  8
0
 62
5
100
AcDbLine
 10
23.979061
 20
24.419286
 30
0.0
 11
25.263687
 21
25.239221
 31
0.0
  0
SPLINE
  5
1ee
100
AcDbEntity
  8
0
 62
5
100
AcDbSpline
 70
0
 71
3
 72
10
 73
6
 74
4
 40
0.000000
 40
0.000000
 40
0.000000
 40
0.000000
 40
1.569317
 40
2.890647
 40
3.466270
 40
3.466270
 40
3.466270
 40
3.466270
 10
3.084859
 20
48.123520
 30
0.0
 10
3.376622
 20
48.564591
 30
0.0
 10
3.914043
 20
49.377034
 30
0.0
 10
4.906853
 20
50.015657
 30
0.0
 10
5.478748
 20
50.283150
 30
0.0
 10
5.652287
 20
50.364319
 30
0.0
 11
3.084859
 21
48.123520
 31
0.0
 11
4.045774
 21
49.364245
 31
0.0
 11
5.134300
 21
50.113260
 31
0.0
 11
5.652287
 21
50.364319
 31
0.0
  0
SPLINE
  5
1ef
100
AcDbEntity
  8
0
 62
5
100
AcDbSpline
 70
0
 71
3
 72
10
 73
6
 74
4
 40
0.000000
 40
0.000000
 40
0.000000
 40
0.000000
 40
0.252426
 40
0.975265
 40
2.183224
 40
2.183224
 40
2.183224
 40
2.183224
 10
25.263687
 20
25.239221
 30
0.0
 10
25.192404
 20
25.284131
 30
0.0
 10
24.916997
 20
25.457645
 30
0.0
 10
24.207570
 20
25.673925
 30
0.0
 10
23.562622
 20
25.692373
 30
0.0
 10
23.159126
 20
25.703914
 30
0.0
 11
25.263687
 21
25.239221
 31
0.0
 11
25.047058
 21
25.368800
 31
0.0
 11
24.362748
 21
25.601644
 31
0.0
 11
23.159126
 21
25.703914
 31
0.0
  0
SPLINE
  5
1f0
100
AcDbEntity
  8
0
 62
5
100
AcDbSpline
 70
0
 71
3
 72
10
 73
6
 74
4
 40
0.000000
 40
0.000000
 40
0.000000
 40
0.000000
 40
2.353141
 40
4.850988
 40
7.155563
 40
7.155563
 40
7.155563
 40
7.155563
 10
23.159126
 20
25.703914
 30
0.0
 10
22.395825
 20
25.522667
 30
0.0
 10
20.822283
 20
25.149028
 30
0.0
 10
18.536532
 20
24.463658
 30
0.0
 10
17.015143
 20
23.965902
 30
0.0
 10
16.285062
 20
23.727040
 30
0.0
 11
23.159126
 21
25.703914
 31
0.0
 11
20.874859
 21
25.138762
 31
0.0
 11
18.478225
 21
24.434927
 31
0.0
 11
16.285062
 21
23.727040
 31
0.0
  0
LINE
  5
1f1
100
AcDbEntity
  8
0
 62
5
100
AcDbLine
 10
16.271307
 20
19.499676
 30
0.0
 11
17.555932
 21
20.319611
 31
0.0
  0
LINE
  5
1f2
100
AcDbEntity
  8
0
 62
5
100
AcDbLine
 10
17.555932
 20
20.319611
 30
0.0
 11
17.829244
 21
19.891403
 31
0.0
  0
LINE
  5
1f3
100
AcDbEntity
  8
0
 62
5
100
AcDbLine
 10
17.829244
 20
19.891403
 30
0.0
 11
14.617679
 21
17.841564
 31
0.0
  0
LINE
  5
1f4
100
AcDbEntity
  8
0
 62
1
100
AcDbLine
 10
22.753642
 20
23.034487
 30
0.0
 11
19.327973
 21
20.847993
 31
0.0
  0
LINE
  5
1f5
100
AcDbEntity
  8
0
 62
5
100
AcDbLine
 10
20.998179
 20
-6.743841
 30
0.0
 11
15.050813
 21
-3.039054
 31
0.0
  0
LINE
  5
1f6
100
AcDbEntity
  8
0
 62
5
100
AcDbLine
 10
15.050813
 20
-3.039054
 30
0.0
 11
11.222463
 21
11.712270
 31
0.0
  0
LINE
  5
1f7
100
AcDbEntity
  8
0
 62
5
100
AcDbLine
 10
11.222463
 20
11.712270
 30
0.0
 11
14.617597
 21
17.841685
 31
0.0
  0
LINE
  5
1f8
100
AcDbEntity
  8
0
 62
5
100
AcDbLine
 10
19.949182
 20
0.331524
 30
0.0
 11
18.464682
 21
0.995917
 31
0.0
  0
LINE
  5
1f9
100
AcDbEntity
  8
0
 62
5
100
AcDbLine
 10
18.464682
 20
0.995917
 30
0.0
 11
16.167673
 21
9.846705
 31
0.0
  0
LINE
  5
1fa
100
AcDbEntity
  8
0
 62
5
100
AcDbLine
 10
16.167673
 20
9.846705
 30
0.0
 11
17.141726
 21
11.149155
 31
0.0
  0
LINE
  5
1fb
100
AcDbEntity
  8
0
 62
1
100
AcDbLine
 10
20.998179
 20
-6.743841
 30
0.0
 11
19.211616
 21
0.140106
 31
0.0
  0
LINE
  5
1fc
100
AcDbEntity
  8
0
 62
1
100
AcDbLine
 10
14.617597
 20
17.841685
 30
0.0
 11
16.404160
 21
10.957738
 31
0.0
  0
LINE
  5
1fd
100
AcDbEntity
  8
0
 62
5
100
AcDbLine
 10
46.352079
 20
-8.272893
 30
0.0
 11
37.478205
 21
-7.737715
 31
0.0
  0
LINE
  5
1fe
100
AcDbEntity
  8
0
 62
5
100
AcDbLine
 10
37.478205
 20
-7.737715
 30
0.0
 11
37.447624
 21
-8.244812
 31
0.0
  0
LINE
  5
1ff
100
AcDbEntity
  8
0
 62
5
100
AcDbLine
 10
37.447624
 20
-8.244812
 30
0.0
 11
38.968861
 21
-8.336534
 31
0.0
  0
SPLINE
  5
200
100
AcDbEntity
  8
0
 62
5
100
AcDbSpline
 70
0
 71
3
 72
10
 73
6
 74
4
 40
0.000000
 40
0.000000
 40
0.000000
 40
0.000000
 40
1.795921
 40
3.492720
 40
4.254950
 40
4.254950
 40
4.254950
 40
4.254950
 10
16.285062
 20
23.727040
 30
0.0
 10
16.178106
 20
23.135236
 30
0.0
 10
15.970098
 20
21.984292
 30
0.0
 10
16.105850
 20
20.559681
 30
0.0
 10
16.232156
 20
19.750499
 30
0.0
 10
16.271307
 20
19.499676
 30
0.0
 11
16.285062
 21
23.727040
 31
0.0
 11
16.048652
 21
21.946747
 31
0.0
 11
16.158451
 21
20.253504
 31
0.0
 11
16.271307
 21
19.499676
 31
0.0
  0
SPLINE
  5
201
100
AcDbEntity
  8
0
 62
5
100
AcDbSpline
 70
0
 71
3
 72
10
 73
6
 74
4
 40
0.000000
 40
0.000000
 40
0.000000
 40
0.000000
 40
0.575626
 40
1.896962
 40
3.466287
 40
3.466287
 40
3.466287
 40
3.466287
 10
38.968861
 20
-8.336534
 30
0.0
 10
38.922611
 20
-8.522453
 30
0.0
 10
38.770198
 20
-9.135144
 30
0.0
 10
38.334613
 20
-10.232318
 30
0.0
 10
37.640803
 20
-10.916073
 30
0.0
 10
37.264137
 20
-11.287280
 30
0.0
 11
38.968861
 21
-8.336534
 31
0.0
 11
38.822197
 21
-8.893162
 31
0.0
 11
38.296707
 21
-10.105511
 31
0.0
 11
37.264137
 21
-11.287280
 31
0.0
  0
SPLINE
  5
202
100
AcDbEntity
  8
0
 62
5
100
AcDbSpline
 70
0
 71
3
 72
10
 73
6
 74
4
 40
0.000000
 40
0.000000
 40
0.000000
 40
0.000000
 40
2.631181
 40
5.396959
 40
8.028140
 40
8.028140
 40
8.028140
 40
8.028140
 10
37.264137
 20
-11.287280
 30
0.0
 10
36.454478
 20
-11.643569
 30
0.0
 10
34.793743
 20
-12.374372
 30
0.0
 10
31.979803
 20
-12.204655
 30
0.0
 10
30.418932
 20
-11.279566
 30
0.0
 10
29.657960
 20
-10.828556
 30
0.0
 11
37.264137
 21
-11.287280
 31
0.0
 11
34.780267
 21
-12.155327
 31
0.0
 11
32.019506
 21
-11.988822
 31
0.0
 11
29.657960
 21
-10.828556
 31
0.0
  0
LINE
  5
203
100
AcDbEntity
  8
0
 62
5
100
AcDbLine
 10
28.320210
 20
-7.694337
 30
0.0
 11
29.841447
 21
-7.786088
 31
0.0
  0
LINE
  5
204
100
AcDbEntity
  8
0
 62
5
100
AcDbLine
 10
29.841447
 20
-7.786088
 30
0.0
 11
29.872026
 21
-7.279019
 31
0.0
  0
LINE
  5
205
100
AcDbEntity
  8
0
 62
5
100
AcDbLine
 10
29.872026
 20
-7.279019
 30
0.0
 11
20.998152
 21
-6.743841
 31
0.0
  0
LINE
  5
206
100
AcDbEntity
  8
0
 62
1
100
AcDbLine
 10
35.703431
 20
-7.630696
 30
0.0
 11
31.646803
 21
-7.386038
 31
0.0
  0
LINE
  5
207
100
AcDbEntity
  8
0
 62
5
100
AcDbLine
 10
46.352079
 20
-8.272893
 30
0.0
 11
51.536264
 21
-7.580856
 31
0.0
  0
LINE
  5
208
100
AcDbEntity
  8
0
 62
5
100
AcDbLine
 10
51.536264
 20
-7.580856
 30
0.0
 11
55.454827
 21
7.253647
 31
0.0
  0
LINE
  5
209
100
AcDbEntity
  8
0
 62
5
100
AcDbLine
 10
55.454827
 20
7.253647
 30
0.0
 11
53.783272
 21
10.639484
 31
0.0
  0
LINE
  5
20a
100
AcDbEntity
  8
0
 62
5
100
AcDbLine
 10
53.783272
 20
10.639484
 30
0.0
 11
55.641071
 21
15.367579
 31
0.0
  0
LINE
  5
20b
100
AcDbEntity
  8
0
 62
5
100
AcDbLine
 10
46.385985
 20
-6.102971
 30
0.0
 11
47.939568
 21
-5.621810
 31
0.0
  0
LINE
  5
20c
100
AcDbEntity
  8
0
 62
5
100
AcDbLine
 10
47.939568
 20
-5.621810
 30
0.0
 11
51.283605
 21
2.888753
 31
0.0
  0
LINE
  5
20d
100
AcDbEntity
  8
0
 62
5
100
AcDbLine
 10
51.283605
 20
2.888753
 30
0.0
 11
50.473142
 21
4.298823
 31
0.0
  0
LINE
  5
20e
100
AcDbEntity
  8
0
 62
1
100
AcDbLine
 10
46.352079
 20
-8.272893
 30
0.0
 11
47.095198
 21
-6.381665
 31
0.0
  0
LINE
  5
20f
100
AcDbEntity
  8
0
 62
1
100
AcDbLine
 10
53.783272
 20
10.639484
 30
0.0
 11
51.182355
 21
4.020154
 31
0.0
  0
LINE
  5
210
100
AcDbEntity
  8
0
 62
5
100
AcDbLine
 10
55.640887
 20
15.367652
 30
0.0
 11
59.150210
 21
1.845598
 31
0.0
  0
LINE
  5
211
100
AcDbEntity
  8
0
 62
5
100
AcDbLine
 10
59.150210
 20
1.845598
 30
0.0
 11
58.658500
 21
1.717988
 31
0.0
  0
LINE
  5
212
100
AcDbEntity
  8
0
 62
5
100
AcDbLine
 10
58.658500
 20
1.717988
 30
0.0
 11
58.275666
 21
3.193121
 31
0.0
  0
SPLINE
  5
213
100
AcDbEntity
  8
0
 62
5
100
AcDbSpline
 70
0
 71
3
 72
10
 73
6
 74
4
 40
0.000000
 40
0.000000
 40
0.000000
 40
0.000000
 40
1.569322
 40
2.890652
 40
3.466274
 40
3.466274
 40
3.466274
 40
3.466274
 10
29.657960
 20
-10.828556
 30
0.0
 10
29.328636
 20
-10.414773
 30
0.0
 10
28.722029
 20
-9.652594
 30
0.0
 10
28.421457
 20
-8.511029
 30
0.0
 10
28.343780
 20
-7.884465
 30
0.0
 10
28.320210
 20
-7.694337
 30
0.0
 11
29.657960
 21
-10.828556
 31
0.0
 11
28.774899
 21
-9.531261
 31
0.0
 11
28.398915
 21
-8.264553
 31
0.0
 11
28.320210
 21
-7.694337
 31
0.0
  0
SPLINE
  5
214
100
AcDbEntity
  8
0
 62
5
100
AcDbSpline
 70
0
 71
3
 72
10
 73
6
 74
4
 40
0.000000
 40
0.000000
 40
0.000000
 40
0.000000
 40
0.252428
 40
0.975272
 40
2.183237
 40
2.183237
 40
2.183237
 40
2.183237
 10
58.275666
 20
3.193121
 30
0.0
 10
58.210926
 20
3.139205
 30
0.0
 10
57.960797
 20
2.930895
 30
0.0
 10
57.535875
 20
2.323019
 30
0.0
 10
57.319031
 20
1.715335
 30
0.0
 10
57.183367
 20
1.335151
 30
0.0
 11
58.275666
 21
3.193121
 31
0.0
 11
58.085485
 21
3.027136
 31
0.0
 11
57.652572
 21
2.448267
 31
0.0
 11
57.183367
 21
1.335151
 31
0.0
  0
SPLINE
  5
215
100
AcDbEntity
  8
0
 62
5
100
AcDbSpline
 70
0
 71
3
 72
10
 73
6
 74
4
 40
0.000000
 40
0.000000
 40
0.000000
 40
0.000000
 40
2.353148
 40
4.851002
 40
7.155586
 40
7.155586
 40
7.155586
 40
7.155586
 10
57.183367
 20
1.335151
 30
0.0
 10
57.119869
 20
0.553197
 30
0.0
 10
56.988968
 20
-1.058796
 30
0.0
 10
56.934458
 20
-3.444472
 30
0.0
 10
56.937717
 20
-5.045219
 30
0.0
 10
56.939282
 20
-5.813383
 30
0.0
 11
57.183367
 21
1.335151
 31
0.0
 11
57.014979
 21
-1.011965
 31
0.0
 11
56.943764
 21
-3.508803
 31
0.0
 11
56.939282
 21
-5.813383
 31
0.0
  0
LINE
  5
216
100
AcDbEntity
  8
0
 62
5
100
AcDbLine
 10
60.955513
 20
-7.132800
 30
0.0
 11
60.572675
 21
-5.657681
 31
0.0
  0
LINE
  5
217
100
AcDbEntity
  8
0
 62
5
100
AcDbLine
 10
60.572675
 20
-5.657681
 30
0.0
 11
61.064388
 21
-5.530060
 31
0.0
  0
LINE
  5
218
100
AcDbEntity
  8
0
 62
5
100
AcDbLine
 10
61.064388
 20
-5.530060
 30
0.0
 11
62.021474
 21
-9.217886
 31
0.0
  0
LINE
  5
219
100
AcDbEntity
  8
0
 62
1
100
AcDbLine
 10
59.596853
 20
0.124610
 30
0.0
 11
60.617746
 21
-3.809069
 31
0.0
  0
LINE
  5
21a
100
AcDbEntity
  8
0
 62
5
100
AcDbLine
 10
87.375371
 20
-10.746938
 30
0.0
 11
82.014083
 21
-15.258373
 31
0.0
  0
LINE
  5
21b
100
AcDbEntity
  8
0
 62
5
100
AcDbLine
 10
82.014083
 20
-15.258373
 30
0.0
 11
66.801771
 21
-14.340925
 31
0.0
  0
LINE
  5
21c
100
AcDbEntity
  8
0
 62
5
100
AcDbLine
 10
66.801771
 20
-14.340925
 30
0.0
 11
62.021520
 21
-9.217886
 31
0.0
  0
LINE
  5
21d
100
AcDbEntity
  8
0
 62
5
100
AcDbLine
 10
80.322163
 20
-9.558189
 30
0.0
 11
79.231558
 21
-10.764718
 31
0.0
  0
LINE
  5
21e
100
AcDbEntity
  8
0
 62
5
100
AcDbLine
 10
79.231558
 20
-10.764718
 30
0.0
 11
70.104172
 21
-10.214271
 31
0.0
  0
LINE
  5
21f
100
AcDbEntity
  8
0
 62
5
100
AcDbLine
 10
70.104172
 20
-10.214271
 30
0.0
 11
69.166469
 21
-8.885400
 31
0.0
  0
LINE
  5
220
100
AcDbEntity
  8
0
 62
1
100
AcDbLine
 10
87.375371
 20
-10.746938
 30
0.0
 11
80.276294
 21
-10.318806
 31
0.0
  0
LINE
  5
221
100
AcDbEntity
  8
0
 62
1
100
AcDbLine
 10
62.021520
 20
-9.217886
 30
0.0
 11
69.120599
 21
-9.646017
 31
0.0
  0
LINE
  5
222
100
AcDbEntity
  8
0
 62
5
100
AcDbLine
 10
96.664388
 20
12.893610
 30
0.0
 11
93.413230
 21
4.619419
 31
0.0
  0
LINE
  5
223
100
AcDbEntity
  8
0
 62
5
100
AcDbLine
 10
93.413230
 20
4.619419
 30
0.0
 11
93.886043
 21
4.433641
 31
0.0
  0
LINE
  5
224
100
AcDbEntity
  8
0
 62
5
100
AcDbLine
 10
93.886043
 20
4.433641
 30
0.0
 11
94.443383
 21
5.852073
 31
0.0
  0
SPLINE
  5
225
100
AcDbEntity
  8
0
 62
5
100
AcDbSpline
 70
0
 71
3
 72
10
 73
6
 74
4
 40
0.000000
 40
0.000000
 40
0.000000
 40
0.000000
 40
1.795932
 40
3.492739
 40
4.254971
 40
4.254971
 40
4.254971
 40
4.254971
 10
56.939282
 20
-5.813383
 30
0.0
 10
57.469072
 20
-6.097984
 30
0.0
 10
58.499411
 20
-6.651479
 30
0.0
 10
59.896254
 20
-6.962600
 30
0.0
 10
60.704866
 20
-7.092526
 30
0.0
 10
60.955513
 20
-7.132800
 30
0.0
 11
56.939282
 21
-5.813383
 31
0.0
 11
58.559395
 21
-6.588370
 31
0.0
 11
60.203702
 21
-7.007187
 31
0.0
 11
60.955513
 21
-7.132800
 31
0.0
  0
SPLINE
  5
226
100
AcDbEntity
  8
0
 62
5
100
AcDbSpline
 70
0
 71
3
 72
10
 73
6
 74
4
 40
0.000000
 40
0.000000
 40
0.000000
 40
0.000000
 40
0.575623
 40
1.896956
 40
3.466275
 40
3.466275
 40
3.466275
 40
3.466275
 10
94.443383
 20
5.852073
 30
0.0
 10
94.605910
 20
5.750635
 30
0.0
 10
95.141513
 20
5.416350
 30
0.0
 10
96.050380
 20
4.663039
 30
0.0
 10
96.486266
 20
3.791895
 30
0.0
 10
96.722906
 20
3.318956
 30
0.0
 11
94.443383
 21
5.852073
 31
0.0
 11
94.927444
 21
5.540580
 31
0.0
 11
95.918066
 21
4.666173
 31
0.0
 11
96.722906
 21
3.318956
 31
0.0
  0
SPLINE
  5
227
100
AcDbEntity
  8
0
 62
5
100
AcDbSpline
 70
0
 71
3
 72
10
 73
6
 74
4
 40
0.000000
 40
0.000000
 40
0.000000
 40
0.000000
 40
2.631184
 40
5.396962
 40
8.028144
 40
8.028144
 40
8.028144
 40
8.028144
 10
96.722906
 20
3.318956
 30
0.0
 10
96.811559
 20
2.438825
 30
0.0
 10
96.993399
 20
0.633541
 30
0.0
 10
95.962445
 20
-1.990237
 30
0.0
 10
94.600293
 20
-3.188842
 30
0.0
 10
93.936202
 20
-3.773198
 30
0.0
 11
96.722906
 21
3.318956
 31
0.0
 11
96.780912
 21
0.688411
 31
0.0
 11
95.769441
 21
-1.885779
 31
0.0
 11
93.936202
 21
-3.773198
 31
0.0
  0
LINE
  5
228
100
AcDbEntity
  8
0
 62
5
100
AcDbLine
 10
90.541994
 20
-4.076954
 30
0.0
 11
91.099335
 21
-2.658525
 31
0.0
  0
LINE
  5
229
100
AcDbEntity
  8
0
 62
5
100
AcDbLine
 10
91.099335
 20
-2.658525
 30
0.0
 11
90.626525
 21
-2.472744
 31
0.0
  0
LINE
  5
22a
100
AcDbEntity
  8
0
 62
5
100
AcDbLine
 10
90.626525
 20
-2.472744
 30
0.0
 11
87.375368
 21
-10.746938
 31
0.0
  0
LINE
  5
22b
100
AcDbEntity
  8
0
 62
1
100
AcDbLine
 10
92.762999
 20
2.964581
 30
0.0
 11
91.276757
 21
-0.817905
 31
0.0
  0
LINE
  5
22c
100
AcDbEntity
  8
0
 62
5
100
AcDbLine
 10
96.664430
 20
12.893590
 30
0.0
 11
97.608271
 21
18.037883
 31
0.0
  0
LINE
  5
22d
100
AcDbEntity
  8
0
 62
5
100
AcDbLine
 10
97.608271
 20
18.037883
 30
0.0
 11
84.710738
 21
26.348758
 31
0.0
  0
LINE
  5
22e
100
AcDbEntity
  8
0
 62
5
100
AcDbLine
 10
84.710738
 20
26.348758
 30
0.0
 11
80.974085
 21
25.805297
 31
0.0
  0
LINE
  5
22f
100
AcDbEntity
  8
0
 62
5
100
AcDbLine
 10
80.974085
 20
25.805297
 30
0.0
 11
77.051498
 21
29.033224
 31
0.0
  0
LINE
  5
230
100
AcDbEntity
  8
0
 62
5
100
AcDbLine
 10
94.611207
 20
13.596374
 30
0.0
 11
94.633672
 21
15.222607
 31
0.0
  0
LINE
  5
231
100
AcDbEntity
  8
0
 62
5
100
AcDbLine
 10
94.633672
 20
15.222607
 30
0.0
 11
87.573017
 21
21.032874
 31
0.0
  0
LINE
  5
232
100
AcDbEntity
  8
0
 62
5
100
AcDbLine
 10
87.573017
 20
21.032874
 30
0.0
 11
85.981517
 21
20.697814
 31
0.0
  0
LINE
  5
233
100
AcDbEntity
  8
0
 62
1
100
AcDbLine
 10
96.664430
 20
12.893590
 30
0.0
 11
95.095396
 21
14.184763
 31
0.0
  0
LINE
  5
234
100
AcDbEntity
  8
0
 62
1
100
AcDbLine
 10
80.974085
 20
25.805297
 30
0.0
 11
86.465706
 21
21.286202
 31
0.0
  0
LINE
  5
235
100
AcDbEntity
  8
0
 62
5
100
AcDbLine
 10
77.051402
 20
29.033106
 30
0.0
 11
90.996019
 21
28.192132
 31
0.0
  0
LINE
  5
236
100
AcDbEntity
  8
0
 62
5
100
AcDbLine
 10
90.996019
 20
28.192132
 30
0.0
 11
90.965441
 21
27.685055
 31
0.0
  0
LINE
  5
237
100
AcDbEntity
  8
0
 62
5
100
AcDbLine
 10
90.965441
 20
27.685055
 30
0.0
 11
89.444209
 21
27.776797
 31
0.0
  0
SPLINE
  5
238
100
AcDbEntity
  8
0
 62
5
100
AcDbSpline
 70
0
 71
3
 72
10
 73
6
 74
4
 40
0.000000
 40
0.000000
 40
0.000000
 40
0.000000
 40
1.569322
 40
2.890655
 40
3.466279
 40
3.466279
 40
3.466279
 40
3.466279
 10
93.936202
 20
-3.773198
 30
0.0
 10
93.440905
 20
-3.958543
 30
0.0
 10
92.528581
 20
-4.299944
 30
0.0
 10
91.350003
 20
-4.233039
 30
0.0
 10
90.730101
 20
-4.113291
 30
0.0
 10
90.541994
 20
-4.076954
 30
0.0
 11
93.936202
 21
-3.773198
 31
0.0
 11
92.429523
 21
-4.212166
 31
0.0
 11
91.108625
 21
-4.178310
 31
0.0
 11
90.541994
 21
-4.076954
 31
0.0
  0
SPLINE
  5
239
100
AcDbEntity
  8
0
 62
5
100
AcDbSpline
 70
0
 71
3
 72
10
 73
6
 74
4
 40
0.000000
 40
0.000000
 40
0.000000
 40
0.000000
 40
0.252426
 40
0.975265
 40
2.183224
 40
2.183224
 40
2.183224
 40
2.183224
 10
89.444209
 20
27.776797
 30
0.0
 10
89.475481
 20
27.698564
 30
0.0
 10
89.596301
 20
27.396309
 30
0.0
 10
90.043114
 20
26.804344
 30
0.0
 10
90.554044
 20
26.410329
 30
0.0
 10
90.873696
 20
26.163823
 30
0.0
 11
89.444209
 21
27.776797
 31
0.0
 11
89.543301
 21
27.544633
 31
0.0
 11
89.960057
 21
26.954032
 31
0.0
 11
90.873696
 21
26.163823
 31
0.0
  0
SPLINE
  5
23a
100
AcDbEntity
  8
0
 62
5
100
AcDbSpline
 70
0
 71
3
 72
10
 73
6
 74
4
 40
0.000000
 40
0.000000
 40
0.000000
 40
0.000000
 40
2.353142
 40
4.850991
 40
7.155568
 40
7.155568
 40
7.155568
 40
7.155568
 10
90.873696
 20
26.163823
 30
0.0
 10
91.597754
 20
25.861797
 30
0.0
 10
93.090396
 20
25.239171
 30
0.0
 10
95.342459
 20
24.450116
 30
0.0
 10
96.865864
 20
23.958559
 30
0.0
 10
97.596912
 20
23.722671
 30
0.0
 11
90.873696
 21
26.163823
 31
0.0
 11
93.053895
 21
25.278381
 31
0.0
 11
95.406519
 21
24.439087
 31
0.0
 11
97.596912
 21
23.722671
 31
0.0
  0
LINE
  5
23b
100
AcDbEntity
  8
0
 62
5
100
AcDbLine
 10
100.092826
 20
27.134597
 30
0.0
 11
98.571595
 21
27.226339
 31
0.0
  0
LINE
  5
23c
100
AcDbEntity
  8
0
 62
5
100
AcDbLine
 10
98.571595
 20
27.226339
 30
0.0
 11
98.602176
 21
27.733416
 31
0.0
  0
LINE
  5
23d
100
AcDbEntity
  8
0
 62
5
100
AcDbLine
 10
98.602176
 20
27.733416
 30
0.0
 11
102.405253
 21
27.504060
 31
0.0
  0
LINE
  5
23e
100
AcDbEntity
  8
0
 62
1
100
AcDbLine
 10
92.770791
 20
28.085096
 30
0.0
 11
96.827405
 21
27.840449
 31
0.0
  0
LINE
  5
23f
100
AcDbEntity
  8
0
 62
5
100
AcDbLine
 10
102.405253
 20
27.504060
 30
0.0
 11
103.261310
 21
20.549675
 31
0.0
  0
LINE
  5
240
100
AcDbEntity
  8
0
 62
5
100
AcDbLine
 10
103.261310
 20
20.549675
 30
0.0
 11
115.029067
 21
10.865897
 31
0.0
  0
LINE
  5
241
100
AcDbEntity
  8
0
 62
5
100
AcDbLine
 10
115.029067
 20
10.865897
 30
0.0
 11
122.018185
 21
11.364426
 31
0.0
  0
LINE
  5
242
100
AcDbEntity
  8
0
 62
5
100
AcDbLine
 10
108.381063
 20
23.573351
 30
0.0
 11
108.358599
 21
21.947118
 31
0.0
  0
LINE
  5
243
100
AcDbEntity
  8
0
 62
5
100
AcDbLine
 10
108.358599
 20
21.947118
 30
0.0
 11
115.419254
 21
16.136851
 31
0.0
  0
LINE
  5
244
100
AcDbEntity
  8
0
 62
5
100
AcDbLine
 10
115.419254
 20
16.136851
 30
0.0
 11
117.010753
 21
16.471911
 31
0.0
  0
LINE
  5
245
100
AcDbEntity
  8
0
 62
1
100
AcDbLine
 10
102.405253
 20
27.504060
 30
0.0
 11
107.896874
 21
22.984962
 31
0.0
  0
LINE
  5
246
100
AcDbEntity
  8
0
 62
1
100
AcDbLine
 10
122.018185
 20
11.364426
 30
0.0
 11
116.526564
 21
15.883523
 31
0.0
  0
LINE
  5
247
100
AcDbEntity
  8
0
 62
5
100
AcDbLine
 10
143.428542
 20
25.030021
 30
0.0
 11
131.652899
 21
17.514008
 31
0.0
  0
LINE
  5
248
100
AcDbEntity
  8
0
 62
5
100
AcDbLine
 10
131.652899
 20
17.514008
 30
0.0
 11
131.926209
 21
17.085804
 31
0.0
  0
LINE
  5
249
100
AcDbEntity
  8
0
 62
5
100
AcDbLine
 10
131.926209
 20
17.085804
 30
0.0
 11
133.210825
 21
17.905733
 31
0.0
  0
SPLINE
  5
24a
100
AcDbEntity
  8
0
 62
5
100
AcDbSpline
 70
0
 71
3
 72
10
 73
6
 74
4
 40
0.000000
 40
0.000000
 40
0.000000
 40
0.000000
 40
1.795923
 40
3.492723
 40
4.254952
 40
4.254952
 40
4.254952
 40
4.254952
 10
97.596912
 20
23.722671
 30
0.0
 10
98.031295
 20
24.138584
 30
0.0
 10
98.876086
 20
24.947454
 30
0.0
 10
99.603627
 20
26.179782
 30
0.0
 10
99.977069
 20
26.908664
 30
0.0
 10
100.092826
 20
27.134597
 30
0.0
 11
97.596912
 21
23.722671
 31
0.0
 11
98.834603
 21
25.024002
 31
0.0
 11
99.741038
 21
26.458402
 31
0.0
 11
100.092826
 21
27.134597
 31
0.0
  0
SPLINE
  5
24b
100
AcDbEntity
  8
0
 62
5
100
AcDbSpline
 70
0
 71
3
 72
10
 73
6
 74
4
 40
0.000000
 40
0.000000
 40
0.000000
 40
0.000000
 40
0.252424
 40
0.975257
 40
2.183208
 40
2.183208
 40
2.183208
 40
2.183208
 10
133.210825
 20
17.905733
 30
0.0
 10
133.221544
 20
17.822167
 30
0.0
 10
133.262959
 20
17.499307
 30
0.0
 10
133.160408
 20
16.764773
 30
0.0
 10
132.905571
 20
16.172026
 30
0.0
 10
132.746138
 20
15.801188
 30
0.0
 11
133.210825
 21
17.905733
 31
0.0
 11
133.237139
 21
17.654684
 31
0.0
 11
133.160190
 21
16.935959
 31
0.0
 11
132.746138
 21
15.801188
 31
0.0
  0
SPLINE
  5
24c
100
AcDbEntity
  8
0
 62
5
100
AcDbSpline
 70
0
 71
3
 72
10
 73
6
 74
4
 40
0.000000
 40
0.000000
 40
0.000000
 40
0.000000
 40
2.353121
 40
4.850948
 40
7.155505
 40
7.155505
 40
7.155505
 40
7.155505
 10
132.746138
 20
15.801188
 30
0.0
 10
132.260339
 20
15.185177
 30
0.0
 10
131.258869
 20
13.915274
 30
0.0
 10
129.674762
 20
12.130645
 30
0.0
 10
128.582673
 20
10.960308
 30
0.0
 10
128.058604
 20
10.398689
 30
0.0
 11
132.746138
 21
15.801188
 31
0.0
 11
131.271696
 21
13.967285
 31
0.0
 11
129.624151
 21
12.089857
 31
0.0
 11
128.058604
 21
10.398689
 31
0.0
  0
LINE
  5
24d
100
AcDbEntity
  8
0
 62
5
100
AcDbLine
 10
124.218517
 20
12.166233
 30
0.0
 11
125.503130
 21
12.986162
 31
0.0
  0
LINE
  5
24e
100
AcDbEntity
  8
0
 62
5
100
AcDbLine
 10
125.503130
 20
12.986162
 30
0.0
 11
125.229820
 21
13.414367
 31
0.0
  0
LINE
  5
24f
100
AcDbEntity
  8
0
 62
5
100
AcDbLine
 10
125.229820
 20
13.414367
 30
0.0
 11
122.018284
 21
11.364544
 31
0.0
  0
LINE
  5
250
100
AcDbEntity
  8
0
 62
1
100
AcDbLine
 10
130.154180
 20
16.557425
 30
0.0
 11
126.728539
 21
14.370950
 31
0.0
  0
LINE
  5
251
100
AcDbEntity
  8
0
 62
5
100
AcDbLine
 10
134.139644
 20
1.389772
 30
0.0
 11
130.813288
 21
5.425798
 31
0.0
  0
LINE
  5
252
100
AcDbEntity
  8
0
 62
5
100
AcDbLine
 10
130.813288
 20
5.425798
 30
0.0
 11
138.041448
 21
18.959723
 31
0.0
  0
LINE
  5
253
100
AcDbEntity
  8
0
 62
5
100
AcDbLine
 10
138.041448
 20
18.959723
 30
0.0
 11
141.570764
 21
20.301969
 31
0.0
  0
LINE
  5
254
100
AcDbEntity
  8
0
 62
5
100
AcDbLine
 10
141.570764
 20
20.301969
 30
0.0
 11
143.428545
 21
25.030018
 31
0.0
  0
LINE
  5
255
100
AcDbEntity
  8
0
 62
5
100
AcDbLine
 10
135.591962
 20
3.002325
 30
0.0
 11
134.781507
 21
4.412381
 31
0.0
  0
LINE
  5
256
100
AcDbEntity
  8
0
 62
5
100
AcDbLine
 10
134.781507
 20
4.412381
 30
0.0
 11
138.125510
 21
12.922868
 31
0.0
  0
LINE
  5
257
100
AcDbEntity
  8
0
 62
5
100
AcDbLine
 10
138.125510
 20
12.922868
 30
0.0
 11
139.679079
 21
13.404032
 31
0.0
  0
LINE
  5
258
100
AcDbEntity
  8
0
 62
1
100
AcDbLine
 10
134.139644
 20
1.389772
 30
0.0
 11
134.882755
 21
3.280991
 31
0.0
  0
LINE
  5
259
100
AcDbEntity
  8
0
 62
1
100
AcDbLine
 10
141.570764
 20
20.301969
 30
0.0
 11
138.969871
 21
13.682701
 31
0.0
  0
LINE
  5
25a
100
AcDbEntity
  8
0
 62
5
100
AcDbLine
 10
153.752640
 20
-14.749865
 30
0.0
 11
146.888129
 21
-9.101018
 31
0.0
  0
LINE
  5
25b
100
AcDbEntity
  8
0
 62
5
100
AcDbLine
 10
146.888129
 20
-9.101018
 30
0.0
 11
146.565338
 21
-9.493250
 31
0.0
  0
LINE
  5
25c
100
AcDbEntity
  8
0
 62
5
100
AcDbLine
 10
146.565338
 20
-9.493250
 30
0.0
 11
147.742111
 21
-10.461639
 31
0.0
  0
SPLINE
  5
25d
100
AcDbEntity
  8
0
 62
5
100
AcDbSpline
 70
0
 71
3
 72
10
 73
6
 74
4
 40
0.000000
 40
0.000000
 40
0.000000
 40
0.000000
 40
1.795905
 40
3.492689
 40
4.254912
 40
4.254912
 40
4.254912
 40
4.254912
 10
128.058604
 20
10.398689
 30
0.0
 10
127.476791
 20
10.550870
 30
0.0
 10
126.345278
 20
10.846832
 30
0.0
 10
125.110292
 20
11.569824
 30
0.0
 10
124.429533
 20
12.025108
 30
0.0
 10
124.218517
 20
12.166233
 30
0.0
 11
128.058604
 21
10.398689
 31
0.0
 11
126.344301
 21
10.933892
 31
0.0
 11
124.854733
 21
11.746456
 31
0.0
 11
124.218517
 21
12.166233
 31
0.0
  0
SPLINE
  5
25e
100
AcDbEntity
  8
0
 62
5
100
AcDbSpline
 70
0
 71
3
 72
10
 73
6
 74
4
 40
0.000000
 40
0.000000
 40
0.000000
 40
0.000000
 40
0.575620
 40
1.896944
 40
3.466253
 40
3.466253
 40
3.466253
 40
3.466253
 10
147.742111
 20
-10.461639
 30
0.0
 10
147.595416
 20
-10.584865
 30
0.0
 10
147.111985
 20
-10.990952
 30
0.0
 10
146.114696
 20
-11.622548
 30
0.0
 10
145.151499
 20
-11.767902
 30
0.0
 10
144.628585
 20
-11.846814
 30
0.0
 11
147.742111
 21
-10.461639
 31
0.0
 11
147.296285
 21
-10.825751
 31
0.0
 11
146.158564
 21
-11.497679
 31
0.0
 11
144.628585
 21
-11.846814
 31
0.0
  0
SPLINE
  5
25f
100
AcDbEntity
  8
0
 62
5
100
AcDbSpline
 70
0
 71
3
 72
10
 73
6
 74
4
 40
0.000000
 40
0.000000
 40
0.000000
 40
0.000000
 40
2.631165
 40
5.396929
 40
8.028103
 40
8.028103
 40
8.028103
 40
8.028103
 10
144.628585
 20
-11.846814
 30
0.0
 10
143.764141
 20
-11.659155
 30
0.0
 10
141.991032
 20
-11.274236
 30
0.0
 10
139.814269
 20
-9.482952
 30
0.0
 10
139.095259
 20
-7.817086
 30
0.0
 10
138.744720
 20
-7.004925
 30
0.0
 11
144.628585
 21
-11.846814
 31
0.0
 11
142.108881
 21
-11.089105
 31
0.0
 11
139.973256
 21
-9.331677
 31
0.0
 11
138.744720
 21
-7.004925
 31
0.0
  0
LINE
  5
260
100
AcDbEntity
  8
0
 62
5
100
AcDbLine
 10
139.504697
 20
-3.683000
 30
0.0
 11
140.681470
 21
-4.651389
 31
0.0
  0
LINE
  5
261
100
AcDbEntity
  8
0
 62
5
100
AcDbLine
 10
140.681470
 20
-4.651389
 30
0.0
 11
141.004262
 21
-4.259128
 31
0.0
  0
LINE
  5
262
100
AcDbEntity
  8
0
 62
5
100
AcDbLine
 10
141.004262
 20
-4.259128
 30
0.0
 11
134.139751
 21
1.389733
 31
0.0
  0
LINE
  5
263
100
AcDbEntity
  8
0
 62
1
100
AcDbLine
 10
145.515228
 20
-7.971226
 30
0.0
 11
142.377166
 21
-5.388892
 31
0.0
  0
LINE
  5
264
100
AcDbEntity
  8
0
 62
5
100
AcDbLine
 10
175.163068
 20
-1.084357
 30
0.0
 11
173.477434
 21
-7.885486
 31
0.0
  0
LINE
  5
265
100
AcDbEntity
  8
0
 62
5
100
AcDbLine
 10
173.477434
 20
-7.885486
 30
0.0
 11
160.631099
 21
-16.084889
 31
0.0
  0
LINE
  5
266
100
AcDbEntity
  8
0
 62
5
100
AcDbLine
 10
160.631099
 20
-16.084889
 30
0.0
 11
153.752510
 21
-14.750034
 31
0.0
  0
LINE
  5
267
100
AcDbEntity
  8
0
 62
5
100
AcDbLine
 10
168.758142
 20
-4.268414
 30
0.0
 11
168.585001
 21
-5.885575
 31
0.0
  0
LINE
  5
268
100
AcDbEntity
  8
0
 62
5
100
AcDbLine
 10
168.585001
 20
-5.885575
 30
0.0
 11
160.877202
 21
-10.805216
 31
0.0
  0
LINE
  5
269
100
AcDbEntity
  8
0
 62
5
100
AcDbLine
 10
160.877202
 20
-10.805216
 30
0.0
 11
159.337496
 21
-10.281327
 31
0.0
  0
LINE
  5
26a
100
AcDbEntity
  8
0
 62
1
100
AcDbLine
 10
175.163068
 20
-1.084357
 30
0.0
 11
169.168112
 21
-4.910751
 31
0.0
  0
LINE
  5
26b
100
AcDbEntity
  8
0
 62
1
100
AcDbLine
 10
153.752510
 20
-14.750034
 30
0.0
 11
159.747466
 21
-10.923637
 31
0.0
  0
LINE
  5
26c
100
AcDbEntity
  8
0
 62
5
100
AcDbLine
 10
168.782512
 20
23.501003
 30
0.0
 11
172.291801
 21
9.979079
 31
0.0
  0
LINE
  5
26d
100
AcDbEntity
  8
0
 62
5
100
AcDbLine
 10
172.291801
 20
9.979079
 30
0.0
 11
172.783508
 21
10.106688
 31
0.0
  0
LINE
  5
26e
100
AcDbEntity
  8
0
 62
5
100
AcDbLine
 10
172.783508
 20
10.106688
 30
0.0
 11
172.400677
 21
11.581807
 31
0.0
  0
SPLINE
  5
26f
100
AcDbEntity
  8
0
 62
5
100
AcDbSpline
 70
0
 71
3
 72
10
 73
6
 74
4
 40
0.000000
 40
0.000000
 40
0.000000
 40
0.000000
 40
1.569302
 40
2.890628
 40
3.466251
 40
3.466251
 40
3.466251
 40
3.466251
 10
138.744720
 20
-7.004925
 30
0.0
 10
138.721506
 20
-6.476602
 30
0.0
 10
138.678746
 20
-5.503440
 30
0.0
 10
139.106570
 20
-4.403230
 30
0.0
 10
139.412011
 20
-3.850672
 30
0.0
 10
139.504697
 20
-3.683000
 30
0.0
 11
138.744720
 21
-7.004925
 31
0.0
 11
138.792834
 21
-5.436361
 31
0.0
 11
139.233207
 21
-4.190578
 31
0.0
 11
139.504697
 21
-3.683000
 31
0.0
  0
SPLINE
  5
270
100
AcDbEntity
  8
0
 62
5
100
AcDbSpline
 70
0
 71
3
 72
10
 73
6
 74
4
 40
0.000000
 40
0.000000
 40
0.000000
 40
0.000000
 40
0.252425
 40
0.975260
 40
2.183214
 40
2.183214
 40
2.183214
 40
2.183214
 10
172.400677
 20
11.581807
 30
0.0
 10
172.483465
 20
11.566179
 30
0.0
 10
172.803322
 20
11.505797
 30
0.0
 10
173.470218
 20
11.181282
 30
0.0
 10
173.955206
 20
10.755746
 30
0.0
 10
174.258628
 20
10.489520
 30
0.0
 11
172.400677
 21
11.581807
 31
0.0
 11
172.647571
 21
11.529256
 31
0.0
 11
173.307343
 21
11.233973
 31
0.0
 11
174.258628
 21
10.489520
 31
0.0
  0
SPLINE
  5
271
100
AcDbEntity
  8
0
 62
5
100
AcDbSpline
 70
0
 71
3
 72
10
 73
6
 74
4
 40
0.000000
 40
0.000000
 40
0.000000
 40
0.000000
 40
2.353129
 40
4.850964
 40
7.155528
 40
7.155528
 40
7.155528
 40
7.155528
 10
174.258628
 20
10.489520
 30
0.0
 10
174.694370
 20
9.837138
 30
0.0
 10
175.592651
 20
8.492257
 30
0.0
 10
176.800422
 20
6.434194
 30
0.0
 10
177.576008
 20
5.033899
 30
0.0
 10
177.948195
 20
4.361928
 30
0.0
 11
174.258628
 21
10.489520
 31
0.0
 11
175.547149
 21
8.520528
 31
0.0
 11
176.823575
 21
6.373456
 31
0.0
 11
177.948195
 21
4.361928
 31
0.0
  0
LINE
  5
272
100
AcDbEntity
  8
0
 62
5
100
AcDbLine
 10
175.080498
 20
1.255976
 30
0.0
 11
174.697667
 21
2.731095
 31
0.0
  0
LINE
  5
273
100
AcDbEntity
  8
0
 62
5
100
AcDbLine
 10
174.697667
 20
2.731095
 30
0.0
 11
174.205959
 21
2.603483
 31
0.0
  0
LINE
  5
274
100
AcDbEntity
  8
0
 62
5
100
AcDbLine
 10
174.205959
 20
2.603483
 30
0.0
 11
175.163040
 21
-1.084315
 31
0.0
  0
LINE
  5
275
100
AcDbEntity
  8
0
 62
1
100
AcDbLine
 10
172.738438
 20
8.258107
 30
0.0
 11
173.759323
 21
4.324457
 31
0.0
  0
LINE
  5
276
100
AcDbEntity
  8
0
 62
5
100
AcDbLine
 10
188.395328
 20
7.361338
 30
0.0
 11
183.528902
 21
5.444975
 31
0.0
  0
LINE
  5
277
100
AcDbEntity
  8
0
 62
5
100
AcDbLine
 10
183.528902
 20
5.444975
 30
0.0
 11
172.890917
 21
16.501660
 31
0.0
  0
LINE
  5
278
100
AcDbEntity
  8
0
 62
5
100
AcDbLine
 10
172.890917
 20
16.501660
 30
0.0
 11
172.704983
 21
20.273044
 31
0.0
  0
LINE
  5
279
100
AcDbEntity
  8
0
 62
5
100
AcDbLine
 10
172.704983
 20
20.273044
 30
0.0
 11
168.782396
 21
23.500972
 31
0.0
  0
LINE
  5
27a
100
AcDbEntity
  8
0
 62
5
100
AcDbLine
 10
187.310482
 20
9.240898
 30
0.0
 11
185.718983
 21
8.905835
 31
0.0
  0
LINE
  5
27b
100
AcDbEntity
  8
0
 62
5
100
AcDbLine
 10
185.718983
 20
8.905835
 30
0.0
 11
178.658328
 21
14.716105
 31
0.0
  0
LINE
  5
27c
100
AcDbEntity
  8
0
 62
5
100
AcDbLine
 10
178.658328
 20
14.716105
 30
0.0
 11
178.680793
 21
16.342335
 31
0.0
  0
LINE
  5
27d
100
AcDbEntity
  8
0
 62
1
100
AcDbLine
 10
188.395328
 20
7.361338
 30
0.0
 11
186.826294
 21
8.652510
 31
0.0
  0
LINE
  5
27e
100
AcDbEntity
  8
0
 62
1
100
AcDbLine
 10
172.704983
 20
20.273044
 30
0.0
 11
178.196604
 21
15.753949
 31
0.0
  0
LINE
  5
27f
100
AcDbEntity
  8
0
 62
5
100
AcDbLine
 10
209.805857
 20
21.027043
 30
0.0
 11
202.312205
 21
16.244087
 31
0.0
  0
LINE
  5
280
100
AcDbEntity
  8
0
 62
5
100
AcDbLine
 10
202.312205
 20
16.244087
 30
0.0
 11
202.585518
 21
15.815880
 31
0.0
  0
LINE
  5
281
100
AcDbEntity
  8
0
 62
5
100
AcDbLine
 10
202.585518
 20
15.815880
 30
0.0
 11
203.870142
 21
16.635815
 31
0.0
  0
SPLINE
  5
282
100
AcDbEntity
  8
0
 62
5
100
AcDbSpline
 70
0
 71
3
 72
10
 73
6
 74
4
 40
0.000000
 40
0.000000
 40
0.000000
 40
0.000000
 40
1.795912
 40
3.492703
 40
4.254928
 40
4.254928
 40
4.254928
 40
4.254928
 10
177.948195
 20
4.361928
 30
0.0
 10
177.623672
 20
3.855615
 30
0.0
 10
176.992536
 20
2.870935
 30
0.0
 10
175.923294
 20
1.919807
 30
0.0
 10
175.279925
 20
1.413055
 30
0.0
 10
175.080498
 20
1.255976
 30
0.0
 11
177.948195
 21
4.361928
 31
0.0
 11
176.909436
 21
2.896910
 31
0.0
 11
175.676334
 21
1.731337
 31
0.0
 11
175.080498
 21
1.255976
 31
0.0
  0
SPLINE
  5
283
100
AcDbEntity
  8
0
 62
5
100
AcDbSpline
 70
0
 71
3
 72
10
 73
6
 74
4
 40
0.000000
 40
0.000000
 40
0.000000
 40
0.000000
 40
0.575620
 40
1.896946
 40
3.466258
 40
3.466258
 40
3.466258
 40
3.466258
 10
203.870142
 20
16.635815
 30
0.0
 10
203.942006
 20
16.458220
 30
0.0
 10
204.178829
 20
15.872962
 30
0.0
 10
204.471332
 20
14.729308
 30
0.0
 10
204.311927
 20
13.768335
 30
0.0
 10
204.225387
 20
13.246628
 30
0.0
 11
203.870142
 21
16.635815
 31
0.0
 11
204.078665
 21
16.099292
 31
0.0
 11
204.366131
 21
14.809616
 31
0.0
 11
204.225387
 21
13.246628
 31
0.0
  0
SPLINE
  5
284
100
AcDbEntity
  8
0
 62
5
100
AcDbSpline
 70
0
 71
3
 72
10
 73
6
 74
4
 40
0.000000
 40
0.000000
 40
0.000000
 40
0.000000
 40
2.631173
 40
5.396940
 40
8.028113
 40
8.028113
 40
8.028113
 40
8.028113
 10
204.225387
 20
13.246628
 30
0.0
 10
203.779782
 20
12.482481
 30
0.0
 10
202.865779
 20
10.915099
 30
0.0
 10
200.489510
 20
9.398405
 30
0.0
 10
198.682991
 20
9.229364
 30
0.0
 10
197.802257
 20
9.146952
 30
0.0
 11
204.225387
 21
13.246628
 31
0.0
 11
202.726125
 21
11.084387
 31
0.0
 11
200.394767
 21
9.596356
 31
0.0
 11
197.802257
 21
9.146952
 31
0.0
  0
LINE
  5
285
100
AcDbEntity
  8
0
 62
5
100
AcDbLine
 10
194.877761
 20
10.896267
 30
0.0
 11
196.162388
 21
11.716204
 31
0.0
  0
LINE
  5
286
100
AcDbEntity
  8
0
 62
5
100
AcDbLine
 10
196.162388
 20
11.716204
 30
0.0
 11
195.889076
 21
12.144412
 31
0.0
  0
LINE
  5
287
100
AcDbEntity
  8
0
 62
5
100
AcDbLine
 10
195.889076
 20
12.144412
 30
0.0
 11
188.395424
 21
7.361456
 31
0.0
  0
LINE
  5
288
100
AcDbEntity
  8
0
 62
1
100
AcDbLine
 10
200.813475
 20
15.287498
 30
0.0
 11
197.387805
 21
13.101004
 31
0.0
  0
LINE
  5
289
100
AcDbEntity
  8
0
 62
5
100
AcDbLine
 10
203.425352
 20
45.612465
 30
0.0
 11
209.372725
 21
41.907666
 31
0.0
  0
LINE
  5
28a
100
AcDbEntity
  8
0
 62
5
100
AcDbLine
 10
209.372725
 20
41.907666
 30
0.0
 11
213.201078
 21
27.156337
 31
0.0
  0
LINE
  5
28b
100
AcDbEntity
  8
0
 62
5
100
AcDbLine
 10
213.201078
 20
27.156337
 30
0.0
 11
209.805939
 21
21.026916
 31
0.0
  0
LINE
  5
28c
100
AcDbEntity
  8
0
 62
5
100
AcDbLine
 10
204.474349
 20
38.537094
 30
0.0
 11
205.958852
 21
37.872701
 31
0.0
  0
LINE
  5
28d
100
AcDbEntity
  8
0
 62
5
100
AcDbLine
 10
205.958852
 20
37.872701
 30
0.0
 11
208.255862
 21
29.021902
 31
0.0
  0
LINE
  5
28e
100
AcDbEntity
  8
0
 62
5
100
AcDbLine
 10
208.255862
 20
29.021902
 30
0.0
 11
207.281808
 21
27.719452
 31
0.0
  0
LINE
  5
28f
100
AcDbEntity
  8
0
 62
1
100
AcDbLine
 10
203.425352
 20
45.612465
 30
0.0
 11
205.211917
 21
38.728512
 31
0.0
  0
LINE
  5
290
100
AcDbEntity
  8
0
 62
1
100
AcDbLine
 10
209.805939
 20
21.026916
 30
0.0
 11
208.019376
 21
27.910869
 31
0.0
  0
LINE
  5
291
100
AcDbEntity
  8
0
 62
5
100
AcDbLine
 10
178.071458
 20
47.141500
 30
0.0
 11
192.016075
 21
46.300525
 31
0.0
  0
LINE
  5
292
100
AcDbEntity
  8
0
 62
5
100
AcDbLine
 10
192.016075
 20
46.300525
 30
0.0
 11
192.046657
 21
46.807603
 31
0.0
  0
LINE
  5
293
100
AcDbEntity
  8
0
 62
5
100
AcDbLine
 10
192.046657
 20
46.807603
 30
0.0
 11
190.525425
 21
46.899345
 31
0.0
  0
SPLINE
  5
294
100
AcDbEntity
  8
0
 62
5
100
AcDbSpline
 70
0
 71
3
 72
10
 73
6
 74
4
 40
0.000000
 40
0.000000
 40
0.000000
 40
0.000000
 40
1.569311
 40
2.890637
 40
3.466257
 40
3.466257
 40
3.466257
 40
3.466257
 10
197.802257
 20
9.146952
 30
0.0
 10
197.292616
 20
9.288136
 30
0.0
 10
196.353868
 20
9.548193
 30
0.0
 10
195.439709
 20
10.295063
 30
0.0
 10
195.008584
 20
10.756305
 30
0.0
 10
194.877761
 20
10.896267
 30
0.0
 11
197.802257
 21
9.146952
 31
0.0
 11
196.325323
 21
9.677428
 31
0.0
 11
195.276598
 21
10.481216
 31
0.0
 11
194.877761
 21
10.896267
 31
0.0
  0
SPLINE
  5
295
100
AcDbEntity
  8
0
 62
5
100
AcDbSpline
 70
0
 71
3
 72
10
 73
6
 74
4
 40
0.000000
 40
0.000000
 40
0.000000
 40
0.000000
 40
0.252426
 40
0.975264
 40
2.183224
 40
2.183224
 40
2.183224
 40
2.183224
 10
190.525425
 20
46.899345
 30
0.0
 10
190.565872
 20
46.973252
 30
0.0
 10
190.722141
 20
47.258796
 30
0.0
 10
191.236859
 20
47.792772
 30
0.0
 10
191.791439
 20
48.122527
 30
0.0
 10
192.138399
 20
48.328831
 30
0.0
 11
190.525425
 21
46.899345
 31
0.0
 11
190.651701
 21
47.117916
 31
0.0
 11
191.136414
 21
47.654151
 31
0.0
 11
192.138399
 21
48.328831
 31
0.0
  0
SPLINE
  5
296
100
AcDbEntity
  8
0
 62
5
100
AcDbSpline
 70
0
 71
3
 72
10
 73
6
 74
4
 40
0.000000
 40
0.000000
 40
0.000000
 40
0.000000
 40
2.353143
 40
4.850992
 40
7.155568
 40
7.155568
 40
7.155568
 40
7.155568
 10
192.138399
 20
48.328831
 30
0.0
 10
192.893507
 20
48.541652
 30
0.0
 10
194.450158
 20
48.980380
 30
0.0
 10
196.780726
 20
49.493065
 30
0.0
 10
198.352164
 20
49.797978
 30
0.0
 10
199.106262
 20
49.944299
 30
0.0
 11
192.138399
 21
48.328831
 31
0.0
 11
194.409210
 21
48.945841
 31
0.0
 11
196.845647
 21
49.496316
 31
0.0
 11
199.106262
 21
49.944299
 31
0.0
  0
LINE
  5
297
100
AcDbEntity
  8
0
 62
5
100
AcDbLine
 10
201.174042
 20
46.257145
 30
0.0
 11
199.652811
 21
46.348887
 31
0.0
  0
LINE
  5
298
100
AcDbEntity
  8
0
 62
5
100
AcDbLine
 10
199.652811
 20
46.348887
 30
0.0
 11
199.622232
 21
45.841810
 31
0.0
  0
LINE
  5
299
100
AcDbEntity
  8
0
 62
5
100
AcDbLine
 10
199.622232
 20
45.841810
 30
0.0
 11
203.425309
 21
45.612454
 31
0.0
  0
LINE
  5
29a
100
AcDbEntity
  8
0
 62
1
100
AcDbLine
 10
193.790847
 20
46.193490
 30
0.0
 11
197.847461
 21
45.948843
 31
0.0
  0
LINE
  5
29b
100
AcDbEntity
  8
0
 62
5
100
AcDbLine
 10
199.481928
 20
60.807109
 30
0.0
 11
199.800693
 21
55.586664
 31
0.0
  0
LINE
  5
29c
100
AcDbEntity
  8
0
 62
5
100
AcDbLine
 10
199.800693
 20
55.586664
 30
0.0
 11
185.997816
 21
48.886031
 31
0.0
  0
LINE
  5
29d
100
AcDbEntity
  8
0
 62
5
100
AcDbLine
 10
185.997816
 20
48.886031
 30
0.0
 11
182.353551
 21
49.874622
 31
0.0
  0
LINE
  5
29e
100
AcDbEntity
  8
0
 62
5
100
AcDbLine
 10
182.353551
 20
49.874622
 30
0.0
 11
178.071458
 21
47.141500
 31
0.0
  0
LINE
  5
29f
100
AcDbEntity
  8
0
 62
5
100
AcDbLine
 10
197.359123
 20
60.356174
 30
0.0
 11
197.185986
 21
58.739027
 31
0.0
  0
LINE
  5
2a0
100
AcDbEntity
  8
0
 62
5
100
AcDbLine
 10
197.185986
 20
58.739027
 30
0.0
 11
189.478214
 21
53.819408
 31
0.0
  0
LINE
  5
2a1
100
AcDbEntity
  8
0
 62
5
100
AcDbLine
 10
189.478214
 20
53.819408
 30
0.0
 11
187.938514
 21
54.343306
 31
0.0
  0
LINE
  5
2a2
100
AcDbEntity
  8
0
 62
1
100
AcDbLine
 10
199.481928
 20
60.807109
 30
0.0
 11
197.769091
 21
59.713862
 31
0.0
  0
LINE
  5
2a3
100
AcDbEntity
  8
0
 62
1
100
AcDbLine
 10
182.353551
 20
49.874622
 30
0.0
 11
188.348485
 21
53.700993
 31
0.0
  0
LINE
  5
2a4
100
AcDbEntity
  8
0
 62
5
100
AcDbLine
 10
193.101406
 20
85.392514
 30
0.0
 11
195.334605
 21
76.787595
 31
0.0
  0
LINE
  5
2a5
100
AcDbEntity
  8
0
 62
5
100
AcDbLine
 10
195.334605
 20
76.787595
 30
0.0
 11
195.826315
 21
76.915208
 31
0.0
  0
LINE
  5
2a6
100
AcDbEntity
  8
0
 62
5
100
AcDbLine
 10
195.826315
 20
76.915208
 30
0.0
 11
195.443481
 21
78.390335
 31
0.0
  0
SPLINE
  5
2a7
100
AcDbEntity
  8
0
 62
5
100
AcDbSpline
 70
0
 71
3
 72
10
 73
6
 74
4
 40
0.000000
 40
0.000000
 40
0.000000
 40
0.000000
 40
1.795923
 40
3.492723
 40
4.254952
 40
4.254952
 40
4.254952
 40
4.254952
 10
199.106262
 20
49.944299
 30
0.0
 10
199.487513
 20
49.479197
 30
0.0
 10
200.228972
 20
48.574663
 30
0.0
 10
200.803138
 20
47.263832
 30
0.0
 10
201.086277
 20
46.495352
 30
0.0
 10
201.174042
 20
46.257145
 30
0.0
 11
199.106262
 21
49.944299
 31
0.0
 11
200.178589
 21
48.503656
 31
0.0
 11
200.906069
 21
46.970717
 31
0.0
 11
201.174042
 21
46.257145
 31
0.0
  0
SPLINE
  5
2a8
100
AcDbEntity
  8
0
 62
5
100
AcDbSpline
 70
0
 71
3
 72
10
 73
6
 74
4
 40
0.000000
 40
0.000000
 40
0.000000
 40
0.000000
 40
0.575622
 40
1.896950
 40
3.466265
 40
3.466265
 40
3.466265
 40
3.466265
 10
195.443481
 20
78.390335
 30
0.0
 10
195.634590
 20
78.403801
 30
0.0
 10
196.264389
 20
78.448179
 30
0.0
 10
197.442459
 20
78.372957
 30
0.0
 10
198.307141
 20
77.924397
 30
0.0
 10
198.776573
 20
77.680876
 30
0.0
 11
195.443481
 21
78.390335
 31
0.0
 11
196.018183
 21
78.422857
 31
0.0
 11
197.333573
 21
78.297722
 31
0.0
 11
198.776573
 21
77.680876
 31
0.0
  0
SPLINE
  5
2a9
100
AcDbEntity
  8
0
 62
5
100
AcDbSpline
 70
0
 71
3
 72
10
 73
6
 74
4
 40
0.000000
 40
0.000000
 40
0.000000
 40
0.000000
 40
2.631178
 40
5.396950
 40
8.028127
 40
8.028127
 40
8.028127
 40
8.028127
 10
198.776573
 20
77.680876
 30
0.0
 10
199.365621
 20
77.020945
 30
0.0
 10
200.573848
 20
75.667325
 30
0.0
 10
201.282004
 20
72.938670
 30
0.0
 10
200.884526
 20
71.168329
 30
0.0
 10
200.690742
 20
70.305233
 30
0.0
 11
198.776573
 21
77.680876
 31
0.0
 11
200.369691
 21
75.586819
 31
0.0
 11
201.064463
 21
72.909734
 31
0.0
 11
200.690742
 21
70.305233
 31
0.0
  0
LINE
  5
2aa
100
AcDbEntity
  8
0
 62
5
100
AcDbLine
 10
198.123322
 20
68.064434
 30
0.0
 11
197.740487
 21
69.539564
 31
0.0
  0
LINE
  5
2ab
100
AcDbEntity
  8
0
 62
5
100
AcDbLine
 10
197.740487
 20
69.539564
 30
0.0
 11
197.248777
 21
69.411952
 31
0.0
  0
LINE
  5
2ac
100
AcDbEntity
  8
0
 62
5
100
AcDbLine
 10
197.248777
 20
69.411952
 30
0.0
 11
199.481976
 21
60.807033
 31
0.0
  0
LINE
  5
2ad
100
AcDbEntity
  8
0
 62
1
100
AcDbLine
 10
195.781244
 20
75.066612
 30
0.0
 11
196.802138
 21
71.132934
 31
0.0
  0
LINE
  5
2ae
100
AcDbEntity
  8
0
 62
5
100
AcDbLine
 10
167.747487
 20
86.921543
 30
0.0
 11
173.108775
 21
91.432967
 31
0.0
  0
LINE
  5
2af
100
AcDbEntity
  8
0
 62
5
100
AcDbLine
 10
173.108775
 20
91.432967
 30
0.0
 11
188.321086
 21
90.515539
 31
0.0
  0
LINE
  5
2b0
100
AcDbEntity
  8
0
 62
5
100
AcDbLine
 10
188.321086
 20
90.515539
 30
0.0
 11
193.101338
 21
85.392497
 31
0.0
  0
LINE
  5
2b1
100
AcDbEntity
  8
0
 62
5
100
AcDbLine
 10
174.800695
 20
85.732795
 30
0.0
 11
175.891300
 21
86.939326
 31
0.0
  0
LINE
  5
2b2
100
AcDbEntity
  8
0
 62
5
100
AcDbLine
 10
175.891300
 20
86.939326
 30
0.0
 11
185.018686
 21
86.388869
 31
0.0
  0
LINE
  5
2b3
100
AcDbEntity
  8
0
 62
5
100
AcDbLine
 10
185.018686
 20
86.388869
 30
0.0
 11
185.956389
 21
85.060014
 31
0.0
  0
LINE
  5
2b4
100
AcDbEntity
  8
0
 62
1
100
AcDbLine
 10
167.747487
 20
86.921543
 30
0.0
 11
174.846564
 21
86.493409
 31
0.0
  0
LINE
  5
2b5
100
AcDbEntity
  8
0
 62
1
100
AcDbLine
 10
193.101338
 20
85.392497
 30
0.0
 11
186.002258
 21
85.820631
 31
0.0
  0
LINE
  5
2b6
100
AcDbEntity
  8
0
 62
5
100
AcDbLine
 10
158.458495
 20
63.281066
 30
0.0
 11
163.567443
 21
76.283329
 31
0.0
  0
LINE
  5
2b7
100
AcDbEntity
  8
0
 62
5
100
AcDbLine
 10
163.567443
 20
76.283329
 30
0.0
 11
163.094633
 21
76.469107
 31
0.0
  0
LINE
  5
2b8
100
AcDbEntity
  8
0
 62
5
100
AcDbLine
 10
163.094633
 20
76.469107
 30
0.0
 11
162.537292
 21
75.050678
 31
0.0
  0
SPLINE
  5
2b9
100
AcDbEntity
  8
0
 62
5
100
AcDbSpline
 70
0
 71
3
 72
10
 73
6
 74
4
 40
0.000000
 40
0.000000
 40
0.000000
 40
0.000000
 40
1.569315
 40
2.890643
 40
3.466264
 40
3.466264
 40
3.466264
 40
3.466264
 10
200.690742
 20
70.305233
 30
0.0
 10
200.398980
 20
69.864162
 30
0.0
 10
199.861561
 20
69.051720
 30
0.0
 10
198.868754
 20
68.413097
 30
0.0
 10
198.296860
 20
68.145603
 30
0.0
 10
198.123322
 20
68.064434
 30
0.0
 11
200.690742
 21
70.305233
 31
0.0
 11
199.729830
 21
69.064508
 31
0.0
 11
198.641307
 21
68.315493
 31
0.0
 11
198.123322
 21
68.064434
 31
0.0
  0
SPLINE
  5
2ba
100
AcDbEntity
  8
0
 62
5
100
AcDbSpline
 70
0
 71
3
 72
10
 73
6
 74
4
 40
0.000000
 40
0.000000
 40
0.000000
 40
0.000000
 40
0.252427
 40
0.975268
 40
2.183230
 40
2.183230
 40
2.183230
 40
2.183230
 10
162.537292
 20
75.050678
 30
0.0
 10
162.479501
 20
75.111984
 30
0.0
 10
162.256221
 20
75.348844
 30
0.0
 10
161.907435
 20
76.003379
 30
0.0
 10
161.765194
 20
76.632717
 30
0.0
 10
161.676204
 20
77.026448
 30
0.0
 11
162.537292
 21
75.050678
 31
0.0
 11
162.368439
 21
75.238316
 31
0.0
 11
162.008233
 21
75.865014
 31
0.0
 11
161.676204
 21
77.026448
 31
0.0
  0
SPLINE
  5
2bb
100
AcDbEntity
  8
0
 62
5
100
AcDbSpline
 70
0
 71
3
 72
10
 73
6
 74
4
 40
0.000000
 40
0.000000
 40
0.000000
 40
0.000000
 40
2.353145
 40
4.850996
 40
7.155575
 40
7.155575
 40
7.155575
 40
7.155575
 10
161.676204
 20
77.026448
 30
0.0
 10
161.707141
 20
77.810364
 30
0.0
 10
161.770917
 20
79.426403
 30
0.0
 10
162.003510
 20
81.801337
 30
0.0
 10
162.199122
 20
83.390088
 30
0.0
 10
162.292992
 20
84.152494
 30
0.0
 11
161.676204
 21
77.026448
 31
0.0
 11
161.791112
 21
79.376786
 31
0.0
 11
162.020481
 21
81.864084
 31
0.0
 11
162.292992
 21
84.152494
 31
0.0
  0
LINE
  5
2bc
100
AcDbEntity
  8
0
 62
5
100
AcDbLine
 10
166.438670
 20
84.979679
 30
0.0
 11
165.881329
 21
83.561250
 31
0.0
  0
LINE
  5
2bd
100
AcDbEntity
  8
0
 62
5
100
AcDbLine
 10
165.881329
 20
83.561250
 30
0.0
 11
166.354139
 21
83.375472
 31
0.0
  0
LINE
  5
2be
100
AcDbEntity
  8
0
 62
5
100
AcDbLine
 10
166.354139
 20
83.375472
 30
0.0
 11
167.747490
 21
86.921543
 31
0.0
  0
LINE
  5
2bf
100
AcDbEntity
  8
0
 62
1
100
AcDbLine
 10
164.217672
 20
77.938162
 30
0.0
 11
165.703910
 21
81.720639
 31
0.0
  0
LINE
  5
2c0
100
AcDbEntity
  8
0
 62
5
100
AcDbLine
 10
152.077883
 20
87.866497
 30
0.0
 11
157.141311
 21
86.556455
 31
0.0
  0
LINE
  5
2c1
100
AcDbEntity
  8
0
 62
5
100
AcDbLine
 10
157.141311
 20
86.556455
 30
0.0
 11
159.248664
 21
71.358574
 31
0.0
  0
LINE
  5
2c2
100
AcDbEntity
  8
0
 62
5
100
AcDbLine
 10
159.248664
 20
71.358574
 30
0.0
 11
157.182323
 21
68.198173
 31
0.0
  0
LINE
  5
2c3
100
AcDbEntity
  8
0
 62
5
100
AcDbLine
 10
157.182323
 20
68.198173
 30
0.0
 11
158.458433
 21
63.281092
 31
0.0
  0
LINE
  5
2c4
100
AcDbEntity
  8
0
 62
5
100
AcDbLine
 10
151.850765
 20
85.708247
 30
0.0
 11
153.335256
 21
85.043859
 31
0.0
  0
LINE
  5
2c5
100
AcDbEntity
  8
0
 62
5
100
AcDbLine
 10
153.335256
 20
85.043859
 30
0.0
 11
155.632254
 21
76.193114
 31
0.0
  0
LINE
  5
2c6
100
AcDbEntity
  8
0
 62
5
100
AcDbLine
 10
155.632254
 20
76.193114
 30
0.0
 11
154.658207
 21
74.890670
 31
0.0
  0
LINE
  5
2c7
100
AcDbEntity
  8
0
 62
1
100
AcDbLine
 10
152.077883
 20
87.866497
 30
0.0
 11
152.588327
 21
85.899665
 31
0.0
  0
LINE
  5
2c8
100
AcDbEntity
  8
0
 62
1
100
AcDbLine
 10
157.182323
 20
68.198173
 30
0.0
 11
155.395769
 21
75.082087
 31
0.0
  0
LINE
  5
2c9
100
AcDbEntity
  8
0
 62
5
100
AcDbLine
 10
126.724198
 20
89.395585
 30
0.0
 11
135.598047
 21
88.860418
 31
0.0
  0
LINE
  5
2ca
100
AcDbEntity
  8
0
 62
5
100
AcDbLine
 10
135.598047
 20
88.860418
 30
0.0
 11
135.628628
 21
89.367495
 31
0.0
  0
LINE
  5
2cb
100
AcDbEntity
  8
0
 62
5
100
AcDbLine
 10
135.628628
 20
89.367495
 30
0.0
 11
134.107397
 21
89.459237
 31
0.0
  0
SPLINE
  5
2cc
100
AcDbEntity
  8
0
 62
5
100
AcDbSpline
 70
0
 71
3
 72
10
 73
6
 74
4
 40
0.000000
 40
0.000000
 40
0.000000
 40
0.000000
 40
1.795926
 40
3.492729
 40
4.254960
 40
4.254960
 40
4.254960
 40
4.254960
 10
162.292992
 20
84.152494
 30
0.0
 10
162.853145
 20
84.371362
 30
0.0
 10
163.942532
 20
84.797016
 30
0.0
 10
165.366637
 20
84.938012
 30
0.0
 10
166.185001
 20
84.969820
 30
0.0
 10
166.438670
 20
84.979679
 30
0.0
 11
162.292992
 21
84.152494
 31
0.0
 11
163.994495
 21
84.727157
 31
0.0
 11
165.677214
 21
84.945328
 31
0.0
 11
166.438670
 21
84.979679
 31
0.0
  0
SPLINE
  5
2cd
100
AcDbEntity
  8
0
 62
5
100
AcDbSpline
 70
0
 71
3
 72
10
 73
6
 74
4
 40
0.000000
 40
0.000000
 40
0.000000
 40
0.000000
 40
0.575621
 40
1.896947
 40
3.466260
 40
3.466260
 40
3.466260
 40
3.466260
 10
134.107397
 20
89.459237
 30
0.0
 10
134.153646
 20
89.645155
 30
0.0
 10
134.306058
 20
90.257841
 30
0.0
 10
134.741642
 20
91.355006
 30
0.0
 10
135.435448
 20
92.038755
 30
0.0
 10
135.812112
 20
92.409958
 30
0.0
 11
134.107397
 21
89.459237
 31
0.0
 11
134.254059
 21
90.015861
 31
0.0
 11
134.779547
 21
91.228200
 31
0.0
 11
135.812112
 21
92.409958
 31
0.0
  0
SPLINE
  5
2ce
100
AcDbEntity
  8
0
 62
5
100
AcDbSpline
 70
0
 71
3
 72
10
 73
6
 74
4
 40
0.000000
 40
0.000000
 40
0.000000
 40
0.000000
 40
2.631174
 40
5.396943
 40
8.028116
 40
8.028116
 40
8.028116
 40
8.028116
 10
135.812112
 20
92.409958
 30
0.0
 10
136.621769
 20
92.766246
 30
0.0
 10
138.282498
 20
93.497046
 30
0.0
 10
141.096431
 20
93.327342
 30
0.0
 10
142.657297
 20
92.402254
 30
0.0
 10
143.418266
 20
91.951246
 30
0.0
 11
135.812112
 21
92.409958
 31
0.0
 11
138.295975
 21
93.278003
 31
0.0
 11
141.056728
 21
93.111507
 31
0.0
 11
143.418266
 21
91.951246
 31
0.0
  0
LINE
  5
2cf
100
AcDbEntity
  8
0
 62
5
100
AcDbLine
 10
144.756014
 20
88.817038
 30
0.0
 11
143.234783
 21
88.908783
 31
0.0
  0
LINE
  5
2d0
100
AcDbEntity
  8
0
 62
5
100
AcDbLine
 10
143.234783
 20
88.908783
 30
0.0
 11
143.204201
 21
88.401706
 31
0.0
  0
LINE
  5
2d1
100
AcDbEntity
  8
0
 62
5
100
AcDbLine
 10
143.204201
 20
88.401706
 30
0.0
 11
152.078049
 21
87.866539
 31
0.0
  0
LINE
  5
2d2
100
AcDbEntity
  8
0
 62
1
100
AcDbLine
 10
137.372815
 20
88.753386
 30
0.0
 11
141.429432
 21
88.508738
 31
0.0
  0
LINE
  5
2d3
100
AcDbEntity
  8
0
 62
5
100
AcDbLine
 10
117.435204
 20
65.755108
 30
0.0
 11
114.801311
 21
72.248113
 31
0.0
  0
LINE
  5
2d4
100
AcDbEntity
  8
0
 62
5
100
AcDbLine
 10
114.801311
 20
72.248113
 30
0.0
 11
120.374709
 21
86.432398
 31
0.0
  0
LINE
  5
2d5
100
AcDbEntity
  8
0
 62
5
100
AcDbLine
 10
120.374709
 20
86.432398
 30
0.0
 11
126.724196
 21
89.395585
 31
0.0
  0
LINE
  5
2d6
100
AcDbEntity
  8
0
 62
5
100
AcDbLine
 10
120.745337
 20
72.095772
 30
0.0
 11
119.934871
 21
73.505839
 31
0.0
  0
LINE
  5
2d7
100
AcDbEntity
  8
0
 62
5
100
AcDbLine
 10
119.934871
 20
73.505839
 30
0.0
 11
123.278908
 21
82.016411
 31
0.0
  0
LINE
  5
2d8
100
AcDbEntity
  8
0
 62
5
100
AcDbLine
 10
123.278908
 20
82.016411
 30
0.0
 11
124.832494
 21
82.497580
 31
0.0
  0
LINE
  5
2d9
100
AcDbEntity
  8
0
 62
1
100
AcDbLine
 10
117.435204
 20
65.755108
 30
0.0
 11
120.036122
 21
72.374441
 31
0.0
  0
LINE
  5
2da
100
AcDbEntity
  8
0
 62
1
100
AcDbLine
 10
126.724196
 20
89.395585
 30
0.0
 11
124.123278
 21
82.776252
 31
0.0
  0
LINE
  5
2db
100
AcDbEntity
  8
0
 62
5
100
AcDbLine
 10
137.048107
 20
49.615474
 30
0.0
 11
126.260976
 21
58.492288
 31
0.0
  0
LINE
  5
2dc
100
AcDbEntity
  8
0
 62
5
100
AcDbLine
 10
126.260976
 20
58.492288
 30
0.0
 11
125.938181
 21
58.100028
 31
0.0
  0
LINE
  5
2dd
100
AcDbEntity
  8
0
 62
5
100
AcDbLine
 10
125.938181
 20
58.100028
 30
0.0
 11
127.114960
 21
57.131650
 31
0.0
  0
SPLINE
  5
2de
100
AcDbEntity
  8
0
 62
5
100
AcDbSpline
 70
0
 71
3
 72
10
 73
6
 74
4
 40
0.000000
 40
0.000000
 40
0.000000
 40
0.000000
 40
1.569314
 40
2.890642
 40
3.466263
 40
3.466263
 40
3.466263
 40
3.466263
 10
143.418266
 20
91.951246
 30
0.0
 10
143.747590
 20
91.537465
 30
0.0
 10
144.354196
 20
90.775290
 30
0.0
 10
144.654767
 20
89.633729
 30
0.0
 10
144.732443
 20
89.007166
 30
0.0
 10
144.756014
 20
88.817038
 30
0.0
 11
143.418266
 21
91.951246
 31
0.0
 11
144.301326
 21
90.653958
 31
0.0
 11
144.677309
 21
89.387253
 31
0.0
 11
144.756014
 21
88.817038
 31
0.0
  0
SPLINE
  5
2df
100
AcDbEntity
  8
0
 62
5
100
AcDbSpline
 70
0
 71
3
 72
10
 73
6
 74
4
 40
0.000000
 40
0.000000
 40
0.000000
 40
0.000000
 40
0.252427
 40
0.975267
 40
2.183227
 40
2.183227
 40
2.183227
 40
2.183227
 10
127.114960
 20
57.131650
 30
0.0
 10
127.038797
 20
57.095632
 30
0.0
 10
126.744533
 20
56.956473
 30
0.0
 10
126.014253
 20
56.827019
 30
0.0
 10
125.371763
 20
56.886216
 30
0.0
 10
124.969803
 20
56.923251
 30
0.0
 11
127.114960
 21
57.131650
 31
0.0
 11
126.884328
 21
57.029044
 31
0.0
 11
126.176994
 21
56.880127
 31
0.0
 11
124.969803
 21
56.923251
 31
0.0
  0
SPLINE
  5
2e0
100
AcDbEntity
  8
0
 62
5
100
AcDbSpline
 70
0
 71
3
 72
10
 73
6
 74
4
 40
0.000000
 40
0.000000
 40
0.000000
 40
0.000000
 40
2.353146
 40
4.850997
 40
7.155576
 40
7.155576
 40
7.155576
 40
7.155576
 10
124.969803
 20
56.923251
 30
0.0
 10
124.233815
 20
57.194918
 30
0.0
 10
122.716578
 20
57.754957
 30
0.0
 10
120.529757
 20
58.710061
 30
0.0
 10
119.079213
 20
59.387051
 30
0.0
 10
118.383129
 20
59.711923
 30
0.0
 11
124.969803
 21
56.923251
 31
0.0
 11
122.770007
 21
57.758830
 31
0.0
 11
120.475325
 21
58.745591
 31
0.0
 11
118.383129
 21
59.711923
 31
0.0
  0
LINE
  5
2e1
100
AcDbEntity
  8
0
 62
5
100
AcDbLine
 10
118.877515
 20
63.910306
 30
0.0
 11
120.054291
 21
62.941928
 31
0.0
  0
LINE
  5
2e2
100
AcDbEntity
  8
0
 62
5
100
AcDbLine
 10
120.054291
 20
62.941928
 30
0.0
 11
120.377085
 21
63.334186
 31
0.0
  0
LINE
  5
2e3
100
AcDbEntity
  8
0
 62
5
100
AcDbLine
 10
120.377085
 20
63.334186
 30
0.0
 11
117.435139
 21
65.755136
 31
0.0
  0
LINE
  5
2e4
100
AcDbEntity
  8
0
 62
1
100
AcDbLine
 10
124.888069
 20
59.622063
 30
0.0
 11
121.749992
 21
62.204411
 31
0.0
  0
LINE
  5
2e5
100
AcDbEntity
  8
0
 62
5
100
AcDbLine
 10
111.694316
 20
51.144588
 30
0.0
 11
114.504930
 21
55.555377
 31
0.0
  0
LINE
  5
2e6
100
AcDbEntity
  8
0
 62
5
100
AcDbLine
 10
114.504930
 20
55.555377
 30
0.0
 11
129.610206
 21
52.863180
 31
0.0
  0
LINE
  5
2e7
100
AcDbEntity
  8
0
 62
5
100
AcDbLine
 10
129.610206
 20
52.863180
 30
0.0
 11
131.977395
 21
49.921352
 31
0.0
  0
LINE
  5
2e8
100
AcDbEntity
  8
0
 62
5
100
AcDbLine
 10
131.977395
 20
49.921352
 30
0.0
 11
137.048167
 21
49.615542
 31
0.0
  0
LINE
  5
2e9
100
AcDbEntity
  8
0
 62
5
100
AcDbLine
 10
113.676752
 20
50.261650
 30
0.0
 11
114.767360
 21
51.468178
 31
0.0
  0
LINE
  5
2ea
100
AcDbEntity
  8
0
 62
5
100
AcDbLine
 10
114.767360
 20
51.468178
 30
0.0
 11
123.894746
 21
50.917723
 31
0.0
  0
LINE
  5
2eb
100
AcDbEntity
  8
0
 62
5
100
AcDbLine
 10
123.894746
 20
50.917723
 30
0.0
 11
124.832446
 21
49.588869
 31
0.0
  0
LINE
  5
2ec
100
AcDbEntity
  8
0
 62
1
100
AcDbLine
 10
111.694316
 20
51.144588
 30
0.0
 11
113.722624
 21
51.022264
 31
0.0
  0
LINE
  5
2ed
100
AcDbEntity
  8
0
 62
1
100
AcDbLine
 10
131.977395
 20
49.921352
 30
0.0
 11
124.878318
 21
50.349483
 31
0.0
  0
LINE
  5
2ee
100
AcDbEntity
  8
0
 62
5
100
AcDbLine
 10
111.694316
 20
51.144588
 30
0.0
 11
104.829777
 21
56.793469
 31
0.0
  0
LINE
  5
2ef
100
AcDbEntity
  8
0
 62
5
100
AcDbLine
 10
104.829777
 20
56.793469
 30
0.0
 11
105.152571
 21
57.185729
 31
0.0
  0
LINE
  5
2f0
100
AcDbEntity
  8
0
 62
5
100
AcDbLine
 10
105.152571
 20
57.185729
 30
0.0
 11
106.329347
 21
56.217349
 31
0.0
  0
SPLINE
  5
2f1
100
AcDbEntity
  8
0
 62
5
100
AcDbSpline
 70
0
 71
3
 72
10
 73
6
 74
4
 40
0.000000
 40
0.000000
 40
0.000000
 40
0.000000
 40
1.795924
 40
3.492724
 40
4.254954
 40
4.254954
 40
4.254954
 40
4.254954
 10
118.383129
 20
59.711923
 30
0.0
 10
118.348071
 20
60.312292
 30
0.0
 10
118.279889
 20
61.479895
 30
0.0
 10
118.585866
 20
62.877867
 30
0.0
 10
118.808503
 20
63.666005
 30
0.0
 10
118.877515
 20
63.910306
 30
0.0
 11
118.383129
 21
59.711923
 31
0.0
 11
118.362386
 21
61.507727
 31
0.0
 11
118.674882
 21
63.175503
 31
0.0
 11
118.877515
 21
63.910306
 31
0.0
  0
SPLINE
  5
2f2
100
AcDbEntity
  8
0
 62
5
100
AcDbSpline
 70
0
 71
3
 72
10
 73
6
 74
4
 40
0.000000
 40
0.000000
 40
0.000000
 40
0.000000
 40
0.575622
 40
1.896950
 40
3.466264
 40
3.466264
 40
3.466264
 40
3.466264
 10
106.329347
 20
56.217349
 30
0.0
 10
106.422033
 20
56.385020
 30
0.0
 10
106.727477
 20
56.937577
 30
0.0
 10
107.155304
 20
58.037791
 30
0.0
 10
107.112544
 20
59.010958
 30
0.0
 10
107.089329
 20
59.539285
 30
0.0
 11
106.329347
 21
56.217349
 31
0.0
 11
106.600838
 21
56.724924
 31
0.0
 11
107.041214
 21
57.970708
 31
0.0
 11
107.089329
 21
59.539285
 31
0.0
  0
SPLINE
  5
2f3
100
AcDbEntity
  8
0
 62
5
100
AcDbSpline
 70
0
 71
3
 72
10
 73
6
 74
4
 40
0.000000
 40
0.000000
 40
0.000000
 40
0.000000
 40
2.631177
 40
5.396949
 40
8.028127
 40
8.028127
 40
8.028127
 40
8.028127
 10
107.089329
 20
59.539285
 30
0.0
 10
106.738788
 20
60.351447
 30
0.0
 10
106.019775
 20
62.017316
 30
0.0
 10
103.843001
 20
63.808599
 30
0.0
 10
102.069887
 20
64.193521
 30
0.0
 10
101.205439
 20
64.381182
 30
0.0
 11
107.089329
 21
59.539285
 31
0.0
 11
105.860789
 21
61.866038
 31
0.0
 11
103.725154
 21
63.623468
 31
0.0
 11
101.205439
 21
64.381182
 31
0.0
  0
LINE
  5
2f4
100
AcDbEntity
  8
0
 62
5
100
AcDbLine
 10
98.091902
 20
62.996008
 30
0.0
 11
99.268681
 21
62.027627
 31
0.0
  0
LINE
  5
2f5
100
AcDbEntity
  8
0
 62
5
100
AcDbLine
 10
99.268681
 20
62.027627
 30
0.0
 11
98.945886
 21
61.635369
 31
0.0
  0
LINE
  5
2f6
100
AcDbEntity
  8
0
 62
5
100
AcDbLine
 10
98.945886
 20
61.635369
 30
0.0
 11
92.081350
 21
67.284250
 31
0.0
  0
LINE
  5
2f7
100
AcDbEntity
  8
0
 62
1
100
AcDbLine
 10
103.456870
 20
57.923247
 30
0.0
 11
100.318796
 21
60.505591
 31
0.0
  0
LINE
  5
2f8
100
AcDbEntity
  8
0
 62
5
100
AcDbLine
 10
92.081291
 20
67.284179
 30
0.0
 11
87.480434
 21
69.771503
 31
0.0
  0
LINE
  5
2f9
100
AcDbEntity
  8
0
 62
5
100
AcDbLine
 10
87.480434
 20
69.771503
 30
0.0
 11
75.590744
 21
60.073405
 31
0.0
  0
LINE
  5
2fa
100
AcDbEntity
  8
0
 62
5
100
AcDbLine
 10
75.590744
 20
60.073405
 30
0.0
 11
74.952914
 21
56.351692
 31
0.0
  0
LINE
  5
2fb
100
AcDbEntity
  8
0
 62
5
100
AcDbLine
 10
74.952914
 20
56.351692
 30
0.0
 11
70.670821
 21
53.618570
 31
0.0
  0
LINE
  5
2fc
100
AcDbEntity
  8
0
 62
5
100
AcDbLine
 10
90.778423
 20
65.548617
 30
0.0
 11
89.238723
 21
66.072518
 31
0.0
  0
LINE
  5
2fd
100
AcDbEntity
  8
0
 62
5
100
AcDbLine
 10
89.238723
 20
66.072518
 30
0.0
 11
81.530952
 21
61.152896
 31
0.0
  0
LINE
  5
2fe
100
AcDbEntity
  8
0
 62
5
100
AcDbLine
 10
81.530952
 20
61.152896
 30
0.0
 11
81.357814
 21
59.535749
 31
0.0
  0
LINE
  5
2ff
100
AcDbEntity
  8
0
 62
1
100
AcDbLine
 10
92.081291
 20
67.284179
 30
0.0
 11
90.368453
 21
66.190932
 31
0.0
  0
LINE
  5
300
100
AcDbEntity
  8
0
 62
1
100
AcDbLine
 10
74.952914
 20
56.351692
 30
0.0
 11
80.947847
 21
60.178064
 31
0.0
  0
LINE
  5
301
100
AcDbEntity
  8
0
 62
5
100
AcDbLine
 10
70.670770
 20
53.618646
 30
0.0
 11
75.779706
 21
66.620884
 31
0.0
  0
LINE
  5
302
100
AcDbEntity
  8
0
 62
5
100
AcDbLine
 10
75.779706
 20
66.620884
 30
0.0
 11
76.252516
 21
66.435105
 31
0.0
  0
LINE
  5
303
100
AcDbEntity
  8
0
 62
5
100
AcDbLine
 10
76.252516
 20
66.435105
 30
0.0
 11
75.695178
 21
65.016679
 31
0.0
  0
SPLINE
  5
304
100
AcDbEntity
  8
0
 62
5
100
AcDbSpline
 70
0
 71
3
 72
10
 73
6
 74
4
 40
0.000000
 40
0.000000
 40
0.000000
 40
0.000000
 40
1.569315
 40
2.890642
 40
3.466263
 40
3.466263
 40
3.466263
 40
3.466263
 10
101.205439
 20
64.381182
 30
0.0
 10
100.682523
 20
64.302270
 30
0.0
 10
99.719323
 20
64.156916
 30
0.0
 10
98.722030
 20
63.525321
 30
0.0
 10
98.238597
 20
63.119233
 30
0.0
 10
98.091902
 20
62.996008
 30
0.0
 11
101.205439
 21
64.381182
 31
0.0
 11
99.675455
 21
64.032047
 31
0.0
 11
98.537729
 21
63.360119
 31
0.0
 11
98.091902
 21
62.996008
 31
0.0
  0
SPLINE
  5
305
100
AcDbEntity
  8
0
 62
5
100
AcDbSpline
 70
0
 71
3
 72
10
 73
6
 74
4
 40
0.000000
 40
0.000000
 40
0.000000
 40
0.000000
 40
0.252426
 40
0.975264
 40
2.183223
 40
2.183223
 40
2.183223
 40
2.183223
 10
75.695178
 20
65.016679
 30
0.0
 10
75.779244
 20
65.022245
 30
0.0
 10
76.104042
 20
65.043749
 30
0.0
 10
76.805107
 20
65.285766
 30
0.0
 10
77.337723
 20
65.649932
 30
0.0
 10
77.670942
 20
65.877765
 30
0.0
 11
75.695178
 21
65.016679
 31
0.0
 11
75.946599
 21
65.039179
 31
0.0
 11
76.637079
 21
65.253031
 31
0.0
 11
77.670942
 21
65.877765
 31
0.0
  0
SPLINE
  5
306
100
AcDbEntity
  8
0
 62
5
100
AcDbSpline
 70
0
 71
3
 72
10
 73
6
 74
4
 40
0.000000
 40
0.000000
 40
0.000000
 40
0.000000
 40
2.353141
 40
4.850989
 40
7.155564
 40
7.155564
 40
7.155564
 40
7.155564
 10
77.670942
 20
65.877765
 30
0.0
 10
78.181932
 20
66.473054
 30
0.0
 10
79.235334
 20
67.700240
 30
0.0
 10
80.681695
 20
69.598246
 30
0.0
 10
81.619952
 20
70.895189
 30
0.0
 10
82.070200
 20
71.517564
 30
0.0
 11
77.670942
 21
65.877765
 31
0.0
 11
79.186764
 21
67.677641
 31
0.0
 11
80.711980
 21
69.655762
 31
0.0
 11
82.070200
 21
71.517564
 31
0.0
  0
LINE
  5
307
100
AcDbEntity
  8
0
 62
5
100
AcDbLine
 10
79.596547
 20
74.945661
 30
0.0
 11
79.039206
 21
73.527234
 31
0.0
  0
LINE
  5
308
100
AcDbEntity
  8
0
 62
5
100
AcDbLine
 10
79.039206
 20
73.527234
 30
0.0
 11
78.566399
 21
73.713013
 31
0.0
  0
LINE
  5
309
100
AcDbEntity
  8
0
 62
5
100
AcDbLine
 10
78.566399
 20
73.713013
 30
0.0
 11
79.959745
 21
77.259078
 31
0.0
  0
LINE
  5
30a
100
AcDbEntity
  8
0
 62
1
100
AcDbLine
 10
76.429935
 20
68.275714
 30
0.0
 11
77.916171
 21
72.058183
 31
0.0
  0
LINE
  5
30b
100
AcDbEntity
  8
0
 62
5
100
AcDbLine
 10
60.346833
 20
93.398727
 30
0.0
 11
67.335970
 21
93.897258
 31
0.0
  0
LINE
  5
30c
100
AcDbEntity
  8
0
 62
5
100
AcDbLine
 10
67.335970
 20
93.897258
 30
0.0
 11
79.103765
 21
84.213449
 31
0.0
  0
LINE
  5
30d
100
AcDbEntity
  8
0
 62
5
100
AcDbLine
 10
79.103765
 20
84.213449
 30
0.0
 11
79.959824
 21
77.259047
 31
0.0
  0
LINE
  5
30e
100
AcDbEntity
  8
0
 62
5
100
AcDbLine
 10
65.354279
 20
88.291227
 30
0.0
 11
66.945784
 21
88.626290
 31
0.0
  0
LINE
  5
30f
100
AcDbEntity
  8
0
 62
5
100
AcDbLine
 10
66.945784
 20
88.626290
 30
0.0
 11
74.006459
 21
82.816003
 31
0.0
  0
LINE
  5
310
100
AcDbEntity
  8
0
 62
5
100
AcDbLine
 10
74.006459
 20
82.816003
 30
0.0
 11
73.983994
 21
81.189768
 31
0.0
  0
LINE
  5
311
100
AcDbEntity
  8
0
 62
1
100
AcDbLine
 10
60.346833
 20
93.398727
 30
0.0
 11
65.838471
 21
88.879615
 31
0.0
  0
LINE
  5
312
100
AcDbEntity
  8
0
 62
1
100
AcDbLine
 10
79.959824
 20
77.259047
 30
0.0
 11
74.468186
 21
81.778156
 31
0.0
  0
LINE
  5
313
100
AcDbEntity
  8
0
 62
5
100
AcDbLine
 10
38.936478
 20
79.733174
 30
0.0
 11
46.430091
 21
84.516104
 31
0.0
  0
LINE
  5
314
100
AcDbEntity
  8
0
 62
5
100
AcDbLine
 10
46.430091
 20
84.516104
 30
0.0
 11
46.156781
 21
84.944311
 31
0.0
  0
LINE
  5
315
100
AcDbEntity
  8
0
 62
5
100
AcDbLine
 10
46.156781
 20
84.944311
 30
0.0
 11
44.872162
 21
84.124379
 31
0.0
  0
SPLINE
  5
316
100
AcDbEntity
  8
0
 62
5
100
AcDbSpline
 70
0
 71
3
 72
10
 73
6
 74
4
 40
0.000000
 40
0.000000
 40
0.000000
 40
0.000000
 40
1.795921
 40
3.492721
 40
4.254950
 40
4.254950
 40
4.254950
 40
4.254950
 10
82.070200
 20
71.517564
 30
0.0
 10
81.808875
 20
72.059210
 30
0.0
 10
81.300649
 20
73.112608
 30
0.0
 10
80.353459
 20
74.185350
 30
0.0
 10
79.775651
 20
74.765752
 30
0.0
 10
79.596547
 20
74.945661
 30
0.0
 11
82.070200
 21
71.517564
 31
0.0
 11
81.215029
 21
73.096809
 31
0.0
 11
80.130938
 21
74.402135
 31
0.0
 11
79.596547
 21
74.945661
 31
0.0
  0
SPLINE
  5
317
100
AcDbEntity
  8
0
 62
5
100
AcDbSpline
 70
0
 71
3
 72
10
 73
6
 74
4
 40
0.000000
 40
0.000000
 40
0.000000
 40
0.000000
 40
0.575618
 40
1.896936
 40
3.466240
 40
3.466240
 40
3.466240
 40
3.466240
 10
44.872162
 20
84.124379
 30
0.0
 10
44.800299
 20
84.301973
 30
0.0
 10
44.563477
 20
84.887229
 30
0.0
 10
44.270976
 20
86.030877
 30
0.0
 10
44.430379
 20
86.991845
 30
0.0
 10
44.516918
 20
87.513549
 30
0.0
 11
44.872162
 21
84.124379
 31
0.0
 11
44.663641
 21
84.660900
 31
0.0
 11
44.376176
 21
85.950570
 31
0.0
 11
44.516918
 21
87.513549
 31
0.0
  0
SPLINE
  5
318
100
AcDbEntity
  8
0
 62
5
100
AcDbSpline
 70
0
 71
3
 72
10
 73
6
 74
4
 40
0.000000
 40
0.000000
 40
0.000000
 40
0.000000
 40
2.631160
 40
5.396913
 40
8.028072
 40
8.028072
 40
8.028072
 40
8.028072
 10
44.516918
 20
87.513549
 30
0.0
 10
44.962521
 20
88.277692
 30
0.0
 10
45.876521
 20
89.845065
 30
0.0
 10
48.252776
 20
91.361753
 30
0.0
 10
50.059287
 20
91.530793
 30
0.0
 10
50.940016
 20
91.613205
 30
0.0
 11
44.516918
 21
87.513549
 31
0.0
 11
46.016174
 21
89.675779
 31
0.0
 11
48.347520
 21
91.163802
 31
0.0
 11
50.940016
 21
91.613205
 31
0.0
  0
LINE
  5
319
100
AcDbEntity
  8
0
 62
5
100
AcDbLine
 10
53.864496
 20
89.863896
 30
0.0
 11
52.579877
 21
89.043964
 31
0.0
  0
LINE
  5
31a
100
AcDbEntity
  8
0
 62
5
100
AcDbLine
 10
52.579877
 20
89.043964
 30
0.0
 11
52.853189
 21
88.615760
 31
0.0
  0
LINE
  5
31b
100
AcDbEntity
  8
0
 62
5
100
AcDbLine
 10
52.853189
 20
88.615760
 30
0.0
 11
60.346802
 21
93.398690
 31
0.0
  0
LINE
  5
31c
100
AcDbEntity
  8
0
 62
1
100
AcDbLine
 10
47.928815
 20
85.472691
 30
0.0
 11
51.354465
 21
87.659173
 31
0.0
  0
LINE
  5
31d
100
AcDbEntity
  8
0
 62
5
100
AcDbLine
 10
38.936532
 20
79.733089
 30
0.0
 11
35.149223
 21
76.126058
 31
0.0
  0
LINE
  5
31e
100
AcDbEntity
  8
0
 62
5
100
AcDbLine
 10
35.149223
 20
76.126058
 30
0.0
 11
40.698522
 21
61.821481
 31
0.0
  0
LINE
  5
31f
100
AcDbEntity
  8
0
 62
5
100
AcDbLine
 10
40.698522
 20
61.821481
 30
0.0
 11
44.040964
 21
60.064802
 31
0.0
  0
LINE
  5
320
100
AcDbEntity
  8
0
 62
5
100
AcDbLine
 10
44.040964
 20
60.064802
 30
0.0
 11
45.317071
 21
55.147732
 31
0.0
  0
LINE
  5
321
100
AcDbEntity
  8
0
 62
5
100
AcDbLine
 10
40.184536
 20
77.957677
 30
0.0
 11
39.210491
 21
76.655236
 31
0.0
  0
LINE
  5
322
100
AcDbEntity
  8
0
 62
5
100
AcDbLine
 10
39.210491
 20
76.655236
 30
0.0
 11
41.507483
 21
67.804507
 31
0.0
  0
LINE
  5
323
100
AcDbEntity
  8
0
 62
5
100
AcDbLine
 10
41.507483
 20
67.804507
 30
0.0
 11
42.991972
 21
67.140119
 31
0.0
  0
LINE
  5
324
100
AcDbEntity
  8
0
 62
1
100
AcDbLine
 10
38.936532
 20
79.733089
 30
0.0
 11
39.446976
 21
77.766260
 31
0.0
  0
LINE
  5
325
100
AcDbEntity
  8
0
 62
1
100
AcDbLine
 10
44.040964
 20
60.064802
 30
0.0
 11
42.254413
 21
66.948705
 31
0.0
  0
LINE
  5
326
100
AcDbEntity
  8
0
 62
5
100
AcDbLine
 10
45.316922
 20
55.147693
 30
0.0
 11
34.529852
 21
64.024456
 31
0.0
  0
LINE
  5
327
100
AcDbEntity
  8
0
 62
5
100
AcDbLine
 10
34.529852
 20
64.024456
 30
0.0
 11
34.852644
 21
64.416714
 31
0.0
  0
LINE
  5
328
100
AcDbEntity
  8
0
 62
5
100
AcDbLine
 10
34.852644
 20
64.416714
 30
0.0
 11
36.029415
 21
63.448339
 31
0.0
  0
SPLINE
  5
329
100
AcDbEntity
  8
0
 62
5
100
AcDbSpline
 70
0
 71
3
 72
10
 73
6
 74
4
 40
0.000000
 40
0.000000
 40
0.000000
 40
0.000000
 40
1.569303
 40
2.890622
 40
3.466239
 40
3.466239
 40
3.466239
 40
3.466239
 10
50.940016
 20
91.613205
 30
0.0
 10
51.449655
 20
91.472022
 30
0.0
 10
52.388398
 20
91.211966
 30
0.0
 10
53.302551
 20
90.465098
 30
0.0
 10
53.733674
 20
90.003858
 30
0.0
 10
53.864496
 20
89.863896
 30
0.0
 11
50.940016
 21
91.613205
 31
0.0
 11
52.416942
 21
91.082731
 31
0.0
 11
53.465661
 21
90.278946
 31
0.0
 11
53.864496
 21
89.863896
 31
0.0
  0
SPLINE
  5
32a
100
AcDbEntity
  8
0
 62
5
100
AcDbSpline
 70
0
 71
3
 72
10
 73
6
 74
4
 40
0.000000
 40
0.000000
 40
0.000000
 40
0.000000
 40
0.252426
 40
0.975262
 40
2.183216
 40
2.183216
 40
2.183216
 40
2.183216
 10
36.029415
 20
63.448339
 30
0.0
 10
36.050099
 20
63.530011
 30
0.0
 10
36.130014
 20
63.845556
 30
0.0
 10
36.116483
 20
64.587093
 30
0.0
 10
35.934727
 20
65.206172
 30
0.0
 10
35.821016
 20
65.593485
 30
0.0
 11
36.029415
 21
63.448339
 31
0.0
 11
36.085709
 21
63.694407
 31
0.0
 11
36.095693
 21
64.417175
 31
0.0
 11
35.821016
 21
65.593485
 31
0.0
  0
SPLINE
  5
32b
100
AcDbEntity
  8
0
 62
5
100
AcDbSpline
 70
0
 71
3
 72
10
 73
6
 74
4
 40
0.000000
 40
0.000000
 40
0.000000
 40
0.000000
 40
2.353131
 40
4.850968
 40
7.155534
 40
7.155534
 40
7.155534
 40
7.155534
 10
35.821016
 20
65.593485
 30
0.0
 10
35.412769
 20
66.263417
 30
0.0
 10
34.571170
 20
67.644478
 30
0.0
 10
33.213015
 20
69.606557
 30
0.0
 10
32.269489
 20
70.899664
 30
0.0
 10
31.816712
 20
71.520197
 30
0.0
 11
35.821016
 21
65.593485
 31
0.0
 11
34.577654
 21
67.591303
 31
0.0
 11
33.167672
 21
69.653133
 31
0.0
 11
31.816712
 21
71.520197
 31
0.0
  0
LINE
  5
32c
100
AcDbEntity
  8
0
 62
5
100
AcDbLine
 10
27.792015
 20
70.226959
 30
0.0
 11
28.968785
 21
69.258584
 31
0.0
  0
LINE
  5
32d
100
AcDbEntity
  8
0
 62
5
100
AcDbLine
 10
28.968785
 20
69.258584
 30
0.0
 11
28.645996
 21
68.866329
 31
0.0
  0
LINE
  5
32e
100
AcDbEntity
  8
0
 62
5
100
AcDbLine
 10
28.645996
 20
68.866329
 30
0.0
 11
25.704066
 21
71.287262
 31
0.0
  0
LINE
  5
32f
100
AcDbEntity
  8
0
 62
1
100
AcDbLine
 10
33.156951
 20
65.154226
 30
0.0
 11
30.018894
 21
67.736556
 31
0.0
  0
LINE
  5
330
100
AcDbEntity
  8
0
 62
5
100
AcDbLine
 10
4.293654
 20
57.621698
 30
0.0
 11
5.979278
 21
64.422793
 31
0.0
  0
LINE
  5
331
100
AcDbEntity
  8
0
 62
5
100
AcDbLine
 10
5.979278
 20
64.422793
 30
0.0
 11
18.825529
 21
72.622139
 31
0.0
  0
LINE
  5
332
100
AcDbEntity
  8
0
 62
5
100
AcDbLine
 10
18.825529
 20
72.622139
 30
0.0
 11
25.704073
 21
71.287276
 31
0.0
  0
LINE
  5
333
100
AcDbEntity
  8
0
 62
5
100
AcDbLine
 10
10.698539
 20
60.805746
 30
0.0
 11
10.871676
 21
62.422890
 31
0.0
  0
LINE
  5
334
100
AcDbEntity
  8
0
 62
5
100
AcDbLine
 10
10.871676
 20
62.422890
 30
0.0
 11
18.579427
 21
67.342498
 31
0.0
  0
LINE
  5
335
100
AcDbEntity
  8
0
 62
5
100
AcDbLine
 10
18.579427
 20
67.342498
 30
0.0
 11
20.119123
 21
66.818600
 31
0.0
  0
LINE
  5
336
100
AcDbEntity
  8
0
 62
1
100
AcDbLine
 10
4.293654
 20
57.621698
 30
0.0
 11
10.288571
 21
61.448058
 31
0.0
  0
LINE
  5
337
100
AcDbEntity
  8
0
 62
1
100
AcDbLine
 10
25.704073
 20
71.287276
 30
0.0
 11
19.709155
 21
67.460913
 31
0.0
  0
LINE
  5
338
100
AcDbEntity
  8
0
 62
1
100
AcDbLine
 10
158.458318
 20
63.281055
 30
0.0
 11
137.048240
 21
49.615578
 31
0.0
  0
LINE
  5
339
100
AcDbEntity
  8
0
 62
1
100
AcDbLine
 10
158.458318
 20
63.281055
 30
0.0
 11
178.071470
 21
47.141539
 31
0.0
  0
LINE
  5
33a
100
AcDbEntity
  8
0
 62
1
100
AcDbLine
 10
45.316860
 20
55.147735
 30
0.0
 11
70.670795
 21
53.618686
 31
0.0
  0
LINE
  5
33b
100
AcDbEntity
  8
0
 62
1
100
AcDbLine
 10
45.316860
 20
55.147735
 30
0.0
 11
36.028001
 21
31.507230
 31
0.0
  0
LINE
  5
33c
100
AcDbEntity
  8
0
 62
1
100
AcDbLine
 10
70.670795
 20
53.618686
 30
0.0
 11
77.051512
 21
29.033174
 31
0.0
  0
LINE
  5
33d
100
AcDbEntity
  8
0
 62
1
100
AcDbLine
 10
111.694307
 20
51.144630
 30
0.0
 11
102.405166
 21
27.504139
 31
0.0
  0
LINE
  5
33e
100
AcDbEntity
  8
0
 62
1
100
AcDbLine
 10
137.048240
 20
49.615578
 30
0.0
 11
143.428675
 21
25.030083
 31
0.0
  0
LINE
  5
33f
100
AcDbEntity
  8
0
 62
1
100
AcDbLine
 10
178.071470
 20
47.141539
 30
0.0
 11
168.782328
 21
23.501048
 31
0.0
  0
LINE
  5
340
100
AcDbEntity
  8
0
 62
1
100
AcDbLine
 10
36.028001
 20
31.507230
 30
0.0
 11
55.640873
 21
15.367731
 31
0.0
  0
LINE
  5
341
100
AcDbEntity
  8
0
 62
1
100
AcDbLine
 10
77.051512
 20
29.033174
 30
0.0
 11
55.640873
 21
15.367731
 31
0.0
  0
LINE
  5
342
100
AcDbEntity
  8
0
 62
1
100
AcDbLine
 10
143.428675
 20
25.030083
 30
0.0
 11
168.782328
 21
23.501048
 31
0.0
  0
LINE
  5
343
100
AcDbEntity
  8
0
 62
5
100
AcDbLine
 10
183.465267
 20
183.413293
 30
0.0
 11
183.465267
 21
173.535515
 31
0.0
  0
LINE
  5
344
100
AcDbEntity
  8
0
 62
5
100
AcDbLine
 10
183.465267
 20
173.535515
 30
0.0
 11
184.029711
 21
173.535515
 31
0.0
  0
LINE
  5
345
100
AcDbEntity
  8
0
 62
5
100
AcDbLine
 10
184.029711
 20
173.535515
 30
0.0
 11
184.029711
 21
175.228848
 31
0.0
  0
SPLINE
  5
346
100
AcDbEntity
  8
0
 62
5
100
AcDbSpline
 70
0
 71
3
 72
10
 73
6
 74
4
 40
0.000000
 40
0.000000
 40
0.000000
 40
0.000000
 40
1.795914
 40
3.492706
 40
4.254932
 40
4.254932
 40
4.254932
 40
4.254932
 10
31.816712
 20
71.520197
 30
0.0
 10
31.220824
 20
71.439041
 30
0.0
 10
30.061937
 20
71.281209
 30
0.0
 10
28.749007
 20
70.711874
 30
0.0
 10
28.018463
 20
70.341702
 30
0.0
 10
27.792015
 20
70.226959
 30
0.0
 11
31.816712
 21
71.520197
 31
0.0
 11
30.050504
 21
71.194897
 31
0.0
 11
28.474071
 21
70.567235
 31
0.0
 11
27.792015
 21
70.226959
 31
0.0
  0
SPLINE
  5
347
100
AcDbEntity
  8
0
 62
5
100
AcDbSpline
 70
0
 71
3
 72
10
 73
6
 74
4
 40
0.000000
 40
0.000000
 40
0.000000
 40
0.000000
 40
0.639581
 40
2.107726
 40
3.851412
 40
3.851412
 40
3.851412
 40
3.851412
 10
184.029711
 20
175.228848
 30
0.0
 10
184.239005
 20
175.189989
 30
0.0
 10
184.928730
 20
175.061930
 30
0.0
 10
186.174730
 20
174.652211
 30
0.0
 10
186.979482
 20
173.928444
 30
0.0
 10
187.416378
 20
173.535515
 30
0.0
 11
184.029711
 21
175.228848
 31
0.0
 11
184.656872
 21
175.103416
 31
0.0
 11
186.036625
 21
174.601688
 31
0.0
 11
187.416378
 21
173.535515
 31
0.0
  0
SPLINE
  5
348
100
AcDbEntity
  8
0
 62
5
100
AcDbSpline
 70
0
 71
3
 72
10
 73
6
 74
4
 40
0.000000
 40
0.000000
 40
0.000000
 40
0.000000
 40
2.923537
 40
5.996623
 40
8.920160
 40
8.920160
 40
8.920160
 40
8.920160
 10
187.416378
 20
173.535515
 30
0.0
 10
187.865692
 20
172.661357
 30
0.0
 10
188.787305
 20
170.868323
 30
0.0
 10
188.787305
 20
167.736040
 30
0.0
 10
187.865692
 20
165.943007
 30
0.0
 10
187.416378
 20
165.068848
 30
0.0
 11
187.416378
 21
173.535515
 31
0.0
 11
188.545267
 21
170.838725
 31
0.0
 11
188.545267
 21
167.765638
 31
0.0
 11
187.416378
 21
165.068848
 31
0.0
  0
LINE
  5
349
100
AcDbEntity
  8
0
 62
5
100
AcDbLine
 10
184.029711
 20
163.375515
 30
0.0
 11
184.029711
 21
165.068848
 31
0.0
  0
LINE
  5
34a
100
AcDbEntity
  8
0
 62
5
100
AcDbLine
 10
184.029711
 20
165.068848
 30
0.0
 11
183.465267
 21
165.068848
 31
0.0
  0
LINE
  5
34b
100
AcDbEntity
  8
0
 62
5
100
AcDbLine
 10
183.465267
 20
165.068848
 30
0.0
 11
183.465267
 21
155.191071
 31
0.0
  0
LINE
  5
34c
100
AcDbEntity
  8
0
 62
1
100
AcDbLine
 10
183.465267
 20
171.559959
 30
0.0
 11
183.465267
 21
167.044404
 31
0.0
  0
LINE
  5
34d
100
AcDbEntity
  8
0
 62
5
100
AcDbLine
 10
183.465267
 20
183.413293
 30
0.0
 11
191.034639
 21
181.591687
 31
0.0
  0
LINE
  5
34e
100
AcDbEntity
  8
0
 62
5
100
AcDbLine
 10
191.034639
 20
181.591687
 30
0.0
 11
205.699397
 21
190.058387
 31
0.0
  0
LINE
  5
34f
100
AcDbEntity
  8
0
 62
5
100
AcDbLine
 10
205.699397
 20
190.058387
 30
0.0
 11
207.906527
 21
197.524460
 31
0.0
  0
LINE
  5
350
100
AcDbEntity
  8
0
 62
5
100
AcDbLine
 10
189.885484
 20
188.097657
 30
0.0
 11
191.568694
 21
187.440042
 31
0.0
  0
LINE
  5
351
100
AcDbEntity
  8
0
 62
5
100
AcDbLine
 10
191.568694
 20
187.440042
 30
0.0
 11
200.367547
 21
192.520062
 31
0.0
  0
LINE
  5
352
100
AcDbEntity
  8
0
 62
5
100
AcDbLine
 10
200.367547
 20
192.520062
 30
0.0
 11
200.639638
 21
194.306571
 31
0.0
  0
LINE
  5
353
100
AcDbEntity
  8
0
 62
1
100
AcDbLine
 10
183.465267
 20
183.413293
 30
0.0
 11
190.308820
 21
187.364421
 31
0.0
  0
LINE
  5
354
100
AcDbEntity
  8
0
 62
1
100
AcDbLine
 10
207.906527
 20
197.524460
 30
0.0
 11
201.062974
 21
193.573332
 31
0.0
  0
LINE
  5
355
100
AcDbEntity
  8
0
 62
5
100
AcDbLine
 10
183.465298
 20
211.635571
 30
0.0
 11
192.019738
 21
206.696663
 31
0.0
  0
LINE
  5
356
100
AcDbEntity
  8
0
 62
5
100
AcDbLine
 10
192.019738
 20
206.696663
 30
0.0
 11
192.301961
 21
207.185489
 31
0.0
  0
LINE
  5
357
100
AcDbEntity
  8
0
 62
5
100
AcDbLine
 10
192.301961
 20
207.185489
 30
0.0
 11
190.835486
 21
208.032158
 31
0.0
  0
SPLINE
  5
358
100
AcDbEntity
  8
0
 62
5
100
AcDbSpline
 70
0
 71
3
 72
10
 73
6
 74
4
 40
0.000000
 40
0.000000
 40
0.000000
 40
0.000000
 40
1.743687
 40
3.211832
 40
3.851412
 40
3.851412
 40
3.851412
 40
3.851412
 10
187.416378
 20
165.068848
 30
0.0
 10
186.979482
 20
164.675919
 30
0.0
 10
186.174730
 20
163.952153
 30
0.0
 10
184.928730
 20
163.542434
 30
0.0
 10
184.239005
 20
163.414374
 30
0.0
 10
184.029711
 20
163.375515
 30
0.0
 11
187.416378
 21
165.068848
 31
0.0
 11
186.036625
 21
164.002675
 31
0.0
 11
184.656872
 21
163.500947
 31
0.0
 11
184.029711
 21
163.375515
 31
0.0
  0
SPLINE
  5
359
100
AcDbEntity
  8
0
 62
5
100
AcDbSpline
 70
0
 71
3
 72
10
 73
6
 74
4
 40
0.000000
 40
0.000000
 40
0.000000
 40
0.000000
 40
0.639584
 40
2.107735
 40
3.851428
 40
3.851428
 40
3.851428
 40
3.851428
 10
190.835486
 20
208.032158
 30
0.0
 10
190.973787
 20
208.193983
 30
0.0
 10
191.429554
 20
208.727274
 30
0.0
 10
192.407385
 20
209.601486
 30
0.0
 10
193.436566
 20
209.936539
 30
0.0
 10
193.995302
 20
210.118438
 30
0.0
 11
190.835486
 21
208.032158
 31
0.0
 11
191.257696
 21
208.512581
 31
0.0
 11
192.382087
 21
209.456621
 31
0.0
 11
193.995302
 21
210.118438
 31
0.0
  0
SPLINE
  5
35a
100
AcDbEntity
  8
0
 62
5
100
AcDbSpline
 70
0
 71
3
 72
10
 73
6
 74
4
 40
0.000000
 40
0.000000
 40
0.000000
 40
0.000000
 40
2.923548
 40
5.996646
 40
8.920194
 40
8.920194
 40
8.920194
 40
8.920194
 10
193.995302
 20
210.118438
 30
0.0
 10
194.977007
 20
210.070476
 30
0.0
 10
196.990633
 20
209.972100
 30
0.0
 10
199.703280
 20
208.405951
 30
0.0
 10
200.795290
 20
206.711288
 30
0.0
 10
201.327679
 20
205.885088
 30
0.0
 11
193.995302
 21
210.118438
 31
0.0
 11
196.895246
 21
209.747688
 31
0.0
 11
199.556627
 21
208.211139
 31
0.0
 11
201.327679
 21
205.885088
 31
0.0
  0
LINE
  5
35b
100
AcDbEntity
  8
0
 62
5
100
AcDbLine
 10
201.100814
 20
202.105469
 30
0.0
 11
199.634340
 21
202.952138
 31
0.0
  0
LINE
  5
35c
100
AcDbEntity
  8
0
 62
5
100
AcDbLine
 10
199.634340
 20
202.952138
 30
0.0
 11
199.352117
 21
202.463313
 31
0.0
  0
LINE
  5
35d
100
AcDbEntity
  8
0
 62
5
100
AcDbLine
 10
199.352117
 20
202.463313
 30
0.0
 11
207.906558
 21
197.524404
 31
0.0
  0
LINE
  5
35e
100
AcDbEntity
  8
0
 62
1
100
AcDbLine
 10
193.730626
 20
205.708882
 30
0.0
 11
197.641227
 21
203.451093
 31
0.0
  0
LINE
  5
35f
100
AcDbEntity
  8
0
 62
5
100
AcDbLine
 10
183.465267
 20
211.635515
 30
0.0
 11
188.827489
 21
217.279959
 31
0.0
  0
LINE
  5
360
100
AcDbEntity
  8
0
 62
5
100
AcDbLine
 10
188.827489
 20
217.279959
 30
0.0
 11
188.827489
 21
234.213293
 31
0.0
  0
LINE
  5
361
100
AcDbEntity
  8
0
 62
5
100
AcDbLine
 10
188.827489
 20
234.213293
 30
0.0
 11
183.465267
 21
239.857737
 31
0.0
  0
LINE
  5
362
100
AcDbEntity
  8
0
 62
5
100
AcDbLine
 10
182.618600
 20
219.537737
 30
0.0
 11
184.029711
 21
220.666626
 31
0.0
  0
LINE
  5
363
100
AcDbEntity
  8
0
 62
5
100
AcDbLine
 10
184.029711
 20
220.666626
 30
0.0
 11
184.029711
 21
230.826626
 31
0.0
  0
LINE
  5
364
100
AcDbEntity
  8
0
 62
5
100
AcDbLine
 10
184.029711
 20
230.826626
 30
0.0
 11
182.618600
 21
231.955515
 31
0.0
  0
LINE
  5
365
100
AcDbEntity
  8
0
 62
1
100
AcDbLine
 10
183.465267
 20
211.635515
 30
0.0
 11
183.465267
 21
219.537737
 31
0.0
  0
LINE
  5
366
100
AcDbEntity
  8
0
 62
1
100
AcDbLine
 10
183.465267
 20
239.857737
 30
0.0
 11
183.465267
 21
231.955515
 31
0.0
  0
LINE
  5
367
100
AcDbEntity
  8
0
 62
5
100
AcDbLine
 10
183.465267
 20
239.857737
 30
0.0
 11
174.910863
 21
244.796623
 31
0.0
  0
LINE
  5
368
100
AcDbEntity
  8
0
 62
5
100
AcDbLine
 10
174.910863
 20
244.796623
 30
0.0
 11
175.193085
 21
245.285446
 31
0.0
  0
LINE
  5
369
100
AcDbEntity
  8
0
 62
5
100
AcDbLine
 10
175.193085
 20
245.285446
 30
0.0
 11
176.659554
 21
244.438782
 31
0.0
  0
SPLINE
  5
36a
100
AcDbEntity
  8
0
 62
5
100
AcDbSpline
 70
0
 71
3
 72
10
 73
6
 74
4
 40
0.000000
 40
0.000000
 40
0.000000
 40
0.000000
 40
1.743692
 40
3.211843
 40
3.851426
 40
3.851426
 40
3.851426
 40
3.851426
 10
201.327679
 20
205.885088
 30
0.0
 10
201.449518
 20
205.310258
 30
0.0
 10
201.673943
 20
204.251436
 30
0.0
 10
201.405769
 20
202.967504
 30
0.0
 10
201.171809
 20
202.306153
 30
0.0
 10
201.100814
 20
202.105469
 30
0.0
 11
201.327679
 21
205.885088
 31
0.0
 11
201.561136
 21
204.157094
 31
0.0
 11
201.305768
 21
202.711324
 31
0.0
 11
201.100814
 21
202.105469
 31
0.0
  0
SPLINE
  5
36b
100
AcDbEntity
  8
0
 62
5
100
AcDbSpline
 70
0
 71
3
 72
10
 73
6
 74
4
 40
0.000000
 40
0.000000
 40
0.000000
 40
0.000000
 40
0.639581
 40
2.107725
 40
3.851411
 40
3.851411
 40
3.851411
 40
3.851411
 10
176.659554
 20
244.438782
 30
0.0
 10
176.730548
 20
244.639466
 30
0.0
 10
176.964508
 20
245.300814
 30
0.0
 10
177.232682
 20
246.584741
 30
0.0
 10
177.008257
 20
247.643560
 30
0.0
 10
176.886418
 20
248.218387
 30
0.0
 11
176.659554
 21
244.438782
 31
0.0
 11
176.864507
 21
245.044635
 31
0.0
 11
177.119875
 21
246.490400
 31
0.0
 11
176.886418
 21
248.218387
 31
0.0
  0
SPLINE
  5
36c
100
AcDbEntity
  8
0
 62
5
100
AcDbSpline
 70
0
 71
3
 72
10
 73
6
 74
4
 40
0.000000
 40
0.000000
 40
0.000000
 40
0.000000
 40
2.923534
 40
5.996619
 40
8.920155
 40
8.920155
 40
8.920155
 40
8.920155
 10
176.886418
 20
248.218387
 30
0.0
 10
176.354033
 20
249.044583
 30
0.0
 10
175.262027
 20
250.739239
 30
0.0
 10
172.549392
 20
252.305380
 30
0.0
 10
170.535774
 20
252.403756
 30
0.0
 10
169.554073
 20
252.451718
 30
0.0
 11
176.886418
 21
248.218387
 31
0.0
 11
175.115375
 21
250.544426
 31
0.0
 11
172.454006
 21
252.080969
 31
0.0
 11
169.554073
 21
252.451718
 31
0.0
  0
LINE
  5
36d
100
AcDbEntity
  8
0
 62
5
100
AcDbLine
 10
166.394271
 20
250.365446
 30
0.0
 11
167.860740
 21
249.518780
 31
0.0
  0
LINE
  5
36e
100
AcDbEntity
  8
0
 62
5
100
AcDbLine
 10
167.860740
 20
249.518780
 30
0.0
 11
167.578518
 21
249.029957
 31
0.0
  0
LINE
  5
36f
100
AcDbEntity
  8
0
 62
5
100
AcDbLine
 10
167.578518
 20
249.029957
 30
0.0
 11
159.024114
 21
253.968844
 31
0.0
  0
LINE
  5
370
100
AcDbEntity
  8
0
 62
1
100
AcDbLine
 10
173.199984
 20
245.784401
 30
0.0
 11
169.289397
 21
248.042179
 31
0.0
  0
LINE
  5
371
100
AcDbEntity
  8
0
 62
5
100
AcDbLine
 10
159.024117
 20
225.746626
 30
0.0
 11
153.661895
 21
231.391071
 31
0.0
  0
LINE
  5
372
100
AcDbEntity
  8
0
 62
5
100
AcDbLine
 10
153.661895
 20
231.391071
 30
0.0
 11
153.661895
 21
248.324404
 31
0.0
  0
LINE
  5
373
100
AcDbEntity
  8
0
 62
5
100
AcDbLine
 10
153.661895
 20
248.324404
 30
0.0
 11
159.024117
 21
253.968848
 31
0.0
  0
LINE
  5
374
100
AcDbEntity
  8
0
 62
5
100
AcDbLine
 10
159.870783
 20
233.648848
 30
0.0
 11
158.459672
 21
234.777737
 31
0.0
  0
LINE
  5
375
100
AcDbEntity
  8
0
 62
5
100
AcDbLine
 10
158.459672
 20
234.777737
 30
0.0
 11
158.459672
 21
244.937737
 31
0.0
  0
LINE
  5
376
100
AcDbEntity
  8
0
 62
5
100
AcDbLine
 10
158.459672
 20
244.937737
 30
0.0
 11
159.870783
 21
246.066626
 31
0.0
  0
LINE
  5
377
100
AcDbEntity
  8
0
 62
1
100
AcDbLine
 10
159.024117
 20
225.746626
 30
0.0
 11
159.024117
 21
233.648848
 31
0.0
  0
LINE
  5
378
100
AcDbEntity
  8
0
 62
1
100
AcDbLine
 10
159.024117
 20
253.968848
 30
0.0
 11
159.024117
 21
246.066626
 31
0.0
  0
LINE
  5
379
100
AcDbEntity
  8
0
 62
5
100
AcDbLine
 10
159.024117
 20
225.746626
 30
0.0
 11
150.469713
 21
220.807740
 31
0.0
  0
LINE
  5
37a
100
AcDbEntity
  8
0
 62
5
100
AcDbLine
 10
150.469713
 20
220.807740
 30
0.0
 11
150.187491
 21
221.296563
 31
0.0
  0
LINE
  5
37b
100
AcDbEntity
  8
0
 62
5
100
AcDbLine
 10
150.187491
 20
221.296563
 30
0.0
 11
151.653960
 21
222.143230
 31
0.0
  0
SPLINE
  5
37c
100
AcDbEntity
  8
0
 62
5
100
AcDbSpline
 70
0
 71
3
 72
10
 73
6
 74
4
 40
0.000000
 40
0.000000
 40
0.000000
 40
0.000000
 40
1.743687
 40
3.211831
 40
3.851411
 40
3.851411
 40
3.851411
 40
3.851411
 10
169.554073
 20
252.451718
 30
0.0
 10
168.995339
 20
252.269819
 30
0.0
 10
167.966163
 20
251.934767
 30
0.0
 10
166.988336
 20
251.060559
 30
0.0
 10
166.532571
 20
250.527271
 30
0.0
 10
166.394271
 20
250.365446
 30
0.0
 11
169.554073
 21
252.451718
 31
0.0
 11
167.940864
 21
251.789903
 31
0.0
 11
166.816478
 21
250.845867
 31
0.0
 11
166.394271
 21
250.365446
 31
0.0
  0
SPLINE
  5
37d
100
AcDbEntity
  8
0
 62
5
100
AcDbSpline
 70
0
 71
3
 72
10
 73
6
 74
4
 40
0.000000
 40
0.000000
 40
0.000000
 40
0.000000
 40
0.639580
 40
2.107725
 40
3.851411
 40
3.851411
 40
3.851411
 40
3.851411
 10
151.653960
 20
222.143230
 30
0.0
 10
151.515660
 20
222.305054
 30
0.0
 10
151.059895
 20
222.838343
 30
0.0
 10
150.082068
 20
223.712551
 30
0.0
 10
149.052892
 20
224.047603
 30
0.0
 10
148.494157
 20
224.229501
 30
0.0
 11
151.653960
 21
222.143230
 31
0.0
 11
151.231752
 21
222.623650
 31
0.0
 11
150.107367
 21
223.567687
 31
0.0
 11
148.494157
 21
224.229501
 31
0.0
  0
SPLINE
  5
37e
100
AcDbEntity
  8
0
 62
5
100
AcDbSpline
 70
0
 71
3
 72
10
 73
6
 74
4
 40
0.000000
 40
0.000000
 40
0.000000
 40
0.000000
 40
2.923536
 40
5.996621
 40
8.920157
 40
8.920157
 40
8.920157
 40
8.920157
 10
148.494157
 20
224.229501
 30
0.0
 10
147.512457
 20
224.181539
 30
0.0
 10
145.498839
 20
224.083163
 30
0.0
 10
142.786203
 20
222.517021
 30
0.0
 10
141.694198
 20
220.822364
 30
0.0
 10
141.161812
 20
219.996168
 30
0.0
 11
148.494157
 21
224.229501
 31
0.0
 11
145.594225
 21
223.858752
 31
0.0
 11
142.932856
 21
222.322209
 31
0.0
 11
141.161812
 21
219.996168
 31
0.0
  0
LINE
  5
37f
100
AcDbEntity
  8
0
 62
5
100
AcDbLine
 10
141.388677
 20
216.216563
 30
0.0
 11
142.855146
 21
217.063230
 31
0.0
  0
LINE
  5
380
100
AcDbEntity
  8
0
 62
5
100
AcDbLine
 10
142.855146
 20
217.063230
 30
0.0
 11
143.137368
 21
216.574407
 31
0.0
  0
LINE
  5
381
100
AcDbEntity
  8
0
 62
5
100
AcDbLine
 10
143.137368
 20
216.574407
 30
0.0
 11
134.582964
 21
211.635521
 31
0.0
  0
LINE
  5
382
100
AcDbEntity
  8
0
 62
1
100
AcDbLine
 10
148.758834
 20
219.819962
 30
0.0
 11
144.848247
 21
217.562184
 31
0.0
  0
LINE
  5
383
100
AcDbEntity
  8
0
 62
5
100
AcDbLine
 10
159.024120
 20
197.524410
 30
0.0
 11
151.454779
 21
195.702812
 31
0.0
  0
LINE
  5
384
100
AcDbEntity
  8
0
 62
5
100
AcDbLine
 10
151.454779
 20
195.702812
 30
0.0
 11
136.790089
 21
204.169476
 31
0.0
  0
LINE
  5
385
100
AcDbEntity
  8
0
 62
5
100
AcDbLine
 10
136.790089
 20
204.169476
 30
0.0
 11
134.582967
 21
211.635515
 31
0.0
  0
LINE
  5
386
100
AcDbEntity
  8
0
 62
5
100
AcDbLine
 10
152.603931
 20
202.208754
 30
0.0
 11
150.920729
 21
201.551139
 31
0.0
  0
LINE
  5
387
100
AcDbEntity
  8
0
 62
5
100
AcDbLine
 10
150.920729
 20
201.551139
 30
0.0
 11
142.121913
 21
206.631139
 31
0.0
  0
LINE
  5
388
100
AcDbEntity
  8
0
 62
5
100
AcDbLine
 10
142.121913
 20
206.631139
 30
0.0
 11
141.849822
 21
208.417640
 31
0.0
  0
LINE
  5
389
100
AcDbEntity
  8
0
 62
1
100
AcDbLine
 10
159.024120
 20
197.524410
 30
0.0
 11
152.180598
 21
201.475521
 31
0.0
  0
LINE
  5
38a
100
AcDbEntity
  8
0
 62
1
100
AcDbLine
 10
134.582967
 20
211.635515
 30
0.0
 11
141.426489
 21
207.684407
 31
0.0
  0
LINE
  5
38b
100
AcDbEntity
  8
0
 62
5
100
AcDbLine
 10
159.024117
 20
197.524404
 30
0.0
 11
159.024117
 21
187.646626
 31
0.0
  0
LINE
  5
38c
100
AcDbEntity
  8
0
 62
5
100
AcDbLine
 10
159.024117
 20
187.646626
 30
0.0
 11
158.459672
 21
187.646626
 31
0.0
  0
LINE
  5
38d
100
AcDbEntity
  8
0
 62
5
100
AcDbLine
 10
158.459672
 20
187.646626
 30
0.0
 11
158.459672
 21
189.339959
 31
0.0
  0
SPLINE
  5
38e
100
AcDbEntity
  8
0
 62
5
100
AcDbSpline
 70
0
 71
3
 72
10
 73
6
 74
4
 40
0.000000
 40
0.000000
 40
0.000000
 40
0.000000
 40
1.743686
 40
3.211831
 40
3.851411
 40
3.851411
 40
3.851411
 40
3.851411
 10
141.161812
 20
219.996168
 30
0.0
 10
141.039974
 20
219.421341
 30
0.0
 10
140.815549
 20
218.362522
 30
0.0
 10
141.083723
 20
217.078595
 30
0.0
 10
141.317683
 20
216.417246
 30
0.0
 10
141.388677
 20
216.216563
 30
0.0
 11
141.161812
 21
219.996168
 31
0.0
 11
140.928356
 21
218.268181
 31
0.0
 11
141.183723
 21
216.822416
 31
0.0
 11
141.388677
 21
216.216563
 31
0.0
  0
SPLINE
  5
38f
100
AcDbEntity
  8
0
 62
5
100
AcDbSpline
 70
0
 71
3
 72
10
 73
6
 74
4
 40
0.000000
 40
0.000000
 40
0.000000
 40
0.000000
 40
0.639581
 40
2.107726
 40
3.851412
 40
3.851412
 40
3.851412
 40
3.851412
 10
158.459672
 20
189.339959
 30
0.0
 10
158.250378
 20
189.301100
 30
0.0
 10
157.560654
 20
189.173041
 30
0.0
 10
156.314654
 20
188.763322
 30
0.0
 10
155.509901
 20
188.039555
 30
0.0
 10
155.073006
 20
187.646626
 30
0.0
 11
158.459672
 21
189.339959
 31
0.0
 11
157.832512
 21
189.214527
 31
0.0
 11
156.452759
 21
188.712799
 31
0.0
 11
155.073006
 21
187.646626
 31
0.0
  0
SPLINE
  5
390
100
AcDbEntity
  8
0
 62
5
100
AcDbSpline
 70
0
 71
3
 72
10
 73
6
 74
4
 40
0.000000
 40
0.000000
 40
0.000000
 40
0.000000
 40
2.923537
 40
5.996623
 40
8.920160
 40
8.920160
 40
8.920160
 40
8.920160
 10
155.073006
 20
187.646626
 30
0.0
 10
154.623691
 20
186.772468
 30
0.0
 10
153.702078
 20
184.979435
 30
0.0
 10
153.702078
 20
181.847151
 30
0.0
 10
154.623691
 20
180.054118
 30
0.0
 10
155.073006
 20
179.179959
 30
0.0
 11
155.073006
 21
187.646626
 31
0.0
 11
153.944117
 21
184.949836
 31
0.0
 11
153.944117
 21
181.876750
 31
0.0
 11
155.073006
 21
179.179959
 31
0.0
  0
LINE
  5
391
100
AcDbEntity
  8
0
 62
5
100
AcDbLine
 10
158.459672
 20
177.486626
 30
0.0
 11
158.459672
 21
179.179959
 31
0.0
  0
LINE
  5
392
100
AcDbEntity
  8
0
 62
5
100
AcDbLine
 10
158.459672
 20
179.179959
 30
0.0
 11
159.024117
 21
179.179959
 31
0.0
  0
LINE
  5
393
100
AcDbEntity
  8
0
 62
5
100
AcDbLine
 10
159.024117
 20
179.179959
 30
0.0
 11
159.024117
 21
169.302182
 31
0.0
  0
LINE
  5
394
100
AcDbEntity
  8
0
 62
1
100
AcDbLine
 10
159.024117
 20
185.671071
 30
0.0
 11
159.024117
 21
181.155515
 31
0.0
  0
LINE
  5
395
100
AcDbEntity
  8
0
 62
5
100
AcDbLine
 10
159.024117
 20
169.302182
 30
0.0
 11
161.231239
 21
161.836142
 31
0.0
  0
LINE
  5
396
100
AcDbEntity
  8
0
 62
5
100
AcDbLine
 10
161.231239
 20
161.836142
 30
0.0
 11
175.895929
 21
153.369478
 31
0.0
  0
LINE
  5
397
100
AcDbEntity
  8
0
 62
5
100
AcDbLine
 10
175.895929
 20
153.369478
 30
0.0
 11
183.465270
 21
155.191076
 31
0.0
  0
LINE
  5
398
100
AcDbEntity
  8
0
 62
5
100
AcDbLine
 10
166.290972
 20
166.084306
 30
0.0
 11
166.563063
 21
164.297806
 31
0.0
  0
LINE
  5
399
100
AcDbEntity
  8
0
 62
5
100
AcDbLine
 10
166.563063
 20
164.297806
 30
0.0
 11
175.361879
 21
159.217806
 31
0.0
  0
LINE
  5
39a
100
AcDbEntity
  8
0
 62
5
100
AcDbLine
 10
175.361879
 20
159.217806
 30
0.0
 11
177.045081
 21
159.875420
 31
0.0
  0
LINE
  5
39b
100
AcDbEntity
  8
0
 62
1
100
AcDbLine
 10
159.024117
 20
169.302182
 30
0.0
 11
165.867639
 21
165.351071
 31
0.0
  0
LINE
  5
39c
100
AcDbEntity
  8
0
 62
1
100
AcDbLine
 10
183.465270
 20
155.191076
 30
0.0
 11
176.621748
 21
159.142184
 31
0.0
  0
LINE
  5
39d
100
AcDbEntity
  8
0
 62
1
100
AcDbLine
 10
159.024258
 20
169.302182
 30
0.0
 11
183.465267
 21
183.413293
 31
0.0
  0
LINE
  5
39e
100
AcDbEntity
  8
0
 62
1
100
AcDbLine
 10
159.024258
 20
197.524404
 30
0.0
 11
159.024258
 21
225.746626
 31
0.0
  0
LINE
  5
39f
100
AcDbEntity
  8
0
 62
1
100
AcDbLine
 10
159.024258
 20
197.524404
 30
0.0
 11
183.465267
 21
183.413293
 31
0.0
  0
LINE
  5
3a0
100
AcDbEntity
  8
0
 62
1
100
AcDbLine
 10
159.024258
 20
197.524404
 30
0.0
 11
183.465267
 21
211.635515
 31
0.0
  0
LINE
  5
3a1
100
AcDbEntity
  8
0
 62
1
100
AcDbLine
 10
159.024258
 20
225.746626
 30
0.0
 11
183.465267
 21
211.635515
 31
0.0
  0
LINE
  5
3a2
100
AcDbEntity
  8
0
 62
1
100
AcDbLine
 10
159.024258
 20
225.746626
 30
0.0
 11
183.465267
 21
239.857737
 31
0.0
  0
LINE
  5
3a3
100
AcDbEntity
  8
0
 62
1
100
AcDbLine
 10
183.465267
 20
183.413293
 30
0.0
 11
183.465267
 21
211.635515
 31
0.0
  0
LINE
  5
3a4
100
AcDbEntity
  8
0
 62
5
100
AcDbLine
 10
8.164285
 20
197.644842
 30
0.0
 11
8.164285
 21
207.522620
 31
0.0
  0
LINE
  5
3a5
100
AcDbEntity
  8
0
 62
5
100
AcDbLine
 10
8.164285
 20
207.522620
 30
0.0
 11
7.599841
 21
207.522620
 31
0.0
  0
LINE
  5
3a6
100
AcDbEntity
  8
0
 62
5
100
AcDbLine
 10
7.599841
 20
207.522620
 30
0.0
 11
7.599841
 21
205.829287
 31
0.0
  0
SPLINE
  5
3a7
100
AcDbEntity
  8
0
 62
5
100
AcDbSpline
 70
0
 71
3
 72
10
 73
6
 74
4
 40
0.000000
 40
0.000000
 40
0.000000
 40
0.000000
 40
1.743687
 40
3.211832
 40
3.851412
 40
3.851412
 40
3.851412
 40
3.851412
 10
155.073006
 20
179.179959
 30
0.0
 10
155.509901
 20
178.787030
 30
0.0
 10
156.314654
 20
178.063264
 30
0.0
 10
157.560654
 20
177.653545
 30
0.0
 10
158.250378
 20
177.525485
 30
0.0
 10
158.459672
 20
177.486626
 30
0.0
 11
155.073006
 21
179.179959
 31
0.0
 11
156.452759
 21
178.113787
 31
0.0
 11
157.832512
 21
177.612058
 31
0.0
 11
158.459672
 21
177.486626
 31
0.0
  0
SPLINE
  5
3a8
100
AcDbEntity
  8
0
 62
5
100
AcDbSpline
 70
0
 71
3
 72
10
 73
6
 74
4
 40
0.000000
 40
0.000000
 40
0.000000
 40
0.000000
 40
0.639581
 40
2.107726
 40
3.851412
 40
3.851412
 40
3.851412
 40
3.851412
 10
7.599841
 20
205.829287
 30
0.0
 10
7.390547
 20
205.868146
 30
0.0
 10
6.700822
 20
205.996205
 30
0.0
 10
5.454822
 20
206.405924
 30
0.0
 10
4.650070
 20
207.129691
 30
0.0
 10
4.213174
 20
207.522620
 30
0.0
 11
7.599841
 21
205.829287
 31
0.0
 11
6.972680
 21
205.954719
 31
0.0
 11
5.592927
 21
206.456447
 31
0.0
 11
4.213174
 21
207.522620
 31
0.0
  0
SPLINE
  5
3a9
100
AcDbEntity
  8
0
 62
5
100
AcDbSpline
 70
0
 71
3
 72
10
 73
6
 74
4
 40
0.000000
 40
0.000000
 40
0.000000
 40
0.000000
 40
2.923537
 40
5.996623
 40
8.920160
 40
8.920160
 40
8.920160
 40
8.920160
 10
4.213174
 20
207.522620
 30
0.0
 10
3.763859
 20
208.396778
 30
0.0
 10
2.842246
 20
210.189811
 30
0.0
 10
2.842246
 20
213.322095
 30
0.0
 10
3.763859
 20
215.115128
 30
0.0
 10
4.213174
 20
215.989287
 30
0.0
 11
4.213174
 21
207.522620
 31
0.0
 11
3.084285
 21
210.219410
 31
0.0
 11
3.084285
 21
213.292497
 31
0.0
 11
4.213174
 21
215.989287
 31
0.0
  0
LINE
  5
3aa
100
AcDbEntity
  8
0
 62
5
100
AcDbLine
 10
7.599841
 20
217.682620
 30
0.0
 11
7.599841
 21
215.989287
 31
0.0
  0
LINE
  5
3ab
100
AcDbEntity
  8
0
 62
5
100
AcDbLine
 10
7.599841
 20
215.989287
 30
0.0
 11
8.164285
 21
215.989287
 31
0.0
  0
LINE
  5
3ac
100
AcDbEntity
  8
0
 62
5
100
AcDbLine
 10
8.164285
 20
215.989287
 30
0.0
 11
8.164285
 21
225.867064
 31
0.0
  0
LINE
  5
3ad
100
AcDbEntity
  8
0
 62
1
100
AcDbLine
 10
8.164285
 20
209.498176
 30
0.0
 11
8.164285
 21
214.013731
 31
0.0
  0
LINE
  5
3ae
100
AcDbEntity
  8
0
 62
5
100
AcDbLine
 10
36.386508
 20
197.644842
 30
0.0
 11
30.742063
 21
192.282620
 31
0.0
  0
LINE
  5
3af
100
AcDbEntity
  8
0
 62
5
100
AcDbLine
 10
30.742063
 20
192.282620
 30
0.0
 11
13.808730
 21
192.282620
 31
0.0
  0
LINE
  5
3b0
100
AcDbEntity
  8
0
 62
5
100
AcDbLine
 10
13.808730
 20
192.282620
 30
0.0
 11
8.164285
 21
197.644842
 31
0.0
  0
LINE
  5
3b1
100
AcDbEntity
  8
0
 62
5
100
AcDbLine
 10
28.484285
 20
198.491509
 30
0.0
 11
27.355396
 21
197.080398
 31
0.0
  0
LINE
  5
3b2
100
AcDbEntity
  8
0
 62
5
100
AcDbLine
 10
27.355396
 20
197.080398
 30
0.0
 11
17.195396
 21
197.080398
 31
0.0
  0
LINE
  5
3b3
100
AcDbEntity
  8
0
 62
5
100
AcDbLine
 10
17.195396
 20
197.080398
 30
0.0
 11
16.066508
 21
198.491509
 31
0.0
  0
LINE
  5
3b4
100
AcDbEntity
  8
0
 62
1
100
AcDbLine
 10
36.386508
 20
197.644842
 30
0.0
 11
28.484285
 21
197.644842
 31
0.0
  0
LINE
  5
3b5
100
AcDbEntity
  8
0
 62
1
100
AcDbLine
 10
8.164285
 20
197.644842
 30
0.0
 11
16.066508
 21
197.644842
 31
0.0
  0
LINE
  5
3b6
100
AcDbEntity
  8
0
 62
5
100
AcDbLine
 10
36.386508
 20
197.644842
 30
0.0
 11
36.386508
 21
187.767064
 31
0.0
  0
LINE
  5
3b7
100
AcDbEntity
  8
0
 62
5
100
AcDbLine
 10
36.386508
 20
187.767064
 30
0.0
 11
35.822063
 21
187.767064
 31
0.0
  0
LINE
  5
3b8
100
AcDbEntity
  8
0
 62
5
100
AcDbLine
 10
35.822063
 20
187.767064
 30
0.0
 11
35.822063
 21
189.460398
 31
0.0
  0
SPLINE
  5
3b9
100
AcDbEntity
  8
0
 62
5
100
AcDbSpline
 70
0
 71
3
 72
10
 73
6
 74
4
 40
0.000000
 40
0.000000
 40
0.000000
 40
0.000000
 40
1.743687
 40
3.211832
 40
3.851412
 40
3.851412
 40
3.851412
 40
3.851412
 10
4.213174
 20
215.989287
 30
0.0
 10
4.650070
 20
216.382216
 30
0.0
 10
5.454822
 20
217.105982
 30
0.0
 10
6.700822
 20
217.515701
 30
0.0
 10
7.390547
 20
217.643761
 30
0.0
 10
7.599841
 20
217.682620
 30
0.0
 11
4.213174
 21
215.989287
 31
0.0
 11
5.592927
 21
217.055459
 31
0.0
 11
6.972680
 21
217.557188
 31
0.0
 11
7.599841
 21
217.682620
 31
0.0
  0
SPLINE
  5
3ba
100
AcDbEntity
  8
0
 62
5
100
AcDbSpline
 70
0
 71
3
 72
10
 73
6
 74
4
 40
0.000000
 40
0.000000
 40
0.000000
 40
0.000000
 40
0.639581
 40
2.107726
 40
3.851412
 40
3.851412
 40
3.851412
 40
3.851412
 10
35.822063
 20
189.460398
 30
0.0
 10
35.612769
 20
189.421539
 30
0.0
 10
34.923045
 20
189.293479
 30
0.0
 10
33.677044
 20
188.883760
 30
0.0
 10
32.872292
 20
188.159993
 30
0.0
 10
32.435396
 20
187.767064
 30
0.0
 11
35.822063
 21
189.460398
 31
0.0
 11
35.194903
 21
189.334966
 31
0.0
 11
33.815150
 21
188.833237
 31
0.0
 11
32.435396
 21
187.767064
 31
0.0
  0
SPLINE
  5
3bb
100
AcDbEntity
  8
0
 62
5
100
AcDbSpline
 70
0
 71
3
 72
10
 73
6
 74
4
 40
0.000000
 40
0.000000
 40
0.000000
 40
0.000000
 40
2.923537
 40
5.996623
 40
8.920160
 40
8.920160
 40
8.920160
 40
8.920160
 10
32.435396
 20
187.767064
 30
0.0
 10
31.986082
 20
186.892906
 30
0.0
 10
31.064469
 20
185.099873
 30
0.0
 10
31.064469
 20
181.967589
 30
0.0
 10
31.986082
 20
180.174556
 30
0.0
 10
32.435396
 20
179.300398
 30
0.0
 11
32.435396
 21
187.767064
 31
0.0
 11
31.306508
 21
185.070274
 31
0.0
 11
31.306508
 21
181.997188
 31
0.0
 11
32.435396
 21
179.300398
 31
0.0
  0
LINE
  5
3bc
100
AcDbEntity
  8
0
 62
5
100
AcDbLine
 10
35.822063
 20
177.607064
 30
0.0
 11
35.822063
 21
179.300398
 31
0.0
  0
LINE
  5
3bd
100
AcDbEntity
  8
0
 62
5
100
AcDbLine
 10
35.822063
 20
179.300398
 30
0.0
 11
36.386508
 21
179.300398
 31
0.0
  0
LINE
  5
3be
100
AcDbEntity
  8
0
 62
5
100
AcDbLine
 10
36.386508
 20
179.300398
 30
0.0
 11
36.386508
 21
169.422620
 31
0.0
  0
LINE
  5
3bf
100
AcDbEntity
  8
0
 62
1
100
AcDbLine
 10
36.386508
 20
185.791509
 30
0.0
 11
36.386508
 21
181.275953
 31
0.0
  0
LINE
  5
3c0
100
AcDbEntity
  8
0
 62
5
100
AcDbLine
 10
64.608730
 20
169.422620
 30
0.0
 11
58.964285
 21
164.060398
 31
0.0
  0
LINE
  5
3c1
100
AcDbEntity
  8
0
 62
5
100
AcDbLine
 10
58.964285
 20
164.060398
 30
0.0
 11
42.030952
 21
164.060398
 31
0.0
  0
LINE
  5
3c2
100
AcDbEntity
  8
0
 62
5
100
AcDbLine
 10
42.030952
 20
164.060398
 30
0.0
 11
36.386508
 21
169.422620
 31
0.0
  0
LINE
  5
3c3
100
AcDbEntity
  8
0
 62
5
100
AcDbLine
 10
56.706508
 20
170.269287
 30
0.0
 11
55.577619
 21
168.858176
 31
0.0
  0
LINE
  5
3c4
100
AcDbEntity
  8
0
 62
5
100
AcDbLine
 10
55.577619
 20
168.858176
 30
0.0
 11
45.417619
 21
168.858176
 31
0.0
  0
LINE
  5
3c5
100
AcDbEntity
  8
0
 62
5
100
AcDbLine
 10
45.417619
 20
168.858176
 30
0.0
 11
44.288730
 21
170.269287
 31
0.0
  0
LINE
  5
3c6
100
AcDbEntity
  8
0
 62
1
100
AcDbLine
 10
64.608730
 20
169.422620
 30
0.0
 11
56.706508
 21
169.422620
 31
0.0
  0
LINE
  5
3c7
100
AcDbEntity
  8
0
 62
1
100
AcDbLine
 10
36.386508
 20
169.422620
 30
0.0
 11
44.288730
 21
169.422620
 31
0.0
  0
LINE
  5
3c8
100
AcDbEntity
  8
0
 62
5
100
AcDbLine
 10
64.608730
 20
197.644842
 30
0.0
 11
64.608730
 21
187.767064
 31
0.0
  0
LINE
  5
3c9
100
AcDbEntity
  8
0
 62
5
100
AcDbLine
 10
64.608730
 20
187.767064
 30
0.0
 11
65.173174
 21
187.767064
 31
0.0
  0
LINE
  5
3ca
100
AcDbEntity
  8
0
 62
5
100
AcDbLine
 10
65.173174
 20
187.767064
 30
0.0
 11
65.173174
 21
189.460398
 31
0.0
  0
SPLINE
  5
3cb
100
AcDbEntity
  8
0
 62
5
100
AcDbSpline
 70
0
 71
3
 72
10
 73
6
 74
4
 40
0.000000
 40
0.000000
 40
0.000000
 40
0.000000
 40
1.743687
 40
3.211832
 40
3.851412
 40
3.851412
 40
3.851412
 40
3.851412
 10
32.435396
 20
179.300398
 30
0.0
 10
32.872292
 20
178.907469
 30
0.0
 10
33.677044
 20
178.183702
 30
0.0
 10
34.923045
 20
177.773983
 30
0.0
 10
35.612769
 20
177.645924
 30
0.0
 10
35.822063
 20
177.607064
 30
0.0
 11
32.435396
 21
179.300398
 31
0.0
 11
33.815150
 21
178.234225
 31
0.0
 11
35.194903
 21
177.732497
 31
0.0
 11
35.822063
 21
177.607064
 31
0.0
  0
SPLINE
  5
3cc
100
AcDbEntity
  8
0
 62
5
100
AcDbSpline
 70
0
 71
3
 72
10
 73
6
 74
4
 40
0.000000
 40
0.000000
 40
0.000000
 40
0.000000
 40
0.639581
 40
2.107726
 40
3.851412
 40
3.851412
 40
3.851412
 40
3.851412
 10
65.173174
 20
189.460398
 30
0.0
 10
65.382468
 20
189.421539
 30
0.0
 10
66.072193
 20
189.293479
 30
0.0
 10
67.318193
 20
188.883760
 30
0.0
 10
68.122945
 20
188.159993
 30
0.0
 10
68.559841
 20
187.767064
 30
0.0
 11
65.173174
 21
189.460398
 31
0.0
 11
65.800335
 21
189.334966
 31
0.0
 11
67.180088
 21
188.833237
 31
0.0
 11
68.559841
 21
187.767064
 31
0.0
  0
SPLINE
  5
3cd
100
AcDbEntity
  8
0
 62
5
100
AcDbSpline
 70
0
 71
3
 72
10
 73
6
 74
4
 40
0.000000
 40
0.000000
 40
0.000000
 40
0.000000
 40
2.923537
 40
5.996623
 40
8.920160
 40
8.920160
 40
8.920160
 40
8.920160
 10
68.559841
 20
187.767064
 30
0.0
 10
69.009155
 20
186.892906
 30
0.0
 10
69.930768
 20
185.099873
 30
0.0
 10
69.930768
 20
181.967589
 30
0.0
 10
69.009155
 20
180.174556
 30
0.0
 10
68.559841
 20
179.300398
 30
0.0
 11
68.559841
 21
187.767064
 31
0.0
 11
69.688730
 21
185.070274
 31
0.0
 11
69.688730
 21
181.997188
 31
0.0
 11
68.559841
 21
179.300398
 31
0.0
  0
LINE
  5
3ce
100
AcDbEntity
  8
0
 62
5
100
AcDbLine
 10
65.173174
 20
177.607064
 30
0.0
 11
65.173174
 21
179.300398
 31
0.0
  0
LINE
  5
3cf
100
AcDbEntity
  8
0
 62
5
100
AcDbLine
 10
65.173174
 20
179.300398
 30
0.0
 11
64.608730
 21
179.300398
 31
0.0
  0
LINE
  5
3d0
100
AcDbEntity
  8
0
 62
5
100
AcDbLine
 10
64.608730
 20
179.300398
 30
0.0
 11
64.608730
 21
169.422620
 31
0.0
  0
LINE
  5
3d1
100
AcDbEntity
  8
0
 62
1
100
AcDbLine
 10
64.608730
 20
185.791509
 30
0.0
 11
64.608730
 21
181.275953
 31
0.0
  0
LINE
  5
3d2
100
AcDbEntity
  8
0
 62
5
100
AcDbLine
 10
64.608730
 20
197.644842
 30
0.0
 11
70.253174
 21
192.282620
 31
0.0
  0
LINE
  5
3d3
100
AcDbEntity
  8
0
 62
5
100
AcDbLine
 10
70.253174
 20
192.282620
 30
0.0
 11
87.186508
 21
192.282620
 31
0.0
  0
LINE
  5
3d4
100
AcDbEntity
  8
0
 62
5
100
AcDbLine
 10
87.186508
 20
192.282620
 30
0.0
 11
92.830952
 21
197.644842
 31
0.0
  0
LINE
  5
3d5
100
AcDbEntity
  8
0
 62
5
100
AcDbLine
 10
72.510952
 20
198.491509
 30
0.0
 11
73.639841
 21
197.080398
 31
0.0
  0
LINE
  5
3d6
100
AcDbEntity
  8
0
 62
5
100
AcDbLine
 10
73.639841
 20
197.080398
 30
0.0
 11
83.799841
 21
197.080398
 31
0.0
  0
LINE
  5
3d7
100
AcDbEntity
  8
0
 62
5
100
AcDbLine
 10
83.799841
 20
197.080398
 30
0.0
 11
84.928730
 21
198.491509
 31
0.0
  0
LINE
  5
3d8
100
AcDbEntity
  8
0
 62
1
100
AcDbLine
 10
64.608730
 20
197.644842
 30
0.0
 11
72.510952
 21
197.644842
 31
0.0
  0
LINE
  5
3d9
100
AcDbEntity
  8
0
 62
1
100
AcDbLine
 10
92.830952
 20
197.644842
 30
0.0
 11
84.928730
 21
197.644842
 31
0.0
  0
LINE
  5
3da
100
AcDbEntity
  8
0
 62
5
100
AcDbLine
 10
92.830952
 20
197.644842
 30
0.0
 11
102.708730
 21
197.644842
 31
0.0
  0
LINE
  5
3db
100
AcDbEntity
  8
0
 62
5
100
AcDbLine
 10
102.708730
 20
197.644842
 30
0.0
 11
102.708730
 21
197.080398
 31
0.0
  0
LINE
  5
3dc
100
AcDbEntity
  8
0
 62
5
100
AcDbLine
 10
102.708730
 20
197.080398
 30
0.0
 11
101.015396
 21
197.080398
 31
0.0
  0
SPLINE
  5
3dd
100
AcDbEntity
  8
0
 62
5
100
AcDbSpline
 70
0
 71
3
 72
10
 73
6
 74
4
 40
0.000000
 40
0.000000
 40
0.000000
 40
0.000000
 40
1.743687
 40
3.211832
 40
3.851412
 40
3.851412
 40
3.851412
 40
3.851412
 10
68.559841
 20
179.300398
 30
0.0
 10
68.122945
 20
178.907469
 30
0.0
 10
67.318193
 20
178.183702
 30
0.0
 10
66.072193
 20
177.773983
 30
0.0
 10
65.382468
 20
177.645924
 30
0.0
 10
65.173174
 20
177.607064
 30
0.0
 11
68.559841
 21
179.300398
 31
0.0
 11
67.180088
 21
178.234225
 31
0.0
 11
65.800335
 21
177.732497
 31
0.0
 11
65.173174
 21
177.607064
 31
0.0
  0
SPLINE
  5
3de
100
AcDbEntity
  8
0
 62
5
100
AcDbSpline
 70
0
 71
3
 72
10
 73
6
 74
4
 40
0.000000
 40
0.000000
 40
0.000000
 40
0.000000
 40
0.639581
 40
2.107726
 40
3.851412
 40
3.851412
 40
3.851412
 40
3.851412
 10
101.015396
 20
197.080398
 30
0.0
 10
101.054256
 20
196.871104
 30
0.0
 10
101.182315
 20
196.181379
 30
0.0
 10
101.592034
 20
194.935379
 30
0.0
 10
102.315801
 20
194.130627
 30
0.0
 10
102.708730
 20
193.693731
 30
0.0
 11
101.015396
 21
197.080398
 31
0.0
 11
101.140829
 21
196.453237
 31
0.0
 11
101.642557
 21
195.073484
 31
0.0
 11
102.708730
 21
193.693731
 31
0.0
  0
SPLINE
  5
3df
100
AcDbEntity
  8
0
 62
5
100
AcDbSpline
 70
0
 71
3
 72
10
 73
6
 74
4
 40
0.000000
 40
0.000000
 40
0.000000
 40
0.000000
 40
2.923537
 40
5.996623
 40
8.920160
 40
8.920160
 40
8.920160
 40
8.920160
 10
102.708730
 20
193.693731
 30
0.0
 10
103.582888
 20
193.244417
 30
0.0
 10
105.375921
 20
192.322804
 30
0.0
 10
108.508205
 20
192.322804
 30
0.0
 10
110.301238
 20
193.244417
 30
0.0
 10
111.175396
 20
193.693731
 30
0.0
 11
102.708730
 21
193.693731
 31
0.0
 11
105.405520
 21
192.564842
 31
0.0
 11
108.478606
 21
192.564842
 31
0.0
 11
111.175396
 21
193.693731
 31
0.0
  0
LINE
  5
3e0
100
AcDbEntity
  8
0
 62
5
100
AcDbLine
 10
112.868730
 20
197.080398
 30
0.0
 11
111.175396
 21
197.080398
 31
0.0
  0
LINE
  5
3e1
100
AcDbEntity
  8
0
 62
5
100
AcDbLine
 10
111.175396
 20
197.080398
 30
0.0
 11
111.175396
 21
197.644842
 31
0.0
  0
LINE
  5
3e2
100
AcDbEntity
  8
0
 62
5
100
AcDbLine
 10
111.175396
 20
197.644842
 30
0.0
 11
121.053174
 21
197.644842
 31
0.0
  0
LINE
  5
3e3
100
AcDbEntity
  8
0
 62
1
100
AcDbLine
 10
104.684285
 20
197.644842
 30
0.0
 11
109.199841
 21
197.644842
 31
0.0
  0
LINE
  5
3e4
100
AcDbEntity
  8
0
 62
5
100
AcDbLine
 10
121.053174
 20
225.867064
 30
0.0
 11
126.415396
 21
220.222620
 31
0.0
  0
LINE
  5
3e5
100
AcDbEntity
  8
0
 62
5
100
AcDbLine
 10
126.415396
 20
220.222620
 30
0.0
 11
126.415396
 21
203.289287
 31
0.0
  0
LINE
  5
3e6
100
AcDbEntity
  8
0
 62
5
100
AcDbLine
 10
126.415396
 20
203.289287
 30
0.0
 11
121.053174
 21
197.644842
 31
0.0
  0
LINE
  5
3e7
100
AcDbEntity
  8
0
 62
5
100
AcDbLine
 10
120.206508
 20
217.964842
 30
0.0
 11
121.617619
 21
216.835953
 31
0.0
  0
LINE
  5
3e8
100
AcDbEntity
  8
0
 62
5
100
AcDbLine
 10
121.617619
 20
216.835953
 30
0.0
 11
121.617619
 21
206.675953
 31
0.0
  0
LINE
  5
3e9
100
AcDbEntity
  8
0
 62
5
100
AcDbLine
 10
121.617619
 20
206.675953
 30
0.0
 11
120.206508
 21
205.547064
 31
0.0
  0
LINE
  5
3ea
100
AcDbEntity
  8
0
 62
1
100
AcDbLine
 10
121.053174
 20
225.867064
 30
0.0
 11
121.053174
 21
217.964842
 31
0.0
  0
LINE
  5
3eb
100
AcDbEntity
  8
0
 62
1
100
AcDbLine
 10
121.053174
 20
197.644842
 30
0.0
 11
121.053174
 21
205.547064
 31
0.0
  0
LINE
  5
3ec
100
AcDbEntity
  8
0
 62
5
100
AcDbLine
 10
92.830952
 20
225.867064
 30
0.0
 11
102.708730
 21
225.867064
 31
0.0
  0
LINE
  5
3ed
100
AcDbEntity
  8
0
 62
5
100
AcDbLine
 10
102.708730
 20
225.867064
 30
0.0
 11
102.708730
 21
226.431509
 31
0.0
  0
LINE
  5
3ee
100
AcDbEntity
  8
0
 62
5
100
AcDbLine
 10
102.708730
 20
226.431509
 30
0.0
 11
101.015396
 21
226.431509
 31
0.0
  0
SPLINE
  5
3ef
100
AcDbEntity
  8
0
 62
5
100
AcDbSpline
 70
0
 71
3
 72
10
 73
6
 74
4
 40
0.000000
 40
0.000000
 40
0.000000
 40
0.000000
 40
1.743687
 40
3.211832
 40
3.851412
 40
3.851412
 40
3.851412
 40
3.851412
 10
111.175396
 20
193.693731
 30
0.0
 10
111.568325
 20
194.130627
 30
0.0
 10
112.292092
 20
194.935379
 30
0.0
 10
112.701811
 20
196.181379
 30
0.0
 10
112.829871
 20
196.871104
 30
0.0
 10
112.868730
 20
197.080398
 30
0.0
 11
111.175396
 21
193.693731
 31
0.0
 11
112.241569
 21
195.073484
 31
0.0
 11
112.743298
 21
196.453237
 31
0.0
 11
112.868730
 21
197.080398
 31
0.0
  0
SPLINE
  5
3f0
100
AcDbEntity
  8
0
 62
5
100
AcDbSpline
 70
0
 71
3
 72
10
 73
6
 74
4
 40
0.000000
 40
0.000000
 40
0.000000
 40
0.000000
 40
0.639581
 40
2.107726
 40
3.851412
 40
3.851412
 40
3.851412
 40
3.851412
 10
101.015396
 20
226.431509
 30
0.0
 10
101.054256
 20
226.640803
 30
0.0
 10
101.182315
 20
227.330527
 30
0.0
 10
101.592034
 20
228.576528
 30
0.0
 10
102.315801
 20
229.381280
 30
0.0
 10
102.708730
 20
229.818176
 30
0.0
 11
101.015396
 21
226.431509
 31
0.0
 11
101.140829
 21
227.058669
 31
0.0
 11
101.642557
 21
228.438422
 31
0.0
 11
102.708730
 21
229.818176
 31
0.0
  0
SPLINE
  5
3f1
100
AcDbEntity
  8
0
 62
5
100
AcDbSpline
 70
0
 71
3
 72
10
 73
6
 74
4
 40
0.000000
 40
0.000000
 40
0.000000
 40
0.000000
 40
2.923537
 40
5.996623
 40
8.920160
 40
8.920160
 40
8.920160
 40
8.920160
 10
102.708730
 20
229.818176
 30
0.0
 10
103.582888
 20
230.267490
 30
0.0
 10
105.375921
 20
231.189103
 30
0.0
 10
108.508205
 20
231.189103
 30
0.0
 10
110.301238
 20
230.267490
 30
0.0
 10
111.175396
 20
229.818176
 30
0.0
 11
102.708730
 21
229.818176
 31
0.0
 11
105.405520
 21
230.947064
 31
0.0
 11
108.478606
 21
230.947064
 31
0.0
 11
111.175396
 21
229.818176
 31
0.0
  0
LINE
  5
3f2
100
AcDbEntity
  8
0
 62
5
100
AcDbLine
 10
112.868730
 20
226.431509
 30
0.0
 11
111.175396
 21
226.431509
 31
0.0
  0
LINE
  5
3f3
100
AcDbEntity
  8
0
 62
5
100
AcDbLine
 10
111.175396
 20
226.431509
 30
0.0
 11
111.175396
 21
225.867064
 31
0.0
  0
LINE
  5
3f4
100
AcDbEntity
  8
0
 62
5
100
AcDbLine
 10
111.175396
 20
225.867064
 30
0.0
 11
121.053174
 21
225.867064
 31
0.0
  0
LINE
  5
3f5
100
AcDbEntity
  8
0
 62
1
100
AcDbLine
 10
104.684285
 20
225.867064
 30
0.0
 11
109.199841
 21
225.867064
 31
0.0
  0
LINE
  5
3f6
100
AcDbEntity
  8
0
 62
5
100
AcDbLine
 10
64.608730
 20
225.867064
 30
0.0
 11
70.253174
 21
231.229287
 31
0.0
  0
LINE
  5
3f7
100
AcDbEntity
  8
0
 62
5
100
AcDbLine
 10
70.253174
 20
231.229287
 30
0.0
 11
87.186508
 21
231.229287
 31
0.0
  0
LINE
  5
3f8
100
AcDbEntity
  8
0
 62
5
100
AcDbLine
 10
87.186508
 20
231.229287
 30
0.0
 11
92.830952
 21
225.867064
 31
0.0
  0
LINE
  5
3f9
100
AcDbEntity
  8
0
 62
5
100
AcDbLine
 10
72.510952
 20
225.020398
 30
0.0
 11
73.639841
 21
226.431509
 31
0.0
  0
LINE
  5
3fa
100
AcDbEntity
  8
0
 62
5
100
AcDbLine
 10
73.639841
 20
226.431509
 30
0.0
 11
83.799841
 21
226.431509
 31
0.0
  0
LINE
  5
3fb
100
AcDbEntity
  8
0
 62
5
100
AcDbLine
 10
83.799841
 20
226.431509
 30
0.0
 11
84.928730
 21
225.020398
 31
0.0
  0
LINE
  5
3fc
100
AcDbEntity
  8
0
 62
1
100
AcDbLine
 10
64.608730
 20
225.867064
 30
0.0
 11
72.510952
 21
225.867064
 31
0.0
  0
LINE
  5
3fd
100
AcDbEntity
  8
0
 62
1
100
AcDbLine
 10
92.830952
 20
225.867064
 30
0.0
 11
84.928730
 21
225.867064
 31
0.0
  0
LINE
  5
3fe
100
AcDbEntity
  8
0
 62
5
100
AcDbLine
 10
64.608730
 20
225.867064
 30
0.0
 11
64.608730
 21
235.744842
 31
0.0
  0
LINE
  5
3ff
100
AcDbEntity
  8
0
 62
5
100
AcDbLine
 10
64.608730
 20
235.744842
 30
0.0
 11
65.173174
 21
235.744842
 31
0.0
  0
LINE
  5
400
100
AcDbEntity
  8
0
 62
5
100
AcDbLine
 10
65.173174
 20
235.744842
 30
0.0
 11
65.173174
 21
234.051509
 31
0.0
  0
SPLINE
  5
401
100
AcDbEntity
  8
0
 62
5
100
AcDbSpline
 70
0
 71
3
 72
10
 73
6
 74
4
 40
0.000000
 40
0.000000
 40
0.000000
 40
0.000000
 40
1.743687
 40
3.211832
 40
3.851412
 40
3.851412
 40
3.851412
 40
3.851412
 10
111.175396
 20
229.818176
 30
0.0
 10
111.568325
 20
229.381280
 30
0.0
 10
112.292092
 20
228.576528
 30
0.0
 10
112.701811
 20
227.330527
 30
0.0
 10
112.829871
 20
226.640803
 30
0.0
 10
112.868730
 20
226.431509
 30
0.0
 11
111.175396
 21
229.818176
 31
0.0
 11
112.241569
 21
228.438422
 31
0.0
 11
112.743298
 21
227.058669
 31
0.0
 11
112.868730
 21
226.431509
 31
0.0
  0
SPLINE
  5
402
100
AcDbEntity
  8
0
 62
5
100
AcDbSpline
 70
0
 71
3
 72
10
 73
6
 74
4
 40
0.000000
 40
0.000000
 40
0.000000
 40
0.000000
 40
0.639581
 40
2.107726
 40
3.851412
 40
3.851412
 40
3.851412
 40
3.851412
 10
65.173174
 20
234.051509
 30
0.0
 10
65.382468
 20
234.090368
 30
0.0
 10
66.072193
 20
234.218428
 30
0.0
 10
67.318193
 20
234.628147
 30
0.0
 10
68.122945
 20
235.351913
 30
0.0
 10
68.559841
 20
235.744842
 30
0.0
 11
65.173174
 21
234.051509
 31
0.0
 11
65.800335
 21
234.176941
 31
0.0
 11
67.180088
 21
234.678669
 31
0.0
 11
68.559841
 21
235.744842
 31
0.0
  0
SPLINE
  5
403
100
AcDbEntity
  8
0
 62
5
100
AcDbSpline
 70
0
 71
3
 72
10
 73
6
 74
4
 40
0.000000
 40
0.000000
 40
0.000000
 40
0.000000
 40
2.923537
 40
5.996623
 40
8.920160
 40
8.920160
 40
8.920160
 40
8.920160
 10
68.559841
 20
235.744842
 30
0.0
 10
69.009155
 20
236.619001
 30
0.0
 10
69.930768
 20
238.412034
 30
0.0
 10
69.930768
 20
241.544317
 30
0.0
 10
69.009155
 20
243.337351
 30
0.0
 10
68.559841
 20
244.211509
 30
0.0
 11
68.559841
 21
235.744842
 31
0.0
 11
69.688730
 21
238.441632
 31
0.0
 11
69.688730
 21
241.514719
 31
0.0
 11
68.559841
 21
244.211509
 31
0.0
  0
LINE
  5
404
100
AcDbEntity
  8
0
 62
5
100
AcDbLine
 10
65.173174
 20
245.904842
 30
0.0
 11
65.173174
 21
244.211509
 31
0.0
  0
LINE
  5
405
100
AcDbEntity
  8
0
 62
5
100
AcDbLine
 10
65.173174
 20
244.211509
 30
0.0
 11
64.608730
 21
244.211509
 31
0.0
  0
LINE
  5
406
100
AcDbEntity
  8
0
 62
5
100
AcDbLine
 10
64.608730
 20
244.211509
 30
0.0
 11
64.608730
 21
254.089287
 31
0.0
  0
LINE
  5
407
100
AcDbEntity
  8
0
 62
1
100
AcDbLine
 10
64.608730
 20
237.720398
 30
0.0
 11
64.608730
 21
242.235953
 31
0.0
  0
LINE
  5
408
100
AcDbEntity
  8
0
 62
5
100
AcDbLine
 10
36.386508
 20
254.089286
 30
0.0
 11
42.030952
 21
259.451508
 31
0.0
  0
LINE
  5
409
100
AcDbEntity
  8
0
 62
5
100
AcDbLine
 10
42.030952
 20
259.451508
 30
0.0
 11
58.964285
 21
259.451508
 31
0.0
  0
LINE
  5
40a
100
AcDbEntity
  8
0
 62
5
100
AcDbLine
 10
58.964285
 20
259.451508
 30
0.0
 11
64.608730
 21
254.089286
 31
0.0
  0
LINE
  5
40b
100
AcDbEntity
  8
0
 62
5
100
AcDbLine
 10
44.288730
 20
253.242619
 30
0.0
 11
45.417619
 21
254.653731
 31
0.0
  0
LINE
  5
40c
100
AcDbEntity
  8
0
 62
5
100
AcDbLine
 10
45.417619
 20
254.653731
 30
0.0
 11
55.577619
 21
254.653731
 31
0.0
  0
LINE
  5
40d
100
AcDbEntity
  8
0
 62
5
100
AcDbLine
 10
55.577619
 20
254.653731
 30
0.0
 11
56.706508
 21
253.242619
 31
0.0
  0
LINE
  5
40e
100
AcDbEntity
  8
0
 62
1
100
AcDbLine
 10
36.386508
 20
254.089286
 30
0.0
 11
44.288730
 21
254.089286
 31
0.0
  0
LINE
  5
40f
100
AcDbEntity
  8
0
 62
1
100
AcDbLine
 10
64.608730
 20
254.089286
 30
0.0
 11
56.706508
 21
254.089286
 31
0.0
  0
LINE
  5
410
100
AcDbEntity
  8
0
 62
5
100
AcDbLine
 10
36.386508
 20
225.867064
 30
0.0
 11
36.386508
 21
235.744842
 31
0.0
  0
LINE
  5
411
100
AcDbEntity
  8
0
 62
5
100
AcDbLine
 10
36.386508
 20
235.744842
 30
0.0
 11
35.822063
 21
235.744842
 31
0.0
  0
LINE
  5
412
100
AcDbEntity
  8
0
 62
5
100
AcDbLine
 10
35.822063
 20
235.744842
 30
0.0
 11
35.822063
 21
234.051509
 31
0.0
  0
SPLINE
  5
413
100
AcDbEntity
  8
0
 62
5
100
AcDbSpline
 70
0
 71
3
 72
10
 73
6
 74
4
 40
0.000000
 40
0.000000
 40
0.000000
 40
0.000000
 40
1.743687
 40
3.211832
 40
3.851412
 40
3.851412
 40
3.851412
 40
3.851412
 10
68.559841
 20
244.211509
 30
0.0
 10
68.122945
 20
244.604438
 30
0.0
 10
67.318193
 20
245.328204
 30
0.0
 10
66.072193
 20
245.737924
 30
0.0
 10
65.382468
 20
245.865983
 30
0.0
 10
65.173174
 20
245.904842
 30
0.0
 11
68.559841
 21
244.211509
 31
0.0
 11
67.180088
 21
245.277682
 31
0.0
 11
65.800335
 21
245.779410
 31
0.0
 11
65.173174
 21
245.904842
 31
0.0
  0
SPLINE
  5
414
100
AcDbEntity
  8
0
 62
5
100
AcDbSpline
 70
0
 71
3
 72
10
 73
6
 74
4
 40
0.000000
 40
0.000000
 40
0.000000
 40
0.000000
 40
0.639581
 40
2.107726
 40
3.851412
 40
3.851412
 40
3.851412
 40
3.851412
 10
35.822063
 20
234.051509
 30
0.0
 10
35.612769
 20
234.090368
 30
0.0
 10
34.923045
 20
234.218428
 30
0.0
 10
33.677044
 20
234.628147
 30
0.0
 10
32.872292
 20
235.351913
 30
0.0
 10
32.435396
 20
235.744842
 30
0.0
 11
35.822063
 21
234.051509
 31
0.0
 11
35.194903
 21
234.176941
 31
0.0
 11
33.815150
 21
234.678669
 31
0.0
 11
32.435396
 21
235.744842
 31
0.0
  0
SPLINE
  5
415
100
AcDbEntity
  8
0
 62
5
100
AcDbSpline
 70
0
 71
3
 72
10
 73
6
 74
4
 40
0.000000
 40
0.000000
 40
0.000000
 40
0.000000
 40
2.923537
 40
5.996623
 40
8.920160
 40
8.920160
 40
8.920160
 40
8.920160
 10
32.435396
 20
235.744842
 30
0.0
 10
31.986082
 20
236.619001
 30
0.0
 10
31.064469
 20
238.412034
 30
0.0
 10
31.064469
 20
241.544317
 30
0.0
 10
31.986082
 20
243.337351
 30
0.0
 10
32.435396
 20
244.211509
 30
0.0
 11
32.435396
 21
235.744842
 31
0.0
 11
31.306508
 21
238.441632
 31
0.0
 11
31.306508
 21
241.514719
 31
0.0
 11
32.435396
 21
244.211509
 31
0.0
  0
LINE
  5
416
100
AcDbEntity
  8
0
 62
5
100
AcDbLine
 10
35.822063
 20
245.904842
 30
0.0
 11
35.822063
 21
244.211509
 31
0.0
  0
LINE
  5
417
100
AcDbEntity
  8
0
 62
5
100
AcDbLine
 10
35.822063
 20
244.211509
 30
0.0
 11
36.386508
 21
244.211509
 31
0.0
  0
LINE
  5
418
100
AcDbEntity
  8
0
 62
5
100
AcDbLine
 10
36.386508
 20
244.211509
 30
0.0
 11
36.386508
 21
254.089287
 31
0.0
  0
LINE
  5
419
100
AcDbEntity
  8
0
 62
1
100
AcDbLine
 10
36.386508
 20
237.720398
 30
0.0
 11
36.386508
 21
242.235953
 31
0.0
  0
LINE
  5
41a
100
AcDbEntity
  8
0
 62
5
100
AcDbLine
 10
36.386508
 20
225.867064
 30
0.0
 11
30.742063
 21
231.229287
 31
0.0
  0
LINE
  5
41b
100
AcDbEntity
  8
0
 62
5
100
AcDbLine
 10
30.742063
 20
231.229287
 30
0.0
 11
13.808730
 21
231.229287
 31
0.0
  0
LINE
  5
41c
100
AcDbEntity
  8
0
 62
5
100
AcDbLine
 10
13.808730
 20
231.229287
 30
0.0
 11
8.164285
 21
225.867064
 31
0.0
  0
LINE
  5
41d
100
AcDbEntity
  8
0
 62
5
100
AcDbLine
 10
28.484285
 20
225.020398
 30
0.0
 11
27.355396
 21
226.431509
 31
0.0
  0
LINE
  5
41e
100
AcDbEntity
  8
0
 62
5
100
AcDbLine
 10
27.355396
 20
226.431509
 30
0.0
 11
17.195396
 21
226.431509
 31
0.0
  0
LINE
  5
41f
100
AcDbEntity
  8
0
 62
5
100
AcDbLine
 10
17.195396
 20
226.431509
 30
0.0
 11
16.066508
 21
225.020398
 31
0.0
  0
LINE
  5
420
100
AcDbEntity
  8
0
 62
1
100
AcDbLine
 10
36.386508
 20
225.867064
 30
0.0
 11
28.484285
 21
225.867064
 31
0.0
  0
LINE
  5
421
100
AcDbEntity
  8
0
 62
1
100
AcDbLine
 10
8.164285
 20
225.867064
 30
0.0
 11
16.066508
 21
225.867064
 31
0.0
  0
LINE
  5
422
100
AcDbEntity
  8
0
 62
1
100
AcDbLine
 10
36.386508
 20
225.867064
 30
0.0
 11
36.386508
 21
197.644842
 31
0.0
  0
LINE
  5
423
100
AcDbEntity
  8
0
 62
1
100
AcDbLine
 10
36.386508
 20
225.867064
 30
0.0
 11
64.608730
 21
225.867064
 31
0.0
  0
LINE
  5
424
100
AcDbEntity
  8
0
 62
1
100
AcDbLine
 10
36.386508
 20
197.644842
 30
0.0
 11
64.608730
 21
197.644842
 31
0.0
  0
LINE
  5
425
100
AcDbEntity
  8
0
 62
1
100
AcDbLine
 10
64.608730
 20
225.867064
 30
0.0
 11
64.608730
 21
197.644842
 31
0.0
  0
LINE
  5
426
100
AcDbEntity
  8
0
 62
1
100
AcDbLine
 10
92.830952
 20
225.867064
 30
0.0
 11
92.830952
 21
197.644842
 31
0.0
  0
LINE
  5
427
100
AcDbEntity
  8
0
 62
5
100
AcDbLine
 10
194.602066
 20
123.456979
 30
0.0
 11
199.540955
 21
114.902573
 31
0.0
  0
LINE
  5
428
100
AcDbEntity
  8
0
 62
5
100
AcDbLine
 10
199.540955
 20
114.902573
 30
0.0
 11
200.029778
 21
115.184795
 31
0.0
  0
LINE
  5
429
100
AcDbEntity
  8
0
 62
5
100
AcDbLine
 10
200.029778
 20
115.184795
 30
0.0
 11
199.183111
 21
116.651264
 31
0.0
  0
SPLINE
  5
42a
100
AcDbEntity
  8
0
 62
5
100
AcDbSpline
 70
0
 71
3
 72
10
 73
6
 74
4
 40
0.000000
 40
0.000000
 40
0.000000
 40
0.000000
 40
1.743687
 40
3.211832
 40
3.851412
 40
3.851412
 40
3.851412
 40
3.851412
 10
32.435396
 20
244.211509
 30
0.0
 10
32.872292
 20
244.604438
 30
0.0
 10
33.677044
 20
245.328204
 30
0.0
 10
34.923045
 20
245.737924
 30
0.0
 10
35.612769
 20
245.865983
 30
0.0
 10
35.822063
 20
245.904842
 30
0.0
 11
32.435396
 21
244.211509
 31
0.0
 11
33.815150
 21
245.277682
 31
0.0
 11
35.194903
 21
245.779410
 31
0.0
 11
35.822063
 21
245.904842
 31
0.0
  0
SPLINE
  5
42b
100
AcDbEntity
  8
0
 62
5
100
AcDbSpline
 70
0
 71
3
 72
10
 73
6
 74
4
 40
0.000000
 40
0.000000
 40
0.000000
 40
0.000000
 40
0.639581
 40
2.107726
 40
3.851414
 40
3.851414
 40
3.851414
 40
3.851414
 10
199.183111
 20
116.651264
 30
0.0
 10
199.383795
 20
116.722258
 30
0.0
 10
200.045143
 20
116.956218
 30
0.0
 10
201.329071
 20
117.224391
 30
0.0
 10
202.387891
 20
116.999967
 30
0.0
 10
202.962719
 20
116.878128
 30
0.0
 11
199.183111
 21
116.651264
 31
0.0
 11
199.788964
 21
116.856217
 31
0.0
 11
201.234730
 21
117.111585
 31
0.0
 11
202.962719
 21
116.878128
 31
0.0
  0
SPLINE
  5
42c
100
AcDbEntity
  8
0
 62
5
100
AcDbSpline
 70
0
 71
3
 72
10
 73
6
 74
4
 40
0.000000
 40
0.000000
 40
0.000000
 40
0.000000
 40
2.923536
 40
5.996623
 40
8.920159
 40
8.920159
 40
8.920159
 40
8.920159
 10
202.962719
 20
116.878128
 30
0.0
 10
203.788916
 20
116.345742
 30
0.0
 10
205.483572
 20
115.253737
 30
0.0
 10
207.049714
 20
112.541099
 30
0.0
 10
207.148091
 20
110.527481
 30
0.0
 10
207.196052
 20
109.545780
 30
0.0
 11
202.962719
 21
116.878128
 31
0.0
 11
205.288760
 21
115.107084
 31
0.0
 11
206.825303
 21
112.445713
 31
0.0
 11
207.196052
 21
109.545780
 31
0.0
  0
LINE
  5
42d
100
AcDbEntity
  8
0
 62
5
100
AcDbLine
 10
205.109778
 20
106.385978
 30
0.0
 11
204.263111
 21
107.852447
 31
0.0
  0
LINE
  5
42e
100
AcDbEntity
  8
0
 62
5
100
AcDbLine
 10
204.263111
 20
107.852447
 30
0.0
 11
203.774288
 21
107.570225
 31
0.0
  0
LINE
  5
42f
100
AcDbEntity
  8
0
 62
5
100
AcDbLine
 10
203.774288
 20
107.570225
 30
0.0
 11
208.713177
 21
99.015818
 31
0.0
  0
LINE
  5
430
100
AcDbEntity
  8
0
 62
1
100
AcDbLine
 10
200.528733
 20
113.191691
 30
0.0
 11
202.786511
 21
109.281107
 31
0.0
  0
LINE
  5
431
100
AcDbEntity
  8
0
 62
5
100
AcDbLine
 10
194.602060
 20
123.456977
 30
0.0
 11
196.423658
 21
131.026321
 31
0.0
  0
LINE
  5
432
100
AcDbEntity
  8
0
 62
5
100
AcDbLine
 10
196.423658
 20
131.026321
 30
0.0
 11
187.956992
 21
145.691016
 31
0.0
  0
LINE
  5
433
100
AcDbEntity
  8
0
 62
5
100
AcDbLine
 10
187.956992
 20
145.691016
 30
0.0
 11
180.490949
 21
147.898138
 31
0.0
  0
LINE
  5
434
100
AcDbEntity
  8
0
 62
5
100
AcDbLine
 10
189.917713
 20
129.877168
 30
0.0
 11
190.575328
 21
131.560370
 31
0.0
  0
LINE
  5
435
100
AcDbEntity
  8
0
 62
5
100
AcDbLine
 10
190.575328
 20
131.560370
 30
0.0
 11
185.495328
 21
140.359189
 31
0.0
  0
LINE
  5
436
100
AcDbEntity
  8
0
 62
5
100
AcDbLine
 10
185.495328
 20
140.359189
 30
0.0
 11
183.708825
 21
140.631280
 31
0.0
  0
LINE
  5
437
100
AcDbEntity
  8
0
 62
1
100
AcDbLine
 10
194.602060
 20
123.456977
 30
0.0
 11
190.650949
 21
130.300501
 31
0.0
  0
LINE
  5
438
100
AcDbEntity
  8
0
 62
1
100
AcDbLine
 10
180.490949
 20
147.898138
 30
0.0
 11
184.442060
 21
141.054613
 31
0.0
  0
LINE
  5
439
100
AcDbEntity
  8
0
 62
5
100
AcDbLine
 10
166.379835
 20
123.456974
 30
0.0
 11
171.318724
 21
132.011380
 31
0.0
  0
LINE
  5
43a
100
AcDbEntity
  8
0
 62
5
100
AcDbLine
 10
171.318724
 20
132.011380
 30
0.0
 11
170.829901
 21
132.293603
 31
0.0
  0
LINE
  5
43b
100
AcDbEntity
  8
0
 62
5
100
AcDbLine
 10
170.829901
 20
132.293603
 30
0.0
 11
169.983235
 21
130.827134
 31
0.0
  0
SPLINE
  5
43c
100
AcDbEntity
  8
0
 62
5
100
AcDbSpline
 70
0
 71
3
 72
10
 73
6
 74
4
 40
0.000000
 40
0.000000
 40
0.000000
 40
0.000000
 40
1.743687
 40
3.211832
 40
3.851413
 40
3.851413
 40
3.851413
 40
3.851413
 10
207.196052
 20
109.545780
 30
0.0
 10
207.014153
 20
108.987046
 30
0.0
 10
206.679100
 20
107.957870
 30
0.0
 10
205.804892
 20
106.980043
 30
0.0
 10
205.271602
 20
106.524278
 30
0.0
 10
205.109778
 20
106.385978
 30
0.0
 11
207.196052
 21
109.545780
 31
0.0
 11
206.534236
 21
107.932571
 31
0.0
 11
205.590199
 21
106.808185
 31
0.0
 11
205.109778
 21
106.385978
 31
0.0
  0
SPLINE
  5
43d
100
AcDbEntity
  8
0
 62
5
100
AcDbSpline
 70
0
 71
3
 72
10
 73
6
 74
4
 40
0.000000
 40
0.000000
 40
0.000000
 40
0.000000
 40
0.639580
 40
2.107725
 40
3.851413
 40
3.851413
 40
3.851413
 40
3.851413
 10
169.983235
 20
130.827134
 30
0.0
 10
169.821410
 20
130.965434
 30
0.0
 10
169.288121
 20
131.421198
 30
0.0
 10
168.413913
 20
132.399025
 30
0.0
 10
168.078859
 20
133.428202
 30
0.0
 10
167.896961
 20
133.986936
 30
0.0
 11
169.983235
 21
130.827134
 31
0.0
 11
169.502814
 21
131.249341
 31
0.0
 11
168.558777
 21
132.373727
 31
0.0
 11
167.896961
 21
133.986936
 31
0.0
  0
SPLINE
  5
43e
100
AcDbEntity
  8
0
 62
5
100
AcDbSpline
 70
0
 71
3
 72
10
 73
6
 74
4
 40
0.000000
 40
0.000000
 40
0.000000
 40
0.000000
 40
2.923536
 40
5.996623
 40
8.920159
 40
8.920159
 40
8.920159
 40
8.920159
 10
167.896961
 20
133.986936
 30
0.0
 10
167.944922
 20
134.968636
 30
0.0
 10
168.043299
 20
136.982255
 30
0.0
 10
169.609440
 20
139.694892
 30
0.0
 10
171.304097
 20
140.786898
 30
0.0
 10
172.130294
 20
141.319284
 30
0.0
 11
167.896961
 21
133.986936
 31
0.0
 11
168.267710
 21
136.886869
 31
0.0
 11
169.804253
 21
139.548240
 31
0.0
 11
172.130294
 21
141.319284
 31
0.0
  0
LINE
  5
43f
100
AcDbEntity
  8
0
 62
5
100
AcDbLine
 10
175.909901
 20
141.092420
 30
0.0
 11
175.063235
 21
139.625951
 31
0.0
  0
LINE
  5
440
100
AcDbEntity
  8
0
 62
5
100
AcDbLine
 10
175.063235
 20
139.625951
 30
0.0
 11
175.552058
 21
139.343728
 31
0.0
  0
LINE
  5
441
100
AcDbEntity
  8
0
 62
5
100
AcDbLine
 10
175.552058
 20
139.343728
 30
0.0
 11
180.490947
 21
147.898135
 31
0.0
  0
LINE
  5
442
100
AcDbEntity
  8
0
 62
1
100
AcDbLine
 10
172.306502
 20
133.722262
 30
0.0
 11
174.564280
 21
137.632846
 31
0.0
  0
LINE
  5
443
100
AcDbEntity
  8
0
 62
5
100
AcDbLine
 10
166.379830
 20
123.456977
 30
0.0
 11
158.913788
 21
121.249855
 31
0.0
  0
LINE
  5
444
100
AcDbEntity
  8
0
 62
5
100
AcDbLine
 10
158.913788
 20
121.249855
 30
0.0
 11
150.447121
 21
106.585159
 31
0.0
  0
LINE
  5
445
100
AcDbEntity
  8
0
 62
5
100
AcDbLine
 10
150.447121
 20
106.585159
 30
0.0
 11
152.268719
 21
99.015815
 31
0.0
  0
LINE
  5
446
100
AcDbEntity
  8
0
 62
5
100
AcDbLine
 10
163.161955
 20
116.190118
 30
0.0
 11
161.375451
 21
115.918028
 31
0.0
  0
LINE
  5
447
100
AcDbEntity
  8
0
 62
5
100
AcDbLine
 10
161.375451
 20
115.918028
 30
0.0
 11
156.295451
 21
107.119208
 31
0.0
  0
LINE
  5
448
100
AcDbEntity
  8
0
 62
5
100
AcDbLine
 10
156.295451
 20
107.119208
 30
0.0
 11
156.953066
 21
105.436007
 31
0.0
  0
LINE
  5
449
100
AcDbEntity
  8
0
 62
1
100
AcDbLine
 10
166.379830
 20
123.456977
 30
0.0
 11
162.428719
 21
116.613452
 31
0.0
  0
LINE
  5
44a
100
AcDbEntity
  8
0
 62
1
100
AcDbLine
 10
152.268719
 20
99.015815
 30
0.0
 11
156.219830
 21
105.859340
 31
0.0
  0
LINE
  5
44b
100
AcDbEntity
  8
0
 62
5
100
AcDbLine
 10
180.490947
 20
99.015818
 30
0.0
 11
170.613166
 21
99.015818
 31
0.0
  0
LINE
  5
44c
100
AcDbEntity
  8
0
 62
5
100
AcDbLine
 10
170.613166
 20
99.015818
 30
0.0
 11
170.613166
 21
98.451374
 31
0.0
  0
LINE
  5
44d
100
AcDbEntity
  8
0
 62
5
100
AcDbLine
 10
170.613166
 20
98.451374
 30
0.0
 11
172.306499
 21
98.451374
 31
0.0
  0
SPLINE
  5
44e
100
AcDbEntity
  8
0
 62
5
100
AcDbSpline
 70
0
 71
3
 72
10
 73
6
 74
4
 40
0.000000
 40
0.000000
 40
0.000000
 40
0.000000
 40
1.743688
 40
3.211833
 40
3.851414
 40
3.851414
 40
3.851414
 40
3.851414
 10
172.130294
 20
141.319284
 30
0.0
 10
172.705122
 20
141.441123
 30
0.0
 10
173.763941
 20
141.665547
 30
0.0
 10
175.047869
 20
141.397374
 30
0.0
 10
175.709218
 20
141.163414
 30
0.0
 10
175.909901
 20
141.092420
 30
0.0
 11
172.130294
 21
141.319284
 31
0.0
 11
173.858283
 21
141.552740
 31
0.0
 11
175.304049
 21
141.297373
 31
0.0
 11
175.909901
 21
141.092420
 31
0.0
  0
SPLINE
  5
44f
100
AcDbEntity
  8
0
 62
5
100
AcDbSpline
 70
0
 71
3
 72
10
 73
6
 74
4
 40
0.000000
 40
0.000000
 40
0.000000
 40
0.000000
 40
0.639581
 40
2.107726
 40
3.851412
 40
3.851412
 40
3.851412
 40
3.851412
 10
172.306499
 20
98.451374
 30
0.0
 10
172.267640
 20
98.242080
 30
0.0
 10
172.139581
 20
97.552355
 30
0.0
 10
171.729861
 20
96.306355
 30
0.0
 10
171.006095
 20
95.501603
 30
0.0
 10
170.613166
 20
95.064707
 30
0.0
 11
172.306499
 21
98.451374
 31
0.0
 11
172.181067
 21
97.824213
 31
0.0
 11
171.679339
 21
96.444460
 31
0.0
 11
170.613166
 21
95.064707
 31
0.0
  0
SPLINE
  5
450
100
AcDbEntity
  8
0
 62
5
100
AcDbSpline
 70
0
 71
3
 72
10
 73
6
 74
4
 40
0.000000
 40
0.000000
 40
0.000000
 40
0.000000
 40
2.923538
 40
5.996626
 40
8.920164
 40
8.920164
 40
8.920164
 40
8.920164
 10
170.613166
 20
95.064707
 30
0.0
 10
169.739007
 20
94.615392
 30
0.0
 10
167.945974
 20
93.693777
 30
0.0
 10
164.813688
 20
93.693777
 30
0.0
 10
163.020655
 20
94.615392
 30
0.0
 10
162.146496
 20
95.064707
 30
0.0
 11
170.613166
 21
95.064707
 31
0.0
 11
167.916375
 21
93.935816
 31
0.0
 11
164.843287
 21
93.935816
 31
0.0
 11
162.146496
 21
95.064707
 31
0.0
  0
LINE
  5
451
100
AcDbEntity
  8
0
 62
5
100
AcDbLine
 10
160.453163
 20
98.451374
 30
0.0
 11
162.146496
 21
98.451374
 31
0.0
  0
LINE
  5
452
100
AcDbEntity
  8
0
 62
5
100
AcDbLine
 10
162.146496
 20
98.451374
 30
0.0
 11
162.146496
 21
99.015818
 31
0.0
  0
LINE
  5
453
100
AcDbEntity
  8
0
 62
5
100
AcDbLine
 10
162.146496
 20
99.015818
 30
0.0
 11
152.268716
 21
99.015818
 31
0.0
  0
LINE
  5
454
100
AcDbEntity
  8
0
 62
1
100
AcDbLine
 10
168.637610
 20
99.015818
 30
0.0
 11
164.122052
 21
99.015818
 31
0.0
  0
LINE
  5
455
100
AcDbEntity
  8
0
 62
5
100
AcDbLine
 10
180.490947
 20
99.015818
 30
0.0
 11
186.135391
 21
93.653596
 31
0.0
  0
LINE
  5
456
100
AcDbEntity
  8
0
 62
5
100
AcDbLine
 10
186.135391
 20
93.653596
 30
0.0
 11
203.068724
 21
93.653596
 31
0.0
  0
LINE
  5
457
100
AcDbEntity
  8
0
 62
5
100
AcDbLine
 10
203.068724
 20
93.653596
 30
0.0
 11
208.713169
 21
99.015818
 31
0.0
  0
LINE
  5
458
100
AcDbEntity
  8
0
 62
5
100
AcDbLine
 10
188.393169
 20
99.862485
 30
0.0
 11
189.522058
 21
98.451374
 31
0.0
  0
LINE
  5
459
100
AcDbEntity
  8
0
 62
5
100
AcDbLine
 10
189.522058
 20
98.451374
 30
0.0
 11
199.682058
 21
98.451374
 31
0.0
  0
LINE
  5
45a
100
AcDbEntity
  8
0
 62
5
100
AcDbLine
 10
199.682058
 20
98.451374
 30
0.0
 11
200.810947
 21
99.862485
 31
0.0
  0
LINE
  5
45b
100
AcDbEntity
  8
0
 62
1
100
AcDbLine
 10
180.490947
 20
99.015818
 30
0.0
 11
188.393169
 21
99.015818
 31
0.0
  0
LINE
  5
45c
100
AcDbEntity
  8
0
 62
1
100
AcDbLine
 10
208.713169
 20
99.015818
 30
0.0
 11
200.810947
 21
99.015818
 31
0.0
  0
LINE
  5
45d
100
AcDbEntity
  8
0
 62
1
100
AcDbLine
 10
194.602066
 20
123.457109
 30
0.0
 11
180.490955
 21
99.015818
 31
0.0
  0
LINE
  5
45e
100
AcDbEntity
  8
0
 62
1
100
AcDbLine
 10
194.602066
 20
123.457109
 30
0.0
 11
166.379844
 21
123.457109
 31
0.0
  0
LINE
  5
45f
100
AcDbEntity
  8
0
 62
1
100
AcDbLine
 10
180.490955
 20
99.015818
 30
0.0
 11
166.379844
 21
123.457109
 31
0.0
  0
SPLINE
  5
460
100
AcDbEntity
  8
0
 62
5
100
AcDbSpline
 70
0
 71
3
 72
10
 73
6
 74
4
 40
0.000000
 40
0.000000
 40
0.000000
 40
0.000000
 40
1.743687
 40
3.211832
 40
3.851412
 40
3.851412
 40
3.851412
 40
3.851412
 10
162.146496
 20
95.064707
 30
0.0
 10
161.753567
 20
95.501603
 30
0.0
 10
161.029801
 20
96.306355
 30
0.0
 10
160.620082
 20
97.552355
 30
0.0
 10
160.492022
 20
98.242080
 30
0.0
 10
160.453163
 20
98.451374
 30
0.0
 11
162.146496
 21
95.064707
 31
0.0
 11
161.080324
 21
96.444460
 31
0.0
 11
160.578595
 21
97.824213
 31
0.0
 11
160.453163
 21
98.451374
 31
0.0
  0
ENDSEC
  0
SECTION
  2
OBJECTS
  0
DICTIONARY
  5
C
330
0
100
AcDbDictionary
  3
ACAD_GROUP
350
D
  3
ACAD_MLINESTYLE
350
17
  0
DICTIONARY
  5
D
330
C
100
AcDbDictionary
  0
DICTIONARY
  5
1A
330
C
100
AcDbDictionary
  0
DICTIONARY
  5
17
330
C
100
AcDbDictionary
  3
STANDARD
350
18
  0
DICTIONARY
  5
19
330
C
100
AcDbDictionary
  0
ENDSEC
  0
EOF
