999
DXF created by Inkscape
  0
SECTION
  2
HEADER
  9
$ACADVER
  1
AC1014
  9
$HANDSEED
  5
FFFF
  9
$MEASUREMENT
 70
     1
  0
ENDSEC
  0
SECTION
  2
TABLES
  0
TABLE
  2
VPORT
  5
8
330
0
100
AcDbSymbolTable
 70
     4
  0
VPORT
  5
2E
330
8
100
AcDbSymbolTableRecord
100
AcDbViewportTableRecord
  2
*ACTIVE
 70
     0
 10
0.0
 20
0.0
 11
1.0
 21
1.0
 12
210.0
 22
148.5
 13
0.0
 23
0.0
 14
10.0
 24
10.0
 15
10.0
 25
10.0
 16
0.0
 26
0.0
 36
1.0
 17
0.0
 27
0.0
 37
0.0
 40
341.0
 41
1.24
 42
50.0
 43
0.0
 44
0.0
 50
0.0
 51
0.0
 71
     0
 72
   100
 73
     1
 74
     3
 75
     0
 76
     0
 77
     0
 78
     0
  0
ENDTAB
  0
TABLE
  2
LTYPE
  5
5
330
0
100
AcDbSymbolTable
 70
     1
  0
LTYPE
  5
14
330
5
100
AcDbSymbolTableRecord
100
AcDbLinetypeTableRecord
  2
BYBLOCK
 70
     0
  3

 72
    65
 73
     0
 40
0.0
  0
LTYPE
  5
15
330
5
100
AcDbSymbolTableRecord
100
AcDbLinetypeTableRecord
  2
BYLAYER
 70
     0
  3

 72
    65
 73
     0
 40
0.0
  0
LTYPE
  5
16
330
5
100
AcDbSymbolTableRecord
100
AcDbLinetypeTableRecord
  2
CONTINUOUS
 70
     0
  3
Solid line
 72
    65
 73
     0
 40
0.0
  0
ENDTAB
  0
TABLE
  2
LAYER
  5
2
330
0
100
AcDbSymbolTable
 70
1
  0
LAYER
  5
10
330
2
100
AcDbSymbolTableRecord
100
AcDbLayerTableRecord
  2
0
 70
     0
 62
     7
  6
CONTINUOUS
  0
ENDTAB
  0
TABLE
  2
STYLE
  5
3
330
0
100
AcDbSymbolTable
 70
     1
  0
STYLE
  5
11
330
3
100
AcDbSymbolTableRecord
100
AcDbTextStyleTableRecord
  2
STANDARD
 70
     0
 40
0.0
 41
1.0
 50
0.0
 71
     0
 42
2.5
  3
txt
  4

  0
ENDTAB
  0
TABLE
  2
VIEW
  5
6
330
0
100
AcDbSymbolTable
 70
     0
  0
ENDTAB
  0
TABLE
  2
UCS
  5
7
330
0
100
AcDbSymbolTable
 70
     0
  0
ENDTAB
  0
TABLE
  2
APPID
  5
9
330
0
100
AcDbSymbolTable
 70
     2
  0
APPID
  5
12
330
9
100
AcDbSymbolTableRecord
100
AcDbRegAppTableRecord
  2
ACAD
 70
     0
  0
ENDTAB
  0
TABLE
  2
DIMSTYLE
  5
A
330
0
100
AcDbSymbolTable
 70
     1
  0
DIMSTYLE
105
27
330
A
100
AcDbSymbolTableRecord
100
AcDbDimStyleTableRecord
  2
ISO-25
 70
     0
  3

  4

  5

  6

  7

 40
1.0
 41
2.5
 42
0.625
 43
3.75
 44
1.25
 45
0.0
 46
0.0
 47
0.0
 48
0.0
140
2.5
141
2.5
142
0.0
143
0.03937007874016
144
1.0
145
0.0
146
1.0
147
0.625
 71
     0
 72
     0
 73
     0
 74
     0
 75
     0
 76
     0
 77
     1
 78
     8
170
     0
171
     3
172
     1
173
     0
174
     0
175
     0
176
     0
177
     0
178
     0
270
     2
271
     2
272
     2
273
     2
274
     3
340
11
275
     0
280
     0
281
     0
282
     0
283
     0
284
     8
285
     0
286
     0
287
     3
288
     0
  0
ENDTAB
  0
TABLE
  2
BLOCK_RECORD
  5
1
330
0
100
AcDbSymbolTable
 70
     1
  0
BLOCK_RECORD
  5
1F
330
1
100
AcDbSymbolTableRecord
100
AcDbBlockTableRecord
  2
*MODEL_SPACE
  0
BLOCK_RECORD
  5
1B
330
1
100
AcDbSymbolTableRecord
100
AcDbBlockTableRecord
  2
*PAPER_SPACE
  0
ENDTAB
  0
ENDSEC
  0
SECTION
  2
BLOCKS
  0
BLOCK
  5
20
330
1F
100
AcDbEntity
  8
0
100
AcDbBlockBegin
  2
*MODEL_SPACE
 70
     0
 10
0.0
 20
0.0
 30
0.0
  3
*MODEL_SPACE
  1

  0
ENDBLK
  5
21
330
1F
100
AcDbEntity
  8
0
100
AcDbBlockEnd
  0
BLOCK
  5
1C
330
1B
100
AcDbEntity
 67
     1
  8
0
100
AcDbBlockBegin
  2
*PAPER_SPACE
  1

  0
ENDBLK
  5
1D
330
1B
100
AcDbEntity
 67
     1
  8
0
100
AcDbBlockEnd
  0
ENDSEC
  0
SECTION
  2
ENTITIES
  0
LINE
  5
100
100
AcDbEntity
  8
0
 62
5
100
AcDbLine
 10
66.831800
 20
268.262415
 30
0.0
 11
71.782110
 21
273.252276
 31
0.0
  0
LINE
  5
101
100
AcDbEntity
  8
0
 62
5
100
AcDbLine
 10
71.782110
 20
273.252276
 30
0.0
 11
71.782110
 21
288.578479
 31
0.0
  0
LINE
  5
102
100
AcDbEntity
  8
0
 62
5
100
AcDbLine
 10
71.782110
 20
288.578479
 30
0.0
 11
66.831800
 21
293.568339
 31
0.0
  0
LINE
  5
103
100
AcDbEntity
  8
0
 62
1
100
AcDbLine
 10
66.831611
 20
275.512362
 30
0.0
 11
66.831797
 21
268.262415
 31
0.0
  0
LINE
  5
104
100
AcDbEntity
  8
0
 62
1
100
AcDbLine
 10
66.831800
 20
293.568339
 30
0.0
 11
66.831611
 21
286.307396
 31
0.0
  0
LINE
  5
105
100
AcDbEntity
  8
0
 62
5
100
AcDbLine
 10
67.423518
 20
285.420772
 30
0.0
 11
67.423518
 21
276.406578
 31
0.0
  0
SPLINE
  5
106
100
AcDbEntity
  8
0
 62
5
100
AcDbSpline
 70
0
 71
3
 72
10
 73
6
 74
4
 40
0.000000
 40
0.000000
 40
0.000000
 40
0.000000
 40
1.112709
 40
1.522654
 40
1.581218
 40
1.581218
 40
1.581218
 40
1.581218
 10
66.114264
 20
286.307396
 30
0.0
 10
66.421373
 20
286.099423
 30
0.0
 10
66.841627
 20
285.814827
 30
0.0
 10
67.278046
 20
285.519286
 30
0.0
 10
67.407355
 20
285.431718
 30
0.0
 10
67.423518
 20
285.420772
 30
0.0
 11
66.114264
 21
286.307396
 31
0.0
 11
67.035591
 21
285.683475
 31
0.0
 11
67.375027
 21
285.453610
 31
0.0
 11
67.423518
 21
285.420772
 31
0.0
  0
LINE
  5
107
100
AcDbEntity
  8
0
 62
5
100
AcDbLine
 10
51.276642
 20
285.790940
 30
0.0
 11
52.087546
 21
286.196075
 31
0.0
  0
LINE
  5
108
100
AcDbEntity
  8
0
 62
5
100
AcDbLine
 10
52.087546
 20
286.196075
 30
0.0
 11
51.861553
 21
286.648064
 31
0.0
  0
LINE
  5
109
100
AcDbEntity
  8
0
 62
5
100
AcDbLine
 10
51.861553
 20
286.648064
 30
0.0
 11
50.461014
 21
285.947795
 31
0.0
  0
SPLINE
  5
10a
100
AcDbEntity
  8
0
 62
5
100
AcDbSpline
 70
0
 71
3
 72
10
 73
6
 74
4
 40
0.000000
 40
0.000000
 40
0.000000
 40
0.000000
 40
0.058722
 40
0.469774
 40
1.585487
 40
1.585487
 40
1.585487
 40
1.585487
 10
67.423518
 20
276.406578
 30
0.0
 10
67.407355
 20
276.395538
 30
0.0
 10
67.278046
 20
276.307220
 30
0.0
 10
66.841627
 20
276.009148
 30
0.0
 10
66.421373
 20
275.722116
 30
0.0
 10
66.114264
 20
275.512362
 30
0.0
 11
67.423518
 21
276.406578
 31
0.0
 11
67.375027
 21
276.373459
 31
0.0
 11
67.035591
 21
276.141625
 31
0.0
 11
66.114264
 21
275.512362
 31
0.0
  0
LINE
  5
10b
100
AcDbEntity
  8
0
 62
5
100
AcDbLine
 10
60.116390
 20
290.775472
 30
0.0
 11
58.715862
 21
290.075210
 31
0.0
  0
LINE
  5
10c
100
AcDbEntity
  8
0
 62
5
100
AcDbLine
 10
58.715862
 20
290.075210
 30
0.0
 11
58.941984
 21
289.622961
 31
0.0
  0
LINE
  5
10d
100
AcDbEntity
  8
0
 62
5
100
AcDbLine
 10
58.941984
 20
289.622961
 30
0.0
 11
59.752636
 21
290.028601
 31
0.0
  0
LINE
  5
10e
100
AcDbEntity
  8
0
 62
5
100
AcDbLine
 10
51.276645
 20
285.790945
 30
0.0
 11
44.197501
 21
282.251172
 31
0.0
  0
LINE
  5
10f
100
AcDbEntity
  8
0
 62
5
100
AcDbLine
 10
66.831800
 20
293.568340
 30
0.0
 11
59.752659
 21
290.028567
 31
0.0
  0
LINE
  5
110
100
AcDbEntity
  8
0
 62
1
100
AcDbLine
 10
53.807501
 20
287.055938
 30
0.0
 11
57.222108
 21
288.763026
 31
0.0
  0
LINE
  5
111
100
AcDbEntity
  8
0
 62
1
100
AcDbLine
 10
44.197501
 20
256.851171
 30
0.0
 11
44.197501
 21
282.251171
 31
0.0
  0
LINE
  5
112
100
AcDbEntity
  8
0
 62
5
100
AcDbLine
 10
44.113340
 20
256.903207
 30
0.0
 11
66.831800
 21
268.262415
 31
0.0
  0
LINE
  5
113
100
AcDbEntity
  8
0
 62
5
100
AcDbLine
 10
44.029596
 20
282.251206
 30
0.0
 11
41.780488
 21
288.910469
 31
0.0
  0
LINE
  5
114
100
AcDbEntity
  8
0
 62
5
100
AcDbLine
 10
41.780488
 20
288.910469
 30
0.0
 11
28.072428
 21
295.764782
 31
0.0
  0
LINE
  5
115
100
AcDbEntity
  8
0
 62
5
100
AcDbLine
 10
28.072428
 20
295.764782
 30
0.0
 11
21.395479
 21
293.568734
 31
0.0
  0
LINE
  5
116
100
AcDbEntity
  8
0
 62
1
100
AcDbLine
 10
37.545018
 20
285.493418
 30
0.0
 11
44.029596
 21
282.251205
 31
0.0
  0
LINE
  5
117
100
AcDbEntity
  8
0
 62
1
100
AcDbLine
 10
21.395479
 20
293.568734
 30
0.0
 11
27.889725
 21
290.321266
 31
0.0
  0
SPLINE
  5
118
100
AcDbEntity
  8
0
 62
5
100
AcDbSpline
 70
0
 71
3
 72
16
 73
12
 74
10
 40
0.000000
 40
0.000000
 40
0.000000
 40
0.000000
 40
0.594052
 40
1.926274
 40
3.438881
 40
6.074692
 40
8.833683
 40
11.469466
 40
12.982641
 40
14.315438
 40
14.909669
 40
14.909669
 40
14.909669
 40
14.909669
 10
50.461014
 20
285.947795
 30
0.0
 10
50.409299
 20
286.138927
 30
0.0
 10
50.241609
 20
286.758689
 30
0.0
 10
50.103651
 20
287.908268
 30
0.0
 10
50.508480
 20
289.750399
 30
0.0
 10
52.256566
 20
291.440744
 30
0.0
 10
54.641664
 20
292.633445
 30
0.0
 10
57.042973
 20
293.017318
 30
0.0
 10
58.759986
 20
292.236331
 30
0.0
 10
59.598137
 20
291.437010
 30
0.0
 10
59.994244
 20
290.931389
 30
0.0
 10
60.116390
 20
290.775472
 30
0.0
 11
50.461014
 21
285.947795
 31
0.0
 11
50.314469
 21
286.523488
 31
0.0
 11
50.181998
 21
287.849107
 31
0.0
 11
50.524354
 21
289.322462
 31
0.0
 11
52.281963
 21
291.286719
 31
0.0
 11
54.749673
 21
292.520591
 31
0.0
 11
57.375620
 21
292.748087
 31
0.0
 11
58.760498
 21
292.138323
 31
0.0
 11
59.742974
 21
291.237718
 31
0.0
 11
60.116390
 21
290.775472
 31
0.0
  0
LINE
  5
119
100
AcDbEntity
  8
0
 62
5
100
AcDbLine
 10
28.947457
 20
290.454155
 30
0.0
 11
37.009931
 21
286.422751
 31
0.0
  0
SPLINE
  5
11a
100
AcDbEntity
  8
0
 62
5
100
AcDbSpline
 70
0
 71
3
 72
10
 73
6
 74
4
 40
0.000000
 40
0.000000
 40
0.000000
 40
0.000000
 40
1.112709
 40
1.522654
 40
1.581218
 40
1.581218
 40
1.581218
 40
1.581218
 10
27.568907
 20
289.679655
 30
0.0
 10
27.892271
 20
289.861328
 30
0.0
 10
28.334768
 20
290.109933
 30
0.0
 10
28.794285
 20
290.368099
 30
0.0
 10
28.930438
 20
290.444593
 30
0.0
 10
28.947457
 20
290.454155
 30
0.0
 11
27.568907
 21
289.679655
 31
0.0
 11
28.538998
 21
290.224673
 31
0.0
 11
28.896400
 21
290.425470
 31
0.0
 11
28.947457
 21
290.454155
 31
0.0
  0
LINE
  5
11b
100
AcDbEntity
  8
0
 62
5
100
AcDbLine
 10
21.395032
 20
276.177619
 30
0.0
 11
21.395342
 21
277.084096
 31
0.0
  0
LINE
  5
11c
100
AcDbEntity
  8
0
 62
5
100
AcDbLine
 10
21.395342
 20
277.084096
 30
0.0
 11
20.890005
 21
277.084106
 31
0.0
  0
LINE
  5
11d
100
AcDbEntity
  8
0
 62
5
100
AcDbLine
 10
20.890005
 20
277.084106
 30
0.0
 11
20.889977
 21
275.518254
 31
0.0
  0
SPLINE
  5
11e
100
AcDbEntity
  8
0
 62
5
100
AcDbSpline
 70
0
 71
3
 72
10
 73
6
 74
4
 40
0.000000
 40
0.000000
 40
0.000000
 40
0.000000
 40
0.058722
 40
0.469774
 40
1.585487
 40
1.585487
 40
1.585487
 40
1.585487
 10
37.009931
 20
286.422751
 30
0.0
 10
37.012576
 20
286.403356
 30
0.0
 10
37.033738
 20
286.248202
 30
0.0
 10
37.105161
 20
285.724554
 30
0.0
 10
37.173939
 20
285.220301
 30
0.0
 10
37.224200
 20
284.851809
 30
0.0
 11
37.009931
 21
286.422751
 31
0.0
 11
37.017867
 21
286.364568
 31
0.0
 11
37.073418
 21
285.957287
 31
0.0
 11
37.224200
 21
284.851809
 31
0.0
  0
LINE
  5
11f
100
AcDbEntity
  8
0
 62
5
100
AcDbLine
 10
20.890166
 20
286.313288
 30
0.0
 11
20.890139
 21
284.747451
 31
0.0
  0
LINE
  5
120
100
AcDbEntity
  8
0
 62
5
100
AcDbLine
 10
20.890139
 20
284.747451
 30
0.0
 11
21.395768
 21
284.747442
 31
0.0
  0
LINE
  5
121
100
AcDbEntity
  8
0
 62
5
100
AcDbLine
 10
21.395768
 20
284.747442
 30
0.0
 11
21.395501
 21
285.653918
 31
0.0
  0
LINE
  5
122
100
AcDbEntity
  8
0
 62
5
100
AcDbLine
 10
21.395028
 20
276.177623
 30
0.0
 11
21.395078
 21
268.262810
 31
0.0
  0
LINE
  5
123
100
AcDbEntity
  8
0
 62
5
100
AcDbLine
 10
21.395480
 20
293.568734
 30
0.0
 11
21.395530
 21
285.653922
 31
0.0
  0
LINE
  5
124
100
AcDbEntity
  8
0
 62
1
100
AcDbLine
 10
21.395465
 20
279.007013
 30
0.0
 11
21.395720
 21
282.824562
 31
0.0
  0
LINE
  5
125
100
AcDbEntity
  8
0
 62
5
100
AcDbLine
 10
21.395274
 20
268.263202
 30
0.0
 11
14.433231
 21
269.229765
 31
0.0
  0
LINE
  5
126
100
AcDbEntity
  8
0
 62
5
100
AcDbLine
 10
14.433231
 20
269.229765
 30
0.0
 11
2.171964
 21
260.034449
 31
0.0
  0
LINE
  5
127
100
AcDbEntity
  8
0
 62
5
100
AcDbLine
 10
2.171964
 20
260.034449
 30
0.0
 11
1.150032
 21
253.080318
 31
0.0
  0
LINE
  5
128
100
AcDbEntity
  8
0
 62
1
100
AcDbLine
 10
15.595286
 20
263.913277
 30
0.0
 11
21.395274
 21
268.263202
 31
0.0
  0
LINE
  5
129
100
AcDbEntity
  8
0
 62
1
100
AcDbLine
 10
1.150032
 20
253.080318
 30
0.0
 11
6.959043
 21
257.436542
 31
0.0
  0
SPLINE
  5
12a
100
AcDbEntity
  8
0
 62
5
100
AcDbSpline
 70
0
 71
3
 72
16
 73
12
 74
10
 40
0.000000
 40
0.000000
 40
0.000000
 40
0.000000
 40
0.594052
 40
1.926273
 40
3.438881
 40
6.074692
 40
8.833683
 40
11.469465
 40
12.982641
 40
14.315438
 40
14.909670
 40
14.909670
 40
14.909670
 40
14.909670
 10
20.889977
 20
275.518254
 30
0.0
 10
20.695897
 20
275.557479
 30
0.0
 10
20.066573
 20
275.684668
 30
0.0
 10
18.976669
 20
276.075401
 30
0.0
 10
17.510081
 20
277.261341
 30
0.0
 10
16.779997
 20
279.580834
 30
0.0
 10
16.779905
 20
282.247522
 30
0.0
 10
17.510495
 20
284.566979
 30
0.0
 10
18.976922
 20
285.753431
 30
0.0
 10
20.066696
 20
286.145611
 30
0.0
 10
20.696084
 20
286.273769
 30
0.0
 10
20.890166
 20
286.313288
 30
0.0
 11
20.889977
 21
275.518254
 31
0.0
 11
20.309527
 21
275.644647
 31
0.0
 11
19.064622
 21
276.119017
 31
0.0
 11
17.899935
 21
277.084153
 31
0.0
 11
16.929118
 21
279.534665
 31
0.0
 11
16.929148
 21
282.293656
 31
0.0
 11
17.900069
 21
284.744097
 31
0.0
 11
19.064811
 21
285.710056
 31
0.0
 11
20.309722
 21
286.186027
 31
0.0
 11
20.890166
 21
286.313288
 31
0.0
  0
LINE
  5
12b
100
AcDbEntity
  8
0
 62
5
100
AcDbLine
 10
7.313232
 20
258.442030
 30
0.0
 11
14.524767
 21
263.850308
 31
0.0
  0
SPLINE
  5
12c
100
AcDbEntity
  8
0
 62
5
100
AcDbSpline
 70
0
 71
3
 72
10
 73
6
 74
4
 40
0.000000
 40
0.000000
 40
0.000000
 40
0.000000
 40
1.112709
 40
1.522654
 40
1.581218
 40
1.581218
 40
1.581218
 40
1.581218
 10
7.389433
 20
256.862649
 30
0.0
 10
7.371559
 20
257.233121
 30
0.0
 10
7.347100
 20
257.740083
 30
0.0
 10
7.321699
 20
258.266543
 30
0.0
 10
7.314173
 20
258.422531
 30
0.0
 10
7.313232
 20
258.442030
 30
0.0
 11
7.389433
 21
256.862649
 31
0.0
 11
7.335810
 21
257.974065
 31
0.0
 11
7.316055
 21
258.383534
 31
0.0
 11
7.313232
 21
258.442030
 31
0.0
  0
LINE
  5
12d
100
AcDbEntity
  8
0
 62
5
100
AcDbLine
 10
16.704790
 20
245.302118
 30
0.0
 11
15.894153
 21
245.707788
 31
0.0
  0
LINE
  5
12e
100
AcDbEntity
  8
0
 62
5
100
AcDbLine
 10
15.894153
 20
245.707788
 30
0.0
 11
15.668143
 21
245.255806
 31
0.0
  0
LINE
  5
12f
100
AcDbEntity
  8
0
 62
5
100
AcDbLine
 10
15.668143
 20
245.255806
 30
0.0
 11
17.068659
 21
244.555488
 31
0.0
  0
SPLINE
  5
130
100
AcDbEntity
  8
0
 62
5
100
AcDbSpline
 70
0
 71
3
 72
10
 73
6
 74
4
 40
0.000000
 40
0.000000
 40
0.000000
 40
0.000000
 40
0.058722
 40
0.469774
 40
1.585487
 40
1.585487
 40
1.585487
 40
1.585487
 10
14.524767
 20
263.850308
 30
0.0
 10
14.543297
 20
263.844000
 30
0.0
 10
14.691535
 20
263.793538
 30
0.0
 10
15.191838
 20
263.623230
 30
0.0
 10
15.673611
 20
263.459230
 30
0.0
 10
16.025676
 20
263.339384
 30
0.0
 11
14.524767
 21
263.850308
 31
0.0
 11
14.580356
 21
263.831384
 31
0.0
 11
14.969481
 21
263.698923
 31
0.0
 11
16.025676
 21
263.339384
 31
0.0
  0
LINE
  5
131
100
AcDbEntity
  8
0
 62
5
100
AcDbLine
 10
7.413451
 20
249.383503
 30
0.0
 11
8.813954
 21
248.683191
 31
0.0
  0
LINE
  5
132
100
AcDbEntity
  8
0
 62
5
100
AcDbLine
 10
8.813954
 20
248.683191
 30
0.0
 11
9.040095
 21
249.135433
 31
0.0
  0
LINE
  5
133
100
AcDbEntity
  8
0
 62
5
100
AcDbLine
 10
9.040095
 20
249.135433
 30
0.0
 11
8.229205
 21
249.540597
 31
0.0
  0
LINE
  5
134
100
AcDbEntity
  8
0
 62
5
100
AcDbLine
 10
16.704785
 20
245.302116
 30
0.0
 11
23.783972
 21
241.762431
 31
0.0
  0
LINE
  5
135
100
AcDbEntity
  8
0
 62
5
100
AcDbLine
 10
1.150033
 20
253.080318
 30
0.0
 11
8.229220
 21
249.540633
 31
0.0
  0
LINE
  5
136
100
AcDbEntity
  8
0
 62
1
100
AcDbLine
 10
14.174318
 20
246.567891
 30
0.0
 11
10.759940
 21
248.275434
 31
0.0
  0
LINE
  5
137
100
AcDbEntity
  8
0
 62
1
100
AcDbLine
 10
44.113340
 20
256.903207
 30
0.0
 11
21.395275
 21
268.263205
 31
0.0
  0
LINE
  5
138
100
AcDbEntity
  8
0
 62
5
100
AcDbLine
 10
23.884682
 20
241.628085
 30
0.0
 11
19.906546
 21
235.833371
 31
0.0
  0
LINE
  5
139
100
AcDbEntity
  8
0
 62
5
100
AcDbLine
 10
19.906546
 20
235.833371
 30
0.0
 11
22.647432
 21
220.754246
 31
0.0
  0
LINE
  5
13a
100
AcDbEntity
  8
0
 62
5
100
AcDbLine
 10
22.647432
 20
220.754246
 30
0.0
 11
28.410306
 21
216.730124
 31
0.0
  0
LINE
  5
13b
100
AcDbEntity
  8
0
 62
1
100
AcDbLine
 10
25.181423
 20
234.495051
 30
0.0
 11
23.884683
 21
241.628085
 31
0.0
  0
LINE
  5
13c
100
AcDbEntity
  8
0
 62
1
100
AcDbLine
 10
28.410306
 20
216.730124
 30
0.0
 11
27.111969
 21
223.874046
 31
0.0
  0
SPLINE
  5
13d
100
AcDbEntity
  8
0
 62
5
100
AcDbSpline
 70
0
 71
3
 72
16
 73
12
 74
10
 40
0.000000
 40
0.000000
 40
0.000000
 40
0.000000
 40
0.594052
 40
1.926273
 40
3.438881
 40
6.074691
 40
8.833682
 40
11.469465
 40
12.982640
 40
14.315438
 40
14.909669
 40
14.909669
 40
14.909669
 40
14.909669
 10
17.068659
 20
244.555488
 30
0.0
 10
16.946777
 20
244.399441
 30
0.0
 10
16.551565
 20
243.893444
 30
0.0
 10
15.714650
 20
243.093359
 30
0.0
 10
13.998022
 20
242.312001
 30
0.0
 10
11.596907
 20
242.696342
 30
0.0
 10
9.211727
 20
243.888879
 30
0.0
 10
7.463899
 20
245.579660
 30
0.0
 10
7.058542
 20
247.421877
 30
0.0
 10
7.195146
 20
248.571986
 30
0.0
 10
7.361999
 20
249.192238
 30
0.0
 10
7.413451
 20
249.383503
 30
0.0
 11
17.068659
 21
244.555488
 31
0.0
 11
16.696016
 21
244.092848
 31
0.0
 11
15.714974
 21
243.191533
 31
0.0
 11
14.330856
 21
242.581451
 31
0.0
 11
11.704893
 21
242.809071
 31
0.0
 11
9.237210
 21
244.042998
 31
0.0
 11
7.479710
 21
246.007316
 31
0.0
 11
7.136643
 21
247.481088
 31
0.0
 11
7.267685
 21
248.807427
 31
0.0
 11
7.413451
 21
249.383503
 31
0.0
  0
LINE
  5
13e
100
AcDbEntity
  8
0
 62
5
100
AcDbLine
 10
26.371045
 20
224.640522
 30
0.0
 11
24.758977
 21
233.509395
 31
0.0
  0
SPLINE
  5
13f
100
AcDbEntity
  8
0
 62
5
100
AcDbSpline
 70
0
 71
3
 72
10
 73
6
 74
4
 40
0.000000
 40
0.000000
 40
0.000000
 40
0.000000
 40
1.112709
 40
1.522655
 40
1.581218
 40
1.581218
 40
1.581218
 40
1.581218
 10
27.817753
 20
224.002333
 30
0.0
 10
27.478402
 20
224.152032
 30
0.0
 10
27.014026
 20
224.356883
 30
0.0
 10
26.531790
 20
224.569612
 30
0.0
 10
26.388905
 20
224.632643
 30
0.0
 10
26.371045
 20
224.640522
 30
0.0
 11
27.817753
 21
224.002333
 31
0.0
 11
26.799699
 21
224.451429
 31
0.0
 11
26.424626
 21
224.616886
 31
0.0
 11
26.371045
 21
224.640522
 31
0.0
  0
LINE
  5
140
100
AcDbEntity
  8
0
 62
5
100
AcDbLine
 10
42.323811
 20
227.163973
 30
0.0
 11
41.598435
 21
226.620348
 31
0.0
  0
LINE
  5
141
100
AcDbEntity
  8
0
 62
5
100
AcDbLine
 10
41.598435
 20
226.620348
 30
0.0
 11
41.901615
 21
226.216062
 31
0.0
  0
LINE
  5
142
100
AcDbEntity
  8
0
 62
5
100
AcDbLine
 10
41.901615
 20
226.216062
 30
0.0
 11
43.154343
 21
227.155509
 31
0.0
  0
SPLINE
  5
143
100
AcDbEntity
  8
0
 62
5
100
AcDbSpline
 70
0
 71
3
 72
10
 73
6
 74
4
 40
0.000000
 40
0.000000
 40
0.000000
 40
0.000000
 40
0.058722
 40
0.469774
 40
1.585487
 40
1.585487
 40
1.585487
 40
1.585487
 10
24.758977
 20
233.509395
 30
0.0
 10
24.772906
 20
233.523148
 30
0.0
 10
24.884336
 20
233.633167
 30
0.0
 10
25.260412
 20
234.004481
 30
0.0
 10
25.622560
 20
234.362042
 30
0.0
 10
25.887206
 20
234.623338
 30
0.0
 11
24.758977
 21
233.509395
 31
0.0
 11
24.800763
 21
233.550652
 31
0.0
 11
25.093267
 21
233.839452
 31
0.0
 11
25.887206
 21
234.623338
 31
0.0
  0
LINE
  5
144
100
AcDbEntity
  8
0
 62
5
100
AcDbLine
 10
34.517990
 20
220.678927
 30
0.0
 11
35.770707
 21
221.618365
 31
0.0
  0
LINE
  5
145
100
AcDbEntity
  8
0
 62
5
100
AcDbLine
 10
35.770707
 20
221.618365
 30
0.0
 11
35.467349
 21
222.022886
 31
0.0
  0
LINE
  5
146
100
AcDbEntity
  8
0
 62
5
100
AcDbLine
 10
35.467349
 20
222.022886
 30
0.0
 11
34.742309
 21
221.478809
 31
0.0
  0
LINE
  5
147
100
AcDbEntity
  8
0
 62
5
100
AcDbLine
 10
42.323811
 20
227.163967
 30
0.0
 11
48.655788
 21
231.912683
 31
0.0
  0
LINE
  5
148
100
AcDbEntity
  8
0
 62
5
100
AcDbLine
 10
28.410306
 20
216.730121
 30
0.0
 11
34.742284
 21
221.478840
 31
0.0
  0
LINE
  5
149
100
AcDbEntity
  8
0
 62
1
100
AcDbLine
 10
40.059980
 20
225.466756
 30
0.0
 11
37.005712
 21
223.176534
 31
0.0
  0
LINE
  5
14a
100
AcDbEntity
  8
0
 62
1
100
AcDbLine
 10
44.113340
 20
256.903207
 30
0.0
 11
48.655788
 21
231.912686
 31
0.0
  0
LINE
  5
14b
100
AcDbEntity
  8
0
 62
1
100
AcDbLine
 10
44.205449
 20
256.867060
 30
0.0
 11
23.884681
 21
241.628085
 31
0.0
  0
LINE
  5
14c
100
AcDbEntity
  8
0
 62
5
100
AcDbLine
 10
48.820990
 20
231.942681
 30
0.0
 11
52.224759
 21
225.792997
 31
0.0
  0
LINE
  5
14d
100
AcDbEntity
  8
0
 62
5
100
AcDbLine
 10
52.224759
 20
225.792997
 30
0.0
 11
66.937630
 21
221.500687
 31
0.0
  0
LINE
  5
14e
100
AcDbEntity
  8
0
 62
5
100
AcDbLine
 10
66.937630
 20
221.500687
 30
0.0
 11
73.114205
 21
224.855415
 31
0.0
  0
LINE
  5
14f
100
AcDbEntity
  8
0
 62
1
100
AcDbLine
 10
55.780855
 20
229.912417
 30
0.0
 11
48.820990
 21
231.942684
 31
0.0
  0
LINE
  5
150
100
AcDbEntity
  8
0
 62
1
100
AcDbLine
 10
73.114205
 20
224.855415
 30
0.0
 11
66.143889
 21
226.889119
 31
0.0
  0
SPLINE
  5
151
100
AcDbEntity
  8
0
 62
5
100
AcDbSpline
 70
0
 71
3
 72
16
 73
12
 74
10
 40
0.000000
 40
0.000000
 40
0.000000
 40
0.000000
 40
0.594052
 40
1.926273
 40
3.438879
 40
6.074690
 40
8.833682
 40
11.469466
 40
12.982641
 40
14.315438
 40
14.909669
 40
14.909669
 40
14.909669
 40
14.909669
 10
43.154343
 20
227.155509
 30
0.0
 10
43.239406
 20
226.976707
 30
0.0
 10
43.515230
 20
226.396925
 30
0.0
 10
43.856550
 20
225.290552
 30
0.0
 10
43.787690
 20
223.405720
 30
0.0
 10
42.370080
 20
221.430004
 30
0.0
 10
40.236731
 20
219.829988
 30
0.0
 10
37.942784
 20
219.022860
 30
0.0
 10
36.113781
 20
219.484193
 30
0.0
 10
35.146195
 20
220.120736
 30
0.0
 10
34.666051
 20
220.547368
 30
0.0
 10
34.517990
 20
220.678927
 30
0.0
 11
43.154343
 21
227.155509
 31
0.0
 11
43.401482
 21
226.615305
 31
0.0
 11
43.768886
 21
225.334747
 31
0.0
 11
43.695541
 21
223.823921
 31
0.0
 11
42.317547
 21
221.577005
 31
0.0
 11
40.110281
 21
219.921707
 31
0.0
 11
37.567351
 21
219.228262
 31
0.0
 11
36.095751
 21
219.580529
 31
0.0
 11
34.968053
 21
220.290913
 31
0.0
 11
34.517990
 21
220.678927
 31
0.0
  0
LINE
  5
152
100
AcDbEntity
  8
0
 62
5
100
AcDbLine
 10
65.126974
 20
226.569212
 30
0.0
 11
56.473513
 21
229.093760
 31
0.0
  0
SPLINE
  5
153
100
AcDbEntity
  8
0
 62
5
100
AcDbSpline
 70
0
 71
3
 72
10
 73
6
 74
4
 40
0.000000
 40
0.000000
 40
0.000000
 40
0.000000
 40
1.112709
 40
1.522654
 40
1.581218
 40
1.581218
 40
1.581218
 40
1.581218
 10
66.344792
 20
227.577761
 30
0.0
 10
66.059131
 20
227.341188
 30
0.0
 10
65.668226
 20
227.017456
 30
0.0
 10
65.262287
 20
226.681273
 30
0.0
 10
65.142009
 20
226.581663
 30
0.0
 10
65.126974
 20
226.569212
 30
0.0
 11
66.344792
 21
227.577761
 31
0.0
 11
65.487809
 21
226.868041
 31
0.0
 11
65.172079
 21
226.606566
 31
0.0
 11
65.126974
 21
226.569212
 31
0.0
  0
LINE
  5
154
100
AcDbEntity
  8
0
 62
5
100
AcDbLine
 10
70.004483
 20
241.966241
 30
0.0
 11
70.166301
 21
241.074325
 31
0.0
  0
LINE
  5
155
100
AcDbEntity
  8
0
 62
5
100
AcDbLine
 10
70.166301
 20
241.074325
 30
0.0
 11
70.663491
 21
241.164687
 31
0.0
  0
LINE
  5
156
100
AcDbEntity
  8
0
 62
5
100
AcDbLine
 10
70.663491
 20
241.164687
 30
0.0
 11
70.383487
 21
242.705301
 31
0.0
  0
SPLINE
  5
157
100
AcDbEntity
  8
0
 62
5
100
AcDbSpline
 70
0
 71
3
 72
10
 73
6
 74
4
 40
0.000000
 40
0.000000
 40
0.000000
 40
0.000000
 40
0.058722
 40
0.469774
 40
1.585488
 40
1.585488
 40
1.585488
 40
1.585488
 10
56.473513
 20
229.093760
 30
0.0
 10
56.467442
 20
229.112369
 30
0.0
 10
56.418874
 20
229.261238
 30
0.0
 10
56.254955
 20
229.763671
 30
0.0
 10
56.097108
 20
230.247495
 30
0.0
 10
55.981758
 20
230.601058
 30
0.0
 11
56.473513
 21
229.093760
 31
0.0
 11
56.455300
 21
229.149586
 31
0.0
 11
56.327808
 21
229.540367
 31
0.0
 11
55.981758
 21
230.601058
 31
0.0
  0
LINE
  5
158
100
AcDbEntity
  8
0
 62
5
100
AcDbLine
 10
72.313848
 20
232.084263
 30
0.0
 11
72.033847
 21
233.624861
 31
0.0
  0
LINE
  5
159
100
AcDbEntity
  8
0
 62
5
100
AcDbLine
 10
72.033847
 20
233.624861
 30
0.0
 11
71.536368
 21
233.534445
 31
0.0
  0
LINE
  5
15a
100
AcDbEntity
  8
0
 62
5
100
AcDbLine
 10
71.536368
 20
233.534445
 30
0.0
 11
71.698742
 21
232.642631
 31
0.0
  0
LINE
  5
15b
100
AcDbEntity
  8
0
 62
5
100
AcDbLine
 10
70.004486
 20
241.966238
 30
0.0
 11
68.588980
 21
249.753446
 31
0.0
  0
LINE
  5
15c
100
AcDbEntity
  8
0
 62
5
100
AcDbLine
 10
73.114208
 20
224.855412
 30
0.0
 11
71.698702
 21
232.642620
 31
0.0
  0
LINE
  5
15d
100
AcDbEntity
  8
0
 62
1
100
AcDbLine
 10
70.510056
 20
239.182384
 30
0.0
 11
71.192523
 21
235.426333
 31
0.0
  0
LINE
  5
15e
100
AcDbEntity
  8
0
 62
5
100
AcDbLine
 10
44.205449
 20
256.867060
 30
0.0
 11
68.588977
 21
249.753446
 31
0.0
  0
SPLINE
  5
15f
100
AcDbEntity
  8
0
 62
5
100
AcDbSpline
 70
0
 71
3
 72
16
 73
12
 74
10
 40
0.000000
 40
0.000000
 40
0.000000
 40
0.000000
 40
0.594052
 40
1.926274
 40
3.438882
 40
6.074693
 40
8.833684
 40
11.469466
 40
12.982642
 40
14.315440
 40
14.909672
 40
14.909672
 40
14.909672
 40
14.909672
 10
70.383487
 20
242.705301
 30
0.0
 10
70.581454
 20
242.701418
 30
0.0
 10
71.223379
 20
242.688825
 30
0.0
 10
72.365590
 20
242.499306
 30
0.0
 10
74.020626
 20
241.594767
 30
0.0
 10
75.153747
 20
239.443229
 30
0.0
 10
75.630740
 20
236.819549
 30
0.0
 10
75.326733
 20
234.406827
 30
0.0
 10
74.096125
 20
232.977253
 30
0.0
 10
73.094056
 20
232.396504
 30
0.0
 10
72.497734
 20
232.157855
 30
0.0
 10
72.313848
 20
232.084263
 30
0.0
 11
70.383487
 21
242.705301
 31
0.0
 11
70.977184
 21
242.684752
 31
0.0
 11
72.286854
 21
242.440664
 31
0.0
 11
73.605367
 21
241.699377
 31
0.0
 11
74.998774
 21
239.461986
 31
0.0
 11
75.492153
 21
236.747468
 31
0.0
 11
74.975113
 21
234.162895
 31
0.0
 11
74.001896
 21
233.004210
 31
0.0
 11
72.862176
 21
232.313278
 31
0.0
 11
72.313848
 21
232.084263
 31
0.0
  0
ENDSEC
  0
SECTION
  2
OBJECTS
  0
DICTIONARY
  5
C
330
0
100
AcDbDictionary
  3
ACAD_GROUP
350
D
  3
ACAD_MLINESTYLE
350
17
  0
DICTIONARY
  5
D
330
C
100
AcDbDictionary
  0
DICTIONARY
  5
1A
330
C
100
AcDbDictionary
  0
DICTIONARY
  5
17
330
C
100
AcDbDictionary
  3
STANDARD
350
18
  0
DICTIONARY
  5
19
330
C
100
AcDbDictionary
  0
ENDSEC
  0
EOF
