999
DXF created by Inkscape
  0
SECTION
  2
HEADER
  9
$ACADVER
  1
AC1014
  9
$HANDSEED
  5
FFFF
  9
$MEASUREMENT
 70
     1
  0
ENDSEC
  0
SECTION
  2
TABLES
  0
TABLE
  2
VPORT
  5
8
330
0
100
AcDbSymbolTable
 70
     4
  0
VPORT
  5
2E
330
8
100
AcDbSymbolTableRecord
100
AcDbViewportTableRecord
  2
*ACTIVE
 70
     0
 10
0.0
 20
0.0
 11
1.0
 21
1.0
 12
210.0
 22
148.5
 13
0.0
 23
0.0
 14
10.0
 24
10.0
 15
10.0
 25
10.0
 16
0.0
 26
0.0
 36
1.0
 17
0.0
 27
0.0
 37
0.0
 40
341.0
 41
1.24
 42
50.0
 43
0.0
 44
0.0
 50
0.0
 51
0.0
 71
     0
 72
   100
 73
     1
 74
     3
 75
     0
 76
     0
 77
     0
 78
     0
  0
ENDTAB
  0
TABLE
  2
LTYPE
  5
5
330
0
100
AcDbSymbolTable
 70
     1
  0
LTYPE
  5
14
330
5
100
AcDbSymbolTableRecord
100
AcDbLinetypeTableRecord
  2
BYBLOCK
 70
     0
  3

 72
    65
 73
     0
 40
0.0
  0
LTYPE
  5
15
330
5
100
AcDbSymbolTableRecord
100
AcDbLinetypeTableRecord
  2
BYLAYER
 70
     0
  3

 72
    65
 73
     0
 40
0.0
  0
LTYPE
  5
16
330
5
100
AcDbSymbolTableRecord
100
AcDbLinetypeTableRecord
  2
CONTINUOUS
 70
     0
  3
Solid line
 72
    65
 73
     0
 40
0.0
  0
ENDTAB
  0
TABLE
  2
LAYER
  5
2
330
0
100
AcDbSymbolTable
 70
1
  0
LAYER
  5
10
330
2
100
AcDbSymbolTableRecord
100
AcDbLayerTableRecord
  2
0
 70
     0
 62
     7
  6
CONTINUOUS
  0
ENDTAB
  0
TABLE
  2
STYLE
  5
3
330
0
100
AcDbSymbolTable
 70
     1
  0
STYLE
  5
11
330
3
100
AcDbSymbolTableRecord
100
AcDbTextStyleTableRecord
  2
STANDARD
 70
     0
 40
0.0
 41
1.0
 50
0.0
 71
     0
 42
2.5
  3
txt
  4

  0
ENDTAB
  0
TABLE
  2
VIEW
  5
6
330
0
100
AcDbSymbolTable
 70
     0
  0
ENDTAB
  0
TABLE
  2
UCS
  5
7
330
0
100
AcDbSymbolTable
 70
     0
  0
ENDTAB
  0
TABLE
  2
APPID
  5
9
330
0
100
AcDbSymbolTable
 70
     2
  0
APPID
  5
12
330
9
100
AcDbSymbolTableRecord
100
AcDbRegAppTableRecord
  2
ACAD
 70
     0
  0
ENDTAB
  0
TABLE
  2
DIMSTYLE
  5
A
330
0
100
AcDbSymbolTable
 70
     1
  0
DIMSTYLE
105
27
330
A
100
AcDbSymbolTableRecord
100
AcDbDimStyleTableRecord
  2
ISO-25
 70
     0
  3

  4

  5

  6

  7

 40
1.0
 41
2.5
 42
0.625
 43
3.75
 44
1.25
 45
0.0
 46
0.0
 47
0.0
 48
0.0
140
2.5
141
2.5
142
0.0
143
0.03937007874016
144
1.0
145
0.0
146
1.0
147
0.625
 71
     0
 72
     0
 73
     0
 74
     0
 75
     0
 76
     0
 77
     1
 78
     8
170
     0
171
     3
172
     1
173
     0
174
     0
175
     0
176
     0
177
     0
178
     0
270
     2
271
     2
272
     2
273
     2
274
     3
340
11
275
     0
280
     0
281
     0
282
     0
283
     0
284
     8
285
     0
286
     0
287
     3
288
     0
  0
ENDTAB
  0
TABLE
  2
BLOCK_RECORD
  5
1
330
0
100
AcDbSymbolTable
 70
     1
  0
BLOCK_RECORD
  5
1F
330
1
100
AcDbSymbolTableRecord
100
AcDbBlockTableRecord
  2
*MODEL_SPACE
  0
BLOCK_RECORD
  5
1B
330
1
100
AcDbSymbolTableRecord
100
AcDbBlockTableRecord
  2
*PAPER_SPACE
  0
ENDTAB
  0
ENDSEC
  0
SECTION
  2
BLOCKS
  0
BLOCK
  5
20
330
1F
100
AcDbEntity
  8
0
100
AcDbBlockBegin
  2
*MODEL_SPACE
 70
     0
 10
0.0
 20
0.0
 30
0.0
  3
*MODEL_SPACE
  1

  0
ENDBLK
  5
21
330
1F
100
AcDbEntity
  8
0
100
AcDbBlockEnd
  0
BLOCK
  5
1C
330
1B
100
AcDbEntity
 67
     1
  8
0
100
AcDbBlockBegin
  2
*PAPER_SPACE
  1

  0
ENDBLK
  5
1D
330
1B
100
AcDbEntity
 67
     1
  8
0
100
AcDbBlockEnd
  0
ENDSEC
  0
SECTION
  2
ENTITIES
  0
LINE
  5
100
100
AcDbEntity
  8
0
 62
5
100
AcDbLine
 10
38.110064
 20
231.137162
 30
0.0
 11
25.333979
 21
240.419587
 31
0.0
  0
LINE
  5
101
100
AcDbEntity
  8
0
 62
5
100
AcDbLine
 10
30.166959
 20
255.294002
 30
0.0
 11
45.662348
 21
255.293999
 31
0.0
  0
LINE
  5
102
100
AcDbEntity
  8
0
 62
5
100
AcDbLine
 10
45.662348
 20
255.293999
 30
0.0
 11
41.618131
 21
242.847180
 31
0.0
  0
LINE
  5
103
100
AcDbEntity
  8
0
 62
5
100
AcDbLine
 10
41.618131
 20
242.847180
 30
0.0
 11
41.886545
 21
242.759968
 31
0.0
  0
LINE
  5
104
100
AcDbEntity
  8
0
 62
5
100
AcDbLine
 10
41.886545
 20
242.759968
 30
0.0
 11
45.959096
 21
255.293996
 31
0.0
  0
LINE
  5
105
100
AcDbEntity
  8
0
 62
5
100
AcDbLine
 10
30.166959
 20
255.293999
 30
0.0
 11
25.177098
 21
260.244309
 31
0.0
  0
LINE
  5
106
100
AcDbEntity
  8
0
 62
5
100
AcDbLine
 10
25.177098
 20
260.244309
 30
0.0
 11
9.850895
 21
260.244309
 31
0.0
  0
LINE
  5
107
100
AcDbEntity
  8
0
 62
5
100
AcDbLine
 10
9.850895
 20
260.244309
 30
0.0
 11
8.422048
 21
255.293999
 31
0.0
  0
LINE
  5
108
100
AcDbEntity
  8
0
 62
1
100
AcDbLine
 10
22.917012
 20
255.293810
 30
0.0
 11
30.166959
 21
255.293999
 31
0.0
  0
LINE
  5
109
100
AcDbEntity
  8
0
 62
1
100
AcDbLine
 10
8.422048
 20
255.293999
 30
0.0
 11
12.121977
 21
255.293812
 31
0.0
  0
LINE
  5
10a
100
AcDbEntity
  8
0
 62
5
100
AcDbLine
 10
13.008602
 20
255.885717
 30
0.0
 11
22.022796
 21
255.885717
 31
0.0
  0
SPLINE
  5
10b
100
AcDbEntity
  8
0
 62
5
100
AcDbSpline
 70
0
 71
3
 72
10
 73
6
 74
4
 40
0.000000
 40
0.000000
 40
0.000000
 40
0.000000
 40
1.112709
 40
1.522654
 40
1.581218
 40
1.581218
 40
1.581218
 40
1.581218
 10
12.121977
 20
254.576463
 30
0.0
 10
12.329951
 20
254.883572
 30
0.0
 10
12.614546
 20
255.303826
 30
0.0
 10
12.910088
 20
255.740244
 30
0.0
 10
12.997656
 20
255.869553
 30
0.0
 10
13.008602
 20
255.885717
 30
0.0
 11
12.121977
 21
254.576463
 31
0.0
 11
12.745898
 21
255.497790
 31
0.0
 11
12.975764
 21
255.837226
 31
0.0
 11
13.008602
 21
255.885717
 31
0.0
  0
LINE
  5
10c
100
AcDbEntity
  8
0
 62
5
100
AcDbLine
 10
18.930656
 20
245.071642
 30
0.0
 11
18.197467
 21
245.604683
 31
0.0
  0
LINE
  5
10d
100
AcDbEntity
  8
0
 62
5
100
AcDbLine
 10
18.197467
 20
245.604683
 30
0.0
 11
17.900436
 21
245.195859
 31
0.0
  0
LINE
  5
10e
100
AcDbEntity
  8
0
 62
5
100
AcDbLine
 10
17.900436
 20
245.195859
 30
0.0
 11
19.167236
 21
244.275473
 31
0.0
  0
SPLINE
  5
10f
100
AcDbEntity
  8
0
 62
5
100
AcDbSpline
 70
0
 71
3
 72
10
 73
6
 74
4
 40
0.000000
 40
0.000000
 40
0.000000
 40
0.000000
 40
0.058722
 40
0.469774
 40
1.585487
 40
1.585487
 40
1.585487
 40
1.585487
 10
22.022796
 20
255.885717
 30
0.0
 10
22.033836
 20
255.869553
 30
0.0
 10
22.122153
 20
255.740244
 30
0.0
 10
22.420225
 20
255.303826
 30
0.0
 10
22.707258
 20
254.883572
 30
0.0
 10
22.917012
 20
254.576463
 30
0.0
 11
22.022796
 21
255.885717
 31
0.0
 11
22.055915
 21
255.837226
 31
0.0
 11
22.287749
 21
255.497790
 31
0.0
 11
22.917012
 21
254.576463
 31
0.0
  0
LINE
  5
110
100
AcDbEntity
  8
0
 62
5
100
AcDbLine
 10
10.433870
 20
250.620636
 30
0.0
 11
11.700659
 21
249.700261
 31
0.0
  0
LINE
  5
111
100
AcDbEntity
  8
0
 62
5
100
AcDbLine
 10
11.700659
 20
249.700261
 30
0.0
 11
11.997861
 21
250.109322
 31
0.0
  0
LINE
  5
112
100
AcDbEntity
  8
0
 62
5
100
AcDbLine
 10
11.997861
 20
250.109322
 30
0.0
 11
11.264340
 21
250.641907
 31
0.0
  0
LINE
  5
113
100
AcDbEntity
  8
0
 62
5
100
AcDbLine
 10
18.930650
 20
245.071642
 30
0.0
 11
25.333978
 21
240.419584
 31
0.0
  0
LINE
  5
114
100
AcDbEntity
  8
0
 62
5
100
AcDbLine
 10
4.861033
 20
255.294002
 30
0.0
 11
11.264361
 21
250.641944
 31
0.0
  0
LINE
  5
115
100
AcDbEntity
  8
0
 62
1
100
AcDbLine
 10
16.641854
 20
246.735028
 30
0.0
 11
13.553502
 21
248.979082
 31
0.0
  0
LINE
  5
116
100
AcDbEntity
  8
0
 62
5
100
AcDbLine
 10
4.861032
 20
255.294002
 30
0.0
 11
8.422047
 21
255.294002
 31
0.0
  0
LINE
  5
117
100
AcDbEntity
  8
0
 62
5
100
AcDbLine
 10
45.959096
 20
255.293996
 30
0.0
 11
50.839178
 21
270.313202
 31
0.0
  0
LINE
  5
118
100
AcDbEntity
  8
0
 62
5
100
AcDbLine
 10
66.479062
 20
270.313212
 30
0.0
 11
71.267396
 21
255.576221
 31
0.0
  0
LINE
  5
119
100
AcDbEntity
  8
0
 62
5
100
AcDbLine
 10
71.267396
 20
255.576221
 30
0.0
 11
58.180038
 21
255.576221
 31
0.0
  0
LINE
  5
11a
100
AcDbEntity
  8
0
 62
5
100
AcDbLine
 10
58.180038
 20
255.576221
 30
0.0
 11
58.180038
 21
255.293996
 31
0.0
  0
LINE
  5
11b
100
AcDbEntity
  8
0
 62
5
100
AcDbLine
 10
58.180038
 20
255.293996
 30
0.0
 11
71.359096
 21
255.293996
 31
0.0
  0
LINE
  5
11c
100
AcDbEntity
  8
0
 62
5
100
AcDbLine
 10
66.479059
 20
270.313212
 30
0.0
 11
69.645132
 21
276.588581
 31
0.0
  0
LINE
  5
11d
100
AcDbEntity
  8
0
 62
5
100
AcDbLine
 10
69.645132
 20
276.588581
 30
0.0
 11
64.909076
 21
291.164666
 31
0.0
  0
LINE
  5
11e
100
AcDbEntity
  8
0
 62
5
100
AcDbLine
 10
64.909076
 20
291.164666
 30
0.0
 11
59.759514
 21
290.993850
 31
0.0
  0
LINE
  5
11f
100
AcDbEntity
  8
0
 62
1
100
AcDbLine
 10
64.238525
 20
277.208262
 30
0.0
 11
66.479059
 21
270.313211
 31
0.0
  0
LINE
  5
120
100
AcDbEntity
  8
0
 62
1
100
AcDbLine
 10
59.759514
 20
290.993850
 30
0.0
 11
60.902675
 21
287.474950
 31
0.0
  0
SPLINE
  5
121
100
AcDbEntity
  8
0
 62
5
100
AcDbSpline
 70
0
 71
3
 72
16
 73
12
 74
10
 40
0.000000
 40
0.000000
 40
0.000000
 40
0.000000
 40
0.594052
 40
1.926273
 40
3.438881
 40
6.074691
 40
8.833682
 40
11.469464
 40
12.982640
 40
14.315438
 40
14.909669
 40
14.909669
 40
14.909669
 40
14.909669
 10
19.167236
 20
244.275473
 30
0.0
 10
19.021428
 20
244.141512
 30
0.0
 10
18.548629
 20
243.707130
 30
0.0
 10
17.591902
 20
243.055030
 30
0.0
 10
15.770426
 20
242.565582
 30
0.0
 10
13.464770
 20
243.338255
 30
0.0
 10
11.307293
 20
244.905583
 30
0.0
 10
9.860208
 20
246.859959
 30
0.0
 10
9.762261
 20
248.743702
 30
0.0
 10
10.085514
 20
249.855871
 30
0.0
 10
10.351767
 20
250.440390
 30
0.0
 10
10.433870
 20
250.620636
 30
0.0
 11
19.167236
 21
244.275473
 31
0.0
 11
18.723809
 21
243.880163
 31
0.0
 11
17.608312
 21
243.151823
 31
0.0
 11
16.142921
 21
242.776839
 31
0.0
 11
13.589772
 21
243.431761
 31
0.0
 11
11.357690
 21
245.053441
 31
0.0
 11
9.945896
 21
247.279240
 31
0.0
 11
9.849011
 21
248.789312
 31
0.0
 11
10.195660
 21
250.076240
 31
0.0
 11
10.433870
 21
250.620636
 31
0.0
  0
LINE
  5
122
100
AcDbEntity
  8
0
 62
5
100
AcDbLine
 10
61.739594
 20
286.814629
 30
0.0
 11
64.525133
 21
278.241621
 31
0.0
  0
SPLINE
  5
123
100
AcDbEntity
  8
0
 62
5
100
AcDbSpline
 70
0
 71
3
 72
10
 73
6
 74
4
 40
0.000000
 40
0.000000
 40
0.000000
 40
0.000000
 40
1.112709
 40
1.522654
 40
1.581218
 40
1.581218
 40
1.581218
 40
1.581218
 10
60.220437
 20
287.253277
 30
0.0
 10
60.576782
 20
287.150384
 30
0.0
 10
61.064413
 20
287.009584
 30
0.0
 10
61.570799
 20
286.863368
 30
0.0
 10
61.720839
 20
286.820044
 30
0.0
 10
61.739594
 20
286.814629
 30
0.0
 11
60.220437
 21
287.253277
 31
0.0
 11
61.289473
 21
286.944599
 31
0.0
 11
61.683329
 21
286.830875
 31
0.0
 11
61.739594
 21
286.814629
 31
0.0
  0
LINE
  5
124
100
AcDbEntity
  8
0
 62
5
100
AcDbLine
 10
53.284811
 20
277.840689
 30
0.0
 11
53.565196
 21
278.702712
 31
0.0
  0
LINE
  5
125
100
AcDbEntity
  8
0
 62
5
100
AcDbLine
 10
53.565196
 20
278.702712
 30
0.0
 11
53.084595
 21
278.858870
 31
0.0
  0
LINE
  5
126
100
AcDbEntity
  8
0
 62
5
100
AcDbLine
 10
53.084595
 20
278.858870
 30
0.0
 11
52.600719
 21
277.369658
 31
0.0
  0
SPLINE
  5
127
100
AcDbEntity
  8
0
 62
5
100
AcDbSpline
 70
0
 71
3
 72
10
 73
6
 74
4
 40
0.000000
 40
0.000000
 40
0.000000
 40
0.000000
 40
0.058722
 40
0.469774
 40
1.585487
 40
1.585487
 40
1.585487
 40
1.585487
 10
64.525133
 20
278.241621
 30
0.0
 10
64.513172
 20
278.226127
 30
0.0
 10
64.417483
 20
278.102173
 30
0.0
 10
64.094534
 20
277.683829
 30
0.0
 10
63.783547
 20
277.280979
 30
0.0
 10
63.556286
 20
276.986589
 30
0.0
 11
64.525133
 21
278.241621
 31
0.0
 11
64.489250
 21
278.195138
 31
0.0
 11
64.238067
 21
277.869760
 31
0.0
 11
63.556286
 21
276.986589
 31
0.0
  0
LINE
  5
128
100
AcDbEntity
  8
0
 62
5
100
AcDbLine
 10
55.936569
 20
287.636345
 30
0.0
 11
55.452699
 21
286.147146
 31
0.0
  0
LINE
  5
129
100
AcDbEntity
  8
0
 62
5
100
AcDbLine
 10
55.452699
 20
286.147146
 30
0.0
 11
55.933580
 21
285.990897
 31
0.0
  0
LINE
  5
12a
100
AcDbEntity
  8
0
 62
5
100
AcDbLine
 10
55.933580
 20
285.990897
 30
0.0
 11
56.213429
 21
286.853095
 31
0.0
  0
LINE
  5
12b
100
AcDbEntity
  8
0
 62
5
100
AcDbLine
 10
53.284809
 20
277.840693
 30
0.0
 11
50.839178
 21
270.313202
 31
0.0
  0
LINE
  5
12c
100
AcDbEntity
  8
0
 62
5
100
AcDbLine
 10
58.659099
 20
294.380577
 30
0.0
 11
56.213468
 21
286.853086
 31
0.0
  0
LINE
  5
12d
100
AcDbEntity
  8
0
 62
1
100
AcDbLine
 10
54.159508
 20
280.531483
 30
0.0
 11
55.339375
 21
284.162130
 31
0.0
  0
LINE
  5
12e
100
AcDbEntity
  8
0
 62
5
100
AcDbLine
 10
58.659099
 20
294.380579
 30
0.0
 11
59.759514
 21
290.993853
 31
0.0
  0
LINE
  5
12f
100
AcDbEntity
  8
0
 62
5
100
AcDbLine
 10
71.359107
 20
255.293999
 30
0.0
 11
87.151250
 21
255.293956
 31
0.0
  0
LINE
  5
130
100
AcDbEntity
  8
0
 62
5
100
AcDbLine
 10
91.984249
 20
240.419547
 30
0.0
 11
79.448214
 21
231.311587
 31
0.0
  0
LINE
  5
131
100
AcDbEntity
  8
0
 62
5
100
AcDbLine
 10
79.448214
 20
231.311587
 30
0.0
 11
75.403998
 21
243.758405
 31
0.0
  0
LINE
  5
132
100
AcDbEntity
  8
0
 62
5
100
AcDbLine
 10
75.403998
 20
243.758405
 30
0.0
 11
75.135585
 21
243.671193
 31
0.0
  0
LINE
  5
133
100
AcDbEntity
  8
0
 62
5
100
AcDbLine
 10
75.135585
 20
243.671193
 30
0.0
 11
79.208139
 21
231.137165
 31
0.0
  0
LINE
  5
134
100
AcDbEntity
  8
0
 62
5
100
AcDbLine
 10
91.984249
 20
240.419547
 30
0.0
 11
98.930849
 21
239.347628
 31
0.0
  0
LINE
  5
135
100
AcDbEntity
  8
0
 62
5
100
AcDbLine
 10
98.930849
 20
239.347628
 30
0.0
 11
111.330009
 21
248.356144
 31
0.0
  0
LINE
  5
136
100
AcDbEntity
  8
0
 62
5
100
AcDbLine
 10
111.330009
 20
248.356144
 30
0.0
 11
109.576249
 21
253.200886
 31
0.0
  0
LINE
  5
137
100
AcDbEntity
  8
0
 62
1
100
AcDbLine
 10
97.849467
 20
244.681111
 30
0.0
 11
91.984249
 21
240.419547
 31
0.0
  0
LINE
  5
138
100
AcDbEntity
  8
0
 62
1
100
AcDbLine
 10
109.576249
 20
253.200886
 30
0.0
 11
106.582834
 21
251.026274
 31
0.0
  0
SPLINE
  5
139
100
AcDbEntity
  8
0
 62
5
100
AcDbSpline
 70
0
 71
3
 72
16
 73
12
 74
10
 40
0.000000
 40
0.000000
 40
0.000000
 40
0.000000
 40
0.594052
 40
1.926274
 40
3.438882
 40
6.074692
 40
8.833683
 40
11.469466
 40
12.982641
 40
14.315439
 40
14.909671
 40
14.909671
 40
14.909671
 40
14.909671
 10
52.600719
 20
277.369658
 30
0.0
 10
52.428257
 20
277.466933
 30
0.0
 10
51.869032
 20
277.782360
 30
0.0
 10
50.953202
 20
278.490751
 30
0.0
 10
49.924842
 20
280.071830
 30
0.0
 10
49.947212
 20
282.503408
 30
0.0
 10
50.771133
 20
285.039622
 30
0.0
 10
52.182682
 20
287.019817
 30
0.0
 10
53.943959
 20
287.695079
 30
0.0
 10
55.101585
 20
287.731326
 30
0.0
 10
55.739773
 20
287.658731
 30
0.0
 10
55.936569
 20
287.636345
 30
0.0
 11
52.600719
 21
277.369658
 31
0.0
 11
52.087730
 21
277.669225
 31
0.0
 11
51.050329
 21
278.505056
 31
0.0
 11
50.240867
 21
279.782848
 31
0.0
 11
50.074770
 21
282.413420
 31
0.0
 11
50.927328
 21
285.037382
 31
0.0
 11
52.607921
 21
287.067888
 31
0.0
 11
54.014144
 21
287.626669
 31
0.0
 11
55.345206
 21
287.694669
 31
0.0
 11
55.936569
 21
287.636345
 31
0.0
  0
LINE
  5
13a
100
AcDbEntity
  8
0
 62
5
100
AcDbLine
 10
106.213453
 20
250.026267
 30
0.0
 11
98.920816
 21
244.727856
 31
0.0
  0
SPLINE
  5
13b
100
AcDbEntity
  8
0
 62
5
100
AcDbSpline
 70
0
 71
3
 72
10
 73
6
 74
4
 40
0.000000
 40
0.000000
 40
0.000000
 40
0.000000
 40
1.112707
 40
1.522652
 40
1.581215
 40
1.581215
 40
1.581215
 40
1.581215
 10
106.161188
 20
251.606619
 30
0.0
 10
106.173448
 20
251.235919
 30
0.0
 10
106.190224
 20
250.728646
 30
0.0
 10
106.207646
 20
250.201862
 30
0.0
 10
106.212808
 20
250.045778
 30
0.0
 10
106.213453
 20
250.026267
 30
0.0
 11
106.161188
 21
251.606619
 31
0.0
 11
106.197967
 21
250.494520
 31
0.0
 11
106.211517
 21
250.084799
 31
0.0
 11
106.213453
 21
250.026267
 31
0.0
  0
LINE
  5
13c
100
AcDbEntity
  8
0
 62
5
100
AcDbLine
 10
95.066056
 20
255.294143
 30
0.0
 11
95.972534
 21
255.293860
 31
0.0
  0
LINE
  5
13d
100
AcDbEntity
  8
0
 62
5
100
AcDbLine
 10
95.972534
 20
255.293860
 30
0.0
 11
95.972534
 21
255.799196
 31
0.0
  0
LINE
  5
13e
100
AcDbEntity
  8
0
 62
5
100
AcDbLine
 10
95.972534
 20
255.799196
 30
0.0
 11
94.406683
 21
255.799196
 31
0.0
  0
SPLINE
  5
13f
100
AcDbEntity
  8
0
 62
5
100
AcDbSpline
 70
0
 71
3
 72
10
 73
6
 74
4
 40
0.000000
 40
0.000000
 40
0.000000
 40
0.000000
 40
0.058722
 40
0.469774
 40
1.585486
 40
1.585486
 40
1.585486
 40
1.585486
 10
98.920816
 20
244.727856
 30
0.0
 10
98.902384
 20
244.734443
 30
0.0
 10
98.754928
 20
244.787145
 30
0.0
 10
98.257263
 20
244.965012
 30
0.0
 10
97.778030
 20
245.136293
 30
0.0
 10
97.427821
 20
245.261459
 30
0.0
 11
98.920816
 21
244.727856
 31
0.0
 11
98.865520
 21
244.747619
 31
0.0
 11
98.478448
 21
244.885960
 31
0.0
 11
97.427821
 21
245.261459
 31
0.0
  0
LINE
  5
140
100
AcDbEntity
  8
0
 62
5
100
AcDbLine
 10
105.201717
 20
255.799196
 30
0.0
 11
103.635881
 21
255.799196
 31
0.0
  0
LINE
  5
141
100
AcDbEntity
  8
0
 62
5
100
AcDbLine
 10
103.635881
 20
255.799196
 30
0.0
 11
103.635881
 21
255.293567
 31
0.0
  0
LINE
  5
142
100
AcDbEntity
  8
0
 62
5
100
AcDbLine
 10
103.635881
 20
255.293567
 30
0.0
 11
104.542356
 21
255.293849
 31
0.0
  0
LINE
  5
143
100
AcDbEntity
  8
0
 62
5
100
AcDbLine
 10
95.066062
 20
255.294145
 30
0.0
 11
87.151250
 21
255.293956
 31
0.0
  0
LINE
  5
144
100
AcDbEntity
  8
0
 62
5
100
AcDbLine
 10
112.457171
 20
255.293999
 30
0.0
 11
104.542359
 21
255.293810
 31
0.0
  0
LINE
  5
145
100
AcDbEntity
  8
0
 62
1
100
AcDbLine
 10
97.895450
 20
255.293759
 30
0.0
 11
101.712999
 21
255.293570
 31
0.0
  0
LINE
  5
146
100
AcDbEntity
  8
0
 62
5
100
AcDbLine
 10
112.457174
 20
255.293996
 30
0.0
 11
109.576252
 21
253.200883
 31
0.0
  0
LINE
  5
147
100
AcDbEntity
  8
0
 62
5
100
AcDbLine
 10
79.208128
 20
231.137154
 30
0.0
 11
84.088128
 21
216.117922
 31
0.0
  0
LINE
  5
148
100
AcDbEntity
  8
0
 62
5
100
AcDbLine
 10
71.435203
 20
206.925021
 30
0.0
 11
58.899171
 21
216.032984
 31
0.0
  0
LINE
  5
149
100
AcDbEntity
  8
0
 62
5
100
AcDbLine
 10
58.899171
 20
216.032984
 30
0.0
 11
69.487068
 21
223.725541
 31
0.0
  0
LINE
  5
14a
100
AcDbEntity
  8
0
 62
5
100
AcDbLine
 10
69.487068
 20
223.725541
 30
0.0
 11
69.321178
 21
223.953867
 31
0.0
  0
LINE
  5
14b
100
AcDbEntity
  8
0
 62
5
100
AcDbLine
 10
69.321178
 20
223.953867
 30
0.0
 11
58.659099
 21
216.207409
 31
0.0
  0
LINE
  5
14c
100
AcDbEntity
  8
0
 62
5
100
AcDbLine
 10
71.435203
 20
206.925021
 30
0.0
 11
72.562364
 21
199.987169
 31
0.0
  0
LINE
  5
14d
100
AcDbEntity
  8
0
 62
5
100
AcDbLine
 10
72.562364
 20
199.987169
 30
0.0
 11
84.961524
 21
190.978653
 31
0.0
  0
LINE
  5
14e
100
AcDbEntity
  8
0
 62
5
100
AcDbLine
 10
84.961524
 20
190.978653
 30
0.0
 11
89.027203
 21
194.143682
 31
0.0
  0
LINE
  5
14f
100
AcDbEntity
  8
0
 62
1
100
AcDbLine
 10
77.300644
 20
202.663762
 30
0.0
 11
71.435203
 21
206.925021
 31
0.0
  0
LINE
  5
150
100
AcDbEntity
  8
0
 62
1
100
AcDbLine
 10
89.027203
 20
194.143682
 30
0.0
 11
86.034008
 21
196.318599
 31
0.0
  0
SPLINE
  5
151
100
AcDbEntity
  8
0
 62
5
100
AcDbSpline
 70
0
 71
3
 72
16
 73
12
 74
10
 40
0.000000
 40
0.000000
 40
0.000000
 40
0.000000
 40
0.594052
 40
1.926273
 40
3.438880
 40
6.074691
 40
8.833683
 40
11.469466
 40
12.982641
 40
14.315438
 40
14.909670
 40
14.909670
 40
14.909670
 40
14.909670
 10
94.406683
 20
255.799196
 30
0.0
 10
94.445904
 20
255.993277
 30
0.0
 10
94.573083
 20
256.622603
 30
0.0
 10
94.963795
 20
257.712514
 30
0.0
 10
96.149710
 20
259.179123
 30
0.0
 10
98.469191
 20
259.909247
 30
0.0
 10
101.135879
 20
259.909386
 30
0.0
 10
103.455349
 20
259.178836
 30
0.0
 10
104.641827
 20
257.712430
 30
0.0
 10
105.034026
 20
256.622663
 30
0.0
 10
105.162194
 20
255.993278
 30
0.0
 10
105.201717
 20
255.799196
 30
0.0
 11
94.406683
 21
255.799196
 31
0.0
 11
94.533066
 21
256.379649
 31
0.0
 11
95.007414
 21
257.624561
 31
0.0
 11
95.972528
 21
258.789264
 31
0.0
 11
98.423024
 21
259.760125
 31
0.0
 11
101.182016
 21
259.760143
 31
0.0
 11
103.632474
 21
258.789264
 31
0.0
 11
104.598454
 21
257.624540
 31
0.0
 11
105.074446
 21
256.379638
 31
0.0
 11
105.201717
 21
255.799196
 31
0.0
  0
LINE
  5
152
100
AcDbEntity
  8
0
 62
5
100
AcDbLine
 10
84.968802
 20
196.360882
 30
0.0
 11
77.676166
 21
201.659291
 31
0.0
  0
SPLINE
  5
153
100
AcDbEntity
  8
0
 62
5
100
AcDbSpline
 70
0
 71
3
 72
10
 73
6
 74
4
 40
0.000000
 40
0.000000
 40
0.000000
 40
0.000000
 40
1.112709
 40
1.522654
 40
1.581217
 40
1.581217
 40
1.581217
 40
1.581217
 10
86.455656
 20
196.898947
 30
0.0
 10
86.106888
 20
196.772734
 30
0.0
 10
85.629626
 20
196.600022
 30
0.0
 10
85.134008
 20
196.420667
 30
0.0
 10
84.987159
 20
196.367525
 30
0.0
 10
84.968802
 20
196.360882
 30
0.0
 11
86.455656
 21
196.898947
 31
0.0
 11
85.409352
 21
196.520309
 31
0.0
 11
85.023871
 21
196.380810
 31
0.0
 11
84.968802
 21
196.360882
 31
0.0
  0
LINE
  5
154
100
AcDbEntity
  8
0
 62
5
100
AcDbLine
 10
86.534114
 20
208.590547
 30
0.0
 11
86.813960
 21
207.728350
 31
0.0
  0
LINE
  5
155
100
AcDbEntity
  8
0
 62
5
100
AcDbLine
 10
86.813960
 20
207.728350
 30
0.0
 11
87.294568
 21
207.884506
 31
0.0
  0
LINE
  5
156
100
AcDbEntity
  8
0
 62
5
100
AcDbLine
 10
87.294568
 20
207.884506
 30
0.0
 11
86.810692
 21
209.373720
 31
0.0
  0
SPLINE
  5
157
100
AcDbEntity
  8
0
 62
5
100
AcDbSpline
 70
0
 71
3
 72
10
 73
6
 74
4
 40
0.000000
 40
0.000000
 40
0.000000
 40
0.000000
 40
0.058722
 40
0.469774
 40
1.585487
 40
1.585487
 40
1.585487
 40
1.585487
 10
77.676166
 20
201.659291
 30
0.0
 10
77.676736
 20
201.678857
 30
0.0
 10
77.681291
 20
201.835382
 30
0.0
 10
77.696666
 20
202.363654
 30
0.0
 10
77.711471
 20
202.872360
 30
0.0
 10
77.722290
 20
203.244107
 30
0.0
 11
77.676166
 21
201.659291
 31
0.0
 11
77.677874
 21
201.717988
 31
0.0
 11
77.689832
 21
202.128866
 31
0.0
 11
77.722290
 21
203.244107
 31
0.0
  0
LINE
  5
158
100
AcDbEntity
  8
0
 62
5
100
AcDbLine
 10
90.146542
 20
199.107034
 30
0.0
 11
89.662672
 21
200.596233
 31
0.0
  0
LINE
  5
159
100
AcDbEntity
  8
0
 62
5
100
AcDbLine
 10
89.662672
 20
200.596233
 30
0.0
 11
89.181788
 21
200.439987
 31
0.0
  0
LINE
  5
15a
100
AcDbEntity
  8
0
 62
5
100
AcDbLine
 10
89.181788
 20
200.439987
 30
0.0
 11
89.462173
 21
199.577961
 31
0.0
  0
LINE
  5
15b
100
AcDbEntity
  8
0
 62
5
100
AcDbLine
 10
86.534117
 20
208.590545
 30
0.0
 11
84.088128
 21
216.117922
 31
0.0
  0
LINE
  5
15c
100
AcDbEntity
  8
0
 62
5
100
AcDbLine
 10
91.908125
 20
192.050570
 30
0.0
 11
89.462136
 21
199.577947
 31
0.0
  0
LINE
  5
15d
100
AcDbEntity
  8
0
 62
1
100
AcDbLine
 10
87.408080
 20
205.899516
 30
0.0
 11
88.587588
 21
202.268753
 31
0.0
  0
LINE
  5
15e
100
AcDbEntity
  8
0
 62
5
100
AcDbLine
 10
91.908125
 20
192.050570
 30
0.0
 11
89.027203
 21
194.143682
 31
0.0
  0
LINE
  5
15f
100
AcDbEntity
  8
0
 62
5
100
AcDbLine
 10
58.659099
 20
216.207418
 30
0.0
 11
45.882961
 21
206.925064
 31
0.0
  0
LINE
  5
160
100
AcDbEntity
  8
0
 62
5
100
AcDbLine
 10
33.230024
 20
216.117947
 30
0.0
 11
38.018364
 21
230.854940
 31
0.0
  0
LINE
  5
161
100
AcDbEntity
  8
0
 62
5
100
AcDbLine
 10
38.018364
 20
230.854940
 30
0.0
 11
48.606261
 21
223.162381
 31
0.0
  0
LINE
  5
162
100
AcDbEntity
  8
0
 62
5
100
AcDbLine
 10
48.606261
 20
223.162381
 30
0.0
 11
48.772149
 21
223.390707
 31
0.0
  0
LINE
  5
163
100
AcDbEntity
  8
0
 62
5
100
AcDbLine
 10
48.772149
 20
223.390707
 30
0.0
 11
38.110067
 21
231.137162
 31
0.0
  0
LINE
  5
164
100
AcDbEntity
  8
0
 62
5
100
AcDbLine
 10
33.230024
 20
216.117950
 30
0.0
 11
26.980048
 21
212.902039
 31
0.0
  0
LINE
  5
165
100
AcDbEntity
  8
0
 62
5
100
AcDbLine
 10
26.980048
 20
212.902039
 30
0.0
 11
22.243991
 21
198.325956
 31
0.0
  0
LINE
  5
166
100
AcDbEntity
  8
0
 62
5
100
AcDbLine
 10
22.243991
 20
198.325956
 30
0.0
 11
26.510477
 21
195.437310
 31
0.0
  0
LINE
  5
167
100
AcDbEntity
  8
0
 62
1
100
AcDbLine
 10
30.989849
 20
209.222782
 30
0.0
 11
33.230024
 21
216.117950
 31
0.0
  0
LINE
  5
168
100
AcDbEntity
  8
0
 62
1
100
AcDbLine
 10
26.510477
 20
195.437310
 30
0.0
 11
27.653997
 21
198.956096
 31
0.0
  0
SPLINE
  5
169
100
AcDbEntity
  8
0
 62
5
100
AcDbSpline
 70
0
 71
3
 72
16
 73
12
 74
10
 40
0.000000
 40
0.000000
 40
0.000000
 40
0.000000
 40
0.594052
 40
1.926274
 40
3.438881
 40
6.074691
 40
8.833682
 40
11.469464
 40
12.982640
 40
14.315438
 40
14.909669
 40
14.909669
 40
14.909669
 40
14.909669
 10
86.810692
 20
209.373720
 30
0.0
 10
87.007394
 20
209.396392
 30
0.0
 10
87.645219
 20
209.469911
 30
0.0
 10
88.802523
 20
209.435122
 30
0.0
 10
90.563818
 20
208.760457
 30
0.0
 10
91.974967
 20
206.780121
 30
0.0
 10
92.799151
 20
204.243993
 30
0.0
 10
92.821114
 20
201.812294
 30
0.0
 10
91.793119
 20
200.230743
 30
0.0
 10
90.877885
 20
199.520983
 30
0.0
 10
90.318911
 20
199.204597
 30
0.0
 10
90.146542
 20
199.107034
 30
0.0
 11
86.810692
 21
209.373720
 31
0.0
 11
87.401790
 21
209.432893
 31
0.0
 11
88.732354
 21
209.366460
 31
0.0
 11
90.138290
 21
208.808493
 31
0.0
 11
91.818877
 21
206.777947
 31
0.0
 11
92.671470
 21
204.153996
 31
0.0
 11
92.505344
 21
201.523455
 31
0.0
 11
91.696128
 21
200.244834
 31
0.0
 11
90.659246
 21
199.407443
 31
0.0
 11
90.146542
 21
199.107034
 31
0.0
  0
LINE
  5
16a
100
AcDbEntity
  8
0
 62
5
100
AcDbLine
 10
27.365043
 20
199.982233
 30
0.0
 11
30.150582
 21
208.555241
 31
0.0
  0
SPLINE
  5
16b
100
AcDbEntity
  8
0
 62
5
100
AcDbSpline
 70
0
 71
3
 72
10
 73
6
 74
4
 40
0.000000
 40
0.000000
 40
0.000000
 40
0.000000
 40
1.112709
 40
1.522655
 40
1.581218
 40
1.581218
 40
1.581218
 40
1.581218
 10
28.336237
 20
198.734422
 30
0.0
 10
28.108426
 20
199.027118
 30
0.0
 10
27.796685
 20
199.427650
 30
0.0
 10
27.472954
 20
199.843588
 30
0.0
 10
27.377033
 20
199.966828
 30
0.0
 10
27.365043
 20
199.982233
 30
0.0
 11
28.336237
 21
198.734422
 31
0.0
 11
27.652804
 21
199.612511
 31
0.0
 11
27.401013
 21
199.936018
 31
0.0
 11
27.365043
 21
199.982233
 31
0.0
  0
LINE
  5
16c
100
AcDbEntity
  8
0
 62
5
100
AcDbLine
 10
39.479855
 20
202.272707
 30
0.0
 11
38.746334
 21
201.740122
 31
0.0
  0
LINE
  5
16d
100
AcDbEntity
  8
0
 62
5
100
AcDbLine
 10
38.746334
 20
201.740122
 30
0.0
 11
39.043364
 21
201.331295
 31
0.0
  0
LINE
  5
16e
100
AcDbEntity
  8
0
 62
5
100
AcDbLine
 10
39.043364
 20
201.331295
 30
0.0
 11
40.310164
 21
202.251678
 31
0.0
  0
SPLINE
  5
16f
100
AcDbEntity
  8
0
 62
5
100
AcDbSpline
 70
0
 71
3
 72
10
 73
6
 74
4
 40
0.000000
 40
0.000000
 40
0.000000
 40
0.000000
 40
0.058722
 40
0.469775
 40
1.585489
 40
1.585489
 40
1.585489
 40
1.585489
 10
30.150582
 20
208.555241
 30
0.0
 10
30.169366
 20
208.560746
 30
0.0
 10
30.319638
 20
208.604782
 30
0.0
 10
30.826806
 20
208.753405
 30
0.0
 10
31.315191
 20
208.896524
 30
0.0
 10
31.672087
 20
209.001110
 30
0.0
 11
30.150582
 21
208.555241
 31
0.0
 11
30.206934
 21
208.571755
 31
0.0
 11
30.601398
 21
208.687351
 31
0.0
 11
31.672087
 21
209.001110
 31
0.0
  0
LINE
  5
170
100
AcDbEntity
  8
0
 62
5
100
AcDbLine
 10
31.576797
 20
195.906518
 30
0.0
 11
32.843586
 21
196.826893
 31
0.0
  0
LINE
  5
171
100
AcDbEntity
  8
0
 62
5
100
AcDbLine
 10
32.843586
 20
196.826893
 30
0.0
 11
32.546386
 21
197.235957
 31
0.0
  0
LINE
  5
172
100
AcDbEntity
  8
0
 62
5
100
AcDbLine
 10
32.546386
 20
197.235957
 30
0.0
 11
31.813198
 21
196.702916
 31
0.0
  0
LINE
  5
173
100
AcDbEntity
  8
0
 62
5
100
AcDbLine
 10
39.479855
 20
202.272701
 30
0.0
 11
45.882961
 21
206.925064
 31
0.0
  0
LINE
  5
174
100
AcDbEntity
  8
0
 62
5
100
AcDbLine
 10
25.410063
 20
192.050584
 30
0.0
 11
31.813170
 21
196.702944
 31
0.0
  0
LINE
  5
175
100
AcDbEntity
  8
0
 62
1
100
AcDbLine
 10
37.190601
 20
200.609941
 30
0.0
 11
34.102029
 21
198.366195
 31
0.0
  0
LINE
  5
176
100
AcDbEntity
  8
0
 62
5
100
AcDbLine
 10
25.410062
 20
192.050584
 30
0.0
 11
26.510476
 21
195.437310
 31
0.0
  0
SPLINE
  5
177
100
AcDbEntity
  8
0
 62
5
100
AcDbSpline
 70
0
 71
3
 72
16
 73
12
 74
10
 40
0.000000
 40
0.000000
 40
0.000000
 40
0.000000
 40
0.594052
 40
1.926274
 40
3.438881
 40
6.074691
 40
8.833682
 40
11.469463
 40
12.982640
 40
14.315438
 40
14.909670
 40
14.909670
 40
14.909670
 40
14.909670
 10
40.310164
 20
202.251678
 30
0.0
 10
40.392511
 20
202.071610
 30
0.0
 10
40.659531
 20
201.487721
 30
0.0
 10
40.984071
 20
200.376309
 30
0.0
 10
40.886696
 20
198.492734
 30
0.0
 10
39.439353
 20
196.538695
 30
0.0
 10
37.282039
 20
194.971144
 30
0.0
 10
34.976143
 20
194.198822
 30
0.0
 10
33.154330
 20
194.687775
 30
0.0
 10
32.196485
 20
195.338886
 30
0.0
 10
31.722850
 20
195.772734
 30
0.0
 10
31.576797
 20
195.906518
 30
0.0
 11
40.310164
 21
202.251678
 31
0.0
 11
40.549100
 21
201.707796
 31
0.0
 11
40.897086
 21
200.421826
 31
0.0
 11
40.800886
 21
198.912281
 31
0.0
 11
39.389051
 21
196.686473
 31
0.0
 11
37.156991
 21
195.064765
 31
0.0
 11
34.603862
 21
194.409880
 31
0.0
 11
33.137759
 21
194.784373
 31
0.0
 11
32.020938
 21
195.511739
 31
0.0
 11
31.576797
 21
195.906518
 31
0.0
  0
ENDSEC
  0
SECTION
  2
OBJECTS
  0
DICTIONARY
  5
C
330
0
100
AcDbDictionary
  3
ACAD_GROUP
350
D
  3
ACAD_MLINESTYLE
350
17
  0
DICTIONARY
  5
D
330
C
100
AcDbDictionary
  0
DICTIONARY
  5
1A
330
C
100
AcDbDictionary
  0
DICTIONARY
  5
17
330
C
100
AcDbDictionary
  3
STANDARD
350
18
  0
DICTIONARY
  5
19
330
C
100
AcDbDictionary
  0
ENDSEC
  0
EOF
