999
DXF created by Inkscape
  0
SECTION
  2
HEADER
  9
$ACADVER
  1
AC1014
  9
$HANDSEED
  5
FFFF
  9
$MEASUREMENT
 70
     1
  0
ENDSEC
  0
SECTION
  2
TABLES
  0
TABLE
  2
VPORT
  5
8
330
0
100
AcDbSymbolTable
 70
     4
  0
VPORT
  5
2E
330
8
100
AcDbSymbolTableRecord
100
AcDbViewportTableRecord
  2
*ACTIVE
 70
     0
 10
0.0
 20
0.0
 11
1.0
 21
1.0
 12
210.0
 22
148.5
 13
0.0
 23
0.0
 14
10.0
 24
10.0
 15
10.0
 25
10.0
 16
0.0
 26
0.0
 36
1.0
 17
0.0
 27
0.0
 37
0.0
 40
341.0
 41
1.24
 42
50.0
 43
0.0
 44
0.0
 50
0.0
 51
0.0
 71
     0
 72
   100
 73
     1
 74
     3
 75
     0
 76
     0
 77
     0
 78
     0
  0
ENDTAB
  0
TABLE
  2
LTYPE
  5
5
330
0
100
AcDbSymbolTable
 70
     1
  0
LTYPE
  5
14
330
5
100
AcDbSymbolTableRecord
100
AcDbLinetypeTableRecord
  2
BYBLOCK
 70
     0
  3

 72
    65
 73
     0
 40
0.0
  0
LTYPE
  5
15
330
5
100
AcDbSymbolTableRecord
100
AcDbLinetypeTableRecord
  2
BYLAYER
 70
     0
  3

 72
    65
 73
     0
 40
0.0
  0
LTYPE
  5
16
330
5
100
AcDbSymbolTableRecord
100
AcDbLinetypeTableRecord
  2
CONTINUOUS
 70
     0
  3
Solid line
 72
    65
 73
     0
 40
0.0
  0
ENDTAB
  0
TABLE
  2
LAYER
  5
2
330
0
100
AcDbSymbolTable
 70
1
  0
LAYER
  5
10
330
2
100
AcDbSymbolTableRecord
100
AcDbLayerTableRecord
  2
0
 70
     0
 62
     7
  6
CONTINUOUS
  0
ENDTAB
  0
TABLE
  2
STYLE
  5
3
330
0
100
AcDbSymbolTable
 70
     1
  0
STYLE
  5
11
330
3
100
AcDbSymbolTableRecord
100
AcDbTextStyleTableRecord
  2
STANDARD
 70
     0
 40
0.0
 41
1.0
 50
0.0
 71
     0
 42
2.5
  3
txt
  4

  0
ENDTAB
  0
TABLE
  2
VIEW
  5
6
330
0
100
AcDbSymbolTable
 70
     0
  0
ENDTAB
  0
TABLE
  2
UCS
  5
7
330
0
100
AcDbSymbolTable
 70
     0
  0
ENDTAB
  0
TABLE
  2
APPID
  5
9
330
0
100
AcDbSymbolTable
 70
     2
  0
APPID
  5
12
330
9
100
AcDbSymbolTableRecord
100
AcDbRegAppTableRecord
  2
ACAD
 70
     0
  0
ENDTAB
  0
TABLE
  2
DIMSTYLE
  5
A
330
0
100
AcDbSymbolTable
 70
     1
  0
DIMSTYLE
105
27
330
A
100
AcDbSymbolTableRecord
100
AcDbDimStyleTableRecord
  2
ISO-25
 70
     0
  3

  4

  5

  6

  7

 40
1.0
 41
2.5
 42
0.625
 43
3.75
 44
1.25
 45
0.0
 46
0.0
 47
0.0
 48
0.0
140
2.5
141
2.5
142
0.0
143
0.03937007874016
144
1.0
145
0.0
146
1.0
147
0.625
 71
     0
 72
     0
 73
     0
 74
     0
 75
     0
 76
     0
 77
     1
 78
     8
170
     0
171
     3
172
     1
173
     0
174
     0
175
     0
176
     0
177
     0
178
     0
270
     2
271
     2
272
     2
273
     2
274
     3
340
11
275
     0
280
     0
281
     0
282
     0
283
     0
284
     8
285
     0
286
     0
287
     3
288
     0
  0
ENDTAB
  0
TABLE
  2
BLOCK_RECORD
  5
1
330
0
100
AcDbSymbolTable
 70
     1
  0
BLOCK_RECORD
  5
1F
330
1
100
AcDbSymbolTableRecord
100
AcDbBlockTableRecord
  2
*MODEL_SPACE
  0
BLOCK_RECORD
  5
1B
330
1
100
AcDbSymbolTableRecord
100
AcDbBlockTableRecord
  2
*PAPER_SPACE
  0
ENDTAB
  0
ENDSEC
  0
SECTION
  2
BLOCKS
  0
BLOCK
  5
20
330
1F
100
AcDbEntity
  8
0
100
AcDbBlockBegin
  2
*MODEL_SPACE
 70
     0
 10
0.0
 20
0.0
 30
0.0
  3
*MODEL_SPACE
  1

  0
ENDBLK
  5
21
330
1F
100
AcDbEntity
  8
0
100
AcDbBlockEnd
  0
BLOCK
  5
1C
330
1B
100
AcDbEntity
 67
     1
  8
0
100
AcDbBlockBegin
  2
*PAPER_SPACE
  1

  0
ENDBLK
  5
1D
330
1B
100
AcDbEntity
 67
     1
  8
0
100
AcDbBlockEnd
  0
ENDSEC
  0
SECTION
  2
ENTITIES
  0
LINE
  5
100
100
AcDbEntity
  8
0
 62
1
100
AcDbLine
 10
71.236611
 20
224.145056
 30
0.0
 11
79.085643
 21
248.301892
 31
0.0
  0
LINE
  5
101
100
AcDbEntity
  8
0
 62
1
100
AcDbLine
 10
71.236611
 20
272.458726
 30
0.0
 11
37.987580
 21
248.301892
 31
0.0
  0
LINE
  5
102
100
AcDbEntity
  8
0
 62
1
100
AcDbLine
 10
25.287584
 20
287.388472
 30
0.0
 11
37.987582
 21
248.301892
 31
0.0
  0
LINE
  5
103
100
AcDbEntity
  8
0
 62
1
100
AcDbLine
 10
79.085646
 20
248.301892
 30
0.0
 11
37.987582
 21
248.301892
 31
0.0
  0
LINE
  5
104
100
AcDbEntity
  8
0
 62
1
100
AcDbLine
 10
50.687582
 20
287.388473
 30
0.0
 11
37.987580
 21
248.301892
 31
0.0
  0
LINE
  5
105
100
AcDbEntity
  8
0
 62
5
100
AcDbLine
 10
50.593509
 20
287.388473
 30
0.0
 11
45.603648
 21
292.338783
 31
0.0
  0
LINE
  5
106
100
AcDbEntity
  8
0
 62
5
100
AcDbLine
 10
45.603648
 20
292.338783
 30
0.0
 11
30.277443
 21
292.338783
 31
0.0
  0
LINE
  5
107
100
AcDbEntity
  8
0
 62
5
100
AcDbLine
 10
30.277443
 20
292.338783
 30
0.0
 11
25.287585
 21
287.388473
 31
0.0
  0
LINE
  5
108
100
AcDbEntity
  8
0
 62
1
100
AcDbLine
 10
43.343562
 20
287.388284
 30
0.0
 11
50.593509
 21
287.388472
 31
0.0
  0
LINE
  5
109
100
AcDbEntity
  8
0
 62
1
100
AcDbLine
 10
25.287585
 20
287.388473
 30
0.0
 11
32.548528
 21
287.388285
 31
0.0
  0
LINE
  5
10a
100
AcDbEntity
  8
0
 62
5
100
AcDbLine
 10
33.435152
 20
287.980191
 30
0.0
 11
42.449346
 21
287.980191
 31
0.0
  0
SPLINE
  5
10b
100
AcDbEntity
  8
0
 62
5
100
AcDbSpline
 70
0
 71
3
 72
10
 73
6
 74
4
 40
0.000000
 40
0.000000
 40
0.000000
 40
0.000000
 40
1.112709
 40
1.522654
 40
1.581217
 40
1.581217
 40
1.581217
 40
1.581217
 10
32.548528
 20
286.670936
 30
0.0
 10
32.756501
 20
286.978045
 30
0.0
 10
33.041097
 20
287.398300
 30
0.0
 10
33.336638
 20
287.834718
 30
0.0
 10
33.424206
 20
287.964027
 30
0.0
 10
33.435152
 20
287.980191
 30
0.0
 11
32.548528
 21
286.670936
 31
0.0
 11
33.172448
 21
287.592264
 31
0.0
 11
33.402314
 21
287.931700
 31
0.0
 11
33.435152
 21
287.980191
 31
0.0
  0
LINE
  5
10c
100
AcDbEntity
  8
0
 62
5
100
AcDbLine
 10
87.000453
 20
248.302079
 30
0.0
 11
87.906931
 21
248.301796
 31
0.0
  0
LINE
  5
10d
100
AcDbEntity
  8
0
 62
5
100
AcDbLine
 10
87.906931
 20
248.301796
 30
0.0
 11
87.906931
 21
248.807132
 31
0.0
  0
LINE
  5
10e
100
AcDbEntity
  8
0
 62
5
100
AcDbLine
 10
87.906931
 20
248.807132
 30
0.0
 11
86.341080
 21
248.807132
 31
0.0
  0
SPLINE
  5
10f
100
AcDbEntity
  8
0
 62
5
100
AcDbSpline
 70
0
 71
3
 72
10
 73
6
 74
4
 40
0.000000
 40
0.000000
 40
0.000000
 40
0.000000
 40
0.058722
 40
0.469774
 40
1.585487
 40
1.585487
 40
1.585487
 40
1.585487
 10
42.449346
 20
287.980191
 30
0.0
 10
42.460386
 20
287.964027
 30
0.0
 10
42.548704
 20
287.834718
 30
0.0
 10
42.846776
 20
287.398300
 30
0.0
 10
43.133808
 20
286.978045
 30
0.0
 10
43.343562
 20
286.670936
 30
0.0
 11
42.449346
 21
287.980191
 31
0.0
 11
42.482466
 21
287.931700
 31
0.0
 11
42.714299
 21
287.592264
 31
0.0
 11
43.343562
 21
286.670936
 31
0.0
  0
LINE
  5
110
100
AcDbEntity
  8
0
 62
5
100
AcDbLine
 10
97.136114
 20
248.807132
 30
0.0
 11
95.570277
 21
248.807132
 31
0.0
  0
LINE
  5
111
100
AcDbEntity
  8
0
 62
5
100
AcDbLine
 10
95.570277
 20
248.807132
 30
0.0
 11
95.570277
 21
248.301503
 31
0.0
  0
LINE
  5
112
100
AcDbEntity
  8
0
 62
5
100
AcDbLine
 10
95.570277
 20
248.301503
 30
0.0
 11
96.476752
 21
248.301785
 31
0.0
  0
LINE
  5
113
100
AcDbEntity
  8
0
 62
5
100
AcDbLine
 10
87.000458
 20
248.302081
 30
0.0
 11
79.085646
 21
248.301892
 31
0.0
  0
LINE
  5
114
100
AcDbEntity
  8
0
 62
5
100
AcDbLine
 10
104.391567
 20
248.301935
 30
0.0
 11
96.476755
 21
248.301746
 31
0.0
  0
LINE
  5
115
100
AcDbEntity
  8
0
 62
1
100
AcDbLine
 10
89.829846
 20
248.301695
 30
0.0
 11
93.647395
 21
248.301506
 31
0.0
  0
LINE
  5
116
100
AcDbEntity
  8
0
 62
5
100
AcDbLine
 10
85.382334
 20
213.867361
 30
0.0
 11
84.649143
 21
214.400405
 31
0.0
  0
LINE
  5
117
100
AcDbEntity
  8
0
 62
5
100
AcDbLine
 10
84.649143
 20
214.400405
 30
0.0
 11
84.352113
 21
213.991578
 31
0.0
  0
LINE
  5
118
100
AcDbEntity
  8
0
 62
5
100
AcDbLine
 10
84.352113
 20
213.991578
 30
0.0
 11
85.618913
 21
213.071195
 31
0.0
  0
SPLINE
  5
119
100
AcDbEntity
  8
0
 62
5
100
AcDbSpline
 70
0
 71
3
 72
16
 73
12
 74
10
 40
0.000000
 40
0.000000
 40
0.000000
 40
0.000000
 40
0.594052
 40
1.926273
 40
3.438880
 40
6.074691
 40
8.833683
 40
11.469466
 40
12.982641
 40
14.315438
 40
14.909670
 40
14.909670
 40
14.909670
 40
14.909670
 10
86.341080
 20
248.807132
 30
0.0
 10
86.380301
 20
249.001213
 30
0.0
 10
86.507479
 20
249.630539
 30
0.0
 10
86.898192
 20
250.720450
 30
0.0
 10
88.084106
 20
252.187059
 30
0.0
 10
90.403587
 20
252.917183
 30
0.0
 10
93.070276
 20
252.917322
 30
0.0
 10
95.389746
 20
252.186772
 30
0.0
 10
96.576223
 20
250.720366
 30
0.0
 10
96.968422
 20
249.630599
 30
0.0
 10
97.096591
 20
249.001214
 30
0.0
 10
97.136114
 20
248.807132
 30
0.0
 11
86.341080
 21
248.807132
 31
0.0
 11
86.467462
 21
249.387585
 31
0.0
 11
86.941810
 21
250.632497
 31
0.0
 11
87.906925
 21
251.797200
 31
0.0
 11
90.357421
 21
252.768061
 31
0.0
 11
93.116412
 21
252.768079
 31
0.0
 11
95.566871
 21
251.797200
 31
0.0
 11
96.532850
 21
250.632476
 31
0.0
 11
97.008842
 21
249.387574
 31
0.0
 11
97.136114
 21
248.807132
 31
0.0
  0
LINE
  5
11a
100
AcDbEntity
  8
0
 62
5
100
AcDbLine
 10
76.885546
 20
219.416355
 30
0.0
 11
78.152337
 21
218.495980
 31
0.0
  0
LINE
  5
11b
100
AcDbEntity
  8
0
 62
5
100
AcDbLine
 10
78.152337
 20
218.495980
 30
0.0
 11
78.449537
 21
218.905041
 31
0.0
  0
LINE
  5
11c
100
AcDbEntity
  8
0
 62
5
100
AcDbLine
 10
78.449537
 20
218.905041
 30
0.0
 11
77.716016
 21
219.437626
 31
0.0
  0
LINE
  5
11d
100
AcDbEntity
  8
0
 62
5
100
AcDbLine
 10
85.382329
 20
213.867361
 30
0.0
 11
91.785654
 21
209.215303
 31
0.0
  0
LINE
  5
11e
100
AcDbEntity
  8
0
 62
5
100
AcDbLine
 10
71.312710
 20
224.089721
 30
0.0
 11
77.716039
 21
219.437663
 31
0.0
  0
LINE
  5
11f
100
AcDbEntity
  8
0
 62
1
100
AcDbLine
 10
83.093532
 20
215.530747
 30
0.0
 11
80.005180
 21
217.774801
 31
0.0
  0
LINE
  5
120
100
AcDbEntity
  8
0
 62
5
100
AcDbLine
 10
105.931578
 20
219.492690
 30
0.0
 11
105.198057
 21
218.960103
 31
0.0
  0
LINE
  5
121
100
AcDbEntity
  8
0
 62
5
100
AcDbLine
 10
105.198057
 20
218.960103
 30
0.0
 11
105.495087
 21
218.551276
 31
0.0
  0
LINE
  5
122
100
AcDbEntity
  8
0
 62
5
100
AcDbLine
 10
105.495087
 20
218.551276
 30
0.0
 11
106.761887
 21
219.471662
 31
0.0
  0
SPLINE
  5
123
100
AcDbEntity
  8
0
 62
5
100
AcDbSpline
 70
0
 71
3
 72
16
 73
12
 74
10
 40
0.000000
 40
0.000000
 40
0.000000
 40
0.000000
 40
0.594052
 40
1.926273
 40
3.438880
 40
6.074692
 40
8.833683
 40
11.469467
 40
12.982641
 40
14.315438
 40
14.909669
 40
14.909669
 40
14.909669
 40
14.909669
 10
85.618913
 20
213.071195
 30
0.0
 10
85.473104
 20
212.937234
 30
0.0
 10
85.000306
 20
212.502851
 30
0.0
 10
84.043580
 20
211.850750
 30
0.0
 10
82.222104
 20
211.361301
 30
0.0
 10
79.916448
 20
212.133976
 30
0.0
 10
77.758970
 20
213.701303
 30
0.0
 10
76.311885
 20
215.655680
 30
0.0
 10
76.213937
 20
217.539422
 30
0.0
 10
76.537190
 20
218.651590
 30
0.0
 10
76.803443
 20
219.236109
 30
0.0
 10
76.885546
 20
219.416355
 30
0.0
 11
85.618913
 21
213.071195
 31
0.0
 11
85.175486
 21
212.675884
 31
0.0
 11
84.059989
 21
211.947543
 31
0.0
 11
82.594600
 21
211.572558
 31
0.0
 11
80.041449
 21
212.227482
 31
0.0
 11
77.809367
 21
213.849161
 31
0.0
 11
76.397572
 21
216.074962
 31
0.0
 11
76.300687
 21
217.585032
 31
0.0
 11
76.647336
 21
218.871959
 31
0.0
 11
76.885546
 21
219.416355
 31
0.0
  0
LINE
  5
124
100
AcDbEntity
  8
0
 62
5
100
AcDbLine
 10
98.028520
 20
213.126499
 30
0.0
 11
99.295308
 21
214.046874
 31
0.0
  0
LINE
  5
125
100
AcDbEntity
  8
0
 62
5
100
AcDbLine
 10
99.295308
 20
214.046874
 30
0.0
 11
98.998109
 21
214.455938
 31
0.0
  0
LINE
  5
126
100
AcDbEntity
  8
0
 62
5
100
AcDbLine
 10
98.998109
 20
214.455938
 30
0.0
 11
98.264918
 21
213.922896
 31
0.0
  0
LINE
  5
127
100
AcDbEntity
  8
0
 62
5
100
AcDbLine
 10
105.931578
 20
219.492685
 30
0.0
 11
112.334683
 21
224.145047
 31
0.0
  0
LINE
  5
128
100
AcDbEntity
  8
0
 62
5
100
AcDbLine
 10
91.861784
 20
209.270565
 30
0.0
 11
98.264893
 21
213.922927
 31
0.0
  0
LINE
  5
129
100
AcDbEntity
  8
0
 62
1
100
AcDbLine
 10
103.642324
 20
217.829924
 30
0.0
 11
100.553751
 21
215.586176
 31
0.0
  0
LINE
  5
12a
100
AcDbEntity
  8
0
 62
5
100
AcDbLine
 10
106.931632
 20
240.774518
 30
0.0
 11
107.211481
 21
239.912320
 31
0.0
  0
LINE
  5
12b
100
AcDbEntity
  8
0
 62
5
100
AcDbLine
 10
107.211481
 20
239.912320
 30
0.0
 11
107.692086
 21
240.068477
 31
0.0
  0
LINE
  5
12c
100
AcDbEntity
  8
0
 62
5
100
AcDbLine
 10
107.692086
 20
240.068477
 30
0.0
 11
107.208213
 21
241.557690
 31
0.0
  0
SPLINE
  5
12d
100
AcDbEntity
  8
0
 62
5
100
AcDbSpline
 70
0
 71
3
 72
16
 73
12
 74
10
 40
0.000000
 40
0.000000
 40
0.000000
 40
0.000000
 40
0.594052
 40
1.926274
 40
3.438883
 40
6.074693
 40
8.833684
 40
11.469467
 40
12.982642
 40
14.315440
 40
14.909671
 40
14.909671
 40
14.909671
 40
14.909671
 10
106.761887
 20
219.471662
 30
0.0
 10
106.844234
 20
219.291593
 30
0.0
 10
107.111253
 20
218.707704
 30
0.0
 10
107.435792
 20
217.596291
 30
0.0
 10
107.338421
 20
215.712716
 30
0.0
 10
105.891075
 20
213.758677
 30
0.0
 10
103.733761
 20
212.191125
 30
0.0
 10
101.427864
 20
211.418802
 30
0.0
 10
99.606051
 20
211.907756
 30
0.0
 10
98.648207
 20
212.558867
 30
0.0
 10
98.174573
 20
212.992715
 30
0.0
 10
98.028520
 20
213.126499
 30
0.0
 11
106.761887
 21
219.471662
 31
0.0
 11
107.000822
 21
218.927780
 31
0.0
 11
107.348807
 21
217.641809
 31
0.0
 11
107.252609
 21
216.132262
 31
0.0
 11
105.840774
 21
213.906455
 31
0.0
 11
103.608713
 21
212.284746
 31
0.0
 11
101.055582
 21
211.629861
 31
0.0
 11
99.589481
 21
212.004354
 31
0.0
 11
98.472660
 21
212.731720
 31
0.0
 11
98.028520
 21
213.126499
 31
0.0
  0
LINE
  5
12e
100
AcDbEntity
  8
0
 62
5
100
AcDbLine
 10
110.544060
 20
231.291004
 30
0.0
 11
110.060190
 21
232.780204
 31
0.0
  0
LINE
  5
12f
100
AcDbEntity
  8
0
 62
5
100
AcDbLine
 10
110.060190
 20
232.780204
 30
0.0
 11
109.579308
 21
232.623957
 31
0.0
  0
LINE
  5
130
100
AcDbEntity
  8
0
 62
5
100
AcDbLine
 10
109.579308
 20
232.623957
 30
0.0
 11
109.859693
 21
231.761932
 31
0.0
  0
LINE
  5
131
100
AcDbEntity
  8
0
 62
5
100
AcDbLine
 10
106.931638
 20
240.774515
 30
0.0
 11
104.485646
 21
248.301892
 31
0.0
  0
LINE
  5
132
100
AcDbEntity
  8
0
 62
5
100
AcDbLine
 10
112.305646
 20
224.234540
 30
0.0
 11
109.859657
 21
231.761918
 31
0.0
  0
LINE
  5
133
100
AcDbEntity
  8
0
 62
1
100
AcDbLine
 10
107.805598
 20
238.083486
 30
0.0
 11
108.985106
 21
234.452723
 31
0.0
  0
LINE
  5
134
100
AcDbEntity
  8
0
 62
5
100
AcDbLine
 10
71.160505
 20
272.514025
 30
0.0
 11
70.033340
 21
279.451876
 31
0.0
  0
LINE
  5
135
100
AcDbEntity
  8
0
 62
5
100
AcDbLine
 10
70.033340
 20
279.451876
 30
0.0
 11
57.634183
 21
288.460392
 31
0.0
  0
LINE
  5
136
100
AcDbEntity
  8
0
 62
5
100
AcDbLine
 10
57.634183
 20
288.460392
 30
0.0
 11
50.687580
 21
287.388473
 31
0.0
  0
LINE
  5
137
100
AcDbEntity
  8
0
 62
1
100
AcDbLine
 10
65.295063
 20
276.775283
 30
0.0
 11
71.160502
 21
272.514024
 31
0.0
  0
LINE
  5
138
100
AcDbEntity
  8
0
 62
1
100
AcDbLine
 10
50.687580
 20
287.388473
 30
0.0
 11
56.561696
 21
283.120446
 31
0.0
  0
SPLINE
  5
139
100
AcDbEntity
  8
0
 62
5
100
AcDbSpline
 70
0
 71
3
 72
16
 73
12
 74
10
 40
0.000000
 40
0.000000
 40
0.000000
 40
0.000000
 40
0.594052
 40
1.926273
 40
3.438881
 40
6.074691
 40
8.833681
 40
11.469463
 40
12.982639
 40
14.315436
 40
14.909668
 40
14.909668
 40
14.909668
 40
14.909668
 10
107.208213
 20
241.557690
 30
0.0
 10
107.404914
 20
241.580363
 30
0.0
 10
108.042739
 20
241.653882
 30
0.0
 10
109.200043
 20
241.619092
 30
0.0
 10
110.961339
 20
240.944428
 30
0.0
 10
112.372487
 20
238.964091
 30
0.0
 10
113.196670
 20
236.427963
 30
0.0
 10
113.218631
 20
233.996265
 30
0.0
 10
112.190638
 20
232.414713
 30
0.0
 10
111.275404
 20
231.704953
 30
0.0
 10
110.716429
 20
231.388567
 30
0.0
 10
110.544060
 20
231.291004
 30
0.0
 11
107.208213
 21
241.557690
 31
0.0
 11
107.799310
 21
241.616863
 31
0.0
 11
109.129873
 21
241.550430
 31
0.0
 11
110.535810
 21
240.992464
 31
0.0
 11
112.216397
 21
238.961917
 31
0.0
 11
113.068989
 21
236.337967
 31
0.0
 11
112.902862
 21
233.707425
 31
0.0
 11
112.093647
 21
232.428804
 31
0.0
 11
111.056764
 21
231.591413
 31
0.0
 11
110.544060
 21
231.291004
 31
0.0
  0
LINE
  5
13a
100
AcDbEntity
  8
0
 62
5
100
AcDbLine
 10
57.626905
 20
283.078163
 30
0.0
 11
64.919541
 21
277.779753
 31
0.0
  0
SPLINE
  5
13b
100
AcDbEntity
  8
0
 62
5
100
AcDbSpline
 70
0
 71
3
 72
10
 73
6
 74
4
 40
0.000000
 40
0.000000
 40
0.000000
 40
0.000000
 40
1.112708
 40
1.522654
 40
1.581217
 40
1.581217
 40
1.581217
 40
1.581217
 10
56.140051
 20
282.540099
 30
0.0
 10
56.488819
 20
282.666312
 30
0.0
 10
56.966081
 20
282.839024
 30
0.0
 10
57.461699
 20
283.018378
 30
0.0
 10
57.608549
 20
283.071520
 30
0.0
 10
57.626905
 20
283.078163
 30
0.0
 11
56.140051
 21
282.540099
 31
0.0
 11
57.186355
 21
282.918737
 31
0.0
 11
57.571836
 21
283.058235
 31
0.0
 11
57.626905
 21
283.078163
 31
0.0
  0
LINE
  5
13c
100
AcDbEntity
  8
0
 62
5
100
AcDbLine
 10
25.287584
 20
287.388473
 30
0.0
 11
18.340983
 21
288.460392
 31
0.0
  0
LINE
  5
13d
100
AcDbEntity
  8
0
 62
5
100
AcDbLine
 10
18.340983
 20
288.460392
 30
0.0
 11
5.941824
 21
279.451876
 31
0.0
  0
LINE
  5
13e
100
AcDbEntity
  8
0
 62
5
100
AcDbLine
 10
5.941824
 20
279.451876
 30
0.0
 11
4.814662
 21
272.514024
 31
0.0
  0
LINE
  5
13f
100
AcDbEntity
  8
0
 62
1
100
AcDbLine
 10
19.422366
 20
283.126909
 30
0.0
 11
25.287584
 21
287.388472
 31
0.0
  0
LINE
  5
140
100
AcDbEntity
  8
0
 62
1
100
AcDbLine
 10
4.814662
 20
272.514024
 30
0.0
 11
10.688998
 21
276.781748
 31
0.0
  0
SPLINE
  5
141
100
AcDbEntity
  8
0
 62
5
100
AcDbSpline
 70
0
 71
3
 72
10
 73
6
 74
4
 40
0.000000
 40
0.000000
 40
0.000000
 40
0.000000
 40
0.058722
 40
0.469774
 40
1.585487
 40
1.585487
 40
1.585487
 40
1.585487
 10
64.919541
 20
277.779753
 30
0.0
 10
64.918972
 20
277.760187
 30
0.0
 10
64.914416
 20
277.603662
 30
0.0
 10
64.899042
 20
277.075390
 30
0.0
 10
64.884237
 20
276.566684
 30
0.0
 10
64.873418
 20
276.194936
 30
0.0
 11
64.919541
 21
277.779753
 31
0.0
 11
64.917833
 21
277.721056
 31
0.0
 11
64.905875
 21
277.310178
 31
0.0
 11
64.873418
 21
276.194936
 31
0.0
  0
LINE
  5
142
100
AcDbEntity
  8
0
 62
5
100
AcDbLine
 10
11.058379
 20
277.781754
 30
0.0
 11
18.351015
 21
283.080165
 31
0.0
  0
SPLINE
  5
143
100
AcDbEntity
  8
0
 62
5
100
AcDbSpline
 70
0
 71
3
 72
10
 73
6
 74
4
 40
0.000000
 40
0.000000
 40
0.000000
 40
0.000000
 40
1.112709
 40
1.522654
 40
1.581218
 40
1.581218
 40
1.581218
 40
1.581218
 10
11.110645
 20
276.201400
 30
0.0
 10
11.098385
 20
276.572101
 30
0.0
 10
11.081608
 20
277.079375
 30
0.0
 10
11.064186
 20
277.606159
 30
0.0
 10
11.059024
 20
277.762244
 30
0.0
 10
11.058379
 20
277.781754
 30
0.0
 11
11.110645
 21
276.201400
 31
0.0
 11
11.073865
 21
277.313501
 31
0.0
 11
11.060315
 21
277.723223
 31
0.0
 11
11.058379
 21
277.781754
 31
0.0
  0
LINE
  5
144
100
AcDbEntity
  8
0
 62
5
100
AcDbLine
 10
79.056571
 20
248.391360
 30
0.0
 11
82.222645
 21
254.666729
 31
0.0
  0
LINE
  5
145
100
AcDbEntity
  8
0
 62
5
100
AcDbLine
 10
82.222645
 20
254.666729
 30
0.0
 11
77.486589
 21
269.242815
 31
0.0
  0
LINE
  5
146
100
AcDbEntity
  8
0
 62
5
100
AcDbLine
 10
77.486589
 20
269.242815
 30
0.0
 11
71.236611
 21
272.458724
 31
0.0
  0
LINE
  5
147
100
AcDbEntity
  8
0
 62
1
100
AcDbLine
 10
76.816037
 20
255.286410
 30
0.0
 11
79.056571
 21
248.391360
 31
0.0
  0
LINE
  5
148
100
AcDbEntity
  8
0
 62
1
100
AcDbLine
 10
71.236611
 20
272.458724
 30
0.0
 11
73.480188
 21
265.553098
 31
0.0
  0
SPLINE
  5
149
100
AcDbEntity
  8
0
 62
5
100
AcDbSpline
 70
0
 71
3
 72
10
 73
6
 74
4
 40
0.000000
 40
0.000000
 40
0.000000
 40
0.000000
 40
0.058722
 40
0.469774
 40
1.585487
 40
1.585487
 40
1.585487
 40
1.585487
 10
18.351015
 20
283.080165
 30
0.0
 10
18.369447
 20
283.073577
 30
0.0
 10
18.516904
 20
283.020876
 30
0.0
 10
19.014569
 20
282.843008
 30
0.0
 10
19.493803
 20
282.671729
 30
0.0
 10
19.844012
 20
282.546563
 30
0.0
 11
18.351015
 21
283.080165
 31
0.0
 11
18.406312
 21
283.060402
 31
0.0
 11
18.793385
 21
282.922060
 31
0.0
 11
19.844012
 21
282.546563
 31
0.0
  0
LINE
  5
14a
100
AcDbEntity
  8
0
 62
5
100
AcDbLine
 10
74.317106
 20
264.892777
 30
0.0
 11
77.102645
 21
256.319769
 31
0.0
  0
SPLINE
  5
14b
100
AcDbEntity
  8
0
 62
5
100
AcDbSpline
 70
0
 71
3
 72
10
 73
6
 74
4
 40
0.000000
 40
0.000000
 40
0.000000
 40
0.000000
 40
1.112709
 40
1.522655
 40
1.581218
 40
1.581218
 40
1.581218
 40
1.581218
 10
72.797949
 20
265.331427
 30
0.0
 10
73.154295
 20
265.228534
 30
0.0
 10
73.641926
 20
265.087733
 30
0.0
 10
74.148311
 20
264.941516
 30
0.0
 10
74.298351
 20
264.898193
 30
0.0
 10
74.317106
 20
264.892777
 30
0.0
 11
72.797949
 21
265.331427
 31
0.0
 11
73.866986
 21
265.022747
 31
0.0
 11
74.260841
 21
264.909023
 31
0.0
 11
74.317106
 21
264.892777
 31
0.0
  0
LINE
  5
14c
100
AcDbEntity
  8
0
 62
5
100
AcDbLine
 10
31.584259
 20
252.953950
 30
0.0
 11
30.851069
 21
253.486992
 31
0.0
  0
LINE
  5
14d
100
AcDbEntity
  8
0
 62
5
100
AcDbLine
 10
30.851069
 20
253.486992
 30
0.0
 11
30.554038
 21
253.078168
 31
0.0
  0
LINE
  5
14e
100
AcDbEntity
  8
0
 62
5
100
AcDbLine
 10
30.554038
 20
253.078168
 30
0.0
 11
31.820838
 21
252.157782
 31
0.0
  0
SPLINE
  5
14f
100
AcDbEntity
  8
0
 62
5
100
AcDbSpline
 70
0
 71
3
 72
10
 73
6
 74
4
 40
0.000000
 40
0.000000
 40
0.000000
 40
0.000000
 40
0.058722
 40
0.469774
 40
1.585486
 40
1.585486
 40
1.585486
 40
1.585486
 10
77.102645
 20
256.319769
 30
0.0
 10
77.090684
 20
256.304275
 30
0.0
 10
76.994996
 20
256.180321
 30
0.0
 10
76.672047
 20
255.761978
 30
0.0
 10
76.361059
 20
255.359128
 30
0.0
 10
76.133799
 20
255.064738
 30
0.0
 11
77.102645
 21
256.319769
 31
0.0
 11
77.066762
 21
256.273287
 31
0.0
 11
76.815580
 21
255.947908
 31
0.0
 11
76.133799
 21
255.064738
 31
0.0
  0
LINE
  5
150
100
AcDbEntity
  8
0
 62
5
100
AcDbLine
 10
23.087472
 20
258.502944
 30
0.0
 11
24.354261
 21
257.582570
 31
0.0
  0
LINE
  5
151
100
AcDbEntity
  8
0
 62
5
100
AcDbLine
 10
24.354261
 20
257.582570
 30
0.0
 11
24.651463
 21
257.991631
 31
0.0
  0
LINE
  5
152
100
AcDbEntity
  8
0
 62
5
100
AcDbLine
 10
24.651463
 20
257.991631
 30
0.0
 11
23.917942
 21
258.524215
 31
0.0
  0
LINE
  5
153
100
AcDbEntity
  8
0
 62
5
100
AcDbLine
 10
31.584254
 20
252.953950
 30
0.0
 11
37.987580
 21
248.301892
 31
0.0
  0
LINE
  5
154
100
AcDbEntity
  8
0
 62
5
100
AcDbLine
 10
4.814662
 20
272.514024
 30
0.0
 11
23.917963
 21
258.524252
 31
0.0
  0
LINE
  5
155
100
AcDbEntity
  8
0
 62
1
100
AcDbLine
 10
29.295457
 20
254.617337
 30
0.0
 11
26.207104
 21
256.861388
 31
0.0
  0
LINE
  5
156
100
AcDbEntity
  8
0
 62
5
100
AcDbLine
 10
38.063692
 20
248.357185
 30
0.0
 11
40.666227
 21
240.347411
 31
0.0
  0
LINE
  5
157
100
AcDbEntity
  8
0
 62
5
100
AcDbLine
 10
40.666227
 20
240.347411
 30
0.0
 11
61.851055
 21
224.955734
 31
0.0
  0
LINE
  5
158
100
AcDbEntity
  8
0
 62
5
100
AcDbLine
 10
61.851055
 20
224.955734
 30
0.0
 11
71.236611
 21
224.145056
 31
0.0
  0
LINE
  5
159
100
AcDbEntity
  8
0
 62
1
100
AcDbLine
 10
43.929133
 20
244.095926
 30
0.0
 11
38.063692
 21
248.357185
 31
0.0
  0
LINE
  5
15a
100
AcDbEntity
  8
0
 62
1
100
AcDbLine
 10
71.236611
 20
224.145056
 30
0.0
 11
52.662497
 21
237.750763
 31
0.0
  0
SPLINE
  5
15b
100
AcDbEntity
  8
0
 62
5
100
AcDbSpline
 70
0
 71
3
 72
16
 73
12
 74
10
 40
0.000000
 40
0.000000
 40
0.000000
 40
0.000000
 40
0.594052
 40
1.926272
 40
3.438879
 40
6.074690
 40
8.833681
 40
11.469463
 40
12.982640
 40
14.315438
 40
14.909669
 40
14.909669
 40
14.909669
 40
14.909669
 10
31.820838
 20
252.157782
 30
0.0
 10
31.675029
 20
252.023821
 30
0.0
 10
31.202231
 20
251.589439
 30
0.0
 10
30.245505
 20
250.937339
 30
0.0
 10
28.424029
 20
250.447891
 30
0.0
 10
26.118373
 20
251.220563
 30
0.0
 10
23.960896
 20
252.787891
 30
0.0
 10
22.513810
 20
254.742268
 30
0.0
 10
22.415863
 20
256.626010
 30
0.0
 10
22.739116
 20
257.738179
 30
0.0
 10
23.005369
 20
258.322698
 30
0.0
 10
23.087472
 20
258.502944
 30
0.0
 11
31.820838
 21
252.157782
 31
0.0
 11
31.377411
 21
251.762472
 31
0.0
 11
30.261914
 21
251.034132
 31
0.0
 11
28.796525
 21
250.659148
 31
0.0
 11
26.243374
 21
251.314070
 31
0.0
 11
24.011293
 21
252.935750
 31
0.0
 11
22.599498
 21
255.161549
 31
0.0
 11
22.502613
 21
256.671621
 31
0.0
 11
22.849262
 21
257.958549
 31
0.0
 11
23.087472
 21
258.502944
 31
0.0
  0
LINE
  5
15c
100
AcDbEntity
  8
0
 62
5
100
AcDbLine
 10
51.597292
 20
237.793046
 30
0.0
 11
44.304656
 21
243.091458
 31
0.0
  0
SPLINE
  5
15d
100
AcDbEntity
  8
0
 62
5
100
AcDbSpline
 70
0
 71
3
 72
10
 73
6
 74
4
 40
0.000000
 40
0.000000
 40
0.000000
 40
0.000000
 40
1.112709
 40
1.522654
 40
1.581217
 40
1.581217
 40
1.581217
 40
1.581217
 10
53.084146
 20
238.331111
 30
0.0
 10
52.735378
 20
238.204898
 30
0.0
 10
52.258116
 20
238.032186
 30
0.0
 10
51.762498
 20
237.852831
 30
0.0
 10
51.615648
 20
237.799689
 30
0.0
 10
51.597292
 20
237.793046
 30
0.0
 11
53.084146
 21
238.331111
 31
0.0
 11
52.037841
 21
237.952473
 31
0.0
 11
51.652361
 21
237.812974
 31
0.0
 11
51.597292
 21
237.793046
 31
0.0
  0
LINE
  5
15e
100
AcDbEntity
  8
0
 62
1
100
AcDbLine
 10
8.038973
 20
170.014969
 30
0.0
 11
33.438973
 21
170.014972
 31
0.0
  0
LINE
  5
15f
100
AcDbEntity
  8
0
 62
1
100
AcDbLine
 10
53.988002
 20
184.944717
 30
0.0
 11
20.738973
 21
209.101550
 31
0.0
  0
LINE
  5
160
100
AcDbEntity
  8
0
 62
1
100
AcDbLine
 10
33.438973
 20
170.014969
 30
0.0
 11
20.738973
 21
209.101547
 31
0.0
  0
LINE
  5
161
100
AcDbEntity
  8
0
 62
5
100
AcDbLine
 10
16.705293
 20
154.864278
 30
0.0
 11
16.252299
 21
155.649452
 31
0.0
  0
LINE
  5
162
100
AcDbEntity
  8
0
 62
5
100
AcDbLine
 10
16.252299
 20
155.649452
 30
0.0
 11
15.814664
 21
155.396784
 31
0.0
  0
LINE
  5
163
100
AcDbEntity
  8
0
 62
5
100
AcDbLine
 10
15.814664
 20
155.396784
 30
0.0
 11
16.597589
 21
154.040714
 31
0.0
  0
SPLINE
  5
164
100
AcDbEntity
  8
0
 62
5
100
AcDbSpline
 70
0
 71
3
 72
10
 73
6
 74
4
 40
0.000000
 40
0.000000
 40
0.000000
 40
0.000000
 40
0.058722
 40
0.469774
 40
1.585487
 40
1.585487
 40
1.585487
 40
1.585487
 10
44.304656
 20
243.091458
 30
0.0
 10
44.305225
 20
243.111023
 30
0.0
 10
44.309780
 20
243.267548
 30
0.0
 10
44.325155
 20
243.795820
 30
0.0
 10
44.339960
 20
244.304527
 30
0.0
 10
44.350779
 20
244.676274
 30
0.0
 11
44.304656
 21
243.091458
 31
0.0
 11
44.306364
 21
243.150155
 31
0.0
 11
44.318322
 21
243.561033
 31
0.0
 11
44.350779
 21
244.676274
 31
0.0
  0
LINE
  5
165
100
AcDbEntity
  8
0
 62
5
100
AcDbLine
 10
11.200072
 20
163.389489
 30
0.0
 11
11.982991
 21
162.033434
 31
0.0
  0
LINE
  5
166
100
AcDbEntity
  8
0
 62
5
100
AcDbLine
 10
11.982991
 20
162.033434
 30
0.0
 11
12.420879
 21
162.286249
 31
0.0
  0
LINE
  5
167
100
AcDbEntity
  8
0
 62
5
100
AcDbLine
 10
12.420879
 20
162.286249
 30
0.0
 11
11.967396
 21
163.071140
 31
0.0
  0
LINE
  5
168
100
AcDbEntity
  8
0
 62
5
100
AcDbLine
 10
16.705288
 20
154.864278
 30
0.0
 11
20.662857
 21
148.009944
 31
0.0
  0
LINE
  5
169
100
AcDbEntity
  8
0
 62
5
100
AcDbLine
 10
8.009860
 20
169.925496
 30
0.0
 11
11.967429
 21
163.071162
 31
0.0
  0
LINE
  5
16a
100
AcDbEntity
  8
0
 62
1
100
AcDbLine
 10
15.290929
 20
157.314797
 30
0.0
 11
13.382317
 21
160.620985
 31
0.0
  0
LINE
  5
16b
100
AcDbEntity
  8
0
 62
5
100
AcDbLine
 10
54.017077
 20
185.034187
 30
0.0
 11
60.267054
 21
188.250095
 31
0.0
  0
LINE
  5
16c
100
AcDbEntity
  8
0
 62
5
100
AcDbLine
 10
60.267054
 20
188.250095
 30
0.0
 11
65.003110
 21
202.826181
 31
0.0
  0
LINE
  5
16d
100
AcDbEntity
  8
0
 62
5
100
AcDbLine
 10
65.003110
 20
202.826181
 30
0.0
 11
61.837037
 21
209.101550
 31
0.0
  0
LINE
  5
16e
100
AcDbEntity
  8
0
 62
1
100
AcDbLine
 10
56.257252
 20
191.929352
 30
0.0
 11
54.017077
 21
185.034187
 31
0.0
  0
LINE
  5
16f
100
AcDbEntity
  8
0
 62
1
100
AcDbLine
 10
61.837037
 20
209.101550
 30
0.0
 11
59.593105
 21
202.196041
 31
0.0
  0
SPLINE
  5
170
100
AcDbEntity
  8
0
 62
5
100
AcDbSpline
 70
0
 71
3
 72
16
 73
12
 74
10
 40
0.000000
 40
0.000000
 40
0.000000
 40
0.000000
 40
0.594052
 40
1.926273
 40
3.438881
 40
6.074691
 40
8.833681
 40
11.469463
 40
12.982640
 40
14.315437
 40
14.909668
 40
14.909668
 40
14.909668
 40
14.909668
 10
16.597589
 20
154.040714
 30
0.0
 10
16.409900
 20
153.977641
 30
0.0
 10
15.801298
 20
153.773118
 30
0.0
 10
14.662051
 20
153.566531
 30
0.0
 10
12.798973
 20
153.860260
 30
0.0
 10
11.006927
 20
155.503926
 30
0.0
 10
9.673462
 20
157.813275
 30
0.0
 10
9.146402
 20
160.187269
 30
0.0
 10
9.823108
 20
161.947993
 30
0.0
 10
10.570775
 20
162.832531
 30
0.0
 10
11.051754
 20
163.258221
 30
0.0
 10
11.200072
 20
163.389489
 30
0.0
 11
16.597589
 21
154.040714
 31
0.0
 11
16.031711
 21
153.859939
 31
0.0
 11
14.716411
 21
153.648282
 31
0.0
 11
13.225190
 21
153.901745
 31
0.0
 11
11.159153
 21
155.538506
 31
0.0
 11
9.779642
 21
157.927852
 31
0.0
 11
9.395218
 21
160.535449
 31
0.0
 11
9.920910
 21
161.954376
 31
0.0
 11
10.761030
 21
162.989048
 31
0.0
 11
11.200072
 21
163.389489
 31
0.0
  0
LINE
  5
171
100
AcDbEntity
  8
0
 62
5
100
AcDbLine
 10
59.882058
 20
201.169901
 30
0.0
 11
57.096519
 21
192.596893
 31
0.0
  0
SPLINE
  5
172
100
AcDbEntity
  8
0
 62
5
100
AcDbSpline
 70
0
 71
3
 72
10
 73
6
 74
4
 40
0.000000
 40
0.000000
 40
0.000000
 40
0.000000
 40
1.112709
 40
1.522655
 40
1.581219
 40
1.581219
 40
1.581219
 40
1.581219
 10
58.910863
 20
202.417712
 30
0.0
 10
59.138674
 20
202.125016
 30
0.0
 10
59.450416
 20
201.724484
 30
0.0
 10
59.774147
 20
201.308546
 30
0.0
 10
59.870068
 20
201.185306
 30
0.0
 10
59.882058
 20
201.169901
 30
0.0
 11
58.910863
 21
202.417712
 31
0.0
 11
59.594297
 21
201.539623
 31
0.0
 11
59.846088
 21
201.216116
 31
0.0
 11
59.882058
 21
201.169901
 31
0.0
  0
LINE
  5
173
100
AcDbEntity
  8
0
 62
5
100
AcDbLine
 10
33.515080
 20
170.070265
 30
0.0
 11
40.461681
 21
168.998345
 31
0.0
  0
LINE
  5
174
100
AcDbEntity
  8
0
 62
5
100
AcDbLine
 10
40.461681
 20
168.998345
 30
0.0
 11
52.860840
 21
178.006862
 31
0.0
  0
LINE
  5
175
100
AcDbEntity
  8
0
 62
5
100
AcDbLine
 10
52.860840
 20
178.006862
 30
0.0
 11
53.988002
 21
184.944714
 31
0.0
  0
LINE
  5
176
100
AcDbEntity
  8
0
 62
1
100
AcDbLine
 10
39.380298
 20
174.331829
 30
0.0
 11
33.515080
 21
170.070265
 31
0.0
  0
LINE
  5
177
100
AcDbEntity
  8
0
 62
1
100
AcDbLine
 10
53.988002
 20
184.944714
 30
0.0
 11
48.113665
 21
180.676992
 31
0.0
  0
SPLINE
  5
178
100
AcDbEntity
  8
0
 62
5
100
AcDbSpline
 70
0
 71
3
 72
10
 73
6
 74
4
 40
0.000000
 40
0.000000
 40
0.000000
 40
0.000000
 40
0.058722
 40
0.469774
 40
1.585487
 40
1.585487
 40
1.585487
 40
1.585487
 10
57.096519
 20
192.596893
 30
0.0
 10
57.077735
 20
192.591388
 30
0.0
 10
56.927463
 20
192.547352
 30
0.0
 10
56.420296
 20
192.398729
 30
0.0
 10
55.931912
 20
192.255610
 30
0.0
 10
55.575017
 20
192.151024
 30
0.0
 11
57.096519
 21
192.596893
 31
0.0
 11
57.040167
 21
192.580379
 31
0.0
 11
56.645703
 21
192.464783
 31
0.0
 11
55.575017
 21
192.151024
 31
0.0
  0
LINE
  5
179
100
AcDbEntity
  8
0
 62
5
100
AcDbLine
 10
47.744284
 20
179.676985
 30
0.0
 11
40.451648
 21
174.378573
 31
0.0
  0
SPLINE
  5
17a
100
AcDbEntity
  8
0
 62
5
100
AcDbSpline
 70
0
 71
3
 72
10
 73
6
 74
4
 40
0.000000
 40
0.000000
 40
0.000000
 40
0.000000
 40
1.112707
 40
1.522652
 40
1.581215
 40
1.581215
 40
1.581215
 40
1.581215
 10
47.692016
 20
181.257336
 30
0.0
 10
47.704277
 20
180.886637
 30
0.0
 10
47.721054
 20
180.379363
 30
0.0
 10
47.738477
 20
179.852580
 30
0.0
 10
47.743639
 20
179.696496
 30
0.0
 10
47.744284
 20
179.676985
 30
0.0
 11
47.692016
 21
181.257336
 31
0.0
 11
47.728797
 21
180.145237
 31
0.0
 11
47.742348
 21
179.735517
 31
0.0
 11
47.744284
 21
179.676985
 31
0.0
  0
LINE
  5
17b
100
AcDbEntity
  8
0
 62
5
100
AcDbLine
 10
28.682857
 20
209.191209
 30
0.0
 11
29.589335
 21
209.190927
 31
0.0
  0
LINE
  5
17c
100
AcDbEntity
  8
0
 62
5
100
AcDbLine
 10
29.589335
 20
209.190927
 30
0.0
 11
29.589335
 21
209.696263
 31
0.0
  0
LINE
  5
17d
100
AcDbEntity
  8
0
 62
5
100
AcDbLine
 10
29.589335
 20
209.696263
 30
0.0
 11
28.023484
 21
209.696263
 31
0.0
  0
SPLINE
  5
17e
100
AcDbEntity
  8
0
 62
5
100
AcDbSpline
 70
0
 71
3
 72
10
 73
6
 74
4
 40
0.000000
 40
0.000000
 40
0.000000
 40
0.000000
 40
0.058722
 40
0.469774
 40
1.585489
 40
1.585489
 40
1.585489
 40
1.585489
 10
40.451648
 20
174.378573
 30
0.0
 10
40.433216
 20
174.385161
 30
0.0
 10
40.285759
 20
174.437863
 30
0.0
 10
39.788093
 20
174.615730
 30
0.0
 10
39.308859
 20
174.787010
 30
0.0
 10
38.958650
 20
174.912177
 30
0.0
 11
40.451648
 21
174.378573
 31
0.0
 11
40.396351
 21
174.398336
 31
0.0
 11
40.009278
 21
174.536678
 31
0.0
 11
38.958650
 21
174.912177
 31
0.0
  0
LINE
  5
17f
100
AcDbEntity
  8
0
 62
5
100
AcDbLine
 10
38.818518
 20
209.696263
 30
0.0
 11
37.252681
 21
209.696263
 31
0.0
  0
LINE
  5
180
100
AcDbEntity
  8
0
 62
5
100
AcDbLine
 10
37.252681
 20
209.696263
 30
0.0
 11
37.252681
 21
209.190634
 31
0.0
  0
LINE
  5
181
100
AcDbEntity
  8
0
 62
5
100
AcDbLine
 10
37.252681
 20
209.190634
 30
0.0
 11
38.159157
 21
209.190916
 31
0.0
  0
LINE
  5
182
100
AcDbEntity
  8
0
 62
5
100
AcDbLine
 10
28.682863
 20
209.191212
 30
0.0
 11
20.768050
 21
209.191023
 31
0.0
  0
LINE
  5
183
100
AcDbEntity
  8
0
 62
5
100
AcDbLine
 10
61.837037
 20
209.101550
 30
0.0
 11
38.159159
 21
209.190876
 31
0.0
  0
LINE
  5
184
100
AcDbEntity
  8
0
 62
1
100
AcDbLine
 10
31.512250
 20
209.190826
 30
0.0
 11
35.329800
 21
209.190636
 31
0.0
  0
LINE
  5
185
100
AcDbEntity
  8
0
 62
5
100
AcDbLine
 10
20.815080
 20
209.046252
 30
0.0
 11
14.001558
 21
204.095938
 31
0.0
  0
LINE
  5
186
100
AcDbEntity
  8
0
 62
5
100
AcDbLine
 10
14.001558
 20
204.095938
 30
0.0
 11
5.909677
 21
179.191679
 31
0.0
  0
LINE
  5
187
100
AcDbEntity
  8
0
 62
5
100
AcDbLine
 10
5.909677
 20
179.191679
 30
0.0
 11
8.038973
 21
170.014969
 31
0.0
  0
LINE
  5
188
100
AcDbEntity
  8
0
 62
1
100
AcDbLine
 10
18.574901
 20
202.151083
 30
0.0
 11
20.815080
 21
209.046252
 31
0.0
  0
LINE
  5
189
100
AcDbEntity
  8
0
 62
1
100
AcDbLine
 10
8.038973
 20
170.014969
 30
0.0
 11
15.239052
 21
191.884397
 31
0.0
  0
SPLINE
  5
18a
100
AcDbEntity
  8
0
 62
5
100
AcDbSpline
 70
0
 71
3
 72
16
 73
12
 74
10
 40
0.000000
 40
0.000000
 40
0.000000
 40
0.000000
 40
0.594052
 40
1.926273
 40
3.438880
 40
6.074692
 40
8.833683
 40
11.469466
 40
12.982641
 40
14.315439
 40
14.909670
 40
14.909670
 40
14.909670
 40
14.909670
 10
28.023484
 20
209.696263
 30
0.0
 10
28.062705
 20
209.890344
 30
0.0
 10
28.189883
 20
210.519670
 30
0.0
 10
28.580596
 20
211.609581
 30
0.0
 10
29.766511
 20
213.076189
 30
0.0
 10
32.085992
 20
213.806314
 30
0.0
 10
34.752680
 20
213.806453
 30
0.0
 10
37.072150
 20
213.075903
 30
0.0
 10
38.258627
 20
211.609496
 30
0.0
 10
38.650827
 20
210.519730
 30
0.0
 10
38.778995
 20
209.890344
 30
0.0
 10
38.818518
 20
209.696263
 30
0.0
 11
28.023484
 21
209.696263
 31
0.0
 11
28.149866
 21
210.276716
 31
0.0
 11
28.624214
 21
211.521628
 31
0.0
 11
29.589329
 21
212.686331
 31
0.0
 11
32.039825
 21
213.657192
 31
0.0
 11
34.798817
 21
213.657210
 31
0.0
 11
37.249275
 21
212.686331
 31
0.0
 11
38.215254
 21
211.521607
 31
0.0
 11
38.691247
 21
210.276705
 31
0.0
 11
38.818518
 21
209.696263
 31
0.0
  0
LINE
  5
18b
100
AcDbEntity
  8
0
 62
5
100
AcDbLine
 10
14.950099
 20
192.910535
 30
0.0
 11
17.735637
 21
201.483543
 31
0.0
  0
SPLINE
  5
18c
100
AcDbEntity
  8
0
 62
5
100
AcDbSpline
 70
0
 71
3
 72
10
 73
6
 74
4
 40
0.000000
 40
0.000000
 40
0.000000
 40
0.000000
 40
1.112709
 40
1.522655
 40
1.581219
 40
1.581219
 40
1.581219
 40
1.581219
 10
15.921293
 20
191.662723
 30
0.0
 10
15.693482
 20
191.955420
 30
0.0
 10
15.381740
 20
192.355952
 30
0.0
 10
15.058009
 20
192.771889
 30
0.0
 10
14.962089
 20
192.895130
 30
0.0
 10
14.950099
 20
192.910535
 30
0.0
 11
15.921293
 21
191.662723
 31
0.0
 11
15.237860
 21
192.540813
 31
0.0
 11
14.986069
 21
192.864319
 31
0.0
 11
14.950099
 21
192.910535
 31
0.0
  0
LINE
  5
18d
100
AcDbEntity
  8
0
 62
5
100
AcDbLine
 10
29.481729
 20
163.160452
 30
0.0
 11
29.028246
 21
162.375561
 31
0.0
  0
LINE
  5
18e
100
AcDbEntity
  8
0
 62
5
100
AcDbLine
 10
29.028246
 20
162.375561
 30
0.0
 11
29.465880
 21
162.122890
 31
0.0
  0
LINE
  5
18f
100
AcDbEntity
  8
0
 62
5
100
AcDbLine
 10
29.465880
 20
162.122890
 30
0.0
 11
30.248806
 21
163.478956
 31
0.0
  0
SPLINE
  5
190
100
AcDbEntity
  8
0
 62
5
100
AcDbSpline
 70
0
 71
3
 72
10
 73
6
 74
4
 40
0.000000
 40
0.000000
 40
0.000000
 40
0.000000
 40
0.058722
 40
0.469774
 40
1.585487
 40
1.585487
 40
1.585487
 40
1.585487
 10
17.735637
 20
201.483543
 30
0.0
 10
17.754421
 20
201.489047
 30
0.0
 10
17.904693
 20
201.533084
 30
0.0
 10
18.411861
 20
201.681707
 30
0.0
 10
18.900244
 20
201.824825
 30
0.0
 10
19.257140
 20
201.929411
 30
0.0
 11
17.735637
 21
201.483543
 31
0.0
 11
17.791989
 21
201.500056
 31
0.0
 11
18.186453
 21
201.615652
 31
0.0
 11
19.257140
 21
201.929411
 31
0.0
  0
LINE
  5
191
100
AcDbEntity
  8
0
 62
5
100
AcDbLine
 10
24.851289
 20
154.130184
 30
0.0
 11
25.634207
 21
155.486240
 31
0.0
  0
LINE
  5
192
100
AcDbEntity
  8
0
 62
5
100
AcDbLine
 10
25.634207
 20
155.486240
 30
0.0
 11
25.196320
 21
155.739054
 31
0.0
  0
LINE
  5
193
100
AcDbEntity
  8
0
 62
5
100
AcDbLine
 10
25.196320
 20
155.739054
 30
0.0
 11
24.743326
 21
154.953881
 31
0.0
  0
LINE
  5
194
100
AcDbEntity
  8
0
 62
5
100
AcDbLine
 10
29.481729
 20
163.160446
 30
0.0
 11
33.438973
 21
170.014969
 31
0.0
  0
LINE
  5
195
100
AcDbEntity
  8
0
 62
5
100
AcDbLine
 10
20.786046
 20
148.099375
 30
0.0
 11
24.743289
 21
154.953898
 31
0.0
  0
LINE
  5
196
100
AcDbEntity
  8
0
 62
1
100
AcDbLine
 10
28.066699
 20
160.710317
 30
0.0
 11
26.157762
 21
157.404315
 31
0.0
  0
SPLINE
  5
197
100
AcDbEntity
  8
0
 62
5
100
AcDbSpline
 70
0
 71
3
 72
16
 73
12
 74
10
 40
0.000000
 40
0.000000
 40
0.000000
 40
0.000000
 40
0.594052
 40
1.926273
 40
3.438880
 40
6.074691
 40
8.833682
 40
11.469465
 40
12.982640
 40
14.315437
 40
14.909669
 40
14.909669
 40
14.909669
 40
14.909669
 10
30.248806
 20
163.478956
 30
0.0
 10
30.397275
 20
163.347950
 30
0.0
 10
30.878698
 20
162.923147
 30
0.0
 10
31.627232
 20
162.039824
 30
0.0
 10
32.304395
 20
160.279488
 30
0.0
 10
31.776961
 20
157.905696
 30
0.0
 10
30.443736
 20
155.596208
 30
0.0
 10
28.651328
 20
153.952762
 30
0.0
 10
26.788143
 20
153.658446
 30
0.0
 10
25.648278
 20
153.863676
 30
0.0
 10
25.039130
 20
154.067371
 30
0.0
 10
24.851289
 20
154.130184
 30
0.0
 11
30.248806
 21
163.478956
 31
0.0
 11
30.688302
 21
163.079280
 31
0.0
 11
31.529253
 21
162.046026
 31
0.0
 11
32.055359
 21
160.627860
 31
0.0
 11
31.670900
 21
158.020239
 31
0.0
 11
30.291420
 21
155.630874
 31
0.0
 11
28.225386
 21
153.994153
 31
0.0
 11
26.733715
 21
153.739953
 31
0.0
 11
25.417602
 21
153.950184
 31
0.0
 11
24.851289
 21
154.130184
 31
0.0
  0
ENDSEC
  0
SECTION
  2
OBJECTS
  0
DICTIONARY
  5
C
330
0
100
AcDbDictionary
  3
ACAD_GROUP
350
D
  3
ACAD_MLINESTYLE
350
17
  0
DICTIONARY
  5
D
330
C
100
AcDbDictionary
  0
DICTIONARY
  5
1A
330
C
100
AcDbDictionary
  0
DICTIONARY
  5
17
330
C
100
AcDbDictionary
  3
STANDARD
350
18
  0
DICTIONARY
  5
19
330
C
100
AcDbDictionary
  0
ENDSEC
  0
EOF
