999
DXF created by Inkscape
  0
SECTION
  2
HEADER
  9
$ACADVER
  1
AC1014
  9
$HANDSEED
  5
FFFF
  9
$MEASUREMENT
 70
     1
  0
ENDSEC
  0
SECTION
  2
TABLES
  0
TABLE
  2
VPORT
  5
8
330
0
100
AcDbSymbolTable
 70
     4
  0
VPORT
  5
2E
330
8
100
AcDbSymbolTableRecord
100
AcDbViewportTableRecord
  2
*ACTIVE
 70
     0
 10
0.0
 20
0.0
 11
1.0
 21
1.0
 12
210.0
 22
148.5
 13
0.0
 23
0.0
 14
10.0
 24
10.0
 15
10.0
 25
10.0
 16
0.0
 26
0.0
 36
1.0
 17
0.0
 27
0.0
 37
0.0
 40
341.0
 41
1.24
 42
50.0
 43
0.0
 44
0.0
 50
0.0
 51
0.0
 71
     0
 72
   100
 73
     1
 74
     3
 75
     0
 76
     0
 77
     0
 78
     0
  0
ENDTAB
  0
TABLE
  2
LTYPE
  5
5
330
0
100
AcDbSymbolTable
 70
     1
  0
LTYPE
  5
14
330
5
100
AcDbSymbolTableRecord
100
AcDbLinetypeTableRecord
  2
BYBLOCK
 70
     0
  3

 72
    65
 73
     0
 40
0.0
  0
LTYPE
  5
15
330
5
100
AcDbSymbolTableRecord
100
AcDbLinetypeTableRecord
  2
BYLAYER
 70
     0
  3

 72
    65
 73
     0
 40
0.0
  0
LTYPE
  5
16
330
5
100
AcDbSymbolTableRecord
100
AcDbLinetypeTableRecord
  2
CONTINUOUS
 70
     0
  3
Solid line
 72
    65
 73
     0
 40
0.0
  0
ENDTAB
  0
TABLE
  2
LAYER
  5
2
330
0
100
AcDbSymbolTable
 70
1
  0
LAYER
  5
10
330
2
100
AcDbSymbolTableRecord
100
AcDbLayerTableRecord
  2
0
 70
     0
 62
     7
  6
CONTINUOUS
  0
ENDTAB
  0
TABLE
  2
STYLE
  5
3
330
0
100
AcDbSymbolTable
 70
     1
  0
STYLE
  5
11
330
3
100
AcDbSymbolTableRecord
100
AcDbTextStyleTableRecord
  2
STANDARD
 70
     0
 40
0.0
 41
1.0
 50
0.0
 71
     0
 42
2.5
  3
txt
  4

  0
ENDTAB
  0
TABLE
  2
VIEW
  5
6
330
0
100
AcDbSymbolTable
 70
     0
  0
ENDTAB
  0
TABLE
  2
UCS
  5
7
330
0
100
AcDbSymbolTable
 70
     0
  0
ENDTAB
  0
TABLE
  2
APPID
  5
9
330
0
100
AcDbSymbolTable
 70
     2
  0
APPID
  5
12
330
9
100
AcDbSymbolTableRecord
100
AcDbRegAppTableRecord
  2
ACAD
 70
     0
  0
ENDTAB
  0
TABLE
  2
DIMSTYLE
  5
A
330
0
100
AcDbSymbolTable
 70
     1
  0
DIMSTYLE
105
27
330
A
100
AcDbSymbolTableRecord
100
AcDbDimStyleTableRecord
  2
ISO-25
 70
     0
  3

  4

  5

  6

  7

 40
1.0
 41
2.5
 42
0.625
 43
3.75
 44
1.25
 45
0.0
 46
0.0
 47
0.0
 48
0.0
140
2.5
141
2.5
142
0.0
143
0.03937007874016
144
1.0
145
0.0
146
1.0
147
0.625
 71
     0
 72
     0
 73
     0
 74
     0
 75
     0
 76
     0
 77
     1
 78
     8
170
     0
171
     3
172
     1
173
     0
174
     0
175
     0
176
     0
177
     0
178
     0
270
     2
271
     2
272
     2
273
     2
274
     3
340
11
275
     0
280
     0
281
     0
282
     0
283
     0
284
     8
285
     0
286
     0
287
     3
288
     0
  0
ENDTAB
  0
TABLE
  2
BLOCK_RECORD
  5
1
330
0
100
AcDbSymbolTable
 70
     1
  0
BLOCK_RECORD
  5
1F
330
1
100
AcDbSymbolTableRecord
100
AcDbBlockTableRecord
  2
*MODEL_SPACE
  0
BLOCK_RECORD
  5
1B
330
1
100
AcDbSymbolTableRecord
100
AcDbBlockTableRecord
  2
*PAPER_SPACE
  0
ENDTAB
  0
ENDSEC
  0
SECTION
  2
BLOCKS
  0
BLOCK
  5
20
330
1F
100
AcDbEntity
  8
0
100
AcDbBlockBegin
  2
*MODEL_SPACE
 70
     0
 10
0.0
 20
0.0
 30
0.0
  3
*MODEL_SPACE
  1

  0
ENDBLK
  5
21
330
1F
100
AcDbEntity
  8
0
100
AcDbBlockEnd
  0
BLOCK
  5
1C
330
1B
100
AcDbEntity
 67
     1
  8
0
100
AcDbBlockBegin
  2
*PAPER_SPACE
  1

  0
ENDBLK
  5
1D
330
1B
100
AcDbEntity
 67
     1
  8
0
100
AcDbBlockEnd
  0
ENDSEC
  0
SECTION
  2
ENTITIES
  0
LINE
  5
100
100
AcDbEntity
  8
0
 62
1
100
AcDbLine
 10
83.040773
 20
138.376323
 30
0.0
 11
17.305844
 21
176.328402
 31
0.0
  0
LINE
  5
101
100
AcDbEntity
  8
0
 62
1
100
AcDbLine
 10
17.305844
 20
176.328402
 30
0.0
 11
83.040773
 21
214.280480
 31
0.0
  0
LINE
  5
102
100
AcDbEntity
  8
0
 62
5
100
AcDbLine
 10
83.041326
 20
266.440916
 30
0.0
 11
83.040480
 21
263.721566
 31
0.0
  0
LINE
  5
103
100
AcDbEntity
  8
0
 62
5
100
AcDbLine
 10
83.040480
 20
263.721566
 30
0.0
 11
83.958326
 21
263.721566
 31
0.0
  0
LINE
  5
104
100
AcDbEntity
  8
0
 62
5
100
AcDbLine
 10
83.958326
 20
263.721566
 30
0.0
 11
83.958326
 21
268.418963
 31
0.0
  0
LINE
  5
105
100
AcDbEntity
  8
0
 62
5
100
AcDbLine
 10
83.958326
 20
236.034810
 30
0.0
 11
83.958326
 21
240.732196
 31
0.0
  0
LINE
  5
106
100
AcDbEntity
  8
0
 62
5
100
AcDbLine
 10
83.958326
 20
240.732196
 30
0.0
 11
83.039605
 21
240.732196
 31
0.0
  0
LINE
  5
107
100
AcDbEntity
  8
0
 62
5
100
AcDbLine
 10
83.039605
 20
240.732196
 30
0.0
 11
83.040451
 21
238.012846
 31
0.0
  0
LINE
  5
108
100
AcDbEntity
  8
0
 62
5
100
AcDbLine
 10
83.041338
 20
266.440904
 30
0.0
 11
83.040773
 21
290.184639
 31
0.0
  0
LINE
  5
109
100
AcDbEntity
  8
0
 62
5
100
AcDbLine
 10
83.040895
 20
214.269112
 30
0.0
 11
83.040330
 21
238.012846
 31
0.0
  0
LINE
  5
10a
100
AcDbEntity
  8
0
 62
1
100
AcDbLine
 10
83.040175
 20
257.952984
 30
0.0
 11
83.039610
 21
246.500677
 31
0.0
  0
LINE
  5
10b
100
AcDbEntity
  8
0
 62
1
100
AcDbLine
 10
83.040773
 20
214.280480
 30
0.0
 11
17.305844
 21
252.232559
 31
0.0
  0
LINE
  5
10c
100
AcDbEntity
  8
0
 62
5
100
AcDbLine
 10
83.040895
 20
214.280480
 30
0.0
 11
97.891386
 21
199.311343
 31
0.0
  0
LINE
  5
10d
100
AcDbEntity
  8
0
 62
5
100
AcDbLine
 10
97.891386
 20
199.311343
 30
0.0
 11
97.891386
 21
153.334095
 31
0.0
  0
LINE
  5
10e
100
AcDbEntity
  8
0
 62
5
100
AcDbLine
 10
97.891386
 20
153.334095
 30
0.0
 11
83.040895
 21
138.364958
 31
0.0
  0
LINE
  5
10f
100
AcDbEntity
  8
0
 62
1
100
AcDbLine
 10
83.041338
 20
190.536749
 30
0.0
 11
83.040773
 21
214.280480
 31
0.0
  0
LINE
  5
110
100
AcDbEntity
  8
0
 62
1
100
AcDbLine
 10
83.040895
 20
138.364958
 30
0.0
 11
83.040330
 21
162.108691
 31
0.0
  0
SPLINE
  5
111
100
AcDbEntity
  8
0
 62
5
100
AcDbSpline
 70
0
 71
3
 72
16
 73
12
 74
10
 40
0.000000
 40
0.000000
 40
0.000000
 40
0.000000
 40
1.933904
 40
6.200793
 40
10.858935
 40
18.766132
 40
27.042860
 40
34.949974
 40
39.609781
 40
43.878289
 40
45.812687
 40
45.812687
 40
45.812687
 40
45.812687
 10
83.958326
 20
268.418963
 30
0.0
 10
84.592076
 20
268.301344
 30
0.0
 10
86.624108
 20
267.924212
 30
0.0
 10
90.094860
 20
266.790686
 30
0.0
 10
94.711600
 20
263.262028
 30
0.0
 10
96.878998
 20
256.218353
 30
0.0
 10
96.879414
 20
248.245414
 30
0.0
 10
94.710739
 20
241.201834
 30
0.0
 10
90.094686
 20
237.671395
 30
0.0
 10
86.624289
 20
236.533396
 30
0.0
 10
84.592078
 20
236.153334
 30
0.0
 10
83.958326
 20
236.034810
 30
0.0
 11
83.958326
 21
268.418963
 31
0.0
 11
85.854701
 21
268.039827
 31
0.0
 11
89.877313
 21
266.616825
 31
0.0
 11
93.526390
 21
263.721566
 31
0.0
 11
96.438884
 21
256.370298
 31
0.0
 11
96.438938
 21
248.093569
 31
0.0
 11
93.526390
 21
240.742412
 31
0.0
 11
89.877249
 21
237.844557
 31
0.0
 11
85.854669
 21
236.416616
 31
0.0
 11
83.958326
 21
236.034810
 31
0.0
  0
LINE
  5
112
100
AcDbEntity
  8
0
 62
5
100
AcDbLine
 10
83.632652
 20
162.806940
 30
0.0
 11
83.632652
 21
189.848714
 31
0.0
  0
SPLINE
  5
113
100
AcDbEntity
  8
0
 62
5
100
AcDbSpline
 70
0
 71
3
 72
10
 73
6
 74
4
 40
0.000000
 40
0.000000
 40
0.000000
 40
0.000000
 40
1.517719
 40
2.076878
 40
2.156758
 40
2.156758
 40
2.156758
 40
2.156758
 10
82.323398
 20
161.093038
 30
0.0
 10
82.630507
 20
161.495065
 30
0.0
 10
83.050762
 20
162.045206
 30
0.0
 10
83.487180
 20
162.616507
 30
0.0
 10
83.616489
 20
162.785781
 30
0.0
 10
83.632652
 20
162.806940
 30
0.0
 11
82.323398
 21
161.093038
 31
0.0
 11
83.244725
 21
162.299117
 31
0.0
 11
83.584162
 21
162.743462
 31
0.0
 11
83.632652
 21
162.806940
 31
0.0
  0
LINE
  5
114
100
AcDbEntity
  8
0
 62
5
100
AcDbLine
 10
17.305412
 20
228.500208
 30
0.0
 11
17.306259
 21
225.780858
 31
0.0
  0
LINE
  5
115
100
AcDbEntity
  8
0
 62
5
100
AcDbLine
 10
17.306259
 20
225.780858
 30
0.0
 11
16.388413
 21
225.780858
 31
0.0
  0
LINE
  5
116
100
AcDbEntity
  8
0
 62
5
100
AcDbLine
 10
16.388413
 20
225.780858
 30
0.0
 11
16.388413
 21
230.478255
 31
0.0
  0
SPLINE
  5
117
100
AcDbEntity
  8
0
 62
5
100
AcDbSpline
 70
0
 71
3
 72
10
 73
6
 74
4
 40
0.000000
 40
0.000000
 40
0.000000
 40
0.000000
 40
0.079880
 40
0.639040
 40
2.156760
 40
2.156760
 40
2.156760
 40
2.156760
 10
83.632652
 20
189.848714
 30
0.0
 10
83.616489
 20
189.869874
 30
0.0
 10
83.487180
 20
190.039148
 30
0.0
 10
83.050762
 20
190.610450
 30
0.0
 10
82.630507
 20
191.160592
 30
0.0
 10
82.323398
 20
191.562619
 30
0.0
 11
83.632652
 21
189.848714
 31
0.0
 11
83.584162
 21
189.912192
 31
0.0
 11
83.244725
 21
190.356538
 31
0.0
 11
82.323398
 21
191.562619
 31
0.0
  0
LINE
  5
118
100
AcDbEntity
  8
0
 62
5
100
AcDbLine
 10
16.388413
 20
198.094102
 30
0.0
 11
16.388413
 21
202.791487
 31
0.0
  0
LINE
  5
119
100
AcDbEntity
  8
0
 62
5
100
AcDbLine
 10
16.388413
 20
202.791487
 30
0.0
 11
17.307134
 21
202.791487
 31
0.0
  0
LINE
  5
11a
100
AcDbEntity
  8
0
 62
5
100
AcDbLine
 10
17.307134
 20
202.791487
 30
0.0
 11
17.306287
 21
200.072138
 31
0.0
  0
LINE
  5
11b
100
AcDbEntity
  8
0
 62
5
100
AcDbLine
 10
17.305401
 20
228.500196
 30
0.0
 11
17.305965
 21
252.243930
 31
0.0
  0
LINE
  5
11c
100
AcDbEntity
  8
0
 62
5
100
AcDbLine
 10
17.305844
 20
176.328404
 30
0.0
 11
17.306409
 21
200.072138
 31
0.0
  0
LINE
  5
11d
100
AcDbEntity
  8
0
 62
1
100
AcDbLine
 10
17.306564
 20
220.012275
 30
0.0
 11
17.307128
 21
208.559966
 31
0.0
  0
LINE
  5
11e
100
AcDbEntity
  8
0
 62
5
100
AcDbLine
 10
17.305723
 20
176.328402
 30
0.0
 11
2.455232
 21
161.359264
 31
0.0
  0
LINE
  5
11f
100
AcDbEntity
  8
0
 62
5
100
AcDbLine
 10
2.455232
 20
161.359264
 30
0.0
 11
2.455232
 21
115.382019
 31
0.0
  0
LINE
  5
120
100
AcDbEntity
  8
0
 62
5
100
AcDbLine
 10
2.455232
 20
115.382019
 30
0.0
 11
17.305723
 21
100.412882
 31
0.0
  0
LINE
  5
121
100
AcDbEntity
  8
0
 62
1
100
AcDbLine
 10
17.305280
 20
152.584671
 30
0.0
 11
17.305844
 21
176.328402
 31
0.0
  0
LINE
  5
122
100
AcDbEntity
  8
0
 62
1
100
AcDbLine
 10
17.305723
 20
100.412882
 30
0.0
 11
17.306287
 21
124.156612
 31
0.0
  0
SPLINE
  5
123
100
AcDbEntity
  8
0
 62
5
100
AcDbSpline
 70
0
 71
3
 72
16
 73
12
 74
10
 40
0.000000
 40
0.000000
 40
0.000000
 40
0.000000
 40
1.933904
 40
6.200793
 40
10.858935
 40
18.766132
 40
27.042861
 40
34.949974
 40
39.609781
 40
43.878289
 40
45.812687
 40
45.812687
 40
45.812687
 40
45.812687
 10
16.388413
 20
230.478255
 30
0.0
 10
15.754663
 20
230.360635
 30
0.0
 10
13.722631
 20
229.983504
 30
0.0
 10
10.251879
 20
228.849978
 30
0.0
 10
5.635138
 20
225.321319
 30
0.0
 10
3.467741
 20
218.277644
 30
0.0
 10
3.467324
 20
210.304705
 30
0.0
 10
5.636000
 20
203.261125
 30
0.0
 10
10.252052
 20
199.730687
 30
0.0
 10
13.722449
 20
198.592688
 30
0.0
 10
15.754661
 20
198.212625
 30
0.0
 10
16.388413
 20
198.094102
 30
0.0
 11
16.388413
 21
230.478255
 31
0.0
 11
14.492038
 21
230.099119
 31
0.0
 11
10.469426
 21
228.676117
 31
0.0
 11
6.820349
 21
225.780858
 31
0.0
 11
3.907855
 21
218.429589
 31
0.0
 11
3.907800
 21
210.152860
 31
0.0
 11
6.820349
 21
202.801704
 31
0.0
 11
10.469490
 21
199.903849
 31
0.0
 11
14.492070
 21
198.475908
 31
0.0
 11
16.388413
 21
198.094102
 31
0.0
  0
LINE
  5
124
100
AcDbEntity
  8
0
 62
5
100
AcDbLine
 10
16.713965
 20
124.854861
 30
0.0
 11
16.713965
 21
151.896638
 31
0.0
  0
SPLINE
  5
125
100
AcDbEntity
  8
0
 62
5
100
AcDbSpline
 70
0
 71
3
 72
10
 73
6
 74
4
 40
0.000000
 40
0.000000
 40
0.000000
 40
0.000000
 40
1.517719
 40
2.076878
 40
2.156758
 40
2.156758
 40
2.156758
 40
2.156758
 10
18.023219
 20
123.140960
 30
0.0
 10
17.716110
 20
123.542986
 30
0.0
 10
17.295856
 20
124.093127
 30
0.0
 10
16.859438
 20
124.664428
 30
0.0
 10
16.730128
 20
124.833702
 30
0.0
 10
16.713965
 20
124.854861
 30
0.0
 11
18.023219
 21
123.140960
 31
0.0
 11
17.101892
 21
124.347039
 31
0.0
 11
16.762456
 21
124.791383
 31
0.0
 11
16.713965
 21
124.854861
 31
0.0
  0
LINE
  5
126
100
AcDbEntity
  8
0
 62
5
100
AcDbLine
 10
83.050617
 20
290.190319
 30
0.0
 11
62.661718
 21
295.566653
 31
0.0
  0
LINE
  5
127
100
AcDbEntity
  8
0
 62
5
100
AcDbLine
 10
62.661718
 20
295.566653
 30
0.0
 11
22.844253
 21
272.578029
 31
0.0
  0
LINE
  5
128
100
AcDbEntity
  8
0
 62
5
100
AcDbLine
 10
22.844253
 20
272.578029
 30
0.0
 11
17.305846
 21
252.232559
 31
0.0
  0
LINE
  5
129
100
AcDbEntity
  8
0
 62
1
100
AcDbLine
 10
62.487720
 20
278.318837
 30
0.0
 11
83.050676
 21
290.190214
 31
0.0
  0
LINE
  5
12a
100
AcDbEntity
  8
0
 62
1
100
AcDbLine
 10
17.305846
 20
252.232559
 30
0.0
 11
37.868804
 21
264.103935
 31
0.0
  0
SPLINE
  5
12b
100
AcDbEntity
  8
0
 62
5
100
AcDbSpline
 70
0
 71
3
 72
10
 73
6
 74
4
 40
0.000000
 40
0.000000
 40
0.000000
 40
0.000000
 40
0.079880
 40
0.639039
 40
2.156758
 40
2.156758
 40
2.156758
 40
2.156758
 10
16.713965
 20
151.896638
 30
0.0
 10
16.730128
 20
151.917798
 30
0.0
 10
16.859438
 20
152.087072
 30
0.0
 10
17.295856
 20
152.658372
 30
0.0
 10
17.716110
 20
153.208514
 30
0.0
 10
18.023219
 20
153.610540
 30
0.0
 11
16.713965
 21
151.896638
 31
0.0
 11
16.762456
 21
151.960116
 31
0.0
 11
17.101892
 21
152.404461
 31
0.0
 11
18.023219
 21
153.610540
 31
0.0
  0
LINE
  5
12c
100
AcDbEntity
  8
0
 62
5
100
AcDbLine
 10
38.177343
 20
264.966025
 30
0.0
 11
61.596208
 21
278.486914
 31
0.0
  0
SPLINE
  5
12d
100
AcDbEntity
  8
0
 62
5
100
AcDbSpline
 70
0
 71
3
 72
10
 73
6
 74
4
 40
0.000000
 40
0.000000
 40
0.000000
 40
0.000000
 40
1.517719
 40
2.076879
 40
2.156759
 40
2.156759
 40
2.156759
 40
2.156759
 10
37.347686
 20
262.975227
 30
0.0
 10
37.542297
 20
263.442204
 30
0.0
 10
37.808606
 20
264.081226
 30
0.0
 10
38.085159
 20
264.744825
 30
0.0
 10
38.167100
 20
264.941447
 30
0.0
 10
38.177343
 20
264.966025
 30
0.0
 11
37.347686
 21
262.975227
 31
0.0
 11
37.931519
 21
264.376159
 31
0.0
 11
38.146615
 21
264.892292
 31
0.0
 11
38.177343
 21
264.966025
 31
0.0
  0
LINE
  5
12e
100
AcDbEntity
  8
0
 62
5
100
AcDbLine
 10
37.858881
 20
112.290046
 30
0.0
 11
40.213483
 21
113.650456
 31
0.0
  0
LINE
  5
12f
100
AcDbEntity
  8
0
 62
5
100
AcDbLine
 10
40.213483
 20
113.650456
 30
0.0
 11
40.672408
 21
112.855577
 31
0.0
  0
LINE
  5
130
100
AcDbEntity
  8
0
 62
5
100
AcDbLine
 10
40.672408
 20
112.855577
 30
0.0
 11
36.604341
 21
110.506878
 31
0.0
  0
SPLINE
  5
131
100
AcDbEntity
  8
0
 62
5
100
AcDbSpline
 70
0
 71
3
 72
10
 73
6
 74
4
 40
0.000000
 40
0.000000
 40
0.000000
 40
0.000000
 40
0.079880
 40
0.639039
 40
2.156757
 40
2.156757
 40
2.156757
 40
2.156757
 10
61.596208
 20
278.486914
 30
0.0
 10
61.622614
 20
278.483495
 30
0.0
 10
61.833864
 20
278.456148
 30
0.0
 10
62.546834
 20
278.363849
 30
0.0
 10
63.233397
 20
278.274969
 30
0.0
 10
63.735117
 20
278.210018
 30
0.0
 11
61.596208
 21
278.486914
 31
0.0
 11
61.675427
 21
278.476659
 31
0.0
 11
62.229959
 21
278.404871
 31
0.0
 11
63.735117
 21
278.210018
 31
0.0
  0
LINE
  5
132
100
AcDbEntity
  8
0
 62
5
100
AcDbLine
 10
64.649841
 20
126.698955
 30
0.0
 11
60.581786
 21
124.350262
 31
0.0
  0
LINE
  5
133
100
AcDbEntity
  8
0
 62
5
100
AcDbLine
 10
60.581786
 20
124.350262
 30
0.0
 11
60.122424
 21
125.145897
 31
0.0
  0
LINE
  5
134
100
AcDbEntity
  8
0
 62
5
100
AcDbLine
 10
60.122424
 20
125.145897
 30
0.0
 11
62.477873
 21
126.504840
 31
0.0
  0
LINE
  5
135
100
AcDbEntity
  8
0
 62
5
100
AcDbLine
 10
37.858898
 20
112.290043
 30
0.0
 11
17.295938
 21
100.418664
 31
0.0
  0
LINE
  5
136
100
AcDbEntity
  8
0
 62
5
100
AcDbLine
 10
83.040773
 20
138.376323
 30
0.0
 11
62.477814
 21
126.504944
 31
0.0
  0
LINE
  5
137
100
AcDbEntity
  8
0
 62
1
100
AcDbLine
 10
45.209071
 20
116.535009
 30
0.0
 11
55.126777
 21
122.261651
 31
0.0
  0
SPLINE
  5
138
100
AcDbEntity
  8
0
 62
5
100
AcDbSpline
 70
0
 71
3
 72
16
 73
12
 74
10
 40
0.000000
 40
0.000000
 40
0.000000
 40
0.000000
 40
1.933904
 40
6.200793
 40
10.858936
 40
18.766134
 40
27.042863
 40
34.949977
 40
39.609784
 40
43.878293
 40
45.812691
 40
45.812691
 40
45.812691
 40
45.812691
 10
36.604341
 20
110.506878
 30
0.0
 10
37.023078
 20
110.016844
 30
0.0
 10
38.365699
 20
108.445618
 30
0.0
 10
41.082737
 20
106.006621
 30
0.0
 10
46.447016
 20
103.772735
 30
0.0
 10
53.630716
 20
105.417552
 30
0.0
 10
60.535692
 20
109.403661
 30
0.0
 10
65.551276
 20
114.803578
 30
0.0
 10
66.300697
 20
120.566417
 30
0.0
 10
65.551035
 20
124.140869
 30
0.0
 10
64.864073
 20
126.090847
 30
0.0
 10
64.649841
 20
126.698955
 30
0.0
 11
36.604341
 21
110.506878
 31
0.0
 11
37.880870
 21
109.054137
 31
0.0
 11
41.124532
 21
106.281953
 31
0.0
 11
45.456438
 21
104.569388
 31
0.0
 11
53.279072
 21
105.722730
 31
0.0
 11
60.446956
 21
109.861047
 31
0.0
 11
65.356971
 21
116.058965
 31
0.0
 11
66.042017
 21
120.668143
 31
0.0
 11
65.267359
 21
124.865770
 31
0.0
 11
64.649841
 21
126.698955
 31
0.0
  0
ENDSEC
  0
SECTION
  2
OBJECTS
  0
DICTIONARY
  5
C
330
0
100
AcDbDictionary
  3
ACAD_GROUP
350
D
  3
ACAD_MLINESTYLE
350
17
  0
DICTIONARY
  5
D
330
C
100
AcDbDictionary
  0
DICTIONARY
  5
1A
330
C
100
AcDbDictionary
  0
DICTIONARY
  5
17
330
C
100
AcDbDictionary
  3
STANDARD
350
18
  0
DICTIONARY
  5
19
330
C
100
AcDbDictionary
  0
ENDSEC
  0
EOF
