999
DXF created by Inkscape
  0
SECTION
  2
HEADER
  9
$ACADVER
  1
AC1014
  9
$HANDSEED
  5
FFFF
  9
$MEASUREMENT
 70
     1
  0
ENDSEC
  0
SECTION
  2
TABLES
  0
TABLE
  2
VPORT
  5
8
330
0
100
AcDbSymbolTable
 70
     4
  0
VPORT
  5
2E
330
8
100
AcDbSymbolTableRecord
100
AcDbViewportTableRecord
  2
*ACTIVE
 70
     0
 10
0.0
 20
0.0
 11
1.0
 21
1.0
 12
210.0
 22
148.5
 13
0.0
 23
0.0
 14
10.0
 24
10.0
 15
10.0
 25
10.0
 16
0.0
 26
0.0
 36
1.0
 17
0.0
 27
0.0
 37
0.0
 40
341.0
 41
1.24
 42
50.0
 43
0.0
 44
0.0
 50
0.0
 51
0.0
 71
     0
 72
   100
 73
     1
 74
     3
 75
     0
 76
     0
 77
     0
 78
     0
  0
ENDTAB
  0
TABLE
  2
LTYPE
  5
5
330
0
100
AcDbSymbolTable
 70
     1
  0
LTYPE
  5
14
330
5
100
AcDbSymbolTableRecord
100
AcDbLinetypeTableRecord
  2
BYBLOCK
 70
     0
  3

 72
    65
 73
     0
 40
0.0
  0
LTYPE
  5
15
330
5
100
AcDbSymbolTableRecord
100
AcDbLinetypeTableRecord
  2
BYLAYER
 70
     0
  3

 72
    65
 73
     0
 40
0.0
  0
LTYPE
  5
16
330
5
100
AcDbSymbolTableRecord
100
AcDbLinetypeTableRecord
  2
CONTINUOUS
 70
     0
  3
Solid line
 72
    65
 73
     0
 40
0.0
  0
ENDTAB
  0
TABLE
  2
LAYER
  5
2
330
0
100
AcDbSymbolTable
 70
1
  0
LAYER
  5
10
330
2
100
AcDbSymbolTableRecord
100
AcDbLayerTableRecord
  2
0
 70
     0
 62
     7
  6
CONTINUOUS
  0
ENDTAB
  0
TABLE
  2
STYLE
  5
3
330
0
100
AcDbSymbolTable
 70
     1
  0
STYLE
  5
11
330
3
100
AcDbSymbolTableRecord
100
AcDbTextStyleTableRecord
  2
STANDARD
 70
     0
 40
0.0
 41
1.0
 50
0.0
 71
     0
 42
2.5
  3
txt
  4

  0
ENDTAB
  0
TABLE
  2
VIEW
  5
6
330
0
100
AcDbSymbolTable
 70
     0
  0
ENDTAB
  0
TABLE
  2
UCS
  5
7
330
0
100
AcDbSymbolTable
 70
     0
  0
ENDTAB
  0
TABLE
  2
APPID
  5
9
330
0
100
AcDbSymbolTable
 70
     2
  0
APPID
  5
12
330
9
100
AcDbSymbolTableRecord
100
AcDbRegAppTableRecord
  2
ACAD
 70
     0
  0
ENDTAB
  0
TABLE
  2
DIMSTYLE
  5
A
330
0
100
AcDbSymbolTable
 70
     1
  0
DIMSTYLE
105
27
330
A
100
AcDbSymbolTableRecord
100
AcDbDimStyleTableRecord
  2
ISO-25
 70
     0
  3

  4

  5

  6

  7

 40
1.0
 41
2.5
 42
0.625
 43
3.75
 44
1.25
 45
0.0
 46
0.0
 47
0.0
 48
0.0
140
2.5
141
2.5
142
0.0
143
0.03937007874016
144
1.0
145
0.0
146
1.0
147
0.625
 71
     0
 72
     0
 73
     0
 74
     0
 75
     0
 76
     0
 77
     1
 78
     8
170
     0
171
     3
172
     1
173
     0
174
     0
175
     0
176
     0
177
     0
178
     0
270
     2
271
     2
272
     2
273
     2
274
     3
340
11
275
     0
280
     0
281
     0
282
     0
283
     0
284
     8
285
     0
286
     0
287
     3
288
     0
  0
ENDTAB
  0
TABLE
  2
BLOCK_RECORD
  5
1
330
0
100
AcDbSymbolTable
 70
     1
  0
BLOCK_RECORD
  5
1F
330
1
100
AcDbSymbolTableRecord
100
AcDbBlockTableRecord
  2
*MODEL_SPACE
  0
BLOCK_RECORD
  5
1B
330
1
100
AcDbSymbolTableRecord
100
AcDbBlockTableRecord
  2
*PAPER_SPACE
  0
ENDTAB
  0
ENDSEC
  0
SECTION
  2
BLOCKS
  0
BLOCK
  5
20
330
1F
100
AcDbEntity
  8
0
100
AcDbBlockBegin
  2
*MODEL_SPACE
 70
     0
 10
0.0
 20
0.0
 30
0.0
  3
*MODEL_SPACE
  1

  0
ENDBLK
  5
21
330
1F
100
AcDbEntity
  8
0
100
AcDbBlockEnd
  0
BLOCK
  5
1C
330
1B
100
AcDbEntity
 67
     1
  8
0
100
AcDbBlockBegin
  2
*PAPER_SPACE
  1

  0
ENDBLK
  5
1D
330
1B
100
AcDbEntity
 67
     1
  8
0
100
AcDbBlockEnd
  0
ENDSEC
  0
SECTION
  2
ENTITIES
  0
LINE
  5
100
100
AcDbEntity
  8
0
 62
5
100
AcDbLine
 10
11.490476
 20
266.151917
 30
0.0
 11
23.892567
 21
253.411565
 31
0.0
  0
LINE
  5
101
100
AcDbEntity
  8
0
 62
5
100
AcDbLine
 10
23.892567
 20
253.411565
 30
0.0
 11
23.164547
 21
252.702874
 31
0.0
  0
LINE
  5
102
100
AcDbEntity
  8
0
 62
5
100
AcDbLine
 10
23.164547
 20
252.702874
 30
0.0
 11
21.038474
 21
254.886935
 31
0.0
  0
SPLINE
  5
103
100
AcDbEntity
  8
0
 62
5
100
AcDbSpline
 70
0
 71
3
 72
10
 73
6
 74
4
 40
0.000000
 40
0.000000
 40
0.000000
 40
0.000000
 40
1.151245
 40
3.793907
 40
6.932542
 40
6.932542
 40
6.932542
 40
6.932542
 10
21.038474
 20
254.886935
 30
0.0
 10
20.817316
 20
254.574035
 30
0.0
 10
20.088496
 20
253.542877
 30
0.0
 10
18.995830
 20
251.450000
 30
0.0
 10
18.866590
 20
249.506077
 30
0.0
 10
18.796426
 20
248.450731
 30
0.0
 11
21.038474
 21
254.886935
 31
0.0
 11
20.387049
 21
253.937719
 31
0.0
 11
19.237392
 21
251.558234
 31
0.0
 11
18.796426
 21
248.450731
 31
0.0
  0
SPLINE
  5
104
100
AcDbEntity
  8
0
 62
5
100
AcDbSpline
 70
0
 71
3
 72
10
 73
6
 74
4
 40
0.000000
 40
0.000000
 40
0.000000
 40
0.000000
 40
5.262367
 40
10.793923
 40
16.056290
 40
16.056290
 40
16.056290
 40
16.056290
 10
18.796426
 20
248.450731
 30
0.0
 10
19.314454
 20
246.759102
 30
0.0
 10
20.377009
 20
243.289313
 30
0.0
 10
24.309763
 20
239.249295
 30
0.0
 10
27.749710
 20
238.093777
 30
0.0
 10
29.426789
 20
237.530427
 30
0.0
 11
18.796426
 21
248.450731
 31
0.0
 11
20.726353
 21
243.555029
 31
0.0
 11
24.584781
 21
239.591364
 31
0.0
 11
29.426789
 21
237.530427
 31
0.0
  0
LINE
  5
105
100
AcDbEntity
  8
0
 62
5
100
AcDbLine
 10
35.920982
 20
239.598512
 30
0.0
 11
33.794909
 21
241.782573
 31
0.0
  0
LINE
  5
106
100
AcDbEntity
  8
0
 62
5
100
AcDbLine
 10
33.794909
 20
241.782573
 30
0.0
 11
34.522929
 21
242.491264
 31
0.0
  0
LINE
  5
107
100
AcDbEntity
  8
0
 62
5
100
AcDbLine
 10
34.522929
 20
242.491264
 30
0.0
 11
46.925021
 21
229.750912
 31
0.0
  0
LINE
  5
108
100
AcDbEntity
  8
0
 62
1
100
AcDbLine
 10
26.372985
 20
250.863496
 30
0.0
 11
32.042512
 21
245.039333
 31
0.0
  0
LINE
  5
109
100
AcDbEntity
  8
0
 62
5
100
AcDbLine
 10
46.924945
 20
229.750839
 30
0.0
 11
46.769195
 21
224.002020
 31
0.0
  0
LINE
  5
10a
100
AcDbEntity
  8
0
 62
5
100
AcDbLine
 10
46.769195
 20
224.002020
 30
0.0
 11
60.648520
 21
217.355828
 31
0.0
  0
LINE
  5
10b
100
AcDbEntity
  8
0
 62
5
100
AcDbLine
 10
60.648520
 20
217.355828
 30
0.0
 11
63.434869
 21
218.799400
 31
0.0
  0
LINE
  5
10c
100
AcDbEntity
  8
0
 62
5
100
AcDbLine
 10
63.434869
 20
218.799400
 30
0.0
 11
72.324826
 21
212.902471
 31
0.0
  0
LINE
  5
10d
100
AcDbEntity
  8
0
 62
5
100
AcDbLine
 10
49.462385
 20
229.164965
 30
0.0
 11
49.635963
 21
227.221038
 31
0.0
  0
LINE
  5
10e
100
AcDbEntity
  8
0
 62
5
100
AcDbLine
 10
49.635963
 20
227.221038
 30
0.0
 11
56.239932
 21
222.840461
 31
0.0
  0
LINE
  5
10f
100
AcDbEntity
  8
0
 62
5
100
AcDbLine
 10
56.239932
 20
222.840461
 30
0.0
 11
58.098346
 21
223.436520
 31
0.0
  0
LINE
  5
110
100
AcDbEntity
  8
0
 62
1
100
AcDbLine
 10
46.924945
 20
229.750839
 30
0.0
 11
48.956936
 21
228.402968
 31
0.0
  0
LINE
  5
111
100
AcDbEntity
  8
0
 62
1
100
AcDbLine
 10
63.434869
 20
218.799400
 30
0.0
 11
57.592894
 21
222.674523
 31
0.0
  0
LINE
  5
112
100
AcDbEntity
  8
0
 62
5
100
AcDbLine
 10
72.324804
 20
212.902434
 30
0.0
 11
52.961317
 21
217.093567
 31
0.0
  0
LINE
  5
113
100
AcDbEntity
  8
0
 62
5
100
AcDbLine
 10
52.961317
 20
217.093567
 30
0.0
 11
53.090276
 21
217.689366
 31
0.0
  0
LINE
  5
114
100
AcDbEntity
  8
0
 62
5
100
AcDbLine
 10
53.090276
 20
217.689366
 30
0.0
 11
54.877674
 21
217.302493
 31
0.0
  0
SPLINE
  5
115
100
AcDbEntity
  8
0
 62
5
100
AcDbSpline
 70
0
 71
3
 72
10
 73
6
 74
4
 40
0.000000
 40
0.000000
 40
0.000000
 40
0.000000
 40
3.138636
 40
5.781297
 40
6.932542
 40
6.932542
 40
6.932542
 40
6.932542
 10
29.426789
 20
237.530427
 30
0.0
 10
30.483641
 20
237.572174
 30
0.0
 10
32.430338
 20
237.649072
 30
0.0
 10
34.551853
 20
238.685037
 30
0.0
 10
35.602245
 20
239.385852
 30
0.0
 10
35.920982
 20
239.598512
 30
0.0
 11
29.426789
 21
237.530427
 31
0.0
 11
32.545032
 21
237.887634
 31
0.0
 11
34.954584
 21
238.972860
 31
0.0
 11
35.920982
 21
239.598512
 31
0.0
  0
SPLINE
  5
116
100
AcDbEntity
  8
0
 62
5
100
AcDbSpline
 70
0
 71
3
 72
10
 73
6
 74
4
 40
0.000000
 40
0.000000
 40
0.000000
 40
0.000000
 40
0.302911
 40
1.170316
 40
2.619863
 40
2.619863
 40
2.619863
 40
2.619863
 10
54.877674
 20
217.302493
 30
0.0
 10
54.854886
 20
217.400992
 30
0.0
 10
54.766843
 20
217.781550
 30
0.0
 10
54.345132
 20
218.565290
 30
0.0
 10
53.811194
 20
219.125983
 30
0.0
 10
53.477149
 20
219.476767
 30
0.0
 11
54.877674
 21
217.302493
 31
0.0
 11
54.802588
 21
217.595951
 31
0.0
 11
54.416275
 21
218.372580
 31
0.0
 11
53.477149
 21
219.476767
 31
0.0
  0
SPLINE
  5
117
100
AcDbEntity
  8
0
 62
5
100
AcDbSpline
 70
0
 71
3
 72
10
 73
6
 74
4
 40
0.000000
 40
0.000000
 40
0.000000
 40
0.000000
 40
2.090170
 40
3.811186
 40
5.868169
 40
5.868169
 40
5.868169
 40
5.868169
 10
53.477149
 20
219.476767
 30
0.0
 10
52.847815
 20
219.777100
 30
0.0
 10
51.700297
 20
220.324724
 30
0.0
 10
49.852065
 20
220.971066
 30
0.0
 10
48.659691
 20
221.375413
 30
0.0
 10
48.010487
 20
221.595565
 30
0.0
 11
53.477149
 21
219.476767
 31
0.0
 11
51.573252
 21
220.339314
 31
0.0
 11
49.957370
 21
220.931618
 31
0.0
 11
48.010487
 21
221.595565
 31
0.0
  0
LINE
  5
118
100
AcDbEntity
  8
0
 62
5
100
AcDbLine
 10
45.344879
 20
219.365820
 30
0.0
 11
47.132280
 21
218.978947
 31
0.0
  0
LINE
  5
119
100
AcDbEntity
  8
0
 62
5
100
AcDbLine
 10
47.132280
 20
218.978947
 30
0.0
 11
47.003321
 21
218.383148
 31
0.0
  0
LINE
  5
11a
100
AcDbEntity
  8
0
 62
5
100
AcDbLine
 10
47.003321
 20
218.383148
 30
0.0
 11
42.534823
 21
219.350332
 31
0.0
  0
LINE
  5
11b
100
AcDbEntity
  8
0
 62
1
100
AcDbLine
 10
50.876017
 20
217.544919
 30
0.0
 11
49.088619
 21
217.931795
 31
0.0
  0
LINE
  5
11c
100
AcDbEntity
  8
0
 62
5
100
AcDbLine
 10
42.534919
 20
219.350775
 30
0.0
 11
42.705638
 21
205.338029
 31
0.0
  0
LINE
  5
11d
100
AcDbEntity
  8
0
 62
5
100
AcDbLine
 10
42.705638
 20
205.338029
 30
0.0
 11
63.966336
 21
183.497456
 31
0.0
  0
LINE
  5
11e
100
AcDbEntity
  8
0
 62
5
100
AcDbLine
 10
63.966336
 20
183.497456
 30
0.0
 11
77.969418
 21
182.949817
 31
0.0
  0
LINE
  5
11f
100
AcDbEntity
  8
0
 62
5
100
AcDbLine
 10
53.548607
 20
210.221541
 30
0.0
 11
53.145938
 21
206.993779
 31
0.0
  0
LINE
  5
120
100
AcDbEntity
  8
0
 62
5
100
AcDbLine
 10
53.145938
 20
206.993779
 30
0.0
 11
65.902360
 21
193.889434
 31
0.0
  0
LINE
  5
121
100
AcDbEntity
  8
0
 62
5
100
AcDbLine
 10
65.902360
 20
193.889434
 30
0.0
 11
69.139788
 21
194.205119
 31
0.0
  0
LINE
  5
122
100
AcDbEntity
  8
0
 62
1
100
AcDbLine
 10
42.534919
 20
219.350775
 30
0.0
 11
52.456580
 21
209.158505
 31
0.0
  0
LINE
  5
123
100
AcDbEntity
  8
0
 62
1
100
AcDbLine
 10
77.969418
 20
182.949817
 30
0.0
 11
68.047757
 21
193.142087
 31
0.0
  0
LINE
  5
124
100
AcDbEntity
  8
0
 62
5
100
AcDbLine
 10
77.969387
 20
182.949786
 30
0.0
 11
84.883811
 21
199.330167
 31
0.0
  0
LINE
  5
125
100
AcDbEntity
  8
0
 62
5
100
AcDbLine
 10
84.883811
 20
199.330167
 30
0.0
 11
85.819832
 21
198.935056
 31
0.0
  0
LINE
  5
126
100
AcDbEntity
  8
0
 62
5
100
AcDbLine
 10
85.819832
 20
198.935056
 30
0.0
 11
84.634505
 21
196.126990
 31
0.0
  0
SPLINE
  5
127
100
AcDbEntity
  8
0
 62
5
100
AcDbSpline
 70
0
 71
3
 72
10
 73
6
 74
4
 40
0.000000
 40
0.000000
 40
0.000000
 40
0.000000
 40
1.900077
 40
3.288648
 40
3.598628
 40
3.598628
 40
3.598628
 40
3.598628
 10
48.010487
 20
221.595565
 30
0.0
 10
47.511398
 20
221.260670
 30
0.0
 10
46.647577
 20
220.681036
 30
0.0
 10
45.318237
 20
220.055770
 30
0.0
 10
45.340767
 20
219.472301
 30
0.0
 10
45.344879
 20
219.365820
 30
0.0
 11
48.010487
 21
221.595565
 31
0.0
 11
46.396047
 21
220.593628
 31
0.0
 11
45.354191
 21
219.675661
 31
0.0
 11
45.344879
 21
219.365820
 31
0.0
  0
SPLINE
  5
128
100
AcDbEntity
  8
0
 62
5
100
AcDbSpline
 70
0
 71
3
 72
10
 73
6
 74
4
 40
0.000000
 40
0.000000
 40
0.000000
 40
0.000000
 40
1.151241
 40
3.793892
 40
6.932516
 40
6.932516
 40
6.932516
 40
6.932516
 10
84.634505
 20
196.126990
 30
0.0
 10
85.008779
 20
196.044925
 30
0.0
 10
86.242195
 20
195.774482
 30
0.0
 10
88.595247
 20
195.581725
 30
0.0
 10
90.436408
 20
196.218625
 30
0.0
 10
91.435964
 20
196.564395
 30
0.0
 11
84.634505
 21
196.126990
 31
0.0
 11
85.762330
 21
195.895985
 31
0.0
 11
88.401592
 21
195.762180
 31
0.0
 11
91.435964
 21
196.564395
 31
0.0
  0
SPLINE
  5
129
100
AcDbEntity
  8
0
 62
5
100
AcDbSpline
 70
0
 71
3
 72
10
 73
6
 74
4
 40
0.000000
 40
0.000000
 40
0.000000
 40
0.000000
 40
5.262348
 40
10.793883
 40
16.056230
 40
16.056230
 40
16.056230
 40
16.056230
 10
91.435964
 20
196.564395
 30
0.0
 10
92.792974
 20
197.699499
 30
0.0
 10
95.576410
 20
200.027770
 30
0.0
 10
97.769002
 20
205.222055
 30
0.0
 10
97.495806
 20
208.840581
 30
0.0
 10
97.362614
 20
210.604722
 30
0.0
 11
91.435964
 21
196.564395
 31
0.0
 11
95.195755
 21
200.246280
 31
0.0
 11
97.346909
 21
205.342398
 31
0.0
 11
97.362614
 21
210.604722
 31
0.0
  0
LINE
  5
12a
100
AcDbEntity
  8
0
 62
5
100
AcDbLine
 10
92.931813
 20
215.783446
 30
0.0
 11
91.746482
 21
212.975383
 31
0.0
  0
LINE
  5
12b
100
AcDbEntity
  8
0
 62
5
100
AcDbLine
 10
91.746482
 20
212.975383
 30
0.0
 11
90.810461
 21
213.370492
 31
0.0
  0
LINE
  5
12c
100
AcDbEntity
  8
0
 62
5
100
AcDbLine
 10
90.810461
 20
213.370492
 30
0.0
 11
97.724886
 21
229.750873
 31
0.0
  0
LINE
  5
12d
100
AcDbEntity
  8
0
 62
1
100
AcDbLine
 10
86.266697
 20
202.606242
 30
0.0
 11
89.427578
 21
210.094416
 31
0.0
  0
LINE
  5
12e
100
AcDbEntity
  8
0
 62
5
100
AcDbLine
 10
97.724965
 20
229.750839
 30
0.0
 11
103.081873
 21
231.843017
 31
0.0
  0
LINE
  5
12f
100
AcDbEntity
  8
0
 62
5
100
AcDbLine
 10
103.081873
 20
231.843017
 30
0.0
 11
103.807393
 21
247.214572
 31
0.0
  0
LINE
  5
130
100
AcDbEntity
  8
0
 62
5
100
AcDbLine
 10
103.807393
 20
247.214572
 30
0.0
 11
101.393854
 21
249.220218
 31
0.0
  0
LINE
  5
131
100
AcDbEntity
  8
0
 62
5
100
AcDbLine
 10
101.393854
 20
249.220218
 30
0.0
 11
103.369409
 21
259.703729
 31
0.0
  0
LINE
  5
132
100
AcDbEntity
  8
0
 62
5
100
AcDbLine
 10
97.277933
 20
232.316402
 30
0.0
 11
99.001357
 21
233.232295
 31
0.0
  0
LINE
  5
133
100
AcDbEntity
  8
0
 62
5
100
AcDbLine
 10
99.001357
 20
233.232295
 30
0.0
 11
100.468913
 21
241.020048
 31
0.0
  0
LINE
  5
134
100
AcDbEntity
  8
0
 62
5
100
AcDbLine
 10
100.468913
 20
241.020048
 30
0.0
 11
99.197044
 21
242.500386
 31
0.0
  0
LINE
  5
135
100
AcDbEntity
  8
0
 62
1
100
AcDbLine
 10
97.724965
 20
229.750839
 30
0.0
 11
98.176520
 21
232.147069
 31
0.0
  0
LINE
  5
136
100
AcDbEntity
  8
0
 62
1
100
AcDbLine
 10
101.393854
 20
249.220218
 30
0.0
 11
100.095631
 21
242.331052
 31
0.0
  0
LINE
  5
137
100
AcDbEntity
  8
0
 62
5
100
AcDbLine
 10
103.369243
 20
259.703763
 30
0.0
 11
107.038137
 21
240.234347
 31
0.0
  0
LINE
  5
138
100
AcDbEntity
  8
0
 62
5
100
AcDbLine
 10
107.038137
 20
240.234347
 30
0.0
 11
106.439078
 21
240.121458
 31
0.0
  0
LINE
  5
139
100
AcDbEntity
  8
0
 62
5
100
AcDbLine
 10
106.439078
 20
240.121458
 30
0.0
 11
106.100412
 21
241.918635
 31
0.0
  0
SPLINE
  5
13a
100
AcDbEntity
  8
0
 62
5
100
AcDbSpline
 70
0
 71
3
 72
10
 73
6
 74
4
 40
0.000000
 40
0.000000
 40
0.000000
 40
0.000000
 40
3.138625
 40
5.781276
 40
6.932517
 40
6.932517
 40
6.932517
 40
6.932517
 10
97.362614
 20
210.604722
 30
0.0
 10
96.913156
 20
211.562145
 30
0.0
 10
96.085265
 20
213.325696
 30
0.0
 10
94.305818
 20
214.877333
 30
0.0
 10
93.251685
 20
215.572501
 30
0.0
 10
92.931813
 20
215.783446
 30
0.0
 11
97.362614
 21
210.604722
 31
0.0
 11
95.820879
 21
213.338587
 31
0.0
 11
93.884034
 21
215.136430
 31
0.0
 11
92.931813
 21
215.783446
 31
0.0
  0
SPLINE
  5
13b
100
AcDbEntity
  8
0
 62
5
100
AcDbSpline
 70
0
 71
3
 72
10
 73
6
 74
4
 40
0.000000
 40
0.000000
 40
0.000000
 40
0.000000
 40
0.302914
 40
1.170328
 40
2.619891
 40
2.619891
 40
2.619891
 40
2.619891
 10
106.100412
 20
241.918635
 30
0.0
 10
106.018526
 20
241.859336
 30
0.0
 10
105.702158
 20
241.630229
 30
0.0
 10
105.144097
 20
240.936922
 30
0.0
 10
104.835173
 20
240.226962
 30
0.0
 10
104.641901
 20
239.782792
 30
0.0
 11
106.100412
 21
241.918635
 31
0.0
 11
105.859250
 21
241.735338
 31
0.0
 11
105.293975
 21
241.077409
 31
0.0
 11
104.641901
 21
239.782792
 31
0.0
  0
SPLINE
  5
13c
100
AcDbEntity
  8
0
 62
5
100
AcDbSpline
 70
0
 71
3
 72
10
 73
6
 74
4
 40
0.000000
 40
0.000000
 40
0.000000
 40
0.000000
 40
2.090193
 40
3.811230
 40
5.868235
 40
5.868235
 40
5.868235
 40
5.868235
 10
104.641901
 20
239.782792
 30
0.0
 10
104.609944
 20
239.086192
 30
0.0
 10
104.551674
 20
237.816023
 30
0.0
 10
104.674956
 20
235.861897
 30
0.0
 10
104.766124
 20
234.606121
 30
0.0
 10
104.815761
 20
233.922396
 30
0.0
 11
104.641901
 21
239.782792
 31
0.0
 11
104.587639
 21
237.693303
 31
0.0
 11
104.670346
 21
235.974255
 31
0.0
 11
104.815761
 21
233.922396
 31
0.0
  0
LINE
  5
13d
100
AcDbEntity
  8
0
 62
5
100
AcDbLine
 10
107.906637
 20
232.333691
 30
0.0
 11
107.567970
 21
234.130868
 31
0.0
  0
LINE
  5
13e
100
AcDbEntity
  8
0
 62
5
100
AcDbLine
 10
107.567970
 20
234.130868
 30
0.0
 11
108.167029
 21
234.243757
 31
0.0
  0
LINE
  5
13f
100
AcDbEntity
  8
0
 62
5
100
AcDbLine
 10
108.167029
 20
234.243757
 30
0.0
 11
109.013698
 21
229.750816
 31
0.0
  0
LINE
  5
140
100
AcDbEntity
  8
0
 62
1
100
AcDbLine
 10
107.433251
 20
238.137642
 30
0.0
 11
107.771918
 21
236.340465
 31
0.0
  0
LINE
  5
141
100
AcDbEntity
  8
0
 62
5
100
AcDbLine
 10
109.013825
 20
229.750839
 30
0.0
 11
121.857194
 21
235.357539
 31
0.0
  0
LINE
  5
142
100
AcDbEntity
  8
0
 62
5
100
AcDbLine
 10
121.857194
 20
235.357539
 30
0.0
 11
133.710556
 21
263.438328
 31
0.0
  0
LINE
  5
143
100
AcDbEntity
  8
0
 62
5
100
AcDbLine
 10
133.710556
 20
263.438328
 30
0.0
 11
128.769423
 21
276.552156
 31
0.0
  0
LINE
  5
144
100
AcDbEntity
  8
0
 62
5
100
AcDbLine
 10
113.141354
 20
243.447876
 30
0.0
 11
116.271644
 21
244.332149
 31
0.0
  0
LINE
  5
145
100
AcDbEntity
  8
0
 62
5
100
AcDbLine
 10
116.271644
 20
244.332149
 30
0.0
 11
123.383658
 21
261.180624
 31
0.0
  0
LINE
  5
146
100
AcDbEntity
  8
0
 62
5
100
AcDbLine
 10
123.383658
 20
261.180624
 30
0.0
 11
121.833818
 21
264.040455
 31
0.0
  0
LINE
  5
147
100
AcDbEntity
  8
0
 62
1
100
AcDbLine
 10
109.013825
 20
229.750839
 30
0.0
 11
114.545392
 21
242.855207
 31
0.0
  0
LINE
  5
148
100
AcDbEntity
  8
0
 62
1
100
AcDbLine
 10
128.769423
 20
276.552156
 30
0.0
 11
123.237856
 21
263.447788
 31
0.0
  0
LINE
  5
149
100
AcDbEntity
  8
0
 62
5
100
AcDbLine
 10
128.769406
 20
276.552165
 30
0.0
 11
110.989401
 21
276.552165
 31
0.0
  0
LINE
  5
14a
100
AcDbEntity
  8
0
 62
5
100
AcDbLine
 10
110.989401
 20
276.552165
 30
0.0
 11
110.989401
 21
277.568165
 31
0.0
  0
LINE
  5
14b
100
AcDbEntity
  8
0
 62
5
100
AcDbLine
 10
110.989401
 20
277.568165
 30
0.0
 11
114.037401
 21
277.568165
 31
0.0
  0
SPLINE
  5
14c
100
AcDbEntity
  8
0
 62
5
100
AcDbSpline
 70
0
 71
3
 72
10
 73
6
 74
4
 40
0.000000
 40
0.000000
 40
0.000000
 40
0.000000
 40
1.900100
 40
3.288685
 40
3.598667
 40
3.598667
 40
3.598667
 40
3.598667
 10
104.815761
 20
233.922396
 30
0.0
 10
105.318388
 20
233.592822
 30
0.0
 10
106.188331
 20
233.022397
 30
0.0
 10
107.281349
 20
232.040834
 30
0.0
 10
107.810135
 20
232.288494
 30
0.0
 10
107.906637
 20
232.333691
 30
0.0
 11
104.815761
 21
233.922396
 31
0.0
 11
106.366677
 21
232.824654
 31
0.0
 11
107.617561
 21
232.221778
 31
0.0
 11
107.906637
 21
232.333691
 31
0.0
  0
SPLINE
  5
14d
100
AcDbEntity
  8
0
 62
5
100
AcDbSpline
 70
0
 71
3
 72
10
 73
6
 74
4
 40
0.000000
 40
0.000000
 40
0.000000
 40
0.000000
 40
1.151246
 40
3.793908
 40
6.932545
 40
6.932545
 40
6.932545
 40
6.932545
 10
114.037401
 20
277.568165
 30
0.0
 10
113.967454
 20
277.944895
 30
0.0
 10
113.736947
 20
279.186400
 30
0.0
 10
112.999453
 20
281.429201
 30
0.0
 10
111.696673
 20
282.877755
 30
0.0
 10
110.989401
 20
283.664168
 30
0.0
 11
114.037401
 21
277.568165
 31
0.0
 11
113.811623
 21
278.697055
 31
0.0
 11
112.908512
 21
281.180611
 31
0.0
 11
110.989401
 21
283.664168
 31
0.0
  0
SPLINE
  5
14e
100
AcDbEntity
  8
0
 62
5
100
AcDbSpline
 70
0
 71
3
 72
10
 73
6
 74
4
 40
0.000000
 40
0.000000
 40
0.000000
 40
0.000000
 40
5.262369
 40
10.793927
 40
16.056296
 40
16.056296
 40
16.056296
 40
16.056296
 10
110.989401
 20
283.664168
 30
0.0
 10
109.415915
 20
284.472934
 30
0.0
 10
106.188453
 20
286.131838
 30
0.0
 10
100.550340
 20
286.131838
 30
0.0
 10
97.322878
 20
284.472934
 30
0.0
 10
95.749392
 20
283.664168
 30
0.0
 11
110.989401
 21
283.664168
 31
0.0
 11
106.135176
 21
285.696169
 31
0.0
 11
100.603617
 21
285.696169
 31
0.0
 11
95.749392
 21
283.664168
 31
0.0
  0
LINE
  5
14f
100
AcDbEntity
  8
0
 62
5
100
AcDbLine
 10
92.701392
 20
277.568165
 30
0.0
 11
95.749392
 21
277.568165
 31
0.0
  0
LINE
  5
150
100
AcDbEntity
  8
0
 62
5
100
AcDbLine
 10
95.749392
 20
277.568165
 30
0.0
 11
95.749392
 21
276.552165
 31
0.0
  0
LINE
  5
151
100
AcDbEntity
  8
0
 62
5
100
AcDbLine
 10
95.749392
 20
276.552165
 30
0.0
 11
77.969387
 21
276.552165
 31
0.0
  0
LINE
  5
152
100
AcDbEntity
  8
0
 62
1
100
AcDbLine
 10
107.433398
 20
276.552165
 30
0.0
 11
99.305395
 21
276.552165
 31
0.0
  0
LINE
  5
153
100
AcDbEntity
  8
0
 62
5
100
AcDbLine
 10
77.969387
 20
276.552165
 30
0.0
 11
72.612518
 21
274.460013
 31
0.0
  0
LINE
  5
154
100
AcDbEntity
  8
0
 62
5
100
AcDbLine
 10
72.612518
 20
274.460013
 30
0.0
 11
71.886978
 21
259.088581
 31
0.0
  0
LINE
  5
155
100
AcDbEntity
  8
0
 62
5
100
AcDbLine
 10
71.886978
 20
259.088581
 30
0.0
 11
74.300492
 21
257.082949
 31
0.0
  0
LINE
  5
156
100
AcDbEntity
  8
0
 62
5
100
AcDbLine
 10
74.300492
 20
257.082949
 30
0.0
 11
72.324934
 21
246.599522
 31
0.0
  0
LINE
  5
157
100
AcDbEntity
  8
0
 62
5
100
AcDbLine
 10
78.416410
 20
273.986620
 30
0.0
 11
76.693000
 21
273.070737
 31
0.0
  0
LINE
  5
158
100
AcDbEntity
  8
0
 62
5
100
AcDbLine
 10
76.693000
 20
273.070737
 30
0.0
 11
75.225442
 21
265.283051
 31
0.0
  0
LINE
  5
159
100
AcDbEntity
  8
0
 62
5
100
AcDbLine
 10
75.225442
 20
265.283051
 30
0.0
 11
76.497296
 21
263.802722
 31
0.0
  0
LINE
  5
15a
100
AcDbEntity
  8
0
 62
1
100
AcDbLine
 10
77.969387
 20
276.552165
 30
0.0
 11
77.517831
 21
274.155954
 31
0.0
  0
LINE
  5
15b
100
AcDbEntity
  8
0
 62
1
100
AcDbLine
 10
74.300492
 20
257.082949
 30
0.0
 11
75.598717
 21
263.972055
 31
0.0
  0
LINE
  5
15c
100
AcDbEntity
  8
0
 62
5
100
AcDbLine
 10
72.324804
 20
246.599545
 30
0.0
 11
68.655918
 21
266.068727
 31
0.0
  0
LINE
  5
15d
100
AcDbEntity
  8
0
 62
5
100
AcDbLine
 10
68.655918
 20
266.068727
 30
0.0
 11
69.254968
 21
266.181616
 31
0.0
  0
LINE
  5
15e
100
AcDbEntity
  8
0
 62
5
100
AcDbLine
 10
69.254968
 20
266.181616
 30
0.0
 11
69.593635
 21
264.384458
 31
0.0
  0
SPLINE
  5
15f
100
AcDbEntity
  8
0
 62
5
100
AcDbSpline
 70
0
 71
3
 72
10
 73
6
 74
4
 40
0.000000
 40
0.000000
 40
0.000000
 40
0.000000
 40
3.138637
 40
5.781299
 40
6.932545
 40
6.932545
 40
6.932545
 40
6.932545
 10
95.749392
 20
283.664168
 30
0.0
 10
95.042120
 20
282.877755
 30
0.0
 10
93.739340
 20
281.429201
 30
0.0
 10
93.001846
 20
279.186400
 30
0.0
 10
92.771339
 20
277.944895
 30
0.0
 10
92.701392
 20
277.568165
 30
0.0
 11
95.749392
 21
283.664168
 31
0.0
 11
93.830281
 21
281.180611
 31
0.0
 11
92.927170
 21
278.697055
 31
0.0
 11
92.701392
 21
277.568165
 31
0.0
  0
SPLINE
  5
160
100
AcDbEntity
  8
0
 62
5
100
AcDbSpline
 70
0
 71
3
 72
10
 73
6
 74
4
 40
0.000000
 40
0.000000
 40
0.000000
 40
0.000000
 40
0.302911
 40
1.170316
 40
2.619862
 40
2.619862
 40
2.619862
 40
2.619862
 10
69.593635
 20
264.384458
 30
0.0
 10
69.675519
 20
264.443757
 30
0.0
 10
69.991884
 20
264.672862
 30
0.0
 10
70.549937
 20
265.366163
 30
0.0
 10
70.858855
 20
266.076116
 30
0.0
 10
71.052123
 20
266.520282
 30
0.0
 11
69.593635
 21
264.384458
 31
0.0
 11
69.834794
 21
264.567754
 31
0.0
 11
70.400061
 21
265.225678
 31
0.0
 11
71.052123
 21
266.520282
 31
0.0
  0
SPLINE
  5
161
100
AcDbEntity
  8
0
 62
5
100
AcDbSpline
 70
0
 71
3
 72
10
 73
6
 74
4
 40
0.000000
 40
0.000000
 40
0.000000
 40
0.000000
 40
2.090167
 40
3.811182
 40
5.868163
 40
5.868163
 40
5.868163
 40
5.868163
 10
71.052123
 20
266.520282
 30
0.0
 10
71.084079
 20
267.216873
 30
0.0
 10
71.142348
 20
268.487027
 30
0.0
 10
71.019066
 20
270.441128
 30
0.0
 10
70.927896
 20
271.696890
 30
0.0
 10
70.878257
 20
272.380605
 30
0.0
 11
71.052123
 21
266.520282
 31
0.0
 11
71.106384
 21
268.609745
 31
0.0
 11
71.023676
 21
270.328772
 31
0.0
 11
70.878257
 21
272.380605
 31
0.0
  0
LINE
  5
162
100
AcDbEntity
  8
0
 62
5
100
AcDbLine
 10
67.787413
 20
273.969287
 30
0.0
 11
68.126079
 21
272.172132
 31
0.0
  0
LINE
  5
163
100
AcDbEntity
  8
0
 62
5
100
AcDbLine
 10
68.126079
 20
272.172132
 30
0.0
 11
67.527029
 21
272.059243
 31
0.0
  0
LINE
  5
164
100
AcDbEntity
  8
0
 62
5
100
AcDbLine
 10
67.527029
 20
272.059243
 30
0.0
 11
66.680362
 21
276.552131
 31
0.0
  0
LINE
  5
165
100
AcDbEntity
  8
0
 62
1
100
AcDbLine
 10
68.260807
 20
268.165406
 30
0.0
 11
67.922140
 21
269.962562
 31
0.0
  0
LINE
  5
166
100
AcDbEntity
  8
0
 62
5
100
AcDbLine
 10
66.680526
 20
276.552165
 30
0.0
 11
61.444793
 21
278.931345
 31
0.0
  0
LINE
  5
167
100
AcDbEntity
  8
0
 62
5
100
AcDbLine
 10
61.444793
 20
278.931345
 30
0.0
 11
49.924149
 21
268.729196
 31
0.0
  0
LINE
  5
168
100
AcDbEntity
  8
0
 62
5
100
AcDbLine
 10
49.924149
 20
268.729196
 30
0.0
 11
50.170492
 21
265.600777
 31
0.0
  0
LINE
  5
169
100
AcDbEntity
  8
0
 62
5
100
AcDbLine
 10
50.170492
 20
265.600777
 30
0.0
 11
41.280472
 21
259.703873
 31
0.0
  0
LINE
  5
16a
100
AcDbEntity
  8
0
 62
5
100
AcDbLine
 10
65.153969
 20
274.442300
 30
0.0
 11
63.295553
 21
275.038371
 31
0.0
  0
LINE
  5
16b
100
AcDbEntity
  8
0
 62
5
100
AcDbLine
 10
63.295553
 20
275.038371
 30
0.0
 11
56.691538
 21
270.657815
 31
0.0
  0
LINE
  5
16c
100
AcDbEntity
  8
0
 62
5
100
AcDbLine
 10
56.691538
 20
270.657815
 30
0.0
 11
56.517952
 21
268.713880
 31
0.0
  0
LINE
  5
16d
100
AcDbEntity
  8
0
 62
1
100
AcDbLine
 10
66.680526
 20
276.552165
 30
0.0
 11
64.648520
 21
275.204302
 31
0.0
  0
LINE
  5
16e
100
AcDbEntity
  8
0
 62
1
100
AcDbLine
 10
50.170492
 20
265.600777
 30
0.0
 11
56.012503
 21
269.475883
 31
0.0
  0
LINE
  5
16f
100
AcDbEntity
  8
0
 62
5
100
AcDbLine
 10
41.280546
 20
259.703763
 30
0.0
 11
52.672158
 21
275.913110
 31
0.0
  0
LINE
  5
170
100
AcDbEntity
  8
0
 62
5
100
AcDbLine
 10
52.672158
 20
275.913110
 30
0.0
 11
53.170907
 21
275.562599
 31
0.0
  0
LINE
  5
171
100
AcDbEntity
  8
0
 62
5
100
AcDbLine
 10
53.170907
 20
275.562599
 30
0.0
 11
52.119375
 21
274.066351
 31
0.0
  0
SPLINE
  5
172
100
AcDbEntity
  8
0
 62
5
100
AcDbSpline
 70
0
 71
3
 72
10
 73
6
 74
4
 40
0.000000
 40
0.000000
 40
0.000000
 40
0.000000
 40
1.900078
 40
3.288647
 40
3.598628
 40
3.598628
 40
3.598628
 40
3.598628
 10
70.878257
 20
272.380605
 30
0.0
 10
70.375636
 20
272.710175
 30
0.0
 10
69.505701
 20
273.280593
 30
0.0
 10
68.412694
 20
274.262141
 30
0.0
 10
67.883914
 20
274.014484
 30
0.0
 10
67.787413
 20
273.969287
 30
0.0
 11
70.878257
 21
272.380605
 31
0.0
 11
69.327357
 21
273.478333
 31
0.0
 11
68.076486
 21
274.081199
 31
0.0
 11
67.787413
 21
273.969287
 31
0.0
  0
SPLINE
  5
173
100
AcDbEntity
  8
0
 62
5
100
AcDbSpline
 70
0
 71
3
 72
10
 73
6
 74
4
 40
0.000000
 40
0.000000
 40
0.000000
 40
0.000000
 40
0.302911
 40
1.170316
 40
2.619867
 40
2.619867
 40
2.619867
 40
2.619867
 10
52.119375
 20
274.066351
 30
0.0
 10
52.218982
 20
274.049039
 30
0.0
 10
52.603823
 20
273.982153
 30
0.0
 10
53.489872
 20
274.065876
 30
0.0
 10
54.214075
 20
274.339733
 30
0.0
 10
54.667156
 20
274.511065
 30
0.0
 11
52.119375
 21
274.066351
 31
0.0
 11
52.418932
 21
274.021402
 31
0.0
 11
53.284663
 21
274.075277
 31
0.0
 11
54.667156
 21
274.511065
 31
0.0
  0
SPLINE
  5
174
100
AcDbEntity
  8
0
 62
5
100
AcDbSpline
 70
0
 71
3
 72
10
 73
6
 74
4
 40
0.000000
 40
0.000000
 40
0.000000
 40
0.000000
 40
2.090172
 40
3.811192
 40
5.868178
 40
5.868178
 40
5.868178
 40
5.868178
 10
54.667156
 20
274.511065
 30
0.0
 10
55.188593
 20
274.974061
 30
0.0
 10
56.139375
 20
275.818282
 30
0.0
 10
57.453610
 20
277.269666
 30
0.0
 10
58.289838
 20
278.210931
 30
0.0
 10
58.745134
 20
278.723415
 30
0.0
 11
54.667156
 21
274.511065
 31
0.0
 11
56.202223
 21
275.929651
 31
0.0
 11
57.376314
 21
277.187992
 31
0.0
 11
58.745134
 21
278.723415
 31
0.0
  0
LINE
  5
175
100
AcDbEntity
  8
0
 62
5
100
AcDbLine
 10
57.727551
 20
282.046337
 30
0.0
 11
56.676019
 21
280.550090
 31
0.0
  0
LINE
  5
176
100
AcDbEntity
  8
0
 62
5
100
AcDbLine
 10
56.676019
 20
280.550090
 30
0.0
 11
56.177270
 21
280.900601
 31
0.0
  0
LINE
  5
177
100
AcDbEntity
  8
0
 62
5
100
AcDbLine
 10
56.177270
 20
280.900601
 30
0.0
 11
58.806103
 21
284.641219
 31
0.0
  0
LINE
  5
178
100
AcDbEntity
  8
0
 62
1
100
AcDbLine
 10
53.898947
 20
277.658732
 30
0.0
 11
54.950481
 21
279.154979
 31
0.0
  0
LINE
  5
179
100
AcDbEntity
  8
0
 62
5
100
AcDbLine
 10
58.806029
 20
284.641270
 30
0.0
 11
45.829934
 21
289.933334
 31
0.0
  0
LINE
  5
17a
100
AcDbEntity
  8
0
 62
5
100
AcDbLine
 10
45.829934
 20
289.933334
 30
0.0
 11
17.440620
 21
278.839680
 31
0.0
  0
LINE
  5
17b
100
AcDbEntity
  8
0
 62
5
100
AcDbLine
 10
17.440620
 20
278.839680
 30
0.0
 11
11.490506
 21
266.151847
 31
0.0
  0
LINE
  5
17c
100
AcDbEntity
  8
0
 62
5
100
AcDbLine
 10
46.112365
 20
278.044765
 30
0.0
 11
43.295274
 21
279.670965
 31
0.0
  0
LINE
  5
17d
100
AcDbEntity
  8
0
 62
5
100
AcDbLine
 10
43.295274
 20
279.670965
 30
0.0
 11
26.261685
 21
273.014772
 31
0.0
  0
LINE
  5
17e
100
AcDbEntity
  8
0
 62
5
100
AcDbLine
 10
26.261685
 20
273.014772
 30
0.0
 11
25.293535
 21
269.909419
 31
0.0
  0
LINE
  5
17f
100
AcDbEntity
  8
0
 62
1
100
AcDbLine
 10
58.806029
 20
284.641270
 30
0.0
 11
45.557683
 21
279.464231
 31
0.0
  0
LINE
  5
180
100
AcDbEntity
  8
0
 62
1
100
AcDbLine
 10
11.490506
 20
266.151847
 30
0.0
 11
24.738852
 21
271.328885
 31
0.0
  0
LINE
  5
181
100
AcDbEntity
  8
0
 62
1
100
AcDbLine
 10
11.490476
 20
266.152044
 30
0.0
 11
41.280444
 21
259.703831
 31
0.0
  0
LINE
  5
182
100
AcDbEntity
  8
0
 62
1
100
AcDbLine
 10
41.280444
 20
259.703831
 30
0.0
 11
46.924889
 21
229.750740
 31
0.0
  0
LINE
  5
183
100
AcDbEntity
  8
0
 62
1
100
AcDbLine
 10
46.924889
 20
229.750740
 30
0.0
 11
66.680444
 21
276.552217
 31
0.0
  0
LINE
  5
184
100
AcDbEntity
  8
0
 62
1
100
AcDbLine
 10
46.924889
 20
229.750740
 30
0.0
 11
72.324889
 21
246.599407
 31
0.0
  0
LINE
  5
185
100
AcDbEntity
  8
0
 62
1
100
AcDbLine
 10
46.924889
 20
229.750740
 30
0.0
 11
97.724889
 21
229.750740
 31
0.0
  0
LINE
  5
186
100
AcDbEntity
  8
0
 62
1
100
AcDbLine
 10
72.324889
 20
246.599407
 30
0.0
 11
97.724889
 21
229.750740
 31
0.0
  0
LINE
  5
187
100
AcDbEntity
  8
0
 62
1
100
AcDbLine
 10
72.324889
 20
212.902355
 30
0.0
 11
77.969333
 21
182.949829
 31
0.0
  0
LINE
  5
188
100
AcDbEntity
  8
0
 62
1
100
AcDbLine
 10
72.324889
 20
212.902355
 30
0.0
 11
97.724889
 21
229.750740
 31
0.0
  0
LINE
  5
189
100
AcDbEntity
  8
0
 62
1
100
AcDbLine
 10
77.969333
 20
276.552217
 30
0.0
 11
97.724889
 21
229.750740
 31
0.0
  0
LINE
  5
18a
100
AcDbEntity
  8
0
 62
1
100
AcDbLine
 10
77.969333
 20
276.552217
 30
0.0
 11
103.369333
 21
259.703831
 31
0.0
  0
LINE
  5
18b
100
AcDbEntity
  8
0
 62
1
100
AcDbLine
 10
103.369333
 20
259.703831
 30
0.0
 11
128.769333
 21
276.552217
 31
0.0
  0
LINE
  5
18c
100
AcDbEntity
  8
0
 62
5
100
AcDbLine
 10
12.296826
 20
137.052805
 30
0.0
 11
20.424192
 21
121.239067
 31
0.0
  0
LINE
  5
18d
100
AcDbEntity
  8
0
 62
5
100
AcDbLine
 10
20.424192
 20
121.239067
 30
0.0
 11
19.520550
 21
120.774645
 31
0.0
  0
LINE
  5
18e
100
AcDbEntity
  8
0
 62
5
100
AcDbLine
 10
19.520550
 20
120.774645
 30
0.0
 11
18.127287
 21
123.485573
 31
0.0
  0
SPLINE
  5
18f
100
AcDbEntity
  8
0
 62
5
100
AcDbSpline
 70
0
 71
3
 72
10
 73
6
 74
4
 40
0.000000
 40
0.000000
 40
0.000000
 40
0.000000
 40
1.900083
 40
3.288656
 40
3.598637
 40
3.598637
 40
3.598637
 40
3.598637
 10
58.745134
 20
278.723415
 30
0.0
 10
58.630695
 20
279.313457
 30
0.0
 10
58.432624
 20
280.334700
 30
0.0
 10
58.373552
 20
281.802564
 30
0.0
 10
57.827250
 20
282.008715
 30
0.0
 10
57.727551
 20
282.046337
 30
0.0
 11
58.745134
 21
278.723415
 31
0.0
 11
58.449916
 21
280.600423
 31
0.0
 11
58.009381
 21
281.917262
 31
0.0
 11
57.727551
 21
282.046337
 31
0.0
  0
SPLINE
  5
190
100
AcDbEntity
  8
0
 62
5
100
AcDbSpline
 70
0
 71
3
 72
10
 73
6
 74
4
 40
0.000000
 40
0.000000
 40
0.000000
 40
0.000000
 40
1.151245
 40
3.793907
 40
6.932542
 40
6.932542
 40
6.932542
 40
6.932542
 10
18.127287
 20
123.485573
 30
0.0
 10
17.824193
 20
123.251156
 30
0.0
 10
16.825351
 20
122.478639
 30
0.0
 10
15.167693
 20
120.797503
 30
0.0
 10
14.474842
 20
118.976651
 30
0.0
 10
14.098697
 20
117.988121
 30
0.0
 11
18.127287
 21
123.485573
 31
0.0
 11
17.226445
 21
122.768740
 31
0.0
 11
15.430360
 21
120.830251
 31
0.0
 11
14.098697
 21
117.988121
 31
0.0
  0
SPLINE
  5
191
100
AcDbEntity
  8
0
 62
5
100
AcDbSpline
 70
0
 71
3
 72
10
 73
6
 74
4
 40
0.000000
 40
0.000000
 40
0.000000
 40
0.000000
 40
5.262367
 40
10.793923
 40
16.056289
 40
16.056289
 40
16.056289
 40
16.056289
 10
14.098697
 20
117.988121
 30
0.0
 10
14.098622
 20
116.218952
 30
0.0
 10
14.098469
 20
112.590115
 30
0.0
 10
16.675691
 20
107.575514
 30
0.0
 10
19.626434
 20
105.463270
 30
0.0
 10
21.065011
 20
104.433487
 30
0.0
 11
14.098697
 21
117.988121
 31
0.0
 11
14.510313
 21
112.741877
 31
0.0
 11
17.038827
 21
107.822047
 31
0.0
 11
21.065011
 21
104.433487
 31
0.0
  0
LINE
  5
192
100
AcDbEntity
  8
0
 62
5
100
AcDbLine
 10
27.880127
 20
104.509086
 30
0.0
 11
26.486864
 21
107.220014
 31
0.0
  0
LINE
  5
193
100
AcDbEntity
  8
0
 62
5
100
AcDbLine
 10
26.486864
 20
107.220014
 30
0.0
 11
27.390507
 21
107.684433
 31
0.0
  0
LINE
  5
194
100
AcDbEntity
  8
0
 62
5
100
AcDbLine
 10
27.390507
 20
107.684433
 30
0.0
 11
35.517873
 21
91.870695
 31
0.0
  0
LINE
  5
195
100
AcDbEntity
  8
0
 62
1
100
AcDbLine
 10
22.049665
 20
118.076318
 30
0.0
 11
25.765033
 21
110.847182
 31
0.0
  0
LINE
  5
196
100
AcDbEntity
  8
0
 62
5
100
AcDbLine
 10
35.517859
 20
91.870689
 30
0.0
 11
38.276028
 21
92.861701
 31
0.0
  0
LINE
  5
197
100
AcDbEntity
  8
0
 62
5
100
AcDbLine
 10
38.276028
 20
92.861701
 30
0.0
 11
38.341396
 21
93.752039
 31
0.0
  0
LINE
  5
198
100
AcDbEntity
  8
0
 62
5
100
AcDbLine
 10
38.341396
 20
93.752039
 30
0.0
 11
36.372890
 21
95.388460
 31
0.0
  0
LINE
  5
199
100
AcDbEntity
  8
0
 62
5
100
AcDbLine
 10
36.721519
 20
100.136927
 30
0.0
 11
38.165975
 21
101.522771
 31
0.0
  0
LINE
  5
19a
100
AcDbEntity
  8
0
 62
5
100
AcDbLine
 10
38.165975
 20
101.522771
 30
0.0
 11
37.978142
 21
103.028458
 31
0.0
  0
LINE
  5
19b
100
AcDbEntity
  8
0
 62
5
100
AcDbLine
 10
37.978142
 20
103.028458
 30
0.0
 11
36.389434
 21
103.741856
 31
0.0
  0
LINE
  5
19c
100
AcDbEntity
  8
0
 62
5
100
AcDbLine
 10
36.389434
 20
103.741856
 30
0.0
 11
37.696800
 21
121.548608
 31
0.0
  0
LINE
  5
19d
100
AcDbEntity
  8
0
 62
5
100
AcDbLine
 10
34.801835
 20
94.310292
 30
0.0
 11
36.372890
 21
95.388460
 31
0.0
  0
LINE
  5
19e
100
AcDbEntity
  8
0
 62
5
100
AcDbLine
 10
36.372890
 20
95.388460
 30
0.0
 11
36.721519
 21
100.136927
 31
0.0
  0
LINE
  5
19f
100
AcDbEntity
  8
0
 62
5
100
AcDbLine
 10
36.721519
 20
100.136927
 30
0.0
 11
35.324782
 21
101.432991
 31
0.0
  0
LINE
  5
1a0
100
AcDbEntity
  8
0
 62
1
100
AcDbLine
 10
36.215120
 20
101.367622
 30
0.0
 11
36.389434
 21
103.741856
 31
0.0
  0
LINE
  5
1a1
100
AcDbEntity
  8
0
 62
1
100
AcDbLine
 10
35.517859
 20
91.870689
 30
0.0
 11
35.692173
 21
94.244923
 31
0.0
  0
LINE
  5
1a2
100
AcDbEntity
  8
0
 62
5
100
AcDbLine
 10
37.696826
 20
121.548605
 30
0.0
 11
39.243875
 21
100.477282
 31
0.0
  0
LINE
  5
1a3
100
AcDbEntity
  8
0
 62
5
100
AcDbLine
 10
39.243875
 20
100.477282
 30
0.0
 11
38.650316
 21
100.433701
 31
0.0
  0
LINE
  5
1a4
100
AcDbEntity
  8
0
 62
5
100
AcDbLine
 10
38.650316
 20
100.433701
 30
0.0
 11
38.606736
 21
101.027260
 31
0.0
  0
LINE
  5
1a5
100
AcDbEntity
  8
0
 62
5
100
AcDbLine
 10
38.606736
 20
101.027260
 30
0.0
 11
37.484990
 21
100.049766
 31
0.0
  0
LINE
  5
1a6
100
AcDbEntity
  8
0
 62
5
100
AcDbLine
 10
37.484990
 20
100.049766
 30
0.0
 11
37.536840
 21
95.279508
 31
0.0
  0
LINE
  5
1a7
100
AcDbEntity
  8
0
 62
5
100
AcDbLine
 10
37.536840
 20
95.279508
 30
0.0
 11
39.086104
 21
94.498119
 31
0.0
  0
LINE
  5
1a8
100
AcDbEntity
  8
0
 62
5
100
AcDbLine
 10
39.086104
 20
94.498119
 30
0.0
 11
39.042526
 21
95.091677
 31
0.0
  0
LINE
  5
1a9
100
AcDbEntity
  8
0
 62
5
100
AcDbLine
 10
39.042526
 20
95.091677
 30
0.0
 11
39.636085
 21
95.135255
 31
0.0
  0
LINE
  5
1aa
100
AcDbEntity
  8
0
 62
5
100
AcDbLine
 10
39.636085
 20
95.135255
 30
0.0
 11
39.875768
 21
91.870684
 31
0.0
  0
LINE
  5
1ab
100
AcDbEntity
  8
0
 62
1
100
AcDbLine
 10
39.331031
 20
99.290165
 30
0.0
 11
39.548926
 21
96.322372
 31
0.0
  0
LINE
  5
1ac
100
AcDbEntity
  8
0
 62
5
100
AcDbLine
 10
39.875824
 20
91.870689
 30
0.0
 11
50.035807
 21
82.218706
 31
0.0
  0
LINE
  5
1ad
100
AcDbEntity
  8
0
 62
5
100
AcDbLine
 10
50.035807
 20
82.218706
 30
0.0
 11
80.515754
 21
82.218706
 31
0.0
  0
LINE
  5
1ae
100
AcDbEntity
  8
0
 62
5
100
AcDbLine
 10
80.515754
 20
82.218706
 30
0.0
 11
90.675737
 21
91.870689
 31
0.0
  0
LINE
  5
1af
100
AcDbEntity
  8
0
 62
5
100
AcDbLine
 10
54.099799
 20
93.394687
 30
0.0
 11
56.131796
 21
90.854692
 31
0.0
  0
LINE
  5
1b0
100
AcDbEntity
  8
0
 62
5
100
AcDbLine
 10
56.131796
 20
90.854692
 30
0.0
 11
74.419765
 21
90.854692
 31
0.0
  0
LINE
  5
1b1
100
AcDbEntity
  8
0
 62
5
100
AcDbLine
 10
74.419765
 20
90.854692
 30
0.0
 11
76.451762
 21
93.394687
 31
0.0
  0
LINE
  5
1b2
100
AcDbEntity
  8
0
 62
1
100
AcDbLine
 10
39.875824
 20
91.870689
 30
0.0
 11
54.099799
 21
91.870689
 31
0.0
  0
LINE
  5
1b3
100
AcDbEntity
  8
0
 62
1
100
AcDbLine
 10
90.675737
 20
91.870689
 30
0.0
 11
76.451762
 21
91.870689
 31
0.0
  0
LINE
  5
1b4
100
AcDbEntity
  8
0
 62
5
100
AcDbLine
 10
92.854681
 20
121.548622
 30
0.0
 11
91.307632
 21
100.477287
 31
0.0
  0
LINE
  5
1b5
100
AcDbEntity
  8
0
 62
5
100
AcDbLine
 10
91.307632
 20
100.477287
 30
0.0
 11
91.901191
 21
100.433710
 31
0.0
  0
LINE
  5
1b6
100
AcDbEntity
  8
0
 62
5
100
AcDbLine
 10
91.901191
 20
100.433710
 30
0.0
 11
91.944769
 21
101.027268
 31
0.0
  0
LINE
  5
1b7
100
AcDbEntity
  8
0
 62
5
100
AcDbLine
 10
91.944769
 20
101.027268
 30
0.0
 11
93.066520
 21
100.049772
 31
0.0
  0
LINE
  5
1b8
100
AcDbEntity
  8
0
 62
5
100
AcDbLine
 10
93.066520
 20
100.049772
 30
0.0
 11
93.014667
 21
95.279513
 31
0.0
  0
LINE
  5
1b9
100
AcDbEntity
  8
0
 62
5
100
AcDbLine
 10
93.014667
 20
95.279513
 30
0.0
 11
91.465403
 21
94.498122
 31
0.0
  0
LINE
  5
1ba
100
AcDbEntity
  8
0
 62
5
100
AcDbLine
 10
91.465403
 20
94.498122
 30
0.0
 11
91.508981
 21
95.091680
 31
0.0
  0
LINE
  5
1bb
100
AcDbEntity
  8
0
 62
5
100
AcDbLine
 10
91.508981
 20
95.091680
 30
0.0
 11
90.915422
 21
95.135258
 31
0.0
  0
LINE
  5
1bc
100
AcDbEntity
  8
0
 62
5
100
AcDbLine
 10
90.915422
 20
95.135258
 30
0.0
 11
90.675739
 21
91.870687
 31
0.0
  0
LINE
  5
1bd
100
AcDbEntity
  8
0
 62
1
100
AcDbLine
 10
91.220473
 20
99.290170
 30
0.0
 11
91.002581
 21
96.322378
 31
0.0
  0
LINE
  5
1be
100
AcDbEntity
  8
0
 62
5
100
AcDbLine
 10
95.033854
 20
91.870692
 30
0.0
 11
92.275685
 21
92.861704
 31
0.0
  0
LINE
  5
1bf
100
AcDbEntity
  8
0
 62
5
100
AcDbLine
 10
92.275685
 20
92.861704
 30
0.0
 11
92.210317
 21
93.752042
 31
0.0
  0
LINE
  5
1c0
100
AcDbEntity
  8
0
 62
5
100
AcDbLine
 10
92.210317
 20
93.752042
 30
0.0
 11
94.178823
 21
95.388462
 31
0.0
  0
LINE
  5
1c1
100
AcDbEntity
  8
0
 62
5
100
AcDbLine
 10
93.830194
 20
100.136930
 30
0.0
 11
92.385741
 21
101.522771
 31
0.0
  0
LINE
  5
1c2
100
AcDbEntity
  8
0
 62
5
100
AcDbLine
 10
92.385741
 20
101.522771
 30
0.0
 11
92.573571
 21
103.028458
 31
0.0
  0
LINE
  5
1c3
100
AcDbEntity
  8
0
 62
5
100
AcDbLine
 10
92.573571
 20
103.028458
 30
0.0
 11
94.162279
 21
103.741856
 31
0.0
  0
LINE
  5
1c4
100
AcDbEntity
  8
0
 62
5
100
AcDbLine
 10
94.162279
 20
103.741856
 30
0.0
 11
92.854913
 21
121.548605
 31
0.0
  0
LINE
  5
1c5
100
AcDbEntity
  8
0
 62
5
100
AcDbLine
 10
95.749878
 20
94.310294
 30
0.0
 11
94.178823
 21
95.388462
 31
0.0
  0
LINE
  5
1c6
100
AcDbEntity
  8
0
 62
5
100
AcDbLine
 10
94.178823
 20
95.388462
 30
0.0
 11
93.830194
 21
100.136930
 31
0.0
  0
LINE
  5
1c7
100
AcDbEntity
  8
0
 62
5
100
AcDbLine
 10
93.830194
 20
100.136930
 30
0.0
 11
95.226931
 21
101.432994
 31
0.0
  0
LINE
  5
1c8
100
AcDbEntity
  8
0
 62
1
100
AcDbLine
 10
94.336593
 20
101.367625
 30
0.0
 11
94.162279
 21
103.741856
 31
0.0
  0
LINE
  5
1c9
100
AcDbEntity
  8
0
 62
1
100
AcDbLine
 10
95.033854
 20
91.870692
 30
0.0
 11
94.859540
 21
94.244926
 31
0.0
  0
LINE
  5
1ca
100
AcDbEntity
  8
0
 62
5
100
AcDbLine
 10
95.033792
 20
91.870689
 30
0.0
 11
103.161160
 21
76.056951
 31
0.0
  0
LINE
  5
1cb
100
AcDbEntity
  8
0
 62
5
100
AcDbLine
 10
103.161160
 20
76.056951
 30
0.0
 11
102.257516
 21
75.592529
 31
0.0
  0
LINE
  5
1cc
100
AcDbEntity
  8
0
 62
5
100
AcDbLine
 10
102.257516
 20
75.592529
 30
0.0
 11
100.864255
 21
78.303457
 31
0.0
  0
SPLINE
  5
1cd
100
AcDbEntity
  8
0
 62
5
100
AcDbSpline
 70
0
 71
3
 72
10
 73
6
 74
4
 40
0.000000
 40
0.000000
 40
0.000000
 40
0.000000
 40
3.138636
 40
5.781297
 40
6.932542
 40
6.932542
 40
6.932542
 40
6.932542
 10
21.065011
 20
104.433487
 30
0.0
 10
22.087755
 20
104.163906
 30
0.0
 10
23.971625
 20
103.667343
 30
0.0
 10
26.303512
 20
104.036607
 30
0.0
 10
27.513087
 20
104.399091
 30
0.0
 10
27.880127
 20
104.509086
 30
0.0
 11
21.065011
 21
104.433487
 31
0.0
 11
24.151154
 21
103.861859
 31
0.0
 11
26.772876
 21
104.193872
 31
0.0
 11
27.880127
 21
104.509086
 31
0.0
  0
SPLINE
  5
1ce
100
AcDbEntity
  8
0
 62
5
100
AcDbSpline
 70
0
 71
3
 72
10
 73
6
 74
4
 40
0.000000
 40
0.000000
 40
0.000000
 40
0.000000
 40
1.151246
 40
3.793908
 40
6.932543
 40
6.932543
 40
6.932543
 40
6.932543
 10
100.864255
 20
78.303457
 30
0.0
 10
100.561161
 20
78.069040
 30
0.0
 10
99.562319
 20
77.296524
 30
0.0
 10
97.904659
 20
75.615388
 30
0.0
 10
97.211808
 20
73.794536
 30
0.0
 10
96.835663
 20
72.806005
 30
0.0
 11
100.864255
 21
78.303457
 31
0.0
 11
99.963412
 21
77.586624
 31
0.0
 11
98.167327
 21
75.648135
 31
0.0
 11
96.835663
 21
72.806005
 31
0.0
  0
SPLINE
  5
1cf
100
AcDbEntity
  8
0
 62
5
100
AcDbSpline
 70
0
 71
3
 72
10
 73
6
 74
4
 40
0.000000
 40
0.000000
 40
0.000000
 40
0.000000
 40
5.262367
 40
10.793923
 40
16.056289
 40
16.056289
 40
16.056289
 40
16.056289
 10
96.835663
 20
72.806005
 30
0.0
 10
96.835588
 20
71.036836
 30
0.0
 10
96.835435
 20
67.407999
 30
0.0
 10
99.412656
 20
62.393398
 30
0.0
 10
102.363400
 20
60.281155
 30
0.0
 10
103.801977
 20
59.251372
 30
0.0
 11
96.835663
 21
72.806005
 31
0.0
 11
97.247279
 21
67.559761
 31
0.0
 11
99.775792
 21
62.639931
 31
0.0
 11
103.801977
 21
59.251372
 31
0.0
  0
LINE
  5
1d0
100
AcDbEntity
  8
0
 62
5
100
AcDbLine
 10
110.617093
 20
59.326970
 30
0.0
 11
109.223833
 21
62.037898
 31
0.0
  0
LINE
  5
1d1
100
AcDbEntity
  8
0
 62
5
100
AcDbLine
 10
109.223833
 20
62.037898
 30
0.0
 11
110.127474
 21
62.502318
 31
0.0
  0
LINE
  5
1d2
100
AcDbEntity
  8
0
 62
5
100
AcDbLine
 10
110.127474
 20
62.502318
 30
0.0
 11
118.254839
 21
46.688580
 31
0.0
  0
LINE
  5
1d3
100
AcDbEntity
  8
0
 62
1
100
AcDbLine
 10
104.786633
 20
72.894203
 30
0.0
 11
108.502001
 21
65.665066
 31
0.0
  0
LINE
  5
1d4
100
AcDbEntity
  8
0
 62
5
100
AcDbLine
 10
118.254828
 20
46.688574
 30
0.0
 11
121.012997
 21
47.679586
 31
0.0
  0
LINE
  5
1d5
100
AcDbEntity
  8
0
 62
5
100
AcDbLine
 10
121.012997
 20
47.679586
 30
0.0
 11
121.078365
 21
48.569924
 31
0.0
  0
LINE
  5
1d6
100
AcDbEntity
  8
0
 62
5
100
AcDbLine
 10
121.078365
 20
48.569924
 30
0.0
 11
119.109860
 21
50.206344
 31
0.0
  0
LINE
  5
1d7
100
AcDbEntity
  8
0
 62
5
100
AcDbLine
 10
119.458489
 20
54.954812
 30
0.0
 11
120.902942
 21
56.340653
 31
0.0
  0
LINE
  5
1d8
100
AcDbEntity
  8
0
 62
5
100
AcDbLine
 10
120.902942
 20
56.340653
 30
0.0
 11
120.715111
 21
57.846340
 31
0.0
  0
LINE
  5
1d9
100
AcDbEntity
  8
0
 62
5
100
AcDbLine
 10
120.715111
 20
57.846340
 30
0.0
 11
119.126404
 21
58.559738
 31
0.0
  0
LINE
  5
1da
100
AcDbEntity
  8
0
 62
5
100
AcDbLine
 10
119.126404
 20
58.559738
 30
0.0
 11
120.433770
 21
76.366487
 31
0.0
  0
LINE
  5
1db
100
AcDbEntity
  8
0
 62
5
100
AcDbLine
 10
117.538805
 20
49.128176
 30
0.0
 11
119.109860
 21
50.206344
 31
0.0
  0
LINE
  5
1dc
100
AcDbEntity
  8
0
 62
5
100
AcDbLine
 10
119.109860
 20
50.206344
 30
0.0
 11
119.458489
 21
54.954812
 31
0.0
  0
LINE
  5
1dd
100
AcDbEntity
  8
0
 62
5
100
AcDbLine
 10
119.458489
 20
54.954812
 30
0.0
 11
118.061751
 21
56.250875
 31
0.0
  0
LINE
  5
1de
100
AcDbEntity
  8
0
 62
1
100
AcDbLine
 10
118.952089
 20
56.185507
 30
0.0
 11
119.126404
 21
58.559738
 31
0.0
  0
LINE
  5
1df
100
AcDbEntity
  8
0
 62
1
100
AcDbLine
 10
118.254828
 20
46.688574
 30
0.0
 11
118.429143
 21
49.062808
 31
0.0
  0
LINE
  5
1e0
100
AcDbEntity
  8
0
 62
5
100
AcDbLine
 10
120.433705
 20
76.366490
 30
0.0
 11
121.980754
 21
55.295155
 31
0.0
  0
LINE
  5
1e1
100
AcDbEntity
  8
0
 62
5
100
AcDbLine
 10
121.980754
 20
55.295155
 30
0.0
 11
121.387195
 21
55.251577
 31
0.0
  0
LINE
  5
1e2
100
AcDbEntity
  8
0
 62
5
100
AcDbLine
 10
121.387195
 20
55.251577
 30
0.0
 11
121.343618
 21
55.845136
 31
0.0
  0
LINE
  5
1e3
100
AcDbEntity
  8
0
 62
5
100
AcDbLine
 10
121.343618
 20
55.845136
 30
0.0
 11
120.221866
 21
54.867639
 31
0.0
  0
LINE
  5
1e4
100
AcDbEntity
  8
0
 62
5
100
AcDbLine
 10
120.221866
 20
54.867639
 30
0.0
 11
120.273719
 21
50.097381
 31
0.0
  0
LINE
  5
1e5
100
AcDbEntity
  8
0
 62
5
100
AcDbLine
 10
120.273719
 20
50.097381
 30
0.0
 11
121.822983
 21
49.315989
 31
0.0
  0
LINE
  5
1e6
100
AcDbEntity
  8
0
 62
5
100
AcDbLine
 10
121.822983
 20
49.315989
 30
0.0
 11
121.779405
 21
49.909548
 31
0.0
  0
LINE
  5
1e7
100
AcDbEntity
  8
0
 62
5
100
AcDbLine
 10
121.779405
 20
49.909548
 30
0.0
 11
122.372964
 21
49.953126
 31
0.0
  0
LINE
  5
1e8
100
AcDbEntity
  8
0
 62
5
100
AcDbLine
 10
122.372964
 20
49.953126
 30
0.0
 11
122.612647
 21
46.688554
 31
0.0
  0
LINE
  5
1e9
100
AcDbEntity
  8
0
 62
1
100
AcDbLine
 10
122.067913
 20
54.108038
 30
0.0
 11
122.285805
 21
51.140246
 31
0.0
  0
LINE
  5
1ea
100
AcDbEntity
  8
0
 62
5
100
AcDbLine
 10
122.612881
 20
46.688574
 30
0.0
 11
135.841692
 21
51.312997
 31
0.0
  0
LINE
  5
1eb
100
AcDbEntity
  8
0
 62
5
100
AcDbLine
 10
135.841692
 20
51.312997
 30
0.0
 11
149.774320
 21
78.422261
 31
0.0
  0
LINE
  5
1ec
100
AcDbEntity
  8
0
 62
5
100
AcDbLine
 10
149.774320
 20
78.422261
 30
0.0
 11
145.833928
 21
91.870684
 31
0.0
  0
LINE
  5
1ed
100
AcDbEntity
  8
0
 62
5
100
AcDbLine
 10
127.759310
 20
60.036195
 30
0.0
 11
130.947259
 21
60.682427
 31
0.0
  0
LINE
  5
1ee
100
AcDbEntity
  8
0
 62
5
100
AcDbLine
 10
130.947259
 20
60.682427
 30
0.0
 11
139.306836
 21
76.947989
 31
0.0
  0
LINE
  5
1ef
100
AcDbEntity
  8
0
 62
5
100
AcDbLine
 10
139.306836
 20
76.947989
 30
0.0
 11
137.976573
 21
79.916323
 31
0.0
  0
LINE
  5
1f0
100
AcDbEntity
  8
0
 62
1
100
AcDbLine
 10
122.612881
 20
46.688574
 30
0.0
 11
129.114773
 21
59.339566
 31
0.0
  0
LINE
  5
1f1
100
AcDbEntity
  8
0
 62
1
100
AcDbLine
 10
145.833928
 20
91.870684
 30
0.0
 11
139.332036
 21
79.219692
 31
0.0
  0
LINE
  5
1f2
100
AcDbEntity
  8
0
 62
5
100
AcDbLine
 10
148.012856
 20
121.548603
 30
0.0
 11
146.465806
 21
100.477285
 31
0.0
  0
LINE
  5
1f3
100
AcDbEntity
  8
0
 62
5
100
AcDbLine
 10
146.465806
 20
100.477285
 30
0.0
 11
147.059365
 21
100.433707
 31
0.0
  0
LINE
  5
1f4
100
AcDbEntity
  8
0
 62
5
100
AcDbLine
 10
147.059365
 20
100.433707
 30
0.0
 11
147.102946
 21
101.027262
 31
0.0
  0
LINE
  5
1f5
100
AcDbEntity
  8
0
 62
5
100
AcDbLine
 10
147.102946
 20
101.027262
 30
0.0
 11
148.224692
 21
100.049769
 31
0.0
  0
LINE
  5
1f6
100
AcDbEntity
  8
0
 62
5
100
AcDbLine
 10
148.224692
 20
100.049769
 30
0.0
 11
148.172842
 21
95.279513
 31
0.0
  0
LINE
  5
1f7
100
AcDbEntity
  8
0
 62
5
100
AcDbLine
 10
148.172842
 20
95.279513
 30
0.0
 11
146.623577
 21
94.498122
 31
0.0
  0
LINE
  5
1f8
100
AcDbEntity
  8
0
 62
5
100
AcDbLine
 10
146.623577
 20
94.498122
 30
0.0
 11
146.667155
 21
95.091680
 31
0.0
  0
LINE
  5
1f9
100
AcDbEntity
  8
0
 62
5
100
AcDbLine
 10
146.667155
 20
95.091680
 30
0.0
 11
146.073599
 21
95.135261
 31
0.0
  0
LINE
  5
1fa
100
AcDbEntity
  8
0
 62
5
100
AcDbLine
 10
146.073599
 20
95.135261
 30
0.0
 11
145.833914
 21
91.870689
 31
0.0
  0
LINE
  5
1fb
100
AcDbEntity
  8
0
 62
1
100
AcDbLine
 10
146.378651
 20
99.290168
 30
0.0
 11
146.160755
 21
96.322375
 31
0.0
  0
LINE
  5
1fc
100
AcDbEntity
  8
0
 62
5
100
AcDbLine
 10
150.191735
 20
91.870692
 30
0.0
 11
147.433566
 21
92.861704
 31
0.0
  0
LINE
  5
1fd
100
AcDbEntity
  8
0
 62
5
100
AcDbLine
 10
147.433566
 20
92.861704
 30
0.0
 11
147.368198
 21
93.752042
 31
0.0
  0
LINE
  5
1fe
100
AcDbEntity
  8
0
 62
5
100
AcDbLine
 10
147.368198
 20
93.752042
 30
0.0
 11
149.336704
 21
95.388462
 31
0.0
  0
LINE
  5
1ff
100
AcDbEntity
  8
0
 62
5
100
AcDbLine
 10
148.988074
 20
100.136930
 30
0.0
 11
147.543622
 21
101.522771
 31
0.0
  0
LINE
  5
200
100
AcDbEntity
  8
0
 62
5
100
AcDbLine
 10
147.543622
 20
101.522771
 30
0.0
 11
147.731452
 21
103.028458
 31
0.0
  0
LINE
  5
201
100
AcDbEntity
  8
0
 62
5
100
AcDbLine
 10
147.731452
 20
103.028458
 30
0.0
 11
149.320160
 21
103.741856
 31
0.0
  0
LINE
  5
202
100
AcDbEntity
  8
0
 62
5
100
AcDbLine
 10
149.320160
 20
103.741856
 30
0.0
 11
148.012793
 21
121.548605
 31
0.0
  0
LINE
  5
203
100
AcDbEntity
  8
0
 62
5
100
AcDbLine
 10
150.907758
 20
94.310294
 30
0.0
 11
149.336704
 21
95.388462
 31
0.0
  0
LINE
  5
204
100
AcDbEntity
  8
0
 62
5
100
AcDbLine
 10
149.336704
 20
95.388462
 30
0.0
 11
148.988074
 21
100.136930
 31
0.0
  0
LINE
  5
205
100
AcDbEntity
  8
0
 62
5
100
AcDbLine
 10
148.988074
 20
100.136930
 30
0.0
 11
150.384812
 21
101.432994
 31
0.0
  0
LINE
  5
206
100
AcDbEntity
  8
0
 62
1
100
AcDbLine
 10
149.494474
 20
101.367625
 30
0.0
 11
149.320160
 21
103.741856
 31
0.0
  0
LINE
  5
207
100
AcDbEntity
  8
0
 62
1
100
AcDbLine
 10
150.191735
 20
91.870692
 30
0.0
 11
150.017421
 21
94.244926
 31
0.0
  0
LINE
  5
208
100
AcDbEntity
  8
0
 62
5
100
AcDbLine
 10
150.191670
 20
91.870689
 30
0.0
 11
167.971713
 21
91.870689
 31
0.0
  0
LINE
  5
209
100
AcDbEntity
  8
0
 62
5
100
AcDbLine
 10
167.971713
 20
91.870689
 30
0.0
 11
167.971713
 21
90.854687
 31
0.0
  0
LINE
  5
20a
100
AcDbEntity
  8
0
 62
5
100
AcDbLine
 10
167.971713
 20
90.854687
 30
0.0
 11
164.923704
 21
90.854687
 31
0.0
  0
SPLINE
  5
20b
100
AcDbEntity
  8
0
 62
5
100
AcDbSpline
 70
0
 71
3
 72
10
 73
6
 74
4
 40
0.000000
 40
0.000000
 40
0.000000
 40
0.000000
 40
3.138636
 40
5.781297
 40
6.932543
 40
6.932543
 40
6.932543
 40
6.932543
 10
103.801977
 20
59.251372
 30
0.0
 10
104.824720
 20
58.981790
 30
0.0
 10
106.708591
 20
58.485228
 30
0.0
 10
109.040478
 20
58.854491
 30
0.0
 10
110.250053
 20
59.216976
 30
0.0
 10
110.617093
 20
59.326970
 30
0.0
 11
103.801977
 21
59.251372
 31
0.0
 11
106.888120
 21
58.679743
 31
0.0
 11
109.509842
 21
59.011757
 31
0.0
 11
110.617093
 21
59.326970
 31
0.0
  0
SPLINE
  5
20c
100
AcDbEntity
  8
0
 62
5
100
AcDbSpline
 70
0
 71
3
 72
10
 73
6
 74
4
 40
0.000000
 40
0.000000
 40
0.000000
 40
0.000000
 40
1.151248
 40
3.793915
 40
6.932559
 40
6.932559
 40
6.932559
 40
6.932559
 10
164.923704
 20
90.854687
 30
0.0
 10
164.993651
 20
90.477956
 30
0.0
 10
165.224159
 20
89.236450
 30
0.0
 10
165.961656
 20
86.993644
 30
0.0
 10
167.264439
 20
85.545087
 30
0.0
 10
167.971713
 20
84.758672
 30
0.0
 11
164.923704
 21
90.854687
 31
0.0
 11
165.149483
 21
89.725795
 31
0.0
 11
166.052597
 21
87.242234
 31
0.0
 11
167.971713
 21
84.758672
 31
0.0
  0
SPLINE
  5
20d
100
AcDbEntity
  8
0
 62
5
100
AcDbSpline
 70
0
 71
3
 72
10
 73
6
 74
4
 40
0.000000
 40
0.000000
 40
0.000000
 40
0.000000
 40
5.262379
 40
10.793948
 40
16.056327
 40
16.056327
 40
16.056327
 40
16.056327
 10
167.971713
 20
84.758672
 30
0.0
 10
169.545201
 20
83.949904
 30
0.0
 10
172.772669
 20
82.290996
 30
0.0
 10
178.410793
 20
82.290996
 30
0.0
 10
181.638261
 20
83.949904
 30
0.0
 10
183.211749
 20
84.758672
 30
0.0
 11
167.971713
 21
84.758672
 31
0.0
 11
172.825946
 21
82.726667
 31
0.0
 11
178.357516
 21
82.726667
 31
0.0
 11
183.211749
 21
84.758672
 31
0.0
  0
LINE
  5
20e
100
AcDbEntity
  8
0
 62
5
100
AcDbLine
 10
186.259758
 20
90.854687
 30
0.0
 11
183.211749
 21
90.854687
 31
0.0
  0
LINE
  5
20f
100
AcDbEntity
  8
0
 62
5
100
AcDbLine
 10
183.211749
 20
90.854687
 30
0.0
 11
183.211749
 21
91.870689
 31
0.0
  0
LINE
  5
210
100
AcDbEntity
  8
0
 62
5
100
AcDbLine
 10
183.211749
 20
91.870689
 30
0.0
 11
200.991792
 21
91.870689
 31
0.0
  0
LINE
  5
211
100
AcDbEntity
  8
0
 62
1
100
AcDbLine
 10
171.527721
 20
91.870689
 30
0.0
 11
179.655741
 21
91.870689
 31
0.0
  0
LINE
  5
212
100
AcDbEntity
  8
0
 62
5
100
AcDbLine
 10
200.991795
 20
91.870689
 30
0.0
 11
204.932091
 21
105.319137
 31
0.0
  0
LINE
  5
213
100
AcDbEntity
  8
0
 62
5
100
AcDbLine
 10
204.932091
 20
105.319137
 30
0.0
 11
190.999274
 21
132.428306
 31
0.0
  0
LINE
  5
214
100
AcDbEntity
  8
0
 62
5
100
AcDbLine
 10
190.999274
 20
132.428306
 30
0.0
 11
177.770432
 21
137.052636
 31
0.0
  0
LINE
  5
215
100
AcDbEntity
  8
0
 62
5
100
AcDbLine
 10
193.134355
 20
103.824993
 30
0.0
 11
194.464599
 21
106.793339
 31
0.0
  0
LINE
  5
216
100
AcDbEntity
  8
0
 62
5
100
AcDbLine
 10
194.464599
 20
106.793339
 30
0.0
 11
186.104905
 21
123.058841
 31
0.0
  0
LINE
  5
217
100
AcDbEntity
  8
0
 62
5
100
AcDbLine
 10
186.104905
 20
123.058841
 30
0.0
 11
182.916954
 21
123.705048
 31
0.0
  0
LINE
  5
218
100
AcDbEntity
  8
0
 62
1
100
AcDbLine
 10
200.991795
 20
91.870689
 30
0.0
 11
194.489812
 21
104.521634
 31
0.0
  0
LINE
  5
219
100
AcDbEntity
  8
0
 62
1
100
AcDbLine
 10
177.770432
 20
137.052636
 30
0.0
 11
184.272414
 21
124.401691
 31
0.0
  0
LINE
  5
21a
100
AcDbEntity
  8
0
 62
5
100
AcDbLine
 10
175.591797
 20
107.374595
 30
0.0
 11
177.138861
 21
128.446125
 31
0.0
  0
LINE
  5
21b
100
AcDbEntity
  8
0
 62
5
100
AcDbLine
 10
177.138861
 20
128.446125
 30
0.0
 11
176.545296
 21
128.489703
 31
0.0
  0
LINE
  5
21c
100
AcDbEntity
  8
0
 62
5
100
AcDbLine
 10
176.545296
 20
128.489703
 30
0.0
 11
176.501719
 21
127.896139
 31
0.0
  0
LINE
  5
21d
100
AcDbEntity
  8
0
 62
5
100
AcDbLine
 10
176.501719
 20
127.896139
 30
0.0
 11
175.379959
 21
128.873644
 31
0.0
  0
LINE
  5
21e
100
AcDbEntity
  8
0
 62
5
100
AcDbLine
 10
175.379959
 20
128.873644
 30
0.0
 11
175.431811
 21
133.643947
 31
0.0
  0
LINE
  5
21f
100
AcDbEntity
  8
0
 62
5
100
AcDbLine
 10
175.431811
 20
133.643947
 30
0.0
 11
176.981090
 21
134.425344
 31
0.0
  0
LINE
  5
220
100
AcDbEntity
  8
0
 62
5
100
AcDbLine
 10
176.981090
 20
134.425344
 30
0.0
 11
176.937509
 21
133.831780
 31
0.0
  0
LINE
  5
221
100
AcDbEntity
  8
0
 62
5
100
AcDbLine
 10
176.937509
 20
133.831780
 30
0.0
 11
177.531073
 21
133.788202
 31
0.0
  0
LINE
  5
222
100
AcDbEntity
  8
0
 62
5
100
AcDbLine
 10
177.531073
 20
133.788202
 30
0.0
 11
177.770759
 21
137.052805
 31
0.0
  0
LINE
  5
223
100
AcDbEntity
  8
0
 62
1
100
AcDbLine
 10
177.226019
 20
129.633253
 30
0.0
 11
177.443915
 21
132.601074
 31
0.0
  0
LINE
  5
224
100
AcDbEntity
  8
0
 62
5
100
AcDbLine
 10
173.412918
 20
137.052819
 30
0.0
 11
176.171118
 21
136.061796
 31
0.0
  0
LINE
  5
225
100
AcDbEntity
  8
0
 62
5
100
AcDbLine
 10
176.171118
 20
136.061796
 30
0.0
 11
176.236486
 21
135.171449
 31
0.0
  0
LINE
  5
226
100
AcDbEntity
  8
0
 62
5
100
AcDbLine
 10
176.236486
 20
135.171449
 30
0.0
 11
174.267958
 21
133.535009
 31
0.0
  0
LINE
  5
227
100
AcDbEntity
  8
0
 62
5
100
AcDbLine
 10
174.616593
 20
128.786493
 30
0.0
 11
176.061062
 21
127.400636
 31
0.0
  0
LINE
  5
228
100
AcDbEntity
  8
0
 62
5
100
AcDbLine
 10
176.061062
 20
127.400636
 30
0.0
 11
175.873227
 21
125.894935
 31
0.0
  0
LINE
  5
229
100
AcDbEntity
  8
0
 62
5
100
AcDbLine
 10
175.873227
 20
125.894935
 30
0.0
 11
174.284505
 21
125.181525
 31
0.0
  0
LINE
  5
22a
100
AcDbEntity
  8
0
 62
5
100
AcDbLine
 10
174.284505
 20
125.181525
 30
0.0
 11
175.591882
 21
107.374587
 31
0.0
  0
LINE
  5
22b
100
AcDbEntity
  8
0
 62
5
100
AcDbLine
 10
172.696889
 20
134.613191
 30
0.0
 11
174.267958
 21
133.535009
 31
0.0
  0
LINE
  5
22c
100
AcDbEntity
  8
0
 62
5
100
AcDbLine
 10
174.267958
 20
133.535009
 30
0.0
 11
174.616593
 21
128.786493
 31
0.0
  0
LINE
  5
22d
100
AcDbEntity
  8
0
 62
5
100
AcDbLine
 10
174.616593
 20
128.786493
 30
0.0
 11
173.219838
 21
127.490416
 31
0.0
  0
LINE
  5
22e
100
AcDbEntity
  8
0
 62
1
100
AcDbLine
 10
174.110187
 20
127.555784
 30
0.0
 11
174.284505
 21
125.181525
 31
0.0
  0
LINE
  5
22f
100
AcDbEntity
  8
0
 62
1
100
AcDbLine
 10
173.412918
 20
137.052819
 30
0.0
 11
173.587235
 21
134.678560
 31
0.0
  0
LINE
  5
230
100
AcDbEntity
  8
0
 62
5
100
AcDbLine
 10
173.412706
 20
137.052805
 30
0.0
 11
155.632768
 21
137.052805
 31
0.0
  0
LINE
  5
231
100
AcDbEntity
  8
0
 62
5
100
AcDbLine
 10
155.632768
 20
137.052805
 30
0.0
 11
155.632768
 21
138.068802
 31
0.0
  0
LINE
  5
232
100
AcDbEntity
  8
0
 62
5
100
AcDbLine
 10
155.632768
 20
138.068802
 30
0.0
 11
158.680757
 21
138.068802
 31
0.0
  0
SPLINE
  5
233
100
AcDbEntity
  8
0
 62
5
100
AcDbSpline
 70
0
 71
3
 72
10
 73
6
 74
4
 40
0.000000
 40
0.000000
 40
0.000000
 40
0.000000
 40
3.138644
 40
5.781311
 40
6.932559
 40
6.932559
 40
6.932559
 40
6.932559
 10
183.211749
 20
84.758672
 30
0.0
 10
183.919023
 20
85.545087
 30
0.0
 10
185.221806
 20
86.993644
 30
0.0
 10
185.959303
 20
89.236450
 30
0.0
 10
186.189811
 20
90.477956
 30
0.0
 10
186.259758
 20
90.854687
 30
0.0
 11
183.211749
 21
84.758672
 31
0.0
 11
185.130865
 21
87.242234
 31
0.0
 11
186.033979
 21
89.725795
 31
0.0
 11
186.259758
 21
90.854687
 31
0.0
  0
SPLINE
  5
234
100
AcDbEntity
  8
0
 62
5
100
AcDbSpline
 70
0
 71
3
 72
10
 73
6
 74
4
 40
0.000000
 40
0.000000
 40
0.000000
 40
0.000000
 40
1.151241
 40
3.793893
 40
6.932517
 40
6.932517
 40
6.932517
 40
6.932517
 10
158.680757
 20
138.068802
 30
0.0
 10
158.610811
 20
138.445530
 30
0.0
 10
158.380305
 20
139.687030
 30
0.0
 10
157.642813
 20
141.929822
 30
0.0
 10
156.340038
 20
143.378370
 30
0.0
 10
155.632768
 20
144.164779
 30
0.0
 11
158.680757
 21
138.068802
 31
0.0
 11
158.454980
 21
139.197687
 31
0.0
 11
157.551872
 21
141.681234
 31
0.0
 11
155.632768
 21
144.164779
 31
0.0
  0
SPLINE
  5
235
100
AcDbEntity
  8
0
 62
5
100
AcDbSpline
 70
0
 71
3
 72
10
 73
6
 74
4
 40
0.000000
 40
0.000000
 40
0.000000
 40
0.000000
 40
5.262349
 40
10.793886
 40
16.056235
 40
16.056235
 40
16.056235
 40
16.056235
 10
155.632768
 20
144.164779
 30
0.0
 10
154.059288
 20
144.973543
 30
0.0
 10
150.831840
 20
146.632442
 30
0.0
 10
145.193747
 20
146.632442
 30
0.0
 10
141.966299
 20
144.973543
 30
0.0
 10
140.392819
 20
144.164779
 30
0.0
 11
155.632768
 21
144.164779
 31
0.0
 11
150.778562
 21
146.196774
 31
0.0
 11
145.247025
 21
146.196774
 31
0.0
 11
140.392819
 21
144.164779
 31
0.0
  0
LINE
  5
236
100
AcDbEntity
  8
0
 62
5
100
AcDbLine
 10
137.344830
 20
138.068802
 30
0.0
 11
140.392819
 21
138.068802
 31
0.0
  0
LINE
  5
237
100
AcDbEntity
  8
0
 62
5
100
AcDbLine
 10
140.392819
 20
138.068802
 30
0.0
 11
140.392819
 21
137.052805
 31
0.0
  0
LINE
  5
238
100
AcDbEntity
  8
0
 62
5
100
AcDbLine
 10
140.392819
 20
137.052805
 30
0.0
 11
122.612881
 21
137.052805
 31
0.0
  0
LINE
  5
239
100
AcDbEntity
  8
0
 62
1
100
AcDbLine
 10
152.076779
 20
137.052805
 30
0.0
 11
143.948808
 21
137.052805
 31
0.0
  0
LINE
  5
23a
100
AcDbEntity
  8
0
 62
5
100
AcDbLine
 10
122.612881
 20
137.052805
 30
0.0
 11
119.854681
 21
136.061782
 31
0.0
  0
LINE
  5
23b
100
AcDbEntity
  8
0
 62
5
100
AcDbLine
 10
119.854681
 20
136.061782
 30
0.0
 11
119.789313
 21
135.171435
 31
0.0
  0
LINE
  5
23c
100
AcDbEntity
  8
0
 62
5
100
AcDbLine
 10
119.789313
 20
135.171435
 30
0.0
 11
121.757841
 21
133.534995
 31
0.0
  0
LINE
  5
23d
100
AcDbEntity
  8
0
 62
5
100
AcDbLine
 10
121.409206
 20
128.786479
 30
0.0
 11
119.964736
 21
127.400621
 31
0.0
  0
LINE
  5
23e
100
AcDbEntity
  8
0
 62
5
100
AcDbLine
 10
119.964736
 20
127.400621
 30
0.0
 11
120.152572
 21
125.894921
 31
0.0
  0
LINE
  5
23f
100
AcDbEntity
  8
0
 62
5
100
AcDbLine
 10
120.152572
 20
125.894921
 30
0.0
 11
121.741294
 21
125.181511
 31
0.0
  0
LINE
  5
240
100
AcDbEntity
  8
0
 62
5
100
AcDbLine
 10
121.741294
 20
125.181511
 30
0.0
 11
120.433917
 21
107.374573
 31
0.0
  0
LINE
  5
241
100
AcDbEntity
  8
0
 62
5
100
AcDbLine
 10
123.328910
 20
134.613177
 30
0.0
 11
121.757841
 21
133.534995
 31
0.0
  0
LINE
  5
242
100
AcDbEntity
  8
0
 62
5
100
AcDbLine
 10
121.757841
 20
133.534995
 30
0.0
 11
121.409206
 21
128.786479
 31
0.0
  0
LINE
  5
243
100
AcDbEntity
  8
0
 62
5
100
AcDbLine
 10
121.409206
 20
128.786479
 30
0.0
 11
122.805960
 21
127.490402
 31
0.0
  0
LINE
  5
244
100
AcDbEntity
  8
0
 62
1
100
AcDbLine
 10
121.915611
 20
127.555770
 30
0.0
 11
121.741294
 21
125.181511
 31
0.0
  0
LINE
  5
245
100
AcDbEntity
  8
0
 62
1
100
AcDbLine
 10
122.612881
 20
137.052805
 30
0.0
 11
122.438564
 21
134.678546
 31
0.0
  0
LINE
  5
246
100
AcDbEntity
  8
0
 62
5
100
AcDbLine
 10
120.433705
 20
107.374590
 30
0.0
 11
118.886642
 21
128.446119
 31
0.0
  0
LINE
  5
247
100
AcDbEntity
  8
0
 62
5
100
AcDbLine
 10
118.886642
 20
128.446119
 30
0.0
 11
119.480206
 21
128.489697
 31
0.0
  0
LINE
  5
248
100
AcDbEntity
  8
0
 62
5
100
AcDbLine
 10
119.480206
 20
128.489697
 30
0.0
 11
119.523784
 21
127.896133
 31
0.0
  0
LINE
  5
249
100
AcDbEntity
  8
0
 62
5
100
AcDbLine
 10
119.523784
 20
127.896133
 30
0.0
 11
120.645544
 21
128.873638
 31
0.0
  0
LINE
  5
24a
100
AcDbEntity
  8
0
 62
5
100
AcDbLine
 10
120.645544
 20
128.873638
 30
0.0
 11
120.593691
 21
133.643941
 31
0.0
  0
LINE
  5
24b
100
AcDbEntity
  8
0
 62
5
100
AcDbLine
 10
120.593691
 20
133.643941
 30
0.0
 11
119.044412
 21
134.425339
 31
0.0
  0
LINE
  5
24c
100
AcDbEntity
  8
0
 62
5
100
AcDbLine
 10
119.044412
 20
134.425339
 30
0.0
 11
119.087993
 21
133.831774
 31
0.0
  0
LINE
  5
24d
100
AcDbEntity
  8
0
 62
5
100
AcDbLine
 10
119.087993
 20
133.831774
 30
0.0
 11
118.494429
 21
133.788196
 31
0.0
  0
LINE
  5
24e
100
AcDbEntity
  8
0
 62
5
100
AcDbLine
 10
118.494429
 20
133.788196
 30
0.0
 11
118.254743
 21
137.052799
 31
0.0
  0
LINE
  5
24f
100
AcDbEntity
  8
0
 62
1
100
AcDbLine
 10
118.799483
 20
129.633248
 30
0.0
 11
118.581588
 21
132.601068
 31
0.0
  0
LINE
  5
250
100
AcDbEntity
  8
0
 62
5
100
AcDbLine
 10
118.254828
 20
137.052805
 30
0.0
 11
122.195124
 21
150.501253
 31
0.0
  0
LINE
  5
251
100
AcDbEntity
  8
0
 62
5
100
AcDbLine
 10
122.195124
 20
150.501253
 30
0.0
 11
108.262307
 21
177.610421
 31
0.0
  0
LINE
  5
252
100
AcDbEntity
  8
0
 62
5
100
AcDbLine
 10
108.262307
 20
177.610421
 30
0.0
 11
95.033465
 21
182.234751
 31
0.0
  0
LINE
  5
253
100
AcDbEntity
  8
0
 62
5
100
AcDbLine
 10
110.397389
 20
149.007109
 30
0.0
 11
111.727632
 21
151.975454
 31
0.0
  0
LINE
  5
254
100
AcDbEntity
  8
0
 62
5
100
AcDbLine
 10
111.727632
 20
151.975454
 30
0.0
 11
103.367939
 21
168.240957
 31
0.0
  0
LINE
  5
255
100
AcDbEntity
  8
0
 62
5
100
AcDbLine
 10
103.367939
 20
168.240957
 30
0.0
 11
100.179988
 21
168.887164
 31
0.0
  0
LINE
  5
256
100
AcDbEntity
  8
0
 62
1
100
AcDbLine
 10
118.254828
 20
137.052805
 30
0.0
 11
111.752846
 21
149.703749
 31
0.0
  0
LINE
  5
257
100
AcDbEntity
  8
0
 62
1
100
AcDbLine
 10
95.033465
 20
182.234751
 30
0.0
 11
101.535447
 21
169.583807
 31
0.0
  0
LINE
  5
258
100
AcDbEntity
  8
0
 62
5
100
AcDbLine
 10
92.854839
 20
152.556829
 30
0.0
 11
94.401897
 21
173.628274
 31
0.0
  0
LINE
  5
259
100
AcDbEntity
  8
0
 62
5
100
AcDbLine
 10
94.401897
 20
173.628274
 30
0.0
 11
93.808336
 21
173.671852
 31
0.0
  0
LINE
  5
25a
100
AcDbEntity
  8
0
 62
5
100
AcDbLine
 10
93.808336
 20
173.671852
 30
0.0
 11
93.764755
 21
173.078291
 31
0.0
  0
LINE
  5
25b
100
AcDbEntity
  8
0
 62
5
100
AcDbLine
 10
93.764755
 20
173.078291
 30
0.0
 11
92.643000
 21
174.055793
 31
0.0
  0
LINE
  5
25c
100
AcDbEntity
  8
0
 62
5
100
AcDbLine
 10
92.643000
 20
174.055793
 30
0.0
 11
92.694853
 21
178.826077
 31
0.0
  0
LINE
  5
25d
100
AcDbEntity
  8
0
 62
5
100
AcDbLine
 10
92.694853
 20
178.826077
 30
0.0
 11
94.244126
 21
179.607471
 31
0.0
  0
LINE
  5
25e
100
AcDbEntity
  8
0
 62
5
100
AcDbLine
 10
94.244126
 20
179.607471
 30
0.0
 11
94.200545
 21
179.013910
 31
0.0
  0
LINE
  5
25f
100
AcDbEntity
  8
0
 62
5
100
AcDbLine
 10
94.200545
 20
179.013910
 30
0.0
 11
94.794110
 21
178.970332
 31
0.0
  0
LINE
  5
260
100
AcDbEntity
  8
0
 62
5
100
AcDbLine
 10
94.794110
 20
178.970332
 30
0.0
 11
95.033792
 21
182.234920
 31
0.0
  0
LINE
  5
261
100
AcDbEntity
  8
0
 62
1
100
AcDbLine
 10
94.489056
 20
174.815397
 30
0.0
 11
94.706951
 21
177.783206
 31
0.0
  0
LINE
  5
262
100
AcDbEntity
  8
0
 62
5
100
AcDbLine
 10
90.675960
 20
182.234937
 30
0.0
 11
93.434148
 21
181.243920
 31
0.0
  0
LINE
  5
263
100
AcDbEntity
  8
0
 62
5
100
AcDbLine
 10
93.434148
 20
181.243920
 30
0.0
 11
93.499517
 21
180.353576
 31
0.0
  0
LINE
  5
264
100
AcDbEntity
  8
0
 62
5
100
AcDbLine
 10
93.499517
 20
180.353576
 30
0.0
 11
91.530997
 21
178.717142
 31
0.0
  0
LINE
  5
265
100
AcDbEntity
  8
0
 62
5
100
AcDbLine
 10
91.879629
 20
173.968646
 30
0.0
 11
93.324093
 21
172.582791
 31
0.0
  0
LINE
  5
266
100
AcDbEntity
  8
0
 62
5
100
AcDbLine
 10
93.324093
 20
172.582791
 30
0.0
 11
93.136260
 21
171.077095
 31
0.0
  0
LINE
  5
267
100
AcDbEntity
  8
0
 62
5
100
AcDbLine
 10
93.136260
 20
171.077095
 30
0.0
 11
91.547541
 21
170.363691
 31
0.0
  0
LINE
  5
268
100
AcDbEntity
  8
0
 62
5
100
AcDbLine
 10
91.547541
 20
170.363691
 30
0.0
 11
92.854915
 21
152.556824
 31
0.0
  0
LINE
  5
269
100
AcDbEntity
  8
0
 62
5
100
AcDbLine
 10
89.959934
 20
179.795321
 30
0.0
 11
91.530997
 21
178.717142
 31
0.0
  0
LINE
  5
26a
100
AcDbEntity
  8
0
 62
5
100
AcDbLine
 10
91.530997
 20
178.717142
 30
0.0
 11
91.879629
 21
173.968646
 31
0.0
  0
LINE
  5
26b
100
AcDbEntity
  8
0
 62
5
100
AcDbLine
 10
91.879629
 20
173.968646
 30
0.0
 11
90.482883
 21
172.672571
 31
0.0
  0
LINE
  5
26c
100
AcDbEntity
  8
0
 62
1
100
AcDbLine
 10
91.373226
 20
172.737942
 30
0.0
 11
91.547541
 21
170.363691
 31
0.0
  0
LINE
  5
26d
100
AcDbEntity
  8
0
 62
1
100
AcDbLine
 10
90.675960
 20
182.234937
 30
0.0
 11
90.850277
 21
179.860689
 31
0.0
  0
LINE
  5
26e
100
AcDbEntity
  8
0
 62
5
100
AcDbLine
 10
90.675739
 20
182.234920
 30
0.0
 11
82.548262
 21
166.421239
 31
0.0
  0
LINE
  5
26f
100
AcDbEntity
  8
0
 62
5
100
AcDbLine
 10
82.548262
 20
166.421239
 30
0.0
 11
81.644623
 21
166.885666
 31
0.0
  0
LINE
  5
270
100
AcDbEntity
  8
0
 62
5
100
AcDbLine
 10
81.644623
 20
166.885666
 30
0.0
 11
83.037906
 21
169.596583
 31
0.0
  0
SPLINE
  5
271
100
AcDbEntity
  8
0
 62
5
100
AcDbSpline
 70
0
 71
3
 72
10
 73
6
 74
4
 40
0.000000
 40
0.000000
 40
0.000000
 40
0.000000
 40
3.138624
 40
5.781276
 40
6.932517
 40
6.932517
 40
6.932517
 40
6.932517
 10
140.392819
 20
144.164779
 30
0.0
 10
139.685549
 20
143.378370
 30
0.0
 10
138.382774
 20
141.929822
 30
0.0
 10
137.645282
 20
139.687030
 30
0.0
 10
137.414776
 20
138.445530
 30
0.0
 10
137.344830
 20
138.068802
 30
0.0
 11
140.392819
 21
144.164779
 31
0.0
 11
138.473714
 21
141.681234
 31
0.0
 11
137.570607
 21
139.197687
 31
0.0
 11
137.344830
 21
138.068802
 31
0.0
  0
SPLINE
  5
272
100
AcDbEntity
  8
0
 62
5
100
AcDbSpline
 70
0
 71
3
 72
10
 73
6
 74
4
 40
0.000000
 40
0.000000
 40
0.000000
 40
0.000000
 40
1.151246
 40
3.793907
 40
6.932543
 40
6.932543
 40
6.932543
 40
6.932543
 10
83.037906
 20
169.596583
 30
0.0
 10
82.670866
 20
169.706580
 30
0.0
 10
81.461294
 20
170.069073
 30
0.0
 10
79.129409
 20
170.438354
 30
0.0
 10
77.245535
 20
169.941804
 30
0.0
 10
76.222789
 20
169.672230
 30
0.0
 11
83.037906
 21
169.596583
 31
0.0
 11
81.930656
 21
169.911805
 31
0.0
 11
79.308936
 21
170.243837
 31
0.0
 11
76.222789
 21
169.672230
 31
0.0
  0
SPLINE
  5
273
100
AcDbEntity
  8
0
 62
5
100
AcDbSpline
 70
0
 71
3
 72
10
 73
6
 74
4
 40
0.000000
 40
0.000000
 40
0.000000
 40
0.000000
 40
5.262366
 40
10.793921
 40
16.056286
 40
16.056286
 40
16.056286
 40
16.056286
 10
76.222789
 20
169.672230
 30
0.0
 10
74.784205
 20
168.642457
 30
0.0
 10
71.833448
 20
166.530233
 30
0.0
 10
69.256192
 20
161.515651
 30
0.0
 10
69.256318
 20
157.886815
 30
0.0
 10
69.256379
 20
156.117647
 30
0.0
 11
76.222789
 21
169.672230
 31
0.0
 11
72.196582
 21
166.283698
 31
0.0
 11
69.668033
 21
161.363886
 31
0.0
 11
69.256379
 21
156.117647
 31
0.0
  0
LINE
  5
274
100
AcDbEntity
  8
0
 62
5
100
AcDbLine
 10
73.284932
 20
150.620167
 30
0.0
 11
74.678215
 21
153.331083
 31
0.0
  0
LINE
  5
275
100
AcDbEntity
  8
0
 62
5
100
AcDbLine
 10
74.678215
 20
153.331083
 30
0.0
 11
75.581854
 21
152.866656
 31
0.0
  0
LINE
  5
276
100
AcDbEntity
  8
0
 62
5
100
AcDbLine
 10
75.581854
 20
152.866656
 30
0.0
 11
67.454376
 21
137.052974
 31
0.0
  0
LINE
  5
277
100
AcDbEntity
  8
0
 62
1
100
AcDbLine
 10
80.922766
 20
163.258504
 30
0.0
 11
77.207350
 21
156.029390
 31
0.0
  0
LINE
  5
278
100
AcDbEntity
  8
0
 62
5
100
AcDbLine
 10
67.454704
 20
137.052805
 30
0.0
 11
64.696507
 21
136.061784
 31
0.0
  0
LINE
  5
279
100
AcDbEntity
  8
0
 62
5
100
AcDbLine
 10
64.696507
 20
136.061784
 30
0.0
 11
64.631138
 21
135.171438
 31
0.0
  0
LINE
  5
27a
100
AcDbEntity
  8
0
 62
5
100
AcDbLine
 10
64.631138
 20
135.171438
 30
0.0
 11
66.599664
 21
133.534998
 31
0.0
  0
LINE
  5
27b
100
AcDbEntity
  8
0
 62
5
100
AcDbLine
 10
66.251029
 20
128.786485
 30
0.0
 11
64.806562
 21
127.400627
 31
0.0
  0
LINE
  5
27c
100
AcDbEntity
  8
0
 62
5
100
AcDbLine
 10
64.806562
 20
127.400627
 30
0.0
 11
64.994398
 21
125.894929
 31
0.0
  0
LINE
  5
27d
100
AcDbEntity
  8
0
 62
5
100
AcDbLine
 10
64.994398
 20
125.894929
 30
0.0
 11
66.583120
 21
125.181522
 31
0.0
  0
LINE
  5
27e
100
AcDbEntity
  8
0
 62
5
100
AcDbLine
 10
66.583120
 20
125.181522
 30
0.0
 11
65.275742
 21
107.374595
 31
0.0
  0
LINE
  5
27f
100
AcDbEntity
  8
0
 62
5
100
AcDbLine
 10
68.170733
 20
134.613180
 30
0.0
 11
66.599664
 21
133.534998
 31
0.0
  0
LINE
  5
280
100
AcDbEntity
  8
0
 62
5
100
AcDbLine
 10
66.599664
 20
133.534998
 30
0.0
 11
66.251029
 21
128.786485
 31
0.0
  0
LINE
  5
281
100
AcDbEntity
  8
0
 62
5
100
AcDbLine
 10
66.251029
 20
128.786485
 30
0.0
 11
67.647783
 21
127.490408
 31
0.0
  0
LINE
  5
282
100
AcDbEntity
  8
0
 62
1
100
AcDbLine
 10
66.757437
 20
127.555779
 30
0.0
 11
66.583120
 21
125.181522
 31
0.0
  0
LINE
  5
283
100
AcDbEntity
  8
0
 62
1
100
AcDbLine
 10
67.454704
 20
137.052805
 30
0.0
 11
67.280386
 21
134.678548
 31
0.0
  0
LINE
  5
284
100
AcDbEntity
  8
0
 62
5
100
AcDbLine
 10
65.275827
 20
107.374590
 30
0.0
 11
63.728764
 21
128.446119
 31
0.0
  0
LINE
  5
285
100
AcDbEntity
  8
0
 62
5
100
AcDbLine
 10
63.728764
 20
128.446119
 30
0.0
 11
64.322328
 21
128.489697
 31
0.0
  0
LINE
  5
286
100
AcDbEntity
  8
0
 62
5
100
AcDbLine
 10
64.322328
 20
128.489697
 30
0.0
 11
64.365906
 21
127.896133
 31
0.0
  0
LINE
  5
287
100
AcDbEntity
  8
0
 62
5
100
AcDbLine
 10
64.365906
 20
127.896133
 30
0.0
 11
65.487666
 21
128.873638
 31
0.0
  0
LINE
  5
288
100
AcDbEntity
  8
0
 62
5
100
AcDbLine
 10
65.487666
 20
128.873638
 30
0.0
 11
65.435813
 21
133.643941
 31
0.0
  0
LINE
  5
289
100
AcDbEntity
  8
0
 62
5
100
AcDbLine
 10
65.435813
 20
133.643941
 30
0.0
 11
63.886534
 21
134.425339
 31
0.0
  0
LINE
  5
28a
100
AcDbEntity
  8
0
 62
5
100
AcDbLine
 10
63.886534
 20
134.425339
 30
0.0
 11
63.930115
 21
133.831774
 31
0.0
  0
LINE
  5
28b
100
AcDbEntity
  8
0
 62
5
100
AcDbLine
 10
63.930115
 20
133.831774
 30
0.0
 11
63.336551
 21
133.788196
 31
0.0
  0
LINE
  5
28c
100
AcDbEntity
  8
0
 62
5
100
AcDbLine
 10
63.336551
 20
133.788196
 30
0.0
 11
63.096865
 21
137.052799
 31
0.0
  0
LINE
  5
28d
100
AcDbEntity
  8
0
 62
1
100
AcDbLine
 10
63.641605
 20
129.633248
 30
0.0
 11
63.423710
 21
132.601068
 31
0.0
  0
LINE
  5
28e
100
AcDbEntity
  8
0
 62
5
100
AcDbLine
 10
63.096947
 20
137.052805
 30
0.0
 11
52.936922
 21
146.704827
 31
0.0
  0
LINE
  5
28f
100
AcDbEntity
  8
0
 62
5
100
AcDbLine
 10
52.936922
 20
146.704827
 30
0.0
 11
22.456850
 21
146.704827
 31
0.0
  0
LINE
  5
290
100
AcDbEntity
  8
0
 62
5
100
AcDbLine
 10
22.456850
 20
146.704827
 30
0.0
 11
12.296826
 21
137.052805
 31
0.0
  0
LINE
  5
291
100
AcDbEntity
  8
0
 62
5
100
AcDbLine
 10
48.872913
 20
135.528802
 30
0.0
 11
46.840908
 21
138.068808
 31
0.0
  0
LINE
  5
292
100
AcDbEntity
  8
0
 62
5
100
AcDbLine
 10
46.840908
 20
138.068808
 30
0.0
 11
28.552865
 21
138.068808
 31
0.0
  0
LINE
  5
293
100
AcDbEntity
  8
0
 62
5
100
AcDbLine
 10
28.552865
 20
138.068808
 30
0.0
 11
26.520860
 21
135.528802
 31
0.0
  0
LINE
  5
294
100
AcDbEntity
  8
0
 62
1
100
AcDbLine
 10
63.096947
 20
137.052805
 30
0.0
 11
48.872913
 21
137.052805
 31
0.0
  0
LINE
  5
295
100
AcDbEntity
  8
0
 62
1
100
AcDbLine
 10
12.296826
 20
137.052805
 30
0.0
 11
26.520860
 21
137.052805
 31
0.0
  0
LINE
  5
296
100
AcDbEntity
  8
0
 62
1
100
AcDbLine
 10
12.296826
 20
137.052836
 30
0.0
 11
37.696826
 21
121.548676
 31
0.0
  0
LINE
  5
297
100
AcDbEntity
  8
0
 62
1
100
AcDbLine
 10
63.096826
 20
137.052836
 30
0.0
 11
37.696826
 21
121.548676
 31
0.0
  0
LINE
  5
298
100
AcDbEntity
  8
0
 62
1
100
AcDbLine
 10
63.096826
 20
137.052836
 30
0.0
 11
39.875864
 21
91.870751
 31
0.0
  0
LINE
  5
299
100
AcDbEntity
  8
0
 62
1
100
AcDbLine
 10
92.854901
 20
152.556714
 30
0.0
 11
67.454619
 21
137.052836
 31
0.0
  0
LINE
  5
29a
100
AcDbEntity
  8
0
 62
1
100
AcDbLine
 10
92.854901
 20
152.556714
 30
0.0
 11
118.254901
 21
137.052836
 31
0.0
  0
LINE
  5
29b
100
AcDbEntity
  8
0
 62
1
100
AcDbLine
 10
92.854901
 20
121.548676
 30
0.0
 11
67.454619
 21
137.052836
 31
0.0
  0
LINE
  5
29c
100
AcDbEntity
  8
0
 62
1
100
AcDbLine
 10
92.854901
 20
121.548676
 30
0.0
 11
118.254901
 21
137.052836
 31
0.0
  0
LINE
  5
29d
100
AcDbEntity
  8
0
 62
1
100
AcDbLine
 10
122.612977
 20
137.052836
 30
0.0
 11
148.012695
 21
121.548676
 31
0.0
  0
LINE
  5
29e
100
AcDbEntity
  8
0
 62
1
100
AcDbLine
 10
122.612977
 20
137.052836
 30
0.0
 11
145.833939
 21
91.870751
 31
0.0
  0
LINE
  5
29f
100
AcDbEntity
  8
0
 62
1
100
AcDbLine
 10
173.412695
 20
137.052836
 30
0.0
 11
150.191732
 21
91.870751
 31
0.0
  0
LINE
  5
2a0
100
AcDbEntity
  8
0
 62
1
100
AcDbLine
 10
173.412695
 20
137.052836
 30
0.0
 11
148.012695
 21
121.548676
 31
0.0
  0
LINE
  5
2a1
100
AcDbEntity
  8
0
 62
1
100
AcDbLine
 10
39.875864
 20
91.870751
 30
0.0
 11
65.275864
 21
107.374629
 31
0.0
  0
LINE
  5
2a2
100
AcDbEntity
  8
0
 62
1
100
AcDbLine
 10
67.454619
 20
137.052836
 30
0.0
 11
118.254901
 21
137.052836
 31
0.0
  0
LINE
  5
2a3
100
AcDbEntity
  8
0
 62
1
100
AcDbLine
 10
67.454619
 20
137.052836
 30
0.0
 11
90.675864
 21
91.870751
 31
0.0
  0
LINE
  5
2a4
100
AcDbEntity
  8
0
 62
1
100
AcDbLine
 10
95.033657
 20
91.870751
 30
0.0
 11
118.254901
 21
137.052836
 31
0.0
  0
LINE
  5
2a5
100
AcDbEntity
  8
0
 62
1
100
AcDbLine
 10
95.033657
 20
91.870751
 30
0.0
 11
120.433657
 21
76.366591
 31
0.0
  0
LINE
  5
2a6
100
AcDbEntity
  8
0
 62
1
100
AcDbLine
 10
95.033657
 20
91.870751
 30
0.0
 11
120.433657
 21
107.374629
 31
0.0
  0
LINE
  5
2a7
100
AcDbEntity
  8
0
 62
1
100
AcDbLine
 10
95.033657
 20
91.870751
 30
0.0
 11
145.833939
 21
91.870751
 31
0.0
  0
LINE
  5
2a8
100
AcDbEntity
  8
0
 62
1
100
AcDbLine
 10
150.191732
 20
91.870751
 30
0.0
 11
175.592015
 21
107.374629
 31
0.0
  0
LINE
  5
2a9
100
AcDbEntity
  8
0
 62
1
100
AcDbLine
 10
65.275864
 20
107.374629
 30
0.0
 11
90.675864
 21
91.870751
 31
0.0
  0
LINE
  5
2aa
100
AcDbEntity
  8
0
 62
1
100
AcDbLine
 10
120.433657
 20
76.366591
 30
0.0
 11
145.833939
 21
91.870751
 31
0.0
  0
LINE
  5
2ab
100
AcDbEntity
  8
0
 62
1
100
AcDbLine
 10
120.433657
 20
107.374629
 30
0.0
 11
145.833939
 21
91.870751
 31
0.0
  0
LINE
  5
2ac
100
AcDbEntity
  8
0
 62
1
100
AcDbLine
 10
175.592015
 20
107.374629
 30
0.0
 11
200.991732
 21
91.870751
 31
0.0
  0
SPLINE
  5
2ad
100
AcDbEntity
  8
0
 62
5
100
AcDbSpline
 70
0
 71
3
 72
10
 73
6
 74
4
 40
0.000000
 40
0.000000
 40
0.000000
 40
0.000000
 40
3.138636
 40
5.781297
 40
6.932543
 40
6.932543
 40
6.932543
 40
6.932543
 10
69.256379
 20
156.117647
 30
0.0
 10
69.632518
 20
155.129113
 30
0.0
 10
70.325356
 20
153.308257
 30
0.0
 10
71.983003
 20
151.627109
 30
0.0
 10
72.981839
 20
150.854586
 30
0.0
 10
73.284932
 20
150.620167
 30
0.0
 11
69.256379
 21
156.117647
 31
0.0
 11
70.588023
 21
153.275507
 31
0.0
 11
72.384095
 21
151.337006
 31
0.0
 11
73.284932
 21
150.620167
 31
0.0
  0
ENDSEC
  0
SECTION
  2
OBJECTS
  0
DICTIONARY
  5
C
330
0
100
AcDbDictionary
  3
ACAD_GROUP
350
D
  3
ACAD_MLINESTYLE
350
17
  0
DICTIONARY
  5
D
330
C
100
AcDbDictionary
  0
DICTIONARY
  5
1A
330
C
100
AcDbDictionary
  0
DICTIONARY
  5
17
330
C
100
AcDbDictionary
  3
STANDARD
350
18
  0
DICTIONARY
  5
19
330
C
100
AcDbDictionary
  0
ENDSEC
  0
EOF
