999
DXF created by Inkscape
  0
SECTION
  2
HEADER
  9
$ACADVER
  1
AC1014
  9
$HANDSEED
  5
FFFF
  9
$MEASUREMENT
 70
     1
  0
ENDSEC
  0
SECTION
  2
TABLES
  0
TABLE
  2
VPORT
  5
8
330
0
100
AcDbSymbolTable
 70
     4
  0
VPORT
  5
2E
330
8
100
AcDbSymbolTableRecord
100
AcDbViewportTableRecord
  2
*ACTIVE
 70
     0
 10
0.0
 20
0.0
 11
1.0
 21
1.0
 12
210.0
 22
148.5
 13
0.0
 23
0.0
 14
10.0
 24
10.0
 15
10.0
 25
10.0
 16
0.0
 26
0.0
 36
1.0
 17
0.0
 27
0.0
 37
0.0
 40
341.0
 41
1.24
 42
50.0
 43
0.0
 44
0.0
 50
0.0
 51
0.0
 71
     0
 72
   100
 73
     1
 74
     3
 75
     0
 76
     0
 77
     0
 78
     0
  0
ENDTAB
  0
TABLE
  2
LTYPE
  5
5
330
0
100
AcDbSymbolTable
 70
     1
  0
LTYPE
  5
14
330
5
100
AcDbSymbolTableRecord
100
AcDbLinetypeTableRecord
  2
BYBLOCK
 70
     0
  3

 72
    65
 73
     0
 40
0.0
  0
LTYPE
  5
15
330
5
100
AcDbSymbolTableRecord
100
AcDbLinetypeTableRecord
  2
BYLAYER
 70
     0
  3

 72
    65
 73
     0
 40
0.0
  0
LTYPE
  5
16
330
5
100
AcDbSymbolTableRecord
100
AcDbLinetypeTableRecord
  2
CONTINUOUS
 70
     0
  3
Solid line
 72
    65
 73
     0
 40
0.0
  0
ENDTAB
  0
TABLE
  2
LAYER
  5
2
330
0
100
AcDbSymbolTable
 70
1
  0
LAYER
  5
10
330
2
100
AcDbSymbolTableRecord
100
AcDbLayerTableRecord
  2
0
 70
     0
 62
     7
  6
CONTINUOUS
  0
ENDTAB
  0
TABLE
  2
STYLE
  5
3
330
0
100
AcDbSymbolTable
 70
     1
  0
STYLE
  5
11
330
3
100
AcDbSymbolTableRecord
100
AcDbTextStyleTableRecord
  2
STANDARD
 70
     0
 40
0.0
 41
1.0
 50
0.0
 71
     0
 42
2.5
  3
txt
  4

  0
ENDTAB
  0
TABLE
  2
VIEW
  5
6
330
0
100
AcDbSymbolTable
 70
     0
  0
ENDTAB
  0
TABLE
  2
UCS
  5
7
330
0
100
AcDbSymbolTable
 70
     0
  0
ENDTAB
  0
TABLE
  2
APPID
  5
9
330
0
100
AcDbSymbolTable
 70
     2
  0
APPID
  5
12
330
9
100
AcDbSymbolTableRecord
100
AcDbRegAppTableRecord
  2
ACAD
 70
     0
  0
ENDTAB
  0
TABLE
  2
DIMSTYLE
  5
A
330
0
100
AcDbSymbolTable
 70
     1
  0
DIMSTYLE
105
27
330
A
100
AcDbSymbolTableRecord
100
AcDbDimStyleTableRecord
  2
ISO-25
 70
     0
  3

  4

  5

  6

  7

 40
1.0
 41
2.5
 42
0.625
 43
3.75
 44
1.25
 45
0.0
 46
0.0
 47
0.0
 48
0.0
140
2.5
141
2.5
142
0.0
143
0.03937007874016
144
1.0
145
0.0
146
1.0
147
0.625
 71
     0
 72
     0
 73
     0
 74
     0
 75
     0
 76
     0
 77
     1
 78
     8
170
     0
171
     3
172
     1
173
     0
174
     0
175
     0
176
     0
177
     0
178
     0
270
     2
271
     2
272
     2
273
     2
274
     3
340
11
275
     0
280
     0
281
     0
282
     0
283
     0
284
     8
285
     0
286
     0
287
     3
288
     0
  0
ENDTAB
  0
TABLE
  2
BLOCK_RECORD
  5
1
330
0
100
AcDbSymbolTable
 70
     1
  0
BLOCK_RECORD
  5
1F
330
1
100
AcDbSymbolTableRecord
100
AcDbBlockTableRecord
  2
*MODEL_SPACE
  0
BLOCK_RECORD
  5
1B
330
1
100
AcDbSymbolTableRecord
100
AcDbBlockTableRecord
  2
*PAPER_SPACE
  0
ENDTAB
  0
ENDSEC
  0
SECTION
  2
BLOCKS
  0
BLOCK
  5
20
330
1F
100
AcDbEntity
  8
0
100
AcDbBlockBegin
  2
*MODEL_SPACE
 70
     0
 10
0.0
 20
0.0
 30
0.0
  3
*MODEL_SPACE
  1

  0
ENDBLK
  5
21
330
1F
100
AcDbEntity
  8
0
100
AcDbBlockEnd
  0
BLOCK
  5
1C
330
1B
100
AcDbEntity
 67
     1
  8
0
100
AcDbBlockBegin
  2
*PAPER_SPACE
  1

  0
ENDBLK
  5
1D
330
1B
100
AcDbEntity
 67
     1
  8
0
100
AcDbBlockEnd
  0
ENDSEC
  0
SECTION
  2
ENTITIES
  0
LINE
  5
100
100
AcDbEntity
  8
0
 62
5
100
AcDbLine
 10
82.467552
 20
189.095627
 30
0.0
 11
80.621361
 21
195.877653
 31
0.0
  0
LINE
  5
101
100
AcDbEntity
  8
0
 62
5
100
AcDbLine
 10
80.621361
 20
195.877653
 30
0.0
 11
67.348481
 21
203.540754
 31
0.0
  0
LINE
  5
102
100
AcDbEntity
  8
0
 62
5
100
AcDbLine
 10
67.348481
 20
203.540754
 30
0.0
 11
60.551980
 21
201.748589
 31
0.0
  0
LINE
  5
103
100
AcDbEntity
  8
0
 62
1
100
AcDbLine
 10
76.188821
 20
192.720438
 30
0.0
 11
82.467552
 21
189.095627
 31
0.0
  0
LINE
  5
104
100
AcDbEntity
  8
0
 62
1
100
AcDbLine
 10
60.551980
 20
201.748589
 30
0.0
 11
66.840046
 21
198.117955
 31
0.0
  0
SPLINE
  5
105
100
AcDbEntity
  8
0
 62
1
100
AcDbSpline
 70
0
 71
3
 72
10
 73
6
 74
4
 40
0.000000
 40
0.000000
 40
0.000000
 40
0.000000
 40
17.849123
 40
24.425116
 40
25.364543
 40
25.364543
 40
25.364543
 40
25.364543
 10
60.567415
 20
226.899220
 30
0.0
 10
65.720013
 20
229.874074
 30
0.0
 10
72.770936
 20
233.944928
 30
0.0
 10
80.093048
 20
238.172352
 30
0.0
 10
82.262563
 20
239.424922
 30
0.0
 10
82.533752
 20
239.581494
 30
0.0
 11
60.567415
 21
226.899220
 31
0.0
 11
76.025208
 21
235.823783
 31
0.0
 11
81.720184
 21
239.111780
 31
0.0
 11
82.533752
 21
239.581494
 31
0.0
  0
LINE
  5
106
100
AcDbEntity
  8
0
 62
5
100
AcDbLine
 10
67.903841
 20
198.187249
 30
0.0
 11
75.710361
 21
193.680152
 31
0.0
  0
SPLINE
  5
107
100
AcDbEntity
  8
0
 62
5
100
AcDbSpline
 70
0
 71
3
 72
10
 73
6
 74
4
 40
0.000000
 40
0.000000
 40
0.000000
 40
0.000000
 40
1.112710
 40
1.522655
 40
1.581219
 40
1.581219
 40
1.581219
 40
1.581219
 10
66.481373
 20
197.496714
 30
0.0
 10
66.815038
 20
197.658691
 30
0.0
 10
67.271633
 20
197.880344
 30
0.0
 10
67.745789
 20
198.110523
 30
0.0
 10
67.886279
 20
198.178724
 30
0.0
 10
67.903841
 20
198.187249
 30
0.0
 11
66.481373
 21
197.496714
 31
0.0
 11
67.482369
 21
197.982646
 31
0.0
 11
67.851157
 21
198.161674
 31
0.0
 11
67.903841
 21
198.187249
 31
0.0
  0
LINE
  5
108
100
AcDbEntity
  8
0
 62
5
100
AcDbLine
 10
60.551980
 20
201.748589
 30
0.0
 11
65.502290
 21
206.738450
 31
0.0
  0
LINE
  5
109
100
AcDbEntity
  8
0
 62
5
100
AcDbLine
 10
65.502290
 20
206.738450
 30
0.0
 11
65.502290
 21
222.064652
 31
0.0
  0
LINE
  5
10a
100
AcDbEntity
  8
0
 62
5
100
AcDbLine
 10
65.502290
 20
222.064652
 30
0.0
 11
60.551980
 21
227.054513
 31
0.0
  0
LINE
  5
10b
100
AcDbEntity
  8
0
 62
1
100
AcDbLine
 10
60.551791
 20
208.998533
 30
0.0
 11
60.551980
 21
201.748589
 31
0.0
  0
LINE
  5
10c
100
AcDbEntity
  8
0
 62
1
100
AcDbLine
 10
60.551980
 20
227.054513
 30
0.0
 11
60.551794
 21
219.793570
 31
0.0
  0
SPLINE
  5
10d
100
AcDbEntity
  8
0
 62
5
100
AcDbSpline
 70
0
 71
3
 72
10
 73
6
 74
4
 40
0.000000
 40
0.000000
 40
0.000000
 40
0.000000
 40
0.058722
 40
0.469774
 40
1.585487
 40
1.585487
 40
1.585487
 40
1.585487
 10
75.710361
 20
193.680152
 30
0.0
 10
75.711840
 20
193.660634
 30
0.0
 10
75.723671
 20
193.504490
 30
0.0
 10
75.763600
 20
192.977505
 30
0.0
 10
75.802050
 20
192.470038
 30
0.0
 10
75.830148
 20
192.099197
 30
0.0
 11
75.710361
 21
193.680152
 31
0.0
 11
75.714798
 21
193.621598
 31
0.0
 11
75.745854
 21
193.211721
 31
0.0
 11
75.830148
 21
192.099197
 31
0.0
  0
LINE
  5
10e
100
AcDbEntity
  8
0
 62
5
100
AcDbLine
 10
61.143698
 20
218.906944
 30
0.0
 11
61.143698
 21
209.892752
 31
0.0
  0
SPLINE
  5
10f
100
AcDbEntity
  8
0
 62
5
100
AcDbSpline
 70
0
 71
3
 72
10
 73
6
 74
4
 40
0.000000
 40
0.000000
 40
0.000000
 40
0.000000
 40
1.112710
 40
1.522655
 40
1.581219
 40
1.581219
 40
1.581219
 40
1.581219
 10
59.834444
 20
219.793570
 30
0.0
 10
60.141553
 20
219.585596
 30
0.0
 10
60.561808
 20
219.301000
 30
0.0
 10
60.998226
 20
219.005458
 30
0.0
 10
61.127535
 20
218.917890
 30
0.0
 10
61.143698
 20
218.906944
 30
0.0
 11
59.834444
 21
219.793570
 31
0.0
 11
60.755771
 21
219.169648
 31
0.0
 11
61.095208
 21
218.939782
 31
0.0
 11
61.143698
 21
218.906944
 31
0.0
  0
LINE
  5
110
100
AcDbEntity
  8
0
 62
5
100
AcDbLine
 10
67.406314
 20
223.096947
 30
0.0
 11
68.191487
 21
222.643955
 31
0.0
  0
LINE
  5
111
100
AcDbEntity
  8
0
 62
5
100
AcDbLine
 10
68.191487
 20
222.643955
 30
0.0
 11
67.938819
 21
222.206319
 31
0.0
  0
LINE
  5
112
100
AcDbEntity
  8
0
 62
5
100
AcDbLine
 10
67.938819
 20
222.206319
 30
0.0
 11
66.582750
 21
222.989243
 31
0.0
  0
SPLINE
  5
113
100
AcDbEntity
  8
0
 62
5
100
AcDbSpline
 70
0
 71
3
 72
10
 73
6
 74
4
 40
0.000000
 40
0.000000
 40
0.000000
 40
0.000000
 40
0.058722
 40
0.469774
 40
1.585488
 40
1.585488
 40
1.585488
 40
1.585488
 10
61.143698
 20
209.892752
 30
0.0
 10
61.127535
 20
209.881712
 30
0.0
 10
60.998226
 20
209.793394
 30
0.0
 10
60.561808
 20
209.495321
 30
0.0
 10
60.141553
 20
209.208288
 30
0.0
 10
59.834444
 20
208.998533
 30
0.0
 11
61.143698
 21
209.892752
 31
0.0
 11
61.095208
 21
209.859633
 31
0.0
 11
60.755771
 21
209.627798
 31
0.0
 11
59.834444
 21
208.998533
 31
0.0
  0
LINE
  5
114
100
AcDbEntity
  8
0
 62
5
100
AcDbLine
 10
75.931525
 20
217.591726
 30
0.0
 11
74.575470
 21
218.374647
 31
0.0
  0
LINE
  5
115
100
AcDbEntity
  8
0
 62
5
100
AcDbLine
 10
74.575470
 20
218.374647
 30
0.0
 11
74.828284
 21
218.812535
 31
0.0
  0
LINE
  5
116
100
AcDbEntity
  8
0
 62
5
100
AcDbLine
 10
74.828284
 20
218.812535
 30
0.0
 11
75.613175
 21
218.359052
 31
0.0
  0
LINE
  5
117
100
AcDbEntity
  8
0
 62
5
100
AcDbLine
 10
67.406314
 20
223.096942
 30
0.0
 11
60.551980
 21
227.054513
 31
0.0
  0
LINE
  5
118
100
AcDbEntity
  8
0
 62
5
100
AcDbLine
 10
82.467532
 20
214.401514
 30
0.0
 11
75.613198
 21
218.359085
 31
0.0
  0
LINE
  5
119
100
AcDbEntity
  8
0
 62
1
100
AcDbLine
 10
69.856833
 20
221.682582
 30
0.0
 11
73.163021
 21
219.773973
 31
0.0
  0
LINE
  5
11a
100
AcDbEntity
  8
0
 62
5
100
AcDbLine
 10
82.533896
 20
222.190379
 30
0.0
 11
82.533614
 21
223.096857
 31
0.0
  0
LINE
  5
11b
100
AcDbEntity
  8
0
 62
5
100
AcDbLine
 10
82.533614
 20
223.096857
 30
0.0
 11
83.038953
 21
223.096857
 31
0.0
  0
LINE
  5
11c
100
AcDbEntity
  8
0
 62
5
100
AcDbLine
 10
83.038953
 20
223.096857
 30
0.0
 11
83.038953
 21
221.531006
 31
0.0
  0
SPLINE
  5
11d
100
AcDbEntity
  8
0
 62
5
100
AcDbSpline
 70
0
 71
3
 72
16
 73
12
 74
10
 40
0.000000
 40
0.000000
 40
0.000000
 40
0.000000
 40
0.594052
 40
1.926272
 40
3.438880
 40
6.074690
 40
8.833680
 40
11.469462
 40
12.982639
 40
14.315436
 40
14.909667
 40
14.909667
 40
14.909667
 40
14.909667
 10
66.582750
 20
222.989243
 30
0.0
 10
66.519676
 20
222.801554
 30
0.0
 10
66.315154
 20
222.192952
 30
0.0
 10
66.108567
 20
221.053705
 30
0.0
 10
66.402296
 20
219.190628
 30
0.0
 10
68.045961
 20
217.398581
 30
0.0
 10
70.355311
 20
216.065117
 30
0.0
 10
72.729305
 20
215.538056
 30
0.0
 10
74.490028
 20
216.214762
 30
0.0
 10
75.374567
 20
216.962429
 30
0.0
 10
75.800256
 20
217.443408
 30
0.0
 10
75.931525
 20
217.591726
 30
0.0
 11
66.582750
 21
222.989243
 31
0.0
 11
66.401975
 21
222.423365
 31
0.0
 11
66.190318
 21
221.108066
 31
0.0
 11
66.443781
 21
219.616845
 31
0.0
 11
68.080541
 21
217.550808
 31
0.0
 11
70.469888
 21
216.171297
 31
0.0
 11
73.077485
 21
215.786873
 31
0.0
 11
74.496411
 21
216.312564
 31
0.0
 11
75.531084
 21
217.152684
 31
0.0
 11
75.931525
 21
217.591726
 31
0.0
  0
LINE
  5
11e
100
AcDbEntity
  8
0
 62
5
100
AcDbLine
 10
83.038953
 20
232.326040
 30
0.0
 11
83.038953
 21
230.760204
 31
0.0
  0
LINE
  5
11f
100
AcDbEntity
  8
0
 62
5
100
AcDbLine
 10
83.038953
 20
230.760204
 30
0.0
 11
82.533323
 21
230.760204
 31
0.0
  0
LINE
  5
120
100
AcDbEntity
  8
0
 62
5
100
AcDbLine
 10
82.533323
 20
230.760204
 30
0.0
 11
82.533606
 21
231.666679
 31
0.0
  0
LINE
  5
121
100
AcDbEntity
  8
0
 62
5
100
AcDbLine
 10
82.533899
 20
222.190385
 30
0.0
 11
82.533713
 21
214.275573
 31
0.0
  0
LINE
  5
122
100
AcDbEntity
  8
0
 62
5
100
AcDbLine
 10
82.533752
 20
239.581494
 30
0.0
 11
82.533563
 21
231.666682
 31
0.0
  0
LINE
  5
123
100
AcDbEntity
  8
0
 62
1
100
AcDbLine
 10
82.533513
 20
225.019773
 30
0.0
 11
82.533323
 21
228.837322
 31
0.0
  0
LINE
  5
124
100
AcDbEntity
  8
0
 62
5
100
AcDbLine
 10
82.533899
 20
272.709588
 30
0.0
 11
82.533617
 21
273.616065
 31
0.0
  0
LINE
  5
125
100
AcDbEntity
  8
0
 62
5
100
AcDbLine
 10
82.533617
 20
273.616065
 30
0.0
 11
83.038956
 21
273.616066
 31
0.0
  0
LINE
  5
126
100
AcDbEntity
  8
0
 62
5
100
AcDbLine
 10
83.038956
 20
273.616066
 30
0.0
 11
83.038956
 21
272.050215
 31
0.0
  0
SPLINE
  5
127
100
AcDbEntity
  8
0
 62
5
100
AcDbSpline
 70
0
 71
3
 72
16
 73
12
 74
10
 40
0.000000
 40
0.000000
 40
0.000000
 40
0.000000
 40
0.594052
 40
1.926273
 40
3.438880
 40
6.074691
 40
8.833682
 40
11.469464
 40
12.982640
 40
14.315437
 40
14.909668
 40
14.909668
 40
14.909668
 40
14.909668
 10
83.038953
 20
221.531006
 30
0.0
 10
83.233034
 20
221.570227
 30
0.0
 10
83.862360
 20
221.697406
 30
0.0
 10
84.952270
 20
222.088118
 30
0.0
 10
86.418879
 20
223.274033
 30
0.0
 10
87.149002
 20
225.593514
 30
0.0
 10
87.149140
 20
228.260202
 30
0.0
 10
86.418593
 20
230.579672
 30
0.0
 10
84.952186
 20
231.766150
 30
0.0
 10
83.862419
 20
232.158349
 30
0.0
 10
83.233034
 20
232.286517
 30
0.0
 10
83.038953
 20
232.326040
 30
0.0
 11
83.038953
 21
221.531006
 31
0.0
 11
83.619405
 21
221.657389
 31
0.0
 11
84.864318
 21
222.131737
 31
0.0
 11
86.029021
 21
223.096851
 31
0.0
 11
86.999880
 21
225.547347
 31
0.0
 11
86.999898
 21
228.306339
 31
0.0
 11
86.029021
 21
230.756797
 31
0.0
 11
84.864296
 21
231.722777
 31
0.0
 11
83.619395
 21
232.198769
 31
0.0
 11
83.038953
 21
232.326040
 31
0.0
  0
LINE
  5
128
100
AcDbEntity
  8
0
 62
5
100
AcDbLine
 10
83.038956
 20
282.845249
 30
0.0
 11
83.038956
 21
281.279412
 31
0.0
  0
LINE
  5
129
100
AcDbEntity
  8
0
 62
5
100
AcDbLine
 10
83.038956
 20
281.279412
 30
0.0
 11
82.533326
 21
281.279411
 31
0.0
  0
LINE
  5
12a
100
AcDbEntity
  8
0
 62
5
100
AcDbLine
 10
82.533326
 20
281.279411
 30
0.0
 11
82.533609
 21
282.185888
 31
0.0
  0
LINE
  5
12b
100
AcDbEntity
  8
0
 62
5
100
AcDbLine
 10
82.533902
 20
272.709592
 30
0.0
 11
82.533716
 21
264.794781
 31
0.0
  0
LINE
  5
12c
100
AcDbEntity
  8
0
 62
5
100
AcDbLine
 10
82.533755
 20
290.100704
 30
0.0
 11
82.533566
 21
282.185891
 31
0.0
  0
LINE
  5
12d
100
AcDbEntity
  8
0
 62
1
100
AcDbLine
 10
82.533515
 20
275.538982
 30
0.0
 11
82.533326
 21
279.356531
 31
0.0
  0
LINE
  5
12e
100
AcDbEntity
  8
0
 62
5
100
AcDbLine
 10
82.533860
 20
247.403664
 30
0.0
 11
82.533577
 21
248.310142
 31
0.0
  0
LINE
  5
12f
100
AcDbEntity
  8
0
 62
5
100
AcDbLine
 10
82.533577
 20
248.310142
 30
0.0
 11
83.038913
 21
248.310142
 31
0.0
  0
LINE
  5
130
100
AcDbEntity
  8
0
 62
5
100
AcDbLine
 10
83.038913
 20
248.310142
 30
0.0
 11
83.038913
 21
246.744291
 31
0.0
  0
SPLINE
  5
131
100
AcDbEntity
  8
0
 62
5
100
AcDbSpline
 70
0
 71
3
 72
16
 73
12
 74
10
 40
0.000000
 40
0.000000
 40
0.000000
 40
0.000000
 40
0.594052
 40
1.926273
 40
3.438881
 40
6.074691
 40
8.833682
 40
11.469465
 40
12.982641
 40
14.315438
 40
14.909669
 40
14.909669
 40
14.909669
 40
14.909669
 10
83.038956
 20
272.050215
 30
0.0
 10
83.233036
 20
272.089436
 30
0.0
 10
83.862363
 20
272.216614
 30
0.0
 10
84.952273
 20
272.607328
 30
0.0
 10
86.418882
 20
273.793243
 30
0.0
 10
87.149007
 20
276.112723
 30
0.0
 10
87.149145
 20
278.779411
 30
0.0
 10
86.418595
 20
281.098881
 30
0.0
 10
84.952189
 20
282.285358
 30
0.0
 10
83.862422
 20
282.677557
 30
0.0
 10
83.233037
 20
282.805726
 30
0.0
 10
83.038956
 20
282.845249
 30
0.0
 11
83.038956
 21
272.050215
 31
0.0
 11
83.619408
 21
272.176597
 31
0.0
 11
84.864320
 21
272.650946
 31
0.0
 11
86.029024
 21
273.616061
 31
0.0
 11
86.999885
 21
276.066557
 31
0.0
 11
86.999903
 21
278.825548
 31
0.0
 11
86.029024
 21
281.276006
 31
0.0
 11
84.864299
 21
282.241985
 31
0.0
 11
83.619398
 21
282.717977
 31
0.0
 11
83.038956
 21
282.845249
 31
0.0
  0
LINE
  5
132
100
AcDbEntity
  8
0
 62
5
100
AcDbLine
 10
83.038913
 20
257.539325
 30
0.0
 11
83.038913
 21
255.973488
 31
0.0
  0
LINE
  5
133
100
AcDbEntity
  8
0
 62
5
100
AcDbLine
 10
83.038913
 20
255.973488
 30
0.0
 11
82.533287
 21
255.973488
 31
0.0
  0
LINE
  5
134
100
AcDbEntity
  8
0
 62
5
100
AcDbLine
 10
82.533287
 20
255.973488
 30
0.0
 11
82.533569
 21
256.879963
 31
0.0
  0
LINE
  5
135
100
AcDbEntity
  8
0
 62
5
100
AcDbLine
 10
82.533863
 20
247.403669
 30
0.0
 11
82.533676
 21
239.488857
 31
0.0
  0
LINE
  5
136
100
AcDbEntity
  8
0
 62
5
100
AcDbLine
 10
82.533716
 20
264.794778
 30
0.0
 11
82.533527
 21
256.879966
 31
0.0
  0
LINE
  5
137
100
AcDbEntity
  8
0
 62
1
100
AcDbLine
 10
82.533476
 20
250.233057
 30
0.0
 11
82.533287
 21
254.050607
 31
0.0
  0
SPLINE
  5
138
100
AcDbEntity
  8
0
 62
5
100
AcDbSpline
 70
0
 71
3
 72
16
 73
12
 74
10
 40
0.000000
 40
0.000000
 40
0.000000
 40
0.000000
 40
0.594053
 40
1.926275
 40
3.438883
 40
6.074693
 40
8.833685
 40
11.469467
 40
12.982643
 40
14.315441
 40
14.909673
 40
14.909673
 40
14.909673
 40
14.909673
 10
83.038913
 20
246.744291
 30
0.0
 10
83.232994
 20
246.783512
 30
0.0
 10
83.862321
 20
246.910690
 30
0.0
 10
84.952233
 20
247.301403
 30
0.0
 10
86.418843
 20
248.487317
 30
0.0
 10
87.148965
 20
250.806799
 30
0.0
 10
87.149104
 20
253.473486
 30
0.0
 10
86.418556
 20
255.792957
 30
0.0
 10
84.952148
 20
256.979434
 30
0.0
 10
83.862381
 20
257.371633
 30
0.0
 10
83.232995
 20
257.499802
 30
0.0
 10
83.038913
 20
257.539325
 30
0.0
 11
83.038913
 21
246.744291
 31
0.0
 11
83.619367
 21
246.870673
 31
0.0
 11
84.864280
 21
247.345021
 31
0.0
 11
86.028984
 21
248.310136
 31
0.0
 11
86.999843
 21
250.760632
 31
0.0
 11
86.999861
 21
253.519623
 31
0.0
 11
86.028984
 21
255.970082
 31
0.0
 11
84.864259
 21
256.936061
 31
0.0
 11
83.619356
 21
257.412053
 31
0.0
 11
83.038913
 21
257.539325
 31
0.0
  0
LINE
  5
139
100
AcDbEntity
  8
0
 62
5
100
AcDbLine
 10
67.421712
 20
281.434616
 30
0.0
 11
68.206885
 21
281.887610
 31
0.0
  0
LINE
  5
13a
100
AcDbEntity
  8
0
 62
5
100
AcDbLine
 10
68.206885
 20
281.887610
 30
0.0
 11
67.954217
 21
282.325246
 31
0.0
  0
LINE
  5
13b
100
AcDbEntity
  8
0
 62
5
100
AcDbLine
 10
67.954217
 20
282.325246
 30
0.0
 11
66.598148
 21
281.542320
 31
0.0
  0
SPLINE
  5
13c
100
AcDbEntity
  8
0
 62
1
100
AcDbSpline
 70
0
 71
3
 72
10
 73
6
 74
4
 40
0.000000
 40
0.000000
 40
0.000000
 40
0.000000
 40
17.849123
 40
24.425116
 40
25.364544
 40
25.364544
 40
25.364544
 40
25.364544
 10
60.567378
 20
277.477053
 30
0.0
 10
65.719976
 20
274.502199
 30
0.0
 10
72.770899
 20
270.431345
 30
0.0
 10
80.093012
 20
266.203920
 30
0.0
 10
82.262526
 20
264.951350
 30
0.0
 10
82.533716
 20
264.794778
 30
0.0
 11
60.567378
 21
277.477053
 31
0.0
 11
76.025171
 21
268.552489
 31
0.0
 11
81.720148
 21
265.264492
 31
0.0
 11
82.533716
 21
264.794778
 31
0.0
  0
LINE
  5
13d
100
AcDbEntity
  8
0
 62
5
100
AcDbLine
 10
75.946923
 20
286.939838
 30
0.0
 11
74.590868
 21
286.156919
 31
0.0
  0
LINE
  5
13e
100
AcDbEntity
  8
0
 62
5
100
AcDbLine
 10
74.590868
 20
286.156919
 30
0.0
 11
74.843682
 21
285.719031
 31
0.0
  0
LINE
  5
13f
100
AcDbEntity
  8
0
 62
5
100
AcDbLine
 10
74.843682
 20
285.719031
 30
0.0
 11
75.628573
 21
286.172513
 31
0.0
  0
LINE
  5
140
100
AcDbEntity
  8
0
 62
5
100
AcDbLine
 10
67.421712
 20
281.434621
 30
0.0
 11
60.567378
 21
277.477053
 31
0.0
  0
LINE
  5
141
100
AcDbEntity
  8
0
 62
5
100
AcDbLine
 10
82.482930
 20
290.130049
 30
0.0
 11
75.628596
 21
286.172480
 31
0.0
  0
LINE
  5
142
100
AcDbEntity
  8
0
 62
1
100
AcDbLine
 10
69.872231
 20
282.848981
 30
0.0
 11
73.178419
 21
284.757593
 31
0.0
  0
SPLINE
  5
143
100
AcDbEntity
  8
0
 62
5
100
AcDbSpline
 70
0
 71
3
 72
16
 73
12
 74
10
 40
0.000000
 40
0.000000
 40
0.000000
 40
0.000000
 40
0.594052
 40
1.926273
 40
3.438881
 40
6.074691
 40
8.833681
 40
11.469463
 40
12.982640
 40
14.315437
 40
14.909668
 40
14.909668
 40
14.909668
 40
14.909668
 10
66.598148
 20
281.542320
 30
0.0
 10
66.535074
 20
281.730010
 30
0.0
 10
66.330552
 20
282.338612
 30
0.0
 10
66.123965
 20
283.477859
 30
0.0
 10
66.417694
 20
285.340936
 30
0.0
 10
68.061359
 20
287.132983
 30
0.0
 10
70.370709
 20
288.466447
 30
0.0
 10
72.744703
 20
288.993508
 30
0.0
 10
74.505426
 20
288.316801
 30
0.0
 10
75.389965
 20
287.569135
 30
0.0
 10
75.815654
 20
287.088155
 30
0.0
 10
75.946923
 20
286.939838
 30
0.0
 11
66.598148
 21
281.542320
 31
0.0
 11
66.417373
 21
282.108198
 31
0.0
 11
66.205716
 21
283.423499
 31
0.0
 11
66.459179
 21
284.914719
 31
0.0
 11
68.095939
 21
286.980756
 31
0.0
 11
70.485286
 21
288.360268
 31
0.0
 11
73.092883
 21
288.744692
 31
0.0
 11
74.511809
 21
288.219000
 31
0.0
 11
75.546482
 21
287.378879
 31
0.0
 11
75.946923
 21
286.939838
 31
0.0
  0
SPLINE
  5
144
100
AcDbEntity
  8
0
 62
1
100
AcDbSpline
 70
0
 71
3
 72
10
 73
6
 74
4
 40
0.000000
 40
0.000000
 40
0.000000
 40
0.000000
 40
17.849123
 40
24.425116
 40
25.364543
 40
25.364543
 40
25.364543
 40
25.364543
 10
38.585642
 20
239.736787
 30
0.0
 10
43.738240
 20
236.761932
 30
0.0
 10
50.789163
 20
232.691079
 30
0.0
 10
58.111276
 20
228.463654
 30
0.0
 10
60.280791
 20
227.211084
 30
0.0
 10
60.551980
 20
227.054513
 30
0.0
 11
38.585642
 21
239.736787
 31
0.0
 11
54.043436
 21
230.812224
 31
0.0
 11
59.738412
 21
227.524227
 31
0.0
 11
60.551980
 21
227.054513
 31
0.0
  0
LINE
  5
145
100
AcDbEntity
  8
0
 62
5
100
AcDbLine
 10
38.651807
 20
264.824090
 30
0.0
 11
40.497997
 21
271.606116
 31
0.0
  0
LINE
  5
146
100
AcDbEntity
  8
0
 62
5
100
AcDbLine
 10
40.497997
 20
271.606116
 30
0.0
 11
53.770877
 21
279.269217
 31
0.0
  0
LINE
  5
147
100
AcDbEntity
  8
0
 62
5
100
AcDbLine
 10
53.770877
 20
279.269217
 30
0.0
 11
60.567378
 21
277.477053
 31
0.0
  0
LINE
  5
148
100
AcDbEntity
  8
0
 62
1
100
AcDbLine
 10
44.930537
 20
268.448901
 30
0.0
 11
38.651807
 21
264.824090
 31
0.0
  0
LINE
  5
149
100
AcDbEntity
  8
0
 62
1
100
AcDbLine
 10
60.567378
 20
277.477053
 30
0.0
 11
54.279312
 21
273.846418
 31
0.0
  0
SPLINE
  5
14a
100
AcDbEntity
  8
0
 62
1
100
AcDbSpline
 70
0
 71
3
 72
10
 73
6
 74
4
 40
0.000000
 40
0.000000
 40
0.000000
 40
0.000000
 40
17.849120
 40
24.425111
 40
25.364539
 40
25.364539
 40
25.364539
 40
25.364539
 10
38.585642
 20
239.736787
 30
0.0
 10
38.585642
 20
245.686493
 30
0.0
 10
38.585642
 20
253.828197
 30
0.0
 10
38.585642
 20
262.283043
 30
0.0
 10
38.585642
 20
264.788183
 30
0.0
 10
38.585642
 20
265.101325
 30
0.0
 11
38.585642
 21
239.736787
 31
0.0
 11
38.585642
 21
257.585906
 31
0.0
 11
38.585642
 21
264.161898
 31
0.0
 11
38.585642
 21
265.101325
 31
0.0
  0
LINE
  5
14b
100
AcDbEntity
  8
0
 62
5
100
AcDbLine
 10
53.215517
 20
273.915712
 30
0.0
 11
45.408997
 21
269.408615
 31
0.0
  0
SPLINE
  5
14c
100
AcDbEntity
  8
0
 62
5
100
AcDbSpline
 70
0
 71
3
 72
10
 73
6
 74
4
 40
0.000000
 40
0.000000
 40
0.000000
 40
0.000000
 40
1.112710
 40
1.522655
 40
1.581219
 40
1.581219
 40
1.581219
 40
1.581219
 10
54.637985
 20
273.225176
 30
0.0
 10
54.304320
 20
273.387154
 30
0.0
 10
53.847725
 20
273.608807
 30
0.0
 10
53.373569
 20
273.838986
 30
0.0
 10
53.233079
 20
273.907187
 30
0.0
 10
53.215517
 20
273.915712
 30
0.0
 11
54.637985
 21
273.225176
 31
0.0
 11
53.636989
 21
273.711109
 31
0.0
 11
53.268201
 21
273.890136
 31
0.0
 11
53.215517
 21
273.915712
 31
0.0
  0
LINE
  5
14d
100
AcDbEntity
  8
0
 62
5
100
AcDbLine
 10
31.731125
 20
261.144079
 30
0.0
 11
30.946234
 21
260.690596
 31
0.0
  0
LINE
  5
14e
100
AcDbEntity
  8
0
 62
5
100
AcDbLine
 10
30.946234
 20
260.690596
 30
0.0
 11
30.693563
 21
261.128232
 31
0.0
  0
LINE
  5
14f
100
AcDbEntity
  8
0
 62
5
100
AcDbLine
 10
30.693563
 20
261.128232
 30
0.0
 11
32.049630
 21
261.911156
 31
0.0
  0
SPLINE
  5
150
100
AcDbEntity
  8
0
 62
5
100
AcDbSpline
 70
0
 71
3
 72
10
 73
6
 74
4
 40
0.000000
 40
0.000000
 40
0.000000
 40
0.000000
 40
0.058722
 40
0.469774
 40
1.585487
 40
1.585487
 40
1.585487
 40
1.585487
 10
45.408997
 20
269.408615
 30
0.0
 10
45.407518
 20
269.389097
 30
0.0
 10
45.395687
 20
269.232953
 30
0.0
 10
45.355758
 20
268.705968
 30
0.0
 10
45.317308
 20
268.198501
 30
0.0
 10
45.289210
 20
267.827660
 30
0.0
 11
45.408997
 21
269.408615
 31
0.0
 11
45.404560
 21
269.350061
 31
0.0
 11
45.373504
 21
268.940184
 31
0.0
 11
45.289210
 21
267.827660
 31
0.0
  0
LINE
  5
151
100
AcDbEntity
  8
0
 62
5
100
AcDbLine
 10
22.700857
 20
256.513639
 30
0.0
 11
24.056912
 21
257.296560
 31
0.0
  0
LINE
  5
152
100
AcDbEntity
  8
0
 62
5
100
AcDbLine
 10
24.056912
 20
257.296560
 30
0.0
 11
24.309727
 21
256.858673
 31
0.0
  0
LINE
  5
153
100
AcDbEntity
  8
0
 62
5
100
AcDbLine
 10
24.309727
 20
256.858673
 30
0.0
 11
23.524554
 21
256.405678
 31
0.0
  0
LINE
  5
154
100
AcDbEntity
  8
0
 62
5
100
AcDbLine
 10
31.731119
 20
261.144082
 30
0.0
 11
38.585642
 21
265.101325
 31
0.0
  0
LINE
  5
155
100
AcDbEntity
  8
0
 62
5
100
AcDbLine
 10
16.670049
 20
252.448397
 30
0.0
 11
23.524571
 21
256.405641
 31
0.0
  0
LINE
  5
156
100
AcDbEntity
  8
0
 62
1
100
AcDbLine
 10
29.280990
 20
259.729050
 30
0.0
 11
25.974989
 21
257.820113
 31
0.0
  0
LINE
  5
157
100
AcDbEntity
  8
0
 62
5
100
AcDbLine
 10
23.382218
 20
248.496496
 30
0.0
 11
24.167391
 21
248.043501
 31
0.0
  0
LINE
  5
158
100
AcDbEntity
  8
0
 62
5
100
AcDbLine
 10
24.167391
 20
248.043501
 30
0.0
 11
23.914723
 21
247.605865
 31
0.0
  0
LINE
  5
159
100
AcDbEntity
  8
0
 62
5
100
AcDbLine
 10
23.914723
 20
247.605865
 30
0.0
 11
22.558656
 21
248.388791
 31
0.0
  0
SPLINE
  5
15a
100
AcDbEntity
  8
0
 62
5
100
AcDbSpline
 70
0
 71
3
 72
16
 73
12
 74
10
 40
0.000000
 40
0.000000
 40
0.000000
 40
0.000000
 40
0.594052
 40
1.926274
 40
3.438882
 40
6.074692
 40
8.833684
 40
11.469466
 40
12.982642
 40
14.315441
 40
14.909673
 40
14.909673
 40
14.909673
 40
14.909673
 10
32.049630
 20
261.911156
 30
0.0
 10
31.918623
 20
262.059624
 30
0.0
 10
31.493820
 20
262.541048
 30
0.0
 10
30.610498
 20
263.289583
 30
0.0
 10
28.850161
 20
263.966748
 30
0.0
 10
26.476370
 20
263.439313
 30
0.0
 10
24.166881
 20
262.106089
 30
0.0
 10
22.523435
 20
260.313679
 30
0.0
 10
22.229120
 20
258.450495
 30
0.0
 10
22.434349
 20
257.310629
 30
0.0
 10
22.638044
 20
256.701480
 30
0.0
 10
22.700857
 20
256.513639
 30
0.0
 11
32.049630
 21
261.911156
 31
0.0
 11
31.649953
 21
262.350652
 31
0.0
 11
30.616699
 21
263.191605
 31
0.0
 11
29.198533
 21
263.717711
 31
0.0
 11
26.590912
 21
263.333253
 31
0.0
 11
24.201547
 21
261.953773
 31
0.0
 11
22.564827
 21
259.887738
 31
0.0
 11
22.310627
 21
258.396067
 31
0.0
 11
22.520857
 21
257.079953
 31
0.0
 11
22.700857
 21
256.513639
 31
0.0
  0
LINE
  5
15b
100
AcDbEntity
  8
0
 62
5
100
AcDbLine
 10
31.907429
 20
242.991274
 30
0.0
 11
30.551374
 21
243.774193
 31
0.0
  0
LINE
  5
15c
100
AcDbEntity
  8
0
 62
5
100
AcDbLine
 10
30.551374
 20
243.774193
 30
0.0
 11
30.804189
 21
244.212080
 31
0.0
  0
LINE
  5
15d
100
AcDbEntity
  8
0
 62
5
100
AcDbLine
 10
30.804189
 20
244.212080
 30
0.0
 11
31.589080
 21
243.758597
 31
0.0
  0
LINE
  5
15e
100
AcDbEntity
  8
0
 62
5
100
AcDbLine
 10
23.382219
 20
248.496490
 30
0.0
 11
16.527885
 21
252.454059
 31
0.0
  0
LINE
  5
15f
100
AcDbEntity
  8
0
 62
5
100
AcDbLine
 10
38.443436
 20
239.801063
 30
0.0
 11
31.589102
 21
243.758631
 31
0.0
  0
LINE
  5
160
100
AcDbEntity
  8
0
 62
1
100
AcDbLine
 10
25.832737
 20
247.082131
 30
0.0
 11
29.138925
 21
245.173518
 31
0.0
  0
SPLINE
  5
161
100
AcDbEntity
  8
0
 62
5
100
AcDbSpline
 70
0
 71
3
 72
16
 73
12
 74
10
 40
0.000000
 40
0.000000
 40
0.000000
 40
0.000000
 40
0.594052
 40
1.926274
 40
3.438883
 40
6.074692
 40
8.833682
 40
11.469464
 40
12.982641
 40
14.315438
 40
14.909669
 40
14.909669
 40
14.909669
 40
14.909669
 10
22.558656
 20
248.388791
 30
0.0
 10
22.495582
 20
248.201102
 30
0.0
 10
22.291059
 20
247.592500
 30
0.0
 10
22.084471
 20
246.453252
 30
0.0
 10
22.378198
 20
244.590174
 30
0.0
 10
24.021866
 20
242.798129
 30
0.0
 10
26.331215
 20
241.464665
 30
0.0
 10
28.705209
 20
240.937605
 30
0.0
 10
30.465933
 20
241.614311
 30
0.0
 10
31.350471
 20
242.361977
 30
0.0
 10
31.776161
 20
242.842956
 30
0.0
 10
31.907429
 20
242.991274
 30
0.0
 11
22.558656
 21
248.388791
 31
0.0
 11
22.377880
 21
247.822913
 31
0.0
 11
22.166222
 21
246.507612
 31
0.0
 11
22.419684
 21
245.016391
 31
0.0
 11
24.056445
 21
242.950355
 31
0.0
 11
26.445792
 21
241.570845
 31
0.0
 11
29.053389
 21
241.186421
 31
0.0
 11
30.472316
 21
241.712112
 31
0.0
 11
31.506988
 21
242.552233
 31
0.0
 11
31.907429
 21
242.991274
 31
0.0
  0
LINE
  5
162
100
AcDbEntity
  8
0
 62
5
100
AcDbLine
 10
16.527865
 20
227.148101
 30
0.0
 11
18.374055
 21
233.930126
 31
0.0
  0
LINE
  5
163
100
AcDbEntity
  8
0
 62
5
100
AcDbLine
 10
18.374055
 20
233.930126
 30
0.0
 11
31.646935
 21
241.593227
 31
0.0
  0
LINE
  5
164
100
AcDbEntity
  8
0
 62
5
100
AcDbLine
 10
31.646935
 20
241.593227
 30
0.0
 11
38.443436
 21
239.801063
 31
0.0
  0
LINE
  5
165
100
AcDbEntity
  8
0
 62
1
100
AcDbLine
 10
22.806596
 20
230.772912
 30
0.0
 11
16.527865
 21
227.148101
 31
0.0
  0
LINE
  5
166
100
AcDbEntity
  8
0
 62
1
100
AcDbLine
 10
38.443436
 20
239.801063
 30
0.0
 11
32.155370
 21
236.170429
 31
0.0
  0
SPLINE
  5
167
100
AcDbEntity
  8
0
 62
1
100
AcDbSpline
 70
0
 71
3
 72
10
 73
6
 74
4
 40
0.000000
 40
0.000000
 40
0.000000
 40
0.000000
 40
17.849123
 40
24.425116
 40
25.364543
 40
25.364543
 40
25.364543
 40
25.364543
 10
38.585642
 20
189.007701
 30
0.0
 10
43.738240
 20
191.982555
 30
0.0
 10
50.789163
 20
196.053408
 30
0.0
 10
58.111276
 20
200.280833
 30
0.0
 10
60.280791
 20
201.533403
 30
0.0
 10
60.551980
 20
201.689974
 30
0.0
 11
38.585642
 21
189.007701
 31
0.0
 11
54.043436
 21
197.932263
 31
0.0
 11
59.738412
 21
201.220260
 31
0.0
 11
60.551980
 21
201.689974
 31
0.0
  0
LINE
  5
168
100
AcDbEntity
  8
0
 62
5
100
AcDbLine
 10
31.091578
 20
236.239723
 30
0.0
 11
23.285057
 21
231.732626
 31
0.0
  0
SPLINE
  5
169
100
AcDbEntity
  8
0
 62
5
100
AcDbSpline
 70
0
 71
3
 72
10
 73
6
 74
4
 40
0.000000
 40
0.000000
 40
0.000000
 40
0.000000
 40
1.112708
 40
1.522653
 40
1.581217
 40
1.581217
 40
1.581217
 40
1.581217
 10
32.514043
 20
235.549187
 30
0.0
 10
32.180379
 20
235.711165
 30
0.0
 10
31.723785
 20
235.932818
 30
0.0
 10
31.249630
 20
236.162997
 30
0.0
 10
31.109140
 20
236.231198
 30
0.0
 10
31.091578
 20
236.239723
 30
0.0
 11
32.514043
 21
235.549187
 31
0.0
 11
31.513049
 21
236.035120
 31
0.0
 11
31.144262
 21
236.214148
 31
0.0
 11
31.091578
 21
236.239723
 31
0.0
  0
LINE
  5
16a
100
AcDbEntity
  8
0
 62
5
100
AcDbLine
 10
16.670070
 20
201.660663
 30
0.0
 11
18.516261
 21
194.878637
 31
0.0
  0
LINE
  5
16b
100
AcDbEntity
  8
0
 62
5
100
AcDbLine
 10
18.516261
 20
194.878637
 30
0.0
 11
31.789141
 21
187.215536
 31
0.0
  0
LINE
  5
16c
100
AcDbEntity
  8
0
 62
5
100
AcDbLine
 10
31.789141
 20
187.215536
 30
0.0
 11
38.585642
 21
189.007701
 31
0.0
  0
LINE
  5
16d
100
AcDbEntity
  8
0
 62
1
100
AcDbLine
 10
22.948802
 20
198.035851
 30
0.0
 11
16.670071
 21
201.660663
 31
0.0
  0
LINE
  5
16e
100
AcDbEntity
  8
0
 62
1
100
AcDbLine
 10
38.585642
 20
189.007701
 30
0.0
 11
32.297576
 21
192.638334
 31
0.0
  0
SPLINE
  5
16f
100
AcDbEntity
  8
0
 62
5
100
AcDbSpline
 70
0
 71
3
 72
10
 73
6
 74
4
 40
0.000000
 40
0.000000
 40
0.000000
 40
0.000000
 40
0.058722
 40
0.469774
 40
1.585487
 40
1.585487
 40
1.585487
 40
1.585487
 10
23.285057
 20
231.732626
 30
0.0
 10
23.283578
 20
231.713108
 30
0.0
 10
23.271747
 20
231.556964
 30
0.0
 10
23.231818
 20
231.029979
 30
0.0
 10
23.193368
 20
230.522512
 30
0.0
 10
23.165270
 20
230.151670
 30
0.0
 11
23.285057
 21
231.732626
 31
0.0
 11
23.280620
 21
231.674072
 31
0.0
 11
23.249564
 21
231.264194
 31
0.0
 11
23.165270
 21
230.151670
 31
0.0
  0
LINE
  5
170
100
AcDbEntity
  8
0
 62
5
100
AcDbLine
 10
31.233785
 20
192.569040
 30
0.0
 11
23.427262
 21
197.076138
 31
0.0
  0
SPLINE
  5
171
100
AcDbEntity
  8
0
 62
5
100
AcDbSpline
 70
0
 71
3
 72
10
 73
6
 74
4
 40
0.000000
 40
0.000000
 40
0.000000
 40
0.000000
 40
1.112708
 40
1.522653
 40
1.581217
 40
1.581217
 40
1.581217
 40
1.581217
 10
32.656249
 20
193.259576
 30
0.0
 10
32.322585
 20
193.097598
 30
0.0
 10
31.865991
 20
192.875945
 30
0.0
 10
31.391836
 20
192.645766
 30
0.0
 10
31.251346
 20
192.577565
 30
0.0
 10
31.233785
 20
192.569040
 30
0.0
 11
32.656249
 21
193.259576
 31
0.0
 11
31.655256
 21
192.773643
 31
0.0
 11
31.286468
 21
192.594616
 31
0.0
 11
31.233785
 21
192.569040
 31
0.0
  0
LINE
  5
172
100
AcDbEntity
  8
0
 62
5
100
AcDbLine
 10
38.585642
 20
163.701776
 30
0.0
 11
33.635332
 21
168.691638
 31
0.0
  0
LINE
  5
173
100
AcDbEntity
  8
0
 62
5
100
AcDbLine
 10
33.635332
 20
168.691638
 30
0.0
 11
33.635332
 21
184.017839
 31
0.0
  0
LINE
  5
174
100
AcDbEntity
  8
0
 62
5
100
AcDbLine
 10
33.635332
 20
184.017839
 30
0.0
 11
38.585642
 21
189.007701
 31
0.0
  0
LINE
  5
175
100
AcDbEntity
  8
0
 62
1
100
AcDbLine
 10
38.585831
 20
170.951721
 30
0.0
 11
38.585645
 21
163.701776
 31
0.0
  0
LINE
  5
176
100
AcDbEntity
  8
0
 62
1
100
AcDbLine
 10
38.585642
 20
189.007701
 30
0.0
 11
38.585831
 21
181.746758
 31
0.0
  0
SPLINE
  5
177
100
AcDbEntity
  8
0
 62
5
100
AcDbSpline
 70
0
 71
3
 72
10
 73
6
 74
4
 40
0.000000
 40
0.000000
 40
0.000000
 40
0.000000
 40
0.058722
 40
0.469774
 40
1.585487
 40
1.585487
 40
1.585487
 40
1.585487
 10
23.427262
 20
197.076138
 30
0.0
 10
23.425783
 20
197.095655
 30
0.0
 10
23.413953
 20
197.251799
 30
0.0
 10
23.374024
 20
197.778784
 30
0.0
 10
23.335574
 20
198.286251
 30
0.0
 10
23.307475
 20
198.657093
 30
0.0
 11
23.427262
 21
197.076138
 31
0.0
 11
23.422826
 21
197.134691
 31
0.0
 11
23.391770
 21
197.544569
 31
0.0
 11
23.307475
 21
198.657093
 31
0.0
  0
LINE
  5
178
100
AcDbEntity
  8
0
 62
5
100
AcDbLine
 10
37.993924
 20
180.860131
 30
0.0
 11
37.993924
 21
171.845939
 31
0.0
  0
SPLINE
  5
179
100
AcDbEntity
  8
0
 62
5
100
AcDbSpline
 70
0
 71
3
 72
10
 73
6
 74
4
 40
0.000000
 40
0.000000
 40
0.000000
 40
0.000000
 40
1.112710
 40
1.522655
 40
1.581219
 40
1.581219
 40
1.581219
 40
1.581219
 10
39.303178
 20
181.746758
 30
0.0
 10
38.996069
 20
181.538784
 30
0.0
 10
38.575815
 20
181.254187
 30
0.0
 10
38.139397
 20
180.958645
 30
0.0
 10
38.010088
 20
180.871077
 30
0.0
 10
37.993924
 20
180.860131
 30
0.0
 11
39.303178
 21
181.746758
 31
0.0
 11
38.381851
 21
181.122835
 31
0.0
 11
38.042415
 21
180.892969
 31
0.0
 11
37.993924
 21
180.860131
 31
0.0
  0
SPLINE
  5
17a
100
AcDbEntity
  8
0
 62
5
100
AcDbSpline
 70
0
 71
3
 72
10
 73
6
 74
4
 40
0.000000
 40
0.000000
 40
0.000000
 40
0.000000
 40
0.058722
 40
0.469774
 40
1.585488
 40
1.585488
 40
1.585488
 40
1.585488
 10
37.993924
 20
171.845939
 30
0.0
 10
38.010088
 20
171.834900
 30
0.0
 10
38.139397
 20
171.746582
 30
0.0
 10
38.575815
 20
171.448509
 30
0.0
 10
38.996069
 20
171.161476
 30
0.0
 10
39.303178
 20
170.951721
 30
0.0
 11
37.993924
 21
171.845939
 31
0.0
 11
38.042415
 21
171.812820
 31
0.0
 11
38.381851
 21
171.580986
 31
0.0
 11
39.303178
 21
170.951721
 31
0.0
  0
LINE
  5
17b
100
AcDbEntity
  8
0
 62
5
100
AcDbLine
 10
31.731311
 20
167.659342
 30
0.0
 11
30.946138
 21
168.112334
 31
0.0
  0
LINE
  5
17c
100
AcDbEntity
  8
0
 62
5
100
AcDbLine
 10
30.946138
 20
168.112334
 30
0.0
 11
31.198806
 21
168.549970
 31
0.0
  0
LINE
  5
17d
100
AcDbEntity
  8
0
 62
5
100
AcDbLine
 10
31.198806
 20
168.549970
 30
0.0
 11
32.554872
 21
167.767044
 31
0.0
  0
SPLINE
  5
17e
100
AcDbEntity
  8
0
 62
1
100
AcDbSpline
 70
0
 71
3
 72
10
 73
6
 74
4
 40
0.000000
 40
0.000000
 40
0.000000
 40
0.000000
 40
17.849122
 40
24.425114
 40
25.364542
 40
25.364542
 40
25.364542
 40
25.364542
 10
38.570210
 20
163.857066
 30
0.0
 10
33.417613
 20
160.882213
 30
0.0
 10
26.366690
 20
156.811360
 30
0.0
 10
19.044577
 20
152.583937
 30
0.0
 10
16.875062
 20
151.331367
 30
0.0
 10
16.603873
 20
151.174796
 30
0.0
 11
38.570210
 21
163.857066
 31
0.0
 11
23.112417
 21
154.932506
 31
0.0
 11
17.417441
 21
151.644509
 31
0.0
 11
16.603873
 21
151.174796
 31
0.0
  0
LINE
  5
17f
100
AcDbEntity
  8
0
 62
5
100
AcDbLine
 10
23.206099
 20
173.164561
 30
0.0
 11
24.562153
 21
172.381642
 31
0.0
  0
LINE
  5
180
100
AcDbEntity
  8
0
 62
5
100
AcDbLine
 10
24.562153
 20
172.381642
 30
0.0
 11
24.309340
 21
171.943755
 31
0.0
  0
LINE
  5
181
100
AcDbEntity
  8
0
 62
5
100
AcDbLine
 10
24.309340
 20
171.943755
 30
0.0
 11
23.524449
 21
172.397238
 31
0.0
  0
LINE
  5
182
100
AcDbEntity
  8
0
 62
5
100
AcDbLine
 10
31.731308
 20
167.659345
 30
0.0
 11
38.585642
 21
163.701776
 31
0.0
  0
LINE
  5
183
100
AcDbEntity
  8
0
 62
5
100
AcDbLine
 10
16.670091
 20
176.354772
 30
0.0
 11
23.524425
 21
172.397204
 31
0.0
  0
LINE
  5
184
100
AcDbEntity
  8
0
 62
1
100
AcDbLine
 10
29.280793
 20
169.073704
 30
0.0
 11
25.974603
 21
170.982317
 31
0.0
  0
LINE
  5
185
100
AcDbEntity
  8
0
 62
5
100
AcDbLine
 10
16.603727
 20
168.565908
 30
0.0
 11
16.604009
 21
167.659430
 31
0.0
  0
LINE
  5
186
100
AcDbEntity
  8
0
 62
5
100
AcDbLine
 10
16.604009
 20
167.659430
 30
0.0
 11
16.098672
 21
167.659430
 31
0.0
  0
LINE
  5
187
100
AcDbEntity
  8
0
 62
5
100
AcDbLine
 10
16.098672
 20
167.659430
 30
0.0
 11
16.098672
 21
169.225280
 31
0.0
  0
SPLINE
  5
188
100
AcDbEntity
  8
0
 62
5
100
AcDbSpline
 70
0
 71
3
 72
16
 73
12
 74
10
 40
0.000000
 40
0.000000
 40
0.000000
 40
0.000000
 40
0.594052
 40
1.926274
 40
3.438883
 40
6.074693
 40
8.833685
 40
11.469467
 40
12.982643
 40
14.315441
 40
14.909673
 40
14.909673
 40
14.909673
 40
14.909673
 10
32.554872
 20
167.767044
 30
0.0
 10
32.617946
 20
167.954733
 30
0.0
 10
32.822470
 20
168.563335
 30
0.0
 10
33.029058
 20
169.702583
 30
0.0
 10
32.735330
 20
171.565661
 30
0.0
 10
31.091663
 20
173.357708
 30
0.0
 10
28.782312
 20
174.691172
 30
0.0
 10
26.408318
 20
175.218234
 30
0.0
 10
24.647595
 20
174.541526
 30
0.0
 10
23.763057
 20
173.793859
 30
0.0
 10
23.337367
 20
173.312879
 30
0.0
 10
23.206099
 20
173.164561
 30
0.0
 11
32.554872
 21
167.767044
 31
0.0
 11
32.735648
 21
168.332922
 31
0.0
 11
32.947307
 21
169.648223
 31
0.0
 11
32.693844
 21
171.139444
 31
0.0
 11
31.057083
 21
173.205482
 31
0.0
 11
28.667736
 21
174.584993
 31
0.0
 11
26.060138
 21
174.969417
 31
0.0
 11
24.641213
 21
174.443725
 31
0.0
 11
23.606540
 21
173.603603
 31
0.0
 11
23.206099
 21
173.164561
 31
0.0
  0
LINE
  5
189
100
AcDbEntity
  8
0
 62
5
100
AcDbLine
 10
16.098672
 20
158.430246
 30
0.0
 11
16.098672
 21
159.996083
 31
0.0
  0
LINE
  5
18a
100
AcDbEntity
  8
0
 62
5
100
AcDbLine
 10
16.098672
 20
159.996083
 30
0.0
 11
16.604301
 21
159.996083
 31
0.0
  0
LINE
  5
18b
100
AcDbEntity
  8
0
 62
5
100
AcDbLine
 10
16.604301
 20
159.996083
 30
0.0
 11
16.604019
 21
159.089608
 31
0.0
  0
LINE
  5
18c
100
AcDbEntity
  8
0
 62
5
100
AcDbLine
 10
16.603723
 20
168.565902
 30
0.0
 11
16.603912
 21
176.480714
 31
0.0
  0
LINE
  5
18d
100
AcDbEntity
  8
0
 62
5
100
AcDbLine
 10
16.603871
 20
151.174793
 30
0.0
 11
16.604059
 21
159.089605
 31
0.0
  0
LINE
  5
18e
100
AcDbEntity
  8
0
 62
1
100
AcDbLine
 10
16.604111
 20
165.736514
 30
0.0
 11
16.604299
 21
161.918965
 31
0.0
  0
SPLINE
  5
18f
100
AcDbEntity
  8
0
 62
5
100
AcDbSpline
 70
0
 71
3
 72
16
 73
12
 74
10
 40
0.000000
 40
0.000000
 40
0.000000
 40
0.000000
 40
0.594052
 40
1.926273
 40
3.438881
 40
6.074692
 40
8.833683
 40
11.469466
 40
12.982642
 40
14.315439
 40
14.909670
 40
14.909670
 40
14.909670
 40
14.909670
 10
16.098672
 20
169.225280
 30
0.0
 10
15.904591
 20
169.186059
 30
0.0
 10
15.275265
 20
169.058881
 30
0.0
 10
14.185354
 20
168.668168
 30
0.0
 10
12.718744
 20
167.482254
 30
0.0
 10
11.988621
 20
165.162773
 30
0.0
 10
11.988482
 20
162.496085
 30
0.0
 10
12.719031
 20
160.176614
 30
0.0
 10
14.185438
 20
158.990137
 30
0.0
 10
15.275205
 20
158.597938
 30
0.0
 10
15.904590
 20
158.469769
 30
0.0
 10
16.098672
 20
158.430246
 30
0.0
 11
16.098672
 21
169.225280
 31
0.0
 11
15.518219
 21
169.098898
 31
0.0
 11
14.273307
 21
168.624550
 31
0.0
 11
13.108603
 21
167.659435
 31
0.0
 11
12.137743
 21
165.208939
 31
0.0
 11
12.137725
 21
162.449948
 31
0.0
 11
13.108603
 21
159.999489
 31
0.0
 11
14.273328
 21
159.033510
 31
0.0
 11
15.518230
 21
158.557518
 31
0.0
 11
16.098672
 21
158.430246
 31
0.0
  0
LINE
  5
190
100
AcDbEntity
  8
0
 62
5
100
AcDbLine
 10
82.467552
 20
163.789703
 30
0.0
 11
87.417862
 21
168.779564
 31
0.0
  0
LINE
  5
191
100
AcDbEntity
  8
0
 62
5
100
AcDbLine
 10
87.417862
 20
168.779564
 30
0.0
 11
87.417862
 21
184.105766
 31
0.0
  0
LINE
  5
192
100
AcDbEntity
  8
0
 62
5
100
AcDbLine
 10
87.417862
 20
184.105766
 30
0.0
 11
82.467552
 21
189.095627
 31
0.0
  0
LINE
  5
193
100
AcDbEntity
  8
0
 62
1
100
AcDbLine
 10
82.467363
 20
171.039647
 30
0.0
 11
82.467549
 21
163.789703
 31
0.0
  0
LINE
  5
194
100
AcDbEntity
  8
0
 62
1
100
AcDbLine
 10
82.467552
 20
189.095627
 30
0.0
 11
82.467363
 21
181.834684
 31
0.0
  0
SPLINE
  5
195
100
AcDbEntity
  8
0
 62
1
100
AcDbSpline
 70
0
 71
3
 72
10
 73
6
 74
4
 40
0.000000
 40
0.000000
 40
0.000000
 40
0.000000
 40
17.849123
 40
24.425116
 40
25.364543
 40
25.364543
 40
25.364543
 40
25.364543
 10
38.570210
 20
163.857066
 30
0.0
 10
43.722808
 20
160.882212
 30
0.0
 10
50.773731
 20
156.811359
 30
0.0
 10
58.095844
 20
152.583934
 30
0.0
 10
60.265359
 20
151.331364
 30
0.0
 10
60.536548
 20
151.174793
 30
0.0
 11
38.570210
 21
163.857066
 31
0.0
 11
54.028004
 21
154.932504
 31
0.0
 11
59.722980
 21
151.644507
 31
0.0
 11
60.536548
 21
151.174793
 31
0.0
  0
LINE
  5
196
100
AcDbEntity
  8
0
 62
5
100
AcDbLine
 10
83.059270
 20
180.948058
 30
0.0
 11
83.059270
 21
171.933866
 31
0.0
  0
SPLINE
  5
197
100
AcDbEntity
  8
0
 62
5
100
AcDbSpline
 70
0
 71
3
 72
10
 73
6
 74
4
 40
0.000000
 40
0.000000
 40
0.000000
 40
0.000000
 40
1.112710
 40
1.522655
 40
1.581219
 40
1.581219
 40
1.581219
 40
1.581219
 10
81.750016
 20
181.834684
 30
0.0
 10
82.057125
 20
181.626710
 30
0.0
 10
82.477379
 20
181.342114
 30
0.0
 10
82.913797
 20
181.046572
 30
0.0
 10
83.043106
 20
180.959004
 30
0.0
 10
83.059270
 20
180.948058
 30
0.0
 11
81.750016
 21
181.834684
 31
0.0
 11
82.671343
 21
181.210762
 31
0.0
 11
83.010779
 21
180.980896
 31
0.0
 11
83.059270
 21
180.948058
 31
0.0
  0
LINE
  5
198
100
AcDbEntity
  8
0
 62
5
100
AcDbLine
 10
82.467549
 20
163.789706
 30
0.0
 11
80.621358
 21
157.007680
 31
0.0
  0
LINE
  5
199
100
AcDbEntity
  8
0
 62
5
100
AcDbLine
 10
80.621358
 20
157.007680
 30
0.0
 11
67.348478
 21
149.344579
 31
0.0
  0
LINE
  5
19a
100
AcDbEntity
  8
0
 62
5
100
AcDbLine
 10
67.348478
 20
149.344579
 30
0.0
 11
60.551977
 21
151.136744
 31
0.0
  0
LINE
  5
19b
100
AcDbEntity
  8
0
 62
1
100
AcDbLine
 10
76.188818
 20
160.164894
 30
0.0
 11
82.467549
 21
163.789706
 31
0.0
  0
LINE
  5
19c
100
AcDbEntity
  8
0
 62
1
100
AcDbLine
 10
60.551977
 20
151.136744
 30
0.0
 11
66.840044
 21
154.767377
 31
0.0
  0
SPLINE
  5
19d
100
AcDbEntity
  8
0
 62
5
100
AcDbSpline
 70
0
 71
3
 72
10
 73
6
 74
4
 40
0.000000
 40
0.000000
 40
0.000000
 40
0.000000
 40
0.058722
 40
0.469774
 40
1.585488
 40
1.585488
 40
1.585488
 40
1.585488
 10
83.059270
 20
171.933866
 30
0.0
 10
83.043106
 20
171.922826
 30
0.0
 10
82.913797
 20
171.834508
 30
0.0
 10
82.477379
 20
171.536435
 30
0.0
 10
82.057125
 20
171.249402
 30
0.0
 10
81.750016
 20
171.039647
 30
0.0
 11
83.059270
 21
171.933866
 31
0.0
 11
83.010779
 21
171.900746
 31
0.0
 11
82.671343
 21
171.668912
 31
0.0
 11
81.750016
 21
171.039647
 31
0.0
  0
LINE
  5
19e
100
AcDbEntity
  8
0
 62
5
100
AcDbLine
 10
67.903838
 20
154.698083
 30
0.0
 11
75.710359
 21
159.205181
 31
0.0
  0
SPLINE
  5
19f
100
AcDbEntity
  8
0
 62
5
100
AcDbSpline
 70
0
 71
3
 72
10
 73
6
 74
4
 40
0.000000
 40
0.000000
 40
0.000000
 40
0.000000
 40
1.112710
 40
1.522655
 40
1.581219
 40
1.581219
 40
1.581219
 40
1.581219
 10
66.481370
 20
155.388619
 30
0.0
 10
66.815035
 20
155.226641
 30
0.0
 10
67.271630
 20
155.004988
 30
0.0
 10
67.745786
 20
154.774809
 30
0.0
 10
67.886277
 20
154.706608
 30
0.0
 10
67.903838
 20
154.698083
 30
0.0
 11
66.481370
 21
155.388619
 31
0.0
 11
67.482366
 21
154.902686
 31
0.0
 11
67.851154
 21
154.723659
 31
0.0
 11
67.903838
 21
154.698083
 31
0.0
  0
LINE
  5
1a0
100
AcDbEntity
  8
0
 62
5
100
AcDbLine
 10
60.551977
 20
125.830820
 30
0.0
 11
65.502288
 21
130.820681
 31
0.0
  0
LINE
  5
1a1
100
AcDbEntity
  8
0
 62
5
100
AcDbLine
 10
65.502288
 20
130.820681
 30
0.0
 11
65.502288
 21
146.146883
 31
0.0
  0
LINE
  5
1a2
100
AcDbEntity
  8
0
 62
5
100
AcDbLine
 10
65.502288
 20
146.146883
 30
0.0
 11
60.551977
 21
151.136744
 31
0.0
  0
LINE
  5
1a3
100
AcDbEntity
  8
0
 62
1
100
AcDbLine
 10
60.551788
 20
133.080764
 30
0.0
 11
60.551977
 21
125.830820
 31
0.0
  0
LINE
  5
1a4
100
AcDbEntity
  8
0
 62
1
100
AcDbLine
 10
60.551977
 20
151.136744
 30
0.0
 11
60.551791
 21
143.875801
 31
0.0
  0
SPLINE
  5
1a5
100
AcDbEntity
  8
0
 62
5
100
AcDbSpline
 70
0
 71
3
 72
10
 73
6
 74
4
 40
0.000000
 40
0.000000
 40
0.000000
 40
0.000000
 40
0.058722
 40
0.469774
 40
1.585487
 40
1.585487
 40
1.585487
 40
1.585487
 10
75.710359
 20
159.205181
 30
0.0
 10
75.711837
 20
159.224699
 30
0.0
 10
75.723668
 20
159.380842
 30
0.0
 10
75.763597
 20
159.907827
 30
0.0
 10
75.802047
 20
160.415295
 30
0.0
 10
75.830145
 20
160.786136
 30
0.0
 11
75.710359
 21
159.205181
 31
0.0
 11
75.714795
 21
159.263735
 31
0.0
 11
75.745851
 21
159.673612
 31
0.0
 11
75.830145
 21
160.786136
 31
0.0
  0
LINE
  5
1a6
100
AcDbEntity
  8
0
 62
5
100
AcDbLine
 10
61.143696
 20
142.989174
 30
0.0
 11
61.143696
 21
133.974982
 31
0.0
  0
SPLINE
  5
1a7
100
AcDbEntity
  8
0
 62
5
100
AcDbSpline
 70
0
 71
3
 72
10
 73
6
 74
4
 40
0.000000
 40
0.000000
 40
0.000000
 40
0.000000
 40
1.112710
 40
1.522655
 40
1.581219
 40
1.581219
 40
1.581219
 40
1.581219
 10
59.834441
 20
143.875801
 30
0.0
 10
60.141550
 20
143.667827
 30
0.0
 10
60.561805
 20
143.383231
 30
0.0
 10
60.998223
 20
143.087688
 30
0.0
 10
61.127532
 20
143.000120
 30
0.0
 10
61.143696
 20
142.989174
 30
0.0
 11
59.834441
 21
143.875801
 31
0.0
 11
60.755768
 21
143.251878
 31
0.0
 11
61.095205
 21
143.022012
 31
0.0
 11
61.143696
 21
142.989174
 31
0.0
  0
LINE
  5
1a8
100
AcDbEntity
  8
0
 62
5
100
AcDbLine
 10
16.527722
 20
209.756986
 30
0.0
 11
16.528004
 21
210.663464
 31
0.0
  0
LINE
  5
1a9
100
AcDbEntity
  8
0
 62
5
100
AcDbLine
 10
16.528004
 20
210.663464
 30
0.0
 11
16.022667
 21
210.663464
 31
0.0
  0
LINE
  5
1aa
100
AcDbEntity
  8
0
 62
5
100
AcDbLine
 10
16.022667
 20
210.663464
 30
0.0
 11
16.022667
 21
209.097613
 31
0.0
  0
SPLINE
  5
1ab
100
AcDbEntity
  8
0
 62
5
100
AcDbSpline
 70
0
 71
3
 72
10
 73
6
 74
4
 40
0.000000
 40
0.000000
 40
0.000000
 40
0.000000
 40
0.058722
 40
0.469774
 40
1.585488
 40
1.585488
 40
1.585488
 40
1.585488
 10
61.143696
 20
133.974982
 30
0.0
 10
61.127532
 20
133.963943
 30
0.0
 10
60.998223
 20
133.875625
 30
0.0
 10
60.561805
 20
133.577552
 30
0.0
 10
60.141550
 20
133.290519
 30
0.0
 10
59.834441
 20
133.080764
 30
0.0
 11
61.143696
 21
133.974982
 31
0.0
 11
61.095205
 21
133.941863
 31
0.0
 11
60.755768
 21
133.710029
 31
0.0
 11
59.834441
 21
133.080764
 31
0.0
  0
LINE
  5
1ac
100
AcDbEntity
  8
0
 62
5
100
AcDbLine
 10
16.022667
 20
219.892647
 30
0.0
 11
16.022667
 21
218.326810
 31
0.0
  0
LINE
  5
1ad
100
AcDbEntity
  8
0
 62
5
100
AcDbLine
 10
16.022667
 20
218.326810
 30
0.0
 11
16.528296
 21
218.326810
 31
0.0
  0
LINE
  5
1ae
100
AcDbEntity
  8
0
 62
5
100
AcDbLine
 10
16.528296
 20
218.326810
 30
0.0
 11
16.528014
 21
219.233286
 31
0.0
  0
LINE
  5
1af
100
AcDbEntity
  8
0
 62
5
100
AcDbLine
 10
16.527718
 20
209.756992
 30
0.0
 11
16.527906
 21
201.842179
 31
0.0
  0
LINE
  5
1b0
100
AcDbEntity
  8
0
 62
5
100
AcDbLine
 10
16.527866
 20
227.148101
 30
0.0
 11
16.528054
 21
219.233288
 31
0.0
  0
LINE
  5
1b1
100
AcDbEntity
  8
0
 62
1
100
AcDbLine
 10
16.528106
 20
212.586379
 30
0.0
 11
16.528294
 21
216.403929
 31
0.0
  0
LINE
  5
1b2
100
AcDbEntity
  8
0
 62
5
100
AcDbLine
 10
16.603873
 20
125.868872
 30
0.0
 11
11.653563
 21
130.858733
 31
0.0
  0
LINE
  5
1b3
100
AcDbEntity
  8
0
 62
5
100
AcDbLine
 10
11.653563
 20
130.858733
 30
0.0
 11
11.653563
 21
146.184935
 31
0.0
  0
LINE
  5
1b4
100
AcDbEntity
  8
0
 62
5
100
AcDbLine
 10
11.653563
 20
146.184935
 30
0.0
 11
16.603873
 21
151.174796
 31
0.0
  0
LINE
  5
1b5
100
AcDbEntity
  8
0
 62
1
100
AcDbLine
 10
16.604062
 20
133.118816
 30
0.0
 11
16.603874
 21
125.868872
 31
0.0
  0
LINE
  5
1b6
100
AcDbEntity
  8
0
 62
1
100
AcDbLine
 10
16.603873
 20
151.174796
 30
0.0
 11
16.604062
 21
143.913853
 31
0.0
  0
SPLINE
  5
1b7
100
AcDbEntity
  8
0
 62
5
100
AcDbSpline
 70
0
 71
3
 72
16
 73
12
 74
10
 40
0.000000
 40
0.000000
 40
0.000000
 40
0.000000
 40
0.594052
 40
1.926273
 40
3.438881
 40
6.074692
 40
8.833683
 40
11.469466
 40
12.982642
 40
14.315439
 40
14.909670
 40
14.909670
 40
14.909670
 40
14.909670
 10
16.022667
 20
209.097613
 30
0.0
 10
15.828586
 20
209.136834
 30
0.0
 10
15.199259
 20
209.264012
 30
0.0
 10
14.109349
 20
209.654725
 30
0.0
 10
12.642739
 20
210.840639
 30
0.0
 10
11.912616
 20
213.160121
 30
0.0
 10
11.912477
 20
215.826809
 30
0.0
 10
12.643026
 20
218.146279
 30
0.0
 10
14.109433
 20
219.332757
 30
0.0
 10
15.199200
 20
219.724956
 30
0.0
 10
15.828585
 20
219.853124
 30
0.0
 10
16.022667
 20
219.892647
 30
0.0
 11
16.022667
 21
209.097613
 31
0.0
 11
15.442214
 21
209.223996
 31
0.0
 11
14.197301
 21
209.698343
 31
0.0
 11
13.032597
 21
210.663458
 31
0.0
 11
12.061738
 21
213.113954
 31
0.0
 11
12.061719
 21
215.872946
 31
0.0
 11
13.032597
 21
218.323404
 31
0.0
 11
14.197323
 21
219.289383
 31
0.0
 11
15.442225
 21
219.765376
 31
0.0
 11
16.022667
 21
219.892647
 31
0.0
  0
LINE
  5
1b8
100
AcDbEntity
  8
0
 62
5
100
AcDbLine
 10
16.012155
 20
143.027226
 30
0.0
 11
16.012155
 21
134.013034
 31
0.0
  0
SPLINE
  5
1b9
100
AcDbEntity
  8
0
 62
5
100
AcDbSpline
 70
0
 71
3
 72
10
 73
6
 74
4
 40
0.000000
 40
0.000000
 40
0.000000
 40
0.000000
 40
1.112710
 40
1.522655
 40
1.581219
 40
1.581219
 40
1.581219
 40
1.581219
 10
17.321410
 20
143.913853
 30
0.0
 10
17.014301
 20
143.705879
 30
0.0
 10
16.594046
 20
143.421283
 30
0.0
 10
16.157628
 20
143.125740
 30
0.0
 10
16.028319
 20
143.038172
 30
0.0
 10
16.012155
 20
143.027226
 30
0.0
 11
17.321410
 21
143.913853
 31
0.0
 11
16.400083
 21
143.289931
 31
0.0
 11
16.060646
 21
143.060064
 31
0.0
 11
16.012155
 21
143.027226
 31
0.0
  0
LINE
  5
1ba
100
AcDbEntity
  8
0
 62
5
100
AcDbLine
 10
45.490903
 20
117.135138
 30
0.0
 11
46.275794
 21
117.588621
 31
0.0
  0
LINE
  5
1bb
100
AcDbEntity
  8
0
 62
5
100
AcDbLine
 10
46.275794
 20
117.588621
 30
0.0
 11
46.528462
 21
117.150985
 31
0.0
  0
LINE
  5
1bc
100
AcDbEntity
  8
0
 62
5
100
AcDbLine
 10
46.528462
 20
117.150985
 30
0.0
 11
45.172396
 21
116.368061
 31
0.0
  0
SPLINE
  5
1bd
100
AcDbEntity
  8
0
 62
5
100
AcDbSpline
 70
0
 71
3
 72
10
 73
6
 74
4
 40
0.000000
 40
0.000000
 40
0.000000
 40
0.000000
 40
0.058722
 40
0.469774
 40
1.585488
 40
1.585488
 40
1.585488
 40
1.585488
 10
16.012155
 20
134.013034
 30
0.0
 10
16.028319
 20
134.001995
 30
0.0
 10
16.157628
 20
133.913677
 30
0.0
 10
16.594046
 20
133.615604
 30
0.0
 10
17.014301
 20
133.328571
 30
0.0
 10
17.321410
 20
133.118816
 30
0.0
 11
16.012155
 21
134.013034
 31
0.0
 11
16.060646
 21
133.979915
 31
0.0
 11
16.400083
 21
133.748081
 31
0.0
 11
17.321410
 21
133.118816
 31
0.0
  0
LINE
  5
1be
100
AcDbEntity
  8
0
 62
5
100
AcDbLine
 10
54.521171
 20
121.765578
 30
0.0
 11
53.165115
 21
120.982657
 31
0.0
  0
LINE
  5
1bf
100
AcDbEntity
  8
0
 62
5
100
AcDbLine
 10
53.165115
 20
120.982657
 30
0.0
 11
52.912301
 21
121.420544
 31
0.0
  0
LINE
  5
1c0
100
AcDbEntity
  8
0
 62
5
100
AcDbLine
 10
52.912301
 20
121.420544
 30
0.0
 11
53.697471
 21
121.873539
 31
0.0
  0
LINE
  5
1c1
100
AcDbEntity
  8
0
 62
5
100
AcDbLine
 10
45.490909
 20
117.135135
 30
0.0
 11
38.636386
 21
113.177891
 31
0.0
  0
LINE
  5
1c2
100
AcDbEntity
  8
0
 62
5
100
AcDbLine
 10
60.551977
 20
125.830820
 30
0.0
 11
53.697454
 21
121.873576
 31
0.0
  0
LINE
  5
1c3
100
AcDbEntity
  8
0
 62
1
100
AcDbLine
 10
47.941038
 20
118.550166
 30
0.0
 11
51.247037
 21
120.459103
 31
0.0
  0
LINE
  5
1c4
100
AcDbEntity
  8
0
 62
5
100
AcDbLine
 10
16.603874
 20
125.868874
 30
0.0
 11
18.450065
 21
119.086849
 31
0.0
  0
LINE
  5
1c5
100
AcDbEntity
  8
0
 62
5
100
AcDbLine
 10
18.450065
 20
119.086849
 30
0.0
 11
31.722946
 21
111.423748
 31
0.0
  0
LINE
  5
1c6
100
AcDbEntity
  8
0
 62
5
100
AcDbLine
 10
31.722946
 20
111.423748
 30
0.0
 11
38.519447
 21
113.215912
 31
0.0
  0
LINE
  5
1c7
100
AcDbEntity
  8
0
 62
1
100
AcDbLine
 10
22.882606
 20
122.244063
 30
0.0
 11
16.603875
 21
125.868874
 31
0.0
  0
LINE
  5
1c8
100
AcDbEntity
  8
0
 62
1
100
AcDbLine
 10
38.519447
 20
113.215912
 30
0.0
 11
32.231381
 21
116.846546
 31
0.0
  0
SPLINE
  5
1c9
100
AcDbEntity
  8
0
 62
5
100
AcDbSpline
 70
0
 71
3
 72
16
 73
12
 74
10
 40
0.000000
 40
0.000000
 40
0.000000
 40
0.000000
 40
0.594052
 40
1.926274
 40
3.438882
 40
6.074693
 40
8.833685
 40
11.469467
 40
12.982643
 40
14.315441
 40
14.909673
 40
14.909673
 40
14.909673
 40
14.909673
 10
45.172396
 20
116.368061
 30
0.0
 10
45.303403
 20
116.219592
 30
0.0
 10
45.728205
 20
115.738168
 30
0.0
 10
46.611528
 20
114.989633
 30
0.0
 10
48.371865
 20
114.312469
 30
0.0
 10
50.745656
 20
114.839904
 30
0.0
 10
53.055146
 20
116.173128
 30
0.0
 10
54.698590
 20
117.965538
 30
0.0
 10
54.992906
 20
119.828722
 30
0.0
 10
54.787678
 20
120.968588
 30
0.0
 10
54.583983
 20
121.577737
 30
0.0
 10
54.521171
 20
121.765578
 30
0.0
 11
45.172396
 21
116.368061
 31
0.0
 11
45.572072
 21
115.928565
 31
0.0
 11
46.605326
 21
115.087612
 31
0.0
 11
48.023492
 21
114.561506
 31
0.0
 11
50.631114
 21
114.945964
 31
0.0
 11
53.020480
 21
116.325444
 31
0.0
 11
54.657199
 21
118.391478
 31
0.0
 11
54.911399
 21
119.883150
 31
0.0
 11
54.701171
 21
121.199264
 31
0.0
 11
54.521171
 21
121.765578
 31
0.0
  0
LINE
  5
1ca
100
AcDbEntity
  8
0
 62
5
100
AcDbLine
 10
31.167586
 20
116.777252
 30
0.0
 11
23.361066
 21
121.284349
 31
0.0
  0
SPLINE
  5
1cb
100
AcDbEntity
  8
0
 62
5
100
AcDbSpline
 70
0
 71
3
 72
10
 73
6
 74
4
 40
0.000000
 40
0.000000
 40
0.000000
 40
0.000000
 40
1.112710
 40
1.522655
 40
1.581219
 40
1.581219
 40
1.581219
 40
1.581219
 10
32.590054
 20
117.467788
 30
0.0
 10
32.256389
 20
117.305810
 30
0.0
 10
31.799794
 20
117.084157
 30
0.0
 10
31.325638
 20
116.853978
 30
0.0
 10
31.185148
 20
116.785777
 30
0.0
 10
31.167586
 20
116.777252
 30
0.0
 11
32.590054
 21
117.467788
 31
0.0
 11
31.589058
 21
116.981855
 31
0.0
 11
31.220270
 21
116.802827
 31
0.0
 11
31.167586
 21
116.777252
 31
0.0
  0
SPLINE
  5
1cc
100
AcDbEntity
  8
0
 62
5
100
AcDbSpline
 70
0
 71
3
 72
10
 73
6
 74
4
 40
0.000000
 40
0.000000
 40
0.000000
 40
0.000000
 40
0.058722
 40
0.469774
 40
1.585487
 40
1.585487
 40
1.585487
 40
1.585487
 10
23.361066
 20
121.284349
 30
0.0
 10
23.359588
 20
121.303867
 30
0.0
 10
23.347757
 20
121.460011
 30
0.0
 10
23.307828
 20
121.986996
 30
0.0
 10
23.269378
 20
122.494463
 30
0.0
 10
23.241280
 20
122.865305
 30
0.0
 11
23.361066
 21
121.284349
 31
0.0
 11
23.356630
 21
121.342903
 31
0.0
 11
23.325574
 21
121.752781
 31
0.0
 11
23.241280
 21
122.865305
 31
0.0
  0
ENDSEC
  0
SECTION
  2
OBJECTS
  0
DICTIONARY
  5
C
330
0
100
AcDbDictionary
  3
ACAD_GROUP
350
D
  3
ACAD_MLINESTYLE
350
17
  0
DICTIONARY
  5
D
330
C
100
AcDbDictionary
  0
DICTIONARY
  5
1A
330
C
100
AcDbDictionary
  0
DICTIONARY
  5
17
330
C
100
AcDbDictionary
  3
STANDARD
350
18
  0
DICTIONARY
  5
19
330
C
100
AcDbDictionary
  0
ENDSEC
  0
EOF
