999
DXF created by Inkscape
  0
SECTION
  2
HEADER
  9
$ACADVER
  1
AC1014
  9
$HANDSEED
  5
FFFF
  9
$MEASUREMENT
 70
     1
  0
ENDSEC
  0
SECTION
  2
TABLES
  0
TABLE
  2
VPORT
  5
8
330
0
100
AcDbSymbolTable
 70
     4
  0
VPORT
  5
2E
330
8
100
AcDbSymbolTableRecord
100
AcDbViewportTableRecord
  2
*ACTIVE
 70
     0
 10
0.0
 20
0.0
 11
1.0
 21
1.0
 12
210.0
 22
148.5
 13
0.0
 23
0.0
 14
10.0
 24
10.0
 15
10.0
 25
10.0
 16
0.0
 26
0.0
 36
1.0
 17
0.0
 27
0.0
 37
0.0
 40
341.0
 41
1.24
 42
50.0
 43
0.0
 44
0.0
 50
0.0
 51
0.0
 71
     0
 72
   100
 73
     1
 74
     3
 75
     0
 76
     0
 77
     0
 78
     0
  0
ENDTAB
  0
TABLE
  2
LTYPE
  5
5
330
0
100
AcDbSymbolTable
 70
     1
  0
LTYPE
  5
14
330
5
100
AcDbSymbolTableRecord
100
AcDbLinetypeTableRecord
  2
BYBLOCK
 70
     0
  3

 72
    65
 73
     0
 40
0.0
  0
LTYPE
  5
15
330
5
100
AcDbSymbolTableRecord
100
AcDbLinetypeTableRecord
  2
BYLAYER
 70
     0
  3

 72
    65
 73
     0
 40
0.0
  0
LTYPE
  5
16
330
5
100
AcDbSymbolTableRecord
100
AcDbLinetypeTableRecord
  2
CONTINUOUS
 70
     0
  3
Solid line
 72
    65
 73
     0
 40
0.0
  0
ENDTAB
  0
TABLE
  2
LAYER
  5
2
330
0
100
AcDbSymbolTable
 70
1
  0
LAYER
  5
10
330
2
100
AcDbSymbolTableRecord
100
AcDbLayerTableRecord
  2
0
 70
     0
 62
     7
  6
CONTINUOUS
  0
ENDTAB
  0
TABLE
  2
STYLE
  5
3
330
0
100
AcDbSymbolTable
 70
     1
  0
STYLE
  5
11
330
3
100
AcDbSymbolTableRecord
100
AcDbTextStyleTableRecord
  2
STANDARD
 70
     0
 40
0.0
 41
1.0
 50
0.0
 71
     0
 42
2.5
  3
txt
  4

  0
ENDTAB
  0
TABLE
  2
VIEW
  5
6
330
0
100
AcDbSymbolTable
 70
     0
  0
ENDTAB
  0
TABLE
  2
UCS
  5
7
330
0
100
AcDbSymbolTable
 70
     0
  0
ENDTAB
  0
TABLE
  2
APPID
  5
9
330
0
100
AcDbSymbolTable
 70
     2
  0
APPID
  5
12
330
9
100
AcDbSymbolTableRecord
100
AcDbRegAppTableRecord
  2
ACAD
 70
     0
  0
ENDTAB
  0
TABLE
  2
DIMSTYLE
  5
A
330
0
100
AcDbSymbolTable
 70
     1
  0
DIMSTYLE
105
27
330
A
100
AcDbSymbolTableRecord
100
AcDbDimStyleTableRecord
  2
ISO-25
 70
     0
  3

  4

  5

  6

  7

 40
1.0
 41
2.5
 42
0.625
 43
3.75
 44
1.25
 45
0.0
 46
0.0
 47
0.0
 48
0.0
140
2.5
141
2.5
142
0.0
143
0.03937007874016
144
1.0
145
0.0
146
1.0
147
0.625
 71
     0
 72
     0
 73
     0
 74
     0
 75
     0
 76
     0
 77
     1
 78
     8
170
     0
171
     3
172
     1
173
     0
174
     0
175
     0
176
     0
177
     0
178
     0
270
     2
271
     2
272
     2
273
     2
274
     3
340
11
275
     0
280
     0
281
     0
282
     0
283
     0
284
     8
285
     0
286
     0
287
     3
288
     0
  0
ENDTAB
  0
TABLE
  2
BLOCK_RECORD
  5
1
330
0
100
AcDbSymbolTable
 70
     1
  0
BLOCK_RECORD
  5
1F
330
1
100
AcDbSymbolTableRecord
100
AcDbBlockTableRecord
  2
*MODEL_SPACE
  0
BLOCK_RECORD
  5
1B
330
1
100
AcDbSymbolTableRecord
100
AcDbBlockTableRecord
  2
*PAPER_SPACE
  0
ENDTAB
  0
ENDSEC
  0
SECTION
  2
BLOCKS
  0
BLOCK
  5
20
330
1F
100
AcDbEntity
  8
0
100
AcDbBlockBegin
  2
*MODEL_SPACE
 70
     0
 10
0.0
 20
0.0
 30
0.0
  3
*MODEL_SPACE
  1

  0
ENDBLK
  5
21
330
1F
100
AcDbEntity
  8
0
100
AcDbBlockEnd
  0
BLOCK
  5
1C
330
1B
100
AcDbEntity
 67
     1
  8
0
100
AcDbBlockBegin
  2
*PAPER_SPACE
  1

  0
ENDBLK
  5
1D
330
1B
100
AcDbEntity
 67
     1
  8
0
100
AcDbBlockEnd
  0
ENDSEC
  0
SECTION
  2
ENTITIES
  0
LINE
  5
100
100
AcDbEntity
  8
0
 62
5
100
AcDbLine
 10
125.766988
 20
227.242727
 30
0.0
 11
124.981815
 21
227.695719
 31
0.0
  0
LINE
  5
101
100
AcDbEntity
  8
0
 62
5
100
AcDbLine
 10
124.981815
 20
227.695719
 30
0.0
 11
125.234483
 21
228.133355
 31
0.0
  0
LINE
  5
102
100
AcDbEntity
  8
0
 62
5
100
AcDbLine
 10
125.234483
 20
228.133355
 30
0.0
 11
126.590552
 21
227.350429
 31
0.0
  0
LINE
  5
103
100
AcDbEntity
  8
0
 62
5
100
AcDbLine
 10
117.241777
 20
232.747946
 30
0.0
 11
118.597832
 21
231.965027
 31
0.0
  0
LINE
  5
104
100
AcDbEntity
  8
0
 62
5
100
AcDbLine
 10
118.597832
 20
231.965027
 30
0.0
 11
118.345018
 21
231.527140
 31
0.0
  0
LINE
  5
105
100
AcDbEntity
  8
0
 62
5
100
AcDbLine
 10
118.345018
 20
231.527140
 30
0.0
 11
117.560127
 21
231.980623
 31
0.0
  0
LINE
  5
106
100
AcDbEntity
  8
0
 62
5
100
AcDbLine
 10
125.766988
 20
227.242730
 30
0.0
 11
132.621322
 21
223.285161
 31
0.0
  0
LINE
  5
107
100
AcDbEntity
  8
0
 62
5
100
AcDbLine
 10
110.705770
 20
235.938157
 30
0.0
 11
117.560104
 21
231.980589
 31
0.0
  0
LINE
  5
108
100
AcDbEntity
  8
0
 62
1
100
AcDbLine
 10
123.316469
 20
228.657089
 30
0.0
 11
120.010281
 21
230.565702
 31
0.0
  0
LINE
  5
109
100
AcDbEntity
  8
0
 62
1
100
AcDbLine
 10
110.764509
 20
235.904197
 30
0.0
 11
98.145473
 21
214.047385
 31
0.0
  0
LINE
  5
10a
100
AcDbEntity
  8
0
 62
5
100
AcDbLine
 10
123.925889
 20
208.223944
 30
0.0
 11
124.378881
 21
209.009117
 31
0.0
  0
LINE
  5
10b
100
AcDbEntity
  8
0
 62
5
100
AcDbLine
 10
124.378881
 20
209.009117
 30
0.0
 11
124.816517
 21
208.756449
 31
0.0
  0
LINE
  5
10c
100
AcDbEntity
  8
0
 62
5
100
AcDbLine
 10
124.816517
 20
208.756449
 30
0.0
 11
124.033590
 21
207.400380
 31
0.0
  0
SPLINE
  5
10d
100
AcDbEntity
  8
0
 62
5
100
AcDbSpline
 70
0
 71
3
 72
16
 73
12
 74
10
 40
0.000000
 40
0.000000
 40
0.000000
 40
0.000000
 40
0.594052
 40
1.926274
 40
3.438882
 40
6.074693
 40
8.833683
 40
11.469465
 40
12.982642
 40
14.315440
 40
14.909672
 40
14.909672
 40
14.909672
 40
14.909672
 10
126.590552
 20
227.350429
 30
0.0
 10
126.653626
 20
227.538118
 30
0.0
 10
126.858148
 20
228.146721
 30
0.0
 10
127.064735
 20
229.285968
 30
0.0
 10
126.771006
 20
231.149046
 30
0.0
 10
125.127341
 20
232.941093
 30
0.0
 10
122.817991
 20
234.274557
 30
0.0
 10
120.443997
 20
234.801618
 30
0.0
 10
118.683273
 20
234.124911
 30
0.0
 10
117.798735
 20
233.377244
 30
0.0
 10
117.373046
 20
232.896264
 30
0.0
 10
117.241777
 20
232.747946
 30
0.0
 11
126.590552
 21
227.350429
 31
0.0
 11
126.771327
 21
227.916307
 31
0.0
 11
126.982984
 21
229.231608
 31
0.0
 11
126.729521
 21
230.722829
 31
0.0
 11
125.092761
 21
232.788866
 31
0.0
 11
122.703414
 21
234.168378
 31
0.0
 11
120.095817
 21
234.552802
 31
0.0
 11
118.676891
 21
234.027110
 31
0.0
 11
117.642218
 21
233.186988
 31
0.0
 11
117.241777
 21
232.747946
 31
0.0
  0
LINE
  5
10e
100
AcDbEntity
  8
0
 62
5
100
AcDbLine
 10
129.431107
 20
216.749154
 30
0.0
 11
128.648189
 21
215.393099
 31
0.0
  0
LINE
  5
10f
100
AcDbEntity
  8
0
 62
5
100
AcDbLine
 10
128.648189
 20
215.393099
 30
0.0
 11
128.210302
 21
215.645914
 31
0.0
  0
LINE
  5
110
100
AcDbEntity
  8
0
 62
5
100
AcDbLine
 10
128.210302
 20
215.645914
 30
0.0
 11
128.663785
 21
216.430805
 31
0.0
  0
LINE
  5
111
100
AcDbEntity
  8
0
 62
5
100
AcDbLine
 10
123.925892
 20
208.223944
 30
0.0
 11
119.968323
 21
201.369610
 31
0.0
  0
LINE
  5
112
100
AcDbEntity
  8
0
 62
5
100
AcDbLine
 10
132.621319
 20
223.285161
 30
0.0
 11
128.663751
 21
216.430827
 31
0.0
  0
LINE
  5
113
100
AcDbEntity
  8
0
 62
1
100
AcDbLine
 10
125.340251
 20
210.674462
 30
0.0
 11
127.248864
 21
213.980650
 31
0.0
  0
LINE
  5
114
100
AcDbEntity
  8
0
 62
5
100
AcDbLine
 10
136.112817
 20
192.097351
 30
0.0
 11
131.122956
 21
197.047661
 31
0.0
  0
LINE
  5
115
100
AcDbEntity
  8
0
 62
5
100
AcDbLine
 10
131.122956
 20
197.047661
 30
0.0
 11
115.796751
 21
197.047661
 31
0.0
  0
LINE
  5
116
100
AcDbEntity
  8
0
 62
5
100
AcDbLine
 10
115.796751
 20
197.047661
 30
0.0
 11
110.806893
 21
192.097351
 31
0.0
  0
LINE
  5
117
100
AcDbEntity
  8
0
 62
1
100
AcDbLine
 10
128.862870
 20
192.097162
 30
0.0
 11
136.112817
 21
192.097348
 31
0.0
  0
LINE
  5
118
100
AcDbEntity
  8
0
 62
1
100
AcDbLine
 10
110.806893
 20
192.097351
 30
0.0
 11
118.067836
 21
192.097162
 31
0.0
  0
SPLINE
  5
119
100
AcDbEntity
  8
0
 62
5
100
AcDbSpline
 70
0
 71
3
 72
16
 73
12
 74
10
 40
0.000000
 40
0.000000
 40
0.000000
 40
0.000000
 40
0.594052
 40
1.926274
 40
3.438882
 40
6.074693
 40
8.833683
 40
11.469465
 40
12.982642
 40
14.315440
 40
14.909672
 40
14.909672
 40
14.909672
 40
14.909672
 10
124.033590
 20
207.400380
 30
0.0
 10
124.221280
 20
207.337306
 30
0.0
 10
124.829882
 20
207.132783
 30
0.0
 10
125.969130
 20
206.926197
 30
0.0
 10
127.832208
 20
207.219925
 30
0.0
 10
129.624255
 20
208.863591
 30
0.0
 10
130.957719
 20
211.172941
 30
0.0
 10
131.484780
 20
213.546935
 30
0.0
 10
130.808073
 20
215.307658
 30
0.0
 10
130.060406
 20
216.192196
 30
0.0
 10
129.579426
 20
216.617886
 30
0.0
 10
129.431107
 20
216.749154
 30
0.0
 11
124.033590
 21
207.400380
 31
0.0
 11
124.599469
 21
207.219604
 31
0.0
 11
125.914770
 21
207.007947
 31
0.0
 11
127.405991
 21
207.261411
 31
0.0
 11
129.472028
 21
208.898171
 31
0.0
 11
130.851540
 21
211.287517
 31
0.0
 11
131.235964
 21
213.895114
 31
0.0
 11
130.710271
 21
215.314041
 31
0.0
 11
129.870150
 21
216.348713
 31
0.0
 11
129.431107
 21
216.749154
 31
0.0
  0
LINE
  5
11a
100
AcDbEntity
  8
0
 62
5
100
AcDbLine
 10
118.954460
 20
192.689069
 30
0.0
 11
127.968654
 21
192.689069
 31
0.0
  0
SPLINE
  5
11b
100
AcDbEntity
  8
0
 62
5
100
AcDbSpline
 70
0
 71
3
 72
10
 73
6
 74
4
 40
0.000000
 40
0.000000
 40
0.000000
 40
0.000000
 40
1.112709
 40
1.522654
 40
1.581217
 40
1.581217
 40
1.581217
 40
1.581217
 10
118.067836
 20
191.379815
 30
0.0
 10
118.275809
 20
191.686924
 30
0.0
 10
118.560405
 20
192.107178
 30
0.0
 10
118.855946
 20
192.543597
 30
0.0
 10
118.943514
 20
192.672906
 30
0.0
 10
118.954460
 20
192.689069
 30
0.0
 11
118.067836
 21
191.379815
 31
0.0
 11
118.691756
 21
192.301142
 31
0.0
 11
118.921622
 21
192.640578
 31
0.0
 11
118.954460
 21
192.689069
 31
0.0
  0
LINE
  5
11c
100
AcDbEntity
  8
0
 62
5
100
AcDbLine
 10
136.141319
 20
192.097362
 30
0.0
 11
134.349154
 21
198.893863
 31
0.0
  0
LINE
  5
11d
100
AcDbEntity
  8
0
 62
5
100
AcDbLine
 10
134.349154
 20
198.893863
 30
0.0
 11
142.012255
 21
212.166746
 31
0.0
  0
LINE
  5
11e
100
AcDbEntity
  8
0
 62
5
100
AcDbLine
 10
142.012255
 20
212.166746
 30
0.0
 11
148.794278
 21
214.012937
 31
0.0
  0
LINE
  5
11f
100
AcDbEntity
  8
0
 62
1
100
AcDbLine
 10
139.766455
 20
198.375906
 30
0.0
 11
136.141319
 21
192.097362
 31
0.0
  0
LINE
  5
120
100
AcDbEntity
  8
0
 62
1
100
AcDbLine
 10
148.794278
 20
214.012937
 30
0.0
 11
145.163972
 21
207.724681
 31
0.0
  0
SPLINE
  5
121
100
AcDbEntity
  8
0
 62
5
100
AcDbSpline
 70
0
 71
3
 72
10
 73
6
 74
4
 40
0.000000
 40
0.000000
 40
0.000000
 40
0.000000
 40
0.058722
 40
0.469774
 40
1.585487
 40
1.585487
 40
1.585487
 40
1.585487
 10
127.968654
 20
192.689069
 30
0.0
 10
127.979694
 20
192.672906
 30
0.0
 10
128.068012
 20
192.543597
 30
0.0
 10
128.366083
 20
192.107178
 30
0.0
 10
128.653116
 20
191.686924
 30
0.0
 10
128.862870
 20
191.379815
 30
0.0
 11
127.968654
 21
192.689069
 31
0.0
 11
128.001773
 21
192.640578
 31
0.0
 11
128.233607
 21
192.301142
 31
0.0
 11
128.862870
 21
191.379815
 31
0.0
  0
LINE
  5
122
100
AcDbEntity
  8
0
 62
5
100
AcDbLine
 10
144.208054
 20
207.252794
 30
0.0
 11
139.700957
 21
199.446274
 31
0.0
  0
SPLINE
  5
123
100
AcDbEntity
  8
0
 62
5
100
AcDbSpline
 70
0
 71
3
 72
10
 73
6
 74
4
 40
0.000000
 40
0.000000
 40
0.000000
 40
0.000000
 40
1.112709
 40
1.522654
 40
1.581217
 40
1.581217
 40
1.581217
 40
1.581217
 10
145.785213
 20
207.366005
 30
0.0
 10
145.415263
 20
207.339449
 30
0.0
 10
144.909014
 20
207.303110
 30
0.0
 10
144.383294
 20
207.265373
 30
0.0
 10
144.227525
 20
207.254192
 30
0.0
 10
144.208054
 20
207.252794
 30
0.0
 11
145.785213
 21
207.366005
 31
0.0
 11
144.675361
 21
207.286338
 31
0.0
 11
144.266467
 21
207.256987
 31
0.0
 11
144.208054
 21
207.252794
 31
0.0
  0
LINE
  5
124
100
AcDbEntity
  8
0
 62
5
100
AcDbLine
 10
174.100205
 20
214.012937
 30
0.0
 11
169.110344
 21
218.963247
 31
0.0
  0
LINE
  5
125
100
AcDbEntity
  8
0
 62
5
100
AcDbLine
 10
169.110344
 20
218.963247
 30
0.0
 11
153.784139
 21
218.963247
 31
0.0
  0
LINE
  5
126
100
AcDbEntity
  8
0
 62
5
100
AcDbLine
 10
153.784139
 20
218.963247
 30
0.0
 11
148.794281
 21
214.012937
 31
0.0
  0
LINE
  5
127
100
AcDbEntity
  8
0
 62
1
100
AcDbLine
 10
166.850258
 20
214.012747
 30
0.0
 11
174.100205
 21
214.012934
 31
0.0
  0
LINE
  5
128
100
AcDbEntity
  8
0
 62
1
100
AcDbLine
 10
148.794281
 20
214.012937
 30
0.0
 11
156.055224
 21
214.012747
 31
0.0
  0
SPLINE
  5
129
100
AcDbEntity
  8
0
 62
5
100
AcDbSpline
 70
0
 71
3
 72
10
 73
6
 74
4
 40
0.000000
 40
0.000000
 40
0.000000
 40
0.000000
 40
0.058722
 40
0.469774
 40
1.585487
 40
1.585487
 40
1.585487
 40
1.585487
 10
139.700957
 20
199.446274
 30
0.0
 10
139.709435
 20
199.428631
 30
0.0
 10
139.777261
 20
199.287491
 30
0.0
 10
140.006174
 20
198.811144
 30
0.0
 10
140.226609
 20
198.352440
 30
0.0
 10
140.387697
 20
198.017233
 30
0.0
 11
139.700957
 21
199.446274
 31
0.0
 11
139.726392
 21
199.393346
 31
0.0
 11
139.904435
 21
199.022854
 31
0.0
 11
140.387697
 21
198.017233
 31
0.0
  0
LINE
  5
12a
100
AcDbEntity
  8
0
 62
5
100
AcDbLine
 10
156.941847
 20
214.604655
 30
0.0
 11
165.956042
 21
214.604655
 31
0.0
  0
SPLINE
  5
12b
100
AcDbEntity
  8
0
 62
5
100
AcDbSpline
 70
0
 71
3
 72
10
 73
6
 74
4
 40
0.000000
 40
0.000000
 40
0.000000
 40
0.000000
 40
1.112709
 40
1.522654
 40
1.581217
 40
1.581217
 40
1.581217
 40
1.581217
 10
156.055224
 20
213.295401
 30
0.0
 10
156.263197
 20
213.602510
 30
0.0
 10
156.547792
 20
214.022764
 30
0.0
 10
156.843334
 20
214.459182
 30
0.0
 10
156.930901
 20
214.588491
 30
0.0
 10
156.941847
 20
214.604655
 30
0.0
 11
156.055224
 21
213.295401
 31
0.0
 11
156.679144
 21
214.216728
 31
0.0
 11
156.909009
 21
214.556164
 31
0.0
 11
156.941847
 21
214.604655
 31
0.0
  0
LINE
  5
12c
100
AcDbEntity
  8
0
 62
5
100
AcDbLine
 10
186.753164
 20
192.097362
 30
0.0
 11
188.545329
 21
198.893863
 31
0.0
  0
LINE
  5
12d
100
AcDbEntity
  8
0
 62
5
100
AcDbLine
 10
188.545329
 20
198.893863
 30
0.0
 11
180.882228
 21
212.166746
 31
0.0
  0
LINE
  5
12e
100
AcDbEntity
  8
0
 62
5
100
AcDbLine
 10
180.882228
 20
212.166746
 30
0.0
 11
174.100205
 21
214.012937
 31
0.0
  0
LINE
  5
12f
100
AcDbEntity
  8
0
 62
1
100
AcDbLine
 10
183.128028
 20
198.375906
 30
0.0
 11
186.753164
 21
192.097362
 31
0.0
  0
LINE
  5
130
100
AcDbEntity
  8
0
 62
1
100
AcDbLine
 10
174.100205
 20
214.012937
 30
0.0
 11
177.730511
 21
207.724681
 31
0.0
  0
SPLINE
  5
131
100
AcDbEntity
  8
0
 62
5
100
AcDbSpline
 70
0
 71
3
 72
10
 73
6
 74
4
 40
0.000000
 40
0.000000
 40
0.000000
 40
0.000000
 40
0.058722
 40
0.469774
 40
1.585487
 40
1.585487
 40
1.585487
 40
1.585487
 10
165.956042
 20
214.604655
 30
0.0
 10
165.967082
 20
214.588491
 30
0.0
 10
166.055399
 20
214.459182
 30
0.0
 10
166.353471
 20
214.022764
 30
0.0
 10
166.640503
 20
213.602510
 30
0.0
 10
166.850258
 20
213.295401
 30
0.0
 11
165.956042
 21
214.604655
 31
0.0
 11
165.989161
 21
214.556164
 31
0.0
 11
166.220995
 21
214.216728
 31
0.0
 11
166.850258
 21
213.295401
 31
0.0
  0
LINE
  5
132
100
AcDbEntity
  8
0
 62
5
100
AcDbLine
 10
178.686429
 20
207.252794
 30
0.0
 11
183.193526
 21
199.446274
 31
0.0
  0
SPLINE
  5
133
100
AcDbEntity
  8
0
 62
5
100
AcDbSpline
 70
0
 71
3
 72
10
 73
6
 74
4
 40
0.000000
 40
0.000000
 40
0.000000
 40
0.000000
 40
1.112709
 40
1.522654
 40
1.581217
 40
1.581217
 40
1.581217
 40
1.581217
 10
177.109270
 20
207.366005
 30
0.0
 10
177.479221
 20
207.339449
 30
0.0
 10
177.985469
 20
207.303110
 30
0.0
 10
178.511189
 20
207.265373
 30
0.0
 10
178.666958
 20
207.254192
 30
0.0
 10
178.686429
 20
207.252794
 30
0.0
 11
177.109270
 21
207.366005
 31
0.0
 11
178.219122
 21
207.286338
 31
0.0
 11
178.628016
 21
207.256987
 31
0.0
 11
178.686429
 21
207.252794
 31
0.0
  0
LINE
  5
134
100
AcDbEntity
  8
0
 62
5
100
AcDbLine
 10
178.057734
 20
177.036144
 30
0.0
 11
178.510726
 21
177.821318
 31
0.0
  0
LINE
  5
135
100
AcDbEntity
  8
0
 62
5
100
AcDbLine
 10
178.510726
 20
177.821318
 30
0.0
 11
178.948362
 21
177.568650
 31
0.0
  0
LINE
  5
136
100
AcDbEntity
  8
0
 62
5
100
AcDbLine
 10
178.948362
 20
177.568650
 30
0.0
 11
178.165435
 21
176.212580
 31
0.0
  0
SPLINE
  5
137
100
AcDbEntity
  8
0
 62
5
100
AcDbSpline
 70
0
 71
3
 72
10
 73
6
 74
4
 40
0.000000
 40
0.000000
 40
0.000000
 40
0.000000
 40
0.058722
 40
0.469774
 40
1.585487
 40
1.585487
 40
1.585487
 40
1.585487
 10
183.193526
 20
199.446274
 30
0.0
 10
183.185048
 20
199.428631
 30
0.0
 10
183.117222
 20
199.287491
 30
0.0
 10
182.888309
 20
198.811144
 30
0.0
 10
182.667874
 20
198.352440
 30
0.0
 10
182.506787
 20
198.017233
 30
0.0
 11
183.193526
 21
199.446274
 31
0.0
 11
183.168092
 21
199.393346
 31
0.0
 11
182.990048
 21
199.022854
 31
0.0
 11
182.506787
 21
198.017233
 31
0.0
  0
LINE
  5
138
100
AcDbEntity
  8
0
 62
5
100
AcDbLine
 10
183.562952
 20
185.561355
 30
0.0
 11
182.780034
 21
184.205300
 31
0.0
  0
LINE
  5
139
100
AcDbEntity
  8
0
 62
5
100
AcDbLine
 10
182.780034
 20
184.205300
 30
0.0
 11
182.342147
 21
184.458115
 31
0.0
  0
LINE
  5
13a
100
AcDbEntity
  8
0
 62
5
100
AcDbLine
 10
182.342147
 20
184.458115
 30
0.0
 11
182.795630
 21
185.243006
 31
0.0
  0
LINE
  5
13b
100
AcDbEntity
  8
0
 62
5
100
AcDbLine
 10
178.057737
 20
177.036144
 30
0.0
 11
174.100168
 21
170.181810
 31
0.0
  0
LINE
  5
13c
100
AcDbEntity
  8
0
 62
5
100
AcDbLine
 10
186.753164
 20
192.097362
 30
0.0
 11
182.795596
 21
185.243028
 31
0.0
  0
LINE
  5
13d
100
AcDbEntity
  8
0
 62
1
100
AcDbLine
 10
179.472096
 20
179.486663
 30
0.0
 11
181.380709
 21
182.792851
 31
0.0
  0
LINE
  5
13e
100
AcDbEntity
  8
0
 62
5
100
AcDbLine
 10
174.100355
 20
152.858548
 30
0.0
 11
174.100072
 21
153.765026
 31
0.0
  0
LINE
  5
13f
100
AcDbEntity
  8
0
 62
5
100
AcDbLine
 10
174.100072
 20
153.765026
 30
0.0
 11
174.605408
 21
153.765026
 31
0.0
  0
LINE
  5
140
100
AcDbEntity
  8
0
 62
5
100
AcDbLine
 10
174.605408
 20
153.765026
 30
0.0
 11
174.605408
 21
152.199175
 31
0.0
  0
SPLINE
  5
141
100
AcDbEntity
  8
0
 62
5
100
AcDbSpline
 70
0
 71
3
 72
16
 73
12
 74
10
 40
0.000000
 40
0.000000
 40
0.000000
 40
0.000000
 40
0.594052
 40
1.926274
 40
3.438882
 40
6.074693
 40
8.833683
 40
11.469465
 40
12.982642
 40
14.315440
 40
14.909672
 40
14.909672
 40
14.909672
 40
14.909672
 10
178.165435
 20
176.212580
 30
0.0
 10
178.353125
 20
176.149507
 30
0.0
 10
178.961727
 20
175.944984
 30
0.0
 10
180.100975
 20
175.738397
 30
0.0
 10
181.964053
 20
176.032126
 30
0.0
 10
183.756100
 20
177.675792
 30
0.0
 10
185.089564
 20
179.985141
 30
0.0
 10
185.616625
 20
182.359135
 30
0.0
 10
184.939918
 20
184.119859
 30
0.0
 10
184.192251
 20
185.004397
 30
0.0
 10
183.711271
 20
185.430087
 30
0.0
 10
183.562952
 20
185.561355
 30
0.0
 11
178.165435
 21
176.212580
 31
0.0
 11
178.731314
 21
176.031805
 31
0.0
 11
180.046615
 21
175.820148
 31
0.0
 11
181.537836
 21
176.073611
 31
0.0
 11
183.603873
 21
177.710372
 31
0.0
 11
184.983385
 21
180.099718
 31
0.0
 11
185.367809
 21
182.707315
 31
0.0
 11
184.842116
 21
184.126242
 31
0.0
 11
184.001995
 21
185.160914
 31
0.0
 11
183.562952
 21
185.561355
 31
0.0
  0
LINE
  5
142
100
AcDbEntity
  8
0
 62
5
100
AcDbLine
 10
174.605408
 20
162.994209
 30
0.0
 11
174.605408
 21
161.428372
 31
0.0
  0
LINE
  5
143
100
AcDbEntity
  8
0
 62
5
100
AcDbLine
 10
174.605408
 20
161.428372
 30
0.0
 11
174.099779
 21
161.428372
 31
0.0
  0
LINE
  5
144
100
AcDbEntity
  8
0
 62
5
100
AcDbLine
 10
174.099779
 20
161.428372
 30
0.0
 11
174.100061
 21
162.334847
 31
0.0
  0
LINE
  5
145
100
AcDbEntity
  8
0
 62
5
100
AcDbLine
 10
174.100357
 20
152.858553
 30
0.0
 11
174.100168
 21
144.943741
 31
0.0
  0
LINE
  5
146
100
AcDbEntity
  8
0
 62
5
100
AcDbLine
 10
174.100211
 20
170.249662
 30
0.0
 11
174.100022
 21
162.334850
 31
0.0
  0
LINE
  5
147
100
AcDbEntity
  8
0
 62
1
100
AcDbLine
 10
174.099971
 20
155.687941
 30
0.0
 11
174.099782
 21
159.505490
 31
0.0
  0
LINE
  5
148
100
AcDbEntity
  8
0
 62
1
100
AcDbLine
 10
174.100168
 20
170.181810
 30
0.0
 11
148.862096
 21
170.181810
 31
0.0
  0
LINE
  5
149
100
AcDbEntity
  8
0
 62
5
100
AcDbLine
 10
156.709054
 20
144.943594
 30
0.0
 11
157.615532
 21
144.943876
 31
0.0
  0
LINE
  5
14a
100
AcDbEntity
  8
0
 62
5
100
AcDbLine
 10
157.615532
 20
144.943876
 30
0.0
 11
157.615532
 21
144.438541
 31
0.0
  0
LINE
  5
14b
100
AcDbEntity
  8
0
 62
5
100
AcDbLine
 10
157.615532
 20
144.438541
 30
0.0
 11
156.049681
 21
144.438541
 31
0.0
  0
SPLINE
  5
14c
100
AcDbEntity
  8
0
 62
5
100
AcDbSpline
 70
0
 71
3
 72
16
 73
12
 74
10
 40
0.000000
 40
0.000000
 40
0.000000
 40
0.000000
 40
0.594052
 40
1.926273
 40
3.438880
 40
6.074691
 40
8.833683
 40
11.469466
 40
12.982641
 40
14.315438
 40
14.909670
 40
14.909670
 40
14.909670
 40
14.909670
 10
174.605408
 20
152.199175
 30
0.0
 10
174.799489
 20
152.238396
 30
0.0
 10
175.428815
 20
152.365574
 30
0.0
 10
176.518726
 20
152.756287
 30
0.0
 10
177.985335
 20
153.942201
 30
0.0
 10
178.715459
 20
156.261682
 30
0.0
 10
178.715598
 20
158.928371
 30
0.0
 10
177.985048
 20
161.247841
 30
0.0
 10
176.518641
 20
162.434318
 30
0.0
 10
175.428875
 20
162.826517
 30
0.0
 10
174.799490
 20
162.954686
 30
0.0
 10
174.605408
 20
162.994209
 30
0.0
 11
174.605408
 21
152.199175
 31
0.0
 11
175.185861
 21
152.325557
 31
0.0
 11
176.430773
 21
152.799905
 31
0.0
 11
177.595476
 21
153.765020
 31
0.0
 11
178.566337
 21
156.215516
 31
0.0
 11
178.566355
 21
158.974507
 31
0.0
 11
177.595476
 21
161.424966
 31
0.0
 11
176.430752
 21
162.390945
 31
0.0
 11
175.185850
 21
162.866937
 31
0.0
 11
174.605408
 21
162.994209
 31
0.0
  0
LINE
  5
14d
100
AcDbEntity
  8
0
 62
5
100
AcDbLine
 10
166.844715
 20
144.438541
 30
0.0
 11
165.278878
 21
144.438541
 31
0.0
  0
LINE
  5
14e
100
AcDbEntity
  8
0
 62
5
100
AcDbLine
 10
165.278878
 20
144.438541
 30
0.0
 11
165.278878
 21
144.944170
 31
0.0
  0
LINE
  5
14f
100
AcDbEntity
  8
0
 62
5
100
AcDbLine
 10
165.278878
 20
144.944170
 30
0.0
 11
166.185353
 21
144.943888
 31
0.0
  0
LINE
  5
150
100
AcDbEntity
  8
0
 62
5
100
AcDbLine
 10
156.709059
 20
144.943591
 30
0.0
 11
148.794247
 21
144.943781
 31
0.0
  0
LINE
  5
151
100
AcDbEntity
  8
0
 62
5
100
AcDbLine
 10
174.100168
 20
144.943738
 30
0.0
 11
166.185356
 21
144.943927
 31
0.0
  0
LINE
  5
152
100
AcDbEntity
  8
0
 62
1
100
AcDbLine
 10
159.538447
 20
144.943978
 30
0.0
 11
163.355996
 21
144.944167
 31
0.0
  0
LINE
  5
153
100
AcDbEntity
  8
0
 62
5
100
AcDbLine
 10
148.862138
 20
126.418516
 30
0.0
 11
150.654303
 21
133.215017
 31
0.0
  0
LINE
  5
154
100
AcDbEntity
  8
0
 62
5
100
AcDbLine
 10
150.654303
 20
133.215017
 30
0.0
 11
142.991202
 21
146.487900
 31
0.0
  0
LINE
  5
155
100
AcDbEntity
  8
0
 62
5
100
AcDbLine
 10
142.991202
 20
146.487900
 30
0.0
 11
136.209179
 21
148.334091
 31
0.0
  0
LINE
  5
156
100
AcDbEntity
  8
0
 62
1
100
AcDbLine
 10
145.237002
 20
132.697060
 30
0.0
 11
148.862138
 21
126.418516
 31
0.0
  0
LINE
  5
157
100
AcDbEntity
  8
0
 62
1
100
AcDbLine
 10
136.209179
 20
148.334091
 30
0.0
 11
139.839486
 21
142.045835
 31
0.0
  0
SPLINE
  5
158
100
AcDbEntity
  8
0
 62
5
100
AcDbSpline
 70
0
 71
3
 72
16
 73
12
 74
10
 40
0.000000
 40
0.000000
 40
0.000000
 40
0.000000
 40
0.594052
 40
1.926273
 40
3.438880
 40
6.074691
 40
8.833683
 40
11.469466
 40
12.982641
 40
14.315438
 40
14.909670
 40
14.909670
 40
14.909670
 40
14.909670
 10
156.049681
 20
144.438541
 30
0.0
 10
156.088902
 20
144.244460
 30
0.0
 10
156.216080
 20
143.615134
 30
0.0
 10
156.606793
 20
142.525223
 30
0.0
 10
157.792707
 20
141.058614
 30
0.0
 10
160.112188
 20
140.328489
 30
0.0
 10
162.778877
 20
140.328351
 30
0.0
 10
165.098347
 20
141.058901
 30
0.0
 10
166.284824
 20
142.525307
 30
0.0
 10
166.677023
 20
143.615074
 30
0.0
 10
166.805192
 20
144.244459
 30
0.0
 10
166.844715
 20
144.438541
 30
0.0
 11
156.049681
 21
144.438541
 31
0.0
 11
156.176063
 21
143.858088
 31
0.0
 11
156.650411
 21
142.613176
 31
0.0
 11
157.615526
 21
141.448472
 31
0.0
 11
160.066022
 21
140.477612
 31
0.0
 11
162.825013
 21
140.477593
 31
0.0
 11
165.275472
 21
141.448472
 31
0.0
 11
166.241451
 21
142.613197
 31
0.0
 11
166.717443
 21
143.858099
 31
0.0
 11
166.844715
 21
144.438541
 31
0.0
  0
LINE
  5
159
100
AcDbEntity
  8
0
 62
5
100
AcDbLine
 10
140.795403
 20
141.573948
 30
0.0
 11
145.302501
 21
133.767428
 31
0.0
  0
SPLINE
  5
15a
100
AcDbEntity
  8
0
 62
5
100
AcDbSpline
 70
0
 71
3
 72
10
 73
6
 74
4
 40
0.000000
 40
0.000000
 40
0.000000
 40
0.000000
 40
1.112709
 40
1.522654
 40
1.581217
 40
1.581217
 40
1.581217
 40
1.581217
 10
139.218244
 20
141.687159
 30
0.0
 10
139.588195
 20
141.660603
 30
0.0
 10
140.094443
 20
141.624264
 30
0.0
 10
140.620163
 20
141.586527
 30
0.0
 10
140.775932
 20
141.575346
 30
0.0
 10
140.795403
 20
141.573948
 30
0.0
 11
139.218244
 21
141.687159
 31
0.0
 11
140.328097
 21
141.607492
 31
0.0
 11
140.736990
 21
141.578141
 31
0.0
 11
140.795403
 21
141.573948
 31
0.0
  0
LINE
  5
15b
100
AcDbEntity
  8
0
 62
5
100
AcDbLine
 10
174.168062
 20
126.418516
 30
0.0
 11
169.178201
 21
131.368827
 31
0.0
  0
LINE
  5
15c
100
AcDbEntity
  8
0
 62
5
100
AcDbLine
 10
169.178201
 20
131.368827
 30
0.0
 11
153.851997
 21
131.368827
 31
0.0
  0
LINE
  5
15d
100
AcDbEntity
  8
0
 62
5
100
AcDbLine
 10
153.851997
 20
131.368827
 30
0.0
 11
148.862138
 21
126.418516
 31
0.0
  0
LINE
  5
15e
100
AcDbEntity
  8
0
 62
1
100
AcDbLine
 10
166.918115
 20
126.418327
 30
0.0
 11
174.168062
 21
126.418513
 31
0.0
  0
LINE
  5
15f
100
AcDbEntity
  8
0
 62
1
100
AcDbLine
 10
148.862138
 20
126.418516
 30
0.0
 11
156.123081
 21
126.418327
 31
0.0
  0
SPLINE
  5
160
100
AcDbEntity
  8
0
 62
5
100
AcDbSpline
 70
0
 71
3
 72
10
 73
6
 74
4
 40
0.000000
 40
0.000000
 40
0.000000
 40
0.000000
 40
0.058722
 40
0.469774
 40
1.585487
 40
1.585487
 40
1.585487
 40
1.585487
 10
145.302501
 20
133.767428
 30
0.0
 10
145.294022
 20
133.749785
 30
0.0
 10
145.226196
 20
133.608645
 30
0.0
 10
144.997283
 20
133.132299
 30
0.0
 10
144.776848
 20
132.673594
 30
0.0
 10
144.615761
 20
132.338387
 30
0.0
 11
145.302501
 21
133.767428
 31
0.0
 11
145.277066
 21
133.714500
 31
0.0
 11
145.099022
 21
133.344008
 31
0.0
 11
144.615761
 21
132.338387
 31
0.0
  0
LINE
  5
161
100
AcDbEntity
  8
0
 62
5
100
AcDbLine
 10
157.009705
 20
127.010235
 30
0.0
 11
166.023900
 21
127.010235
 31
0.0
  0
SPLINE
  5
162
100
AcDbEntity
  8
0
 62
5
100
AcDbSpline
 70
0
 71
3
 72
10
 73
6
 74
4
 40
0.000000
 40
0.000000
 40
0.000000
 40
0.000000
 40
1.112709
 40
1.522654
 40
1.581217
 40
1.581217
 40
1.581217
 40
1.581217
 10
156.123081
 20
125.700980
 30
0.0
 10
156.331055
 20
126.008089
 30
0.0
 10
156.615650
 20
126.428344
 30
0.0
 10
156.911191
 20
126.864762
 30
0.0
 10
156.998759
 20
126.994071
 30
0.0
 10
157.009705
 20
127.010235
 30
0.0
 11
156.123081
 21
125.700980
 31
0.0
 11
156.747002
 21
126.622308
 31
0.0
 11
156.976867
 21
126.961744
 31
0.0
 11
157.009705
 21
127.010235
 31
0.0
  0
LINE
  5
163
100
AcDbEntity
  8
0
 62
5
100
AcDbLine
 10
186.821022
 20
104.502942
 30
0.0
 11
188.613186
 21
111.299443
 31
0.0
  0
LINE
  5
164
100
AcDbEntity
  8
0
 62
5
100
AcDbLine
 10
188.613186
 20
111.299443
 30
0.0
 11
180.950085
 21
124.572326
 31
0.0
  0
LINE
  5
165
100
AcDbEntity
  8
0
 62
5
100
AcDbLine
 10
180.950085
 20
124.572326
 30
0.0
 11
174.168062
 21
126.418516
 31
0.0
  0
LINE
  5
166
100
AcDbEntity
  8
0
 62
1
100
AcDbLine
 10
183.195886
 20
110.781486
 30
0.0
 11
186.821022
 21
104.502942
 31
0.0
  0
LINE
  5
167
100
AcDbEntity
  8
0
 62
1
100
AcDbLine
 10
174.168062
 20
126.418516
 30
0.0
 11
177.798369
 21
120.130261
 31
0.0
  0
SPLINE
  5
168
100
AcDbEntity
  8
0
 62
5
100
AcDbSpline
 70
0
 71
3
 72
10
 73
6
 74
4
 40
0.000000
 40
0.000000
 40
0.000000
 40
0.000000
 40
0.058722
 40
0.469774
 40
1.585487
 40
1.585487
 40
1.585487
 40
1.585487
 10
166.023900
 20
127.010235
 30
0.0
 10
166.034939
 20
126.994071
 30
0.0
 10
166.123257
 20
126.864762
 30
0.0
 10
166.421329
 20
126.428344
 30
0.0
 10
166.708361
 20
126.008089
 30
0.0
 10
166.918115
 20
125.700980
 30
0.0
 11
166.023900
 21
127.010235
 31
0.0
 11
166.057019
 21
126.961744
 31
0.0
 11
166.288852
 21
126.622308
 31
0.0
 11
166.918115
 21
125.700980
 31
0.0
  0
LINE
  5
169
100
AcDbEntity
  8
0
 62
5
100
AcDbLine
 10
178.754286
 20
119.658374
 30
0.0
 11
183.261384
 21
111.851853
 31
0.0
  0
SPLINE
  5
16a
100
AcDbEntity
  8
0
 62
5
100
AcDbSpline
 70
0
 71
3
 72
10
 73
6
 74
4
 40
0.000000
 40
0.000000
 40
0.000000
 40
0.000000
 40
1.112709
 40
1.522654
 40
1.581217
 40
1.581217
 40
1.581217
 40
1.581217
 10
177.177127
 20
119.771585
 30
0.0
 10
177.547078
 20
119.745029
 30
0.0
 10
178.053327
 20
119.708690
 30
0.0
 10
178.579047
 20
119.670953
 30
0.0
 10
178.734815
 20
119.659772
 30
0.0
 10
178.754286
 20
119.658374
 30
0.0
 11
177.177127
 21
119.771585
 31
0.0
 11
178.286980
 21
119.691918
 31
0.0
 11
178.695873
 21
119.662567
 31
0.0
 11
178.754286
 21
119.658374
 31
0.0
  0
LINE
  5
16b
100
AcDbEntity
  8
0
 62
5
100
AcDbLine
 10
83.374402
 20
135.113969
 30
0.0
 11
84.159575
 21
134.660977
 31
0.0
  0
LINE
  5
16c
100
AcDbEntity
  8
0
 62
5
100
AcDbLine
 10
84.159575
 20
134.660977
 30
0.0
 11
83.906908
 21
134.223341
 31
0.0
  0
LINE
  5
16d
100
AcDbEntity
  8
0
 62
5
100
AcDbLine
 10
83.906908
 20
134.223341
 30
0.0
 11
82.550838
 21
135.006268
 31
0.0
  0
SPLINE
  5
16e
100
AcDbEntity
  8
0
 62
5
100
AcDbSpline
 70
0
 71
3
 72
10
 73
6
 74
4
 40
0.000000
 40
0.000000
 40
0.000000
 40
0.000000
 40
0.058722
 40
0.469774
 40
1.585487
 40
1.585487
 40
1.585487
 40
1.585487
 10
183.261384
 20
111.851853
 30
0.0
 10
183.252906
 20
111.834211
 30
0.0
 10
183.185079
 20
111.693071
 30
0.0
 10
182.956166
 20
111.216724
 30
0.0
 10
182.735731
 20
110.758020
 30
0.0
 10
182.574644
 20
110.422813
 30
0.0
 11
183.261384
 21
111.851853
 31
0.0
 11
183.235949
 21
111.798926
 31
0.0
 11
183.057905
 21
111.428434
 31
0.0
 11
182.574644
 21
110.422813
 31
0.0
  0
LINE
  5
16f
100
AcDbEntity
  8
0
 62
5
100
AcDbLine
 10
91.899613
 20
129.608751
 30
0.0
 11
90.543558
 21
130.391669
 31
0.0
  0
LINE
  5
170
100
AcDbEntity
  8
0
 62
5
100
AcDbLine
 10
90.543558
 20
130.391669
 30
0.0
 11
90.796372
 21
130.829557
 31
0.0
  0
LINE
  5
171
100
AcDbEntity
  8
0
 62
5
100
AcDbLine
 10
90.796372
 20
130.829557
 30
0.0
 11
91.581264
 21
130.376073
 31
0.0
  0
LINE
  5
172
100
AcDbEntity
  8
0
 62
5
100
AcDbLine
 10
83.374402
 20
135.113966
 30
0.0
 11
76.520068
 21
139.071535
 31
0.0
  0
LINE
  5
173
100
AcDbEntity
  8
0
 62
5
100
AcDbLine
 10
98.435620
 20
126.418539
 30
0.0
 11
91.581286
 21
130.376107
 31
0.0
  0
LINE
  5
174
100
AcDbEntity
  8
0
 62
1
100
AcDbLine
 10
85.824921
 20
133.699607
 30
0.0
 11
89.131109
 21
131.790994
 31
0.0
  0
LINE
  5
175
100
AcDbEntity
  8
0
 62
1
100
AcDbLine
 10
98.376881
 20
126.452493
 30
0.0
 11
110.995914
 21
148.309312
 31
0.0
  0
LINE
  5
176
100
AcDbEntity
  8
0
 62
5
100
AcDbLine
 10
85.215499
 20
154.132750
 30
0.0
 11
84.762507
 21
153.347577
 31
0.0
  0
LINE
  5
177
100
AcDbEntity
  8
0
 62
5
100
AcDbLine
 10
84.762507
 20
153.347577
 30
0.0
 11
84.324870
 21
153.600244
 31
0.0
  0
LINE
  5
178
100
AcDbEntity
  8
0
 62
5
100
AcDbLine
 10
84.324870
 20
153.600244
 30
0.0
 11
85.107797
 21
154.956314
 31
0.0
  0
SPLINE
  5
179
100
AcDbEntity
  8
0
 62
5
100
AcDbSpline
 70
0
 71
3
 72
16
 73
12
 74
10
 40
0.000000
 40
0.000000
 40
0.000000
 40
0.000000
 40
0.594052
 40
1.926274
 40
3.438882
 40
6.074693
 40
8.833683
 40
11.469465
 40
12.982642
 40
14.315440
 40
14.909672
 40
14.909672
 40
14.909672
 40
14.909672
 10
82.550838
 20
135.006268
 30
0.0
 10
82.487765
 20
134.818578
 30
0.0
 10
82.283242
 20
134.209976
 30
0.0
 10
82.076655
 20
133.070728
 30
0.0
 10
82.370384
 20
131.207650
 30
0.0
 10
84.014049
 20
129.415603
 30
0.0
 10
86.323399
 20
128.082139
 30
0.0
 10
88.697393
 20
127.555078
 30
0.0
 10
90.458117
 20
128.231785
 30
0.0
 10
91.342655
 20
128.979452
 30
0.0
 10
91.768345
 20
129.460432
 30
0.0
 10
91.899613
 20
129.608751
 30
0.0
 11
82.550838
 21
135.006268
 31
0.0
 11
82.370063
 21
134.440389
 31
0.0
 11
82.158406
 21
133.125088
 31
0.0
 11
82.411869
 21
131.633867
 31
0.0
 11
84.048630
 21
129.567830
 31
0.0
 11
86.437976
 21
128.188318
 31
0.0
 11
89.045573
 21
127.803894
 31
0.0
 11
90.464500
 21
128.329587
 31
0.0
 11
91.499172
 21
129.169708
 31
0.0
 11
91.899613
 21
129.608751
 31
0.0
  0
LINE
  5
17a
100
AcDbEntity
  8
0
 62
5
100
AcDbLine
 10
79.710280
 20
145.607539
 30
0.0
 11
80.493198
 21
146.963594
 31
0.0
  0
LINE
  5
17b
100
AcDbEntity
  8
0
 62
5
100
AcDbLine
 10
80.493198
 20
146.963594
 30
0.0
 11
80.931086
 21
146.710780
 31
0.0
  0
LINE
  5
17c
100
AcDbEntity
  8
0
 62
5
100
AcDbLine
 10
80.931086
 20
146.710780
 30
0.0
 11
80.477603
 21
145.925888
 31
0.0
  0
LINE
  5
17d
100
AcDbEntity
  8
0
 62
5
100
AcDbLine
 10
85.215496
 20
154.132750
 30
0.0
 11
89.173064
 21
160.987084
 31
0.0
  0
LINE
  5
17e
100
AcDbEntity
  8
0
 62
5
100
AcDbLine
 10
76.520068
 20
139.071532
 30
0.0
 11
80.477637
 21
145.925866
 31
0.0
  0
LINE
  5
17f
100
AcDbEntity
  8
0
 62
1
100
AcDbLine
 10
83.801136
 20
151.682231
 30
0.0
 11
81.892524
 21
148.376043
 31
0.0
  0
LINE
  5
180
100
AcDbEntity
  8
0
 62
1
100
AcDbLine
 10
136.209176
 20
148.334091
 30
0.0
 11
110.971104
 21
148.334091
 31
0.0
  0
LINE
  5
181
100
AcDbEntity
  8
0
 62
5
100
AcDbLine
 10
98.376881
 20
126.452493
 30
0.0
 11
96.584716
 21
119.655992
 31
0.0
  0
LINE
  5
182
100
AcDbEntity
  8
0
 62
5
100
AcDbLine
 10
96.584716
 20
119.655992
 30
0.0
 11
104.247817
 21
106.383109
 31
0.0
  0
LINE
  5
183
100
AcDbEntity
  8
0
 62
5
100
AcDbLine
 10
104.247817
 20
106.383109
 30
0.0
 11
111.029840
 21
104.536919
 31
0.0
  0
LINE
  5
184
100
AcDbEntity
  8
0
 62
1
100
AcDbLine
 10
102.002017
 20
120.173949
 30
0.0
 11
98.376881
 21
126.452493
 31
0.0
  0
LINE
  5
185
100
AcDbEntity
  8
0
 62
1
100
AcDbLine
 10
111.029840
 20
104.536919
 30
0.0
 11
107.399534
 21
110.825174
 31
0.0
  0
SPLINE
  5
186
100
AcDbEntity
  8
0
 62
5
100
AcDbSpline
 70
0
 71
3
 72
16
 73
12
 74
10
 40
0.000000
 40
0.000000
 40
0.000000
 40
0.000000
 40
0.594052
 40
1.926274
 40
3.438882
 40
6.074693
 40
8.833683
 40
11.469465
 40
12.982642
 40
14.315440
 40
14.909672
 40
14.909672
 40
14.909672
 40
14.909672
 10
85.107797
 20
154.956314
 30
0.0
 10
84.920107
 20
155.019387
 30
0.0
 10
84.311505
 20
155.223910
 30
0.0
 10
83.172257
 20
155.430497
 30
0.0
 10
81.309180
 20
155.136768
 30
0.0
 10
79.517132
 20
153.493103
 30
0.0
 10
78.183668
 20
151.183753
 30
0.0
 10
77.656607
 20
148.809759
 30
0.0
 10
78.333314
 20
147.049035
 30
0.0
 10
79.080982
 20
146.164497
 30
0.0
 10
79.561962
 20
145.738807
 30
0.0
 10
79.710280
 20
145.607539
 30
0.0
 11
85.107797
 21
154.956314
 31
0.0
 11
84.541918
 21
155.137089
 31
0.0
 11
83.226618
 21
155.348746
 31
0.0
 11
81.735397
 21
155.095283
 31
0.0
 11
79.669359
 21
153.458522
 31
0.0
 11
78.289848
 21
151.069176
 31
0.0
 11
77.905424
 21
148.461579
 31
0.0
 11
78.431116
 21
147.042652
 31
0.0
 11
79.271238
 21
146.007980
 31
0.0
 11
79.710280
 21
145.607539
 31
0.0
  0
LINE
  5
187
100
AcDbEntity
  8
0
 62
5
100
AcDbLine
 10
106.443616
 20
111.297061
 30
0.0
 11
101.936519
 21
119.103582
 31
0.0
  0
SPLINE
  5
188
100
AcDbEntity
  8
0
 62
5
100
AcDbSpline
 70
0
 71
3
 72
10
 73
6
 74
4
 40
0.000000
 40
0.000000
 40
0.000000
 40
0.000000
 40
1.112709
 40
1.522654
 40
1.581217
 40
1.581217
 40
1.581217
 40
1.581217
 10
108.020776
 20
111.183850
 30
0.0
 10
107.650825
 20
111.210406
 30
0.0
 10
107.144576
 20
111.246745
 30
0.0
 10
106.618856
 20
111.284482
 30
0.0
 10
106.463087
 20
111.295663
 30
0.0
 10
106.443616
 20
111.297061
 30
0.0
 11
108.020776
 21
111.183850
 31
0.0
 11
106.910923
 21
111.263517
 31
0.0
 11
106.502030
 21
111.292868
 31
0.0
 11
106.443616
 21
111.297061
 31
0.0
  0
LINE
  5
189
100
AcDbEntity
  8
0
 62
5
100
AcDbLine
 10
186.821022
 20
104.502945
 30
0.0
 11
188.613186
 21
97.706444
 31
0.0
  0
LINE
  5
18a
100
AcDbEntity
  8
0
 62
5
100
AcDbLine
 10
188.613186
 20
97.706444
 30
0.0
 11
180.950085
 21
84.433561
 31
0.0
  0
LINE
  5
18b
100
AcDbEntity
  8
0
 62
5
100
AcDbLine
 10
180.950085
 20
84.433561
 30
0.0
 11
174.168062
 21
82.587370
 31
0.0
  0
LINE
  5
18c
100
AcDbEntity
  8
0
 62
1
100
AcDbLine
 10
183.195886
 20
98.224401
 30
0.0
 11
186.821022
 21
104.502945
 31
0.0
  0
LINE
  5
18d
100
AcDbEntity
  8
0
 62
1
100
AcDbLine
 10
174.168062
 20
82.587370
 30
0.0
 11
177.798369
 21
88.875626
 31
0.0
  0
SPLINE
  5
18e
100
AcDbEntity
  8
0
 62
5
100
AcDbSpline
 70
0
 71
3
 72
10
 73
6
 74
4
 40
0.000000
 40
0.000000
 40
0.000000
 40
0.000000
 40
0.058722
 40
0.469774
 40
1.585487
 40
1.585487
 40
1.585487
 40
1.585487
 10
101.936519
 20
119.103582
 30
0.0
 10
101.944997
 20
119.121224
 30
0.0
 10
102.012823
 20
119.262364
 30
0.0
 10
102.241737
 20
119.738711
 30
0.0
 10
102.462172
 20
120.197415
 30
0.0
 10
102.623259
 20
120.532622
 30
0.0
 11
101.936519
 21
119.103582
 31
0.0
 11
101.961954
 21
119.156509
 31
0.0
 11
102.139997
 21
119.527001
 31
0.0
 11
102.623259
 21
120.532622
 31
0.0
  0
LINE
  5
18f
100
AcDbEntity
  8
0
 62
5
100
AcDbLine
 10
178.754286
 20
89.347513
 30
0.0
 11
183.261384
 21
97.154033
 31
0.0
  0
SPLINE
  5
190
100
AcDbEntity
  8
0
 62
5
100
AcDbSpline
 70
0
 71
3
 72
10
 73
6
 74
4
 40
0.000000
 40
0.000000
 40
0.000000
 40
0.000000
 40
1.112709
 40
1.522654
 40
1.581217
 40
1.581217
 40
1.581217
 40
1.581217
 10
177.177127
 20
89.234302
 30
0.0
 10
177.547078
 20
89.260858
 30
0.0
 10
178.053327
 20
89.297197
 30
0.0
 10
178.579047
 20
89.334934
 30
0.0
 10
178.734815
 20
89.346115
 30
0.0
 10
178.754286
 20
89.347513
 30
0.0
 11
177.177127
 21
89.234302
 31
0.0
 11
178.286980
 21
89.313969
 31
0.0
 11
178.695873
 21
89.343320
 31
0.0
 11
178.754286
 21
89.347513
 31
0.0
  0
LINE
  5
191
100
AcDbEntity
  8
0
 62
5
100
AcDbLine
 10
156.776945
 20
82.587226
 30
0.0
 11
157.683423
 21
82.587509
 31
0.0
  0
LINE
  5
192
100
AcDbEntity
  8
0
 62
5
100
AcDbLine
 10
157.683423
 20
82.587509
 30
0.0
 11
157.683423
 21
82.082173
 31
0.0
  0
LINE
  5
193
100
AcDbEntity
  8
0
 62
5
100
AcDbLine
 10
157.683423
 20
82.082173
 30
0.0
 11
156.117572
 21
82.082173
 31
0.0
  0
SPLINE
  5
194
100
AcDbEntity
  8
0
 62
5
100
AcDbSpline
 70
0
 71
3
 72
10
 73
6
 74
4
 40
0.000000
 40
0.000000
 40
0.000000
 40
0.000000
 40
0.058722
 40
0.469774
 40
1.585487
 40
1.585487
 40
1.585487
 40
1.585487
 10
183.261384
 20
97.154033
 30
0.0
 10
183.252906
 20
97.171676
 30
0.0
 10
183.185079
 20
97.312816
 30
0.0
 10
182.956166
 20
97.789162
 30
0.0
 10
182.735731
 20
98.247867
 30
0.0
 10
182.574644
 20
98.583074
 30
0.0
 11
183.261384
 21
97.154033
 31
0.0
 11
183.235949
 21
97.206961
 31
0.0
 11
183.057905
 21
97.577453
 31
0.0
 11
182.574644
 21
98.583074
 31
0.0
  0
LINE
  5
195
100
AcDbEntity
  8
0
 62
5
100
AcDbLine
 10
166.912606
 20
82.082173
 30
0.0
 11
165.346769
 21
82.082173
 31
0.0
  0
LINE
  5
196
100
AcDbEntity
  8
0
 62
5
100
AcDbLine
 10
165.346769
 20
82.082173
 30
0.0
 11
165.346769
 21
82.587802
 31
0.0
  0
LINE
  5
197
100
AcDbEntity
  8
0
 62
5
100
AcDbLine
 10
165.346769
 20
82.587802
 30
0.0
 11
166.253245
 21
82.587520
 31
0.0
  0
LINE
  5
198
100
AcDbEntity
  8
0
 62
5
100
AcDbLine
 10
156.776951
 20
82.587224
 30
0.0
 11
148.862138
 21
82.587413
 31
0.0
  0
LINE
  5
199
100
AcDbEntity
  8
0
 62
5
100
AcDbLine
 10
174.168060
 20
82.587370
 30
0.0
 11
166.253247
 21
82.587559
 31
0.0
  0
LINE
  5
19a
100
AcDbEntity
  8
0
 62
1
100
AcDbLine
 10
159.606338
 20
82.587610
 30
0.0
 11
163.423888
 21
82.587799
 31
0.0
  0
LINE
  5
19b
100
AcDbEntity
  8
0
 62
5
100
AcDbLine
 10
136.209176
 20
104.502984
 30
0.0
 11
134.417012
 21
97.706483
 31
0.0
  0
LINE
  5
19c
100
AcDbEntity
  8
0
 62
5
100
AcDbLine
 10
134.417012
 20
97.706483
 30
0.0
 11
142.080113
 21
84.433600
 31
0.0
  0
LINE
  5
19d
100
AcDbEntity
  8
0
 62
5
100
AcDbLine
 10
142.080113
 20
84.433600
 30
0.0
 11
148.862136
 21
82.587410
 31
0.0
  0
LINE
  5
19e
100
AcDbEntity
  8
0
 62
1
100
AcDbLine
 10
139.834312
 20
98.224440
 30
0.0
 11
136.209176
 21
104.502984
 31
0.0
  0
LINE
  5
19f
100
AcDbEntity
  8
0
 62
1
100
AcDbLine
 10
148.862136
 20
82.587410
 30
0.0
 11
145.231829
 21
88.875665
 31
0.0
  0
SPLINE
  5
1a0
100
AcDbEntity
  8
0
 62
5
100
AcDbSpline
 70
0
 71
3
 72
16
 73
12
 74
10
 40
0.000000
 40
0.000000
 40
0.000000
 40
0.000000
 40
0.594052
 40
1.926273
 40
3.438880
 40
6.074691
 40
8.833683
 40
11.469466
 40
12.982641
 40
14.315438
 40
14.909670
 40
14.909670
 40
14.909670
 40
14.909670
 10
156.117572
 20
82.082173
 30
0.0
 10
156.156793
 20
81.888092
 30
0.0
 10
156.283971
 20
81.258766
 30
0.0
 10
156.674684
 20
80.168855
 30
0.0
 10
157.860599
 20
78.702246
 30
0.0
 10
160.180080
 20
77.972122
 30
0.0
 10
162.846768
 20
77.971983
 30
0.0
 10
165.166238
 20
78.702533
 30
0.0
 10
166.352716
 20
80.168940
 30
0.0
 10
166.744915
 20
81.258706
 30
0.0
 10
166.873083
 20
81.888091
 30
0.0
 10
166.912606
 20
82.082173
 30
0.0
 11
156.117572
 21
82.082173
 31
0.0
 11
156.243955
 21
81.501720
 31
0.0
 11
156.718303
 21
80.256808
 31
0.0
 11
157.683417
 21
79.092105
 31
0.0
 11
160.133913
 21
78.121244
 31
0.0
 11
162.892905
 21
78.121226
 31
0.0
 11
165.343363
 21
79.092105
 31
0.0
 11
166.309343
 21
80.256829
 31
0.0
 11
166.785335
 21
81.501731
 31
0.0
 11
166.912606
 21
82.082173
 31
0.0
  0
LINE
  5
1a1
100
AcDbEntity
  8
0
 62
5
100
AcDbLine
 10
144.275912
 20
89.347552
 30
0.0
 11
139.768814
 21
97.154073
 31
0.0
  0
SPLINE
  5
1a2
100
AcDbEntity
  8
0
 62
5
100
AcDbSpline
 70
0
 71
3
 72
10
 73
6
 74
4
 40
0.000000
 40
0.000000
 40
0.000000
 40
0.000000
 40
1.112709
 40
1.522654
 40
1.581217
 40
1.581217
 40
1.581217
 40
1.581217
 10
145.853071
 20
89.234342
 30
0.0
 10
145.483120
 20
89.260897
 30
0.0
 10
144.976871
 20
89.297236
 30
0.0
 10
144.451152
 20
89.334973
 30
0.0
 10
144.295383
 20
89.346154
 30
0.0
 10
144.275912
 20
89.347552
 30
0.0
 11
145.853071
 21
89.234342
 31
0.0
 11
144.743218
 21
89.314008
 31
0.0
 11
144.334325
 21
89.343359
 31
0.0
 11
144.275912
 21
89.347552
 31
0.0
  0
LINE
  5
1a3
100
AcDbEntity
  8
0
 62
1
100
AcDbLine
 10
148.760355
 20
170.240549
 30
0.0
 11
136.141319
 21
192.097362
 31
0.0
  0
LINE
  5
1a4
100
AcDbEntity
  8
0
 62
1
100
AcDbLine
 10
148.862138
 20
126.418516
 30
0.0
 11
136.243102
 21
104.561703
 31
0.0
  0
LINE
  5
1a5
100
AcDbEntity
  8
0
 62
5
100
AcDbLine
 10
136.209176
 20
104.502981
 30
0.0
 11
131.219315
 21
99.552671
 31
0.0
  0
LINE
  5
1a6
100
AcDbEntity
  8
0
 62
5
100
AcDbLine
 10
131.219315
 20
99.552671
 30
0.0
 11
115.893111
 21
99.552671
 31
0.0
  0
LINE
  5
1a7
100
AcDbEntity
  8
0
 62
5
100
AcDbLine
 10
115.893111
 20
99.552671
 30
0.0
 11
110.903252
 21
104.502981
 31
0.0
  0
LINE
  5
1a8
100
AcDbEntity
  8
0
 62
1
100
AcDbLine
 10
128.959229
 20
104.503171
 30
0.0
 11
136.209176
 21
104.502984
 31
0.0
  0
LINE
  5
1a9
100
AcDbEntity
  8
0
 62
1
100
AcDbLine
 10
110.903252
 20
104.502981
 30
0.0
 11
118.164195
 21
104.503171
 31
0.0
  0
SPLINE
  5
1aa
100
AcDbEntity
  8
0
 62
5
100
AcDbSpline
 70
0
 71
3
 72
10
 73
6
 74
4
 40
0.000000
 40
0.000000
 40
0.000000
 40
0.000000
 40
0.058722
 40
0.469774
 40
1.585487
 40
1.585487
 40
1.585487
 40
1.585487
 10
139.768814
 20
97.154073
 30
0.0
 10
139.777293
 20
97.171715
 30
0.0
 10
139.845119
 20
97.312855
 30
0.0
 10
140.074032
 20
97.789202
 30
0.0
 10
140.294467
 20
98.247906
 30
0.0
 10
140.455554
 20
98.583114
 30
0.0
 11
139.768814
 21
97.154073
 31
0.0
 11
139.794249
 21
97.207000
 31
0.0
 11
139.972293
 21
97.577492
 31
0.0
 11
140.455554
 21
98.583114
 31
0.0
  0
LINE
  5
1ab
100
AcDbEntity
  8
0
 62
5
100
AcDbLine
 10
119.050819
 20
103.911263
 30
0.0
 11
128.065014
 21
103.911263
 31
0.0
  0
SPLINE
  5
1ac
100
AcDbEntity
  8
0
 62
5
100
AcDbSpline
 70
0
 71
3
 72
10
 73
6
 74
4
 40
0.000000
 40
0.000000
 40
0.000000
 40
0.000000
 40
1.112709
 40
1.522654
 40
1.581217
 40
1.581217
 40
1.581217
 40
1.581217
 10
118.164195
 20
105.220517
 30
0.0
 10
118.372169
 20
104.913408
 30
0.0
 10
118.656764
 20
104.493154
 30
0.0
 10
118.952305
 20
104.056736
 30
0.0
 10
119.039873
 20
103.927427
 30
0.0
 10
119.050819
 20
103.911263
 30
0.0
 11
118.164195
 21
105.220517
 31
0.0
 11
118.788116
 21
104.299190
 31
0.0
 11
119.017981
 21
103.959754
 31
0.0
 11
119.050819
 21
103.911263
 31
0.0
  0
LINE
  5
1ad
100
AcDbEntity
  8
0
 62
1
100
AcDbLine
 10
110.806893
 20
192.097351
 30
0.0
 11
98.187857
 21
170.240538
 31
0.0
  0
LINE
  5
1ae
100
AcDbEntity
  8
0
 62
1
100
AcDbLine
 10
98.086734
 20
214.081344
 30
0.0
 11
72.848662
 21
214.081344
 31
0.0
  0
LINE
  5
1af
100
AcDbEntity
  8
0
 62
5
100
AcDbLine
 10
73.095770
 20
170.190912
 30
0.0
 11
74.887935
 21
163.394411
 31
0.0
  0
LINE
  5
1b0
100
AcDbEntity
  8
0
 62
5
100
AcDbLine
 10
74.887935
 20
163.394411
 30
0.0
 11
67.224834
 21
150.121528
 31
0.0
  0
LINE
  5
1b1
100
AcDbEntity
  8
0
 62
5
100
AcDbLine
 10
67.224834
 20
150.121528
 30
0.0
 11
60.442811
 21
148.275338
 31
0.0
  0
LINE
  5
1b2
100
AcDbEntity
  8
0
 62
1
100
AcDbLine
 10
69.470634
 20
163.912368
 30
0.0
 11
73.095770
 21
170.190912
 31
0.0
  0
LINE
  5
1b3
100
AcDbEntity
  8
0
 62
1
100
AcDbLine
 10
60.442811
 20
148.275338
 30
0.0
 11
64.073117
 21
154.563593
 31
0.0
  0
SPLINE
  5
1b4
100
AcDbEntity
  8
0
 62
5
100
AcDbSpline
 70
0
 71
3
 72
10
 73
6
 74
4
 40
0.000000
 40
0.000000
 40
0.000000
 40
0.000000
 40
0.058722
 40
0.469774
 40
1.585487
 40
1.585487
 40
1.585487
 40
1.585487
 10
128.065014
 20
103.911263
 30
0.0
 10
128.076053
 20
103.927427
 30
0.0
 10
128.164371
 20
104.056736
 30
0.0
 10
128.462443
 20
104.493154
 30
0.0
 10
128.749475
 20
104.913408
 30
0.0
 10
128.959229
 20
105.220517
 30
0.0
 11
128.065014
 21
103.911263
 31
0.0
 11
128.098133
 21
103.959754
 31
0.0
 11
128.329966
 21
104.299190
 31
0.0
 11
128.959229
 21
105.220517
 31
0.0
  0
LINE
  5
1b5
100
AcDbEntity
  8
0
 62
5
100
AcDbLine
 10
65.029035
 20
155.035480
 30
0.0
 11
69.536132
 21
162.842001
 31
0.0
  0
SPLINE
  5
1b6
100
AcDbEntity
  8
0
 62
5
100
AcDbSpline
 70
0
 71
3
 72
10
 73
6
 74
4
 40
0.000000
 40
0.000000
 40
0.000000
 40
0.000000
 40
1.112709
 40
1.522654
 40
1.581217
 40
1.581217
 40
1.581217
 40
1.581217
 10
63.451875
 20
154.922269
 30
0.0
 10
63.821826
 20
154.948825
 30
0.0
 10
64.328075
 20
154.985164
 30
0.0
 10
64.853795
 20
155.022901
 30
0.0
 10
65.009564
 20
155.034082
 30
0.0
 10
65.029035
 20
155.035480
 30
0.0
 11
63.451875
 21
154.922269
 31
0.0
 11
64.561728
 21
155.001936
 31
0.0
 11
64.970622
 21
155.031287
 31
0.0
 11
65.029035
 21
155.035480
 31
0.0
  0
LINE
  5
1b7
100
AcDbEntity
  8
0
 62
5
100
AcDbLine
 10
73.095770
 20
170.190909
 30
0.0
 11
78.085631
 21
165.240599
 31
0.0
  0
LINE
  5
1b8
100
AcDbEntity
  8
0
 62
5
100
AcDbLine
 10
78.085631
 20
165.240599
 30
0.0
 11
93.411836
 21
165.240599
 31
0.0
  0
LINE
  5
1b9
100
AcDbEntity
  8
0
 62
5
100
AcDbLine
 10
93.411836
 20
165.240599
 30
0.0
 11
98.401694
 21
170.190909
 31
0.0
  0
LINE
  5
1ba
100
AcDbEntity
  8
0
 62
1
100
AcDbLine
 10
80.345717
 20
170.191098
 30
0.0
 11
73.095770
 21
170.190912
 31
0.0
  0
LINE
  5
1bb
100
AcDbEntity
  8
0
 62
1
100
AcDbLine
 10
98.401694
 20
170.190909
 30
0.0
 11
91.140751
 21
170.191098
 31
0.0
  0
SPLINE
  5
1bc
100
AcDbEntity
  8
0
 62
5
100
AcDbSpline
 70
0
 71
3
 72
10
 73
6
 74
4
 40
0.000000
 40
0.000000
 40
0.000000
 40
0.000000
 40
0.058722
 40
0.469774
 40
1.585487
 40
1.585487
 40
1.585487
 40
1.585487
 10
69.536132
 20
162.842001
 30
0.0
 10
69.527654
 20
162.859643
 30
0.0
 10
69.459828
 20
163.000783
 30
0.0
 10
69.230915
 20
163.477130
 30
0.0
 10
69.010480
 20
163.935834
 30
0.0
 10
68.849392
 20
164.271041
 30
0.0
 11
69.536132
 21
162.842001
 31
0.0
 11
69.510697
 21
162.894928
 31
0.0
 11
69.332654
 21
163.265420
 31
0.0
 11
68.849392
 21
164.271041
 31
0.0
  0
LINE
  5
1bd
100
AcDbEntity
  8
0
 62
5
100
AcDbLine
 10
90.254128
 20
169.599191
 30
0.0
 11
81.239933
 21
169.599191
 31
0.0
  0
SPLINE
  5
1be
100
AcDbEntity
  8
0
 62
5
100
AcDbSpline
 70
0
 71
3
 72
10
 73
6
 74
4
 40
0.000000
 40
0.000000
 40
0.000000
 40
0.000000
 40
1.112709
 40
1.522654
 40
1.581217
 40
1.581217
 40
1.581217
 40
1.581217
 10
91.140751
 20
170.908445
 30
0.0
 10
90.932778
 20
170.601336
 30
0.0
 10
90.648183
 20
170.181082
 30
0.0
 10
90.352641
 20
169.744664
 30
0.0
 10
90.265074
 20
169.615354
 30
0.0
 10
90.254128
 20
169.599191
 30
0.0
 11
91.140751
 21
170.908445
 31
0.0
 11
90.516831
 21
169.987118
 31
0.0
 11
90.286966
 21
169.647682
 31
0.0
 11
90.254128
 21
169.599191
 31
0.0
  0
LINE
  5
1bf
100
AcDbEntity
  8
0
 62
5
100
AcDbLine
 10
43.051693
 20
148.275194
 30
0.0
 11
43.958171
 21
148.275476
 31
0.0
  0
LINE
  5
1c0
100
AcDbEntity
  8
0
 62
5
100
AcDbLine
 10
43.958171
 20
148.275476
 30
0.0
 11
43.958171
 21
147.770140
 31
0.0
  0
LINE
  5
1c1
100
AcDbEntity
  8
0
 62
5
100
AcDbLine
 10
43.958171
 20
147.770140
 30
0.0
 11
42.392321
 21
147.770140
 31
0.0
  0
SPLINE
  5
1c2
100
AcDbEntity
  8
0
 62
5
100
AcDbSpline
 70
0
 71
3
 72
10
 73
6
 74
4
 40
0.000000
 40
0.000000
 40
0.000000
 40
0.000000
 40
0.058722
 40
0.469774
 40
1.585487
 40
1.585487
 40
1.585487
 40
1.585487
 10
81.239933
 20
169.599191
 30
0.0
 10
81.228893
 20
169.615354
 30
0.0
 10
81.140576
 20
169.744664
 30
0.0
 10
80.842504
 20
170.181082
 30
0.0
 10
80.555472
 20
170.601336
 30
0.0
 10
80.345717
 20
170.908445
 30
0.0
 11
81.239933
 21
169.599191
 31
0.0
 11
81.206814
 21
169.647682
 31
0.0
 11
80.974980
 21
169.987118
 31
0.0
 11
80.345717
 21
170.908445
 31
0.0
  0
LINE
  5
1c3
100
AcDbEntity
  8
0
 62
5
100
AcDbLine
 10
53.187354
 20
147.770140
 30
0.0
 11
51.621518
 21
147.770140
 31
0.0
  0
LINE
  5
1c4
100
AcDbEntity
  8
0
 62
5
100
AcDbLine
 10
51.621518
 20
147.770140
 30
0.0
 11
51.621518
 21
148.275769
 31
0.0
  0
LINE
  5
1c5
100
AcDbEntity
  8
0
 62
5
100
AcDbLine
 10
51.621518
 20
148.275769
 30
0.0
 11
52.527993
 21
148.275487
 31
0.0
  0
LINE
  5
1c6
100
AcDbEntity
  8
0
 62
5
100
AcDbLine
 10
43.051699
 20
148.275191
 30
0.0
 11
35.136887
 21
148.275380
 31
0.0
  0
LINE
  5
1c7
100
AcDbEntity
  8
0
 62
5
100
AcDbLine
 10
60.442808
 20
148.275338
 30
0.0
 11
52.527996
 21
148.275527
 31
0.0
  0
LINE
  5
1c8
100
AcDbEntity
  8
0
 62
1
100
AcDbLine
 10
45.881087
 20
148.275578
 30
0.0
 11
49.698636
 21
148.275767
 31
0.0
  0
LINE
  5
1c9
100
AcDbEntity
  8
0
 62
5
100
AcDbLine
 10
34.957487
 20
209.556885
 30
0.0
 11
34.957769
 21
208.650407
 31
0.0
  0
LINE
  5
1ca
100
AcDbEntity
  8
0
 62
5
100
AcDbLine
 10
34.957769
 20
208.650407
 30
0.0
 11
34.452433
 21
208.650407
 31
0.0
  0
LINE
  5
1cb
100
AcDbEntity
  8
0
 62
5
100
AcDbLine
 10
34.452433
 20
208.650407
 30
0.0
 11
34.452433
 21
210.216257
 31
0.0
  0
SPLINE
  5
1cc
100
AcDbEntity
  8
0
 62
5
100
AcDbSpline
 70
0
 71
3
 72
16
 73
12
 74
10
 40
0.000000
 40
0.000000
 40
0.000000
 40
0.000000
 40
0.594052
 40
1.926273
 40
3.438880
 40
6.074691
 40
8.833683
 40
11.469466
 40
12.982641
 40
14.315438
 40
14.909670
 40
14.909670
 40
14.909670
 40
14.909670
 10
42.392321
 20
147.770140
 30
0.0
 10
42.431542
 20
147.576059
 30
0.0
 10
42.558720
 20
146.946733
 30
0.0
 10
42.949433
 20
145.856822
 30
0.0
 10
44.135347
 20
144.390214
 30
0.0
 10
46.454828
 20
143.660089
 30
0.0
 10
49.121517
 20
143.659950
 30
0.0
 10
51.440986
 20
144.390500
 30
0.0
 10
52.627464
 20
145.856907
 30
0.0
 10
53.019663
 20
146.946674
 30
0.0
 10
53.147832
 20
147.576059
 30
0.0
 10
53.187354
 20
147.770140
 30
0.0
 11
42.392321
 21
147.770140
 31
0.0
 11
42.518703
 21
147.189688
 31
0.0
 11
42.993051
 21
145.944775
 31
0.0
 11
43.958166
 21
144.780072
 31
0.0
 11
46.408662
 21
143.809211
 31
0.0
 11
49.167653
 21
143.809193
 31
0.0
 11
51.618111
 21
144.780072
 31
0.0
 11
52.584091
 21
145.944797
 31
0.0
 11
53.060083
 21
147.189698
 31
0.0
 11
53.187354
 21
147.770140
 31
0.0
  0
LINE
  5
1cd
100
AcDbEntity
  8
0
 62
5
100
AcDbLine
 10
34.452433
 20
199.421224
 30
0.0
 11
34.452433
 21
200.987060
 31
0.0
  0
LINE
  5
1ce
100
AcDbEntity
  8
0
 62
5
100
AcDbLine
 10
34.452433
 20
200.987060
 30
0.0
 11
34.958062
 21
200.987060
 31
0.0
  0
LINE
  5
1cf
100
AcDbEntity
  8
0
 62
5
100
AcDbLine
 10
34.958062
 20
200.987060
 30
0.0
 11
34.957780
 21
200.080585
 31
0.0
  0
LINE
  5
1d0
100
AcDbEntity
  8
0
 62
5
100
AcDbLine
 10
34.957484
 20
209.556879
 30
0.0
 11
34.957673
 21
217.471691
 31
0.0
  0
LINE
  5
1d1
100
AcDbEntity
  8
0
 62
5
100
AcDbLine
 10
34.957631
 20
192.165770
 30
0.0
 11
34.957820
 21
200.080582
 31
0.0
  0
LINE
  5
1d2
100
AcDbEntity
  8
0
 62
1
100
AcDbLine
 10
34.957870
 20
206.727491
 30
0.0
 11
34.958060
 21
202.909942
 31
0.0
  0
LINE
  5
1d3
100
AcDbEntity
  8
0
 62
1
100
AcDbLine
 10
34.957670
 20
192.233622
 30
0.0
 11
60.195745
 21
192.233622
 31
0.0
  0
LINE
  5
1d4
100
AcDbEntity
  8
0
 62
5
100
AcDbLine
 10
52.348785
 20
217.471841
 30
0.0
 11
51.442307
 21
217.471559
 31
0.0
  0
LINE
  5
1d5
100
AcDbEntity
  8
0
 62
5
100
AcDbLine
 10
51.442307
 20
217.471559
 30
0.0
 11
51.442307
 21
217.976894
 31
0.0
  0
LINE
  5
1d6
100
AcDbEntity
  8
0
 62
5
100
AcDbLine
 10
51.442307
 20
217.976894
 30
0.0
 11
53.008157
 21
217.976894
 31
0.0
  0
SPLINE
  5
1d7
100
AcDbEntity
  8
0
 62
5
100
AcDbSpline
 70
0
 71
3
 72
16
 73
12
 74
10
 40
0.000000
 40
0.000000
 40
0.000000
 40
0.000000
 40
0.594052
 40
1.926273
 40
3.438880
 40
6.074691
 40
8.833683
 40
11.469466
 40
12.982641
 40
14.315438
 40
14.909670
 40
14.909670
 40
14.909670
 40
14.909670
 10
34.452433
 20
210.216257
 30
0.0
 10
34.258352
 20
210.177036
 30
0.0
 10
33.629026
 20
210.049858
 30
0.0
 10
32.539115
 20
209.659145
 30
0.0
 10
31.072507
 20
208.473231
 30
0.0
 10
30.342382
 20
206.153750
 30
0.0
 10
30.342243
 20
203.487061
 30
0.0
 10
31.072793
 20
201.167592
 30
0.0
 10
32.539200
 20
199.981114
 30
0.0
 10
33.628966
 20
199.588915
 30
0.0
 10
34.258352
 20
199.460746
 30
0.0
 10
34.452433
 20
199.421224
 30
0.0
 11
34.452433
 21
210.216257
 31
0.0
 11
33.871980
 21
210.089875
 31
0.0
 11
32.627068
 21
209.615527
 31
0.0
 11
31.462365
 21
208.650412
 31
0.0
 11
30.491504
 21
206.199916
 31
0.0
 11
30.491486
 21
203.440925
 31
0.0
 11
31.462365
 21
200.990467
 31
0.0
 11
32.627089
 21
200.024487
 31
0.0
 11
33.871991
 21
199.548495
 31
0.0
 11
34.452433
 21
199.421224
 31
0.0
  0
LINE
  5
1d8
100
AcDbEntity
  8
0
 62
5
100
AcDbLine
 10
42.213124
 20
217.976894
 30
0.0
 11
43.778960
 21
217.976894
 31
0.0
  0
LINE
  5
1d9
100
AcDbEntity
  8
0
 62
5
100
AcDbLine
 10
43.778960
 20
217.976894
 30
0.0
 11
43.778960
 21
217.471265
 31
0.0
  0
LINE
  5
1da
100
AcDbEntity
  8
0
 62
5
100
AcDbLine
 10
43.778960
 20
217.471265
 30
0.0
 11
42.872485
 21
217.471547
 31
0.0
  0
LINE
  5
1db
100
AcDbEntity
  8
0
 62
5
100
AcDbLine
 10
52.348779
 20
217.471844
 30
0.0
 11
60.263591
 21
217.471655
 31
0.0
  0
LINE
  5
1dc
100
AcDbEntity
  8
0
 62
5
100
AcDbLine
 10
34.957670
 20
217.471697
 30
0.0
 11
42.872482
 21
217.471508
 31
0.0
  0
LINE
  5
1dd
100
AcDbEntity
  8
0
 62
1
100
AcDbLine
 10
49.519391
 20
217.471457
 30
0.0
 11
45.701842
 21
217.471268
 31
0.0
  0
LINE
  5
1de
100
AcDbEntity
  8
0
 62
1
100
AcDbLine
 10
72.814736
 20
170.308960
 30
0.0
 11
60.195700
 21
192.165773
 31
0.0
  0
LINE
  5
1df
100
AcDbEntity
  8
0
 62
5
100
AcDbLine
 10
60.195703
 20
235.996916
 30
0.0
 11
58.403538
 21
229.200415
 31
0.0
  0
LINE
  5
1e0
100
AcDbEntity
  8
0
 62
5
100
AcDbLine
 10
58.403538
 20
229.200415
 30
0.0
 11
66.066639
 21
215.927535
 31
0.0
  0
LINE
  5
1e1
100
AcDbEntity
  8
0
 62
5
100
AcDbLine
 10
66.066639
 20
215.927535
 30
0.0
 11
72.848662
 21
214.081344
 31
0.0
  0
LINE
  5
1e2
100
AcDbEntity
  8
0
 62
1
100
AcDbLine
 10
63.820839
 20
229.718375
 30
0.0
 11
60.195703
 21
235.996916
 31
0.0
  0
LINE
  5
1e3
100
AcDbEntity
  8
0
 62
1
100
AcDbLine
 10
72.848662
 20
214.081344
 30
0.0
 11
69.218356
 21
220.369600
 31
0.0
  0
SPLINE
  5
1e4
100
AcDbEntity
  8
0
 62
5
100
AcDbSpline
 70
0
 71
3
 72
16
 73
12
 74
10
 40
0.000000
 40
0.000000
 40
0.000000
 40
0.000000
 40
0.594052
 40
1.926273
 40
3.438880
 40
6.074691
 40
8.833683
 40
11.469466
 40
12.982641
 40
14.315438
 40
14.909670
 40
14.909670
 40
14.909670
 40
14.909670
 10
53.008157
 20
217.976894
 30
0.0
 10
52.968936
 20
218.170975
 30
0.0
 10
52.841758
 20
218.800301
 30
0.0
 10
52.451045
 20
219.890212
 30
0.0
 10
51.265131
 20
221.356821
 30
0.0
 10
48.945650
 20
222.086946
 30
0.0
 10
46.278961
 20
222.087084
 30
0.0
 10
43.959492
 20
221.356534
 30
0.0
 10
42.773014
 20
219.890128
 30
0.0
 10
42.380815
 20
218.800361
 30
0.0
 10
42.252646
 20
218.170976
 30
0.0
 10
42.213124
 20
217.976894
 30
0.0
 11
53.008157
 21
217.976894
 31
0.0
 11
52.881775
 21
218.557347
 31
0.0
 11
52.407427
 21
219.802259
 31
0.0
 11
51.442312
 21
220.966963
 31
0.0
 11
48.991816
 21
221.937823
 31
0.0
 11
46.232825
 21
221.937842
 31
0.0
 11
43.782367
 21
220.966963
 31
0.0
 11
42.816387
 21
219.802238
 31
0.0
 11
42.340395
 21
218.557336
 31
0.0
 11
42.213124
 21
217.976894
 31
0.0
  0
LINE
  5
1e5
100
AcDbEntity
  8
0
 62
5
100
AcDbLine
 10
68.262438
 20
220.841487
 30
0.0
 11
63.755341
 21
228.648007
 31
0.0
  0
SPLINE
  5
1e6
100
AcDbEntity
  8
0
 62
5
100
AcDbSpline
 70
0
 71
3
 72
10
 73
6
 74
4
 40
0.000000
 40
0.000000
 40
0.000000
 40
0.000000
 40
1.112709
 40
1.522654
 40
1.581218
 40
1.581218
 40
1.581218
 40
1.581218
 10
69.839597
 20
220.728273
 30
0.0
 10
69.469646
 20
220.754829
 30
0.0
 10
68.963398
 20
220.791170
 30
0.0
 10
68.437678
 20
220.828907
 30
0.0
 10
68.281909
 20
220.840089
 30
0.0
 10
68.262438
 20
220.841487
 30
0.0
 11
69.839597
 21
220.728273
 31
0.0
 11
68.729744
 21
220.807942
 31
0.0
 11
68.320851
 21
220.837294
 31
0.0
 11
68.262438
 21
220.841487
 31
0.0
  0
LINE
  5
1e7
100
AcDbEntity
  8
0
 62
5
100
AcDbLine
 10
60.195703
 20
235.996916
 30
0.0
 11
55.205842
 21
231.046606
 31
0.0
  0
LINE
  5
1e8
100
AcDbEntity
  8
0
 62
5
100
AcDbLine
 10
55.205842
 20
231.046606
 30
0.0
 11
39.879637
 21
231.046606
 31
0.0
  0
LINE
  5
1e9
100
AcDbEntity
  8
0
 62
5
100
AcDbLine
 10
39.879637
 20
231.046606
 30
0.0
 11
34.889779
 21
235.996916
 31
0.0
  0
LINE
  5
1ea
100
AcDbEntity
  8
0
 62
1
100
AcDbLine
 10
52.945755
 20
235.997105
 30
0.0
 11
60.195703
 21
235.996916
 31
0.0
  0
LINE
  5
1eb
100
AcDbEntity
  8
0
 62
1
100
AcDbLine
 10
34.889779
 20
235.996916
 30
0.0
 11
42.150721
 21
235.997102
 31
0.0
  0
SPLINE
  5
1ec
100
AcDbEntity
  8
0
 62
5
100
AcDbSpline
 70
0
 71
3
 72
10
 73
6
 74
4
 40
0.000000
 40
0.000000
 40
0.000000
 40
0.000000
 40
0.058722
 40
0.469774
 40
1.585487
 40
1.585487
 40
1.585487
 40
1.585487
 10
63.755341
 20
228.648007
 30
0.0
 10
63.763819
 20
228.665650
 30
0.0
 10
63.831645
 20
228.806790
 30
0.0
 10
64.060558
 20
229.283137
 30
0.0
 10
64.280993
 20
229.741841
 30
0.0
 10
64.442080
 20
230.077048
 30
0.0
 11
63.755341
 21
228.648007
 31
0.0
 11
63.780775
 21
228.700935
 31
0.0
 11
63.958819
 21
229.071427
 31
0.0
 11
64.442080
 21
230.077048
 31
0.0
  0
LINE
  5
1ed
100
AcDbEntity
  8
0
 62
5
100
AcDbLine
 10
43.037345
 20
235.405198
 30
0.0
 11
52.051540
 21
235.405198
 31
0.0
  0
SPLINE
  5
1ee
100
AcDbEntity
  8
0
 62
5
100
AcDbSpline
 70
0
 71
3
 72
10
 73
6
 74
4
 40
0.000000
 40
0.000000
 40
0.000000
 40
0.000000
 40
1.112709
 40
1.522654
 40
1.581217
 40
1.581217
 40
1.581217
 40
1.581217
 10
42.150721
 20
236.714452
 30
0.0
 10
42.358695
 20
236.407343
 30
0.0
 10
42.643290
 20
235.987088
 30
0.0
 10
42.938831
 20
235.550670
 30
0.0
 10
43.026399
 20
235.421361
 30
0.0
 10
43.037345
 20
235.405198
 30
0.0
 11
42.150721
 21
236.714452
 31
0.0
 11
42.774642
 21
235.793125
 31
0.0
 11
43.004507
 21
235.453688
 31
0.0
 11
43.037345
 21
235.405198
 31
0.0
  0
LINE
  5
1ef
100
AcDbEntity
  8
0
 62
5
100
AcDbLine
 10
22.304670
 20
170.250196
 30
0.0
 11
20.512506
 21
177.046697
 31
0.0
  0
LINE
  5
1f0
100
AcDbEntity
  8
0
 62
5
100
AcDbLine
 10
20.512506
 20
177.046697
 30
0.0
 11
28.175607
 21
190.319579
 31
0.0
  0
LINE
  5
1f1
100
AcDbEntity
  8
0
 62
5
100
AcDbLine
 10
28.175607
 20
190.319579
 30
0.0
 11
34.957631
 21
192.165770
 31
0.0
  0
LINE
  5
1f2
100
AcDbEntity
  8
0
 62
1
100
AcDbLine
 10
25.929807
 20
176.528740
 30
0.0
 11
22.304671
 21
170.250196
 31
0.0
  0
LINE
  5
1f3
100
AcDbEntity
  8
0
 62
1
100
AcDbLine
 10
34.957631
 20
192.165770
 30
0.0
 11
31.327324
 21
185.877515
 31
0.0
  0
SPLINE
  5
1f4
100
AcDbEntity
  8
0
 62
5
100
AcDbSpline
 70
0
 71
3
 72
10
 73
6
 74
4
 40
0.000000
 40
0.000000
 40
0.000000
 40
0.000000
 40
0.058722
 40
0.469774
 40
1.585487
 40
1.585487
 40
1.585487
 40
1.585487
 10
52.051540
 20
235.405198
 30
0.0
 10
52.062580
 20
235.421361
 30
0.0
 10
52.150897
 20
235.550670
 30
0.0
 10
52.448969
 20
235.987088
 30
0.0
 10
52.736001
 20
236.407343
 30
0.0
 10
52.945755
 20
236.714452
 30
0.0
 11
52.051540
 21
235.405198
 31
0.0
 11
52.084659
 21
235.453688
 31
0.0
 11
52.316493
 21
235.793125
 31
0.0
 11
52.945755
 21
236.714452
 31
0.0
  0
LINE
  5
1f5
100
AcDbEntity
  8
0
 62
5
100
AcDbLine
 10
30.371407
 20
185.405628
 30
0.0
 11
25.864309
 21
177.599107
 31
0.0
  0
SPLINE
  5
1f6
100
AcDbEntity
  8
0
 62
5
100
AcDbSpline
 70
0
 71
3
 72
10
 73
6
 74
4
 40
0.000000
 40
0.000000
 40
0.000000
 40
0.000000
 40
1.112709
 40
1.522654
 40
1.581217
 40
1.581217
 40
1.581217
 40
1.581217
 10
31.948566
 20
185.518838
 30
0.0
 10
31.578615
 20
185.492283
 30
0.0
 10
31.072366
 20
185.455944
 30
0.0
 10
30.546646
 20
185.418207
 30
0.0
 10
30.390878
 20
185.407025
 30
0.0
 10
30.371407
 20
185.405628
 30
0.0
 11
31.948566
 21
185.518838
 31
0.0
 11
30.838713
 21
185.439172
 31
0.0
 11
30.429820
 21
185.409821
 31
0.0
 11
30.371407
 21
185.405628
 31
0.0
  0
LINE
  5
1f7
100
AcDbEntity
  8
0
 62
5
100
AcDbLine
 10
22.304670
 20
170.250198
 30
0.0
 11
20.512506
 21
163.453698
 31
0.0
  0
LINE
  5
1f8
100
AcDbEntity
  8
0
 62
5
100
AcDbLine
 10
20.512506
 20
163.453698
 30
0.0
 11
28.175607
 21
150.180815
 31
0.0
  0
LINE
  5
1f9
100
AcDbEntity
  8
0
 62
5
100
AcDbLine
 10
28.175607
 20
150.180815
 30
0.0
 11
34.957631
 21
148.334624
 31
0.0
  0
LINE
  5
1fa
100
AcDbEntity
  8
0
 62
1
100
AcDbLine
 10
25.929807
 20
163.971654
 30
0.0
 11
22.304671
 21
170.250198
 31
0.0
  0
LINE
  5
1fb
100
AcDbEntity
  8
0
 62
1
100
AcDbLine
 10
34.957631
 20
148.334624
 30
0.0
 11
31.327324
 21
154.622880
 31
0.0
  0
SPLINE
  5
1fc
100
AcDbEntity
  8
0
 62
5
100
AcDbSpline
 70
0
 71
3
 72
10
 73
6
 74
4
 40
0.000000
 40
0.000000
 40
0.000000
 40
0.000000
 40
0.058722
 40
0.469774
 40
1.585487
 40
1.585487
 40
1.585487
 40
1.585487
 10
25.864309
 20
177.599107
 30
0.0
 10
25.872787
 20
177.581465
 30
0.0
 10
25.940613
 20
177.440325
 30
0.0
 10
26.169526
 20
176.963978
 30
0.0
 10
26.389961
 20
176.505273
 30
0.0
 10
26.551048
 20
176.170066
 30
0.0
 11
25.864309
 21
177.599107
 31
0.0
 11
25.889743
 21
177.546180
 31
0.0
 11
26.067787
 21
177.175688
 31
0.0
 11
26.551048
 21
176.170066
 31
0.0
  0
LINE
  5
1fd
100
AcDbEntity
  8
0
 62
5
100
AcDbLine
 10
30.371407
 20
155.094766
 30
0.0
 11
25.864309
 21
162.901287
 31
0.0
  0
SPLINE
  5
1fe
100
AcDbEntity
  8
0
 62
5
100
AcDbSpline
 70
0
 71
3
 72
10
 73
6
 74
4
 40
0.000000
 40
0.000000
 40
0.000000
 40
0.000000
 40
1.112709
 40
1.522654
 40
1.581217
 40
1.581217
 40
1.581217
 40
1.581217
 10
31.948566
 20
154.981556
 30
0.0
 10
31.578615
 20
155.008111
 30
0.0
 10
31.072366
 20
155.044451
 30
0.0
 10
30.546646
 20
155.082187
 30
0.0
 10
30.390878
 20
155.093369
 30
0.0
 10
30.371407
 20
155.094766
 30
0.0
 11
31.948566
 21
154.981556
 31
0.0
 11
30.838713
 21
155.061222
 31
0.0
 11
30.429820
 21
155.090573
 31
0.0
 11
30.371407
 21
155.094766
 31
0.0
  0
LINE
  5
1ff
100
AcDbEntity
  8
0
 62
5
100
AcDbLine
 10
98.111697
 20
275.143012
 30
0.0
 11
98.111414
 21
274.236535
 31
0.0
  0
LINE
  5
200
100
AcDbEntity
  8
0
 62
5
100
AcDbLine
 10
98.111414
 20
274.236535
 30
0.0
 11
98.616750
 21
274.236534
 31
0.0
  0
LINE
  5
201
100
AcDbEntity
  8
0
 62
5
100
AcDbLine
 10
98.616750
 20
274.236534
 30
0.0
 11
98.616750
 21
275.802386
 31
0.0
  0
SPLINE
  5
202
100
AcDbEntity
  8
0
 62
5
100
AcDbSpline
 70
0
 71
3
 72
10
 73
6
 74
4
 40
0.000000
 40
0.000000
 40
0.000000
 40
0.000000
 40
0.058722
 40
0.469774
 40
1.585487
 40
1.585487
 40
1.585487
 40
1.585487
 10
25.864309
 20
162.901287
 30
0.0
 10
25.872787
 20
162.918929
 30
0.0
 10
25.940613
 20
163.060069
 30
0.0
 10
26.169526
 20
163.536416
 30
0.0
 10
26.389961
 20
163.995121
 30
0.0
 10
26.551048
 20
164.330328
 30
0.0
 11
25.864309
 21
162.901287
 31
0.0
 11
25.889743
 21
162.954214
 31
0.0
 11
26.067787
 21
163.324706
 31
0.0
 11
26.551048
 21
164.330328
 31
0.0
  0
LINE
  5
203
100
AcDbEntity
  8
0
 62
5
100
AcDbLine
 10
98.616750
 20
265.007351
 30
0.0
 11
98.616750
 21
266.573188
 31
0.0
  0
LINE
  5
204
100
AcDbEntity
  8
0
 62
5
100
AcDbLine
 10
98.616750
 20
266.573188
 30
0.0
 11
98.111121
 21
266.573190
 31
0.0
  0
LINE
  5
205
100
AcDbEntity
  8
0
 62
5
100
AcDbLine
 10
98.111121
 20
266.573190
 30
0.0
 11
98.111403
 21
265.666712
 31
0.0
  0
LINE
  5
206
100
AcDbEntity
  8
0
 62
5
100
AcDbLine
 10
98.111699
 20
275.143008
 30
0.0
 11
98.111510
 21
283.057820
 31
0.0
  0
LINE
  5
207
100
AcDbEntity
  8
0
 62
5
100
AcDbLine
 10
98.111553
 20
257.751897
 30
0.0
 11
98.111364
 21
265.666710
 31
0.0
  0
LINE
  5
208
100
AcDbEntity
  8
0
 62
1
100
AcDbLine
 10
98.111313
 20
272.313618
 30
0.0
 11
98.111124
 21
268.496069
 31
0.0
  0
LINE
  5
209
100
AcDbEntity
  8
0
 62
1
100
AcDbLine
 10
98.111513
 20
257.819749
 30
0.0
 11
72.873438
 21
257.819749
 31
0.0
  0
LINE
  5
20a
100
AcDbEntity
  8
0
 62
5
100
AcDbLine
 10
80.720398
 20
283.057967
 30
0.0
 11
81.626877
 21
283.057685
 31
0.0
  0
LINE
  5
20b
100
AcDbEntity
  8
0
 62
5
100
AcDbLine
 10
81.626877
 20
283.057685
 30
0.0
 11
81.626877
 21
283.563022
 31
0.0
  0
LINE
  5
20c
100
AcDbEntity
  8
0
 62
5
100
AcDbLine
 10
81.626877
 20
283.563022
 30
0.0
 11
80.061026
 21
283.563022
 31
0.0
  0
SPLINE
  5
20d
100
AcDbEntity
  8
0
 62
5
100
AcDbSpline
 70
0
 71
3
 72
16
 73
12
 74
10
 40
0.000000
 40
0.000000
 40
0.000000
 40
0.000000
 40
0.594052
 40
1.926273
 40
3.438881
 40
6.074691
 40
8.833683
 40
11.469466
 40
12.982641
 40
14.315438
 40
14.909670
 40
14.909670
 40
14.909670
 40
14.909670
 10
98.616750
 20
275.802386
 30
0.0
 10
98.810831
 20
275.763165
 30
0.0
 10
99.440157
 20
275.635986
 30
0.0
 10
100.530068
 20
275.245273
 30
0.0
 10
101.996676
 20
274.059358
 30
0.0
 10
102.726802
 20
271.739877
 30
0.0
 10
102.726940
 20
269.073189
 30
0.0
 10
101.996390
 20
266.753719
 30
0.0
 10
100.529984
 20
265.567242
 30
0.0
 10
99.440217
 20
265.175042
 30
0.0
 10
98.810832
 20
265.046874
 30
0.0
 10
98.616750
 20
265.007351
 30
0.0
 11
98.616750
 21
275.802386
 31
0.0
 11
99.197203
 21
275.676003
 31
0.0
 11
100.442115
 21
275.201654
 31
0.0
 11
101.606818
 21
274.236539
 31
0.0
 11
102.577679
 21
271.786044
 31
0.0
 11
102.577697
 21
269.027053
 31
0.0
 11
101.606818
 21
266.576594
 31
0.0
 11
100.442094
 21
265.610615
 31
0.0
 11
99.197192
 21
265.134622
 31
0.0
 11
98.616750
 21
265.007351
 31
0.0
  0
LINE
  5
20e
100
AcDbEntity
  8
0
 62
5
100
AcDbLine
 10
90.856060
 20
283.563022
 30
0.0
 11
89.290223
 21
283.563022
 31
0.0
  0
LINE
  5
20f
100
AcDbEntity
  8
0
 62
5
100
AcDbLine
 10
89.290223
 20
283.563022
 30
0.0
 11
89.290223
 21
283.057393
 31
0.0
  0
LINE
  5
210
100
AcDbEntity
  8
0
 62
5
100
AcDbLine
 10
89.290223
 20
283.057393
 30
0.0
 11
90.196698
 21
283.057675
 31
0.0
  0
LINE
  5
211
100
AcDbEntity
  8
0
 62
5
100
AcDbLine
 10
80.720404
 20
283.057971
 30
0.0
 11
72.805592
 21
283.057783
 31
0.0
  0
LINE
  5
212
100
AcDbEntity
  8
0
 62
5
100
AcDbLine
 10
98.111513
 20
283.057823
 30
0.0
 11
90.196701
 21
283.057635
 31
0.0
  0
LINE
  5
213
100
AcDbEntity
  8
0
 62
1
100
AcDbLine
 10
83.549792
 20
283.057583
 30
0.0
 11
87.367341
 21
283.057395
 31
0.0
  0
LINE
  5
214
100
AcDbEntity
  8
0
 62
5
100
AcDbLine
 10
102.069079
 20
250.965415
 30
0.0
 11
102.522071
 21
250.180242
 31
0.0
  0
LINE
  5
215
100
AcDbEntity
  8
0
 62
5
100
AcDbLine
 10
102.522071
 20
250.180242
 30
0.0
 11
102.959707
 21
250.432910
 31
0.0
  0
LINE
  5
216
100
AcDbEntity
  8
0
 62
5
100
AcDbLine
 10
102.959707
 20
250.432910
 30
0.0
 11
102.176780
 21
251.788979
 31
0.0
  0
SPLINE
  5
217
100
AcDbEntity
  8
0
 62
5
100
AcDbSpline
 70
0
 71
3
 72
16
 73
12
 74
10
 40
0.000000
 40
0.000000
 40
0.000000
 40
0.000000
 40
0.594052
 40
1.926273
 40
3.438881
 40
6.074692
 40
8.833683
 40
11.469466
 40
12.982642
 40
14.315439
 40
14.909670
 40
14.909670
 40
14.909670
 40
14.909670
 10
80.061026
 20
283.563022
 30
0.0
 10
80.100247
 20
283.757103
 30
0.0
 10
80.227425
 20
284.386430
 30
0.0
 10
80.618138
 20
285.476340
 30
0.0
 10
81.804052
 20
286.942950
 30
0.0
 10
84.123533
 20
287.673073
 30
0.0
 10
86.790222
 20
287.673212
 30
0.0
 10
89.109692
 20
286.942663
 30
0.0
 10
90.296169
 20
285.476256
 30
0.0
 10
90.688368
 20
284.386489
 30
0.0
 10
90.816537
 20
283.757104
 30
0.0
 10
90.856060
 20
283.563022
 30
0.0
 11
80.061026
 21
283.563022
 31
0.0
 11
80.187408
 21
284.143475
 31
0.0
 11
80.661756
 21
285.388388
 31
0.0
 11
81.626871
 21
286.553091
 31
0.0
 11
84.077367
 21
287.523951
 31
0.0
 11
86.836358
 21
287.523969
 31
0.0
 11
89.286817
 21
286.553091
 31
0.0
 11
90.252796
 21
285.388366
 31
0.0
 11
90.728788
 21
284.143464
 31
0.0
 11
90.856060
 21
283.563022
 31
0.0
  0
LINE
  5
218
100
AcDbEntity
  8
0
 62
5
100
AcDbLine
 10
107.574297
 20
242.440205
 30
0.0
 11
106.791379
 21
243.796260
 31
0.0
  0
LINE
  5
219
100
AcDbEntity
  8
0
 62
5
100
AcDbLine
 10
106.791379
 20
243.796260
 30
0.0
 11
106.353491
 21
243.543445
 31
0.0
  0
LINE
  5
21a
100
AcDbEntity
  8
0
 62
5
100
AcDbLine
 10
106.353491
 20
243.543445
 30
0.0
 11
106.806975
 21
242.758554
 31
0.0
  0
LINE
  5
21b
100
AcDbEntity
  8
0
 62
5
100
AcDbLine
 10
102.069082
 20
250.965415
 30
0.0
 11
98.111513
 21
257.819749
 31
0.0
  0
LINE
  5
21c
100
AcDbEntity
  8
0
 62
5
100
AcDbLine
 10
110.764509
 20
235.904197
 30
0.0
 11
106.806941
 21
242.758531
 31
0.0
  0
LINE
  5
21d
100
AcDbEntity
  8
0
 62
1
100
AcDbLine
 10
103.483441
 20
248.514897
 30
0.0
 11
105.392053
 21
245.208709
 31
0.0
  0
LINE
  5
21e
100
AcDbEntity
  8
0
 62
5
100
AcDbLine
 10
60.220524
 20
279.667474
 30
0.0
 11
55.230663
 21
284.617784
 31
0.0
  0
LINE
  5
21f
100
AcDbEntity
  8
0
 62
5
100
AcDbLine
 10
55.230663
 20
284.617784
 30
0.0
 11
39.904458
 21
284.617784
 31
0.0
  0
LINE
  5
220
100
AcDbEntity
  8
0
 62
5
100
AcDbLine
 10
39.904458
 20
284.617784
 30
0.0
 11
34.914600
 21
279.667474
 31
0.0
  0
LINE
  5
221
100
AcDbEntity
  8
0
 62
1
100
AcDbLine
 10
52.970577
 20
279.667285
 30
0.0
 11
60.220524
 21
279.667473
 31
0.0
  0
LINE
  5
222
100
AcDbEntity
  8
0
 62
1
100
AcDbLine
 10
34.914600
 20
279.667474
 30
0.0
 11
42.175543
 21
279.667286
 31
0.0
  0
SPLINE
  5
223
100
AcDbEntity
  8
0
 62
5
100
AcDbSpline
 70
0
 71
3
 72
16
 73
12
 74
10
 40
0.000000
 40
0.000000
 40
0.000000
 40
0.000000
 40
0.594052
 40
1.926274
 40
3.438882
 40
6.074693
 40
8.833683
 40
11.469465
 40
12.982642
 40
14.315440
 40
14.909672
 40
14.909672
 40
14.909672
 40
14.909672
 10
102.176780
 20
251.788979
 30
0.0
 10
102.364470
 20
251.852053
 30
0.0
 10
102.973072
 20
252.056576
 30
0.0
 10
104.112320
 20
252.263162
 30
0.0
 10
105.975398
 20
251.969434
 30
0.0
 10
107.767445
 20
250.325768
 30
0.0
 10
109.100909
 20
248.016418
 30
0.0
 10
109.627970
 20
245.642424
 30
0.0
 10
108.951263
 20
243.881701
 30
0.0
 10
108.203596
 20
242.997163
 30
0.0
 10
107.722616
 20
242.571473
 30
0.0
 10
107.574297
 20
242.440205
 30
0.0
 11
102.176780
 21
251.788979
 31
0.0
 11
102.742659
 21
251.969754
 31
0.0
 11
104.057960
 21
252.181412
 31
0.0
 11
105.549181
 21
251.927948
 31
0.0
 11
107.615218
 21
250.291188
 31
0.0
 11
108.994730
 21
247.901842
 31
0.0
 11
109.379154
 21
245.294244
 31
0.0
 11
108.853461
 21
243.875318
 31
0.0
 11
108.013340
 21
242.840646
 31
0.0
 11
107.574297
 21
242.440205
 31
0.0
  0
LINE
  5
224
100
AcDbEntity
  8
0
 62
5
100
AcDbLine
 10
43.062167
 20
280.259192
 30
0.0
 11
52.076361
 21
280.259192
 31
0.0
  0
SPLINE
  5
225
100
AcDbEntity
  8
0
 62
5
100
AcDbSpline
 70
0
 71
3
 72
10
 73
6
 74
4
 40
0.000000
 40
0.000000
 40
0.000000
 40
0.000000
 40
1.112709
 40
1.522654
 40
1.581217
 40
1.581217
 40
1.581217
 40
1.581217
 10
42.175543
 20
278.949938
 30
0.0
 10
42.383516
 20
279.257047
 30
0.0
 10
42.668112
 20
279.677301
 30
0.0
 10
42.963653
 20
280.113719
 30
0.0
 10
43.051221
 20
280.243028
 30
0.0
 10
43.062167
 20
280.259192
 30
0.0
 11
42.175543
 21
278.949938
 31
0.0
 11
42.799463
 21
279.871265
 31
0.0
 11
43.029329
 21
280.210701
 31
0.0
 11
43.062167
 21
280.259192
 31
0.0
  0
LINE
  5
226
100
AcDbEntity
  8
0
 62
5
100
AcDbLine
 10
30.932213
 20
242.851250
 30
0.0
 11
30.479221
 21
243.636423
 31
0.0
  0
LINE
  5
227
100
AcDbEntity
  8
0
 62
5
100
AcDbLine
 10
30.479221
 20
243.636423
 30
0.0
 11
30.041585
 21
243.383755
 31
0.0
  0
LINE
  5
228
100
AcDbEntity
  8
0
 62
5
100
AcDbLine
 10
30.041585
 20
243.383755
 30
0.0
 11
30.824511
 21
242.027686
 31
0.0
  0
SPLINE
  5
229
100
AcDbEntity
  8
0
 62
5
100
AcDbSpline
 70
0
 71
3
 72
10
 73
6
 74
4
 40
0.000000
 40
0.000000
 40
0.000000
 40
0.000000
 40
0.058722
 40
0.469774
 40
1.585487
 40
1.585487
 40
1.585487
 40
1.585487
 10
52.076361
 20
280.259192
 30
0.0
 10
52.087401
 20
280.243028
 30
0.0
 10
52.175719
 20
280.113719
 30
0.0
 10
52.473790
 20
279.677301
 30
0.0
 10
52.760823
 20
279.257047
 30
0.0
 10
52.970577
 20
278.949938
 30
0.0
 11
52.076361
 21
280.259192
 31
0.0
 11
52.109480
 21
280.210701
 31
0.0
 11
52.341314
 21
279.871265
 31
0.0
 11
52.970577
 21
278.949938
 31
0.0
  0
LINE
  5
22a
100
AcDbEntity
  8
0
 62
5
100
AcDbLine
 10
25.426993
 20
251.376461
 30
0.0
 11
26.209912
 21
250.020406
 31
0.0
  0
LINE
  5
22b
100
AcDbEntity
  8
0
 62
5
100
AcDbLine
 10
26.209912
 20
250.020406
 30
0.0
 11
26.647800
 21
250.273220
 31
0.0
  0
LINE
  5
22c
100
AcDbEntity
  8
0
 62
5
100
AcDbLine
 10
26.647800
 20
250.273220
 30
0.0
 11
26.194317
 21
251.058111
 31
0.0
  0
LINE
  5
22d
100
AcDbEntity
  8
0
 62
5
100
AcDbLine
 10
30.932210
 20
242.851250
 30
0.0
 11
34.889779
 21
235.996916
 31
0.0
  0
LINE
  5
22e
100
AcDbEntity
  8
0
 62
5
100
AcDbLine
 10
22.236781
 20
257.912468
 30
0.0
 11
26.194350
 21
251.058134
 31
0.0
  0
LINE
  5
22f
100
AcDbEntity
  8
0
 62
1
100
AcDbLine
 10
29.517851
 20
245.301769
 30
0.0
 11
27.609238
 21
248.607957
 31
0.0
  0
LINE
  5
230
100
AcDbEntity
  8
0
 62
5
100
AcDbLine
 10
7.175562
 20
266.607901
 30
0.0
 11
7.960735
 21
266.154909
 31
0.0
  0
LINE
  5
231
100
AcDbEntity
  8
0
 62
5
100
AcDbLine
 10
7.960735
 20
266.154909
 30
0.0
 11
7.708067
 21
265.717273
 31
0.0
  0
LINE
  5
232
100
AcDbEntity
  8
0
 62
5
100
AcDbLine
 10
7.708067
 20
265.717273
 30
0.0
 11
6.352000
 21
266.500199
 31
0.0
  0
SPLINE
  5
233
100
AcDbEntity
  8
0
 62
5
100
AcDbSpline
 70
0
 71
3
 72
16
 73
12
 74
10
 40
0.000000
 40
0.000000
 40
0.000000
 40
0.000000
 40
0.594052
 40
1.926274
 40
3.438882
 40
6.074692
 40
8.833682
 40
11.469464
 40
12.982641
 40
14.315438
 40
14.909670
 40
14.909670
 40
14.909670
 40
14.909670
 10
30.824511
 20
242.027686
 30
0.0
 10
30.636822
 20
241.964612
 30
0.0
 10
30.028220
 20
241.760089
 30
0.0
 10
28.888972
 20
241.553503
 30
0.0
 10
27.025894
 20
241.847232
 30
0.0
 10
25.233848
 20
243.490897
 30
0.0
 10
23.900383
 20
245.800247
 30
0.0
 10
23.373323
 20
248.174241
 30
0.0
 10
24.050029
 20
249.934964
 30
0.0
 10
24.797696
 20
250.819503
 30
0.0
 10
25.278675
 20
251.245192
 30
0.0
 10
25.426993
 20
251.376461
 30
0.0
 11
30.824511
 21
242.027686
 31
0.0
 11
30.258633
 21
241.846911
 31
0.0
 11
28.943332
 21
241.635254
 31
0.0
 11
27.452111
 21
241.888717
 31
0.0
 11
25.386074
 21
243.525477
 31
0.0
 11
24.006563
 21
245.914823
 31
0.0
 11
23.622139
 21
248.522421
 31
0.0
 11
24.147831
 21
249.941347
 31
0.0
 11
24.987951
 21
250.976020
 31
0.0
 11
25.426993
 21
251.376461
 31
0.0
  0
LINE
  5
234
100
AcDbEntity
  8
0
 62
5
100
AcDbLine
 10
15.700774
 20
261.102682
 30
0.0
 11
14.344719
 21
261.885601
 31
0.0
  0
LINE
  5
235
100
AcDbEntity
  8
0
 62
5
100
AcDbLine
 10
14.344719
 20
261.885601
 30
0.0
 11
14.597533
 21
262.323488
 31
0.0
  0
LINE
  5
236
100
AcDbEntity
  8
0
 62
5
100
AcDbLine
 10
14.597533
 20
262.323488
 30
0.0
 11
15.382424
 21
261.870005
 31
0.0
  0
LINE
  5
237
100
AcDbEntity
  8
0
 62
5
100
AcDbLine
 10
7.175564
 20
266.607898
 30
0.0
 11
0.321230
 21
270.565466
 31
0.0
  0
LINE
  5
238
100
AcDbEntity
  8
0
 62
5
100
AcDbLine
 10
22.236782
 20
257.912471
 30
0.0
 11
15.382447
 21
261.870039
 31
0.0
  0
LINE
  5
239
100
AcDbEntity
  8
0
 62
1
100
AcDbLine
 10
9.626081
 20
265.193539
 30
0.0
 11
12.932270
 21
263.284926
 31
0.0
  0
LINE
  5
23a
100
AcDbEntity
  8
0
 62
1
100
AcDbLine
 10
22.178040
 20
257.946430
 30
0.0
 11
34.797077
 21
279.803243
 31
0.0
  0
LINE
  5
23b
100
AcDbEntity
  8
0
 62
5
100
AcDbLine
 10
9.016662
 20
285.626682
 30
0.0
 11
8.563668
 21
284.841509
 31
0.0
  0
LINE
  5
23c
100
AcDbEntity
  8
0
 62
5
100
AcDbLine
 10
8.563668
 20
284.841509
 30
0.0
 11
8.126033
 21
285.094177
 31
0.0
  0
LINE
  5
23d
100
AcDbEntity
  8
0
 62
5
100
AcDbLine
 10
8.126033
 20
285.094177
 30
0.0
 11
8.908959
 21
286.450244
 31
0.0
  0
SPLINE
  5
23e
100
AcDbEntity
  8
0
 62
5
100
AcDbSpline
 70
0
 71
3
 72
16
 73
12
 74
10
 40
0.000000
 40
0.000000
 40
0.000000
 40
0.000000
 40
0.594052
 40
1.926274
 40
3.438883
 40
6.074693
 40
8.833685
 40
11.469467
 40
12.982643
 40
14.315441
 40
14.909673
 40
14.909673
 40
14.909673
 40
14.909673
 10
6.352000
 20
266.500199
 30
0.0
 10
6.288927
 20
266.312510
 30
0.0
 10
6.084403
 20
265.703907
 30
0.0
 10
5.877815
 20
264.564660
 30
0.0
 10
6.171543
 20
262.701582
 30
0.0
 10
7.815210
 20
260.909535
 30
0.0
 10
10.124560
 20
259.576071
 30
0.0
 10
12.498555
 20
259.049009
 30
0.0
 10
14.259278
 20
259.725717
 30
0.0
 10
15.143816
 20
260.473384
 30
0.0
 10
15.569505
 20
260.954364
 30
0.0
 10
15.700774
 20
261.102682
 30
0.0
 11
6.352000
 21
266.500199
 31
0.0
 11
6.171225
 21
265.934321
 31
0.0
 11
5.959566
 21
264.619020
 31
0.0
 11
6.213029
 21
263.127799
 31
0.0
 11
7.849790
 21
261.061761
 31
0.0
 11
10.239137
 21
259.682250
 31
0.0
 11
12.846735
 21
259.297826
 31
0.0
 11
14.265660
 21
259.823518
 31
0.0
 11
15.300333
 21
260.663640
 31
0.0
 11
15.700774
 21
261.102682
 31
0.0
  0
LINE
  5
23f
100
AcDbEntity
  8
0
 62
5
100
AcDbLine
 10
3.511441
 20
277.101470
 30
0.0
 11
4.294360
 21
278.457525
 31
0.0
  0
LINE
  5
240
100
AcDbEntity
  8
0
 62
5
100
AcDbLine
 10
4.294360
 20
278.457525
 30
0.0
 11
4.732248
 21
278.204711
 31
0.0
  0
LINE
  5
241
100
AcDbEntity
  8
0
 62
5
100
AcDbLine
 10
4.732248
 20
278.204711
 30
0.0
 11
4.278765
 21
277.419820
 31
0.0
  0
LINE
  5
242
100
AcDbEntity
  8
0
 62
5
100
AcDbLine
 10
9.016657
 20
285.626681
 30
0.0
 11
12.974226
 21
292.481015
 31
0.0
  0
LINE
  5
243
100
AcDbEntity
  8
0
 62
5
100
AcDbLine
 10
0.321230
 20
270.565463
 30
0.0
 11
4.278798
 21
277.419797
 31
0.0
  0
LINE
  5
244
100
AcDbEntity
  8
0
 62
1
100
AcDbLine
 10
7.602298
 20
283.176163
 30
0.0
 11
5.693686
 21
279.869974
 31
0.0
  0
LINE
  5
245
100
AcDbEntity
  8
0
 62
5
100
AcDbLine
 10
27.942744
 20
283.760808
 30
0.0
 11
27.157571
 21
284.213802
 31
0.0
  0
LINE
  5
246
100
AcDbEntity
  8
0
 62
5
100
AcDbLine
 10
27.157571
 20
284.213802
 30
0.0
 11
27.410240
 21
284.651437
 31
0.0
  0
LINE
  5
247
100
AcDbEntity
  8
0
 62
5
100
AcDbLine
 10
27.410240
 20
284.651437
 30
0.0
 11
28.766307
 21
283.868512
 31
0.0
  0
SPLINE
  5
248
100
AcDbEntity
  8
0
 62
5
100
AcDbSpline
 70
0
 71
3
 72
16
 73
12
 74
10
 40
0.000000
 40
0.000000
 40
0.000000
 40
0.000000
 40
0.594052
 40
1.926273
 40
3.438881
 40
6.074692
 40
8.833683
 40
11.469465
 40
12.982641
 40
14.315438
 40
14.909670
 40
14.909670
 40
14.909670
 40
14.909670
 10
8.908959
 20
286.450244
 30
0.0
 10
8.721269
 20
286.513318
 30
0.0
 10
8.112667
 20
286.717841
 30
0.0
 10
6.973420
 20
286.924429
 30
0.0
 10
5.110342
 20
286.630702
 30
0.0
 10
3.318296
 20
284.987034
 30
0.0
 10
1.984832
 20
282.677684
 30
0.0
 10
1.457771
 20
280.303690
 30
0.0
 10
2.134478
 20
278.542967
 30
0.0
 10
2.882144
 20
277.658429
 30
0.0
 10
3.363123
 20
277.232739
 30
0.0
 10
3.511441
 20
277.101470
 30
0.0
 11
8.908959
 21
286.450244
 31
0.0
 11
8.343080
 21
286.631020
 31
0.0
 11
7.027780
 21
286.842678
 31
0.0
 11
5.536560
 21
286.589216
 31
0.0
 11
3.470523
 21
284.952455
 31
0.0
 11
2.091011
 21
282.563107
 31
0.0
 11
1.706587
 21
279.955509
 31
0.0
 11
2.232279
 21
278.536584
 31
0.0
 11
3.072400
 21
277.501912
 31
0.0
 11
3.511441
 21
277.101470
 31
0.0
  0
LINE
  5
249
100
AcDbEntity
  8
0
 62
5
100
AcDbLine
 10
19.417533
 20
289.266029
 30
0.0
 11
20.773587
 21
288.483110
 31
0.0
  0
LINE
  5
24a
100
AcDbEntity
  8
0
 62
5
100
AcDbLine
 10
20.773587
 20
288.483110
 30
0.0
 11
20.520773
 21
288.045222
 31
0.0
  0
LINE
  5
24b
100
AcDbEntity
  8
0
 62
5
100
AcDbLine
 10
20.520773
 20
288.045222
 30
0.0
 11
19.735883
 21
288.498705
 31
0.0
  0
LINE
  5
24c
100
AcDbEntity
  8
0
 62
5
100
AcDbLine
 10
27.942743
 20
283.760813
 30
0.0
 11
34.797077
 21
279.803244
 31
0.0
  0
LINE
  5
24d
100
AcDbEntity
  8
0
 62
5
100
AcDbLine
 10
12.881525
 20
292.456241
 30
0.0
 11
19.735859
 21
288.498672
 31
0.0
  0
LINE
  5
24e
100
AcDbEntity
  8
0
 62
1
100
AcDbLine
 10
25.492225
 20
285.175172
 30
0.0
 11
22.186037
 21
287.083784
 31
0.0
  0
LINE
  5
24f
100
AcDbEntity
  8
0
 62
1
100
AcDbLine
 10
72.873438
 20
257.819749
 30
0.0
 11
60.254402
 21
235.962936
 31
0.0
  0
LINE
  5
250
100
AcDbEntity
  8
0
 62
1
100
AcDbLine
 10
72.873672
 20
268.496103
 30
0.0
 11
72.873862
 21
272.313653
 31
0.0
  0
LINE
  5
251
100
AcDbEntity
  8
0
 62
5
100
AcDbLine
 10
60.220521
 20
279.667474
 30
0.0
 11
67.002547
 21
277.821284
 31
0.0
  0
LINE
  5
252
100
AcDbEntity
  8
0
 62
5
100
AcDbLine
 10
67.002547
 20
277.821284
 30
0.0
 11
69.207702
 21
273.987677
 31
0.0
  0
LINE
  5
253
100
AcDbEntity
  8
0
 62
5
100
AcDbLine
 10
69.207702
 20
273.987677
 30
0.0
 11
71.052405
 21
265.335361
 31
0.0
  0
LINE
  5
254
100
AcDbEntity
  8
0
 62
5
100
AcDbLine
 10
71.052405
 20
265.335361
 30
0.0
 11
71.561562
 21
262.947230
 31
0.0
  0
LINE
  5
255
100
AcDbEntity
  8
0
 62
5
100
AcDbLine
 10
71.561562
 20
262.947230
 30
0.0
 11
70.179204
 21
262.418148
 31
0.0
  0
LINE
  5
256
100
AcDbEntity
  8
0
 62
5
100
AcDbLine
 10
72.873441
 20
283.057825
 30
0.0
 11
72.873630
 21
275.143013
 31
0.0
  0
LINE
  5
257
100
AcDbEntity
  8
0
 62
5
100
AcDbLine
 10
72.873348
 20
265.666712
 30
0.0
 11
72.873537
 21
257.751903
 31
0.0
  0
SPLINE
  5
258
100
AcDbEntity
  8
0
 62
5
100
AcDbSpline
 70
0
 71
3
 72
16
 73
12
 74
10
 40
0.000000
 40
0.000000
 40
0.000000
 40
0.000000
 40
0.594052
 40
1.926273
 40
3.438881
 40
6.074692
 40
8.833683
 40
11.469465
 40
12.982641
 40
14.315439
 40
14.909670
 40
14.909670
 40
14.909670
 40
14.909670
 10
28.766307
 20
283.868512
 30
0.0
 10
28.829381
 20
284.056201
 30
0.0
 10
29.033904
 20
284.664803
 30
0.0
 10
29.240491
 20
285.804050
 30
0.0
 10
28.946765
 20
287.667128
 30
0.0
 10
27.303096
 20
289.459174
 30
0.0
 10
24.993747
 20
290.792638
 30
0.0
 10
22.619752
 20
291.319699
 30
0.0
 10
20.859029
 20
290.642992
 30
0.0
 10
19.974491
 20
289.895326
 30
0.0
 10
19.548801
 20
289.414347
 30
0.0
 10
19.417533
 20
289.266029
 30
0.0
 11
28.766307
 21
283.868512
 31
0.0
 11
28.947082
 21
284.434390
 31
0.0
 11
29.158740
 21
285.749690
 31
0.0
 11
28.905279
 21
287.240910
 31
0.0
 11
27.268517
 21
289.306948
 31
0.0
 11
24.879170
 21
290.686459
 31
0.0
 11
22.271572
 21
291.070883
 31
0.0
 11
20.852647
 21
290.545191
 31
0.0
 11
19.817974
 21
289.705071
 31
0.0
 11
19.417533
 21
289.266029
 31
0.0
  0
LINE
  5
259
100
AcDbEntity
  8
0
 62
5
100
AcDbLine
 10
72.368241
 20
275.802374
 30
0.0
 11
72.368241
 21
274.236537
 31
0.0
  0
LINE
  5
25a
100
AcDbEntity
  8
0
 62
5
100
AcDbLine
 10
72.368241
 20
274.236537
 30
0.0
 11
72.873870
 21
274.236537
 31
0.0
  0
LINE
  5
25b
100
AcDbEntity
  8
0
 62
5
100
AcDbLine
 10
72.873870
 20
274.236537
 30
0.0
 11
72.873588
 21
275.143013
 31
0.0
  0
LINE
  5
25c
100
AcDbEntity
  8
0
 62
5
100
AcDbLine
 10
72.873306
 20
265.666715
 30
0.0
 11
72.873588
 21
266.573190
 31
0.0
  0
LINE
  5
25d
100
AcDbEntity
  8
0
 62
5
100
AcDbLine
 10
72.873588
 20
266.573190
 30
0.0
 11
72.368249
 21
266.573190
 31
0.0
  0
LINE
  5
25e
100
AcDbEntity
  8
0
 62
5
100
AcDbLine
 10
72.368249
 20
266.573190
 30
0.0
 11
72.368249
 21
265.007340
 31
0.0
  0
SPLINE
  5
25f
100
AcDbEntity
  8
0
 62
5
100
AcDbSpline
 70
0
 71
3
 72
10
 73
6
 74
4
 40
0.000000
 40
0.000000
 40
0.000000
 40
0.000000
 40
1.587953
 40
3.041886
 40
3.695047
 40
3.695047
 40
3.695047
 40
3.695047
 10
69.207702
 20
273.987677
 30
0.0
 10
69.590149
 20
274.360933
 30
0.0
 10
70.322765
 20
275.075942
 30
0.0
 10
71.487173
 20
275.542634
 30
0.0
 10
72.159753
 20
275.740912
 30
0.0
 10
72.368241
 20
275.802374
 30
0.0
 11
69.207702
 21
273.987677
 31
0.0
 11
70.416621
 21
275.017293
 31
0.0
 11
71.743602
 21
275.611467
 31
0.0
 11
72.368241
 21
275.802374
 31
0.0
  0
LINE
  5
260
100
AcDbEntity
  8
0
 62
1
100
AcDbLine
 10
63.845333
 20
273.388743
 30
0.0
 11
60.220521
 21
279.667474
 31
0.0
  0
LINE
  5
261
100
AcDbEntity
  8
0
 62
1
100
AcDbLine
 10
70.179204
 20
262.418146
 30
0.0
 11
69.242850
 21
264.039969
 31
0.0
  0
SPLINE
  5
262
100
AcDbEntity
  8
0
 62
5
100
AcDbSpline
 70
0
 71
3
 72
10
 73
6
 74
4
 40
0.000000
 40
0.000000
 40
0.000000
 40
0.000000
 40
0.167467
 40
0.634249
 40
1.363296
 40
1.363296
 40
1.363296
 40
1.363296
 10
72.368249
 20
265.007340
 30
0.0
 10
72.312446
 20
265.009349
 30
0.0
 10
72.101100
 20
265.016959
 30
0.0
 10
71.651404
 20
265.102741
 30
0.0
 10
71.279279
 20
265.247260
 30
0.0
 10
71.052411
 20
265.335367
 30
0.0
 11
72.368249
 21
265.007340
 31
0.0
 11
72.200987
 21
265.015619
 31
0.0
 11
71.741317
 21
265.096794
 31
0.0
 11
71.052411
 21
265.335367
 31
0.0
  0
LINE
  5
263
100
AcDbEntity
  8
0
 62
5
100
AcDbLine
 10
69.312144
 20
265.103761
 30
0.0
 11
64.805046
 21
272.910282
 31
0.0
  0
SPLINE
  5
264
100
AcDbEntity
  8
0
 62
5
100
AcDbSpline
 70
0
 71
3
 72
10
 73
6
 74
4
 40
0.000000
 40
0.000000
 40
0.000000
 40
0.000000
 40
1.112708
 40
1.522653
 40
1.581217
 40
1.581217
 40
1.581217
 40
1.581217
 10
68.621608
 20
263.681296
 30
0.0
 10
68.783586
 20
264.014961
 30
0.0
 10
69.005239
 20
264.471554
 30
0.0
 10
69.235418
 20
264.945709
 30
0.0
 10
69.303619
 20
265.086200
 30
0.0
 10
69.312144
 20
265.103761
 30
0.0
 11
68.621608
 21
263.681296
 31
0.0
 11
69.107541
 21
264.682290
 31
0.0
 11
69.286568
 21
265.051077
 31
0.0
 11
69.312144
 21
265.103761
 31
0.0
  0
LINE
  5
265
100
AcDbEntity
  8
0
 62
5
100
AcDbLine
 10
72.873483
 20
257.751903
 30
0.0
 11
70.179204
 21
262.418148
 31
0.0
  0
LINE
  5
266
100
AcDbEntity
  8
0
 62
1
100
AcDbLine
 10
148.760544
 20
159.496349
 30
0.0
 11
148.760733
 21
155.678800
 31
0.0
  0
LINE
  5
267
100
AcDbEntity
  8
0
 62
5
100
AcDbLine
 10
136.107393
 20
148.324978
 30
0.0
 11
142.889419
 21
150.171168
 31
0.0
  0
LINE
  5
268
100
AcDbEntity
  8
0
 62
5
100
AcDbLine
 10
142.889419
 20
150.171168
 30
0.0
 11
145.094573
 21
154.004773
 31
0.0
  0
LINE
  5
269
100
AcDbEntity
  8
0
 62
5
100
AcDbLine
 10
145.094573
 20
154.004773
 30
0.0
 11
146.939277
 21
162.657089
 31
0.0
  0
LINE
  5
26a
100
AcDbEntity
  8
0
 62
5
100
AcDbLine
 10
146.939277
 20
162.657089
 30
0.0
 11
147.448434
 21
165.045219
 31
0.0
  0
LINE
  5
26b
100
AcDbEntity
  8
0
 62
5
100
AcDbLine
 10
147.448434
 20
165.045219
 30
0.0
 11
146.066075
 21
165.574304
 31
0.0
  0
LINE
  5
26c
100
AcDbEntity
  8
0
 62
5
100
AcDbLine
 10
148.760313
 20
144.934625
 30
0.0
 11
148.760502
 21
152.849437
 31
0.0
  0
LINE
  5
26d
100
AcDbEntity
  8
0
 62
5
100
AcDbLine
 10
148.760220
 20
162.325737
 30
0.0
 11
148.760409
 21
170.240549
 31
0.0
  0
SPLINE
  5
26e
100
AcDbEntity
  8
0
 62
5
100
AcDbSpline
 70
0
 71
3
 72
10
 73
6
 74
4
 40
0.000000
 40
0.000000
 40
0.000000
 40
0.000000
 40
0.058722
 40
0.469774
 40
1.585487
 40
1.585487
 40
1.585487
 40
1.585487
 10
64.805046
 20
272.910282
 30
0.0
 10
64.785528
 20
272.911761
 30
0.0
 10
64.629385
 20
272.923592
 30
0.0
 10
64.102400
 20
272.963521
 30
0.0
 10
63.594932
 20
273.001971
 30
0.0
 10
63.224091
 20
273.030069
 30
0.0
 11
64.805046
 21
272.910282
 31
0.0
 11
64.746492
 21
272.914719
 31
0.0
 11
64.336615
 21
272.945775
 31
0.0
 11
63.224091
 21
273.030069
 31
0.0
  0
LINE
  5
26f
100
AcDbEntity
  8
0
 62
5
100
AcDbLine
 10
148.255112
 20
152.190076
 30
0.0
 11
148.255112
 21
153.755913
 31
0.0
  0
LINE
  5
270
100
AcDbEntity
  8
0
 62
5
100
AcDbLine
 10
148.255112
 20
153.755913
 30
0.0
 11
148.760742
 21
153.755913
 31
0.0
  0
LINE
  5
271
100
AcDbEntity
  8
0
 62
5
100
AcDbLine
 10
148.760742
 20
153.755913
 30
0.0
 11
148.760459
 21
152.849437
 31
0.0
  0
LINE
  5
272
100
AcDbEntity
  8
0
 62
5
100
AcDbLine
 10
148.760177
 20
162.325737
 30
0.0
 11
148.760459
 21
161.419259
 31
0.0
  0
LINE
  5
273
100
AcDbEntity
  8
0
 62
5
100
AcDbLine
 10
148.760459
 20
161.419259
 30
0.0
 11
148.255121
 21
161.419259
 31
0.0
  0
LINE
  5
274
100
AcDbEntity
  8
0
 62
5
100
AcDbLine
 10
148.255121
 20
161.419259
 30
0.0
 11
148.255121
 21
162.985110
 31
0.0
  0
SPLINE
  5
275
100
AcDbEntity
  8
0
 62
5
100
AcDbSpline
 70
0
 71
3
 72
10
 73
6
 74
4
 40
0.000000
 40
0.000000
 40
0.000000
 40
0.000000
 40
1.587953
 40
3.041886
 40
3.695047
 40
3.695047
 40
3.695047
 40
3.695047
 10
145.094573
 20
154.004773
 30
0.0
 10
145.477021
 20
153.631518
 30
0.0
 10
146.209637
 20
152.916508
 30
0.0
 10
147.374045
 20
152.449817
 30
0.0
 10
148.046625
 20
152.251539
 30
0.0
 10
148.255112
 20
152.190076
 30
0.0
 11
145.094573
 21
154.004773
 31
0.0
 11
146.303493
 21
152.975158
 31
0.0
 11
147.630474
 21
152.380984
 31
0.0
 11
148.255112
 21
152.190076
 31
0.0
  0
LINE
  5
276
100
AcDbEntity
  8
0
 62
1
100
AcDbLine
 10
139.732204
 20
154.603708
 30
0.0
 11
136.107393
 21
148.324978
 31
0.0
  0
LINE
  5
277
100
AcDbEntity
  8
0
 62
1
100
AcDbLine
 10
146.066075
 20
165.574304
 30
0.0
 11
145.129721
 21
163.952483
 31
0.0
  0
SPLINE
  5
278
100
AcDbEntity
  8
0
 62
5
100
AcDbSpline
 70
0
 71
3
 72
10
 73
6
 74
4
 40
0.000000
 40
0.000000
 40
0.000000
 40
0.000000
 40
0.167467
 40
0.634251
 40
1.363293
 40
1.363293
 40
1.363293
 40
1.363293
 10
148.255121
 20
162.985110
 30
0.0
 10
148.199317
 20
162.983098
 30
0.0
 10
147.987972
 20
162.975480
 30
0.0
 10
147.538279
 20
162.889695
 30
0.0
 10
147.166152
 20
162.745186
 30
0.0
 10
146.939282
 20
162.657086
 30
0.0
 11
148.255121
 21
162.985110
 31
0.0
 11
148.087859
 21
162.976824
 31
0.0
 11
147.628189
 21
162.895644
 31
0.0
 11
146.939282
 21
162.657086
 31
0.0
  0
LINE
  5
279
100
AcDbEntity
  8
0
 62
5
100
AcDbLine
 10
145.199015
 20
162.888689
 30
0.0
 11
140.691918
 21
155.082168
 31
0.0
  0
SPLINE
  5
27a
100
AcDbEntity
  8
0
 62
5
100
AcDbSpline
 70
0
 71
3
 72
10
 73
6
 74
4
 40
0.000000
 40
0.000000
 40
0.000000
 40
0.000000
 40
1.112710
 40
1.522655
 40
1.581219
 40
1.581219
 40
1.581219
 40
1.581219
 10
144.508480
 20
164.311156
 30
0.0
 10
144.670457
 20
163.977491
 30
0.0
 10
144.892111
 20
163.520896
 30
0.0
 10
145.122289
 20
163.046741
 30
0.0
 10
145.190490
 20
162.906250
 30
0.0
 10
145.199015
 20
162.888689
 30
0.0
 11
144.508480
 21
164.311156
 31
0.0
 11
144.994412
 21
163.310161
 31
0.0
 11
145.173440
 21
162.941373
 31
0.0
 11
145.199015
 21
162.888689
 31
0.0
  0
LINE
  5
27b
100
AcDbEntity
  8
0
 62
5
100
AcDbLine
 10
148.760355
 20
170.240549
 30
0.0
 11
146.066075
 21
165.574304
 31
0.0
  0
LINE
  5
27c
100
AcDbEntity
  8
0
 62
1
100
AcDbLine
 10
60.195511
 20
202.909973
 30
0.0
 11
60.195322
 21
206.727522
 31
0.0
  0
LINE
  5
27d
100
AcDbEntity
  8
0
 62
5
100
AcDbLine
 10
72.848662
 20
214.081344
 30
0.0
 11
66.066636
 21
212.235154
 31
0.0
  0
LINE
  5
27e
100
AcDbEntity
  8
0
 62
5
100
AcDbLine
 10
66.066636
 20
212.235154
 30
0.0
 11
63.861482
 21
208.401549
 31
0.0
  0
LINE
  5
27f
100
AcDbEntity
  8
0
 62
5
100
AcDbLine
 10
63.861482
 20
208.401549
 30
0.0
 11
62.016778
 21
199.749234
 31
0.0
  0
LINE
  5
280
100
AcDbEntity
  8
0
 62
5
100
AcDbLine
 10
62.016778
 20
199.749234
 30
0.0
 11
61.507621
 21
197.361103
 31
0.0
  0
LINE
  5
281
100
AcDbEntity
  8
0
 62
5
100
AcDbLine
 10
61.507621
 20
197.361103
 30
0.0
 11
62.889979
 21
196.832018
 31
0.0
  0
LINE
  5
282
100
AcDbEntity
  8
0
 62
5
100
AcDbLine
 10
60.195742
 20
217.471697
 30
0.0
 11
60.195553
 21
209.556885
 31
0.0
  0
LINE
  5
283
100
AcDbEntity
  8
0
 62
5
100
AcDbLine
 10
60.195835
 20
200.080585
 30
0.0
 11
60.195646
 21
192.165773
 31
0.0
  0
SPLINE
  5
284
100
AcDbEntity
  8
0
 62
5
100
AcDbSpline
 70
0
 71
3
 72
10
 73
6
 74
4
 40
0.000000
 40
0.000000
 40
0.000000
 40
0.000000
 40
0.058722
 40
0.469774
 40
1.585487
 40
1.585487
 40
1.585487
 40
1.585487
 10
140.691918
 20
155.082168
 30
0.0
 10
140.672400
 20
155.080689
 30
0.0
 10
140.516256
 20
155.068858
 30
0.0
 10
139.989271
 20
155.028930
 30
0.0
 10
139.481804
 20
154.990480
 30
0.0
 10
139.110963
 20
154.962382
 30
0.0
 11
140.691918
 21
155.082168
 31
0.0
 11
140.633364
 21
155.077731
 31
0.0
 11
140.223487
 21
155.046676
 31
0.0
 11
139.110963
 21
154.962382
 31
0.0
  0
LINE
  5
285
100
AcDbEntity
  8
0
 62
5
100
AcDbLine
 10
60.700889
 20
210.216246
 30
0.0
 11
60.700889
 21
208.650410
 31
0.0
  0
LINE
  5
286
100
AcDbEntity
  8
0
 62
5
100
AcDbLine
 10
60.700889
 20
208.650410
 30
0.0
 11
60.195260
 21
208.650410
 31
0.0
  0
LINE
  5
287
100
AcDbEntity
  8
0
 62
5
100
AcDbLine
 10
60.195260
 20
208.650410
 30
0.0
 11
60.195542
 21
209.556885
 31
0.0
  0
LINE
  5
288
100
AcDbEntity
  8
0
 62
5
100
AcDbLine
 10
60.195824
 20
200.080585
 30
0.0
 11
60.195542
 21
200.987063
 31
0.0
  0
LINE
  5
289
100
AcDbEntity
  8
0
 62
5
100
AcDbLine
 10
60.195542
 20
200.987063
 30
0.0
 11
60.700880
 21
200.987063
 31
0.0
  0
LINE
  5
28a
100
AcDbEntity
  8
0
 62
5
100
AcDbLine
 10
60.700880
 20
200.987063
 30
0.0
 11
60.700880
 21
199.421212
 31
0.0
  0
SPLINE
  5
28b
100
AcDbEntity
  8
0
 62
5
100
AcDbSpline
 70
0
 71
3
 72
10
 73
6
 74
4
 40
0.000000
 40
0.000000
 40
0.000000
 40
0.000000
 40
1.587953
 40
3.041886
 40
3.695047
 40
3.695047
 40
3.695047
 40
3.695047
 10
63.861428
 20
208.401549
 30
0.0
 10
63.478981
 20
208.774805
 30
0.0
 10
62.746364
 20
209.489814
 30
0.0
 10
61.581957
 20
209.956505
 30
0.0
 10
60.909377
 20
210.154783
 30
0.0
 10
60.700889
 20
210.216246
 30
0.0
 11
63.861428
 21
208.401549
 31
0.0
 11
62.652508
 21
209.431165
 31
0.0
 11
61.325528
 21
210.025338
 31
0.0
 11
60.700889
 21
210.216246
 31
0.0
  0
LINE
  5
28c
100
AcDbEntity
  8
0
 62
1
100
AcDbLine
 10
69.223850
 20
207.802614
 30
0.0
 11
72.848662
 21
214.081344
 31
0.0
  0
LINE
  5
28d
100
AcDbEntity
  8
0
 62
1
100
AcDbLine
 10
62.889979
 20
196.832018
 30
0.0
 11
63.826334
 21
198.453839
 31
0.0
  0
SPLINE
  5
28e
100
AcDbEntity
  8
0
 62
5
100
AcDbSpline
 70
0
 71
3
 72
10
 73
6
 74
4
 40
0.000000
 40
0.000000
 40
0.000000
 40
0.000000
 40
0.167467
 40
0.634251
 40
1.363293
 40
1.363293
 40
1.363293
 40
1.363293
 10
60.700880
 20
199.421212
 30
0.0
 10
60.756684
 20
199.423224
 30
0.0
 10
60.968030
 20
199.430842
 30
0.0
 10
61.417722
 20
199.516628
 30
0.0
 10
61.789849
 20
199.661136
 30
0.0
 10
62.016719
 20
199.749236
 30
0.0
 11
60.700880
 21
199.421212
 31
0.0
 11
60.868142
 21
199.429498
 31
0.0
 11
61.327813
 21
199.510678
 31
0.0
 11
62.016719
 21
199.749236
 31
0.0
  0
LINE
  5
28f
100
AcDbEntity
  8
0
 62
5
100
AcDbLine
 10
63.757040
 20
199.517634
 30
0.0
 11
68.264137
 21
207.324154
 31
0.0
  0
SPLINE
  5
290
100
AcDbEntity
  8
0
 62
5
100
AcDbSpline
 70
0
 71
3
 72
10
 73
6
 74
4
 40
0.000000
 40
0.000000
 40
0.000000
 40
0.000000
 40
1.112710
 40
1.522655
 40
1.581219
 40
1.581219
 40
1.581219
 40
1.581219
 10
64.447575
 20
198.095166
 30
0.0
 10
64.285598
 20
198.428831
 30
0.0
 10
64.063944
 20
198.885426
 30
0.0
 10
63.833766
 20
199.359582
 30
0.0
 10
63.765565
 20
199.500072
 30
0.0
 10
63.757040
 20
199.517634
 30
0.0
 11
64.447575
 21
198.095166
 31
0.0
 11
63.961643
 21
199.096162
 31
0.0
 11
63.782615
 21
199.464950
 31
0.0
 11
63.757040
 21
199.517634
 31
0.0
  0
LINE
  5
291
100
AcDbEntity
  8
0
 62
5
100
AcDbLine
 10
60.195700
 20
192.165773
 30
0.0
 11
62.889979
 21
196.832018
 31
0.0
  0
LINE
  5
292
100
AcDbEntity
  8
0
 62
1
100
AcDbLine
 10
107.450320
 20
208.675451
 30
0.0
 11
110.756508
 21
206.766839
 31
0.0
  0
LINE
  5
293
100
AcDbEntity
  8
0
 62
5
100
AcDbLine
 10
110.798435
 20
192.131813
 30
0.0
 11
112.590600
 21
198.928314
 31
0.0
  0
LINE
  5
294
100
AcDbEntity
  8
0
 62
5
100
AcDbLine
 10
112.590600
 20
198.928314
 30
0.0
 11
110.373177
 21
202.754838
 31
0.0
  0
LINE
  5
295
100
AcDbEntity
  8
0
 62
5
100
AcDbLine
 10
110.373177
 20
202.754838
 30
0.0
 11
103.802403
 21
208.678556
 31
0.0
  0
LINE
  5
296
100
AcDbEntity
  8
0
 62
5
100
AcDbLine
 10
103.802403
 20
208.678556
 30
0.0
 11
101.988801
 21
210.313565
 31
0.0
  0
LINE
  5
297
100
AcDbEntity
  8
0
 62
5
100
AcDbLine
 10
101.988801
 20
210.313565
 30
0.0
 11
100.839422
 21
209.380950
 31
0.0
  0
LINE
  5
298
100
AcDbEntity
  8
0
 62
5
100
AcDbLine
 10
120.061025
 20
201.394389
 30
0.0
 11
113.206691
 21
205.351957
 31
0.0
  0
LINE
  5
299
100
AcDbEntity
  8
0
 62
5
100
AcDbLine
 10
104.999807
 20
210.089816
 30
0.0
 11
98.145473
 21
214.047385
 31
0.0
  0
SPLINE
  5
29a
100
AcDbEntity
  8
0
 62
5
100
AcDbSpline
 70
0
 71
3
 72
10
 73
6
 74
4
 40
0.000000
 40
0.000000
 40
0.000000
 40
0.000000
 40
0.058722
 40
0.469774
 40
1.585487
 40
1.585487
 40
1.585487
 40
1.585487
 10
68.264137
 20
207.324154
 30
0.0
 10
68.283655
 20
207.325633
 30
0.0
 10
68.439799
 20
207.337464
 30
0.0
 10
68.966784
 20
207.377393
 30
0.0
 10
69.474251
 20
207.415843
 30
0.0
 10
69.845092
 20
207.443941
 30
0.0
 11
68.264137
 21
207.324154
 31
0.0
 11
68.322691
 21
207.328591
 31
0.0
 11
68.732568
 21
207.359646
 31
0.0
 11
69.845092
 21
207.443941
 31
0.0
  0
LINE
  5
29b
100
AcDbEntity
  8
0
 62
5
100
AcDbLine
 10
113.525021
 20
204.584598
 30
0.0
 11
112.168965
 21
205.367516
 31
0.0
  0
LINE
  5
29c
100
AcDbEntity
  8
0
 62
5
100
AcDbLine
 10
112.168965
 20
205.367516
 30
0.0
 11
112.421780
 21
205.805404
 31
0.0
  0
LINE
  5
29d
100
AcDbEntity
  8
0
 62
5
100
AcDbLine
 10
112.421780
 20
205.805404
 30
0.0
 11
113.206671
 21
205.351920
 31
0.0
  0
LINE
  5
29e
100
AcDbEntity
  8
0
 62
5
100
AcDbLine
 10
104.999810
 20
210.089816
 30
0.0
 11
105.784980
 21
209.636824
 31
0.0
  0
LINE
  5
29f
100
AcDbEntity
  8
0
 62
5
100
AcDbLine
 10
105.784980
 20
209.636824
 30
0.0
 11
105.532315
 21
209.199188
 31
0.0
  0
LINE
  5
2a0
100
AcDbEntity
  8
0
 62
5
100
AcDbLine
 10
105.532315
 20
209.199188
 30
0.0
 11
104.176246
 21
209.982115
 31
0.0
  0
SPLINE
  5
2a1
100
AcDbEntity
  8
0
 62
5
100
AcDbSpline
 70
0
 71
3
 72
10
 73
6
 74
4
 40
0.000000
 40
0.000000
 40
0.000000
 40
0.000000
 40
1.587954
 40
3.041887
 40
3.695048
 40
3.695048
 40
3.695048
 40
3.695048
 10
110.373177
 20
202.754838
 30
0.0
 10
110.887650
 20
202.899419
 30
0.0
 10
111.873174
 20
203.176379
 30
0.0
 10
112.859545
 20
203.951440
 30
0.0
 10
113.367549
 20
204.434773
 30
0.0
 10
113.525021
 20
204.584598
 30
0.0
 11
110.373177
 21
202.754838
 31
0.0
 11
111.869311
 21
203.286985
 31
0.0
 11
113.047370
 21
204.139098
 31
0.0
 11
113.525021
 21
204.584598
 31
0.0
  0
LINE
  5
2a2
100
AcDbEntity
  8
0
 62
1
100
AcDbLine
 10
107.173299
 20
198.410357
 30
0.0
 11
110.798435
 21
192.131813
 31
0.0
  0
LINE
  5
2a3
100
AcDbEntity
  8
0
 62
1
100
AcDbLine
 10
100.839420
 20
209.380950
 30
0.0
 11
101.775782
 21
207.759132
 31
0.0
  0
SPLINE
  5
2a4
100
AcDbEntity
  8
0
 62
5
100
AcDbSpline
 70
0
 71
3
 72
10
 73
6
 74
4
 40
0.000000
 40
0.000000
 40
0.000000
 40
0.000000
 40
0.167467
 40
0.634250
 40
1.363294
 40
1.363294
 40
1.363294
 40
1.363294
 10
104.176246
 20
209.982115
 30
0.0
 10
104.150085
 20
209.932782
 30
0.0
 10
104.051006
 20
209.745944
 30
0.0
 10
103.900451
 20
209.313606
 30
0.0
 10
103.839540
 20
208.919079
 30
0.0
 10
103.802406
 20
208.678553
 30
0.0
 11
104.176246
 21
209.982115
 31
0.0
 11
104.099788
 21
209.833120
 31
0.0
 11
103.940255
 21
209.394445
 31
0.0
 11
103.802406
 21
208.678553
 31
0.0
  0
LINE
  5
2a5
100
AcDbEntity
  8
0
 62
5
100
AcDbLine
 10
102.731700
 20
207.287245
 30
0.0
 11
107.238797
 21
199.480724
 31
0.0
  0
SPLINE
  5
2a6
100
AcDbEntity
  8
0
 62
5
100
AcDbSpline
 70
0
 71
3
 72
10
 73
6
 74
4
 40
0.000000
 40
0.000000
 40
0.000000
 40
0.000000
 40
1.112709
 40
1.522654
 40
1.581217
 40
1.581217
 40
1.581217
 40
1.581217
 10
101.154540
 20
207.400456
 30
0.0
 10
101.524491
 20
207.373900
 30
0.0
 10
102.030740
 20
207.337561
 30
0.0
 10
102.556460
 20
207.299824
 30
0.0
 10
102.712229
 20
207.288643
 30
0.0
 10
102.731700
 20
207.287245
 30
0.0
 11
101.154540
 21
207.400456
 31
0.0
 11
102.264393
 21
207.320789
 31
0.0
 11
102.673287
 21
207.291438
 31
0.0
 11
102.731700
 21
207.287245
 31
0.0
  0
LINE
  5
2a7
100
AcDbEntity
  8
0
 62
5
100
AcDbLine
 10
98.145473
 20
214.047385
 30
0.0
 11
100.839420
 21
209.380947
 31
0.0
  0
LINE
  5
2a8
100
AcDbEntity
  8
0
 62
1
100
AcDbLine
 10
101.666257
 20
153.706024
 30
0.0
 11
98.360069
 21
155.614637
 31
0.0
  0
LINE
  5
2a9
100
AcDbEntity
  8
0
 62
5
100
AcDbLine
 10
98.318142
 20
170.249662
 30
0.0
 11
96.525977
 21
163.453161
 31
0.0
  0
LINE
  5
2aa
100
AcDbEntity
  8
0
 62
5
100
AcDbLine
 10
96.525977
 20
163.453161
 30
0.0
 11
98.743400
 21
159.626637
 31
0.0
  0
LINE
  5
2ab
100
AcDbEntity
  8
0
 62
5
100
AcDbLine
 10
98.743400
 20
159.626637
 30
0.0
 11
105.314174
 21
153.702920
 31
0.0
  0
LINE
  5
2ac
100
AcDbEntity
  8
0
 62
5
100
AcDbLine
 10
105.314174
 20
153.702920
 30
0.0
 11
107.127777
 21
152.067910
 31
0.0
  0
LINE
  5
2ad
100
AcDbEntity
  8
0
 62
5
100
AcDbLine
 10
107.127777
 20
152.067910
 30
0.0
 11
108.277155
 21
153.000525
 31
0.0
  0
LINE
  5
2ae
100
AcDbEntity
  8
0
 62
5
100
AcDbLine
 10
89.055552
 20
160.987087
 30
0.0
 11
95.909886
 21
157.029518
 31
0.0
  0
LINE
  5
2af
100
AcDbEntity
  8
0
 62
5
100
AcDbLine
 10
104.116770
 20
152.291659
 30
0.0
 11
110.971104
 21
148.334091
 31
0.0
  0
SPLINE
  5
2b0
100
AcDbEntity
  8
0
 62
5
100
AcDbSpline
 70
0
 71
3
 72
10
 73
6
 74
4
 40
0.000000
 40
0.000000
 40
0.000000
 40
0.000000
 40
0.058722
 40
0.469774
 40
1.585487
 40
1.585487
 40
1.585487
 40
1.585487
 10
107.238797
 20
199.480724
 30
0.0
 10
107.230319
 20
199.463082
 30
0.0
 10
107.162493
 20
199.321942
 30
0.0
 10
106.933579
 20
198.845595
 30
0.0
 10
106.713144
 20
198.386891
 30
0.0
 10
106.552057
 20
198.051684
 30
0.0
 11
107.238797
 21
199.480724
 31
0.0
 11
107.213362
 21
199.427797
 31
0.0
 11
107.035319
 21
199.057305
 31
0.0
 11
106.552057
 21
198.051684
 31
0.0
  0
LINE
  5
2b1
100
AcDbEntity
  8
0
 62
5
100
AcDbLine
 10
95.591557
 20
157.796878
 30
0.0
 11
96.947612
 21
157.013959
 31
0.0
  0
LINE
  5
2b2
100
AcDbEntity
  8
0
 62
5
100
AcDbLine
 10
96.947612
 20
157.013959
 30
0.0
 11
96.694797
 21
156.576072
 31
0.0
  0
LINE
  5
2b3
100
AcDbEntity
  8
0
 62
5
100
AcDbLine
 10
96.694797
 20
156.576072
 30
0.0
 11
95.909906
 21
157.029555
 31
0.0
  0
LINE
  5
2b4
100
AcDbEntity
  8
0
 62
5
100
AcDbLine
 10
104.116767
 20
152.291659
 30
0.0
 11
103.331597
 21
152.744651
 31
0.0
  0
LINE
  5
2b5
100
AcDbEntity
  8
0
 62
5
100
AcDbLine
 10
103.331597
 20
152.744651
 30
0.0
 11
103.584262
 21
153.182287
 31
0.0
  0
LINE
  5
2b6
100
AcDbEntity
  8
0
 62
5
100
AcDbLine
 10
103.584262
 20
153.182287
 30
0.0
 11
104.940331
 21
152.399361
 31
0.0
  0
SPLINE
  5
2b7
100
AcDbEntity
  8
0
 62
5
100
AcDbSpline
 70
0
 71
3
 72
10
 73
6
 74
4
 40
0.000000
 40
0.000000
 40
0.000000
 40
0.000000
 40
1.587954
 40
3.041887
 40
3.695048
 40
3.695048
 40
3.695048
 40
3.695048
 10
98.743400
 20
159.626637
 30
0.0
 10
98.228928
 20
159.482056
 30
0.0
 10
97.243403
 20
159.205096
 30
0.0
 10
96.257032
 20
158.430035
 30
0.0
 10
95.749029
 20
157.946702
 30
0.0
 10
95.591557
 20
157.796878
 30
0.0
 11
98.743400
 21
159.626637
 31
0.0
 11
97.247267
 21
159.094490
 31
0.0
 11
96.069207
 21
158.242377
 31
0.0
 11
95.591557
 21
157.796878
 31
0.0
  0
LINE
  5
2b8
100
AcDbEntity
  8
0
 62
1
100
AcDbLine
 10
101.943278
 20
163.971118
 30
0.0
 11
98.318142
 21
170.249662
 31
0.0
  0
LINE
  5
2b9
100
AcDbEntity
  8
0
 62
1
100
AcDbLine
 10
108.277158
 20
153.000525
 30
0.0
 11
107.340795
 21
154.622343
 31
0.0
  0
SPLINE
  5
2ba
100
AcDbEntity
  8
0
 62
5
100
AcDbSpline
 70
0
 71
3
 72
10
 73
6
 74
4
 40
0.000000
 40
0.000000
 40
0.000000
 40
0.000000
 40
0.167467
 40
0.634250
 40
1.363294
 40
1.363294
 40
1.363294
 40
1.363294
 10
104.940331
 20
152.399361
 30
0.0
 10
104.966492
 20
152.448693
 30
0.0
 10
105.065571
 20
152.635531
 30
0.0
 10
105.216127
 20
153.067869
 30
0.0
 10
105.277037
 20
153.462396
 30
0.0
 10
105.314171
 20
153.702923
 30
0.0
 11
104.940331
 21
152.399361
 31
0.0
 11
105.016789
 21
152.548355
 31
0.0
 11
105.176323
 21
152.987030
 31
0.0
 11
105.314171
 21
153.702923
 31
0.0
  0
LINE
  5
2bb
100
AcDbEntity
  8
0
 62
5
100
AcDbLine
 10
106.384877
 20
155.094230
 30
0.0
 11
101.877780
 21
162.900751
 31
0.0
  0
SPLINE
  5
2bc
100
AcDbEntity
  8
0
 62
5
100
AcDbSpline
 70
0
 71
3
 72
10
 73
6
 74
4
 40
0.000000
 40
0.000000
 40
0.000000
 40
0.000000
 40
1.112709
 40
1.522654
 40
1.581217
 40
1.581217
 40
1.581217
 40
1.581217
 10
107.962037
 20
154.981020
 30
0.0
 10
107.592086
 20
155.007575
 30
0.0
 10
107.085837
 20
155.043914
 30
0.0
 10
106.560117
 20
155.081651
 30
0.0
 10
106.404349
 20
155.092832
 30
0.0
 10
106.384877
 20
155.094230
 30
0.0
 11
107.962037
 21
154.981020
 31
0.0
 11
106.852184
 21
155.060686
 31
0.0
 11
106.443291
 21
155.090037
 31
0.0
 11
106.384877
 21
155.094230
 31
0.0
  0
LINE
  5
2bd
100
AcDbEntity
  8
0
 62
5
100
AcDbLine
 10
110.971104
 20
148.334091
 30
0.0
 11
108.277158
 21
153.000528
 31
0.0
  0
SPLINE
  5
2be
100
AcDbEntity
  8
0
 62
5
100
AcDbSpline
 70
0
 71
3
 72
10
 73
6
 74
4
 40
0.000000
 40
0.000000
 40
0.000000
 40
0.000000
 40
0.058722
 40
0.469774
 40
1.585487
 40
1.585487
 40
1.585487
 40
1.585487
 10
101.877780
 20
162.900751
 30
0.0
 10
101.886258
 20
162.918393
 30
0.0
 10
101.954084
 20
163.059533
 30
0.0
 10
102.182998
 20
163.535880
 30
0.0
 10
102.403433
 20
163.994584
 30
0.0
 10
102.564520
 20
164.329791
 30
0.0
 11
101.877780
 21
162.900751
 31
0.0
 11
101.903215
 21
162.953678
 31
0.0
 11
102.081259
 21
163.324170
 31
0.0
 11
102.564520
 21
164.329791
 31
0.0
  0
ENDSEC
  0
SECTION
  2
OBJECTS
  0
DICTIONARY
  5
C
330
0
100
AcDbDictionary
  3
ACAD_GROUP
350
D
  3
ACAD_MLINESTYLE
350
17
  0
DICTIONARY
  5
D
330
C
100
AcDbDictionary
  0
DICTIONARY
  5
1A
330
C
100
AcDbDictionary
  0
DICTIONARY
  5
17
330
C
100
AcDbDictionary
  3
STANDARD
350
18
  0
DICTIONARY
  5
19
330
C
100
AcDbDictionary
  0
ENDSEC
  0
EOF
