999
DXF created by Inkscape
  0
SECTION
  2
HEADER
  9
$ACADVER
  1
AC1014
  9
$HANDSEED
  5
FFFF
  9
$MEASUREMENT
 70
     1
  0
ENDSEC
  0
SECTION
  2
TABLES
  0
TABLE
  2
VPORT
  5
8
330
0
100
AcDbSymbolTable
 70
     4
  0
VPORT
  5
2E
330
8
100
AcDbSymbolTableRecord
100
AcDbViewportTableRecord
  2
*ACTIVE
 70
     0
 10
0.0
 20
0.0
 11
1.0
 21
1.0
 12
210.0
 22
148.5
 13
0.0
 23
0.0
 14
10.0
 24
10.0
 15
10.0
 25
10.0
 16
0.0
 26
0.0
 36
1.0
 17
0.0
 27
0.0
 37
0.0
 40
341.0
 41
1.24
 42
50.0
 43
0.0
 44
0.0
 50
0.0
 51
0.0
 71
     0
 72
   100
 73
     1
 74
     3
 75
     0
 76
     0
 77
     0
 78
     0
  0
ENDTAB
  0
TABLE
  2
LTYPE
  5
5
330
0
100
AcDbSymbolTable
 70
     1
  0
LTYPE
  5
14
330
5
100
AcDbSymbolTableRecord
100
AcDbLinetypeTableRecord
  2
BYBLOCK
 70
     0
  3

 72
    65
 73
     0
 40
0.0
  0
LTYPE
  5
15
330
5
100
AcDbSymbolTableRecord
100
AcDbLinetypeTableRecord
  2
BYLAYER
 70
     0
  3

 72
    65
 73
     0
 40
0.0
  0
LTYPE
  5
16
330
5
100
AcDbSymbolTableRecord
100
AcDbLinetypeTableRecord
  2
CONTINUOUS
 70
     0
  3
Solid line
 72
    65
 73
     0
 40
0.0
  0
ENDTAB
  0
TABLE
  2
LAYER
  5
2
330
0
100
AcDbSymbolTable
 70
1
  0
LAYER
  5
10
330
2
100
AcDbSymbolTableRecord
100
AcDbLayerTableRecord
  2
0
 70
     0
 62
     7
  6
CONTINUOUS
  0
ENDTAB
  0
TABLE
  2
STYLE
  5
3
330
0
100
AcDbSymbolTable
 70
     1
  0
STYLE
  5
11
330
3
100
AcDbSymbolTableRecord
100
AcDbTextStyleTableRecord
  2
STANDARD
 70
     0
 40
0.0
 41
1.0
 50
0.0
 71
     0
 42
2.5
  3
txt
  4

  0
ENDTAB
  0
TABLE
  2
VIEW
  5
6
330
0
100
AcDbSymbolTable
 70
     0
  0
ENDTAB
  0
TABLE
  2
UCS
  5
7
330
0
100
AcDbSymbolTable
 70
     0
  0
ENDTAB
  0
TABLE
  2
APPID
  5
9
330
0
100
AcDbSymbolTable
 70
     2
  0
APPID
  5
12
330
9
100
AcDbSymbolTableRecord
100
AcDbRegAppTableRecord
  2
ACAD
 70
     0
  0
ENDTAB
  0
TABLE
  2
DIMSTYLE
  5
A
330
0
100
AcDbSymbolTable
 70
     1
  0
DIMSTYLE
105
27
330
A
100
AcDbSymbolTableRecord
100
AcDbDimStyleTableRecord
  2
ISO-25
 70
     0
  3

  4

  5

  6

  7

 40
1.0
 41
2.5
 42
0.625
 43
3.75
 44
1.25
 45
0.0
 46
0.0
 47
0.0
 48
0.0
140
2.5
141
2.5
142
0.0
143
0.03937007874016
144
1.0
145
0.0
146
1.0
147
0.625
 71
     0
 72
     0
 73
     0
 74
     0
 75
     0
 76
     0
 77
     1
 78
     8
170
     0
171
     3
172
     1
173
     0
174
     0
175
     0
176
     0
177
     0
178
     0
270
     2
271
     2
272
     2
273
     2
274
     3
340
11
275
     0
280
     0
281
     0
282
     0
283
     0
284
     8
285
     0
286
     0
287
     3
288
     0
  0
ENDTAB
  0
TABLE
  2
BLOCK_RECORD
  5
1
330
0
100
AcDbSymbolTable
 70
     1
  0
BLOCK_RECORD
  5
1F
330
1
100
AcDbSymbolTableRecord
100
AcDbBlockTableRecord
  2
*MODEL_SPACE
  0
BLOCK_RECORD
  5
1B
330
1
100
AcDbSymbolTableRecord
100
AcDbBlockTableRecord
  2
*PAPER_SPACE
  0
ENDTAB
  0
ENDSEC
  0
SECTION
  2
BLOCKS
  0
BLOCK
  5
20
330
1F
100
AcDbEntity
  8
0
100
AcDbBlockBegin
  2
*MODEL_SPACE
 70
     0
 10
0.0
 20
0.0
 30
0.0
  3
*MODEL_SPACE
  1

  0
ENDBLK
  5
21
330
1F
100
AcDbEntity
  8
0
100
AcDbBlockEnd
  0
BLOCK
  5
1C
330
1B
100
AcDbEntity
 67
     1
  8
0
100
AcDbBlockBegin
  2
*PAPER_SPACE
  1

  0
ENDBLK
  5
1D
330
1B
100
AcDbEntity
 67
     1
  8
0
100
AcDbBlockEnd
  0
ENDSEC
  0
SECTION
  2
ENTITIES
  0
LINE
  5
100
100
AcDbEntity
  8
0
 62
1
100
AcDbLine
 10
111.142258
 20
190.250617
 30
0.0
 11
85.777536
 21
190.250617
 31
0.0
  0
LINE
  5
101
100
AcDbEntity
  8
0
 62
1
100
AcDbLine
 10
129.077819
 20
146.950306
 30
0.0
 11
129.077819
 21
172.315042
 31
0.0
  0
LINE
  5
102
100
AcDbEntity
  8
0
 62
1
100
AcDbLine
 10
85.777536
 20
129.014731
 30
0.0
 11
111.142258
 21
129.014731
 31
0.0
  0
LINE
  5
103
100
AcDbEntity
  8
0
 62
1
100
AcDbLine
 10
129.107531
 20
146.950424
 30
0.0
 11
147.043092
 21
129.014849
 31
0.0
  0
LINE
  5
104
100
AcDbEntity
  8
0
 62
1
100
AcDbLine
 10
85.807304
 20
67.749530
 30
0.0
 11
111.172027
 21
67.749530
 31
0.0
  0
LINE
  5
105
100
AcDbEntity
  8
0
 62
5
100
AcDbLine
 10
172.349016
 20
190.250736
 30
0.0
 11
167.359155
 21
195.201046
 31
0.0
  0
LINE
  5
106
100
AcDbEntity
  8
0
 62
5
100
AcDbLine
 10
167.359155
 20
195.201046
 30
0.0
 11
152.032950
 21
195.201046
 31
0.0
  0
LINE
  5
107
100
AcDbEntity
  8
0
 62
5
100
AcDbLine
 10
152.032950
 20
195.201046
 30
0.0
 11
147.043092
 21
190.250736
 31
0.0
  0
LINE
  5
108
100
AcDbEntity
  8
0
 62
1
100
AcDbLine
 10
165.099069
 20
190.250547
 30
0.0
 11
172.349016
 21
190.250733
 31
0.0
  0
LINE
  5
109
100
AcDbEntity
  8
0
 62
1
100
AcDbLine
 10
147.043092
 20
190.250736
 30
0.0
 11
154.304035
 21
190.250547
 31
0.0
  0
LINE
  5
10a
100
AcDbEntity
  8
0
 62
5
100
AcDbLine
 10
155.190658
 20
190.842454
 30
0.0
 11
164.204853
 21
190.842454
 31
0.0
  0
SPLINE
  5
10b
100
AcDbEntity
  8
0
 62
5
100
AcDbSpline
 70
0
 71
3
 72
10
 73
6
 74
4
 40
0.000000
 40
0.000000
 40
0.000000
 40
0.000000
 40
1.112709
 40
1.522654
 40
1.581217
 40
1.581217
 40
1.581217
 40
1.581217
 10
154.304035
 20
189.533200
 30
0.0
 10
154.512008
 20
189.840309
 30
0.0
 10
154.796604
 20
190.260563
 30
0.0
 10
155.092145
 20
190.696981
 30
0.0
 10
155.179713
 20
190.826290
 30
0.0
 10
155.190658
 20
190.842454
 30
0.0
 11
154.304035
 21
189.533200
 31
0.0
 11
154.927955
 21
190.454527
 31
0.0
 11
155.157821
 21
190.793963
 31
0.0
 11
155.190658
 21
190.842454
 31
0.0
  0
LINE
  5
10c
100
AcDbEntity
  8
0
 62
5
100
AcDbLine
 10
93.750985
 20
251.415715
 30
0.0
 11
94.657463
 21
251.415433
 31
0.0
  0
LINE
  5
10d
100
AcDbEntity
  8
0
 62
5
100
AcDbLine
 10
94.657463
 20
251.415433
 30
0.0
 11
94.657463
 21
251.920771
 31
0.0
  0
LINE
  5
10e
100
AcDbEntity
  8
0
 62
5
100
AcDbLine
 10
94.657463
 20
251.920771
 30
0.0
 11
93.091612
 21
251.920771
 31
0.0
  0
SPLINE
  5
10f
100
AcDbEntity
  8
0
 62
5
100
AcDbSpline
 70
0
 71
3
 72
10
 73
6
 74
4
 40
0.000000
 40
0.000000
 40
0.000000
 40
0.000000
 40
0.058722
 40
0.469774
 40
1.585487
 40
1.585487
 40
1.585487
 40
1.585487
 10
164.204853
 20
190.842454
 30
0.0
 10
164.215893
 20
190.826290
 30
0.0
 10
164.304210
 20
190.696981
 30
0.0
 10
164.602282
 20
190.260563
 30
0.0
 10
164.889314
 20
189.840309
 30
0.0
 10
165.099069
 20
189.533200
 30
0.0
 11
164.204853
 21
190.842454
 31
0.0
 11
164.237972
 21
190.793963
 31
0.0
 11
164.469806
 21
190.454527
 31
0.0
 11
165.099069
 21
189.533200
 31
0.0
  0
LINE
  5
110
100
AcDbEntity
  8
0
 62
5
100
AcDbLine
 10
103.886646
 20
251.920771
 30
0.0
 11
102.320810
 21
251.920771
 31
0.0
  0
LINE
  5
111
100
AcDbEntity
  8
0
 62
5
100
AcDbLine
 10
102.320810
 20
251.920771
 30
0.0
 11
102.320810
 21
251.415141
 31
0.0
  0
LINE
  5
112
100
AcDbEntity
  8
0
 62
5
100
AcDbLine
 10
102.320810
 20
251.415141
 30
0.0
 11
103.227285
 21
251.415424
 31
0.0
  0
LINE
  5
113
100
AcDbEntity
  8
0
 62
5
100
AcDbLine
 10
93.750991
 20
251.415719
 30
0.0
 11
85.836179
 21
251.415531
 31
0.0
  0
LINE
  5
114
100
AcDbEntity
  8
0
 62
5
100
AcDbLine
 10
111.142100
 20
251.415571
 30
0.0
 11
103.227288
 21
251.415383
 31
0.0
  0
LINE
  5
115
100
AcDbEntity
  8
0
 62
1
100
AcDbLine
 10
96.580379
 20
251.415331
 30
0.0
 11
100.397928
 21
251.415143
 31
0.0
  0
LINE
  5
116
100
AcDbEntity
  8
0
 62
5
100
AcDbLine
 10
129.078112
 20
225.665552
 30
0.0
 11
129.077830
 21
224.759074
 31
0.0
  0
LINE
  5
117
100
AcDbEntity
  8
0
 62
5
100
AcDbLine
 10
129.077830
 20
224.759074
 30
0.0
 11
129.583166
 21
224.759074
 31
0.0
  0
LINE
  5
118
100
AcDbEntity
  8
0
 62
5
100
AcDbLine
 10
129.583166
 20
224.759074
 30
0.0
 11
129.583166
 21
226.324925
 31
0.0
  0
SPLINE
  5
119
100
AcDbEntity
  8
0
 62
5
100
AcDbSpline
 70
0
 71
3
 72
16
 73
12
 74
10
 40
0.000000
 40
0.000000
 40
0.000000
 40
0.000000
 40
0.594052
 40
1.926273
 40
3.438881
 40
6.074692
 40
8.833683
 40
11.469466
 40
12.982642
 40
14.315439
 40
14.909670
 40
14.909670
 40
14.909670
 40
14.909670
 10
93.091612
 20
251.920771
 30
0.0
 10
93.130833
 20
252.114851
 30
0.0
 10
93.258012
 20
252.744178
 30
0.0
 10
93.648724
 20
253.834089
 30
0.0
 10
94.834639
 20
255.300698
 30
0.0
 10
97.154120
 20
256.030821
 30
0.0
 10
99.820808
 20
256.030960
 30
0.0
 10
102.140279
 20
255.300411
 30
0.0
 10
103.326756
 20
253.834004
 30
0.0
 10
103.718955
 20
252.744237
 30
0.0
 10
103.847123
 20
252.114852
 30
0.0
 10
103.886646
 20
251.920771
 30
0.0
 11
93.091612
 21
251.920771
 31
0.0
 11
93.217995
 21
252.501223
 31
0.0
 11
93.692343
 21
253.746136
 31
0.0
 11
94.657458
 21
254.910840
 31
0.0
 11
97.107954
 21
255.881700
 31
0.0
 11
99.866945
 21
255.881718
 31
0.0
 11
102.317403
 21
254.910840
 31
0.0
 11
103.283383
 21
253.746115
 31
0.0
 11
103.759375
 21
252.501213
 31
0.0
 11
103.886646
 21
251.920771
 31
0.0
  0
LINE
  5
11a
100
AcDbEntity
  8
0
 62
5
100
AcDbLine
 10
129.583166
 20
215.529891
 30
0.0
 11
129.583166
 21
217.095728
 31
0.0
  0
LINE
  5
11b
100
AcDbEntity
  8
0
 62
5
100
AcDbLine
 10
129.583166
 20
217.095728
 30
0.0
 11
129.077537
 21
217.095728
 31
0.0
  0
LINE
  5
11c
100
AcDbEntity
  8
0
 62
5
100
AcDbLine
 10
129.077537
 20
217.095728
 30
0.0
 11
129.077819
 21
216.189252
 31
0.0
  0
LINE
  5
11d
100
AcDbEntity
  8
0
 62
5
100
AcDbLine
 10
129.078115
 20
225.665546
 30
0.0
 11
129.077926
 21
233.580359
 31
0.0
  0
LINE
  5
11e
100
AcDbEntity
  8
0
 62
5
100
AcDbLine
 10
129.077968
 20
208.274437
 30
0.0
 11
129.077779
 21
216.189250
 31
0.0
  0
LINE
  5
11f
100
AcDbEntity
  8
0
 62
1
100
AcDbLine
 10
129.077728
 20
222.836159
 30
0.0
 11
129.077539
 21
219.018609
 31
0.0
  0
LINE
  5
120
100
AcDbEntity
  8
0
 62
5
100
AcDbLine
 10
172.349016
 20
129.014847
 30
0.0
 11
167.359155
 21
124.064536
 31
0.0
  0
LINE
  5
121
100
AcDbEntity
  8
0
 62
5
100
AcDbLine
 10
167.359155
 20
124.064536
 30
0.0
 11
152.032950
 21
124.064536
 31
0.0
  0
LINE
  5
122
100
AcDbEntity
  8
0
 62
5
100
AcDbLine
 10
152.032950
 20
124.064536
 30
0.0
 11
147.043092
 21
129.014847
 31
0.0
  0
LINE
  5
123
100
AcDbEntity
  8
0
 62
1
100
AcDbLine
 10
165.099069
 20
129.015036
 30
0.0
 11
172.349016
 21
129.014849
 31
0.0
  0
LINE
  5
124
100
AcDbEntity
  8
0
 62
1
100
AcDbLine
 10
147.043092
 20
129.014847
 30
0.0
 11
154.304035
 21
129.015036
 31
0.0
  0
SPLINE
  5
125
100
AcDbEntity
  8
0
 62
5
100
AcDbSpline
 70
0
 71
3
 72
16
 73
12
 74
10
 40
0.000000
 40
0.000000
 40
0.000000
 40
0.000000
 40
0.594052
 40
1.926273
 40
3.438880
 40
6.074691
 40
8.833683
 40
11.469466
 40
12.982641
 40
14.315438
 40
14.909670
 40
14.909670
 40
14.909670
 40
14.909670
 10
129.583166
 20
226.324925
 30
0.0
 10
129.777247
 20
226.285704
 30
0.0
 10
130.406573
 20
226.158526
 30
0.0
 10
131.496484
 20
225.767813
 30
0.0
 10
132.963092
 20
224.581898
 30
0.0
 10
133.693217
 20
222.262417
 30
0.0
 10
133.693356
 20
219.595729
 30
0.0
 10
132.962806
 20
217.276259
 30
0.0
 10
131.496399
 20
216.089781
 30
0.0
 10
130.406632
 20
215.697582
 30
0.0
 10
129.777247
 20
215.569414
 30
0.0
 10
129.583166
 20
215.529891
 30
0.0
 11
129.583166
 21
226.324925
 31
0.0
 11
130.163619
 21
226.198542
 31
0.0
 11
131.408531
 21
225.724195
 31
0.0
 11
132.573234
 21
224.759080
 31
0.0
 11
133.544095
 21
222.308584
 31
0.0
 11
133.544113
 21
219.549592
 31
0.0
 11
132.573234
 21
217.099134
 31
0.0
 11
131.408509
 21
216.133155
 31
0.0
 11
130.163608
 21
215.657162
 31
0.0
 11
129.583166
 21
215.529891
 31
0.0
  0
LINE
  5
126
100
AcDbEntity
  8
0
 62
5
100
AcDbLine
 10
155.190658
 20
128.423128
 30
0.0
 11
164.204853
 21
128.423128
 31
0.0
  0
SPLINE
  5
127
100
AcDbEntity
  8
0
 62
5
100
AcDbSpline
 70
0
 71
3
 72
10
 73
6
 74
4
 40
0.000000
 40
0.000000
 40
0.000000
 40
0.000000
 40
1.112709
 40
1.522654
 40
1.581217
 40
1.581217
 40
1.581217
 40
1.581217
 10
154.304035
 20
129.732382
 30
0.0
 10
154.512008
 20
129.425273
 30
0.0
 10
154.796604
 20
129.005019
 30
0.0
 10
155.092145
 20
128.568601
 30
0.0
 10
155.179713
 20
128.439292
 30
0.0
 10
155.190658
 20
128.423128
 30
0.0
 11
154.304035
 21
129.732382
 31
0.0
 11
154.927955
 21
128.811055
 31
0.0
 11
155.157821
 21
128.471619
 31
0.0
 11
155.190658
 21
128.423128
 31
0.0
  0
LINE
  5
128
100
AcDbEntity
  8
0
 62
5
100
AcDbLine
 10
190.343561
 20
164.400354
 30
0.0
 11
190.343279
 21
163.493876
 31
0.0
  0
LINE
  5
129
100
AcDbEntity
  8
0
 62
5
100
AcDbLine
 10
190.343279
 20
163.493876
 30
0.0
 11
190.848615
 21
163.493876
 31
0.0
  0
LINE
  5
12a
100
AcDbEntity
  8
0
 62
5
100
AcDbLine
 10
190.848615
 20
163.493876
 30
0.0
 11
190.848615
 21
165.059727
 31
0.0
  0
SPLINE
  5
12b
100
AcDbEntity
  8
0
 62
5
100
AcDbSpline
 70
0
 71
3
 72
10
 73
6
 74
4
 40
0.000000
 40
0.000000
 40
0.000000
 40
0.000000
 40
0.058722
 40
0.469774
 40
1.585487
 40
1.585487
 40
1.585487
 40
1.585487
 10
164.204853
 20
128.423128
 30
0.0
 10
164.215893
 20
128.439292
 30
0.0
 10
164.304210
 20
128.568601
 30
0.0
 10
164.602282
 20
129.005019
 30
0.0
 10
164.889314
 20
129.425273
 30
0.0
 10
165.099069
 20
129.732382
 30
0.0
 11
164.204853
 21
128.423128
 31
0.0
 11
164.237972
 21
128.471619
 31
0.0
 11
164.469806
 21
128.811055
 31
0.0
 11
165.099069
 21
129.732382
 31
0.0
  0
LINE
  5
12c
100
AcDbEntity
  8
0
 62
5
100
AcDbLine
 10
190.848615
 20
154.264693
 30
0.0
 11
190.848615
 21
155.830530
 31
0.0
  0
LINE
  5
12d
100
AcDbEntity
  8
0
 62
5
100
AcDbLine
 10
190.848615
 20
155.830530
 30
0.0
 11
190.342986
 21
155.830530
 31
0.0
  0
LINE
  5
12e
100
AcDbEntity
  8
0
 62
5
100
AcDbLine
 10
190.342986
 20
155.830530
 30
0.0
 11
190.343268
 21
154.924054
 31
0.0
  0
LINE
  5
12f
100
AcDbEntity
  8
0
 62
5
100
AcDbLine
 10
190.343564
 20
164.400349
 30
0.0
 11
190.343375
 21
172.315161
 31
0.0
  0
LINE
  5
130
100
AcDbEntity
  8
0
 62
5
100
AcDbLine
 10
190.343417
 20
147.009239
 30
0.0
 11
190.343228
 21
154.924052
 31
0.0
  0
LINE
  5
131
100
AcDbEntity
  8
0
 62
1
100
AcDbLine
 10
190.343178
 20
161.570961
 30
0.0
 11
190.342988
 21
157.753411
 31
0.0
  0
LINE
  5
132
100
AcDbEntity
  8
0
 62
5
100
AcDbLine
 10
129.107774
 20
103.135035
 30
0.0
 11
129.107492
 21
102.228557
 31
0.0
  0
LINE
  5
133
100
AcDbEntity
  8
0
 62
5
100
AcDbLine
 10
129.107492
 20
102.228557
 30
0.0
 11
129.612827
 21
102.228557
 31
0.0
  0
LINE
  5
134
100
AcDbEntity
  8
0
 62
5
100
AcDbLine
 10
129.612827
 20
102.228557
 30
0.0
 11
129.612827
 21
103.794408
 31
0.0
  0
SPLINE
  5
135
100
AcDbEntity
  8
0
 62
5
100
AcDbSpline
 70
0
 71
3
 72
16
 73
12
 74
10
 40
0.000000
 40
0.000000
 40
0.000000
 40
0.000000
 40
0.594052
 40
1.926273
 40
3.438880
 40
6.074691
 40
8.833683
 40
11.469466
 40
12.982641
 40
14.315438
 40
14.909670
 40
14.909670
 40
14.909670
 40
14.909670
 10
190.848615
 20
165.059727
 30
0.0
 10
191.042696
 20
165.020506
 30
0.0
 10
191.672022
 20
164.893328
 30
0.0
 10
192.761933
 20
164.502615
 30
0.0
 10
194.228541
 20
163.316700
 30
0.0
 10
194.958666
 20
160.997220
 30
0.0
 10
194.958805
 20
158.330531
 30
0.0
 10
194.228255
 20
156.011061
 30
0.0
 10
192.761848
 20
154.824584
 30
0.0
 10
191.672082
 20
154.432384
 30
0.0
 10
191.042696
 20
154.304216
 30
0.0
 10
190.848615
 20
154.264693
 30
0.0
 11
190.848615
 21
165.059727
 31
0.0
 11
191.429068
 21
164.933345
 31
0.0
 11
192.673980
 21
164.458997
 31
0.0
 11
193.838683
 21
163.493882
 31
0.0
 11
194.809544
 21
161.043386
 31
0.0
 11
194.809562
 21
158.284394
 31
0.0
 11
193.838683
 21
155.833936
 31
0.0
 11
192.673959
 21
154.867957
 31
0.0
 11
191.429057
 21
154.391964
 31
0.0
 11
190.848615
 21
154.264693
 31
0.0
  0
LINE
  5
136
100
AcDbEntity
  8
0
 62
5
100
AcDbLine
 10
129.612827
 20
92.999374
 30
0.0
 11
129.612827
 21
94.565210
 31
0.0
  0
LINE
  5
137
100
AcDbEntity
  8
0
 62
5
100
AcDbLine
 10
129.612827
 20
94.565210
 30
0.0
 11
129.107198
 21
94.565210
 31
0.0
  0
LINE
  5
138
100
AcDbEntity
  8
0
 62
5
100
AcDbLine
 10
129.107198
 20
94.565210
 30
0.0
 11
129.107480
 21
93.658735
 31
0.0
  0
LINE
  5
139
100
AcDbEntity
  8
0
 62
5
100
AcDbLine
 10
129.107777
 20
103.135029
 30
0.0
 11
129.107588
 21
111.049841
 31
0.0
  0
LINE
  5
13a
100
AcDbEntity
  8
0
 62
5
100
AcDbLine
 10
129.107630
 20
85.743920
 30
0.0
 11
129.107441
 21
93.658732
 31
0.0
  0
LINE
  5
13b
100
AcDbEntity
  8
0
 62
1
100
AcDbLine
 10
129.107390
 20
100.305641
 30
0.0
 11
129.107201
 21
96.488092
 31
0.0
  0
LINE
  5
13c
100
AcDbEntity
  8
0
 62
5
100
AcDbLine
 10
129.077664
 20
24.507887
 30
0.0
 11
134.027974
 21
29.497748
 31
0.0
  0
LINE
  5
13d
100
AcDbEntity
  8
0
 62
5
100
AcDbLine
 10
134.027974
 20
29.497748
 30
0.0
 11
134.027974
 21
44.823953
 31
0.0
  0
LINE
  5
13e
100
AcDbEntity
  8
0
 62
5
100
AcDbLine
 10
134.027974
 20
44.823953
 30
0.0
 11
129.077664
 21
49.813811
 31
0.0
  0
LINE
  5
13f
100
AcDbEntity
  8
0
 62
1
100
AcDbLine
 10
129.077474
 20
31.757834
 30
0.0
 11
129.077661
 21
24.507887
 31
0.0
  0
LINE
  5
140
100
AcDbEntity
  8
0
 62
1
100
AcDbLine
 10
129.077664
 20
49.813811
 30
0.0
 11
129.077474
 21
42.552868
 31
0.0
  0
SPLINE
  5
141
100
AcDbEntity
  8
0
 62
5
100
AcDbSpline
 70
0
 71
3
 72
16
 73
12
 74
10
 40
0.000000
 40
0.000000
 40
0.000000
 40
0.000000
 40
0.594052
 40
1.926273
 40
3.438880
 40
6.074691
 40
8.833683
 40
11.469466
 40
12.982641
 40
14.315438
 40
14.909670
 40
14.909670
 40
14.909670
 40
14.909670
 10
129.612827
 20
103.794408
 30
0.0
 10
129.806908
 20
103.755187
 30
0.0
 10
130.436235
 20
103.628008
 30
0.0
 10
131.526145
 20
103.237296
 30
0.0
 10
132.992754
 20
102.051381
 30
0.0
 10
133.722879
 20
99.731900
 30
0.0
 10
133.723017
 20
97.065212
 30
0.0
 10
132.992467
 20
94.745742
 30
0.0
 10
131.526061
 20
93.559264
 30
0.0
 10
130.436294
 20
93.167065
 30
0.0
 10
129.806909
 20
93.038897
 30
0.0
 10
129.612827
 20
92.999374
 30
0.0
 11
129.612827
 21
103.794408
 31
0.0
 11
130.193280
 21
103.668025
 31
0.0
 11
131.438192
 21
103.193677
 31
0.0
 11
132.602896
 21
102.228563
 31
0.0
 11
133.573756
 21
99.778066
 31
0.0
 11
133.573775
 21
97.019075
 31
0.0
 11
132.602896
 21
94.568617
 31
0.0
 11
131.438171
 21
93.602637
 31
0.0
 11
130.193269
 21
93.126645
 31
0.0
 11
129.612827
 21
92.999374
 31
0.0
  0
LINE
  5
142
100
AcDbEntity
  8
0
 62
5
100
AcDbLine
 10
129.669382
 20
41.666245
 30
0.0
 11
129.669382
 21
32.652050
 31
0.0
  0
SPLINE
  5
143
100
AcDbEntity
  8
0
 62
5
100
AcDbSpline
 70
0
 71
3
 72
10
 73
6
 74
4
 40
0.000000
 40
0.000000
 40
0.000000
 40
0.000000
 40
1.112709
 40
1.522654
 40
1.581217
 40
1.581217
 40
1.581217
 40
1.581217
 10
128.360128
 20
42.552868
 30
0.0
 10
128.667237
 20
42.344895
 30
0.0
 10
129.087491
 20
42.060300
 30
0.0
 10
129.523909
 20
41.764758
 30
0.0
 10
129.653218
 20
41.677191
 30
0.0
 10
129.669382
 20
41.666245
 30
0.0
 11
128.360128
 21
42.552868
 31
0.0
 11
129.281455
 21
41.928948
 31
0.0
 11
129.620891
 21
41.699083
 31
0.0
 11
129.669382
 21
41.666245
 31
0.0
  0
LINE
  5
144
100
AcDbEntity
  8
0
 62
5
100
AcDbLine
 10
111.142103
 20
6.513508
 30
0.0
 11
106.152242
 21
1.563198
 31
0.0
  0
LINE
  5
145
100
AcDbEntity
  8
0
 62
5
100
AcDbLine
 10
106.152242
 20
1.563198
 30
0.0
 11
90.826037
 21
1.563198
 31
0.0
  0
LINE
  5
146
100
AcDbEntity
  8
0
 62
5
100
AcDbLine
 10
90.826037
 20
1.563198
 30
0.0
 11
85.836179
 21
6.513508
 31
0.0
  0
LINE
  5
147
100
AcDbEntity
  8
0
 62
1
100
AcDbLine
 10
103.892155
 20
6.513697
 30
0.0
 11
111.142103
 21
6.513511
 31
0.0
  0
LINE
  5
148
100
AcDbEntity
  8
0
 62
1
100
AcDbLine
 10
85.836179
 20
6.513508
 30
0.0
 11
93.097121
 21
6.513697
 31
0.0
  0
SPLINE
  5
149
100
AcDbEntity
  8
0
 62
5
100
AcDbSpline
 70
0
 71
3
 72
10
 73
6
 74
4
 40
0.000000
 40
0.000000
 40
0.000000
 40
0.000000
 40
0.058722
 40
0.469774
 40
1.585487
 40
1.585487
 40
1.585487
 40
1.585487
 10
129.669382
 20
32.652050
 30
0.0
 10
129.653218
 20
32.641010
 30
0.0
 10
129.523909
 20
32.552693
 30
0.0
 10
129.087491
 20
32.254621
 30
0.0
 10
128.667237
 20
31.967589
 30
0.0
 10
128.360128
 20
31.757834
 30
0.0
 11
129.669382
 21
32.652050
 31
0.0
 11
129.620891
 21
32.618931
 31
0.0
 11
129.281455
 21
32.387097
 31
0.0
 11
128.360128
 21
31.757834
 31
0.0
  0
LINE
  5
14a
100
AcDbEntity
  8
0
 62
5
100
AcDbLine
 10
93.983745
 20
5.921790
 30
0.0
 11
102.997940
 21
5.921790
 31
0.0
  0
SPLINE
  5
14b
100
AcDbEntity
  8
0
 62
5
100
AcDbSpline
 70
0
 71
3
 72
10
 73
6
 74
4
 40
0.000000
 40
0.000000
 40
0.000000
 40
0.000000
 40
1.112709
 40
1.522654
 40
1.581217
 40
1.581217
 40
1.581217
 40
1.581217
 10
93.097121
 20
7.231044
 30
0.0
 10
93.305095
 20
6.923935
 30
0.0
 10
93.589690
 20
6.503681
 30
0.0
 10
93.885231
 20
6.067263
 30
0.0
 10
93.972799
 20
5.937953
 30
0.0
 10
93.983745
 20
5.921790
 30
0.0
 11
93.097121
 21
7.231044
 31
0.0
 11
93.721042
 21
6.309717
 31
0.0
 11
93.950907
 21
5.970281
 31
0.0
 11
93.983745
 21
5.921790
 31
0.0
  0
LINE
  5
14c
100
AcDbEntity
  8
0
 62
5
100
AcDbLine
 10
124.606239
 20
130.151934
 30
0.0
 11
124.841124
 21
131.027449
 31
0.0
  0
LINE
  5
14d
100
AcDbEntity
  8
0
 62
5
100
AcDbLine
 10
124.841124
 20
131.027449
 30
0.0
 11
124.353007
 21
131.158242
 31
0.0
  0
LINE
  5
14e
100
AcDbEntity
  8
0
 62
5
100
AcDbLine
 10
124.353007
 20
131.158242
 30
0.0
 11
123.947736
 21
129.645746
 31
0.0
  0
SPLINE
  5
14f
100
AcDbEntity
  8
0
 62
5
100
AcDbSpline
 70
0
 71
3
 72
10
 73
6
 74
4
 40
0.000000
 40
0.000000
 40
0.000000
 40
0.000000
 40
0.058722
 40
0.469774
 40
1.585487
 40
1.585487
 40
1.585487
 40
1.585487
 10
102.997940
 20
5.921790
 30
0.0
 10
103.008979
 20
5.937953
 30
0.0
 10
103.097297
 20
6.067263
 30
0.0
 10
103.395369
 20
6.503681
 30
0.0
 10
103.682401
 20
6.923935
 30
0.0
 10
103.892155
 20
7.231044
 30
0.0
 11
102.997940
 21
5.921790
 31
0.0
 11
103.031059
 21
5.970281
 31
0.0
 11
103.262893
 21
6.309717
 31
0.0
 11
103.892155
 21
7.231044
 31
0.0
  0
SPLINE
  5
150
100
AcDbEntity
  8
0
 62
5
100
AcDbSpline
 70
0
 71
3
 72
13
 73
9
 74
7
 40
0.000000
 40
0.000000
 40
0.000000
 40
0.000000
 40
0.569256
 40
1.881610
 40
3.413804
 40
3.835136
 40
4.400555
 40
4.909791
 40
4.909791
 40
4.909791
 40
4.909791
 10
123.947736
 20
129.645746
 30
0.0
 10
123.781776
 20
129.738274
 30
0.0
 10
123.233216
 20
130.044114
 30
0.0
 10
122.330598
 20
130.731242
 30
0.0
 10
121.553077
 20
131.552814
 30
0.0
 10
121.276500
 20
132.349562
 30
0.0
 10
121.153474
 20
132.835188
 30
0.0
 10
121.138076
 20
133.193959
 30
0.0
 10
121.130780
 20
133.363967
 30
0.0
 11
123.947736
 21
129.645746
 31
0.0
 11
123.454531
 21
129.930000
 31
0.0
 11
122.404665
 21
130.717437
 31
0.0
 11
121.442762
 21
131.910066
 31
0.0
 11
121.297279
 21
132.305483
 31
0.0
 11
121.169056
 21
132.856171
 31
0.0
 11
121.130780
 21
133.363967
 31
0.0
  0
LINE
  5
151
100
AcDbEntity
  8
0
 62
5
100
AcDbLine
 10
126.741696
 20
140.072948
 30
0.0
 11
126.336425
 21
138.560466
 31
0.0
  0
LINE
  5
152
100
AcDbEntity
  8
0
 62
5
100
AcDbLine
 10
126.336425
 20
138.560466
 30
0.0
 11
126.824827
 21
138.429596
 31
0.0
  0
LINE
  5
153
100
AcDbEntity
  8
0
 62
5
100
AcDbLine
 10
126.824827
 20
138.429596
 30
0.0
 11
127.059168
 21
139.305259
 31
0.0
  0
LINE
  5
154
100
AcDbEntity
  8
0
 62
5
100
AcDbLine
 10
124.606236
 20
130.151937
 30
0.0
 11
122.557913
 21
122.506768
 31
0.0
  0
LINE
  5
155
100
AcDbEntity
  8
0
 62
5
100
AcDbLine
 10
129.107531
 20
146.950424
 30
0.0
 11
127.059207
 21
139.305253
 31
0.0
  0
LINE
  5
156
100
AcDbEntity
  8
0
 62
1
100
AcDbLine
 10
125.338911
 20
132.884819
 30
0.0
 11
126.327146
 21
136.572238
 31
0.0
  0
LINE
  5
157
100
AcDbEntity
  8
0
 62
5
100
AcDbLine
 10
139.398022
 20
126.966167
 30
0.0
 11
138.522360
 21
126.731827
 31
0.0
  0
LINE
  5
158
100
AcDbEntity
  8
0
 62
5
100
AcDbLine
 10
138.522360
 20
126.731827
 30
0.0
 11
138.653150
 21
126.243709
 31
0.0
  0
LINE
  5
159
100
AcDbEntity
  8
0
 62
5
100
AcDbLine
 10
138.653150
 20
126.243709
 30
0.0
 11
140.165647
 21
126.648980
 31
0.0
  0
SPLINE
  5
15a
100
AcDbEntity
  8
0
 62
5
100
AcDbSpline
 70
0
 71
3
 72
10
 73
6
 74
4
 40
0.000000
 40
0.000000
 40
0.000000
 40
0.000000
 40
0.591270
 40
0.858172
 40
0.939407
 40
0.939407
 40
0.939407
 40
0.939407
 10
125.850213
 20
140.218606
 30
0.0
 10
126.043591
 20
140.238742
 30
0.0
 10
126.324262
 20
140.267967
 30
0.0
 10
126.656847
 20
140.190572
 30
0.0
 10
126.725643
 20
140.095202
 30
0.0
 10
126.741696
 20
140.072948
 30
0.0
 11
125.850213
 21
140.218606
 31
0.0
 11
126.441341
 21
140.231578
 31
0.0
 11
126.690572
 21
140.136079
 31
0.0
 11
126.741696
 21
140.072948
 31
0.0
  0
LINE
  5
15b
100
AcDbEntity
  8
0
 62
5
100
AcDbLine
 10
129.738445
 20
123.855020
 30
0.0
 11
131.250927
 21
124.260288
 31
0.0
  0
LINE
  5
15c
100
AcDbEntity
  8
0
 62
5
100
AcDbLine
 10
131.250927
 20
124.260288
 30
0.0
 11
131.120061
 21
124.748688
 31
0.0
  0
LINE
  5
15d
100
AcDbEntity
  8
0
 62
5
100
AcDbLine
 10
131.120061
 20
124.748688
 30
0.0
 11
130.244545
 21
124.513803
 31
0.0
  0
LINE
  5
15e
100
AcDbEntity
  8
0
 62
5
100
AcDbLine
 10
139.398019
 20
126.966164
 30
0.0
 11
147.043092
 21
129.014849
 31
0.0
  0
LINE
  5
15f
100
AcDbEntity
  8
0
 62
5
100
AcDbLine
 10
122.599458
 20
122.465155
 30
0.0
 11
130.244531
 21
124.513842
 31
0.0
  0
LINE
  5
160
100
AcDbEntity
  8
0
 62
1
100
AcDbLine
 10
136.664937
 20
126.234238
 30
0.0
 11
132.977422
 21
125.246364
 31
0.0
  0
LINE
  5
161
100
AcDbEntity
  8
0
 62
5
100
AcDbLine
 10
125.570567
 20
143.383943
 30
0.0
 11
127.011009
 21
141.929795
 31
0.0
  0
LINE
  5
162
100
AcDbEntity
  8
0
 62
5
100
AcDbLine
 10
127.011009
 20
141.929795
 30
0.0
 11
118.171022
 21
129.042699
 31
0.0
  0
LINE
  5
163
100
AcDbEntity
  8
0
 62
5
100
AcDbLine
 10
118.171022
 20
129.042699
 30
0.0
 11
111.142258
 21
129.014731
 31
0.0
  0
LINE
  5
164
100
AcDbEntity
  8
0
 62
1
100
AcDbLine
 10
111.142258
 20
129.014731
 30
0.0
 11
116.276388
 21
134.149126
 31
0.0
  0
SPLINE
  5
165
100
AcDbEntity
  8
0
 62
5
100
AcDbSpline
 70
0
 71
3
 72
16
 73
12
 74
10
 40
0.000000
 40
0.000000
 40
0.000000
 40
0.000000
 40
0.594052
 40
1.926274
 40
3.438883
 40
6.074692
 40
8.833683
 40
11.469467
 40
12.982642
 40
14.315438
 40
14.909670
 40
14.909670
 40
14.909670
 40
14.909670
 10
140.165647
 20
126.648980
 30
0.0
 10
140.177994
 20
126.451362
 30
0.0
 10
140.218030
 20
125.810563
 30
0.0
 10
140.122718
 20
124.656665
 30
0.0
 10
139.356800
 20
122.933092
 30
0.0
 10
137.305324
 20
121.627521
 30
0.0
 10
134.729537
 20
120.937197
 30
0.0
 10
132.300020
 20
121.042531
 30
0.0
 10
130.774438
 20
122.151889
 30
0.0
 10
130.113551
 20
123.103014
 30
0.0
 10
129.826853
 20
123.677781
 30
0.0
 10
129.738445
 20
123.855020
 30
0.0
 11
140.165647
 21
126.648980
 31
0.0
 11
140.193802
 21
126.055596
 31
0.0
 11
140.057823
 21
124.730332
 31
0.0
 11
139.427040
 21
123.355523
 31
0.0
 11
137.311322
 21
121.783510
 31
0.0
 11
134.646346
 21
121.069414
 31
0.0
 11
132.028102
 21
121.372986
 31
0.0
 11
130.793586
 21
122.248010
 31
0.0
 11
130.011609
 21
123.327297
 31
0.0
 11
129.738445
 21
123.855020
 31
0.0
  0
LINE
  5
166
100
AcDbEntity
  8
0
 62
5
100
AcDbLine
 10
117.363435
 20
134.399107
 30
0.0
 11
123.737432
 21
140.773105
 31
0.0
  0
SPLINE
  5
167
100
AcDbEntity
  8
0
 62
5
100
AcDbSpline
 70
0
 71
3
 72
10
 73
6
 74
4
 40
0.000000
 40
0.000000
 40
0.000000
 40
0.000000
 40
1.112708
 40
1.522653
 40
1.581216
 40
1.581216
 40
1.581216
 40
1.581216
 10
115.810716
 20
134.697953
 30
0.0
 10
116.174934
 20
134.627853
 30
0.0
 10
116.673337
 20
134.531928
 30
0.0
 10
117.190910
 20
134.432313
 30
0.0
 10
117.344265
 20
134.402797
 30
0.0
 10
117.363435
 20
134.399107
 30
0.0
 11
115.810716
 21
134.697953
 31
0.0
 11
116.903370
 21
134.487654
 31
0.0
 11
117.305927
 21
134.410176
 31
0.0
 11
117.363435
 21
134.399107
 31
0.0
  0
LINE
  5
168
100
AcDbEntity
  8
0
 62
5
100
AcDbLine
 10
111.183826
 20
129.056316
 30
0.0
 11
118.212591
 21
129.028348
 31
0.0
  0
LINE
  5
169
100
AcDbEntity
  8
0
 62
5
100
AcDbLine
 10
118.212591
 20
129.028348
 30
0.0
 11
122.506988
 21
124.733947
 31
0.0
  0
LINE
  5
16a
100
AcDbEntity
  8
0
 62
5
100
AcDbLine
 10
122.506988
 20
124.733947
 30
0.0
 11
122.162550
 21
122.089703
 31
0.0
  0
LINE
  5
16b
100
AcDbEntity
  8
0
 62
5
100
AcDbLine
 10
122.162550
 20
122.089703
 30
0.0
 11
124.886280
 21
122.354659
 31
0.0
  0
LINE
  5
16c
100
AcDbEntity
  8
0
 62
5
100
AcDbLine
 10
124.886280
 20
122.354659
 30
0.0
 11
129.049851
 21
118.191085
 31
0.0
  0
LINE
  5
16d
100
AcDbEntity
  8
0
 62
5
100
AcDbLine
 10
129.049851
 20
118.191085
 30
0.0
 11
129.077819
 21
111.162324
 31
0.0
  0
LINE
  5
16e
100
AcDbEntity
  8
0
 62
1
100
AcDbLine
 10
116.310179
 20
123.929696
 30
0.0
 11
111.183826
 21
129.056316
 31
0.0
  0
LINE
  5
16f
100
AcDbEntity
  8
0
 62
1
100
AcDbLine
 10
129.077819
 20
111.162327
 30
0.0
 11
123.943423
 21
116.296454
 31
0.0
  0
SPLINE
  5
170
100
AcDbEntity
  8
0
 62
5
100
AcDbSpline
 70
0
 71
3
 72
10
 73
6
 74
4
 40
0.000000
 40
0.000000
 40
0.000000
 40
0.000000
 40
0.058722
 40
0.469774
 40
1.585487
 40
1.585487
 40
1.585487
 40
1.585487
 10
123.737432
 20
140.773105
 30
0.0
 10
123.733809
 20
140.792341
 30
0.0
 10
123.704824
 20
140.946226
 30
0.0
 10
123.606999
 20
141.465589
 30
0.0
 10
123.512797
 20
141.965717
 30
0.0
 10
123.443958
 20
142.331194
 30
0.0
 11
123.737432
 21
140.773105
 31
0.0
 11
123.726563
 21
140.830812
 31
0.0
 11
123.650477
 21
141.234761
 31
0.0
 11
123.443958
 21
142.331194
 31
0.0
  0
LINE
  5
171
100
AcDbEntity
  8
0
 62
5
100
AcDbLine
 10
123.735025
 20
117.341935
 30
0.0
 11
117.361027
 21
123.715932
 31
0.0
  0
SPLINE
  5
172
100
AcDbEntity
  8
0
 62
5
100
AcDbSpline
 70
0
 71
3
 72
10
 73
6
 74
4
 40
0.000000
 40
0.000000
 40
0.000000
 40
0.000000
 40
1.112710
 40
1.522655
 40
1.581219
 40
1.581219
 40
1.581219
 40
1.581219
 10
123.436180
 20
115.789213
 30
0.0
 10
123.506279
 20
116.153432
 30
0.0
 10
123.602205
 20
116.651836
 30
0.0
 10
123.701820
 20
117.169410
 30
0.0
 10
123.731335
 20
117.322766
 30
0.0
 10
123.735025
 20
117.341935
 30
0.0
 11
123.436180
 21
115.789213
 31
0.0
 11
123.646478
 21
116.881869
 31
0.0
 11
123.723956
 21
117.284427
 31
0.0
 11
123.735025
 21
117.341935
 31
0.0
  0
LINE
  5
173
100
AcDbEntity
  8
0
 62
1
100
AcDbLine
 10
111.142258
 20
190.250617
 30
0.0
 11
129.077833
 21
208.186178
 31
0.0
  0
LINE
  5
174
100
AcDbEntity
  8
0
 62
5
100
AcDbLine
 10
127.940748
 20
185.749325
 30
0.0
 11
127.065233
 21
185.984210
 31
0.0
  0
LINE
  5
175
100
AcDbEntity
  8
0
 62
5
100
AcDbLine
 10
127.065233
 20
185.984210
 30
0.0
 11
126.934440
 21
185.496093
 31
0.0
  0
LINE
  5
176
100
AcDbEntity
  8
0
 62
5
100
AcDbLine
 10
126.934440
 20
185.496093
 30
0.0
 11
128.446936
 21
185.090822
 31
0.0
  0
SPLINE
  5
177
100
AcDbEntity
  8
0
 62
5
100
AcDbSpline
 70
0
 71
3
 72
10
 73
6
 74
4
 40
0.000000
 40
0.000000
 40
0.000000
 40
0.000000
 40
0.058722
 40
0.469774
 40
1.585488
 40
1.585488
 40
1.585488
 40
1.585488
 10
117.361027
 20
123.715932
 30
0.0
 10
117.341792
 20
123.712309
 30
0.0
 10
117.187906
 20
123.683324
 30
0.0
 10
116.668543
 20
123.585498
 30
0.0
 10
116.168416
 20
123.491295
 30
0.0
 10
115.802938
 20
123.422455
 30
0.0
 11
117.361027
 21
123.715932
 31
0.0
 11
117.303320
 21
123.705063
 31
0.0
 11
116.899371
 21
123.628976
 31
0.0
 11
115.802938
 21
123.422455
 31
0.0
  0
SPLINE
  5
178
100
AcDbEntity
  8
0
 62
5
100
AcDbSpline
 70
0
 71
3
 72
13
 73
9
 74
7
 40
0.000000
 40
0.000000
 40
0.000000
 40
0.000000
 40
0.569256
 40
1.881610
 40
3.413804
 40
3.835136
 40
4.400555
 40
4.909791
 40
4.909791
 40
4.909791
 40
4.909791
 10
128.446936
 20
185.090822
 30
0.0
 10
128.354409
 20
184.924862
 30
0.0
 10
128.048569
 20
184.376302
 30
0.0
 10
127.361440
 20
183.473684
 30
0.0
 10
126.539868
 20
182.696163
 30
0.0
 10
125.743120
 20
182.419586
 30
0.0
 10
125.257495
 20
182.296560
 30
0.0
 10
124.898723
 20
182.281162
 30
0.0
 10
124.728715
 20
182.273866
 30
0.0
 11
128.446936
 21
185.090822
 31
0.0
 11
128.162682
 21
184.597617
 31
0.0
 11
127.375245
 21
183.547751
 31
0.0
 11
126.182617
 21
182.585848
 31
0.0
 11
125.787199
 21
182.440365
 31
0.0
 11
125.236511
 21
182.312142
 31
0.0
 11
124.728715
 21
182.273866
 31
0.0
  0
LINE
  5
179
100
AcDbEntity
  8
0
 62
5
100
AcDbLine
 10
118.019734
 20
187.884782
 30
0.0
 11
119.532217
 21
187.479511
 31
0.0
  0
LINE
  5
17a
100
AcDbEntity
  8
0
 62
5
100
AcDbLine
 10
119.532217
 20
187.479511
 30
0.0
 11
119.663086
 21
187.967914
 31
0.0
  0
LINE
  5
17b
100
AcDbEntity
  8
0
 62
5
100
AcDbLine
 10
119.663086
 20
187.967914
 30
0.0
 11
118.787424
 21
188.202254
 31
0.0
  0
LINE
  5
17c
100
AcDbEntity
  8
0
 62
5
100
AcDbLine
 10
127.940745
 20
185.749322
 30
0.0
 11
135.585914
 21
183.700999
 31
0.0
  0
LINE
  5
17d
100
AcDbEntity
  8
0
 62
5
100
AcDbLine
 10
111.142258
 20
190.250617
 30
0.0
 11
118.787429
 21
188.202293
 31
0.0
  0
LINE
  5
17e
100
AcDbEntity
  8
0
 62
1
100
AcDbLine
 10
125.207863
 20
186.481997
 30
0.0
 11
121.520444
 21
187.470232
 31
0.0
  0
LINE
  5
17f
100
AcDbEntity
  8
0
 62
5
100
AcDbLine
 10
131.126651
 20
200.629373
 30
0.0
 11
131.360991
 21
199.753711
 31
0.0
  0
LINE
  5
180
100
AcDbEntity
  8
0
 62
5
100
AcDbLine
 10
131.360991
 20
199.753711
 30
0.0
 11
131.849108
 21
199.884501
 31
0.0
  0
LINE
  5
181
100
AcDbEntity
  8
0
 62
5
100
AcDbLine
 10
131.849108
 20
199.884501
 30
0.0
 11
131.443837
 21
201.396998
 31
0.0
  0
SPLINE
  5
182
100
AcDbEntity
  8
0
 62
5
100
AcDbSpline
 70
0
 71
3
 72
10
 73
6
 74
4
 40
0.000000
 40
0.000000
 40
0.000000
 40
0.000000
 40
0.591270
 40
0.858172
 40
0.939407
 40
0.939407
 40
0.939407
 40
0.939407
 10
117.874076
 20
186.993299
 30
0.0
 10
117.853940
 20
187.186677
 30
0.0
 10
117.824715
 20
187.467348
 30
0.0
 10
117.902110
 20
187.799933
 30
0.0
 10
117.997480
 20
187.868729
 30
0.0
 10
118.019734
 20
187.884782
 30
0.0
 11
117.874076
 21
186.993299
 31
0.0
 11
117.861105
 21
187.584427
 31
0.0
 11
117.956604
 21
187.833658
 31
0.0
 11
118.019734
 21
187.884782
 31
0.0
  0
LINE
  5
183
100
AcDbEntity
  8
0
 62
5
100
AcDbLine
 10
134.237798
 20
190.969796
 30
0.0
 11
133.832529
 21
192.482278
 31
0.0
  0
LINE
  5
184
100
AcDbEntity
  8
0
 62
5
100
AcDbLine
 10
133.832529
 20
192.482278
 30
0.0
 11
133.344130
 21
192.351412
 31
0.0
  0
LINE
  5
185
100
AcDbEntity
  8
0
 62
5
100
AcDbLine
 10
133.344130
 20
192.351412
 30
0.0
 11
133.579015
 21
191.475896
 31
0.0
  0
LINE
  5
186
100
AcDbEntity
  8
0
 62
5
100
AcDbLine
 10
131.126653
 20
200.629370
 30
0.0
 11
129.077968
 21
208.274443
 31
0.0
  0
LINE
  5
187
100
AcDbEntity
  8
0
 62
5
100
AcDbLine
 10
135.627663
 20
183.830809
 30
0.0
 11
133.578975
 21
191.475882
 31
0.0
  0
LINE
  5
188
100
AcDbEntity
  8
0
 62
1
100
AcDbLine
 10
131.858580
 20
197.896288
 30
0.0
 11
132.846453
 21
194.208773
 31
0.0
  0
LINE
  5
189
100
AcDbEntity
  8
0
 62
5
100
AcDbLine
 10
114.667292
 20
186.843487
 30
0.0
 11
116.121440
 21
188.283929
 31
0.0
  0
LINE
  5
18a
100
AcDbEntity
  8
0
 62
5
100
AcDbLine
 10
116.121440
 20
188.283929
 30
0.0
 11
129.008536
 21
179.443942
 31
0.0
  0
LINE
  5
18b
100
AcDbEntity
  8
0
 62
5
100
AcDbLine
 10
129.008536
 20
179.443942
 30
0.0
 11
129.036504
 21
172.415177
 31
0.0
  0
LINE
  5
18c
100
AcDbEntity
  8
0
 62
1
100
AcDbLine
 10
129.036501
 20
172.415177
 30
0.0
 11
123.902106
 21
177.549308
 31
0.0
  0
SPLINE
  5
18d
100
AcDbEntity
  8
0
 62
5
100
AcDbSpline
 70
0
 71
3
 72
16
 73
12
 74
10
 40
0.000000
 40
0.000000
 40
0.000000
 40
0.000000
 40
0.594052
 40
1.926274
 40
3.438883
 40
6.074692
 40
8.833683
 40
11.469467
 40
12.982642
 40
14.315438
 40
14.909670
 40
14.909670
 40
14.909670
 40
14.909670
 10
131.443837
 20
201.396998
 30
0.0
 10
131.641456
 20
201.409345
 30
0.0
 10
132.282255
 20
201.449381
 30
0.0
 10
133.436152
 20
201.354069
 30
0.0
 10
135.159725
 20
200.588151
 30
0.0
 10
136.465297
 20
198.536675
 30
0.0
 10
137.155620
 20
195.960888
 30
0.0
 10
137.050287
 20
193.531371
 30
0.0
 10
135.940928
 20
192.005789
 30
0.0
 10
134.989803
 20
191.344902
 30
0.0
 10
134.415037
 20
191.058204
 30
0.0
 10
134.237798
 20
190.969796
 30
0.0
 11
131.443837
 21
201.396998
 31
0.0
 11
132.037222
 21
201.425153
 31
0.0
 11
133.362486
 21
201.289174
 31
0.0
 11
134.737294
 21
200.658391
 31
0.0
 11
136.309307
 21
198.542673
 31
0.0
 11
137.023404
 21
195.877697
 31
0.0
 11
136.719832
 21
193.259453
 31
0.0
 11
135.844808
 21
192.024937
 31
0.0
 11
134.765521
 21
191.242960
 31
0.0
 11
134.237798
 21
190.969796
 31
0.0
  0
LINE
  5
18e
100
AcDbEntity
  8
0
 62
5
100
AcDbLine
 10
123.693710
 20
178.594786
 30
0.0
 11
117.319713
 21
184.968783
 31
0.0
  0
SPLINE
  5
18f
100
AcDbEntity
  8
0
 62
5
100
AcDbSpline
 70
0
 71
3
 72
10
 73
6
 74
4
 40
0.000000
 40
0.000000
 40
0.000000
 40
0.000000
 40
1.112708
 40
1.522653
 40
1.581216
 40
1.581216
 40
1.581216
 40
1.581216
 10
123.394865
 20
177.042067
 30
0.0
 10
123.464965
 20
177.406285
 30
0.0
 10
123.560890
 20
177.904688
 30
0.0
 10
123.660505
 20
178.422261
 30
0.0
 10
123.690021
 20
178.575616
 30
0.0
 10
123.693710
 20
178.594786
 30
0.0
 11
123.394865
 21
177.042067
 31
0.0
 11
123.605164
 21
178.134721
 31
0.0
 11
123.682642
 21
178.537278
 31
0.0
 11
123.693710
 21
178.594786
 31
0.0
  0
LINE
  5
190
100
AcDbEntity
  8
0
 62
5
100
AcDbLine
 10
129.036499
 20
172.415177
 30
0.0
 11
129.064467
 21
179.443942
 31
0.0
  0
LINE
  5
191
100
AcDbEntity
  8
0
 62
5
100
AcDbLine
 10
129.064467
 20
179.443942
 30
0.0
 11
133.358867
 21
183.738339
 31
0.0
  0
LINE
  5
192
100
AcDbEntity
  8
0
 62
5
100
AcDbLine
 10
133.358867
 20
183.738339
 30
0.0
 11
136.003112
 21
183.393901
 31
0.0
  0
LINE
  5
193
100
AcDbEntity
  8
0
 62
5
100
AcDbLine
 10
136.003112
 20
183.393901
 30
0.0
 11
135.738156
 21
186.117631
 31
0.0
  0
LINE
  5
194
100
AcDbEntity
  8
0
 62
5
100
AcDbLine
 10
135.738156
 20
186.117631
 30
0.0
 11
139.901730
 21
190.281202
 31
0.0
  0
LINE
  5
195
100
AcDbEntity
  8
0
 62
5
100
AcDbLine
 10
139.901730
 20
190.281202
 30
0.0
 11
146.930491
 21
190.309170
 31
0.0
  0
LINE
  5
196
100
AcDbEntity
  8
0
 62
1
100
AcDbLine
 10
134.163119
 20
177.541530
 30
0.0
 11
129.036499
 21
172.415177
 31
0.0
  0
LINE
  5
197
100
AcDbEntity
  8
0
 62
1
100
AcDbLine
 10
146.930488
 20
190.309170
 30
0.0
 11
141.796361
 21
185.174774
 31
0.0
  0
SPLINE
  5
198
100
AcDbEntity
  8
0
 62
5
100
AcDbSpline
 70
0
 71
3
 72
10
 73
6
 74
4
 40
0.000000
 40
0.000000
 40
0.000000
 40
0.000000
 40
0.058722
 40
0.469774
 40
1.585487
 40
1.585487
 40
1.585487
 40
1.585487
 10
117.319713
 20
184.968783
 30
0.0
 10
117.300477
 20
184.965160
 30
0.0
 10
117.146592
 20
184.936175
 30
0.0
 10
116.627229
 20
184.838350
 30
0.0
 10
116.127101
 20
184.744148
 30
0.0
 10
115.761623
 20
184.675309
 30
0.0
 11
117.319713
 21
184.968783
 31
0.0
 11
117.262006
 21
184.957914
 31
0.0
 11
116.858057
 21
184.881828
 31
0.0
 11
115.761623
 21
184.675309
 31
0.0
  0
LINE
  5
199
100
AcDbEntity
  8
0
 62
5
100
AcDbLine
 10
140.750880
 20
184.966376
 30
0.0
 11
134.376882
 21
178.592378
 31
0.0
  0
SPLINE
  5
19a
100
AcDbEntity
  8
0
 62
5
100
AcDbSpline
 70
0
 71
3
 72
10
 73
6
 74
4
 40
0.000000
 40
0.000000
 40
0.000000
 40
0.000000
 40
1.112710
 40
1.522655
 40
1.581219
 40
1.581219
 40
1.581219
 40
1.581219
 10
142.303602
 20
184.667531
 30
0.0
 10
141.939383
 20
184.737630
 30
0.0
 10
141.440978
 20
184.833556
 30
0.0
 10
140.923404
 20
184.933171
 30
0.0
 10
140.770049
 20
184.962686
 30
0.0
 10
140.750880
 20
184.966376
 30
0.0
 11
142.303602
 21
184.667531
 31
0.0
 11
141.210946
 21
184.877829
 31
0.0
 11
140.808388
 21
184.955307
 31
0.0
 11
140.750880
 21
184.966376
 31
0.0
  0
LINE
  5
19b
100
AcDbEntity
  8
0
 62
1
100
AcDbLine
 10
111.172027
 20
67.749530
 30
0.0
 11
129.107602
 21
49.813969
 31
0.0
  0
LINE
  5
19c
100
AcDbEntity
  8
0
 62
5
100
AcDbLine
 10
127.970517
 20
72.250822
 30
0.0
 11
127.095002
 21
72.015937
 31
0.0
  0
LINE
  5
19d
100
AcDbEntity
  8
0
 62
5
100
AcDbLine
 10
127.095002
 20
72.015937
 30
0.0
 11
126.964209
 21
72.504054
 31
0.0
  0
LINE
  5
19e
100
AcDbEntity
  8
0
 62
5
100
AcDbLine
 10
126.964209
 20
72.504054
 30
0.0
 11
128.476705
 21
72.909326
 31
0.0
  0
SPLINE
  5
19f
100
AcDbEntity
  8
0
 62
5
100
AcDbSpline
 70
0
 71
3
 72
10
 73
6
 74
4
 40
0.000000
 40
0.000000
 40
0.000000
 40
0.000000
 40
0.058722
 40
0.469774
 40
1.585488
 40
1.585488
 40
1.585488
 40
1.585488
 10
134.376882
 20
178.592378
 30
0.0
 10
134.380506
 20
178.573143
 30
0.0
 10
134.409491
 20
178.419257
 30
0.0
 10
134.507317
 20
177.899894
 30
0.0
 10
134.601519
 20
177.399767
 30
0.0
 10
134.670360
 20
177.034289
 30
0.0
 11
134.376882
 21
178.592378
 31
0.0
 11
134.387752
 21
178.534671
 31
0.0
 11
134.463839
 21
178.130722
 31
0.0
 11
134.670360
 21
177.034289
 31
0.0
  0
SPLINE
  5
1a0
100
AcDbEntity
  8
0
 62
5
100
AcDbSpline
 70
0
 71
3
 72
13
 73
9
 74
7
 40
0.000000
 40
0.000000
 40
0.000000
 40
0.000000
 40
0.569256
 40
1.881610
 40
3.413804
 40
3.835136
 40
4.400555
 40
4.909791
 40
4.909791
 40
4.909791
 40
4.909791
 10
128.476705
 20
72.909326
 30
0.0
 10
128.384177
 20
73.075285
 30
0.0
 10
128.078337
 20
73.623845
 30
0.0
 10
127.391209
 20
74.526463
 30
0.0
 10
126.569637
 20
75.303984
 30
0.0
 10
125.772889
 20
75.580561
 30
0.0
 10
125.287264
 20
75.703587
 30
0.0
 10
124.928492
 20
75.718985
 30
0.0
 10
124.758484
 20
75.726282
 30
0.0
 11
128.476705
 21
72.909326
 31
0.0
 11
128.192451
 21
73.402531
 31
0.0
 11
127.405014
 21
74.452396
 31
0.0
 11
126.212386
 21
75.414299
 31
0.0
 11
125.816968
 21
75.559782
 31
0.0
 11
125.266280
 21
75.688005
 31
0.0
 11
124.758484
 21
75.726282
 31
0.0
  0
LINE
  5
1a1
100
AcDbEntity
  8
0
 62
5
100
AcDbLine
 10
118.049503
 20
70.115365
 30
0.0
 11
119.561985
 21
70.520636
 31
0.0
  0
LINE
  5
1a2
100
AcDbEntity
  8
0
 62
5
100
AcDbLine
 10
119.561985
 20
70.520636
 30
0.0
 11
119.692855
 21
70.032234
 31
0.0
  0
LINE
  5
1a3
100
AcDbEntity
  8
0
 62
5
100
AcDbLine
 10
119.692855
 20
70.032234
 30
0.0
 11
118.817192
 21
69.797893
 31
0.0
  0
LINE
  5
1a4
100
AcDbEntity
  8
0
 62
5
100
AcDbLine
 10
127.970514
 20
72.250825
 30
0.0
 11
135.615683
 21
74.299149
 31
0.0
  0
LINE
  5
1a5
100
AcDbEntity
  8
0
 62
5
100
AcDbLine
 10
111.172027
 20
67.749530
 30
0.0
 11
118.817198
 21
69.797854
 31
0.0
  0
LINE
  5
1a6
100
AcDbEntity
  8
0
 62
1
100
AcDbLine
 10
125.237632
 20
71.518151
 30
0.0
 11
121.550213
 21
70.529916
 31
0.0
  0
LINE
  5
1a7
100
AcDbEntity
  8
0
 62
5
100
AcDbLine
 10
131.156284
 20
57.459039
 30
0.0
 11
131.390624
 21
58.334701
 31
0.0
  0
LINE
  5
1a8
100
AcDbEntity
  8
0
 62
5
100
AcDbLine
 10
131.390624
 20
58.334701
 30
0.0
 11
131.878742
 21
58.203911
 31
0.0
  0
LINE
  5
1a9
100
AcDbEntity
  8
0
 62
5
100
AcDbLine
 10
131.878742
 20
58.203911
 30
0.0
 11
131.473471
 21
56.691414
 31
0.0
  0
SPLINE
  5
1aa
100
AcDbEntity
  8
0
 62
5
100
AcDbSpline
 70
0
 71
3
 72
10
 73
6
 74
4
 40
0.000000
 40
0.000000
 40
0.000000
 40
0.000000
 40
0.591270
 40
0.858172
 40
0.939407
 40
0.939407
 40
0.939407
 40
0.939407
 10
117.903845
 20
71.006849
 30
0.0
 10
117.883709
 20
70.813470
 30
0.0
 10
117.854484
 20
70.532799
 30
0.0
 10
117.931879
 20
70.200214
 30
0.0
 10
118.027249
 20
70.131418
 30
0.0
 10
118.049503
 20
70.115365
 30
0.0
 11
117.903845
 21
71.006849
 31
0.0
 11
117.890873
 21
70.415721
 31
0.0
 11
117.986372
 21
70.166489
 31
0.0
 11
118.049503
 21
70.115365
 31
0.0
  0
LINE
  5
1ab
100
AcDbEntity
  8
0
 62
5
100
AcDbLine
 10
134.267431
 20
67.118617
 30
0.0
 11
133.862163
 21
65.606134
 31
0.0
  0
LINE
  5
1ac
100
AcDbEntity
  8
0
 62
5
100
AcDbLine
 10
133.862163
 20
65.606134
 30
0.0
 11
133.373763
 21
65.737001
 31
0.0
  0
LINE
  5
1ad
100
AcDbEntity
  8
0
 62
5
100
AcDbLine
 10
133.373763
 20
65.737001
 30
0.0
 11
133.608648
 21
66.612516
 31
0.0
  0
LINE
  5
1ae
100
AcDbEntity
  8
0
 62
5
100
AcDbLine
 10
131.156287
 20
57.459042
 30
0.0
 11
129.107602
 21
49.813969
 31
0.0
  0
LINE
  5
1af
100
AcDbEntity
  8
0
 62
5
100
AcDbLine
 10
135.657296
 20
74.257603
 30
0.0
 11
133.608609
 21
66.612530
 31
0.0
  0
LINE
  5
1b0
100
AcDbEntity
  8
0
 62
1
100
AcDbLine
 10
131.888213
 20
60.192124
 30
0.0
 11
132.876087
 21
63.879640
 31
0.0
  0
LINE
  5
1b1
100
AcDbEntity
  8
0
 62
5
100
AcDbLine
 10
114.696926
 20
71.244926
 30
0.0
 11
116.151073
 21
69.804483
 31
0.0
  0
LINE
  5
1b2
100
AcDbEntity
  8
0
 62
5
100
AcDbLine
 10
116.151073
 20
69.804483
 30
0.0
 11
129.038169
 21
78.644471
 31
0.0
  0
LINE
  5
1b3
100
AcDbEntity
  8
0
 62
5
100
AcDbLine
 10
129.038169
 20
78.644471
 30
0.0
 11
129.066138
 21
85.673235
 31
0.0
  0
LINE
  5
1b4
100
AcDbEntity
  8
0
 62
1
100
AcDbLine
 10
129.066135
 20
85.673235
 30
0.0
 11
123.931739
 21
80.539105
 31
0.0
  0
SPLINE
  5
1b5
100
AcDbEntity
  8
0
 62
5
100
AcDbSpline
 70
0
 71
3
 72
16
 73
12
 74
10
 40
0.000000
 40
0.000000
 40
0.000000
 40
0.000000
 40
0.594052
 40
1.926274
 40
3.438883
 40
6.074692
 40
8.833683
 40
11.469467
 40
12.982642
 40
14.315438
 40
14.909670
 40
14.909670
 40
14.909670
 40
14.909670
 10
131.473471
 20
56.691414
 30
0.0
 10
131.671089
 20
56.679067
 30
0.0
 10
132.311888
 20
56.639031
 30
0.0
 10
133.465786
 20
56.734343
 30
0.0
 10
135.189359
 20
57.500261
 30
0.0
 10
136.494931
 20
59.551738
 30
0.0
 10
137.185254
 20
62.127525
 30
0.0
 10
137.079920
 20
64.557041
 30
0.0
 10
135.970562
 20
66.082623
 30
0.0
 10
135.019437
 20
66.743510
 30
0.0
 10
134.444670
 20
67.030209
 30
0.0
 10
134.267431
 20
67.118617
 30
0.0
 11
131.473471
 21
56.691414
 31
0.0
 11
132.066855
 21
56.663259
 31
0.0
 11
133.392119
 21
56.799238
 31
0.0
 11
134.766928
 21
57.430021
 31
0.0
 11
136.338941
 21
59.545739
 31
0.0
 11
137.053037
 21
62.210716
 31
0.0
 11
136.749465
 21
64.828959
 31
0.0
 11
135.874441
 21
66.063476
 31
0.0
 11
134.795155
 21
66.845453
 31
0.0
 11
134.267431
 21
67.118617
 31
0.0
  0
LINE
  5
1b6
100
AcDbEntity
  8
0
 62
5
100
AcDbLine
 10
123.723344
 20
79.493626
 30
0.0
 11
117.349346
 21
73.119629
 31
0.0
  0
SPLINE
  5
1b7
100
AcDbEntity
  8
0
 62
5
100
AcDbSpline
 70
0
 71
3
 72
10
 73
6
 74
4
 40
0.000000
 40
0.000000
 40
0.000000
 40
0.000000
 40
1.112708
 40
1.522653
 40
1.581216
 40
1.581216
 40
1.581216
 40
1.581216
 10
123.424498
 20
81.046345
 30
0.0
 10
123.494598
 20
80.682127
 30
0.0
 10
123.590524
 20
80.183724
 30
0.0
 10
123.690139
 20
79.666151
 30
0.0
 10
123.719654
 20
79.512796
 30
0.0
 10
123.723344
 20
79.493626
 30
0.0
 11
123.424498
 21
81.046345
 31
0.0
 11
123.634797
 21
79.953691
 31
0.0
 11
123.712275
 21
79.551135
 31
0.0
 11
123.723344
 21
79.493626
 31
0.0
  0
LINE
  5
1b8
100
AcDbEntity
  8
0
 62
5
100
AcDbLine
 10
190.343417
 20
147.009239
 30
0.0
 11
190.315449
 21
139.980478
 31
0.0
  0
LINE
  5
1b9
100
AcDbEntity
  8
0
 62
5
100
AcDbLine
 10
190.315449
 20
139.980478
 30
0.0
 11
179.478189
 21
129.143215
 31
0.0
  0
LINE
  5
1ba
100
AcDbEntity
  8
0
 62
5
100
AcDbLine
 10
179.478189
 20
129.143215
 30
0.0
 11
172.449425
 21
129.115247
 31
0.0
  0
LINE
  5
1bb
100
AcDbEntity
  8
0
 62
1
100
AcDbLine
 10
185.216797
 20
141.882887
 30
0.0
 11
190.343415
 21
147.009239
 31
0.0
  0
LINE
  5
1bc
100
AcDbEntity
  8
0
 62
1
100
AcDbLine
 10
172.449425
 20
129.115250
 30
0.0
 11
177.583555
 21
134.249645
 31
0.0
  0
SPLINE
  5
1bd
100
AcDbEntity
  8
0
 62
5
100
AcDbSpline
 70
0
 71
3
 72
10
 73
6
 74
4
 40
0.000000
 40
0.000000
 40
0.000000
 40
0.000000
 40
0.058722
 40
0.469774
 40
1.585487
 40
1.585487
 40
1.585487
 40
1.585487
 10
117.349346
 20
73.119629
 30
0.0
 10
117.330111
 20
73.123252
 30
0.0
 10
117.176225
 20
73.152237
 30
0.0
 10
116.656862
 20
73.250062
 30
0.0
 10
116.156734
 20
73.344264
 30
0.0
 10
115.791257
 20
73.413104
 30
0.0
 11
117.349346
 21
73.119629
 31
0.0
 11
117.291639
 21
73.130499
 31
0.0
 11
116.887690
 21
73.206584
 31
0.0
 11
115.791257
 21
73.413104
 31
0.0
  0
LINE
  5
1be
100
AcDbEntity
  8
0
 62
5
100
AcDbLine
 10
178.629033
 20
134.458041
 30
0.0
 11
185.003031
 21
140.832038
 31
0.0
  0
SPLINE
  5
1bf
100
AcDbEntity
  8
0
 62
5
100
AcDbSpline
 70
0
 71
3
 72
10
 73
6
 74
4
 40
0.000000
 40
0.000000
 40
0.000000
 40
0.000000
 40
1.112708
 40
1.522653
 40
1.581216
 40
1.581216
 40
1.581216
 40
1.581216
 10
177.076314
 20
134.756886
 30
0.0
 10
177.440533
 20
134.686787
 30
0.0
 10
177.938936
 20
134.590861
 30
0.0
 10
178.456509
 20
134.491246
 30
0.0
 10
178.609864
 20
134.461731
 30
0.0
 10
178.629033
 20
134.458041
 30
0.0
 11
177.076314
 21
134.756886
 31
0.0
 11
178.168969
 21
134.546588
 31
0.0
 11
178.571525
 21
134.469109
 31
0.0
 11
178.629033
 21
134.458041
 31
0.0
  0
LINE
  5
1c0
100
AcDbEntity
  8
0
 62
5
100
AcDbLine
 10
190.243006
 20
172.356746
 30
0.0
 11
190.215037
 21
179.385508
 31
0.0
  0
LINE
  5
1c1
100
AcDbEntity
  8
0
 62
5
100
AcDbLine
 10
190.215037
 20
179.385508
 30
0.0
 11
179.377777
 21
190.222770
 31
0.0
  0
LINE
  5
1c2
100
AcDbEntity
  8
0
 62
5
100
AcDbLine
 10
179.377777
 20
190.222770
 30
0.0
 11
172.349013
 21
190.250739
 31
0.0
  0
LINE
  5
1c3
100
AcDbEntity
  8
0
 62
1
100
AcDbLine
 10
185.116385
 20
177.483098
 30
0.0
 11
190.243003
 21
172.356746
 31
0.0
  0
LINE
  5
1c4
100
AcDbEntity
  8
0
 62
1
100
AcDbLine
 10
172.349013
 20
190.250736
 30
0.0
 11
177.483143
 21
185.116340
 31
0.0
  0
SPLINE
  5
1c5
100
AcDbEntity
  8
0
 62
5
100
AcDbSpline
 70
0
 71
3
 72
10
 73
6
 74
4
 40
0.000000
 40
0.000000
 40
0.000000
 40
0.000000
 40
0.058722
 40
0.469774
 40
1.585487
 40
1.585487
 40
1.585487
 40
1.585487
 10
185.003031
 20
140.832038
 30
0.0
 10
184.999408
 20
140.851274
 30
0.0
 10
184.970423
 20
141.005160
 30
0.0
 10
184.872598
 20
141.524523
 30
0.0
 10
184.778396
 20
142.024650
 30
0.0
 10
184.709556
 20
142.390128
 30
0.0
 11
185.003031
 21
140.832038
 31
0.0
 11
184.992161
 21
140.889746
 31
0.0
 11
184.916075
 21
141.293695
 31
0.0
 11
184.709556
 21
142.390128
 31
0.0
  0
LINE
  5
1c6
100
AcDbEntity
  8
0
 62
5
100
AcDbLine
 10
178.528622
 20
184.907944
 30
0.0
 11
184.902619
 21
178.533947
 31
0.0
  0
SPLINE
  5
1c7
100
AcDbEntity
  8
0
 62
5
100
AcDbSpline
 70
0
 71
3
 72
10
 73
6
 74
4
 40
0.000000
 40
0.000000
 40
0.000000
 40
0.000000
 40
1.112708
 40
1.522653
 40
1.581216
 40
1.581216
 40
1.581216
 40
1.581216
 10
176.975903
 20
184.609099
 30
0.0
 10
177.340121
 20
184.679199
 30
0.0
 10
177.838524
 20
184.775124
 30
0.0
 10
178.356097
 20
184.874739
 30
0.0
 10
178.509452
 20
184.904255
 30
0.0
 10
178.528622
 20
184.907944
 30
0.0
 11
176.975903
 21
184.609099
 31
0.0
 11
178.068557
 21
184.819398
 31
0.0
 11
178.471113
 21
184.896876
 31
0.0
 11
178.528622
 21
184.907944
 31
0.0
  0
LINE
  5
1c8
100
AcDbEntity
  8
0
 62
1
100
AcDbLine
 10
111.142354
 20
251.515931
 30
0.0
 11
129.077929
 21
233.580370
 31
0.0
  0
LINE
  5
1c9
100
AcDbEntity
  8
0
 62
5
100
AcDbLine
 10
131.126611
 20
241.225440
 30
0.0
 11
131.360951
 21
242.101102
 31
0.0
  0
LINE
  5
1ca
100
AcDbEntity
  8
0
 62
5
100
AcDbLine
 10
131.360951
 20
242.101102
 30
0.0
 11
131.849069
 21
241.970312
 31
0.0
  0
LINE
  5
1cb
100
AcDbEntity
  8
0
 62
5
100
AcDbLine
 10
131.849069
 20
241.970312
 30
0.0
 11
131.443798
 21
240.457815
 31
0.0
  0
SPLINE
  5
1cc
100
AcDbEntity
  8
0
 62
5
100
AcDbSpline
 70
0
 71
3
 72
10
 73
6
 74
4
 40
0.000000
 40
0.000000
 40
0.000000
 40
0.000000
 40
0.058722
 40
0.469774
 40
1.585487
 40
1.585487
 40
1.585487
 40
1.585487
 10
184.902619
 20
178.533947
 30
0.0
 10
184.898996
 20
178.514711
 30
0.0
 10
184.870011
 20
178.360826
 30
0.0
 10
184.772186
 20
177.841463
 30
0.0
 10
184.677984
 20
177.341335
 30
0.0
 10
184.609145
 20
176.975857
 30
0.0
 11
184.902619
 21
178.533947
 31
0.0
 11
184.891750
 21
178.476240
 31
0.0
 11
184.815664
 21
178.072291
 31
0.0
 11
184.609145
 21
176.975857
 31
0.0
  0
LINE
  5
1cd
100
AcDbEntity
  8
0
 62
5
100
AcDbLine
 10
134.237758
 20
250.885017
 30
0.0
 11
133.832490
 21
249.372535
 31
0.0
  0
LINE
  5
1ce
100
AcDbEntity
  8
0
 62
5
100
AcDbLine
 10
133.832490
 20
249.372535
 30
0.0
 11
133.344090
 21
249.503401
 31
0.0
  0
LINE
  5
1cf
100
AcDbEntity
  8
0
 62
5
100
AcDbLine
 10
133.344090
 20
249.503401
 30
0.0
 11
133.578975
 21
250.378917
 31
0.0
  0
LINE
  5
1d0
100
AcDbEntity
  8
0
 62
5
100
AcDbLine
 10
131.126614
 20
241.225443
 30
0.0
 11
129.077929
 21
233.580370
 31
0.0
  0
LINE
  5
1d1
100
AcDbEntity
  8
0
 62
5
100
AcDbLine
 10
135.627624
 20
258.024004
 30
0.0
 11
133.578936
 21
250.378931
 31
0.0
  0
LINE
  5
1d2
100
AcDbEntity
  8
0
 62
1
100
AcDbLine
 10
131.858540
 20
243.958525
 30
0.0
 11
132.846414
 21
247.646040
 31
0.0
  0
LINE
  5
1d3
100
AcDbEntity
  8
0
 62
5
100
AcDbLine
 10
127.982458
 20
255.975680
 30
0.0
 11
127.106942
 21
255.740794
 31
0.0
  0
LINE
  5
1d4
100
AcDbEntity
  8
0
 62
5
100
AcDbLine
 10
127.106942
 20
255.740794
 30
0.0
 11
126.976149
 21
256.228912
 31
0.0
  0
LINE
  5
1d5
100
AcDbEntity
  8
0
 62
5
100
AcDbLine
 10
126.976149
 20
256.228912
 30
0.0
 11
128.488646
 21
256.634185
 31
0.0
  0
SPLINE
  5
1d6
100
AcDbEntity
  8
0
 62
5
100
AcDbSpline
 70
0
 71
3
 72
16
 73
12
 74
10
 40
0.000000
 40
0.000000
 40
0.000000
 40
0.000000
 40
0.594052
 40
1.926274
 40
3.438883
 40
6.074692
 40
8.833683
 40
11.469467
 40
12.982642
 40
14.315438
 40
14.909670
 40
14.909670
 40
14.909670
 40
14.909670
 10
131.443798
 20
240.457815
 30
0.0
 10
131.641417
 20
240.445468
 30
0.0
 10
132.282216
 20
240.405432
 30
0.0
 10
133.436113
 20
240.500744
 30
0.0
 10
135.159686
 20
241.266662
 30
0.0
 10
136.465258
 20
243.318138
 30
0.0
 10
137.155581
 20
245.893925
 30
0.0
 10
137.050247
 20
248.323442
 30
0.0
 10
135.940889
 20
249.849024
 30
0.0
 10
134.989764
 20
250.509911
 30
0.0
 10
134.414997
 20
250.796609
 30
0.0
 10
134.237758
 20
250.885017
 30
0.0
 11
131.443798
 21
240.457815
 31
0.0
 11
132.037182
 21
240.429660
 31
0.0
 11
133.362446
 21
240.565639
 31
0.0
 11
134.737255
 21
241.196422
 31
0.0
 11
136.309268
 21
243.312140
 31
0.0
 11
137.023365
 21
245.977116
 31
0.0
 11
136.719793
 21
248.595360
 31
0.0
 11
135.844768
 21
249.829876
 31
0.0
 11
134.765482
 21
250.611853
 31
0.0
 11
134.237758
 21
250.885017
 31
0.0
  0
LINE
  5
1d7
100
AcDbEntity
  8
0
 62
5
100
AcDbLine
 10
118.061444
 20
253.840224
 30
0.0
 11
119.573926
 21
254.245492
 31
0.0
  0
LINE
  5
1d8
100
AcDbEntity
  8
0
 62
5
100
AcDbLine
 10
119.573926
 20
254.245492
 30
0.0
 11
119.704795
 21
253.757092
 31
0.0
  0
LINE
  5
1d9
100
AcDbEntity
  8
0
 62
5
100
AcDbLine
 10
119.704795
 20
253.757092
 30
0.0
 11
118.829133
 21
253.522751
 31
0.0
  0
LINE
  5
1da
100
AcDbEntity
  8
0
 62
5
100
AcDbLine
 10
127.982455
 20
255.975683
 30
0.0
 11
135.627624
 21
258.024005
 31
0.0
  0
LINE
  5
1db
100
AcDbEntity
  8
0
 62
5
100
AcDbLine
 10
111.183968
 20
251.474389
 30
0.0
 11
118.829139
 21
253.522711
 31
0.0
  0
LINE
  5
1dc
100
AcDbEntity
  8
0
 62
1
100
AcDbLine
 10
125.249573
 20
255.243008
 30
0.0
 11
121.562154
 21
254.254772
 31
0.0
  0
LINE
  5
1dd
100
AcDbEntity
  8
0
 62
5
100
AcDbLine
 10
129.077664
 20
24.507898
 30
0.0
 11
129.049695
 21
17.479137
 31
0.0
  0
LINE
  5
1de
100
AcDbEntity
  8
0
 62
5
100
AcDbLine
 10
129.049695
 20
17.479137
 30
0.0
 11
118.212435
 21
6.641874
 31
0.0
  0
LINE
  5
1df
100
AcDbEntity
  8
0
 62
5
100
AcDbLine
 10
118.212435
 20
6.641874
 30
0.0
 11
111.183671
 21
6.613906
 31
0.0
  0
LINE
  5
1e0
100
AcDbEntity
  8
0
 62
1
100
AcDbLine
 10
123.951043
 20
19.381546
 30
0.0
 11
129.077661
 21
24.507898
 31
0.0
  0
LINE
  5
1e1
100
AcDbEntity
  8
0
 62
1
100
AcDbLine
 10
111.183671
 20
6.613909
 30
0.0
 11
116.317801
 21
11.748304
 31
0.0
  0
SPLINE
  5
1e2
100
AcDbEntity
  8
0
 62
5
100
AcDbSpline
 70
0
 71
3
 72
16
 73
12
 74
10
 40
0.000000
 40
0.000000
 40
0.000000
 40
0.000000
 40
0.594052
 40
1.926273
 40
3.438881
 40
6.074691
 40
8.833683
 40
11.469465
 40
12.982641
 40
14.315439
 40
14.909670
 40
14.909670
 40
14.909670
 40
14.909670
 10
128.488646
 20
256.634185
 30
0.0
 10
128.400530
 20
256.811501
 30
0.0
 10
128.114803
 20
257.386468
 30
0.0
 10
127.455313
 20
258.338117
 30
0.0
 10
125.930222
 20
259.447815
 30
0.0
 10
123.500805
 20
259.552735
 30
0.0
 10
120.924946
 20
258.862679
 30
0.0
 10
118.873590
 20
257.556699
 30
0.0
 10
118.107076
 20
255.833176
 30
0.0
 10
118.010292
 20
254.679034
 30
0.0
 10
118.049388
 20
254.037922
 30
0.0
 10
118.061444
 20
253.840224
 30
0.0
 11
128.488646
 21
256.634185
 31
0.0
 11
128.216338
 21
257.162149
 31
0.0
 11
127.435945
 21
258.241871
 31
0.0
 11
126.202268
 21
259.117099
 31
0.0
 11
123.583994
 21
259.420642
 31
0.0
 11
120.919009
 21
258.706581
 31
0.0
 11
118.803330
 21
257.134559
 31
0.0
 11
118.171718
 21
255.759507
 31
0.0
 11
118.034149
 21
254.433828
 31
0.0
 11
118.061444
 21
253.840224
 31
0.0
  0
LINE
  5
1e3
100
AcDbEntity
  8
0
 62
5
100
AcDbLine
 10
117.363280
 20
11.956700
 30
0.0
 11
123.737277
 21
18.330697
 31
0.0
  0
SPLINE
  5
1e4
100
AcDbEntity
  8
0
 62
5
100
AcDbSpline
 70
0
 71
3
 72
10
 73
6
 74
4
 40
0.000000
 40
0.000000
 40
0.000000
 40
0.000000
 40
1.112708
 40
1.522653
 40
1.581216
 40
1.581216
 40
1.581216
 40
1.581216
 10
115.810561
 20
12.255545
 30
0.0
 10
116.174779
 20
12.185446
 30
0.0
 10
116.673182
 20
12.089520
 30
0.0
 10
117.190755
 20
11.989905
 30
0.0
 10
117.344110
 20
11.960389
 30
0.0
 10
117.363280
 20
11.956700
 30
0.0
 11
115.810561
 21
12.255545
 31
0.0
 11
116.903215
 21
12.045247
 31
0.0
 11
117.305771
 21
11.967768
 31
0.0
 11
117.363280
 21
11.956700
 31
0.0
  0
LINE
  5
1e5
100
AcDbEntity
  8
0
 62
1
100
AcDbLine
 10
67.900714
 20
146.849905
 30
0.0
 11
67.900714
 21
172.214642
 31
0.0
  0
LINE
  5
1e6
100
AcDbEntity
  8
0
 62
1
100
AcDbLine
 10
67.871001
 20
146.850024
 30
0.0
 11
49.935438
 21
128.914449
 31
0.0
  0
LINE
  5
1e7
100
AcDbEntity
  8
0
 62
5
100
AcDbLine
 10
24.629556
 20
190.008349
 30
0.0
 11
29.619417
 21
194.958660
 31
0.0
  0
LINE
  5
1e8
100
AcDbEntity
  8
0
 62
5
100
AcDbLine
 10
29.619417
 20
194.958660
 30
0.0
 11
44.945619
 21
194.958660
 31
0.0
  0
LINE
  5
1e9
100
AcDbEntity
  8
0
 62
5
100
AcDbLine
 10
44.945619
 20
194.958660
 30
0.0
 11
49.935480
 21
190.008349
 31
0.0
  0
LINE
  5
1ea
100
AcDbEntity
  8
0
 62
1
100
AcDbLine
 10
31.879500
 20
190.008160
 30
0.0
 11
24.629556
 21
190.008346
 31
0.0
  0
LINE
  5
1eb
100
AcDbEntity
  8
0
 62
1
100
AcDbLine
 10
49.935480
 20
190.008349
 30
0.0
 11
42.674537
 21
190.008160
 31
0.0
  0
SPLINE
  5
1ec
100
AcDbEntity
  8
0
 62
5
100
AcDbSpline
 70
0
 71
3
 72
10
 73
6
 74
4
 40
0.000000
 40
0.000000
 40
0.000000
 40
0.000000
 40
0.058722
 40
0.469774
 40
1.585487
 40
1.585487
 40
1.585487
 40
1.585487
 10
123.737277
 20
18.330697
 30
0.0
 10
123.733654
 20
18.349933
 30
0.0
 10
123.704669
 20
18.503818
 30
0.0
 10
123.606844
 20
19.023182
 30
0.0
 10
123.512642
 20
19.523309
 30
0.0
 10
123.443802
 20
19.888787
 30
0.0
 11
123.737277
 21
18.330697
 31
0.0
 11
123.726407
 21
18.388404
 31
0.0
 11
123.650321
 21
18.792354
 31
0.0
 11
123.443802
 21
19.888787
 31
0.0
  0
LINE
  5
1ed
100
AcDbEntity
  8
0
 62
5
100
AcDbLine
 10
41.787913
 20
190.600068
 30
0.0
 11
32.773719
 21
190.600068
 31
0.0
  0
SPLINE
  5
1ee
100
AcDbEntity
  8
0
 62
5
100
AcDbSpline
 70
0
 71
3
 72
10
 73
6
 74
4
 40
0.000000
 40
0.000000
 40
0.000000
 40
0.000000
 40
1.112709
 40
1.522654
 40
1.581217
 40
1.581217
 40
1.581217
 40
1.581217
 10
42.674537
 20
189.290813
 30
0.0
 10
42.466564
 20
189.597922
 30
0.0
 10
42.181968
 20
190.018177
 30
0.0
 10
41.886427
 20
190.454595
 30
0.0
 10
41.798859
 20
190.583904
 30
0.0
 10
41.787913
 20
190.600068
 30
0.0
 11
42.674537
 21
189.290813
 31
0.0
 11
42.050617
 21
190.212140
 31
0.0
 11
41.820751
 21
190.551577
 31
0.0
 11
41.787913
 21
190.600068
 31
0.0
  0
LINE
  5
1ef
100
AcDbEntity
  8
0
 62
5
100
AcDbLine
 10
67.900417
 20
225.565152
 30
0.0
 11
67.900700
 21
224.658674
 31
0.0
  0
LINE
  5
1f0
100
AcDbEntity
  8
0
 62
5
100
AcDbLine
 10
67.900700
 20
224.658674
 30
0.0
 11
67.395364
 21
224.658674
 31
0.0
  0
LINE
  5
1f1
100
AcDbEntity
  8
0
 62
5
100
AcDbLine
 10
67.395364
 20
224.658674
 30
0.0
 11
67.395364
 21
226.224524
 31
0.0
  0
SPLINE
  5
1f2
100
AcDbEntity
  8
0
 62
5
100
AcDbSpline
 70
0
 71
3
 72
10
 73
6
 74
4
 40
0.000000
 40
0.000000
 40
0.000000
 40
0.000000
 40
0.058722
 40
0.469774
 40
1.585488
 40
1.585488
 40
1.585488
 40
1.585488
 10
32.773719
 20
190.600068
 30
0.0
 10
32.762679
 20
190.583904
 30
0.0
 10
32.674361
 20
190.454595
 30
0.0
 10
32.376288
 20
190.018177
 30
0.0
 10
32.089255
 20
189.597922
 30
0.0
 10
31.879500
 20
189.290813
 30
0.0
 11
32.773719
 21
190.600068
 31
0.0
 11
32.740600
 21
190.551577
 31
0.0
 11
32.508765
 21
190.212140
 31
0.0
 11
31.879500
 21
189.290813
 31
0.0
  0
LINE
  5
1f3
100
AcDbEntity
  8
0
 62
5
100
AcDbLine
 10
67.395364
 20
215.429490
 30
0.0
 11
67.395364
 21
216.995327
 31
0.0
  0
LINE
  5
1f4
100
AcDbEntity
  8
0
 62
5
100
AcDbLine
 10
67.395364
 20
216.995327
 30
0.0
 11
67.900993
 21
216.995327
 31
0.0
  0
LINE
  5
1f5
100
AcDbEntity
  8
0
 62
5
100
AcDbLine
 10
67.900993
 20
216.995327
 30
0.0
 11
67.900711
 21
216.088852
 31
0.0
  0
LINE
  5
1f6
100
AcDbEntity
  8
0
 62
5
100
AcDbLine
 10
67.900415
 20
225.565146
 30
0.0
 11
67.900604
 21
233.479958
 31
0.0
  0
LINE
  5
1f7
100
AcDbEntity
  8
0
 62
5
100
AcDbLine
 10
67.900561
 20
208.174037
 30
0.0
 11
67.900750
 21
216.088849
 31
0.0
  0
LINE
  5
1f8
100
AcDbEntity
  8
0
 62
1
100
AcDbLine
 10
67.900801
 20
222.735758
 30
0.0
 11
67.900990
 21
218.918209
 31
0.0
  0
LINE
  5
1f9
100
AcDbEntity
  8
0
 62
5
100
AcDbLine
 10
24.629515
 20
128.914446
 30
0.0
 11
29.619375
 21
123.964136
 31
0.0
  0
LINE
  5
1fa
100
AcDbEntity
  8
0
 62
5
100
AcDbLine
 10
29.619375
 20
123.964136
 30
0.0
 11
44.945579
 21
123.964136
 31
0.0
  0
LINE
  5
1fb
100
AcDbEntity
  8
0
 62
5
100
AcDbLine
 10
44.945579
 20
123.964136
 30
0.0
 11
49.935438
 21
128.914446
 31
0.0
  0
LINE
  5
1fc
100
AcDbEntity
  8
0
 62
1
100
AcDbLine
 10
31.879461
 20
128.914635
 30
0.0
 11
24.629515
 21
128.914449
 31
0.0
  0
LINE
  5
1fd
100
AcDbEntity
  8
0
 62
1
100
AcDbLine
 10
49.935438
 20
128.914446
 30
0.0
 11
42.674495
 21
128.914635
 31
0.0
  0
SPLINE
  5
1fe
100
AcDbEntity
  8
0
 62
5
100
AcDbSpline
 70
0
 71
3
 72
16
 73
12
 74
10
 40
0.000000
 40
0.000000
 40
0.000000
 40
0.000000
 40
0.594052
 40
1.926273
 40
3.438880
 40
6.074691
 40
8.833683
 40
11.469466
 40
12.982641
 40
14.315438
 40
14.909670
 40
14.909670
 40
14.909670
 40
14.909670
 10
67.395364
 20
226.224524
 30
0.0
 10
67.201283
 20
226.185303
 30
0.0
 10
66.571957
 20
226.058125
 30
0.0
 10
65.482046
 20
225.667412
 30
0.0
 10
64.015437
 20
224.481498
 30
0.0
 10
63.285313
 20
222.162017
 30
0.0
 10
63.285174
 20
219.495328
 30
0.0
 10
64.015724
 20
217.175859
 30
0.0
 10
65.482130
 20
215.989381
 30
0.0
 10
66.571897
 20
215.597182
 30
0.0
 10
67.201282
 20
215.469013
 30
0.0
 10
67.395364
 20
215.429490
 30
0.0
 11
67.395364
 21
226.224524
 31
0.0
 11
66.814911
 21
226.098142
 31
0.0
 11
65.569999
 21
225.623794
 31
0.0
 11
64.405296
 21
224.658679
 31
0.0
 11
63.434435
 21
222.208183
 31
0.0
 11
63.434417
 21
219.449192
 31
0.0
 11
64.405296
 21
216.998733
 31
0.0
 11
65.570020
 21
216.032754
 31
0.0
 11
66.814922
 21
215.556762
 31
0.0
 11
67.395364
 21
215.429490
 31
0.0
  0
LINE
  5
1ff
100
AcDbEntity
  8
0
 62
5
100
AcDbLine
 10
41.787871
 20
128.322728
 30
0.0
 11
32.773676
 21
128.322728
 31
0.0
  0
SPLINE
  5
200
100
AcDbEntity
  8
0
 62
5
100
AcDbSpline
 70
0
 71
3
 72
10
 73
6
 74
4
 40
0.000000
 40
0.000000
 40
0.000000
 40
0.000000
 40
1.112709
 40
1.522654
 40
1.581217
 40
1.581217
 40
1.581217
 40
1.581217
 10
42.674495
 20
129.631982
 30
0.0
 10
42.466521
 20
129.324873
 30
0.0
 10
42.181926
 20
128.904618
 30
0.0
 10
41.886385
 20
128.468200
 30
0.0
 10
41.798817
 20
128.338891
 30
0.0
 10
41.787871
 20
128.322728
 30
0.0
 11
42.674495
 21
129.631982
 31
0.0
 11
42.050574
 21
128.710655
 31
0.0
 11
41.820709
 21
128.371218
 31
0.0
 11
41.787871
 21
128.322728
 31
0.0
  0
LINE
  5
201
100
AcDbEntity
  8
0
 62
5
100
AcDbLine
 10
6.735381
 20
164.199550
 30
0.0
 11
6.735663
 21
163.293072
 31
0.0
  0
LINE
  5
202
100
AcDbEntity
  8
0
 62
5
100
AcDbLine
 10
6.735663
 20
163.293072
 30
0.0
 11
6.230326
 21
163.293072
 31
0.0
  0
LINE
  5
203
100
AcDbEntity
  8
0
 62
5
100
AcDbLine
 10
6.230326
 20
163.293072
 30
0.0
 11
6.230326
 21
164.858923
 31
0.0
  0
SPLINE
  5
204
100
AcDbEntity
  8
0
 62
5
100
AcDbSpline
 70
0
 71
3
 72
10
 73
6
 74
4
 40
0.000000
 40
0.000000
 40
0.000000
 40
0.000000
 40
0.058722
 40
0.469774
 40
1.585487
 40
1.585487
 40
1.585487
 40
1.585487
 10
32.773676
 20
128.322728
 30
0.0
 10
32.762637
 20
128.338891
 30
0.0
 10
32.674319
 20
128.468200
 30
0.0
 10
32.376247
 20
128.904618
 30
0.0
 10
32.089215
 20
129.324873
 30
0.0
 10
31.879461
 20
129.631982
 30
0.0
 11
32.773676
 21
128.322728
 31
0.0
 11
32.740557
 21
128.371218
 31
0.0
 11
32.508724
 21
128.710655
 31
0.0
 11
31.879461
 21
129.631982
 31
0.0
  0
LINE
  5
205
100
AcDbEntity
  8
0
 62
5
100
AcDbLine
 10
6.230326
 20
154.063889
 30
0.0
 11
6.230326
 21
155.629726
 31
0.0
  0
LINE
  5
206
100
AcDbEntity
  8
0
 62
5
100
AcDbLine
 10
6.230326
 20
155.629726
 30
0.0
 11
6.735955
 21
155.629726
 31
0.0
  0
LINE
  5
207
100
AcDbEntity
  8
0
 62
5
100
AcDbLine
 10
6.735955
 20
155.629726
 30
0.0
 11
6.735673
 21
154.723251
 31
0.0
  0
LINE
  5
208
100
AcDbEntity
  8
0
 62
5
100
AcDbLine
 10
6.735378
 20
164.199545
 30
0.0
 11
6.735566
 21
172.114357
 31
0.0
  0
LINE
  5
209
100
AcDbEntity
  8
0
 62
5
100
AcDbLine
 10
6.735525
 20
146.808436
 30
0.0
 11
6.735713
 21
154.723248
 31
0.0
  0
LINE
  5
20a
100
AcDbEntity
  8
0
 62
1
100
AcDbLine
 10
6.735765
 20
161.370157
 30
0.0
 11
6.735953
 21
157.552607
 31
0.0
  0
LINE
  5
20b
100
AcDbEntity
  8
0
 62
5
100
AcDbLine
 10
67.870756
 20
103.034634
 30
0.0
 11
67.871038
 21
102.128156
 31
0.0
  0
LINE
  5
20c
100
AcDbEntity
  8
0
 62
5
100
AcDbLine
 10
67.871038
 20
102.128156
 30
0.0
 11
67.365702
 21
102.128156
 31
0.0
  0
LINE
  5
20d
100
AcDbEntity
  8
0
 62
5
100
AcDbLine
 10
67.365702
 20
102.128156
 30
0.0
 11
67.365702
 21
103.694007
 31
0.0
  0
SPLINE
  5
20e
100
AcDbEntity
  8
0
 62
5
100
AcDbSpline
 70
0
 71
3
 72
16
 73
12
 74
10
 40
0.000000
 40
0.000000
 40
0.000000
 40
0.000000
 40
0.594052
 40
1.926273
 40
3.438881
 40
6.074692
 40
8.833683
 40
11.469466
 40
12.982642
 40
14.315439
 40
14.909671
 40
14.909671
 40
14.909671
 40
14.909671
 10
6.230326
 20
164.858923
 30
0.0
 10
6.036245
 20
164.819702
 30
0.0
 10
5.406919
 20
164.692524
 30
0.0
 10
4.317008
 20
164.301811
 30
0.0
 10
2.850399
 20
163.115897
 30
0.0
 10
2.120275
 20
160.796415
 30
0.0
 10
2.120136
 20
158.129727
 30
0.0
 10
2.850685
 20
155.810257
 30
0.0
 10
4.317092
 20
154.623780
 30
0.0
 10
5.406859
 20
154.231580
 30
0.0
 10
6.036245
 20
154.103412
 30
0.0
 10
6.230326
 20
154.063889
 30
0.0
 11
6.230326
 21
164.858923
 31
0.0
 11
5.649873
 21
164.732541
 31
0.0
 11
4.404961
 21
164.258193
 31
0.0
 11
3.240257
 21
163.293078
 31
0.0
 11
2.269397
 21
160.842582
 31
0.0
 11
2.269379
 21
158.083591
 31
0.0
 11
3.240257
 21
155.633132
 31
0.0
 11
4.404982
 21
154.667153
 31
0.0
 11
5.649884
 21
154.191161
 31
0.0
 11
6.230326
 21
154.063889
 31
0.0
  0
LINE
  5
20f
100
AcDbEntity
  8
0
 62
5
100
AcDbLine
 10
67.365702
 20
92.898973
 30
0.0
 11
67.365702
 21
94.464810
 31
0.0
  0
LINE
  5
210
100
AcDbEntity
  8
0
 62
5
100
AcDbLine
 10
67.365702
 20
94.464810
 30
0.0
 11
67.871332
 21
94.464810
 31
0.0
  0
LINE
  5
211
100
AcDbEntity
  8
0
 62
5
100
AcDbLine
 10
67.871332
 20
94.464810
 30
0.0
 11
67.871049
 21
93.558335
 31
0.0
  0
LINE
  5
212
100
AcDbEntity
  8
0
 62
5
100
AcDbLine
 10
67.870753
 20
103.034629
 30
0.0
 11
67.870942
 21
110.949441
 31
0.0
  0
LINE
  5
213
100
AcDbEntity
  8
0
 62
5
100
AcDbLine
 10
67.870900
 20
85.643520
 30
0.0
 11
67.871089
 21
93.558332
 31
0.0
  0
LINE
  5
214
100
AcDbEntity
  8
0
 62
1
100
AcDbLine
 10
67.871140
 20
100.205241
 30
0.0
 11
67.871329
 21
96.387691
 31
0.0
  0
LINE
  5
215
100
AcDbEntity
  8
0
 62
5
100
AcDbLine
 10
67.900866
 20
24.407501
 30
0.0
 11
62.950556
 21
29.397362
 31
0.0
  0
LINE
  5
216
100
AcDbEntity
  8
0
 62
5
100
AcDbLine
 10
62.950556
 20
29.397362
 30
0.0
 11
62.950556
 21
44.723566
 31
0.0
  0
LINE
  5
217
100
AcDbEntity
  8
0
 62
5
100
AcDbLine
 10
62.950556
 20
44.723566
 30
0.0
 11
67.900866
 21
49.713425
 31
0.0
  0
LINE
  5
218
100
AcDbEntity
  8
0
 62
1
100
AcDbLine
 10
67.901055
 20
31.657448
 30
0.0
 11
67.900869
 21
24.407501
 31
0.0
  0
LINE
  5
219
100
AcDbEntity
  8
0
 62
1
100
AcDbLine
 10
67.900866
 20
49.713425
 30
0.0
 11
67.901055
 21
42.452482
 31
0.0
  0
SPLINE
  5
21a
100
AcDbEntity
  8
0
 62
5
100
AcDbSpline
 70
0
 71
3
 72
16
 73
12
 74
10
 40
0.000000
 40
0.000000
 40
0.000000
 40
0.000000
 40
0.594052
 40
1.926273
 40
3.438880
 40
6.074691
 40
8.833683
 40
11.469466
 40
12.982641
 40
14.315438
 40
14.909670
 40
14.909670
 40
14.909670
 40
14.909670
 10
67.365702
 20
103.694007
 30
0.0
 10
67.171621
 20
103.654786
 30
0.0
 10
66.542295
 20
103.527608
 30
0.0
 10
65.452384
 20
103.136895
 30
0.0
 10
63.985776
 20
101.950980
 30
0.0
 10
63.255651
 20
99.631500
 30
0.0
 10
63.255512
 20
96.964811
 30
0.0
 10
63.986062
 20
94.645341
 30
0.0
 10
65.452469
 20
93.458864
 30
0.0
 10
66.542236
 20
93.066665
 30
0.0
 10
67.171621
 20
92.938496
 30
0.0
 10
67.365702
 20
92.898973
 30
0.0
 11
67.365702
 21
103.694007
 31
0.0
 11
66.785250
 21
103.567625
 31
0.0
 11
65.540337
 21
103.093277
 31
0.0
 11
64.375634
 21
102.128162
 31
0.0
 11
63.404773
 21
99.677666
 31
0.0
 11
63.404755
 21
96.918675
 31
0.0
 11
64.375634
 21
94.468216
 31
0.0
 11
65.540359
 21
93.502237
 31
0.0
 11
66.785260
 21
93.026245
 31
0.0
 11
67.365702
 21
92.898973
 31
0.0
  0
LINE
  5
21b
100
AcDbEntity
  8
0
 62
5
100
AcDbLine
 10
67.309148
 20
41.565858
 30
0.0
 11
67.309148
 21
32.551664
 31
0.0
  0
SPLINE
  5
21c
100
AcDbEntity
  8
0
 62
5
100
AcDbSpline
 70
0
 71
3
 72
10
 73
6
 74
4
 40
0.000000
 40
0.000000
 40
0.000000
 40
0.000000
 40
1.112709
 40
1.522654
 40
1.581217
 40
1.581217
 40
1.581217
 40
1.581217
 10
68.618402
 20
42.452482
 30
0.0
 10
68.311293
 20
42.244508
 30
0.0
 10
67.891038
 20
41.959913
 30
0.0
 10
67.454620
 20
41.664372
 30
0.0
 10
67.325311
 20
41.576804
 30
0.0
 10
67.309148
 20
41.565858
 30
0.0
 11
68.618402
 21
42.452482
 31
0.0
 11
67.697075
 21
41.828562
 31
0.0
 11
67.357639
 21
41.598696
 31
0.0
 11
67.309148
 21
41.565858
 31
0.0
  0
LINE
  5
21d
100
AcDbEntity
  8
0
 62
5
100
AcDbLine
 10
72.372291
 20
130.051533
 30
0.0
 11
72.137405
 21
130.927049
 31
0.0
  0
LINE
  5
21e
100
AcDbEntity
  8
0
 62
5
100
AcDbLine
 10
72.137405
 20
130.927049
 30
0.0
 11
72.625523
 21
131.057842
 31
0.0
  0
LINE
  5
21f
100
AcDbEntity
  8
0
 62
5
100
AcDbLine
 10
72.625523
 20
131.057842
 30
0.0
 11
73.030797
 21
129.545345
 31
0.0
  0
SPLINE
  5
220
100
AcDbEntity
  8
0
 62
5
100
AcDbSpline
 70
0
 71
3
 72
10
 73
6
 74
4
 40
0.000000
 40
0.000000
 40
0.000000
 40
0.000000
 40
0.058722
 40
0.469774
 40
1.585487
 40
1.585487
 40
1.585487
 40
1.585487
 10
67.309148
 20
32.551664
 30
0.0
 10
67.325311
 20
32.540624
 30
0.0
 10
67.454620
 20
32.452306
 30
0.0
 10
67.891038
 20
32.154234
 30
0.0
 10
68.311293
 20
31.867202
 30
0.0
 10
68.618402
 20
31.657448
 30
0.0
 11
67.309148
 21
32.551664
 31
0.0
 11
67.357639
 21
32.518544
 31
0.0
 11
67.697075
 21
32.286711
 31
0.0
 11
68.618402
 21
31.657448
 31
0.0
  0
SPLINE
  5
221
100
AcDbEntity
  8
0
 62
5
100
AcDbSpline
 70
0
 71
3
 72
13
 73
9
 74
7
 40
0.000000
 40
0.000000
 40
0.000000
 40
0.000000
 40
0.569255
 40
1.881608
 40
3.413802
 40
3.835134
 40
4.400552
 40
4.909789
 40
4.909789
 40
4.909789
 40
4.909789
 10
73.030797
 20
129.545345
 30
0.0
 10
73.196756
 20
129.637873
 30
0.0
 10
73.745315
 20
129.943713
 30
0.0
 10
74.647933
 20
130.630842
 30
0.0
 10
75.425453
 20
131.452414
 30
0.0
 10
75.702030
 20
132.249161
 30
0.0
 10
75.825056
 20
132.734787
 30
0.0
 10
75.840454
 20
133.093559
 30
0.0
 10
75.847750
 20
133.263567
 30
0.0
 11
73.030797
 21
129.545345
 31
0.0
 11
73.524001
 21
129.829600
 31
0.0
 11
74.573865
 21
130.617037
 31
0.0
 11
75.535767
 21
131.809665
 31
0.0
 11
75.681251
 21
132.205082
 31
0.0
 11
75.809474
 21
132.755770
 31
0.0
 11
75.847750
 21
133.263567
 31
0.0
  0
LINE
  5
222
100
AcDbEntity
  8
0
 62
5
100
AcDbLine
 10
70.236836
 20
139.972548
 30
0.0
 11
70.642105
 21
138.460065
 31
0.0
  0
LINE
  5
223
100
AcDbEntity
  8
0
 62
5
100
AcDbLine
 10
70.642105
 20
138.460065
 30
0.0
 11
70.153702
 21
138.329196
 31
0.0
  0
LINE
  5
224
100
AcDbEntity
  8
0
 62
5
100
AcDbLine
 10
70.153702
 20
138.329196
 30
0.0
 11
69.919362
 21
139.204858
 31
0.0
  0
LINE
  5
225
100
AcDbEntity
  8
0
 62
5
100
AcDbLine
 10
72.372293
 20
130.051536
 30
0.0
 11
74.420617
 21
122.406368
 31
0.0
  0
LINE
  5
226
100
AcDbEntity
  8
0
 62
5
100
AcDbLine
 10
67.871001
 20
146.850024
 30
0.0
 11
69.919322
 21
139.204852
 31
0.0
  0
LINE
  5
227
100
AcDbEntity
  8
0
 62
1
100
AcDbLine
 10
71.639619
 20
132.784418
 30
0.0
 11
70.651384
 21
136.471838
 31
0.0
  0
LINE
  5
228
100
AcDbEntity
  8
0
 62
5
100
AcDbLine
 10
57.580510
 20
126.865767
 30
0.0
 11
58.456172
 21
126.631426
 31
0.0
  0
LINE
  5
229
100
AcDbEntity
  8
0
 62
5
100
AcDbLine
 10
58.456172
 20
126.631426
 30
0.0
 11
58.325382
 21
126.143309
 31
0.0
  0
LINE
  5
22a
100
AcDbEntity
  8
0
 62
5
100
AcDbLine
 10
58.325382
 20
126.143309
 30
0.0
 11
56.812886
 21
126.548580
 31
0.0
  0
SPLINE
  5
22b
100
AcDbEntity
  8
0
 62
5
100
AcDbSpline
 70
0
 71
3
 72
10
 73
6
 74
4
 40
0.000000
 40
0.000000
 40
0.000000
 40
0.000000
 40
0.591268
 40
0.858169
 40
0.939404
 40
0.939404
 40
0.939404
 40
0.939404
 10
71.128317
 20
140.118205
 30
0.0
 10
70.934939
 20
140.138341
 30
0.0
 10
70.654269
 20
140.167567
 30
0.0
 10
70.321685
 20
140.090171
 30
0.0
 10
70.252889
 20
139.994801
 30
0.0
 10
70.236836
 20
139.972548
 30
0.0
 11
71.128317
 21
140.118205
 31
0.0
 11
70.537191
 21
140.131177
 31
0.0
 11
70.287960
 21
140.035678
 31
0.0
 11
70.236836
 21
139.972548
 31
0.0
  0
LINE
  5
22c
100
AcDbEntity
  8
0
 62
5
100
AcDbLine
 10
67.240088
 20
123.754619
 30
0.0
 11
65.727605
 21
124.159888
 31
0.0
  0
LINE
  5
22d
100
AcDbEntity
  8
0
 62
5
100
AcDbLine
 10
65.727605
 20
124.159888
 30
0.0
 11
65.858472
 21
124.648287
 31
0.0
  0
LINE
  5
22e
100
AcDbEntity
  8
0
 62
5
100
AcDbLine
 10
65.858472
 20
124.648287
 30
0.0
 11
66.733987
 21
124.413402
 31
0.0
  0
LINE
  5
22f
100
AcDbEntity
  8
0
 62
5
100
AcDbLine
 10
57.580513
 20
126.865764
 30
0.0
 11
49.935440
 21
128.914449
 31
0.0
  0
LINE
  5
230
100
AcDbEntity
  8
0
 62
5
100
AcDbLine
 10
74.379074
 20
122.364754
 30
0.0
 11
66.734001
 21
124.413442
 31
0.0
  0
LINE
  5
231
100
AcDbEntity
  8
0
 62
1
100
AcDbLine
 10
60.313595
 20
126.133837
 30
0.0
 11
64.001111
 21
125.145964
 31
0.0
  0
LINE
  5
232
100
AcDbEntity
  8
0
 62
5
100
AcDbLine
 10
71.366397
 20
143.325125
 30
0.0
 11
69.925954
 21
141.870978
 31
0.0
  0
LINE
  5
233
100
AcDbEntity
  8
0
 62
5
100
AcDbLine
 10
69.925954
 20
141.870978
 30
0.0
 11
78.765942
 21
128.983881
 31
0.0
  0
LINE
  5
234
100
AcDbEntity
  8
0
 62
5
100
AcDbLine
 10
78.765942
 20
128.983881
 30
0.0
 11
85.794706
 21
128.955913
 31
0.0
  0
LINE
  5
235
100
AcDbEntity
  8
0
 62
1
100
AcDbLine
 10
85.794706
 20
128.955913
 30
0.0
 11
80.660576
 21
134.090308
 31
0.0
  0
SPLINE
  5
236
100
AcDbEntity
  8
0
 62
5
100
AcDbSpline
 70
0
 71
3
 72
16
 73
12
 74
10
 40
0.000000
 40
0.000000
 40
0.000000
 40
0.000000
 40
0.594052
 40
1.926274
 40
3.438883
 40
6.074692
 40
8.833683
 40
11.469467
 40
12.982642
 40
14.315438
 40
14.909670
 40
14.909670
 40
14.909670
 40
14.909670
 10
56.812886
 20
126.548580
 30
0.0
 10
56.800539
 20
126.350961
 30
0.0
 10
56.760503
 20
125.710162
 30
0.0
 10
56.855814
 20
124.556265
 30
0.0
 10
57.621733
 20
122.832692
 30
0.0
 10
59.673209
 20
121.527120
 30
0.0
 10
62.248996
 20
120.836797
 30
0.0
 10
64.678512
 20
120.942131
 30
0.0
 10
66.204094
 20
122.051489
 30
0.0
 10
66.864982
 20
123.002614
 30
0.0
 10
67.151680
 20
123.577381
 30
0.0
 10
67.240088
 20
123.754619
 30
0.0
 11
56.812886
 21
126.548580
 31
0.0
 11
56.784730
 21
125.955195
 31
0.0
 11
56.920709
 21
124.629932
 31
0.0
 11
57.551492
 21
123.255123
 31
0.0
 11
59.667211
 21
121.683110
 31
0.0
 11
62.332187
 21
120.969013
 31
0.0
 11
64.950430
 21
121.272585
 31
0.0
 11
66.184947
 21
122.147609
 31
0.0
 11
66.966924
 21
123.226896
 31
0.0
 11
67.240088
 21
123.754619
 31
0.0
  0
LINE
  5
237
100
AcDbEntity
  8
0
 62
5
100
AcDbLine
 10
79.615098
 20
134.298707
 30
0.0
 11
73.241100
 21
140.672704
 31
0.0
  0
SPLINE
  5
238
100
AcDbEntity
  8
0
 62
5
100
AcDbSpline
 70
0
 71
3
 72
10
 73
6
 74
4
 40
0.000000
 40
0.000000
 40
0.000000
 40
0.000000
 40
1.112708
 40
1.522653
 40
1.581216
 40
1.581216
 40
1.581216
 40
1.581216
 10
81.167817
 20
134.597552
 30
0.0
 10
80.803599
 20
134.527453
 30
0.0
 10
80.305195
 20
134.431527
 30
0.0
 10
79.787622
 20
134.331912
 30
0.0
 10
79.634267
 20
134.302396
 30
0.0
 10
79.615098
 20
134.298707
 30
0.0
 11
81.167817
 21
134.597552
 31
0.0
 11
80.075163
 21
134.387254
 31
0.0
 11
79.672606
 21
134.309775
 31
0.0
 11
79.615098
 21
134.298707
 31
0.0
  0
LINE
  5
239
100
AcDbEntity
  8
0
 62
5
100
AcDbLine
 10
85.777536
 20
129.014731
 30
0.0
 11
78.748771
 21
128.986763
 31
0.0
  0
LINE
  5
23a
100
AcDbEntity
  8
0
 62
5
100
AcDbLine
 10
78.748771
 20
128.986763
 30
0.0
 11
74.454374
 21
124.692362
 31
0.0
  0
LINE
  5
23b
100
AcDbEntity
  8
0
 62
5
100
AcDbLine
 10
74.454374
 20
124.692362
 30
0.0
 11
74.798812
 21
122.048118
 31
0.0
  0
LINE
  5
23c
100
AcDbEntity
  8
0
 62
5
100
AcDbLine
 10
74.798812
 20
122.048118
 30
0.0
 11
72.075082
 21
122.313073
 31
0.0
  0
LINE
  5
23d
100
AcDbEntity
  8
0
 62
5
100
AcDbLine
 10
72.075082
 20
122.313073
 30
0.0
 11
67.911512
 21
118.149500
 31
0.0
  0
LINE
  5
23e
100
AcDbEntity
  8
0
 62
5
100
AcDbLine
 10
67.911512
 20
118.149500
 30
0.0
 11
67.883543
 21
111.120738
 31
0.0
  0
LINE
  5
23f
100
AcDbEntity
  8
0
 62
1
100
AcDbLine
 10
80.651183
 20
123.888111
 30
0.0
 11
85.777536
 21
129.014731
 31
0.0
  0
LINE
  5
240
100
AcDbEntity
  8
0
 62
1
100
AcDbLine
 10
67.883543
 20
111.120741
 30
0.0
 11
73.017939
 21
116.254869
 31
0.0
  0
SPLINE
  5
241
100
AcDbEntity
  8
0
 62
5
100
AcDbSpline
 70
0
 71
3
 72
10
 73
6
 74
4
 40
0.000000
 40
0.000000
 40
0.000000
 40
0.000000
 40
0.058722
 40
0.469774
 40
1.585487
 40
1.585487
 40
1.585487
 40
1.585487
 10
73.241100
 20
140.672704
 30
0.0
 10
73.244724
 20
140.691940
 30
0.0
 10
73.273709
 20
140.845825
 30
0.0
 10
73.371533
 20
141.365189
 30
0.0
 10
73.465735
 20
141.865316
 30
0.0
 10
73.534575
 20
142.230794
 30
0.0
 11
73.241100
 21
140.672704
 31
0.0
 11
73.251970
 21
140.730411
 31
0.0
 11
73.328056
 21
141.134360
 31
0.0
 11
73.534575
 21
142.230794
 31
0.0
  0
LINE
  5
242
100
AcDbEntity
  8
0
 62
5
100
AcDbLine
 10
73.226337
 20
117.300350
 30
0.0
 11
79.600335
 21
123.674347
 31
0.0
  0
SPLINE
  5
243
100
AcDbEntity
  8
0
 62
5
100
AcDbSpline
 70
0
 71
3
 72
10
 73
6
 74
4
 40
0.000000
 40
0.000000
 40
0.000000
 40
0.000000
 40
1.112710
 40
1.522655
 40
1.581219
 40
1.581219
 40
1.581219
 40
1.581219
 10
73.525182
 20
115.747628
 30
0.0
 10
73.455083
 20
116.111847
 30
0.0
 10
73.359157
 20
116.610251
 30
0.0
 10
73.259542
 20
117.127825
 30
0.0
 10
73.230027
 20
117.281180
 30
0.0
 10
73.226337
 20
117.300350
 30
0.0
 11
73.525182
 21
115.747628
 31
0.0
 11
73.314884
 21
116.840284
 31
0.0
 11
73.237406
 21
117.242841
 31
0.0
 11
73.226337
 21
117.300350
 31
0.0
  0
LINE
  5
244
100
AcDbEntity
  8
0
 62
1
100
AcDbLine
 10
85.836136
 20
190.238467
 30
0.0
 11
67.900561
 21
208.174028
 31
0.0
  0
LINE
  5
245
100
AcDbEntity
  8
0
 62
5
100
AcDbLine
 10
69.037646
 20
185.737175
 30
0.0
 11
69.913161
 21
185.972061
 31
0.0
  0
LINE
  5
246
100
AcDbEntity
  8
0
 62
5
100
AcDbLine
 10
69.913161
 20
185.972061
 30
0.0
 11
70.043954
 21
185.483943
 31
0.0
  0
LINE
  5
247
100
AcDbEntity
  8
0
 62
5
100
AcDbLine
 10
70.043954
 20
185.483943
 30
0.0
 11
68.531458
 21
185.078672
 31
0.0
  0
SPLINE
  5
248
100
AcDbEntity
  8
0
 62
5
100
AcDbSpline
 70
0
 71
3
 72
10
 73
6
 74
4
 40
0.000000
 40
0.000000
 40
0.000000
 40
0.000000
 40
0.058722
 40
0.469774
 40
1.585488
 40
1.585488
 40
1.585488
 40
1.585488
 10
79.600335
 20
123.674347
 30
0.0
 10
79.619570
 20
123.670724
 30
0.0
 10
79.773456
 20
123.641738
 30
0.0
 10
80.292819
 20
123.543913
 30
0.0
 10
80.792946
 20
123.449710
 30
0.0
 10
81.158424
 20
123.380870
 30
0.0
 11
79.600335
 21
123.674347
 31
0.0
 11
79.658042
 21
123.663477
 31
0.0
 11
80.061991
 21
123.587391
 31
0.0
 11
81.158424
 21
123.380870
 31
0.0
  0
SPLINE
  5
249
100
AcDbEntity
  8
0
 62
5
100
AcDbSpline
 70
0
 71
3
 72
13
 73
9
 74
7
 40
0.000000
 40
0.000000
 40
0.000000
 40
0.000000
 40
0.569256
 40
1.881610
 40
3.413804
 40
3.835136
 40
4.400555
 40
4.909791
 40
4.909791
 40
4.909791
 40
4.909791
 10
68.531458
 20
185.078672
 30
0.0
 10
68.623986
 20
184.912713
 30
0.0
 10
68.929826
 20
184.364152
 30
0.0
 10
69.616954
 20
183.461534
 30
0.0
 10
70.438526
 20
182.684013
 30
0.0
 10
71.235274
 20
182.407436
 30
0.0
 10
71.720899
 20
182.284410
 30
0.0
 10
72.079671
 20
182.269012
 30
0.0
 10
72.249679
 20
182.261716
 30
0.0
 11
68.531458
 21
185.078672
 31
0.0
 11
68.815712
 21
184.585467
 31
0.0
 11
69.603149
 21
183.535601
 31
0.0
 11
70.795777
 21
182.573699
 31
0.0
 11
71.191195
 21
182.428215
 31
0.0
 11
71.741883
 21
182.299992
 31
0.0
 11
72.249679
 21
182.261716
 31
0.0
  0
LINE
  5
24a
100
AcDbEntity
  8
0
 62
5
100
AcDbLine
 10
78.958660
 20
187.872632
 30
0.0
 11
77.446178
 21
187.467361
 31
0.0
  0
LINE
  5
24b
100
AcDbEntity
  8
0
 62
5
100
AcDbLine
 10
77.446178
 20
187.467361
 30
0.0
 11
77.315308
 21
187.955764
 31
0.0
  0
LINE
  5
24c
100
AcDbEntity
  8
0
 62
5
100
AcDbLine
 10
77.315308
 20
187.955764
 30
0.0
 11
78.190971
 21
188.190104
 31
0.0
  0
LINE
  5
24d
100
AcDbEntity
  8
0
 62
5
100
AcDbLine
 10
69.037649
 20
185.737173
 30
0.0
 11
61.392480
 21
183.688849
 31
0.0
  0
LINE
  5
24e
100
AcDbEntity
  8
0
 62
5
100
AcDbLine
 10
85.836136
 20
190.238467
 30
0.0
 11
78.190965
 21
188.190144
 31
0.0
  0
LINE
  5
24f
100
AcDbEntity
  8
0
 62
1
100
AcDbLine
 10
71.770531
 20
186.469847
 30
0.0
 11
75.457950
 21
187.458082
 31
0.0
  0
LINE
  5
250
100
AcDbEntity
  8
0
 62
5
100
AcDbLine
 10
65.851879
 20
200.528959
 30
0.0
 11
65.617539
 21
199.653296
 31
0.0
  0
LINE
  5
251
100
AcDbEntity
  8
0
 62
5
100
AcDbLine
 10
65.617539
 20
199.653296
 30
0.0
 11
65.129421
 21
199.784087
 31
0.0
  0
LINE
  5
252
100
AcDbEntity
  8
0
 62
5
100
AcDbLine
 10
65.129421
 20
199.784087
 30
0.0
 11
65.534692
 21
201.296583
 31
0.0
  0
SPLINE
  5
253
100
AcDbEntity
  8
0
 62
5
100
AcDbSpline
 70
0
 71
3
 72
10
 73
6
 74
4
 40
0.000000
 40
0.000000
 40
0.000000
 40
0.000000
 40
0.591270
 40
0.858172
 40
0.939407
 40
0.939407
 40
0.939407
 40
0.939407
 10
79.104318
 20
186.981149
 30
0.0
 10
79.124454
 20
187.174528
 30
0.0
 10
79.153679
 20
187.455198
 30
0.0
 10
79.076284
 20
187.787784
 30
0.0
 10
78.980914
 20
187.856580
 30
0.0
 10
78.958660
 20
187.872632
 30
0.0
 11
79.104318
 21
186.981149
 31
0.0
 11
79.117290
 21
187.572277
 31
0.0
 11
79.021791
 21
187.821508
 31
0.0
 11
78.958660
 21
187.872632
 31
0.0
  0
LINE
  5
254
100
AcDbEntity
  8
0
 62
5
100
AcDbLine
 10
62.740732
 20
190.869381
 30
0.0
 11
63.146000
 21
192.381863
 31
0.0
  0
LINE
  5
255
100
AcDbEntity
  8
0
 62
5
100
AcDbLine
 10
63.146000
 20
192.381863
 30
0.0
 11
63.634400
 21
192.250997
 31
0.0
  0
LINE
  5
256
100
AcDbEntity
  8
0
 62
5
100
AcDbLine
 10
63.634400
 20
192.250997
 30
0.0
 11
63.399515
 21
191.375482
 31
0.0
  0
LINE
  5
257
100
AcDbEntity
  8
0
 62
5
100
AcDbLine
 10
65.851876
 20
200.528956
 30
0.0
 11
67.900561
 21
208.174028
 31
0.0
  0
LINE
  5
258
100
AcDbEntity
  8
0
 62
5
100
AcDbLine
 10
61.350866
 20
183.730395
 30
0.0
 11
63.399554
 21
191.375467
 31
0.0
  0
LINE
  5
259
100
AcDbEntity
  8
0
 62
1
100
AcDbLine
 10
65.119950
 20
197.795873
 30
0.0
 11
64.132076
 21
194.108358
 31
0.0
  0
LINE
  5
25a
100
AcDbEntity
  8
0
 62
5
100
AcDbLine
 10
67.900717
 20
172.214642
 30
0.0
 11
67.872748
 21
179.243406
 31
0.0
  0
LINE
  5
25b
100
AcDbEntity
  8
0
 62
5
100
AcDbLine
 10
67.872748
 20
179.243406
 30
0.0
 11
63.578348
 21
183.537804
 31
0.0
  0
LINE
  5
25c
100
AcDbEntity
  8
0
 62
5
100
AcDbLine
 10
63.578348
 20
183.537804
 30
0.0
 11
60.934103
 21
183.193365
 31
0.0
  0
LINE
  5
25d
100
AcDbEntity
  8
0
 62
5
100
AcDbLine
 10
60.934103
 20
183.193365
 30
0.0
 11
61.199059
 21
185.917095
 31
0.0
  0
LINE
  5
25e
100
AcDbEntity
  8
0
 62
5
100
AcDbLine
 10
61.199059
 20
185.917095
 30
0.0
 11
57.035486
 21
190.080666
 31
0.0
  0
LINE
  5
25f
100
AcDbEntity
  8
0
 62
5
100
AcDbLine
 10
57.035486
 20
190.080666
 30
0.0
 11
50.006724
 21
190.108634
 31
0.0
  0
LINE
  5
260
100
AcDbEntity
  8
0
 62
1
100
AcDbLine
 10
62.774096
 20
177.340994
 30
0.0
 11
67.900717
 21
172.214642
 31
0.0
  0
LINE
  5
261
100
AcDbEntity
  8
0
 62
1
100
AcDbLine
 10
50.006724
 20
190.108634
 30
0.0
 11
55.140852
 21
184.974238
 31
0.0
  0
SPLINE
  5
262
100
AcDbEntity
  8
0
 62
5
100
AcDbSpline
 70
0
 71
3
 72
16
 73
12
 74
10
 40
0.000000
 40
0.000000
 40
0.000000
 40
0.000000
 40
0.594052
 40
1.926274
 40
3.438883
 40
6.074692
 40
8.833683
 40
11.469467
 40
12.982642
 40
14.315438
 40
14.909670
 40
14.909670
 40
14.909670
 40
14.909670
 10
65.534692
 20
201.296583
 30
0.0
 10
65.337074
 20
201.308930
 30
0.0
 10
64.696275
 20
201.348966
 30
0.0
 10
63.542377
 20
201.253655
 30
0.0
 10
61.818804
 20
200.487736
 30
0.0
 10
60.513232
 20
198.436260
 30
0.0
 10
59.822909
 20
195.860473
 30
0.0
 10
59.928243
 20
193.430957
 30
0.0
 10
61.037601
 20
191.905374
 30
0.0
 10
61.988726
 20
191.244487
 30
0.0
 10
62.563493
 20
190.957789
 30
0.0
 10
62.740732
 20
190.869381
 30
0.0
 11
65.534692
 21
201.296583
 31
0.0
 11
64.941308
 21
201.324739
 31
0.0
 11
63.616044
 21
201.188759
 31
0.0
 11
62.241235
 21
200.557977
 31
0.0
 11
60.669222
 21
198.442258
 31
0.0
 11
59.955126
 21
195.777282
 31
0.0
 11
60.258698
 21
193.159039
 31
0.0
 11
61.133722
 21
191.924522
 31
0.0
 11
62.213008
 21
191.142545
 31
0.0
 11
62.740732
 21
190.869381
 31
0.0
  0
LINE
  5
263
100
AcDbEntity
  8
0
 62
5
100
AcDbLine
 10
56.186335
 20
184.765840
 30
0.0
 11
62.560333
 21
178.391843
 31
0.0
  0
SPLINE
  5
264
100
AcDbEntity
  8
0
 62
5
100
AcDbSpline
 70
0
 71
3
 72
10
 73
6
 74
4
 40
0.000000
 40
0.000000
 40
0.000000
 40
0.000000
 40
1.112710
 40
1.522655
 40
1.581219
 40
1.581219
 40
1.581219
 40
1.581219
 10
54.633614
 20
184.466995
 30
0.0
 10
54.997832
 20
184.537094
 30
0.0
 10
55.496237
 20
184.633020
 30
0.0
 10
56.013811
 20
184.732635
 30
0.0
 10
56.167166
 20
184.762150
 30
0.0
 10
56.186335
 20
184.765840
 30
0.0
 11
54.633614
 21
184.466995
 31
0.0
 11
55.726270
 21
184.677293
 31
0.0
 11
56.128827
 21
184.754772
 31
0.0
 11
56.186335
 21
184.765840
 31
0.0
  0
LINE
  5
265
100
AcDbEntity
  8
0
 62
1
100
AcDbLine
 10
85.807304
 20
67.749530
 30
0.0
 11
67.871729
 21
49.813969
 31
0.0
  0
LINE
  5
266
100
AcDbEntity
  8
0
 62
5
100
AcDbLine
 10
69.008814
 20
72.250822
 30
0.0
 11
69.884330
 21
72.015937
 31
0.0
  0
LINE
  5
267
100
AcDbEntity
  8
0
 62
5
100
AcDbLine
 10
69.884330
 20
72.015937
 30
0.0
 11
70.015123
 21
72.504054
 31
0.0
  0
LINE
  5
268
100
AcDbEntity
  8
0
 62
5
100
AcDbLine
 10
70.015123
 20
72.504054
 30
0.0
 11
68.502626
 21
72.909326
 31
0.0
  0
SPLINE
  5
269
100
AcDbEntity
  8
0
 62
5
100
AcDbSpline
 70
0
 71
3
 72
10
 73
6
 74
4
 40
0.000000
 40
0.000000
 40
0.000000
 40
0.000000
 40
0.058722
 40
0.469774
 40
1.585488
 40
1.585488
 40
1.585488
 40
1.585488
 10
62.560333
 20
178.391843
 30
0.0
 10
62.556709
 20
178.372607
 30
0.0
 10
62.527724
 20
178.218722
 30
0.0
 10
62.429898
 20
177.699358
 30
0.0
 10
62.335696
 20
177.199231
 30
0.0
 10
62.266855
 20
176.833753
 30
0.0
 11
62.560333
 21
178.391843
 31
0.0
 11
62.549463
 21
178.334136
 31
0.0
 11
62.473376
 21
177.930186
 31
0.0
 11
62.266855
 21
176.833753
 31
0.0
  0
SPLINE
  5
26a
100
AcDbEntity
  8
0
 62
5
100
AcDbSpline
 70
0
 71
3
 72
13
 73
9
 74
7
 40
0.000000
 40
0.000000
 40
0.000000
 40
0.000000
 40
0.569256
 40
1.881610
 40
3.413804
 40
3.835136
 40
4.400555
 40
4.909791
 40
4.909791
 40
4.909791
 40
4.909791
 10
68.502626
 20
72.909326
 30
0.0
 10
68.595154
 20
73.075285
 30
0.0
 10
68.900994
 20
73.623845
 30
0.0
 10
69.588122
 20
74.526463
 30
0.0
 10
70.409694
 20
75.303984
 30
0.0
 10
71.206442
 20
75.580561
 30
0.0
 10
71.692068
 20
75.703587
 30
0.0
 10
72.050839
 20
75.718985
 30
0.0
 10
72.220847
 20
75.726282
 30
0.0
 11
68.502626
 21
72.909326
 31
0.0
 11
68.786881
 21
73.402531
 31
0.0
 11
69.574317
 21
74.452396
 31
0.0
 11
70.766946
 21
75.414299
 31
0.0
 11
71.162363
 21
75.559782
 31
0.0
 11
71.713051
 21
75.688005
 31
0.0
 11
72.220847
 21
75.726282
 31
0.0
  0
LINE
  5
26b
100
AcDbEntity
  8
0
 62
5
100
AcDbLine
 10
78.929828
 20
70.115365
 30
0.0
 11
77.417346
 21
70.520636
 31
0.0
  0
LINE
  5
26c
100
AcDbEntity
  8
0
 62
5
100
AcDbLine
 10
77.417346
 20
70.520636
 30
0.0
 11
77.286477
 21
70.032234
 31
0.0
  0
LINE
  5
26d
100
AcDbEntity
  8
0
 62
5
100
AcDbLine
 10
77.286477
 20
70.032234
 30
0.0
 11
78.162139
 21
69.797893
 31
0.0
  0
LINE
  5
26e
100
AcDbEntity
  8
0
 62
5
100
AcDbLine
 10
69.008817
 20
72.250825
 30
0.0
 11
61.363648
 21
74.299149
 31
0.0
  0
LINE
  5
26f
100
AcDbEntity
  8
0
 62
5
100
AcDbLine
 10
85.807304
 20
67.749530
 30
0.0
 11
78.162133
 21
69.797854
 31
0.0
  0
LINE
  5
270
100
AcDbEntity
  8
0
 62
1
100
AcDbLine
 10
71.741699
 20
71.518151
 30
0.0
 11
75.429118
 21
70.529916
 31
0.0
  0
LINE
  5
271
100
AcDbEntity
  8
0
 62
5
100
AcDbLine
 10
65.822246
 20
57.358638
 30
0.0
 11
65.587905
 21
58.234301
 31
0.0
  0
LINE
  5
272
100
AcDbEntity
  8
0
 62
5
100
AcDbLine
 10
65.587905
 20
58.234301
 30
0.0
 11
65.099788
 21
58.103510
 31
0.0
  0
LINE
  5
273
100
AcDbEntity
  8
0
 62
5
100
AcDbLine
 10
65.099788
 20
58.103510
 30
0.0
 11
65.505059
 21
56.591014
 31
0.0
  0
SPLINE
  5
274
100
AcDbEntity
  8
0
 62
5
100
AcDbSpline
 70
0
 71
3
 72
10
 73
6
 74
4
 40
0.000000
 40
0.000000
 40
0.000000
 40
0.000000
 40
0.591270
 40
0.858172
 40
0.939407
 40
0.939407
 40
0.939407
 40
0.939407
 10
79.075486
 20
71.006849
 30
0.0
 10
79.095622
 20
70.813470
 30
0.0
 10
79.124848
 20
70.532799
 30
0.0
 10
79.047452
 20
70.200214
 30
0.0
 10
78.952082
 20
70.131418
 30
0.0
 10
78.929828
 20
70.115365
 30
0.0
 11
79.075486
 21
71.006849
 31
0.0
 11
79.088458
 21
70.415721
 31
0.0
 11
78.992959
 21
70.166489
 31
0.0
 11
78.929828
 21
70.115365
 31
0.0
  0
LINE
  5
275
100
AcDbEntity
  8
0
 62
5
100
AcDbLine
 10
62.711099
 20
67.018216
 30
0.0
 11
63.116367
 21
65.505734
 31
0.0
  0
LINE
  5
276
100
AcDbEntity
  8
0
 62
5
100
AcDbLine
 10
63.116367
 20
65.505734
 30
0.0
 11
63.604767
 21
65.636600
 31
0.0
  0
LINE
  5
277
100
AcDbEntity
  8
0
 62
5
100
AcDbLine
 10
63.604767
 20
65.636600
 30
0.0
 11
63.369881
 21
66.512115
 31
0.0
  0
LINE
  5
278
100
AcDbEntity
  8
0
 62
5
100
AcDbLine
 10
65.822243
 20
57.358641
 30
0.0
 11
67.870928
 21
49.713569
 31
0.0
  0
LINE
  5
279
100
AcDbEntity
  8
0
 62
5
100
AcDbLine
 10
61.321233
 20
74.157202
 30
0.0
 11
63.369921
 21
66.512130
 31
0.0
  0
LINE
  5
27a
100
AcDbEntity
  8
0
 62
1
100
AcDbLine
 10
65.090317
 20
60.091724
 30
0.0
 11
64.102443
 21
63.779239
 31
0.0
  0
LINE
  5
27b
100
AcDbEntity
  8
0
 62
5
100
AcDbLine
 10
82.281604
 20
71.144525
 30
0.0
 11
80.827457
 21
69.704083
 31
0.0
  0
LINE
  5
27c
100
AcDbEntity
  8
0
 62
5
100
AcDbLine
 10
80.827457
 20
69.704083
 30
0.0
 11
67.940360
 21
78.544070
 31
0.0
  0
LINE
  5
27d
100
AcDbEntity
  8
0
 62
5
100
AcDbLine
 10
67.940360
 20
78.544070
 30
0.0
 11
67.912392
 21
85.572834
 31
0.0
  0
LINE
  5
27e
100
AcDbEntity
  8
0
 62
1
100
AcDbLine
 10
67.912395
 20
85.572834
 30
0.0
 11
73.046790
 21
80.438704
 31
0.0
  0
SPLINE
  5
27f
100
AcDbEntity
  8
0
 62
5
100
AcDbSpline
 70
0
 71
3
 72
16
 73
12
 74
10
 40
0.000000
 40
0.000000
 40
0.000000
 40
0.000000
 40
0.594052
 40
1.926274
 40
3.438883
 40
6.074692
 40
8.833683
 40
11.469467
 40
12.982642
 40
14.315438
 40
14.909670
 40
14.909670
 40
14.909670
 40
14.909670
 10
65.505059
 20
56.591014
 30
0.0
 10
65.307440
 20
56.578667
 30
0.0
 10
64.666641
 20
56.538631
 30
0.0
 10
63.512744
 20
56.633942
 30
0.0
 10
61.789171
 20
57.399861
 30
0.0
 10
60.483599
 20
59.451337
 30
0.0
 10
59.793276
 20
62.027124
 30
0.0
 10
59.898610
 20
64.456640
 30
0.0
 10
61.007968
 20
65.982223
 30
0.0
 10
61.959093
 20
66.643110
 30
0.0
 10
62.533860
 20
66.929808
 30
0.0
 10
62.711099
 20
67.018216
 30
0.0
 11
65.505059
 21
56.591014
 31
0.0
 11
64.911675
 21
56.562858
 31
0.0
 11
63.586411
 21
56.698838
 31
0.0
 11
62.211602
 21
57.329620
 31
0.0
 11
60.639589
 21
59.445339
 31
0.0
 11
59.925492
 21
62.110315
 31
0.0
 11
60.229064
 21
64.728558
 31
0.0
 11
61.104088
 21
65.963075
 31
0.0
 11
62.183375
 21
66.745052
 31
0.0
 11
62.711099
 21
67.018216
 31
0.0
  0
LINE
  5
280
100
AcDbEntity
  8
0
 62
5
100
AcDbLine
 10
73.255186
 20
79.393226
 30
0.0
 11
79.629183
 21
73.019229
 31
0.0
  0
SPLINE
  5
281
100
AcDbEntity
  8
0
 62
5
100
AcDbSpline
 70
0
 71
3
 72
10
 73
6
 74
4
 40
0.000000
 40
0.000000
 40
0.000000
 40
0.000000
 40
1.112708
 40
1.522653
 40
1.581216
 40
1.581216
 40
1.581216
 40
1.581216
 10
73.554031
 20
80.945945
 30
0.0
 10
73.483932
 20
80.581727
 30
0.0
 10
73.388006
 20
80.083323
 30
0.0
 10
73.288391
 20
79.565750
 30
0.0
 10
73.258876
 20
79.412395
 30
0.0
 10
73.255186
 20
79.393226
 30
0.0
 11
73.554031
 21
80.945945
 31
0.0
 11
73.343733
 21
79.853291
 31
0.0
 11
73.266254
 21
79.450734
 31
0.0
 11
73.255186
 21
79.393226
 31
0.0
  0
LINE
  5
282
100
AcDbEntity
  8
0
 62
5
100
AcDbLine
 10
6.735525
 20
146.808436
 30
0.0
 11
6.763490
 21
139.779674
 31
0.0
  0
LINE
  5
283
100
AcDbEntity
  8
0
 62
5
100
AcDbLine
 10
6.763490
 20
139.779674
 30
0.0
 11
17.600752
 21
128.942411
 31
0.0
  0
LINE
  5
284
100
AcDbEntity
  8
0
 62
5
100
AcDbLine
 10
17.600752
 20
128.942411
 30
0.0
 11
24.629514
 21
128.914443
 31
0.0
  0
LINE
  5
285
100
AcDbEntity
  8
0
 62
1
100
AcDbLine
 10
11.862145
 20
141.682083
 30
0.0
 11
6.735526
 21
146.808436
 31
0.0
  0
LINE
  5
286
100
AcDbEntity
  8
0
 62
1
100
AcDbLine
 10
24.629515
 20
128.914446
 30
0.0
 11
19.495386
 21
134.048841
 31
0.0
  0
SPLINE
  5
287
100
AcDbEntity
  8
0
 62
5
100
AcDbSpline
 70
0
 71
3
 72
10
 73
6
 74
4
 40
0.000000
 40
0.000000
 40
0.000000
 40
0.000000
 40
0.058722
 40
0.469774
 40
1.585487
 40
1.585487
 40
1.585487
 40
1.585487
 10
79.629183
 20
73.019229
 30
0.0
 10
79.648419
 20
73.022852
 30
0.0
 10
79.802305
 20
73.051837
 30
0.0
 10
80.321668
 20
73.149662
 30
0.0
 10
80.821795
 20
73.243863
 30
0.0
 10
81.187273
 20
73.312703
 30
0.0
 11
79.629183
 21
73.019229
 31
0.0
 11
79.686890
 21
73.030098
 31
0.0
 11
80.090840
 21
73.106184
 31
0.0
 11
81.187273
 21
73.312703
 31
0.0
  0
LINE
  5
288
100
AcDbEntity
  8
0
 62
5
100
AcDbLine
 10
18.449907
 20
134.257237
 30
0.0
 11
12.075909
 21
140.631235
 31
0.0
  0
SPLINE
  5
289
100
AcDbEntity
  8
0
 62
5
100
AcDbSpline
 70
0
 71
3
 72
10
 73
6
 74
4
 40
0.000000
 40
0.000000
 40
0.000000
 40
0.000000
 40
1.112709
 40
1.522654
 40
1.581218
 40
1.581218
 40
1.581218
 40
1.581218
 10
20.002628
 20
134.556082
 30
0.0
 10
19.638409
 20
134.485983
 30
0.0
 10
19.140005
 20
134.390057
 30
0.0
 10
18.622432
 20
134.290442
 30
0.0
 10
18.469077
 20
134.260927
 30
0.0
 10
18.449907
 20
134.257237
 30
0.0
 11
20.002628
 21
134.556082
 31
0.0
 11
18.909973
 21
134.345784
 31
0.0
 11
18.507415
 21
134.268306
 31
0.0
 11
18.449907
 21
134.257237
 31
0.0
  0
LINE
  5
28a
100
AcDbEntity
  8
0
 62
5
100
AcDbLine
 10
6.735566
 20
172.114357
 30
0.0
 11
6.763531
 21
179.143118
 31
0.0
  0
LINE
  5
28b
100
AcDbEntity
  8
0
 62
5
100
AcDbLine
 10
6.763531
 20
179.143118
 30
0.0
 11
17.600793
 21
189.980381
 31
0.0
  0
LINE
  5
28c
100
AcDbEntity
  8
0
 62
5
100
AcDbLine
 10
17.600793
 20
189.980381
 30
0.0
 11
24.629555
 21
190.008349
 31
0.0
  0
LINE
  5
28d
100
AcDbEntity
  8
0
 62
1
100
AcDbLine
 10
11.862186
 20
177.240709
 30
0.0
 11
6.735567
 21
172.114357
 31
0.0
  0
LINE
  5
28e
100
AcDbEntity
  8
0
 62
1
100
AcDbLine
 10
24.629556
 20
190.008346
 30
0.0
 11
19.495427
 21
184.873951
 31
0.0
  0
SPLINE
  5
28f
100
AcDbEntity
  8
0
 62
5
100
AcDbSpline
 70
0
 71
3
 72
10
 73
6
 74
4
 40
0.000000
 40
0.000000
 40
0.000000
 40
0.000000
 40
0.058722
 40
0.469774
 40
1.585488
 40
1.585488
 40
1.585488
 40
1.585488
 10
12.075909
 20
140.631235
 30
0.0
 10
12.079532
 20
140.650470
 30
0.0
 10
12.108518
 20
140.804356
 30
0.0
 10
12.206343
 20
141.323719
 30
0.0
 10
12.300546
 20
141.823846
 30
0.0
 10
12.369386
 20
142.189324
 30
0.0
 11
12.075909
 21
140.631235
 31
0.0
 11
12.086779
 21
140.688942
 31
0.0
 11
12.162865
 21
141.092891
 31
0.0
 11
12.369386
 21
142.189324
 31
0.0
  0
LINE
  5
290
100
AcDbEntity
  8
0
 62
5
100
AcDbLine
 10
18.449948
 20
184.665555
 30
0.0
 11
12.075950
 21
178.291558
 31
0.0
  0
SPLINE
  5
291
100
AcDbEntity
  8
0
 62
5
100
AcDbSpline
 70
0
 71
3
 72
10
 73
6
 74
4
 40
0.000000
 40
0.000000
 40
0.000000
 40
0.000000
 40
1.112709
 40
1.522654
 40
1.581218
 40
1.581218
 40
1.581218
 40
1.581218
 10
20.002669
 20
184.366710
 30
0.0
 10
19.638450
 20
184.436809
 30
0.0
 10
19.140046
 20
184.532735
 30
0.0
 10
18.622473
 20
184.632350
 30
0.0
 10
18.469118
 20
184.661866
 30
0.0
 10
18.449948
 20
184.665555
 30
0.0
 11
20.002669
 21
184.366710
 31
0.0
 11
18.910014
 21
184.577008
 31
0.0
 11
18.507456
 21
184.654487
 31
0.0
 11
18.449948
 21
184.665555
 31
0.0
  0
LINE
  5
292
100
AcDbEntity
  8
0
 62
1
100
AcDbLine
 10
85.836179
 20
251.415530
 30
0.0
 11
67.900604
 21
233.479969
 31
0.0
  0
LINE
  5
293
100
AcDbEntity
  8
0
 62
5
100
AcDbLine
 10
65.851919
 20
241.125039
 30
0.0
 11
65.617578
 21
242.000701
 31
0.0
  0
LINE
  5
294
100
AcDbEntity
  8
0
 62
5
100
AcDbLine
 10
65.617578
 20
242.000701
 30
0.0
 11
65.129461
 21
241.869911
 31
0.0
  0
LINE
  5
295
100
AcDbEntity
  8
0
 62
5
100
AcDbLine
 10
65.129461
 20
241.869911
 30
0.0
 11
65.534732
 21
240.357414
 31
0.0
  0
SPLINE
  5
296
100
AcDbEntity
  8
0
 62
5
100
AcDbSpline
 70
0
 71
3
 72
10
 73
6
 74
4
 40
0.000000
 40
0.000000
 40
0.000000
 40
0.000000
 40
0.058722
 40
0.469774
 40
1.585488
 40
1.585488
 40
1.585488
 40
1.585488
 10
12.075950
 20
178.291558
 30
0.0
 10
12.079573
 20
178.272322
 30
0.0
 10
12.108559
 20
178.118437
 30
0.0
 10
12.206384
 20
177.599073
 30
0.0
 10
12.300586
 20
177.098946
 30
0.0
 10
12.369427
 20
176.733468
 30
0.0
 11
12.075950
 21
178.291558
 31
0.0
 11
12.086820
 21
178.233851
 31
0.0
 11
12.162906
 21
177.829902
 31
0.0
 11
12.369427
 21
176.733468
 31
0.0
  0
LINE
  5
297
100
AcDbEntity
  8
0
 62
5
100
AcDbLine
 10
62.740771
 20
250.784617
 30
0.0
 11
63.146040
 21
249.272134
 31
0.0
  0
LINE
  5
298
100
AcDbEntity
  8
0
 62
5
100
AcDbLine
 10
63.146040
 20
249.272134
 30
0.0
 11
63.634439
 21
249.403001
 31
0.0
  0
LINE
  5
299
100
AcDbEntity
  8
0
 62
5
100
AcDbLine
 10
63.634439
 20
249.403001
 30
0.0
 11
63.399554
 21
250.278516
 31
0.0
  0
LINE
  5
29a
100
AcDbEntity
  8
0
 62
5
100
AcDbLine
 10
65.851916
 20
241.125042
 30
0.0
 11
67.900601
 21
233.479969
 31
0.0
  0
LINE
  5
29b
100
AcDbEntity
  8
0
 62
5
100
AcDbLine
 10
61.350906
 20
257.923603
 30
0.0
 11
63.399594
 21
250.278530
 31
0.0
  0
LINE
  5
29c
100
AcDbEntity
  8
0
 62
1
100
AcDbLine
 10
65.119989
 20
243.858124
 30
0.0
 11
64.132116
 21
247.545640
 31
0.0
  0
LINE
  5
29d
100
AcDbEntity
  8
0
 62
5
100
AcDbLine
 10
68.996072
 20
255.875279
 30
0.0
 11
69.871587
 21
255.640394
 31
0.0
  0
LINE
  5
29e
100
AcDbEntity
  8
0
 62
5
100
AcDbLine
 10
69.871587
 20
255.640394
 30
0.0
 11
70.002380
 21
256.128512
 31
0.0
  0
LINE
  5
29f
100
AcDbEntity
  8
0
 62
5
100
AcDbLine
 10
70.002380
 20
256.128512
 30
0.0
 11
68.489884
 21
256.533784
 31
0.0
  0
SPLINE
  5
2a0
100
AcDbEntity
  8
0
 62
5
100
AcDbSpline
 70
0
 71
3
 72
16
 73
12
 74
10
 40
0.000000
 40
0.000000
 40
0.000000
 40
0.000000
 40
0.594052
 40
1.926274
 40
3.438883
 40
6.074692
 40
8.833683
 40
11.469467
 40
12.982642
 40
14.315438
 40
14.909670
 40
14.909670
 40
14.909670
 40
14.909670
 10
65.534732
 20
240.357414
 30
0.0
 10
65.337113
 20
240.345068
 30
0.0
 10
64.696314
 20
240.305031
 30
0.0
 10
63.542417
 20
240.400343
 30
0.0
 10
61.818844
 20
241.166261
 30
0.0
 10
60.513272
 20
243.217738
 30
0.0
 10
59.822949
 20
245.793525
 30
0.0
 10
59.928283
 20
248.223041
 30
0.0
 10
61.037641
 20
249.748623
 30
0.0
 10
61.988766
 20
250.409511
 30
0.0
 10
62.563533
 20
250.696209
 30
0.0
 10
62.740771
 20
250.784617
 30
0.0
 11
65.534732
 21
240.357414
 31
0.0
 11
64.941347
 21
240.329259
 31
0.0
 11
63.616084
 21
240.465238
 31
0.0
 11
62.241275
 21
241.096021
 31
0.0
 11
60.669262
 21
243.211740
 31
0.0
 11
59.955165
 21
245.876716
 31
0.0
 11
60.258737
 21
248.494959
 31
0.0
 11
61.133761
 21
249.729476
 31
0.0
 11
62.213048
 21
250.511453
 31
0.0
 11
62.740771
 21
250.784617
 31
0.0
  0
LINE
  5
2a1
100
AcDbEntity
  8
0
 62
5
100
AcDbLine
 10
78.917086
 20
253.739824
 30
0.0
 11
77.404603
 21
254.145092
 31
0.0
  0
LINE
  5
2a2
100
AcDbEntity
  8
0
 62
5
100
AcDbLine
 10
77.404603
 20
254.145092
 30
0.0
 11
77.273734
 21
253.656692
 31
0.0
  0
LINE
  5
2a3
100
AcDbEntity
  8
0
 62
5
100
AcDbLine
 10
77.273734
 20
253.656692
 30
0.0
 11
78.149396
 21
253.422351
 31
0.0
  0
LINE
  5
2a4
100
AcDbEntity
  8
0
 62
5
100
AcDbLine
 10
68.996075
 20
255.875282
 30
0.0
 11
61.350906
 21
257.923605
 31
0.0
  0
LINE
  5
2a5
100
AcDbEntity
  8
0
 62
5
100
AcDbLine
 10
85.794562
 20
251.373989
 30
0.0
 11
78.149391
 21
253.422311
 31
0.0
  0
LINE
  5
2a6
100
AcDbEntity
  8
0
 62
1
100
AcDbLine
 10
71.728957
 20
255.142608
 30
0.0
 11
75.416376
 21
254.154372
 31
0.0
  0
LINE
  5
2a7
100
AcDbEntity
  8
0
 62
5
100
AcDbLine
 10
67.900869
 20
24.407498
 30
0.0
 11
67.928837
 21
17.378736
 31
0.0
  0
LINE
  5
2a8
100
AcDbEntity
  8
0
 62
5
100
AcDbLine
 10
67.928837
 20
17.378736
 30
0.0
 11
78.766097
 21
6.541474
 31
0.0
  0
LINE
  5
2a9
100
AcDbEntity
  8
0
 62
5
100
AcDbLine
 10
78.766097
 20
6.541474
 30
0.0
 11
85.794861
 21
6.513505
 31
0.0
  0
LINE
  5
2aa
100
AcDbEntity
  8
0
 62
1
100
AcDbLine
 10
73.027489
 20
19.281146
 30
0.0
 11
67.900872
 21
24.407498
 31
0.0
  0
LINE
  5
2ab
100
AcDbEntity
  8
0
 62
1
100
AcDbLine
 10
85.794861
 20
6.513508
 30
0.0
 11
80.660731
 21
11.647904
 31
0.0
  0
SPLINE
  5
2ac
100
AcDbEntity
  8
0
 62
5
100
AcDbSpline
 70
0
 71
3
 72
16
 73
12
 74
10
 40
0.000000
 40
0.000000
 40
0.000000
 40
0.000000
 40
0.594052
 40
1.926273
 40
3.438881
 40
6.074691
 40
8.833683
 40
11.469465
 40
12.982641
 40
14.315439
 40
14.909670
 40
14.909670
 40
14.909670
 40
14.909670
 10
68.489884
 20
256.533784
 30
0.0
 10
68.578000
 20
256.711101
 30
0.0
 10
68.863727
 20
257.286067
 30
0.0
 10
69.523216
 20
258.237716
 30
0.0
 10
71.048308
 20
259.347414
 30
0.0
 10
73.477725
 20
259.452334
 30
0.0
 10
76.053583
 20
258.762278
 30
0.0
 10
78.104939
 20
257.456299
 30
0.0
 10
78.871454
 20
255.732776
 30
0.0
 10
78.968237
 20
254.578633
 30
0.0
 10
78.929142
 20
253.937521
 30
0.0
 10
78.917086
 20
253.739824
 30
0.0
 11
68.489884
 21
256.533784
 31
0.0
 11
68.762192
 21
257.061748
 31
0.0
 11
69.542584
 21
258.141471
 31
0.0
 11
70.776262
 21
259.016698
 31
0.0
 11
73.394535
 21
259.320242
 31
0.0
 11
76.059521
 21
258.606180
 31
0.0
 11
78.175200
 21
257.034158
 31
0.0
 11
78.806812
 21
255.659106
 31
0.0
 11
78.944381
 21
254.333428
 31
0.0
 11
78.917086
 21
253.739824
 31
0.0
  0
LINE
  5
2ad
100
AcDbEntity
  8
0
 62
5
100
AcDbLine
 10
79.615253
 20
11.856299
 30
0.0
 11
73.241256
 21
18.230297
 31
0.0
  0
SPLINE
  5
2ae
100
AcDbEntity
  8
0
 62
5
100
AcDbSpline
 70
0
 71
3
 72
10
 73
6
 74
4
 40
0.000000
 40
0.000000
 40
0.000000
 40
0.000000
 40
1.112708
 40
1.522653
 40
1.581216
 40
1.581216
 40
1.581216
 40
1.581216
 10
81.167972
 20
12.155145
 30
0.0
 10
80.803754
 20
12.085045
 30
0.0
 10
80.305350
 20
11.989120
 30
0.0
 10
79.787777
 20
11.889505
 30
0.0
 10
79.634422
 20
11.859989
 30
0.0
 10
79.615253
 20
11.856299
 30
0.0
 11
81.167972
 21
12.155145
 31
0.0
 11
80.075318
 21
11.944846
 31
0.0
 11
79.672761
 21
11.867368
 31
0.0
 11
79.615253
 21
11.856299
 31
0.0
  0
LINE
  5
2af
100
AcDbEntity
  8
0
 62
1
100
AcDbLine
 10
73.027334
 20
141.723553
 30
0.0
 11
71.400032
 21
143.350056
 31
0.0
  0
LINE
  5
2b0
100
AcDbEntity
  8
0
 62
5
100
AcDbLine
 10
67.900714
 20
146.849905
 30
0.0
 11
71.400018
 21
143.350042
 31
0.0
  0
LINE
  5
2b1
100
AcDbEntity
  8
0
 62
1
100
AcDbLine
 10
123.951467
 20
141.823686
 30
0.0
 11
125.577970
 21
143.450987
 31
0.0
  0
LINE
  5
2b2
100
AcDbEntity
  8
0
 62
5
100
AcDbLine
 10
129.077819
 20
146.950306
 30
0.0
 11
125.577956
 21
143.451001
 31
0.0
  0
LINE
  5
2b3
100
AcDbEntity
  8
0
 62
1
100
AcDbLine
 10
116.268878
 20
185.124265
 30
0.0
 11
114.641576
 21
186.750768
 31
0.0
  0
LINE
  5
2b4
100
AcDbEntity
  8
0
 62
5
100
AcDbLine
 10
111.142258
 20
190.250617
 30
0.0
 11
114.641562
 21
186.750754
 31
0.0
  0
LINE
  5
2b5
100
AcDbEntity
  8
0
 62
5
100
AcDbLine
 10
82.269925
 20
186.642951
 30
0.0
 11
80.815778
 21
188.083393
 31
0.0
  0
LINE
  5
2b6
100
AcDbEntity
  8
0
 62
5
100
AcDbLine
 10
80.815778
 20
188.083393
 30
0.0
 11
67.928682
 21
179.243406
 31
0.0
  0
LINE
  5
2b7
100
AcDbEntity
  8
0
 62
5
100
AcDbLine
 10
67.928682
 20
179.243406
 30
0.0
 11
67.900714
 21
172.214642
 31
0.0
  0
LINE
  5
2b8
100
AcDbEntity
  8
0
 62
1
100
AcDbLine
 10
67.900717
 20
172.214642
 30
0.0
 11
73.035112
 21
177.348772
 31
0.0
  0
SPLINE
  5
2b9
100
AcDbEntity
  8
0
 62
5
100
AcDbSpline
 70
0
 71
3
 72
10
 73
6
 74
4
 40
0.000000
 40
0.000000
 40
0.000000
 40
0.000000
 40
0.058722
 40
0.469774
 40
1.585487
 40
1.585487
 40
1.585487
 40
1.585487
 10
73.241256
 20
18.230297
 30
0.0
 10
73.244879
 20
18.249533
 30
0.0
 10
73.273864
 20
18.403418
 30
0.0
 10
73.371689
 20
18.922781
 30
0.0
 10
73.465890
 20
19.422909
 30
0.0
 10
73.534730
 20
19.788386
 30
0.0
 11
73.241256
 21
18.230297
 31
0.0
 11
73.252125
 21
18.288004
 31
0.0
 11
73.328211
 21
18.691953
 31
0.0
 11
73.534730
 21
19.788386
 31
0.0
  0
LINE
  5
2ba
100
AcDbEntity
  8
0
 62
5
100
AcDbLine
 10
73.243508
 20
178.394250
 30
0.0
 11
79.617505
 21
184.768247
 31
0.0
  0
SPLINE
  5
2bb
100
AcDbEntity
  8
0
 62
5
100
AcDbSpline
 70
0
 71
3
 72
10
 73
6
 74
4
 40
0.000000
 40
0.000000
 40
0.000000
 40
0.000000
 40
1.112708
 40
1.522653
 40
1.581216
 40
1.581216
 40
1.581216
 40
1.581216
 10
73.542353
 20
176.841531
 30
0.0
 10
73.472253
 20
177.205749
 30
0.0
 10
73.376328
 20
177.704153
 30
0.0
 10
73.276713
 20
178.221726
 30
0.0
 10
73.247197
 20
178.375081
 30
0.0
 10
73.243508
 20
178.394250
 30
0.0
 11
73.542353
 21
176.841531
 31
0.0
 11
73.332054
 21
177.934185
 31
0.0
 11
73.254576
 21
178.336742
 31
0.0
 11
73.243508
 21
178.394250
 31
0.0
  0
LINE
  5
2bc
100
AcDbEntity
  8
0
 62
1
100
AcDbLine
 10
80.668472
 20
185.011726
 30
0.0
 11
82.294976
 21
186.639028
 31
0.0
  0
LINE
  5
2bd
100
AcDbEntity
  8
0
 62
5
100
AcDbLine
 10
85.794825
 20
190.138346
 30
0.0
 11
82.294961
 21
186.639042
 31
0.0
  0
LINE
  5
2be
100
AcDbEntity
  8
0
 62
1
100
AcDbLine
 10
116.298379
 20
72.876150
 30
0.0
 11
114.671876
 21
71.248849
 31
0.0
  0
LINE
  5
2bf
100
AcDbEntity
  8
0
 62
5
100
AcDbLine
 10
111.172027
 20
67.749530
 30
0.0
 11
114.671890
 21
71.248834
 31
0.0
  0
LINE
  5
2c0
100
AcDbEntity
  8
0
 62
1
100
AcDbLine
 10
80.680684
 20
72.875882
 30
0.0
 11
82.307986
 21
71.249379
 31
0.0
  0
LINE
  5
2c1
100
AcDbEntity
  8
0
 62
5
100
AcDbLine
 10
85.807304
 20
67.749516
 30
0.0
 11
82.308000
 21
71.249379
 31
0.0
  0
SPLINE
  5
2c2
100
AcDbEntity
  8
0
 62
5
100
AcDbSpline
 70
0
 71
3
 72
10
 73
6
 74
4
 40
0.000000
 40
0.000000
 40
0.000000
 40
0.000000
 40
0.058722
 40
0.469774
 40
1.585487
 40
1.585487
 40
1.585487
 40
1.585487
 10
79.617505
 20
184.768247
 30
0.0
 10
79.636741
 20
184.764624
 30
0.0
 10
79.790626
 20
184.735639
 30
0.0
 10
80.309989
 20
184.637814
 30
0.0
 10
80.810117
 20
184.543613
 30
0.0
 10
81.175595
 20
184.474773
 30
0.0
 11
79.617505
 21
184.768247
 31
0.0
 11
79.675212
 21
184.757378
 31
0.0
 11
80.079161
 21
184.681292
 31
0.0
 11
81.175595
 21
184.474773
 31
0.0
  0
ENDSEC
  0
SECTION
  2
OBJECTS
  0
DICTIONARY
  5
C
330
0
100
AcDbDictionary
  3
ACAD_GROUP
350
D
  3
ACAD_MLINESTYLE
350
17
  0
DICTIONARY
  5
D
330
C
100
AcDbDictionary
  0
DICTIONARY
  5
1A
330
C
100
AcDbDictionary
  0
DICTIONARY
  5
17
330
C
100
AcDbDictionary
  3
STANDARD
350
18
  0
DICTIONARY
  5
19
330
C
100
AcDbDictionary
  0
ENDSEC
  0
EOF
