999
DXF created by Inkscape
  0
SECTION
  2
HEADER
  9
$ACADVER
  1
AC1014
  9
$HANDSEED
  5
FFFF
  9
$MEASUREMENT
 70
     1
  0
ENDSEC
  0
SECTION
  2
TABLES
  0
TABLE
  2
VPORT
  5
8
330
0
100
AcDbSymbolTable
 70
     4
  0
VPORT
  5
2E
330
8
100
AcDbSymbolTableRecord
100
AcDbViewportTableRecord
  2
*ACTIVE
 70
     0
 10
0.0
 20
0.0
 11
1.0
 21
1.0
 12
210.0
 22
148.5
 13
0.0
 23
0.0
 14
10.0
 24
10.0
 15
10.0
 25
10.0
 16
0.0
 26
0.0
 36
1.0
 17
0.0
 27
0.0
 37
0.0
 40
341.0
 41
1.24
 42
50.0
 43
0.0
 44
0.0
 50
0.0
 51
0.0
 71
     0
 72
   100
 73
     1
 74
     3
 75
     0
 76
     0
 77
     0
 78
     0
  0
ENDTAB
  0
TABLE
  2
LTYPE
  5
5
330
0
100
AcDbSymbolTable
 70
     1
  0
LTYPE
  5
14
330
5
100
AcDbSymbolTableRecord
100
AcDbLinetypeTableRecord
  2
BYBLOCK
 70
     0
  3

 72
    65
 73
     0
 40
0.0
  0
LTYPE
  5
15
330
5
100
AcDbSymbolTableRecord
100
AcDbLinetypeTableRecord
  2
BYLAYER
 70
     0
  3

 72
    65
 73
     0
 40
0.0
  0
LTYPE
  5
16
330
5
100
AcDbSymbolTableRecord
100
AcDbLinetypeTableRecord
  2
CONTINUOUS
 70
     0
  3
Solid line
 72
    65
 73
     0
 40
0.0
  0
ENDTAB
  0
TABLE
  2
LAYER
  5
2
330
0
100
AcDbSymbolTable
 70
1
  0
LAYER
  5
10
330
2
100
AcDbSymbolTableRecord
100
AcDbLayerTableRecord
  2
0
 70
     0
 62
     7
  6
CONTINUOUS
  0
ENDTAB
  0
TABLE
  2
STYLE
  5
3
330
0
100
AcDbSymbolTable
 70
     1
  0
STYLE
  5
11
330
3
100
AcDbSymbolTableRecord
100
AcDbTextStyleTableRecord
  2
STANDARD
 70
     0
 40
0.0
 41
1.0
 50
0.0
 71
     0
 42
2.5
  3
txt
  4

  0
ENDTAB
  0
TABLE
  2
VIEW
  5
6
330
0
100
AcDbSymbolTable
 70
     0
  0
ENDTAB
  0
TABLE
  2
UCS
  5
7
330
0
100
AcDbSymbolTable
 70
     0
  0
ENDTAB
  0
TABLE
  2
APPID
  5
9
330
0
100
AcDbSymbolTable
 70
     2
  0
APPID
  5
12
330
9
100
AcDbSymbolTableRecord
100
AcDbRegAppTableRecord
  2
ACAD
 70
     0
  0
ENDTAB
  0
TABLE
  2
DIMSTYLE
  5
A
330
0
100
AcDbSymbolTable
 70
     1
  0
DIMSTYLE
105
27
330
A
100
AcDbSymbolTableRecord
100
AcDbDimStyleTableRecord
  2
ISO-25
 70
     0
  3

  4

  5

  6

  7

 40
1.0
 41
2.5
 42
0.625
 43
3.75
 44
1.25
 45
0.0
 46
0.0
 47
0.0
 48
0.0
140
2.5
141
2.5
142
0.0
143
0.03937007874016
144
1.0
145
0.0
146
1.0
147
0.625
 71
     0
 72
     0
 73
     0
 74
     0
 75
     0
 76
     0
 77
     1
 78
     8
170
     0
171
     3
172
     1
173
     0
174
     0
175
     0
176
     0
177
     0
178
     0
270
     2
271
     2
272
     2
273
     2
274
     3
340
11
275
     0
280
     0
281
     0
282
     0
283
     0
284
     8
285
     0
286
     0
287
     3
288
     0
  0
ENDTAB
  0
TABLE
  2
BLOCK_RECORD
  5
1
330
0
100
AcDbSymbolTable
 70
     1
  0
BLOCK_RECORD
  5
1F
330
1
100
AcDbSymbolTableRecord
100
AcDbBlockTableRecord
  2
*MODEL_SPACE
  0
BLOCK_RECORD
  5
1B
330
1
100
AcDbSymbolTableRecord
100
AcDbBlockTableRecord
  2
*PAPER_SPACE
  0
ENDTAB
  0
ENDSEC
  0
SECTION
  2
BLOCKS
  0
BLOCK
  5
20
330
1F
100
AcDbEntity
  8
0
100
AcDbBlockBegin
  2
*MODEL_SPACE
 70
     0
 10
0.0
 20
0.0
 30
0.0
  3
*MODEL_SPACE
  1

  0
ENDBLK
  5
21
330
1F
100
AcDbEntity
  8
0
100
AcDbBlockEnd
  0
BLOCK
  5
1C
330
1B
100
AcDbEntity
 67
     1
  8
0
100
AcDbBlockBegin
  2
*PAPER_SPACE
  1

  0
ENDBLK
  5
1D
330
1B
100
AcDbEntity
 67
     1
  8
0
100
AcDbBlockEnd
  0
ENDSEC
  0
SECTION
  2
ENTITIES
  0
LWPOLYLINE
  5
100
100
AcDbEntity
  8
0
 62
5
100
AcDbPolyline
 90
8
 70
0
 10
22.586866
 20
249.776018
 30
0.0
 10
2.893042
 20
251.336549
 30
0.0
 10
2.174308
 20
249.411754
 30
0.0
 10
-0.661389
 20
249.353345
 30
0.0
 10
-1.934331
 20
251.152856
 30
0.0
 10
-1.371650
 20
251.108268
 30
0.0
 10
-1.327063
 20
251.670948
 30
0.0
 10
-5.547169
 20
252.005348
 30
0.0
  0
LWPOLYLINE
  5
101
100
AcDbEntity
  8
0
 62
1
100
AcDbPolyline
 90
2
 70
0
 10
1.767680
 20
251.425723
 30
0.0
 10
-0.201702
 20
251.581775
 30
0.0
  0
LWPOLYLINE
  5
102
100
AcDbEntity
  8
0
 62
5
100
AcDbPolyline
 90
7
 70
0
 10
-5.233522
 20
245.030364
 30
0.0
 10
-5.151657
 20
247.907309
 30
0.0
 10
-2.322166
 20
248.103648
 30
0.0
 10
-0.877171
 20
246.346039
 30
0.0
 10
-1.433578
 20
246.251130
 30
0.0
 10
-1.338670
 20
245.694723
 30
0.0
 10
22.586848
 20
249.775792
 30
0.0
  0
LWPOLYLINE
  5
103
100
AcDbEntity
  8
0
 62
1
100
AcDbPolyline
 90
2
 70
0
 10
-4.120707
 20
245.220181
 30
0.0
 10
-2.451485
 20
245.504906
 30
0.0
  0
SPLINE
  5
104
100
AcDbEntity
  8
0
 62
5
100
AcDbSpline
 70
0
 71
3
 72
10
 73
6
 74
4
 40
0.000000
 40
0.000000
 40
0.000000
 40
0.000000
 40
0.826910
 40
2.725065
 40
4.979467
 40
4.979467
 40
4.979467
 40
4.979467
 10
-2.639581
 20
234.745839
 30
0.0
 10
-2.881175
 20
234.614013
 30
0.0
 10
-3.677344
 20
234.179583
 30
0.0
 10
-5.043984
 20
233.175568
 30
0.0
 10
-5.742221
 20
231.962863
 30
0.0
 10
-6.121290
 20
231.304492
 30
0.0
 11
-2.639581
 21
234.745839
 31
0.0
 11
-3.359919
 21
234.339769
 31
0.0
 11
-4.853971
 21
233.168956
 31
0.0
 11
-6.121290
 21
231.304492
 31
0.0
  0
SPLINE
  5
105
100
AcDbEntity
  8
0
 62
5
100
AcDbSpline
 70
0
 71
3
 72
10
 73
6
 74
4
 40
0.000000
 40
0.000000
 40
0.000000
 40
0.000000
 40
3.779822
 40
7.752995
 40
11.532817
 40
11.532817
 40
11.532817
 40
11.532817
 10
-6.121290
 20
231.304492
 30
0.0
 10
-6.322316
 20
230.049745
 30
0.0
 10
-6.734650
 20
227.476066
 30
0.0
 10
-5.476440
 20
223.626774
 30
0.0
 10
-3.623616
 20
221.793502
 30
0.0
 10
-2.720308
 20
220.899726
 30
0.0
 11
-6.121290
 21
231.304492
 31
0.0
 11
-6.425317
 21
227.536917
 31
0.0
 11
-5.190886
 21
223.760372
 31
0.0
 11
-2.720308
 21
220.899726
 31
0.0
  0
LWPOLYLINE
  5
106
100
AcDbEntity
  8
0
 62
5
100
AcDbPolyline
 90
4
 70
0
 10
-5.233546
 20
245.030511
 30
0.0
 10
-1.265733
 20
232.891616
 30
0.0
 10
-1.959384
 20
232.664885
 30
0.0
 10
-2.639581
 20
234.745839
 30
0.0
  0
LWPOLYLINE
  5
107
100
AcDbEntity
  8
0
 62
5
100
AcDbPolyline
 90
4
 70
0
 10
2.121795
 20
220.179168
 30
0.0
 10
1.441598
 20
222.260119
 30
0.0
 10
2.135249
 20
222.486854
 30
0.0
 10
6.103062
 20
210.347959
 30
0.0
  0
LWPOLYLINE
  5
108
100
AcDbEntity
  8
0
 62
1
100
AcDbPolyline
 90
2
 70
0
 10
-0.472171
 20
230.463839
 30
0.0
 10
1.341687
 20
224.914631
 30
0.0
  0
LWPOLYLINE
  5
109
100
AcDbEntity
  8
0
 62
5
100
AcDbPolyline
 90
5
 70
0
 10
6.103047
 20
210.347951
 30
0.0
 10
12.300739
 20
206.100585
 30
0.0
 10
30.749271
 20
218.162128
 30
0.0
 10
32.221825
 20
223.382819
 30
0.0
 10
38.751518
 20
226.641534
 30
0.0
  0
LWPOLYLINE
  5
10a
100
AcDbEntity
  8
0
 62
5
100
AcDbPolyline
 90
4
 70
0
 10
8.226117
 20
212.630892
 30
0.0
 10
10.346735
 20
211.650212
 30
0.0
 10
22.100185
 20
217.515901
 30
0.0
 10
22.591445
 20
219.800070
 30
0.0
  0
LWPOLYLINE
  5
10b
100
AcDbEntity
  8
0
 62
1
100
AcDbPolyline
 90
2
 70
0
 10
6.103047
 20
210.347951
 30
0.0
 10
8.714925
 20
211.651439
 30
0.0
  0
LWPOLYLINE
  5
10c
100
AcDbEntity
  8
0
 62
1
100
AcDbPolyline
 90
2
 70
0
 10
32.221825
 20
223.382819
 30
0.0
 10
23.080252
 20
218.820615
 30
0.0
  0
SPLINE
  5
10d
100
AcDbEntity
  8
0
 62
5
100
AcDbSpline
 70
0
 71
3
 72
10
 73
6
 74
4
 40
0.000000
 40
0.000000
 40
0.000000
 40
0.000000
 40
2.254401
 40
4.152556
 40
4.979466
 40
4.979466
 40
4.979466
 40
4.979466
 10
-2.720308
 20
220.899726
 30
0.0
 10
-2.025567
 20
220.592349
 30
0.0
 10
-0.745869
 20
220.026168
 30
0.0
 10
0.949933
 20
220.023168
 30
0.0
 10
1.848982
 20
220.142850
 30
0.0
 10
2.121795
 20
220.179168
 30
0.0
 11
-2.720308
 21
220.899726
 31
0.0
 11
-0.596445
 21
220.143731
 31
0.0
 11
1.300686
 21
220.081387
 31
0.0
 11
2.121795
 21
220.179168
 31
0.0
  0
SPLINE
  5
10e
100
AcDbEntity
  8
0
 62
5
100
AcDbSpline
 70
0
 71
3
 72
10
 73
6
 74
4
 40
0.000000
 40
0.000000
 40
0.000000
 40
0.000000
 40
0.362622
 40
1.401014
 40
3.136305
 40
3.136305
 40
3.136305
 40
3.136305
 10
29.234370
 20
211.488205
 30
0.0
 10
29.113722
 20
211.497816
 30
0.0
 10
28.647590
 20
211.534950
 30
0.0
 10
27.600690
 20
211.337086
 30
0.0
 10
26.767753
 20
210.930496
 30
0.0
 10
26.246645
 20
210.676122
 30
0.0
 11
29.234370
 21
211.488205
 31
0.0
 11
28.872323
 21
211.508630
 31
0.0
 11
27.846338
 21
211.348592
 31
0.0
 11
26.246645
 21
210.676122
 31
0.0
  0
SPLINE
  5
10f
100
AcDbEntity
  8
0
 62
5
100
AcDbSpline
 70
0
 71
3
 72
10
 73
6
 74
4
 40
0.000000
 40
0.000000
 40
0.000000
 40
0.000000
 40
3.380398
 40
6.968675
 40
10.279306
 40
10.279306
 40
10.279306
 40
10.279306
 10
26.246645
 20
210.676122
 30
0.0
 10
25.396273
 20
209.936519
 30
0.0
 10
23.643234
 20
208.411832
 30
0.0
 10
21.191844
 20
206.015582
 30
0.0
 10
19.587928
 20
204.367743
 30
0.0
 10
18.818245
 20
203.576982
 30
0.0
 11
26.246645
 21
210.676122
 31
0.0
 11
23.716979
 21
208.433828
 31
0.0
 11
21.136810
 21
205.940144
 31
0.0
 11
18.818245
 21
203.576982
 31
0.0
  0
LWPOLYLINE
  5
110
100
AcDbEntity
  8
0
 62
5
100
AcDbPolyline
 90
4
 70
0
 10
38.751544
 20
226.641481
 30
0.0
 10
28.779851
 20
209.225694
 30
0.0
 10
28.146549
 20
209.588302
 30
0.0
 10
29.234370
 20
211.488205
 30
0.0
  0
LWPOLYLINE
  5
111
100
AcDbEntity
  8
0
 62
5
100
AcDbPolyline
 90
4
 70
0
 10
21.619623
 20
198.188875
 30
0.0
 10
22.707444
 20
200.088781
 30
0.0
 10
23.340745
 20
199.726173
 30
0.0
 10
20.621192
 20
194.976413
 30
0.0
  0
LWPOLYLINE
  5
112
100
AcDbEntity
  8
0
 62
1
100
AcDbPolyline
 90
2
 70
0
 10
27.510726
 20
207.009138
 30
0.0
 10
24.609870
 20
201.942727
 30
0.0
  0
LWPOLYLINE
  5
113
100
AcDbEntity
  8
0
 62
5
100
AcDbPolyline
 90
4
 70
0
 10
54.600091
 20
181.678912
 30
0.0
 10
45.277772
 20
177.882419
 30
0.0
 10
24.890401
 20
185.860937
 30
0.0
 10
20.621142
 20
194.976444
 30
0.0
  0
LWPOLYLINE
  5
114
100
AcDbEntity
  8
0
 62
5
100
AcDbPolyline
 90
4
 70
0
 10
45.484912
 20
186.421588
 30
0.0
 10
43.460876
 20
185.254543
 30
0.0
 10
31.228456
 20
190.041653
 30
0.0
 10
30.534175
 20
192.272501
 30
0.0
  0
LWPOLYLINE
  5
115
100
AcDbEntity
  8
0
 62
1
100
AcDbPolyline
 90
2
 70
0
 10
54.600091
 20
181.678912
 30
0.0
 10
45.085985
 20
185.402221
 30
0.0
  0
LWPOLYLINE
  5
116
100
AcDbEntity
  8
0
 62
1
100
AcDbPolyline
 90
2
 70
0
 10
20.621142
 20
194.976444
 30
0.0
 10
30.135249
 20
191.253134
 30
0.0
  0
LWPOLYLINE
  5
117
100
AcDbEntity
  8
0
 62
5
100
AcDbPolyline
 90
8
 70
0
 10
60.925445
 20
209.182940
 30
0.0
 10
56.497638
 20
189.929972
 30
0.0
 10
58.296426
 20
188.937108
 30
0.0
 10
57.938927
 20
186.123429
 30
0.0
 10
55.972400
 20
185.127743
 30
0.0
 10
56.098908
 20
185.677828
 30
0.0
 10
55.548824
 20
185.804337
 30
0.0
 10
54.600007
 20
181.678700
 30
0.0
  0
LWPOLYLINE
  5
118
100
AcDbEntity
  8
0
 62
1
100
AcDbPolyline
 90
2
 70
0
 10
56.244623
 20
188.829802
 30
0.0
 10
55.801841
 20
186.904507
 30
0.0
  0
LWPOLYLINE
  5
119
100
AcDbEntity
  8
0
 62
5
100
AcDbPolyline
 90
7
 70
0
 10
61.545453
 20
180.967503
 30
0.0
 10
58.711507
 20
181.469810
 30
0.0
 10
58.931663
 20
184.297553
 30
0.0
 10
60.881943
 20
185.469571
 30
0.0
 10
60.894333
 20
184.905262
 30
0.0
 10
61.458642
 20
184.917651
 30
0.0
 10
60.925442
 20
209.182929
 30
0.0
  0
LWPOLYLINE
  5
11a
100
AcDbEntity
  8
0
 62
1
100
AcDbPolyline
 90
2
 70
0
 10
61.520651
 20
182.096118
 30
0.0
 10
61.483452
 20
183.789045
 30
0.0
  0
SPLINE
  5
11b
100
AcDbEntity
  8
0
 62
5
100
AcDbSpline
 70
0
 71
3
 72
10
 73
6
 74
4
 40
0.000000
 40
0.000000
 40
0.000000
 40
0.000000
 40
2.579927
 40
5.017459
 40
6.112438
 40
6.112438
 40
6.112438
 40
6.112438
 10
18.818245
 20
203.576982
 30
0.0
 10
19.076779
 20
202.752646
 30
0.0
 10
19.579577
 20
201.149471
 30
0.0
 10
20.702265
 20
199.427306
 30
0.0
 10
21.402553
 20
198.481918
 30
0.0
 10
21.619623
 20
198.188875
 30
0.0
 11
18.818245
 21
203.576982
 31
0.0
 11
19.704566
 21
201.154080
 31
0.0
 11
20.973358
 21
199.072799
 31
0.0
 11
21.619623
 21
198.188875
 31
0.0
  0
SPLINE
  5
11c
100
AcDbEntity
  8
0
 62
5
100
AcDbSpline
 70
0
 71
3
 72
10
 73
6
 74
4
 40
0.000000
 40
0.000000
 40
0.000000
 40
0.000000
 40
0.826912
 40
2.725073
 40
4.979480
 40
4.979480
 40
4.979480
 40
4.979480
 10
72.099187
 20
182.027349
 30
0.0
 10
72.194211
 20
181.769053
 30
0.0
 10
72.507362
 20
180.917845
 30
0.0
 10
73.300414
 20
179.418900
 30
0.0
 10
74.397793
 20
178.550592
 30
0.0
 10
74.993554
 20
178.079192
 30
0.0
 11
72.099187
 21
182.027349
 31
0.0
 11
72.395388
 21
181.255307
 31
0.0
 11
73.334782
 21
179.605897
 31
0.0
 11
74.993554
 21
178.079192
 31
0.0
  0
SPLINE
  5
11d
100
AcDbEntity
  8
0
 62
5
100
AcDbSpline
 70
0
 71
3
 72
10
 73
6
 74
4
 40
0.000000
 40
0.000000
 40
0.000000
 40
0.000000
 40
3.779831
 40
7.753014
 40
11.532846
 40
11.532846
 40
11.532846
 40
11.532846
 10
74.993554
 20
178.079192
 30
0.0
 10
76.205336
 20
177.696580
 30
0.0
 10
78.690888
 20
176.911783
 30
0.0
 10
82.682950
 20
177.592715
 30
0.0
 10
84.767801
 20
179.157091
 30
0.0
 10
85.784230
 20
179.919772
 30
0.0
 11
74.993554
 21
178.079192
 31
0.0
 11
78.675994
 21
177.226694
 31
0.0
 11
82.592610
 21
177.894756
 31
0.0
 11
85.784230
 21
179.919772
 31
0.0
  0
LWPOLYLINE
  5
11e
100
AcDbEntity
  8
0
 62
5
100
AcDbPolyline
 90
4
 70
0
 10
61.545495
 20
180.967500
 30
0.0
 10
74.134619
 20
183.114841
 30
0.0
 10
74.257323
 20
182.395462
 30
0.0
 10
72.099187
 20
182.027349
 30
0.0
  0
LWPOLYLINE
  5
11f
100
AcDbEntity
  8
0
 62
5
100
AcDbPolyline
 90
4
 70
0
 10
87.206133
 20
184.604156
 30
0.0
 10
85.048000
 20
184.236042
 30
0.0
 10
84.925292
 20
184.955421
 30
0.0
 10
97.514416
 20
187.102763
 30
0.0
  0
LWPOLYLINE
  5
120
100
AcDbEntity
  8
0
 62
1
100
AcDbPolyline
 90
2
 70
0
 10
76.652442
 20
183.544310
 30
0.0
 10
82.407469
 20
184.525952
 30
0.0
  0
LWPOLYLINE
  5
121
100
AcDbEntity
  8
0
 62
5
100
AcDbPolyline
 90
4
 70
0
 10
86.177752
 20
221.785258
 30
0.0
 10
95.034766
 20
217.002720
 30
0.0
 10
101.836768
 20
196.193202
 30
0.0
 10
97.514421
 20
187.102729
 30
0.0
  0
LWPOLYLINE
  5
122
100
AcDbEntity
  8
0
 62
5
100
AcDbPolyline
 90
4
 70
0
 10
88.311544
 20
211.734049
 30
0.0
 10
90.499136
 20
210.913581
 30
0.0
 10
94.580337
 20
198.427872
 30
0.0
 10
93.299678
 20
196.473737
 30
0.0
  0
LWPOLYLINE
  5
123
100
AcDbEntity
  8
0
 62
1
100
AcDbPolyline
 90
2
 70
0
 10
86.177752
 20
221.785258
 30
0.0
 10
89.352018
 20
212.074149
 30
0.0
  0
LWPOLYLINE
  5
124
100
AcDbEntity
  8
0
 62
1
100
AcDbPolyline
 90
2
 70
0
 10
97.514421
 20
187.102729
 30
0.0
 10
94.340152
 20
196.813837
 30
0.0
  0
SPLINE
  5
125
100
AcDbEntity
  8
0
 62
5
100
AcDbSpline
 70
0
 71
3
 72
10
 73
6
 74
4
 40
0.000000
 40
0.000000
 40
0.000000
 40
0.000000
 40
2.254406
 40
4.152565
 40
4.979476
 40
4.979476
 40
4.979476
 40
4.979476
 10
85.784230
 20
179.919772
 30
0.0
 10
86.190036
 20
180.562010
 30
0.0
 10
86.937523
 20
181.744998
 30
0.0
 10
87.188836
 20
183.422081
 30
0.0
 10
87.202106
 20
184.328966
 30
0.0
 10
87.206133
 20
184.604156
 30
0.0
 11
85.784230
 21
179.919772
 31
0.0
 11
86.843109
 21
181.910029
 31
0.0
 11
87.182611
 21
183.777579
 31
0.0
 11
87.206133
 21
184.604156
 31
0.0
  0
SPLINE
  5
126
100
AcDbEntity
  8
0
 62
5
100
AcDbSpline
 70
0
 71
3
 72
10
 73
6
 74
4
 40
0.000000
 40
0.000000
 40
0.000000
 40
0.000000
 40
0.362623
 40
1.401017
 40
3.136311
 40
3.136311
 40
3.136311
 40
3.136311
 10
76.117529
 20
237.457481
 30
0.0
 10
76.236828
 20
237.477881
 30
0.0
 10
76.697747
 20
237.556699
 30
0.0
 10
77.758183
 20
237.453589
 30
0.0
 10
78.624250
 20
237.123391
 30
0.0
 10
79.166085
 20
236.916811
 30
0.0
 11
76.117529
 21
237.457481
 31
0.0
 11
76.476282
 21
237.510316
 31
0.0
 11
77.512492
 21
237.443002
 31
0.0
 11
79.166085
 21
236.916811
 31
0.0
  0
SPLINE
  5
127
100
AcDbEntity
  8
0
 62
5
100
AcDbSpline
 70
0
 71
3
 72
10
 73
6
 74
4
 40
0.000000
 40
0.000000
 40
0.000000
 40
0.000000
 40
3.380407
 40
6.968691
 40
10.279330
 40
10.279330
 40
10.279330
 40
10.279330
 10
79.166085
 20
236.916811
 30
0.0
 10
80.079405
 20
236.256509
 30
0.0
 10
81.962208
 20
234.895299
 30
0.0
 10
84.618767
 20
232.728716
 30
0.0
 10
86.364102
 20
231.231470
 30
0.0
 10
87.201649
 20
230.512974
 30
0.0
 11
79.166085
 21
236.916811
 31
0.0
 11
81.886787
 21
234.910588
 31
0.0
 11
84.680348
 21
232.658522
 31
0.0
 11
87.201649
 21
230.512974
 31
0.0
  0
LWPOLYLINE
  5
128
100
AcDbEntity
  8
0
 62
5
100
AcDbPolyline
 90
4
 70
0
 10
65.278790
 20
251.695510
 30
0.0
 10
76.773270
 20
235.244887
 30
0.0
 10
77.371473
 20
235.662866
 30
0.0
 10
76.117529
 20
237.457481
 30
0.0
  0
LWPOLYLINE
  5
129
100
AcDbEntity
  8
0
 62
5
100
AcDbPolyline
 90
4
 70
0
 10
84.895131
 20
224.895188
 30
0.0
 10
83.641187
 20
226.689800
 30
0.0
 10
83.042983
 20
226.271820
 30
0.0
 10
86.177840
 20
221.785286
 30
0.0
  0
LWPOLYLINE
  5
12a
100
AcDbEntity
  8
0
 62
1
100
AcDbPolyline
 90
2
 70
0
 10
78.236202
 20
233.151171
 30
0.0
 10
81.580050
 20
228.365534
 30
0.0
  0
LWPOLYLINE
  5
12b
100
AcDbEntity
  8
0
 62
5
100
AcDbPolyline
 90
5
 70
0
 10
99.257677
 20
238.397936
 30
0.0
 10
93.466226
 20
233.611478
 30
0.0
 10
74.009685
 20
243.968525
 30
0.0
 10
72.074518
 20
249.035961
 30
0.0
 10
65.278728
 20
251.695468
 30
0.0
  0
LWPOLYLINE
  5
12c
100
AcDbEntity
  8
0
 62
5
100
AcDbPolyline
 90
4
 70
0
 10
96.938287
 20
240.481108
 30
0.0
 10
94.914252
 20
239.314060
 30
0.0
 10
82.681832
 20
244.101173
 30
0.0
 10
81.987551
 20
246.332021
 30
0.0
  0
LWPOLYLINE
  5
12d
100
AcDbEntity
  8
0
 62
1
100
AcDbPolyline
 90
2
 70
0
 10
99.257677
 20
238.397936
 30
0.0
 10
96.539360
 20
239.461738
 30
0.0
  0
LWPOLYLINE
  5
12e
100
AcDbEntity
  8
0
 62
1
100
AcDbPolyline
 90
2
 70
0
 10
72.074518
 20
249.035961
 30
0.0
 10
81.588624
 20
245.312654
 30
0.0
  0
SPLINE
  5
12f
100
AcDbEntity
  8
0
 62
5
100
AcDbSpline
 70
0
 71
3
 72
10
 73
6
 74
4
 40
0.000000
 40
0.000000
 40
0.000000
 40
0.000000
 40
2.579932
 40
5.017468
 40
6.112448
 40
6.112448
 40
6.112448
 40
6.112448
 10
87.201649
 20
230.512974
 30
0.0
 10
87.018139
 20
229.668760
 30
0.0
 10
86.661247
 20
228.026927
 30
0.0
 10
85.697645
 20
226.210953
 30
0.0
 10
85.085026
 20
225.206531
 30
0.0
 10
84.895131
 20
224.895188
 30
0.0
 11
87.201649
 21
230.512974
 31
0.0
 11
86.536348
 21
228.020300
 31
0.0
 11
85.459460
 21
225.833546
 31
0.0
 11
84.895131
 21
224.895188
 31
0.0
  0
SPLINE
  5
130
100
AcDbEntity
  8
0
 62
5
100
AcDbSpline
 70
0
 71
3
 72
10
 73
6
 74
4
 40
0.000000
 40
0.000000
 40
0.000000
 40
0.000000
 40
0.826908
 40
2.725058
 40
4.979453
 40
4.979453
 40
4.979453
 40
4.979453
 10
109.748582
 20
236.834664
 30
0.0
 10
109.777291
 20
236.560947
 30
0.0
 10
109.871900
 20
235.658917
 30
0.0
 10
110.272714
 20
234.011166
 30
0.0
 10
111.123353
 20
232.900044
 30
0.0
 10
111.585161
 20
232.296822
 30
0.0
 11
109.748582
 21
236.834664
 31
0.0
 11
109.846195
 21
236.013538
 31
0.0
 11
110.351935
 21
234.184003
 31
0.0
 11
111.585161
 21
232.296822
 31
0.0
  0
SPLINE
  5
131
100
AcDbEntity
  8
0
 62
5
100
AcDbSpline
 70
0
 71
3
 72
10
 73
6
 74
4
 40
0.000000
 40
0.000000
 40
0.000000
 40
0.000000
 40
3.779810
 40
7.752971
 40
11.532782
 40
11.532782
 40
11.532782
 40
11.532782
 10
111.585161
 20
232.296822
 30
0.0
 10
112.665932
 20
231.628447
 30
0.0
 10
114.882759
 20
230.257508
 30
0.0
 10
118.919802
 20
229.937615
 30
0.0
 10
121.324875
 20
230.942318
 30
0.0
 10
122.497421
 20
231.432141
 30
0.0
 11
111.585161
 21
232.296822
 31
0.0
 11
114.945626
 21
230.566437
 31
0.0
 11
118.906372
 21
230.252589
 31
0.0
 11
122.497421
 21
231.432141
 31
0.0
  0
LWPOLYLINE
  5
132
100
AcDbEntity
  8
0
 62
5
100
AcDbPolyline
 90
4
 70
0
 10
99.257708
 20
238.398009
 30
0.0
 10
111.988679
 20
237.389211
 30
0.0
 10
111.931032
 20
236.661727
 30
0.0
 10
109.748582
 20
236.834664
 30
0.0
  0
LWPOLYLINE
  5
133
100
AcDbEntity
  8
0
 62
5
100
AcDbPolyline
 90
4
 70
0
 10
125.025745
 20
235.624106
 30
0.0
 10
122.843293
 20
235.797043
 30
0.0
 10
122.900940
 20
236.524528
 30
0.0
 10
135.631911
 20
235.515730
 30
0.0
  0
LWPOLYLINE
  5
134
100
AcDbEntity
  8
0
 62
1
100
AcDbPolyline
 90
2
 70
0
 10
114.534874
 20
237.187451
 30
0.0
 10
120.354745
 20
236.726288
 30
0.0
  0
LWPOLYLINE
  5
135
100
AcDbEntity
  8
0
 62
5
100
AcDbPolyline
 90
4
 70
0
 10
171.281079
 20
243.295947
 30
0.0
 10
165.629497
 20
234.966551
 30
0.0
 10
144.239990
 20
230.298386
 30
0.0
 10
135.631905
 20
235.515673
 30
0.0
  0
LWPOLYLINE
  5
136
100
AcDbEntity
  8
0
 62
5
100
AcDbPolyline
 90
4
 70
0
 10
161.065901
 20
242.186947
 30
0.0
 10
160.028949
 20
240.093276
 30
0.0
 10
147.195246
 20
237.292378
 30
0.0
 10
145.380264
 20
238.763625
 30
0.0
  0
LWPOLYLINE
  5
137
100
AcDbEntity
  8
0
 62
1
100
AcDbPolyline
 90
2
 70
0
 10
171.281079
 20
243.295947
 30
0.0
 10
161.299311
 20
241.117471
 30
0.0
  0
LWPOLYLINE
  5
138
100
AcDbEntity
  8
0
 62
1
100
AcDbPolyline
 90
2
 70
0
 10
135.631905
 20
235.515673
 30
0.0
 10
145.613673
 20
237.694150
 30
0.0
  0
SPLINE
  5
139
100
AcDbEntity
  8
0
 62
5
100
AcDbSpline
 70
0
 71
3
 72
10
 73
6
 74
4
 40
0.000000
 40
0.000000
 40
0.000000
 40
0.000000
 40
2.254393
 40
4.152542
 40
4.979449
 40
4.979449
 40
4.979449
 40
4.979449
 10
122.497421
 20
231.432141
 30
0.0
 10
123.048467
 20
231.955104
 30
0.0
 10
124.063481
 20
232.918391
 30
0.0
 10
124.718798
 20
234.482454
 30
0.0
 10
124.954287
 20
235.358326
 30
0.0
 10
125.025745
 20
235.624106
 30
0.0
 11
122.497421
 21
231.432141
 31
0.0
 11
124.012469
 21
233.101547
 31
0.0
 11
124.800032
 21
234.828601
 31
0.0
 11
125.025745
 21
235.624106
 31
0.0
  0
SPLINE
  5
13a
100
AcDbEntity
  8
0
 62
5
100
AcDbSpline
 70
0
 71
3
 72
10
 73
6
 74
4
 40
0.000000
 40
0.000000
 40
0.000000
 40
0.000000
 40
0.362625
 40
1.401027
 40
3.136333
 40
3.136333
 40
3.136333
 40
3.136333
 10
187.888239
 20
251.724133
 30
0.0
 10
187.896502
 20
251.603384
 30
0.0
 10
187.928424
 20
251.136863
 30
0.0
 10
187.718871
 20
250.092229
 30
0.0
 10
187.302993
 20
249.263881
 30
0.0
 10
187.042809
 20
248.745644
 30
0.0
 11
187.888239
 21
251.724133
 31
0.0
 11
187.904617
 21
251.361878
 31
0.0
 11
187.733121
 21
250.337736
 31
0.0
 11
187.042809
 21
248.745644
 31
0.0
  0
SPLINE
  5
13b
100
AcDbEntity
  8
0
 62
5
100
AcDbSpline
 70
0
 71
3
 72
10
 73
6
 74
4
 40
0.000000
 40
0.000000
 40
0.000000
 40
0.000000
 40
3.380427
 40
6.968734
 40
10.279394
 40
10.279394
 40
10.279394
 40
10.279394
 10
187.042809
 20
248.745644
 30
0.0
 10
186.293741
 20
247.903585
 30
0.0
 10
184.749542
 20
246.167682
 30
0.0
 10
182.326023
 20
243.743206
 30
0.0
 10
180.660345
 20
242.157796
 30
0.0
 10
179.861024
 20
241.396993
 30
0.0
 11
187.042809
 21
248.745644
 31
0.0
 11
184.772362
 21
246.241177
 31
0.0
 11
182.249974
 21
243.689020
 31
0.0
 11
179.861024
 21
241.396993
 31
0.0
  0
LWPOLYLINE
  5
13c
100
AcDbEntity
  8
0
 62
5
100
AcDbPolyline
 90
4
 70
0
 10
203.147069
 20
261.071423
 30
0.0
 10
185.620770
 20
251.294924
 30
0.0
 10
185.976280
 20
250.657604
 30
0.0
 10
187.888239
 20
251.724133
 30
0.0
  0
LWPOLYLINE
  5
13d
100
AcDbEntity
  8
0
 62
5
100
AcDbPolyline
 90
4
 70
0
 10
174.504522
 20
244.258444
 30
0.0
 10
176.416482
 20
245.324970
 30
0.0
 10
176.060972
 20
245.962290
 30
0.0
 10
171.281073
 20
243.295973
 30
0.0
  0
LWPOLYLINE
  5
13e
100
AcDbEntity
  8
0
 62
1
100
AcDbPolyline
 90
2
 70
0
 10
183.390151
 20
250.050643
 30
0.0
 10
178.291592
 20
247.206571
 30
0.0
  0
LWPOLYLINE
  5
13f
100
AcDbEntity
  8
0
 62
5
100
AcDbPolyline
 90
5
 70
0
 10
186.489854
 20
228.607102
 30
0.0
 10
182.311991
 20
234.851833
 30
0.0
 10
194.578817
 20
253.164440
 30
0.0
 10
199.815614
 20
254.578582
 30
0.0
 10
203.147055
 20
261.071452
 30
0.0
  0
LWPOLYLINE
  5
140
100
AcDbEntity
  8
0
 62
5
100
AcDbPolyline
 90
4
 70
0
 10
188.796360
 20
230.704535
 30
0.0
 10
187.839432
 20
232.835968
 30
0.0
 10
193.836025
 20
244.523134
 30
0.0
 10
196.125530
 20
244.988849
 30
0.0
  0
LWPOLYLINE
  5
141
100
AcDbEntity
  8
0
 62
1
100
AcDbPolyline
 90
2
 70
0
 10
186.489854
 20
228.607102
 30
0.0
 10
187.822431
 20
231.204249
 30
0.0
  0
LWPOLYLINE
  5
142
100
AcDbEntity
  8
0
 62
1
100
AcDbPolyline
 90
2
 70
0
 10
199.815614
 20
254.578582
 30
0.0
 10
195.151598
 20
245.488563
 30
0.0
  0
SPLINE
  5
143
100
AcDbEntity
  8
0
 62
5
100
AcDbSpline
 70
0
 71
3
 72
10
 73
6
 74
4
 40
0.000000
 40
0.000000
 40
0.000000
 40
0.000000
 40
2.579947
 40
5.017499
 40
6.112487
 40
6.112487
 40
6.112487
 40
6.112487
 10
179.861024
 20
241.396993
 30
0.0
 10
179.039622
 20
241.664726
 30
0.0
 10
177.442154
 20
242.185417
 30
0.0
 10
175.732632
 20
243.327293
 30
0.0
 10
174.795123
 20
244.038110
 30
0.0
 10
174.504522
 20
244.258444
 30
0.0
 11
179.861024
 21
241.396993
 31
0.0
 11
177.448161
 21
242.310347
 31
0.0
 11
175.381175
 21
243.602335
 31
0.0
 11
174.504522
 21
244.258444
 31
0.0
  0
SPLINE
  5
144
100
AcDbEntity
  8
0
 62
5
100
AcDbSpline
 70
0
 71
3
 72
10
 73
6
 74
4
 40
0.000000
 40
0.000000
 40
0.000000
 40
0.000000
 40
0.826911
 40
2.725070
 40
4.979475
 40
4.979475
 40
4.979475
 40
4.979475
 10
183.876126
 20
218.327443
 30
0.0
 10
183.600908
 20
218.326491
 30
0.0
 10
182.693931
 20
218.323353
 30
0.0
 10
181.014146
 20
218.090793
 30
0.0
 10
179.822881
 20
217.356570
 30
0.0
 10
179.176149
 20
216.957965
 30
0.0
 11
183.876126
 21
218.327443
 31
0.0
 11
183.049338
 21
218.313156
 31
0.0
 11
181.178111
 21
217.994541
 31
0.0
 11
179.176149
 21
216.957965
 31
0.0
  0
SPLINE
  5
145
100
AcDbEntity
  8
0
 62
5
100
AcDbSpline
 70
0
 71
3
 72
10
 73
6
 74
4
 40
0.000000
 40
0.000000
 40
0.000000
 40
0.000000
 40
3.779829
 40
7.753009
 40
11.532837
 40
11.532837
 40
11.532837
 40
11.532837
 10
179.176149
 20
216.957965
 30
0.0
 10
178.402160
 20
215.950122
 30
0.0
 10
176.814590
 20
213.882881
 30
0.0
 10
176.089101
 20
209.898678
 30
0.0
 10
176.846079
 20
207.404515
 30
0.0
 10
177.215128
 20
206.188534
 30
0.0
 11
179.176149
 21
216.957965
 31
0.0
 11
177.115603
 21
213.789171
 31
0.0
 11
176.403825
 21
209.880267
 31
0.0
 11
177.215128
 21
206.188534
 31
0.0
  0
LWPOLYLINE
  5
146
100
AcDbEntity
  8
0
 62
5
100
AcDbPolyline
 90
4
 70
0
 10
186.489741
 20
228.607158
 30
0.0
 10
184.201884
 20
216.042823
 30
0.0
 10
183.483922
 20
216.173557
 30
0.0
 10
183.876126
 20
218.327443
 30
0.0
  0
LWPOLYLINE
  5
147
100
AcDbEntity
  8
0
 62
5
100
AcDbPolyline
 90
4
 70
0
 10
181.130696
 20
203.250240
 30
0.0
 10
181.522901
 20
205.404126
 30
0.0
 10
182.240863
 20
205.273389
 30
0.0
 10
179.953003
 20
192.709053
 30
0.0
  0
LWPOLYLINE
  5
148
100
AcDbEntity
  8
0
 62
1
100
AcDbPolyline
 90
2
 70
0
 10
183.744311
 20
213.529956
 30
0.0
 10
182.698432
 20
207.786256
 30
0.0
  0
LWPOLYLINE
  5
149
100
AcDbEntity
  8
0
 62
5
100
AcDbPolyline
 90
4
 70
0
 10
179.952912
 20
192.709070
 30
0.0
 10
187.016813
 20
185.538292
 30
0.0
 10
208.897717
 20
184.812814
 30
0.0
 10
216.421087
 20
191.499940
 30
0.0
  0
LWPOLYLINE
  5
14a
100
AcDbEntity
  8
0
 62
5
100
AcDbPolyline
 90
4
 70
0
 10
190.200274
 20
193.464560
 30
0.0
 10
191.598544
 20
191.592786
 30
0.0
 10
204.727088
 20
191.157497
 30
0.0
 10
206.246273
 20
192.932542
 30
0.0
  0
LWPOLYLINE
  5
14b
100
AcDbEntity
  8
0
 62
1
100
AcDbPolyline
 90
2
 70
0
 10
179.952912
 20
192.709070
 30
0.0
 10
190.164000
 20
192.370514
 30
0.0
  0
LWPOLYLINE
  5
14c
100
AcDbEntity
  8
0
 62
1
100
AcDbPolyline
 90
2
 70
0
 10
216.421087
 20
191.499940
 30
0.0
 10
206.209999
 20
191.838497
 30
0.0
  0
LWPOLYLINE
  5
14d
100
AcDbEntity
  8
0
 62
5
100
AcDbPolyline
 90
8
 70
0
 10
213.215457
 20
219.539344
 30
0.0
 10
215.459400
 20
199.911825
 30
0.0
 10
217.486264
 20
199.575433
 30
0.0
 10
218.087219
 20
196.803559
 30
0.0
 10
216.565144
 20
195.209254
 30
0.0
 10
216.501032
 20
195.770041
 30
0.0
 10
215.940245
 20
195.705929
 30
0.0
 10
216.421089
 20
191.500030
 30
0.0
  0
LWPOLYLINE
  5
14e
100
AcDbEntity
  8
0
 62
1
100
AcDbPolyline
 90
2
 70
0
 10
215.587625
 20
198.790251
 30
0.0
 10
215.812020
 20
196.827500
 30
0.0
  0
LWPOLYLINE
  5
14f
100
AcDbEntity
  8
0
 62
5
100
AcDbPolyline
 90
7
 70
0
 10
223.206375
 20
193.144858
 30
0.0
 10
220.367109
 20
192.673671
 30
0.0
 10
219.631977
 20
195.413030
 30
0.0
 10
221.079960
 20
197.168165
 30
0.0
 10
221.279776
 20
196.640274
 30
0.0
 10
221.807667
 20
196.840090
 30
0.0
 10
213.215609
 20
219.539361
 30
0.0
  0
LWPOLYLINE
  5
150
100
AcDbEntity
  8
0
 62
1
100
AcDbPolyline
 90
2
 70
0
 10
222.806743
 20
194.200640
 30
0.0
 10
222.207297
 20
195.784308
 30
0.0
  0
SPLINE
  5
151
100
AcDbEntity
  8
0
 62
5
100
AcDbSpline
 70
0
 71
3
 72
10
 73
6
 74
4
 40
0.000000
 40
0.000000
 40
0.000000
 40
0.000000
 40
2.254405
 40
4.152564
 40
4.979475
 40
4.979475
 40
4.979475
 40
4.979475
 10
177.215128
 20
206.188534
 30
0.0
 10
177.679842
 20
205.587544
 30
0.0
 10
178.535833
 20
204.480533
 30
0.0
 10
180.025823
 20
203.670784
 30
0.0
 10
180.873479
 20
203.348144
 30
0.0
 10
181.130696
 20
203.250240
 30
0.0
 11
177.215128
 21
206.188534
 31
0.0
 11
178.723202
 21
204.512810
 31
0.0
 11
180.362012
 21
203.555047
 31
0.0
 11
181.130696
 21
203.250240
 31
0.0
  0
SPLINE
  5
152
100
AcDbEntity
  8
0
 62
5
100
AcDbSpline
 70
0
 71
3
 72
10
 73
6
 74
4
 40
0.000000
 40
0.000000
 40
0.000000
 40
0.000000
 40
0.826913
 40
2.725077
 40
4.979487
 40
4.979487
 40
4.979487
 40
4.979487
 10
232.802921
 20
197.662384
 30
0.0
 10
232.978619
 20
197.450542
 30
0.0
 10
233.557627
 20
196.752424
 30
0.0
 10
234.805025
 20
195.603609
 30
0.0
 10
236.129102
 20
195.150812
 30
0.0
 10
236.847936
 20
194.904991
 30
0.0
 11
232.802921
 21
197.662384
 31
0.0
 11
233.339558
 21
197.033252
 31
0.0
 11
234.775087
 21
195.791366
 31
0.0
 11
236.847936
 21
194.904991
 31
0.0
  0
SPLINE
  5
153
100
AcDbEntity
  8
0
 62
5
100
AcDbSpline
 70
0
 71
3
 72
10
 73
6
 74
4
 40
0.000000
 40
0.000000
 40
0.000000
 40
0.000000
 40
3.779835
 40
7.753024
 40
11.532860
 40
11.532860
 40
11.532860
 40
11.532860
 10
236.847936
 20
194.904991
 30
0.0
 10
238.117952
 20
194.948244
 30
0.0
 10
240.722951
 20
195.036963
 30
0.0
 10
244.259644
 20
197.009796
 30
0.0
 10
245.703709
 20
199.179721
 30
0.0
 10
246.407734
 20
200.237625
 30
0.0
 11
236.847936
 21
194.904991
 31
0.0
 11
240.603926
 21
195.328894
 31
0.0
 11
244.073779
 21
197.264442
 31
0.0
 11
246.407734
 21
200.237625
 31
0.0
  0
LWPOLYLINE
  5
154
100
AcDbEntity
  8
0
 62
5
100
AcDbPolyline
 90
4
 70
0
 10
223.206273
 20
193.144821
 30
0.0
 10
234.359371
 20
199.366230
 30
0.0
 10
234.714881
 20
198.728910
 30
0.0
 10
232.802921
 20
197.662384
 30
0.0
  0
LWPOLYLINE
  5
155
100
AcDbEntity
  8
0
 62
5
100
AcDbPolyline
 90
4
 70
0
 10
246.186638
 20
205.128073
 30
0.0
 10
244.274679
 20
204.061544
 30
0.0
 10
243.919172
 20
204.698864
 30
0.0
 10
255.072269
 20
210.920272
 30
0.0
  0
LWPOLYLINE
  5
156
100
AcDbEntity
  8
0
 62
1
100
AcDbPolyline
 90
2
 70
0
 10
236.589991
 20
200.610511
 30
0.0
 10
241.688552
 20
203.454583
 30
0.0
  0
LWPOLYLINE
  5
157
100
AcDbEntity
  8
0
 62
5
100
AcDbPolyline
 90
5
 70
0
 10
255.072255
 20
210.920300
 30
0.0
 10
258.052615
 20
217.817284
 30
0.0
 10
242.677995
 20
233.611114
 30
0.0
 10
237.271862
 20
234.055453
 30
0.0
 10
232.821765
 20
239.839242
 30
0.0
  0
LWPOLYLINE
  5
158
100
AcDbEntity
  8
0
 62
5
100
AcDbPolyline
 90
4
 70
0
 10
252.424647
 20
212.566302
 30
0.0
 10
252.980574
 20
214.835583
 30
0.0
 10
244.970399
 20
225.246403
 30
0.0
 10
242.634431
 20
225.290635
 30
0.0
  0
LWPOLYLINE
  5
159
100
AcDbEntity
  8
0
 62
1
100
AcDbPolyline
 90
2
 70
0
 10
255.072255
 20
210.920300
 30
0.0
 10
253.292215
 20
213.233817
 30
0.0
  0
LWPOLYLINE
  5
15a
100
AcDbEntity
  8
0
 62
1
100
AcDbPolyline
 90
2
 70
0
 10
237.271862
 20
234.055453
 30
0.0
 10
243.501999
 20
225.958150
 30
0.0
  0
SPLINE
  5
15b
100
AcDbEntity
  8
0
 62
5
100
AcDbSpline
 70
0
 71
3
 72
10
 73
6
 74
4
 40
0.000000
 40
0.000000
 40
0.000000
 40
0.000000
 40
2.254411
 40
4.152574
 40
4.979487
 40
4.979487
 40
4.979487
 40
4.979487
 10
246.407734
 20
200.237625
 30
0.0
 10
246.576220
 20
200.978410
 30
0.0
 10
246.886569
 20
202.342921
 30
0.0
 10
246.564406
 20
204.007850
 30
0.0
 10
246.274584
 20
204.867282
 30
0.0
 10
246.186638
 20
205.128073
 30
0.0
 11
246.407734
 21
200.237625
 31
0.0
 11
246.742539
 21
202.467036
 31
0.0
 11
246.440022
 21
204.340938
 31
0.0
 11
246.186638
 21
205.128073
 31
0.0
  0
SPLINE
  5
15c
100
AcDbEntity
  8
0
 62
5
100
AcDbSpline
 70
0
 71
3
 72
10
 73
6
 74
4
 40
0.000000
 40
0.000000
 40
0.000000
 40
0.000000
 40
0.362623
 40
1.401015
 40
3.136302
 40
3.136302
 40
3.136302
 40
3.136302
 10
249.518630
 20
233.403799
 30
0.0
 10
249.532328
 20
233.283546
 30
0.0
 10
249.585251
 20
232.818942
 30
0.0
 10
249.980152
 20
231.829396
 30
0.0
 10
250.538884
 20
231.089858
 30
0.0
 10
250.888441
 20
230.627184
 30
0.0
 11
249.518630
 21
233.403799
 31
0.0
 11
249.567997
 21
233.044552
 31
0.0
 11
249.921765
 21
232.068280
 31
0.0
 11
250.888441
 21
230.627184
 31
0.0
  0
SPLINE
  5
15d
100
AcDbEntity
  8
0
 62
5
100
AcDbSpline
 70
0
 71
3
 72
10
 73
6
 74
4
 40
0.000000
 40
0.000000
 40
0.000000
 40
0.000000
 40
3.380395
 40
6.968668
 40
10.279297
 40
10.279297
 40
10.279297
 40
10.279297
 10
250.888441
 20
230.627184
 30
0.0
 10
251.777353
 20
229.934379
 30
0.0
 10
253.609841
 20
228.506166
 30
0.0
 10
256.431608
 20
226.559646
 30
0.0
 10
258.356373
 20
225.301398
 30
0.0
 10
259.280025
 20
224.697593
 30
0.0
 11
250.888441
 21
230.627184
 31
0.0
 11
253.574114
 21
228.574325
 31
0.0
 11
256.516196
 21
226.520096
 31
0.0
 11
259.280025
 21
224.697593
 31
0.0
  0
LWPOLYLINE
  5
15e
100
AcDbEntity
  8
0
 62
5
100
AcDbPolyline
 90
4
 70
0
 10
232.821864
 20
239.839315
 30
0.0
 10
251.826308
 20
233.391469
 30
0.0
 10
251.591843
 20
232.700397
 30
0.0
 10
249.518630
 20
233.403799
 30
0.0
  0
LWPOLYLINE
  5
15f
100
AcDbEntity
  8
0
 62
5
100
AcDbPolyline
 90
4
 70
0
 10
264.031115
 20
228.479986
 30
0.0
 10
261.957902
 20
229.183389
 30
0.0
 10
262.192369
 20
229.874460
 30
0.0
 10
267.375400
 20
228.115956
 30
0.0
  0
LWPOLYLINE
  5
160
100
AcDbEntity
  8
0
 62
1
100
AcDbPolyline
 90
2
 70
0
 10
254.245056
 20
232.570831
 30
0.0
 10
259.773623
 20
230.695095
 30
0.0
  0
LWPOLYLINE
  5
161
100
AcDbEntity
  8
0
 62
5
100
AcDbPolyline
 90
4
 70
0
 10
273.912132
 20
264.013923
 30
0.0
 10
279.425383
 20
255.592387
 30
0.0
 10
275.503372
 20
234.053686
 30
0.0
 10
267.375445
 20
228.116092
 30
0.0
  0
LWPOLYLINE
  5
162
100
AcDbEntity
  8
0
 62
5
100
AcDbPolyline
 90
4
 70
0
 10
271.004925
 20
254.158630
 30
0.0
 10
272.538348
 20
252.395884
 30
0.0
 10
270.185142
 20
239.472663
 30
0.0
 10
268.128784
 20
238.363586
 30
0.0
  0
LWPOLYLINE
  5
163
100
AcDbEntity
  8
0
 62
1
100
AcDbPolyline
 90
2
 70
0
 10
273.912132
 20
264.013923
 30
0.0
 10
272.081859
 20
253.962531
 30
0.0
  0
LWPOLYLINE
  5
164
100
AcDbEntity
  8
0
 62
1
100
AcDbPolyline
 90
2
 70
0
 10
267.375445
 20
228.116092
 30
0.0
 10
269.205718
 20
238.167484
 30
0.0
  0
LWPOLYLINE
  5
165
100
AcDbEntity
  8
0
 62
5
100
AcDbPolyline
 90
8
 70
0
 10
245.705582
 20
264.949117
 30
0.0
 10
265.450266
 20
264.294463
 30
0.0
 10
266.079865
 20
266.250227
 30
0.0
 10
268.909887
 20
266.438774
 30
0.0
 10
270.264108
 20
264.699610
 30
0.0
 10
269.699974
 20
264.718322
 30
0.0
 10
269.681263
 20
264.154190
 30
0.0
 10
273.912268
 20
264.013906
 30
0.0
  0
LWPOLYLINE
  5
166
100
AcDbEntity
  8
0
 62
1
100
AcDbPolyline
 90
2
 70
0
 10
266.578534
 20
264.257055
 30
0.0
 10
268.553001
 20
264.191590
 30
0.0
  0
LWPOLYLINE
  5
167
100
AcDbEntity
  8
0
 62
5
100
AcDbPolyline
 90
7
 70
0
 10
273.278710
 20
270.966893
 30
0.0
 10
273.329019
 20
268.089226
 30
0.0
 10
270.511530
 20
267.763186
 30
0.0
 10
268.987363
 20
269.452597
 30
0.0
 10
269.538825
 20
269.572951
 30
0.0
 10
269.418472
 20
270.124414
 30
0.0
 10
245.705585
 20
264.949182
 30
0.0
  0
LWPOLYLINE
  5
168
100
AcDbEntity
  8
0
 62
1
100
AcDbPolyline
 90
2
 70
0
 10
272.175786
 20
270.726185
 30
0.0
 10
270.521396
 20
270.365122
 30
0.0
  0
SPLINE
  5
169
100
AcDbEntity
  8
0
 62
5
100
AcDbSpline
 70
0
 71
3
 72
10
 73
6
 74
4
 40
0.000000
 40
0.000000
 40
0.000000
 40
0.000000
 40
2.579924
 40
5.017455
 40
6.112433
 40
6.112433
 40
6.112433
 40
6.112433
 10
259.280025
 20
224.697593
 30
0.0
 10
260.039505
 20
225.109369
 30
0.0
 10
261.516547
 20
225.910193
 30
0.0
 10
262.991529
 20
227.342220
 30
0.0
 10
263.785123
 20
228.210763
 30
0.0
 10
264.031115
 20
228.479986
 30
0.0
 11
259.280025
 21
224.697593
 31
0.0
 11
261.488061
 21
226.031980
 31
0.0
 11
263.287487
 21
227.676249
 31
0.0
 11
264.031115
 21
228.479986
 31
0.0
  0
SPLINE
  5
16a
100
AcDbEntity
  8
0
 62
5
100
AcDbSpline
 70
0
 71
3
 72
10
 73
6
 74
4
 40
0.000000
 40
0.000000
 40
0.000000
 40
0.000000
 40
0.826907
 40
2.725054
 40
4.979448
 40
4.979448
 40
4.979448
 40
4.979448
 10
264.789897
 20
295.454263
 30
0.0
 10
265.060754
 20
295.503070
 30
0.0
 10
265.953355
 20
295.663913
 30
0.0
 10
267.647499
 20
295.738790
 30
0.0
 10
268.951842
 20
295.231975
 30
0.0
 10
269.659964
 20
294.956827
 30
0.0
 11
264.789897
 21
295.454263
 31
0.0
 11
265.605646
 21
295.589647
 31
0.0
 11
267.503631
 21
295.614489
 31
0.0
 11
269.659964
 21
294.956827
 31
0.0
  0
SPLINE
  5
16b
100
AcDbEntity
  8
0
 62
5
100
AcDbSpline
 70
0
 71
3
 72
10
 73
6
 74
4
 40
0.000000
 40
0.000000
 40
0.000000
 40
0.000000
 40
3.779807
 40
7.752966
 40
11.532774
 40
11.532774
 40
11.532774
 40
11.532774
 10
269.659964
 20
294.956827
 30
0.0
 10
270.603360
 20
294.105480
 30
0.0
 10
272.538410
 20
292.359236
 30
0.0
 10
273.972056
 20
288.571798
 30
0.0
 10
273.678348
 20
285.981909
 30
0.0
 10
273.535157
 20
284.719259
 30
0.0
 11
269.659964
 21
294.956827
 31
0.0
 11
272.259294
 21
292.212665
 31
0.0
 11
273.665845
 21
288.496807
 31
0.0
 11
273.535157
 21
284.719259
 31
0.0
  0
LWPOLYLINE
  5
16c
100
AcDbEntity
  8
0
 62
5
100
AcDbPolyline
 90
4
 70
0
 10
260.361371
 20
305.092233
 30
0.0
 10
264.882432
 20
293.148403
 30
0.0
 10
265.564936
 20
293.406749
 30
0.0
 10
264.789897
 20
295.454263
 30
0.0
  0
LWPOLYLINE
  5
16d
100
AcDbEntity
  8
0
 62
5
100
AcDbPolyline
 90
4
 70
0
 10
270.215168
 20
281.121668
 30
0.0
 10
269.440129
 20
283.169181
 30
0.0
 10
268.757626
 20
282.910835
 30
0.0
 10
273.278685
 20
270.967005
 30
0.0
  0
LWPOLYLINE
  5
16e
100
AcDbEntity
  8
0
 62
1
100
AcDbPolyline
 90
2
 70
0
 10
265.786644
 20
290.759637
 30
0.0
 10
267.853414
 20
285.299601
 30
0.0
  0
LWPOLYLINE
  5
16f
100
AcDbEntity
  8
0
 62
5
100
AcDbPolyline
 90
5
 70
0
 10
260.361661
 20
305.092343
 30
0.0
 10
253.975464
 20
309.050627
 30
0.0
 10
236.100264
 20
296.154631
 30
0.0
 10
234.869002
 20
290.871825
 30
0.0
 10
228.495837
 20
287.316696
 30
0.0
  0
LWPOLYLINE
  5
170
100
AcDbEntity
  8
0
 62
5
100
AcDbPolyline
 90
4
 70
0
 10
258.345666
 20
302.714317
 30
0.0
 10
256.182249
 20
303.596582
 30
0.0
 10
244.710554
 20
297.197349
 30
0.0
 10
244.324703
 20
294.893032
 30
0.0
  0
LWPOLYLINE
  5
171
100
AcDbEntity
  8
0
 62
1
100
AcDbPolyline
 90
2
 70
0
 10
260.361661
 20
305.092343
 30
0.0
 10
257.812396
 20
303.670291
 30
0.0
  0
LWPOLYLINE
  5
172
100
AcDbEntity
  8
0
 62
1
100
AcDbPolyline
 90
2
 70
0
 10
234.869002
 20
290.871825
 30
0.0
 10
243.791432
 20
295.849007
 30
0.0
  0
SPLINE
  5
173
100
AcDbEntity
  8
0
 62
5
100
AcDbSpline
 70
0
 71
3
 72
10
 73
6
 74
4
 40
0.000000
 40
0.000000
 40
0.000000
 40
0.000000
 40
2.254392
 40
4.152541
 40
4.979448
 40
4.979448
 40
4.979448
 40
4.979448
 10
273.535157
 20
284.719259
 30
0.0
 10
273.186723
 20
284.044177
 30
0.0
 10
272.544916
 20
282.800691
 30
0.0
 10
271.225829
 20
281.734980
 30
0.0
 10
270.450453
 20
281.264449
 30
0.0
 10
270.215168
 20
281.121668
 30
0.0
 11
273.535157
 21
284.719259
 31
0.0
 11
272.354801
 21
282.798571
 31
0.0
 11
270.916097
 21
281.560387
 31
0.0
 11
270.215168
 21
281.121668
 31
0.0
  0
SPLINE
  5
174
100
AcDbEntity
  8
0
 62
5
100
AcDbSpline
 70
0
 71
3
 72
10
 73
6
 74
4
 40
0.000000
 40
0.000000
 40
0.000000
 40
0.000000
 40
0.362624
 40
1.401020
 40
3.136318
 40
3.136318
 40
3.136318
 40
3.136318
 10
237.307049
 20
302.891336
 30
0.0
 10
237.428012
 20
302.887274
 30
0.0
 10
237.895359
 20
302.871583
 30
0.0
 10
238.932075
 20
303.117310
 30
0.0
 10
239.745467
 20
303.561720
 30
0.0
 10
240.254347
 20
303.839754
 30
0.0
 11
237.307049
 21
302.891336
 31
0.0
 11
237.669654
 21
302.887556
 31
0.0
 11
238.687213
 21
303.094537
 31
0.0
 11
240.254347
 21
303.839754
 31
0.0
  0
SPLINE
  5
175
100
AcDbEntity
  8
0
 62
5
100
AcDbSpline
 70
0
 71
3
 72
10
 73
6
 74
4
 40
0.000000
 40
0.000000
 40
0.000000
 40
0.000000
 40
3.380410
 40
6.968701
 40
10.279346
 40
10.279346
 40
10.279346
 40
10.279346
 10
240.254347
 20
303.839754
 30
0.0
 10
241.069864
 20
304.617627
 30
0.0
 10
242.751050
 20
306.221208
 30
0.0
 10
245.089835
 20
308.727501
 30
0.0
 10
246.616400
 20
310.447256
 30
0.0
 10
247.348965
 20
311.272528
 30
0.0
 11
240.254347
 21
303.839754
 31
0.0
 11
242.678393
 21
306.195848
 31
0.0
 11
245.141346
 21
308.805386
 31
0.0
 11
247.348965
 21
311.272528
 31
0.0
  0
LWPOLYLINE
  5
176
100
AcDbEntity
  8
0
 62
5
100
AcDbPolyline
 90
4
 70
0
 10
228.495679
 20
287.316978
 30
0.0
 10
237.657203
 20
305.172339
 30
0.0
 10
238.306489
 20
304.839193
 30
0.0
 10
237.307049
 20
302.891336
 30
0.0
  0
LWPOLYLINE
  5
177
100
AcDbEntity
  8
0
 62
5
100
AcDbPolyline
 90
4
 70
0
 10
244.303121
 20
316.526339
 30
0.0
 10
243.303682
 20
314.578481
 30
0.0
 10
242.654396
 20
314.911627
 30
0.0
 10
245.152994
 20
319.781271
 30
0.0
  0
LWPOLYLINE
  5
178
100
AcDbEntity
  8
0
 62
1
100
AcDbPolyline
 90
2
 70
0
 10
238.823215
 20
307.444840
 30
0.0
 10
241.488383
 20
312.639127
 30
0.0
  0
LWPOLYLINE
  5
179
100
AcDbEntity
  8
0
 62
5
100
AcDbPolyline
 90
4
 70
0
 10
210.599378
 20
331.504590
 30
0.0
 10
219.737531
 20
335.725114
 30
0.0
 10
240.469702
 20
328.691123
 30
0.0
 10
245.152994
 20
319.781271
 30
0.0
  0
LWPOLYLINE
  5
17a
100
AcDbEntity
  8
0
 62
5
100
AcDbPolyline
 90
4
 70
0
 10
219.922691
 20
327.185453
 30
0.0
 10
221.891002
 20
328.444201
 30
0.0
 10
234.330302
 20
324.223806
 30
0.0
 10
235.126282
 20
322.027192
 30
0.0
  0
LWPOLYLINE
  5
17b
100
AcDbEntity
  8
0
 62
1
100
AcDbPolyline
 90
2
 70
0
 10
210.599378
 20
331.504590
 30
0.0
 10
220.274391
 20
328.222061
 30
0.0
  0
LWPOLYLINE
  5
17c
100
AcDbEntity
  8
0
 62
1
100
AcDbPolyline
 90
2
 70
0
 10
245.152994
 20
319.781271
 30
0.0
 10
235.477981
 20
323.063801
 30
0.0
  0
LWPOLYLINE
  5
17d
100
AcDbEntity
  8
0
 62
5
100
AcDbPolyline
 90
8
 70
0
 10
205.543520
 20
303.739010
 30
0.0
 10
209.082643
 20
323.174984
 30
0.0
 10
207.240164
 20
324.084209
 30
0.0
 10
207.468097
 20
326.911336
 30
0.0
 10
209.386830
 20
327.996266
 30
0.0
 10
209.285713
 20
327.440952
 30
0.0
 10
209.841028
 20
327.339834
 30
0.0
 10
210.599412
 20
331.504686
 30
0.0
  0
LWPOLYLINE
  5
17e
100
AcDbEntity
  8
0
 62
1
100
AcDbPolyline
 90
2
 70
0
 10
209.284880
 20
324.285610
 30
0.0
 10
209.638793
 20
326.229208
 30
0.0
  0
LWPOLYLINE
  5
17f
100
AcDbEntity
  8
0
 62
5
100
AcDbPolyline
 90
7
 70
0
 10
203.628577
 20
331.896222
 30
0.0
 10
206.482592
 20
331.524561
 30
0.0
 10
206.392503
 20
328.689695
 30
0.0
 10
204.498092
 20
327.429369
 30
0.0
 10
204.459795
 20
327.992513
 30
0.0
 10
203.896651
 20
327.954215
 30
0.0
 10
205.543401
 20
303.739031
 30
0.0
  0
LWPOLYLINE
  5
180
100
AcDbEntity
  8
0
 62
1
100
AcDbPolyline
 90
2
 70
0
 10
203.705169
 20
330.769935
 30
0.0
 10
203.820059
 20
329.080502
 30
0.0
  0
SPLINE
  5
181
100
AcDbEntity
  8
0
 62
5
100
AcDbSpline
 70
0
 71
3
 72
10
 73
6
 74
4
 40
0.000000
 40
0.000000
 40
0.000000
 40
0.000000
 40
2.579936
 40
5.017477
 40
6.112460
 40
6.112460
 40
6.112460
 40
6.112460
 10
247.348965
 20
311.272528
 30
0.0
 10
247.052851
 20
312.084127
 30
0.0
 10
246.476967
 20
313.662530
 30
0.0
 10
245.276381
 20
315.331333
 30
0.0
 10
244.533418
 20
316.243571
 30
0.0
 10
244.303121
 20
316.526339
 30
0.0
 11
247.348965
 21
311.272528
 31
0.0
 11
246.352321
 21
313.652186
 31
0.0
 11
244.989294
 21
315.673019
 31
0.0
 11
244.303121
 21
316.526339
 31
0.0
  0
SPLINE
  5
182
100
AcDbEntity
  8
0
 62
5
100
AcDbSpline
 70
0
 71
3
 72
10
 73
6
 74
4
 40
0.000000
 40
0.000000
 40
0.000000
 40
0.000000
 40
0.826909
 40
2.725064
 40
4.979463
 40
4.979463
 40
4.979463
 40
4.979463
 10
193.134649
 20
330.353014
 30
0.0
 10
193.027868
 20
330.606674
 30
0.0
 10
192.675972
 20
331.442606
 30
0.0
 10
191.814948
 20
332.903560
 30
0.0
 10
190.678870
 20
333.720573
 30
0.0
 10
190.062098
 20
334.164126
 30
0.0
 11
193.134649
 21
330.353014
 31
0.0
 11
192.803319
 21
331.110642
 31
0.0
 11
191.789201
 21
332.715183
 31
0.0
 11
190.062098
 21
334.164126
 31
0.0
  0
SPLINE
  5
183
100
AcDbEntity
  8
0
 62
5
100
AcDbSpline
 70
0
 71
3
 72
10
 73
6
 74
4
 40
0.000000
 40
0.000000
 40
0.000000
 40
0.000000
 40
3.779818
 40
7.752988
 40
11.532806
 40
11.532806
 40
11.532806
 40
11.532806
 10
190.062098
 20
334.164126
 30
0.0
 10
188.834033
 20
334.490705
 30
0.0
 10
186.315083
 20
335.160570
 30
0.0
 10
182.358502
 20
334.297100
 30
0.0
 10
180.347671
 20
332.638671
 30
0.0
 10
179.367330
 20
331.830137
 30
0.0
 11
190.062098
 21
334.164126
 31
0.0
 11
186.344418
 21
334.846677
 31
0.0
 11
182.462612
 21
333.999526
 31
0.0
 11
179.367330
 21
331.830137
 31
0.0
  0
LWPOLYLINE
  5
184
100
AcDbEntity
  8
0
 62
5
100
AcDbPolyline
 90
4
 70
0
 10
203.628526
 20
331.896219
 30
0.0
 10
191.151293
 20
329.173232
 30
0.0
 10
190.995695
 20
329.886218
 30
0.0
 10
193.134649
 20
330.353014
 30
0.0
  0
LWPOLYLINE
  5
185
100
AcDbEntity
  8
0
 62
5
100
AcDbPolyline
 90
4
 70
0
 10
178.161970
 20
327.085431
 30
0.0
 10
180.300924
 20
327.552229
 30
0.0
 10
180.456524
 20
326.839245
 30
0.0
 10
167.979290
 20
324.116259
 30
0.0
  0
LWPOLYLINE
  5
186
100
AcDbEntity
  8
0
 62
1
100
AcDbPolyline
 90
2
 70
0
 10
188.655847
 20
328.628636
 30
0.0
 10
182.951969
 20
327.383841
 30
0.0
  0
LWPOLYLINE
  5
187
100
AcDbEntity
  8
0
 62
5
100
AcDbPolyline
 90
5
 70
0
 10
167.979355
 20
324.115948
 30
0.0
 10
163.128466
 20
318.378314
 30
0.0
 10
173.267514
 20
298.807177
 30
0.0
 10
178.313035
 20
296.815502
 30
0.0
 10
180.896455
 20
289.990390
 30
0.0
  0
LWPOLYLINE
  5
188
100
AcDbEntity
  8
0
 62
5
100
AcDbPolyline
 90
4
 70
0
 10
170.036490
 20
321.773416
 30
0.0
 10
168.846895
 20
319.762539
 30
0.0
 10
173.497051
 20
307.477338
 30
0.0
 10
175.720014
 20
306.758171
 30
0.0
  0
LWPOLYLINE
  5
189
100
AcDbEntity
  8
0
 62
1
100
AcDbPolyline
 90
2
 70
0
 10
167.979355
 20
324.115948
 30
0.0
 10
169.012723
 20
321.385903
 30
0.0
  0
LWPOLYLINE
  5
18a
100
AcDbEntity
  8
0
 62
1
100
AcDbPolyline
 90
2
 70
0
 10
178.313035
 20
296.815502
 30
0.0
 10
174.696247
 20
306.370658
 30
0.0
  0
SPLINE
  5
18b
100
AcDbEntity
  8
0
 62
5
100
AcDbSpline
 70
0
 71
3
 72
10
 73
6
 74
4
 40
0.000000
 40
0.000000
 40
0.000000
 40
0.000000
 40
2.254399
 40
4.152553
 40
4.979462
 40
4.979462
 40
4.979462
 40
4.979462
 10
179.367330
 20
331.830137
 30
0.0
 10
178.991435
 20
331.169949
 30
0.0
 10
178.299044
 20
329.953898
 30
0.0
 10
178.124985
 20
328.267051
 30
0.0
 10
178.153360
 20
327.360515
 30
0.0
 10
178.161970
 20
327.085431
 30
0.0
 11
179.367330
 21
331.830137
 31
0.0
 11
178.400934
 21
329.793376
 31
0.0
 11
178.147523
 21
327.912214
 31
0.0
 11
178.161970
 21
327.085431
 31
0.0
  0
SPLINE
  5
18c
100
AcDbEntity
  8
0
 62
5
100
AcDbSpline
 70
0
 71
3
 72
10
 73
6
 74
4
 40
0.000000
 40
0.000000
 40
0.000000
 40
0.000000
 40
0.362626
 40
1.401028
 40
3.136335
 40
3.136335
 40
3.136335
 40
3.136335
 10
166.780489
 20
300.987648
 30
0.0
 10
166.802221
 20
301.106713
 30
0.0
 10
166.886183
 20
301.566726
 30
0.0
 10
166.794923
 20
302.628255
 30
0.0
 10
166.474417
 20
303.497963
 30
0.0
 10
166.273901
 20
304.042076
 30
0.0
 11
166.780489
 21
300.987648
 31
0.0
 11
166.837329
 21
301.345792
 31
0.0
 11
166.781592
 21
302.382697
 31
0.0
 11
166.273901
 21
304.042076
 31
0.0
  0
SPLINE
  5
18d
100
AcDbEntity
  8
0
 62
5
100
AcDbSpline
 70
0
 71
3
 72
10
 73
6
 74
4
 40
0.000000
 40
0.000000
 40
0.000000
 40
0.000000
 40
3.380429
 40
6.968739
 40
10.279402
 40
10.279402
 40
10.279402
 40
10.279402
 10
166.273901
 20
304.042076
 30
0.0
 10
165.623837
 20
304.962720
 30
0.0
 10
164.283734
 20
306.860624
 30
0.0
 10
162.146945
 20
309.541236
 30
0.0
 10
160.669275
 20
311.303198
 30
0.0
 10
159.960175
 20
312.148724
 30
0.0
 11
166.273901
 21
304.042076
 31
0.0
 11
164.298180
 21
306.785036
 31
0.0
 11
162.077443
 21
309.603598
 31
0.0
 11
159.960175
 21
312.148724
 31
0.0
  0
LWPOLYLINE
  5
18e
100
AcDbEntity
  8
0
 62
5
100
AcDbPolyline
 90
4
 70
0
 10
180.896664
 20
289.990469
 30
0.0
 10
164.575343
 20
301.668065
 30
0.0
 10
164.999980
 20
302.261568
 30
0.0
 10
166.780489
 20
300.987648
 30
0.0
  0
LWPOLYLINE
  5
18f
100
AcDbEntity
  8
0
 62
5
100
AcDbPolyline
 90
4
 70
0
 10
154.316935
 20
309.905085
 30
0.0
 10
156.097441
 20
308.631166
 30
0.0
 10
155.672801
 20
308.037663
 30
0.0
 10
151.221533
 20
311.222462
 30
0.0
  0
LWPOLYLINE
  5
190
100
AcDbEntity
  8
0
 62
1
100
AcDbPolyline
 90
2
 70
0
 10
162.498083
 20
303.154305
 30
0.0
 10
157.750061
 20
306.551424
 30
0.0
  0
LWPOLYLINE
  5
191
100
AcDbEntity
  8
0
 62
5
100
AcDbPolyline
 90
4
 70
0
 10
134.564405
 20
278.758234
 30
0.0
 10
131.727626
 20
288.415952
 30
0.0
 10
141.721925
 20
307.894521
 30
0.0
 10
151.221573
 20
311.222516
 30
0.0
  0
LWPOLYLINE
  5
192
100
AcDbEntity
  8
0
 62
5
100
AcDbPolyline
 90
4
 70
0
 10
140.202341
 20
287.348518
 30
0.0
 10
139.245413
 20
289.479947
 30
0.0
 10
145.241992
 20
301.167089
 30
0.0
 10
147.531495
 20
301.632802
 30
0.0
  0
LWPOLYLINE
  5
193
100
AcDbEntity
  8
0
 62
1
100
AcDbPolyline
 90
2
 70
0
 10
134.564405
 20
278.758234
 30
0.0
 10
139.228412
 20
287.848233
 30
0.0
  0
LWPOLYLINE
  5
194
100
AcDbEntity
  8
0
 62
1
100
AcDbPolyline
 90
2
 70
0
 10
151.221573
 20
311.222516
 30
0.0
 10
146.557565
 20
302.132516
 30
0.0
  0
LWPOLYLINE
  5
195
100
AcDbEntity
  8
0
 62
5
100
AcDbPolyline
 90
8
 70
0
 10
161.290195
 20
269.690707
 30
0.0
 10
142.582039
 20
276.038029
 30
0.0
 10
141.412790
 20
274.348566
 30
0.0
 10
138.649521
 20
274.988067
 30
0.0
 10
137.857278
 20
277.045003
 30
0.0
 10
138.391798
 20
276.863651
 30
0.0
 10
138.573149
 20
277.398170
 30
0.0
 10
134.564258
 20
278.758310
 30
0.0
  0
LWPOLYLINE
  5
196
100
AcDbEntity
  8
0
 62
1
100
AcDbPolyline
 90
2
 70
0
 10
141.513001
 20
276.400733
 30
0.0
 10
139.642187
 20
277.035466
 30
0.0
  0
LWPOLYLINE
  5
197
100
AcDbEntity
  8
0
 62
5
100
AcDbPolyline
 90
7
 70
0
 10
133.156246
 20
271.920014
 30
0.0
 10
133.941874
 20
274.688812
 30
0.0
 10
136.732967
 20
274.184523
 30
0.0
 10
137.702259
 20
272.125971
 30
0.0
 10
137.139581
 20
272.170561
 30
0.0
 10
137.094990
 20
271.607884
 30
0.0
 10
161.290127
 20
269.690513
 30
0.0
  0
LWPOLYLINE
  5
198
100
AcDbEntity
  8
0
 62
1
100
AcDbPolyline
 90
2
 70
0
 10
134.281601
 20
271.830834
 30
0.0
 10
135.969635
 20
271.697064
 30
0.0
  0
LWPOLYLINE
  5
199
100
AcDbEntity
  8
0
 62
5
100
AcDbPolyline
 90
8
 70
0
 10
105.583076
 20
265.902599
 30
0.0
 10
124.884299
 20
270.114829
 30
0.0
 10
125.014541
 20
272.165301
 30
0.0
 10
127.711683
 20
273.042780
 30
0.0
 10
129.451391
 20
271.689262
 30
0.0
 10
128.899926
 20
271.568913
 30
0.0
 10
129.020276
 20
271.017449
 30
0.0
 10
133.156254
 20
271.920070
 30
0.0
  0
LWPOLYLINE
  5
19a
100
AcDbEntity
  8
0
 62
1
100
AcDbPolyline
 90
2
 70
0
 10
125.987226
 20
270.355528
 30
0.0
 10
127.917349
 20
270.776750
 30
0.0
  0
LWPOLYLINE
  5
19b
100
AcDbEntity
  8
0
 62
5
100
AcDbPolyline
 90
7
 70
0
 10
130.835259
 20
278.504591
 30
0.0
 10
131.590452
 20
275.727334
 30
0.0
 10
128.939217
 20
274.719620
 30
0.0
 10
127.046967
 20
275.983174
 30
0.0
 10
127.552010
 20
276.235221
 30
0.0
 10
127.299963
 20
276.740263
 30
0.0
 10
105.583152
 20
265.902247
 30
0.0
  0
LWPOLYLINE
  5
19c
100
AcDbEntity
  8
0
 62
1
100
AcDbPolyline
 90
2
 70
0
 10
129.825174
 20
278.000497
 30
0.0
 10
128.310047
 20
277.244357
 30
0.0
  0
SPLINE
  5
19d
100
AcDbEntity
  8
0
 62
5
100
AcDbSpline
 70
0
 71
3
 72
10
 73
6
 74
4
 40
0.000000
 40
0.000000
 40
0.000000
 40
0.000000
 40
2.579949
 40
5.017503
 40
6.112492
 40
6.112492
 40
6.112492
 40
6.112492
 10
159.960175
 20
312.148724
 30
0.0
 10
159.113958
 20
311.974654
 30
0.0
 10
157.468229
 20
311.636122
 30
0.0
 10
155.641591
 20
310.692857
 30
0.0
 10
154.630382
 20
310.091492
 30
0.0
 10
154.316935
 20
309.905085
 30
0.0
 11
159.960175
 21
312.148724
 31
0.0
 11
157.460208
 21
311.511304
 31
0.0
 11
155.261545
 21
310.458901
 31
0.0
 11
154.316935
 21
309.905085
 31
0.0
  0
SPLINE
  5
19e
100
AcDbEntity
  8
0
 62
5
100
AcDbSpline
 70
0
 71
3
 72
10
 73
6
 74
4
 40
0.000000
 40
0.000000
 40
0.000000
 40
0.000000
 40
0.826910
 40
2.725065
 40
4.979467
 40
4.979467
 40
4.979467
 40
4.979467
 10
116.595099
 20
300.158888
 30
0.0
 10
116.845688
 20
300.272691
 30
0.0
 10
117.671498
 20
300.647726
 30
0.0
 10
119.295431
 20
301.136187
 30
0.0
 10
120.684281
 20
300.965064
 30
0.0
 10
121.438281
 20
300.872163
 30
0.0
 11
116.595099
 21
300.158888
 31
0.0
 11
117.352657
 21
300.490378
 31
0.0
 11
119.186478
 21
300.980373
 31
0.0
 11
121.438281
 21
300.872163
 31
0.0
  0
SPLINE
  5
19f
100
AcDbEntity
  8
0
 62
5
100
AcDbSpline
 70
0
 71
3
 72
10
 73
6
 74
4
 40
0.000000
 40
0.000000
 40
0.000000
 40
0.000000
 40
3.779823
 40
7.752997
 40
11.532820
 40
11.532820
 40
11.532820
 40
11.532820
 10
121.438281
 20
300.872163
 30
0.0
 10
122.561802
 20
300.278444
 30
0.0
 10
124.866316
 20
299.060635
 30
0.0
 10
127.185833
 20
295.740997
 30
0.0
 10
127.536872
 20
293.158244
 30
0.0
 10
127.708014
 20
291.899072
 30
0.0
 11
121.438281
 21
300.872163
 31
0.0
 11
124.631718
 21
298.850031
 31
0.0
 11
126.907399
 21
295.593132
 31
0.0
 11
127.708014
 21
291.899072
 31
0.0
  0
LWPOLYLINE
  5
1a0
100
AcDbEntity
  8
0
 62
5
100
AcDbPolyline
 90
4
 70
0
 10
109.936153
 20
308.414893
 30
0.0
 10
117.250839
 20
297.946288
 30
0.0
 10
117.849046
 20
298.364270
 30
0.0
 10
116.595099
 20
300.158888
 30
0.0
  0
LWPOLYLINE
  5
1a1
100
AcDbEntity
  8
0
 62
5
100
AcDbPolyline
 90
4
 70
0
 10
125.372724
 20
287.596562
 30
0.0
 10
124.118776
 20
289.391180
 30
0.0
 10
123.520570
 20
288.973198
 30
0.0
 10
130.835256
 20
278.504593
 30
0.0
  0
LWPOLYLINE
  5
1a2
100
AcDbEntity
  8
0
 62
1
100
AcDbPolyline
 90
2
 70
0
 10
118.713778
 20
295.852567
 30
0.0
 10
122.057634
 20
291.066919
 30
0.0
  0
LWPOLYLINE
  5
1a3
100
AcDbEntity
  8
0
 62
5
100
AcDbPolyline
 90
5
 70
0
 10
109.936145
 20
308.414888
 30
0.0
 10
102.773694
 20
310.684391
 30
0.0
 10
88.611123
 20
293.795069
 30
0.0
 10
88.714340
 20
288.371668
 30
0.0
 10
83.408890
 20
283.360863
 30
0.0
  0
LWPOLYLINE
  5
1a4
100
AcDbEntity
  8
0
 62
5
100
AcDbPolyline
 90
4
 70
0
 10
108.565586
 20
305.614748
 30
0.0
 10
106.251796
 20
305.938950
 30
0.0
 10
96.701983
 20
296.919501
 30
0.0
 10
96.893594
 20
294.590977
 30
0.0
  0
LWPOLYLINE
  5
1a5
100
AcDbEntity
  8
0
 62
1
100
AcDbPolyline
 90
2
 70
0
 10
109.936145
 20
308.414888
 30
0.0
 10
107.813966
 20
306.410566
 30
0.0
  0
LWPOLYLINE
  5
1a6
100
AcDbEntity
  8
0
 62
1
100
AcDbPolyline
 90
2
 70
0
 10
88.714340
 20
288.371668
 30
0.0
 10
96.141972
 20
295.386795
 30
0.0
  0
SPLINE
  5
1a7
100
AcDbEntity
  8
0
 62
5
100
AcDbSpline
 70
0
 71
3
 72
10
 73
6
 74
4
 40
0.000000
 40
0.000000
 40
0.000000
 40
0.000000
 40
2.254402
 40
4.152557
 40
4.979467
 40
4.979467
 40
4.979467
 40
4.979467
 10
127.708014
 20
291.899072
 30
0.0
 10
127.535957
 20
291.159111
 30
0.0
 10
127.219033
 20
289.796119
 30
0.0
 10
126.201909
 20
288.439205
 30
0.0
 10
125.565760
 20
287.792732
 30
0.0
 10
125.372724
 20
287.596562
 30
0.0
 11
127.708014
 21
291.899072
 31
0.0
 11
127.035254
 21
289.747394
 31
0.0
 11
125.944512
 21
288.193921
 31
0.0
 11
125.372724
 21
287.596562
 31
0.0
  0
SPLINE
  5
1a8
100
AcDbEntity
  8
0
 62
5
100
AcDbSpline
 70
0
 71
3
 72
10
 73
6
 74
4
 40
0.000000
 40
0.000000
 40
0.000000
 40
0.000000
 40
0.362624
 40
1.401022
 40
3.136322
 40
3.136322
 40
3.136322
 40
3.136322
 10
88.127445
 20
300.621674
 30
0.0
 10
88.245703
 20
300.647432
 30
0.0
 10
88.702602
 20
300.746947
 30
0.0
 10
89.647273
 20
301.239655
 30
0.0
 10
90.326681
 20
301.870142
 30
0.0
 10
90.751736
 20
302.264593
 30
0.0
 11
88.127445
 21
300.621674
 31
0.0
 11
88.479881
 21
300.707025
 31
0.0
 11
89.415494
 21
301.157468
 31
0.0
 11
90.751736
 21
302.264593
 31
0.0
  0
SPLINE
  5
1a9
100
AcDbEntity
  8
0
 62
5
100
AcDbSpline
 70
0
 71
3
 72
10
 73
6
 74
4
 40
0.000000
 40
0.000000
 40
0.000000
 40
0.000000
 40
3.380419
 40
6.968717
 40
10.279370
 40
10.279370
 40
10.279370
 40
10.279370
 10
90.751736
 20
302.264593
 30
0.0
 10
91.351345
 20
303.218862
 30
0.0
 10
92.587435
 20
305.186084
 30
0.0
 10
94.239401
 20
308.189829
 30
0.0
 10
95.297082
 20
310.231713
 30
0.0
 10
95.804640
 20
311.211568
 30
0.0
 11
90.751736
 21
302.264593
 31
0.0
 11
92.523227
 21
305.143664
 31
0.0
 11
94.270216
 21
308.277976
 31
0.0
 11
95.804640
 21
311.211568
 31
0.0
  0
LWPOLYLINE
  5
1aa
100
AcDbEntity
  8
0
 62
5
100
AcDbPolyline
 90
4
 70
0
 10
83.408960
 20
283.360790
 30
0.0
 10
87.906931
 20
302.918843
 30
0.0
 10
88.618131
 20
302.755280
 30
0.0
 10
88.127445
 20
300.621674
 30
0.0
  0
LWPOLYLINE
  5
1ab
100
AcDbEntity
  8
0
 62
5
100
AcDbPolyline
 90
4
 70
0
 10
91.562256
 20
315.556915
 30
0.0
 10
91.071570
 20
313.423309
 30
0.0
 10
90.360367
 20
313.586871
 30
0.0
 10
91.587086
 20
318.920886
 30
0.0
  0
LWPOLYLINE
  5
1ac
100
AcDbEntity
  8
0
 62
1
100
AcDbPolyline
 90
2
 70
0
 10
88.479399
 20
305.408049
 30
0.0
 10
89.787899
 20
311.097665
 30
0.0
  0
LWPOLYLINE
  5
1ad
100
AcDbEntity
  8
0
 62
5
100
AcDbPolyline
 90
4
 70
0
 10
91.587193
 20
318.920860
 30
0.0
 10
84.859983
 20
326.408515
 30
0.0
 10
63.035307
 20
328.138035
 30
0.0
 10
55.212734
 20
321.803395
 30
0.0
  0
LWPOLYLINE
  5
1ae
100
AcDbEntity
  8
0
 62
5
100
AcDbPolyline
 90
4
 70
0
 10
81.315868
 20
318.636736
 30
0.0
 10
80.005016
 20
320.570760
 30
0.0
 10
66.910212
 20
321.608473
 30
0.0
 10
65.311107
 20
319.905051
 30
0.0
  0
LWPOLYLINE
  5
1af
100
AcDbEntity
  8
0
 62
1
100
AcDbPolyline
 90
2
 70
0
 10
91.587193
 20
318.920860
 30
0.0
 10
81.402343
 20
319.727970
 30
0.0
  0
LWPOLYLINE
  5
1b0
100
AcDbEntity
  8
0
 62
1
100
AcDbPolyline
 90
2
 70
0
 10
55.212734
 20
321.803395
 30
0.0
 10
65.397583
 20
320.996285
 30
0.0
  0
LWPOLYLINE
  5
1b1
100
AcDbEntity
  8
0
 62
5
100
AcDbPolyline
 90
8
 70
0
 10
57.127529
 20
293.646088
 30
0.0
 10
55.787157
 20
313.356023
 30
0.0
 10
53.777868
 20
313.785127
 30
0.0
 10
53.304818
 20
316.581684
 30
0.0
 10
54.898499
 20
318.104426
 30
0.0
 10
54.936796
 20
317.541285
 30
0.0
 10
55.499937
 20
317.579581
 30
0.0
 10
55.212714
 20
321.803139
 30
0.0
  0
LWPOLYLINE
  5
1b2
100
AcDbEntity
  8
0
 62
1
100
AcDbPolyline
 90
2
 70
0
 10
55.710565
 20
314.482306
 30
0.0
 10
55.576529
 20
316.453299
 30
0.0
  0
LWPOLYLINE
  5
1b3
100
AcDbEntity
  8
0
 62
5
100
AcDbPolyline
 90
7
 70
0
 10
48.359181
 20
320.471484
 30
0.0
 10
51.217088
 20
320.811817
 30
0.0
 10
51.825675
 20
318.041594
 30
0.0
 10
50.298635
 20
316.354789
 30
0.0
 10
50.123265
 20
316.891297
 30
0.0
 10
49.586758
 20
316.715929
 30
0.0
 10
57.127589
 20
293.646091
 30
0.0
  0
LWPOLYLINE
  5
1b4
100
AcDbEntity
  8
0
 62
1
100
AcDbPolyline
 90
2
 70
0
 10
48.709916
 20
319.398468
 30
0.0
 10
49.236020
 20
317.788945
 30
0.0
  0
SPLINE
  5
1b5
100
AcDbEntity
  8
0
 62
5
100
AcDbSpline
 70
0
 71
3
 72
10
 73
6
 74
4
 40
0.000000
 40
0.000000
 40
0.000000
 40
0.000000
 40
2.579942
 40
5.017489
 40
6.112474
 40
6.112474
 40
6.112474
 40
6.112474
 10
95.804640
 20
311.211568
 30
0.0
 10
95.318350
 20
311.925642
 30
0.0
 10
94.372611
 20
313.314379
 30
0.0
 10
92.799093
 20
314.637394
 30
0.0
 10
91.854922
 20
315.339333
 30
0.0
 10
91.562256
 20
315.556915
 30
0.0
 11
95.804640
 21
311.211568
 31
0.0
 11
94.254318
 21
313.273753
 31
0.0
 11
92.436911
 21
314.898150
 31
0.0
 11
91.562256
 21
315.556915
 31
0.0
  0
SPLINE
  5
1b6
100
AcDbEntity
  8
0
 62
5
100
AcDbSpline
 70
0
 71
3
 72
10
 73
6
 74
4
 40
0.000000
 40
0.000000
 40
0.000000
 40
0.000000
 40
0.826910
 40
2.725065
 40
4.979466
 40
4.979466
 40
4.979466
 40
4.979466
 10
24.852993
 20
309.556049
 30
0.0
 10
24.777115
 20
309.820602
 30
0.0
 10
24.527059
 20
310.692431
 30
0.0
 10
24.281682
 20
312.370389
 30
0.0
 10
24.654350
 20
313.719205
 30
0.0
 10
24.856670
 20
314.451471
 30
0.0
 11
24.852993
 21
309.556049
 31
0.0
 11
24.636018
 21
310.353985
 31
0.0
 11
24.419860
 21
312.239792
 31
0.0
 11
24.856670
 21
314.451471
 31
0.0
  0
SPLINE
  5
1b7
100
AcDbEntity
  8
0
 62
5
100
AcDbSpline
 70
0
 71
3
 72
10
 73
6
 74
4
 40
0.000000
 40
0.000000
 40
0.000000
 40
0.000000
 40
3.779822
 40
7.752996
 40
11.532818
 40
11.532818
 40
11.532818
 40
11.532818
 10
24.856670
 20
314.451471
 30
0.0
 10
25.608523
 20
315.475931
 30
0.0
 10
27.150688
 20
317.577256
 30
0.0
 10
30.774219
 20
319.385619
 30
0.0
 10
33.380535
 20
319.354639
 30
0.0
 10
34.651194
 20
319.339535
 30
0.0
 11
24.856670
 21
314.451471
 31
0.0
 11
27.324665
 21
317.314346
 31
0.0
 11
30.879715
 21
319.088532
 31
0.0
 11
34.651194
 21
319.339535
 31
0.0
  0
LWPOLYLINE
  5
1b8
100
AcDbEntity
  8
0
 62
5
100
AcDbPolyline
 90
4
 70
0
 10
15.710827
 20
304.177952
 30
0.0
 10
27.137768
 20
309.880694
 30
0.0
 10
26.811897
 20
310.533662
 30
0.0
 10
24.852993
 20
309.556049
 30
0.0
  0
LWPOLYLINE
  5
1b9
100
AcDbEntity
  8
0
 62
5
100
AcDbPolyline
 90
4
 70
0
 10
38.565322
 20
316.399340
 30
0.0
 10
36.606418
 20
315.421727
 30
0.0
 10
36.932289
 20
314.768759
 30
0.0
 10
48.359229
 20
320.471501
 30
0.0
  0
LWPOLYLINE
  5
1ba
100
AcDbEntity
  8
0
 62
1
100
AcDbPolyline
 90
2
 70
0
 10
29.423157
 20
311.021243
 30
0.0
 10
34.646901
 20
313.628210
 30
0.0
  0
LWPOLYLINE
  5
1bb
100
AcDbEntity
  8
0
 62
5
100
AcDbPolyline
 90
5
 70
0
 10
15.710819
 20
304.177972
 30
0.0
 10
12.416863
 20
297.425079
 30
0.0
 10
27.050100
 20
280.941775
 30
0.0
 10
32.430164
 20
280.249644
 30
0.0
 10
36.609999
 20
274.267562
 30
0.0
  0
LWPOLYLINE
  5
1bc
100
AcDbEntity
  8
0
 62
5
100
AcDbPolyline
 90
4
 70
0
 10
18.280065
 20
302.412115
 30
0.0
 10
17.620512
 20
300.170739
 30
0.0
 10
25.144217
 20
289.402992
 30
0.0
 10
27.475705
 20
289.251534
 30
0.0
  0
LWPOLYLINE
  5
1bd
100
AcDbEntity
  8
0
 62
1
100
AcDbPolyline
 90
2
 70
0
 10
15.710819
 20
304.177972
 30
0.0
 10
17.382753
 20
301.785139
 30
0.0
  0
LWPOLYLINE
  5
1be
100
AcDbEntity
  8
0
 62
1
100
AcDbPolyline
 90
2
 70
0
 10
32.430164
 20
280.249644
 30
0.0
 10
26.578393
 20
288.624559
 30
0.0
  0
SPLINE
  5
1bf
100
AcDbEntity
  8
0
 62
5
100
AcDbSpline
 70
0
 71
3
 72
10
 73
6
 74
4
 40
0.000000
 40
0.000000
 40
0.000000
 40
0.000000
 40
2.254400
 40
4.152555
 40
4.979465
 40
4.979465
 40
4.979465
 40
4.979465
 10
34.651194
 20
319.339535
 30
0.0
 10
35.357980
 20
319.060970
 30
0.0
 10
36.659864
 20
318.547858
 30
0.0
 10
37.853194
 20
317.342987
 30
0.0
 10
38.399537
 20
316.619024
 30
0.0
 10
38.565322
 20
316.399340
 30
0.0
 11
34.651194
 21
319.339535
 31
0.0
 11
36.681150
 21
318.358925
 31
0.0
 11
38.058139
 21
317.052444
 31
0.0
 11
38.565322
 21
316.399340
 31
0.0
  0
SPLINE
  5
1c0
100
AcDbEntity
  8
0
 62
5
100
AcDbSpline
 70
0
 71
3
 72
10
 73
6
 74
4
 40
0.000000
 40
0.000000
 40
0.000000
 40
0.000000
 40
0.362626
 40
1.401027
 40
3.136334
 40
3.136334
 40
3.136334
 40
3.136334
 10
20.226239
 20
281.463094
 30
0.0
 10
20.218079
 20
281.583850
 30
0.0
 10
20.186549
 20
282.050398
 30
0.0
 10
19.837502
 20
283.057045
 30
0.0
 10
19.313310
 20
283.821466
 30
0.0
 10
18.985361
 20
284.299708
 30
0.0
 11
20.226239
 21
281.463094
 31
0.0
 11
20.193424
 21
281.824232
 31
0.0
 11
19.884858
 21
282.815728
 31
0.0
 11
18.985361
 21
284.299708
 31
0.0
  0
SPLINE
  5
1c1
100
AcDbEntity
  8
0
 62
5
100
AcDbSpline
 70
0
 71
3
 72
10
 73
6
 74
4
 40
0.000000
 40
0.000000
 40
0.000000
 40
0.000000
 40
3.380429
 40
6.968738
 40
10.279401
 40
10.279401
 40
10.279401
 40
10.279401
 10
18.985361
 20
284.299708
 30
0.0
 10
18.129191
 20
285.032607
 30
0.0
 10
16.364201
 20
286.543476
 30
0.0
 10
13.634766
 20
288.617536
 30
0.0
 10
11.769789
 20
289.962853
 30
0.0
 10
10.874828
 20
290.608440
 30
0.0
 11
18.985361
 21
284.299708
 31
0.0
 11
16.396760
 21
286.473747
 31
0.0
 11
13.552081
 21
288.660929
 31
0.0
 11
10.874828
 21
290.608440
 31
0.0
  0
LWPOLYLINE
  5
1c2
100
AcDbEntity
  8
0
 62
5
100
AcDbPolyline
 90
4
 70
0
 10
36.610042
 20
274.267593
 30
0.0
 10
17.921538
 20
281.581380
 30
0.0
 10
18.187493
 20
282.260962
 30
0.0
 10
20.226239
 20
281.463094
 30
0.0
  0
LWPOLYLINE
  5
1c3
100
AcDbEntity
  8
0
 62
5
100
AcDbPolyline
 90
4
 70
0
 10
5.955018
 20
287.048168
 30
0.0
 10
7.993764
 20
286.250300
 30
0.0
 10
7.727808
 20
285.570718
 30
0.0
 10
2.630943
 20
287.565388
 30
0.0
  0
LWPOLYLINE
  5
1c4
100
AcDbEntity
  8
0
 62
1
100
AcDbPolyline
 90
2
 70
0
 10
15.543001
 20
282.512226
 30
0.0
 10
10.106345
 20
284.639873
 30
0.0
  0
LWPOLYLINE
  5
1c5
100
AcDbEntity
  8
0
 62
5
100
AcDbPolyline
 90
4
 70
0
 10
2.630923
 20
287.565334
 30
0.0
 10
-5.761123
 20
282.007220
 30
0.0
 10
-10.668096
 20
260.671255
 30
0.0
 10
-5.547364
 20
252.005393
 30
0.0
  0
LWPOLYLINE
  5
1c6
100
AcDbEntity
  8
0
 62
5
100
AcDbPolyline
 90
4
 70
0
 10
1.407801
 20
277.363202
 30
0.0
 10
-0.697328
 20
276.349718
 30
0.0
 10
-3.641511
 20
263.548141
 30
0.0
 10
-2.190646
 20
261.716829
 30
0.0
  0
LWPOLYLINE
  5
1c7
100
AcDbEntity
  8
0
 62
1
100
AcDbPolyline
 90
2
 70
0
 10
2.630923
 20
287.565334
 30
0.0
 10
0.341002
 20
277.608550
 30
0.0
  0
LWPOLYLINE
  5
1c8
100
AcDbEntity
  8
0
 62
1
100
AcDbPolyline
 90
2
 70
0
 10
-5.547364
 20
252.005393
 30
0.0
 10
-3.257444
 20
261.962176
 30
0.0
  0
LWPOLYLINE
  5
1c9
100
AcDbEntity
  8
0
 62
1
100
AcDbPolyline
 90
2
 70
0
 10
22.586718
 20
249.775761
 30
0.0
 10
36.610059
 20
274.267570
 30
0.0
  0
LWPOLYLINE
  5
1ca
100
AcDbEntity
  8
0
 62
1
100
AcDbPolyline
 90
2
 70
0
 10
22.586718
 20
249.775761
 30
0.0
 10
38.751561
 20
226.641441
 30
0.0
  0
LWPOLYLINE
  5
1cb
100
AcDbEntity
  8
0
 62
1
100
AcDbPolyline
 90
2
 70
0
 10
36.610059
 20
274.267570
 30
0.0
 10
57.127614
 20
293.646077
 30
0.0
  0
LWPOLYLINE
  5
1cc
100
AcDbEntity
  8
0
 62
1
100
AcDbPolyline
 90
2
 70
0
 10
36.610059
 20
274.267570
 30
0.0
 10
65.278756
 20
251.695437
 30
0.0
  0
LWPOLYLINE
  5
1cd
100
AcDbEntity
  8
0
 62
1
100
AcDbPolyline
 90
2
 70
0
 10
38.751561
 20
226.641441
 30
0.0
 10
60.925479
 20
209.182892
 30
0.0
  0
LWPOLYLINE
  5
1ce
100
AcDbEntity
  8
0
 62
1
100
AcDbPolyline
 90
2
 70
0
 10
38.751561
 20
226.641441
 30
0.0
 10
65.278756
 20
251.695437
 30
0.0
  0
LWPOLYLINE
  5
1cf
100
AcDbEntity
  8
0
 62
1
100
AcDbPolyline
 90
2
 70
0
 10
57.127614
 20
293.646077
 30
0.0
 10
83.408994
 20
283.360770
 30
0.0
  0
LWPOLYLINE
  5
1d0
100
AcDbEntity
  8
0
 62
1
100
AcDbPolyline
 90
2
 70
0
 10
60.925479
 20
209.182892
 30
0.0
 10
86.177876
 20
221.785243
 30
0.0
  0
LWPOLYLINE
  5
1d1
100
AcDbEntity
  8
0
 62
1
100
AcDbPolyline
 90
3
 70
0
 10
65.278756
 20
251.695437
 30
0.0
 10
83.408994
 20
283.360770
 30
0.0
 10
105.583194
 20
265.902221
 30
0.0
  0
LWPOLYLINE
  5
1d2
100
AcDbEntity
  8
0
 62
1
100
AcDbPolyline
 90
2
 70
0
 10
99.257747
 20
238.397972
 30
0.0
 10
105.583194
 20
265.902221
 30
0.0
  0
LWPOLYLINE
  5
1d3
100
AcDbEntity
  8
0
 62
1
100
AcDbPolyline
 90
2
 70
0
 10
133.156305
 20
271.920046
 30
0.0
 10
135.631959
 20
235.515637
 30
0.0
  0
LWPOLYLINE
  5
1d4
100
AcDbEntity
  8
0
 62
1
100
AcDbPolyline
 90
2
 70
0
 10
161.290192
 20
269.690490
 30
0.0
 10
171.281141
 20
243.295939
 30
0.0
  0
LWPOLYLINE
  5
1d5
100
AcDbEntity
  8
0
 62
1
100
AcDbPolyline
 90
3
 70
0
 10
161.290192
 20
269.690490
 30
0.0
 10
180.896734
 20
289.990452
 30
0.0
 10
203.147134
 20
261.071423
 30
0.0
  0
LWPOLYLINE
  5
1d6
100
AcDbEntity
  8
0
 62
1
100
AcDbPolyline
 90
2
 70
0
 10
180.896734
 20
289.990452
 30
0.0
 10
205.543483
 20
303.738908
 30
0.0
  0
LWPOLYLINE
  5
1d7
100
AcDbEntity
  8
0
 62
1
100
AcDbPolyline
 90
2
 70
0
 10
186.489814
 20
228.607119
 30
0.0
 10
213.215694
 20
219.539319
 30
0.0
  0
LWPOLYLINE
  5
1d8
100
AcDbEntity
  8
0
 62
1
100
AcDbPolyline
 90
2
 70
0
 10
203.147134
 20
261.071423
 30
0.0
 10
228.495770
 20
287.316961
 30
0.0
  0
LWPOLYLINE
  5
1d9
100
AcDbEntity
  8
0
 62
1
100
AcDbPolyline
 90
2
 70
0
 10
203.147134
 20
261.071423
 30
0.0
 10
232.821954
 20
239.839281
 30
0.0
  0
LWPOLYLINE
  5
1da
100
AcDbEntity
  8
0
 62
1
100
AcDbPolyline
 90
2
 70
0
 10
205.543483
 20
303.738908
 30
0.0
 10
228.495770
 20
287.316961
 30
0.0
  0
LWPOLYLINE
  5
1db
100
AcDbEntity
  8
0
 62
1
100
AcDbPolyline
 90
2
 70
0
 10
213.215694
 20
219.539319
 30
0.0
 10
232.821954
 20
239.839281
 30
0.0
  0
LWPOLYLINE
  5
1dc
100
AcDbEntity
  8
0
 62
1
100
AcDbPolyline
 90
2
 70
0
 10
228.495770
 20
287.316961
 30
0.0
 10
245.705681
 20
264.949157
 30
0.0
  0
SPLINE
  5
1dd
100
AcDbEntity
  8
0
 62
5
100
AcDbSpline
 70
0
 71
3
 72
10
 73
6
 74
4
 40
0.000000
 40
0.000000
 40
0.000000
 40
0.000000
 40
2.579949
 40
5.017504
 40
6.112492
 40
6.112492
 40
6.112492
 40
6.112492
 10
10.874828
 20
290.608440
 30
0.0
 10
10.097233
 20
290.231970
 30
0.0
 10
8.584962
 20
289.499808
 30
0.0
 10
7.045764
 20
288.137008
 30
0.0
 10
6.213116
 20
287.305815
 30
0.0
 10
5.955018
 20
287.048168
 30
0.0
 11
10.874828
 21
290.608440
 31
0.0
 11
8.607826
 21
289.376840
 31
0.0
 11
6.734776
 21
287.816918
 31
0.0
 11
5.955018
 21
287.048168
 31
0.0
  0
LWPOLYLINE
  5
1de
100
AcDbEntity
  8
0
 62
1
100
AcDbPolyline
 90
2
 70
0
 10
232.821954
 20
239.839281
 30
0.0
 10
245.705681
 20
264.949157
 30
0.0
  0
ENDSEC
  0
SECTION
  2
OBJECTS
  0
DICTIONARY
  5
C
330
0
100
AcDbDictionary
  3
ACAD_GROUP
350
D
  3
ACAD_MLINESTYLE
350
17
  0
DICTIONARY
  5
D
330
C
100
AcDbDictionary
  0
DICTIONARY
  5
1A
330
C
100
AcDbDictionary
  0
DICTIONARY
  5
17
330
C
100
AcDbDictionary
  3
STANDARD
350
18
  0
DICTIONARY
  5
19
330
C
100
AcDbDictionary
  0
ENDSEC
  0
EOF
