999
DXF created by Inkscape
  0
SECTION
  2
HEADER
  9
$ACADVER
  1
AC1014
  9
$HANDSEED
  5
FFFF
  9
$MEASUREMENT
 70
     1
  0
ENDSEC
  0
SECTION
  2
TABLES
  0
TABLE
  2
VPORT
  5
8
330
0
100
AcDbSymbolTable
 70
     4
  0
VPORT
  5
2E
330
8
100
AcDbSymbolTableRecord
100
AcDbViewportTableRecord
  2
*ACTIVE
 70
     0
 10
0.0
 20
0.0
 11
1.0
 21
1.0
 12
210.0
 22
148.5
 13
0.0
 23
0.0
 14
10.0
 24
10.0
 15
10.0
 25
10.0
 16
0.0
 26
0.0
 36
1.0
 17
0.0
 27
0.0
 37
0.0
 40
341.0
 41
1.24
 42
50.0
 43
0.0
 44
0.0
 50
0.0
 51
0.0
 71
     0
 72
   100
 73
     1
 74
     3
 75
     0
 76
     0
 77
     0
 78
     0
  0
ENDTAB
  0
TABLE
  2
LTYPE
  5
5
330
0
100
AcDbSymbolTable
 70
     1
  0
LTYPE
  5
14
330
5
100
AcDbSymbolTableRecord
100
AcDbLinetypeTableRecord
  2
BYBLOCK
 70
     0
  3

 72
    65
 73
     0
 40
0.0
  0
LTYPE
  5
15
330
5
100
AcDbSymbolTableRecord
100
AcDbLinetypeTableRecord
  2
BYLAYER
 70
     0
  3

 72
    65
 73
     0
 40
0.0
  0
LTYPE
  5
16
330
5
100
AcDbSymbolTableRecord
100
AcDbLinetypeTableRecord
  2
CONTINUOUS
 70
     0
  3
Solid line
 72
    65
 73
     0
 40
0.0
  0
ENDTAB
  0
TABLE
  2
LAYER
  5
2
330
0
100
AcDbSymbolTable
 70
1
  0
LAYER
  5
10
330
2
100
AcDbSymbolTableRecord
100
AcDbLayerTableRecord
  2
0
 70
     0
 62
     7
  6
CONTINUOUS
  0
ENDTAB
  0
TABLE
  2
STYLE
  5
3
330
0
100
AcDbSymbolTable
 70
     1
  0
STYLE
  5
11
330
3
100
AcDbSymbolTableRecord
100
AcDbTextStyleTableRecord
  2
STANDARD
 70
     0
 40
0.0
 41
1.0
 50
0.0
 71
     0
 42
2.5
  3
txt
  4

  0
ENDTAB
  0
TABLE
  2
VIEW
  5
6
330
0
100
AcDbSymbolTable
 70
     0
  0
ENDTAB
  0
TABLE
  2
UCS
  5
7
330
0
100
AcDbSymbolTable
 70
     0
  0
ENDTAB
  0
TABLE
  2
APPID
  5
9
330
0
100
AcDbSymbolTable
 70
     2
  0
APPID
  5
12
330
9
100
AcDbSymbolTableRecord
100
AcDbRegAppTableRecord
  2
ACAD
 70
     0
  0
ENDTAB
  0
TABLE
  2
DIMSTYLE
  5
A
330
0
100
AcDbSymbolTable
 70
     1
  0
DIMSTYLE
105
27
330
A
100
AcDbSymbolTableRecord
100
AcDbDimStyleTableRecord
  2
ISO-25
 70
     0
  3

  4

  5

  6

  7

 40
1.0
 41
2.5
 42
0.625
 43
3.75
 44
1.25
 45
0.0
 46
0.0
 47
0.0
 48
0.0
140
2.5
141
2.5
142
0.0
143
0.03937007874016
144
1.0
145
0.0
146
1.0
147
0.625
 71
     0
 72
     0
 73
     0
 74
     0
 75
     0
 76
     0
 77
     1
 78
     8
170
     0
171
     3
172
     1
173
     0
174
     0
175
     0
176
     0
177
     0
178
     0
270
     2
271
     2
272
     2
273
     2
274
     3
340
11
275
     0
280
     0
281
     0
282
     0
283
     0
284
     8
285
     0
286
     0
287
     3
288
     0
  0
ENDTAB
  0
TABLE
  2
BLOCK_RECORD
  5
1
330
0
100
AcDbSymbolTable
 70
     1
  0
BLOCK_RECORD
  5
1F
330
1
100
AcDbSymbolTableRecord
100
AcDbBlockTableRecord
  2
*MODEL_SPACE
  0
BLOCK_RECORD
  5
1B
330
1
100
AcDbSymbolTableRecord
100
AcDbBlockTableRecord
  2
*PAPER_SPACE
  0
ENDTAB
  0
ENDSEC
  0
SECTION
  2
BLOCKS
  0
BLOCK
  5
20
330
1F
100
AcDbEntity
  8
0
100
AcDbBlockBegin
  2
*MODEL_SPACE
 70
     0
 10
0.0
 20
0.0
 30
0.0
  3
*MODEL_SPACE
  1

  0
ENDBLK
  5
21
330
1F
100
AcDbEntity
  8
0
100
AcDbBlockEnd
  0
BLOCK
  5
1C
330
1B
100
AcDbEntity
 67
     1
  8
0
100
AcDbBlockBegin
  2
*PAPER_SPACE
  1

  0
ENDBLK
  5
1D
330
1B
100
AcDbEntity
 67
     1
  8
0
100
AcDbBlockEnd
  0
ENDSEC
  0
SECTION
  2
ENTITIES
  0
SPLINE
  5
100
100
AcDbEntity
  8
0
 62
5
100
AcDbSpline
 70
0
 71
3
 72
10
 73
6
 74
4
 40
0.000000
 40
0.000000
 40
0.000000
 40
0.000000
 40
0.639581
 40
2.107726
 40
3.851413
 40
3.851413
 40
3.851413
 40
3.851413
 10
-27.497183
 20
232.879946
 30
0.0
 10
-27.669388
 20
232.754810
 30
0.0
 10
-28.236889
 20
232.342423
 30
0.0
 10
-29.185333
 20
231.436421
 30
0.0
 10
-29.600335
 20
230.436802
 30
0.0
 10
-29.825637
 20
229.894114
 30
0.0
 11
-27.497183
 21
232.879946
 31
0.0
 11
-28.009338
 21
232.496853
 31
0.0
 11
-29.038928
 21
231.450242
 31
0.0
 11
-29.825637
 21
229.894114
 31
0.0
  0
SPLINE
  5
101
100
AcDbEntity
  8
0
 62
5
100
AcDbSpline
 70
0
 71
3
 72
10
 73
6
 74
4
 40
0.000000
 40
0.000000
 40
0.000000
 40
0.000000
 40
2.923537
 40
5.996623
 40
8.920160
 40
8.920160
 40
8.920160
 40
8.920160
 10
-29.825637
 20
229.894114
 30
0.0
 10
-29.855077
 20
228.911684
 30
0.0
 10
-29.915462
 20
226.896568
 30
0.0
 10
-28.567641
 20
224.069099
 30
0.0
 10
-26.964171
 20
222.847123
 30
0.0
 10
-26.182431
 20
222.251373
 30
0.0
 11
-29.825637
 21
229.894114
 31
0.0
 11
-29.684241
 21
226.973999
 31
0.0
 11
-28.361892
 21
224.199967
 31
0.0
 11
-26.182431
 21
222.251373
 31
0.0
  0
LWPOLYLINE
  5
102
100
AcDbEntity
  8
0
 62
5
100
AcDbPolyline
 90
4
 70
0
 10
-30.509433
 20
240.510809
 30
0.0
 10
-26.259025
 20
231.594278
 30
0.0
 10
-26.768541
 20
231.351397
 30
0.0
 10
-27.497183
 20
232.879946
 30
0.0
  0
LWPOLYLINE
  5
103
100
AcDbEntity
  8
0
 62
5
100
AcDbPolyline
 90
4
 70
0
 10
-22.396694
 20
222.180109
 30
0.0
 10
-23.125335
 20
223.708656
 30
0.0
 10
-22.615819
 20
223.951536
 30
0.0
 10
-18.365411
 20
215.035007
 30
0.0
  0
LWPOLYLINE
  5
104
100
AcDbEntity
  8
0
 62
1
100
AcDbPolyline
 90
2
 70
0
 10
-25.408944
 20
229.810972
 30
0.0
 10
-23.465900
 20
225.734842
 30
0.0
  0
LWPOLYLINE
  5
105
100
AcDbEntity
  8
0
 62
5
100
AcDbPolyline
 90
4
 70
0
 10
-18.365478
 20
215.034973
 30
0.0
 10
-10.263372
 20
207.517431
 30
0.0
 10
13.774111
 20
207.800415
 30
0.0
 10
21.696994
 20
215.506612
 30
0.0
  0
LWPOLYLINE
  5
106
100
AcDbEntity
  8
0
 62
5
100
AcDbPolyline
 90
4
 70
0
 10
-7.162135
 20
216.368905
 30
0.0
 10
-5.536054
 20
214.384649
 30
0.0
 10
8.886435
 20
214.554439
 30
0.0
 10
10.465352
 20
216.576429
 30
0.0
  0
LWPOLYLINE
  5
107
100
AcDbEntity
  8
0
 62
1
100
AcDbPolyline
 90
2
 70
0
 10
-18.365478
 20
215.034973
 30
0.0
 10
-7.147986
 20
215.167034
 30
0.0
  0
LWPOLYLINE
  5
108
100
AcDbEntity
  8
0
 62
1
100
AcDbPolyline
 90
2
 70
0
 10
21.696994
 20
215.506612
 30
0.0
 10
10.479502
 20
215.374554
 30
0.0
  0
LWPOLYLINE
  5
109
100
AcDbEntity
  8
0
 62
5
100
AcDbPolyline
 90
8
 70
0
 10
14.792875
 20
254.972652
 30
0.0
 10
19.625759
 20
227.346393
 30
0.0
 10
22.526467
 20
227.040359
 30
0.0
 10
23.611540
 20
223.162793
 30
0.0
 10
21.588781
 20
220.775241
 30
0.0
 10
21.450698
 20
221.564563
 30
0.0
 10
20.661377
 20
221.426480
 30
0.0
 10
21.696994
 20
215.506567
 30
0.0
  0
LWPOLYLINE
  5
10a
100
AcDbEntity
  8
0
 62
1
100
AcDbPolyline
 90
2
 70
0
 10
19.901923
 20
225.767749
 30
0.0
 10
20.385212
 20
223.005124
 30
0.0
  0
LWPOLYLINE
  5
10b
100
AcDbEntity
  8
0
 62
5
100
AcDbPolyline
 90
7
 70
0
 10
32.033103
 20
218.806312
 30
0.0
 10
28.071664
 20
217.805631
 30
0.0
 10
26.709319
 20
221.594667
 30
0.0
 10
28.551361
 20
224.248129
 30
0.0
 10
28.896163
 20
223.524802
 30
0.0
 10
29.619490
 20
223.869601
 30
0.0
 10
14.793014
 20
254.972675
 30
0.0
  0
LWPOLYLINE
  5
10c
100
AcDbEntity
  8
0
 62
1
100
AcDbPolyline
 90
2
 70
0
 10
31.343498
 20
220.252966
 30
0.0
 10
30.309092
 20
222.422947
 30
0.0
  0
LWPOLYLINE
  5
10d
100
AcDbEntity
  8
0
 62
5
100
AcDbPolyline
 90
8
 70
0
 10
64.958626
 20
241.634720
 30
0.0
 10
41.910734
 20
225.654823
 30
0.0
 10
42.850212
 20
222.893468
 30
0.0
 10
39.785942
 20
220.281369
 30
0.0
 10
36.769957
 20
221.115482
 30
0.0
 10
37.428469
 20
221.572050
 30
0.0
 10
36.971901
 20
222.230562
 30
0.0
 10
32.033066
 20
218.806298
 30
0.0
  0
LWPOLYLINE
  5
10e
100
AcDbEntity
  8
0
 62
1
100
AcDbPolyline
 90
2
 70
0
 10
40.593713
 20
224.741688
 30
0.0
 10
38.288922
 20
223.143698
 30
0.0
  0
LWPOLYLINE
  5
10f
100
AcDbEntity
  8
0
 62
5
100
AcDbPolyline
 90
7
 70
0
 10
39.365699
 20
210.808794
 30
0.0
 10
36.794979
 20
213.984610
 30
0.0
 10
39.662537
 20
216.811263
 30
0.0
 10
42.844062
 20
216.252785
 30
0.0
 10
42.332204
 20
215.636270
 30
0.0
 10
42.948719
 20
215.124410
 30
0.0
 10
64.958699
 20
241.634615
 30
0.0
  0
LWPOLYLINE
  5
110
100
AcDbEntity
  8
0
 62
1
100
AcDbPolyline
 90
2
 70
0
 10
40.389421
 20
212.041826
 30
0.0
 10
41.925000
 20
213.891378
 30
0.0
  0
LWPOLYLINE
  5
111
100
AcDbEntity
  8
0
 62
5
100
AcDbPolyline
 90
8
 70
0
 10
73.903645
 20
190.502507
 30
0.0
 10
49.726915
 20
204.717047
 30
0.0
 10
47.614696
 20
202.705503
 30
0.0
 10
43.957813
 20
204.390770
 30
0.0
 10
43.449294
 20
207.478386
 30
0.0
 10
44.140058
 20
207.072257
 30
0.0
 10
44.546187
 20
207.763018
 30
0.0
 10
39.365459
 20
210.808992
 30
0.0
  0
LWPOLYLINE
  5
112
100
AcDbEntity
  8
0
 62
1
100
AcDbPolyline
 90
2
 70
0
 10
48.345386
 20
205.529306
 30
0.0
 10
45.927716
 20
206.950760
 30
0.0
  0
LWPOLYLINE
  5
113
100
AcDbEntity
  8
0
 62
5
100
AcDbPolyline
 90
7
 70
0
 10
35.183459
 20
200.797305
 30
0.0
 10
36.987333
 20
204.463434
 30
0.0
 10
40.756411
 20
203.046763
 30
0.0
 10
41.584592
 20
199.924556
 30
0.0
 10
40.810188
 20
200.130451
 30
0.0
 10
40.604293
 20
199.356047
 30
0.0
 10
73.903702
 20
190.502603
 30
0.0
  0
LWPOLYLINE
  5
114
100
AcDbEntity
  8
0
 62
1
100
AcDbPolyline
 90
2
 70
0
 10
36.732269
 20
200.385515
 30
0.0
 10
39.055483
 20
199.767835
 30
0.0
  0
SPLINE
  5
115
100
AcDbEntity
  8
0
 62
5
100
AcDbSpline
 70
0
 71
3
 72
10
 73
6
 74
4
 40
0.000000
 40
0.000000
 40
0.000000
 40
0.000000
 40
1.743687
 40
3.211832
 40
3.851412
 40
3.851412
 40
3.851412
 40
3.851412
 10
-26.182431
 20
222.251373
 30
0.0
 10
-25.618974
 20
222.084678
 30
0.0
 10
-24.581099
 20
221.777629
 30
0.0
 10
-23.280050
 20
221.943936
 30
0.0
 10
-22.602341
 20
222.125127
 30
0.0
 10
-22.396694
 20
222.180109
 30
0.0
 11
-26.182431
 21
222.251373
 31
0.0
 11
-24.478173
 21
221.882662
 31
0.0
 11
-23.016796
 21
222.023467
 31
0.0
 11
-22.396694
 21
222.180109
 31
0.0
  0
SPLINE
  5
116
100
AcDbEntity
  8
0
 62
5
100
AcDbSpline
 70
0
 71
3
 72
10
 73
6
 74
4
 40
0.000000
 40
0.000000
 40
0.000000
 40
0.000000
 40
0.907974
 40
2.992211
 40
5.467617
 40
5.467617
 40
5.467617
 40
5.467617
 10
31.589932
 20
172.567565
 30
0.0
 10
31.299671
 20
172.651669
 30
0.0
 10
30.343123
 20
172.928834
 30
0.0
 10
28.639992
 20
173.681543
 30
0.0
 10
27.604063
 20
174.816352
 30
0.0
 10
27.041663
 20
175.432433
 30
0.0
 11
31.589932
 21
172.567565
 31
0.0
 11
30.721405
 21
172.832287
 31
0.0
 11
28.842152
 21
173.733647
 31
0.0
 11
27.041663
 21
175.432433
 31
0.0
  0
SPLINE
  5
117
100
AcDbEntity
  8
0
 62
5
100
AcDbSpline
 70
0
 71
3
 72
10
 73
6
 74
4
 40
0.000000
 40
0.000000
 40
0.000000
 40
0.000000
 40
4.150371
 40
8.513047
 40
12.663415
 40
12.663415
 40
12.663415
 40
12.663415
 10
27.041663
 20
175.432433
 30
0.0
 10
26.528870
 20
176.730113
 30
0.0
 10
25.477054
 20
179.391853
 30
0.0
 10
25.914143
 20
183.817034
 30
0.0
 10
27.466372
 20
186.221563
 30
0.0
 10
28.223131
 20
187.393844
 30
0.0
 11
27.041663
 21
175.432433
 31
0.0
 11
25.823128
 21
179.399895
 31
0.0
 11
26.251957
 21
183.741444
 31
0.0
 11
28.223131
 21
187.393844
 31
0.0
  0
LWPOLYLINE
  5
118
100
AcDbEntity
  8
0
 62
5
100
AcDbPolyline
 90
4
 70
0
 10
31.245274
 20
160.926104
 30
0.0
 10
32.623653
 20
174.881084
 30
0.0
 10
31.826225
 20
174.959847
 30
0.0
 10
31.589932
 20
172.567565
 30
0.0
  0
LWPOLYLINE
  5
119
100
AcDbEntity
  8
0
 62
5
100
AcDbPolyline
 90
4
 70
0
 10
33.243988
 20
189.313539
 30
0.0
 10
33.007695
 20
186.921257
 30
0.0
 10
33.805122
 20
186.842494
 30
0.0
 10
35.183504
 20
200.797472
 30
0.0
  0
LWPOLYLINE
  5
11a
100
AcDbEntity
  8
0
 62
1
100
AcDbPolyline
 90
2
 70
0
 10
32.899330
 20
177.672078
 30
0.0
 10
33.529448
 20
184.051497
 30
0.0
  0
LWPOLYLINE
  5
11b
100
AcDbEntity
  8
0
 62
5
100
AcDbPolyline
 90
4
 70
0
 10
31.245387
 20
160.926093
 30
0.0
 10
33.393380
 20
153.442891
 30
0.0
 10
47.990540
 20
144.860596
 30
0.0
 10
55.573989
 20
146.622263
 30
0.0
  0
LWPOLYLINE
  5
11c
100
AcDbEntity
  8
0
 62
5
100
AcDbPolyline
 90
4
 70
0
 10
38.486509
 20
157.650878
 30
0.0
 10
38.744463
 20
155.862295
 30
0.0
 10
47.502758
 20
150.712916
 30
0.0
 10
49.191093
 20
151.357193
 30
0.0
  0
LWPOLYLINE
  5
11d
100
AcDbEntity
  8
0
 62
1
100
AcDbPolyline
 90
2
 70
0
 10
31.245387
 20
160.926093
 30
0.0
 10
38.057396
 20
156.921021
 30
0.0
  0
LWPOLYLINE
  5
11e
100
AcDbEntity
  8
0
 62
1
100
AcDbPolyline
 90
2
 70
0
 10
55.573989
 20
146.622263
 30
0.0
 10
48.761980
 20
150.627335
 30
0.0
  0
SPLINE
  5
11f
100
AcDbEntity
  8
0
 62
5
100
AcDbSpline
 70
0
 71
3
 72
10
 73
6
 74
4
 40
0.000000
 40
0.000000
 40
0.000000
 40
0.000000
 40
2.475408
 40
4.559645
 40
5.467619
 40
5.467619
 40
5.467619
 40
5.467619
 10
28.223131
 20
187.393844
 30
0.0
 10
28.895193
 20
187.887995
 30
0.0
 10
30.133115
 20
188.798210
 30
0.0
 10
31.950594
 20
189.203175
 30
0.0
 10
32.942883
 20
189.287846
 30
0.0
 10
33.243988
 20
189.313539
 30
0.0
 11
28.223131
 21
187.393844
 31
0.0
 11
30.321176
 21
188.707561
 31
0.0
 11
32.340455
 21
189.223850
 31
0.0
 11
33.243988
 21
189.313539
 31
0.0
  0
SPLINE
  5
120
100
AcDbEntity
  8
0
 62
5
100
AcDbSpline
 70
0
 71
3
 72
10
 73
6
 74
4
 40
0.000000
 40
0.000000
 40
0.000000
 40
0.000000
 40
0.639580
 40
2.107724
 40
3.851410
 40
3.851410
 40
3.851410
 40
3.851410
 10
72.362576
 20
157.575531
 30
0.0
 10
72.449894
 20
157.381392
 30
0.0
 10
72.737646
 20
156.741614
 30
0.0
 10
73.110885
 20
155.484205
 30
0.0
 10
72.974627
 20
154.410475
 30
0.0
 10
72.900653
 20
153.827552
 30
0.0
 11
72.362576
 21
157.575531
 31
0.0
 11
72.616840
 21
156.988664
 31
0.0
 11
72.990676
 21
155.568913
 31
0.0
 11
72.900653
 21
153.827552
 31
0.0
  0
SPLINE
  5
121
100
AcDbEntity
  8
0
 62
5
100
AcDbSpline
 70
0
 71
3
 72
10
 73
6
 74
4
 40
0.000000
 40
0.000000
 40
0.000000
 40
0.000000
 40
2.923533
 40
5.996617
 40
8.920151
 40
8.920151
 40
8.920151
 40
8.920151
 10
72.900653
 20
153.827552
 30
0.0
 10
72.438283
 20
152.960230
 30
0.0
 10
71.489891
 20
151.181218
 30
0.0
 10
68.915792
 20
149.396506
 30
0.0
 10
66.917168
 20
149.132250
 30
0.0
 10
65.942777
 20
149.003417
 30
0.0
 11
72.900653
 21
153.827552
 31
0.0
 11
71.327659
 21
151.363260
 31
0.0
 11
68.802208
 21
149.612277
 31
0.0
 11
65.942777
 21
149.003417
 31
0.0
  0
LWPOLYLINE
  5
122
100
AcDbEntity
  8
0
 62
5
100
AcDbPolyline
 90
4
 70
0
 10
78.766913
 20
162.702718
 30
0.0
 10
70.649392
 20
157.074561
 30
0.0
 10
70.971001
 20
156.610703
 30
0.0
 10
72.362576
 20
157.575531
 30
0.0
  0
LWPOLYLINE
  5
123
100
AcDbEntity
  8
0
 62
5
100
AcDbPolyline
 90
4
 70
0
 10
62.621549
 20
150.821741
 30
0.0
 10
64.013125
 20
151.786569
 30
0.0
 10
63.691516
 20
152.250426
 30
0.0
 10
55.573995
 20
146.622272
 30
0.0
  0
LWPOLYLINE
  5
124
100
AcDbEntity
  8
0
 62
1
100
AcDbPolyline
 90
2
 70
0
 10
69.025886
 20
155.948932
 30
0.0
 10
65.315019
 20
153.376058
 30
0.0
  0
LWPOLYLINE
  5
125
100
AcDbEntity
  8
0
 62
5
100
AcDbPolyline
 90
4
 70
0
 10
78.766941
 20
162.702676
 30
0.0
 10
82.844011
 20
156.070177
 30
0.0
 10
99.208709
 20
151.719140
 30
0.0
 10
106.041433
 20
155.450948
 30
0.0
  0
LWPOLYLINE
  5
126
100
AcDbEntity
  8
0
 62
5
100
AcDbPolyline
 90
4
 70
0
 10
86.621352
 20
161.490427
 30
0.0
 10
87.349745
 20
159.836633
 30
0.0
 10
97.168561
 20
157.226013
 30
0.0
 10
98.622127
 20
158.299668
 30
0.0
  0
LWPOLYLINE
  5
127
100
AcDbEntity
  8
0
 62
1
100
AcDbPolyline
 90
2
 70
0
 10
78.766941
 20
162.702676
 30
0.0
 10
86.403798
 20
160.672191
 30
0.0
  0
LWPOLYLINE
  5
128
100
AcDbEntity
  8
0
 62
1
100
AcDbPolyline
 90
2
 70
0
 10
106.041433
 20
155.450948
 30
0.0
 10
98.404576
 20
157.481432
 30
0.0
  0
SPLINE
  5
129
100
AcDbEntity
  8
0
 62
5
100
AcDbSpline
 70
0
 71
3
 72
10
 73
6
 74
4
 40
0.000000
 40
0.000000
 40
0.000000
 40
0.000000
 40
1.743685
 40
3.211828
 40
3.851408
 40
3.851408
 40
3.851408
 40
3.851408
 10
65.942777
 20
149.003417
 30
0.0
 10
65.370935
 20
149.138574
 30
0.0
 10
64.317616
 20
149.387529
 30
0.0
 10
63.270965
 20
150.178038
 30
0.0
 10
62.772735
 20
150.671885
 30
0.0
 10
62.621549
 20
150.821741
 30
0.0
 11
65.942777
 21
149.003417
 31
0.0
 11
64.280445
 21
149.529810
 31
0.0
 11
63.081972
 21
150.377812
 31
0.0
 11
62.621549
 21
150.821741
 31
0.0
  0
SPLINE
  5
12a
100
AcDbEntity
  8
0
 62
5
100
AcDbSpline
 70
0
 71
3
 72
10
 73
6
 74
4
 40
0.000000
 40
0.000000
 40
0.000000
 40
0.000000
 40
0.907978
 40
2.992225
 40
5.467643
 40
5.467643
 40
5.467643
 40
5.467643
 10
114.079963
 20
163.878335
 30
0.0
 10
114.343804
 20
163.730980
 30
0.0
 10
115.213288
 20
163.245376
 30
0.0
 10
116.945790
 20
162.562955
 30
0.0
 10
118.481131
 20
162.623701
 30
0.0
 10
119.314660
 20
162.656679
 30
0.0
 11
114.079963
 21
163.878335
 31
0.0
 11
114.878728
 21
163.446597
 31
0.0
 11
116.840760
 21
162.743380
 31
0.0
 11
119.314660
 21
162.656679
 31
0.0
  0
SPLINE
  5
12b
100
AcDbEntity
  8
0
 62
5
100
AcDbSpline
 70
0
 71
3
 72
10
 73
6
 74
4
 40
0.000000
 40
0.000000
 40
0.000000
 40
0.000000
 40
4.150388
 40
8.513084
 40
12.663474
 40
12.663474
 40
12.663474
 40
12.663474
 10
119.314660
 20
162.656679
 30
0.0
 10
120.598157
 20
163.204020
 30
0.0
 10
123.230805
 20
164.326701
 30
0.0
 10
126.071320
 20
167.747948
 30
0.0
 10
126.690699
 20
170.542160
 30
0.0
 10
126.992665
 20
171.904424
 30
0.0
 11
119.314660
 21
162.656679
 31
0.0
 11
122.993280
 21
164.578523
 31
0.0
 11
125.780111
 21
167.935111
 31
0.0
 11
126.992665
 21
171.904424
 31
0.0
  0
LWPOLYLINE
  5
12c
100
AcDbEntity
  8
0
 62
5
100
AcDbPolyline
 90
4
 70
0
 10
106.041373
 20
155.450716
 30
0.0
 10
114.999048
 20
166.239750
 30
0.0
 10
115.615562
 20
165.727884
 30
0.0
 10
114.079963
 20
163.878335
 30
0.0
  0
LWPOLYLINE
  5
12d
100
AcDbEntity
  8
0
 62
5
100
AcDbPolyline
 90
4
 70
0
 10
124.829169
 20
176.825175
 30
0.0
 10
123.293570
 20
174.975626
 30
0.0
 10
122.677053
 20
175.487492
 30
0.0
 10
131.634727
 20
186.276526
 30
0.0
  0
LWPOLYLINE
  5
12e
100
AcDbEntity
  8
0
 62
1
100
AcDbPolyline
 90
2
 70
0
 10
116.790583
 20
168.397556
 30
0.0
 10
120.885517
 20
173.329686
 30
0.0
  0
LWPOLYLINE
  5
12f
100
AcDbEntity
  8
0
 62
5
100
AcDbPolyline
 90
5
 70
0
 10
131.634614
 20
186.276622
 30
0.0
 10
131.835946
 20
194.524095
 30
0.0
 10
109.691698
 20
204.290214
 30
0.0
 10
104.004203
 20
202.521663
 30
0.0
 10
97.096600
 20
206.582923
 30
0.0
  0
LWPOLYLINE
  5
130
100
AcDbEntity
  8
0
 62
5
100
AcDbPolyline
 90
4
 70
0
 10
128.262383
 20
186.864985
 30
0.0
 10
127.896177
 20
189.404138
 30
0.0
 10
115.462493
 20
196.714408
 30
0.0
 10
113.065659
 20
195.799759
 30
0.0
  0
LWPOLYLINE
  5
131
100
AcDbEntity
  8
0
 62
1
100
AcDbPolyline
 90
2
 70
0
 10
131.634614
 20
186.276622
 30
0.0
 10
128.871574
 20
187.901127
 30
0.0
  0
LWPOLYLINE
  5
132
100
AcDbEntity
  8
0
 62
1
100
AcDbPolyline
 90
2
 70
0
 10
104.004203
 20
202.521663
 30
0.0
 10
113.674847
 20
196.835899
 30
0.0
  0
LWPOLYLINE
  5
133
100
AcDbEntity
  8
0
 62
5
100
AcDbPolyline
 90
8
 70
0
 10
92.233386
 20
234.382932
 30
0.0
 10
95.637672
 20
214.922985
 30
0.0
 10
97.680930
 20
214.707415
 30
0.0
 10
98.445255
 20
211.976057
 30
0.0
 10
97.020425
 20
210.294264
 30
0.0
 10
96.923157
 20
210.850264
 30
0.0
 10
96.367160
 20
210.752996
 30
0.0
 10
97.096651
 20
206.583010
 30
0.0
  0
LWPOLYLINE
  5
134
100
AcDbEntity
  8
0
 62
1
100
AcDbPolyline
 90
2
 70
0
 10
95.832202
 20
213.810990
 30
0.0
 10
96.172630
 20
211.864994
 30
0.0
  0
LWPOLYLINE
  5
135
100
AcDbEntity
  8
0
 62
5
100
AcDbPolyline
 90
7
 70
0
 10
104.377386
 20
208.907235
 30
0.0
 10
101.586936
 20
208.202351
 30
0.0
 10
100.627296
 20
210.871360
 30
0.0
 10
101.924835
 20
212.740467
 30
0.0
 10
102.167715
 20
212.230952
 30
0.0
 10
102.677231
 20
212.473832
 30
0.0
 10
92.233411
 20
234.382938
 30
0.0
  0
LWPOLYLINE
  5
136
100
AcDbEntity
  8
0
 62
1
100
AcDbPolyline
 90
2
 70
0
 10
103.891628
 20
209.926260
 30
0.0
 10
103.162989
 20
211.454804
 30
0.0
  0
SPLINE
  5
137
100
AcDbEntity
  8
0
 62
5
100
AcDbSpline
 70
0
 71
3
 72
10
 73
6
 74
4
 40
0.000000
 40
0.000000
 40
0.000000
 40
0.000000
 40
2.475418
 40
4.559665
 40
5.467643
 40
5.467643
 40
5.467643
 40
5.467643
 10
126.992665
 20
171.904424
 30
0.0
 10
126.871793
 20
172.729802
 30
0.0
 10
126.649149
 20
174.250128
 30
0.0
 10
125.659755
 20
175.827582
 30
0.0
 10
125.022532
 20
176.592932
 30
0.0
 10
124.829169
 20
176.825175
 30
0.0
 11
126.992665
 21
171.904424
 31
0.0
 11
126.452486
 21
174.320185
 31
0.0
 11
125.400439
 21
176.119430
 31
0.0
 11
124.829169
 21
176.825175
 31
0.0
  0
SPLINE
  5
138
100
AcDbEntity
  8
0
 62
5
100
AcDbSpline
 70
0
 71
3
 72
10
 73
6
 74
4
 40
0.000000
 40
0.000000
 40
0.000000
 40
0.000000
 40
0.398174
 40
1.538371
 40
3.443791
 40
3.443791
 40
3.443791
 40
3.443791
 10
124.017275
 20
208.336951
 30
0.0
 10
124.075353
 20
208.217417
 30
0.0
 10
124.299741
 20
207.755590
 30
0.0
 10
125.069892
 20
206.874958
 30
0.0
 10
125.918453
 20
206.313039
 30
0.0
 10
126.449336
 20
205.961487
 30
0.0
 11
124.017275
 21
208.336951
 31
0.0
 11
124.199524
 21
207.982934
 31
0.0
 11
124.922231
 21
207.101037
 31
0.0
 11
126.449336
 21
205.961487
 31
0.0
  0
SPLINE
  5
139
100
AcDbEntity
  8
0
 62
5
100
AcDbSpline
 70
0
 71
3
 72
10
 73
6
 74
4
 40
0.000000
 40
0.000000
 40
0.000000
 40
0.000000
 40
3.711816
 40
7.651890
 40
11.287100
 40
11.287100
 40
11.287100
 40
11.287100
 10
126.449336
 20
205.961487
 30
0.0
 10
127.622773
 20
205.568479
 30
0.0
 10
130.041805
 20
204.758297
 30
0.0
 10
133.674520
 20
203.772453
 30
0.0
 10
136.127077
 20
203.171971
 30
0.0
 10
137.304004
 20
202.883814
 30
0.0
 11
126.449336
 21
205.961487
 31
0.0
 11
129.979928
 21
204.815843
 31
0.0
 11
133.776556
 21
203.762372
 31
0.0
 11
137.304004
 21
202.883814
 31
0.0
  0
LWPOLYLINE
  5
13a
100
AcDbEntity
  8
0
 62
5
100
AcDbPolyline
 90
4
 70
0
 10
104.377112
 20
208.907102
 30
0.0
 10
126.411612
 20
209.166506
 30
0.0
 10
126.421038
 20
208.365249
 30
0.0
 10
124.017275
 20
208.336951
 30
0.0
  0
LWPOLYLINE
  5
13b
100
AcDbEntity
  8
0
 62
5
100
AcDbPolyline
 90
4
 70
0
 10
140.843618
 20
208.535043
 30
0.0
 10
138.439855
 20
208.506744
 30
0.0
 10
138.430429
 20
209.307999
 30
0.0
 10
144.439838
 20
209.378743
 30
0.0
  0
LWPOLYLINE
  5
13c
100
AcDbEntity
  8
0
 62
1
100
AcDbPolyline
 90
2
 70
0
 10
129.216000
 20
209.199521
 30
0.0
 10
135.626038
 20
209.274984
 30
0.0
  0
LWPOLYLINE
  5
13d
100
AcDbEntity
  8
0
 62
5
100
AcDbPolyline
 90
7
 70
0
 10
144.439838
 20
209.378695
 30
0.0
 10
148.248364
 20
210.858429
 30
0.0
 10
147.163293
 20
214.735996
 30
0.0
 10
144.124502
 20
215.831351
 30
0.0
 10
144.262585
 20
215.042029
 30
0.0
 10
143.473263
 20
214.903946
 30
0.0
 10
137.535720
 20
248.844781
 30
0.0
  0
LWPOLYLINE
  5
13e
100
AcDbEntity
  8
0
 62
1
100
AcDbPolyline
 90
2
 70
0
 10
144.163675
 20
210.957339
 30
0.0
 10
143.749426
 20
213.325305
 30
0.0
  0
LWPOLYLINE
  5
13f
100
AcDbEntity
  8
0
 62
5
100
AcDbPolyline
 90
8
 70
0
 10
137.535861
 20
248.844803
 30
0.0
 10
149.603923
 20
223.528349
 30
0.0
 10
147.417079
 20
221.598215
 30
0.0
 10
148.779425
 20
217.809178
 30
0.0
 10
151.811411
 20
217.035266
 30
0.0
 10
151.466609
 20
217.758593
 30
0.0
 10
152.189936
 20
218.103395
 30
0.0
 10
154.775950
 20
212.678440
 30
0.0
  0
LWPOLYLINE
  5
140
100
AcDbEntity
  8
0
 62
1
100
AcDbPolyline
 90
2
 70
0
 10
150.293527
 20
222.081695
 30
0.0
 10
151.500332
 20
219.550049
 30
0.0
  0
LWPOLYLINE
  5
141
100
AcDbEntity
  8
0
 62
5
100
AcDbPolyline
 90
5
 70
0
 10
154.775910
 20
212.678426
 30
0.0
 10
162.177583
 20
209.034669
 30
0.0
 10
180.334928
 20
225.036511
 30
0.0
 10
181.116359
 20
230.941164
 30
0.0
 10
187.701470
 20
235.506848
 30
0.0
  0
LWPOLYLINE
  5
142
100
AcDbEntity
  8
0
 62
5
100
AcDbPolyline
 90
4
 70
0
 10
156.725104
 20
215.492467
 30
0.0
 10
159.183547
 20
214.759327
 30
0.0
 10
171.036748
 20
222.977559
 30
0.0
 10
171.212349
 20
225.536973
 30
0.0
  0
LWPOLYLINE
  5
143
100
AcDbEntity
  8
0
 62
1
100
AcDbPolyline
 90
2
 70
0
 10
154.775910
 20
212.678426
 30
0.0
 10
157.409955
 20
214.504700
 30
0.0
  0
LWPOLYLINE
  5
144
100
AcDbEntity
  8
0
 62
1
100
AcDbPolyline
 90
2
 70
0
 10
181.116359
 20
230.941164
 30
0.0
 10
171.897201
 20
224.549207
 30
0.0
  0
LWPOLYLINE
  5
145
100
AcDbEntity
  8
0
 62
5
100
AcDbPolyline
 90
8
 70
0
 10
214.975968
 20
228.255033
 30
0.0
 10
195.883871
 20
233.331228
 30
0.0
 10
194.830762
 20
231.567054
 30
0.0
 10
192.030804
 20
232.019479
 30
0.0
 10
191.102186
 20
234.018530
 30
0.0
 10
191.647674
 20
233.873496
 30
0.0
 10
191.792708
 20
234.418986
 30
0.0
 10
187.701544
 20
235.506741
 30
0.0
  0
LWPOLYLINE
  5
146
100
AcDbEntity
  8
0
 62
1
100
AcDbPolyline
 90
2
 70
0
 10
194.792894
 20
233.621296
 30
0.0
 10
192.883686
 20
234.128918
 30
0.0
  0
LWPOLYLINE
  5
147
100
AcDbEntity
  8
0
 62
5
100
AcDbPolyline
 90
7
 70
0
 10
186.755817
 20
227.923083
 30
0.0
 10
187.287024
 20
230.751737
 30
0.0
 10
190.112359
 20
230.502735
 30
0.0
 10
191.264405
 20
228.540602
 30
0.0
 10
190.700000
 20
228.533970
 30
0.0
 10
190.706632
 20
227.969565
 30
0.0
 10
214.975968
 20
228.255072
 30
0.0
  0
LWPOLYLINE
  5
148
100
AcDbEntity
  8
0
 62
1
100
AcDbPolyline
 90
2
 70
0
 10
187.884624
 20
227.936361
 30
0.0
 10
189.577833
 20
227.956286
 30
0.0
  0
SPLINE
  5
149
100
AcDbEntity
  8
0
 62
5
100
AcDbSpline
 70
0
 71
3
 72
10
 73
6
 74
4
 40
0.000000
 40
0.000000
 40
0.000000
 40
0.000000
 40
2.832864
 40
5.509374
 40
6.711705
 40
6.711705
 40
6.711705
 40
6.711705
 10
137.304004
 20
202.883814
 30
0.0
 10
137.940219
 20
203.587465
 30
0.0
 10
139.177533
 20
204.955930
 30
0.0
 10
140.182319
 20
206.977315
 30
0.0
 10
140.687138
 20
208.166446
 30
0.0
 10
140.843618
 20
208.535043
 30
0.0
 11
137.304004
 21
202.883814
 31
0.0
 11
139.103580
 21
205.071654
 31
0.0
 11
140.366889
 21
207.431263
 31
0.0
 11
140.843618
 21
208.535043
 31
0.0
  0
SPLINE
  5
14a
100
AcDbEntity
  8
0
 62
5
100
AcDbSpline
 70
0
 71
3
 72
10
 73
6
 74
4
 40
0.000000
 40
0.000000
 40
0.000000
 40
0.000000
 40
0.398173
 40
1.538366
 40
3.443780
 40
3.443780
 40
3.443780
 40
3.443780
 10
177.996339
 20
210.335110
 30
0.0
 10
177.863468
 20
210.332556
 30
0.0
 10
177.350111
 20
210.322689
 30
0.0
 10
176.227584
 20
209.993192
 30
0.0
 10
175.361441
 20
209.458775
 30
0.0
 10
174.819558
 20
209.124430
 30
0.0
 11
177.996339
 21
210.335110
 31
0.0
 11
177.598524
 21
210.318249
 31
0.0
 11
176.494757
 21
210.032348
 31
0.0
 11
174.819558
 21
209.124430
 31
0.0
  0
SPLINE
  5
14b
100
AcDbEntity
  8
0
 62
5
100
AcDbSpline
 70
0
 71
3
 72
10
 73
6
 74
4
 40
0.000000
 40
0.000000
 40
0.000000
 40
0.000000
 40
3.711803
 40
7.651863
 40
11.287060
 40
11.287060
 40
11.287060
 40
11.287060
 10
174.819558
 20
209.124430
 30
0.0
 10
173.970402
 20
208.224247
 30
0.0
 10
172.219870
 20
206.368524
 30
0.0
 10
169.800573
 20
203.484880
 30
0.0
 10
168.226313
 20
201.510728
 30
0.0
 10
167.470861
 20
200.563377
 30
0.0
 11
174.819558
 21
209.124430
 31
0.0
 11
172.298070
 21
206.400540
 31
0.0
 11
169.748602
 21
203.396494
 31
0.0
 11
167.470861
 21
200.563377
 31
0.0
  0
LWPOLYLINE
  5
14c
100
AcDbEntity
  8
0
 62
5
100
AcDbPolyline
 90
4
 70
0
 10
186.755820
 20
227.922891
 30
0.0
 10
177.744532
 20
207.813697
 30
0.0
 10
177.013289
 20
208.141379
 30
0.0
 10
177.996339
 20
210.335110
 30
0.0
  0
LWPOLYLINE
  5
14d
100
AcDbEntity
  8
0
 62
5
100
AcDbPolyline
 90
4
 70
0
 10
171.114991
 20
194.978998
 30
0.0
 10
172.098041
 20
197.172728
 30
0.0
 10
172.829285
 20
196.845046
 30
0.0
 10
170.371660
 20
191.360720
 30
0.0
  0
LWPOLYLINE
  5
14e
100
AcDbEntity
  8
0
 62
1
100
AcDbPolyline
 90
2
 70
0
 10
176.597640
 20
205.254345
 30
0.0
 10
173.976177
 20
199.404397
 30
0.0
  0
LWPOLYLINE
  5
14f
100
AcDbEntity
  8
0
 62
5
100
AcDbPolyline
 90
4
 70
0
 10
209.091953
 20
181.065724
 30
0.0
 10
199.391950
 20
175.767905
 30
0.0
 10
176.159993
 20
181.944804
 30
0.0
 10
170.372027
 20
191.360559
 30
0.0
  0
LWPOLYLINE
  5
150
100
AcDbEntity
  8
0
 62
5
100
AcDbPolyline
 90
4
 70
0
 10
198.559220
 20
185.109876
 30
0.0
 10
196.495681
 20
183.585673
 30
0.0
 10
182.556506
 20
187.291812
 30
0.0
 10
181.522452
 20
189.639602
 30
0.0
  0
LWPOLYLINE
  5
151
100
AcDbEntity
  8
0
 62
1
100
AcDbPolyline
 90
2
 70
0
 10
209.091953
 20
181.065724
 30
0.0
 10
198.250373
 20
183.948277
 30
0.0
  0
LWPOLYLINE
  5
152
100
AcDbEntity
  8
0
 62
1
100
AcDbPolyline
 90
2
 70
0
 10
170.372027
 20
191.360559
 30
0.0
 10
181.213608
 20
188.478003
 30
0.0
  0
SPLINE
  5
153
100
AcDbEntity
  8
0
 62
5
100
AcDbSpline
 70
0
 71
3
 72
10
 73
6
 74
4
 40
0.000000
 40
0.000000
 40
0.000000
 40
0.000000
 40
2.832856
 40
5.509356
 40
6.711683
 40
6.711683
 40
6.711683
 40
6.711683
 10
167.470861
 20
200.563377
 30
0.0
 10
167.842567
 20
199.690609
 30
0.0
 10
168.565463
 20
197.993245
 30
0.0
 10
169.978582
 20
196.232946
 30
0.0
 10
170.846088
 20
195.275713
 30
0.0
 10
171.114991
 20
194.978998
 30
0.0
 11
167.470861
 21
200.563377
 31
0.0
 11
168.701538
 21
198.011808
 31
0.0
 11
170.313168
 21
195.874916
 31
0.0
 11
171.114991
 21
194.978998
 31
0.0
  0
SPLINE
  5
154
100
AcDbEntity
  8
0
 62
5
100
AcDbSpline
 70
0
 71
3
 72
10
 73
6
 74
4
 40
0.000000
 40
0.000000
 40
0.000000
 40
0.000000
 40
0.639581
 40
2.107727
 40
3.851413
 40
3.851413
 40
3.851413
 40
3.851413
 10
212.104196
 20
173.434822
 30
0.0
 10
211.931990
 20
173.309685
 30
0.0
 10
211.364489
 20
172.897299
 30
0.0
 10
210.416045
 20
171.991297
 30
0.0
 10
210.001043
 20
170.991678
 30
0.0
 10
209.775741
 20
170.448990
 30
0.0
 11
212.104196
 21
173.434822
 31
0.0
 11
211.592040
 21
173.051729
 31
0.0
 11
210.562450
 21
172.005117
 31
0.0
 11
209.775741
 21
170.448990
 31
0.0
  0
SPLINE
  5
155
100
AcDbEntity
  8
0
 62
5
100
AcDbSpline
 70
0
 71
3
 72
10
 73
6
 74
4
 40
0.000000
 40
0.000000
 40
0.000000
 40
0.000000
 40
2.923539
 40
5.996626
 40
8.920164
 40
8.920164
 40
8.920164
 40
8.920164
 10
209.775741
 20
170.448990
 30
0.0
 10
209.746301
 20
169.466559
 30
0.0
 10
209.685915
 20
167.451442
 30
0.0
 10
211.033737
 20
164.623972
 30
0.0
 10
212.637207
 20
163.401996
 30
0.0
 10
213.418948
 20
162.806246
 30
0.0
 11
209.775741
 21
170.448990
 31
0.0
 11
209.917137
 21
167.528872
 31
0.0
 11
211.239486
 21
164.754840
 31
0.0
 11
213.418948
 21
162.806246
 31
0.0
  0
LWPOLYLINE
  5
156
100
AcDbEntity
  8
0
 62
5
100
AcDbPolyline
 90
4
 70
0
 10
209.091945
 20
181.065688
 30
0.0
 10
213.342355
 20
172.149153
 30
0.0
 10
212.832837
 20
171.906273
 30
0.0
 10
212.104196
 20
173.434822
 30
0.0
  0
LWPOLYLINE
  5
157
100
AcDbEntity
  8
0
 62
5
100
AcDbPolyline
 90
4
 70
0
 10
217.204688
 20
162.734979
 30
0.0
 10
216.476047
 20
164.263529
 30
0.0
 10
216.985562
 20
164.506409
 30
0.0
 10
221.235973
 20
155.589874
 30
0.0
  0
LWPOLYLINE
  5
158
100
AcDbEntity
  8
0
 62
1
100
AcDbPolyline
 90
2
 70
0
 10
214.192437
 20
170.365845
 30
0.0
 10
216.135481
 20
166.289715
 30
0.0
  0
LWPOLYLINE
  5
159
100
AcDbEntity
  8
0
 62
5
100
AcDbPolyline
 90
4
 70
0
 10
221.235928
 20
155.589852
 30
0.0
 10
226.943082
 20
150.294468
 30
0.0
 10
243.875173
 20
150.493802
 30
0.0
 10
249.456081
 20
155.922075
 30
0.0
  0
LWPOLYLINE
  5
15a
100
AcDbEntity
  8
0
 62
5
100
AcDbPolyline
 90
4
 70
0
 10
229.127603
 20
156.529480
 30
0.0
 10
230.273022
 20
155.131760
 30
0.0
 10
240.432277
 20
155.251360
 30
0.0
 10
241.544472
 20
156.675660
 30
0.0
  0
LWPOLYLINE
  5
15b
100
AcDbEntity
  8
0
 62
1
100
AcDbPolyline
 90
2
 70
0
 10
221.235928
 20
155.589852
 30
0.0
 10
229.137571
 20
155.682875
 30
0.0
  0
LWPOLYLINE
  5
15c
100
AcDbEntity
  8
0
 62
1
100
AcDbPolyline
 90
2
 70
0
 10
249.456081
 20
155.922075
 30
0.0
 10
241.554440
 20
155.829055
 30
0.0
  0
SPLINE
  5
15d
100
AcDbEntity
  8
0
 62
5
100
AcDbSpline
 70
0
 71
3
 72
10
 73
6
 74
4
 40
0.000000
 40
0.000000
 40
0.000000
 40
0.000000
 40
1.743688
 40
3.211834
 40
3.851415
 40
3.851415
 40
3.851415
 40
3.851415
 10
213.418948
 20
162.806246
 30
0.0
 10
213.982405
 20
162.639550
 30
0.0
 10
215.020281
 20
162.332501
 30
0.0
 10
216.321331
 20
162.498807
 30
0.0
 10
216.999040
 20
162.679998
 30
0.0
 10
217.204688
 20
162.734979
 30
0.0
 11
213.418948
 21
162.806246
 31
0.0
 11
215.123207
 21
162.437534
 31
0.0
 11
216.584585
 21
162.578338
 31
0.0
 11
217.204688
 21
162.734979
 31
0.0
  0
SPLINE
  5
15e
100
AcDbEntity
  8
0
 62
5
100
AcDbSpline
 70
0
 71
3
 72
10
 73
6
 74
4
 40
0.000000
 40
0.000000
 40
0.000000
 40
0.000000
 40
0.907973
 40
2.992208
 40
5.467614
 40
5.467614
 40
5.467614
 40
5.467614
 10
254.938660
 20
166.197411
 30
0.0
 10
255.232362
 20
166.126252
 30
0.0
 10
256.200252
 20
165.891748
 30
0.0
 10
258.052318
 20
165.699203
 30
0.0
 10
259.515056
 20
166.169669
 30
0.0
 10
260.309168
 20
166.425083
 30
0.0
 11
254.938660
 21
166.197411
 31
0.0
 11
255.823972
 21
165.995824
 31
0.0
 11
257.902731
 21
165.844830
 31
0.0
 11
260.309168
 21
166.425083
 31
0.0
  0
SPLINE
  5
15f
100
AcDbEntity
  8
0
 62
5
100
AcDbSpline
 70
0
 71
3
 72
10
 73
6
 74
4
 40
0.000000
 40
0.000000
 40
0.000000
 40
0.000000
 40
4.150366
 40
8.513038
 40
12.663404
 40
12.663404
 40
12.663404
 40
12.663404
 10
260.309168
 20
166.425083
 30
0.0
 10
261.398738
 20
167.296725
 30
0.0
 10
263.633614
 20
169.084599
 30
0.0
 10
265.452005
 20
173.142516
 30
0.0
 10
265.298955
 20
176.000442
 30
0.0
 10
265.224339
 20
177.393768
 30
0.0
 11
260.309168
 21
166.425083
 31
0.0
 11
263.337233
 21
169.263455
 31
0.0
 11
265.121258
 21
173.244682
 31
0.0
 11
265.224339
 21
177.393768
 31
0.0
  0
LWPOLYLINE
  5
160
100
AcDbEntity
  8
0
 62
5
100
AcDbPolyline
 90
4
 70
0
 10
249.456081
 20
155.922027
 30
0.0
 10
255.190447
 20
168.718827
 30
0.0
 10
255.921693
 20
168.391150
 30
0.0
 10
254.938660
 20
166.197411
 30
0.0
  0
LWPOLYLINE
  5
161
100
AcDbEntity
  8
0
 62
5
100
AcDbPolyline
 90
4
 70
0
 10
261.819898
 20
181.553574
 30
0.0
 10
260.836864
 20
179.359835
 30
0.0
 10
260.105618
 20
179.687515
 30
0.0
 10
265.839984
 20
192.484314
 30
0.0
  0
LWPOLYLINE
  5
162
100
AcDbEntity
  8
0
 62
1
100
AcDbPolyline
 90
2
 70
0
 10
256.337322
 20
171.278187
 30
0.0
 10
258.958746
 20
177.128154
 30
0.0
  0
LWPOLYLINE
  5
163
100
AcDbEntity
  8
0
 62
5
100
AcDbPolyline
 90
7
 70
0
 10
265.839874
 20
192.484362
 30
0.0
 10
266.094938
 20
196.562253
 30
0.0
 10
262.119993
 20
197.204518
 30
0.0
 10
259.850571
 20
194.905902
 30
0.0
 10
260.624969
 20
194.700010
 30
0.0
 10
260.419077
 20
193.925612
 30
0.0
 10
227.119894
 20
202.778994
 30
0.0
  0
LWPOLYLINE
  5
164
100
AcDbEntity
  8
0
 62
1
100
AcDbPolyline
 90
2
 70
0
 10
264.291075
 20
192.896147
 30
0.0
 10
261.967876
 20
193.513827
 30
0.0
  0
LWPOLYLINE
  5
165
100
AcDbEntity
  8
0
 62
5
100
AcDbPolyline
 90
8
 70
0
 10
227.119959
 20
202.779231
 30
0.0
 10
255.164263
 20
203.109385
 30
0.0
 10
255.998543
 20
200.314386
 30
0.0
 10
260.009589
 20
199.960920
 30
0.0
 10
261.984453
 20
202.388299
 30
0.0
 10
261.183188
 20
202.378873
 30
0.0
 10
261.173762
 20
203.180139
 30
0.0
 10
267.183255
 20
203.250886
 30
0.0
  0
LWPOLYLINE
  5
166
100
AcDbEntity
  8
0
 62
1
100
AcDbPolyline
 90
2
 70
0
 10
256.766794
 20
203.128252
 30
0.0
 10
259.571225
 20
203.161266
 30
0.0
  0
LWPOLYLINE
  5
167
100
AcDbEntity
  8
0
 62
5
100
AcDbPolyline
 90
7
 70
0
 10
267.183249
 20
203.250824
 30
0.0
 10
269.255807
 20
199.729650
 30
0.0
 10
272.908550
 20
201.423779
 30
0.0
 10
273.501287
 20
204.599076
 30
0.0
 10
272.744427
 20
204.335937
 30
0.0
 10
272.481286
 20
205.092798
 30
0.0
 10
305.026370
 20
216.407792
 30
0.0
  0
LWPOLYLINE
  5
168
100
AcDbEntity
  8
0
 62
1
100
AcDbPolyline
 90
2
 70
0
 10
268.696973
 20
203.777101
 30
0.0
 10
270.967561
 20
204.566519
 30
0.0
  0
LWPOLYLINE
  5
169
100
AcDbEntity
  8
0
 62
5
100
AcDbPolyline
 90
8
 70
0
 10
305.026314
 20
216.407979
 30
0.0
 10
281.977917
 20
200.427673
 30
0.0
 10
279.721361
 20
202.275932
 30
0.0
 10
276.200441
 20
200.322294
 30
0.0
 10
275.923869
 20
197.205268
 30
0.0
 10
276.582395
 20
197.661847
 30
0.0
 10
277.038974
 20
197.003321
 30
0.0
 10
272.100032
 20
193.578970
 30
0.0
  0
LWPOLYLINE
  5
16a
100
AcDbEntity
  8
0
 62
1
100
AcDbPolyline
 90
2
 70
0
 10
280.660864
 20
199.514512
 30
0.0
 10
278.356026
 20
197.916482
 30
0.0
  0
LWPOLYLINE
  5
16b
100
AcDbEntity
  8
0
 62
5
100
AcDbPolyline
 90
4
 70
0
 10
299.923341
 20
164.750368
 30
0.0
 10
288.881002
 20
165.229705
 30
0.0
 10
272.186739
 20
182.527283
 30
0.0
 10
272.099546
 20
193.579664
 30
0.0
  0
LWPOLYLINE
  5
16c
100
AcDbEntity
  8
0
 62
5
100
AcDbPolyline
 90
4
 70
0
 10
292.997551
 20
173.657284
 30
0.0
 10
290.443130
 20
173.419266
 30
0.0
 10
280.426575
 20
183.797813
 30
0.0
 10
280.755087
 20
186.342174
 30
0.0
  0
LWPOLYLINE
  5
16d
100
AcDbEntity
  8
0
 62
1
100
AcDbPolyline
 90
2
 70
0
 10
299.923341
 20
164.750368
 30
0.0
 10
292.132681
 20
172.822569
 30
0.0
  0
LWPOLYLINE
  5
16e
100
AcDbEntity
  8
0
 62
1
100
AcDbPolyline
 90
2
 70
0
 10
272.099546
 20
193.579664
 30
0.0
 10
279.890209
 20
185.507462
 30
0.0
  0
SPLINE
  5
16f
100
AcDbEntity
  8
0
 62
5
100
AcDbSpline
 70
0
 71
3
 72
10
 73
6
 74
4
 40
0.000000
 40
0.000000
 40
0.000000
 40
0.000000
 40
2.475406
 40
4.559642
 40
5.467615
 40
5.467615
 40
5.467615
 40
5.467615
 10
265.224339
 20
177.393768
 30
0.0
 10
264.886442
 20
178.156445
 30
0.0
 10
264.264044
 20
179.561279
 30
0.0
 10
262.887688
 20
180.815419
 30
0.0
 10
262.068482
 20
181.381729
 30
0.0
 10
261.819898
 20
181.553574
 30
0.0
 11
265.224339
 21
177.393768
 31
0.0
 11
264.055796
 21
179.576001
 31
0.0
 11
262.559576
 21
181.026988
 31
0.0
 11
261.819898
 21
181.553574
 31
0.0
  0
SPLINE
  5
170
100
AcDbEntity
  8
0
 62
5
100
AcDbSpline
 70
0
 71
3
 72
10
 73
6
 74
4
 40
0.000000
 40
0.000000
 40
0.000000
 40
0.000000
 40
0.639552
 40
2.107633
 40
3.851242
 40
3.851242
 40
3.851242
 40
3.851242
 10
307.839308
 20
166.905213
 30
0.0
 10
307.944737
 20
166.720295
 30
0.0
 10
308.292177
 20
166.110901
 30
0.0
 10
309.088312
 20
165.068595
 30
0.0
 10
310.036170
 20
164.546172
 30
0.0
 10
310.550758
 20
164.262552
 30
0.0
 11
307.839308
 21
166.905213
 31
0.0
 11
308.163722
 21
166.354048
 31
0.0
 11
309.090681
 21
165.215626
 31
0.0
 11
310.550758
 21
164.262552
 31
0.0
  0
SPLINE
  5
171
100
AcDbEntity
  8
0
 62
5
100
AcDbSpline
 70
0
 71
3
 72
10
 73
6
 74
4
 40
0.000000
 40
0.000000
 40
0.000000
 40
0.000000
 40
2.923416
 40
5.996373
 40
8.919790
 40
8.919790
 40
8.919790
 40
8.919790
 10
310.550758
 20
164.262552
 30
0.0
 10
311.523947
 20
164.125227
 30
0.0
 10
313.520108
 20
163.843551
 30
0.0
 10
316.478559
 20
164.872120
 30
0.0
 10
317.869450
 20
166.331374
 30
0.0
 10
318.547552
 20
167.042805
 30
0.0
 11
310.550758
 21
164.262552
 31
0.0
 11
313.468585
 21
164.081877
 31
0.0
 11
316.371123
 21
165.091006
 31
0.0
 11
318.547552
 21
167.042805
 31
0.0
  0
LWPOLYLINE
  5
172
100
AcDbEntity
  8
0
 62
5
100
AcDbPolyline
 90
4
 70
0
 10
299.923736
 20
164.750757
 30
0.0
 10
309.253297
 20
167.994382
 30
0.0
 10
309.438661
 20
167.461264
 30
0.0
 10
307.839308
 20
166.905213
 30
0.0
  0
LWPOLYLINE
  5
173
100
AcDbEntity
  8
0
 62
5
100
AcDbPolyline
 90
4
 70
0
 10
319.034809
 20
170.797566
 30
0.0
 10
317.435428
 20
170.241514
 30
0.0
 10
317.250092
 20
170.774635
 30
0.0
 10
326.579653
 20
174.018260
 30
0.0
  0
LWPOLYLINE
  5
174
100
AcDbEntity
  8
0
 62
1
100
AcDbPolyline
 90
2
 70
0
 10
311.119238
 20
168.643109
 30
0.0
 10
315.384180
 20
170.125908
 30
0.0
  0
LWPOLYLINE
  5
175
100
AcDbEntity
  8
0
 62
5
100
AcDbPolyline
 90
4
 70
0
 10
329.353644
 20
202.104169
 30
0.0
 10
334.135081
 20
195.959980
 30
0.0
 10
332.470619
 20
179.108652
 30
0.0
 10
326.579540
 20
174.018621
 30
0.0
  0
LWPOLYLINE
  5
176
100
AcDbEntity
  8
0
 62
5
100
AcDbPolyline
 90
4
 70
0
 10
327.734337
 20
194.323438
 30
0.0
 10
329.027649
 20
193.061312
 30
0.0
 10
328.028977
 20
182.950515
 30
0.0
 10
326.513726
 20
181.965796
 30
0.0
  0
LWPOLYLINE
  5
177
100
AcDbEntity
  8
0
 62
1
100
AcDbPolyline
 90
2
 70
0
 10
329.353644
 20
202.104169
 30
0.0
 10
328.576884
 20
194.240216
 30
0.0
  0
LWPOLYLINE
  5
178
100
AcDbEntity
  8
0
 62
1
100
AcDbPolyline
 90
2
 70
0
 10
326.579540
 20
174.018621
 30
0.0
 10
327.356301
 20
181.882574
 30
0.0
  0
SPLINE
  5
179
100
AcDbEntity
  8
0
 62
5
100
AcDbSpline
 70
0
 71
3
 72
10
 73
6
 74
4
 40
0.000000
 40
0.000000
 40
0.000000
 40
0.000000
 40
1.743610
 40
3.211692
 40
3.851245
 40
3.851245
 40
3.851245
 40
3.851245
 10
318.547552
 20
167.042805
 30
0.0
 10
318.775208
 20
167.584482
 30
0.0
 10
319.194545
 20
168.582239
 30
0.0
 10
319.172370
 20
169.893629
 30
0.0
 10
319.066834
 20
170.587127
 30
0.0
 10
319.034809
 20
170.797566
 30
0.0
 11
318.547552
 21
167.042805
 31
0.0
 11
319.101476
 21
168.696088
 31
0.0
 11
319.122282
 21
170.164023
 31
0.0
 11
319.034809
 21
170.797566
 31
0.0
  0
SPLINE
  5
17a
100
AcDbEntity
  8
0
 62
5
100
AcDbSpline
 70
0
 71
3
 72
10
 73
6
 74
4
 40
0.000000
 40
0.000000
 40
0.000000
 40
0.000000
 40
0.639578
 40
2.107718
 40
3.851401
 40
3.851401
 40
3.851401
 40
3.851401
 10
336.401354
 20
206.303630
 30
0.0
 10
336.552539
 20
206.153774
 30
0.0
 10
337.050766
 20
205.659927
 30
0.0
 10
338.097414
 20
204.869418
 30
0.0
 10
339.150732
 20
204.620463
 30
0.0
 10
339.722573
 20
204.485306
 30
0.0
 11
336.401354
 21
206.303630
 31
0.0
 11
336.861774
 21
205.859701
 31
0.0
 11
338.060243
 21
205.011699
 31
0.0
 11
339.722573
 21
204.485306
 31
0.0
  0
SPLINE
  5
17b
100
AcDbEntity
  8
0
 62
5
100
AcDbSpline
 70
0
 71
3
 72
10
 73
6
 74
4
 40
0.000000
 40
0.000000
 40
0.000000
 40
0.000000
 40
2.923528
 40
5.996615
 40
8.920152
 40
8.920152
 40
8.920152
 40
8.920152
 10
339.722573
 20
204.485306
 30
0.0
 10
340.696961
 20
204.614139
 30
0.0
 10
342.695584
 20
204.878396
 30
0.0
 10
345.269685
 20
206.663105
 30
0.0
 10
346.218080
 20
208.442118
 30
0.0
 10
346.680451
 20
209.309441
 30
0.0
 11
339.722573
 21
204.485306
 31
0.0
 11
342.581997
 21
205.094165
 31
0.0
 11
345.107452
 21
206.845147
 31
0.0
 11
346.680451
 21
209.309441
 31
0.0
  0
LWPOLYLINE
  5
17c
100
AcDbEntity
  8
0
 62
5
100
AcDbPolyline
 90
4
 70
0
 10
329.353785
 20
202.104158
 30
0.0
 10
337.471314
 20
207.732315
 30
0.0
 10
337.792907
 20
207.268455
 30
0.0
 10
336.401354
 20
206.303630
 30
0.0
  0
LWPOLYLINE
  5
17d
100
AcDbEntity
  8
0
 62
5
100
AcDbPolyline
 90
4
 70
0
 10
346.142366
 20
213.057417
 30
0.0
 10
344.750785
 20
212.092589
 30
0.0
 10
344.429193
 20
212.556450
 30
0.0
 10
352.546694
 20
218.184604
 30
0.0
  0
LWPOLYLINE
  5
17e
100
AcDbEntity
  8
0
 62
1
100
AcDbPolyline
 90
2
 70
0
 10
339.094798
 20
208.857944
 30
0.0
 10
342.805681
 20
211.430818
 30
0.0
  0
LWPOLYLINE
  5
17f
100
AcDbEntity
  8
0
 62
5
100
AcDbPolyline
 90
4
 70
0
 10
352.546722
 20
218.184562
 30
0.0
 10
358.664425
 20
227.389528
 30
0.0
 10
354.521968
 20
251.069093
 30
0.0
 10
345.642636
 20
257.650503
 30
0.0
  0
LWPOLYLINE
  5
180
100
AcDbEntity
  8
0
 62
5
100
AcDbPolyline
 90
4
 70
0
 10
349.429606
 20
229.027904
 30
0.0
 10
351.126721
 20
230.951745
 30
0.0
 10
348.641247
 20
245.159483
 30
0.0
 10
346.391794
 20
246.392916
 30
0.0
  0
LWPOLYLINE
  5
181
100
AcDbEntity
  8
0
 62
1
100
AcDbPolyline
 90
2
 70
0
 10
352.546722
 20
218.184562
 30
0.0
 10
350.613585
 20
229.235027
 30
0.0
  0
LWPOLYLINE
  5
182
100
AcDbEntity
  8
0
 62
1
100
AcDbPolyline
 90
2
 70
0
 10
345.642636
 20
257.650503
 30
0.0
 10
347.575773
 20
246.600039
 30
0.0
  0
SPLINE
  5
183
100
AcDbEntity
  8
0
 62
5
100
AcDbSpline
 70
0
 71
3
 72
10
 73
6
 74
4
 40
0.000000
 40
0.000000
 40
0.000000
 40
0.000000
 40
1.743684
 40
3.211827
 40
3.851406
 40
3.851406
 40
3.851406
 40
3.851406
 10
346.680451
 20
209.309441
 30
0.0
 10
346.754421
 20
209.892363
 30
0.0
 10
346.890670
 20
210.966093
 30
0.0
 10
346.517432
 20
212.223499
 30
0.0
 10
346.229683
 20
212.863279
 30
0.0
 10
346.142366
 20
213.057417
 30
0.0
 11
346.680451
 21
209.309441
 31
0.0
 11
346.770463
 21
211.050800
 31
0.0
 11
346.396628
 21
212.470550
 31
0.0
 11
346.142366
 21
213.057417
 31
0.0
  0
SPLINE
  5
184
100
AcDbEntity
  8
0
 62
5
100
AcDbSpline
 70
0
 71
3
 72
10
 73
6
 74
4
 40
0.000000
 40
0.000000
 40
0.000000
 40
0.000000
 40
0.907966
 40
2.992186
 40
5.467571
 40
5.467571
 40
5.467571
 40
5.467571
 10
318.511823
 20
249.066133
 30
0.0
 10
318.466359
 20
249.364891
 30
0.0
 10
318.316533
 20
250.349442
 30
0.0
 10
318.285052
 20
252.211209
 30
0.0
 10
318.880379
 20
253.627714
 30
0.0
 10
319.203578
 20
254.396727
 30
0.0
 11
318.511823
 21
249.066133
 31
0.0
 11
318.387640
 21
249.965567
 31
0.0
 11
318.417180
 21
252.049577
 31
0.0
 11
319.203578
 21
254.396727
 31
0.0
  0
SPLINE
  5
185
100
AcDbEntity
  8
0
 62
5
100
AcDbSpline
 70
0
 71
3
 72
10
 73
6
 74
4
 40
0.000000
 40
0.000000
 40
0.000000
 40
0.000000
 40
4.150335
 40
8.512971
 40
12.663313
 40
12.663313
 40
12.663313
 40
12.663313
 10
319.203578
 20
254.396727
 30
0.0
 10
320.166272
 20
255.406735
 30
0.0
 10
322.140903
 20
257.478415
 30
0.0
 10
326.340980
 20
258.938656
 30
0.0
 10
329.174905
 20
258.538759
 30
0.0
 10
330.556531
 20
258.343796
 30
0.0
 11
319.203578
 21
254.396727
 31
0.0
 11
322.293428
 21
257.167666
 31
0.0
 11
326.414124
 21
258.600307
 31
0.0
 11
330.556531
 21
258.343796
 31
0.0
  0
LWPOLYLINE
  5
186
100
AcDbEntity
  8
0
 62
5
100
AcDbPolyline
 90
4
 70
0
 10
307.800446
 20
244.493769
 30
0.0
 10
321.045558
 20
249.098685
 30
0.0
 10
320.782414
 20
249.855548
 30
0.0
 10
318.511823
 20
249.066133
 30
0.0
  0
LWPOLYLINE
  5
187
100
AcDbEntity
  8
0
 62
5
100
AcDbPolyline
 90
4
 70
0
 10
334.405930
 20
254.592033
 30
0.0
 10
332.135339
 20
253.802621
 30
0.0
 10
332.398483
 20
253.045757
 30
0.0
 10
345.643595
 20
257.650673
 30
0.0
  0
LWPOLYLINE
  5
188
100
AcDbEntity
  8
0
 62
1
100
AcDbPolyline
 90
2
 70
0
 10
323.694552
 20
250.019669
 30
0.0
 10
329.749460
 20
252.124773
 30
0.0
  0
LWPOLYLINE
  5
189
100
AcDbEntity
  8
0
 62
5
100
AcDbPolyline
 90
4
 70
0
 10
307.800530
 20
244.493515
 30
0.0
 10
305.652424
 20
251.977097
 30
0.0
 10
291.054480
 20
260.559817
 30
0.0
 10
283.470632
 20
258.798042
 30
0.0
  0
LWPOLYLINE
  5
18a
100
AcDbEntity
  8
0
 62
5
100
AcDbPolyline
 90
4
 70
0
 10
300.559018
 20
247.768887
 30
0.0
 10
300.301067
 20
249.557561
 30
0.0
 10
291.542301
 20
254.707191
 30
0.0
 10
289.853878
 20
254.062878
 30
0.0
  0
LWPOLYLINE
  5
18b
100
AcDbEntity
  8
0
 62
1
100
AcDbPolyline
 90
2
 70
0
 10
307.800530
 20
244.493515
 30
0.0
 10
300.988166
 20
248.498782
 30
0.0
  0
LWPOLYLINE
  5
18c
100
AcDbEntity
  8
0
 62
1
100
AcDbPolyline
 90
2
 70
0
 10
283.470632
 20
258.798042
 30
0.0
 10
290.283025
 20
254.792775
 30
0.0
  0
LWPOLYLINE
  5
18d
100
AcDbEntity
  8
0
 62
5
100
AcDbPolyline
 90
8
 70
0
 10
260.277359
 20
242.716850
 30
0.0
 10
276.512381
 20
253.973190
 30
0.0
 10
275.850607
 20
255.918302
 30
0.0
 10
278.009090
 20
257.758281
 30
0.0
 10
280.133563
 20
257.170731
 30
0.0
 10
279.669706
 20
256.849122
 30
0.0
 10
279.991315
 20
256.385265
 30
0.0
 10
283.470237
 20
258.797339
 30
0.0
  0
LWPOLYLINE
  5
18e
100
AcDbEntity
  8
0
 62
1
100
AcDbPolyline
 90
2
 70
0
 10
277.440096
 20
254.616411
 30
0.0
 10
279.063600
 20
255.742046
 30
0.0
  0
LWPOLYLINE
  5
18f
100
AcDbEntity
  8
0
 62
5
100
AcDbPolyline
 90
7
 70
0
 10
278.305460
 20
264.430873
 30
0.0
 10
280.116291
 20
262.193779
 30
0.0
 10
278.096337
 20
260.202667
 30
0.0
 10
275.855232
 20
260.596079
 30
0.0
 10
276.215797
 20
261.030357
 30
0.0
 10
275.781519
 20
261.390922
 30
0.0
 10
260.277302
 20
242.716932
 30
0.0
  0
LWPOLYLINE
  5
190
100
AcDbEntity
  8
0
 62
1
100
AcDbPolyline
 90
2
 70
0
 10
277.584335
 20
263.562317
 30
0.0
 10
276.502645
 20
262.259480
 30
0.0
  0
SPLINE
  5
191
100
AcDbEntity
  8
0
 62
5
100
AcDbSpline
 70
0
 71
3
 72
10
 73
6
 74
4
 40
0.000000
 40
0.000000
 40
0.000000
 40
0.000000
 40
2.475376
 40
4.559592
 40
5.467557
 40
5.467557
 40
5.467557
 40
5.467557
 10
330.556531
 20
258.343796
 30
0.0
 10
331.287082
 20
257.941142
 30
0.0
 10
332.632740
 20
257.199462
 30
0.0
 10
333.762998
 20
255.719710
 30
0.0
 10
334.256253
 20
254.854559
 30
0.0
 10
334.405930
 20
254.592033
 30
0.0
 11
330.556531
 21
258.343796
 31
0.0
 11
332.629376
 21
256.990725
 31
0.0
 11
333.945364
 21
255.374517
 31
0.0
 11
334.405930
 21
254.592033
 31
0.0
  0
SPLINE
  5
192
100
AcDbEntity
  8
0
 62
5
100
AcDbSpline
 70
0
 71
3
 72
10
 73
6
 74
4
 40
0.000000
 40
0.000000
 40
0.000000
 40
0.000000
 40
0.639622
 40
2.107860
 40
3.851661
 40
3.851661
 40
3.851661
 40
3.851661
 10
286.496534
 20
263.962677
 30
0.0
 10
286.537855
 20
263.753841
 30
0.0
 10
286.674028
 20
263.065627
 30
0.0
 10
287.098407
 20
261.824453
 30
0.0
 10
287.831646
 20
261.028226
 30
0.0
 10
288.229717
 20
260.595958
 30
0.0
 11
286.496534
 21
263.962677
 31
0.0
 11
286.629344
 21
263.336996
 31
0.0
 11
287.147305
 21
261.963154
 31
0.0
 11
288.229717
 21
260.595958
 31
0.0
  0
SPLINE
  5
193
100
AcDbEntity
  8
0
 62
5
100
AcDbSpline
 70
0
 71
3
 72
10
 73
6
 74
4
 40
0.000000
 40
0.000000
 40
0.000000
 40
0.000000
 40
2.923731
 40
5.997023
 40
8.920749
 40
8.920749
 40
8.920749
 40
8.920749
 10
288.229717
 20
260.595958
 30
0.0
 10
289.109163
 20
260.156936
 30
0.0
 10
290.913041
 20
259.256434
 30
0.0
 10
294.045315
 20
259.293307
 30
0.0
 10
295.827491
 20
260.236027
 30
0.0
 10
296.696356
 20
260.695630
 30
0.0
 11
288.229717
 21
260.595958
 31
0.0
 11
290.939790
 21
259.498820
 31
0.0
 11
294.012869
 21
259.534998
 31
0.0
 11
296.696356
 21
260.695630
 31
0.0
  0
LWPOLYLINE
  5
194
100
AcDbEntity
  8
0
 62
5
100
AcDbPolyline
 90
4
 70
0
 10
278.305601
 20
264.430757
 30
0.0
 10
288.183348
 20
264.547044
 30
0.0
 10
288.189839
 20
263.982602
 30
0.0
 10
286.496534
 20
263.962677
 30
0.0
  0
LWPOLYLINE
  5
195
100
AcDbEntity
  8
0
 62
5
100
AcDbPolyline
 90
4
 70
0
 10
298.349811
 20
264.102222
 30
0.0
 10
296.656478
 20
264.082297
 30
0.0
 10
296.649704
 20
264.646742
 30
0.0
 10
306.527454
 20
264.763028
 30
0.0
  0
LWPOLYLINE
  5
196
100
AcDbEntity
  8
0
 62
1
100
AcDbPolyline
 90
2
 70
0
 10
290.158904
 20
264.570302
 30
0.0
 10
294.674431
 20
264.623461
 30
0.0
  0
LWPOLYLINE
  5
197
100
AcDbEntity
  8
0
 62
5
100
AcDbPolyline
 90
4
 70
0
 10
306.527708
 20
264.762932
 30
0.0
 10
316.751236
 20
268.962412
 30
0.0
 10
326.581488
 20
290.899594
 30
0.0
 10
322.911470
 20
301.324903
 30
0.0
  0
LWPOLYLINE
  5
198
100
AcDbEntity
  8
0
 62
5
100
AcDbPolyline
 90
4
 70
0
 10
310.018289
 20
275.491797
 30
0.0
 10
312.501760
 20
276.135088
 30
0.0
 10
318.399894
 20
289.297397
 30
0.0
 10
317.227148
 20
291.579064
 30
0.0
  0
LWPOLYLINE
  5
199
100
AcDbEntity
  8
0
 62
1
100
AcDbPolyline
 90
2
 70
0
 10
306.527708
 20
264.762932
 30
0.0
 10
311.115174
 20
275.000284
 30
0.0
  0
LWPOLYLINE
  5
19a
100
AcDbEntity
  8
0
 62
1
100
AcDbPolyline
 90
2
 70
0
 10
322.911470
 20
301.324903
 30
0.0
 10
318.324004
 20
291.087551
 30
0.0
  0
SPLINE
  5
19b
100
AcDbEntity
  8
0
 62
5
100
AcDbSpline
 70
0
 71
3
 72
10
 73
6
 74
4
 40
0.000000
 40
0.000000
 40
0.000000
 40
0.000000
 40
1.743802
 40
3.212044
 40
3.851667
 40
3.851667
 40
3.851667
 40
3.851667
 10
296.696356
 20
260.695630
 30
0.0
 10
297.084140
 20
261.137151
 30
0.0
 10
297.798431
 20
261.950421
 30
0.0
 10
298.193478
 20
263.201241
 30
0.0
 10
298.313416
 20
263.892471
 30
0.0
 10
298.349811
 20
264.102222
 30
0.0
 11
296.696356
 21
260.695630
 31
0.0
 11
297.746282
 21
262.087931
 31
0.0
 11
298.231764
 21
263.473587
 31
0.0
 11
298.349811
 21
264.102222
 31
0.0
  0
SPLINE
  5
19c
100
AcDbEntity
  8
0
 62
5
100
AcDbSpline
 70
0
 71
3
 72
10
 73
6
 74
4
 40
0.000000
 40
0.000000
 40
0.000000
 40
0.000000
 40
0.907990
 40
2.992259
 40
5.467692
 40
5.467692
 40
5.467692
 40
5.467692
 10
295.624814
 20
309.409019
 30
0.0
 10
295.754477
 20
309.681995
 30
0.0
 10
296.181776
 20
310.581580
 30
0.0
 10
297.198423
 20
312.141626
 30
0.0
 10
298.484977
 20
312.981733
 30
0.0
 10
299.183439
 20
313.437821
 30
0.0
 11
295.624814
 21
309.409019
 31
0.0
 11
296.025686
 21
310.223726
 31
0.0
 11
297.217363
 21
311.933722
 31
0.0
 11
299.183439
 21
313.437821
 31
0.0
  0
SPLINE
  5
19d
100
AcDbEntity
  8
0
 62
5
100
AcDbSpline
 70
0
 71
3
 72
10
 73
6
 74
4
 40
0.000000
 40
0.000000
 40
0.000000
 40
0.000000
 40
4.150439
 40
8.513177
 40
12.663605
 40
12.663605
 40
12.663605
 40
12.663605
 10
299.183439
 20
313.437821
 30
0.0
 10
300.546684
 20
313.735405
 30
0.0
 10
303.342905
 20
314.345795
 30
0.0
 10
307.640388
 20
313.203208
 30
0.0
 10
309.764237
 20
311.284700
 30
0.0
 10
310.799678
 20
310.349368
 30
0.0
 11
299.183439
 21
313.437821
 31
0.0
 11
303.295228
 21
314.002922
 31
0.0
 11
307.511489
 21
312.881929
 31
0.0
 11
310.799678
 21
310.349368
 31
0.0
  0
LWPOLYLINE
  5
19e
100
AcDbEntity
  8
0
 62
5
100
AcDbPolyline
 90
4
 70
0
 10
284.189904
 20
311.620107
 30
0.0
 10
297.742187
 20
308.016913
 30
0.0
 10
297.948068
 20
308.791329
 30
0.0
 10
295.624814
 20
309.409019
 30
0.0
  0
LWPOLYLINE
  5
19f
100
AcDbEntity
  8
0
 62
5
100
AcDbPolyline
 90
4
 70
0
 10
311.887560
 20
305.085186
 30
0.0
 10
309.564306
 20
305.702876
 30
0.0
 10
309.358397
 20
304.928461
 30
0.0
 10
322.910680
 20
301.325266
 30
0.0
  0
LWPOLYLINE
  5
1a0
100
AcDbEntity
  8
0
 62
1
100
AcDbPolyline
 90
2
 70
0
 10
300.452621
 20
307.296274
 30
0.0
 10
306.647963
 20
305.649100
 30
0.0
  0
LWPOLYLINE
  5
1a1
100
AcDbEntity
  8
0
 62
5
100
AcDbPolyline
 90
4
 70
0
 10
284.189904
 20
311.620136
 30
0.0
 10
286.601436
 20
319.022634
 30
0.0
 10
279.314958
 20
334.307974
 30
0.0
 10
272.045774
 20
337.095703
 30
0.0
  0
LWPOLYLINE
  5
1a2
100
AcDbEntity
  8
0
 62
5
100
AcDbPolyline
 90
4
 70
0
 10
280.025280
 20
318.388971
 30
0.0
 10
280.813293
 20
320.015200
 30
0.0
 10
276.441408
 20
329.186406
 30
0.0
 10
274.681865
 20
329.598222
 30
0.0
  0
LWPOLYLINE
  5
1a3
100
AcDbEntity
  8
0
 62
1
100
AcDbPolyline
 90
2
 70
0
 10
284.189904
 20
311.620136
 30
0.0
 10
280.789547
 20
318.753295
 30
0.0
  0
LWPOLYLINE
  5
1a4
100
AcDbEntity
  8
0
 62
1
100
AcDbPolyline
 90
2
 70
0
 10
272.045774
 20
337.095703
 30
0.0
 10
275.446132
 20
329.962545
 30
0.0
  0
SPLINE
  5
1a5
100
AcDbEntity
  8
0
 62
5
100
AcDbSpline
 70
0
 71
3
 72
10
 73
6
 74
4
 40
0.000000
 40
0.000000
 40
0.000000
 40
0.000000
 40
2.475446
 40
4.559714
 40
5.467701
 40
5.467701
 40
5.467701
 40
5.467701
 10
310.799678
 20
310.349368
 30
0.0
 10
311.179408
 20
309.606618
 30
0.0
 10
311.878861
 20
308.238488
 30
0.0
 10
311.986487
 20
306.379524
 30
0.0
 10
311.910590
 20
305.386511
 30
0.0
 10
311.887560
 20
305.085186
 30
0.0
 11
310.799678
 21
310.349368
 31
0.0
 11
311.759167
 21
308.067437
 31
0.0
 11
311.944239
 21
305.991402
 31
0.0
 11
311.887560
 21
305.085186
 31
0.0
  0
SPLINE
  5
1a6
100
AcDbEntity
  8
0
 62
5
100
AcDbSpline
 70
0
 71
3
 72
10
 73
6
 74
4
 40
0.000000
 40
0.000000
 40
0.000000
 40
0.000000
 40
0.639572
 40
2.107698
 40
3.851359
 40
3.851359
 40
3.851359
 40
3.851359
 10
263.855516
 20
337.563904
 30
0.0
 10
263.814198
 20
337.772724
 30
0.0
 10
263.678036
 20
338.460885
 30
0.0
 10
263.253695
 20
339.701963
 30
0.0
 10
262.520523
 20
340.498135
 30
0.0
 10
262.122488
 20
340.930372
 30
0.0
 11
263.855516
 21
337.563904
 31
0.0
 11
263.722717
 21
338.189538
 31
0.0
 11
263.204801
 21
339.563275
 31
0.0
 11
262.122488
 21
340.930372
 31
0.0
  0
SPLINE
  5
1a7
100
AcDbEntity
  8
0
 62
5
100
AcDbSpline
 70
0
 71
3
 72
10
 73
6
 74
4
 40
0.000000
 40
0.000000
 40
0.000000
 40
0.000000
 40
2.923496
 40
5.996540
 40
8.920036
 40
8.920036
 40
8.920036
 40
8.920036
 10
262.122488
 20
340.930372
 30
0.0
 10
261.243117
 20
341.369366
 30
0.0
 10
259.439391
 20
342.269810
 30
0.0
 10
256.307368
 20
342.232965
 30
0.0
 10
254.525325
 20
341.290338
 30
0.0
 10
253.656524
 20
340.830779
 30
0.0
 11
262.122488
 21
340.930372
 31
0.0
 11
259.412642
 21
342.027444
 31
0.0
 11
256.339811
 21
341.991295
 31
0.0
 11
253.656524
 21
340.830779
 31
0.0
  0
LWPOLYLINE
  5
1a8
100
AcDbEntity
  8
0
 62
5
100
AcDbPolyline
 90
4
 70
0
 10
272.045913
 20
337.095774
 30
0.0
 10
262.168956
 20
336.979580
 30
0.0
 10
262.162324
 20
337.543980
 30
0.0
 10
263.855516
 20
337.563904
 30
0.0
  0
LWPOLYLINE
  5
1a9
100
AcDbEntity
  8
0
 62
5
100
AcDbPolyline
 90
4
 70
0
 10
252.003171
 20
337.424475
 30
0.0
 10
253.696363
 20
337.444400
 30
0.0
 10
253.702995
 20
336.880004
 30
0.0
 10
243.826038
 20
336.763810
 30
0.0
  0
LWPOLYLINE
  5
1aa
100
AcDbEntity
  8
0
 62
1
100
AcDbPolyline
 90
2
 70
0
 10
260.193564
 20
336.956342
 30
0.0
 10
255.678384
 20
336.903225
 30
0.0
  0
LWPOLYLINE
  5
1ab
100
AcDbEntity
  8
0
 62
5
100
AcDbPolyline
 90
4
 70
0
 10
243.826050
 20
336.763545
 30
0.0
 10
233.602400
 20
332.564098
 30
0.0
 10
223.771897
 20
310.626782
 30
0.0
 10
227.441881
 20
300.201351
 30
0.0
  0
LWPOLYLINE
  5
1ac
100
AcDbEntity
  8
0
 62
5
100
AcDbPolyline
 90
4
 70
0
 10
240.335348
 20
326.034605
 30
0.0
 10
237.851871
 20
325.391327
 30
0.0
 10
231.953570
 20
312.228937
 30
0.0
 10
233.126314
 20
309.947240
 30
0.0
  0
LWPOLYLINE
  5
1ad
100
AcDbEntity
  8
0
 62
1
100
AcDbPolyline
 90
2
 70
0
 10
243.826050
 20
336.763545
 30
0.0
 10
239.238482
 20
326.526131
 30
0.0
  0
LWPOLYLINE
  5
1ae
100
AcDbEntity
  8
0
 62
1
100
AcDbPolyline
 90
2
 70
0
 10
227.441881
 20
300.201351
 30
0.0
 10
232.029449
 20
310.438765
 30
0.0
  0
LWPOLYLINE
  5
1af
100
AcDbEntity
  8
0
 62
5
100
AcDbPolyline
 90
8
 70
0
 10
266.161664
 20
289.906488
 30
0.0
 10
239.058086
 20
297.112774
 30
0.0
 10
237.563067
 20
294.608309
 30
0.0
 10
233.588182
 20
295.250585
 30
0.0
 10
232.269894
 20
298.088483
 30
0.0
 10
233.044280
 20
297.882590
 30
0.0
 10
233.250176
 20
298.656978
 30
0.0
 10
227.442265
 20
300.201181
 30
0.0
  0
LWPOLYLINE
  5
1b0
100
AcDbEntity
  8
0
 62
1
100
AcDbPolyline
 90
2
 70
0
 10
237.509310
 20
297.524561
 30
0.0
 10
234.798952
 20
298.245190
 30
0.0
  0
LWPOLYLINE
  5
1b1
100
AcDbEntity
  8
0
 62
5
100
AcDbPolyline
 90
7
 70
0
 10
226.099726
 20
289.435020
 30
0.0
 10
226.853835
 20
293.450634
 30
0.0
 10
230.864735
 20
293.097144
 30
0.0
 10
232.500201
 20
290.311664
 30
0.0
 10
231.698964
 20
290.302238
 30
0.0
 10
231.708390
 20
289.501000
 30
0.0
 10
266.161607
 20
289.906310
 30
0.0
  0
LWPOLYLINE
  5
1b2
100
AcDbEntity
  8
0
 62
1
100
AcDbPolyline
 90
2
 70
0
 10
227.702200
 20
289.453872
 30
0.0
 10
230.105912
 20
289.482149
 30
0.0
  0
LWPOLYLINE
  5
1b3
100
AcDbEntity
  8
0
 62
5
100
AcDbPolyline
 90
8
 70
0
 10
233.003855
 20
249.968587
 30
0.0
 10
228.170966
 20
277.594880
 30
0.0
 10
225.270255
 20
277.900914
 30
0.0
 10
224.185181
 20
281.778486
 30
0.0
 10
226.207941
 20
284.166040
 30
0.0
 10
226.346024
 20
283.376718
 30
0.0
 10
227.135346
 20
283.514800
 30
0.0
 10
226.099728
 20
289.434720
 30
0.0
  0
LWPOLYLINE
  5
1b4
100
AcDbEntity
  8
0
 62
1
100
AcDbPolyline
 90
2
 70
0
 10
227.894800
 20
279.173525
 30
0.0
 10
227.411511
 20
281.936155
 30
0.0
  0
LWPOLYLINE
  5
1b5
100
AcDbEntity
  8
0
 62
5
100
AcDbPolyline
 90
7
 70
0
 10
215.763540
 20
286.135079
 30
0.0
 10
219.724997
 20
287.135795
 30
0.0
 10
221.087377
 20
283.346744
 30
0.0
 10
219.245341
 20
280.693253
 30
0.0
 10
218.900533
 20
281.416583
 30
0.0
 10
218.177203
 20
281.071774
 30
0.0
 10
233.003990
 20
249.968609
 30
0.0
  0
LWPOLYLINE
  5
1b6
100
AcDbEntity
  8
0
 62
1
100
AcDbPolyline
 90
2
 70
0
 10
216.453158
 20
284.688421
 30
0.0
 10
217.487585
 20
282.518432
 30
0.0
  0
LWPOLYLINE
  5
1b7
100
AcDbEntity
  8
0
 62
5
100
AcDbPolyline
 90
8
 70
0
 10
182.838288
 20
263.306700
 30
0.0
 10
205.886242
 20
279.286699
 30
0.0
 10
204.946755
 20
282.048066
 30
0.0
 10
208.011034
 20
284.660180
 30
0.0
 10
211.027033
 20
283.826069
 30
0.0
 10
210.368518
 20
283.369498
 30
0.0
 10
210.825091
 20
282.710985
 30
0.0
 10
215.763938
 20
286.135271
 30
0.0
  0
LWPOLYLINE
  5
1b8
100
AcDbEntity
  8
0
 62
1
100
AcDbPolyline
 90
2
 70
0
 10
207.203269
 20
280.199842
 30
0.0
 10
209.508065
 20
281.797842
 30
0.0
  0
LWPOLYLINE
  5
1b9
100
AcDbEntity
  8
0
 62
5
100
AcDbPolyline
 90
7
 70
0
 10
208.431407
 20
294.132176
 30
0.0
 10
211.002095
 20
290.956356
 30
0.0
 10
208.134531
 20
288.129737
 30
0.0
 10
204.953021
 20
288.688234
 30
0.0
 10
205.464884
 20
289.304744
 30
0.0
 10
204.848373
 20
289.816606
 30
0.0
 10
182.838307
 20
263.306671
 30
0.0
  0
LWPOLYLINE
  5
1ba
100
AcDbEntity
  8
0
 62
1
100
AcDbPolyline
 90
2
 70
0
 10
207.407682
 20
292.899156
 30
0.0
 10
205.872097
 20
291.049626
 30
0.0
  0
SPLINE
  5
1bb
100
AcDbEntity
  8
0
 62
5
100
AcDbSpline
 70
0
 71
3
 72
10
 73
6
 74
4
 40
0.000000
 40
0.000000
 40
0.000000
 40
0.000000
 40
1.743663
 40
3.211787
 40
3.851358
 40
3.851358
 40
3.851358
 40
3.851358
 10
253.656524
 20
340.830779
 30
0.0
 10
253.268767
 20
340.389297
 30
0.0
 10
252.554528
 20
339.576098
 30
0.0
 10
252.159500
 20
338.325382
 30
0.0
 10
252.039564
 20
337.634209
 30
0.0
 10
252.003171
 20
337.424475
 30
0.0
 11
253.656524
 21
340.830779
 31
0.0
 11
252.606671
 21
339.438598
 31
0.0
 11
252.121215
 21
338.053059
 31
0.0
 11
252.003171
 21
337.424475
 31
0.0
  0
SPLINE
  5
1bc
100
AcDbEntity
  8
0
 62
5
100
AcDbSpline
 70
0
 71
3
 72
10
 73
6
 74
4
 40
0.000000
 40
0.000000
 40
0.000000
 40
0.000000
 40
0.907970
 40
2.992197
 40
5.467592
 40
5.467592
 40
5.467592
 40
5.467592
 10
184.315402
 20
309.240526
 30
0.0
 10
184.513547
 20
309.468698
 30
0.0
 10
185.166532
 20
310.220634
 30
0.0
 10
186.564456
 20
311.450675
 30
0.0
 10
188.029223
 20
311.914760
 30
0.0
 10
188.824438
 20
312.166710
 30
0.0
 11
184.315402
 21
309.240526
 31
0.0
 11
184.920155
 21
309.917787
 31
0.0
 11
186.526916
 21
311.245311
 31
0.0
 11
188.824438
 21
312.166710
 31
0.0
  0
SPLINE
  5
1bd
100
AcDbEntity
  8
0
 62
5
100
AcDbSpline
 70
0
 71
3
 72
10
 73
6
 74
4
 40
0.000000
 40
0.000000
 40
0.000000
 40
0.000000
 40
4.150349
 40
8.513005
 40
12.663355
 40
12.663355
 40
12.663355
 40
12.663355
 10
188.824438
 20
312.166710
 30
0.0
 10
190.217511
 20
312.087606
 30
0.0
 10
193.074917
 20
311.925351
 30
0.0
 10
196.908168
 20
309.671627
 30
0.0
 10
198.439347
 20
307.253655
 30
0.0
 10
199.185843
 20
306.074819
 30
0.0
 11
188.824438
 21
312.166710
 31
0.0
 11
192.936989
 21
311.607850
 31
0.0
 11
196.697795
 21
309.396720
 31
0.0
 11
199.185843
 21
306.074819
 31
0.0
  0
LWPOLYLINE
  5
1be
100
AcDbEntity
  8
0
 62
5
100
AcDbPolyline
 90
4
 70
0
 10
173.893251
 20
314.438593
 30
0.0
 10
185.981557
 20
307.331388
 30
0.0
 10
186.387684
 20
308.022148
 30
0.0
 10
184.315402
 20
309.240526
 30
0.0
  0
LWPOLYLINE
  5
1bf
100
AcDbEntity
  8
0
 62
5
100
AcDbPolyline
 90
4
 70
0
 10
198.821367
 20
300.711880
 30
0.0
 10
196.749086
 20
301.930258
 30
0.0
 10
196.342960
 20
301.239498
 30
0.0
 10
208.431265
 20
294.132292
 30
0.0
  0
LWPOLYLINE
  5
1c0
100
AcDbEntity
  8
0
 62
1
100
AcDbPolyline
 90
2
 70
0
 10
188.399217
 20
305.909947
 30
0.0
 10
193.925300
 20
302.660939
 30
0.0
  0
LWPOLYLINE
  5
1c1
100
AcDbEntity
  8
0
 62
5
100
AcDbPolyline
 90
4
 70
0
 10
150.700542
 20
298.358285
 30
0.0
 10
152.283818
 20
305.980988
 30
0.0
 10
166.199473
 20
315.629226
 30
0.0
 10
173.893299
 20
314.438681
 30
0.0
  0
LWPOLYLINE
  5
1c2
100
AcDbEntity
  8
0
 62
5
100
AcDbPolyline
 90
4
 70
0
 10
157.676926
 20
302.165013
 30
0.0
 10
157.800616
 20
303.967867
 30
0.0
 10
166.150011
 20
309.756810
 30
0.0
 10
167.881740
 20
309.240388
 30
0.0
  0
LWPOLYLINE
  5
1c3
100
AcDbEntity
  8
0
 62
1
100
AcDbPolyline
 90
2
 70
0
 10
150.700542
 20
298.358285
 30
0.0
 10
157.194515
 20
302.860796
 30
0.0
  0
LWPOLYLINE
  5
1c4
100
AcDbEntity
  8
0
 62
1
100
AcDbPolyline
 90
2
 70
0
 10
173.893299
 20
314.438681
 30
0.0
 10
167.399329
 20
309.936170
 30
0.0
  0
LWPOLYLINE
  5
1c5
100
AcDbEntity
  8
0
 62
5
100
AcDbPolyline
 90
8
 70
0
 10
155.563666
 20
270.558360
 30
0.0
 10
152.159349
 20
290.018498
 30
0.0
 10
150.116069
 20
290.234070
 30
0.0
 10
149.351735
 20
292.965457
 30
0.0
 10
150.776582
 20
294.647266
 30
0.0
 10
150.873847
 20
294.091261
 30
0.0
 10
151.429850
 20
294.188528
 30
0.0
 10
150.700353
 20
298.358557
 30
0.0
  0
LWPOLYLINE
  5
1c6
100
AcDbEntity
  8
0
 62
1
100
AcDbPolyline
 90
2
 70
0
 10
151.964816
 20
291.130506
 30
0.0
 10
151.624383
 20
293.076520
 30
0.0
  0
LWPOLYLINE
  5
1c7
100
AcDbEntity
  8
0
 62
5
100
AcDbPolyline
 90
7
 70
0
 10
143.419387
 20
296.034076
 30
0.0
 10
146.209845
 20
296.738981
 30
0.0
 10
147.169508
 20
294.069966
 30
0.0
 10
145.871974
 20
292.200843
 30
0.0
 10
145.629091
 20
292.710357
 30
0.0
 10
145.119575
 20
292.467473
 30
0.0
 10
155.563593
 20
270.558346
 30
0.0
  0
LWPOLYLINE
  5
1c8
100
AcDbEntity
  8
0
 62
1
100
AcDbPolyline
 90
2
 70
0
 10
143.905156
 20
295.015046
 30
0.0
 10
144.633809
 20
293.486503
 30
0.0
  0
SPLINE
  5
1c9
100
AcDbEntity
  8
0
 62
5
100
AcDbSpline
 70
0
 71
3
 72
10
 73
6
 74
4
 40
0.000000
 40
0.000000
 40
0.000000
 40
0.000000
 40
2.475395
 40
4.559622
 40
5.467592
 40
5.467592
 40
5.467592
 40
5.467592
 10
199.185843
 20
306.074819
 30
0.0
 10
199.352352
 20
305.257434
 30
0.0
 10
199.659058
 20
303.751827
 30
0.0
 10
199.263951
 20
301.932188
 30
0.0
 10
198.924402
 20
300.995971
 30
0.0
 10
198.821367
 20
300.711880
 30
0.0
 11
199.185843
 21
306.074819
 31
0.0
 11
199.497860
 21
303.619167
 31
0.0
 11
199.119116
 21
301.569641
 31
0.0
 11
198.821367
 21
300.711880
 31
0.0
  0
SPLINE
  5
1ca
100
AcDbEntity
  8
0
 62
5
100
AcDbSpline
 70
0
 71
3
 72
10
 73
6
 74
4
 40
0.000000
 40
0.000000
 40
0.000000
 40
0.000000
 40
0.907970
 40
2.992199
 40
5.467596
 40
5.467596
 40
5.467596
 40
5.467596
 10
131.792074
 20
296.698755
 30
0.0
 10
131.733417
 20
296.995206
 30
0.0
 10
131.540114
 20
297.972156
 30
0.0
 10
130.937695
 20
299.734056
 30
0.0
 10
129.896844
 20
300.864343
 30
0.0
 10
129.331771
 20
301.477971
 30
0.0
 11
131.792074
 21
296.698755
 31
0.0
 11
131.603546
 21
297.586937
 31
0.0
 11
130.868283
 21
299.537167
 31
0.0
 11
129.331771
 21
301.477971
 31
0.0
  0
SPLINE
  5
1cb
100
AcDbEntity
  8
0
 62
5
100
AcDbSpline
 70
0
 71
3
 72
10
 73
6
 74
4
 40
0.000000
 40
0.000000
 40
0.000000
 40
0.000000
 40
4.150351
 40
8.513007
 40
12.663358
 40
12.663358
 40
12.663358
 40
12.663358
 10
129.331771
 20
301.477971
 30
0.0
 10
128.083369
 20
302.101190
 30
0.0
 10
125.522705
 20
303.379510
 30
0.0
 10
121.076317
 20
303.327202
 30
0.0
 10
118.546434
 20
301.988997
 30
0.0
 10
117.313038
 20
301.336582
 30
0.0
 11
129.331771
 21
301.477971
 31
0.0
 11
125.484730
 21
303.035433
 31
0.0
 11
121.122376
 21
302.984114
 31
0.0
 11
117.313038
 21
301.336582
 31
0.0
  0
LWPOLYLINE
  5
1cc
100
AcDbEntity
  8
0
 62
5
100
AcDbPolyline
 90
4
 70
0
 10
143.419610
 20
296.034182
 30
0.0
 10
129.397754
 20
295.869228
 30
0.0
 10
129.388328
 20
296.670477
 30
0.0
 10
131.792074
 20
296.698755
 30
0.0
  0
LWPOLYLINE
  5
1cd
100
AcDbEntity
  8
0
 62
5
100
AcDbPolyline
 90
4
 70
0
 10
114.965847
 20
296.500810
 30
0.0
 10
117.369593
 20
296.529088
 30
0.0
 10
117.379019
 20
295.727839
 30
0.0
 10
103.357164
 20
295.562885
 30
0.0
  0
LWPOLYLINE
  5
1ce
100
AcDbEntity
  8
0
 62
1
100
AcDbPolyline
 90
2
 70
0
 10
126.593383
 20
295.836237
 30
0.0
 10
120.183391
 20
295.760830
 30
0.0
  0
LWPOLYLINE
  5
1cf
100
AcDbEntity
  8
0
 62
5
100
AcDbPolyline
 90
7
 70
0
 10
103.357166
 20
295.562591
 30
0.0
 10
99.548640
 20
294.082858
 30
0.0
 10
100.633711
 20
290.205291
 30
0.0
 10
103.672502
 20
289.109935
 30
0.0
 10
103.534419
 20
289.899257
 30
0.0
 10
104.323741
 20
290.037340
 30
0.0
 10
110.261284
 20
256.096506
 30
0.0
  0
LWPOLYLINE
  5
1d0
100
AcDbEntity
  8
0
 62
1
100
AcDbPolyline
 90
2
 70
0
 10
103.633329
 20
293.983948
 30
0.0
 10
104.047578
 20
291.615983
 30
0.0
  0
LWPOLYLINE
  5
1d1
100
AcDbEntity
  8
0
 62
5
100
AcDbPolyline
 90
8
 70
0
 10
110.261146
 20
256.096481
 30
0.0
 10
98.192909
 20
281.412850
 30
0.0
 10
100.379739
 20
283.342998
 30
0.0
 10
99.017365
 20
287.132026
 30
0.0
 10
95.985375
 20
287.905917
 30
0.0
 10
96.330180
 20
287.182593
 30
0.0
 10
95.606856
 20
286.837786
 30
0.0
 10
93.020806
 20
292.262722
 30
0.0
  0
LWPOLYLINE
  5
1d2
100
AcDbEntity
  8
0
 62
1
100
AcDbPolyline
 90
2
 70
0
 10
97.503293
 20
282.859499
 30
0.0
 10
96.296469
 20
285.391136
 30
0.0
  0
LWPOLYLINE
  5
1d3
100
AcDbEntity
  8
0
 62
5
100
AcDbPolyline
 90
7
 70
0
 10
93.021094
 20
292.262860
 30
0.0
 10
95.347525
 20
295.621769
 30
0.0
 10
92.276907
 20
298.226433
 30
0.0
 10
89.145945
 20
297.431961
 30
0.0
 10
89.702411
 20
296.855382
 30
0.0
 10
89.125834
 20
296.298916
 30
0.0
 10
65.197807
 20
321.091829
 30
0.0
  0
LWPOLYLINE
  5
1d4
100
AcDbEntity
  8
0
 62
1
100
AcDbPolyline
 90
2
 70
0
 10
91.908162
 20
293.416019
 30
0.0
 10
90.238763
 20
295.145757
 30
0.0
  0
LWPOLYLINE
  5
1d5
100
AcDbEntity
  8
0
 62
5
100
AcDbPolyline
 90
8
 70
0
 10
65.197739
 20
321.091767
 30
0.0
 10
89.374469
 20
306.877228
 30
0.0
 10
88.643779
 20
304.053426
 30
0.0
 10
91.894533
 20
301.677395
 30
0.0
 10
94.839832
 20
302.734362
 30
0.0
 10
94.149068
 20
303.140492
 30
0.0
 10
94.555197
 20
303.831256
 30
0.0
 10
99.735925
 20
300.785283
 30
0.0
  0
LWPOLYLINE
  5
1d6
100
AcDbEntity
  8
0
 62
1
100
AcDbPolyline
 90
2
 70
0
 10
90.755998
 20
306.064969
 30
0.0
 10
93.173669
 20
304.643515
 30
0.0
  0
LWPOLYLINE
  5
1d7
100
AcDbEntity
  8
0
 62
5
100
AcDbPolyline
 90
4
 70
0
 10
114.227734
 20
338.138057
 30
0.0
 10
118.426394
 20
327.914089
 30
0.0
 10
109.731344
 20
305.502480
 30
0.0
 10
99.735984
 20
300.785376
 30
0.0
  0
LWPOLYLINE
  5
1d8
100
AcDbEntity
  8
0
 62
5
100
AcDbPolyline
 90
4
 70
0
 10
109.049464
 20
328.114060
 30
0.0
 10
110.337428
 20
325.895365
 30
0.0
 10
105.120398
 20
312.448399
 30
0.0
 10
102.673094
 20
311.678879
 30
0.0
  0
LWPOLYLINE
  5
1d9
100
AcDbEntity
  8
0
 62
1
100
AcDbPolyline
 90
2
 70
0
 10
114.227734
 20
338.138057
 30
0.0
 10
110.170045
 20
327.679305
 30
0.0
  0
LWPOLYLINE
  5
1da
100
AcDbEntity
  8
0
 62
1
100
AcDbPolyline
 90
2
 70
0
 10
99.735984
 20
300.785376
 30
0.0
 10
103.793674
 20
311.244127
 30
0.0
  0
SPLINE
  5
1db
100
AcDbEntity
  8
0
 62
5
100
AcDbSpline
 70
0
 71
3
 72
10
 73
6
 74
4
 40
0.000000
 40
0.000000
 40
0.000000
 40
0.000000
 40
2.475397
 40
4.559625
 40
5.467595
 40
5.467595
 40
5.467595
 40
5.467595
 10
117.313038
 20
301.336582
 30
0.0
 10
116.762557
 20
300.709831
 30
0.0
 10
115.748584
 20
299.555370
 30
0.0
 10
115.187781
 20
297.779786
 30
0.0
 10
115.017514
 20
296.798559
 30
0.0
 10
114.965847
 20
296.500810
 30
0.0
 11
117.313038
 21
301.336582
 31
0.0
 11
115.822609
 21
299.360168
 31
0.0
 11
115.133429
 21
297.393181
 31
0.0
 11
114.965847
 21
296.500810
 31
0.0
  0
SPLINE
  5
1dc
100
AcDbEntity
  8
0
 62
5
100
AcDbSpline
 70
0
 71
3
 72
10
 73
6
 74
4
 40
0.000000
 40
0.000000
 40
0.000000
 40
0.000000
 40
0.639580
 40
2.107724
 40
3.851409
 40
3.851409
 40
3.851409
 40
3.851409
 10
108.950269
 20
344.419099
 30
0.0
 10
109.073880
 20
344.592403
 30
0.0
 10
109.481238
 20
345.163523
 30
0.0
 10
110.093265
 20
346.323612
 30
0.0
 10
110.169705
 20
347.403250
 30
0.0
 10
110.211204
 20
347.989380
 30
0.0
 11
108.950269
 21
344.419099
 31
0.0
 11
109.314434
 21
344.944881
 31
0.0
 11
109.958807
 21
346.264059
 31
0.0
 11
110.211204
 21
347.989380
 31
0.0
  0
SPLINE
  5
1dd
100
AcDbEntity
  8
0
 62
5
100
AcDbSpline
 70
0
 71
3
 72
10
 73
6
 74
4
 40
0.000000
 40
0.000000
 40
0.000000
 40
0.000000
 40
2.923534
 40
5.996617
 40
8.920150
 40
8.920150
 40
8.920150
 40
8.920150
 10
110.211204
 20
347.989380
 30
0.0
 10
109.927451
 20
348.930399
 30
0.0
 10
109.345431
 20
350.860576
 30
0.0
 10
107.170235
 20
353.114396
 30
0.0
 10
105.261931
 20
353.764555
 30
0.0
 10
104.331575
 20
354.081527
 30
0.0
 11
110.211204
 21
347.989380
 31
0.0
 11
109.150719
 21
350.713791
 31
0.0
 11
107.016631
 21
352.925016
 31
0.0
 11
104.331575
 21
354.081527
 31
0.0
  0
LWPOLYLINE
  5
1de
100
AcDbEntity
  8
0
 62
5
100
AcDbPolyline
 90
4
 70
0
 10
114.227765
 20
338.138046
 30
0.0
 10
107.368199
 20
345.245553
 30
0.0
 10
107.774342
 20
345.637529
 30
0.0
 10
108.950269
 20
344.419099
 30
0.0
  0
LWPOLYLINE
  5
1df
100
AcDbEntity
  8
0
 62
5
100
AcDbPolyline
 90
4
 70
0
 10
100.718789
 20
352.948106
 30
0.0
 10
101.894716
 20
351.729676
 30
0.0
 10
101.488573
 20
351.337701
 30
0.0
 10
94.629007
 20
358.445208
 30
0.0
  0
LWPOLYLINE
  5
1e0
100
AcDbEntity
  8
0
 62
1
100
AcDbPolyline
 90
2
 70
0
 10
105.996286
 20
346.667056
 30
0.0
 10
102.860486
 20
349.916201
 30
0.0
  0
LWPOLYLINE
  5
1e1
100
AcDbEntity
  8
0
 62
5
100
AcDbPolyline
 90
4
 70
0
 10
67.971955
 20
349.177304
 30
0.0
 10
71.542461
 20
356.095685
 30
0.0
 10
87.536632
 20
361.656369
 30
0.0
 10
94.628908
 20
358.445112
 30
0.0
  0
LWPOLYLINE
  5
1e2
100
AcDbEntity
  8
0
 62
5
100
AcDbPolyline
 90
4
 70
0
 10
75.713937
 20
350.972581
 30
0.0
 10
76.316823
 20
352.676140
 30
0.0
 10
85.913327
 20
356.012551
 30
0.0
 10
87.442994
 20
355.050416
 30
0.0
  0
LWPOLYLINE
  5
1e3
100
AcDbEntity
  8
0
 62
1
100
AcDbPolyline
 90
2
 70
0
 10
67.971955
 20
349.177304
 30
0.0
 10
75.435900
 20
351.772289
 30
0.0
  0
LWPOLYLINE
  5
1e4
100
AcDbEntity
  8
0
 62
1
100
AcDbPolyline
 90
2
 70
0
 10
94.628908
 20
358.445112
 30
0.0
 10
87.164960
 20
355.850124
 30
0.0
  0
SPLINE
  5
1e5
100
AcDbEntity
  8
0
 62
5
100
AcDbSpline
 70
0
 71
3
 72
10
 73
6
 74
4
 40
0.000000
 40
0.000000
 40
0.000000
 40
0.000000
 40
1.743685
 40
3.211829
 40
3.851409
 40
3.851409
 40
3.851409
 40
3.851409
 10
104.331575
 20
354.081527
 30
0.0
 10
103.744342
 20
354.060858
 30
0.0
 10
102.662671
 20
354.022785
 30
0.0
 10
101.481590
 20
353.452319
 30
0.0
 10
100.896371
 20
353.065488
 30
0.0
 10
100.718789
 20
352.948106
 30
0.0
 11
104.331575
 21
354.081527
 31
0.0
 11
102.598383
 21
353.890525
 31
0.0
 11
101.257166
 21
353.293380
 31
0.0
 11
100.718789
 21
352.948106
 31
0.0
  0
SPLINE
  5
1e6
100
AcDbEntity
  8
0
 62
5
100
AcDbSpline
 70
0
 71
3
 72
10
 73
6
 74
4
 40
0.000000
 40
0.000000
 40
0.000000
 40
0.000000
 40
0.639581
 40
2.107728
 40
3.851418
 40
3.851418
 40
3.851418
 40
3.851418
 10
61.202683
 20
353.811960
 30
0.0
 10
61.275261
 20
354.012076
 30
0.0
 10
61.514443
 20
354.671555
 30
0.0
 10
61.792759
 20
355.953324
 30
0.0
 10
61.576713
 20
357.013886
 30
0.0
 10
61.459423
 20
357.589660
 30
0.0
 11
61.202683
 21
353.811960
 31
0.0
 11
61.412420
 21
354.416174
 31
0.0
 11
61.679210
 21
355.859877
 31
0.0
 11
61.459423
 21
357.589660
 31
0.0
  0
SPLINE
  5
1e7
100
AcDbEntity
  8
0
 62
5
100
AcDbSpline
 70
0
 71
3
 72
10
 73
6
 74
4
 40
0.000000
 40
0.000000
 40
0.000000
 40
0.000000
 40
2.923540
 40
5.996631
 40
8.920171
 40
8.920171
 40
8.920171
 40
8.920171
 10
61.459423
 20
357.589660
 30
0.0
 10
60.933585
 20
358.420041
 30
0.0
 10
59.855010
 20
360.123280
 30
0.0
 10
57.154837
 20
361.710821
 30
0.0
 10
55.142056
 20
361.825115
 30
0.0
 10
54.160764
 20
361.880837
 30
0.0
 11
61.459423
 21
357.589660
 31
0.0
 11
59.706822
 21
359.929633
 31
0.0
 11
57.057679
 21
361.487172
 31
0.0
 11
54.160764
 21
361.880837
 31
0.0
  0
LWPOLYLINE
  5
1e8
100
AcDbEntity
  8
0
 62
5
100
AcDbPolyline
 90
4
 70
0
 10
67.971975
 20
349.177244
 30
0.0
 10
59.456873
 20
354.183618
 30
0.0
 10
59.742953
 20
354.670195
 30
0.0
 10
61.202683
 20
353.811960
 30
0.0
  0
LWPOLYLINE
  5
1e9
100
AcDbEntity
  8
0
 62
5
100
AcDbPolyline
 90
4
 70
0
 10
50.984562
 20
359.819610
 30
0.0
 10
52.444294
 20
358.961372
 30
0.0
 10
52.158214
 20
358.474796
 30
0.0
 10
43.643115
 20
363.481170
 30
0.0
  0
LWPOLYLINE
  5
1ea
100
AcDbEntity
  8
0
 62
1
100
AcDbPolyline
 90
2
 70
0
 10
57.753854
 20
355.184892
 30
0.0
 10
53.861236
 20
357.473522
 30
0.0
  0
LWPOLYLINE
  5
1eb
100
AcDbEntity
  8
0
 62
5
100
AcDbPolyline
 90
4
 70
0
 10
43.643087
 20
363.481125
 30
0.0
 10
32.720554
 20
365.171280
 30
0.0
 10
12.965212
 20
351.474169
 30
0.0
 10
10.717516
 20
340.652609
 30
0.0
  0
LWPOLYLINE
  5
1ec
100
AcDbEntity
  8
0
 62
5
100
AcDbPolyline
 90
4
 70
0
 10
35.108783
 20
356.101372
 30
0.0
 10
32.650334
 20
356.834512
 30
0.0
 10
20.797128
 20
348.616246
 30
0.0
 10
20.621531
 20
346.056826
 30
0.0
  0
LWPOLYLINE
  5
1ed
100
AcDbEntity
  8
0
 62
1
100
AcDbPolyline
 90
2
 70
0
 10
43.643087
 20
363.481125
 30
0.0
 10
34.423929
 20
357.089141
 30
0.0
  0
LWPOLYLINE
  5
1ee
100
AcDbEntity
  8
0
 62
1
100
AcDbPolyline
 90
2
 70
0
 10
10.717516
 20
340.652609
 30
0.0
 10
19.936676
 20
347.044593
 30
0.0
  0
SPLINE
  5
1ef
100
AcDbEntity
  8
0
 62
5
100
AcDbSpline
 70
0
 71
3
 72
10
 73
6
 74
4
 40
0.000000
 40
0.000000
 40
0.000000
 40
0.000000
 40
1.743689
 40
3.211835
 40
3.851416
 40
3.851416
 40
3.851416
 40
3.851416
 10
54.160764
 20
361.880837
 30
0.0
 10
53.600609
 20
361.703362
 30
0.0
 10
52.568815
 20
361.376456
 30
0.0
 10
51.584105
 20
360.510005
 30
0.0
 10
51.124137
 20
359.980336
 30
0.0
 10
50.984562
 20
359.819610
 30
0.0
 11
54.160764
 21
361.880837
 31
0.0
 11
52.542371
 21
361.231796
 31
0.0
 11
51.410555
 21
360.296678
 31
0.0
 11
50.984562
 21
359.819610
 31
0.0
  0
SPLINE
  5
1f0
100
AcDbEntity
  8
0
 62
5
100
AcDbSpline
 70
0
 71
3
 72
10
 73
6
 74
4
 40
0.000000
 40
0.000000
 40
0.000000
 40
0.000000
 40
0.907975
 40
2.992215
 40
5.467624
 40
5.467624
 40
5.467624
 40
5.467624
 10
29.895444
 20
319.627769
 30
0.0
 10
29.643342
 20
319.461128
 30
0.0
 10
28.812543
 20
318.911964
 30
0.0
 10
27.135834
 20
318.102100
 30
0.0
 10
25.600248
 20
318.048045
 30
0.0
 10
24.766586
 20
318.018699
 30
0.0
 11
29.895444
 21
319.627769
 31
0.0
 11
29.131145
 21
319.137601
 31
0.0
 11
27.227099
 21
318.289862
 31
0.0
 11
24.766586
 21
318.018699
 31
0.0
  0
SPLINE
  5
1f1
100
AcDbEntity
  8
0
 62
5
100
AcDbSpline
 70
0
 71
3
 72
10
 73
6
 74
4
 40
0.000000
 40
0.000000
 40
0.000000
 40
0.000000
 40
4.150373
 40
8.513053
 40
12.663426
 40
12.663426
 40
12.663426
 40
12.663426
 10
24.766586
 20
318.018699
 30
0.0
 10
23.445811
 20
318.468682
 30
0.0
 10
20.736699
 20
319.391666
 30
0.0
 10
17.648687
 20
322.591274
 30
0.0
 10
16.822418
 20
325.331433
 30
0.0
 10
16.419587
 20
326.667344
 30
0.0
 11
24.766586
 21
318.018699
 31
0.0
 11
20.954760
 21
319.660519
 31
0.0
 11
17.925108
 21
322.799657
 31
0.0
 11
16.419587
 21
326.667344
 31
0.0
  0
LWPOLYLINE
  5
1f2
100
AcDbEntity
  8
0
 62
5
100
AcDbPolyline
 90
4
 70
0
 10
38.540786
 20
311.823880
 30
0.0
 10
28.802621
 20
321.913965
 30
0.0
 10
28.226044
 20
321.357498
 30
0.0
 10
29.895444
 20
319.627769
 30
0.0
  0
LWPOLYLINE
  5
1f3
100
AcDbEntity
  8
0
 62
5
100
AcDbPolyline
 90
4
 70
0
 10
18.209645
 20
331.735872
 30
0.0
 10
19.879044
 20
330.006143
 30
0.0
 10
20.455621
 20
330.562609
 30
0.0
 10
10.717455
 20
340.652694
 30
0.0
  0
LWPOLYLINE
  5
1f4
100
AcDbEntity
  8
0
 62
1
100
AcDbPolyline
 90
2
 70
0
 10
26.854987
 20
323.931982
 30
0.0
 10
22.403254
 20
328.544593
 30
0.0
  0
LWPOLYLINE
  5
1f5
100
AcDbEntity
  8
0
 62
5
100
AcDbPolyline
 90
4
 70
0
 10
38.540809
 20
311.823900
 30
0.0
 10
32.649739
 20
306.733875
 30
0.0
 10
30.985279
 20
289.882562
 30
0.0
 10
35.766708
 20
283.738379
 30
0.0
  0
LWPOLYLINE
  5
1f6
100
AcDbEntity
  8
0
 62
5
100
AcDbPolyline
 90
4
 70
0
 10
38.606626
 20
303.876731
 30
0.0
 10
37.091386
 20
302.892015
 30
0.0
 10
36.092709
 20
292.781228
 30
0.0
 10
37.386020
 20
291.519102
 30
0.0
  0
LWPOLYLINE
  5
1f7
100
AcDbEntity
  8
0
 62
1
100
AcDbPolyline
 90
2
 70
0
 10
38.540809
 20
311.823900
 30
0.0
 10
37.764060
 20
303.959954
 30
0.0
  0
LWPOLYLINE
  5
1f8
100
AcDbEntity
  8
0
 62
1
100
AcDbPolyline
 90
2
 70
0
 10
35.766708
 20
283.738379
 30
0.0
 10
36.543454
 20
291.602325
 30
0.0
  0
LWPOLYLINE
  5
1f9
100
AcDbEntity
  8
0
 62
5
100
AcDbPolyline
 90
8
 70
0
 10
60.095457
 20
269.434534
 30
0.0
 10
43.065438
 20
279.447215
 30
0.0
 10
41.577596
 20
278.030290
 30
0.0
 10
39.001697
 20
279.217387
 30
0.0
 10
38.643498
 20
281.392295
 30
0.0
 10
39.130069
 20
281.106218
 30
0.0
 10
39.416146
 20
281.592790
 30
0.0
 10
35.766855
 20
283.738365
 30
0.0
  0
LWPOLYLINE
  5
1fa
100
AcDbEntity
  8
0
 62
1
100
AcDbPolyline
 90
2
 70
0
 10
42.092293
 20
280.019369
 30
0.0
 10
40.389291
 20
281.020637
 30
0.0
  0
LWPOLYLINE
  5
1fb
100
AcDbEntity
  8
0
 62
5
100
AcDbPolyline
 90
7
 70
0
 10
32.820999
 20
276.686109
 30
0.0
 10
34.091646
 20
279.268524
 30
0.0
 10
36.746575
 20
278.270622
 30
0.0
 10
37.329945
 20
276.071348
 30
0.0
 10
36.784455
 20
276.216379
 30
0.0
 10
36.639424
 20
275.670890
 30
0.0
 10
60.095460
 20
269.434543
 30
0.0
  0
LWPOLYLINE
  5
1fc
100
AcDbEntity
  8
0
 62
1
100
AcDbPolyline
 90
2
 70
0
 10
33.911977
 20
276.396046
 30
0.0
 10
35.548446
 20
275.960952
 30
0.0
  0
SPLINE
  5
1fd
100
AcDbEntity
  8
0
 62
5
100
AcDbSpline
 70
0
 71
3
 72
10
 73
6
 74
4
 40
0.000000
 40
0.000000
 40
0.000000
 40
0.000000
 40
2.475409
 40
4.559647
 40
5.467622
 40
5.467622
 40
5.467622
 40
5.467622
 10
16.419587
 20
326.667344
 30
0.0
 10
16.478497
 20
327.499439
 30
0.0
 10
16.587010
 20
329.032139
 30
0.0
 10
17.455863
 20
330.679054
 30
0.0
 10
18.034162
 20
331.489841
 30
0.0
 10
18.209645
 20
331.735872
 30
0.0
 11
16.419587
 21
326.667344
 31
0.0
 11
16.777892
 21
329.116684
 31
0.0
 11
17.692664
 21
330.989447
 31
0.0
 11
18.209645
 21
331.735872
 31
0.0
  0
SPLINE
  5
1fe
100
AcDbEntity
  8
0
 62
5
100
AcDbSpline
 70
0
 71
3
 72
10
 73
6
 74
4
 40
0.000000
 40
0.000000
 40
0.000000
 40
0.000000
 40
0.639581
 40
2.107727
 40
3.851414
 40
3.851414
 40
3.851414
 40
3.851414
 10
29.808723
 20
284.317063
 30
0.0
 10
29.980928
 20
284.442201
 30
0.0
 10
30.548426
 20
284.854591
 30
0.0
 10
31.496865
 20
285.760600
 30
0.0
 10
31.911860
 20
286.760222
 30
0.0
 10
32.137158
 20
287.302911
 30
0.0
 11
29.808723
 21
284.317063
 31
0.0
 11
30.320876
 21
284.700160
 31
0.0
 11
31.350459
 21
285.746778
 31
0.0
 11
32.137158
 21
287.302911
 31
0.0
  0
SPLINE
  5
1ff
100
AcDbEntity
  8
0
 62
5
100
AcDbSpline
 70
0
 71
3
 72
10
 73
6
 74
4
 40
0.000000
 40
0.000000
 40
0.000000
 40
0.000000
 40
2.923538
 40
5.996626
 40
8.920163
 40
8.920163
 40
8.920163
 40
8.920163
 10
32.137158
 20
287.302911
 30
0.0
 10
32.166591
 20
288.285342
 30
0.0
 10
32.226962
 20
290.300460
 30
0.0
 10
30.879121
 20
293.127920
 30
0.0
 10
29.275642
 20
294.349885
 30
0.0
 10
28.493898
 20
294.945630
 30
0.0
 11
32.137158
 21
287.302911
 31
0.0
 11
31.995741
 21
290.223027
 31
0.0
 11
30.673373
 21
292.997051
 31
0.0
 11
28.493898
 21
294.945630
 31
0.0
  0
LWPOLYLINE
  5
200
100
AcDbEntity
  8
0
 62
5
100
AcDbPolyline
 90
4
 70
0
 10
32.821028
 20
276.686217
 30
0.0
 10
28.570555
 20
285.602723
 30
0.0
 10
29.080071
 20
285.845607
 30
0.0
 10
29.808723
 20
284.317063
 30
0.0
  0
LWPOLYLINE
  5
201
100
AcDbEntity
  8
0
 62
5
100
AcDbPolyline
 90
4
 70
0
 10
24.708157
 20
295.016869
 30
0.0
 10
25.436809
 20
293.488326
 30
0.0
 10
24.927294
 20
293.245441
 30
0.0
 10
20.676823
 20
302.161947
 30
0.0
  0
LWPOLYLINE
  5
202
100
AcDbEntity
  8
0
 62
1
100
AcDbPolyline
 90
2
 70
0
 10
27.720462
 20
287.386024
 30
0.0
 10
25.777389
 20
291.462140
 30
0.0
  0
LWPOLYLINE
  5
203
100
AcDbEntity
  8
0
 62
5
100
AcDbPolyline
 90
4
 70
0
 10
20.677045
 20
302.162053
 30
0.0
 10
12.574964
 20
309.679701
 30
0.0
 10
-11.462640
 20
309.396921
 30
0.0
 10
-19.385627
 20
301.690753
 30
0.0
  0
LWPOLYLINE
  5
204
100
AcDbEntity
  8
0
 62
5
100
AcDbPolyline
 90
4
 70
0
 10
9.473636
 20
300.828209
 30
0.0
 10
7.847564
 20
302.812491
 30
0.0
 10
-6.574998
 20
302.642823
 30
0.0
 10
-8.153940
 20
300.620837
 30
0.0
  0
LWPOLYLINE
  5
205
100
AcDbEntity
  8
0
 62
1
100
AcDbPolyline
 90
2
 70
0
 10
20.677045
 20
302.162053
 30
0.0
 10
9.459497
 20
302.030089
 30
0.0
  0
LWPOLYLINE
  5
206
100
AcDbEntity
  8
0
 62
1
100
AcDbPolyline
 90
2
 70
0
 10
-19.385627
 20
301.690753
 30
0.0
 10
-8.168079
 20
301.822717
 30
0.0
  0
SPLINE
  5
207
100
AcDbEntity
  8
0
 62
5
100
AcDbSpline
 70
0
 71
3
 72
10
 73
6
 74
4
 40
0.000000
 40
0.000000
 40
0.000000
 40
0.000000
 40
1.743688
 40
3.211834
 40
3.851415
 40
3.851415
 40
3.851415
 40
3.851415
 10
28.493898
 20
294.945630
 30
0.0
 10
27.930439
 20
295.112322
 30
0.0
 10
26.892561
 20
295.419364
 30
0.0
 10
25.591512
 20
295.253048
 30
0.0
 10
24.913804
 20
295.071853
 30
0.0
 10
24.708157
 20
295.016869
 30
0.0
 11
28.493898
 21
294.945630
 31
0.0
 11
26.789636
 21
295.314330
 31
0.0
 11
25.328258
 21
295.173515
 31
0.0
 11
24.708157
 21
295.016869
 31
0.0
  0
SPLINE
  5
208
100
AcDbEntity
  8
0
 62
5
100
AcDbSpline
 70
0
 71
3
 72
10
 73
6
 74
4
 40
0.000000
 40
0.000000
 40
0.000000
 40
0.000000
 40
0.907976
 40
2.992216
 40
5.467627
 40
5.467627
 40
5.467627
 40
5.467627
 10
-15.273019
 20
273.531446
 30
0.0
 10
-15.575203
 20
273.534586
 30
0.0
 10
-16.571045
 20
273.544935
 30
0.0
 10
-18.413690
 20
273.813074
 30
0.0
 10
-19.716118
 20
274.628323
 30
0.0
 10
-20.423199
 20
275.070917
 30
0.0
 11
-15.273019
 21
273.531446
 31
0.0
 11
-16.180728
 21
273.553426
 31
0.0
 11
-18.232922
 21
273.917510
 31
0.0
 11
-20.423199
 21
275.070917
 31
0.0
  0
SPLINE
  5
209
100
AcDbEntity
  8
0
 62
5
100
AcDbSpline
 70
0
 71
3
 72
10
 73
6
 74
4
 40
0.000000
 40
0.000000
 40
0.000000
 40
0.000000
 40
4.150375
 40
8.513058
 40
12.663433
 40
12.663433
 40
12.663433
 40
12.663433
 10
-20.423199
 20
275.070917
 30
0.0
 10
-21.265372
 20
276.183427
 30
0.0
 10
-22.992798
 20
278.465356
 30
0.0
 10
-23.759061
 20
282.845558
 30
0.0
 10
-22.908910
 20
285.578403
 30
0.0
 10
-22.494436
 20
286.910749
 30
0.0
 11
-20.423199
 21
275.070917
 31
0.0
 11
-22.661570
 21
278.565958
 31
0.0
 11
-23.413353
 21
282.863378
 31
0.0
 11
-22.494436
 21
286.910749
 31
0.0
  0
LWPOLYLINE
  5
20a
100
AcDbEntity
  8
0
 62
5
100
AcDbPolyline
 90
4
 70
0
 10
-12.481501
 20
262.224358
 30
0.0
 10
-14.897944
 20
276.037494
 30
0.0
 10
-15.687266
 20
275.899412
 30
0.0
 10
-15.273019
 20
273.531446
 30
0.0
  0
LWPOLYLINE
  5
20b
100
AcDbEntity
  8
0
 62
5
100
AcDbPolyline
 90
4
 70
0
 10
-18.172750
 20
290.107210
 30
0.0
 10
-17.758503
 20
287.739244
 30
0.0
 10
-16.969181
 20
287.877326
 30
0.0
 10
-19.385624
 20
301.690463
 30
0.0
  0
LWPOLYLINE
  5
20c
100
AcDbEntity
  8
0
 62
1
100
AcDbPolyline
 90
2
 70
0
 10
-15.381233
 20
278.800122
 30
0.0
 10
-16.485892
 20
285.114699
 30
0.0
  0
LWPOLYLINE
  5
20d
100
AcDbEntity
  8
0
 62
5
100
AcDbPolyline
 90
4
 70
0
 10
-12.481531
 20
262.224352
 30
0.0
 10
-20.212676
 20
261.306876
 30
0.0
 10
-31.029300
 20
248.278651
 30
0.0
 10
-30.509238
 20
240.510646
 30
0.0
  0
LWPOLYLINE
  5
20e
100
AcDbEntity
  8
0
 62
5
100
AcDbPolyline
 90
4
 70
0
 10
-16.877878
 20
255.603684
 30
0.0
 10
-18.684671
 20
255.636521
 30
0.0
 10
-25.174645
 20
247.819586
 30
0.0
 10
-24.810068
 20
246.049652
 30
0.0
  0
LWPOLYLINE
  5
20f
100
AcDbEntity
  8
0
 62
1
100
AcDbPolyline
 90
2
 70
0
 10
-12.481531
 20
262.224352
 30
0.0
 10
-17.529289
 20
256.144515
 30
0.0
  0
LWPOLYLINE
  5
210
100
AcDbEntity
  8
0
 62
1
100
AcDbPolyline
 90
2
 70
0
 10
-30.509238
 20
240.510646
 30
0.0
 10
-25.461479
 20
246.590483
 30
0.0
  0
LWPOLYLINE
  5
211
100
AcDbEntity
  8
0
 62
1
100
AcDbPolyline
 90
3
 70
0
 10
-12.481642
 20
262.224307
 30
0.0
 10
14.792878
 20
254.972607
 30
0.0
 10
32.820951
 20
276.686220
 30
0.0
  0
LWPOLYLINE
  5
212
100
AcDbEntity
  8
0
 62
1
100
AcDbPolyline
 90
2
 70
0
 10
38.540749
 20
311.824016
 30
0.0
 10
65.197767
 20
321.091629
 30
0.0
  0
LWPOLYLINE
  5
213
100
AcDbEntity
  8
0
 62
1
100
AcDbPolyline
 90
2
 70
0
 10
60.095471
 20
269.434520
 30
0.0
 10
64.958725
 20
241.634502
 30
0.0
  0
LWPOLYLINE
  5
214
100
AcDbEntity
  8
0
 62
1
100
AcDbPolyline
 90
2
 70
0
 10
60.095471
 20
269.434520
 30
0.0
 10
93.021209
 20
292.262911
 30
0.0
  0
LWPOLYLINE
  5
215
100
AcDbEntity
  8
0
 62
1
100
AcDbPolyline
 90
2
 70
0
 10
64.958725
 20
241.634502
 30
0.0
 10
92.233527
 20
234.382802
 30
0.0
  0
LWPOLYLINE
  5
216
100
AcDbEntity
  8
0
 62
1
100
AcDbPolyline
 90
2
 70
0
 10
65.197767
 20
321.091629
 30
0.0
 10
67.972011
 20
349.177256
 30
0.0
  0
LWPOLYLINE
  5
217
100
AcDbEntity
  8
0
 62
1
100
AcDbPolyline
 90
2
 70
0
 10
73.903758
 20
190.502609
 30
0.0
 10
78.767011
 20
162.702591
 30
0.0
  0
LWPOLYLINE
  5
218
100
AcDbEntity
  8
0
 62
1
100
AcDbPolyline
 90
2
 70
0
 10
73.903758
 20
190.502609
 30
0.0
 10
97.096780
 20
206.583067
 30
0.0
  0
LWPOLYLINE
  5
219
100
AcDbEntity
  8
0
 62
1
100
AcDbPolyline
 90
6
 70
0
 10
92.233527
 20
234.382802
 30
0.0
 10
110.261036
 20
256.096416
 30
0.0
 10
137.535838
 20
248.844716
 30
0.0
 10
155.563629
 20
270.558329
 30
0.0
 10
182.838431
 20
263.306629
 30
0.0
 10
187.701685
 20
235.506611
 30
0.0
  0
LWPOLYLINE
  5
21a
100
AcDbEntity
  8
0
 62
1
100
AcDbPolyline
 90
2
 70
0
 10
209.091871
 20
181.065662
 30
0.0
 10
227.119945
 20
202.779276
 30
0.0
  0
LWPOLYLINE
  5
21b
100
AcDbEntity
  8
0
 62
1
100
AcDbPolyline
 90
2
 70
0
 10
214.975923
 20
228.255194
 30
0.0
 10
227.119945
 20
202.779276
 30
0.0
  0
LWPOLYLINE
  5
21c
100
AcDbEntity
  8
0
 62
1
100
AcDbPolyline
 90
4
 70
0
 10
214.975923
 20
228.255194
 30
0.0
 10
233.003996
 20
249.968525
 30
0.0
 10
260.277387
 20
242.716825
 30
0.0
 10
267.183365
 20
203.250869
 30
0.0
  0
LWPOLYLINE
  5
21d
100
AcDbEntity
  8
0
 62
1
100
AcDbPolyline
 90
2
 70
0
 10
266.161720
 20
289.906356
 30
0.0
 10
278.305460
 20
264.430720
 30
0.0
  0
LWPOLYLINE
  5
21e
100
AcDbEntity
  8
0
 62
1
100
AcDbPolyline
 90
2
 70
0
 10
266.161720
 20
289.906356
 30
0.0
 10
284.189791
 20
311.620251
 30
0.0
  0
LWPOLYLINE
  5
21f
100
AcDbEntity
  8
0
 62
1
100
AcDbPolyline
 90
2
 70
0
 10
305.026258
 20
216.408069
 30
0.0
 10
307.800502
 20
244.493414
 30
0.0
  0
SPLINE
  5
220
100
AcDbEntity
  8
0
 62
5
100
AcDbSpline
 70
0
 71
3
 72
10
 73
6
 74
4
 40
0.000000
 40
0.000000
 40
0.000000
 40
0.000000
 40
2.475411
 40
4.559651
 40
5.467627
 40
5.467627
 40
5.467627
 40
5.467627
 10
-22.494436
 20
286.910749
 30
0.0
 10
-21.979602
 20
287.567103
 30
0.0
 10
-21.031291
 20
288.776091
 30
0.0
 10
-19.389109
 20
289.653859
 30
0.0
 10
-18.455922
 20
290.001669
 30
0.0
 10
-18.172750
 20
290.107210
 30
0.0
 11
-22.494436
 21
286.910749
 31
0.0
 11
-20.825804
 21
288.739225
 31
0.0
 11
-19.019090
 21
289.778380
 31
0.0
 11
-18.172750
 21
290.107210
 31
0.0
  0
LWPOLYLINE
  5
221
100
AcDbEntity
  8
0
 62
1
100
AcDbPolyline
 90
2
 70
0
 10
305.026258
 20
216.408069
 30
0.0
 10
329.353813
 20
202.104200
 30
0.0
  0
ENDSEC
  0
SECTION
  2
OBJECTS
  0
DICTIONARY
  5
C
330
0
100
AcDbDictionary
  3
ACAD_GROUP
350
D
  3
ACAD_MLINESTYLE
350
17
  0
DICTIONARY
  5
D
330
C
100
AcDbDictionary
  0
DICTIONARY
  5
1A
330
C
100
AcDbDictionary
  0
DICTIONARY
  5
17
330
C
100
AcDbDictionary
  3
STANDARD
350
18
  0
DICTIONARY
  5
19
330
C
100
AcDbDictionary
  0
ENDSEC
  0
EOF
