999
DXF created by Inkscape
  0
SECTION
  2
HEADER
  9
$ACADVER
  1
AC1014
  9
$HANDSEED
  5
FFFF
  9
$MEASUREMENT
 70
     1
  0
ENDSEC
  0
SECTION
  2
TABLES
  0
TABLE
  2
VPORT
  5
8
330
0
100
AcDbSymbolTable
 70
     4
  0
VPORT
  5
2E
330
8
100
AcDbSymbolTableRecord
100
AcDbViewportTableRecord
  2
*ACTIVE
 70
     0
 10
0.0
 20
0.0
 11
1.0
 21
1.0
 12
210.0
 22
148.5
 13
0.0
 23
0.0
 14
10.0
 24
10.0
 15
10.0
 25
10.0
 16
0.0
 26
0.0
 36
1.0
 17
0.0
 27
0.0
 37
0.0
 40
341.0
 41
1.24
 42
50.0
 43
0.0
 44
0.0
 50
0.0
 51
0.0
 71
     0
 72
   100
 73
     1
 74
     3
 75
     0
 76
     0
 77
     0
 78
     0
  0
ENDTAB
  0
TABLE
  2
LTYPE
  5
5
330
0
100
AcDbSymbolTable
 70
     1
  0
LTYPE
  5
14
330
5
100
AcDbSymbolTableRecord
100
AcDbLinetypeTableRecord
  2
BYBLOCK
 70
     0
  3

 72
    65
 73
     0
 40
0.0
  0
LTYPE
  5
15
330
5
100
AcDbSymbolTableRecord
100
AcDbLinetypeTableRecord
  2
BYLAYER
 70
     0
  3

 72
    65
 73
     0
 40
0.0
  0
LTYPE
  5
16
330
5
100
AcDbSymbolTableRecord
100
AcDbLinetypeTableRecord
  2
CONTINUOUS
 70
     0
  3
Solid line
 72
    65
 73
     0
 40
0.0
  0
ENDTAB
  0
TABLE
  2
LAYER
  5
2
330
0
100
AcDbSymbolTable
 70
1
  0
LAYER
  5
10
330
2
100
AcDbSymbolTableRecord
100
AcDbLayerTableRecord
  2
0
 70
     0
 62
     7
  6
CONTINUOUS
  0
ENDTAB
  0
TABLE
  2
STYLE
  5
3
330
0
100
AcDbSymbolTable
 70
     1
  0
STYLE
  5
11
330
3
100
AcDbSymbolTableRecord
100
AcDbTextStyleTableRecord
  2
STANDARD
 70
     0
 40
0.0
 41
1.0
 50
0.0
 71
     0
 42
2.5
  3
txt
  4

  0
ENDTAB
  0
TABLE
  2
VIEW
  5
6
330
0
100
AcDbSymbolTable
 70
     0
  0
ENDTAB
  0
TABLE
  2
UCS
  5
7
330
0
100
AcDbSymbolTable
 70
     0
  0
ENDTAB
  0
TABLE
  2
APPID
  5
9
330
0
100
AcDbSymbolTable
 70
     2
  0
APPID
  5
12
330
9
100
AcDbSymbolTableRecord
100
AcDbRegAppTableRecord
  2
ACAD
 70
     0
  0
ENDTAB
  0
TABLE
  2
DIMSTYLE
  5
A
330
0
100
AcDbSymbolTable
 70
     1
  0
DIMSTYLE
105
27
330
A
100
AcDbSymbolTableRecord
100
AcDbDimStyleTableRecord
  2
ISO-25
 70
     0
  3

  4

  5

  6

  7

 40
1.0
 41
2.5
 42
0.625
 43
3.75
 44
1.25
 45
0.0
 46
0.0
 47
0.0
 48
0.0
140
2.5
141
2.5
142
0.0
143
0.03937007874016
144
1.0
145
0.0
146
1.0
147
0.625
 71
     0
 72
     0
 73
     0
 74
     0
 75
     0
 76
     0
 77
     1
 78
     8
170
     0
171
     3
172
     1
173
     0
174
     0
175
     0
176
     0
177
     0
178
     0
270
     2
271
     2
272
     2
273
     2
274
     3
340
11
275
     0
280
     0
281
     0
282
     0
283
     0
284
     8
285
     0
286
     0
287
     3
288
     0
  0
ENDTAB
  0
TABLE
  2
BLOCK_RECORD
  5
1
330
0
100
AcDbSymbolTable
 70
     1
  0
BLOCK_RECORD
  5
1F
330
1
100
AcDbSymbolTableRecord
100
AcDbBlockTableRecord
  2
*MODEL_SPACE
  0
BLOCK_RECORD
  5
1B
330
1
100
AcDbSymbolTableRecord
100
AcDbBlockTableRecord
  2
*PAPER_SPACE
  0
ENDTAB
  0
ENDSEC
  0
SECTION
  2
BLOCKS
  0
BLOCK
  5
20
330
1F
100
AcDbEntity
  8
0
100
AcDbBlockBegin
  2
*MODEL_SPACE
 70
     0
 10
0.0
 20
0.0
 30
0.0
  3
*MODEL_SPACE
  1

  0
ENDBLK
  5
21
330
1F
100
AcDbEntity
  8
0
100
AcDbBlockEnd
  0
BLOCK
  5
1C
330
1B
100
AcDbEntity
 67
     1
  8
0
100
AcDbBlockBegin
  2
*PAPER_SPACE
  1

  0
ENDBLK
  5
1D
330
1B
100
AcDbEntity
 67
     1
  8
0
100
AcDbBlockEnd
  0
ENDSEC
  0
SECTION
  2
ENTITIES
  0
SPLINE
  5
100
100
AcDbEntity
  8
0
 62
5
100
AcDbSpline
 70
0
 71
3
 72
10
 73
6
 74
4
 40
0.000000
 40
0.000000
 40
0.000000
 40
0.000000
 40
0.639581
 40
2.107726
 40
3.851411
 40
3.851411
 40
3.851411
 40
3.851411
 10
38.590245
 20
224.570235
 30
0.0
 10
38.438722
 20
224.420720
 30
0.0
 10
37.939379
 20
223.927997
 30
0.0
 10
36.890947
 20
223.139850
 30
0.0
 10
35.837068
 20
222.893271
 30
0.0
 10
35.264923
 20
222.759404
 30
0.0
 11
38.590245
 21
224.570235
 31
0.0
 11
38.128822
 21
224.127344
 31
0.0
 11
36.928438
 21
223.282047
 31
0.0
 11
35.264923
 21
222.759404
 31
0.0
  0
SPLINE
  5
101
100
AcDbEntity
  8
0
 62
5
100
AcDbSpline
 70
0
 71
3
 72
10
 73
6
 74
4
 40
0.000000
 40
0.000000
 40
0.000000
 40
0.000000
 40
2.923538
 40
5.996625
 40
8.920161
 40
8.920161
 40
8.920161
 40
8.920161
 10
35.264923
 20
222.759404
 30
0.0
 10
34.290824
 20
222.890434
 30
0.0
 10
32.292798
 20
223.159196
 30
0.0
 10
29.722727
 20
224.949709
 30
0.0
 10
28.778348
 20
226.730858
 30
0.0
 10
28.317935
 20
227.599222
 30
0.0
 11
35.264923
 21
222.759404
 31
0.0
 11
32.406869
 21
223.374711
 31
0.0
 11
29.885370
 21
225.131385
 31
0.0
 11
28.317935
 21
227.599222
 31
0.0
  0
LWPOLYLINE
  5
102
100
AcDbEntity
  8
0
 62
5
100
AcDbPolyline
 90
4
 70
0
 10
45.628320
 20
220.354879
 30
0.0
 10
37.523502
 20
226.001333
 30
0.0
 10
37.200848
 20
225.538201
 30
0.0
 10
38.590245
 20
224.570235
 30
0.0
  0
LWPOLYLINE
  5
103
100
AcDbEntity
  8
0
 62
5
100
AcDbPolyline
 90
4
 70
0
 10
28.864464
 20
231.345978
 30
0.0
 10
30.253861
 20
230.378015
 30
0.0
 10
30.576517
 20
230.841148
 30
0.0
 10
22.471699
 20
236.487602
 30
0.0
  0
LWPOLYLINE
  5
104
100
AcDbEntity
  8
0
 62
1
100
AcDbPolyline
 90
2
 70
0
 10
35.902539
 20
227.130623
 30
0.0
 10
32.197480
 20
229.711858
 30
0.0
  0
LWPOLYLINE
  5
105
100
AcDbEntity
  8
0
 62
5
100
AcDbPolyline
 90
5
 70
0
 10
45.628238
 20
220.354761
 30
0.0
 10
50.483685
 20
218.168560
 30
0.0
 10
61.118259
 20
227.651684
 30
0.0
 10
60.880173
 20
230.547552
 30
0.0
 10
69.092755
 20
236.035976
 30
0.0
  0
LWPOLYLINE
  5
106
100
AcDbEntity
  8
0
 62
5
100
AcDbPolyline
 90
4
 70
0
 10
47.034964
 20
222.313194
 30
0.0
 10
48.757606
 20
221.767218
 30
0.0
 10
54.858381
 20
225.844333
 30
0.0
 10
55.012900
 20
227.644806
 30
0.0
  0
LWPOLYLINE
  5
107
100
AcDbEntity
  8
0
 62
1
100
AcDbPolyline
 90
2
 70
0
 10
45.628238
 20
220.354761
 30
0.0
 10
47.505400
 20
221.609258
 30
0.0
  0
LWPOLYLINE
  5
108
100
AcDbEntity
  8
0
 62
1
100
AcDbPolyline
 90
2
 70
0
 10
60.880173
 20
230.547552
 30
0.0
 10
55.483337
 20
226.940871
 30
0.0
  0
LWPOLYLINE
  5
109
100
AcDbEntity
  8
0
 62
5
100
AcDbPolyline
 90
8
 70
0
 10
79.792048
 20
213.402877
 30
0.0
 10
72.302542
 20
229.246048
 30
0.0
 10
70.504239
 20
228.949759
 30
0.0
 10
69.207978
 20
231.106075
 30
0.0
 10
70.031000
 20
232.879687
 30
0.0
 10
70.244987
 20
232.427025
 30
0.0
 10
70.697649
 20
232.641012
 30
0.0
 10
69.092755
 20
236.035976
 30
0.0
  0
LWPOLYLINE
  5
10a
100
AcDbEntity
  8
0
 62
1
100
AcDbPolyline
 90
2
 70
0
 10
71.874572
 20
230.151371
 30
0.0
 10
71.125619
 20
231.735688
 30
0.0
  0
LWPOLYLINE
  5
10b
100
AcDbEntity
  8
0
 62
5
100
AcDbPolyline
 90
7
 70
0
 10
62.973111
 20
231.946409
 30
0.0
 10
65.163844
 20
233.257433
 30
0.0
 10
66.660305
 20
231.234893
 30
0.0
 10
66.035016
 20
229.315824
 30
0.0
 10
65.698635
 20
229.686695
 30
0.0
 10
65.327767
 20
229.350315
 30
0.0
 10
79.792071
 20
213.402885
 30
0.0
  0
LWPOLYLINE
  5
10c
100
AcDbEntity
  8
0
 62
1
100
AcDbPolyline
 90
2
 70
0
 10
63.645869
 20
231.204667
 30
0.0
 10
64.655009
 20
230.092057
 30
0.0
  0
SPLINE
  5
10d
100
AcDbEntity
  8
0
 62
5
100
AcDbSpline
 70
0
 71
3
 72
10
 73
6
 74
4
 40
0.000000
 40
0.000000
 40
0.000000
 40
0.000000
 40
1.743686
 40
3.211831
 40
3.851411
 40
3.851411
 40
3.851411
 40
3.851411
 10
28.317935
 20
227.599222
 30
0.0
 10
28.245276
 20
228.182310
 30
0.0
 10
28.111440
 20
229.256345
 30
0.0
 10
28.487515
 20
230.512909
 30
0.0
 10
28.776709
 20
231.152037
 30
0.0
 10
28.864464
 20
231.345978
 30
0.0
 11
28.317935
 21
227.599222
 31
0.0
 11
28.231840
 21
229.340781
 31
0.0
 11
28.608877
 21
230.759686
 31
0.0
 11
28.864464
 21
231.345978
 31
0.0
  0
SPLINE
  5
10e
100
AcDbEntity
  8
0
 62
5
100
AcDbSpline
 70
0
 71
3
 72
10
 73
6
 74
4
 40
0.000000
 40
0.000000
 40
0.000000
 40
0.000000
 40
0.280475
 40
1.083634
 40
2.425821
 40
2.425821
 40
2.425821
 40
2.425821
 10
58.542058
 20
215.885927
 30
0.0
 10
58.450409
 20
215.866854
 30
0.0
 10
58.096318
 20
215.793163
 30
0.0
 10
57.362149
 20
215.418867
 30
0.0
 10
56.832155
 20
214.936104
 30
0.0
 10
56.500576
 20
214.634074
 30
0.0
 11
58.542058
 21
215.885927
 31
0.0
 11
58.268862
 21
215.822443
 31
0.0
 11
57.542003
 21
215.480770
 31
0.0
 11
56.500576
 21
214.634074
 31
0.0
  0
SPLINE
  5
10f
100
AcDbEntity
  8
0
 62
5
100
AcDbSpline
 70
0
 71
3
 72
10
 73
6
 74
4
 40
0.000000
 40
0.000000
 40
0.000000
 40
0.000000
 40
1.935360
 40
3.528910
 40
5.433541
 40
5.433541
 40
5.433541
 40
5.433541
 10
56.500576
 20
214.634074
 30
0.0
 10
56.209640
 20
214.057659
 30
0.0
 10
55.679151
 20
213.006631
 30
0.0
 10
55.042897
 20
211.308974
 30
0.0
 10
54.644119
 20
210.213484
 30
0.0
 10
54.426999
 20
209.617029
 30
0.0
 11
56.500576
 21
214.634074
 31
0.0
 11
55.663038
 21
212.889325
 31
0.0
 11
55.081576
 21
211.405646
 31
0.0
 11
54.426999
 21
209.617029
 31
0.0
  0
LWPOLYLINE
  5
110
100
AcDbEntity
  8
0
 62
5
100
AcDbPolyline
 90
4
 70
0
 10
62.973280
 20
231.946564
 30
0.0
 10
58.696135
 20
214.107656
 30
0.0
 10
58.147246
 20
214.239259
 30
0.0
 10
58.542058
 20
215.885927
 30
0.0
  0
LWPOLYLINE
  5
111
100
AcDbEntity
  8
0
 62
5
100
AcDbPolyline
 90
4
 70
0
 10
56.436387
 20
207.103696
 30
0.0
 10
56.831202
 20
208.750364
 30
0.0
 10
57.380090
 20
208.618761
 30
0.0
 10
56.393057
 20
204.502090
 30
0.0
  0
LWPOLYLINE
  5
112
100
AcDbEntity
  8
0
 62
1
100
AcDbPolyline
 90
2
 70
0
 10
58.235520
 20
212.186541
 30
0.0
 10
57.840705
 20
210.539873
 30
0.0
  0
LWPOLYLINE
  5
113
100
AcDbEntity
  8
0
 62
5
100
AcDbPolyline
 90
4
 70
0
 10
79.549690
 20
188.369410
 30
0.0
 10
71.853182
 20
187.196201
 30
0.0
 10
57.959269
 20
196.875794
 30
0.0
 10
56.393170
 20
204.502062
 30
0.0
  0
LWPOLYLINE
  5
114
100
AcDbEntity
  8
0
 62
5
100
AcDbPolyline
 90
4
 70
0
 10
73.549843
 20
193.581247
 30
0.0
 10
71.816951
 20
193.068729
 30
0.0
 10
63.480603
 20
198.876484
 30
0.0
 10
63.360975
 20
200.679616
 30
0.0
  0
LWPOLYLINE
  5
115
100
AcDbEntity
  8
0
 62
1
100
AcDbPolyline
 90
2
 70
0
 10
79.549690
 20
188.369410
 30
0.0
 10
73.065863
 20
192.886551
 30
0.0
  0
LWPOLYLINE
  5
116
100
AcDbEntity
  8
0
 62
1
100
AcDbPolyline
 90
2
 70
0
 10
56.393170
 20
204.502062
 30
0.0
 10
62.876994
 20
199.984920
 30
0.0
  0
SPLINE
  5
117
100
AcDbEntity
  8
0
 62
5
100
AcDbSpline
 70
0
 71
3
 72
10
 73
6
 74
4
 40
0.000000
 40
0.000000
 40
0.000000
 40
0.000000
 40
1.759349
 40
3.045075
 40
3.332096
 40
3.332096
 40
3.332096
 40
3.332096
 10
54.426999
 20
209.617029
 30
0.0
 10
54.726771
 20
209.148146
 30
0.0
 10
55.245615
 20
208.336604
 30
0.0
 10
55.797149
 20
207.093193
 30
0.0
 10
56.337732
 20
207.102075
 30
0.0
 10
56.436387
 20
207.103696
 30
0.0
 11
54.426999
 21
209.617029
 31
0.0
 11
55.321368
 21
208.101967
 31
0.0
 11
56.149757
 21
207.118675
 31
0.0
 11
56.436387
 21
207.103696
 31
0.0
  0
SPLINE
  5
118
100
AcDbEntity
  8
0
 62
5
100
AcDbSpline
 70
0
 71
3
 72
10
 73
6
 74
4
 40
0.000000
 40
0.000000
 40
0.000000
 40
0.000000
 40
0.639576
 40
2.107711
 40
3.851386
 40
3.851386
 40
3.851386
 40
3.851386
 10
96.523152
 20
199.033837
 30
0.0
 10
96.607135
 20
198.838234
 30
0.0
 10
96.883897
 20
198.193630
 30
0.0
 10
97.235567
 20
196.930028
 30
0.0
 10
97.080961
 20
195.858793
 30
0.0
 10
96.997026
 20
195.277225
 30
0.0
 11
96.523152
 21
199.033837
 31
0.0
 11
96.767337
 21
198.442709
 31
0.0
 11
97.116826
 21
197.016779
 31
0.0
 11
96.997026
 21
195.277225
 31
0.0
  0
SPLINE
  5
119
100
AcDbEntity
  8
0
 62
5
100
AcDbSpline
 70
0
 71
3
 72
10
 73
6
 74
4
 40
0.000000
 40
0.000000
 40
0.000000
 40
0.000000
 40
2.923516
 40
5.996581
 40
8.920099
 40
8.920099
 40
8.920099
 40
8.920099
 10
96.997026
 20
195.277225
 30
0.0
 10
96.519888
 20
194.417945
 30
0.0
 10
95.541205
 20
192.655429
 30
0.0
 10
92.936964
 20
190.915030
 30
0.0
 10
90.934122
 20
190.685008
 30
0.0
 10
89.957676
 20
190.572865
 30
0.0
 11
96.997026
 21
195.277225
 31
0.0
 11
95.382112
 21
192.840219
 31
0.0
 11
92.827088
 21
191.132711
 31
0.0
 11
89.957676
 21
190.572865
 31
0.0
  0
LWPOLYLINE
  5
11a
100
AcDbEntity
  8
0
 62
5
100
AcDbPolyline
 90
4
 70
0
 10
103.014232
 20
204.050676
 30
0.0
 10
94.801659
 20
198.562255
 30
0.0
 10
95.115281
 20
198.092964
 30
0.0
 10
96.523152
 20
199.033837
 30
0.0
  0
LWPOLYLINE
  5
11b
100
AcDbEntity
  8
0
 62
5
100
AcDbPolyline
 90
4
 70
0
 10
86.668062
 20
192.447733
 30
0.0
 10
88.075934
 20
193.388605
 30
0.0
 10
87.762309
 20
193.857895
 30
0.0
 10
79.549732
 20
188.369475
 30
0.0
  0
LWPOLYLINE
  5
11c
100
AcDbEntity
  8
0
 62
1
100
AcDbPolyline
 90
2
 70
0
 10
93.159143
 20
197.464571
 30
0.0
 10
89.404822
 20
194.955579
 30
0.0
  0
LWPOLYLINE
  5
11d
100
AcDbEntity
  8
0
 62
5
100
AcDbPolyline
 90
4
 70
0
 10
96.966913
 20
231.617372
 30
0.0
 10
103.414045
 20
227.253025
 30
0.0
 10
107.042433
 20
210.713014
 30
0.0
 10
103.014224
 20
204.050687
 30
0.0
  0
LWPOLYLINE
  5
11e
100
AcDbEntity
  8
0
 62
5
100
AcDbPolyline
 90
4
 70
0
 10
97.833160
 20
223.717280
 30
0.0
 10
99.453387
 20
222.916980
 30
0.0
 10
101.630418
 20
212.992971
 30
0.0
 10
100.493977
 20
211.587939
 30
0.0
  0
LWPOLYLINE
  5
11f
100
AcDbEntity
  8
0
 62
1
100
AcDbPolyline
 90
2
 70
0
 10
96.966913
 20
231.617372
 30
0.0
 10
98.660162
 20
223.898701
 30
0.0
  0
LWPOLYLINE
  5
120
100
AcDbEntity
  8
0
 62
1
100
AcDbPolyline
 90
2
 70
0
 10
103.014224
 20
204.050687
 30
0.0
 10
101.320978
 20
211.769357
 30
0.0
  0
LWPOLYLINE
  5
121
100
AcDbEntity
  8
0
 62
5
100
AcDbPolyline
 90
8
 70
0
 10
86.267716
 20
254.250533
 30
0.0
 10
93.757112
 20
238.407311
 30
0.0
 10
95.555415
 20
238.703588
 30
0.0
 10
96.851662
 20
236.547261
 30
0.0
 10
96.028629
 20
234.773655
 30
0.0
 10
95.814645
 20
235.226317
 30
0.0
 10
95.361983
 20
235.012336
 30
0.0
 10
96.966851
 20
231.617358
 30
0.0
  0
LWPOLYLINE
  5
122
100
AcDbEntity
  8
0
 62
1
100
AcDbPolyline
 90
2
 70
0
 10
94.185077
 20
237.501984
 30
0.0
 10
94.934016
 20
235.917662
 30
0.0
  0
LWPOLYLINE
  5
123
100
AcDbEntity
  8
0
 62
5
100
AcDbPolyline
 90
7
 70
0
 10
103.086304
 20
235.707003
 30
0.0
 10
100.895585
 20
234.395996
 30
0.0
 10
99.399144
 20
236.418528
 30
0.0
 10
100.024432
 20
238.337580
 30
0.0
 10
100.360807
 20
237.966711
 30
0.0
 10
100.731678
 20
238.303086
 30
0.0
 10
86.267536
 20
254.250448
 30
0.0
  0
LWPOLYLINE
  5
124
100
AcDbEntity
  8
0
 62
1
100
AcDbPolyline
 90
2
 70
0
 10
102.413554
 20
236.448742
 30
0.0
 10
101.404428
 20
237.561347
 30
0.0
  0
LWPOLYLINE
  5
125
100
AcDbEntity
  8
0
 62
5
100
AcDbPolyline
 90
8
 70
0
 10
126.485235
 20
244.607818
 30
0.0
 10
110.105997
 20
238.377260
 30
0.0
 10
110.261075
 20
236.561318
 30
0.0
 10
108.010192
 20
235.437250
 30
0.0
 10
106.306199
 20
236.396145
 30
0.0
 10
106.774178
 20
236.574162
 30
0.0
 10
106.596160
 20
237.042140
 30
0.0
 10
103.086326
 20
235.707020
 30
0.0
  0
LWPOLYLINE
  5
126
100
AcDbEntity
  8
0
 62
1
100
AcDbPolyline
 90
2
 70
0
 10
109.170041
 20
238.021228
 30
0.0
 10
107.532116
 20
237.398172
 30
0.0
  0
LWPOLYLINE
  5
127
100
AcDbEntity
  8
0
 62
5
100
AcDbPolyline
 90
7
 70
0
 10
106.685961
 20
229.287009
 30
0.0
 10
105.549864
 20
231.573354
 30
0.0
 10
107.682998
 20
232.907446
 30
0.0
 10
109.547426
 20
232.134329
 30
0.0
 10
109.151443
 20
231.827912
 30
0.0
 10
109.457857
 20
231.431926
 30
0.0
 10
126.485227
 20
244.607846
 30
0.0
  0
LWPOLYLINE
  5
128
100
AcDbEntity
  8
0
 62
1
100
AcDbPolyline
 90
2
 70
0
 10
107.477933
 20
229.899844
 30
0.0
 10
108.665888
 20
230.819095
 30
0.0
  0
SPLINE
  5
129
100
AcDbEntity
  8
0
 62
5
100
AcDbSpline
 70
0
 71
3
 72
10
 73
6
 74
4
 40
0.000000
 40
0.000000
 40
0.000000
 40
0.000000
 40
1.743674
 40
3.211809
 40
3.851385
 40
3.851385
 40
3.851385
 40
3.851385
 10
89.957676
 20
190.572865
 30
0.0
 10
89.388233
 20
190.717784
 30
0.0
 10
88.339333
 20
190.984722
 30
0.0
 10
87.306366
 20
191.793017
 30
0.0
 10
86.816661
 20
192.295313
 30
0.0
 10
86.668062
 20
192.447733
 30
0.0
 11
89.957676
 21
190.572865
 31
0.0
 11
88.304603
 21
191.127617
 31
0.0
 11
87.120820
 21
191.995994
 31
0.0
 11
86.668062
 21
192.447733
 31
0.0
  0
SPLINE
  5
12a
100
AcDbEntity
  8
0
 62
5
100
AcDbSpline
 70
0
 71
3
 72
10
 73
6
 74
4
 40
0.000000
 40
0.000000
 40
0.000000
 40
0.000000
 40
0.639582
 40
2.107729
 40
3.851419
 40
3.851419
 40
3.851419
 40
3.851419
 10
125.573694
 20
222.571977
 30
0.0
 10
125.472199
 20
222.384860
 30
0.0
 10
125.137725
 20
221.768217
 30
0.0
 10
124.363804
 20
220.709238
 30
0.0
 10
123.427178
 20
220.166836
 30
0.0
 10
122.918688
 20
219.872369
 30
0.0
 11
125.573694
 21
222.571977
 31
0.0
 11
125.261009
 21
222.014041
 31
0.0
 11
124.358323
 21
220.856192
 31
0.0
 11
122.918688
 21
219.872369
 31
0.0
  0
SPLINE
  5
12b
100
AcDbEntity
  8
0
 62
5
100
AcDbSpline
 70
0
 71
3
 72
10
 73
6
 74
4
 40
0.000000
 40
0.000000
 40
0.000000
 40
0.000000
 40
2.923542
 40
5.996635
 40
8.920177
 40
8.920177
 40
8.920177
 40
8.920177
 10
122.918688
 20
219.872369
 30
0.0
 10
121.948583
 20
219.714459
 30
0.0
 10
119.958748
 20
219.390562
 30
0.0
 10
116.979049
 20
220.356292
 30
0.0
 10
115.557509
 20
221.785830
 30
0.0
 10
114.864464
 20
222.482773
 30
0.0
 11
122.918688
 21
219.872369
 31
0.0
 11
120.005216
 21
219.629935
 31
0.0
 11
117.081830
 21
220.577415
 31
0.0
 11
114.864464
 21
222.482773
 31
0.0
  0
LWPOLYLINE
  5
12c
100
AcDbEntity
  8
0
 62
5
100
AcDbPolyline
 90
4
 70
0
 10
133.533470
 20
220.585537
 30
0.0
 10
124.136875
 20
223.631008
 30
0.0
 10
123.962849
 20
223.094060
 30
0.0
 10
125.573694
 20
222.571977
 30
0.0
  0
LWPOLYLINE
  5
12d
100
AcDbEntity
  8
0
 62
5
100
AcDbPolyline
 90
4
 70
0
 10
114.297782
 20
226.226543
 30
0.0
 10
115.908627
 20
225.704463
 30
0.0
 10
116.082654
 20
226.241411
 30
0.0
 10
106.686059
 20
229.286882
 30
0.0
  0
LWPOLYLINE
  5
12e
100
AcDbEntity
  8
0
 62
1
100
AcDbPolyline
 90
2
 70
0
 10
122.257558
 20
224.240103
 30
0.0
 10
117.961972
 20
225.632316
 30
0.0
  0
LWPOLYLINE
  5
12f
100
AcDbEntity
  8
0
 62
5
100
AcDbPolyline
 90
4
 70
0
 10
151.423616
 20
242.412719
 30
0.0
 10
151.992745
 20
234.648167
 30
0.0
 10
141.258668
 20
221.551885
 30
0.0
 10
133.533487
 20
220.585582
 30
0.0
  0
LWPOLYLINE
  5
130
100
AcDbEntity
  8
0
 62
5
100
AcDbPolyline
 90
4
 70
0
 10
145.759565
 20
236.837825
 30
0.0
 10
146.135316
 20
235.070234
 30
0.0
 10
139.694872
 20
227.212464
 30
0.0
 10
137.887908
 20
227.233885
 30
0.0
  0
LWPOLYLINE
  5
131
100
AcDbEntity
  8
0
 62
1
100
AcDbPolyline
 90
2
 70
0
 10
151.423616
 20
242.412719
 30
0.0
 10
146.414380
 20
236.301120
 30
0.0
  0
LWPOLYLINE
  5
132
100
AcDbEntity
  8
0
 62
1
100
AcDbPolyline
 90
2
 70
0
 10
133.533487
 20
220.585582
 30
0.0
 10
138.542722
 20
226.697180
 30
0.0
  0
SPLINE
  5
133
100
AcDbEntity
  8
0
 62
5
100
AcDbSpline
 70
0
 71
3
 72
10
 73
6
 74
4
 40
0.000000
 40
0.000000
 40
0.000000
 40
0.000000
 40
1.743690
 40
3.211838
 40
3.851421
 40
3.851421
 40
3.851421
 40
3.851421
 10
114.864464
 20
222.482773
 30
0.0
 10
114.625378
 20
223.019532
 30
0.0
 10
114.184986
 20
224.008230
 30
0.0
 10
114.179388
 20
225.319856
 30
0.0
 10
114.270219
 20
226.015464
 30
0.0
 10
114.297782
 20
226.226543
 30
0.0
 11
114.864464
 21
222.482773
 31
0.0
 11
114.275628
 21
224.124030
 31
0.0
 11
114.223740
 21
225.591261
 31
0.0
 11
114.297782
 21
226.226543
 31
0.0
  0
SPLINE
  5
134
100
AcDbEntity
  8
0
 62
5
100
AcDbSpline
 70
0
 71
3
 72
10
 73
6
 74
4
 40
0.000000
 40
0.000000
 40
0.000000
 40
0.000000
 40
0.639581
 40
2.107726
 40
3.851412
 40
3.851412
 40
3.851412
 40
3.851412
 10
159.607871
 20
242.978402
 30
0.0
 10
159.675122
 20
242.776434
 30
0.0
 10
159.896747
 20
242.110850
 30
0.0
 10
160.473801
 20
240.932973
 30
0.0
 10
161.301289
 20
240.235314
 30
0.0
 10
161.750527
 20
239.856559
 30
0.0
 11
159.607871
 21
242.978402
 31
0.0
 11
159.818296
 21
242.374428
 31
0.0
 11
160.504866
 21
241.076711
 31
0.0
 11
161.750527
 21
239.856559
 31
0.0
  0
SPLINE
  5
135
100
AcDbEntity
  8
0
 62
5
100
AcDbSpline
 70
0
 71
3
 72
10
 73
6
 74
4
 40
0.000000
 40
0.000000
 40
0.000000
 40
0.000000
 40
2.923536
 40
5.996622
 40
8.920158
 40
8.920158
 40
8.920158
 40
8.920158
 10
161.750527
 20
239.856559
 30
0.0
 10
162.678136
 20
239.531631
 30
0.0
 10
164.580805
 20
238.865155
 30
0.0
 10
167.683372
 20
239.295585
 30
0.0
 10
169.332749
 20
240.454849
 30
0.0
 10
170.136871
 20
241.020026
 30
0.0
 11
161.750527
 21
239.856559
 31
0.0
 11
164.576862
 21
239.108965
 31
0.0
 11
167.620794
 21
239.531260
 31
0.0
 11
170.136871
 21
241.020026
 31
0.0
  0
LWPOLYLINE
  5
136
100
AcDbEntity
  8
0
 62
5
100
AcDbPolyline
 90
4
 70
0
 10
151.423508
 20
242.412806
 30
0.0
 10
161.207577
 20
243.770185
 30
0.0
 10
161.285140
 20
243.211095
 30
0.0
 10
159.607871
 20
242.978402
 30
0.0
  0
LWPOLYLINE
  5
137
100
AcDbEntity
  8
0
 62
5
100
AcDbPolyline
 90
4
 70
0
 10
171.348753
 20
244.607256
 30
0.0
 10
169.671484
 20
244.374561
 30
0.0
 10
169.593920
 20
244.933652
 30
0.0
 10
179.377986
 20
246.291031
 30
0.0
  0
LWPOLYLINE
  5
138
100
AcDbEntity
  8
0
 62
1
100
AcDbPolyline
 90
2
 70
0
 10
163.164390
 20
244.041660
 30
0.0
 10
167.637107
 20
244.662177
 30
0.0
  0
LWPOLYLINE
  5
139
100
AcDbEntity
  8
0
 62
5
100
AcDbPolyline
 90
7
 70
0
 10
179.377964
 20
246.291178
 30
0.0
 10
180.736023
 20
244.129302
 30
0.0
 10
182.986906
 20
245.253370
 30
0.0
 10
183.299806
 20
247.247327
 30
0.0
 10
182.831827
 20
247.069309
 30
0.0
 10
182.653813
 20
247.537287
 30
0.0
 10
202.776876
 20
255.191975
 30
0.0
  0
LWPOLYLINE
  5
13a
100
AcDbEntity
  8
0
 62
1
100
AcDbPolyline
 90
2
 70
0
 10
180.313923
 20
246.647209
 30
0.0
 10
181.717857
 20
247.181256
 30
0.0
  0
LWPOLYLINE
  5
13b
100
AcDbEntity
  8
0
 62
5
100
AcDbPolyline
 90
8
 70
0
 10
202.776867
 20
255.192001
 30
0.0
 10
188.917467
 20
244.467483
 30
0.0
 10
187.449031
 20
245.547008
 30
0.0
 10
185.315908
 20
244.212924
 30
0.0
 10
185.245197
 20
242.258939
 30
0.0
 10
185.641180
 20
242.565353
 30
0.0
 10
185.947595
 20
242.169370
 30
0.0
 10
182.977722
 20
239.871260
 30
0.0
  0
LWPOLYLINE
  5
13c
100
AcDbEntity
  8
0
 62
1
100
AcDbPolyline
 90
2
 70
0
 10
188.125501
 20
243.854651
 30
0.0
 10
186.739561
 20
242.782201
 30
0.0
  0
LWPOLYLINE
  5
13d
100
AcDbEntity
  8
0
 62
5
100
AcDbPolyline
 90
7
 70
0
 10
182.977700
 20
239.871288
 30
0.0
 10
180.716436
 20
238.686034
 30
0.0
 10
181.661469
 20
236.354291
 30
0.0
 10
183.624948
 20
235.886767
 30
0.0
 10
183.483987
 20
236.367211
 30
0.0
 10
183.964430
 20
236.508173
 30
0.0
 10
190.025785
 20
215.849046
 30
0.0
  0
LWPOLYLINE
  5
13e
100
AcDbEntity
  8
0
 62
1
100
AcDbPolyline
 90
2
 70
0
 10
183.259623
 20
238.910398
 30
0.0
 10
183.682507
 20
237.469063
 30
0.0
  0
LWPOLYLINE
  5
13f
100
AcDbEntity
  8
0
 62
5
100
AcDbPolyline
 90
8
 70
0
 10
190.025709
 20
215.849024
 30
0.0
 10
180.415224
 20
230.502989
 30
0.0
 10
181.606035
 20
231.882720
 30
0.0
 10
180.442449
 20
234.113438
 30
0.0
 10
178.499934
 20
234.336394
 30
0.0
 10
178.774519
 20
233.917709
 30
0.0
 10
178.355834
 20
233.643123
 30
0.0
 10
176.296444
 20
236.783258
 30
0.0
  0
LWPOLYLINE
  5
140
100
AcDbEntity
  8
0
 62
1
100
AcDbPolyline
 90
2
 70
0
 10
179.866053
 20
231.340357
 30
0.0
 10
178.905004
 20
232.805753
 30
0.0
  0
LWPOLYLINE
  5
141
100
AcDbEntity
  8
0
 62
5
100
AcDbPolyline
 90
4
 70
0
 10
165.526870
 20
210.696958
 30
0.0
 10
162.724389
 20
217.960438
 30
0.0
 10
169.186135
 20
233.612220
 30
0.0
 10
176.296450
 20
236.783260
 30
0.0
  0
LWPOLYLINE
  5
142
100
AcDbEntity
  8
0
 62
5
100
AcDbPolyline
 90
4
 70
0
 10
169.324940
 20
217.678035
 30
0.0
 10
168.451409
 20
219.259967
 30
0.0
 10
172.328456
 20
228.651036
 30
0.0
 10
174.063556
 20
229.156007
 30
0.0
  0
LWPOLYLINE
  5
143
100
AcDbEntity
  8
0
 62
1
100
AcDbPolyline
 90
2
 70
0
 10
165.526870
 20
210.696958
 30
0.0
 10
168.542352
 20
218.001123
 30
0.0
  0
LWPOLYLINE
  5
144
100
AcDbEntity
  8
0
 62
1
100
AcDbPolyline
 90
2
 70
0
 10
176.296450
 20
236.783260
 30
0.0
 10
173.280967
 20
229.479095
 30
0.0
  0
SPLINE
  5
145
100
AcDbEntity
  8
0
 62
5
100
AcDbSpline
 70
0
 71
3
 72
10
 73
6
 74
4
 40
0.000000
 40
0.000000
 40
0.000000
 40
0.000000
 40
1.743687
 40
3.211831
 40
3.851412
 40
3.851412
 40
3.851412
 40
3.851412
 10
170.136871
 20
241.020026
 30
0.0
 10
170.466035
 20
241.506772
 30
0.0
 10
171.072349
 20
242.403347
 30
0.0
 10
171.306959
 20
243.693829
 30
0.0
 10
171.339023
 20
244.394608
 30
0.0
 10
171.348753
 20
244.607256
 30
0.0
 11
170.136871
 21
241.020026
 31
0.0
 11
171.003327
 21
242.533200
 31
0.0
 11
171.310694
 21
243.968809
 31
0.0
 11
171.348753
 21
244.607256
 31
0.0
  0
SPLINE
  5
146
100
AcDbEntity
  8
0
 62
5
100
AcDbSpline
 70
0
 71
3
 72
10
 73
6
 74
4
 40
0.000000
 40
0.000000
 40
0.000000
 40
0.000000
 40
0.639582
 40
2.107730
 40
3.851420
 40
3.851420
 40
3.851420
 40
3.851420
 10
179.595388
 20
196.417050
 30
0.0
 10
179.422449
 20
196.292928
 30
0.0
 10
178.852532
 20
195.883885
 30
0.0
 10
177.694251
 20
195.268436
 30
0.0
 10
176.614839
 20
195.188811
 30
0.0
 10
176.028833
 20
195.145582
 30
0.0
 11
179.595388
 21
196.417050
 31
0.0
 11
179.070681
 21
196.051334
 31
0.0
 11
177.753407
 21
195.403070
 31
0.0
 11
176.028833
 21
195.145582
 31
0.0
  0
SPLINE
  5
147
100
AcDbEntity
  8
0
 62
5
100
AcDbSpline
 70
0
 71
3
 72
10
 73
6
 74
4
 40
0.000000
 40
0.000000
 40
0.000000
 40
0.000000
 40
2.923540
 40
5.996629
 40
8.920169
 40
8.920169
 40
8.920169
 40
8.920169
 10
176.028833
 20
195.145582
 30
0.0
 10
175.086977
 20
195.426556
 30
0.0
 10
173.155086
 20
196.002877
 30
0.0
 10
170.894853
 20
198.171417
 30
0.0
 10
170.239063
 20
200.077798
 30
0.0
 10
169.919345
 20
201.007217
 30
0.0
 11
176.028833
 21
195.145582
 31
0.0
 11
173.301296
 21
196.198023
 31
0.0
 11
171.083779
 21
198.325579
 31
0.0
 11
169.919345
 21
201.007217
 31
0.0
  0
LWPOLYLINE
  5
148
100
AcDbEntity
  8
0
 62
5
100
AcDbPolyline
 90
4
 70
0
 10
185.892003
 20
191.158101
 30
0.0
 10
178.764263
 20
197.996676
 30
0.0
 10
178.373490
 20
197.589378
 30
0.0
 10
179.595388
 20
196.417050
 30
0.0
  0
LWPOLYLINE
  5
149
100
AcDbEntity
  8
0
 62
5
100
AcDbPolyline
 90
4
 70
0
 10
171.042101
 20
204.623341
 30
0.0
 10
172.263999
 20
203.451013
 30
0.0
 10
172.654773
 20
203.858313
 30
0.0
 10
165.527036
 20
210.696888
 30
0.0
  0
LWPOLYLINE
  5
14a
100
AcDbEntity
  8
0
 62
1
100
AcDbPolyline
 90
2
 70
0
 10
177.338716
 20
199.364392
 30
0.0
 10
174.080322
 20
202.490599
 30
0.0
  0
LWPOLYLINE
  5
14b
100
AcDbEntity
  8
0
 62
5
100
AcDbPolyline
 90
4
 70
0
 10
211.510307
 20
202.998015
 30
0.0
 10
208.636229
 20
195.762548
 30
0.0
 10
193.265236
 20
188.658589
 30
0.0
 10
185.891986
 20
191.158084
 30
0.0
  0
LWPOLYLINE
  5
14c
100
AcDbEntity
  8
0
 62
5
100
AcDbPolyline
 90
4
 70
0
 10
203.981979
 20
200.451383
 30
0.0
 10
203.549242
 20
198.696869
 30
0.0
 10
194.326645
 20
194.434495
 30
0.0
 10
192.709916
 20
195.241814
 30
0.0
  0
LWPOLYLINE
  5
14d
100
AcDbEntity
  8
0
 62
1
100
AcDbPolyline
 90
2
 70
0
 10
211.510307
 20
202.998015
 30
0.0
 10
204.337178
 20
199.682835
 30
0.0
  0
LWPOLYLINE
  5
14e
100
AcDbEntity
  8
0
 62
1
100
AcDbPolyline
 90
2
 70
0
 10
185.891986
 20
191.158084
 30
0.0
 10
193.065115
 20
194.473264
 30
0.0
  0
SPLINE
  5
14f
100
AcDbEntity
  8
0
 62
5
100
AcDbSpline
 70
0
 71
3
 72
10
 73
6
 74
4
 40
0.000000
 40
0.000000
 40
0.000000
 40
0.000000
 40
1.743690
 40
3.211837
 40
3.851419
 40
3.851419
 40
3.851419
 40
3.851419
 10
169.919345
 20
201.007217
 30
0.0
 10
169.938282
 20
201.594510
 30
0.0
 10
169.973162
 20
202.676292
 30
0.0
 10
170.540141
 20
203.859054
 30
0.0
 10
170.925244
 20
204.445413
 30
0.0
 10
171.042101
 20
204.623341
 30
0.0
 11
169.919345
 21
201.007217
 31
0.0
 11
170.105231
 21
202.740969
 31
0.0
 11
170.698417
 21
204.083947
 31
0.0
 11
171.042101
 21
204.623341
 31
0.0
  0
SPLINE
  5
150
100
AcDbEntity
  8
0
 62
5
100
AcDbSpline
 70
0
 71
3
 72
10
 73
6
 74
4
 40
0.000000
 40
0.000000
 40
0.000000
 40
0.000000
 40
0.280474
 40
1.083629
 40
2.425807
 40
2.425807
 40
2.425807
 40
2.425807
 10
211.382666
 20
214.582357
 30
0.0
 10
211.469575
 20
214.547568
 30
0.0
 10
211.805350
 20
214.413162
 30
0.0
 10
212.462850
 20
213.916384
 30
0.0
 10
212.900368
 20
213.348471
 30
0.0
 10
213.174092
 20
212.993169
 30
0.0
 11
211.382666
 21
214.582357
 31
0.0
 11
211.640573
 21
214.472130
 31
0.0
 11
212.296574
 21
214.008750
 31
0.0
 11
213.174092
 21
212.993169
 31
0.0
  0
SPLINE
  5
151
100
AcDbEntity
  8
0
 62
5
100
AcDbSpline
 70
0
 71
3
 72
10
 73
6
 74
4
 40
0.000000
 40
0.000000
 40
0.000000
 40
0.000000
 40
1.935347
 40
3.528886
 40
5.433505
 40
5.433505
 40
5.433505
 40
5.433505
 10
213.174092
 20
212.993169
 30
0.0
 10
213.359871
 20
212.374801
 30
0.0
 10
213.698619
 20
211.247278
 30
0.0
 10
214.028558
 20
209.464596
 30
0.0
 10
214.229854
 20
208.316299
 30
0.0
 10
214.339452
 20
207.691094
 30
0.0
 11
213.174092
 21
212.993169
 31
0.0
 11
213.693995
 21
211.128961
 31
0.0
 11
214.007360
 21
209.566537
 31
0.0
 11
214.339452
 21
207.691094
 31
0.0
  0
LWPOLYLINE
  5
152
100
AcDbEntity
  8
0
 62
5
100
AcDbPolyline
 90
4
 70
0
 10
209.824901
 20
231.169990
 30
0.0
 10
210.920350
 20
212.858346
 30
0.0
 10
211.483787
 20
212.892051
 30
0.0
 10
211.382666
 20
214.582357
 30
0.0
  0
LWPOLYLINE
  5
153
100
AcDbEntity
  8
0
 62
5
100
AcDbPolyline
 90
4
 70
0
 10
211.921965
 20
205.567394
 30
0.0
 10
211.820847
 20
207.257699
 30
0.0
 10
211.257413
 20
207.223994
 30
0.0
 10
211.510208
 20
202.998229
 30
0.0
  0
LWPOLYLINE
  5
154
100
AcDbEntity
  8
0
 62
1
100
AcDbPolyline
 90
2
 70
0
 10
211.038321
 20
210.886324
 30
0.0
 10
211.139442
 20
209.196016
 30
0.0
  0
LWPOLYLINE
  5
155
100
AcDbEntity
  8
0
 62
5
100
AcDbPolyline
 90
7
 70
0
 10
209.824876
 20
231.169987
 30
0.0
 10
210.104160
 20
228.632262
 30
0.0
 10
212.619937
 20
228.662164
 30
0.0
 10
213.771107
 20
230.320050
 30
0.0
 10
213.272342
 20
230.363947
 30
0.0
 10
213.316239
 20
230.862712
 30
0.0
 10
234.763177
 20
228.975165
 30
0.0
  0
LWPOLYLINE
  5
156
100
AcDbEntity
  8
0
 62
1
100
AcDbPolyline
 90
2
 70
0
 10
210.822407
 20
231.082197
 30
0.0
 10
212.318707
 20
230.950506
 30
0.0
  0
LWPOLYLINE
  5
157
100
AcDbEntity
  8
0
 62
5
100
AcDbPolyline
 90
8
 70
0
 10
234.763158
 20
228.974948
 30
0.0
 10
217.614125
 20
225.368269
 30
0.0
 10
216.763484
 20
226.980125
 30
0.0
 10
214.262101
 20
226.709872
 30
0.0
 10
213.346312
 20
224.982333
 30
0.0
 10
213.836284
 20
225.085381
 30
0.0
 10
213.939332
 20
224.595409
 30
0.0
 10
210.264539
 20
223.822549
 30
0.0
  0
LWPOLYLINE
  5
158
100
AcDbEntity
  8
0
 62
1
100
AcDbPolyline
 90
2
 70
0
 10
216.634181
 20
225.162173
 30
0.0
 10
214.919278
 20
224.801505
 30
0.0
  0
LWPOLYLINE
  5
159
100
AcDbEntity
  8
0
 62
5
100
AcDbPolyline
 90
5
 70
0
 10
230.629452
 20
204.284028
 30
0.0
 10
225.466749
 20
202.979512
 30
0.0
 10
216.651981
 20
214.174452
 30
0.0
 10
217.392225
 20
216.984240
 30
0.0
 10
210.264485
 20
223.822814
 30
0.0
  0
LWPOLYLINE
  5
15a
100
AcDbEntity
  8
0
 62
5
100
AcDbPolyline
 90
4
 70
0
 10
229.586417
 20
206.458079
 30
0.0
 10
227.794879
 20
206.221382
 30
0.0
 10
222.499990
 20
211.301467
 30
0.0
 10
222.662329
 20
213.101266
 30
0.0
  0
LWPOLYLINE
  5
15b
100
AcDbEntity
  8
0
 62
1
100
AcDbPolyline
 90
2
 70
0
 10
230.629452
 20
204.284028
 30
0.0
 10
229.000253
 20
205.847130
 30
0.0
  0
LWPOLYLINE
  5
15c
100
AcDbEntity
  8
0
 62
1
100
AcDbPolyline
 90
2
 70
0
 10
217.392225
 20
216.984240
 30
0.0
 10
222.076165
 20
212.490317
 30
0.0
  0
SPLINE
  5
15d
100
AcDbEntity
  8
0
 62
5
100
AcDbSpline
 70
0
 71
3
 72
10
 73
6
 74
4
 40
0.000000
 40
0.000000
 40
0.000000
 40
0.000000
 40
1.759337
 40
3.045054
 40
3.332074
 40
3.332074
 40
3.332074
 40
3.332074
 10
214.339452
 20
207.691094
 30
0.0
 10
213.962391
 20
207.281783
 30
0.0
 10
213.309774
 20
206.573349
 30
0.0
 10
212.549537
 20
205.445396
 30
0.0
 10
212.018819
 20
205.548566
 30
0.0
 10
211.921965
 20
205.567394
 30
0.0
 11
214.339452
 21
207.691094
 31
0.0
 11
213.194203
 21
206.355552
 31
0.0
 11
212.206804
 21
205.532077
 31
0.0
 11
211.921965
 21
205.567394
 31
0.0
  0
SPLINE
  5
15e
100
AcDbEntity
  8
0
 62
5
100
AcDbSpline
 70
0
 71
3
 72
10
 73
6
 74
4
 40
0.000000
 40
0.000000
 40
0.000000
 40
0.000000
 40
0.639576
 40
2.107711
 40
3.851385
 40
3.851385
 40
3.851385
 40
3.851385
 10
249.055241
 20
212.177993
 30
0.0
 10
249.107771
 20
211.971707
 30
0.0
 10
249.280884
 20
211.291895
 30
0.0
 10
249.431696
 20
209.988968
 30
0.0
 10
249.112321
 20
208.954828
 30
0.0
 10
248.938934
 20
208.393398
 30
0.0
 11
249.055241
 21
212.177993
 31
0.0
 11
249.204492
 21
211.556075
 31
0.0
 11
249.327896
 21
210.093136
 31
0.0
 11
248.938934
 21
208.393398
 31
0.0
  0
SPLINE
  5
15f
100
AcDbEntity
  8
0
 62
5
100
AcDbSpline
 70
0
 71
3
 72
10
 73
6
 74
4
 40
0.000000
 40
0.000000
 40
0.000000
 40
0.000000
 40
2.923517
 40
5.996581
 40
8.920097
 40
8.920097
 40
8.920097
 40
8.920097
 10
248.938934
 20
208.393398
 30
0.0
 10
248.333928
 20
207.618808
 30
0.0
 10
247.092967
 20
206.030004
 30
0.0
 10
244.249680
 20
204.715932
 30
0.0
 10
242.235440
 20
204.800292
 30
0.0
 10
241.253436
 20
204.841420
 30
0.0
 11
248.938934
 21
208.393398
 31
0.0
 11
246.964558
 21
206.237294
 31
0.0
 11
244.175007
 21
204.948057
 31
0.0
 11
241.253436
 21
204.841420
 31
0.0
  0
LWPOLYLINE
  5
160
100
AcDbEntity
  8
0
 62
5
100
AcDbPolyline
 90
4
 70
0
 10
256.247756
 20
216.123939
 30
0.0
 10
247.281344
 20
211.979963
 30
0.0
 10
247.518143
 20
211.467597
 30
0.0
 10
249.055241
 20
212.177993
 30
0.0
  0
LWPOLYLINE
  5
161
100
AcDbEntity
  8
0
 62
5
100
AcDbPolyline
 90
4
 70
0
 10
238.295547
 20
207.205220
 30
0.0
 10
239.832645
 20
207.915619
 30
0.0
 10
239.595846
 20
208.427985
 30
0.0
 10
230.629435
 20
204.284008
 30
0.0
  0
LWPOLYLINE
  5
162
100
AcDbEntity
  8
0
 62
1
100
AcDbPolyline
 90
2
 70
0
 10
245.488062
 20
211.151167
 30
0.0
 10
241.389129
 20
209.256778
 30
0.0
  0
LWPOLYLINE
  5
163
100
AcDbEntity
  8
0
 62
5
100
AcDbPolyline
 90
4
 70
0
 10
254.562350
 20
244.295914
 30
0.0
 10
260.252046
 20
238.981772
 30
0.0
 10
261.263232
 20
222.078715
 30
0.0
 10
256.247657
 20
216.124154
 30
0.0
  0
LWPOLYLINE
  5
164
100
AcDbEntity
  8
0
 62
5
100
AcDbPolyline
 90
4
 70
0
 10
254.189083
 20
236.357263
 30
0.0
 10
255.665083
 20
235.314658
 30
0.0
 10
256.271793
 20
225.172824
 30
0.0
 10
254.930619
 20
223.961688
 30
0.0
  0
LWPOLYLINE
  5
165
100
AcDbEntity
  8
0
 62
1
100
AcDbPolyline
 90
2
 70
0
 10
254.562350
 20
244.295914
 30
0.0
 10
255.034237
 20
236.407820
 30
0.0
  0
LWPOLYLINE
  5
166
100
AcDbEntity
  8
0
 62
1
100
AcDbPolyline
 90
2
 70
0
 10
256.247657
 20
216.124154
 30
0.0
 10
255.775770
 20
224.012248
 30
0.0
  0
SPLINE
  5
167
100
AcDbEntity
  8
0
 62
5
100
AcDbSpline
 70
0
 71
3
 72
10
 73
6
 74
4
 40
0.000000
 40
0.000000
 40
0.000000
 40
0.000000
 40
1.743673
 40
3.211806
 40
3.851382
 40
3.851382
 40
3.851382
 40
3.851382
 10
241.253436
 20
204.841420
 30
0.0
 10
240.713472
 20
205.073162
 30
0.0
 10
239.718870
 20
205.500025
 30
0.0
 10
238.824225
 20
206.459176
 30
0.0
 10
238.418625
 20
207.031539
 30
0.0
 10
238.295547
 20
207.205220
 30
0.0
 11
241.253436
 21
204.841420
 31
0.0
 11
239.706792
 21
205.646583
 31
0.0
 11
238.672515
 21
206.688546
 31
0.0
 11
238.295547
 21
207.205220
 31
0.0
  0
SPLINE
  5
168
100
AcDbEntity
  8
0
 62
5
100
AcDbSpline
 70
0
 71
3
 72
10
 73
6
 74
4
 40
0.000000
 40
0.000000
 40
0.000000
 40
0.000000
 40
0.280473
 40
1.083625
 40
2.425799
 40
2.425799
 40
2.425799
 40
2.425799
 10
243.729025
 20
248.400436
 30
0.0
 10
243.793103
 20
248.468679
 30
0.0
 10
244.040674
 20
248.732341
 30
0.0
 10
244.742967
 20
249.163471
 30
0.0
 10
245.431299
 20
249.363829
 30
0.0
 10
245.861939
 20
249.489179
 30
0.0
 11
243.729025
 21
248.400436
 31
0.0
 11
243.925691
 21
248.600404
 31
0.0
 11
244.596339
 21
249.042315
 31
0.0
 11
245.861939
 21
249.489179
 31
0.0
  0
SPLINE
  5
169
100
AcDbEntity
  8
0
 62
5
100
AcDbSpline
 70
0
 71
3
 72
10
 73
6
 74
4
 40
0.000000
 40
0.000000
 40
0.000000
 40
0.000000
 40
1.935342
 40
3.528876
 40
5.433490
 40
5.433490
 40
5.433490
 40
5.433490
 10
245.861939
 20
249.489179
 30
0.0
 10
246.505475
 20
249.436730
 30
0.0
 10
247.678891
 20
249.341095
 30
0.0
 10
249.459161
 20
248.998404
 30
0.0
 10
250.601808
 20
248.767204
 30
0.0
 10
251.223938
 20
248.641324
 30
0.0
 11
245.861939
 21
249.489179
 31
0.0
 11
247.787379
 21
249.293654
 31
0.0
 11
249.356508
 21
249.015830
 31
0.0
 11
251.223938
 21
248.641324
 31
0.0
  0
LWPOLYLINE
  5
16a
100
AcDbEntity
  8
0
 62
5
100
AcDbPolyline
 90
4
 70
0
 10
227.715185
 20
252.997325
 30
0.0
 10
245.165826
 20
247.341408
 30
0.0
 10
245.339853
 20
247.878350
 30
0.0
 10
243.729025
 20
248.400436
 30
0.0
  0
LWPOLYLINE
  5
16b
100
AcDbEntity
  8
0
 62
5
100
AcDbPolyline
 90
4
 70
0
 10
252.320109
 20
245.615983
 30
0.0
 10
250.709280
 20
246.138069
 30
0.0
 10
250.535254
 20
245.601124
 30
0.0
 10
254.562325
 20
244.295914
 30
0.0
  0
LWPOLYLINE
  5
16c
100
AcDbEntity
  8
0
 62
1
100
AcDbPolyline
 90
2
 70
0
 10
247.045124
 20
246.732308
 30
0.0
 10
248.655953
 20
246.210225
 30
0.0
  0
LWPOLYLINE
  5
16d
100
AcDbEntity
  8
0
 62
5
100
AcDbPolyline
 90
7
 70
0
 10
227.715149
 20
252.997212
 30
0.0
 10
230.180021
 20
252.332093
 30
0.0
 10
231.069357
 20
254.685612
 30
0.0
 10
229.945263
 20
256.361961
 30
0.0
 10
229.722553
 20
255.913530
 30
0.0
 10
229.274122
 20
256.136240
 30
0.0
 10
238.850658
 20
275.418839
 30
0.0
  0
LWPOLYLINE
  5
16e
100
AcDbEntity
  8
0
 62
1
100
AcDbPolyline
 90
2
 70
0
 10
228.160569
 20
253.894078
 30
0.0
 10
228.828699
 20
255.239375
 30
0.0
  0
LWPOLYLINE
  5
16f
100
AcDbEntity
  8
0
 62
5
100
AcDbPolyline
 90
8
 70
0
 10
238.850819
 20
275.418760
 30
0.0
 10
235.957130
 20
258.135087
 30
0.0
 10
234.146084
 20
257.930637
 30
0.0
 10
233.485792
 20
255.502880
 30
0.0
 10
234.760556
 20
254.020302
 30
0.0
 10
234.843233
 20
254.514120
 30
0.0
 10
235.337051
 20
254.431443
 30
0.0
 10
234.716975
 20
250.727798
 30
0.0
  0
LWPOLYLINE
  5
170
100
AcDbEntity
  8
0
 62
1
100
AcDbPolyline
 90
2
 70
0
 10
235.791776
 20
257.147448
 30
0.0
 10
235.502405
 20
255.419082
 30
0.0
  0
LWPOLYLINE
  5
171
100
AcDbEntity
  8
0
 62
5
100
AcDbPolyline
 90
5
 70
0
 10
260.335276
 20
262.567802
 30
0.0
 10
259.667829
 20
257.284856
 30
0.0
 10
246.029813
 20
253.158155
 30
0.0
 10
243.683293
 20
254.871814
 30
0.0
 10
234.716842
 20
250.727821
 30
0.0
  0
LWPOLYLINE
  5
172
100
AcDbEntity
  8
0
 62
5
100
AcDbPolyline
 90
4
 70
0
 10
257.930602
 20
262.389158
 30
0.0
 10
257.497862
 20
260.634637
 30
0.0
 10
250.837071
 20
257.556241
 30
0.0
 10
249.220335
 20
258.363563
 30
0.0
  0
LWPOLYLINE
  5
173
100
AcDbEntity
  8
0
 62
1
100
AcDbPolyline
 90
2
 70
0
 10
260.335276
 20
262.567802
 30
0.0
 10
258.285801
 20
261.620605
 30
0.0
  0
LWPOLYLINE
  5
174
100
AcDbEntity
  8
0
 62
1
100
AcDbPolyline
 90
2
 70
0
 10
243.683293
 20
254.871814
 30
0.0
 10
249.575534
 20
257.595010
 30
0.0
  0
SPLINE
  5
175
100
AcDbEntity
  8
0
 62
5
100
AcDbSpline
 70
0
 71
3
 72
10
 73
6
 74
4
 40
0.000000
 40
0.000000
 40
0.000000
 40
0.000000
 40
1.759331
 40
3.045044
 40
3.332063
 40
3.332063
 40
3.332063
 40
3.332063
 10
251.223938
 20
248.641324
 30
0.0
 10
251.467609
 20
248.140991
 30
0.0
 10
251.889354
 20
247.275017
 30
0.0
 10
252.662508
 20
246.155883
 30
0.0
 10
252.372952
 20
245.699307
 30
0.0
 10
252.320109
 20
245.615983
 30
0.0
 11
251.223938
 21
248.641324
 31
0.0
 11
252.050026
 21
247.087997
 31
0.0
 11
252.456841
 21
245.868341
 31
0.0
 11
252.320109
 21
245.615983
 31
0.0
  0
SPLINE
  5
176
100
AcDbEntity
  8
0
 62
5
100
AcDbSpline
 70
0
 71
3
 72
10
 73
6
 74
4
 40
0.000000
 40
0.000000
 40
0.000000
 40
0.000000
 40
0.639578
 40
2.107718
 40
3.851397
 40
3.851397
 40
3.851397
 40
3.851397
 10
259.702184
 20
282.603371
 30
0.0
 10
259.913425
 20
282.577079
 30
0.0
 10
260.609563
 20
282.490436
 30
0.0
 10
261.877801
 20
282.155855
 30
0.0
 10
262.724334
 20
281.481439
 30
0.0
 10
263.183912
 20
281.115302
 30
0.0
 11
259.702184
 21
282.603371
 31
0.0
 11
260.335713
 21
282.515614
 31
0.0
 11
261.742960
 21
282.097176
 31
0.0
 11
263.183912
 21
281.115302
 31
0.0
  0
SPLINE
  5
177
100
AcDbEntity
  8
0
 62
5
100
AcDbSpline
 70
0
 71
3
 72
10
 73
6
 74
4
 40
0.000000
 40
0.000000
 40
0.000000
 40
0.000000
 40
2.923527
 40
5.996603
 40
8.920130
 40
8.920130
 40
8.920130
 40
8.920130
 10
263.183912
 20
281.115302
 30
0.0
 10
263.684624
 20
280.269538
 30
0.0
 10
264.711662
 20
278.534745
 30
0.0
 10
264.898708
 20
275.408062
 30
0.0
 10
264.085815
 20
273.563200
 30
0.0
 10
263.689505
 20
272.663774
 30
0.0
 11
263.183912
 21
281.115302
 31
0.0
 11
264.471823
 21
278.490746
 31
0.0
 11
264.655335
 21
275.423154
 31
0.0
 11
263.689505
 21
272.663774
 31
0.0
  0
LWPOLYLINE
  5
178
100
AcDbEntity
  8
0
 62
5
100
AcDbPolyline
 90
4
 70
0
 10
258.650009
 20
290.739475
 30
0.0
 10
259.239868
 20
280.879359
 30
0.0
 10
259.803302
 20
280.913065
 30
0.0
 10
259.702184
 20
282.603371
 30
0.0
  0
LWPOLYLINE
  5
179
100
AcDbEntity
  8
0
 62
5
100
AcDbPolyline
 90
4
 70
0
 10
260.410012
 20
270.771231
 30
0.0
 10
260.308894
 20
272.461537
 30
0.0
 10
259.745457
 20
272.427831
 30
0.0
 10
260.335316
 20
262.567715
 30
0.0
  0
LWPOLYLINE
  5
17a
100
AcDbEntity
  8
0
 62
1
100
AcDbPolyline
 90
2
 70
0
 10
259.357836
 20
278.907336
 30
0.0
 10
259.627486
 20
274.399854
 30
0.0
  0
LWPOLYLINE
  5
17b
100
AcDbEntity
  8
0
 62
5
100
AcDbPolyline
 90
4
 70
0
 10
258.649984
 20
290.739473
 30
0.0
 10
254.933820
 20
297.580721
 30
0.0
 10
238.825515
 20
302.801575
 30
0.0
 10
231.802807
 20
299.440896
 30
0.0
  0
LWPOLYLINE
  5
17c
100
AcDbEntity
  8
0
 62
5
100
AcDbPolyline
 90
4
 70
0
 10
250.871733
 20
292.370456
 30
0.0
 10
250.232915
 20
294.060872
 30
0.0
 10
240.567932
 20
297.193384
 30
0.0
 10
239.058975
 20
296.199082
 30
0.0
  0
LWPOLYLINE
  5
17d
100
AcDbEntity
  8
0
 62
1
100
AcDbPolyline
 90
2
 70
0
 10
258.649984
 20
290.739473
 30
0.0
 10
251.132775
 20
293.175871
 30
0.0
  0
LWPOLYLINE
  5
17e
100
AcDbEntity
  8
0
 62
1
100
AcDbPolyline
 90
2
 70
0
 10
231.802807
 20
299.440896
 30
0.0
 10
239.320016
 20
297.004498
 30
0.0
  0
SPLINE
  5
17f
100
AcDbEntity
  8
0
 62
5
100
AcDbSpline
 70
0
 71
3
 72
10
 73
6
 74
4
 40
0.000000
 40
0.000000
 40
0.000000
 40
0.000000
 40
1.743681
 40
3.211821
 40
3.851399
 40
3.851399
 40
3.851399
 40
3.851399
 10
263.689505
 20
272.663774
 30
0.0
 10
263.276854
 20
272.245458
 30
0.0
 10
262.516761
 20
271.474929
 30
0.0
 10
261.297455
 20
270.991537
 30
0.0
 10
260.616611
 20
270.822519
 30
0.0
 10
260.410012
 20
270.771231
 30
0.0
 11
263.689505
 21
272.663774
 31
0.0
 11
262.375886
 21
271.517114
 31
0.0
 11
261.028561
 21
270.933890
 31
0.0
 11
260.410012
 21
270.771231
 31
0.0
  0
SPLINE
  5
180
100
AcDbEntity
  8
0
 62
5
100
AcDbSpline
 70
0
 71
3
 72
10
 73
6
 74
4
 40
0.000000
 40
0.000000
 40
0.000000
 40
0.000000
 40
0.280475
 40
1.083633
 40
2.425816
 40
2.425816
 40
2.425816
 40
2.425816
 10
224.031243
 20
290.849496
 30
0.0
 10
223.991057
 20
290.934044
 30
0.0
 10
223.835796
 20
291.260701
 30
0.0
 10
223.690370
 20
292.071842
 30
0.0
 10
223.754745
 20
292.785850
 30
0.0
 10
223.795020
 20
293.232553
 30
0.0
 11
224.031243
 21
290.849496
 31
0.0
 11
223.916734
 21
291.105531
 31
0.0
 11
223.749732
 21
291.891134
 31
0.0
 11
223.795020
 21
293.232553
 31
0.0
  0
SPLINE
  5
181
100
AcDbEntity
  8
0
 62
5
100
AcDbSpline
 70
0
 71
3
 72
10
 73
6
 74
4
 40
0.000000
 40
0.000000
 40
0.000000
 40
0.000000
 40
1.935356
 40
3.528901
 40
5.433528
 40
5.433528
 40
5.433528
 40
5.433528
 10
223.795020
 20
293.232553
 30
0.0
 10
224.078474
 20
293.812682
 30
0.0
 10
224.595320
 20
294.870482
 30
0.0
 10
225.563462
 20
296.403304
 30
0.0
 10
226.195327
 20
297.383030
 30
0.0
 10
226.539354
 20
297.916455
 30
0.0
 11
223.795020
 21
293.232553
 31
0.0
 11
224.679048
 21
294.954208
 31
0.0
 11
225.509811
 21
296.314069
 31
0.0
 11
226.539354
 21
297.916455
 31
0.0
  0
LWPOLYLINE
  5
182
100
AcDbEntity
  8
0
 62
5
100
AcDbPolyline
 90
4
 70
0
 10
213.912518
 20
277.613563
 30
0.0
 10
225.541208
 20
291.801330
 30
0.0
 10
225.104661
 20
292.159136
 30
0.0
 10
224.031243
 20
290.849496
 30
0.0
  0
LWPOLYLINE
  5
183
100
AcDbEntity
  8
0
 62
5
100
AcDbPolyline
 90
4
 70
0
 10
229.756135
 20
297.834243
 30
0.0
 10
228.682719
 20
296.524603
 30
0.0
 10
229.119263
 20
296.166797
 30
0.0
 10
231.802807
 20
299.440897
 30
0.0
  0
LWPOLYLINE
  5
184
100
AcDbEntity
  8
0
 62
1
100
AcDbPolyline
 90
2
 70
0
 10
226.793527
 20
293.329243
 30
0.0
 10
227.866945
 20
294.638883
 30
0.0
  0
LWPOLYLINE
  5
185
100
AcDbEntity
  8
0
 62
5
100
AcDbPolyline
 90
7
 70
0
 10
213.912537
 20
277.613548
 30
0.0
 10
215.430506
 20
279.666311
 30
0.0
 10
213.563180
 20
281.352471
 30
0.0
 10
211.592377
 20
280.916886
 30
0.0
 10
211.928755
 20
280.546016
 30
0.0
 10
211.557887
 20
280.209637
 30
0.0
 10
197.093603
 20
296.157044
 30
0.0
  0
LWPOLYLINE
  5
186
100
AcDbEntity
  8
0
 62
1
100
AcDbPolyline
 90
2
 70
0
 10
213.239779
 20
278.355288
 30
0.0
 10
212.230643
 20
279.467898
 30
0.0
  0
LWPOLYLINE
  5
187
100
AcDbEntity
  8
0
 62
5
100
AcDbPolyline
 90
8
 70
0
 10
197.093747
 20
296.157175
 30
0.0
 10
212.132901
 20
287.161488
 30
0.0
 10
211.663023
 20
285.400553
 30
0.0
 10
213.682964
 20
283.900610
 30
0.0
 10
215.528248
 20
284.547131
 30
0.0
 10
215.098559
 20
284.804150
 30
0.0
 10
215.355579
 20
285.233841
 30
0.0
 10
218.578255
 20
283.306193
 30
0.0
  0
LWPOLYLINE
  5
188
100
AcDbEntity
  8
0
 62
1
100
AcDbPolyline
 90
2
 70
0
 10
212.992281
 20
286.647449
 30
0.0
 10
214.496198
 20
285.747880
 30
0.0
  0
LWPOLYLINE
  5
189
100
AcDbEntity
  8
0
 62
5
100
AcDbPolyline
 90
5
 70
0
 10
216.892942
 20
311.477916
 30
0.0
 10
221.568950
 20
308.930391
 30
0.0
 10
220.439581
 20
294.726551
 30
0.0
 10
217.988391
 20
293.166287
 30
0.0
 10
218.578247
 20
283.306180
 30
0.0
  0
LWPOLYLINE
  5
18a
100
AcDbEntity
  8
0
 62
5
100
AcDbPolyline
 90
4
 70
0
 10
216.182615
 20
309.173617
 30
0.0
 10
217.658611
 20
308.131013
 30
0.0
 10
218.096792
 20
300.806362
 30
0.0
 10
216.755619
 20
299.595227
 30
0.0
  0
LWPOLYLINE
  5
18b
100
AcDbEntity
  8
0
 62
1
100
AcDbPolyline
 90
2
 70
0
 10
216.892942
 20
311.477916
 30
0.0
 10
217.027766
 20
309.224177
 30
0.0
  0
LWPOLYLINE
  5
18c
100
AcDbEntity
  8
0
 62
1
100
AcDbPolyline
 90
2
 70
0
 10
217.988391
 20
293.166287
 30
0.0
 10
217.600770
 20
299.645786
 30
0.0
  0
SPLINE
  5
18d
100
AcDbEntity
  8
0
 62
5
100
AcDbSpline
 70
0
 71
3
 72
10
 73
6
 74
4
 40
0.000000
 40
0.000000
 40
0.000000
 40
0.000000
 40
1.759346
 40
3.045068
 40
3.332089
 40
3.332089
 40
3.332089
 40
3.332089
 10
226.539354
 20
297.916455
 30
0.0
 10
227.094092
 20
297.960951
 30
0.0
 10
228.054229
 20
298.037964
 30
0.0
 10
229.378218
 20
298.349910
 30
0.0
 10
229.697810
 20
297.913826
 30
0.0
 10
229.756135
 20
297.834243
 30
0.0
 11
226.539354
 21
297.916455
 31
0.0
 11
228.286956
 21
298.119397
 31
0.0
 11
229.570992
 21
298.053566
 31
0.0
 11
229.756135
 21
297.834243
 31
0.0
  0
SPLINE
  5
18e
100
AcDbEntity
  8
0
 62
5
100
AcDbSpline
 70
0
 71
3
 72
10
 73
6
 74
4
 40
0.000000
 40
0.000000
 40
0.000000
 40
0.000000
 40
0.639577
 40
2.107713
 40
3.851388
 40
3.851388
 40
3.851388
 40
3.851388
 10
209.281268
 20
314.538267
 30
0.0
 10
209.308831
 20
314.749345
 30
0.0
 10
209.399665
 20
315.444947
 30
0.0
 10
209.394072
 20
316.756562
 30
0.0
 10
208.953690
 20
317.745254
 30
0.0
 10
208.714608
 20
318.282010
 30
0.0
 11
209.281268
 21
314.538267
 31
0.0
 11
209.355312
 21
315.173544
 31
0.0
 11
209.303431
 21
316.640763
 31
0.0
 11
208.714608
 21
318.282010
 31
0.0
  0
SPLINE
  5
18f
100
AcDbEntity
  8
0
 62
5
100
AcDbSpline
 70
0
 71
3
 72
10
 73
6
 74
4
 40
0.000000
 40
0.000000
 40
0.000000
 40
0.000000
 40
2.923519
 40
5.996585
 40
8.920103
 40
8.920103
 40
8.920103
 40
8.920103
 10
208.714608
 20
318.282010
 30
0.0
 10
208.021573
 20
318.978951
 30
0.0
 10
206.600052
 20
320.408484
 30
0.0
 10
203.620384
 20
321.374223
 30
0.0
 10
201.630564
 20
321.050338
 30
0.0
 10
200.660466
 20
320.892434
 30
0.0
 11
208.714608
 21
318.282010
 31
0.0
 11
206.497271
 21
320.187364
 31
0.0
 11
203.573915
 21
321.134851
 31
0.0
 11
200.660466
 21
320.892434
 31
0.0
  0
LWPOLYLINE
  5
190
100
AcDbEntity
  8
0
 62
5
100
AcDbPolyline
 90
4
 70
0
 10
216.892911
 20
311.477914
 30
0.0
 10
207.496410
 20
314.523409
 30
0.0
 10
207.670440
 20
315.060352
 30
0.0
 10
209.281268
 20
314.538267
 30
0.0
  0
LWPOLYLINE
  5
191
100
AcDbEntity
  8
0
 62
5
100
AcDbPolyline
 90
4
 70
0
 10
198.005466
 20
318.192861
 30
0.0
 10
199.616294
 20
317.670777
 30
0.0
 10
199.442268
 20
317.133834
 30
0.0
 10
190.045766
 20
320.179329
 30
0.0
  0
LWPOLYLINE
  5
192
100
AcDbEntity
  8
0
 62
1
100
AcDbPolyline
 90
2
 70
0
 10
205.617109
 20
315.132508
 30
0.0
 10
201.321566
 20
316.524735
 30
0.0
  0
LWPOLYLINE
  5
193
100
AcDbEntity
  8
0
 62
5
100
AcDbPolyline
 90
4
 70
0
 10
172.155496
 20
298.351964
 30
0.0
 10
171.586361
 20
306.116565
 30
0.0
 10
182.320509
 20
319.212929
 30
0.0
 10
190.045738
 20
320.179238
 30
0.0
  0
LWPOLYLINE
  5
194
100
AcDbEntity
  8
0
 62
5
100
AcDbPolyline
 90
4
 70
0
 10
177.819583
 20
303.926893
 30
0.0
 10
177.443827
 20
305.694496
 30
0.0
 10
183.884316
 20
313.552315
 30
0.0
 10
185.691289
 20
313.530895
 30
0.0
  0
LWPOLYLINE
  5
195
100
AcDbEntity
  8
0
 62
1
100
AcDbPolyline
 90
2
 70
0
 10
172.155496
 20
298.351964
 30
0.0
 10
177.164763
 20
304.463601
 30
0.0
  0
LWPOLYLINE
  5
196
100
AcDbEntity
  8
0
 62
1
100
AcDbPolyline
 90
2
 70
0
 10
190.045738
 20
320.179238
 30
0.0
 10
185.036471
 20
314.067601
 30
0.0
  0
SPLINE
  5
197
100
AcDbEntity
  8
0
 62
5
100
AcDbSpline
 70
0
 71
3
 72
10
 73
6
 74
4
 40
0.000000
 40
0.000000
 40
0.000000
 40
0.000000
 40
1.743676
 40
3.211813
 40
3.851389
 40
3.851389
 40
3.851389
 40
3.851389
 10
200.660466
 20
320.892434
 30
0.0
 10
200.151978
 20
320.597972
 30
0.0
 10
199.215356
 20
320.055581
 30
0.0
 10
198.441435
 20
318.996613
 30
0.0
 10
198.106961
 20
318.379977
 30
0.0
 10
198.005466
 20
318.192861
 30
0.0
 11
200.660466
 21
320.892434
 31
0.0
 11
199.220837
 21
319.908627
 31
0.0
 11
198.318151
 21
318.750792
 31
0.0
 11
198.005466
 21
318.192861
 31
0.0
  0
SPLINE
  5
198
100
AcDbEntity
  8
0
 62
5
100
AcDbSpline
 70
0
 71
3
 72
10
 73
6
 74
4
 40
0.000000
 40
0.000000
 40
0.000000
 40
0.000000
 40
0.280474
 40
1.083628
 40
2.425803
 40
2.425803
 40
2.425803
 40
2.425803
 10
177.322234
 20
287.983163
 30
0.0
 10
177.228855
 20
287.976567
 30
0.0
 10
176.868078
 20
287.951082
 30
0.0
 10
176.059749
 20
288.111384
 30
0.0
 10
175.418356
 20
288.431635
 30
0.0
 10
175.017083
 20
288.631993
 30
0.0
 11
177.322234
 21
287.983163
 31
0.0
 11
177.042076
 21
287.969879
 31
0.0
 11
176.249661
 21
288.100780
 31
0.0
 11
175.017083
 21
288.631993
 31
0.0
  0
SPLINE
  5
199
100
AcDbEntity
  8
0
 62
5
100
AcDbSpline
 70
0
 71
3
 72
10
 73
6
 74
4
 40
0.000000
 40
0.000000
 40
0.000000
 40
0.000000
 40
1.935347
 40
3.528885
 40
5.433503
 40
5.433503
 40
5.433503
 40
5.433503
 10
175.017083
 20
288.631993
 30
0.0
 10
174.580223
 20
289.107435
 30
0.0
 10
173.783658
 20
289.974351
 30
0.0
 10
172.709295
 20
291.434678
 30
0.0
 10
172.027363
 20
292.380232
 30
0.0
 10
171.656076
 20
292.895052
 30
0.0
 11
175.017083
 21
288.631993
 31
0.0
 11
173.736219
 21
290.082840
 31
0.0
 11
172.772829
 21
291.352187
 31
0.0
 11
171.656076
 21
292.895052
 31
0.0
  0
LWPOLYLINE
  5
19a
100
AcDbEntity
  8
0
 62
5
100
AcDbPolyline
 90
4
 70
0
 10
185.958147
 20
273.735468
 30
0.0
 10
176.986404
 20
289.736208
 30
0.0
 10
176.494073
 20
289.460154
 30
0.0
 10
177.322234
 20
287.983163
 30
0.0
  0
LWPOLYLINE
  5
19b
100
AcDbEntity
  8
0
 62
5
100
AcDbPolyline
 90
4
 70
0
 10
172.905375
 20
295.860450
 30
0.0
 10
173.733536
 20
294.383458
 30
0.0
 10
174.225867
 20
294.659512
 30
0.0
 10
172.155465
 20
298.351990
 30
0.0
  0
LWPOLYLINE
  5
19c
100
AcDbEntity
  8
0
 62
1
100
AcDbPolyline
 90
2
 70
0
 10
176.020216
 20
291.459364
 30
0.0
 10
175.192055
 20
292.936355
 30
0.0
  0
LWPOLYLINE
  5
19d
100
AcDbEntity
  8
0
 62
5
100
AcDbPolyline
 90
7
 70
0
 10
185.958076
 20
273.735427
 30
0.0
 10
184.600001
 20
275.897291
 30
0.0
 10
182.349126
 20
274.773202
 30
0.0
 10
182.036243
 20
272.779244
 30
0.0
 10
182.504221
 20
272.957264
 30
0.0
 10
182.682238
 20
272.489287
 30
0.0
 10
162.559244
 20
264.834425
 30
0.0
  0
LWPOLYLINE
  5
19e
100
AcDbEntity
  8
0
 62
1
100
AcDbPolyline
 90
2
 70
0
 10
185.022123
 20
273.379387
 30
0.0
 10
183.618192
 20
272.845327
 30
0.0
  0
LWPOLYLINE
  5
19f
100
AcDbEntity
  8
0
 62
5
100
AcDbPolyline
 90
8
 70
0
 10
162.559176
 20
264.834603
 30
0.0
 10
176.418596
 20
275.559098
 30
0.0
 10
177.887029
 20
274.479570
 30
0.0
 10
180.020152
 20
275.813649
 30
0.0
 10
180.090868
 20
277.767634
 30
0.0
 10
179.694885
 20
277.461220
 30
0.0
 10
179.388471
 20
277.857204
 30
0.0
 10
182.358346
 20
280.155310
 30
0.0
  0
LWPOLYLINE
  5
1a0
100
AcDbEntity
  8
0
 62
1
100
AcDbPolyline
 90
2
 70
0
 10
177.210562
 20
276.171926
 30
0.0
 10
178.596504
 20
277.244376
 30
0.0
  0
LWPOLYLINE
  5
1a1
100
AcDbEntity
  8
0
 62
5
100
AcDbPolyline
 90
5
 70
0
 10
155.511204
 20
288.856730
 30
0.0
 10
159.588144
 20
292.282131
 30
0.0
 10
172.402616
 20
286.052125
 30
0.0
 10
172.961845
 20
283.200812
 30
0.0
 10
182.358343
 20
280.155318
 30
0.0
  0
LWPOLYLINE
  5
1a2
100
AcDbEntity
  8
0
 62
5
100
AcDbPolyline
 90
4
 70
0
 10
157.397933
 20
287.355202
 30
0.0
 10
158.906890
 20
288.349503
 30
0.0
 10
165.887146
 20
286.087136
 30
0.0
 10
166.525962
 20
284.396723
 30
0.0
  0
LWPOLYLINE
  5
1a3
100
AcDbEntity
  8
0
 62
1
100
AcDbPolyline
 90
2
 70
0
 10
155.511204
 20
288.856730
 30
0.0
 10
157.658977
 20
288.160617
 30
0.0
  0
LWPOLYLINE
  5
1a4
100
AcDbEntity
  8
0
 62
1
100
AcDbPolyline
 90
2
 70
0
 10
172.961845
 20
283.200812
 30
0.0
 10
166.787003
 20
285.202137
 30
0.0
  0
SPLINE
  5
1a5
100
AcDbEntity
  8
0
 62
5
100
AcDbSpline
 70
0
 71
3
 72
10
 73
6
 74
4
 40
0.000000
 40
0.000000
 40
0.000000
 40
0.000000
 40
1.759337
 40
3.045053
 40
3.332072
 40
3.332072
 40
3.332072
 40
3.332072
 10
171.656076
 20
292.895052
 30
0.0
 10
171.816884
 20
293.427829
 30
0.0
 10
172.095210
 20
294.349957
 30
0.0
 10
172.287424
 20
295.696541
 30
0.0
 10
172.810005
 20
295.835153
 30
0.0
 10
172.905375
 20
295.860450
 30
0.0
 11
171.656076
 21
292.895052
 31
0.0
 11
172.104227
 21
294.596353
 31
0.0
 11
172.633650
 21
295.768009
 31
0.0
 11
172.905375
 21
295.860450
 31
0.0
  0
SPLINE
  5
1a6
100
AcDbEntity
  8
0
 62
5
100
AcDbSpline
 70
0
 71
3
 72
10
 73
6
 74
4
 40
0.000000
 40
0.000000
 40
0.000000
 40
0.000000
 40
0.639579
 40
2.107720
 40
3.851401
 40
3.851401
 40
3.851401
 40
3.851401
 10
142.372560
 20
273.717067
 30
0.0
 10
142.235323
 20
273.879794
 30
0.0
 10
141.783063
 20
274.416056
 30
0.0
 10
141.079122
 20
275.522783
 30
0.0
 10
140.915522
 20
276.592686
 30
0.0
 10
140.826704
 20
277.173530
 30
0.0
 11
142.372560
 21
273.717067
 31
0.0
 11
141.967022
 21
274.211638
 31
0.0
 11
141.217960
 21
275.474312
 31
0.0
 11
140.826704
 21
277.173530
 31
0.0
  0
SPLINE
  5
1a7
100
AcDbEntity
  8
0
 62
5
100
AcDbSpline
 70
0
 71
3
 72
10
 73
6
 74
4
 40
0.000000
 40
0.000000
 40
0.000000
 40
0.000000
 40
2.923529
 40
5.996607
 40
8.920136
 40
8.920136
 40
8.920136
 40
8.920136
 10
140.826704
 20
277.173530
 30
0.0
 10
141.033335
 20
278.134434
 30
0.0
 10
141.457167
 20
280.105393
 30
0.0
 10
143.442739
 20
282.527923
 30
0.0
 10
145.292135
 20
283.330451
 30
0.0
 10
146.193772
 20
283.721708
 30
0.0
 11
140.826704
 21
277.173530
 31
0.0
 11
141.663124
 21
279.974856
 31
0.0
 11
143.611171
 21
282.351602
 31
0.0
 11
146.193772
 21
283.721708
 31
0.0
  0
LWPOLYLINE
  5
1a8
100
AcDbEntity
  8
0
 62
5
100
AcDbPolyline
 90
4
 70
0
 10
137.620939
 20
267.029357
 30
0.0
 10
143.882519
 20
274.668898
 30
0.0
 10
143.445975
 20
275.026703
 30
0.0
 10
142.372560
 20
273.717067
 30
0.0
  0
LWPOLYLINE
  5
1a9
100
AcDbEntity
  8
0
 62
5
100
AcDbPolyline
 90
4
 70
0
 10
149.886458
 20
282.884516
 30
0.0
 10
148.813043
 20
281.574881
 30
0.0
 10
149.249587
 20
281.217076
 30
0.0
 10
155.511170
 20
288.856617
 30
0.0
  0
LWPOLYLINE
  5
1aa
100
AcDbEntity
  8
0
 62
1
100
AcDbPolyline
 90
2
 70
0
 10
145.134835
 20
276.196806
 30
0.0
 10
147.997271
 20
279.689168
 30
0.0
  0
LWPOLYLINE
  5
1ab
100
AcDbEntity
  8
0
 62
5
100
AcDbPolyline
 90
5
 70
0
 10
137.620897
 20
267.029394
 30
0.0
 10
134.204967
 20
271.114308
 30
0.0
 10
120.499192
 20
267.218492
 30
0.0
 10
119.450488
 20
264.508687
 30
0.0
 10
109.666422
 20
263.151384
 30
0.0
  0
LWPOLYLINE
  5
1ac
100
AcDbEntity
  8
0
 62
5
100
AcDbPolyline
 90
4
 70
0
 10
135.500878
 20
265.880518
 30
0.0
 10
134.188798
 20
267.123123
 30
0.0
 10
126.920636
 20
266.114839
 30
0.0
 10
125.996356
 20
264.561996
 30
0.0
  0
LWPOLYLINE
  5
1ad
100
AcDbEntity
  8
0
 62
1
100
AcDbPolyline
 90
2
 70
0
 10
137.620897
 20
267.029394
 30
0.0
 10
135.384537
 20
266.719153
 30
0.0
  0
LWPOLYLINE
  5
1ae
100
AcDbEntity
  8
0
 62
1
100
AcDbPolyline
 90
2
 70
0
 10
119.450488
 20
264.508687
 30
0.0
 10
125.880018
 20
265.400630
 30
0.0
  0
LWPOLYLINE
  5
1af
100
AcDbEntity
  8
0
 62
5
100
AcDbPolyline
 90
8
 70
0
 10
109.908845
 20
288.184684
 30
0.0
 10
109.739159
 20
270.661295
 30
0.0
 10
111.486651
 20
270.143658
 30
0.0
 10
111.712745
 20
267.637894
 30
0.0
 10
110.198617
 20
266.400767
 30
0.0
 10
110.203471
 20
266.901435
 30
0.0
 10
109.702803
 20
266.906289
 30
0.0
 10
109.666442
 20
263.151277
 30
0.0
  0
LWPOLYLINE
  5
1b0
100
AcDbEntity
  8
0
 62
1
100
AcDbPolyline
 90
2
 70
0
 10
109.729462
 20
269.659959
 30
0.0
 10
109.712500
 20
267.907619
 30
0.0
  0
LWPOLYLINE
  5
1b1
100
AcDbEntity
  8
0
 62
5
100
AcDbPolyline
 90
7
 70
0
 10
116.956809
 20
264.162606
 30
0.0
 10
114.413640
 20
263.938242
 30
0.0
 10
113.949057
 20
266.410932
 30
0.0
 10
115.348681
 20
267.865178
 30
0.0
 10
115.489643
 20
267.384737
 30
0.0
 10
115.970084
 20
267.525696
 30
0.0
 10
109.908772
 20
288.184684
 30
0.0
  0
LWPOLYLINE
  5
1b2
100
AcDbEntity
  8
0
 62
1
100
AcDbPolyline
 90
2
 70
0
 10
116.674889
 20
265.123488
 30
0.0
 10
116.252004
 20
266.564814
 30
0.0
  0
SPLINE
  5
1b3
100
AcDbEntity
  8
0
 62
5
100
AcDbSpline
 70
0
 71
3
 72
10
 73
6
 74
4
 40
0.000000
 40
0.000000
 40
0.000000
 40
0.000000
 40
1.743681
 40
3.211823
 40
3.851403
 40
3.851403
 40
3.851403
 40
3.851403
 10
146.193772
 20
283.721708
 30
0.0
 10
146.780750
 20
283.748652
 30
0.0
 10
147.861951
 20
283.798280
 30
0.0
 10
149.085340
 20
283.325313
 30
0.0
 10
149.699956
 20
282.987135
 30
0.0
 10
149.886458
 20
282.884516
 30
0.0
 11
146.193772
 21
283.721708
 31
0.0
 11
147.936736
 21
283.671660
 31
0.0
 11
149.321895
 21
283.185067
 31
0.0
 11
149.886458
 21
282.884516
 31
0.0
  0
SPLINE
  5
1b4
100
AcDbEntity
  8
0
 62
5
100
AcDbSpline
 70
0
 71
3
 72
10
 73
6
 74
4
 40
0.000000
 40
0.000000
 40
0.000000
 40
0.000000
 40
0.280472
 40
1.083623
 40
2.425794
 40
2.425794
 40
2.425794
 40
2.425794
 10
127.948749
 20
276.682882
 30
0.0
 10
128.039541
 20
276.660077
 30
0.0
 10
128.390319
 20
276.571969
 30
0.0
 10
129.214218
 20
276.588618
 30
0.0
 10
129.901687
 20
276.791915
 30
0.0
 10
130.331786
 20
276.919103
 30
0.0
 11
127.948749
 21
276.682882
 31
0.0
 11
128.222280
 21
276.620868
 31
0.0
 11
129.025374
 21
276.611348
 31
0.0
 11
130.331786
 21
276.919103
 31
0.0
  0
SPLINE
  5
1b5
100
AcDbEntity
  8
0
 62
5
100
AcDbSpline
 70
0
 71
3
 72
10
 73
6
 74
4
 40
0.000000
 40
0.000000
 40
0.000000
 40
0.000000
 40
1.935339
 40
3.528870
 40
5.433479
 40
5.433479
 40
5.433479
 40
5.433479
 10
130.331786
 20
276.919103
 30
0.0
 10
130.844973
 20
277.310929
 30
0.0
 10
131.780710
 20
278.025381
 30
0.0
 10
133.093623
 20
279.275599
 30
0.0
 10
133.930225
 20
280.087503
 30
0.0
 10
134.385725
 20
280.529555
 30
0.0
 11
130.331786
 21
276.919103
 31
0.0
 11
131.846369
 21
278.123916
 31
0.0
 11
133.016657
 21
279.205473
 31
0.0
 11
134.385725
 21
280.529555
 31
0.0
  0
LWPOLYLINE
  5
1b6
100
AcDbEntity
  8
0
 62
5
100
AcDbPolyline
 90
4
 70
0
 10
116.957032
 20
264.162674
 30
0.0
 10
128.585615
 20
278.350313
 30
0.0
 10
129.022159
 20
277.992510
 30
0.0
 10
127.948749
 20
276.682882
 30
0.0
  0
LWPOLYLINE
  5
1b7
100
AcDbEntity
  8
0
 62
5
100
AcDbPolyline
 90
4
 70
0
 10
133.673593
 20
283.667566
 30
0.0
 10
132.600184
 20
282.357937
 30
0.0
 10
132.163642
 20
282.715740
 30
0.0
 10
134.847161
 20
285.989811
 30
0.0
  0
LWPOLYLINE
  5
1b8
100
AcDbEntity
  8
0
 62
1
100
AcDbPolyline
 90
2
 70
0
 10
129.837925
 20
279.878212
 30
0.0
 10
130.911332
 20
281.187840
 30
0.0
  0
LWPOLYLINE
  5
1b9
100
AcDbEntity
  8
0
 62
5
100
AcDbPolyline
 90
4
 70
0
 10
121.044245
 20
310.606346
 30
0.0
 10
128.481932
 20
308.305591
 30
0.0
 10
136.763619
 20
293.535721
 30
0.0
 10
134.847056
 20
285.989896
 30
0.0
  0
LWPOLYLINE
  5
1ba
100
AcDbEntity
  8
0
 62
5
100
AcDbPolyline
 90
4
 70
0
 10
124.170539
 20
303.299656
 30
0.0
 10
125.953472
 20
303.005139
 30
0.0
 10
130.922485
 20
294.143217
 30
0.0
 10
130.243775
 20
292.468418
 30
0.0
  0
LWPOLYLINE
  5
1bb
100
AcDbEntity
  8
0
 62
1
100
AcDbPolyline
 90
2
 70
0
 10
121.044245
 20
310.606346
 30
0.0
 10
124.909032
 20
303.713740
 30
0.0
  0
LWPOLYLINE
  5
1bc
100
AcDbEntity
  8
0
 62
1
100
AcDbPolyline
 90
2
 70
0
 10
134.847056
 20
285.989896
 30
0.0
 10
130.982268
 20
292.882503
 30
0.0
  0
SPLINE
  5
1bd
100
AcDbEntity
  8
0
 62
5
100
AcDbSpline
 70
0
 71
3
 72
10
 73
6
 74
4
 40
0.000000
 40
0.000000
 40
0.000000
 40
0.000000
 40
1.759329
 40
3.045040
 40
3.332057
 40
3.332057
 40
3.332057
 40
3.332057
 10
134.385725
 20
280.529555
 30
0.0
 10
134.320448
 20
281.082227
 30
0.0
 10
134.207466
 20
282.038790
 30
0.0
 10
134.253412
 20
283.398241
 30
0.0
 10
133.763078
 20
283.626000
 30
0.0
 10
133.673593
 20
283.667566
 30
0.0
 11
134.385725
 21
280.529555
 31
0.0
 11
134.241625
 21
282.282973
 31
0.0
 11
133.924994
 21
283.529085
 31
0.0
 11
133.673593
 21
283.667566
 31
0.0
  0
SPLINE
  5
1be
100
AcDbEntity
  8
0
 62
5
100
AcDbSpline
 70
0
 71
3
 72
10
 73
6
 74
4
 40
0.000000
 40
0.000000
 40
0.000000
 40
0.000000
 40
0.639580
 40
2.107724
 40
3.851409
 40
3.851409
 40
3.851409
 40
3.851409
 10
112.860082
 20
310.040924
 30
0.0
 10
112.792833
 20
310.242893
 30
0.0
 10
112.571213
 20
310.908478
 30
0.0
 10
111.994168
 20
312.086358
 30
0.0
 10
111.166687
 20
312.784023
 30
0.0
 10
110.717451
 20
313.162782
 30
0.0
 11
112.860082
 21
310.040924
 31
0.0
 11
112.649662
 21
310.644899
 31
0.0
 11
111.963102
 21
311.942621
 31
0.0
 11
110.717451
 21
313.162782
 31
0.0
  0
SPLINE
  5
1bf
100
AcDbEntity
  8
0
 62
5
100
AcDbSpline
 70
0
 71
3
 72
10
 73
6
 74
4
 40
0.000000
 40
0.000000
 40
0.000000
 40
0.000000
 40
2.923533
 40
5.996617
 40
8.920151
 40
8.920151
 40
8.920151
 40
8.920151
 10
110.717451
 20
313.162782
 30
0.0
 10
109.789846
 20
313.487716
 30
0.0
 10
107.887184
 20
314.154205
 30
0.0
 10
104.784616
 20
313.723799
 30
0.0
 10
103.135231
 20
312.564548
 30
0.0
 10
102.331105
 20
311.999378
 30
0.0
 11
110.717451
 21
313.162782
 31
0.0
 11
107.891125
 21
313.910396
 31
0.0
 11
104.847192
 21
313.488123
 31
0.0
 11
102.331105
 21
311.999378
 31
0.0
  0
LWPOLYLINE
  5
1c0
100
AcDbEntity
  8
0
 62
5
100
AcDbPolyline
 90
4
 70
0
 10
121.044442
 20
310.606458
 30
0.0
 10
111.260374
 20
309.249154
 30
0.0
 10
111.182813
 20
309.808244
 30
0.0
 10
112.860082
 20
310.040924
 30
0.0
  0
LWPOLYLINE
  5
1c1
100
AcDbEntity
  8
0
 62
5
100
AcDbPolyline
 90
4
 70
0
 10
101.119198
 20
308.412160
 30
0.0
 10
102.796467
 20
308.644840
 30
0.0
 10
102.874027
 20
308.085751
 30
0.0
 10
93.089959
 20
306.728447
 30
0.0
  0
LWPOLYLINE
  5
1c2
100
AcDbEntity
  8
0
 62
1
100
AcDbPolyline
 90
2
 70
0
 10
109.303560
 20
308.977693
 30
0.0
 10
104.830840
 20
308.357211
 30
0.0
  0
LWPOLYLINE
  5
1c3
100
AcDbEntity
  8
0
 62
5
100
AcDbPolyline
 90
5
 70
0
 10
93.089984
 20
306.728264
 30
0.0
 10
88.040865
 20
305.036658
 30
0.0
 10
86.671870
 20
290.853854
 30
0.0
 10
88.812855
 20
288.889417
 30
0.0
 10
86.509784
 20
279.283884
 30
0.0
  0
LWPOLYLINE
  5
1c4
100
AcDbEntity
  8
0
 62
5
100
AcDbPolyline
 90
4
 70
0
 10
93.386902
 20
304.335307
 30
0.0
 10
91.751475
 20
303.566542
 30
0.0
 10
90.040621
 20
296.431003
 30
0.0
 10
91.149633
 20
295.004218
 30
0.0
  0
LWPOLYLINE
  5
1c5
100
AcDbEntity
  8
0
 62
1
100
AcDbPolyline
 90
2
 70
0
 10
93.089984
 20
306.728264
 30
0.0
 10
92.563569
 20
304.532714
 30
0.0
  0
LWPOLYLINE
  5
1c6
100
AcDbEntity
  8
0
 62
1
100
AcDbPolyline
 90
2
 70
0
 10
88.812855
 20
288.889417
 30
0.0
 10
90.326300
 20
295.201624
 30
0.0
  0
LWPOLYLINE
  5
1c7
100
AcDbEntity
  8
0
 62
5
100
AcDbPolyline
 90
8
 70
0
 10
63.287715
 20
288.636059
 30
0.0
 10
79.543224
 20
282.089519
 30
0.0
 10
80.662320
 20
283.528026
 30
0.0
 10
83.078060
 20
282.825028
 30
0.0
 10
83.678034
 20
280.964088
 30
0.0
 10
83.213592
 20
281.151132
 30
0.0
 10
83.026546
 20
280.686689
 30
0.0
 10
86.509871
 20
279.283859
 30
0.0
  0
LWPOLYLINE
  5
1c8
100
AcDbEntity
  8
0
 62
1
100
AcDbPolyline
 90
2
 70
0
 10
80.472111
 20
281.715431
 30
0.0
 10
82.097663
 20
281.060777
 30
0.0
  0
LWPOLYLINE
  5
1c9
100
AcDbEntity
  8
0
 62
5
100
AcDbPolyline
 90
7
 70
0
 10
88.225994
 20
286.441241
 30
0.0
 10
87.507747
 20
283.991309
 30
0.0
 10
85.035867
 20
284.460174
 30
0.0
 10
84.191975
 20
286.293647
 30
0.0
 10
84.690740
 20
286.249750
 30
0.0
 10
84.734634
 20
286.748516
 30
0.0
 10
63.287715
 20
288.636062
 30
0.0
  0
LWPOLYLINE
  5
1ca
100
AcDbEntity
  8
0
 62
1
100
AcDbPolyline
 90
2
 70
0
 10
87.228463
 20
286.529033
 30
0.0
 10
85.732166
 20
286.660723
 30
0.0
  0
SPLINE
  5
1cb
100
AcDbEntity
  8
0
 62
5
100
AcDbSpline
 70
0
 71
3
 72
10
 73
6
 74
4
 40
0.000000
 40
0.000000
 40
0.000000
 40
0.000000
 40
1.743684
 40
3.211828
 40
3.851408
 40
3.851408
 40
3.851408
 40
3.851408
 10
102.331105
 20
311.999378
 30
0.0
 10
102.001938
 20
311.512635
 30
0.0
 10
101.395619
 20
310.616065
 30
0.0
 10
101.160999
 20
309.325586
 30
0.0
 10
101.128929
 20
308.624808
 30
0.0
 10
101.119198
 20
308.412160
 30
0.0
 11
102.331105
 21
311.999378
 31
0.0
 11
101.464639
 21
310.486212
 31
0.0
 11
101.157262
 21
309.050606
 31
0.0
 11
101.119198
 21
308.412160
 31
0.0
  0
SPLINE
  5
1cc
100
AcDbEntity
  8
0
 62
5
100
AcDbSpline
 70
0
 71
3
 72
10
 73
6
 74
4
 40
0.000000
 40
0.000000
 40
0.000000
 40
0.000000
 40
0.280474
 40
1.083629
 40
2.425807
 40
2.425807
 40
2.425807
 40
2.425807
 10
80.574659
 20
301.241055
 30
0.0
 10
80.628994
 20
301.317285
 30
0.0
 10
80.838922
 20
301.611802
 30
0.0
 10
81.123787
 20
302.385071
 30
0.0
 10
81.185111
 20
303.099345
 30
0.0
 10
81.223477
 20
303.546214
 30
0.0
 11
80.574659
 21
301.241055
 31
0.0
 11
80.732126
 21
301.473154
 31
0.0
 11
81.033774
 21
302.217510
 31
0.0
 11
81.223477
 21
303.546214
 31
0.0
  0
SPLINE
  5
1cd
100
AcDbEntity
  8
0
 62
5
100
AcDbSpline
 70
0
 71
3
 72
10
 73
6
 74
4
 40
0.000000
 40
0.000000
 40
0.000000
 40
0.000000
 40
1.935349
 40
3.528889
 40
5.433510
 40
5.433510
 40
5.433510
 40
5.433510
 10
81.223477
 20
303.546214
 30
0.0
 10
81.045707
 20
304.166933
 30
0.0
 10
80.721566
 20
305.298742
 30
0.0
 10
80.036034
 20
306.977095
 30
0.0
 10
79.585004
 20
308.052120
 30
0.0
 10
79.339434
 20
308.637432
 30
0.0
 11
81.223477
 21
303.546214
 31
0.0
 11
80.653749
 21
305.395805
 31
0.0
 11
80.073274
 21
306.879860
 31
0.0
 11
79.339434
 21
308.637432
 31
0.0
  0
LWPOLYLINE
  5
1ce
100
AcDbEntity
  8
0
 62
5
100
AcDbPolyline
 90
4
 70
0
 10
88.226000
 20
286.441271
 30
0.0
 10
79.254158
 20
302.441988
 30
0.0
 10
79.746489
 20
302.718045
 30
0.0
 10
80.574659
 20
301.241055
 30
0.0
  0
LWPOLYLINE
  5
1cf
100
AcDbEntity
  8
0
 62
5
100
AcDbPolyline
 90
4
 70
0
 10
76.157751
 20
309.118332
 30
0.0
 10
76.985921
 20
307.641342
 30
0.0
 10
76.493593
 20
307.365285
 30
0.0
 10
74.423168
 20
311.057759
 30
0.0
  0
LWPOLYLINE
  5
1d0
100
AcDbEntity
  8
0
 62
1
100
AcDbPolyline
 90
2
 70
0
 10
78.287959
 20
304.165142
 30
0.0
 10
77.459789
 20
305.642131
 30
0.0
  0
LWPOLYLINE
  5
1d1
100
AcDbEntity
  8
0
 62
5
100
AcDbPolyline
 90
4
 70
0
 10
74.423386
 20
311.057883
 30
0.0
 10
68.095673
 20
315.593629
 30
0.0
 10
51.322997
 20
313.266824
 30
0.0
 10
46.468927
 20
307.179876
 30
0.0
  0
LWPOLYLINE
  5
1d2
100
AcDbEntity
  8
0
 62
5
100
AcDbPolyline
 90
4
 70
0
 10
66.712476
 20
309.133407
 30
0.0
 10
65.400400
 20
310.376010
 30
0.0
 10
55.336793
 20
308.979927
 30
0.0
 10
54.412515
 20
307.427084
 30
0.0
  0
LWPOLYLINE
  5
1d3
100
AcDbEntity
  8
0
 62
1
100
AcDbPolyline
 90
2
 70
0
 10
74.423386
 20
311.057883
 30
0.0
 10
66.596136
 20
309.972041
 30
0.0
  0
LWPOLYLINE
  5
1d4
100
AcDbEntity
  8
0
 62
1
100
AcDbPolyline
 90
2
 70
0
 10
46.468927
 20
307.179876
 30
0.0
 10
54.296175
 20
308.265718
 30
0.0
  0
SPLINE
  5
1d5
100
AcDbEntity
  8
0
 62
5
100
AcDbSpline
 70
0
 71
3
 72
10
 73
6
 74
4
 40
0.000000
 40
0.000000
 40
0.000000
 40
0.000000
 40
1.759340
 40
3.045058
 40
3.332078
 40
3.332078
 40
3.332078
 40
3.332078
 10
79.339434
 20
308.637432
 30
0.0
 10
78.800997
 20
308.778135
 30
0.0
 10
77.869073
 20
309.021664
 30
0.0
 10
76.619926
 20
309.560062
 30
0.0
 10
76.229080
 20
309.186505
 30
0.0
 10
76.157751
 20
309.118332
 30
0.0
 11
79.339434
 21
308.637432
 31
0.0
 11
77.654148
 21
309.142493
 31
0.0
 11
76.378355
 21
309.301946
 31
0.0
 11
76.157751
 21
309.118332
 31
0.0
  0
SPLINE
  5
1d6
100
AcDbEntity
  8
0
 62
5
100
AcDbSpline
 70
0
 71
3
 72
10
 73
6
 74
4
 40
0.000000
 40
0.000000
 40
0.000000
 40
0.000000
 40
0.639582
 40
2.107729
 40
3.851419
 40
3.851419
 40
3.851419
 40
3.851419
 10
41.248113
 20
287.825750
 30
0.0
 10
41.053647
 20
287.912336
 30
0.0
 10
40.412789
 20
288.197681
 30
0.0
 10
39.296656
 20
288.886622
 30
0.0
 10
38.682833
 20
289.778075
 30
0.0
 10
38.349592
 20
290.262041
 30
0.0
 11
41.248113
 21
287.825750
 31
0.0
 11
40.667482
 21
288.093952
 31
0.0
 11
39.442735
 21
288.903552
 31
0.0
 11
38.349592
 21
290.262041
 31
0.0
  0
SPLINE
  5
1d7
100
AcDbEntity
  8
0
 62
5
100
AcDbSpline
 70
0
 71
3
 72
10
 73
6
 74
4
 40
0.000000
 40
0.000000
 40
0.000000
 40
0.000000
 40
2.923540
 40
5.996630
 40
8.920171
 40
8.920171
 40
8.920171
 40
8.920171
 10
38.349592
 20
290.262041
 30
0.0
 10
38.116477
 20
291.216869
 30
0.0
 10
37.638322
 20
293.175367
 30
0.0
 10
38.368637
 20
296.221326
 30
0.0
 10
39.682909
 20
297.750063
 30
0.0
 10
40.323657
 20
298.495369
 30
0.0
 11
38.349592
 21
290.262041
 31
0.0
 11
37.880591
 21
293.147717
 31
0.0
 11
38.597104
 21
296.136110
 31
0.0
 11
40.323657
 21
298.495369
 31
0.0
  0
LWPOLYLINE
  5
1d8
100
AcDbEntity
  8
0
 62
5
100
AcDbPolyline
 90
4
 70
0
 10
39.888739
 20
279.735261
 30
0.0
 10
42.191813
 20
289.340811
 30
0.0
 10
41.642925
 20
289.472415
 30
0.0
 10
41.248113
 20
287.825750
 30
0.0
  0
LWPOLYLINE
  5
1d9
100
AcDbEntity
  8
0
 62
5
100
AcDbPolyline
 90
4
 70
0
 10
44.011802
 20
299.352409
 30
0.0
 10
43.616987
 20
297.705744
 30
0.0
 10
44.165876
 20
297.574139
 30
0.0
 10
46.468950
 20
307.179689
 30
0.0
  0
LWPOLYLINE
  5
1da
100
AcDbEntity
  8
0
 62
1
100
AcDbPolyline
 90
2
 70
0
 10
42.652428
 20
291.261921
 30
0.0
 10
43.705261
 20
295.653029
 30
0.0
  0
LWPOLYLINE
  5
1db
100
AcDbEntity
  8
0
 62
5
100
AcDbPolyline
 90
5
 70
0
 10
39.888840
 20
279.735236
 30
0.0
 10
39.623269
 20
274.416931
 30
0.0
 10
52.330807
 20
267.971565
 30
0.0
 10
54.940570
 20
269.249019
 30
0.0
 10
63.045346
 20
263.602596
 30
0.0
  0
LWPOLYLINE
  5
1dc
100
AcDbEntity
  8
0
 62
5
100
AcDbPolyline
 90
4
 70
0
 10
42.225341
 20
279.139319
 30
0.0
 10
42.344969
 20
277.336189
 30
0.0
 10
48.365661
 20
273.141702
 30
0.0
 10
50.098554
 20
273.654222
 30
0.0
  0
LWPOLYLINE
  5
1dd
100
AcDbEntity
  8
0
 62
1
100
AcDbPolyline
 90
2
 70
0
 10
39.888840
 20
279.735236
 30
0.0
 10
41.741361
 20
278.444624
 30
0.0
  0
LWPOLYLINE
  5
1de
100
AcDbEntity
  8
0
 62
1
100
AcDbPolyline
 90
2
 70
0
 10
54.940570
 20
269.249019
 30
0.0
 10
49.614574
 20
272.959527
 30
0.0
  0
LWPOLYLINE
  5
1df
100
AcDbEntity
  8
0
 62
5
100
AcDbPolyline
 90
8
 70
0
 10
45.870803
 20
245.388258
 30
0.0
 10
57.893006
 20
258.138330
 30
0.0
 10
56.961492
 20
259.704839
 30
0.0
 10
58.496807
 20
261.698024
 30
0.0
 10
60.448399
 20
261.578269
 30
0.0
 10
60.104906
 20
261.213980
 30
0.0
 10
60.469196
 20
260.870490
 30
0.0
 10
63.045382
 20
263.602646
 30
0.0
  0
LWPOLYLINE
  5
1e0
100
AcDbEntity
  8
0
 62
1
100
AcDbPolyline
 90
2
 70
0
 10
58.579992
 20
258.866907
 30
0.0
 10
59.782210
 20
260.141913
 30
0.0
  0
LWPOLYLINE
  5
1e1
100
AcDbEntity
  8
0
 62
5
100
AcDbPolyline
 90
7
 70
0
 10
57.006129
 20
267.810041
 30
0.0
 10
59.025581
 20
266.248059
 30
0.0
 10
57.687814
 20
264.117253
 30
0.0
 10
55.672880
 20
263.999874
 30
0.0
 10
55.895590
 20
264.448305
 30
0.0
 10
55.447159
 20
264.671015
 30
0.0
 10
45.870625
 20
245.388425
 30
0.0
  0
LWPOLYLINE
  5
1e2
100
AcDbEntity
  8
0
 62
1
100
AcDbPolyline
 90
2
 70
0
 10
56.560709
 20
266.913178
 30
0.0
 10
55.892579
 20
265.567881
 30
0.0
  0
SPLINE
  5
1e3
100
AcDbEntity
  8
0
 62
5
100
AcDbSpline
 70
0
 71
3
 72
10
 73
6
 74
4
 40
0.000000
 40
0.000000
 40
0.000000
 40
0.000000
 40
1.743689
 40
3.211836
 40
3.851418
 40
3.851418
 40
3.851418
 40
3.851418
 10
40.323657
 20
298.495369
 30
0.0
 10
40.840127
 20
298.775604
 30
0.0
 10
41.791452
 20
299.291790
 30
0.0
 10
43.098642
 20
299.399704
 30
0.0
 10
43.799216
 20
299.363420
 30
0.0
 10
44.011802
 20
299.352409
 30
0.0
 11
40.323657
 21
298.495369
 31
0.0
 11
41.913971
 21
299.210459
 31
0.0
 11
43.372680
 21
299.376661
 31
0.0
 11
44.011802
 21
299.352409
 31
0.0
  0
SPLINE
  5
1e4
100
AcDbEntity
  8
0
 62
5
100
AcDbSpline
 70
0
 71
3
 72
10
 73
6
 74
4
 40
0.000000
 40
0.000000
 40
0.000000
 40
0.000000
 40
0.280474
 40
1.083630
 40
2.425810
 40
2.425810
 40
2.425810
 40
2.425810
 10
40.435570
 20
266.081037
 30
0.0
 10
40.384397
 20
266.159425
 30
0.0
 10
40.186688
 20
266.462280
 30
0.0
 10
39.570500
 20
267.009462
 30
0.0
 10
38.927746
 20
267.326978
 30
0.0
 10
38.525622
 20
267.525626
 30
0.0
 11
40.435570
 21
266.081037
 31
0.0
 11
40.276856
 21
266.312286
 31
0.0
 11
39.693711
 21
266.864554
 31
0.0
 11
38.525622
 21
267.525626
 31
0.0
  0
SPLINE
  5
1e5
100
AcDbEntity
  8
0
 62
5
100
AcDbSpline
 70
0
 71
3
 72
10
 73
6
 74
4
 40
0.000000
 40
0.000000
 40
0.000000
 40
0.000000
 40
1.935353
 40
3.528895
 40
5.433518
 40
5.433518
 40
5.433518
 40
5.433518
 10
38.525622
 20
267.525626
 30
0.0
 10
37.882814
 20
267.586396
 30
0.0
 10
36.710728
 20
267.697204
 30
0.0
 10
34.897959
 20
267.670758
 30
0.0
 10
33.732487
 20
267.642709
 30
0.0
 10
33.097930
 20
267.627437
 30
0.0
 11
38.525622
 21
267.525626
 31
0.0
 11
36.595620
 21
267.669442
 31
0.0
 11
35.002078
 21
267.669985
 31
0.0
 11
33.097930
 21
267.627437
 31
0.0
  0
LWPOLYLINE
  5
1e6
100
AcDbEntity
  8
0
 62
5
100
AcDbPolyline
 90
4
 70
0
 10
57.006270
 20
267.809973
 30
0.0
 10
38.835861
 20
265.289266
 30
0.0
 10
38.758303
 20
265.848356
 30
0.0
 10
40.435570
 20
266.081037
 30
0.0
  0
LWPOLYLINE
  5
1e7
100
AcDbEntity
  8
0
 62
5
100
AcDbPolyline
 90
4
 70
0
 10
31.490138
 20
264.840075
 30
0.0
 10
33.167407
 20
265.072756
 30
0.0
 10
33.244968
 20
264.513665
 30
0.0
 10
29.051798
 20
263.931963
 30
0.0
  0
LWPOLYLINE
  5
1e8
100
AcDbEntity
  8
0
 62
1
100
AcDbPolyline
 90
2
 70
0
 10
36.879047
 20
265.017807
 30
0.0
 10
35.201781
 20
264.785126
 30
0.0
  0
LWPOLYLINE
  5
1e9
100
AcDbEntity
  8
0
 62
5
100
AcDbPolyline
 90
4
 70
0
 10
22.471643
 20
236.487616
 30
0.0
 10
18.573271
 20
243.226696
 30
0.0
 10
22.521371
 20
259.693239
 30
0.0
 10
29.051809
 20
263.931853
 30
0.0
  0
LWPOLYLINE
  5
1ea
100
AcDbEntity
  8
0
 62
5
100
AcDbPolyline
 90
4
 70
0
 10
25.137417
 20
243.974599
 30
0.0
 10
24.028412
 20
245.401376
 30
0.0
 10
26.397272
 20
255.281302
 30
0.0
 10
28.032691
 20
256.050064
 30
0.0
  0
LWPOLYLINE
  5
1eb
100
AcDbEntity
  8
0
 62
1
100
AcDbPolyline
 90
2
 70
0
 10
22.471643
 20
236.487616
 30
0.0
 10
24.314090
 20
244.172002
 30
0.0
  0
LWPOLYLINE
  5
1ec
100
AcDbEntity
  8
0
 62
1
100
AcDbPolyline
 90
2
 70
0
 10
29.051809
 20
263.931853
 30
0.0
 10
27.209363
 20
256.247467
 30
0.0
  0
LWPOLYLINE
  5
1ed
100
AcDbEntity
  8
0
 62
1
100
AcDbPolyline
 90
2
 70
0
 10
22.471699
 20
236.487650
 30
0.0
 10
45.870743
 20
245.388374
 30
0.0
  0
LWPOLYLINE
  5
1ee
100
AcDbEntity
  8
0
 62
1
100
AcDbPolyline
 90
2
 70
0
 10
29.051710
 20
263.931785
 30
0.0
 10
45.870743
 20
245.388374
 30
0.0
  0
LWPOLYLINE
  5
1ef
100
AcDbEntity
  8
0
 62
1
100
AcDbPolyline
 90
2
 70
0
 10
39.888761
 20
279.735100
 30
0.0
 10
63.287806
 20
288.636107
 30
0.0
  0
LWPOLYLINE
  5
1f0
100
AcDbEntity
  8
0
 62
1
100
AcDbPolyline
 90
3
 70
0
 10
45.628314
 20
220.354698
 30
0.0
 10
45.870743
 20
245.388374
 30
0.0
 10
69.092834
 20
236.036094
 30
0.0
  0
LWPOLYLINE
  5
1f1
100
AcDbEntity
  8
0
 62
1
100
AcDbPolyline
 90
2
 70
0
 10
46.469054
 20
307.179800
 30
0.0
 10
63.287806
 20
288.636107
 30
0.0
  0
LWPOLYLINE
  5
1f2
100
AcDbEntity
  8
0
 62
1
100
AcDbPolyline
 90
2
 70
0
 10
56.393117
 20
204.501994
 30
0.0
 10
79.792161
 20
213.403001
 30
0.0
  0
LWPOLYLINE
  5
1f3
100
AcDbEntity
  8
0
 62
1
100
AcDbPolyline
 90
2
 70
0
 10
63.045377
 20
263.602714
 30
0.0
 10
63.287806
 20
288.636107
 30
0.0
  0
LWPOLYLINE
  5
1f4
100
AcDbEntity
  8
0
 62
1
100
AcDbPolyline
 90
2
 70
0
 10
63.045377
 20
263.602714
 30
0.0
 10
69.092834
 20
236.036094
 30
0.0
  0
LWPOLYLINE
  5
1f5
100
AcDbEntity
  8
0
 62
1
100
AcDbPolyline
 90
2
 70
0
 10
63.045377
 20
263.602714
 30
0.0
 10
86.267468
 20
254.250434
 30
0.0
  0
LWPOLYLINE
  5
1f6
100
AcDbEntity
  8
0
 62
1
100
AcDbPolyline
 90
2
 70
0
 10
63.045377
 20
263.602714
 30
0.0
 10
86.509897
 20
279.283827
 30
0.0
  0
LWPOLYLINE
  5
1f7
100
AcDbEntity
  8
0
 62
1
100
AcDbPolyline
 90
2
 70
0
 10
63.287806
 20
288.636107
 30
0.0
 10
74.423448
 20
311.057816
 30
0.0
  0
LWPOLYLINE
  5
1f8
100
AcDbEntity
  8
0
 62
1
100
AcDbPolyline
 90
2
 70
0
 10
69.092834
 20
236.036094
 30
0.0
 10
86.267468
 20
254.250434
 30
0.0
  0
LWPOLYLINE
  5
1f9
100
AcDbEntity
  8
0
 62
1
100
AcDbPolyline
 90
2
 70
0
 10
69.092834
 20
236.036094
 30
0.0
 10
96.966794
 20
231.617341
 30
0.0
  0
LWPOLYLINE
  5
1fa
100
AcDbEntity
  8
0
 62
1
100
AcDbPolyline
 90
3
 70
0
 10
79.549732
 20
188.369607
 30
0.0
 10
79.792161
 20
213.403001
 30
0.0
 10
96.966794
 20
231.617341
 30
0.0
  0
LWPOLYLINE
  5
1fb
100
AcDbEntity
  8
0
 62
1
100
AcDbPolyline
 90
2
 70
0
 10
79.792161
 20
213.403001
 30
0.0
 10
103.014252
 20
204.050721
 30
0.0
  0
LWPOLYLINE
  5
1fc
100
AcDbEntity
  8
0
 62
1
100
AcDbPolyline
 90
2
 70
0
 10
86.267468
 20
254.250434
 30
0.0
 10
86.509897
 20
279.283827
 30
0.0
  0
LWPOLYLINE
  5
1fd
100
AcDbEntity
  8
0
 62
1
100
AcDbPolyline
 90
2
 70
0
 10
86.267468
 20
254.250434
 30
0.0
 10
109.666512
 20
263.151158
 30
0.0
  0
LWPOLYLINE
  5
1fe
100
AcDbEntity
  8
0
 62
1
100
AcDbPolyline
 90
2
 70
0
 10
86.509897
 20
279.283827
 30
0.0
 10
109.666512
 20
263.151158
 30
0.0
  0
LWPOLYLINE
  5
1ff
100
AcDbEntity
  8
0
 62
1
100
AcDbPolyline
 90
2
 70
0
 10
86.509897
 20
279.283827
 30
0.0
 10
109.908659
 20
288.184552
 30
0.0
  0
LWPOLYLINE
  5
200
100
AcDbEntity
  8
0
 62
1
100
AcDbPolyline
 90
2
 70
0
 10
93.089908
 20
306.728245
 30
0.0
 10
109.908659
 20
288.184552
 30
0.0
  0
LWPOLYLINE
  5
201
100
AcDbEntity
  8
0
 62
1
100
AcDbPolyline
 90
3
 70
0
 10
103.086219
 20
235.707023
 30
0.0
 10
109.666512
 20
263.151158
 30
0.0
 10
126.485263
 20
244.607747
 30
0.0
  0
LWPOLYLINE
  5
202
100
AcDbEntity
  8
0
 62
1
100
AcDbPolyline
 90
2
 70
0
 10
109.908659
 20
288.184552
 30
0.0
 10
121.044301
 20
310.606543
 30
0.0
  0
LWPOLYLINE
  5
203
100
AcDbEntity
  8
0
 62
1
100
AcDbPolyline
 90
2
 70
0
 10
109.908659
 20
288.184552
 30
0.0
 10
134.846943
 20
285.989992
 30
0.0
  0
LWPOLYLINE
  5
204
100
AcDbEntity
  8
0
 62
1
100
AcDbPolyline
 90
2
 70
0
 10
126.485263
 20
244.607747
 30
0.0
 10
133.533481
 20
220.585556
 30
0.0
  0
LWPOLYLINE
  5
205
100
AcDbEntity
  8
0
 62
1
100
AcDbPolyline
 90
2
 70
0
 10
126.485263
 20
244.607747
 30
0.0
 10
137.620906
 20
267.029456
 30
0.0
  0
LWPOLYLINE
  5
206
100
AcDbEntity
  8
0
 62
1
100
AcDbPolyline
 90
2
 70
0
 10
126.485263
 20
244.607747
 30
0.0
 10
151.423548
 20
242.412905
 30
0.0
  0
LWPOLYLINE
  5
207
100
AcDbEntity
  8
0
 62
1
100
AcDbPolyline
 90
2
 70
0
 10
137.620906
 20
267.029456
 30
0.0
 10
151.423548
 20
242.412905
 30
0.0
  0
LWPOLYLINE
  5
208
100
AcDbEntity
  8
0
 62
1
100
AcDbPolyline
 90
2
 70
0
 10
137.620906
 20
267.029456
 30
0.0
 10
162.559190
 20
264.834614
 30
0.0
  0
LWPOLYLINE
  5
209
100
AcDbEntity
  8
0
 62
1
100
AcDbPolyline
 90
2
 70
0
 10
151.423548
 20
242.412905
 30
0.0
 10
162.559190
 20
264.834614
 30
0.0
  0
LWPOLYLINE
  5
20a
100
AcDbEntity
  8
0
 62
1
100
AcDbPolyline
 90
3
 70
0
 10
155.511254
 20
288.856523
 30
0.0
 10
162.559190
 20
264.834614
 30
0.0
 10
179.377941
 20
246.291203
 30
0.0
  0
LWPOLYLINE
  5
20b
100
AcDbEntity
  8
0
 62
1
100
AcDbPolyline
 90
2
 70
0
 10
165.527039
 20
210.696772
 30
0.0
 10
190.025621
 20
215.849021
 30
0.0
  0
LWPOLYLINE
  5
20c
100
AcDbEntity
  8
0
 62
1
100
AcDbPolyline
 90
2
 70
0
 10
172.155592
 20
298.351889
 30
0.0
 10
197.093877
 20
296.157047
 30
0.0
  0
LWPOLYLINE
  5
20d
100
AcDbEntity
  8
0
 62
1
100
AcDbPolyline
 90
2
 70
0
 10
179.377941
 20
246.291203
 30
0.0
 10
185.957952
 20
273.735338
 30
0.0
  0
LWPOLYLINE
  5
20e
100
AcDbEntity
  8
0
 62
1
100
AcDbPolyline
 90
2
 70
0
 10
182.977686
 20
239.871212
 30
0.0
 10
209.824921
 20
231.170018
 30
0.0
  0
LWPOLYLINE
  5
20f
100
AcDbEntity
  8
0
 62
1
100
AcDbPolyline
 90
2
 70
0
 10
185.891912
 20
191.157963
 30
0.0
 10
190.025621
 20
215.849021
 30
0.0
  0
LWPOLYLINE
  5
210
100
AcDbEntity
  8
0
 62
1
100
AcDbPolyline
 90
2
 70
0
 10
185.957952
 20
273.735338
 30
0.0
 10
197.093877
 20
296.157047
 30
0.0
  0
LWPOLYLINE
  5
211
100
AcDbEntity
  8
0
 62
1
100
AcDbPolyline
 90
2
 70
0
 10
185.957952
 20
273.735338
 30
0.0
 10
202.776986
 20
255.191927
 30
0.0
  0
LWPOLYLINE
  5
212
100
AcDbEntity
  8
0
 62
1
100
AcDbPolyline
 90
2
 70
0
 10
185.957952
 20
273.735338
 30
0.0
 10
213.912628
 20
277.613636
 30
0.0
  0
LWPOLYLINE
  5
213
100
AcDbEntity
  8
0
 62
1
100
AcDbPolyline
 90
2
 70
0
 10
190.025621
 20
215.849021
 30
0.0
 10
209.824921
 20
231.170018
 30
0.0
  0
LWPOLYLINE
  5
214
100
AcDbEntity
  8
0
 62
1
100
AcDbPolyline
 90
2
 70
0
 10
190.025621
 20
215.849021
 30
0.0
 10
211.510070
 20
202.998314
 30
0.0
  0
LWPOLYLINE
  5
215
100
AcDbEntity
  8
0
 62
1
100
AcDbPolyline
 90
3
 70
0
 10
190.045659
 20
320.179238
 30
0.0
 10
197.093877
 20
296.157047
 30
0.0
 10
216.892894
 20
311.478045
 30
0.0
  0
LWPOLYLINE
  5
216
100
AcDbEntity
  8
0
 62
1
100
AcDbPolyline
 90
2
 70
0
 10
202.776986
 20
255.191927
 30
0.0
 10
209.824921
 20
231.170018
 30
0.0
  0
LWPOLYLINE
  5
217
100
AcDbEntity
  8
0
 62
1
100
AcDbPolyline
 90
2
 70
0
 10
202.776986
 20
255.191927
 30
0.0
 10
213.912628
 20
277.613636
 30
0.0
  0
LWPOLYLINE
  5
218
100
AcDbEntity
  8
0
 62
1
100
AcDbPolyline
 90
2
 70
0
 10
202.776986
 20
255.191927
 30
0.0
 10
227.715270
 20
252.997085
 30
0.0
  0
LWPOLYLINE
  5
219
100
AcDbEntity
  8
0
 62
1
100
AcDbPolyline
 90
2
 70
0
 10
209.824921
 20
231.170018
 30
0.0
 10
227.715270
 20
252.997085
 30
0.0
  0
LWPOLYLINE
  5
21a
100
AcDbEntity
  8
0
 62
1
100
AcDbPolyline
 90
2
 70
0
 10
213.912628
 20
277.613636
 30
0.0
 10
227.715270
 20
252.997085
 30
0.0
  0
LWPOLYLINE
  5
21b
100
AcDbEntity
  8
0
 62
1
100
AcDbPolyline
 90
2
 70
0
 10
213.912628
 20
277.613636
 30
0.0
 10
238.850912
 20
275.418794
 30
0.0
  0
LWPOLYLINE
  5
21c
100
AcDbEntity
  8
0
 62
1
100
AcDbPolyline
 90
2
 70
0
 10
227.715270
 20
252.997085
 30
0.0
 10
234.763206
 20
228.974894
 30
0.0
  0
LWPOLYLINE
  5
21d
100
AcDbEntity
  8
0
 62
1
100
AcDbPolyline
 90
2
 70
0
 10
230.629497
 20
204.284118
 30
0.0
 10
234.763206
 20
228.974894
 30
0.0
  0
LWPOLYLINE
  5
21e
100
AcDbEntity
  8
0
 62
1
100
AcDbPolyline
 90
2
 70
0
 10
231.802694
 20
299.440985
 30
0.0
 10
238.850912
 20
275.418794
 30
0.0
  0
LWPOLYLINE
  5
21f
100
AcDbEntity
  8
0
 62
1
100
AcDbPolyline
 90
2
 70
0
 10
234.763206
 20
228.974894
 30
0.0
 10
254.562223
 20
244.295892
 30
0.0
  0
LWPOLYLINE
  5
220
100
AcDbEntity
  8
0
 62
1
100
AcDbPolyline
 90
2
 70
0
 10
234.763206
 20
228.974894
 30
0.0
 10
256.247654
 20
216.124187
 30
0.0
  0
LWPOLYLINE
  5
221
100
AcDbEntity
  8
0
 62
1
100
AcDbPolyline
 90
2
 70
0
 10
238.850912
 20
275.418794
 30
0.0
 10
258.649930
 20
290.739509
 30
0.0
  0
SPLINE
  5
222
100
AcDbEntity
  8
0
 62
5
100
AcDbSpline
 70
0
 71
3
 72
10
 73
6
 74
4
 40
0.000000
 40
0.000000
 40
0.000000
 40
0.000000
 40
1.759341
 40
3.045060
 40
3.332079
 40
3.332079
 40
3.332079
 40
3.332079
 10
33.097930
 20
267.627437
 30
0.0
 10
32.770606
 20
267.177358
 30
0.0
 10
32.204074
 20
266.398364
 30
0.0
 10
31.247314
 20
265.431486
 30
0.0
 10
31.452663
 20
264.931348
 30
0.0
 10
31.490138
 20
264.840075
 30
0.0
 11
33.097930
 21
267.627437
 31
0.0
 11
32.013204
 21
266.242284
 31
0.0
 11
31.399592
 21
265.112437
 31
0.0
 11
31.490138
 21
264.840075
 31
0.0
  0
LWPOLYLINE
  5
223
100
AcDbEntity
  8
0
 62
1
100
AcDbPolyline
 90
2
 70
0
 10
238.850912
 20
275.418794
 30
0.0
 10
260.335361
 20
262.567805
 30
0.0
  0
ENDSEC
  0
SECTION
  2
OBJECTS
  0
DICTIONARY
  5
C
330
0
100
AcDbDictionary
  3
ACAD_GROUP
350
D
  3
ACAD_MLINESTYLE
350
17
  0
DICTIONARY
  5
D
330
C
100
AcDbDictionary
  0
DICTIONARY
  5
1A
330
C
100
AcDbDictionary
  0
DICTIONARY
  5
17
330
C
100
AcDbDictionary
  3
STANDARD
350
18
  0
DICTIONARY
  5
19
330
C
100
AcDbDictionary
  0
ENDSEC
  0
EOF
