999
DXF created by Inkscape
  0
SECTION
  2
HEADER
  9
$ACADVER
  1
AC1014
  9
$HANDSEED
  5
FFFF
  9
$MEASUREMENT
 70
     1
  0
ENDSEC
  0
SECTION
  2
TABLES
  0
TABLE
  2
VPORT
  5
8
330
0
100
AcDbSymbolTable
 70
     4
  0
VPORT
  5
2E
330
8
100
AcDbSymbolTableRecord
100
AcDbViewportTableRecord
  2
*ACTIVE
 70
     0
 10
0.0
 20
0.0
 11
1.0
 21
1.0
 12
210.0
 22
148.5
 13
0.0
 23
0.0
 14
10.0
 24
10.0
 15
10.0
 25
10.0
 16
0.0
 26
0.0
 36
1.0
 17
0.0
 27
0.0
 37
0.0
 40
341.0
 41
1.24
 42
50.0
 43
0.0
 44
0.0
 50
0.0
 51
0.0
 71
     0
 72
   100
 73
     1
 74
     3
 75
     0
 76
     0
 77
     0
 78
     0
  0
ENDTAB
  0
TABLE
  2
LTYPE
  5
5
330
0
100
AcDbSymbolTable
 70
     1
  0
LTYPE
  5
14
330
5
100
AcDbSymbolTableRecord
100
AcDbLinetypeTableRecord
  2
BYBLOCK
 70
     0
  3

 72
    65
 73
     0
 40
0.0
  0
LTYPE
  5
15
330
5
100
AcDbSymbolTableRecord
100
AcDbLinetypeTableRecord
  2
BYLAYER
 70
     0
  3

 72
    65
 73
     0
 40
0.0
  0
LTYPE
  5
16
330
5
100
AcDbSymbolTableRecord
100
AcDbLinetypeTableRecord
  2
CONTINUOUS
 70
     0
  3
Solid line
 72
    65
 73
     0
 40
0.0
  0
ENDTAB
  0
TABLE
  2
LAYER
  5
2
330
0
100
AcDbSymbolTable
 70
1
  0
LAYER
  5
10
330
2
100
AcDbSymbolTableRecord
100
AcDbLayerTableRecord
  2
0
 70
     0
 62
     7
  6
CONTINUOUS
  0
ENDTAB
  0
TABLE
  2
STYLE
  5
3
330
0
100
AcDbSymbolTable
 70
     1
  0
STYLE
  5
11
330
3
100
AcDbSymbolTableRecord
100
AcDbTextStyleTableRecord
  2
STANDARD
 70
     0
 40
0.0
 41
1.0
 50
0.0
 71
     0
 42
2.5
  3
txt
  4

  0
ENDTAB
  0
TABLE
  2
VIEW
  5
6
330
0
100
AcDbSymbolTable
 70
     0
  0
ENDTAB
  0
TABLE
  2
UCS
  5
7
330
0
100
AcDbSymbolTable
 70
     0
  0
ENDTAB
  0
TABLE
  2
APPID
  5
9
330
0
100
AcDbSymbolTable
 70
     2
  0
APPID
  5
12
330
9
100
AcDbSymbolTableRecord
100
AcDbRegAppTableRecord
  2
ACAD
 70
     0
  0
ENDTAB
  0
TABLE
  2
DIMSTYLE
  5
A
330
0
100
AcDbSymbolTable
 70
     1
  0
DIMSTYLE
105
27
330
A
100
AcDbSymbolTableRecord
100
AcDbDimStyleTableRecord
  2
ISO-25
 70
     0
  3

  4

  5

  6

  7

 40
1.0
 41
2.5
 42
0.625
 43
3.75
 44
1.25
 45
0.0
 46
0.0
 47
0.0
 48
0.0
140
2.5
141
2.5
142
0.0
143
0.03937007874016
144
1.0
145
0.0
146
1.0
147
0.625
 71
     0
 72
     0
 73
     0
 74
     0
 75
     0
 76
     0
 77
     1
 78
     8
170
     0
171
     3
172
     1
173
     0
174
     0
175
     0
176
     0
177
     0
178
     0
270
     2
271
     2
272
     2
273
     2
274
     3
340
11
275
     0
280
     0
281
     0
282
     0
283
     0
284
     8
285
     0
286
     0
287
     3
288
     0
  0
ENDTAB
  0
TABLE
  2
BLOCK_RECORD
  5
1
330
0
100
AcDbSymbolTable
 70
     1
  0
BLOCK_RECORD
  5
1F
330
1
100
AcDbSymbolTableRecord
100
AcDbBlockTableRecord
  2
*MODEL_SPACE
  0
BLOCK_RECORD
  5
1B
330
1
100
AcDbSymbolTableRecord
100
AcDbBlockTableRecord
  2
*PAPER_SPACE
  0
ENDTAB
  0
ENDSEC
  0
SECTION
  2
BLOCKS
  0
BLOCK
  5
20
330
1F
100
AcDbEntity
  8
0
100
AcDbBlockBegin
  2
*MODEL_SPACE
 70
     0
 10
0.0
 20
0.0
 30
0.0
  3
*MODEL_SPACE
  1

  0
ENDBLK
  5
21
330
1F
100
AcDbEntity
  8
0
100
AcDbBlockEnd
  0
BLOCK
  5
1C
330
1B
100
AcDbEntity
 67
     1
  8
0
100
AcDbBlockBegin
  2
*PAPER_SPACE
  1

  0
ENDBLK
  5
1D
330
1B
100
AcDbEntity
 67
     1
  8
0
100
AcDbBlockEnd
  0
ENDSEC
  0
SECTION
  2
ENTITIES
  0
SPLINE
  5
100
100
AcDbEntity
  8
0
 62
5
100
AcDbSpline
 70
0
 71
3
 72
10
 73
6
 74
4
 40
0.000000
 40
0.000000
 40
0.000000
 40
0.000000
 40
0.639580
 40
2.107725
 40
3.851413
 40
3.851413
 40
3.851413
 40
3.851413
 10
48.268958
 20
241.665482
 30
0.0
 10
48.056988
 20
241.645911
 30
0.0
 10
47.358448
 20
241.581417
 30
0.0
 10
46.047972
 20
241.636551
 30
0.0
 10
45.076614
 20
242.113969
 30
0.0
 10
44.549269
 20
242.373157
 30
0.0
 11
48.268958
 21
241.665482
 31
0.0
 11
47.631335
 21
241.615487
 31
0.0
 11
46.167114
 21
241.722753
 31
0.0
 11
44.549269
 21
242.373157
 31
0.0
  0
SPLINE
  5
101
100
AcDbEntity
  8
0
 62
5
100
AcDbSpline
 70
0
 71
3
 72
10
 73
6
 74
4
 40
0.000000
 40
0.000000
 40
0.000000
 40
0.000000
 40
2.923536
 40
5.996622
 40
8.920157
 40
8.920157
 40
8.920157
 40
8.920157
 10
44.549269
 20
242.373157
 30
0.0
 10
43.879000
 20
243.092028
 30
0.0
 10
42.504175
 20
244.566542
 30
0.0
 10
41.651674
 20
247.580582
 30
0.0
 10
42.050494
 20
249.556760
 30
0.0
 10
42.244930
 20
250.520207
 30
0.0
 11
44.549269
 21
242.373157
 31
0.0
 11
42.729021
 21
244.660898
 31
0.0
 11
41.892631
 21
247.617976
 31
0.0
 11
42.244930
 21
250.520207
 31
0.0
  0
LWPOLYLINE
  5
102
100
AcDbEntity
  8
0
 62
5
100
AcDbPolyline
 90
4
 70
0
 10
51.039624
 20
233.943619
 30
0.0
 10
48.351228
 20
243.448514
 30
0.0
 10
47.808092
 20
243.294892
 30
0.0
 10
48.268958
 20
241.665482
 30
0.0
  0
LWPOLYLINE
  5
103
100
AcDbEntity
  8
0
 62
5
100
AcDbPolyline
 90
4
 70
0
 10
45.042884
 20
253.071355
 30
0.0
 10
45.503753
 20
251.441945
 30
0.0
 10
46.046890
 20
251.595567
 30
0.0
 10
43.358494
 20
261.100461
 30
0.0
  0
LWPOLYLINE
  5
104
100
AcDbEntity
  8
0
 62
1
100
AcDbPolyline
 90
2
 70
0
 10
47.813550
 20
245.349492
 30
0.0
 10
46.584568
 20
249.694588
 30
0.0
  0
LWPOLYLINE
  5
105
100
AcDbEntity
  8
0
 62
5
100
AcDbPolyline
 90
4
 70
0
 10
51.039624
 20
233.943622
 30
0.0
 10
52.552408
 20
226.306579
 30
0.0
 10
66.378387
 20
216.530130
 30
0.0
 10
74.082924
 20
217.649542
 30
0.0
  0
LWPOLYLINE
  5
106
100
AcDbEntity
  8
0
 62
5
100
AcDbPolyline
 90
4
 70
0
 10
57.980569
 20
230.072578
 30
0.0
 10
58.087599
 20
228.268650
 30
0.0
 10
66.383185
 20
222.402782
 30
0.0
 10
68.119622
 20
222.903185
 30
0.0
  0
LWPOLYLINE
  5
107
100
AcDbEntity
  8
0
 62
1
100
AcDbPolyline
 90
2
 70
0
 10
51.039624
 20
233.943622
 30
0.0
 10
57.491749
 20
229.381280
 30
0.0
  0
LWPOLYLINE
  5
108
100
AcDbEntity
  8
0
 62
1
100
AcDbPolyline
 90
2
 70
0
 10
74.082924
 20
217.649542
 30
0.0
 10
67.630799
 20
222.211884
 30
0.0
  0
SPLINE
  5
109
100
AcDbEntity
  8
0
 62
5
100
AcDbSpline
 70
0
 71
3
 72
10
 73
6
 74
4
 40
0.000000
 40
0.000000
 40
0.000000
 40
0.000000
 40
1.743687
 40
3.211833
 40
3.851414
 40
3.851414
 40
3.851414
 40
3.851414
 10
42.244930
 20
250.520207
 30
0.0
 10
42.558391
 20
251.017212
 30
0.0
 10
43.135779
 20
251.932683
 30
0.0
 10
44.223232
 20
252.666055
 30
0.0
 10
44.852067
 20
252.977000
 30
0.0
 10
45.042884
 20
253.071355
 30
0.0
 11
42.244930
 21
250.520207
 31
0.0
 11
43.282422
 21
251.921655
 31
0.0
 11
44.473537
 21
252.779966
 31
0.0
 11
45.042884
 21
253.071355
 31
0.0
  0
SPLINE
  5
10a
100
AcDbEntity
  8
0
 62
5
100
AcDbSpline
 70
0
 71
3
 72
10
 73
6
 74
4
 40
0.000000
 40
0.000000
 40
0.000000
 40
0.000000
 40
0.639582
 40
2.107731
 40
3.851424
 40
3.851424
 40
3.851424
 40
3.851424
 10
90.769612
 20
228.757501
 30
0.0
 10
90.858720
 20
228.564177
 30
0.0
 10
91.152373
 20
227.927083
 30
0.0
 10
91.537218
 20
226.673173
 30
0.0
 10
91.410889
 20
225.598225
 30
0.0
 10
91.342306
 20
225.014642
 30
0.0
 11
90.769612
 21
228.757501
 31
0.0
 11
91.029289
 21
228.173007
 31
0.0
 11
91.416231
 21
226.756766
 31
0.0
 11
91.342306
 21
225.014642
 31
0.0
  0
SPLINE
  5
10b
100
AcDbEntity
  8
0
 62
5
100
AcDbSpline
 70
0
 71
3
 72
10
 73
6
 74
4
 40
0.000000
 40
0.000000
 40
0.000000
 40
0.000000
 40
2.923545
 40
5.996641
 40
8.920187
 40
8.920187
 40
8.920187
 40
8.920187
 10
91.342306
 20
225.014642
 30
0.0
 10
90.887969
 20
224.143080
 30
0.0
 10
89.956055
 20
222.355372
 30
0.0
 10
87.398549
 20
220.546942
 30
0.0
 10
85.402443
 20
220.264227
 30
0.0
 10
84.429281
 20
220.126395
 30
0.0
 11
91.342306
 21
225.014642
 31
0.0
 11
89.792146
 21
222.535908
 31
0.0
 11
87.282975
 21
220.761655
 31
0.0
 11
84.429281
 21
220.126395
 31
0.0
  0
LWPOLYLINE
  5
10c
100
AcDbEntity
  8
0
 62
5
100
AcDbPolyline
 90
4
 70
0
 10
97.126318
 20
233.943676
 30
0.0
 10
89.061123
 20
228.240721
 30
0.0
 10
89.387005
 20
227.779852
 30
0.0
 10
90.769612
 20
228.757501
 30
0.0
  0
LWPOLYLINE
  5
10d
100
AcDbEntity
  8
0
 62
5
100
AcDbPolyline
 90
4
 70
0
 10
81.091377
 20
221.913954
 30
0.0
 10
82.473983
 20
222.891605
 30
0.0
 10
82.148099
 20
223.352471
 30
0.0
 10
74.082904
 20
217.649517
 30
0.0
  0
LWPOLYLINE
  5
10e
100
AcDbEntity
  8
0
 62
1
100
AcDbPolyline
 90
2
 70
0
 10
87.448085
 20
227.100129
 30
0.0
 10
83.761137
 20
224.493064
 30
0.0
  0
LWPOLYLINE
  5
10f
100
AcDbEntity
  8
0
 62
5
100
AcDbPolyline
 90
5
 70
0
 10
97.126357
 20
233.943622
 30
0.0
 10
102.782692
 20
235.276699
 30
0.0
 10
105.490388
 20
252.108458
 30
0.0
 10
103.271252
 20
255.669061
 30
0.0
 10
104.807475
 20
261.100419
 30
0.0
  0
LWPOLYLINE
  5
110
100
AcDbEntity
  8
0
 62
5
100
AcDbPolyline
 90
4
 70
0
 10
96.926143
 20
236.346598
 30
0.0
 10
98.591226
 20
237.048815
 30
0.0
 10
101.356431
 20
246.825261
 30
0.0
 10
100.305836
 20
248.295590
 30
0.0
  0
LWPOLYLINE
  5
111
100
AcDbEntity
  8
0
 62
1
100
AcDbPolyline
 90
2
 70
0
 10
97.126357
 20
233.943622
 30
0.0
 10
97.740845
 20
236.116166
 30
0.0
  0
LWPOLYLINE
  5
112
100
AcDbEntity
  8
0
 62
1
100
AcDbPolyline
 90
2
 70
0
 10
103.271252
 20
255.669061
 30
0.0
 10
101.120538
 20
248.065156
 30
0.0
  0
SPLINE
  5
113
100
AcDbEntity
  8
0
 62
5
100
AcDbSpline
 70
0
 71
3
 72
10
 73
6
 74
4
 40
0.000000
 40
0.000000
 40
0.000000
 40
0.000000
 40
1.743691
 40
3.211841
 40
3.851424
 40
3.851424
 40
3.851424
 40
3.851424
 10
84.429281
 20
220.126395
 30
0.0
 10
83.856212
 20
220.256261
 30
0.0
 10
82.800632
 20
220.495472
 30
0.0
 10
81.746716
 20
221.276277
 30
0.0
 10
81.243942
 20
221.765501
 30
0.0
 10
81.091377
 20
221.913954
 30
0.0
 11
84.429281
 21
220.126395
 31
0.0
 11
82.762149
 21
220.637404
 31
0.0
 11
81.555885
 21
221.474296
 31
0.0
 11
81.091377
 21
221.913954
 31
0.0
  0
SPLINE
  5
114
100
AcDbEntity
  8
0
 62
5
100
AcDbSpline
 70
0
 71
3
 72
10
 73
6
 74
4
 40
0.000000
 40
0.000000
 40
0.000000
 40
0.000000
 40
0.280475
 40
1.083633
 40
2.425815
 40
2.425815
 40
2.425815
 40
2.425815
 10
108.027941
 20
247.639974
 30
0.0
 10
107.957326
 20
247.578519
 30
0.0
 10
107.684498
 20
247.341083
 30
0.0
 10
107.227143
 20
246.655572
 30
0.0
 10
107.000925
 20
245.975295
 30
0.0
 10
106.859397
 20
245.549695
 30
0.0
 11
108.027941
 21
247.639974
 31
0.0
 11
107.820685
 21
247.451000
 31
0.0
 11
107.353753
 21
246.797520
 31
0.0
 11
106.859397
 21
245.549695
 31
0.0
  0
SPLINE
  5
115
100
AcDbEntity
  8
0
 62
5
100
AcDbSpline
 70
0
 71
3
 72
10
 73
6
 74
4
 40
0.000000
 40
0.000000
 40
0.000000
 40
0.000000
 40
2.614614
 40
5.390015
 40
7.950666
 40
7.950666
 40
7.950666
 40
7.950666
 10
106.859397
 20
245.549695
 30
0.0
 10
106.807730
 20
244.679529
 30
0.0
 10
106.701217
 20
242.885685
 30
0.0
 10
106.698233
 20
240.234238
 30
0.0
 10
106.740481
 20
238.456125
 30
0.0
 10
106.760755
 20
237.602848
 30
0.0
 11
106.859397
 21
245.549695
 31
0.0
 11
106.728982
 21
242.938336
 31
0.0
 11
106.710123
 21
240.162999
 31
0.0
 11
106.760755
 21
237.602848
 31
0.0
  0
LWPOLYLINE
  5
116
100
AcDbEntity
  8
0
 62
5
100
AcDbPolyline
 90
4
 70
0
 10
104.807320
 20
261.100464
 30
0.0
 10
109.031947
 20
246.164186
 30
0.0
 10
108.488810
 20
246.010561
 30
0.0
 10
108.027941
 20
247.639974
 30
0.0
  0
LWPOLYLINE
  5
117
100
AcDbEntity
  8
0
 62
5
100
AcDbPolyline
 90
4
 70
0
 10
111.254018
 20
236.234087
 30
0.0
 10
110.793152
 20
237.863500
 30
0.0
 10
111.336288
 20
238.017125
 30
0.0
 10
112.488458
 20
233.943594
 30
0.0
  0
LWPOLYLINE
  5
118
100
AcDbEntity
  8
0
 62
1
100
AcDbPolyline
 90
2
 70
0
 10
109.569625
 20
244.263205
 30
0.0
 10
110.798607
 20
239.918103
 30
0.0
  0
LWPOLYLINE
  5
119
100
AcDbEntity
  8
0
 62
5
100
AcDbPolyline
 90
4
 70
0
 10
112.488562
 20
233.943622
 30
0.0
 10
114.001355
 20
226.306542
 30
0.0
 10
127.827402
 20
216.530046
 30
0.0
 10
135.531976
 20
217.649463
 30
0.0
  0
LWPOLYLINE
  5
11a
100
AcDbEntity
  8
0
 62
5
100
AcDbPolyline
 90
4
 70
0
 10
119.429541
 20
230.072561
 30
0.0
 10
119.536571
 20
228.268622
 30
0.0
 10
127.832200
 20
222.402726
 30
0.0
 10
129.568646
 20
222.903128
 30
0.0
  0
LWPOLYLINE
  5
11b
100
AcDbEntity
  8
0
 62
1
100
AcDbPolyline
 90
2
 70
0
 10
112.488562
 20
233.943622
 30
0.0
 10
118.940718
 20
229.381257
 30
0.0
  0
LWPOLYLINE
  5
11c
100
AcDbEntity
  8
0
 62
1
100
AcDbPolyline
 90
2
 70
0
 10
135.531976
 20
217.649463
 30
0.0
 10
129.079820
 20
222.211828
 30
0.0
  0
SPLINE
  5
11d
100
AcDbEntity
  8
0
 62
5
100
AcDbSpline
 70
0
 71
3
 72
10
 73
6
 74
4
 40
0.000000
 40
0.000000
 40
0.000000
 40
0.000000
 40
1.995478
 40
3.880818
 40
4.727743
 40
4.727743
 40
4.727743
 40
4.727743
 10
106.760755
 20
237.602848
 30
0.0
 10
107.356140
 20
237.299484
 30
0.0
 10
108.514048
 20
236.709501
 30
0.0
 10
110.073235
 20
236.397597
 30
0.0
 10
110.974615
 20
236.272777
 30
0.0
 10
111.254018
 20
236.234087
 30
0.0
 11
106.760755
 21
237.602848
 31
0.0
 11
108.579156
 21
236.781052
 31
0.0
 11
110.415838
 21
236.355485
 31
0.0
 11
111.254018
 21
236.234087
 31
0.0
  0
SPLINE
  5
11e
100
AcDbEntity
  8
0
 62
5
100
AcDbSpline
 70
0
 71
3
 72
10
 73
6
 74
4
 40
0.000000
 40
0.000000
 40
0.000000
 40
0.000000
 40
0.639577
 40
2.107714
 40
3.851392
 40
3.851392
 40
3.851392
 40
3.851392
 10
152.218585
 20
228.757411
 30
0.0
 10
152.307692
 20
228.564089
 30
0.0
 10
152.601343
 20
227.926999
 30
0.0
 10
152.986186
 20
226.673100
 30
0.0
 10
152.859858
 20
225.598161
 30
0.0
 10
152.791276
 20
225.014582
 30
0.0
 11
152.218585
 21
228.757411
 31
0.0
 11
152.478260
 21
228.172922
 31
0.0
 11
152.865200
 21
226.756693
 31
0.0
 11
152.791276
 21
225.014582
 31
0.0
  0
SPLINE
  5
11f
100
AcDbEntity
  8
0
 62
5
100
AcDbSpline
 70
0
 71
3
 72
10
 73
6
 74
4
 40
0.000000
 40
0.000000
 40
0.000000
 40
0.000000
 40
2.923522
 40
5.996593
 40
8.920114
 40
8.920114
 40
8.920114
 40
8.920114
 10
152.791276
 20
225.014582
 30
0.0
 10
152.336942
 20
224.143028
 30
0.0
 10
151.405035
 20
222.355335
 30
0.0
 10
148.847550
 20
220.546919
 30
0.0
 10
146.851461
 20
220.264206
 30
0.0
 10
145.878307
 20
220.126375
 30
0.0
 11
152.791276
 21
225.014582
 31
0.0
 11
151.241127
 21
222.535869
 31
0.0
 11
148.731976
 21
220.761630
 31
0.0
 11
145.878307
 21
220.126375
 31
0.0
  0
LWPOLYLINE
  5
120
100
AcDbEntity
  8
0
 62
5
100
AcDbPolyline
 90
4
 70
0
 10
158.575240
 20
233.943543
 30
0.0
 10
150.510110
 20
228.240634
 30
0.0
 10
150.835992
 20
227.779770
 30
0.0
 10
152.218585
 20
228.757411
 30
0.0
  0
LWPOLYLINE
  5
121
100
AcDbEntity
  8
0
 62
5
100
AcDbPolyline
 90
4
 70
0
 10
142.540431
 20
221.913920
 30
0.0
 10
143.923024
 20
222.891560
 30
0.0
 10
143.597145
 20
223.352426
 30
0.0
 10
135.532015
 20
217.649517
 30
0.0
  0
LWPOLYLINE
  5
122
100
AcDbEntity
  8
0
 62
1
100
AcDbPolyline
 90
2
 70
0
 10
148.897086
 20
227.100052
 30
0.0
 10
145.210169
 20
224.493008
 30
0.0
  0
LWPOLYLINE
  5
123
100
AcDbEntity
  8
0
 62
5
100
AcDbPolyline
 90
5
 70
0
 10
158.575186
 20
233.943622
 30
0.0
 10
164.231534
 20
235.276702
 30
0.0
 10
166.939237
 20
252.108506
 30
0.0
 10
164.720095
 20
255.669117
 30
0.0
 10
166.256324
 20
261.100492
 30
0.0
  0
LWPOLYLINE
  5
124
100
AcDbEntity
  8
0
 62
5
100
AcDbPolyline
 90
4
 70
0
 10
158.374969
 20
236.346603
 30
0.0
 10
160.040058
 20
237.048823
 30
0.0
 10
162.805268
 20
246.825297
 30
0.0
 10
161.754670
 20
248.295627
 30
0.0
  0
LWPOLYLINE
  5
125
100
AcDbEntity
  8
0
 62
1
100
AcDbPolyline
 90
2
 70
0
 10
158.575186
 20
233.943622
 30
0.0
 10
159.189677
 20
236.116172
 30
0.0
  0
LWPOLYLINE
  5
126
100
AcDbEntity
  8
0
 62
1
100
AcDbPolyline
 90
2
 70
0
 10
164.720095
 20
255.669117
 30
0.0
 10
162.569378
 20
248.065195
 30
0.0
  0
SPLINE
  5
127
100
AcDbEntity
  8
0
 62
5
100
AcDbSpline
 70
0
 71
3
 72
10
 73
6
 74
4
 40
0.000000
 40
0.000000
 40
0.000000
 40
0.000000
 40
1.743677
 40
3.211814
 40
3.851392
 40
3.851392
 40
3.851392
 40
3.851392
 10
145.878307
 20
220.126375
 30
0.0
 10
145.305243
 20
220.256240
 30
0.0
 10
144.249672
 20
220.495449
 30
0.0
 10
143.195765
 20
221.276248
 30
0.0
 10
142.692995
 20
221.765468
 30
0.0
 10
142.540431
 20
221.913920
 30
0.0
 11
145.878307
 21
220.126375
 31
0.0
 11
144.211189
 21
220.637380
 31
0.0
 11
143.004935
 21
221.474266
 31
0.0
 11
142.540431
 21
221.913920
 31
0.0
  0
SPLINE
  5
128
100
AcDbEntity
  8
0
 62
5
100
AcDbSpline
 70
0
 71
3
 72
10
 73
6
 74
4
 40
0.000000
 40
0.000000
 40
0.000000
 40
0.000000
 40
0.280474
 40
1.083629
 40
2.425809
 40
2.425809
 40
2.425809
 40
2.425809
 10
169.477041
 20
247.640011
 30
0.0
 10
169.406426
 20
247.578556
 30
0.0
 10
169.133599
 20
247.341120
 30
0.0
 10
168.676245
 20
246.655612
 30
0.0
 10
168.450027
 20
245.975336
 30
0.0
 10
168.308500
 20
245.549737
 30
0.0
 11
169.477041
 21
247.640011
 31
0.0
 11
169.269785
 21
247.451038
 31
0.0
 11
168.802854
 21
246.797559
 31
0.0
 11
168.308500
 21
245.549737
 31
0.0
  0
SPLINE
  5
129
100
AcDbEntity
  8
0
 62
5
100
AcDbSpline
 70
0
 71
3
 72
10
 73
6
 74
4
 40
0.000000
 40
0.000000
 40
0.000000
 40
0.000000
 40
2.614607
 40
5.390000
 40
7.950647
 40
7.950647
 40
7.950647
 40
7.950647
 10
168.308500
 20
245.549737
 30
0.0
 10
168.256833
 20
244.679573
 30
0.0
 10
168.150321
 20
242.885735
 30
0.0
 10
168.147336
 20
240.234295
 30
0.0
 10
168.189584
 20
238.456185
 30
0.0
 10
168.209857
 20
237.602910
 30
0.0
 11
168.308500
 21
245.549737
 31
0.0
 11
168.178085
 21
242.938385
 31
0.0
 11
168.159226
 21
240.163056
 31
0.0
 11
168.209857
 21
237.602910
 31
0.0
  0
LWPOLYLINE
  5
12a
100
AcDbEntity
  8
0
 62
5
100
AcDbPolyline
 90
4
 70
0
 10
166.256428
 20
261.100464
 30
0.0
 10
170.481044
 20
246.164226
 30
0.0
 10
169.937907
 20
246.010603
 30
0.0
 10
169.477041
 20
247.640011
 30
0.0
  0
LWPOLYLINE
  5
12b
100
AcDbEntity
  8
0
 62
5
100
AcDbPolyline
 90
4
 70
0
 10
172.703109
 20
236.234155
 30
0.0
 10
172.242243
 20
237.863565
 30
0.0
 10
172.785380
 20
238.017187
 30
0.0
 10
173.937546
 20
233.943667
 30
0.0
  0
LWPOLYLINE
  5
12c
100
AcDbEntity
  8
0
 62
1
100
AcDbPolyline
 90
2
 70
0
 10
171.018722
 20
244.263250
 30
0.0
 10
172.247701
 20
239.918162
 30
0.0
  0
LWPOLYLINE
  5
12d
100
AcDbEntity
  8
0
 62
5
100
AcDbPolyline
 90
4
 70
0
 10
173.937391
 20
233.943622
 30
0.0
 10
175.450184
 20
226.306542
 30
0.0
 10
189.276231
 20
216.530046
 30
0.0
 10
196.980804
 20
217.649463
 30
0.0
  0
LWPOLYLINE
  5
12e
100
AcDbEntity
  8
0
 62
5
100
AcDbPolyline
 90
4
 70
0
 10
180.878370
 20
230.072561
 30
0.0
 10
180.985400
 20
228.268622
 30
0.0
 10
189.281029
 20
222.402726
 30
0.0
 10
191.017474
 20
222.903128
 30
0.0
  0
LWPOLYLINE
  5
12f
100
AcDbEntity
  8
0
 62
1
100
AcDbPolyline
 90
2
 70
0
 10
173.937391
 20
233.943622
 30
0.0
 10
180.389547
 20
229.381257
 30
0.0
  0
LWPOLYLINE
  5
130
100
AcDbEntity
  8
0
 62
1
100
AcDbPolyline
 90
2
 70
0
 10
196.980804
 20
217.649463
 30
0.0
 10
190.528648
 20
222.211828
 30
0.0
  0
SPLINE
  5
131
100
AcDbEntity
  8
0
 62
5
100
AcDbSpline
 70
0
 71
3
 72
10
 73
6
 74
4
 40
0.000000
 40
0.000000
 40
0.000000
 40
0.000000
 40
1.995472
 40
3.880808
 40
4.727731
 40
4.727731
 40
4.727731
 40
4.727731
 10
168.209857
 20
237.602910
 30
0.0
 10
168.805240
 20
237.299547
 30
0.0
 10
169.963145
 20
236.709566
 30
0.0
 10
171.522328
 20
236.397663
 30
0.0
 10
172.423707
 20
236.272845
 30
0.0
 10
172.703109
 20
236.234155
 30
0.0
 11
168.209857
 21
237.602910
 31
0.0
 11
170.028253
 21
236.781116
 31
0.0
 11
171.864931
 21
236.355552
 31
0.0
 11
172.703109
 21
236.234155
 31
0.0
  0
SPLINE
  5
132
100
AcDbEntity
  8
0
 62
5
100
AcDbSpline
 70
0
 71
3
 72
10
 73
6
 74
4
 40
0.000000
 40
0.000000
 40
0.000000
 40
0.000000
 40
0.639582
 40
2.107731
 40
3.851424
 40
3.851424
 40
3.851424
 40
3.851424
 10
213.667549
 20
228.757501
 30
0.0
 10
213.756657
 20
228.564177
 30
0.0
 10
214.050310
 20
227.927083
 30
0.0
 10
214.435154
 20
226.673173
 30
0.0
 10
214.308826
 20
225.598225
 30
0.0
 10
214.240243
 20
225.014642
 30
0.0
 11
213.667549
 21
228.757501
 31
0.0
 11
213.927226
 21
228.173007
 31
0.0
 11
214.314168
 21
226.756766
 31
0.0
 11
214.240243
 21
225.014642
 31
0.0
  0
SPLINE
  5
133
100
AcDbEntity
  8
0
 62
5
100
AcDbSpline
 70
0
 71
3
 72
10
 73
6
 74
4
 40
0.000000
 40
0.000000
 40
0.000000
 40
0.000000
 40
2.923545
 40
5.996641
 40
8.920187
 40
8.920187
 40
8.920187
 40
8.920187
 10
214.240243
 20
225.014642
 30
0.0
 10
213.785906
 20
224.143080
 30
0.0
 10
212.853992
 20
222.355372
 30
0.0
 10
210.296485
 20
220.546942
 30
0.0
 10
208.300380
 20
220.264227
 30
0.0
 10
207.327218
 20
220.126395
 30
0.0
 11
214.240243
 21
225.014642
 31
0.0
 11
212.690083
 21
222.535908
 31
0.0
 11
210.180911
 21
220.761655
 31
0.0
 11
207.327218
 21
220.126395
 31
0.0
  0
LWPOLYLINE
  5
134
100
AcDbEntity
  8
0
 62
5
100
AcDbPolyline
 90
4
 70
0
 10
220.024254
 20
233.943676
 30
0.0
 10
211.959060
 20
228.240721
 30
0.0
 10
212.284942
 20
227.779852
 30
0.0
 10
213.667549
 20
228.757501
 30
0.0
  0
LWPOLYLINE
  5
135
100
AcDbEntity
  8
0
 62
5
100
AcDbPolyline
 90
4
 70
0
 10
203.989313
 20
221.913954
 30
0.0
 10
205.371920
 20
222.891605
 30
0.0
 10
205.046035
 20
223.352471
 30
0.0
 10
196.980841
 20
217.649517
 30
0.0
  0
LWPOLYLINE
  5
136
100
AcDbEntity
  8
0
 62
1
100
AcDbPolyline
 90
2
 70
0
 10
210.346022
 20
227.100129
 30
0.0
 10
206.659074
 20
224.493064
 30
0.0
  0
LWPOLYLINE
  5
137
100
AcDbEntity
  8
0
 62
5
100
AcDbPolyline
 90
4
 70
0
 10
227.705412
 20
261.100419
 30
0.0
 10
231.328979
 20
254.209647
 30
0.0
 10
226.720310
 20
237.915570
 30
0.0
 10
220.024294
 20
233.943622
 30
0.0
  0
LWPOLYLINE
  5
138
100
AcDbEntity
  8
0
 62
5
100
AcDbPolyline
 90
4
 70
0
 10
224.739996
 20
253.726949
 30
0.0
 10
225.790591
 20
252.256622
 30
0.0
 10
223.025389
 20
242.480176
 30
0.0
 10
221.360303
 20
241.777959
 30
0.0
  0
LWPOLYLINE
  5
139
100
AcDbEntity
  8
0
 62
1
100
AcDbPolyline
 90
2
 70
0
 10
227.705412
 20
261.100419
 30
0.0
 10
225.554698
 20
253.496517
 30
0.0
  0
LWPOLYLINE
  5
13a
100
AcDbEntity
  8
0
 62
1
100
AcDbPolyline
 90
2
 70
0
 10
220.024294
 20
233.943622
 30
0.0
 10
222.175008
 20
241.547524
 30
0.0
  0
SPLINE
  5
13b
100
AcDbEntity
  8
0
 62
5
100
AcDbSpline
 70
0
 71
3
 72
10
 73
6
 74
4
 40
0.000000
 40
0.000000
 40
0.000000
 40
0.000000
 40
1.743691
 40
3.211841
 40
3.851424
 40
3.851424
 40
3.851424
 40
3.851424
 10
207.327218
 20
220.126395
 30
0.0
 10
206.754149
 20
220.256261
 30
0.0
 10
205.698569
 20
220.495472
 30
0.0
 10
204.644653
 20
221.276277
 30
0.0
 10
204.141878
 20
221.765501
 30
0.0
 10
203.989313
 20
221.913954
 30
0.0
 11
207.327218
 21
220.126395
 31
0.0
 11
205.660086
 21
220.637404
 31
0.0
 11
204.453821
 21
221.474296
 31
0.0
 11
203.989313
 21
221.913954
 31
0.0
  0
SPLINE
  5
13c
100
AcDbEntity
  8
0
 62
5
100
AcDbSpline
 70
0
 71
3
 72
10
 73
6
 74
4
 40
0.000000
 40
0.000000
 40
0.000000
 40
0.000000
 40
0.639583
 40
2.107732
 40
3.851424
 40
3.851424
 40
3.851424
 40
3.851424
 10
234.713729
 20
265.364901
 30
0.0
 10
234.866294
 20
265.216448
 30
0.0
 10
235.369069
 20
264.727224
 30
0.0
 10
236.422985
 20
263.946419
 30
0.0
 10
237.478565
 20
263.707208
 30
0.0
 10
238.051634
 20
263.577342
 30
0.0
 11
234.713729
 21
265.364901
 31
0.0
 11
235.178237
 21
264.925244
 31
0.0
 11
236.384501
 21
264.088351
 31
0.0
 11
238.051634
 21
263.577342
 31
0.0
  0
SPLINE
  5
13d
100
AcDbEntity
  8
0
 62
5
100
AcDbSpline
 70
0
 71
3
 72
10
 73
6
 74
4
 40
0.000000
 40
0.000000
 40
0.000000
 40
0.000000
 40
2.923545
 40
5.996641
 40
8.920186
 40
8.920186
 40
8.920186
 40
8.920186
 10
238.051634
 20
263.577342
 30
0.0
 10
239.024795
 20
263.715174
 30
0.0
 10
241.020900
 20
263.997890
 30
0.0
 10
243.578407
 20
265.806320
 30
0.0
 10
244.510321
 20
267.594027
 30
0.0
 10
244.964658
 20
268.465589
 30
0.0
 11
238.051634
 21
263.577342
 31
0.0
 11
240.905326
 21
264.212603
 31
0.0
 11
243.414498
 21
265.986855
 31
0.0
 11
244.964658
 21
268.465589
 31
0.0
  0
LWPOLYLINE
  5
13e
100
AcDbEntity
  8
0
 62
5
100
AcDbPolyline
 90
4
 70
0
 10
227.705257
 20
261.100464
 30
0.0
 10
235.770451
 20
266.803419
 30
0.0
 10
236.096336
 20
266.342553
 30
0.0
 10
234.713729
 20
265.364901
 30
0.0
  0
LWPOLYLINE
  5
13f
100
AcDbEntity
  8
0
 62
5
100
AcDbPolyline
 90
4
 70
0
 10
244.391962
 20
272.208449
 30
0.0
 10
243.009358
 20
271.230799
 30
0.0
 10
242.683476
 20
271.691668
 30
0.0
 10
250.748670
 20
277.394624
 30
0.0
  0
LWPOLYLINE
  5
140
100
AcDbEntity
  8
0
 62
1
100
AcDbPolyline
 90
2
 70
0
 10
237.383489
 20
267.944011
 30
0.0
 10
241.070438
 20
270.551077
 30
0.0
  0
LWPOLYLINE
  5
141
100
AcDbEntity
  8
0
 62
5
100
AcDbPolyline
 90
4
 70
0
 10
227.705181
 20
293.688567
 30
0.0
 10
235.409746
 20
294.808037
 30
0.0
 10
249.235860
 20
285.031638
 30
0.0
 10
250.748707
 20
277.394568
 30
0.0
  0
LWPOLYLINE
  5
142
100
AcDbEntity
  8
0
 62
5
100
AcDbPolyline
 90
4
 70
0
 10
233.668547
 20
288.434941
 30
0.0
 10
235.404990
 20
288.935358
 30
0.0
 10
243.700658
 20
283.069518
 30
0.0
 10
243.807700
 20
281.265582
 30
0.0
  0
LWPOLYLINE
  5
143
100
AcDbEntity
  8
0
 62
1
100
AcDbPolyline
 90
2
 70
0
 10
227.705181
 20
293.688567
 30
0.0
 10
234.157368
 20
289.126247
 30
0.0
  0
LWPOLYLINE
  5
144
100
AcDbEntity
  8
0
 62
1
100
AcDbPolyline
 90
2
 70
0
 10
250.748707
 20
277.394568
 30
0.0
 10
244.296520
 20
281.956888
 30
0.0
  0
SPLINE
  5
145
100
AcDbEntity
  8
0
 62
5
100
AcDbSpline
 70
0
 71
3
 72
10
 73
6
 74
4
 40
0.000000
 40
0.000000
 40
0.000000
 40
0.000000
 40
1.743692
 40
3.211842
 40
3.851425
 40
3.851425
 40
3.851425
 40
3.851425
 10
244.964658
 20
268.465589
 30
0.0
 10
245.033241
 20
269.049173
 30
0.0
 10
245.159570
 20
270.124120
 30
0.0
 10
244.774723
 20
271.378031
 30
0.0
 10
244.481070
 20
272.015125
 30
0.0
 10
244.391962
 20
272.208449
 30
0.0
 11
244.964658
 21
268.465589
 31
0.0
 11
245.038583
 21
270.207714
 31
0.0
 11
244.651639
 21
271.623955
 31
0.0
 11
244.391962
 21
272.208449
 31
0.0
  0
SPLINE
  5
146
100
AcDbEntity
  8
0
 62
5
100
AcDbSpline
 70
0
 71
3
 72
10
 73
6
 74
4
 40
0.000000
 40
0.000000
 40
0.000000
 40
0.000000
 40
0.639577
 40
2.107715
 40
3.851393
 40
3.851393
 40
3.851393
 40
3.851393
 10
211.018608
 20
282.580895
 30
0.0
 10
210.929502
 20
282.774218
 30
0.0
 10
210.635855
 20
283.411309
 30
0.0
 10
210.251021
 20
284.665212
 30
0.0
 10
210.377356
 20
285.740149
 30
0.0
 10
210.445943
 20
286.323727
 30
0.0
 11
211.018608
 21
282.580895
 31
0.0
 11
210.758937
 21
283.165386
 31
0.0
 11
210.372007
 21
284.581618
 31
0.0
 11
210.445943
 21
286.323727
 31
0.0
  0
SPLINE
  5
147
100
AcDbEntity
  8
0
 62
5
100
AcDbSpline
 70
0
 71
3
 72
10
 73
6
 74
4
 40
0.000000
 40
0.000000
 40
0.000000
 40
0.000000
 40
2.923522
 40
5.996592
 40
8.920114
 40
8.920114
 40
8.920114
 40
8.920114
 10
210.445943
 20
286.323727
 30
0.0
 10
210.900282
 20
287.195279
 30
0.0
 10
211.832201
 20
288.982966
 30
0.0
 10
214.389699
 20
290.791363
 30
0.0
 10
216.385790
 20
291.074063
 30
0.0
 10
217.358945
 20
291.211887
 30
0.0
 11
210.445943
 21
286.323727
 31
0.0
 11
211.996107
 21
288.802430
 31
0.0
 11
214.505271
 21
290.576651
 31
0.0
 11
217.358945
 21
291.211887
 31
0.0
  0
LWPOLYLINE
  5
148
100
AcDbEntity
  8
0
 62
5
100
AcDbPolyline
 90
4
 70
0
 10
204.661917
 20
277.394807
 30
0.0
 10
212.727086
 20
283.097660
 30
0.0
 10
212.401209
 20
283.558527
 30
0.0
 10
211.018608
 20
282.580895
 30
0.0
  0
LWPOLYLINE
  5
149
100
AcDbEntity
  8
0
 62
5
100
AcDbPolyline
 90
4
 70
0
 10
220.696810
 20
289.424318
 30
0.0
 10
219.314209
 20
288.446687
 30
0.0
 10
219.640088
 20
287.985820
 30
0.0
 10
227.705254
 20
293.688673
 30
0.0
  0
LWPOLYLINE
  5
14a
100
AcDbEntity
  8
0
 62
1
100
AcDbPolyline
 90
2
 70
0
 10
214.340118
 20
284.238231
 30
0.0
 10
218.027052
 20
286.845249
 30
0.0
  0
LWPOLYLINE
  5
14b
100
AcDbEntity
  8
0
 62
5
100
AcDbPolyline
 90
5
 70
0
 10
204.662086
 20
277.394567
 30
0.0
 10
199.005740
 20
276.061465
 30
0.0
 10
196.298095
 20
259.229652
 30
0.0
 10
198.517250
 20
255.669049
 30
0.0
 10
196.981041
 20
250.237669
 30
0.0
  0
LWPOLYLINE
  5
14c
100
AcDbEntity
  8
0
 62
5
100
AcDbPolyline
 90
4
 70
0
 10
204.862309
 20
274.991584
 30
0.0
 10
203.197223
 20
274.289360
 30
0.0
 10
200.432046
 20
264.512878
 30
0.0
 10
201.482650
 20
263.042548
 30
0.0
  0
LWPOLYLINE
  5
14d
100
AcDbEntity
  8
0
 62
1
100
AcDbPolyline
 90
2
 70
0
 10
204.662086
 20
277.394567
 30
0.0
 10
204.047601
 20
275.222015
 30
0.0
  0
LWPOLYLINE
  5
14e
100
AcDbEntity
  8
0
 62
1
100
AcDbPolyline
 90
2
 70
0
 10
198.517250
 20
255.669049
 30
0.0
 10
200.667942
 20
263.272980
 30
0.0
  0
SPLINE
  5
14f
100
AcDbEntity
  8
0
 62
5
100
AcDbSpline
 70
0
 71
3
 72
10
 73
6
 74
4
 40
0.000000
 40
0.000000
 40
0.000000
 40
0.000000
 40
1.743678
 40
3.211815
 40
3.851393
 40
3.851393
 40
3.851393
 40
3.851393
 10
217.358945
 20
291.211887
 30
0.0
 10
217.932008
 20
291.082018
 30
0.0
 10
218.987578
 20
290.842801
 30
0.0
 10
220.041480
 20
290.061995
 30
0.0
 10
220.544247
 20
289.572771
 30
0.0
 10
220.696810
 20
289.424318
 30
0.0
 11
217.358945
 21
291.211887
 31
0.0
 11
219.026060
 21
290.700870
 31
0.0
 11
220.232309
 21
289.863975
 31
0.0
 11
220.696810
 21
289.424318
 31
0.0
  0
SPLINE
  5
150
100
AcDbEntity
  8
0
 62
5
100
AcDbSpline
 70
0
 71
3
 72
10
 73
6
 74
4
 40
0.000000
 40
0.000000
 40
0.000000
 40
0.000000
 40
0.280474
 40
1.083631
 40
2.425809
 40
2.425809
 40
2.425809
 40
2.425809
 10
193.760276
 20
263.698190
 30
0.0
 10
193.830892
 20
263.759645
 30
0.0
 10
194.103720
 20
263.997080
 30
0.0
 10
194.561076
 20
264.682587
 30
0.0
 10
194.787294
 20
265.362862
 30
0.0
 10
194.928823
 20
265.788460
 30
0.0
 11
193.760276
 21
263.698190
 31
0.0
 11
193.967533
 21
263.887163
 31
0.0
 11
194.434466
 21
264.540640
 31
0.0
 11
194.928823
 21
265.788460
 31
0.0
  0
SPLINE
  5
151
100
AcDbEntity
  8
0
 62
5
100
AcDbSpline
 70
0
 71
3
 72
10
 73
6
 74
4
 40
0.000000
 40
0.000000
 40
0.000000
 40
0.000000
 40
2.614606
 40
5.389999
 40
7.950644
 40
7.950644
 40
7.950644
 40
7.950644
 10
194.928823
 20
265.788460
 30
0.0
 10
194.980494
 20
266.658624
 30
0.0
 10
195.087013
 20
268.452462
 30
0.0
 10
195.090006
 20
271.103901
 30
0.0
 10
195.047764
 20
272.882010
 30
0.0
 10
195.027494
 20
273.735285
 30
0.0
 11
194.928823
 21
265.788460
 31
0.0
 11
195.059248
 21
268.399811
 31
0.0
 11
195.078116
 21
271.175140
 31
0.0
 11
195.027494
 21
273.735285
 31
0.0
  0
LWPOLYLINE
  5
152
100
AcDbEntity
  8
0
 62
5
100
AcDbPolyline
 90
4
 70
0
 10
196.980841
 20
250.237725
 30
0.0
 10
192.756279
 20
265.173978
 30
0.0
 10
193.299416
 20
265.327600
 30
0.0
 10
193.760276
 20
263.698190
 30
0.0
  0
LWPOLYLINE
  5
153
100
AcDbEntity
  8
0
 62
5
100
AcDbPolyline
 90
4
 70
0
 10
190.534248
 20
275.104056
 30
0.0
 10
190.995108
 20
273.474646
 30
0.0
 10
190.451971
 20
273.321026
 30
0.0
 10
189.299819
 20
277.394549
 30
0.0
  0
LWPOLYLINE
  5
154
100
AcDbEntity
  8
0
 62
1
100
AcDbPolyline
 90
2
 70
0
 10
192.218606
 20
267.074956
 30
0.0
 10
190.989644
 20
271.420048
 30
0.0
  0
LWPOLYLINE
  5
155
100
AcDbEntity
  8
0
 62
5
100
AcDbPolyline
 90
4
 70
0
 10
189.299881
 20
277.394568
 30
0.0
 10
187.787034
 20
285.031638
 30
0.0
 10
173.960920
 20
294.808037
 30
0.0
 10
166.256355
 20
293.688567
 30
0.0
  0
LWPOLYLINE
  5
156
100
AcDbEntity
  8
0
 62
5
100
AcDbPolyline
 90
4
 70
0
 10
182.358874
 20
281.265582
 30
0.0
 10
182.251833
 20
283.069518
 30
0.0
 10
173.956162
 20
288.935358
 30
0.0
 10
172.219722
 20
288.434941
 30
0.0
  0
LWPOLYLINE
  5
157
100
AcDbEntity
  8
0
 62
1
100
AcDbPolyline
 90
2
 70
0
 10
189.299881
 20
277.394568
 30
0.0
 10
182.847694
 20
281.956888
 30
0.0
  0
LWPOLYLINE
  5
158
100
AcDbEntity
  8
0
 62
1
100
AcDbPolyline
 90
2
 70
0
 10
166.256355
 20
293.688567
 30
0.0
 10
172.708542
 20
289.126247
 30
0.0
  0
SPLINE
  5
159
100
AcDbEntity
  8
0
 62
5
100
AcDbSpline
 70
0
 71
3
 72
10
 73
6
 74
4
 40
0.000000
 40
0.000000
 40
0.000000
 40
0.000000
 40
1.995472
 40
3.880807
 40
4.727730
 40
4.727730
 40
4.727730
 40
4.727730
 10
195.027494
 20
273.735285
 30
0.0
 10
194.432112
 20
274.038650
 30
0.0
 10
193.274209
 20
274.628635
 30
0.0
 10
191.715027
 20
274.940543
 30
0.0
 10
190.813649
 20
275.065364
 30
0.0
 10
190.534248
 20
275.104056
 30
0.0
 11
195.027494
 21
273.735285
 31
0.0
 11
193.209101
 21
274.557085
 31
0.0
 11
191.372425
 21
274.982656
 31
0.0
 11
190.534248
 21
275.104056
 31
0.0
  0
SPLINE
  5
15a
100
AcDbEntity
  8
0
 62
5
100
AcDbSpline
 70
0
 71
3
 72
10
 73
6
 74
4
 40
0.000000
 40
0.000000
 40
0.000000
 40
0.000000
 40
0.639583
 40
2.107732
 40
3.851424
 40
3.851424
 40
3.851424
 40
3.851424
 10
149.569644
 20
282.580804
 30
0.0
 10
149.480538
 20
282.774129
 30
0.0
 10
149.186888
 20
283.411225
 30
0.0
 10
148.802051
 20
284.665138
 30
0.0
 10
148.928388
 20
285.740085
 30
0.0
 10
148.996976
 20
286.323667
 30
0.0
 11
149.569644
 21
282.580804
 31
0.0
 11
149.309971
 21
283.165300
 31
0.0
 11
148.923038
 21
284.581544
 31
0.0
 11
148.996976
 21
286.323667
 31
0.0
  0
SPLINE
  5
15b
100
AcDbEntity
  8
0
 62
5
100
AcDbSpline
 70
0
 71
3
 72
10
 73
6
 74
4
 40
0.000000
 40
0.000000
 40
0.000000
 40
0.000000
 40
2.923546
 40
5.996641
 40
8.920186
 40
8.920186
 40
8.920186
 40
8.920186
 10
148.996976
 20
286.323667
 30
0.0
 10
149.451319
 20
287.195226
 30
0.0
 10
150.383246
 20
288.982927
 30
0.0
 10
152.940765
 20
290.791340
 30
0.0
 10
154.936872
 20
291.074041
 30
0.0
 10
155.910034
 20
291.211867
 30
0.0
 11
148.996976
 21
286.323667
 31
0.0
 11
150.547154
 21
288.802391
 31
0.0
 11
153.056338
 21
290.576626
 31
0.0
 11
155.910034
 21
291.211867
 31
0.0
  0
LWPOLYLINE
  5
15c
100
AcDbEntity
  8
0
 62
5
100
AcDbPolyline
 90
4
 70
0
 10
143.212902
 20
277.394674
 30
0.0
 10
151.278136
 20
283.097574
 30
0.0
 10
150.952256
 20
283.558444
 30
0.0
 10
149.569644
 20
282.580804
 30
0.0
  0
LWPOLYLINE
  5
15d
100
AcDbEntity
  8
0
 62
5
100
AcDbPolyline
 90
4
 70
0
 10
159.247925
 20
289.424284
 30
0.0
 10
157.865315
 20
288.446644
 30
0.0
 10
158.191194
 20
287.985773
 30
0.0
 10
166.256428
 20
293.688673
 30
0.0
  0
LWPOLYLINE
  5
15e
100
AcDbEntity
  8
0
 62
1
100
AcDbPolyline
 90
2
 70
0
 10
152.891182
 20
284.238154
 30
0.0
 10
156.578148
 20
286.845193
 30
0.0
  0
LWPOLYLINE
  5
15f
100
AcDbEntity
  8
0
 62
5
100
AcDbPolyline
 90
5
 70
0
 10
143.212975
 20
277.394566
 30
0.0
 10
137.556646
 20
276.061468
 30
0.0
 10
134.849009
 20
259.229703
 30
0.0
 10
137.068156
 20
255.669106
 30
0.0
 10
135.531953
 20
250.237742
 30
0.0
  0
LWPOLYLINE
  5
160
100
AcDbEntity
  8
0
 62
5
100
AcDbPolyline
 90
4
 70
0
 10
143.413201
 20
274.991590
 30
0.0
 10
141.748118
 20
274.289368
 30
0.0
 10
138.982950
 20
264.512912
 30
0.0
 10
140.033550
 20
263.042588
 30
0.0
  0
LWPOLYLINE
  5
161
100
AcDbEntity
  8
0
 62
1
100
AcDbPolyline
 90
2
 70
0
 10
143.212975
 20
277.394566
 30
0.0
 10
142.598496
 20
275.222021
 30
0.0
  0
LWPOLYLINE
  5
162
100
AcDbEntity
  8
0
 62
1
100
AcDbPolyline
 90
2
 70
0
 10
137.068156
 20
255.669106
 30
0.0
 10
139.218845
 20
263.273016
 30
0.0
  0
SPLINE
  5
163
100
AcDbEntity
  8
0
 62
5
100
AcDbSpline
 70
0
 71
3
 72
10
 73
6
 74
4
 40
0.000000
 40
0.000000
 40
0.000000
 40
0.000000
 40
1.743691
 40
3.211840
 40
3.851423
 40
3.851423
 40
3.851423
 40
3.851423
 10
155.910034
 20
291.211867
 30
0.0
 10
156.483102
 20
291.081996
 30
0.0
 10
157.538680
 20
290.842778
 30
0.0
 10
158.592590
 20
290.061965
 30
0.0
 10
159.095361
 20
289.572738
 30
0.0
 10
159.247925
 20
289.424284
 30
0.0
 11
155.910034
 21
291.211867
 31
0.0
 11
157.577163
 21
290.700846
 31
0.0
 11
158.783420
 21
289.863944
 31
0.0
 11
159.247925
 21
289.424284
 31
0.0
  0
SPLINE
  5
164
100
AcDbEntity
  8
0
 62
5
100
AcDbSpline
 70
0
 71
3
 72
10
 73
6
 74
4
 40
0.000000
 40
0.000000
 40
0.000000
 40
0.000000
 40
0.280475
 40
1.083632
 40
2.425815
 40
2.425815
 40
2.425815
 40
2.425815
 10
132.311442
 20
263.698227
 30
0.0
 10
132.382058
 20
263.759681
 30
0.0
 10
132.654886
 20
263.997117
 30
0.0
 10
133.112242
 20
264.682626
 30
0.0
 10
133.338462
 20
265.362903
 30
0.0
 10
133.479992
 20
265.788503
 30
0.0
 11
132.311442
 21
263.698227
 31
0.0
 11
132.518698
 21
263.887200
 31
0.0
 11
132.985632
 21
264.540679
 31
0.0
 11
133.479992
 21
265.788503
 31
0.0
  0
SPLINE
  5
165
100
AcDbEntity
  8
0
 62
5
100
AcDbSpline
 70
0
 71
3
 72
10
 73
6
 74
4
 40
0.000000
 40
0.000000
 40
0.000000
 40
0.000000
 40
2.614614
 40
5.390014
 40
7.950666
 40
7.950666
 40
7.950666
 40
7.950666
 10
133.479992
 20
265.788503
 30
0.0
 10
133.531662
 20
266.658669
 30
0.0
 10
133.638181
 20
268.452512
 30
0.0
 10
133.641175
 20
271.103958
 30
0.0
 10
133.598933
 20
272.882072
 30
0.0
 10
133.578662
 20
273.735349
 30
0.0
 11
133.479992
 21
265.788503
 31
0.0
 11
133.610416
 21
268.399862
 31
0.0
 11
133.629285
 21
271.175197
 31
0.0
 11
133.578662
 21
273.735349
 31
0.0
  0
LWPOLYLINE
  5
166
100
AcDbEntity
  8
0
 62
5
100
AcDbPolyline
 90
4
 70
0
 10
135.532015
 20
250.237725
 30
0.0
 10
131.307442
 20
265.174020
 30
0.0
 10
131.850579
 20
265.327639
 30
0.0
 10
132.311442
 20
263.698227
 30
0.0
  0
LWPOLYLINE
  5
167
100
AcDbEntity
  8
0
 62
5
100
AcDbPolyline
 90
4
 70
0
 10
129.085402
 20
275.104123
 30
0.0
 10
129.546265
 20
273.474709
 30
0.0
 10
129.003129
 20
273.321089
 30
0.0
 10
127.850971
 20
277.394623
 30
0.0
  0
LWPOLYLINE
  5
168
100
AcDbEntity
  8
0
 62
1
100
AcDbPolyline
 90
2
 70
0
 10
130.769769
 20
267.075001
 30
0.0
 10
129.540802
 20
271.420106
 30
0.0
  0
LWPOLYLINE
  5
169
100
AcDbEntity
  8
0
 62
5
100
AcDbPolyline
 90
4
 70
0
 10
127.850770
 20
277.394568
 30
0.0
 10
126.337924
 20
285.031638
 30
0.0
 10
112.511809
 20
294.808037
 30
0.0
 10
104.807244
 20
293.688567
 30
0.0
  0
LWPOLYLINE
  5
16a
100
AcDbEntity
  8
0
 62
5
100
AcDbPolyline
 90
4
 70
0
 10
120.909763
 20
281.265582
 30
0.0
 10
120.802722
 20
283.069518
 30
0.0
 10
112.507051
 20
288.935358
 30
0.0
 10
110.770611
 20
288.434941
 30
0.0
  0
LWPOLYLINE
  5
16b
100
AcDbEntity
  8
0
 62
1
100
AcDbPolyline
 90
2
 70
0
 10
127.850770
 20
277.394568
 30
0.0
 10
121.398583
 20
281.956888
 30
0.0
  0
LWPOLYLINE
  5
16c
100
AcDbEntity
  8
0
 62
1
100
AcDbPolyline
 90
2
 70
0
 10
104.807244
 20
293.688567
 30
0.0
 10
111.259431
 20
289.126247
 30
0.0
  0
SPLINE
  5
16d
100
AcDbEntity
  8
0
 62
5
100
AcDbSpline
 70
0
 71
3
 72
10
 73
6
 74
4
 40
0.000000
 40
0.000000
 40
0.000000
 40
0.000000
 40
1.995477
 40
3.880819
 40
4.727745
 40
4.727745
 40
4.727745
 40
4.727745
 10
133.578662
 20
273.735349
 30
0.0
 10
132.983279
 20
274.038714
 30
0.0
 10
131.825372
 20
274.628702
 30
0.0
 10
130.266186
 20
274.940610
 30
0.0
 10
129.364805
 20
275.065432
 30
0.0
 10
129.085402
 20
275.104123
 30
0.0
 11
133.578662
 21
273.735349
 31
0.0
 11
131.760264
 21
274.557151
 31
0.0
 11
129.923582
 21
274.982723
 31
0.0
 11
129.085402
 21
275.104123
 31
0.0
  0
SPLINE
  5
16e
100
AcDbEntity
  8
0
 62
5
100
AcDbSpline
 70
0
 71
3
 72
10
 73
6
 74
4
 40
0.000000
 40
0.000000
 40
0.000000
 40
0.000000
 40
0.639577
 40
2.107715
 40
3.851393
 40
3.851393
 40
3.851393
 40
3.851393
 10
88.120672
 20
282.580895
 30
0.0
 10
88.031566
 20
282.774218
 30
0.0
 10
87.737919
 20
283.411309
 30
0.0
 10
87.353084
 20
284.665212
 30
0.0
 10
87.479419
 20
285.740149
 30
0.0
 10
87.548006
 20
286.323727
 30
0.0
 11
88.120672
 21
282.580895
 31
0.0
 11
87.861000
 21
283.165386
 31
0.0
 11
87.474070
 21
284.581618
 31
0.0
 11
87.548006
 21
286.323727
 31
0.0
  0
SPLINE
  5
16f
100
AcDbEntity
  8
0
 62
5
100
AcDbSpline
 70
0
 71
3
 72
10
 73
6
 74
4
 40
0.000000
 40
0.000000
 40
0.000000
 40
0.000000
 40
2.923522
 40
5.996592
 40
8.920114
 40
8.920114
 40
8.920114
 40
8.920114
 10
87.548006
 20
286.323727
 30
0.0
 10
88.002345
 20
287.195279
 30
0.0
 10
88.934264
 20
288.982966
 30
0.0
 10
91.491763
 20
290.791363
 30
0.0
 10
93.487853
 20
291.074063
 30
0.0
 10
94.461008
 20
291.211887
 30
0.0
 11
87.548006
 21
286.323727
 31
0.0
 11
89.098171
 21
288.802430
 31
0.0
 11
91.607334
 21
290.576651
 31
0.0
 11
94.461008
 21
291.211887
 31
0.0
  0
LWPOLYLINE
  5
170
100
AcDbEntity
  8
0
 62
5
100
AcDbPolyline
 90
4
 70
0
 10
81.763980
 20
277.394807
 30
0.0
 10
89.829149
 20
283.097660
 30
0.0
 10
89.503273
 20
283.558527
 30
0.0
 10
88.120672
 20
282.580895
 30
0.0
  0
LWPOLYLINE
  5
171
100
AcDbEntity
  8
0
 62
5
100
AcDbPolyline
 90
4
 70
0
 10
97.798873
 20
289.424318
 30
0.0
 10
96.416272
 20
288.446687
 30
0.0
 10
96.742151
 20
287.985820
 30
0.0
 10
104.807317
 20
293.688673
 30
0.0
  0
LWPOLYLINE
  5
172
100
AcDbEntity
  8
0
 62
1
100
AcDbPolyline
 90
2
 70
0
 10
91.442182
 20
284.238231
 30
0.0
 10
95.129116
 20
286.845249
 30
0.0
  0
LWPOLYLINE
  5
173
100
AcDbEntity
  8
0
 62
5
100
AcDbPolyline
 90
5
 70
0
 10
81.764149
 20
277.394567
 30
0.0
 10
76.107804
 20
276.061465
 30
0.0
 10
73.400158
 20
259.229652
 30
0.0
 10
75.619314
 20
255.669049
 30
0.0
 10
74.083105
 20
250.237669
 30
0.0
  0
LWPOLYLINE
  5
174
100
AcDbEntity
  8
0
 62
5
100
AcDbPolyline
 90
4
 70
0
 10
81.964372
 20
274.991584
 30
0.0
 10
80.299286
 20
274.289360
 30
0.0
 10
77.534110
 20
264.512878
 30
0.0
 10
78.584713
 20
263.042548
 30
0.0
  0
LWPOLYLINE
  5
175
100
AcDbEntity
  8
0
 62
1
100
AcDbPolyline
 90
2
 70
0
 10
81.764149
 20
277.394567
 30
0.0
 10
81.149664
 20
275.222015
 30
0.0
  0
LWPOLYLINE
  5
176
100
AcDbEntity
  8
0
 62
1
100
AcDbPolyline
 90
2
 70
0
 10
75.619314
 20
255.669049
 30
0.0
 10
77.770005
 20
263.272980
 30
0.0
  0
SPLINE
  5
177
100
AcDbEntity
  8
0
 62
5
100
AcDbSpline
 70
0
 71
3
 72
10
 73
6
 74
4
 40
0.000000
 40
0.000000
 40
0.000000
 40
0.000000
 40
1.743678
 40
3.211815
 40
3.851393
 40
3.851393
 40
3.851393
 40
3.851393
 10
94.461008
 20
291.211887
 30
0.0
 10
95.034072
 20
291.082018
 30
0.0
 10
96.089641
 20
290.842801
 30
0.0
 10
97.143544
 20
290.061995
 30
0.0
 10
97.646311
 20
289.572771
 30
0.0
 10
97.798873
 20
289.424318
 30
0.0
 11
94.461008
 21
291.211887
 31
0.0
 11
96.128124
 21
290.700870
 31
0.0
 11
97.334372
 21
289.863975
 31
0.0
 11
97.798873
 21
289.424318
 31
0.0
  0
SPLINE
  5
178
100
AcDbEntity
  8
0
 62
5
100
AcDbSpline
 70
0
 71
3
 72
10
 73
6
 74
4
 40
0.000000
 40
0.000000
 40
0.000000
 40
0.000000
 40
0.280475
 40
1.083632
 40
2.425813
 40
2.425813
 40
2.425813
 40
2.425813
 10
70.862337
 20
263.698201
 30
0.0
 10
70.932952
 20
263.759656
 30
0.0
 10
71.205780
 20
263.997091
 30
0.0
 10
71.663137
 20
264.682600
 30
0.0
 10
71.889357
 20
265.362875
 30
0.0
 10
72.030886
 20
265.788474
 30
0.0
 11
70.862337
 21
263.698201
 31
0.0
 11
71.069593
 21
263.887174
 31
0.0
 11
71.536527
 21
264.540652
 31
0.0
 11
72.030886
 21
265.788474
 31
0.0
  0
SPLINE
  5
179
100
AcDbEntity
  8
0
 62
5
100
AcDbSpline
 70
0
 71
3
 72
10
 73
6
 74
4
 40
0.000000
 40
0.000000
 40
0.000000
 40
0.000000
 40
2.614608
 40
5.390002
 40
7.950649
 40
7.950649
 40
7.950649
 40
7.950649
 10
72.030886
 20
265.788474
 30
0.0
 10
72.082556
 20
266.658638
 30
0.0
 10
72.189073
 20
268.452478
 30
0.0
 10
72.192067
 20
271.103919
 30
0.0
 10
72.149825
 20
272.882029
 30
0.0
 10
72.129554
 20
273.735304
 30
0.0
 11
72.030886
 21
265.788474
 31
0.0
 11
72.161309
 21
268.399828
 31
0.0
 11
72.180177
 21
271.175157
 31
0.0
 11
72.129554
 21
273.735304
 31
0.0
  0
LWPOLYLINE
  5
17a
100
AcDbEntity
  8
0
 62
5
100
AcDbPolyline
 90
4
 70
0
 10
74.082904
 20
250.237725
 30
0.0
 10
69.858337
 20
265.173992
 30
0.0
 10
70.401476
 20
265.327611
 30
0.0
 10
70.862337
 20
263.698201
 30
0.0
  0
LWPOLYLINE
  5
17b
100
AcDbEntity
  8
0
 62
5
100
AcDbPolyline
 90
4
 70
0
 10
67.636305
 20
275.104076
 30
0.0
 10
68.097166
 20
273.474665
 30
0.0
 10
67.554029
 20
273.321045
 30
0.0
 10
66.401874
 20
277.394572
 30
0.0
  0
LWPOLYLINE
  5
17c
100
AcDbEntity
  8
0
 62
1
100
AcDbPolyline
 90
2
 70
0
 10
69.320667
 20
267.074970
 30
0.0
 10
68.091702
 20
271.420066
 30
0.0
  0
LWPOLYLINE
  5
17d
100
AcDbEntity
  8
0
 62
5
100
AcDbPolyline
 90
4
 70
0
 10
43.358387
 20
261.100608
 30
0.0
 10
44.871228
 20
268.737660
 30
0.0
 10
58.697312
 20
278.514034
 30
0.0
 10
66.401857
 20
277.394567
 30
0.0
  0
LWPOLYLINE
  5
17e
100
AcDbEntity
  8
0
 62
5
100
AcDbPolyline
 90
4
 70
0
 10
50.299377
 20
264.971613
 30
0.0
 10
50.406419
 20
266.775544
 30
0.0
 10
58.702067
 20
272.641370
 30
0.0
 10
60.438504
 20
272.140954
 30
0.0
  0
LWPOLYLINE
  5
17f
100
AcDbEntity
  8
0
 62
1
100
AcDbPolyline
 90
2
 70
0
 10
43.358387
 20
261.100608
 30
0.0
 10
49.810560
 20
265.662917
 30
0.0
  0
LWPOLYLINE
  5
180
100
AcDbEntity
  8
0
 62
1
100
AcDbPolyline
 90
2
 70
0
 10
66.401857
 20
277.394567
 30
0.0
 10
59.949687
 20
272.832258
 30
0.0
  0
LWPOLYLINE
  5
181
100
AcDbEntity
  8
0
 62
1
100
AcDbPolyline
 90
3
 70
0
 10
51.039734
 20
233.943639
 30
0.0
 10
74.082896
 20
250.237739
 30
0.0
 10
97.126340
 20
233.943639
 30
0.0
  0
LWPOLYLINE
  5
182
100
AcDbEntity
  8
0
 62
1
100
AcDbPolyline
 90
3
 70
0
 10
81.764138
 20
277.394573
 30
0.0
 10
104.807300
 20
261.100473
 30
0.0
 10
127.850745
 20
277.394573
 30
0.0
  0
LWPOLYLINE
  5
183
100
AcDbEntity
  8
0
 62
1
100
AcDbPolyline
 90
3
 70
0
 10
112.488543
 20
233.943639
 30
0.0
 10
135.531987
 20
250.237739
 30
0.0
 10
158.575149
 20
233.943639
 30
0.0
  0
LWPOLYLINE
  5
184
100
AcDbEntity
  8
0
 62
1
100
AcDbPolyline
 90
3
 70
0
 10
143.212947
 20
277.394573
 30
0.0
 10
166.256391
 20
261.100473
 30
0.0
 10
189.299836
 20
277.394573
 30
0.0
  0
LWPOLYLINE
  5
185
100
AcDbEntity
  8
0
 62
1
100
AcDbPolyline
 90
3
 70
0
 10
173.937351
 20
233.943639
 30
0.0
 10
196.980796
 20
250.237739
 30
0.0
 10
220.024240
 20
233.943639
 30
0.0
  0
SPLINE
  5
186
100
AcDbEntity
  8
0
 62
5
100
AcDbSpline
 70
0
 71
3
 72
10
 73
6
 74
4
 40
0.000000
 40
0.000000
 40
0.000000
 40
0.000000
 40
1.995473
 40
3.880810
 40
4.727733
 40
4.727733
 40
4.727733
 40
4.727733
 10
72.129554
 20
273.735304
 30
0.0
 10
71.534172
 20
274.038669
 30
0.0
 10
70.376269
 20
274.628656
 30
0.0
 10
68.817086
 20
274.940564
 30
0.0
 10
67.915707
 20
275.065385
 30
0.0
 10
67.636305
 20
275.104076
 30
0.0
 11
72.129554
 21
273.735304
 31
0.0
 11
70.311160
 21
274.557105
 31
0.0
 11
68.474483
 21
274.982676
 31
0.0
 11
67.636305
 21
275.104076
 31
0.0
  0
LWPOLYLINE
  5
187
100
AcDbEntity
  8
0
 62
1
100
AcDbPolyline
 90
2
 70
0
 10
204.662038
 20
277.394573
 30
0.0
 10
227.705200
 20
261.100473
 30
0.0
  0
ENDSEC
  0
SECTION
  2
OBJECTS
  0
DICTIONARY
  5
C
330
0
100
AcDbDictionary
  3
ACAD_GROUP
350
D
  3
ACAD_MLINESTYLE
350
17
  0
DICTIONARY
  5
D
330
C
100
AcDbDictionary
  0
DICTIONARY
  5
1A
330
C
100
AcDbDictionary
  0
DICTIONARY
  5
17
330
C
100
AcDbDictionary
  3
STANDARD
350
18
  0
DICTIONARY
  5
19
330
C
100
AcDbDictionary
  0
ENDSEC
  0
EOF
