999
DXF created by Inkscape
  0
SECTION
  2
HEADER
  9
$ACADVER
  1
AC1014
  9
$HANDSEED
  5
FFFF
  9
$MEASUREMENT
 70
     1
  0
ENDSEC
  0
SECTION
  2
TABLES
  0
TABLE
  2
VPORT
  5
8
330
0
100
AcDbSymbolTable
 70
     4
  0
VPORT
  5
2E
330
8
100
AcDbSymbolTableRecord
100
AcDbViewportTableRecord
  2
*ACTIVE
 70
     0
 10
0.0
 20
0.0
 11
1.0
 21
1.0
 12
210.0
 22
148.5
 13
0.0
 23
0.0
 14
10.0
 24
10.0
 15
10.0
 25
10.0
 16
0.0
 26
0.0
 36
1.0
 17
0.0
 27
0.0
 37
0.0
 40
341.0
 41
1.24
 42
50.0
 43
0.0
 44
0.0
 50
0.0
 51
0.0
 71
     0
 72
   100
 73
     1
 74
     3
 75
     0
 76
     0
 77
     0
 78
     0
  0
ENDTAB
  0
TABLE
  2
LTYPE
  5
5
330
0
100
AcDbSymbolTable
 70
     1
  0
LTYPE
  5
14
330
5
100
AcDbSymbolTableRecord
100
AcDbLinetypeTableRecord
  2
BYBLOCK
 70
     0
  3

 72
    65
 73
     0
 40
0.0
  0
LTYPE
  5
15
330
5
100
AcDbSymbolTableRecord
100
AcDbLinetypeTableRecord
  2
BYLAYER
 70
     0
  3

 72
    65
 73
     0
 40
0.0
  0
LTYPE
  5
16
330
5
100
AcDbSymbolTableRecord
100
AcDbLinetypeTableRecord
  2
CONTINUOUS
 70
     0
  3
Solid line
 72
    65
 73
     0
 40
0.0
  0
ENDTAB
  0
TABLE
  2
LAYER
  5
2
330
0
100
AcDbSymbolTable
 70
1
  0
LAYER
  5
10
330
2
100
AcDbSymbolTableRecord
100
AcDbLayerTableRecord
  2
0
 70
     0
 62
     7
  6
CONTINUOUS
  0
ENDTAB
  0
TABLE
  2
STYLE
  5
3
330
0
100
AcDbSymbolTable
 70
     1
  0
STYLE
  5
11
330
3
100
AcDbSymbolTableRecord
100
AcDbTextStyleTableRecord
  2
STANDARD
 70
     0
 40
0.0
 41
1.0
 50
0.0
 71
     0
 42
2.5
  3
txt
  4

  0
ENDTAB
  0
TABLE
  2
VIEW
  5
6
330
0
100
AcDbSymbolTable
 70
     0
  0
ENDTAB
  0
TABLE
  2
UCS
  5
7
330
0
100
AcDbSymbolTable
 70
     0
  0
ENDTAB
  0
TABLE
  2
APPID
  5
9
330
0
100
AcDbSymbolTable
 70
     2
  0
APPID
  5
12
330
9
100
AcDbSymbolTableRecord
100
AcDbRegAppTableRecord
  2
ACAD
 70
     0
  0
ENDTAB
  0
TABLE
  2
DIMSTYLE
  5
A
330
0
100
AcDbSymbolTable
 70
     1
  0
DIMSTYLE
105
27
330
A
100
AcDbSymbolTableRecord
100
AcDbDimStyleTableRecord
  2
ISO-25
 70
     0
  3

  4

  5

  6

  7

 40
1.0
 41
2.5
 42
0.625
 43
3.75
 44
1.25
 45
0.0
 46
0.0
 47
0.0
 48
0.0
140
2.5
141
2.5
142
0.0
143
0.03937007874016
144
1.0
145
0.0
146
1.0
147
0.625
 71
     0
 72
     0
 73
     0
 74
     0
 75
     0
 76
     0
 77
     1
 78
     8
170
     0
171
     3
172
     1
173
     0
174
     0
175
     0
176
     0
177
     0
178
     0
270
     2
271
     2
272
     2
273
     2
274
     3
340
11
275
     0
280
     0
281
     0
282
     0
283
     0
284
     8
285
     0
286
     0
287
     3
288
     0
  0
ENDTAB
  0
TABLE
  2
BLOCK_RECORD
  5
1
330
0
100
AcDbSymbolTable
 70
     1
  0
BLOCK_RECORD
  5
1F
330
1
100
AcDbSymbolTableRecord
100
AcDbBlockTableRecord
  2
*MODEL_SPACE
  0
BLOCK_RECORD
  5
1B
330
1
100
AcDbSymbolTableRecord
100
AcDbBlockTableRecord
  2
*PAPER_SPACE
  0
ENDTAB
  0
ENDSEC
  0
SECTION
  2
BLOCKS
  0
BLOCK
  5
20
330
1F
100
AcDbEntity
  8
0
100
AcDbBlockBegin
  2
*MODEL_SPACE
 70
     0
 10
0.0
 20
0.0
 30
0.0
  3
*MODEL_SPACE
  1

  0
ENDBLK
  5
21
330
1F
100
AcDbEntity
  8
0
100
AcDbBlockEnd
  0
BLOCK
  5
1C
330
1B
100
AcDbEntity
 67
     1
  8
0
100
AcDbBlockBegin
  2
*PAPER_SPACE
  1

  0
ENDBLK
  5
1D
330
1B
100
AcDbEntity
 67
     1
  8
0
100
AcDbBlockEnd
  0
ENDSEC
  0
SECTION
  2
ENTITIES
  0
SPLINE
  5
100
100
AcDbEntity
  8
0
 62
5
100
AcDbSpline
 70
0
 71
3
 72
10
 73
6
 74
4
 40
0.000000
 40
0.000000
 40
0.000000
 40
0.000000
 40
0.639581
 40
2.107726
 40
3.851412
 40
3.851412
 40
3.851412
 40
3.851412
 10
-6.857006
 20
241.370165
 30
0.0
 10
-7.068944
 20
241.390071
 30
0.0
 10
-7.767382
 20
241.455672
 30
0.0
 10
-9.045142
 20
241.751839
 30
0.0
 10
-9.911641
 20
242.400409
 30
0.0
 10
-10.382058
 20
242.752514
 30
0.0
 11
-6.857006
 21
241.370165
 31
0.0
 11
-7.492897
 21
241.438768
 31
0.0
 11
-8.912132
 21
241.814560
 31
0.0
 11
-10.382058
 21
242.752514
 31
0.0
  0
SPLINE
  5
101
100
AcDbEntity
  8
0
 62
5
100
AcDbSpline
 70
0
 71
3
 72
10
 73
6
 74
4
 40
0.000000
 40
0.000000
 40
0.000000
 40
0.000000
 40
2.923538
 40
5.996625
 40
8.920162
 40
8.920162
 40
8.920162
 40
8.920162
 10
-10.382058
 20
242.752514
 30
0.0
 10
-10.908061
 20
243.582790
 30
0.0
 10
-11.986974
 20
245.285814
 30
0.0
 10
-12.268269
 20
248.405441
 30
0.0
 10
-11.511404
 20
250.273996
 30
0.0
 10
-11.142409
 20
251.184973
 30
0.0
 11
-10.382058
 21
242.752514
 31
0.0
 11
-11.748571
 21
245.337029
 31
0.0
 11
-12.024551
 21
248.397699
 31
0.0
 11
-11.142409
 21
251.184973
 31
0.0
  0
LWPOLYLINE
  5
102
100
AcDbEntity
  8
0
 62
5
100
AcDbPolyline
 90
4
 70
0
 10
-5.559836
 20
233.269481
 30
0.0
 10
-6.446912
 20
243.107347
 30
0.0
 10
-7.009076
 20
243.056657
 30
0.0
 10
-6.857006
 20
241.370165
 30
0.0
  0
LWPOLYLINE
  5
103
100
AcDbEntity
  8
0
 62
5
100
AcDbPolyline
 90
4
 70
0
 10
-7.921497
 20
253.175602
 30
0.0
 10
-7.769427
 20
251.489113
 30
0.0
 10
-7.207263
 20
251.539802
 30
0.0
 10
-8.094339
 20
261.377666
 30
0.0
  0
LWPOLYLINE
  5
104
100
AcDbEntity
  8
0
 62
1
100
AcDbPolyline
 90
2
 70
0
 10
-6.624327
 20
245.074918
 30
0.0
 10
-7.029848
 20
249.572228
 30
0.0
  0
LWPOLYLINE
  5
105
100
AcDbEntity
  8
0
 62
5
100
AcDbPolyline
 90
4
 70
0
 10
-5.559827
 20
233.269484
 30
0.0
 10
-11.407282
 20
228.129401
 30
0.0
 10
-12.927984
 20
211.264490
 30
0.0
 10
-8.094329
 20
205.161296
 30
0.0
  0
LWPOLYLINE
  5
106
100
AcDbEntity
  8
0
 62
5
100
AcDbPolyline
 90
4
 70
0
 10
-5.426242
 20
225.323156
 30
0.0
 10
-6.933031
 20
224.325554
 30
0.0
 10
-7.845452
 20
214.206606
 30
0.0
 10
-6.541423
 20
212.955554
 30
0.0
  0
LWPOLYLINE
  5
107
100
AcDbEntity
  8
0
 62
1
100
AcDbPolyline
 90
2
 70
0
 10
-5.559827
 20
233.269484
 30
0.0
 10
-6.269487
 20
225.399192
 30
0.0
  0
LWPOLYLINE
  5
108
100
AcDbEntity
  8
0
 62
1
100
AcDbPolyline
 90
2
 70
0
 10
-8.094329
 20
205.161296
 30
0.0
 10
-7.384668
 20
213.031591
 30
0.0
  0
SPLINE
  5
109
100
AcDbEntity
  8
0
 62
5
100
AcDbSpline
 70
0
 71
3
 72
10
 73
6
 74
4
 40
0.000000
 40
0.000000
 40
0.000000
 40
0.000000
 40
1.743686
 40
3.211830
 40
3.851411
 40
3.851411
 40
3.851411
 40
3.851411
 10
-11.142409
 20
251.184973
 30
0.0
 10
-10.742565
 20
251.615549
 30
0.0
 10
-10.006063
 20
252.408661
 30
0.0
 10
-8.801892
 20
252.928621
 30
0.0
 10
-8.126455
 20
253.118104
 30
0.0
 10
-7.921497
 20
253.175602
 30
0.0
 11
-11.142409
 21
251.184973
 31
0.0
 11
-9.863979
 21
252.370745
 31
0.0
 11
-8.534859
 21
252.994355
 31
0.0
 11
-7.921497
 21
253.175602
 31
0.0
  0
SPLINE
  5
10a
100
AcDbEntity
  8
0
 62
5
100
AcDbSpline
 70
0
 71
3
 72
10
 73
6
 74
4
 40
0.000000
 40
0.000000
 40
0.000000
 40
0.000000
 40
0.639580
 40
2.107722
 40
3.851408
 40
3.851408
 40
3.851408
 40
3.851408
 10
-1.428990
 20
200.378338
 30
0.0
 10
-1.505967
 20
200.179873
 30
0.0
 10
-1.759642
 20
199.525834
 30
0.0
 10
-2.066176
 20
198.250523
 30
0.0
 10
-1.873587
 20
197.185454
 30
0.0
 10
-1.769032
 20
196.607234
 30
0.0
 11
-1.428990
 21
200.378338
 31
0.0
 11
-1.652009
 21
199.778901
 31
0.0
 11
-1.950592
 21
198.341441
 31
0.0
 11
-1.769032
 21
196.607234
 31
0.0
  0
SPLINE
  5
10b
100
AcDbEntity
  8
0
 62
5
100
AcDbSpline
 70
0
 71
3
 72
10
 73
6
 74
4
 40
0.000000
 40
0.000000
 40
0.000000
 40
0.000000
 40
2.923533
 40
5.996615
 40
8.920149
 40
8.920149
 40
8.920149
 40
8.920149
 10
-1.769032
 20
196.607234
 30
0.0
 10
-1.261648
 20
195.765453
 30
0.0
 10
-0.220925
 20
194.038831
 30
0.0
 10
2.443551
 20
192.392093
 30
0.0
 10
4.453314
 20
192.233410
 30
0.0
 10
5.433135
 20
192.156047
 30
0.0
 11
-1.769032
 21
196.607234
 31
0.0
 11
-0.068500
 21
194.229160
 31
0.0
 11
2.545620
 21
192.613544
 31
0.0
 11
5.433135
 21
192.156047
 31
0.0
  0
LWPOLYLINE
  5
10c
100
AcDbEntity
  8
0
 62
5
100
AcDbPolyline
 90
4
 70
0
 10
-8.094339
 20
205.161299
 30
0.0
 10
0.308190
 20
199.968246
 30
0.0
 10
0.011444
 20
199.488102
 30
0.0
 10
-1.428990
 20
200.378338
 30
0.0
  0
LWPOLYLINE
  5
10d
100
AcDbEntity
  8
0
 62
5
100
AcDbPolyline
 90
4
 70
0
 10
8.654044
 20
194.146677
 30
0.0
 10
7.213610
 20
195.036913
 30
0.0
 10
7.510356
 20
195.517057
 30
0.0
 10
15.912884
 20
190.324005
 30
0.0
  0
LWPOLYLINE
  5
10e
100
AcDbEntity
  8
0
 62
1
100
AcDbPolyline
 90
2
 70
0
 10
1.988695
 20
198.929635
 30
0.0
 10
5.829851
 20
196.555669
 30
0.0
  0
LWPOLYLINE
  5
10f
100
AcDbEntity
  8
0
 62
5
100
AcDbPolyline
 90
4
 70
0
 10
18.447409
 20
218.432223
 30
0.0
 10
23.281063
 20
212.329032
 30
0.0
 10
21.760362
 20
195.464121
 30
0.0
 10
15.912907
 20
190.324039
 30
0.0
  0
LWPOLYLINE
  5
110
100
AcDbEntity
  8
0
 62
5
100
AcDbPolyline
 90
4
 70
0
 10
16.894503
 20
210.637968
 30
0.0
 10
18.198532
 20
209.386914
 30
0.0
 10
17.286111
 20
199.267968
 30
0.0
 10
15.779322
 20
198.270367
 30
0.0
  0
LWPOLYLINE
  5
111
100
AcDbEntity
  8
0
 62
1
100
AcDbPolyline
 90
2
 70
0
 10
18.447409
 20
218.432223
 30
0.0
 10
17.737748
 20
210.561932
 30
0.0
  0
LWPOLYLINE
  5
112
100
AcDbEntity
  8
0
 62
1
100
AcDbPolyline
 90
2
 70
0
 10
15.912907
 20
190.324039
 30
0.0
 10
16.622567
 20
198.194330
 30
0.0
  0
SPLINE
  5
113
100
AcDbEntity
  8
0
 62
5
100
AcDbSpline
 70
0
 71
3
 72
10
 73
6
 74
4
 40
0.000000
 40
0.000000
 40
0.000000
 40
0.000000
 40
1.743685
 40
3.211828
 40
3.851408
 40
3.851408
 40
3.851408
 40
3.851408
 10
5.433135
 20
192.156047
 30
0.0
 10
5.997070
 20
192.321117
 30
0.0
 10
7.035825
 20
192.625173
 30
0.0
 10
8.039413
 20
193.469681
 30
0.0
 10
8.510956
 20
193.989070
 30
0.0
 10
8.654044
 20
194.146677
 30
0.0
 11
5.433135
 21
192.156047
 31
0.0
 11
7.065453
 21
192.769213
 31
0.0
 11
8.217627
 21
193.679126
 31
0.0
 11
8.654044
 21
194.146677
 31
0.0
  0
SPLINE
  5
114
100
AcDbEntity
  8
0
 62
5
100
AcDbSpline
 70
0
 71
3
 72
10
 73
6
 74
4
 40
0.000000
 40
0.000000
 40
0.000000
 40
0.000000
 40
0.639581
 40
2.107728
 40
3.851417
 40
3.851417
 40
3.851417
 40
3.851417
 10
25.706261
 20
222.254904
 30
0.0
 10
25.849349
 20
222.097297
 30
0.0
 10
26.320893
 20
221.577906
 30
0.0
 10
27.324484
 20
220.733397
 30
0.0
 10
28.363241
 20
220.429340
 30
0.0
 10
28.927177
 20
220.264269
 30
0.0
 11
25.706261
 21
222.254904
 31
0.0
 11
26.142678
 21
221.787352
 31
0.0
 11
27.294855
 21
220.877437
 31
0.0
 11
28.927177
 21
220.264269
 31
0.0
  0
SPLINE
  5
115
100
AcDbEntity
  8
0
 62
5
100
AcDbSpline
 70
0
 71
3
 72
10
 73
6
 74
4
 40
0.000000
 40
0.000000
 40
0.000000
 40
0.000000
 40
2.923542
 40
5.996633
 40
8.920175
 40
8.920175
 40
8.920175
 40
8.920175
 10
28.927177
 20
220.264269
 30
0.0
 10
29.907000
 20
220.341632
 30
0.0
 10
31.916769
 20
220.500316
 30
0.0
 10
34.581253
 20
222.147058
 30
0.0
 10
35.621978
 20
223.873686
 30
0.0
 10
36.129364
 20
224.715469
 30
0.0
 11
28.927177
 21
220.264269
 31
0.0
 11
31.814700
 21
220.721767
 31
0.0
 11
34.428827
 21
222.337388
 31
0.0
 11
36.129364
 21
224.715469
 31
0.0
  0
LWPOLYLINE
  5
116
100
AcDbEntity
  8
0
 62
5
100
AcDbPolyline
 90
4
 70
0
 10
18.447402
 20
218.432223
 30
0.0
 10
26.849951
 20
223.625290
 30
0.0
 10
27.146698
 20
223.145145
 30
0.0
 10
25.706261
 20
222.254904
 30
0.0
  0
LWPOLYLINE
  5
117
100
AcDbEntity
  8
0
 62
5
100
AcDbPolyline
 90
4
 70
0
 10
35.789320
 20
228.486585
 30
0.0
 10
34.348883
 20
227.596343
 30
0.0
 10
34.052137
 20
228.076490
 30
0.0
 10
42.454686
 20
233.269554
 30
0.0
  0
LWPOLYLINE
  5
118
100
AcDbEntity
  8
0
 62
1
100
AcDbPolyline
 90
2
 70
0
 10
28.530460
 20
224.663902
 30
0.0
 10
32.371625
 20
227.037876
 30
0.0
  0
LWPOLYLINE
  5
119
100
AcDbEntity
  8
0
 62
5
100
AcDbPolyline
 90
7
 70
0
 10
42.454728
 20
233.269484
 30
0.0
 10
45.316236
 20
233.578195
 30
0.0
 10
45.288606
 20
236.414356
 30
0.0
 10
43.422415
 20
237.716101
 30
0.0
 10
43.371722
 20
237.153937
 30
0.0
 10
42.809561
 20
237.204627
 30
0.0
 10
44.989231
 20
261.377654
 30
0.0
  0
LWPOLYLINE
  5
11a
100
AcDbEntity
  8
0
 62
1
100
AcDbPolyline
 90
2
 70
0
 10
42.556111
 20
234.393809
 30
0.0
 10
42.708181
 20
236.080299
 30
0.0
  0
LWPOLYLINE
  5
11b
100
AcDbEntity
  8
0
 62
5
100
AcDbPolyline
 90
8
 70
0
 10
44.989084
 20
261.377668
 30
0.0
 10
46.763237
 20
241.701931
 30
0.0
 10
44.846353
 20
240.962351
 30
0.0
 10
44.818723
 20
238.126187
 30
0.0
 10
46.631942
 20
236.872846
 30
0.0
 10
46.581252
 20
237.435010
 30
0.0
 10
47.143413
 20
237.485700
 30
0.0
 10
47.523589
 20
233.269472
 30
0.0
  0
LWPOLYLINE
  5
11c
100
AcDbEntity
  8
0
 62
1
100
AcDbPolyline
 90
2
 70
0
 10
46.864617
 20
240.577603
 30
0.0
 10
47.042030
 20
238.610028
 30
0.0
  0
LWPOLYLINE
  5
11d
100
AcDbEntity
  8
0
 62
5
100
AcDbPolyline
 90
4
 70
0
 10
47.523722
 20
233.269484
 30
0.0
 10
41.676264
 20
228.129399
 30
0.0
 10
40.155563
 20
211.264482
 30
0.0
 10
44.989219
 20
205.161288
 30
0.0
  0
LWPOLYLINE
  5
11e
100
AcDbEntity
  8
0
 62
5
100
AcDbPolyline
 90
4
 70
0
 10
47.657306
 20
225.323153
 30
0.0
 10
46.150516
 20
224.325551
 30
0.0
 10
45.238094
 20
214.206600
 30
0.0
 10
46.542125
 20
212.955546
 30
0.0
  0
LWPOLYLINE
  5
11f
100
AcDbEntity
  8
0
 62
1
100
AcDbPolyline
 90
2
 70
0
 10
47.523722
 20
233.269484
 30
0.0
 10
46.814060
 20
225.399189
 30
0.0
  0
LWPOLYLINE
  5
120
100
AcDbEntity
  8
0
 62
1
100
AcDbPolyline
 90
2
 70
0
 10
44.989219
 20
205.161288
 30
0.0
 10
45.698878
 20
213.031582
 30
0.0
  0
SPLINE
  5
121
100
AcDbEntity
  8
0
 62
5
100
AcDbSpline
 70
0
 71
3
 72
10
 73
6
 74
4
 40
0.000000
 40
0.000000
 40
0.000000
 40
0.000000
 40
1.743690
 40
3.211838
 40
3.851420
 40
3.851420
 40
3.851420
 40
3.851420
 10
36.129364
 20
224.715469
 30
0.0
 10
36.233919
 20
225.293691
 30
0.0
 10
36.426508
 20
226.358763
 30
0.0
 10
36.119973
 20
227.634078
 30
0.0
 10
35.866297
 20
228.288119
 30
0.0
 10
35.789320
 20
228.486585
 30
0.0
 11
36.129364
 21
224.715469
 31
0.0
 11
36.310924
 21
226.449681
 31
0.0
 11
36.012339
 21
227.887146
 31
0.0
 11
35.789320
 21
228.486585
 31
0.0
  0
SPLINE
  5
122
100
AcDbEntity
  8
0
 62
5
100
AcDbSpline
 70
0
 71
3
 72
10
 73
6
 74
4
 40
0.000000
 40
0.000000
 40
0.000000
 40
0.000000
 40
0.639579
 40
2.107722
 40
3.851405
 40
3.851405
 40
3.851405
 40
3.851405
 10
51.654428
 20
200.378344
 30
0.0
 10
51.577451
 20
200.179878
 30
0.0
 10
51.323775
 20
199.525840
 30
0.0
 10
51.017242
 20
198.250530
 30
0.0
 10
51.209831
 20
197.185462
 30
0.0
 10
51.314387
 20
196.607242
 30
0.0
 11
51.654428
 21
200.378344
 31
0.0
 11
51.431409
 21
199.778907
 31
0.0
 11
51.132825
 21
198.341448
 31
0.0
 11
51.314387
 21
196.607242
 31
0.0
  0
SPLINE
  5
123
100
AcDbEntity
  8
0
 62
5
100
AcDbSpline
 70
0
 71
3
 72
10
 73
6
 74
4
 40
0.000000
 40
0.000000
 40
0.000000
 40
0.000000
 40
2.923530
 40
5.996610
 40
8.920141
 40
8.920141
 40
8.920141
 40
8.920141
 10
51.314387
 20
196.607242
 30
0.0
 10
51.821770
 20
195.765462
 30
0.0
 10
52.862490
 20
194.038840
 30
0.0
 10
55.526964
 20
192.392104
 30
0.0
 10
57.536725
 20
192.233421
 30
0.0
 10
58.516545
 20
192.156059
 30
0.0
 11
51.314387
 21
196.607242
 31
0.0
 11
53.014916
 21
194.229169
 31
0.0
 11
55.629033
 21
192.613555
 31
0.0
 11
58.516545
 21
192.156059
 31
0.0
  0
LWPOLYLINE
  5
124
100
AcDbEntity
  8
0
 62
5
100
AcDbPolyline
 90
4
 70
0
 10
44.989084
 20
205.161299
 30
0.0
 10
53.391604
 20
199.968249
 30
0.0
 10
53.094859
 20
199.488107
 30
0.0
 10
51.654428
 20
200.378344
 30
0.0
  0
LWPOLYLINE
  5
125
100
AcDbEntity
  8
0
 62
5
100
AcDbPolyline
 90
4
 70
0
 10
61.737452
 20
194.146685
 30
0.0
 10
60.297020
 20
195.036921
 30
0.0
 10
60.593766
 20
195.517066
 30
0.0
 10
68.996286
 20
190.324016
 30
0.0
  0
LWPOLYLINE
  5
126
100
AcDbEntity
  8
0
 62
1
100
AcDbPolyline
 90
2
 70
0
 10
55.072108
 20
198.929640
 30
0.0
 10
58.913262
 20
196.555675
 30
0.0
  0
LWPOLYLINE
  5
127
100
AcDbEntity
  8
0
 62
5
100
AcDbPolyline
 90
4
 70
0
 10
71.530805
 20
218.432237
 30
0.0
 10
76.364462
 20
212.329044
 30
0.0
 10
74.843761
 20
195.464124
 30
0.0
 10
68.996303
 20
190.324041
 30
0.0
  0
LWPOLYLINE
  5
128
100
AcDbEntity
  8
0
 62
5
100
AcDbPolyline
 90
4
 70
0
 10
69.977897
 20
210.637976
 30
0.0
 10
71.281928
 20
209.386925
 30
0.0
 10
70.369506
 20
199.267974
 30
0.0
 10
68.862716
 20
198.270369
 30
0.0
  0
LWPOLYLINE
  5
129
100
AcDbEntity
  8
0
 62
1
100
AcDbPolyline
 90
2
 70
0
 10
71.530805
 20
218.432237
 30
0.0
 10
70.821144
 20
210.561943
 30
0.0
  0
LWPOLYLINE
  5
12a
100
AcDbEntity
  8
0
 62
1
100
AcDbPolyline
 90
2
 70
0
 10
68.996303
 20
190.324041
 30
0.0
 10
69.705962
 20
198.194336
 30
0.0
  0
SPLINE
  5
12b
100
AcDbEntity
  8
0
 62
5
100
AcDbSpline
 70
0
 71
3
 72
10
 73
6
 74
4
 40
0.000000
 40
0.000000
 40
0.000000
 40
0.000000
 40
1.743683
 40
3.211825
 40
3.851405
 40
3.851405
 40
3.851405
 40
3.851405
 10
58.516545
 20
192.156059
 30
0.0
 10
59.080480
 20
192.321129
 30
0.0
 10
60.119234
 20
192.625183
 30
0.0
 10
61.122821
 20
193.469690
 30
0.0
 10
61.594364
 20
193.989079
 30
0.0
 10
61.737452
 20
194.146685
 30
0.0
 11
58.516545
 21
192.156059
 31
0.0
 11
60.148863
 21
192.769224
 31
0.0
 11
61.301036
 21
193.679135
 31
0.0
 11
61.737452
 21
194.146685
 31
0.0
  0
SPLINE
  5
12c
100
AcDbEntity
  8
0
 62
5
100
AcDbSpline
 70
0
 71
3
 72
10
 73
6
 74
4
 40
0.000000
 40
0.000000
 40
0.000000
 40
0.000000
 40
0.639580
 40
2.107723
 40
3.851406
 40
3.851406
 40
3.851406
 40
3.851406
 10
78.789773
 20
222.254892
 30
0.0
 10
78.932860
 20
222.097286
 30
0.0
 10
79.404403
 20
221.577896
 30
0.0
 10
80.407990
 20
220.733389
 30
0.0
 10
81.446745
 20
220.429333
 30
0.0
 10
82.010679
 20
220.264263
 30
0.0
 11
78.789773
 21
222.254892
 31
0.0
 11
79.226189
 21
221.787342
 31
0.0
 11
80.378361
 21
220.877429
 31
0.0
 11
82.010679
 21
220.264263
 31
0.0
  0
SPLINE
  5
12d
100
AcDbEntity
  8
0
 62
5
100
AcDbSpline
 70
0
 71
3
 72
10
 73
6
 74
4
 40
0.000000
 40
0.000000
 40
0.000000
 40
0.000000
 40
2.923531
 40
5.996612
 40
8.920144
 40
8.920144
 40
8.920144
 40
8.920144
 10
82.010679
 20
220.264263
 30
0.0
 10
82.990499
 20
220.341626
 30
0.0
 10
85.000261
 20
220.500309
 30
0.0
 10
87.664735
 20
222.147047
 30
0.0
 10
88.705457
 20
223.873669
 30
0.0
 10
89.212841
 20
224.715450
 30
0.0
 11
82.010679
 21
220.264263
 31
0.0
 11
84.898191
 21
220.721760
 31
0.0
 11
87.512310
 21
222.337376
 31
0.0
 11
89.212841
 21
224.715450
 31
0.0
  0
LWPOLYLINE
  5
12e
100
AcDbEntity
  8
0
 62
5
100
AcDbPolyline
 90
4
 70
0
 10
71.530938
 20
218.432223
 30
0.0
 10
79.933459
 20
223.625273
 30
0.0
 10
80.230204
 20
223.145128
 30
0.0
 10
78.789773
 20
222.254892
 30
0.0
  0
LWPOLYLINE
  5
12f
100
AcDbEntity
  8
0
 62
5
100
AcDbPolyline
 90
4
 70
0
 10
88.872797
 20
228.486548
 30
0.0
 10
87.432365
 20
227.596312
 30
0.0
 10
87.135620
 20
228.076457
 30
0.0
 10
95.538140
 20
233.269506
 30
0.0
  0
LWPOLYLINE
  5
130
100
AcDbEntity
  8
0
 62
1
100
AcDbPolyline
 90
2
 70
0
 10
81.613962
 20
224.663882
 30
0.0
 10
85.455117
 20
227.037848
 30
0.0
  0
LWPOLYLINE
  5
131
100
AcDbEntity
  8
0
 62
5
100
AcDbPolyline
 90
7
 70
0
 10
95.538155
 20
233.269484
 30
0.0
 10
98.399662
 20
233.578195
 30
0.0
 10
98.372033
 20
236.414362
 30
0.0
 10
96.505838
 20
237.716104
 30
0.0
 10
96.455148
 20
237.153940
 30
0.0
 10
95.892984
 20
237.204630
 30
0.0
 10
98.072657
 20
261.377680
 30
0.0
  0
LWPOLYLINE
  5
132
100
AcDbEntity
  8
0
 62
1
100
AcDbPolyline
 90
2
 70
0
 10
95.639534
 20
234.393809
 30
0.0
 10
95.791604
 20
236.080301
 30
0.0
  0
LWPOLYLINE
  5
133
100
AcDbEntity
  8
0
 62
5
100
AcDbPolyline
 90
8
 70
0
 10
98.072789
 20
261.377668
 30
0.0
 10
99.846940
 20
241.701948
 30
0.0
 10
97.930058
 20
240.962370
 30
0.0
 10
97.902429
 20
238.126206
 30
0.0
 10
99.715645
 20
236.872869
 30
0.0
 10
99.664955
 20
237.435033
 30
0.0
 10
100.227119
 20
237.485723
 30
0.0
 10
100.607292
 20
233.269498
 30
0.0
  0
LWPOLYLINE
  5
134
100
AcDbEntity
  8
0
 62
1
100
AcDbPolyline
 90
2
 70
0
 10
99.948320
 20
240.577623
 30
0.0
 10
100.125736
 20
238.610048
 30
0.0
  0
LWPOLYLINE
  5
135
100
AcDbEntity
  8
0
 62
5
100
AcDbPolyline
 90
4
 70
0
 10
100.607145
 20
233.269484
 30
0.0
 10
94.759693
 20
228.129404
 30
0.0
 10
93.238992
 20
211.264501
 30
0.0
 10
98.072643
 20
205.161313
 30
0.0
  0
LWPOLYLINE
  5
136
100
AcDbEntity
  8
0
 62
5
100
AcDbPolyline
 90
4
 70
0
 10
100.740729
 20
225.323161
 30
0.0
 10
99.233942
 20
224.325560
 30
0.0
 10
98.321520
 20
214.206617
 30
0.0
 10
99.625551
 20
212.955566
 30
0.0
  0
LWPOLYLINE
  5
137
100
AcDbEntity
  8
0
 62
1
100
AcDbPolyline
 90
2
 70
0
 10
100.607145
 20
233.269484
 30
0.0
 10
99.897486
 20
225.399195
 30
0.0
  0
LWPOLYLINE
  5
138
100
AcDbEntity
  8
0
 62
1
100
AcDbPolyline
 90
2
 70
0
 10
98.072643
 20
205.161313
 30
0.0
 10
98.782305
 20
213.031599
 30
0.0
  0
SPLINE
  5
139
100
AcDbEntity
  8
0
 62
5
100
AcDbSpline
 70
0
 71
3
 72
10
 73
6
 74
4
 40
0.000000
 40
0.000000
 40
0.000000
 40
0.000000
 40
1.743681
 40
3.211823
 40
3.851402
 40
3.851402
 40
3.851402
 40
3.851402
 10
89.212841
 20
224.715450
 30
0.0
 10
89.317395
 20
225.293669
 30
0.0
 10
89.509983
 20
226.358736
 30
0.0
 10
89.203449
 20
227.634045
 30
0.0
 10
88.949774
 20
228.288083
 30
0.0
 10
88.872797
 20
228.486548
 30
0.0
 11
89.212841
 21
224.715450
 31
0.0
 11
89.394400
 21
226.449653
 31
0.0
 11
89.095816
 21
227.887111
 31
0.0
 11
88.872797
 21
228.486548
 31
0.0
  0
SPLINE
  5
13a
100
AcDbEntity
  8
0
 62
5
100
AcDbSpline
 70
0
 71
3
 72
10
 73
6
 74
4
 40
0.000000
 40
0.000000
 40
0.000000
 40
0.000000
 40
0.639579
 40
2.107722
 40
3.851405
 40
3.851405
 40
3.851405
 40
3.851405
 10
104.738133
 20
200.378344
 30
0.0
 10
104.661156
 20
200.179878
 30
0.0
 10
104.407481
 20
199.525840
 30
0.0
 10
104.100947
 20
198.250530
 30
0.0
 10
104.293536
 20
197.185462
 30
0.0
 10
104.398092
 20
196.607242
 30
0.0
 11
104.738133
 21
200.378344
 31
0.0
 11
104.515114
 21
199.778907
 31
0.0
 11
104.216531
 21
198.341448
 31
0.0
 11
104.398092
 21
196.607242
 31
0.0
  0
SPLINE
  5
13b
100
AcDbEntity
  8
0
 62
5
100
AcDbSpline
 70
0
 71
3
 72
10
 73
6
 74
4
 40
0.000000
 40
0.000000
 40
0.000000
 40
0.000000
 40
2.923530
 40
5.996610
 40
8.920141
 40
8.920141
 40
8.920141
 40
8.920141
 10
104.398092
 20
196.607242
 30
0.0
 10
104.905475
 20
195.765462
 30
0.0
 10
105.946196
 20
194.038840
 30
0.0
 10
108.610670
 20
192.392104
 30
0.0
 10
110.620431
 20
192.233421
 30
0.0
 10
111.600251
 20
192.156059
 30
0.0
 11
104.398092
 21
196.607242
 31
0.0
 11
106.098621
 21
194.229169
 31
0.0
 11
108.712739
 21
192.613555
 31
0.0
 11
111.600251
 21
192.156059
 31
0.0
  0
LWPOLYLINE
  5
13c
100
AcDbEntity
  8
0
 62
5
100
AcDbPolyline
 90
4
 70
0
 10
98.072789
 20
205.161299
 30
0.0
 10
106.475310
 20
199.968249
 30
0.0
 10
106.178564
 20
199.488107
 30
0.0
 10
104.738133
 20
200.378344
 30
0.0
  0
LWPOLYLINE
  5
13d
100
AcDbEntity
  8
0
 62
5
100
AcDbPolyline
 90
4
 70
0
 10
114.821157
 20
194.146685
 30
0.0
 10
113.380726
 20
195.036921
 30
0.0
 10
113.677471
 20
195.517066
 30
0.0
 10
122.079992
 20
190.324016
 30
0.0
  0
LWPOLYLINE
  5
13e
100
AcDbEntity
  8
0
 62
1
100
AcDbPolyline
 90
2
 70
0
 10
108.155813
 20
198.929640
 30
0.0
 10
111.996968
 20
196.555675
 30
0.0
  0
LWPOLYLINE
  5
13f
100
AcDbEntity
  8
0
 62
5
100
AcDbPolyline
 90
4
 70
0
 10
124.614508
 20
218.432212
 30
0.0
 10
129.448162
 20
212.329024
 30
0.0
 10
127.927461
 20
195.464118
 30
0.0
 10
122.080006
 20
190.324041
 30
0.0
  0
LWPOLYLINE
  5
140
100
AcDbEntity
  8
0
 62
5
100
AcDbPolyline
 90
4
 70
0
 10
123.061603
 20
210.637960
 30
0.0
 10
124.365631
 20
209.386908
 30
0.0
 10
123.453212
 20
199.267966
 30
0.0
 10
121.946422
 20
198.270364
 30
0.0
  0
LWPOLYLINE
  5
141
100
AcDbEntity
  8
0
 62
1
100
AcDbPolyline
 90
2
 70
0
 10
124.614508
 20
218.432212
 30
0.0
 10
123.904849
 20
210.561923
 30
0.0
  0
LWPOLYLINE
  5
142
100
AcDbEntity
  8
0
 62
1
100
AcDbPolyline
 90
2
 70
0
 10
122.080006
 20
190.324041
 30
0.0
 10
122.789668
 20
198.194327
 30
0.0
  0
SPLINE
  5
143
100
AcDbEntity
  8
0
 62
5
100
AcDbSpline
 70
0
 71
3
 72
10
 73
6
 74
4
 40
0.000000
 40
0.000000
 40
0.000000
 40
0.000000
 40
1.743683
 40
3.211825
 40
3.851405
 40
3.851405
 40
3.851405
 40
3.851405
 10
111.600251
 20
192.156059
 30
0.0
 10
112.164185
 20
192.321129
 30
0.0
 10
113.202939
 20
192.625183
 30
0.0
 10
114.206527
 20
193.469690
 30
0.0
 10
114.678070
 20
193.989079
 30
0.0
 10
114.821157
 20
194.146685
 30
0.0
 11
111.600251
 21
192.156059
 31
0.0
 11
113.232568
 21
192.769224
 31
0.0
 11
114.384741
 21
193.679135
 31
0.0
 11
114.821157
 21
194.146685
 31
0.0
  0
SPLINE
  5
144
100
AcDbEntity
  8
0
 62
5
100
AcDbSpline
 70
0
 71
3
 72
10
 73
6
 74
4
 40
0.000000
 40
0.000000
 40
0.000000
 40
0.000000
 40
0.639580
 40
2.107723
 40
3.851406
 40
3.851406
 40
3.851406
 40
3.851406
 10
131.873196
 20
222.254892
 30
0.0
 10
132.016284
 20
222.097286
 30
0.0
 10
132.487826
 20
221.577896
 30
0.0
 10
133.491414
 20
220.733389
 30
0.0
 10
134.530168
 20
220.429333
 30
0.0
 10
135.094102
 20
220.264263
 30
0.0
 11
131.873196
 21
222.254892
 31
0.0
 11
132.309612
 21
221.787342
 31
0.0
 11
133.461785
 21
220.877429
 31
0.0
 11
135.094102
 21
220.264263
 31
0.0
  0
SPLINE
  5
145
100
AcDbEntity
  8
0
 62
5
100
AcDbSpline
 70
0
 71
3
 72
10
 73
6
 74
4
 40
0.000000
 40
0.000000
 40
0.000000
 40
0.000000
 40
2.923531
 40
5.996612
 40
8.920144
 40
8.920144
 40
8.920144
 40
8.920144
 10
135.094102
 20
220.264263
 30
0.0
 10
136.073922
 20
220.341626
 30
0.0
 10
138.083684
 20
220.500309
 30
0.0
 10
140.748158
 20
222.147047
 30
0.0
 10
141.788880
 20
223.873669
 30
0.0
 10
142.296264
 20
224.715450
 30
0.0
 11
135.094102
 21
220.264263
 31
0.0
 11
137.981615
 21
220.721760
 31
0.0
 11
140.595733
 21
222.337376
 31
0.0
 11
142.296264
 21
224.715450
 31
0.0
  0
LWPOLYLINE
  5
146
100
AcDbEntity
  8
0
 62
5
100
AcDbPolyline
 90
4
 70
0
 10
124.614361
 20
218.432223
 30
0.0
 10
133.016882
 20
223.625273
 30
0.0
 10
133.313627
 20
223.145128
 30
0.0
 10
131.873196
 20
222.254892
 30
0.0
  0
LWPOLYLINE
  5
147
100
AcDbEntity
  8
0
 62
5
100
AcDbPolyline
 90
4
 70
0
 10
141.956220
 20
228.486548
 30
0.0
 10
140.515789
 20
227.596312
 30
0.0
 10
140.219043
 20
228.076457
 30
0.0
 10
148.621564
 20
233.269506
 30
0.0
  0
LWPOLYLINE
  5
148
100
AcDbEntity
  8
0
 62
1
100
AcDbPolyline
 90
2
 70
0
 10
134.697385
 20
224.663882
 30
0.0
 10
138.538540
 20
227.037848
 30
0.0
  0
LWPOLYLINE
  5
149
100
AcDbEntity
  8
0
 62
5
100
AcDbPolyline
 90
7
 70
0
 10
148.621578
 20
233.269484
 30
0.0
 10
151.483085
 20
233.578195
 30
0.0
 10
151.455456
 20
236.414362
 30
0.0
 10
149.589261
 20
237.716104
 30
0.0
 10
149.538571
 20
237.153940
 30
0.0
 10
148.976407
 20
237.204630
 30
0.0
 10
151.156080
 20
261.377680
 30
0.0
  0
LWPOLYLINE
  5
14a
100
AcDbEntity
  8
0
 62
1
100
AcDbPolyline
 90
2
 70
0
 10
148.722958
 20
234.393809
 30
0.0
 10
148.875028
 20
236.080301
 30
0.0
  0
LWPOLYLINE
  5
14b
100
AcDbEntity
  8
0
 62
5
100
AcDbPolyline
 90
8
 70
0
 10
151.156213
 20
261.377668
 30
0.0
 10
152.930363
 20
241.701948
 30
0.0
 10
151.013482
 20
240.962370
 30
0.0
 10
150.985852
 20
238.126206
 30
0.0
 10
152.799068
 20
236.872869
 30
0.0
 10
152.748378
 20
237.435033
 30
0.0
 10
153.310542
 20
237.485723
 30
0.0
 10
153.690715
 20
233.269498
 30
0.0
  0
LWPOLYLINE
  5
14c
100
AcDbEntity
  8
0
 62
1
100
AcDbPolyline
 90
2
 70
0
 10
153.031743
 20
240.577623
 30
0.0
 10
153.209159
 20
238.610048
 30
0.0
  0
LWPOLYLINE
  5
14d
100
AcDbEntity
  8
0
 62
5
100
AcDbPolyline
 90
4
 70
0
 10
153.690568
 20
233.269484
 30
0.0
 10
147.843116
 20
228.129404
 30
0.0
 10
146.322415
 20
211.264501
 30
0.0
 10
151.156069
 20
205.161313
 30
0.0
  0
LWPOLYLINE
  5
14e
100
AcDbEntity
  8
0
 62
5
100
AcDbPolyline
 90
4
 70
0
 10
153.824153
 20
225.323161
 30
0.0
 10
152.317365
 20
224.325560
 30
0.0
 10
151.404944
 20
214.206617
 30
0.0
 10
152.708974
 20
212.955566
 30
0.0
  0
LWPOLYLINE
  5
14f
100
AcDbEntity
  8
0
 62
1
100
AcDbPolyline
 90
2
 70
0
 10
153.690568
 20
233.269484
 30
0.0
 10
152.980909
 20
225.399195
 30
0.0
  0
LWPOLYLINE
  5
150
100
AcDbEntity
  8
0
 62
1
100
AcDbPolyline
 90
2
 70
0
 10
151.156069
 20
205.161313
 30
0.0
 10
151.865728
 20
213.031599
 30
0.0
  0
SPLINE
  5
151
100
AcDbEntity
  8
0
 62
5
100
AcDbSpline
 70
0
 71
3
 72
10
 73
6
 74
4
 40
0.000000
 40
0.000000
 40
0.000000
 40
0.000000
 40
1.743681
 40
3.211823
 40
3.851402
 40
3.851402
 40
3.851402
 40
3.851402
 10
142.296264
 20
224.715450
 30
0.0
 10
142.400819
 20
225.293669
 30
0.0
 10
142.593407
 20
226.358736
 30
0.0
 10
142.286873
 20
227.634045
 30
0.0
 10
142.033197
 20
228.288083
 30
0.0
 10
141.956220
 20
228.486548
 30
0.0
 11
142.296264
 21
224.715450
 31
0.0
 11
142.477823
 21
226.449653
 31
0.0
 11
142.179239
 21
227.887111
 31
0.0
 11
141.956220
 21
228.486548
 31
0.0
  0
SPLINE
  5
152
100
AcDbEntity
  8
0
 62
5
100
AcDbSpline
 70
0
 71
3
 72
10
 73
6
 74
4
 40
0.000000
 40
0.000000
 40
0.000000
 40
0.000000
 40
0.639579
 40
2.107722
 40
3.851405
 40
3.851405
 40
3.851405
 40
3.851405
 10
157.821557
 20
200.378344
 30
0.0
 10
157.744580
 20
200.179878
 30
0.0
 10
157.490904
 20
199.525840
 30
0.0
 10
157.184370
 20
198.250530
 30
0.0
 10
157.376960
 20
197.185462
 30
0.0
 10
157.481516
 20
196.607242
 30
0.0
 11
157.821557
 21
200.378344
 31
0.0
 11
157.598538
 21
199.778907
 31
0.0
 11
157.299954
 21
198.341448
 31
0.0
 11
157.481516
 21
196.607242
 31
0.0
  0
SPLINE
  5
153
100
AcDbEntity
  8
0
 62
5
100
AcDbSpline
 70
0
 71
3
 72
10
 73
6
 74
4
 40
0.000000
 40
0.000000
 40
0.000000
 40
0.000000
 40
2.923530
 40
5.996610
 40
8.920141
 40
8.920141
 40
8.920141
 40
8.920141
 10
157.481516
 20
196.607242
 30
0.0
 10
157.988899
 20
195.765462
 30
0.0
 10
159.029619
 20
194.038840
 30
0.0
 10
161.694093
 20
192.392104
 30
0.0
 10
163.703854
 20
192.233421
 30
0.0
 10
164.683674
 20
192.156059
 30
0.0
 11
157.481516
 21
196.607242
 31
0.0
 11
159.182044
 21
194.229169
 31
0.0
 11
161.796162
 21
192.613555
 31
0.0
 11
164.683674
 21
192.156059
 31
0.0
  0
LWPOLYLINE
  5
154
100
AcDbEntity
  8
0
 62
5
100
AcDbPolyline
 90
4
 70
0
 10
151.156213
 20
205.161299
 30
0.0
 10
159.558733
 20
199.968249
 30
0.0
 10
159.261988
 20
199.488107
 30
0.0
 10
157.821557
 20
200.378344
 30
0.0
  0
LWPOLYLINE
  5
155
100
AcDbEntity
  8
0
 62
5
100
AcDbPolyline
 90
4
 70
0
 10
167.904581
 20
194.146685
 30
0.0
 10
166.464149
 20
195.036921
 30
0.0
 10
166.760895
 20
195.517066
 30
0.0
 10
175.163415
 20
190.324016
 30
0.0
  0
LWPOLYLINE
  5
156
100
AcDbEntity
  8
0
 62
1
100
AcDbPolyline
 90
2
 70
0
 10
161.239237
 20
198.929640
 30
0.0
 10
165.080391
 20
196.555675
 30
0.0
  0
LWPOLYLINE
  5
157
100
AcDbEntity
  8
0
 62
5
100
AcDbPolyline
 90
4
 70
0
 10
177.697932
 20
218.432212
 30
0.0
 10
182.531585
 20
212.329024
 30
0.0
 10
181.010885
 20
195.464118
 30
0.0
 10
175.163429
 20
190.324041
 30
0.0
  0
LWPOLYLINE
  5
158
100
AcDbEntity
  8
0
 62
5
100
AcDbPolyline
 90
4
 70
0
 10
176.145026
 20
210.637960
 30
0.0
 10
177.449054
 20
209.386908
 30
0.0
 10
176.536635
 20
199.267966
 30
0.0
 10
175.029845
 20
198.270364
 30
0.0
  0
LWPOLYLINE
  5
159
100
AcDbEntity
  8
0
 62
1
100
AcDbPolyline
 90
2
 70
0
 10
177.697932
 20
218.432212
 30
0.0
 10
176.988272
 20
210.561923
 30
0.0
  0
LWPOLYLINE
  5
15a
100
AcDbEntity
  8
0
 62
1
100
AcDbPolyline
 90
2
 70
0
 10
175.163429
 20
190.324041
 30
0.0
 10
175.873091
 20
198.194327
 30
0.0
  0
SPLINE
  5
15b
100
AcDbEntity
  8
0
 62
5
100
AcDbSpline
 70
0
 71
3
 72
10
 73
6
 74
4
 40
0.000000
 40
0.000000
 40
0.000000
 40
0.000000
 40
1.743683
 40
3.211825
 40
3.851405
 40
3.851405
 40
3.851405
 40
3.851405
 10
164.683674
 20
192.156059
 30
0.0
 10
165.247608
 20
192.321129
 30
0.0
 10
166.286363
 20
192.625183
 30
0.0
 10
167.289950
 20
193.469690
 30
0.0
 10
167.761493
 20
193.989079
 30
0.0
 10
167.904581
 20
194.146685
 30
0.0
 11
164.683674
 21
192.156059
 31
0.0
 11
166.315992
 21
192.769224
 31
0.0
 11
167.468165
 21
193.679135
 31
0.0
 11
167.904581
 21
194.146685
 31
0.0
  0
SPLINE
  5
15c
100
AcDbEntity
  8
0
 62
5
100
AcDbSpline
 70
0
 71
3
 72
10
 73
6
 74
4
 40
0.000000
 40
0.000000
 40
0.000000
 40
0.000000
 40
0.639584
 40
2.107738
 40
3.851436
 40
3.851436
 40
3.851436
 40
3.851436
 10
184.956681
 20
222.254923
 30
0.0
 10
185.099770
 20
222.097316
 30
0.0
 10
185.571317
 20
221.577923
 30
0.0
 10
186.574912
 20
220.733409
 30
0.0
 10
187.613674
 20
220.429352
 30
0.0
 10
188.177613
 20
220.264280
 30
0.0
 11
184.956681
 21
222.254923
 31
0.0
 11
185.393101
 21
221.787370
 31
0.0
 11
186.545283
 21
220.877451
 31
0.0
 11
188.177613
 21
220.264280
 31
0.0
  0
SPLINE
  5
15d
100
AcDbEntity
  8
0
 62
5
100
AcDbSpline
 70
0
 71
3
 72
10
 73
6
 74
4
 40
0.000000
 40
0.000000
 40
0.000000
 40
0.000000
 40
2.923556
 40
5.996663
 40
8.920218
 40
8.920218
 40
8.920218
 40
8.920218
 10
188.177613
 20
220.264280
 30
0.0
 10
189.157442
 20
220.341643
 30
0.0
 10
191.167221
 20
220.500327
 30
0.0
 10
193.831718
 20
222.147078
 30
0.0
 10
194.872449
 20
223.873713
 30
0.0
 10
195.379837
 20
224.715500
 30
0.0
 11
188.177613
 21
220.264280
 31
0.0
 11
191.065151
 21
220.721780
 31
0.0
 11
193.679292
 21
222.337408
 31
0.0
 11
195.379837
 21
224.715500
 31
0.0
  0
LWPOLYLINE
  5
15e
100
AcDbEntity
  8
0
 62
5
100
AcDbPolyline
 90
4
 70
0
 10
177.697785
 20
218.432223
 30
0.0
 10
186.100379
 20
223.625315
 30
0.0
 10
186.397127
 20
223.145168
 30
0.0
 10
184.956681
 20
222.254923
 30
0.0
  0
LWPOLYLINE
  5
15f
100
AcDbEntity
  8
0
 62
5
100
AcDbPolyline
 90
4
 70
0
 10
195.039793
 20
228.486635
 30
0.0
 10
193.599348
 20
227.596391
 30
0.0
 10
193.302599
 20
228.076538
 30
0.0
 10
201.705193
 20
233.269630
 30
0.0
  0
LWPOLYLINE
  5
160
100
AcDbEntity
  8
0
 62
1
100
AcDbPolyline
 90
2
 70
0
 10
187.780896
 20
224.663935
 30
0.0
 10
191.622082
 20
227.037921
 30
0.0
  0
LWPOLYLINE
  5
161
100
AcDbEntity
  8
0
 62
5
100
AcDbPolyline
 90
7
 70
0
 10
201.705283
 20
233.269484
 30
0.0
 10
204.566791
 20
233.578195
 30
0.0
 10
204.539161
 20
236.414356
 30
0.0
 10
202.672970
 20
237.716101
 30
0.0
 10
202.622277
 20
237.153937
 30
0.0
 10
202.060116
 20
237.204627
 30
0.0
 10
204.239786
 20
261.377654
 30
0.0
  0
LWPOLYLINE
  5
162
100
AcDbEntity
  8
0
 62
1
100
AcDbPolyline
 90
2
 70
0
 10
201.806666
 20
234.393809
 30
0.0
 10
201.958736
 20
236.080299
 30
0.0
  0
LWPOLYLINE
  5
163
100
AcDbEntity
  8
0
 62
5
100
AcDbPolyline
 90
8
 70
0
 10
204.239639
 20
261.377668
 30
0.0
 10
206.013792
 20
241.701931
 30
0.0
 10
204.096908
 20
240.962351
 30
0.0
 10
204.069278
 20
238.126187
 30
0.0
 10
205.882497
 20
236.872846
 30
0.0
 10
205.831807
 20
237.435010
 30
0.0
 10
206.393968
 20
237.485700
 30
0.0
 10
206.774144
 20
233.269472
 30
0.0
  0
LWPOLYLINE
  5
164
100
AcDbEntity
  8
0
 62
1
100
AcDbPolyline
 90
2
 70
0
 10
206.115172
 20
240.577603
 30
0.0
 10
206.292585
 20
238.610028
 30
0.0
  0
LWPOLYLINE
  5
165
100
AcDbEntity
  8
0
 62
5
100
AcDbPolyline
 90
4
 70
0
 10
206.774274
 20
233.269484
 30
0.0
 10
200.926816
 20
228.129399
 30
0.0
 10
199.406115
 20
211.264482
 30
0.0
 10
204.239772
 20
205.161288
 30
0.0
  0
LWPOLYLINE
  5
166
100
AcDbEntity
  8
0
 62
5
100
AcDbPolyline
 90
4
 70
0
 10
206.907858
 20
225.323153
 30
0.0
 10
205.401068
 20
224.325551
 30
0.0
 10
204.488646
 20
214.206600
 30
0.0
 10
205.792677
 20
212.955546
 30
0.0
  0
LWPOLYLINE
  5
167
100
AcDbEntity
  8
0
 62
1
100
AcDbPolyline
 90
2
 70
0
 10
206.774274
 20
233.269484
 30
0.0
 10
206.064612
 20
225.399189
 30
0.0
  0
LWPOLYLINE
  5
168
100
AcDbEntity
  8
0
 62
1
100
AcDbPolyline
 90
2
 70
0
 10
204.239772
 20
205.161288
 30
0.0
 10
204.949431
 20
213.031582
 30
0.0
  0
SPLINE
  5
169
100
AcDbEntity
  8
0
 62
5
100
AcDbSpline
 70
0
 71
3
 72
10
 73
6
 74
4
 40
0.000000
 40
0.000000
 40
0.000000
 40
0.000000
 40
1.743699
 40
3.211854
 40
3.851439
 40
3.851439
 40
3.851439
 40
3.851439
 10
195.379837
 20
224.715500
 30
0.0
 10
195.484393
 20
225.293725
 30
0.0
 10
195.676983
 20
226.358802
 30
0.0
 10
195.370448
 20
227.634124
 30
0.0
 10
195.116770
 20
228.288168
 30
0.0
 10
195.039793
 20
228.486635
 30
0.0
 11
195.379837
 21
224.715500
 31
0.0
 11
195.561399
 21
226.449721
 31
0.0
 11
195.262813
 21
227.887193
 31
0.0
 11
195.039793
 21
228.486635
 31
0.0
  0
SPLINE
  5
16a
100
AcDbEntity
  8
0
 62
5
100
AcDbSpline
 70
0
 71
3
 72
10
 73
6
 74
4
 40
0.000000
 40
0.000000
 40
0.000000
 40
0.000000
 40
0.639579
 40
2.107722
 40
3.851405
 40
3.851405
 40
3.851405
 40
3.851405
 10
210.904983
 20
200.378344
 30
0.0
 10
210.828006
 20
200.179878
 30
0.0
 10
210.574330
 20
199.525840
 30
0.0
 10
210.267797
 20
198.250530
 30
0.0
 10
210.460386
 20
197.185462
 30
0.0
 10
210.564942
 20
196.607242
 30
0.0
 11
210.904983
 21
200.378344
 31
0.0
 11
210.681964
 21
199.778907
 31
0.0
 11
210.383380
 21
198.341448
 31
0.0
 11
210.564942
 21
196.607242
 31
0.0
  0
SPLINE
  5
16b
100
AcDbEntity
  8
0
 62
5
100
AcDbSpline
 70
0
 71
3
 72
10
 73
6
 74
4
 40
0.000000
 40
0.000000
 40
0.000000
 40
0.000000
 40
2.923530
 40
5.996610
 40
8.920141
 40
8.920141
 40
8.920141
 40
8.920141
 10
210.564942
 20
196.607242
 30
0.0
 10
211.072325
 20
195.765462
 30
0.0
 10
212.113045
 20
194.038840
 30
0.0
 10
214.777519
 20
192.392104
 30
0.0
 10
216.787280
 20
192.233421
 30
0.0
 10
217.767100
 20
192.156059
 30
0.0
 11
210.564942
 21
196.607242
 31
0.0
 11
212.265471
 21
194.229169
 31
0.0
 11
214.879588
 21
192.613555
 31
0.0
 11
217.767100
 21
192.156059
 31
0.0
  0
LWPOLYLINE
  5
16c
100
AcDbEntity
  8
0
 62
5
100
AcDbPolyline
 90
4
 70
0
 10
204.239639
 20
205.161299
 30
0.0
 10
212.642159
 20
199.968249
 30
0.0
 10
212.345414
 20
199.488107
 30
0.0
 10
210.904983
 20
200.378344
 30
0.0
  0
LWPOLYLINE
  5
16d
100
AcDbEntity
  8
0
 62
5
100
AcDbPolyline
 90
4
 70
0
 10
220.988007
 20
194.146685
 30
0.0
 10
219.547575
 20
195.036921
 30
0.0
 10
219.844321
 20
195.517066
 30
0.0
 10
228.246841
 20
190.324016
 30
0.0
  0
LWPOLYLINE
  5
16e
100
AcDbEntity
  8
0
 62
1
100
AcDbPolyline
 90
2
 70
0
 10
214.322663
 20
198.929640
 30
0.0
 10
218.163817
 20
196.555675
 30
0.0
  0
LWPOLYLINE
  5
16f
100
AcDbEntity
  8
0
 62
5
100
AcDbPolyline
 90
4
 70
0
 10
230.781358
 20
218.432237
 30
0.0
 10
235.615014
 20
212.329044
 30
0.0
 10
234.094314
 20
195.464124
 30
0.0
 10
228.246855
 20
190.324041
 30
0.0
  0
LWPOLYLINE
  5
170
100
AcDbEntity
  8
0
 62
5
100
AcDbPolyline
 90
4
 70
0
 10
229.228450
 20
210.637976
 30
0.0
 10
230.532480
 20
209.386925
 30
0.0
 10
229.620058
 20
199.267974
 30
0.0
 10
228.113268
 20
198.270369
 30
0.0
  0
LWPOLYLINE
  5
171
100
AcDbEntity
  8
0
 62
1
100
AcDbPolyline
 90
2
 70
0
 10
230.781358
 20
218.432237
 30
0.0
 10
230.071696
 20
210.561943
 30
0.0
  0
LWPOLYLINE
  5
172
100
AcDbEntity
  8
0
 62
1
100
AcDbPolyline
 90
2
 70
0
 10
228.246855
 20
190.324041
 30
0.0
 10
228.956514
 20
198.194336
 30
0.0
  0
SPLINE
  5
173
100
AcDbEntity
  8
0
 62
5
100
AcDbSpline
 70
0
 71
3
 72
10
 73
6
 74
4
 40
0.000000
 40
0.000000
 40
0.000000
 40
0.000000
 40
1.743683
 40
3.211825
 40
3.851405
 40
3.851405
 40
3.851405
 40
3.851405
 10
217.767100
 20
192.156059
 30
0.0
 10
218.331035
 20
192.321129
 30
0.0
 10
219.369789
 20
192.625183
 30
0.0
 10
220.373376
 20
193.469690
 30
0.0
 10
220.844919
 20
193.989079
 30
0.0
 10
220.988007
 20
194.146685
 30
0.0
 11
217.767100
 21
192.156059
 31
0.0
 11
219.399418
 21
192.769224
 31
0.0
 11
220.551591
 21
193.679135
 31
0.0
 11
220.988007
 21
194.146685
 31
0.0
  0
SPLINE
  5
174
100
AcDbEntity
  8
0
 62
5
100
AcDbSpline
 70
0
 71
3
 72
10
 73
6
 74
4
 40
0.000000
 40
0.000000
 40
0.000000
 40
0.000000
 40
0.639580
 40
2.107723
 40
3.851406
 40
3.851406
 40
3.851406
 40
3.851406
 10
238.040325
 20
222.254892
 30
0.0
 10
238.183413
 20
222.097286
 30
0.0
 10
238.654955
 20
221.577896
 30
0.0
 10
239.658542
 20
220.733389
 30
0.0
 10
240.697297
 20
220.429333
 30
0.0
 10
241.261231
 20
220.264263
 30
0.0
 11
238.040325
 21
222.254892
 31
0.0
 11
238.476741
 21
221.787342
 31
0.0
 11
239.628914
 21
220.877429
 31
0.0
 11
241.261231
 21
220.264263
 31
0.0
  0
SPLINE
  5
175
100
AcDbEntity
  8
0
 62
5
100
AcDbSpline
 70
0
 71
3
 72
10
 73
6
 74
4
 40
0.000000
 40
0.000000
 40
0.000000
 40
0.000000
 40
2.923531
 40
5.996612
 40
8.920144
 40
8.920144
 40
8.920144
 40
8.920144
 10
241.261231
 20
220.264263
 30
0.0
 10
242.241051
 20
220.341626
 30
0.0
 10
244.250813
 20
220.500309
 30
0.0
 10
246.915287
 20
222.147047
 30
0.0
 10
247.956009
 20
223.873669
 30
0.0
 10
248.463393
 20
224.715450
 30
0.0
 11
241.261231
 21
220.264263
 31
0.0
 11
244.148744
 21
220.721760
 31
0.0
 11
246.762862
 21
222.337376
 31
0.0
 11
248.463393
 21
224.715450
 31
0.0
  0
LWPOLYLINE
  5
176
100
AcDbEntity
  8
0
 62
5
100
AcDbPolyline
 90
4
 70
0
 10
230.781490
 20
218.432223
 30
0.0
 10
239.184011
 20
223.625273
 30
0.0
 10
239.480756
 20
223.145128
 30
0.0
 10
238.040325
 20
222.254892
 30
0.0
  0
LWPOLYLINE
  5
177
100
AcDbEntity
  8
0
 62
5
100
AcDbPolyline
 90
4
 70
0
 10
248.123349
 20
228.486548
 30
0.0
 10
246.682918
 20
227.596312
 30
0.0
 10
246.386172
 20
228.076457
 30
0.0
 10
254.788693
 20
233.269506
 30
0.0
  0
LWPOLYLINE
  5
178
100
AcDbEntity
  8
0
 62
1
100
AcDbPolyline
 90
2
 70
0
 10
240.864514
 20
224.663882
 30
0.0
 10
244.705669
 20
227.037848
 30
0.0
  0
LWPOLYLINE
  5
179
100
AcDbEntity
  8
0
 62
5
100
AcDbPolyline
 90
4
 70
0
 10
257.323209
 20
261.377654
 30
0.0
 10
262.156863
 20
255.274466
 30
0.0
 10
260.636162
 20
238.409560
 30
0.0
 10
254.788710
 20
233.269484
 30
0.0
  0
LWPOLYLINE
  5
17a
100
AcDbEntity
  8
0
 62
5
100
AcDbPolyline
 90
4
 70
0
 10
255.770304
 20
253.583402
 30
0.0
 10
257.074331
 20
252.332350
 30
0.0
 10
256.161913
 20
242.213408
 30
0.0
 10
254.655122
 20
241.215806
 30
0.0
  0
LWPOLYLINE
  5
17b
100
AcDbEntity
  8
0
 62
1
100
AcDbPolyline
 90
2
 70
0
 10
257.323209
 20
261.377654
 30
0.0
 10
256.613550
 20
253.507366
 30
0.0
  0
LWPOLYLINE
  5
17c
100
AcDbEntity
  8
0
 62
1
100
AcDbPolyline
 90
2
 70
0
 10
254.788710
 20
233.269484
 30
0.0
 10
255.498369
 20
241.139770
 30
0.0
  0
SPLINE
  5
17d
100
AcDbEntity
  8
0
 62
5
100
AcDbSpline
 70
0
 71
3
 72
10
 73
6
 74
4
 40
0.000000
 40
0.000000
 40
0.000000
 40
0.000000
 40
1.743681
 40
3.211823
 40
3.851402
 40
3.851402
 40
3.851402
 40
3.851402
 10
248.463393
 20
224.715450
 30
0.0
 10
248.567948
 20
225.293669
 30
0.0
 10
248.760536
 20
226.358736
 30
0.0
 10
248.454002
 20
227.634045
 30
0.0
 10
248.200326
 20
228.288083
 30
0.0
 10
248.123349
 20
228.486548
 30
0.0
 11
248.463393
 21
224.715450
 31
0.0
 11
248.644952
 21
226.449653
 31
0.0
 11
248.346368
 21
227.887111
 31
0.0
 11
248.123349
 21
228.486548
 31
0.0
  0
SPLINE
  5
17e
100
AcDbEntity
  8
0
 62
5
100
AcDbSpline
 70
0
 71
3
 72
10
 73
6
 74
4
 40
0.000000
 40
0.000000
 40
0.000000
 40
0.000000
 40
0.639574
 40
2.107704
 40
3.851371
 40
3.851371
 40
3.851371
 40
3.851371
 10
264.581835
 20
265.200303
 30
0.0
 10
264.724921
 20
265.042698
 30
0.0
 10
265.196460
 20
264.523314
 30
0.0
 10
266.200039
 20
263.678815
 30
0.0
 10
267.238784
 20
263.374762
 30
0.0
 10
267.802713
 20
263.209694
 30
0.0
 11
264.581835
 21
265.200303
 31
0.0
 11
265.018247
 21
264.732757
 31
0.0
 11
266.170410
 21
263.822854
 31
0.0
 11
267.802713
 21
263.209694
 31
0.0
  0
SPLINE
  5
17f
100
AcDbEntity
  8
0
 62
5
100
AcDbSpline
 70
0
 71
3
 72
10
 73
6
 74
4
 40
0.000000
 40
0.000000
 40
0.000000
 40
0.000000
 40
2.923506
 40
5.996560
 40
8.920067
 40
8.920067
 40
8.920067
 40
8.920067
 10
267.802713
 20
263.209694
 30
0.0
 10
268.782525
 20
263.287056
 30
0.0
 10
270.792269
 20
263.445737
 30
0.0
 10
273.456720
 20
265.092461
 30
0.0
 10
274.497433
 20
266.819067
 30
0.0
 10
275.004812
 20
267.660841
 30
0.0
 11
267.802713
 21
263.209694
 31
0.0
 11
270.690201
 21
263.667186
 31
0.0
 11
273.304296
 21
265.282788
 31
0.0
 11
275.004812
 21
267.660841
 31
0.0
  0
LWPOLYLINE
  5
180
100
AcDbEntity
  8
0
 62
5
100
AcDbPolyline
 90
4
 70
0
 10
257.323062
 20
261.377668
 30
0.0
 10
265.725512
 20
266.570673
 30
0.0
 10
266.022255
 20
266.090534
 30
0.0
 10
264.581835
 20
265.200303
 30
0.0
  0
LWPOLYLINE
  5
181
100
AcDbEntity
  8
0
 62
5
100
AcDbPolyline
 90
4
 70
0
 10
274.664774
 20
271.431909
 30
0.0
 10
273.224354
 20
270.541680
 30
0.0
 10
272.927612
 20
271.021820
 30
0.0
 10
281.330061
 20
276.214824
 30
0.0
  0
LWPOLYLINE
  5
182
100
AcDbEntity
  8
0
 62
1
100
AcDbPolyline
 90
2
 70
0
 10
267.406001
 20
267.609273
 30
0.0
 10
271.247122
 20
269.983219
 30
0.0
  0
LWPOLYLINE
  5
183
100
AcDbEntity
  8
0
 62
5
100
AcDbPolyline
 90
4
 70
0
 10
257.322856
 20
291.051880
 30
0.0
 10
264.943305
 20
292.645846
 30
0.0
 10
279.347589
 20
283.743674
 30
0.0
 10
281.329996
 20
276.214927
 30
0.0
  0
LWPOLYLINE
  5
184
100
AcDbEntity
  8
0
 62
5
100
AcDbPolyline
 90
4
 70
0
 10
263.599747
 20
286.177319
 30
0.0
 10
265.301880
 20
286.784198
 30
0.0
 10
273.944450
 20
281.442895
 30
0.0
 10
274.162890
 20
279.649059
 30
0.0
  0
LWPOLYLINE
  5
185
100
AcDbEntity
  8
0
 62
1
100
AcDbPolyline
 90
2
 70
0
 10
257.322856
 20
291.051880
 30
0.0
 10
264.044856
 20
286.897533
 30
0.0
  0
LWPOLYLINE
  5
186
100
AcDbEntity
  8
0
 62
1
100
AcDbPolyline
 90
2
 70
0
 10
281.329996
 20
276.214927
 30
0.0
 10
274.607996
 20
280.369274
 30
0.0
  0
SPLINE
  5
187
100
AcDbEntity
  8
0
 62
5
100
AcDbSpline
 70
0
 71
3
 72
10
 73
6
 74
4
 40
0.000000
 40
0.000000
 40
0.000000
 40
0.000000
 40
1.743668
 40
3.211797
 40
3.851371
 40
3.851371
 40
3.851371
 40
3.851371
 10
275.004812
 20
267.660841
 30
0.0
 10
275.109367
 20
268.239055
 30
0.0
 10
275.301954
 20
269.304114
 30
0.0
 10
274.995424
 20
270.579413
 30
0.0
 10
274.741750
 20
271.233446
 30
0.0
 10
274.664774
 20
271.431909
 30
0.0
 11
275.004812
 21
267.660841
 31
0.0
 11
275.186372
 21
269.395030
 31
0.0
 11
274.887791
 21
270.832477
 31
0.0
 11
274.664774
 21
271.431909
 31
0.0
  0
SPLINE
  5
188
100
AcDbEntity
  8
0
 62
5
100
AcDbSpline
 70
0
 71
3
 72
10
 73
6
 74
4
 40
0.000000
 40
0.000000
 40
0.000000
 40
0.000000
 40
0.639580
 40
2.107723
 40
3.851406
 40
3.851406
 40
3.851406
 40
3.851406
 10
257.150221
 20
299.254265
 30
0.0
 10
257.355179
 20
299.311763
 30
0.0
 10
258.030615
 20
299.501245
 30
0.0
 10
259.234784
 20
300.021205
 30
0.0
 10
259.971285
 20
300.814317
 30
0.0
 10
260.371127
 20
301.244893
 30
0.0
 11
257.150221
 21
299.254265
 31
0.0
 11
257.763582
 21
299.435512
 31
0.0
 11
259.092700
 21
300.059121
 31
0.0
 11
260.371127
 21
301.244893
 31
0.0
  0
SPLINE
  5
189
100
AcDbEntity
  8
0
 62
5
100
AcDbSpline
 70
0
 71
3
 72
10
 73
6
 74
4
 40
0.000000
 40
0.000000
 40
0.000000
 40
0.000000
 40
2.923533
 40
5.996614
 40
8.920147
 40
8.920147
 40
8.920147
 40
8.920147
 10
260.371127
 20
301.244893
 30
0.0
 10
260.740122
 20
302.155869
 30
0.0
 10
261.496987
 20
304.024420
 30
0.0
 10
261.215692
 20
307.144043
 30
0.0
 10
260.136780
 20
308.847063
 30
0.0
 10
259.610778
 20
309.677337
 30
0.0
 11
260.371127
 21
301.244893
 31
0.0
 11
261.253268
 21
304.032163
 31
0.0
 11
260.977290
 21
307.092827
 31
0.0
 11
259.610778
 21
309.677337
 31
0.0
  0
LWPOLYLINE
  5
18a
100
AcDbEntity
  8
0
 62
5
100
AcDbPolyline
 90
4
 70
0
 10
257.323062
 20
291.052213
 30
0.0
 10
256.435987
 20
300.890064
 30
0.0
 10
256.998151
 20
300.940754
 30
0.0
 10
257.150221
 20
299.254265
 30
0.0
  0
LWPOLYLINE
  5
18b
100
AcDbEntity
  8
0
 62
5
100
AcDbPolyline
 90
4
 70
0
 10
256.085732
 20
311.059685
 30
0.0
 10
256.237802
 20
309.373197
 30
0.0
 10
255.675638
 20
309.322507
 30
0.0
 10
254.788563
 20
319.160357
 30
0.0
  0
LWPOLYLINE
  5
18c
100
AcDbEntity
  8
0
 62
1
100
AcDbPolyline
 90
2
 70
0
 10
256.258574
 20
302.857634
 30
0.0
 10
255.853054
 20
307.354937
 30
0.0
  0
LWPOLYLINE
  5
18d
100
AcDbEntity
  8
0
 62
5
100
AcDbPolyline
 90
4
 70
0
 10
230.781363
 20
304.323290
 30
0.0
 10
232.763788
 20
311.852101
 30
0.0
 10
247.168193
 20
320.754350
 30
0.0
 10
254.788707
 20
319.160370
 30
0.0
  0
LWPOLYLINE
  5
18e
100
AcDbEntity
  8
0
 62
5
100
AcDbPolyline
 90
4
 70
0
 10
237.948532
 20
307.757452
 30
0.0
 10
238.166972
 20
309.551302
 30
0.0
 10
246.809616
 20
314.892652
 30
0.0
 10
248.511763
 20
314.285767
 30
0.0
  0
LWPOLYLINE
  5
18f
100
AcDbEntity
  8
0
 62
1
100
AcDbPolyline
 90
2
 70
0
 10
230.781363
 20
304.323290
 30
0.0
 10
237.503420
 20
308.477672
 30
0.0
  0
LWPOLYLINE
  5
190
100
AcDbEntity
  8
0
 62
1
100
AcDbPolyline
 90
2
 70
0
 10
254.788707
 20
319.160370
 30
0.0
 10
248.066650
 20
315.005988
 30
0.0
  0
SPLINE
  5
191
100
AcDbEntity
  8
0
 62
5
100
AcDbSpline
 70
0
 71
3
 72
10
 73
6
 74
4
 40
0.000000
 40
0.000000
 40
0.000000
 40
0.000000
 40
1.743684
 40
3.211826
 40
3.851405
 40
3.851405
 40
3.851405
 40
3.851405
 10
259.610778
 20
309.677337
 30
0.0
 10
259.140361
 20
310.029442
 30
0.0
 10
258.273864
 20
310.678012
 30
0.0
 10
256.996106
 20
310.974178
 30
0.0
 10
256.297670
 20
311.039779
 30
0.0
 10
256.085732
 20
311.059685
 30
0.0
 11
259.610778
 21
309.677337
 31
0.0
 11
258.140854
 21
310.615291
 31
0.0
 11
256.721622
 21
310.991083
 31
0.0
 11
256.085732
 21
311.059685
 31
0.0
  0
SPLINE
  5
192
100
AcDbEntity
  8
0
 62
5
100
AcDbSpline
 70
0
 71
3
 72
10
 73
6
 74
4
 40
0.000000
 40
0.000000
 40
0.000000
 40
0.000000
 40
0.639580
 40
2.107723
 40
3.851408
 40
3.851408
 40
3.851408
 40
3.851408
 10
232.018823
 20
284.315611
 30
0.0
 10
231.806885
 20
284.335518
 30
0.0
 10
231.108448
 20
284.401119
 30
0.0
 10
229.830689
 20
284.697284
 30
0.0
 10
228.964191
 20
285.345855
 30
0.0
 10
228.493774
 20
285.697960
 30
0.0
 11
232.018823
 21
284.315611
 31
0.0
 11
231.382933
 21
284.384214
 31
0.0
 11
229.963699
 21
284.760005
 31
0.0
 11
228.493774
 21
285.697960
 31
0.0
  0
SPLINE
  5
193
100
AcDbEntity
  8
0
 62
5
100
AcDbSpline
 70
0
 71
3
 72
10
 73
6
 74
4
 40
0.000000
 40
0.000000
 40
0.000000
 40
0.000000
 40
2.923532
 40
5.996614
 40
8.920146
 40
8.920146
 40
8.920146
 40
8.920146
 10
228.493774
 20
285.697960
 30
0.0
 10
227.967773
 20
286.528234
 30
0.0
 10
226.888862
 20
288.231254
 30
0.0
 10
226.607566
 20
291.350877
 30
0.0
 10
227.364431
 20
293.219428
 30
0.0
 10
227.733425
 20
294.130403
 30
0.0
 11
228.493774
 21
285.697960
 31
0.0
 11
227.127264
 21
288.282469
 31
0.0
 11
226.851285
 21
291.343134
 31
0.0
 11
227.733425
 21
294.130403
 31
0.0
  0
LWPOLYLINE
  5
194
100
AcDbEntity
  8
0
 62
5
100
AcDbPolyline
 90
4
 70
0
 10
233.315990
 20
276.214939
 30
0.0
 10
232.428915
 20
286.052790
 30
0.0
 10
231.866753
 20
286.002100
 30
0.0
 10
232.018823
 20
284.315611
 30
0.0
  0
LWPOLYLINE
  5
195
100
AcDbEntity
  8
0
 62
5
100
AcDbPolyline
 90
4
 70
0
 10
230.954334
 20
296.121032
 30
0.0
 10
231.106404
 20
294.434543
 30
0.0
 10
231.668566
 20
294.485233
 30
0.0
 10
230.781490
 20
304.323083
 30
0.0
  0
LWPOLYLINE
  5
196
100
AcDbEntity
  8
0
 62
1
100
AcDbPolyline
 90
2
 70
0
 10
232.251501
 20
288.020360
 30
0.0
 10
231.845982
 20
292.517663
 30
0.0
  0
LWPOLYLINE
  5
197
100
AcDbEntity
  8
0
 62
5
100
AcDbPolyline
 90
7
 70
0
 10
233.315843
 20
276.214927
 30
0.0
 10
230.454338
 20
275.906214
 30
0.0
 10
230.481968
 20
273.070052
 30
0.0
 10
232.348159
 20
271.768310
 30
0.0
 10
232.398852
 20
272.330473
 30
0.0
 10
232.961013
 20
272.279783
 30
0.0
 10
230.781344
 20
248.106755
 30
0.0
  0
LWPOLYLINE
  5
198
100
AcDbEntity
  8
0
 62
1
100
AcDbPolyline
 90
2
 70
0
 10
233.214463
 20
275.090601
 30
0.0
 10
233.062393
 20
273.404110
 30
0.0
  0
LWPOLYLINE
  5
199
100
AcDbEntity
  8
0
 62
5
100
AcDbPolyline
 90
8
 70
0
 10
230.781490
 20
248.106741
 30
0.0
 10
229.007337
 20
267.782479
 30
0.0
 10
230.924221
 20
268.522059
 30
0.0
 10
230.951851
 20
271.358223
 30
0.0
 10
229.138632
 20
272.611563
 30
0.0
 10
229.189322
 20
272.049399
 30
0.0
 10
228.627161
 20
271.998709
 30
0.0
 10
228.246985
 20
276.214938
 30
0.0
  0
LWPOLYLINE
  5
19a
100
AcDbEntity
  8
0
 62
1
100
AcDbPolyline
 90
2
 70
0
 10
228.905957
 20
268.906807
 30
0.0
 10
228.728544
 20
270.874381
 30
0.0
  0
LWPOLYLINE
  5
19b
100
AcDbEntity
  8
0
 62
5
100
AcDbPolyline
 90
4
 70
0
 10
204.239509
 20
291.052007
 30
0.0
 10
211.860023
 20
292.645986
 30
0.0
 10
226.264430
 20
283.743738
 30
0.0
 10
228.246853
 20
276.214926
 30
0.0
  0
LWPOLYLINE
  5
19c
100
AcDbEntity
  8
0
 62
5
100
AcDbPolyline
 90
4
 70
0
 10
210.516453
 20
286.177404
 30
0.0
 10
212.218600
 20
286.784288
 30
0.0
 10
220.861244
 20
281.442939
 30
0.0
 10
221.079684
 20
279.649088
 30
0.0
  0
LWPOLYLINE
  5
19d
100
AcDbEntity
  8
0
 62
1
100
AcDbPolyline
 90
2
 70
0
 10
204.239509
 20
291.052007
 30
0.0
 10
210.961565
 20
286.897624
 30
0.0
  0
LWPOLYLINE
  5
19e
100
AcDbEntity
  8
0
 62
1
100
AcDbPolyline
 90
2
 70
0
 10
228.246853
 20
276.214926
 30
0.0
 10
221.524796
 20
280.369309
 30
0.0
  0
SPLINE
  5
19f
100
AcDbEntity
  8
0
 62
5
100
AcDbSpline
 70
0
 71
3
 72
10
 73
6
 74
4
 40
0.000000
 40
0.000000
 40
0.000000
 40
0.000000
 40
1.743685
 40
3.211828
 40
3.851408
 40
3.851408
 40
3.851408
 40
3.851408
 10
227.733425
 20
294.130403
 30
0.0
 10
228.133268
 20
294.560979
 30
0.0
 10
228.869770
 20
295.354091
 30
0.0
 10
230.073940
 20
295.874051
 30
0.0
 10
230.749376
 20
296.063534
 30
0.0
 10
230.954334
 20
296.121032
 30
0.0
 11
227.733425
 21
294.130403
 31
0.0
 11
229.011855
 21
295.316175
 31
0.0
 11
230.340973
 21
295.939784
 31
0.0
 11
230.954334
 21
296.121032
 31
0.0
  0
SPLINE
  5
1a0
100
AcDbEntity
  8
0
 62
5
100
AcDbSpline
 70
0
 71
3
 72
10
 73
6
 74
4
 40
0.000000
 40
0.000000
 40
0.000000
 40
0.000000
 40
0.639580
 40
2.107723
 40
3.851406
 40
3.851406
 40
3.851406
 40
3.851406
 10
204.066798
 20
299.254265
 30
0.0
 10
204.271756
 20
299.311763
 30
0.0
 10
204.947192
 20
299.501245
 30
0.0
 10
206.151361
 20
300.021205
 30
0.0
 10
206.887862
 20
300.814317
 30
0.0
 10
207.287704
 20
301.244893
 30
0.0
 11
204.066798
 21
299.254265
 31
0.0
 11
204.680159
 21
299.435512
 31
0.0
 11
206.009277
 21
300.059121
 31
0.0
 11
207.287704
 21
301.244893
 31
0.0
  0
SPLINE
  5
1a1
100
AcDbEntity
  8
0
 62
5
100
AcDbSpline
 70
0
 71
3
 72
10
 73
6
 74
4
 40
0.000000
 40
0.000000
 40
0.000000
 40
0.000000
 40
2.923533
 40
5.996614
 40
8.920147
 40
8.920147
 40
8.920147
 40
8.920147
 10
207.287704
 20
301.244893
 30
0.0
 10
207.656699
 20
302.155869
 30
0.0
 10
208.413563
 20
304.024420
 30
0.0
 10
208.132269
 20
307.144043
 30
0.0
 10
207.053357
 20
308.847063
 30
0.0
 10
206.527355
 20
309.677337
 30
0.0
 11
207.287704
 21
301.244893
 31
0.0
 11
208.169845
 21
304.032163
 31
0.0
 11
207.893866
 21
307.092827
 31
0.0
 11
206.527355
 21
309.677337
 31
0.0
  0
LWPOLYLINE
  5
1a2
100
AcDbEntity
  8
0
 62
5
100
AcDbPolyline
 90
4
 70
0
 10
204.239639
 20
291.052213
 30
0.0
 10
203.352564
 20
300.890064
 30
0.0
 10
203.914728
 20
300.940754
 30
0.0
 10
204.066798
 20
299.254265
 30
0.0
  0
LWPOLYLINE
  5
1a3
100
AcDbEntity
  8
0
 62
5
100
AcDbPolyline
 90
4
 70
0
 10
203.002309
 20
311.059685
 30
0.0
 10
203.154379
 20
309.373197
 30
0.0
 10
202.592215
 20
309.322507
 30
0.0
 10
201.705139
 20
319.160357
 30
0.0
  0
LWPOLYLINE
  5
1a4
100
AcDbEntity
  8
0
 62
1
100
AcDbPolyline
 90
2
 70
0
 10
203.175150
 20
302.857634
 30
0.0
 10
202.769631
 20
307.354937
 30
0.0
  0
LWPOLYLINE
  5
1a5
100
AcDbEntity
  8
0
 62
5
100
AcDbPolyline
 90
4
 70
0
 10
177.697734
 20
304.323164
 30
0.0
 10
179.680176
 20
311.852039
 30
0.0
 10
194.084705
 20
320.754363
 30
0.0
 10
201.705283
 20
319.160370
 30
0.0
  0
LWPOLYLINE
  5
1a6
100
AcDbEntity
  8
0
 62
5
100
AcDbPolyline
 90
4
 70
0
 10
184.864965
 20
307.757355
 30
0.0
 10
185.083405
 20
309.551221
 30
0.0
 10
193.726122
 20
314.892615
 30
0.0
 10
195.428286
 20
314.285726
 30
0.0
  0
LWPOLYLINE
  5
1a7
100
AcDbEntity
  8
0
 62
1
100
AcDbPolyline
 90
2
 70
0
 10
177.697734
 20
304.323164
 30
0.0
 10
184.419847
 20
308.477582
 30
0.0
  0
LWPOLYLINE
  5
1a8
100
AcDbEntity
  8
0
 62
1
100
AcDbPolyline
 90
2
 70
0
 10
201.705283
 20
319.160370
 30
0.0
 10
194.983168
 20
315.005952
 30
0.0
  0
SPLINE
  5
1a9
100
AcDbEntity
  8
0
 62
5
100
AcDbSpline
 70
0
 71
3
 72
10
 73
6
 74
4
 40
0.000000
 40
0.000000
 40
0.000000
 40
0.000000
 40
1.743684
 40
3.211826
 40
3.851405
 40
3.851405
 40
3.851405
 40
3.851405
 10
206.527355
 20
309.677337
 30
0.0
 10
206.056938
 20
310.029442
 30
0.0
 10
205.190441
 20
310.678012
 30
0.0
 10
203.912683
 20
310.974178
 30
0.0
 10
203.214247
 20
311.039779
 30
0.0
 10
203.002309
 20
311.059685
 30
0.0
 11
206.527355
 21
309.677337
 31
0.0
 11
205.057431
 21
310.615291
 31
0.0
 11
203.638198
 21
310.991083
 31
0.0
 11
203.002309
 21
311.059685
 31
0.0
  0
SPLINE
  5
1aa
100
AcDbEntity
  8
0
 62
5
100
AcDbSpline
 70
0
 71
3
 72
10
 73
6
 74
4
 40
0.000000
 40
0.000000
 40
0.000000
 40
0.000000
 40
0.639580
 40
2.107723
 40
3.851409
 40
3.851409
 40
3.851409
 40
3.851409
 10
178.935115
 20
284.315593
 30
0.0
 10
178.723177
 20
284.335499
 30
0.0
 10
178.024740
 20
284.401100
 30
0.0
 10
176.746981
 20
284.697267
 30
0.0
 10
175.880483
 20
285.345837
 30
0.0
 10
175.410066
 20
285.697943
 30
0.0
 11
178.935115
 21
284.315593
 31
0.0
 11
178.299225
 21
284.384196
 31
0.0
 11
176.879990
 21
284.759988
 31
0.0
 11
175.410066
 21
285.697943
 31
0.0
  0
SPLINE
  5
1ab
100
AcDbEntity
  8
0
 62
5
100
AcDbSpline
 70
0
 71
3
 72
10
 73
6
 74
4
 40
0.000000
 40
0.000000
 40
0.000000
 40
0.000000
 40
2.923536
 40
5.996620
 40
8.920155
 40
8.920155
 40
8.920155
 40
8.920155
 10
175.410066
 20
285.697943
 30
0.0
 10
174.884063
 20
286.528218
 30
0.0
 10
173.805150
 20
288.231239
 30
0.0
 10
173.523855
 20
291.350865
 30
0.0
 10
174.280720
 20
293.219417
 30
0.0
 10
174.649714
 20
294.130394
 30
0.0
 11
175.410066
 21
285.697943
 31
0.0
 11
174.043553
 21
288.282455
 31
0.0
 11
173.767573
 21
291.343122
 31
0.0
 11
174.649714
 21
294.130394
 31
0.0
  0
LWPOLYLINE
  5
1ac
100
AcDbEntity
  8
0
 62
5
100
AcDbPolyline
 90
4
 70
0
 10
180.232284
 20
276.214914
 30
0.0
 10
179.345209
 20
286.052773
 30
0.0
 10
178.783045
 20
286.002083
 30
0.0
 10
178.935115
 20
284.315593
 30
0.0
  0
LWPOLYLINE
  5
1ad
100
AcDbEntity
  8
0
 62
5
100
AcDbPolyline
 90
4
 70
0
 10
177.870626
 20
296.121024
 30
0.0
 10
178.022696
 20
294.434534
 30
0.0
 10
178.584860
 20
294.485224
 30
0.0
 10
177.697785
 20
304.323083
 30
0.0
  0
LWPOLYLINE
  5
1ae
100
AcDbEntity
  8
0
 62
1
100
AcDbPolyline
 90
2
 70
0
 10
179.167793
 20
288.020345
 30
0.0
 10
178.762273
 20
292.517652
 30
0.0
  0
LWPOLYLINE
  5
1af
100
AcDbEntity
  8
0
 62
5
100
AcDbPolyline
 90
7
 70
0
 10
180.232420
 20
276.214927
 30
0.0
 10
177.370912
 20
275.906214
 30
0.0
 10
177.398542
 20
273.070049
 30
0.0
 10
179.264736
 20
271.768306
 30
0.0
 10
179.315426
 20
272.330470
 30
0.0
 10
179.877590
 20
272.279780
 30
0.0
 10
177.697917
 20
248.106730
 30
0.0
  0
LWPOLYLINE
  5
1b0
100
AcDbEntity
  8
0
 62
1
100
AcDbPolyline
 90
2
 70
0
 10
180.131040
 20
275.090599
 30
0.0
 10
179.978970
 20
273.404108
 30
0.0
  0
LWPOLYLINE
  5
1b1
100
AcDbEntity
  8
0
 62
5
100
AcDbPolyline
 90
8
 70
0
 10
177.697785
 20
248.106741
 30
0.0
 10
175.923634
 20
267.782462
 30
0.0
 10
177.840516
 20
268.522039
 30
0.0
 10
177.868145
 20
271.358202
 30
0.0
 10
176.054930
 20
272.611541
 30
0.0
 10
176.105620
 20
272.049378
 30
0.0
 10
175.543456
 20
271.998687
 30
0.0
 10
175.163282
 20
276.214913
 30
0.0
  0
LWPOLYLINE
  5
1b2
100
AcDbEntity
  8
0
 62
1
100
AcDbPolyline
 90
2
 70
0
 10
175.822254
 20
268.906789
 30
0.0
 10
175.644838
 20
270.874361
 30
0.0
  0
LWPOLYLINE
  5
1b3
100
AcDbEntity
  8
0
 62
5
100
AcDbPolyline
 90
4
 70
0
 10
151.156086
 20
291.052007
 30
0.0
 10
158.776599
 20
292.645986
 30
0.0
 10
173.181007
 20
283.743738
 30
0.0
 10
175.163429
 20
276.214926
 30
0.0
  0
LWPOLYLINE
  5
1b4
100
AcDbEntity
  8
0
 62
5
100
AcDbPolyline
 90
4
 70
0
 10
157.433030
 20
286.177404
 30
0.0
 10
159.135177
 20
286.784288
 30
0.0
 10
167.777820
 20
281.442939
 30
0.0
 10
167.996260
 20
279.649088
 30
0.0
  0
LWPOLYLINE
  5
1b5
100
AcDbEntity
  8
0
 62
1
100
AcDbPolyline
 90
2
 70
0
 10
151.156086
 20
291.052007
 30
0.0
 10
157.878142
 20
286.897624
 30
0.0
  0
LWPOLYLINE
  5
1b6
100
AcDbEntity
  8
0
 62
1
100
AcDbPolyline
 90
2
 70
0
 10
175.163429
 20
276.214926
 30
0.0
 10
168.441373
 20
280.369309
 30
0.0
  0
SPLINE
  5
1b7
100
AcDbEntity
  8
0
 62
5
100
AcDbSpline
 70
0
 71
3
 72
10
 73
6
 74
4
 40
0.000000
 40
0.000000
 40
0.000000
 40
0.000000
 40
1.743686
 40
3.211831
 40
3.851412
 40
3.851412
 40
3.851412
 40
3.851412
 10
174.649714
 20
294.130394
 30
0.0
 10
175.049557
 20
294.560970
 30
0.0
 10
175.786060
 20
295.354083
 30
0.0
 10
176.990230
 20
295.874043
 30
0.0
 10
177.665667
 20
296.063526
 30
0.0
 10
177.870626
 20
296.121024
 30
0.0
 11
174.649714
 21
294.130394
 31
0.0
 11
175.928144
 21
295.316167
 31
0.0
 11
177.257264
 21
295.939777
 31
0.0
 11
177.870626
 21
296.121024
 31
0.0
  0
SPLINE
  5
1b8
100
AcDbEntity
  8
0
 62
5
100
AcDbSpline
 70
0
 71
3
 72
10
 73
6
 74
4
 40
0.000000
 40
0.000000
 40
0.000000
 40
0.000000
 40
0.639580
 40
2.107724
 40
3.851409
 40
3.851409
 40
3.851409
 40
3.851409
 10
150.983371
 20
299.254272
 30
0.0
 10
151.188330
 20
299.311770
 30
0.0
 10
151.863766
 20
299.501253
 30
0.0
 10
153.067936
 20
300.021214
 30
0.0
 10
153.804438
 20
300.814326
 30
0.0
 10
154.204281
 20
301.244902
 30
0.0
 11
150.983371
 21
299.254272
 31
0.0
 11
151.596733
 21
299.435520
 31
0.0
 11
152.925851
 21
300.059129
 31
0.0
 11
154.204281
 21
301.244902
 31
0.0
  0
SPLINE
  5
1b9
100
AcDbEntity
  8
0
 62
5
100
AcDbSpline
 70
0
 71
3
 72
10
 73
6
 74
4
 40
0.000000
 40
0.000000
 40
0.000000
 40
0.000000
 40
2.923535
 40
5.996620
 40
8.920154
 40
8.920154
 40
8.920154
 40
8.920154
 10
154.204281
 20
301.244902
 30
0.0
 10
154.573275
 20
302.155879
 30
0.0
 10
155.330140
 20
304.024432
 30
0.0
 10
155.048845
 20
307.144057
 30
0.0
 10
153.969934
 20
308.847078
 30
0.0
 10
153.443932
 20
309.677353
 30
0.0
 11
154.204281
 21
301.244902
 31
0.0
 11
155.086422
 21
304.032174
 31
0.0
 11
154.810443
 21
307.092842
 31
0.0
 11
153.443932
 21
309.677353
 31
0.0
  0
LWPOLYLINE
  5
1ba
100
AcDbEntity
  8
0
 62
5
100
AcDbPolyline
 90
4
 70
0
 10
151.156213
 20
291.052213
 30
0.0
 10
150.269138
 20
300.890072
 30
0.0
 10
150.831302
 20
300.940763
 30
0.0
 10
150.983371
 20
299.254272
 30
0.0
  0
LWPOLYLINE
  5
1bb
100
AcDbEntity
  8
0
 62
5
100
AcDbPolyline
 90
4
 70
0
 10
149.918880
 20
311.059703
 30
0.0
 10
150.070950
 20
309.373213
 30
0.0
 10
149.508789
 20
309.322523
 30
0.0
 10
148.621713
 20
319.160382
 30
0.0
  0
LWPOLYLINE
  5
1bc
100
AcDbEntity
  8
0
 62
1
100
AcDbPolyline
 90
2
 70
0
 10
150.091721
 20
302.857644
 30
0.0
 10
149.686202
 20
307.354951
 30
0.0
  0
LWPOLYLINE
  5
1bd
100
AcDbEntity
  8
0
 62
5
100
AcDbPolyline
 90
4
 70
0
 10
124.614234
 20
304.323290
 30
0.0
 10
126.596659
 20
311.852101
 30
0.0
 10
141.001064
 20
320.754350
 30
0.0
 10
148.621578
 20
319.160370
 30
0.0
  0
LWPOLYLINE
  5
1be
100
AcDbEntity
  8
0
 62
5
100
AcDbPolyline
 90
4
 70
0
 10
131.781403
 20
307.757452
 30
0.0
 10
131.999843
 20
309.551302
 30
0.0
 10
140.642487
 20
314.892652
 30
0.0
 10
142.344634
 20
314.285767
 30
0.0
  0
LWPOLYLINE
  5
1bf
100
AcDbEntity
  8
0
 62
1
100
AcDbPolyline
 90
2
 70
0
 10
124.614234
 20
304.323290
 30
0.0
 10
131.336291
 20
308.477672
 30
0.0
  0
LWPOLYLINE
  5
1c0
100
AcDbEntity
  8
0
 62
1
100
AcDbPolyline
 90
2
 70
0
 10
148.621578
 20
319.160370
 30
0.0
 10
141.899521
 20
315.005988
 30
0.0
  0
SPLINE
  5
1c1
100
AcDbEntity
  8
0
 62
5
100
AcDbSpline
 70
0
 71
3
 72
10
 73
6
 74
4
 40
0.000000
 40
0.000000
 40
0.000000
 40
0.000000
 40
1.743686
 40
3.211831
 40
3.851411
 40
3.851411
 40
3.851411
 40
3.851411
 10
153.443932
 20
309.677353
 30
0.0
 10
152.973514
 20
310.029459
 30
0.0
 10
152.107016
 20
310.678030
 30
0.0
 10
150.829256
 20
310.974196
 30
0.0
 10
150.130818
 20
311.039797
 30
0.0
 10
149.918880
 20
311.059703
 30
0.0
 11
153.443932
 21
309.677353
 31
0.0
 11
151.974006
 21
310.615309
 31
0.0
 11
150.554771
 21
310.991100
 31
0.0
 11
149.918880
 21
311.059703
 31
0.0
  0
SPLINE
  5
1c2
100
AcDbEntity
  8
0
 62
5
100
AcDbSpline
 70
0
 71
3
 72
10
 73
6
 74
4
 40
0.000000
 40
0.000000
 40
0.000000
 40
0.000000
 40
0.639580
 40
2.107723
 40
3.851409
 40
3.851409
 40
3.851409
 40
3.851409
 10
125.851691
 20
284.315593
 30
0.0
 10
125.639754
 20
284.335499
 30
0.0
 10
124.941316
 20
284.401100
 30
0.0
 10
123.663557
 20
284.697267
 30
0.0
 10
122.797060
 20
285.345837
 30
0.0
 10
122.326643
 20
285.697943
 30
0.0
 11
125.851691
 21
284.315593
 31
0.0
 11
125.215801
 21
284.384196
 31
0.0
 11
123.796567
 21
284.759988
 31
0.0
 11
122.326643
 21
285.697943
 31
0.0
  0
SPLINE
  5
1c3
100
AcDbEntity
  8
0
 62
5
100
AcDbSpline
 70
0
 71
3
 72
10
 73
6
 74
4
 40
0.000000
 40
0.000000
 40
0.000000
 40
0.000000
 40
2.923536
 40
5.996620
 40
8.920155
 40
8.920155
 40
8.920155
 40
8.920155
 10
122.326643
 20
285.697943
 30
0.0
 10
121.800640
 20
286.528218
 30
0.0
 10
120.721727
 20
288.231239
 30
0.0
 10
120.440431
 20
291.350865
 30
0.0
 10
121.197296
 20
293.219417
 30
0.0
 10
121.566291
 20
294.130394
 30
0.0
 11
122.326643
 21
285.697943
 31
0.0
 11
120.960129
 21
288.282455
 31
0.0
 11
120.684150
 21
291.343122
 31
0.0
 11
121.566291
 21
294.130394
 31
0.0
  0
LWPOLYLINE
  5
1c4
100
AcDbEntity
  8
0
 62
5
100
AcDbPolyline
 90
4
 70
0
 10
127.148861
 20
276.214914
 30
0.0
 10
126.261786
 20
286.052773
 30
0.0
 10
125.699622
 20
286.002083
 30
0.0
 10
125.851691
 20
284.315593
 30
0.0
  0
LWPOLYLINE
  5
1c5
100
AcDbEntity
  8
0
 62
5
100
AcDbPolyline
 90
4
 70
0
 10
124.787203
 20
296.121024
 30
0.0
 10
124.939273
 20
294.434534
 30
0.0
 10
125.501437
 20
294.485224
 30
0.0
 10
124.614361
 20
304.323083
 30
0.0
  0
LWPOLYLINE
  5
1c6
100
AcDbEntity
  8
0
 62
1
100
AcDbPolyline
 90
2
 70
0
 10
126.084370
 20
288.020345
 30
0.0
 10
125.678850
 20
292.517652
 30
0.0
  0
LWPOLYLINE
  5
1c7
100
AcDbEntity
  8
0
 62
5
100
AcDbPolyline
 90
7
 70
0
 10
127.148996
 20
276.214927
 30
0.0
 10
124.287489
 20
275.906214
 30
0.0
 10
124.315118
 20
273.070049
 30
0.0
 10
126.181313
 20
271.768306
 30
0.0
 10
126.232003
 20
272.330470
 30
0.0
 10
126.794167
 20
272.279780
 30
0.0
 10
124.614494
 20
248.106730
 30
0.0
  0
LWPOLYLINE
  5
1c8
100
AcDbEntity
  8
0
 62
1
100
AcDbPolyline
 90
2
 70
0
 10
127.047617
 20
275.090599
 30
0.0
 10
126.895547
 20
273.404108
 30
0.0
  0
LWPOLYLINE
  5
1c9
100
AcDbEntity
  8
0
 62
5
100
AcDbPolyline
 90
8
 70
0
 10
124.614361
 20
248.106741
 30
0.0
 10
122.840211
 20
267.782462
 30
0.0
 10
124.757093
 20
268.522039
 30
0.0
 10
124.784722
 20
271.358202
 30
0.0
 10
122.971506
 20
272.611541
 30
0.0
 10
123.022196
 20
272.049378
 30
0.0
 10
122.460032
 20
271.998687
 30
0.0
 10
122.079856
 20
276.214913
 30
0.0
  0
LWPOLYLINE
  5
1ca
100
AcDbEntity
  8
0
 62
1
100
AcDbPolyline
 90
2
 70
0
 10
122.738831
 20
268.906789
 30
0.0
 10
122.561415
 20
270.874361
 30
0.0
  0
LWPOLYLINE
  5
1cb
100
AcDbEntity
  8
0
 62
5
100
AcDbPolyline
 90
4
 70
0
 10
98.072662
 20
291.052007
 30
0.0
 10
105.693176
 20
292.645986
 30
0.0
 10
120.097584
 20
283.743738
 30
0.0
 10
122.080006
 20
276.214926
 30
0.0
  0
LWPOLYLINE
  5
1cc
100
AcDbEntity
  8
0
 62
5
100
AcDbPolyline
 90
4
 70
0
 10
104.349606
 20
286.177404
 30
0.0
 10
106.051754
 20
286.784288
 30
0.0
 10
114.694397
 20
281.442939
 30
0.0
 10
114.912837
 20
279.649088
 30
0.0
  0
LWPOLYLINE
  5
1cd
100
AcDbEntity
  8
0
 62
1
100
AcDbPolyline
 90
2
 70
0
 10
98.072662
 20
291.052007
 30
0.0
 10
104.794719
 20
286.897624
 30
0.0
  0
LWPOLYLINE
  5
1ce
100
AcDbEntity
  8
0
 62
1
100
AcDbPolyline
 90
2
 70
0
 10
122.080006
 20
276.214926
 30
0.0
 10
115.357950
 20
280.369309
 30
0.0
  0
SPLINE
  5
1cf
100
AcDbEntity
  8
0
 62
5
100
AcDbSpline
 70
0
 71
3
 72
10
 73
6
 74
4
 40
0.000000
 40
0.000000
 40
0.000000
 40
0.000000
 40
1.743686
 40
3.211831
 40
3.851412
 40
3.851412
 40
3.851412
 40
3.851412
 10
121.566291
 20
294.130394
 30
0.0
 10
121.966134
 20
294.560970
 30
0.0
 10
122.702637
 20
295.354083
 30
0.0
 10
123.906807
 20
295.874043
 30
0.0
 10
124.582244
 20
296.063526
 30
0.0
 10
124.787203
 20
296.121024
 30
0.0
 11
121.566291
 21
294.130394
 31
0.0
 11
122.844721
 21
295.316167
 31
0.0
 11
124.173841
 21
295.939777
 31
0.0
 11
124.787203
 21
296.121024
 31
0.0
  0
SPLINE
  5
1d0
100
AcDbEntity
  8
0
 62
5
100
AcDbSpline
 70
0
 71
3
 72
10
 73
6
 74
4
 40
0.000000
 40
0.000000
 40
0.000000
 40
0.000000
 40
0.639580
 40
2.107724
 40
3.851409
 40
3.851409
 40
3.851409
 40
3.851409
 10
97.899948
 20
299.254272
 30
0.0
 10
98.104907
 20
299.311770
 30
0.0
 10
98.780343
 20
299.501253
 30
0.0
 10
99.984512
 20
300.021214
 30
0.0
 10
100.721014
 20
300.814326
 30
0.0
 10
101.120857
 20
301.244902
 30
0.0
 11
97.899948
 21
299.254272
 31
0.0
 11
98.513309
 21
299.435520
 31
0.0
 11
99.842428
 21
300.059129
 31
0.0
 11
101.120857
 21
301.244902
 31
0.0
  0
SPLINE
  5
1d1
100
AcDbEntity
  8
0
 62
5
100
AcDbSpline
 70
0
 71
3
 72
10
 73
6
 74
4
 40
0.000000
 40
0.000000
 40
0.000000
 40
0.000000
 40
2.923535
 40
5.996620
 40
8.920154
 40
8.920154
 40
8.920154
 40
8.920154
 10
101.120857
 20
301.244902
 30
0.0
 10
101.489852
 20
302.155879
 30
0.0
 10
102.246717
 20
304.024432
 30
0.0
 10
101.965422
 20
307.144057
 30
0.0
 10
100.886511
 20
308.847078
 30
0.0
 10
100.360508
 20
309.677353
 30
0.0
 11
101.120857
 21
301.244902
 31
0.0
 11
102.002998
 21
304.032174
 31
0.0
 11
101.727020
 21
307.092842
 31
0.0
 11
100.360508
 21
309.677353
 31
0.0
  0
LWPOLYLINE
  5
1d2
100
AcDbEntity
  8
0
 62
5
100
AcDbPolyline
 90
4
 70
0
 10
98.072789
 20
291.052213
 30
0.0
 10
97.185714
 20
300.890072
 30
0.0
 10
97.747878
 20
300.940763
 30
0.0
 10
97.899948
 20
299.254272
 30
0.0
  0
LWPOLYLINE
  5
1d3
100
AcDbEntity
  8
0
 62
5
100
AcDbPolyline
 90
4
 70
0
 10
96.835457
 20
311.059703
 30
0.0
 10
96.987527
 20
309.373213
 30
0.0
 10
96.425365
 20
309.322523
 30
0.0
 10
95.538290
 20
319.160382
 30
0.0
  0
LWPOLYLINE
  5
1d4
100
AcDbEntity
  8
0
 62
1
100
AcDbPolyline
 90
2
 70
0
 10
97.008298
 20
302.857644
 30
0.0
 10
96.602779
 20
307.354951
 30
0.0
  0
LWPOLYLINE
  5
1d5
100
AcDbEntity
  8
0
 62
5
100
AcDbPolyline
 90
4
 70
0
 10
71.530808
 20
304.323290
 30
0.0
 10
73.513233
 20
311.852101
 30
0.0
 10
87.917638
 20
320.754350
 30
0.0
 10
95.538152
 20
319.160370
 30
0.0
  0
LWPOLYLINE
  5
1d6
100
AcDbEntity
  8
0
 62
5
100
AcDbPolyline
 90
4
 70
0
 10
78.697977
 20
307.757452
 30
0.0
 10
78.916417
 20
309.551302
 30
0.0
 10
87.559061
 20
314.892652
 30
0.0
 10
89.261208
 20
314.285767
 30
0.0
  0
LWPOLYLINE
  5
1d7
100
AcDbEntity
  8
0
 62
1
100
AcDbPolyline
 90
2
 70
0
 10
71.530808
 20
304.323290
 30
0.0
 10
78.252865
 20
308.477672
 30
0.0
  0
LWPOLYLINE
  5
1d8
100
AcDbEntity
  8
0
 62
1
100
AcDbPolyline
 90
2
 70
0
 10
95.538152
 20
319.160370
 30
0.0
 10
88.816095
 20
315.005988
 30
0.0
  0
SPLINE
  5
1d9
100
AcDbEntity
  8
0
 62
5
100
AcDbSpline
 70
0
 71
3
 72
10
 73
6
 74
4
 40
0.000000
 40
0.000000
 40
0.000000
 40
0.000000
 40
1.743686
 40
3.211831
 40
3.851411
 40
3.851411
 40
3.851411
 40
3.851411
 10
100.360508
 20
309.677353
 30
0.0
 10
99.890091
 20
310.029459
 30
0.0
 10
99.023593
 20
310.678030
 30
0.0
 10
97.745833
 20
310.974196
 30
0.0
 10
97.047395
 20
311.039797
 30
0.0
 10
96.835457
 20
311.059703
 30
0.0
 11
100.360508
 21
309.677353
 31
0.0
 11
98.890583
 21
310.615309
 31
0.0
 11
97.471347
 21
310.991100
 31
0.0
 11
96.835457
 21
311.059703
 31
0.0
  0
SPLINE
  5
1da
100
AcDbEntity
  8
0
 62
5
100
AcDbSpline
 70
0
 71
3
 72
10
 73
6
 74
4
 40
0.000000
 40
0.000000
 40
0.000000
 40
0.000000
 40
0.639580
 40
2.107723
 40
3.851408
 40
3.851408
 40
3.851408
 40
3.851408
 10
72.768268
 20
284.315611
 30
0.0
 10
72.556330
 20
284.335518
 30
0.0
 10
71.857893
 20
284.401119
 30
0.0
 10
70.580134
 20
284.697284
 30
0.0
 10
69.713636
 20
285.345855
 30
0.0
 10
69.243219
 20
285.697960
 30
0.0
 11
72.768268
 21
284.315611
 31
0.0
 11
72.132378
 21
284.384214
 31
0.0
 11
70.713144
 21
284.760005
 31
0.0
 11
69.243219
 21
285.697960
 31
0.0
  0
SPLINE
  5
1db
100
AcDbEntity
  8
0
 62
5
100
AcDbSpline
 70
0
 71
3
 72
10
 73
6
 74
4
 40
0.000000
 40
0.000000
 40
0.000000
 40
0.000000
 40
2.923532
 40
5.996614
 40
8.920146
 40
8.920146
 40
8.920146
 40
8.920146
 10
69.243219
 20
285.697960
 30
0.0
 10
68.717218
 20
286.528234
 30
0.0
 10
67.638307
 20
288.231254
 30
0.0
 10
67.357011
 20
291.350877
 30
0.0
 10
68.113876
 20
293.219428
 30
0.0
 10
68.482870
 20
294.130403
 30
0.0
 11
69.243219
 21
285.697960
 31
0.0
 11
67.876709
 21
288.282469
 31
0.0
 11
67.600730
 21
291.343134
 31
0.0
 11
68.482870
 21
294.130403
 31
0.0
  0
LWPOLYLINE
  5
1dc
100
AcDbEntity
  8
0
 62
5
100
AcDbPolyline
 90
4
 70
0
 10
74.065435
 20
276.214939
 30
0.0
 10
73.178360
 20
286.052790
 30
0.0
 10
72.616198
 20
286.002100
 30
0.0
 10
72.768268
 20
284.315611
 30
0.0
  0
LWPOLYLINE
  5
1dd
100
AcDbEntity
  8
0
 62
5
100
AcDbPolyline
 90
4
 70
0
 10
71.703779
 20
296.121032
 30
0.0
 10
71.855849
 20
294.434543
 30
0.0
 10
72.418011
 20
294.485233
 30
0.0
 10
71.530935
 20
304.323083
 30
0.0
  0
LWPOLYLINE
  5
1de
100
AcDbEntity
  8
0
 62
1
100
AcDbPolyline
 90
2
 70
0
 10
73.000946
 20
288.020360
 30
0.0
 10
72.595427
 20
292.517663
 30
0.0
  0
LWPOLYLINE
  5
1df
100
AcDbEntity
  8
0
 62
5
100
AcDbPolyline
 90
7
 70
0
 10
74.065294
 20
276.214927
 30
0.0
 10
71.203786
 20
275.906214
 30
0.0
 10
71.231416
 20
273.070052
 30
0.0
 10
73.097607
 20
271.768310
 30
0.0
 10
73.148300
 20
272.330473
 30
0.0
 10
73.710461
 20
272.279783
 30
0.0
 10
71.530791
 20
248.106755
 30
0.0
  0
LWPOLYLINE
  5
1e0
100
AcDbEntity
  8
0
 62
1
100
AcDbPolyline
 90
2
 70
0
 10
73.963911
 20
275.090601
 30
0.0
 10
73.811841
 20
273.404110
 30
0.0
  0
LWPOLYLINE
  5
1e1
100
AcDbEntity
  8
0
 62
5
100
AcDbPolyline
 90
8
 70
0
 10
71.530938
 20
248.106741
 30
0.0
 10
69.756785
 20
267.782479
 30
0.0
 10
71.673669
 20
268.522059
 30
0.0
 10
71.701299
 20
271.358223
 30
0.0
 10
69.888080
 20
272.611563
 30
0.0
 10
69.938770
 20
272.049399
 30
0.0
 10
69.376609
 20
271.998709
 30
0.0
 10
68.996433
 20
276.214938
 30
0.0
  0
LWPOLYLINE
  5
1e2
100
AcDbEntity
  8
0
 62
1
100
AcDbPolyline
 90
2
 70
0
 10
69.655405
 20
268.906807
 30
0.0
 10
69.477992
 20
270.874381
 30
0.0
  0
LWPOLYLINE
  5
1e3
100
AcDbEntity
  8
0
 62
5
100
AcDbPolyline
 90
4
 70
0
 10
44.988957
 20
291.052007
 30
0.0
 10
52.609471
 20
292.645986
 30
0.0
 10
67.013878
 20
283.743738
 30
0.0
 10
68.996300
 20
276.214926
 30
0.0
  0
LWPOLYLINE
  5
1e4
100
AcDbEntity
  8
0
 62
5
100
AcDbPolyline
 90
4
 70
0
 10
51.265901
 20
286.177404
 30
0.0
 10
52.968048
 20
286.784288
 30
0.0
 10
61.610692
 20
281.442939
 30
0.0
 10
61.829132
 20
279.649088
 30
0.0
  0
LWPOLYLINE
  5
1e5
100
AcDbEntity
  8
0
 62
1
100
AcDbPolyline
 90
2
 70
0
 10
44.988957
 20
291.052007
 30
0.0
 10
51.711013
 20
286.897624
 30
0.0
  0
LWPOLYLINE
  5
1e6
100
AcDbEntity
  8
0
 62
1
100
AcDbPolyline
 90
2
 70
0
 10
68.996300
 20
276.214926
 30
0.0
 10
62.274244
 20
280.369309
 30
0.0
  0
SPLINE
  5
1e7
100
AcDbEntity
  8
0
 62
5
100
AcDbSpline
 70
0
 71
3
 72
10
 73
6
 74
4
 40
0.000000
 40
0.000000
 40
0.000000
 40
0.000000
 40
1.743685
 40
3.211828
 40
3.851408
 40
3.851408
 40
3.851408
 40
3.851408
 10
68.482870
 20
294.130403
 30
0.0
 10
68.882713
 20
294.560979
 30
0.0
 10
69.619215
 20
295.354091
 30
0.0
 10
70.823385
 20
295.874051
 30
0.0
 10
71.498821
 20
296.063534
 30
0.0
 10
71.703779
 20
296.121032
 30
0.0
 11
68.482870
 21
294.130403
 31
0.0
 11
69.761300
 21
295.316175
 31
0.0
 11
71.090418
 21
295.939784
 31
0.0
 11
71.703779
 21
296.121032
 31
0.0
  0
SPLINE
  5
1e8
100
AcDbEntity
  8
0
 62
5
100
AcDbSpline
 70
0
 71
3
 72
10
 73
6
 74
4
 40
0.000000
 40
0.000000
 40
0.000000
 40
0.000000
 40
0.639580
 40
2.107723
 40
3.851406
 40
3.851406
 40
3.851406
 40
3.851406
 10
44.816243
 20
299.254265
 30
0.0
 10
45.021201
 20
299.311763
 30
0.0
 10
45.696637
 20
299.501245
 30
0.0
 10
46.900806
 20
300.021205
 30
0.0
 10
47.637307
 20
300.814317
 30
0.0
 10
48.037149
 20
301.244893
 30
0.0
 11
44.816243
 21
299.254265
 31
0.0
 11
45.429604
 21
299.435512
 31
0.0
 11
46.758722
 21
300.059121
 31
0.0
 11
48.037149
 21
301.244893
 31
0.0
  0
SPLINE
  5
1e9
100
AcDbEntity
  8
0
 62
5
100
AcDbSpline
 70
0
 71
3
 72
10
 73
6
 74
4
 40
0.000000
 40
0.000000
 40
0.000000
 40
0.000000
 40
2.923533
 40
5.996614
 40
8.920147
 40
8.920147
 40
8.920147
 40
8.920147
 10
48.037149
 20
301.244893
 30
0.0
 10
48.406144
 20
302.155869
 30
0.0
 10
49.163008
 20
304.024420
 30
0.0
 10
48.881714
 20
307.144043
 30
0.0
 10
47.802802
 20
308.847063
 30
0.0
 10
47.276800
 20
309.677337
 30
0.0
 11
48.037149
 21
301.244893
 31
0.0
 11
48.919290
 21
304.032163
 31
0.0
 11
48.643311
 21
307.092827
 31
0.0
 11
47.276800
 21
309.677337
 31
0.0
  0
LWPOLYLINE
  5
1ea
100
AcDbEntity
  8
0
 62
5
100
AcDbPolyline
 90
4
 70
0
 10
44.989084
 20
291.052213
 30
0.0
 10
44.102009
 20
300.890064
 30
0.0
 10
44.664173
 20
300.940754
 30
0.0
 10
44.816243
 20
299.254265
 30
0.0
  0
LWPOLYLINE
  5
1eb
100
AcDbEntity
  8
0
 62
5
100
AcDbPolyline
 90
4
 70
0
 10
43.751754
 20
311.059685
 30
0.0
 10
43.903824
 20
309.373197
 30
0.0
 10
43.341660
 20
309.322507
 30
0.0
 10
42.454584
 20
319.160357
 30
0.0
  0
LWPOLYLINE
  5
1ec
100
AcDbEntity
  8
0
 62
1
100
AcDbPolyline
 90
2
 70
0
 10
43.924595
 20
302.857634
 30
0.0
 10
43.519076
 20
307.354937
 30
0.0
  0
LWPOLYLINE
  5
1ed
100
AcDbEntity
  8
0
 62
5
100
AcDbPolyline
 90
4
 70
0
 10
18.447305
 20
304.323239
 30
0.0
 10
20.429736
 20
311.852077
 30
0.0
 10
34.834192
 20
320.754355
 30
0.0
 10
42.454731
 20
319.160370
 30
0.0
  0
LWPOLYLINE
  5
1ee
100
AcDbEntity
  8
0
 62
5
100
AcDbPolyline
 90
4
 70
0
 10
25.614498
 20
307.757413
 30
0.0
 10
25.832939
 20
309.551270
 30
0.0
 10
34.475612
 20
314.892637
 30
0.0
 10
36.177765
 20
314.285751
 30
0.0
  0
LWPOLYLINE
  5
1ef
100
AcDbEntity
  8
0
 62
1
100
AcDbPolyline
 90
2
 70
0
 10
18.447305
 20
304.323239
 30
0.0
 10
25.169385
 20
308.477636
 30
0.0
  0
LWPOLYLINE
  5
1f0
100
AcDbEntity
  8
0
 62
1
100
AcDbPolyline
 90
2
 70
0
 10
42.454731
 20
319.160370
 30
0.0
 10
35.732652
 20
315.005974
 30
0.0
  0
SPLINE
  5
1f1
100
AcDbEntity
  8
0
 62
5
100
AcDbSpline
 70
0
 71
3
 72
10
 73
6
 74
4
 40
0.000000
 40
0.000000
 40
0.000000
 40
0.000000
 40
1.743684
 40
3.211826
 40
3.851405
 40
3.851405
 40
3.851405
 40
3.851405
 10
47.276800
 20
309.677337
 30
0.0
 10
46.806383
 20
310.029442
 30
0.0
 10
45.939886
 20
310.678012
 30
0.0
 10
44.662128
 20
310.974178
 30
0.0
 10
43.963692
 20
311.039779
 30
0.0
 10
43.751754
 20
311.059685
 30
0.0
 11
47.276800
 21
309.677337
 31
0.0
 11
45.806876
 21
310.615291
 31
0.0
 11
44.387643
 21
310.991083
 31
0.0
 11
43.751754
 21
311.059685
 31
0.0
  0
SPLINE
  5
1f2
100
AcDbEntity
  8
0
 62
5
100
AcDbSpline
 70
0
 71
3
 72
10
 73
6
 74
4
 40
0.000000
 40
0.000000
 40
0.000000
 40
0.000000
 40
0.639580
 40
2.107723
 40
3.851408
 40
3.851408
 40
3.851408
 40
3.851408
 10
19.684732
 20
284.315603
 30
0.0
 10
19.472794
 20
284.335509
 30
0.0
 10
18.774357
 20
284.401110
 30
0.0
 10
17.496598
 20
284.697276
 30
0.0
 10
16.630100
 20
285.345847
 30
0.0
 10
16.159683
 20
285.697952
 30
0.0
 11
19.684732
 21
284.315603
 31
0.0
 11
19.048842
 21
284.384206
 31
0.0
 11
17.629607
 21
284.759997
 31
0.0
 11
16.159683
 21
285.697952
 31
0.0
  0
SPLINE
  5
1f3
100
AcDbEntity
  8
0
 62
5
100
AcDbSpline
 70
0
 71
3
 72
10
 73
6
 74
4
 40
0.000000
 40
0.000000
 40
0.000000
 40
0.000000
 40
2.923534
 40
5.996617
 40
8.920150
 40
8.920150
 40
8.920150
 40
8.920150
 10
16.159683
 20
285.697952
 30
0.0
 10
15.633681
 20
286.528226
 30
0.0
 10
14.554769
 20
288.231247
 30
0.0
 10
14.273474
 20
291.350871
 30
0.0
 10
15.030339
 20
293.219422
 30
0.0
 10
15.399333
 20
294.130398
 30
0.0
 11
16.159683
 21
285.697952
 31
0.0
 11
14.793172
 21
288.282462
 31
0.0
 11
14.517193
 21
291.343128
 31
0.0
 11
15.399333
 21
294.130398
 31
0.0
  0
LWPOLYLINE
  5
1f4
100
AcDbEntity
  8
0
 62
5
100
AcDbPolyline
 90
4
 70
0
 10
20.981899
 20
276.214928
 30
0.0
 10
20.094825
 20
286.052782
 30
0.0
 10
19.532662
 20
286.002092
 30
0.0
 10
19.684732
 20
284.315603
 30
0.0
  0
LWPOLYLINE
  5
1f5
100
AcDbEntity
  8
0
 62
5
100
AcDbPolyline
 90
4
 70
0
 10
18.620242
 20
296.121027
 30
0.0
 10
18.772312
 20
294.434538
 30
0.0
 10
19.334475
 20
294.485228
 30
0.0
 10
18.447400
 20
304.323082
 30
0.0
  0
LWPOLYLINE
  5
1f6
100
AcDbEntity
  8
0
 62
1
100
AcDbPolyline
 90
2
 70
0
 10
19.917410
 20
288.020353
 30
0.0
 10
19.511890
 20
292.517657
 30
0.0
  0
LWPOLYLINE
  5
1f7
100
AcDbEntity
  8
0
 62
5
100
AcDbPolyline
 90
7
 70
0
 10
20.981868
 20
276.214926
 30
0.0
 10
18.120360
 20
275.906213
 30
0.0
 10
18.147993
 20
273.070050
 30
0.0
 10
20.014185
 20
271.768307
 30
0.0
 10
20.064875
 20
272.330471
 30
0.0
 10
20.627039
 20
272.279781
 30
0.0
 10
18.447368
 20
248.106744
 30
0.0
  0
LWPOLYLINE
  5
1f8
100
AcDbEntity
  8
0
 62
1
100
AcDbPolyline
 90
2
 70
0
 10
20.880488
 20
275.090599
 30
0.0
 10
20.728418
 20
273.404108
 30
0.0
  0
LWPOLYLINE
  5
1f9
100
AcDbEntity
  8
0
 62
5
100
AcDbPolyline
 90
8
 70
0
 10
18.447402
 20
248.106741
 30
0.0
 10
16.673250
 20
267.782470
 30
0.0
 10
18.590133
 20
268.522051
 30
0.0
 10
18.617765
 20
271.358213
 30
0.0
 10
16.804549
 20
272.611552
 30
0.0
 10
16.855239
 20
272.049388
 30
0.0
 10
16.293076
 20
271.998698
 30
0.0
 10
15.912900
 20
276.214926
 30
0.0
  0
LWPOLYLINE
  5
1fa
100
AcDbEntity
  8
0
 62
1
100
AcDbPolyline
 90
2
 70
0
 10
16.571870
 20
268.906798
 30
0.0
 10
16.394455
 20
270.874371
 30
0.0
  0
LWPOLYLINE
  5
1fb
100
AcDbEntity
  8
0
 62
5
100
AcDbPolyline
 90
4
 70
0
 10
-8.094446
 20
261.377843
 30
0.0
 10
-6.112021
 20
268.906657
 30
0.0
 10
8.292390
 20
277.808908
 30
0.0
 10
15.912907
 20
276.214929
 30
0.0
  0
LWPOLYLINE
  5
1fc
100
AcDbEntity
  8
0
 62
5
100
AcDbPolyline
 90
4
 70
0
 10
-0.927275
 20
264.812008
 30
0.0
 10
-0.708835
 20
266.605858
 30
0.0
 10
7.933812
 20
271.947208
 30
0.0
 10
9.635960
 20
271.340324
 30
0.0
  0
LWPOLYLINE
  5
1fd
100
AcDbEntity
  8
0
 62
1
100
AcDbPolyline
 90
2
 70
0
 10
-8.094446
 20
261.377843
 30
0.0
 10
-1.372387
 20
265.532228
 30
0.0
  0
LWPOLYLINE
  5
1fe
100
AcDbEntity
  8
0
 62
1
100
AcDbPolyline
 90
2
 70
0
 10
15.912907
 20
276.214929
 30
0.0
 10
9.190848
 20
272.060545
 30
0.0
  0
LWPOLYLINE
  5
1ff
100
AcDbEntity
  8
0
 62
1
100
AcDbPolyline
 90
2
 70
0
 10
-5.559701
 20
233.269424
 30
0.0
 10
18.447533
 20
248.106693
 30
0.0
  0
LWPOLYLINE
  5
200
100
AcDbEntity
  8
0
 62
1
100
AcDbPolyline
 90
2
 70
0
 10
-5.559701
 20
233.269424
 30
0.0
 10
18.447533
 20
218.432156
 30
0.0
  0
LWPOLYLINE
  5
201
100
AcDbEntity
  8
0
 62
1
100
AcDbPolyline
 90
2
 70
0
 10
151.156323
 20
291.052166
 30
0.0
 10
127.149090
 20
276.214897
 30
0.0
  0
LWPOLYLINE
  5
202
100
AcDbEntity
  8
0
 62
1
100
AcDbPolyline
 90
2
 70
0
 10
151.156323
 20
261.377629
 30
0.0
 10
175.163556
 20
276.214897
 30
0.0
  0
LWPOLYLINE
  5
203
100
AcDbEntity
  8
0
 62
1
100
AcDbPolyline
 90
2
 70
0
 10
151.156323
 20
261.377629
 30
0.0
 10
127.149090
 20
276.214897
 30
0.0
  0
LWPOLYLINE
  5
204
100
AcDbEntity
  8
0
 62
1
100
AcDbPolyline
 90
2
 70
0
 10
42.454765
 20
233.269424
 30
0.0
 10
18.447533
 20
248.106693
 30
0.0
  0
LWPOLYLINE
  5
205
100
AcDbEntity
  8
0
 62
1
100
AcDbPolyline
 90
2
 70
0
 10
257.322961
 20
291.052166
 30
0.0
 10
233.315727
 20
276.214897
 30
0.0
  0
LWPOLYLINE
  5
206
100
AcDbEntity
  8
0
 62
1
100
AcDbPolyline
 90
2
 70
0
 10
257.322961
 20
261.377629
 30
0.0
 10
233.315727
 20
276.214897
 30
0.0
  0
LWPOLYLINE
  5
207
100
AcDbEntity
  8
0
 62
1
100
AcDbPolyline
 90
2
 70
0
 10
204.239501
 20
291.052166
 30
0.0
 10
180.232550
 20
276.214897
 30
0.0
  0
LWPOLYLINE
  5
208
100
AcDbEntity
  8
0
 62
1
100
AcDbPolyline
 90
2
 70
0
 10
204.239501
 20
261.377629
 30
0.0
 10
228.246734
 20
276.214897
 30
0.0
  0
LWPOLYLINE
  5
209
100
AcDbEntity
  8
0
 62
1
100
AcDbPolyline
 90
2
 70
0
 10
204.239501
 20
261.377629
 30
0.0
 10
180.232550
 20
276.214897
 30
0.0
  0
LWPOLYLINE
  5
20a
100
AcDbEntity
  8
0
 62
1
100
AcDbPolyline
 90
2
 70
0
 10
230.781372
 20
248.106693
 30
0.0
 10
254.788605
 20
233.269424
 30
0.0
  0
LWPOLYLINE
  5
20b
100
AcDbEntity
  8
0
 62
1
100
AcDbPolyline
 90
2
 70
0
 10
230.781372
 20
248.106693
 30
0.0
 10
206.774138
 20
233.269424
 30
0.0
  0
LWPOLYLINE
  5
20c
100
AcDbEntity
  8
0
 62
1
100
AcDbPolyline
 90
2
 70
0
 10
230.781372
 20
218.432156
 30
0.0
 10
206.774138
 20
233.269424
 30
0.0
  0
LWPOLYLINE
  5
20d
100
AcDbEntity
  8
0
 62
1
100
AcDbPolyline
 90
2
 70
0
 10
177.697912
 20
248.106693
 30
0.0
 10
201.705145
 20
233.269424
 30
0.0
  0
LWPOLYLINE
  5
20e
100
AcDbEntity
  8
0
 62
1
100
AcDbPolyline
 90
2
 70
0
 10
177.697912
 20
248.106693
 30
0.0
 10
153.690678
 20
233.269424
 30
0.0
  0
LWPOLYLINE
  5
20f
100
AcDbEntity
  8
0
 62
1
100
AcDbPolyline
 90
2
 70
0
 10
177.697912
 20
218.432156
 30
0.0
 10
153.690678
 20
233.269424
 30
0.0
  0
LWPOLYLINE
  5
210
100
AcDbEntity
  8
0
 62
1
100
AcDbPolyline
 90
2
 70
0
 10
98.072863
 20
291.052166
 30
0.0
 10
74.065347
 20
276.214897
 30
0.0
  0
LWPOLYLINE
  5
211
100
AcDbEntity
  8
0
 62
1
100
AcDbPolyline
 90
2
 70
0
 10
98.072863
 20
261.377629
 30
0.0
 10
122.080096
 20
276.214897
 30
0.0
  0
LWPOLYLINE
  5
212
100
AcDbEntity
  8
0
 62
1
100
AcDbPolyline
 90
2
 70
0
 10
98.072863
 20
261.377629
 30
0.0
 10
74.065347
 20
276.214897
 30
0.0
  0
LWPOLYLINE
  5
213
100
AcDbEntity
  8
0
 62
1
100
AcDbPolyline
 90
2
 70
0
 10
124.614452
 20
248.106693
 30
0.0
 10
148.621685
 20
233.269424
 30
0.0
  0
LWPOLYLINE
  5
214
100
AcDbEntity
  8
0
 62
1
100
AcDbPolyline
 90
2
 70
0
 10
124.614452
 20
248.106693
 30
0.0
 10
100.607218
 20
233.269424
 30
0.0
  0
LWPOLYLINE
  5
215
100
AcDbEntity
  8
0
 62
1
100
AcDbPolyline
 90
2
 70
0
 10
124.614452
 20
218.432156
 30
0.0
 10
100.607218
 20
233.269424
 30
0.0
  0
LWPOLYLINE
  5
216
100
AcDbEntity
  8
0
 62
1
100
AcDbPolyline
 90
2
 70
0
 10
71.530992
 20
248.106693
 30
0.0
 10
95.538225
 20
233.269424
 30
0.0
  0
LWPOLYLINE
  5
217
100
AcDbEntity
  8
0
 62
1
100
AcDbPolyline
 90
2
 70
0
 10
71.530992
 20
248.106693
 30
0.0
 10
47.523758
 20
233.269424
 30
0.0
  0
LWPOLYLINE
  5
218
100
AcDbEntity
  8
0
 62
1
100
AcDbPolyline
 90
2
 70
0
 10
71.530992
 20
218.432156
 30
0.0
 10
47.523758
 20
233.269424
 30
0.0
  0
LWPOLYLINE
  5
219
100
AcDbEntity
  8
0
 62
1
100
AcDbPolyline
 90
2
 70
0
 10
44.989121
 20
291.052166
 30
0.0
 10
20.981888
 20
276.214897
 30
0.0
  0
LWPOLYLINE
  5
21a
100
AcDbEntity
  8
0
 62
1
100
AcDbPolyline
 90
2
 70
0
 10
44.989121
 20
261.377629
 30
0.0
 10
20.981888
 20
276.214897
 30
0.0
  0
SPLINE
  5
21b
100
AcDbEntity
  8
0
 62
5
100
AcDbSpline
 70
0
 71
3
 72
10
 73
6
 74
4
 40
0.000000
 40
0.000000
 40
0.000000
 40
0.000000
 40
1.743685
 40
3.211828
 40
3.851408
 40
3.851408
 40
3.851408
 40
3.851408
 10
15.399333
 20
294.130398
 30
0.0
 10
15.799176
 20
294.560975
 30
0.0
 10
16.535678
 20
295.354087
 30
0.0
 10
17.739847
 20
295.874047
 30
0.0
 10
18.415283
 20
296.063530
 30
0.0
 10
18.620242
 20
296.121027
 30
0.0
 11
15.399333
 21
294.130398
 31
0.0
 11
16.677762
 21
295.316171
 31
0.0
 11
18.006881
 21
295.939780
 31
0.0
 11
18.620242
 21
296.121027
 31
0.0
  0
LWPOLYLINE
  5
21c
100
AcDbEntity
  8
0
 62
1
100
AcDbPolyline
 90
2
 70
0
 10
44.989121
 20
261.377629
 30
0.0
 10
68.996354
 20
276.214897
 30
0.0
  0
ENDSEC
  0
SECTION
  2
OBJECTS
  0
DICTIONARY
  5
C
330
0
100
AcDbDictionary
  3
ACAD_GROUP
350
D
  3
ACAD_MLINESTYLE
350
17
  0
DICTIONARY
  5
D
330
C
100
AcDbDictionary
  0
DICTIONARY
  5
1A
330
C
100
AcDbDictionary
  0
DICTIONARY
  5
17
330
C
100
AcDbDictionary
  3
STANDARD
350
18
  0
DICTIONARY
  5
19
330
C
100
AcDbDictionary
  0
ENDSEC
  0
EOF
