999
DXF created by Inkscape
  0
SECTION
  2
HEADER
  9
$ACADVER
  1
AC1014
  9
$HANDSEED
  5
FFFF
  9
$MEASUREMENT
 70
     1
  0
ENDSEC
  0
SECTION
  2
TABLES
  0
TABLE
  2
VPORT
  5
8
330
0
100
AcDbSymbolTable
 70
     4
  0
VPORT
  5
2E
330
8
100
AcDbSymbolTableRecord
100
AcDbViewportTableRecord
  2
*ACTIVE
 70
     0
 10
0.0
 20
0.0
 11
1.0
 21
1.0
 12
210.0
 22
148.5
 13
0.0
 23
0.0
 14
10.0
 24
10.0
 15
10.0
 25
10.0
 16
0.0
 26
0.0
 36
1.0
 17
0.0
 27
0.0
 37
0.0
 40
341.0
 41
1.24
 42
50.0
 43
0.0
 44
0.0
 50
0.0
 51
0.0
 71
     0
 72
   100
 73
     1
 74
     3
 75
     0
 76
     0
 77
     0
 78
     0
  0
ENDTAB
  0
TABLE
  2
LTYPE
  5
5
330
0
100
AcDbSymbolTable
 70
     1
  0
LTYPE
  5
14
330
5
100
AcDbSymbolTableRecord
100
AcDbLinetypeTableRecord
  2
BYBLOCK
 70
     0
  3

 72
    65
 73
     0
 40
0.0
  0
LTYPE
  5
15
330
5
100
AcDbSymbolTableRecord
100
AcDbLinetypeTableRecord
  2
BYLAYER
 70
     0
  3

 72
    65
 73
     0
 40
0.0
  0
LTYPE
  5
16
330
5
100
AcDbSymbolTableRecord
100
AcDbLinetypeTableRecord
  2
CONTINUOUS
 70
     0
  3
Solid line
 72
    65
 73
     0
 40
0.0
  0
ENDTAB
  0
TABLE
  2
LAYER
  5
2
330
0
100
AcDbSymbolTable
 70
1
  0
LAYER
  5
10
330
2
100
AcDbSymbolTableRecord
100
AcDbLayerTableRecord
  2
0
 70
     0
 62
     7
  6
CONTINUOUS
  0
ENDTAB
  0
TABLE
  2
STYLE
  5
3
330
0
100
AcDbSymbolTable
 70
     1
  0
STYLE
  5
11
330
3
100
AcDbSymbolTableRecord
100
AcDbTextStyleTableRecord
  2
STANDARD
 70
     0
 40
0.0
 41
1.0
 50
0.0
 71
     0
 42
2.5
  3
txt
  4

  0
ENDTAB
  0
TABLE
  2
VIEW
  5
6
330
0
100
AcDbSymbolTable
 70
     0
  0
ENDTAB
  0
TABLE
  2
UCS
  5
7
330
0
100
AcDbSymbolTable
 70
     0
  0
ENDTAB
  0
TABLE
  2
APPID
  5
9
330
0
100
AcDbSymbolTable
 70
     2
  0
APPID
  5
12
330
9
100
AcDbSymbolTableRecord
100
AcDbRegAppTableRecord
  2
ACAD
 70
     0
  0
ENDTAB
  0
TABLE
  2
DIMSTYLE
  5
A
330
0
100
AcDbSymbolTable
 70
     1
  0
DIMSTYLE
105
27
330
A
100
AcDbSymbolTableRecord
100
AcDbDimStyleTableRecord
  2
ISO-25
 70
     0
  3

  4

  5

  6

  7

 40
1.0
 41
2.5
 42
0.625
 43
3.75
 44
1.25
 45
0.0
 46
0.0
 47
0.0
 48
0.0
140
2.5
141
2.5
142
0.0
143
0.03937007874016
144
1.0
145
0.0
146
1.0
147
0.625
 71
     0
 72
     0
 73
     0
 74
     0
 75
     0
 76
     0
 77
     1
 78
     8
170
     0
171
     3
172
     1
173
     0
174
     0
175
     0
176
     0
177
     0
178
     0
270
     2
271
     2
272
     2
273
     2
274
     3
340
11
275
     0
280
     0
281
     0
282
     0
283
     0
284
     8
285
     0
286
     0
287
     3
288
     0
  0
ENDTAB
  0
TABLE
  2
BLOCK_RECORD
  5
1
330
0
100
AcDbSymbolTable
 70
     1
  0
BLOCK_RECORD
  5
1F
330
1
100
AcDbSymbolTableRecord
100
AcDbBlockTableRecord
  2
*MODEL_SPACE
  0
BLOCK_RECORD
  5
1B
330
1
100
AcDbSymbolTableRecord
100
AcDbBlockTableRecord
  2
*PAPER_SPACE
  0
ENDTAB
  0
ENDSEC
  0
SECTION
  2
BLOCKS
  0
BLOCK
  5
20
330
1F
100
AcDbEntity
  8
0
100
AcDbBlockBegin
  2
*MODEL_SPACE
 70
     0
 10
0.0
 20
0.0
 30
0.0
  3
*MODEL_SPACE
  1

  0
ENDBLK
  5
21
330
1F
100
AcDbEntity
  8
0
100
AcDbBlockEnd
  0
BLOCK
  5
1C
330
1B
100
AcDbEntity
 67
     1
  8
0
100
AcDbBlockBegin
  2
*PAPER_SPACE
  1

  0
ENDBLK
  5
1D
330
1B
100
AcDbEntity
 67
     1
  8
0
100
AcDbBlockEnd
  0
ENDSEC
  0
SECTION
  2
ENTITIES
  0
SPLINE
  5
100
100
AcDbEntity
  8
0
 62
5
100
AcDbSpline
 70
0
 71
3
 72
10
 73
6
 74
4
 40
0.000000
 40
0.000000
 40
0.000000
 40
0.000000
 40
0.639581
 40
2.107726
 40
3.851412
 40
3.851412
 40
3.851412
 40
3.851412
 10
97.341645
 20
249.015819
 30
0.0
 10
97.169892
 20
248.890061
 30
0.0
 10
96.603882
 20
248.475631
 30
0.0
 10
95.658712
 20
247.566213
 30
0.0
 10
95.247320
 20
246.565104
 30
0.0
 10
95.023977
 20
246.021607
 30
0.0
 11
97.341645
 21
249.015819
 31
0.0
 11
96.830875
 21
248.630880
 31
0.0
 11
95.805067
 21
247.580562
 31
0.0
 11
95.023977
 21
246.021607
 31
0.0
  0
SPLINE
  5
101
100
AcDbEntity
  8
0
 62
5
100
AcDbSpline
 70
0
 71
3
 72
10
 73
6
 74
4
 40
0.000000
 40
0.000000
 40
0.000000
 40
0.000000
 40
2.923537
 40
5.996623
 40
8.920159
 40
8.920159
 40
8.920159
 40
8.920159
 10
95.023977
 20
246.021607
 30
0.0
 10
94.998081
 20
245.039077
 30
0.0
 10
94.944966
 20
243.023756
 30
0.0
 10
96.302980
 20
240.201169
 30
0.0
 10
97.910847
 20
238.984986
 30
0.0
 10
98.694731
 20
238.392060
 30
0.0
 11
95.023977
 21
246.021607
 31
0.0
 11
95.175907
 21
243.102020
 31
0.0
 11
96.508255
 21
240.332778
 31
0.0
 11
98.694731
 21
238.392060
 31
0.0
  0
LWPOLYLINE
  5
102
100
AcDbEntity
  8
0
 62
5
100
AcDbPolyline
 90
4
 70
0
 10
94.301886
 20
256.635765
 30
0.0
 10
98.584433
 20
247.734626
 30
0.0
 10
98.075795
 20
247.489908
 30
0.0
 10
97.341645
 20
249.015819
 30
0.0
  0
LWPOLYLINE
  5
103
100
AcDbEntity
  8
0
 62
5
100
AcDbPolyline
 90
4
 70
0
 10
102.480703
 20
238.334450
 30
0.0
 10
101.746552
 20
239.860360
 30
0.0
 10
102.255187
 20
240.105078
 30
0.0
 10
106.537735
 20
231.203939
 30
0.0
  0
LWPOLYLINE
  5
104
100
AcDbEntity
  8
0
 62
1
100
AcDbPolyline
 90
2
 70
0
 10
99.440944
 20
245.954399
 30
0.0
 10
101.398680
 20
241.885305
 30
0.0
  0
LWPOLYLINE
  5
105
100
AcDbEntity
  8
0
 62
5
100
AcDbPolyline
 90
4
 70
0
 10
133.171791
 20
240.538312
 30
0.0
 10
129.618514
 20
233.610975
 30
0.0
 10
113.638101
 20
228.010363
 30
0.0
 10
106.537771
 20
231.203956
 30
0.0
  0
LWPOLYLINE
  5
106
100
AcDbEntity
  8
0
 62
5
100
AcDbPolyline
 90
4
 70
0
 10
125.434234
 20
238.723713
 30
0.0
 10
124.835593
 20
237.018637
 30
0.0
 10
115.247344
 20
233.658270
 30
0.0
 10
113.715267
 20
234.616595
 30
0.0
  0
LWPOLYLINE
  5
107
100
AcDbEntity
  8
0
 62
1
100
AcDbPolyline
 90
2
 70
0
 10
133.171791
 20
240.538312
 30
0.0
 10
125.714266
 20
237.924691
 30
0.0
  0
LWPOLYLINE
  5
108
100
AcDbEntity
  8
0
 62
1
100
AcDbPolyline
 90
2
 70
0
 10
106.537771
 20
231.203956
 30
0.0
 10
113.995296
 20
233.817576
 30
0.0
  0
SPLINE
  5
109
100
AcDbEntity
  8
0
 62
5
100
AcDbSpline
 70
0
 71
3
 72
10
 73
6
 74
4
 40
0.000000
 40
0.000000
 40
0.000000
 40
0.000000
 40
1.743687
 40
3.211833
 40
3.851414
 40
3.851414
 40
3.851414
 40
3.851414
 10
98.694731
 20
238.392060
 30
0.0
 10
99.258786
 20
238.227398
 30
0.0
 10
100.297762
 20
237.924094
 30
0.0
 10
101.598203
 20
238.095092
 30
0.0
 10
102.275254
 20
238.278727
 30
0.0
 10
102.480703
 20
238.334450
 30
0.0
 11
98.694731
 21
238.392060
 31
0.0
 11
100.400308
 21
238.029498
 31
0.0
 11
101.861169
 21
238.175573
 31
0.0
 11
102.480703
 21
238.334450
 31
0.0
  0
SPLINE
  5
10a
100
AcDbEntity
  8
0
 62
5
100
AcDbSpline
 70
0
 71
3
 72
10
 73
6
 74
4
 40
0.000000
 40
0.000000
 40
0.000000
 40
0.000000
 40
0.639584
 40
2.107736
 40
3.851430
 40
3.851430
 40
3.851430
 40
3.851430
 10
132.632478
 20
232.352132
 30
0.0
 10
132.423303
 20
232.312630
 30
0.0
 10
131.733972
 20
232.182454
 30
0.0
 10
130.489229
 20
231.768912
 30
0.0
 10
129.686697
 20
231.042676
 30
0.0
 10
129.251007
 20
230.648407
 30
0.0
 11
132.632478
 21
232.352132
 31
0.0
 11
132.005703
 21
232.224775
 31
0.0
 11
130.627489
 21
231.718813
 31
0.0
 11
129.251007
 21
230.648407
 31
0.0
  0
SPLINE
  5
10b
100
AcDbEntity
  8
0
 62
5
100
AcDbSpline
 70
0
 71
3
 72
10
 73
6
 74
4
 40
0.000000
 40
0.000000
 40
0.000000
 40
0.000000
 40
2.923550
 40
5.996651
 40
8.920205
 40
8.920205
 40
8.920205
 40
8.920205
 10
129.251007
 20
230.648407
 30
0.0
 10
128.804375
 20
229.772870
 30
0.0
 10
127.888265
 20
227.977009
 30
0.0
 10
127.897879
 20
224.844723
 30
0.0
 10
128.825000
 20
223.054520
 30
0.0
 10
129.277000
 20
222.181740
 30
0.0
 11
129.251007
 21
230.648407
 31
0.0
 11
128.130394
 21
227.948153
 31
0.0
 11
128.139828
 21
224.875067
 31
0.0
 11
129.277000
 21
222.181740
 31
0.0
  0
LWPOLYLINE
  5
10c
100
AcDbEntity
  8
0
 62
5
100
AcDbPolyline
 90
4
 70
0
 10
133.171808
 20
240.538267
 30
0.0
 10
133.202116
 20
230.660492
 30
0.0
 10
132.637671
 20
230.658798
 30
0.0
 10
132.632478
 20
232.352132
 30
0.0
  0
LWPOLYLINE
  5
10d
100
AcDbEntity
  8
0
 62
5
100
AcDbPolyline
 90
4
 70
0
 10
132.668862
 20
220.498801
 30
0.0
 10
132.663669
 20
222.192132
 30
0.0
 10
133.228114
 20
222.193825
 30
0.0
 10
133.258422
 20
212.316050
 30
0.0
  0
LWPOLYLINE
  5
10e
100
AcDbEntity
  8
0
 62
1
100
AcDbPolyline
 90
2
 70
0
 10
133.208178
 20
228.684936
 30
0.0
 10
133.222035
 20
224.169381
 30
0.0
  0
LWPOLYLINE
  5
10f
100
AcDbEntity
  8
0
 62
5
100
AcDbPolyline
 90
4
 70
0
 10
161.315284
 20
209.266334
 30
0.0
 10
155.124458
 20
204.545465
 30
0.0
 10
138.290314
 20
206.375295
 30
0.0
 10
133.258379
 20
212.316047
 30
0.0
  0
LWPOLYLINE
  5
110
100
AcDbEntity
  8
0
 62
5
100
AcDbPolyline
 90
4
 70
0
 10
153.550843
 20
210.961962
 30
0.0
 10
152.276082
 20
209.681105
 30
0.0
 10
142.175594
 20
210.779003
 30
0.0
 10
141.205805
 20
212.303835
 30
0.0
  0
LWPOLYLINE
  5
111
100
AcDbEntity
  8
0
 62
1
100
AcDbPolyline
 90
2
 70
0
 10
161.315284
 20
209.266334
 30
0.0
 10
153.459352
 20
210.120254
 30
0.0
  0
LWPOLYLINE
  5
112
100
AcDbEntity
  8
0
 62
1
100
AcDbPolyline
 90
2
 70
0
 10
133.258379
 20
212.316047
 30
0.0
 10
141.114314
 20
211.462127
 30
0.0
  0
SPLINE
  5
113
100
AcDbEntity
  8
0
 62
5
100
AcDbSpline
 70
0
 71
3
 72
10
 73
6
 74
4
 40
0.000000
 40
0.000000
 40
0.000000
 40
0.000000
 40
1.743694
 40
3.211845
 40
3.851429
 40
3.851429
 40
3.851429
 40
3.851429
 10
129.277000
 20
222.181740
 30
0.0
 10
129.715101
 20
221.790152
 30
0.0
 10
130.522074
 20
221.068856
 30
0.0
 10
131.769332
 20
220.662961
 30
0.0
 10
132.459449
 20
220.537018
 30
0.0
 10
132.668862
 20
220.498801
 30
0.0
 11
129.277000
 21
222.181740
 31
0.0
 11
130.660024
 21
221.119803
 31
0.0
 11
132.041317
 21
220.622309
 31
0.0
 11
132.668862
 21
220.498801
 31
0.0
  0
SPLINE
  5
114
100
AcDbEntity
  8
0
 62
5
100
AcDbSpline
 70
0
 71
3
 72
10
 73
6
 74
4
 40
0.000000
 40
0.000000
 40
0.000000
 40
0.000000
 40
0.639583
 40
2.107732
 40
3.851423
 40
3.851423
 40
3.851423
 40
3.851423
 10
163.649177
 20
217.131278
 30
0.0
 10
163.861911
 20
217.123608
 30
0.0
 10
164.562969
 20
217.098334
 30
0.0
 10
165.868305
 20
217.226768
 30
0.0
 10
166.811405
 20
217.757835
 30
0.0
 10
167.323409
 20
218.046149
 30
0.0
 11
163.649177
 21
217.131278
 31
0.0
 11
164.288602
 21
217.117069
 31
0.0
 11
165.744523
 21
217.306164
 31
0.0
 11
167.323409
 21
218.046149
 31
0.0
  0
SPLINE
  5
115
100
AcDbEntity
  8
0
 62
5
100
AcDbSpline
 70
0
 71
3
 72
10
 73
6
 74
4
 40
0.000000
 40
0.000000
 40
0.000000
 40
0.000000
 40
2.923547
 40
5.996642
 40
8.920189
 40
8.920189
 40
8.920189
 40
8.920189
 10
167.323409
 20
218.046149
 30
0.0
 10
167.952371
 20
218.801430
 30
0.0
 10
169.242468
 20
220.350628
 30
0.0
 10
169.924845
 20
223.407690
 30
0.0
 10
169.415981
 20
225.358439
 30
0.0
 10
169.167895
 20
226.309489
 30
0.0
 11
167.323409
 21
218.046149
 31
0.0
 11
169.012690
 21
220.432245
 31
0.0
 11
169.682170
 21
223.431530
 31
0.0
 11
169.167895
 21
226.309489
 31
0.0
  0
LWPOLYLINE
  5
116
100
AcDbEntity
  8
0
 62
5
100
AcDbPolyline
 90
4
 70
0
 10
161.315284
 20
209.266348
 30
0.0
 10
163.467184
 20
218.906910
 30
0.0
 10
164.018073
 20
218.783943
 30
0.0
 10
163.649177
 20
217.131278
 30
0.0
  0
LWPOLYLINE
  5
117
100
AcDbEntity
  8
0
 62
5
100
AcDbPolyline
 90
4
 70
0
 10
166.231457
 20
228.699950
 30
0.0
 10
165.862559
 20
227.047282
 30
0.0
 10
165.311669
 20
227.170249
 30
0.0
 10
167.463572
 20
236.810811
 30
0.0
  0
LWPOLYLINE
  5
118
100
AcDbEntity
  8
0
 62
1
100
AcDbPolyline
 90
2
 70
0
 10
163.897564
 20
220.835021
 30
0.0
 10
164.881289
 20
225.242135
 30
0.0
  0
LWPOLYLINE
  5
119
100
AcDbEntity
  8
0
 62
5
100
AcDbPolyline
 90
5
 70
0
 10
167.463583
 20
236.810805
 30
0.0
 10
163.756072
 20
239.102258
 30
0.0
 10
153.396338
 20
231.608177
 30
0.0
 10
152.685996
 20
228.542750
 30
0.0
 10
148.991599
 20
226.475737
 30
0.0
  0
LWPOLYLINE
  5
11a
100
AcDbEntity
  8
0
 62
5
100
AcDbPolyline
 90
4
 70
0
 10
166.295877
 20
235.429841
 30
0.0
 10
165.040242
 20
235.940037
 30
0.0
 10
158.390330
 20
232.219414
 30
0.0
 10
158.168205
 20
230.882411
 30
0.0
  0
LWPOLYLINE
  5
11b
100
AcDbEntity
  8
0
 62
1
100
AcDbPolyline
 90
2
 70
0
 10
167.463583
 20
236.810805
 30
0.0
 10
165.985825
 20
235.984001
 30
0.0
  0
LWPOLYLINE
  5
11c
100
AcDbEntity
  8
0
 62
1
100
AcDbPolyline
 90
2
 70
0
 10
152.685996
 20
228.542750
 30
0.0
 10
157.858152
 20
231.436572
 30
0.0
  0
SPLINE
  5
11d
100
AcDbEntity
  8
0
 62
5
100
AcDbSpline
 70
0
 71
3
 72
10
 73
6
 74
4
 40
0.000000
 40
0.000000
 40
0.000000
 40
0.000000
 40
1.743692
 40
3.211841
 40
3.851423
 40
3.851423
 40
3.851423
 40
3.851423
 10
169.167895
 20
226.309489
 30
0.0
 10
168.827091
 20
226.788160
 30
0.0
 10
168.199340
 20
227.669862
 30
0.0
 10
167.072521
 20
228.341186
 30
0.0
 10
166.427259
 20
228.616429
 30
0.0
 10
166.231457
 20
228.699950
 30
0.0
 11
169.167895
 21
226.309489
 31
0.0
 11
168.053545
 21
227.650639
 31
0.0
 11
166.816230
 21
228.440902
 31
0.0
 11
166.231457
 21
228.699950
 31
0.0
  0
SPLINE
  5
11e
100
AcDbEntity
  8
0
 62
5
100
AcDbSpline
 70
0
 71
3
 72
10
 73
6
 74
4
 40
0.000000
 40
0.000000
 40
0.000000
 40
0.000000
 40
0.210357
 40
0.812727
 40
1.819367
 40
1.819367
 40
1.819367
 40
1.819367
 10
155.324023
 20
234.700808
 30
0.0
 10
155.393162
 20
234.688597
 30
0.0
 10
155.660287
 20
234.641419
 30
0.0
 10
156.275760
 20
234.697881
 30
0.0
 10
156.779200
 20
234.886689
 30
0.0
 10
157.094166
 20
235.004812
 30
0.0
 11
155.324023
 21
234.700808
 31
0.0
 11
155.531965
 21
234.669025
 31
0.0
 11
156.133272
 21
234.704799
 31
0.0
 11
157.094166
 21
235.004812
 31
0.0
  0
SPLINE
  5
11f
100
AcDbEntity
  8
0
 62
5
100
AcDbSpline
 70
0
 71
3
 72
10
 73
6
 74
4
 40
0.000000
 40
0.000000
 40
0.000000
 40
0.000000
 40
1.960964
 40
4.042519
 40
5.963013
 40
5.963013
 40
5.963013
 40
5.963013
 10
157.094166
 20
235.004812
 30
0.0
 10
157.626058
 20
235.384959
 30
0.0
 10
158.722553
 20
236.168632
 30
0.0
 10
160.270439
 20
237.417048
 30
0.0
 10
161.287619
 20
238.280070
 30
0.0
 10
161.775741
 20
238.694215
 30
0.0
 11
157.094166
 21
235.004812
 31
0.0
 11
158.678753
 21
236.160001
 31
0.0
 11
160.306383
 21
237.457573
 31
0.0
 11
161.775741
 21
238.694215
 31
0.0
  0
LWPOLYLINE
  5
120
100
AcDbEntity
  8
0
 62
5
100
AcDbPolyline
 90
4
 70
0
 10
148.991599
 20
226.475734
 30
0.0
 10
155.711401
 20
235.982238
 30
0.0
 10
156.057092
 20
235.737881
 30
0.0
 10
155.324023
 20
234.700808
 30
0.0
  0
LWPOLYLINE
  5
121
100
AcDbEntity
  8
0
 62
5
100
AcDbPolyline
 90
4
 70
0
 10
160.455506
 20
241.960319
 30
0.0
 10
159.722439
 20
240.923246
 30
0.0
 10
159.376748
 20
241.167602
 30
0.0
 10
161.209420
 20
243.760285
 30
0.0
  0
LWPOLYLINE
  5
122
100
AcDbEntity
  8
0
 62
1
100
AcDbPolyline
 90
2
 70
0
 10
156.566647
 20
237.192155
 30
0.0
 10
158.521499
 20
239.957685
 30
0.0
  0
LWPOLYLINE
  5
123
100
AcDbEntity
  8
0
 62
5
100
AcDbPolyline
 90
4
 70
0
 10
161.209451
 20
243.760265
 30
0.0
 10
166.241428
 20
237.819462
 30
0.0
 10
183.075710
 20
235.989618
 30
0.0
 10
189.266587
 20
240.710527
 30
0.0
  0
LWPOLYLINE
  5
124
100
AcDbEntity
  8
0
 62
5
100
AcDbPolyline
 90
4
 70
0
 10
169.156942
 20
243.748053
 30
0.0
 10
170.126739
 20
242.223207
 30
0.0
 10
180.227309
 20
241.125300
 30
0.0
 10
181.502081
 20
242.406166
 30
0.0
  0
LWPOLYLINE
  5
125
100
AcDbEntity
  8
0
 62
1
100
AcDbPolyline
 90
2
 70
0
 10
161.209451
 20
243.760265
 30
0.0
 10
169.065448
 20
242.906337
 30
0.0
  0
LWPOLYLINE
  5
126
100
AcDbEntity
  8
0
 62
1
100
AcDbPolyline
 90
2
 70
0
 10
189.266587
 20
240.710527
 30
0.0
 10
181.410587
 20
241.564452
 30
0.0
  0
SPLINE
  5
127
100
AcDbEntity
  8
0
 62
5
100
AcDbSpline
 70
0
 71
3
 72
10
 73
6
 74
4
 40
0.000000
 40
0.000000
 40
0.000000
 40
0.000000
 40
1.496612
 40
2.910621
 40
3.545817
 40
3.545817
 40
3.545817
 40
3.545817
 10
161.775741
 20
238.694215
 30
0.0
 10
161.671956
 20
239.184514
 30
0.0
 10
161.470114
 20
240.138051
 30
0.0
 10
160.916877
 20
241.194523
 30
0.0
 10
160.564678
 20
241.779113
 30
0.0
 10
160.455506
 20
241.960319
 30
0.0
 11
161.775741
 21
238.694215
 31
0.0
 11
161.397683
 21
240.142290
 31
0.0
 11
160.779902
 21
241.414205
 31
0.0
 11
160.455506
 21
241.960319
 31
0.0
  0
SPLINE
  5
128
100
AcDbEntity
  8
0
 62
5
100
AcDbSpline
 70
0
 71
3
 72
10
 73
6
 74
4
 40
0.000000
 40
0.000000
 40
0.000000
 40
0.000000
 40
0.639579
 40
2.107719
 40
3.851402
 40
3.851402
 40
3.851402
 40
3.851402
 10
196.823429
 20
237.517044
 30
0.0
 10
196.792170
 20
237.306481
 30
0.0
 10
196.689157
 20
236.612576
 30
0.0
 10
196.671759
 20
235.301060
 30
0.0
 10
197.094747
 20
234.304797
 30
0.0
 10
197.324385
 20
233.763931
 30
0.0
 11
196.823429
 21
237.517044
 31
0.0
 11
196.738261
 21
236.883161
 31
0.0
 11
196.764417
 21
235.415253
 31
0.0
 11
197.324385
 21
233.763931
 31
0.0
  0
SPLINE
  5
129
100
AcDbEntity
  8
0
 62
5
100
AcDbSpline
 70
0
 71
3
 72
10
 73
6
 74
4
 40
0.000000
 40
0.000000
 40
0.000000
 40
0.000000
 40
2.923529
 40
5.996607
 40
8.920135
 40
8.920135
 40
8.920135
 40
8.920135
 10
197.324385
 20
233.763931
 30
0.0
 10
198.005100
 20
233.054948
 30
0.0
 10
199.401351
 20
231.600714
 30
0.0
 10
202.363646
 20
230.582894
 30
0.0
 10
204.358845
 20
230.871854
 30
0.0
 10
205.331565
 20
231.012730
 30
0.0
 11
197.324385
 21
233.763931
 31
0.0
 11
199.507993
 21
231.819999
 31
0.0
 11
202.414303
 21
230.821415
 31
0.0
 11
205.331565
 21
231.012730
 31
0.0
  0
LWPOLYLINE
  5
12a
100
AcDbEntity
  8
0
 62
5
100
AcDbPolyline
 90
4
 70
0
 10
189.266568
 20
240.710352
 30
0.0
 10
198.608278
 20
237.500616
 30
0.0
 10
198.424865
 20
236.966804
 30
0.0
 10
196.823429
 20
237.517044
 30
0.0
  0
LWPOLYLINE
  5
12b
100
AcDbEntity
  8
0
 62
5
100
AcDbPolyline
 90
4
 70
0
 10
208.033482
 20
233.665362
 30
0.0
 10
206.432046
 20
234.215603
 30
0.0
 10
206.615459
 20
234.749415
 30
0.0
 10
215.957167
 20
231.539682
 30
0.0
  0
LWPOLYLINE
  5
12c
100
AcDbEntity
  8
0
 62
1
100
AcDbPolyline
 90
2
 70
0
 10
200.476620
 20
236.858670
 30
0.0
 10
204.747117
 20
235.391363
 30
0.0
  0
LWPOLYLINE
  5
12d
100
AcDbEntity
  8
0
 62
5
100
AcDbPolyline
 90
4
 70
0
 10
215.957164
 20
231.539659
 30
0.0
 10
223.219329
 20
234.345843
 30
0.0
 10
230.467092
 20
249.649766
 30
0.0
 10
228.036769
 20
257.046201
 30
0.0
  0
LWPOLYLINE
  5
12e
100
AcDbEntity
  8
0
 62
5
100
AcDbPolyline
 90
4
 70
0
 10
218.574259
 20
239.043877
 30
0.0
 10
220.332768
 20
239.460161
 30
0.0
 10
224.681426
 20
248.642515
 30
0.0
 10
223.889285
 20
250.266757
 30
0.0
  0
LWPOLYLINE
  5
12f
100
AcDbEntity
  8
0
 62
1
100
AcDbPolyline
 90
2
 70
0
 10
215.957164
 20
231.539659
 30
0.0
 10
219.339454
 20
238.681490
 30
0.0
  0
LWPOLYLINE
  5
130
100
AcDbEntity
  8
0
 62
1
100
AcDbPolyline
 90
2
 70
0
 10
228.036769
 20
257.046201
 30
0.0
 10
224.654480
 20
249.904367
 30
0.0
  0
SPLINE
  5
131
100
AcDbEntity
  8
0
 62
5
100
AcDbSpline
 70
0
 71
3
 72
10
 73
6
 74
4
 40
0.000000
 40
0.000000
 40
0.000000
 40
0.000000
 40
1.743682
 40
3.211823
 40
3.851402
 40
3.851402
 40
3.851402
 40
3.851402
 10
205.331565
 20
231.012730
 30
0.0
 10
205.845137
 20
231.298236
 30
0.0
 10
206.791125
 20
231.824130
 30
0.0
 10
207.583490
 20
232.869373
 30
0.0
 10
207.928722
 20
233.480054
 30
0.0
 10
208.033482
 20
233.665362
 30
0.0
 11
205.331565
 21
231.012730
 31
0.0
 11
206.788221
 21
231.971157
 31
0.0
 11
207.711064
 21
233.112997
 31
0.0
 11
208.033482
 21
233.665362
 31
0.0
  0
SPLINE
  5
132
100
AcDbEntity
  8
0
 62
5
100
AcDbSpline
 70
0
 71
3
 72
10
 73
6
 74
4
 40
0.000000
 40
0.000000
 40
0.000000
 40
0.000000
 40
0.210356
 40
0.812723
 40
1.819355
 40
1.819355
 40
1.819355
 40
1.819355
 10
217.564693
 20
254.391816
 30
0.0
 10
217.575399
 20
254.461204
 30
0.0
 10
217.616762
 20
254.729290
 30
0.0
 10
217.868420
 20
255.293787
 30
0.0
 10
218.209290
 20
255.709603
 30
0.0
 10
218.422547
 20
255.969749
 30
0.0
 11
217.564693
 21
254.391816
 31
0.0
 11
217.601571
 21
254.598914
 31
0.0
 11
217.829083
 21
255.156663
 31
0.0
 11
218.422547
 21
255.969749
 31
0.0
  0
SPLINE
  5
133
100
AcDbEntity
  8
0
 62
5
100
AcDbSpline
 70
0
 71
3
 72
10
 73
6
 74
4
 40
0.000000
 40
0.000000
 40
0.000000
 40
0.000000
 40
1.960952
 40
4.042494
 40
5.962976
 40
5.962976
 40
5.962976
 40
5.962976
 10
218.422547
 20
255.969749
 30
0.0
 10
218.953729
 20
256.350882
 30
0.0
 10
220.048759
 20
257.136587
 30
0.0
 10
221.729132
 20
258.199972
 30
0.0
 10
222.873740
 20
258.885036
 30
0.0
 10
223.423012
 20
259.213783
 30
0.0
 11
218.422547
 21
255.969749
 31
0.0
 11
220.026482
 21
257.097901
 31
0.0
 11
221.779073
 21
258.220951
 31
0.0
 11
223.423012
 21
259.213783
 31
0.0
  0
LWPOLYLINE
  5
134
100
AcDbEntity
  8
0
 62
5
100
AcDbPolyline
 90
4
 70
0
 10
207.738582
 20
251.045527
 30
0.0
 10
218.902599
 20
254.345890
 30
0.0
 10
218.782587
 20
254.751855
 30
0.0
 10
217.564693
 20
254.391816
 30
0.0
  0
LWPOLYLINE
  5
135
100
AcDbEntity
  8
0
 62
5
100
AcDbPolyline
 90
4
 70
0
 10
226.089944
 20
256.912092
 30
0.0
 10
224.872050
 20
256.552052
 30
0.0
 10
224.992063
 20
256.146090
 30
0.0
 10
228.036795
 20
257.046187
 30
0.0
  0
LWPOLYLINE
  5
136
100
AcDbEntity
  8
0
 62
1
100
AcDbPolyline
 90
2
 70
0
 10
220.323475
 20
254.765936
 30
0.0
 10
223.571189
 20
255.726041
 30
0.0
  0
LWPOLYLINE
  5
137
100
AcDbEntity
  8
0
 62
5
100
AcDbPolyline
 90
5
 70
0
 10
223.471836
 20
265.205039
 30
0.0
 10
224.447199
 20
260.957109
 30
0.0
 10
214.016071
 20
253.562797
 30
0.0
 10
210.885207
 20
253.877517
 30
0.0
 10
207.738551
 20
251.045637
 30
0.0
  0
LWPOLYLINE
  5
138
100
AcDbEntity
  8
0
 62
5
100
AcDbPolyline
 90
4
 70
0
 10
221.788392
 20
264.544286
 30
0.0
 10
221.867030
 20
263.191245
 30
0.0
 10
216.203047
 20
258.093860
 30
0.0
 10
214.865746
 20
258.314149
 30
0.0
  0
LWPOLYLINE
  5
139
100
AcDbEntity
  8
0
 62
1
100
AcDbPolyline
 90
2
 70
0
 10
223.471836
 20
265.205039
 30
0.0
 10
222.213173
 20
264.072287
 30
0.0
  0
LWPOLYLINE
  5
13a
100
AcDbEntity
  8
0
 62
1
100
AcDbPolyline
 90
2
 70
0
 10
210.885207
 20
253.877517
 30
0.0
 10
215.290527
 20
257.842149
 30
0.0
  0
SPLINE
  5
13b
100
AcDbEntity
  8
0
 62
5
100
AcDbSpline
 70
0
 71
3
 72
10
 73
6
 74
4
 40
0.000000
 40
0.000000
 40
0.000000
 40
0.000000
 40
1.496603
 40
2.910604
 40
3.545797
 40
3.545797
 40
3.545797
 40
3.545797
 10
223.423012
 20
259.213783
 30
0.0
 10
223.853766
 20
258.957635
 30
0.0
 10
224.691501
 20
258.459477
 30
0.0
 10
225.513525
 20
257.595495
 30
0.0
 10
225.953549
 20
257.073802
 30
0.0
 10
226.089944
 20
256.912092
 30
0.0
 11
223.423012
 21
259.213783
 31
0.0
 11
224.672189
 21
258.389540
 31
0.0
 11
225.677392
 21
257.395072
 31
0.0
 11
226.089944
 21
256.912092
 31
0.0
  0
SPLINE
  5
13c
100
AcDbEntity
  8
0
 62
5
100
AcDbSpline
 70
0
 71
3
 72
10
 73
6
 74
4
 40
0.000000
 40
0.000000
 40
0.000000
 40
0.000000
 40
0.639579
 40
2.107721
 40
3.851403
 40
3.851403
 40
3.851403
 40
3.851403
 10
203.612386
 20
267.931704
 30
0.0
 10
203.673636
 20
268.135572
 30
0.0
 10
203.875482
 20
268.807416
 30
0.0
 10
204.417455
 20
270.001838
 30
0.0
 10
205.223949
 20
270.723659
 30
0.0
 10
205.661791
 20
271.115532
 30
0.0
 11
203.612386
 21
267.931704
 31
0.0
 11
203.804860
 21
268.541634
 31
0.0
 11
204.452756
 21
269.859082
 31
0.0
 11
205.661791
 21
271.115532
 31
0.0
  0
SPLINE
  5
13d
100
AcDbEntity
  8
0
 62
5
100
AcDbSpline
 70
0
 71
3
 72
10
 73
6
 74
4
 40
0.000000
 40
0.000000
 40
0.000000
 40
0.000000
 40
2.923530
 40
5.996610
 40
8.920141
 40
8.920141
 40
8.920141
 40
8.920141
 10
205.661791
 20
271.115532
 30
0.0
 10
206.579384
 20
271.467745
 30
0.0
 10
208.461510
 20
272.190188
 30
0.0
 10
211.575443
 20
271.851687
 30
0.0
 10
213.258374
 20
270.741703
 30
0.0
 10
214.078854
 20
270.200552
 30
0.0
 11
205.661791
 21
271.115532
 31
0.0
 11
208.464778
 21
271.946369
 31
0.0
 11
211.519861
 21
271.614265
 31
0.0
 11
214.078854
 21
270.200552
 31
0.0
  0
LWPOLYLINE
  5
13e
100
AcDbEntity
  8
0
 62
5
100
AcDbPolyline
 90
4
 70
0
 10
195.414892
 20
268.255046
 30
0.0
 10
205.234800
 20
267.187568
 30
0.0
 10
205.295799
 20
267.748705
 30
0.0
 10
203.612386
 20
267.931704
 30
0.0
  0
LWPOLYLINE
  5
13f
100
AcDbEntity
  8
0
 62
5
100
AcDbPolyline
 90
4
 70
0
 10
215.396276
 20
266.650731
 30
0.0
 10
213.712862
 20
266.833727
 30
0.0
 10
213.651863
 20
266.272587
 30
0.0
 10
223.471771
 20
265.205113
 30
0.0
  0
LWPOLYLINE
  5
140
100
AcDbEntity
  8
0
 62
1
100
AcDbPolyline
 90
2
 70
0
 10
207.198781
 20
266.974073
 30
0.0
 10
211.687881
 20
266.486083
 30
0.0
  0
LWPOLYLINE
  5
141
100
AcDbEntity
  8
0
 62
5
100
AcDbPolyline
 90
5
 70
0
 10
195.414866
 20
268.254809
 30
0.0
 10
191.707355
 20
270.546260
 30
0.0
 10
181.347621
 20
263.052180
 30
0.0
 10
180.637279
 20
259.986753
 30
0.0
 10
176.942883
 20
257.919741
 30
0.0
  0
LWPOLYLINE
  5
142
100
AcDbEntity
  8
0
 62
5
100
AcDbPolyline
 90
4
 70
0
 10
194.247160
 20
266.873845
 30
0.0
 10
192.991526
 20
267.384040
 30
0.0
 10
186.341614
 20
263.663417
 30
0.0
 10
186.119488
 20
262.326415
 30
0.0
  0
LWPOLYLINE
  5
143
100
AcDbEntity
  8
0
 62
1
100
AcDbPolyline
 90
2
 70
0
 10
195.414866
 20
268.254809
 30
0.0
 10
193.937108
 20
267.428005
 30
0.0
  0
LWPOLYLINE
  5
144
100
AcDbEntity
  8
0
 62
1
100
AcDbPolyline
 90
2
 70
0
 10
180.637279
 20
259.986753
 30
0.0
 10
185.809436
 20
262.880575
 30
0.0
  0
SPLINE
  5
145
100
AcDbEntity
  8
0
 62
5
100
AcDbSpline
 70
0
 71
3
 72
10
 73
6
 74
4
 40
0.000000
 40
0.000000
 40
0.000000
 40
0.000000
 40
1.743683
 40
3.211825
 40
3.851404
 40
3.851404
 40
3.851404
 40
3.851404
 10
214.078854
 20
270.200552
 30
0.0
 10
214.422266
 20
269.723752
 30
0.0
 10
215.054824
 20
268.845499
 30
0.0
 10
215.327490
 20
267.562521
 30
0.0
 10
215.380262
 20
266.862998
 30
0.0
 10
215.396276
 20
266.650731
 30
0.0
 11
214.078854
 21
270.200552
 31
0.0
 11
214.989672
 21
268.713662
 31
0.0
 11
215.339354
 21
267.287772
 31
0.0
 11
215.396276
 21
266.650731
 31
0.0
  0
SPLINE
  5
146
100
AcDbEntity
  8
0
 62
5
100
AcDbSpline
 70
0
 71
3
 72
10
 73
6
 74
4
 40
0.000000
 40
0.000000
 40
0.000000
 40
0.000000
 40
0.210357
 40
0.812727
 40
1.819367
 40
1.819367
 40
1.819367
 40
1.819367
 10
183.275306
 20
266.144811
 30
0.0
 10
183.344445
 20
266.132600
 30
0.0
 10
183.611570
 20
266.085422
 30
0.0
 10
184.227044
 20
266.141884
 30
0.0
 10
184.730483
 20
266.330692
 30
0.0
 10
185.045449
 20
266.448815
 30
0.0
 11
183.275306
 21
266.144811
 31
0.0
 11
183.483248
 21
266.113028
 31
0.0
 11
184.084555
 21
266.148802
 31
0.0
 11
185.045449
 21
266.448815
 31
0.0
  0
SPLINE
  5
147
100
AcDbEntity
  8
0
 62
5
100
AcDbSpline
 70
0
 71
3
 72
10
 73
6
 74
4
 40
0.000000
 40
0.000000
 40
0.000000
 40
0.000000
 40
1.960964
 40
4.042519
 40
5.963013
 40
5.963013
 40
5.963013
 40
5.963013
 10
185.045449
 20
266.448815
 30
0.0
 10
185.577341
 20
266.828963
 30
0.0
 10
186.673836
 20
267.612636
 30
0.0
 10
188.221722
 20
268.861052
 30
0.0
 10
189.238902
 20
269.724074
 30
0.0
 10
189.727024
 20
270.138218
 30
0.0
 11
185.045449
 21
266.448815
 31
0.0
 11
186.630036
 21
267.604005
 31
0.0
 11
188.257666
 21
268.901576
 31
0.0
 11
189.727024
 21
270.138218
 31
0.0
  0
LWPOLYLINE
  5
148
100
AcDbEntity
  8
0
 62
5
100
AcDbPolyline
 90
4
 70
0
 10
176.942883
 20
257.919738
 30
0.0
 10
183.662684
 20
267.426241
 30
0.0
 10
184.008375
 20
267.181884
 30
0.0
 10
183.275306
 20
266.144811
 30
0.0
  0
LWPOLYLINE
  5
149
100
AcDbEntity
  8
0
 62
5
100
AcDbPolyline
 90
4
 70
0
 10
188.406789
 20
273.404323
 30
0.0
 10
187.673722
 20
272.367250
 30
0.0
 10
187.328031
 20
272.611606
 30
0.0
 10
189.160703
 20
275.204289
 30
0.0
  0
LWPOLYLINE
  5
14a
100
AcDbEntity
  8
0
 62
1
100
AcDbPolyline
 90
2
 70
0
 10
184.517930
 20
268.636159
 30
0.0
 10
186.472782
 20
271.401688
 30
0.0
  0
LWPOLYLINE
  5
14b
100
AcDbEntity
  8
0
 62
5
100
AcDbPolyline
 90
4
 70
0
 10
161.122854
 20
271.982487
 30
0.0
 10
166.118292
 20
277.954040
 30
0.0
 10
182.941019
 20
279.887108
 30
0.0
 10
189.160734
 20
275.204266
 30
0.0
  0
LWPOLYLINE
  5
14c
100
AcDbEntity
  8
0
 62
5
100
AcDbPolyline
 90
4
 70
0
 10
169.070113
 20
272.043449
 30
0.0
 10
170.030541
 20
273.574214
 30
0.0
 10
180.124176
 20
274.734055
 30
0.0
 10
181.406780
 20
273.461032
 30
0.0
  0
LWPOLYLINE
  5
14d
100
AcDbEntity
  8
0
 62
1
100
AcDbPolyline
 90
2
 70
0
 10
161.122854
 20
271.982487
 30
0.0
 10
168.973460
 20
272.884585
 30
0.0
  0
LWPOLYLINE
  5
14e
100
AcDbEntity
  8
0
 62
1
100
AcDbPolyline
 90
2
 70
0
 10
189.160734
 20
275.204266
 30
0.0
 10
181.310128
 20
274.302168
 30
0.0
  0
SPLINE
  5
14f
100
AcDbEntity
  8
0
 62
5
100
AcDbSpline
 70
0
 71
3
 72
10
 73
6
 74
4
 40
0.000000
 40
0.000000
 40
0.000000
 40
0.000000
 40
1.496612
 40
2.910622
 40
3.545818
 40
3.545818
 40
3.545818
 40
3.545818
 10
189.727024
 20
270.138218
 30
0.0
 10
189.623239
 20
270.628517
 30
0.0
 10
189.421398
 20
271.582054
 30
0.0
 10
188.868161
 20
272.638526
 30
0.0
 10
188.515961
 20
273.223116
 30
0.0
 10
188.406789
 20
273.404323
 30
0.0
 11
189.727024
 21
270.138218
 31
0.0
 11
189.348967
 21
271.586293
 31
0.0
 11
188.731185
 21
272.858208
 31
0.0
 11
188.406789
 21
273.404323
 31
0.0
  0
SPLINE
  5
150
100
AcDbEntity
  8
0
 62
5
100
AcDbSpline
 70
0
 71
3
 72
10
 73
6
 74
4
 40
0.000000
 40
0.000000
 40
0.000000
 40
0.000000
 40
0.210357
 40
0.812727
 40
1.819367
 40
1.819367
 40
1.819367
 40
1.819367
 10
152.815643
 20
265.075604
 30
0.0
 10
152.795412
 20
265.142835
 30
0.0
 10
152.717251
 20
265.402589
 30
0.0
 10
152.701187
 20
266.020438
 30
0.0
 10
152.829687
 20
266.542537
 30
0.0
 10
152.910080
 20
266.869177
 30
0.0
 11
152.815643
 21
265.075604
 31
0.0
 11
152.759707
 21
265.278387
 31
0.0
 11
152.724757
 21
265.879742
 31
0.0
 11
152.910080
 21
266.869177
 31
0.0
  0
SPLINE
  5
151
100
AcDbEntity
  8
0
 62
5
100
AcDbSpline
 70
0
 71
3
 72
10
 73
6
 74
4
 40
0.000000
 40
0.000000
 40
0.000000
 40
0.000000
 40
1.960966
 40
4.042523
 40
5.963018
 40
5.963018
 40
5.963018
 40
5.963018
 10
152.910080
 20
266.869177
 30
0.0
 10
153.225266
 20
267.441960
 30
0.0
 10
153.875022
 20
268.622749
 30
0.0
 10
154.933411
 20
270.306291
 30
0.0
 10
155.671265
 20
271.417613
 30
0.0
 10
156.025345
 20
271.950911
 30
0.0
 11
152.910080
 21
266.869177
 31
0.0
 11
153.871584
 21
268.578240
 31
0.0
 11
154.969443
 21
270.346737
 31
0.0
 11
156.025345
 21
271.950911
 31
0.0
  0
LWPOLYLINE
  5
152
100
AcDbEntity
  8
0
 62
5
100
AcDbPolyline
 90
4
 70
0
 10
145.389453
 20
257.822789
 30
0.0
 10
154.042838
 20
265.610502
 30
0.0
 10
153.759648
 20
265.925172
 30
0.0
 10
152.815643
 20
265.075604
 30
0.0
  0
LWPOLYLINE
  5
153
100
AcDbEntity
  8
0
 62
5
100
AcDbPolyline
 90
4
 70
0
 10
159.423681
 20
271.022585
 30
0.0
 10
158.479676
 20
270.173016
 30
0.0
 10
158.762867
 20
269.858348
 30
0.0
 10
161.122879
 20
271.982270
 30
0.0
  0
LWPOLYLINE
  5
154
100
AcDbEntity
  8
0
 62
1
100
AcDbPolyline
 90
2
 70
0
 10
155.144176
 20
266.601667
 30
0.0
 10
157.661525
 20
268.867184
 30
0.0
  0
LWPOLYLINE
  5
155
100
AcDbEntity
  8
0
 62
5
100
AcDbPolyline
 90
5
 70
0
 10
153.488432
 20
277.378950
 30
0.0
 10
156.198643
 20
273.965517
 30
0.0
 10
149.970321
 20
262.798753
 30
0.0
 10
147.009245
 20
261.734025
 30
0.0
 10
145.389448
 20
257.822794
 30
0.0
  0
LWPOLYLINE
  5
156
100
AcDbEntity
  8
0
 62
5
100
AcDbPolyline
 90
4
 70
0
 10
152.253829
 20
276.057427
 30
0.0
 10
152.907678
 20
274.870231
 30
0.0
 10
149.992043
 20
267.830016
 30
0.0
 10
148.690276
 20
267.452719
 30
0.0
  0
LWPOLYLINE
  5
157
100
AcDbEntity
  8
0
 62
1
100
AcDbPolyline
 90
2
 70
0
 10
153.488432
 20
277.378950
 30
0.0
 10
152.840515
 20
275.814457
 30
0.0
  0
LWPOLYLINE
  5
158
100
AcDbEntity
  8
0
 62
1
100
AcDbPolyline
 90
2
 70
0
 10
147.009245
 20
261.734025
 30
0.0
 10
149.276960
 20
267.209748
 30
0.0
  0
SPLINE
  5
159
100
AcDbEntity
  8
0
 62
5
100
AcDbSpline
 70
0
 71
3
 72
10
 73
6
 74
4
 40
0.000000
 40
0.000000
 40
0.000000
 40
0.000000
 40
1.496614
 40
2.910625
 40
3.545821
 40
3.545821
 40
3.545821
 40
3.545821
 10
156.025345
 20
271.950911
 30
0.0
 10
156.524430
 20
271.905308
 30
0.0
 10
157.495053
 20
271.816619
 30
0.0
 10
158.609087
 20
271.391021
 30
0.0
 10
159.230928
 20
271.109766
 30
0.0
 10
159.423681
 20
271.022585
 30
0.0
 11
156.025345
 21
271.950911
 31
0.0
 11
157.507752
 21
271.745184
 31
0.0
 11
158.843309
 21
271.280737
 31
0.0
 11
159.423681
 21
271.022585
 31
0.0
  0
SPLINE
  5
15a
100
AcDbEntity
  8
0
 62
5
100
AcDbSpline
 70
0
 71
3
 72
10
 73
6
 74
4
 40
0.000000
 40
0.000000
 40
0.000000
 40
0.000000
 40
0.639580
 40
2.107722
 40
3.851406
 40
3.851406
 40
3.851406
 40
3.851406
 10
152.206542
 20
285.482033
 30
0.0
 10
152.401827
 20
285.566756
 30
0.0
 10
153.045383
 20
285.845957
 30
0.0
 10
154.168049
 20
286.524190
 30
0.0
 10
154.790367
 20
287.409730
 30
0.0
 10
155.128220
 20
287.890484
 30
0.0
 11
152.206542
 21
285.482033
 31
0.0
 11
152.789710
 21
285.744669
 31
0.0
 11
154.022139
 21
286.542516
 31
0.0
 11
155.128220
 21
287.890484
 31
0.0
  0
SPLINE
  5
15b
100
AcDbEntity
  8
0
 62
5
100
AcDbSpline
 70
0
 71
3
 72
10
 73
6
 74
4
 40
0.000000
 40
0.000000
 40
0.000000
 40
0.000000
 40
2.923533
 40
5.996615
 40
8.920148
 40
8.920148
 40
8.920148
 40
8.920148
 10
155.128220
 20
287.890484
 30
0.0
 10
155.370456
 20
288.843037
 30
0.0
 10
155.867320
 20
290.796867
 30
0.0
 10
155.166174
 20
293.849664
 30
0.0
 10
153.866587
 20
295.390897
 30
0.0
 10
153.232999
 20
296.142296
 30
0.0
 11
155.128220
 21
287.890484
 31
0.0
 11
155.624798
 21
290.771536
 31
0.0
 11
154.936903
 21
293.766637
 31
0.0
 11
153.232999
 21
296.142296
 31
0.0
  0
LWPOLYLINE
  5
15c
100
AcDbEntity
  8
0
 62
5
100
AcDbPolyline
 90
4
 70
0
 10
153.488469
 20
277.378934
 30
0.0
 10
151.277376
 20
287.006047
 30
0.0
 10
151.827495
 20
287.132395
 30
0.0
 10
152.206542
 20
285.482033
 30
0.0
  0
LWPOLYLINE
  5
15d
100
AcDbEntity
  8
0
 62
5
100
AcDbPolyline
 90
4
 70
0
 10
149.553230
 20
297.034569
 30
0.0
 10
149.932274
 20
295.384207
 30
0.0
 10
149.382153
 20
295.257858
 30
0.0
 10
147.171060
 20
304.884971
 30
0.0
  0
LWPOLYLINE
  5
15e
100
AcDbEntity
  8
0
 62
1
100
AcDbPolyline
 90
2
 70
0
 10
150.835157
 20
288.931470
 30
0.0
 10
149.824372
 20
293.332436
 30
0.0
  0
LWPOLYLINE
  5
15f
100
AcDbEntity
  8
0
 62
5
100
AcDbPolyline
 90
5
 70
0
 10
147.171263
 20
304.885019
 30
0.0
 10
142.838263
 20
305.355764
 30
0.0
 10
136.717507
 20
294.129775
 30
0.0
 10
137.397033
 20
291.057361
 30
0.0
 10
134.953474
 20
287.600447
 30
0.0
  0
LWPOLYLINE
  5
160
100
AcDbEntity
  8
0
 62
5
100
AcDbPolyline
 90
4
 70
0
 10
146.712378
 20
303.135720
 30
0.0
 10
145.359439
 20
303.055226
 30
0.0
 10
140.961034
 20
296.832780
 30
0.0
 10
141.336550
 20
295.530508
 30
0.0
  0
LWPOLYLINE
  5
161
100
AcDbEntity
  8
0
 62
1
100
AcDbPolyline
 90
2
 70
0
 10
147.171263
 20
304.885019
 30
0.0
 10
146.193840
 20
303.502253
 30
0.0
  0
LWPOLYLINE
  5
162
100
AcDbEntity
  8
0
 62
1
100
AcDbPolyline
 90
2
 70
0
 10
137.397033
 20
291.057361
 30
0.0
 10
140.818012
 20
295.897041
 30
0.0
  0
SPLINE
  5
163
100
AcDbEntity
  8
0
 62
5
100
AcDbSpline
 70
0
 71
3
 72
10
 73
6
 74
4
 40
0.000000
 40
0.000000
 40
0.000000
 40
0.000000
 40
1.743684
 40
3.211827
 40
3.851407
 40
3.851407
 40
3.851407
 40
3.851407
 10
153.232999
 20
296.142296
 30
0.0
 10
152.719235
 20
296.427456
 30
0.0
 10
151.772893
 20
296.952716
 30
0.0
 10
150.466798
 20
297.073127
 30
0.0
 10
149.765911
 20
297.043545
 30
0.0
 10
149.553230
 20
297.034569
 30
0.0
 11
153.232999
 21
296.142296
 31
0.0
 11
151.649601
 21
296.872562
 31
0.0
 11
150.192553
 21
297.052707
 31
0.0
 11
149.553230
 21
297.034569
 31
0.0
  0
SPLINE
  5
164
100
AcDbEntity
  8
0
 62
5
100
AcDbSpline
 70
0
 71
3
 72
10
 73
6
 74
4
 40
0.000000
 40
0.000000
 40
0.000000
 40
0.000000
 40
0.210357
 40
0.812727
 40
1.819367
 40
1.819367
 40
1.819367
 40
1.819367
 10
137.124877
 20
297.751162
 30
0.0
 10
137.192533
 20
297.769926
 30
0.0
 10
137.453924
 20
297.842424
 30
0.0
 10
137.985037
 20
298.158516
 30
0.0
 10
138.358033
 20
298.545781
 30
0.0
 10
138.591389
 20
298.788065
 30
0.0
 11
137.124877
 21
297.751162
 31
0.0
 11
137.326227
 21
297.812058
 31
0.0
 11
137.853467
 21
298.103377
 31
0.0
 11
138.591389
 21
298.788065
 31
0.0
  0
SPLINE
  5
165
100
AcDbEntity
  8
0
 62
5
100
AcDbSpline
 70
0
 71
3
 72
10
 73
6
 74
4
 40
0.000000
 40
0.000000
 40
0.000000
 40
0.000000
 40
1.960964
 40
4.042519
 40
5.963012
 40
5.963012
 40
5.963012
 40
5.963012
 10
138.591389
 20
298.788065
 30
0.0
 10
138.907635
 20
299.360263
 30
0.0
 10
139.559574
 20
300.539847
 30
0.0
 10
140.418668
 20
302.333293
 30
0.0
 10
140.964847
 20
303.550317
 30
0.0
 10
141.226946
 20
304.134340
 30
0.0
 11
138.591389
 21
298.788065
 31
0.0
 11
139.523765
 21
300.513189
 31
0.0
 11
140.433649
 21
302.385349
 31
0.0
 11
141.226946
 21
304.134340
 31
0.0
  0
LWPOLYLINE
  5
166
100
AcDbEntity
  8
0
 62
5
100
AcDbPolyline
 90
4
 70
0
 10
134.953412
 20
287.600490
 30
0.0
 10
136.922445
 20
299.074470
 30
0.0
 10
137.339682
 20
299.002868
 30
0.0
 10
137.124877
 20
297.751162
 30
0.0
  0
LWPOLYLINE
  5
167
100
AcDbEntity
  8
0
 62
5
100
AcDbPolyline
 90
4
 70
0
 10
138.628504
 20
306.513109
 30
0.0
 10
138.413699
 20
305.261402
 30
0.0
 10
137.996464
 20
305.333004
 30
0.0
 10
138.533474
 20
308.462271
 30
0.0
  0
LWPOLYLINE
  5
168
100
AcDbEntity
  8
0
 62
1
100
AcDbPolyline
 90
2
 70
0
 10
137.173050
 20
300.534794
 30
0.0
 10
137.745859
 20
303.872679
 30
0.0
  0
LWPOLYLINE
  5
169
100
AcDbEntity
  8
0
 62
5
100
AcDbPolyline
 90
4
 70
0
 10
114.618711
 20
293.476208
 30
0.0
 10
116.554329
 20
301.017237
 30
0.0
 10
130.903232
 20
310.008867
 30
0.0
 10
138.533547
 20
308.462257
 30
0.0
  0
LWPOLYLINE
  5
16a
100
AcDbEntity
  8
0
 62
5
100
AcDbPolyline
 90
4
 70
0
 10
121.764448
 20
296.954857
 30
0.0
 10
121.971737
 20
298.750041
 30
0.0
 10
130.581078
 20
304.145018
 30
0.0
 10
132.286976
 20
303.548719
 30
0.0
  0
LWPOLYLINE
  5
16b
100
AcDbEntity
  8
0
 62
1
100
AcDbPolyline
 90
2
 70
0
 10
114.618711
 20
293.476208
 30
0.0
 10
121.314865
 20
297.672302
 30
0.0
  0
LWPOLYLINE
  5
16c
100
AcDbEntity
  8
0
 62
1
100
AcDbPolyline
 90
2
 70
0
 10
138.533547
 20
308.462257
 30
0.0
 10
131.837393
 20
304.266164
 30
0.0
  0
SPLINE
  5
16d
100
AcDbEntity
  8
0
 62
5
100
AcDbSpline
 70
0
 71
3
 72
10
 73
6
 74
4
 40
0.000000
 40
0.000000
 40
0.000000
 40
0.000000
 40
1.496611
 40
2.910620
 40
3.545815
 40
3.545815
 40
3.545815
 40
3.545815
 10
141.226946
 20
304.134340
 30
0.0
 10
140.922072
 20
304.532104
 30
0.0
 10
140.329149
 20
305.305676
 30
0.0
 10
139.374765
 20
306.020766
 30
0.0
 10
138.805088
 20
306.396609
 30
0.0
 10
138.628504
 20
306.513109
 30
0.0
 11
141.226946
 21
304.134340
 31
0.0
 11
140.261958
 21
305.278299
 31
0.0
 11
139.156515
 21
306.160012
 31
0.0
 11
138.628504
 21
306.513109
 31
0.0
  0
SPLINE
  5
16e
100
AcDbEntity
  8
0
 62
5
100
AcDbSpline
 70
0
 71
3
 72
10
 73
6
 74
4
 40
0.000000
 40
0.000000
 40
0.000000
 40
0.000000
 40
0.639583
 40
2.107732
 40
3.851423
 40
3.851423
 40
3.851423
 40
3.851423
 10
122.797451
 20
275.175001
 30
0.0
 10
122.592003
 20
275.119277
 30
0.0
 10
121.914950
 20
274.935642
 30
0.0
 10
120.614506
 20
274.764643
 30
0.0
 10
119.575527
 20
275.067946
 30
0.0
 10
119.011471
 20
275.232608
 30
0.0
 11
122.797451
 21
275.175001
 31
0.0
 11
122.177916
 21
275.016123
 31
0.0
 11
120.717052
 21
274.870046
 31
0.0
 11
119.011471
 21
275.232608
 31
0.0
  0
SPLINE
  5
16f
100
AcDbEntity
  8
0
 62
5
100
AcDbSpline
 70
0
 71
3
 72
10
 73
6
 74
4
 40
0.000000
 40
0.000000
 40
0.000000
 40
0.000000
 40
2.923547
 40
5.996643
 40
8.920189
 40
8.920189
 40
8.920189
 40
8.920189
 10
119.011471
 20
275.232608
 30
0.0
 10
118.227584
 20
275.825537
 30
0.0
 10
116.619711
 20
277.041723
 30
0.0
 10
115.261693
 20
279.864320
 30
0.0
 10
115.314808
 20
281.879647
 30
0.0
 10
115.340703
 20
282.862180
 30
0.0
 11
119.011471
 21
275.232608
 31
0.0
 11
116.824987
 21
277.173333
 31
0.0
 11
115.492634
 21
279.942585
 31
0.0
 11
115.340703
 21
282.862180
 31
0.0
  0
LWPOLYLINE
  5
170
100
AcDbEntity
  8
0
 62
5
100
AcDbPolyline
 90
4
 70
0
 10
126.854498
 20
268.044466
 30
0.0
 10
122.571936
 20
276.945633
 30
0.0
 10
122.063298
 20
276.700915
 30
0.0
 10
122.797451
 20
275.175001
 30
0.0
  0
LWPOLYLINE
  5
171
100
AcDbEntity
  8
0
 62
5
100
AcDbPolyline
 90
4
 70
0
 10
117.658380
 20
285.856401
 30
0.0
 10
118.392533
 20
284.330487
 30
0.0
 10
118.901170
 20
284.575204
 30
0.0
 10
114.618609
 20
293.476371
 30
0.0
  0
LWPOLYLINE
  5
172
100
AcDbEntity
  8
0
 62
1
100
AcDbPolyline
 90
2
 70
0
 10
121.715426
 20
278.725866
 30
0.0
 10
119.757684
 20
282.794971
 30
0.0
  0
LWPOLYLINE
  5
173
100
AcDbEntity
  8
0
 62
5
100
AcDbPolyline
 90
5
 70
0
 10
126.854390
 20
268.044415
 30
0.0
 10
122.521404
 20
268.515159
 30
0.0
 10
116.400676
 20
257.289214
 30
0.0
 10
117.080197
 20
254.216813
 30
0.0
 10
114.636649
 20
250.759912
 30
0.0
  0
LWPOLYLINE
  5
174
100
AcDbEntity
  8
0
 62
5
100
AcDbPolyline
 90
4
 70
0
 10
126.395505
 20
266.295123
 30
0.0
 10
125.042572
 20
266.214630
 30
0.0
 10
120.644183
 20
259.992208
 30
0.0
 10
121.019700
 20
258.689942
 30
0.0
  0
LWPOLYLINE
  5
175
100
AcDbEntity
  8
0
 62
1
100
AcDbPolyline
 90
2
 70
0
 10
126.854390
 20
268.044415
 30
0.0
 10
125.876970
 20
266.661656
 30
0.0
  0
LWPOLYLINE
  5
176
100
AcDbEntity
  8
0
 62
1
100
AcDbPolyline
 90
2
 70
0
 10
117.080197
 20
254.216813
 30
0.0
 10
120.501164
 20
259.056472
 30
0.0
  0
SPLINE
  5
177
100
AcDbEntity
  8
0
 62
5
100
AcDbSpline
 70
0
 71
3
 72
10
 73
6
 74
4
 40
0.000000
 40
0.000000
 40
0.000000
 40
0.000000
 40
1.743692
 40
3.211842
 40
3.851425
 40
3.851425
 40
3.851425
 40
3.851425
 10
115.340703
 20
282.862180
 30
0.0
 10
115.564047
 20
283.405679
 30
0.0
 10
115.975441
 20
284.406791
 30
0.0
 10
116.920615
 20
285.316211
 30
0.0
 10
117.486626
 20
285.730643
 30
0.0
 10
117.658380
 20
285.856401
 30
0.0
 11
115.340703
 21
282.862180
 31
0.0
 11
116.121797
 21
284.421140
 31
0.0
 11
117.147608
 21
285.471462
 31
0.0
 11
117.658380
 21
285.856401
 31
0.0
  0
SPLINE
  5
178
100
AcDbEntity
  8
0
 62
5
100
AcDbSpline
 70
0
 71
3
 72
10
 73
6
 74
4
 40
0.000000
 40
0.000000
 40
0.000000
 40
0.000000
 40
0.210358
 40
0.812732
 40
1.819378
 40
1.819378
 40
1.819378
 40
1.819378
 10
116.808163
 20
260.910613
 30
0.0
 10
116.875818
 20
260.929378
 30
0.0
 10
117.137212
 20
261.001876
 30
0.0
 10
117.668328
 20
261.317970
 30
0.0
 10
118.041325
 20
261.705238
 30
0.0
 10
118.274682
 20
261.947523
 30
0.0
 11
116.808163
 21
260.910613
 31
0.0
 11
117.009513
 21
260.971510
 31
0.0
 11
117.536757
 21
261.262831
 31
0.0
 11
118.274682
 21
261.947523
 31
0.0
  0
SPLINE
  5
179
100
AcDbEntity
  8
0
 62
5
100
AcDbSpline
 70
0
 71
3
 72
10
 73
6
 74
4
 40
0.000000
 40
0.000000
 40
0.000000
 40
0.000000
 40
1.960976
 40
4.042542
 40
5.963045
 40
5.963045
 40
5.963045
 40
5.963045
 10
118.274682
 20
261.947523
 30
0.0
 10
118.590930
 20
262.519724
 30
0.0
 10
119.242873
 20
263.699315
 30
0.0
 10
120.101973
 20
265.492771
 30
0.0
 10
120.648156
 20
266.709802
 30
0.0
 10
120.910257
 20
267.293828
 30
0.0
 11
118.274682
 21
261.947523
 31
0.0
 11
119.207064
 21
263.672658
 31
0.0
 11
120.116954
 21
265.544827
 31
0.0
 11
120.910257
 21
267.293828
 31
0.0
  0
LWPOLYLINE
  5
17a
100
AcDbEntity
  8
0
 62
5
100
AcDbPolyline
 90
4
 70
0
 10
114.636685
 20
250.759884
 30
0.0
 10
116.605730
 20
262.233928
 30
0.0
 10
117.022967
 20
262.162328
 30
0.0
 10
116.808163
 20
260.910613
 30
0.0
  0
LWPOLYLINE
  5
17b
100
AcDbEntity
  8
0
 62
5
100
AcDbPolyline
 90
4
 70
0
 10
118.311797
 20
269.672611
 30
0.0
 10
118.096992
 20
268.420896
 30
0.0
 10
117.679755
 20
268.492499
 30
0.0
 10
118.216767
 20
271.621784
 30
0.0
  0
LWPOLYLINE
  5
17c
100
AcDbEntity
  8
0
 62
1
100
AcDbPolyline
 90
2
 70
0
 10
116.856335
 20
263.694261
 30
0.0
 10
117.429150
 20
267.032166
 30
0.0
  0
LWPOLYLINE
  5
17d
100
AcDbEntity
  8
0
 62
5
100
AcDbPolyline
 90
4
 70
0
 10
94.301880
 20
256.635776
 30
0.0
 10
96.237496
 20
264.176794
 30
0.0
 10
110.586373
 20
273.168407
 30
0.0
 10
118.216677
 20
271.621801
 30
0.0
  0
LWPOLYLINE
  5
17e
100
AcDbEntity
  8
0
 62
5
100
AcDbPolyline
 90
4
 70
0
 10
101.447603
 20
260.114419
 30
0.0
 10
101.654895
 20
261.909601
 30
0.0
 10
110.264222
 20
267.304569
 30
0.0
 10
111.970114
 20
266.708270
 30
0.0
  0
LWPOLYLINE
  5
17f
100
AcDbEntity
  8
0
 62
1
100
AcDbPolyline
 90
2
 70
0
 10
94.301880
 20
256.635776
 30
0.0
 10
100.998023
 20
260.831862
 30
0.0
  0
LWPOLYLINE
  5
180
100
AcDbEntity
  8
0
 62
1
100
AcDbPolyline
 90
2
 70
0
 10
118.216677
 20
271.621801
 30
0.0
 10
111.520534
 20
267.425713
 30
0.0
  0
LWPOLYLINE
  5
181
100
AcDbEntity
  8
0
 62
1
100
AcDbPolyline
 90
2
 70
0
 10
94.301886
 20
256.635816
 30
0.0
 10
114.636561
 20
250.759949
 30
0.0
  0
LWPOLYLINE
  5
182
100
AcDbEntity
  8
0
 62
1
100
AcDbPolyline
 90
2
 70
0
 10
106.537912
 20
231.203925
 30
0.0
 10
114.636561
 20
250.759949
 30
0.0
  0
LWPOLYLINE
  5
183
100
AcDbEntity
  8
0
 62
1
100
AcDbPolyline
 90
2
 70
0
 10
114.618499
 20
293.476257
 30
0.0
 10
134.953457
 20
287.600391
 30
0.0
  0
LWPOLYLINE
  5
184
100
AcDbEntity
  8
0
 62
1
100
AcDbPolyline
 90
2
 70
0
 10
114.636561
 20
250.759949
 30
0.0
 10
133.171788
 20
240.538142
 30
0.0
  0
LWPOLYLINE
  5
185
100
AcDbEntity
  8
0
 62
1
100
AcDbPolyline
 90
2
 70
0
 10
126.854526
 20
268.044367
 30
0.0
 10
133.171788
 20
240.538142
 30
0.0
  0
LWPOLYLINE
  5
186
100
AcDbEntity
  8
0
 62
1
100
AcDbPolyline
 90
2
 70
0
 10
126.854526
 20
268.044367
 30
0.0
 10
134.953457
 20
287.600391
 30
0.0
  0
LWPOLYLINE
  5
187
100
AcDbEntity
  8
0
 62
1
100
AcDbPolyline
 90
2
 70
0
 10
126.854526
 20
268.044367
 30
0.0
 10
145.389470
 20
257.822842
 30
0.0
  0
LWPOLYLINE
  5
188
100
AcDbEntity
  8
0
 62
1
100
AcDbPolyline
 90
2
 70
0
 10
126.854526
 20
268.044367
 30
0.0
 10
153.488401
 20
277.378866
 30
0.0
  0
LWPOLYLINE
  5
189
100
AcDbEntity
  8
0
 62
1
100
AcDbPolyline
 90
2
 70
0
 10
133.171788
 20
240.538142
 30
0.0
 10
145.389470
 20
257.822842
 30
0.0
  0
LWPOLYLINE
  5
18a
100
AcDbEntity
  8
0
 62
1
100
AcDbPolyline
 90
2
 70
0
 10
133.171788
 20
240.538142
 30
0.0
 10
148.991472
 20
226.475856
 30
0.0
  0
LWPOLYLINE
  5
18b
100
AcDbEntity
  8
0
 62
1
100
AcDbPolyline
 90
2
 70
0
 10
133.171788
 20
240.538142
 30
0.0
 10
161.209437
 20
243.760274
 30
0.0
  0
LWPOLYLINE
  5
18c
100
AcDbEntity
  8
0
 62
1
100
AcDbPolyline
 90
2
 70
0
 10
133.258430
 20
212.315920
 30
0.0
 10
148.991472
 20
226.475856
 30
0.0
  0
LWPOLYLINE
  5
18d
100
AcDbEntity
  8
0
 62
1
100
AcDbPolyline
 90
2
 70
0
 10
134.953457
 20
287.600391
 30
0.0
 10
153.488401
 20
277.378866
 30
0.0
  0
LWPOLYLINE
  5
18e
100
AcDbEntity
  8
0
 62
1
100
AcDbPolyline
 90
2
 70
0
 10
145.389470
 20
257.822842
 30
0.0
 10
161.209437
 20
243.760274
 30
0.0
  0
LWPOLYLINE
  5
18f
100
AcDbEntity
  8
0
 62
1
100
AcDbPolyline
 90
2
 70
0
 10
148.991472
 20
226.475856
 30
0.0
 10
161.315270
 20
209.266227
 30
0.0
  0
LWPOLYLINE
  5
190
100
AcDbEntity
  8
0
 62
1
100
AcDbPolyline
 90
2
 70
0
 10
161.122795
 20
271.982213
 30
0.0
 10
161.209437
 20
243.760274
 30
0.0
  0
LWPOLYLINE
  5
191
100
AcDbEntity
  8
0
 62
1
100
AcDbPolyline
 90
2
 70
0
 10
161.122795
 20
271.982213
 30
0.0
 10
176.942761
 20
257.919645
 30
0.0
  0
LWPOLYLINE
  5
192
100
AcDbEntity
  8
0
 62
1
100
AcDbPolyline
 90
4
 70
0
 10
161.209437
 20
243.760274
 30
0.0
 10
176.942761
 20
257.919645
 30
0.0
 10
189.266559
 20
240.710298
 30
0.0
 10
195.414770
 20
268.254905
 30
0.0
  0
LWPOLYLINE
  5
193
100
AcDbEntity
  8
0
 62
1
100
AcDbPolyline
 90
2
 70
0
 10
189.266559
 20
240.710298
 30
0.0
 10
207.738568
 20
251.045558
 30
0.0
  0
SPLINE
  5
194
100
AcDbEntity
  8
0
 62
5
100
AcDbSpline
 70
0
 71
3
 72
10
 73
6
 74
4
 40
0.000000
 40
0.000000
 40
0.000000
 40
0.000000
 40
1.496621
 40
2.910638
 40
3.545838
 40
3.545838
 40
3.545838
 40
3.545838
 10
120.910257
 20
267.293828
 30
0.0
 10
120.605380
 20
267.691593
 30
0.0
 10
120.012453
 20
268.465171
 30
0.0
 10
119.058063
 20
269.180265
 30
0.0
 10
118.488382
 20
269.556110
 30
0.0
 10
118.311797
 20
269.672611
 30
0.0
 11
120.910257
 21
267.293828
 31
0.0
 11
119.945261
 21
268.437793
 31
0.0
 11
118.839812
 21
269.319512
 31
0.0
 11
118.311797
 21
269.672611
 31
0.0
  0
LWPOLYLINE
  5
195
100
AcDbEntity
  8
0
 62
1
100
AcDbPolyline
 90
3
 70
0
 10
195.414770
 20
268.254905
 30
0.0
 10
207.738568
 20
251.045558
 30
0.0
 10
215.957161
 20
231.539769
 30
0.0
  0
ENDSEC
  0
SECTION
  2
OBJECTS
  0
DICTIONARY
  5
C
330
0
100
AcDbDictionary
  3
ACAD_GROUP
350
D
  3
ACAD_MLINESTYLE
350
17
  0
DICTIONARY
  5
D
330
C
100
AcDbDictionary
  0
DICTIONARY
  5
1A
330
C
100
AcDbDictionary
  0
DICTIONARY
  5
17
330
C
100
AcDbDictionary
  3
STANDARD
350
18
  0
DICTIONARY
  5
19
330
C
100
AcDbDictionary
  0
ENDSEC
  0
EOF
