999
DXF created by Inkscape
  0
SECTION
  2
HEADER
  9
$ACADVER
  1
AC1014
  9
$HANDSEED
  5
FFFF
  9
$MEASUREMENT
 70
     1
  0
ENDSEC
  0
SECTION
  2
TABLES
  0
TABLE
  2
VPORT
  5
8
330
0
100
AcDbSymbolTable
 70
     4
  0
VPORT
  5
2E
330
8
100
AcDbSymbolTableRecord
100
AcDbViewportTableRecord
  2
*ACTIVE
 70
     0
 10
0.0
 20
0.0
 11
1.0
 21
1.0
 12
210.0
 22
148.5
 13
0.0
 23
0.0
 14
10.0
 24
10.0
 15
10.0
 25
10.0
 16
0.0
 26
0.0
 36
1.0
 17
0.0
 27
0.0
 37
0.0
 40
341.0
 41
1.24
 42
50.0
 43
0.0
 44
0.0
 50
0.0
 51
0.0
 71
     0
 72
   100
 73
     1
 74
     3
 75
     0
 76
     0
 77
     0
 78
     0
  0
ENDTAB
  0
TABLE
  2
LTYPE
  5
5
330
0
100
AcDbSymbolTable
 70
     1
  0
LTYPE
  5
14
330
5
100
AcDbSymbolTableRecord
100
AcDbLinetypeTableRecord
  2
BYBLOCK
 70
     0
  3

 72
    65
 73
     0
 40
0.0
  0
LTYPE
  5
15
330
5
100
AcDbSymbolTableRecord
100
AcDbLinetypeTableRecord
  2
BYLAYER
 70
     0
  3

 72
    65
 73
     0
 40
0.0
  0
LTYPE
  5
16
330
5
100
AcDbSymbolTableRecord
100
AcDbLinetypeTableRecord
  2
CONTINUOUS
 70
     0
  3
Solid line
 72
    65
 73
     0
 40
0.0
  0
ENDTAB
  0
TABLE
  2
LAYER
  5
2
330
0
100
AcDbSymbolTable
 70
1
  0
LAYER
  5
10
330
2
100
AcDbSymbolTableRecord
100
AcDbLayerTableRecord
  2
0
 70
     0
 62
     7
  6
CONTINUOUS
  0
ENDTAB
  0
TABLE
  2
STYLE
  5
3
330
0
100
AcDbSymbolTable
 70
     1
  0
STYLE
  5
11
330
3
100
AcDbSymbolTableRecord
100
AcDbTextStyleTableRecord
  2
STANDARD
 70
     0
 40
0.0
 41
1.0
 50
0.0
 71
     0
 42
2.5
  3
txt
  4

  0
ENDTAB
  0
TABLE
  2
VIEW
  5
6
330
0
100
AcDbSymbolTable
 70
     0
  0
ENDTAB
  0
TABLE
  2
UCS
  5
7
330
0
100
AcDbSymbolTable
 70
     0
  0
ENDTAB
  0
TABLE
  2
APPID
  5
9
330
0
100
AcDbSymbolTable
 70
     2
  0
APPID
  5
12
330
9
100
AcDbSymbolTableRecord
100
AcDbRegAppTableRecord
  2
ACAD
 70
     0
  0
ENDTAB
  0
TABLE
  2
DIMSTYLE
  5
A
330
0
100
AcDbSymbolTable
 70
     1
  0
DIMSTYLE
105
27
330
A
100
AcDbSymbolTableRecord
100
AcDbDimStyleTableRecord
  2
ISO-25
 70
     0
  3

  4

  5

  6

  7

 40
1.0
 41
2.5
 42
0.625
 43
3.75
 44
1.25
 45
0.0
 46
0.0
 47
0.0
 48
0.0
140
2.5
141
2.5
142
0.0
143
0.03937007874016
144
1.0
145
0.0
146
1.0
147
0.625
 71
     0
 72
     0
 73
     0
 74
     0
 75
     0
 76
     0
 77
     1
 78
     8
170
     0
171
     3
172
     1
173
     0
174
     0
175
     0
176
     0
177
     0
178
     0
270
     2
271
     2
272
     2
273
     2
274
     3
340
11
275
     0
280
     0
281
     0
282
     0
283
     0
284
     8
285
     0
286
     0
287
     3
288
     0
  0
ENDTAB
  0
TABLE
  2
BLOCK_RECORD
  5
1
330
0
100
AcDbSymbolTable
 70
     1
  0
BLOCK_RECORD
  5
1F
330
1
100
AcDbSymbolTableRecord
100
AcDbBlockTableRecord
  2
*MODEL_SPACE
  0
BLOCK_RECORD
  5
1B
330
1
100
AcDbSymbolTableRecord
100
AcDbBlockTableRecord
  2
*PAPER_SPACE
  0
ENDTAB
  0
ENDSEC
  0
SECTION
  2
BLOCKS
  0
BLOCK
  5
20
330
1F
100
AcDbEntity
  8
0
100
AcDbBlockBegin
  2
*MODEL_SPACE
 70
     0
 10
0.0
 20
0.0
 30
0.0
  3
*MODEL_SPACE
  1

  0
ENDBLK
  5
21
330
1F
100
AcDbEntity
  8
0
100
AcDbBlockEnd
  0
BLOCK
  5
1C
330
1B
100
AcDbEntity
 67
     1
  8
0
100
AcDbBlockBegin
  2
*PAPER_SPACE
  1

  0
ENDBLK
  5
1D
330
1B
100
AcDbEntity
 67
     1
  8
0
100
AcDbBlockEnd
  0
ENDSEC
  0
SECTION
  2
ENTITIES
  0
SPLINE
  5
100
100
AcDbEntity
  8
0
 62
5
100
AcDbSpline
 70
0
 71
3
 72
10
 73
6
 74
4
 40
0.000000
 40
0.000000
 40
0.000000
 40
0.000000
 40
0.639581
 40
2.107726
 40
3.851414
 40
3.851414
 40
3.851414
 40
3.851414
 10
152.704577
 20
252.872467
 30
0.0
 10
152.527501
 20
252.754323
 30
0.0
 10
151.943950
 20
252.364981
 30
0.0
 10
150.765330
 20
251.789444
 30
0.0
 10
149.683831
 20
251.746724
 30
0.0
 10
149.096690
 20
251.723532
 30
0.0
 11
152.704577
 21
252.872467
 31
0.0
 11
152.167689
 21
252.524883
 31
0.0
 11
150.829049
 21
251.921979
 31
0.0
 11
149.096690
 21
251.723532
 31
0.0
  0
SPLINE
  5
101
100
AcDbEntity
  8
0
 62
5
100
AcDbSpline
 70
0
 71
3
 72
10
 73
6
 74
4
 40
0.000000
 40
0.000000
 40
0.000000
 40
0.000000
 40
2.923536
 40
5.996622
 40
8.920158
 40
8.920158
 40
8.920158
 40
8.920158
 10
149.096690
 20
251.723532
 30
0.0
 10
148.164980
 20
252.036504
 30
0.0
 10
146.253899
 20
252.678458
 30
0.0
 10
144.069036
 20
254.922912
 30
0.0
 10
143.478727
 20
256.850571
 30
0.0
 10
143.190934
 20
257.790364
 30
0.0
 11
149.096690
 21
251.723532
 31
0.0
 11
146.406687
 21
252.868497
 31
0.0
 11
144.263115
 21
255.070532
 31
0.0
 11
143.190934
 21
257.790364
 31
0.0
  0
LWPOLYLINE
  5
102
100
AcDbEntity
  8
0
 62
5
100
AcDbPolyline
 90
4
 70
0
 10
158.817931
 20
247.401578
 30
0.0
 10
151.927882
 20
254.479551
 30
0.0
 10
151.523426
 20
254.085834
 30
0.0
 10
152.704577
 20
252.872467
 30
0.0
  0
LWPOLYLINE
  5
103
100
AcDbEntity
  8
0
 62
5
100
AcDbPolyline
 90
4
 70
0
 10
144.436516
 20
261.366035
 30
0.0
 10
145.617667
 20
260.152669
 30
0.0
 10
146.022125
 20
260.546386
 30
0.0
 10
139.132073
 20
267.624358
 30
0.0
  0
LWPOLYLINE
  5
104
100
AcDbEntity
  8
0
 62
1
100
AcDbPolyline
 90
2
 70
0
 10
150.549870
 20
255.895146
 30
0.0
 10
147.400134
 20
259.130790
 30
0.0
  0
LWPOLYLINE
  5
105
100
AcDbEntity
  8
0
 62
5
100
AcDbPolyline
 90
5
 70
0
 10
158.817886
 20
247.401536
 30
0.0
 10
158.731359
 20
244.207748
 30
0.0
 10
166.442096
 20
240.515418
 30
0.0
 10
167.990066
 20
241.317403
 30
0.0
 10
172.928932
 20
238.041331
 30
0.0
  0
LWPOLYLINE
  5
106
100
AcDbEntity
  8
0
 62
5
100
AcDbPolyline
 90
4
 70
0
 10
160.227577
 20
247.076052
 30
0.0
 10
160.324010
 20
245.996092
 30
0.0
 10
163.992879
 20
243.562436
 30
0.0
 10
165.025332
 20
243.893581
 30
0.0
  0
LWPOLYLINE
  5
107
100
AcDbEntity
  8
0
 62
1
100
AcDbPolyline
 90
2
 70
0
 10
158.817886
 20
247.401536
 30
0.0
 10
159.946772
 20
246.652718
 30
0.0
  0
LWPOLYLINE
  5
108
100
AcDbEntity
  8
0
 62
1
100
AcDbPolyline
 90
2
 70
0
 10
167.990066
 20
241.317403
 30
0.0
 10
164.744527
 20
243.470251
 30
0.0
  0
SPLINE
  5
109
100
AcDbEntity
  8
0
 62
5
100
AcDbSpline
 70
0
 71
3
 72
10
 73
6
 74
4
 40
0.000000
 40
0.000000
 40
0.000000
 40
0.000000
 40
1.743687
 40
3.211833
 40
3.851413
 40
3.851413
 40
3.851413
 40
3.851413
 10
143.190934
 20
257.790364
 30
0.0
 10
143.229914
 20
258.376668
 30
0.0
 10
143.301714
 20
259.456626
 30
0.0
 10
143.908750
 20
260.619336
 30
0.0
 10
144.313651
 20
261.192201
 30
0.0
 10
144.436516
 20
261.366035
 30
0.0
 11
143.190934
 21
257.790364
 31
0.0
 11
143.435915
 21
259.516756
 31
0.0
 11
144.074613
 21
260.838693
 31
0.0
 11
144.436516
 21
261.366035
 31
0.0
  0
SPLINE
  5
10a
100
AcDbEntity
  8
0
 62
5
100
AcDbSpline
 70
0
 71
3
 72
10
 73
6
 74
4
 40
0.000000
 40
0.000000
 40
0.000000
 40
0.000000
 40
0.168284
 40
0.650175
 40
1.455479
 40
1.455479
 40
1.455479
 40
1.455479
 10
163.236069
 20
240.485787
 30
0.0
 10
163.223409
 20
240.540509
 30
0.0
 10
163.174498
 20
240.751930
 30
0.0
 10
162.940214
 20
241.187342
 30
0.0
 10
162.643583
 20
241.498838
 30
0.0
 10
162.458002
 20
241.693718
 30
0.0
 11
163.236069
 21
240.485787
 31
0.0
 11
163.194355
 21
240.648819
 31
0.0
 11
162.979738
 21
241.080280
 31
0.0
 11
162.458002
 21
241.693718
 31
0.0
  0
SPLINE
  5
10b
100
AcDbEntity
  8
0
 62
5
100
AcDbSpline
 70
0
 71
3
 72
10
 73
6
 74
4
 40
0.000000
 40
0.000000
 40
0.000000
 40
0.000000
 40
1.161207
 40
2.117327
 40
3.260095
 40
3.260095
 40
3.260095
 40
3.260095
 10
162.458002
 20
241.693718
 30
0.0
 10
162.108372
 20
241.860570
 30
0.0
 10
161.470861
 20
242.164805
 30
0.0
 10
160.444065
 20
242.523884
 30
0.0
 10
159.781635
 20
242.748521
 30
0.0
 10
159.420966
 20
242.870828
 30
0.0
 11
162.458002
 21
241.693718
 31
0.0
 11
161.400281
 21
242.172911
 31
0.0
 11
160.502568
 21
242.501969
 31
0.0
 11
159.420966
 21
242.870828
 31
0.0
  0
LWPOLYLINE
  5
10c
100
AcDbEntity
  8
0
 62
5
100
AcDbPolyline
 90
4
 70
0
 10
172.928921
 20
238.041311
 30
0.0
 10
162.171428
 20
240.369718
 30
0.0
 10
162.243070
 20
240.700719
 30
0.0
 10
163.236069
 20
240.485787
 30
0.0
  0
LWPOLYLINE
  5
10d
100
AcDbEntity
  8
0
 62
5
100
AcDbPolyline
 90
4
 70
0
 10
157.940073
 20
241.632081
 30
0.0
 10
158.933072
 20
241.417152
 30
0.0
 10
158.861430
 20
241.086150
 30
0.0
 10
156.378930
 20
241.623476
 30
0.0
  0
LWPOLYLINE
  5
10e
100
AcDbEntity
  8
0
 62
1
100
AcDbPolyline
 90
2
 70
0
 10
161.012928
 20
240.620469
 30
0.0
 10
160.019929
 20
240.835399
 30
0.0
  0
LWPOLYLINE
  5
10f
100
AcDbEntity
  8
0
 62
5
100
AcDbPolyline
 90
4
 70
0
 10
176.064816
 20
221.400970
 30
0.0
 10
168.285327
 20
221.705214
 30
0.0
 10
156.473827
 20
233.838864
 30
0.0
 10
156.378983
 20
241.623724
 30
0.0
  0
LWPOLYLINE
  5
110
100
AcDbEntity
  8
0
 62
5
100
AcDbPolyline
 90
4
 70
0
 10
171.159466
 20
227.653916
 30
0.0
 10
169.360895
 20
227.478535
 30
0.0
 10
162.273996
 20
234.758725
 30
0.0
 10
162.497699
 20
236.551929
 30
0.0
  0
LWPOLYLINE
  5
111
100
AcDbEntity
  8
0
 62
1
100
AcDbPolyline
 90
2
 70
0
 10
176.064816
 20
221.400970
 30
0.0
 10
170.552782
 20
227.063341
 30
0.0
  0
LWPOLYLINE
  5
112
100
AcDbEntity
  8
0
 62
1
100
AcDbPolyline
 90
2
 70
0
 10
156.378983
 20
241.623724
 30
0.0
 10
161.891018
 20
235.961353
 30
0.0
  0
SPLINE
  5
113
100
AcDbEntity
  8
0
 62
5
100
AcDbSpline
 70
0
 71
3
 72
10
 73
6
 74
4
 40
0.000000
 40
0.000000
 40
0.000000
 40
0.000000
 40
1.055599
 40
1.827026
 40
1.999238
 40
1.999238
 40
1.999238
 40
1.999238
 10
159.420966
 20
242.870828
 30
0.0
 10
159.143695
 20
242.684775
 30
0.0
 10
158.663794
 20
242.362756
 30
0.0
 10
157.925272
 20
242.015386
 30
0.0
 10
157.937789
 20
241.691237
 30
0.0
 10
157.940073
 20
241.632081
 30
0.0
 11
159.420966
 21
242.870828
 31
0.0
 11
158.524055
 21
242.314196
 31
0.0
 11
157.945247
 21
241.804215
 31
0.0
 11
157.940073
 21
241.632081
 31
0.0
  0
SPLINE
  5
114
100
AcDbEntity
  8
0
 62
5
100
AcDbSpline
 70
0
 71
3
 72
10
 73
6
 74
4
 40
0.000000
 40
0.000000
 40
0.000000
 40
0.000000
 40
0.639578
 40
2.107717
 40
3.851397
 40
3.851397
 40
3.851397
 40
3.851397
 10
184.377259
 20
239.641875
 30
0.0
 10
184.554966
 20
239.524683
 30
0.0
 10
185.140595
 20
239.138479
 30
0.0
 10
186.129177
 20
238.276458
 30
0.0
 10
186.589115
 20
237.296708
 30
0.0
 10
186.838813
 20
236.764806
 30
0.0
 11
184.377259
 21
239.641875
 31
0.0
 11
184.906271
 21
239.282422
 31
0.0
 11
185.982295
 21
238.283620
 31
0.0
 11
186.838813
 21
236.764806
 31
0.0
  0
SPLINE
  5
115
100
AcDbEntity
  8
0
 62
5
100
AcDbSpline
 70
0
 71
3
 72
10
 73
6
 74
4
 40
0.000000
 40
0.000000
 40
0.000000
 40
0.000000
 40
2.923526
 40
5.996602
 40
8.920128
 40
8.920128
 40
8.920128
 40
8.920128
 10
186.838813
 20
236.764806
 30
0.0
 10
186.912809
 20
235.784727
 30
0.0
 10
187.064586
 20
233.774435
 30
0.0
 10
185.846478
 20
230.888721
 30
0.0
 10
184.300125
 20
229.595237
 30
0.0
 10
183.546231
 20
228.964624
 30
0.0
 11
186.838813
 21
236.764806
 31
0.0
 11
186.830089
 21
233.841292
 31
0.0
 11
185.635004
 21
231.010116
 31
0.0
 11
183.546231
 21
228.964624
 31
0.0
  0
LWPOLYLINE
  5
116
100
AcDbEntity
  8
0
 62
5
100
AcDbPolyline
 90
4
 70
0
 10
187.040077
 20
247.401555
 30
0.0
 10
183.198730
 20
238.301345
 30
0.0
 10
183.718742
 20
238.081838
 30
0.0
 10
184.377259
 20
239.641875
 30
0.0
  0
LWPOLYLINE
  5
117
100
AcDbEntity
  8
0
 62
5
100
AcDbPolyline
 90
4
 70
0
 10
179.767642
 20
228.721622
 30
0.0
 10
180.426160
 20
230.281659
 30
0.0
 10
179.906145
 20
230.501163
 30
0.0
 10
176.064799
 20
221.400953
 30
0.0
  0
LWPOLYLINE
  5
118
100
AcDbEntity
  8
0
 62
1
100
AcDbPolyline
 90
2
 70
0
 10
182.430460
 20
236.481302
 30
0.0
 10
180.674416
 20
232.321206
 30
0.0
  0
LWPOLYLINE
  5
119
100
AcDbEntity
  8
0
 62
5
100
AcDbPolyline
 90
5
 70
0
 10
187.040122
 20
247.401539
 30
0.0
 10
190.016181
 20
248.563859
 30
0.0
 10
190.419248
 20
257.103613
 30
0.0
 10
189.078393
 20
258.217860
 30
0.0
 10
190.175924
 20
264.042032
 30
0.0
  0
LWPOLYLINE
  5
11a
100
AcDbEntity
  8
0
 62
5
100
AcDbPolyline
 90
4
 70
0
 10
186.791772
 20
248.826851
 30
0.0
 10
187.749228
 20
249.335681
 30
0.0
 10
188.564537
 20
253.662210
 30
0.0
 10
187.857943
 20
254.484619
 30
0.0
  0
LWPOLYLINE
  5
11b
100
AcDbEntity
  8
0
 62
1
100
AcDbPolyline
 90
2
 70
0
 10
187.040122
 20
247.401539
 30
0.0
 10
187.290987
 20
248.732778
 30
0.0
  0
LWPOLYLINE
  5
11c
100
AcDbEntity
  8
0
 62
1
100
AcDbPolyline
 90
2
 70
0
 10
189.078393
 20
258.217860
 30
0.0
 10
188.357160
 20
254.390546
 30
0.0
  0
SPLINE
  5
11d
100
AcDbEntity
  8
0
 62
5
100
AcDbSpline
 70
0
 71
3
 72
10
 73
6
 74
4
 40
0.000000
 40
0.000000
 40
0.000000
 40
0.000000
 40
1.743680
 40
3.211819
 40
3.851398
 40
3.851398
 40
3.851398
 40
3.851398
 10
183.546231
 20
228.964624
 30
0.0
 10
182.990922
 20
228.772530
 30
0.0
 10
181.968055
 20
228.418696
 30
0.0
 10
180.660804
 20
228.525784
 30
0.0
 10
179.975573
 20
228.676030
 30
0.0
 10
179.767642
 20
228.721622
 30
0.0
 11
183.546231
 21
228.964624
 31
0.0
 11
181.860469
 21
228.518949
 31
0.0
 11
180.394212
 21
228.593285
 31
0.0
 11
179.767642
 21
228.721622
 31
0.0
  0
SPLINE
  5
11e
100
AcDbEntity
  8
0
 62
5
100
AcDbSpline
 70
0
 71
3
 72
10
 73
6
 74
4
 40
0.000000
 40
0.000000
 40
0.000000
 40
0.000000
 40
0.168286
 40
0.650183
 40
1.455496
 40
1.455496
 40
1.455496
 40
1.455496
 10
191.693148
 20
254.161424
 30
0.0
 10
191.647656
 20
254.128480
 30
0.0
 10
191.471895
 20
254.001199
 30
0.0
 10
191.161861
 20
253.616028
 30
0.0
 10
190.990238
 20
253.221605
 30
0.0
 10
190.882865
 20
252.974843
 30
0.0
 11
191.693148
 21
254.161424
 31
0.0
 11
191.559169
 21
254.059592
 31
0.0
 11
191.245127
 21
253.694076
 31
0.0
 11
190.882865
 21
252.974843
 31
0.0
  0
SPLINE
  5
11f
100
AcDbEntity
  8
0
 62
5
100
AcDbSpline
 70
0
 71
3
 72
10
 73
6
 74
4
 40
0.000000
 40
0.000000
 40
0.000000
 40
0.000000
 40
1.161218
 40
2.117350
 40
3.260130
 40
3.260130
 40
3.260130
 40
3.260130
 10
190.882865
 20
252.974843
 30
0.0
 10
190.865111
 20
252.587844
 30
0.0
 10
190.832739
 20
251.882194
 30
0.0
 10
190.901229
 20
250.796569
 30
0.0
 10
190.951877
 20
250.098915
 30
0.0
 10
190.979453
 20
249.719068
 30
0.0
 11
190.882865
 21
252.974843
 31
0.0
 11
190.852719
 21
251.814017
 31
0.0
 11
190.898667
 21
250.858990
 31
0.0
 11
190.979453
 21
249.719068
 31
0.0
  0
LWPOLYLINE
  5
120
100
AcDbEntity
  8
0
 62
5
100
AcDbPolyline
 90
4
 70
0
 10
190.175831
 20
264.042049
 30
0.0
 10
192.214108
 20
253.225708
 30
0.0
 10
191.881297
 20
253.162992
 30
0.0
 10
191.693148
 20
254.161424
 30
0.0
  0
LWPOLYLINE
  5
121
100
AcDbEntity
  8
0
 62
5
100
AcDbPolyline
 90
4
 70
0
 10
192.696606
 20
248.836455
 30
0.0
 10
192.508457
 20
249.834887
 30
0.0
 10
192.841268
 20
249.897602
 30
0.0
 10
193.311639
 20
247.401524
 30
0.0
  0
LWPOLYLINE
  5
122
100
AcDbEntity
  8
0
 62
1
100
AcDbPolyline
 90
2
 70
0
 10
192.433615
 20
252.060872
 30
0.0
 10
192.621761
 20
251.062441
 30
0.0
  0
LWPOLYLINE
  5
123
100
AcDbEntity
  8
0
 62
5
100
AcDbPolyline
 90
4
 70
0
 10
204.287044
 20
273.402269
 30
0.0
 10
207.032118
 20
266.116809
 30
0.0
 10
200.446917
 20
250.516369
 30
0.0
 10
193.311712
 20
247.401536
 30
0.0
  0
LWPOLYLINE
  5
124
100
AcDbEntity
  8
0
 62
5
100
AcDbPolyline
 90
4
 70
0
 10
200.433929
 20
266.451324
 30
0.0
 10
201.294952
 20
264.862529
 30
0.0
 10
197.343832
 20
255.502265
 30
0.0
 10
195.604782
 20
255.011003
 30
0.0
  0
LWPOLYLINE
  5
125
100
AcDbEntity
  8
0
 62
1
100
AcDbPolyline
 90
2
 70
0
 10
204.287044
 20
273.402269
 30
0.0
 10
201.213951
 20
266.122064
 30
0.0
  0
LWPOLYLINE
  5
126
100
AcDbEntity
  8
0
 62
1
100
AcDbPolyline
 90
2
 70
0
 10
193.311712
 20
247.401536
 30
0.0
 10
196.384805
 20
254.681743
 30
0.0
  0
SPLINE
  5
127
100
AcDbEntity
  8
0
 62
5
100
AcDbSpline
 70
0
 71
3
 72
10
 73
6
 74
4
 40
0.000000
 40
0.000000
 40
0.000000
 40
0.000000
 40
1.055610
 40
1.827047
 40
1.999260
 40
1.999260
 40
1.999260
 40
1.999260
 10
190.979453
 20
249.719068
 30
0.0
 10
191.258690
 20
249.535972
 30
0.0
 10
191.741991
 20
249.219068
 30
0.0
 10
192.349224
 20
248.673756
 30
0.0
 10
192.642994
 20
248.811345
 30
0.0
 10
192.696606
 20
248.836455
 30
0.0
 11
190.979453
 21
249.719068
 31
0.0
 11
191.841072
 21
249.109211
 31
0.0
 11
192.536008
 21
248.774281
 31
0.0
 11
192.696606
 21
248.836455
 31
0.0
  0
SPLINE
  5
128
100
AcDbEntity
  8
0
 62
5
100
AcDbSpline
 70
0
 71
3
 72
10
 73
6
 74
4
 40
0.000000
 40
0.000000
 40
0.000000
 40
0.000000
 40
0.639581
 40
2.107727
 40
3.851414
 40
3.851414
 40
3.851414
 40
3.851414
 10
184.249246
 20
273.966718
 30
0.0
 10
184.288105
 20
274.176012
 30
0.0
 10
184.416165
 20
274.865737
 30
0.0
 10
184.825884
 20
276.111737
 30
0.0
 10
185.549651
 20
276.916490
 30
0.0
 10
185.942580
 20
277.353386
 30
0.0
 11
184.249246
 21
273.966718
 31
0.0
 11
184.374678
 21
274.593879
 31
0.0
 11
184.876407
 21
275.973632
 31
0.0
 11
185.942580
 21
277.353386
 31
0.0
  0
SPLINE
  5
129
100
AcDbEntity
  8
0
 62
5
100
AcDbSpline
 70
0
 71
3
 72
10
 73
6
 74
4
 40
0.000000
 40
0.000000
 40
0.000000
 40
0.000000
 40
2.923539
 40
5.996627
 40
8.920166
 40
8.920166
 40
8.920166
 40
8.920166
 10
185.942580
 20
277.353386
 30
0.0
 10
186.816739
 20
277.802701
 30
0.0
 10
188.609773
 20
278.724314
 30
0.0
 10
191.742058
 20
278.724314
 30
0.0
 10
193.535093
 20
277.802701
 30
0.0
 10
194.409252
 20
277.353386
 30
0.0
 11
185.942580
 21
277.353386
 31
0.0
 11
188.639372
 21
278.482275
 31
0.0
 11
191.712460
 21
278.482275
 31
0.0
 11
194.409252
 21
277.353386
 31
0.0
  0
LWPOLYLINE
  5
12a
100
AcDbEntity
  8
0
 62
5
100
AcDbPolyline
 90
4
 70
0
 10
176.064799
 20
273.402273
 30
0.0
 10
185.942580
 20
273.402273
 30
0.0
 10
185.942580
 20
273.966718
 30
0.0
 10
184.249246
 20
273.966718
 30
0.0
  0
LWPOLYLINE
  5
12b
100
AcDbEntity
  8
0
 62
5
100
AcDbPolyline
 90
4
 70
0
 10
196.102585
 20
273.966718
 30
0.0
 10
194.409252
 20
273.966718
 30
0.0
 10
194.409252
 20
273.402273
 30
0.0
 10
204.287033
 20
273.402273
 30
0.0
  0
LWPOLYLINE
  5
12c
100
AcDbEntity
  8
0
 62
1
100
AcDbPolyline
 90
2
 70
0
 10
187.918138
 20
273.402273
 30
0.0
 10
192.433694
 20
273.402273
 30
0.0
  0
LWPOLYLINE
  5
12d
100
AcDbEntity
  8
0
 62
5
100
AcDbPolyline
 90
5
 70
0
 10
176.064802
 20
273.402273
 30
0.0
 10
173.088763
 20
272.239966
 30
0.0
 10
172.685685
 20
263.700281
 30
0.0
 10
174.026525
 20
262.586040
 30
0.0
 10
172.928994
 20
256.761915
 30
0.0
  0
LWPOLYLINE
  5
12e
100
AcDbEntity
  8
0
 62
5
100
AcDbPolyline
 90
4
 70
0
 10
176.313146
 20
271.976970
 30
0.0
 10
175.355696
 20
271.468146
 30
0.0
 10
174.540387
 20
267.141654
 30
0.0
 10
175.246973
 20
266.319250
 30
0.0
  0
LWPOLYLINE
  5
12f
100
AcDbEntity
  8
0
 62
1
100
AcDbPolyline
 90
2
 70
0
 10
176.064802
 20
273.402273
 30
0.0
 10
175.813934
 20
272.071044
 30
0.0
  0
LWPOLYLINE
  5
130
100
AcDbEntity
  8
0
 62
1
100
AcDbPolyline
 90
2
 70
0
 10
174.026525
 20
262.586040
 30
0.0
 10
174.747761
 20
266.413323
 30
0.0
  0
SPLINE
  5
131
100
AcDbEntity
  8
0
 62
5
100
AcDbSpline
 70
0
 71
3
 72
10
 73
6
 74
4
 40
0.000000
 40
0.000000
 40
0.000000
 40
0.000000
 40
1.743687
 40
3.211833
 40
3.851414
 40
3.851414
 40
3.851414
 40
3.851414
 10
194.409252
 20
277.353386
 30
0.0
 10
194.802181
 20
276.916490
 30
0.0
 10
195.525947
 20
276.111737
 30
0.0
 10
195.935667
 20
274.865737
 30
0.0
 10
196.063726
 20
274.176012
 30
0.0
 10
196.102585
 20
273.966718
 30
0.0
 11
194.409252
 21
277.353386
 31
0.0
 11
195.475425
 21
275.973632
 31
0.0
 11
195.977153
 21
274.593879
 31
0.0
 11
196.102585
 21
273.966718
 31
0.0
  0
SPLINE
  5
132
100
AcDbEntity
  8
0
 62
5
100
AcDbSpline
 70
0
 71
3
 72
10
 73
6
 74
4
 40
0.000000
 40
0.000000
 40
0.000000
 40
0.000000
 40
0.168284
 40
0.650175
 40
1.455477
 40
1.455477
 40
1.455477
 40
1.455477
 10
171.411604
 20
266.642439
 30
0.0
 10
171.457095
 20
266.675383
 30
0.0
 10
171.632854
 20
266.802663
 30
0.0
 10
171.942883
 20
267.187829
 30
0.0
 10
172.114504
 20
267.582247
 30
0.0
 10
172.221875
 20
267.829006
 30
0.0
 11
171.411604
 21
266.642439
 31
0.0
 11
171.545581
 21
266.744270
 31
0.0
 11
171.859619
 21
267.109782
 31
0.0
 11
172.221875
 21
267.829006
 31
0.0
  0
SPLINE
  5
133
100
AcDbEntity
  8
0
 62
5
100
AcDbSpline
 70
0
 71
3
 72
10
 73
6
 74
4
 40
0.000000
 40
0.000000
 40
0.000000
 40
0.000000
 40
1.161204
 40
2.117324
 40
3.260091
 40
3.260091
 40
3.260091
 40
3.260091
 10
172.221875
 20
267.829006
 30
0.0
 10
172.239628
 20
268.216001
 30
0.0
 10
172.272000
 20
268.921642
 30
0.0
 10
172.203511
 20
270.007254
 30
0.0
 10
172.152861
 20
270.704899
 30
0.0
 10
172.125284
 20
271.084742
 30
0.0
 11
172.221875
 21
267.829006
 31
0.0
 11
172.252020
 21
268.989819
 31
0.0
 11
172.206072
 21
269.944834
 31
0.0
 11
172.125284
 21
271.084742
 31
0.0
  0
LWPOLYLINE
  5
134
100
AcDbEntity
  8
0
 62
5
100
AcDbPolyline
 90
4
 70
0
 10
172.928921
 20
256.761930
 30
0.0
 10
170.890650
 20
267.578141
 30
0.0
 10
171.223457
 20
267.640857
 30
0.0
 10
171.411604
 20
266.642439
 30
0.0
  0
LWPOLYLINE
  5
135
100
AcDbEntity
  8
0
 62
5
100
AcDbPolyline
 90
4
 70
0
 10
170.408148
 20
271.967342
 30
0.0
 10
170.596298
 20
270.968923
 30
0.0
 10
170.263490
 20
270.906207
 30
0.0
 10
169.793121
 20
273.402256
 30
0.0
  0
LWPOLYLINE
  5
136
100
AcDbEntity
  8
0
 62
1
100
AcDbPolyline
 90
2
 70
0
 10
170.671143
 20
268.742966
 30
0.0
 10
170.482997
 20
269.741384
 30
0.0
  0
LWPOLYLINE
  5
137
100
AcDbEntity
  8
0
 62
5
100
AcDbPolyline
 90
5
 70
0
 10
169.793209
 20
273.402274
 30
0.0
 10
166.884471
 20
274.724040
 30
0.0
 10
160.484112
 20
269.056179
 30
0.0
 10
160.620970
 20
267.318170
 30
0.0
 10
155.682069
 20
264.042111
 30
0.0
  0
LWPOLYLINE
  5
138
100
AcDbEntity
  8
0
 62
5
100
AcDbPolyline
 90
4
 70
0
 10
168.945123
 20
272.230127
 30
0.0
 10
167.912669
 20
272.561277
 30
0.0
 10
164.243774
 20
270.127635
 30
0.0
 10
164.147336
 20
269.047671
 30
0.0
  0
LWPOLYLINE
  5
139
100
AcDbEntity
  8
0
 62
1
100
AcDbPolyline
 90
2
 70
0
 10
169.793209
 20
273.402274
 30
0.0
 10
168.664320
 20
272.653461
 30
0.0
  0
LWPOLYLINE
  5
13a
100
AcDbEntity
  8
0
 62
1
100
AcDbPolyline
 90
2
 70
0
 10
160.620970
 20
267.318170
 30
0.0
 10
163.866531
 20
269.471006
 30
0.0
  0
SPLINE
  5
13b
100
AcDbEntity
  8
0
 62
5
100
AcDbSpline
 70
0
 71
3
 72
10
 73
6
 74
4
 40
0.000000
 40
0.000000
 40
0.000000
 40
0.000000
 40
1.055599
 40
1.827027
 40
1.999238
 40
1.999238
 40
1.999238
 40
1.999238
 10
172.125284
 20
271.084742
 30
0.0
 10
171.846050
 20
271.267836
 30
0.0
 10
171.362753
 20
271.584734
 30
0.0
 10
170.755527
 20
272.130039
 30
0.0
 10
170.461760
 20
271.992451
 30
0.0
 10
170.408148
 20
271.967342
 30
0.0
 11
172.125284
 21
271.084742
 31
0.0
 11
171.263673
 21
271.694590
 31
0.0
 11
170.568745
 21
272.029516
 31
0.0
 11
170.408148
 21
271.967342
 31
0.0
  0
SPLINE
  5
13c
100
AcDbEntity
  8
0
 62
5
100
AcDbSpline
 70
0
 71
3
 72
10
 73
6
 74
4
 40
0.000000
 40
0.000000
 40
0.000000
 40
0.000000
 40
0.168284
 40
0.650175
 40
1.455480
 40
1.455480
 40
1.455480
 40
1.455480
 10
161.703684
 20
272.021265
 30
0.0
 10
161.759022
 20
272.011647
 30
0.0
 10
161.972822
 20
271.974488
 30
0.0
 10
162.465070
 20
272.021001
 30
0.0
 10
162.867405
 20
272.173144
 30
0.0
 10
163.119116
 20
272.268328
 30
0.0
 11
161.703684
 21
272.021265
 31
0.0
 11
161.870105
 21
271.996293
 31
0.0
 11
162.351066
 21
272.026224
 31
0.0
 11
163.119116
 21
272.268328
 31
0.0
  0
SPLINE
  5
13d
100
AcDbEntity
  8
0
 62
5
100
AcDbSpline
 70
0
 71
3
 72
10
 73
6
 74
4
 40
0.000000
 40
0.000000
 40
0.000000
 40
0.000000
 40
1.161208
 40
2.117330
 40
3.260100
 40
3.260100
 40
3.260100
 40
3.260100
 10
163.119116
 20
272.268328
 30
0.0
 10
163.408804
 20
272.525548
 30
0.0
 10
163.937017
 20
272.994560
 30
0.0
 10
164.667148
 20
273.800884
 30
0.0
 10
165.131719
 20
274.323809
 30
0.0
 10
165.384661
 20
274.608523
 30
0.0
 11
163.119116
 21
272.268328
 31
0.0
 11
163.971933
 21
273.056432
 31
0.0
 11
164.624206
 21
273.755510
 31
0.0
 11
165.384661
 21
274.608523
 31
0.0
  0
LWPOLYLINE
  5
13e
100
AcDbEntity
  8
0
 62
5
100
AcDbPolyline
 90
4
 70
0
 10
155.682112
 20
264.042049
 30
0.0
 10
162.010784
 20
273.047242
 30
0.0
 10
162.287867
 20
272.852514
 30
0.0
 10
161.703684
 20
272.021265
 30
0.0
  0
LWPOLYLINE
  5
13f
100
AcDbEntity
  8
0
 62
5
100
AcDbPolyline
 90
4
 70
0
 10
164.819338
 20
276.454591
 30
0.0
 10
164.235153
 20
275.623342
 30
0.0
 10
163.958070
 20
275.818070
 30
0.0
 10
165.418533
 20
277.896192
 30
0.0
  0
LWPOLYLINE
  5
140
100
AcDbEntity
  8
0
 62
1
100
AcDbPolyline
 90
2
 70
0
 10
162.692334
 20
274.017032
 30
0.0
 10
163.276520
 20
274.848280
 30
0.0
  0
LWPOLYLINE
  5
141
100
AcDbEntity
  8
0
 62
5
100
AcDbPolyline
 90
4
 70
0
 10
139.132090
 20
267.624319
 30
0.0
 10
142.437708
 20
274.673116
 30
0.0
 10
158.209550
 20
280.836257
 30
0.0
 10
165.418493
 20
277.896221
 30
0.0
  0
LWPOLYLINE
  5
142
100
AcDbEntity
  8
0
 62
5
100
AcDbPolyline
 90
4
 70
0
 10
146.800440
 20
269.711859
 30
0.0
 10
147.338299
 20
271.437055
 30
0.0
 10
156.801405
 20
275.134940
 30
0.0
 10
158.366457
 20
274.231496
 30
0.0
  0
LWPOLYLINE
  5
143
100
AcDbEntity
  8
0
 62
1
100
AcDbPolyline
 90
2
 70
0
 10
139.132090
 20
267.624319
 30
0.0
 10
146.492282
 20
270.500451
 30
0.0
  0
LWPOLYLINE
  5
144
100
AcDbEntity
  8
0
 62
1
100
AcDbPolyline
 90
2
 70
0
 10
165.418493
 20
277.896221
 30
0.0
 10
158.058299
 20
275.020088
 30
0.0
  0
LWPOLYLINE
  5
145
100
AcDbEntity
  8
0
 62
1
100
AcDbPolyline
 90
4
 70
0
 10
139.132073
 20
267.624460
 30
0.0
 10
155.682148
 20
264.041931
 30
0.0
 10
158.817920
 20
247.401544
 30
0.0
 10
169.793260
 20
273.402396
 30
0.0
  0
LWPOLYLINE
  5
146
100
AcDbEntity
  8
0
 62
1
100
AcDbPolyline
 90
2
 70
0
 10
158.817920
 20
247.401544
 30
0.0
 10
172.929031
 20
256.762009
 30
0.0
  0
LWPOLYLINE
  5
147
100
AcDbEntity
  8
0
 62
1
100
AcDbPolyline
 90
2
 70
0
 10
158.817920
 20
247.401544
 30
0.0
 10
187.040142
 20
247.401544
 30
0.0
  0
LWPOLYLINE
  5
148
100
AcDbEntity
  8
0
 62
1
100
AcDbPolyline
 90
2
 70
0
 10
172.929031
 20
256.762009
 30
0.0
 10
187.040142
 20
247.401544
 30
0.0
  0
LWPOLYLINE
  5
149
100
AcDbEntity
  8
0
 62
1
100
AcDbPolyline
 90
2
 70
0
 10
172.929031
 20
238.041362
 30
0.0
 10
176.064802
 20
221.400975
 30
0.0
  0
LWPOLYLINE
  5
14a
100
AcDbEntity
  8
0
 62
1
100
AcDbPolyline
 90
2
 70
0
 10
172.929031
 20
238.041362
 30
0.0
 10
187.040142
 20
247.401544
 30
0.0
  0
LWPOLYLINE
  5
14b
100
AcDbEntity
  8
0
 62
1
100
AcDbPolyline
 90
2
 70
0
 10
176.064802
 20
273.402396
 30
0.0
 10
187.040142
 20
247.401544
 30
0.0
  0
SPLINE
  5
14c
100
AcDbEntity
  8
0
 62
5
100
AcDbSpline
 70
0
 71
3
 72
10
 73
6
 74
4
 40
0.000000
 40
0.000000
 40
0.000000
 40
0.000000
 40
1.055601
 40
1.827031
 40
1.999241
 40
1.999241
 40
1.999241
 40
1.999241
 10
165.384661
 20
274.608523
 30
0.0
 10
165.321083
 20
274.936324
 30
0.0
 10
165.211044
 20
275.503681
 30
0.0
 10
165.178226
 20
276.319160
 30
0.0
 10
164.874726
 20
276.433689
 30
0.0
 10
164.819338
 20
276.454591
 30
0.0
 11
165.384661
 21
274.608523
 31
0.0
 11
165.220651
 21
275.651305
 31
0.0
 11
164.975909
 21
276.382882
 31
0.0
 11
164.819338
 21
276.454591
 31
0.0
  0
LWPOLYLINE
  5
14d
100
AcDbEntity
  8
0
 62
1
100
AcDbPolyline
 90
3
 70
0
 10
176.064802
 20
273.402396
 30
0.0
 10
190.175913
 20
264.041931
 30
0.0
 10
204.287024
 20
273.402396
 30
0.0
  0
ENDSEC
  0
SECTION
  2
OBJECTS
  0
DICTIONARY
  5
C
330
0
100
AcDbDictionary
  3
ACAD_GROUP
350
D
  3
ACAD_MLINESTYLE
350
17
  0
DICTIONARY
  5
D
330
C
100
AcDbDictionary
  0
DICTIONARY
  5
1A
330
C
100
AcDbDictionary
  0
DICTIONARY
  5
17
330
C
100
AcDbDictionary
  3
STANDARD
350
18
  0
DICTIONARY
  5
19
330
C
100
AcDbDictionary
  0
ENDSEC
  0
EOF
