<?xml version="1.0" encoding="UTF-8" standalone="no"?>
<!-- Created with Inkscape (http://www.inkscape.org/) -->

<svg
   xmlns:dc="http://purl.org/dc/elements/1.1/"
   xmlns:cc="http://creativecommons.org/ns#"
   xmlns:rdf="http://www.w3.org/1999/02/22-rdf-syntax-ns#"
   xmlns:svg="http://www.w3.org/2000/svg"
   xmlns="http://www.w3.org/2000/svg"
   xmlns:sodipodi="http://sodipodi.sourceforge.net/DTD/sodipodi-0.dtd"
   xmlns:inkscape="http://www.inkscape.org/namespaces/inkscape"
   id="svg4189"
   version="1.1"
   inkscape:version="0.48.0 r9654"
   width="300"
   height="241.25"
   xml:space="preserve"
   sodipodi:docname="Cube.pdf"><metadata
     id="metadata4195"><rdf:RDF><cc:Work
         rdf:about=""><dc:format>image/svg+xml</dc:format><dc:type
           rdf:resource="http://purl.org/dc/dcmitype/StillImage" /><dc:title></dc:title></cc:Work></rdf:RDF></metadata><defs
     id="defs4193"><clipPath
       clipPathUnits="userSpaceOnUse"
       id="clipPath4205"><path
         d="M 0,0 240,0 240,193 0,193 0,0 z"
         id="path4207" /></clipPath></defs><sodipodi:namedview
     pagecolor="#ffffff"
     bordercolor="#666666"
     borderopacity="1"
     objecttolerance="10"
     gridtolerance="10"
     guidetolerance="10"
     inkscape:pageopacity="0"
     inkscape:pageshadow="2"
     inkscape:window-width="640"
     inkscape:window-height="480"
     id="namedview4191"
     showgrid="false"
     inkscape:zoom="1.0860104"
     inkscape:cx="150"
     inkscape:cy="120.625"
     inkscape:window-x="0"
     inkscape:window-y="0"
     inkscape:window-maximized="0"
     inkscape:current-layer="g4197" /><g
     id="g4197"
     inkscape:groupmode="layer"
     inkscape:label="Cube"
     transform="matrix(1.25,0,0,-1.25,0,241.25)"><g
       id="g4199" /><g
       id="g4201"><g
         id="g4203"
         clip-path="url(#clipPath4205)"><path
           d="m 4.8,62.208 0,57.6 m 0,-57.6 57.6,0 m -57.6,57.6 57.6,0 m 0,-115.2 0,57.6 m 0,-57.6 57.6,0 m -57.6,57.6 0,57.6 m 0,-57.6 57.6,0 m -57.6,57.6 0,57.6 m 0,-57.6 57.6,0 m -57.6,57.6 57.6,0 m 0,-172.8 0,115.2 m 0,-57.6 57.6,0 m -57.6,57.6 0,57.6 m 0,-57.6 57.6,0 m 0,-57.6 0,57.6 m 0,-57.6 57.6,0 m -57.6,57.6 57.6,0 m 0,-57.6 0,57.6"
           style="fill:none;stroke:#000000;stroke-opacity:1;stroke-width:0.4;stroke-linecap:square;stroke-linejoin:miter;stroke-miterlimit:3.25;stroke-dasharray:none"
           id="path4209" /><text
           transform="matrix(1,0,0,-1,109.868,184.016)"
           id="text4211"><tspan
             style="fill:#000000;fill-opacity:1;fill-rule:nonzero;stroke:none;font-family:Times;font-variant:normal;font-weight:normal;font-size:9.6;writing-mode:lr;-inkscape-font-specification:Times-Roman"
             x="0 6.4032 11.2032 16.0032"
             y="0"
             sodipodi:role="line"
             id="tspan4213">Cube</tspan></text>
</g></g></g></svg>