<?xml version="1.0" encoding="UTF-8" standalone="no"?>
<!-- Created with Inkscape (http://www.inkscape.org/) -->

<svg
   xmlns:dc="http://purl.org/dc/elements/1.1/"
   xmlns:cc="http://creativecommons.org/ns#"
   xmlns:rdf="http://www.w3.org/1999/02/22-rdf-syntax-ns#"
   xmlns:svg="http://www.w3.org/2000/svg"
   xmlns="http://www.w3.org/2000/svg"
   xmlns:sodipodi="http://sodipodi.sourceforge.net/DTD/sodipodi-0.dtd"
   xmlns:inkscape="http://www.inkscape.org/namespaces/inkscape"
   id="svg4322"
   version="1.1"
   inkscape:version="0.48.0 r9654"
   width="300"
   height="187.5"
   xml:space="preserve"
   sodipodi:docname="Cuboctahedron.pdf"><metadata
     id="metadata4328"><rdf:RDF><cc:Work
         rdf:about=""><dc:format>image/svg+xml</dc:format><dc:type
           rdf:resource="http://purl.org/dc/dcmitype/StillImage" /><dc:title></dc:title></cc:Work></rdf:RDF></metadata><defs
     id="defs4326"><clipPath
       clipPathUnits="userSpaceOnUse"
       id="clipPath4338"><path
         d="M 0,0 240,0 240,150 0,150 0,0 z"
         id="path4340" /></clipPath></defs><sodipodi:namedview
     pagecolor="#ffffff"
     bordercolor="#666666"
     borderopacity="1"
     objecttolerance="10"
     gridtolerance="10"
     guidetolerance="10"
     inkscape:pageopacity="0"
     inkscape:pageshadow="2"
     inkscape:window-width="640"
     inkscape:window-height="480"
     id="namedview4324"
     showgrid="false"
     inkscape:zoom="1.3973333"
     inkscape:cx="150"
     inkscape:cy="93.75"
     inkscape:window-x="0"
     inkscape:window-y="0"
     inkscape:window-maximized="0"
     inkscape:current-layer="g4330" /><g
     id="g4330"
     inkscape:groupmode="layer"
     inkscape:label="Cuboctahedron"
     transform="matrix(1.25,0,0,-1.25,0,187.5)"><g
       id="g4332" /><g
       id="g4334"><g
         id="g4336"
         clip-path="url(#clipPath4338)"><path
           d="M 4.8,76.694 24.116,43.239 M 4.8,76.694 38.256,96.01 M 4.8,115.325 38.256,96.01 M 4.8,115.325 38.256,134.641 M 24.116,43.239 57.571,62.554 m -19.315,33.456 0,38.631 m 0,-38.631 19.315,-33.456 m -19.315,33.456 38.631,0 m -38.631,38.631 38.631,0 M 57.571,23.923 91.027,4.608 M 57.571,23.923 91.027,43.239 M 57.571,62.554 76.887,96.01 M 57.571,62.554 91.027,43.239 m -14.14,52.771 0,38.631 m 0,-38.631 33.455,-19.316 m -33.455,19.316 33.455,19.315 m -33.455,19.316 33.455,-19.316 M 91.027,4.608 l 0,38.631 m 0,-38.631 38.631,0 m -38.631,38.631 19.315,33.455 m -19.315,-33.455 38.631,0 m -19.316,33.455 19.316,-33.455 m -19.316,33.455 33.456,19.316 m -14.14,-91.402 0,38.631 m 0,-38.631 33.455,19.315 m -33.455,19.316 33.455,-19.316 m -33.455,19.316 33.455,19.315 M 143.798,96.01 163.113,62.554 m -19.315,33.456 38.631,0 M 163.113,62.554 182.429,96.01 M 163.113,62.554 196.569,43.239 m -14.14,52.771 33.455,-19.316 m -19.315,-33.455 19.315,33.455 m -19.315,-33.455 38.631,0 M 215.884,76.694 235.2,43.239"
           style="fill:none;stroke:#000000;stroke-opacity:1;stroke-width:0.4;stroke-linecap:square;stroke-linejoin:miter;stroke-miterlimit:3.25;stroke-dasharray:none"
           id="path4342" /><text
           transform="matrix(1,0,0,-1,90.675,141.249)"
           id="text4344"><tspan
             style="fill:#000000;fill-opacity:1;fill-rule:nonzero;stroke:none;font-family:Times;font-variant:normal;font-weight:normal;font-size:9.6;writing-mode:lr;-inkscape-font-specification:Times-Roman"
             x="0 6.4032 11.2032 16.0032 20.8032 25.0656 27.7344 31.9968 36.7968 41.0592 45.8592 49.056 53.856"
             y="0"
             sodipodi:role="line"
             id="tspan4346">Cuboctahedron</tspan></text>
</g></g></g></svg>