<?xml version="1.0" encoding="UTF-8" standalone="no"?>
<!-- Created with Inkscape (http://www.inkscape.org/) -->

<svg
   xmlns:dc="http://purl.org/dc/elements/1.1/"
   xmlns:cc="http://creativecommons.org/ns#"
   xmlns:rdf="http://www.w3.org/1999/02/22-rdf-syntax-ns#"
   xmlns:svg="http://www.w3.org/2000/svg"
   xmlns="http://www.w3.org/2000/svg"
   xmlns:sodipodi="http://sodipodi.sourceforge.net/DTD/sodipodi-0.dtd"
   xmlns:inkscape="http://www.inkscape.org/namespaces/inkscape"
   id="svg4601"
   version="1.1"
   inkscape:version="0.48.0 r9654"
   width="300"
   height="196.25"
   xml:space="preserve"
   sodipodi:docname="GreatRhombicosidodecahedron.pdf"><metadata
     id="metadata4607"><rdf:RDF><cc:Work
         rdf:about=""><dc:format>image/svg+xml</dc:format><dc:type
           rdf:resource="http://purl.org/dc/dcmitype/StillImage" /><dc:title></dc:title></cc:Work></rdf:RDF></metadata><defs
     id="defs4605"><clipPath
       clipPathUnits="userSpaceOnUse"
       id="clipPath4617"><path
         d="M 0,0 240,0 240,157 0,157 0,0 z"
         id="path4619" /></clipPath></defs><sodipodi:namedview
     pagecolor="#ffffff"
     bordercolor="#666666"
     borderopacity="1"
     objecttolerance="10"
     gridtolerance="10"
     guidetolerance="10"
     inkscape:pageopacity="0"
     inkscape:pageshadow="2"
     inkscape:window-width="640"
     inkscape:window-height="480"
     id="namedview4603"
     showgrid="false"
     inkscape:zoom="1.3350318"
     inkscape:cx="150"
     inkscape:cy="98.125"
     inkscape:window-x="0"
     inkscape:window-y="0"
     inkscape:window-maximized="0"
     inkscape:current-layer="g4609" /><g
     id="g4609"
     inkscape:groupmode="layer"
     inkscape:label="GreatRhombicosidodecahedron"
     transform="matrix(1.25,0,0,-1.25,0,196.25)"><g
       id="g4611" /><g
       id="g4613"><g
         id="g4615"
         clip-path="url(#clipPath4617)"><path
           d="M 4.8,57.023 7.673,48.18 M 4.8,57.023 7.673,65.866 m 0,-17.686 7.523,-5.466 m -7.523,23.152 7.523,5.466 m -4.649,8.053 4.649,-8.053 m -4.649,8.053 4.649,8.052 m -4.649,17.352 4.649,-8.053 m -4.649,8.053 4.649,8.052 m 0,-70.127 9.298,0 m -9.298,28.618 9.298,0 m -9.298,16.105 0,9.299 m 0,-9.299 9.298,0 m -9.298,9.299 9.298,0 m -9.298,16.105 9.298,0 m 0,-76.211 4.65,-8.053 m -4.65,8.053 8.053,4.649 m -8.053,1.435 7.523,5.466 m -7.523,23.152 4.65,8.053 m -4.65,-8.053 7.523,-5.466 m -7.523,5.466 8.053,-4.649 m -8.053,20.754 0,9.299 m 0,-9.299 4.65,-8.052 m -4.65,17.351 4.65,8.053 m -4.65,8.052 4.65,-8.052 m -4.65,8.052 8.053,4.65 M 26.8,89.044 29.674,80.201 m -2.874,8.843 2.874,8.844 m -0.53,-69.311 8.052,4.649 m -8.052,46.159 8.052,-4.65 m -8.052,30.054 8.052,4.649 m -7.522,-29.237 7.522,-5.466 m -7.522,23.153 7.522,5.465 M 32.017,48.18 34.89,57.023 m -2.873,8.843 2.873,-8.843 m -2.343,-15.744 4.649,-8.053 m -4.649,8.053 4.649,8.053 m -4.649,17.351 4.649,-8.053 m -4.649,8.053 4.649,8.052 m -4.649,42.756 4.649,-8.053 m 0,-76.212 9.299,0 m -9.299,16.106 0,9.298 m 0,-9.298 9.299,0 m -9.299,9.298 9.299,0 m -9.299,16.105 9.299,0 m -9.299,28.618 9.299,0 m 0,-70.127 4.649,8.053 m -4.649,8.053 0,9.298 m 0,-9.298 4.649,-8.053 m -4.649,17.351 4.649,8.053 m -4.649,8.052 4.649,-8.052 m -4.649,8.052 7.522,5.466 m -7.522,-5.466 8.053,4.65 m -8.053,23.968 7.522,-5.465 M 48.801,57.023 51.674,48.18 m -2.873,8.843 2.873,8.843 m -2.873,61.284 2.873,-8.843 m -2.873,8.843 2.873,8.844 m -0.53,-69.311 8.053,4.649 M 51.674,48.18 59.197,42.714 m -7.523,23.152 7.523,5.466 m -7.523,46.975 7.523,-5.466 m -7.523,23.153 7.523,5.465 m -5.18,-61.258 2.874,8.843 m -2.874,8.844 2.874,-8.844"
           style="fill:none;stroke:#000000;stroke-opacity:1;stroke-width:0.4;stroke-linecap:square;stroke-linejoin:miter;stroke-miterlimit:3.25;stroke-dasharray:none"
           id="path4621" /><path
           d="m 54.548,79.385 4.649,-8.053 m -4.649,8.053 4.649,8.052 m -4.649,17.352 4.649,-8.053 m -4.649,8.053 4.649,8.052 m 0,-70.127 9.298,0 m -9.298,28.618 9.298,0 m -9.298,16.105 0,9.299 m 0,-9.299 9.298,0 m -9.298,9.299 9.298,0 m -9.298,16.105 9.298,0 m -9.298,28.618 9.298,0 m 0,-104.829 4.649,-8.053 m -4.649,8.053 8.053,4.649 m -8.053,1.435 7.523,5.466 m -7.523,23.152 4.649,8.053 m -4.649,-8.053 7.523,-5.466 m -7.523,5.466 8.053,-4.649 m -8.053,20.754 0,9.299 m 0,-9.299 4.649,-8.052 m -4.649,17.351 4.649,8.053 m -4.649,8.052 4.649,-8.052 m -4.649,8.052 7.523,5.466 m -7.523,-5.466 8.053,4.65 m -8.053,23.968 7.523,-5.465 m -5.217,-46.95 2.874,-8.843 m -2.874,8.843 2.874,8.844 m -0.531,-69.311 8.053,4.649 m -8.053,46.159 8.053,-4.65 m -8.053,30.054 8.053,4.649 m -7.522,-29.237 7.522,-5.466 m -7.522,23.153 7.522,5.465 m -5.179,-55.173 2.873,8.843 m -2.873,8.843 2.873,-8.843 m -2.873,61.284 2.873,8.843 m -2.873,8.844 2.873,-8.844 m -2.343,-85.871 4.649,-8.053 m -4.649,8.053 4.649,8.053 m -4.649,17.351 4.649,-8.053 m -4.649,8.053 4.649,8.052 m -4.649,42.756 4.649,-8.053 m 0,-76.212 9.299,0 m -9.299,16.106 0,9.298 m 0,-9.298 9.299,0 m -9.299,9.298 9.299,0 m -9.299,16.105 9.299,0 m -9.299,28.618 9.299,0 m 0,-70.127 4.649,8.053 m -4.649,8.053 0,9.298 m 0,-9.298 4.649,-8.053 m -4.649,17.351 4.649,8.053 m -4.649,8.052 4.649,-8.052 m -4.649,8.052 7.522,5.466 m -7.522,-5.466 8.052,4.65 m -8.052,23.968 7.522,-5.465 M 92.802,57.023 95.675,48.18 m -2.873,8.843 2.873,8.843 m -0.53,0.817 8.053,4.649 m -7.523,-23.152 7.523,-5.466 m -7.523,23.152 7.523,5.466 m -5.18,8.869 2.874,8.843 m -2.874,8.844 2.874,-8.844 m -2.344,-9.659 4.65,-8.053 m -4.65,8.053 4.65,8.052 m -4.65,17.352 4.65,-8.053"
           style="fill:none;stroke:#000000;stroke-opacity:1;stroke-width:0.4;stroke-linecap:square;stroke-linejoin:miter;stroke-miterlimit:3.25;stroke-dasharray:none"
           id="path4623" /><path
           d="m 98.548,104.789 4.65,8.052 m 0,-70.127 9.298,0 m -9.298,28.618 9.298,0 m -9.298,16.105 0,9.299 m 0,-9.299 9.298,0 m -9.298,9.299 9.298,0 m -9.298,16.105 9.298,0 m 0,-76.211 4.649,-8.053 m -4.649,8.053 8.053,4.649 m -8.053,1.435 7.523,5.466 m -7.523,23.152 4.649,8.053 m -4.649,-8.053 7.523,-5.466 m -7.523,5.466 8.053,-4.649 m -8.053,20.754 0,9.299 m 0,-9.299 4.649,-8.052 m -4.649,17.351 4.649,8.053 m -4.649,8.052 4.649,-8.052 m -4.649,8.052 8.053,4.65 m -5.747,-28.447 2.873,-8.843 m -2.873,8.843 2.873,8.844 m -0.53,-69.311 8.053,4.649 m -8.053,46.159 8.053,-4.65 m -8.053,30.054 8.053,4.649 m -7.523,-29.237 7.523,-5.466 m -7.523,23.153 7.523,5.465 m -5.179,-55.173 2.873,8.843 m -2.873,8.843 2.873,-8.843 m -2.343,-15.744 4.649,-8.053 m -4.649,8.053 4.649,8.053 m -4.649,17.351 4.649,-8.053 m -4.649,8.053 4.649,8.052 m -4.649,42.756 4.649,-8.053 m 0,-76.212 9.298,0 m -9.298,16.106 0,9.298 m 0,-9.298 9.298,0 m -9.298,9.298 9.298,0 m -9.298,16.105 9.298,0 m -9.298,28.618 9.298,0 m 0,-70.127 4.65,8.053 m -4.65,8.053 0,9.298 m 0,-9.298 4.65,-8.053 m -4.65,17.351 4.65,8.053 m -4.65,8.052 4.65,-8.052 m -4.65,8.052 7.523,5.466 m -7.523,-5.466 8.053,4.65 m -8.053,23.968 7.523,-5.465 m -5.217,-40.865 2.874,-8.843 m -2.874,8.843 2.874,8.843 m -0.53,0.817 8.052,4.649 m -7.522,-23.152 7.522,-5.466 m -7.522,23.152 7.522,5.466 m -5.179,8.869 2.873,8.843 m -2.873,8.844 2.873,-8.844 m -2.343,-9.659 4.649,-8.053 m -4.649,8.053 4.649,8.052 m -4.649,17.352 4.649,-8.053 m -4.649,8.053 4.649,8.052 m 0,-70.127 9.299,0 m -9.299,28.618 9.299,0 m -9.299,16.105 0,9.299 m 0,-9.299 9.299,0 m -9.299,9.299 9.299,0 m -9.299,16.105 9.299,0 m 0,-76.211 4.649,-8.053"
           style="fill:none;stroke:#000000;stroke-opacity:1;stroke-width:0.4;stroke-linecap:square;stroke-linejoin:miter;stroke-miterlimit:3.25;stroke-dasharray:none"
           id="path4625" /><path
           d="m 156.497,36.63 8.053,4.649 m -8.053,1.435 7.522,5.466 m -7.522,23.152 4.649,8.053 m -4.649,-8.053 7.522,-5.466 m -7.522,5.466 8.053,-4.649 m -8.053,20.754 0,9.299 m 0,-9.299 4.649,-8.052 m -4.649,17.351 4.649,8.053"
           style="fill:none;stroke:#000000;stroke-opacity:1;stroke-width:0.4;stroke-linecap:square;stroke-linejoin:miter;stroke-miterlimit:3.25;stroke-dasharray:none"
           id="path4627" /><path
           d="m 156.497,112.841 4.649,-8.052 m -4.649,8.052 8.053,4.65 m -5.747,-98.574 2.873,-8.843 m -2.873,8.843 2.873,8.844 m -2.873,61.283 2.873,-8.843 m -2.873,8.843 2.873,8.844 m -0.53,-69.311 8.053,4.649 m -8.053,46.159 8.053,-4.65 m -8.053,30.054 8.053,4.649 m -7.523,-99.364 7.523,-5.466 m -7.523,23.153 7.523,5.465 m -7.523,46.975 7.523,-5.466 m -7.523,23.153 7.523,5.465 m -5.18,-55.173 2.874,8.843 m -2.874,8.843 2.874,-8.843 m -2.343,-15.744 4.649,-8.053 m -4.649,8.053 4.649,8.053 m -4.649,17.351 4.649,-8.053 m -4.649,8.053 4.649,8.052 m -4.649,42.756 4.649,-8.053 m 0,-104.83 9.298,0 m -9.298,28.618 9.298,0 m -9.298,16.106 0,9.298 m 0,-9.298 9.298,0 m -9.298,9.298 9.298,0 m -9.298,16.105 9.298,0 m -9.298,28.618 9.298,0 m 0,-98.745 7.523,5.466 m -7.523,23.152 4.649,8.053 m -4.649,-8.053 7.523,-5.465 m -7.523,21.571 0,9.298 m 0,-9.298 4.649,-8.053 m -4.649,17.351 4.649,8.053 m -4.649,8.052 4.649,-8.052 m -4.649,8.052 7.523,5.466 m -7.523,-5.466 8.053,4.65 m -8.053,23.968 7.523,-5.465 m -5.217,-40.865 2.874,-8.843 m -2.874,8.843 2.874,8.843 m -0.531,0.817 8.053,4.649 m -7.522,-23.152 7.522,-5.466 m -7.522,23.152 7.522,5.466 m -5.179,-61.258 2.873,8.843 m -2.873,8.844 2.873,-8.844 m -2.873,61.284 2.873,8.843 m -2.873,8.844 2.873,-8.844 m -2.343,-9.659 4.649,-8.053 m -4.649,8.053 4.649,8.052 m -4.649,17.352 4.649,-8.053 m -4.649,8.053 4.649,8.052 m 0,-70.127 9.299,0 m -9.299,28.618 9.299,0 m -9.299,16.105 0,9.299 m 0,-9.299 9.299,0 m -9.299,9.299 9.299,0 m -9.299,16.105 9.299,0 m 0,-76.211 4.649,-8.053 m -4.649,8.053 8.052,4.649 m -8.052,1.435 7.522,5.466 m -7.522,23.152 4.649,8.053 m -4.649,-8.053 7.522,-5.466 m -7.522,5.466 8.052,-4.649 m -8.052,20.754 0,9.299 m 0,-9.299 4.649,-8.052"
           style="fill:none;stroke:#000000;stroke-opacity:1;stroke-width:0.4;stroke-linecap:square;stroke-linejoin:miter;stroke-miterlimit:3.25;stroke-dasharray:none"
           id="path4629" /><path
           d="m 200.498,96.736 4.649,8.053 m -4.649,8.052 4.649,-8.052 m -4.649,8.052 8.052,4.65 m -5.746,-28.447 2.873,-8.843 m -2.873,8.843 2.873,8.844 m -0.53,-69.311 8.053,4.649 m -8.053,46.159 8.053,-4.65 m -8.053,30.054 8.053,4.649 m -7.523,-29.237 7.523,-5.466 m -7.523,23.153 7.523,5.465 m -5.18,-55.173 2.874,8.843 m -2.874,8.843 2.874,-8.843 m -2.344,-15.744 4.65,-8.053 m -4.65,8.053 4.65,8.053 m -4.65,17.351 4.65,-8.053 m -4.65,8.053 4.65,8.052 m -4.65,42.756 4.65,-8.053 m 0,-76.212 9.298,0 m -9.298,16.106 0,9.298 m 0,-9.298 9.298,0 m -9.298,9.298 9.298,0 m -9.298,16.105 9.298,0 m -9.298,28.618 9.298,0 m 0,-70.127 4.649,8.053 m -4.649,8.053 0,9.298 m 0,-9.298 4.649,-8.053 m -4.649,17.351 4.649,8.053 m -4.649,8.052 4.649,-8.052 m -4.649,8.052 7.523,5.466 m -7.523,-5.466 8.053,4.65 m -8.053,23.968 7.523,-5.465 m -2.874,-31.205 8.053,4.649 m -5.179,8.869 2.873,8.843 m -2.873,8.844 2.873,-8.844 m -2.343,-9.659 4.649,-8.053"
           style="fill:none;stroke:#000000;stroke-opacity:1;stroke-width:0.4;stroke-linecap:square;stroke-linejoin:miter;stroke-miterlimit:3.25;stroke-dasharray:none"
           id="path4631" /><text
           transform="matrix(1,0,0,-1,59.22,148.067)"
           id="text4633"><tspan
             style="fill:#000000;fill-opacity:1;fill-rule:nonzero;stroke:none;font-family:Times;font-variant:normal;font-weight:normal;font-size:9.6;writing-mode:lr;-inkscape-font-specification:Times-Roman"
             x="0 6.9312 10.128 14.3904 18.6528 21.3216 27.7248 32.5248 37.3248 44.7936 49.5936 52.2624 56.5248 61.3248 65.0592 67.728 72.528 77.328 82.128 86.3904 90.6528 94.9152 99.7152 103.9776 108.7776 111.9744 116.7744"
             y="0"
             sodipodi:role="line"
             id="tspan4635">GreatRhombicosidodecahedron</tspan></text>
</g></g></g></svg>