<?xml version="1.0" encoding="UTF-8" standalone="no"?>
<!-- Created with Inkscape (http://www.inkscape.org/) -->

<svg
   xmlns:dc="http://purl.org/dc/elements/1.1/"
   xmlns:cc="http://creativecommons.org/ns#"
   xmlns:rdf="http://www.w3.org/1999/02/22-rdf-syntax-ns#"
   xmlns:svg="http://www.w3.org/2000/svg"
   xmlns="http://www.w3.org/2000/svg"
   xmlns:sodipodi="http://sodipodi.sourceforge.net/DTD/sodipodi-0.dtd"
   xmlns:inkscape="http://www.inkscape.org/namespaces/inkscape"
   id="svg4798"
   version="1.1"
   inkscape:version="0.48.0 r9654"
   width="300"
   height="183.75"
   xml:space="preserve"
   sodipodi:docname="Icosidodecahedron.pdf"><metadata
     id="metadata4804"><rdf:RDF><cc:Work
         rdf:about=""><dc:format>image/svg+xml</dc:format><dc:type
           rdf:resource="http://purl.org/dc/dcmitype/StillImage" /><dc:title></dc:title></cc:Work></rdf:RDF></metadata><defs
     id="defs4802"><clipPath
       clipPathUnits="userSpaceOnUse"
       id="clipPath4814"><path
         d="M 0,0 240,0 240,147 0,147 0,0 z"
         id="path4816" /></clipPath></defs><sodipodi:namedview
     pagecolor="#ffffff"
     bordercolor="#666666"
     borderopacity="1"
     objecttolerance="10"
     gridtolerance="10"
     guidetolerance="10"
     inkscape:pageopacity="0"
     inkscape:pageshadow="2"
     inkscape:window-width="640"
     inkscape:window-height="480"
     id="namedview4800"
     showgrid="false"
     inkscape:zoom="1.4258503"
     inkscape:cx="150"
     inkscape:cy="91.875"
     inkscape:window-x="0"
     inkscape:window-y="0"
     inkscape:window-maximized="0"
     inkscape:current-layer="g4806" /><g
     id="g4806"
     inkscape:groupmode="layer"
     inkscape:label="Icosidodecahedron"
     transform="matrix(1.25,0,0,-1.25,0,183.75)"><g
       id="g4808" /><g
       id="g4810"><g
         id="g4812"
         clip-path="url(#clipPath4814)"><path
           d="M 4.8,54.845 18.218,36.377 M 4.8,54.845 27.503,57.231 m -14.031,24.302 9.284,20.854 M 13.472,81.533 30.436,66.259 M 18.218,36.377 27.503,57.231 M 18.218,36.377 35.182,21.102 m -12.426,81.285 13.418,18.468 M 22.756,102.387 45.459,100.001 M 27.503,57.231 50.205,54.845 M 30.436,66.259 50.205,54.845 M 30.436,66.259 50.205,77.672 M 35.182,21.102 54.951,32.516 m -18.777,88.339 9.285,-20.854 m 0,0 4.746,-22.329 m 0,-22.827 0,22.827 m 0,-22.827 4.746,-22.329 m -4.746,22.329 21.71,-7.054 m -21.71,29.881 4.746,22.329 m -4.746,-22.329 21.71,7.055 M 54.951,32.516 71.915,47.791 m -16.964,52.21 9.285,20.854 M 54.951,100.001 71.915,84.727 M 57.884,4.608 62.631,26.937 M 57.884,4.608 79.595,11.662 M 62.631,26.937 71.915,47.791 M 62.631,26.937 79.595,11.662 M 64.236,120.855 86.938,118.469 M 71.915,47.791 85.333,66.259 M 71.915,47.791 94.618,45.405 M 71.915,84.727 85.333,66.259 M 71.915,84.727 91.685,96.14 M 71.915,84.727 94.618,87.113 M 79.595,11.662 99.364,23.076 M 85.333,66.259 94.618,45.405 m -9.285,20.854 9.285,20.854 M 85.333,66.259 102.297,50.984 M 86.938,118.469 91.685,96.14 m -4.747,22.329 21.711,-7.054 M 91.685,96.14 108.649,111.415 M 94.618,45.405 99.364,23.076 M 94.618,87.113 117.32,84.727 M 102.297,50.984 122.066,39.57 m -19.769,11.414 19.769,11.414 m -4.746,22.329 4.746,-22.329 m -4.746,22.329 21.711,-7.055 m -16.965,-38.102 0,22.828 m 0,0 9.285,-20.854 m -9.285,20.854 16.965,15.274 m -7.68,-36.128 22.703,2.386 m -17.957,61.651 9.285,-20.854 m -9.285,20.854 16.965,15.274 M 139.031,77.672 158.8,66.259 M 145.382,17.242 158.8,35.709 M 145.382,17.242 168.085,14.855 M 145.382,84.727 158.8,66.259 m -13.418,18.468 22.703,2.386 m -15.023,33.742 19.769,-11.414 m -19.769,11.414 19.769,11.414 M 154.054,43.93 158.8,66.259 m -4.746,-22.329 21.71,7.054 M 158.8,35.709 168.085,14.855 M 158.8,35.709 175.764,50.984 M 158.8,66.259 168.085,87.113 M 158.8,66.259 175.764,50.984"
           style="fill:none;stroke:#000000;stroke-opacity:1;stroke-width:0.4;stroke-linecap:square;stroke-linejoin:miter;stroke-miterlimit:3.25;stroke-dasharray:none"
           id="path4818" /><path
           d="m 168.085,14.855 22.702,2.387 m -22.702,69.871 4.746,22.328 m -4.746,-22.328 13.417,18.468 m -13.417,-18.468 22.702,-2.386 m -17.956,24.714 0,22.828 m 2.933,-81.285 19.769,-11.414 m -19.769,11.414 19.769,11.414 m -14.031,43.183 9.285,-20.854 m -9.285,20.854 16.965,15.274 m -7.68,-103.613 4.746,22.328 m -4.746,45.157 4.746,-22.329 m -4.746,22.329 21.71,-7.055 m -21.71,7.055 22.703,2.386 m -17.957,-47.543 0,22.828 m 0,0 9.285,-20.854 m -9.285,20.854 16.964,15.274 m -14.03,43.183 19.769,-11.414 M 204.818,41.544 218.236,23.076 m -13.418,18.468 22.703,2.386 m -15.024,33.742 19.77,-11.413 m -18.777,20.854 4.746,22.328 m -4.746,-22.328 21.71,7.054 m -16.964,-71.091 9.285,20.854 m -9.285,65.511 16.964,-15.274 m -7.679,-50.237 4.746,22.329"
           style="fill:none;stroke:#000000;stroke-opacity:1;stroke-width:0.4;stroke-linecap:square;stroke-linejoin:miter;stroke-miterlimit:3.25;stroke-dasharray:none"
           id="path4820" /><text
           transform="matrix(1,0,0,-1,83.749,138.877)"
           id="text4822"><tspan
             style="fill:#000000;fill-opacity:1;fill-rule:nonzero;stroke:none;font-family:Times;font-variant:normal;font-weight:normal;font-size:9.6;writing-mode:lr;-inkscape-font-specification:Times-Roman"
             x="0 3.1968 7.4592 12.2592 15.9936 18.6624 23.4624 28.2624 33.0624 37.3248 41.5872 45.8496 50.6496 54.912 59.712 62.9088 67.7088"
             y="0"
             sodipodi:role="line"
             id="tspan4824">Icosidodecahedron</tspan></text>
</g></g></g></svg>