<?xml version="1.0" encoding="UTF-8" standalone="no"?>
<!-- Created with Inkscape (http://www.inkscape.org/) -->

<svg
   xmlns:dc="http://purl.org/dc/elements/1.1/"
   xmlns:cc="http://creativecommons.org/ns#"
   xmlns:rdf="http://www.w3.org/1999/02/22-rdf-syntax-ns#"
   xmlns:svg="http://www.w3.org/2000/svg"
   xmlns="http://www.w3.org/2000/svg"
   xmlns:sodipodi="http://sodipodi.sourceforge.net/DTD/sodipodi-0.dtd"
   xmlns:inkscape="http://www.inkscape.org/namespaces/inkscape"
   id="svg4826"
   version="1.1"
   inkscape:version="0.48.0 r9654"
   width="300"
   height="238.75"
   xml:space="preserve"
   sodipodi:docname="Octahedron.pdf"><metadata
     id="metadata4832"><rdf:RDF><cc:Work
         rdf:about=""><dc:format>image/svg+xml</dc:format><dc:type
           rdf:resource="http://purl.org/dc/dcmitype/StillImage" /><dc:title></dc:title></cc:Work></rdf:RDF></metadata><defs
     id="defs4830"><clipPath
       clipPathUnits="userSpaceOnUse"
       id="clipPath4842"><path
         d="M 0,0 240,0 240,191 0,191 0,0 z"
         id="path4844" /></clipPath></defs><sodipodi:namedview
     pagecolor="#ffffff"
     bordercolor="#666666"
     borderopacity="1"
     objecttolerance="10"
     gridtolerance="10"
     guidetolerance="10"
     inkscape:pageopacity="0"
     inkscape:pageshadow="2"
     inkscape:window-width="640"
     inkscape:window-height="480"
     id="namedview4828"
     showgrid="false"
     inkscape:zoom="1.0973822"
     inkscape:cx="150"
     inkscape:cy="119.375"
     inkscape:window-x="0"
     inkscape:window-y="0"
     inkscape:window-maximized="0"
     inkscape:current-layer="g4834" /><g
     id="g4834"
     inkscape:groupmode="layer"
     inkscape:label="Octahedron"
     transform="matrix(1.25,0,0,-1.25,0,238.75)"><g
       id="g4836" /><g
       id="g4838"><g
         id="g4840"
         clip-path="url(#clipPath4842)"><path
           d="m 136.457,4.608 -32.914,57.01 m 32.914,-57.01 32.914,57.01 m -131.657,0 65.829,0 m -65.829,0 L 4.8,118.627 m 32.914,-57.009 32.915,57.009 m 32.914,-57.009 65.828,0 m -65.828,0 -32.914,57.009 m 32.914,-57.009 32.914,57.009 m 32.914,-57.009 65.829,0 m -65.829,0 -32.914,57.009 m 32.914,-57.009 32.915,57.009 M 235.2,61.618 202.286,118.627 m -197.486,0 131.657,0 m -65.828,0 32.914,57.009 m 32.914,-57.009 65.829,0 m -65.829,0 -32.914,57.009"
           style="fill:none;stroke:#000000;stroke-opacity:1;stroke-width:0.4;stroke-linecap:square;stroke-linejoin:miter;stroke-miterlimit:3.25;stroke-dasharray:none"
           id="path4846" /><text
           transform="matrix(1,0,0,-1,97.61,182.244)"
           id="text4848"><tspan
             style="fill:#000000;fill-opacity:1;fill-rule:nonzero;stroke:none;font-family:Times;font-variant:normal;font-weight:normal;font-size:9.6;writing-mode:lr;-inkscape-font-specification:Times-Roman"
             x="0 6.9312 11.1936 13.8624 18.1248 22.9248 27.1872 31.9872 35.184 39.984"
             y="0"
             sodipodi:role="line"
             id="tspan4850">Octahedron</tspan></text>
</g></g></g></svg>