<?xml version="1.0" encoding="UTF-8" standalone="no"?>
<!-- Created with Inkscape (http://www.inkscape.org/) -->

<svg
   xmlns:dc="http://purl.org/dc/elements/1.1/"
   xmlns:cc="http://creativecommons.org/ns#"
   xmlns:rdf="http://www.w3.org/1999/02/22-rdf-syntax-ns#"
   xmlns:svg="http://www.w3.org/2000/svg"
   xmlns="http://www.w3.org/2000/svg"
   xmlns:sodipodi="http://sodipodi.sourceforge.net/DTD/sodipodi-0.dtd"
   xmlns:inkscape="http://www.inkscape.org/namespaces/inkscape"
   id="svg4852"
   version="1.1"
   inkscape:version="0.48.0 r9654"
   width="300"
   height="191.25"
   xml:space="preserve"
   sodipodi:docname="SmallRhombicosidodecahedron.pdf"><metadata
     id="metadata4858"><rdf:RDF><cc:Work
         rdf:about=""><dc:format>image/svg+xml</dc:format><dc:type
           rdf:resource="http://purl.org/dc/dcmitype/StillImage" /><dc:title></dc:title></cc:Work></rdf:RDF></metadata><defs
     id="defs4856"><clipPath
       clipPathUnits="userSpaceOnUse"
       id="clipPath4868"><path
         d="M 0,0 240,0 240,153 0,153 0,0 z"
         id="path4870" /></clipPath></defs><sodipodi:namedview
     pagecolor="#ffffff"
     bordercolor="#666666"
     borderopacity="1"
     objecttolerance="10"
     gridtolerance="10"
     guidetolerance="10"
     inkscape:pageopacity="0"
     inkscape:pageshadow="2"
     inkscape:window-width="640"
     inkscape:window-height="480"
     id="namedview4854"
     showgrid="false"
     inkscape:zoom="1.3699346"
     inkscape:cx="150"
     inkscape:cy="95.625"
     inkscape:window-x="0"
     inkscape:window-y="0"
     inkscape:window-maximized="0"
     inkscape:current-layer="g4860" /><g
     id="g4860"
     inkscape:groupmode="layer"
     inkscape:label="SmallRhombicosidodecahedron"
     transform="matrix(1.25,0,0,-1.25,0,191.25)"><g
       id="g4862" /><g
       id="g4864"><g
         id="g4866"
         clip-path="url(#clipPath4868)"><path
           d="M 4.8,90.04 14.248,77.036 M 4.8,90.04 l 9.448,13.005 m -6.67,-59.075 0,16.075 m 0,-16.075 8.037,-13.921 m -8.037,13.921 16.075,0 M 7.578,60.045 15.615,73.966 m -8.037,-13.921 16.075,0 m -9.405,16.991 15.288,4.967 M 14.248,103.045 29.536,98.078 M 15.615,30.049 23.653,43.97 M 15.615,30.049 29.536,22.011 M 15.615,73.966 23.653,60.045 m -8.038,13.921 13.921,8.037 m -13.921,24.112 8.038,13.921 m -8.038,-13.921 13.921,-8.037 m -5.883,-54.108 0,16.075 m 0,-16.075 13.921,-8.037 M 23.653,43.97 38.941,39.003 m -15.288,21.042 13.921,8.037 m -13.921,-8.037 15.288,4.967 m -15.288,55.024 13.921,-8.037 m -8.038,-89.988 8.038,13.922 m -8.038,46.07 0,16.075 m 0,-16.075 8.038,-13.921 m -8.038,13.921 16.075,0 m -16.075,16.075 8.038,13.921 m -8.038,-13.921 16.075,0 M 37.574,68.082 45.611,82.003 M 37.574,68.082 51.495,60.045 m -13.921,51.954 8.037,-13.921 m -6.67,-59.075 9.448,13.004 m -9.448,13.005 9.448,-13.005 m -2.778,29.996 0,16.075 m 0,-16.075 13.921,-8.037 M 48.717,90.04 58.165,77.036 m -9.448,13.004 9.448,13.005 m -6.67,-59.075 0,16.075 m 0,-16.075 8.037,-13.921 m -8.037,13.921 16.075,0 m -16.075,16.075 8.037,13.921 m -8.037,-13.921 16.075,0 m -9.405,16.991 15.288,4.967 M 58.165,103.045 73.453,98.078 M 59.532,30.049 67.57,43.97 M 59.532,30.049 73.453,22.011 M 59.532,73.966 67.57,60.045 m -8.038,13.921 13.921,8.037 m -13.921,24.112 8.038,13.921 M 59.532,106.115 73.453,98.078 M 67.57,43.97 l 0,16.075 m 0,-16.075 13.921,-8.037 M 67.57,43.97 82.858,39.003 M 67.57,60.045 81.491,68.082 M 67.57,60.045 82.858,65.012 m -15.288,55.024 3.342,15.724 m -3.342,-15.724 13.921,-8.037 m -10.579,23.761 15.986,1.68 M 73.453,22.011 81.491,35.933 m -8.038,46.07 0,16.075 m 0,-16.075 8.038,-13.921 m -8.038,13.921 16.075,0 m -16.075,16.075 8.038,13.921 m -8.038,-13.921 16.075,0 m -8.037,-29.996 8.037,13.921"
           style="fill:none;stroke:#000000;stroke-opacity:1;stroke-width:0.4;stroke-linecap:square;stroke-linejoin:miter;stroke-miterlimit:3.25;stroke-dasharray:none"
           id="path4872" /><path
           d="m 81.491,68.082 13.921,-8.037 m -13.921,51.954 8.037,-13.921 m -8.037,13.921 11.946,10.756 M 82.858,39.003 92.306,52.007 m -9.448,13.005 9.448,-13.005 m -5.408,85.433 6.539,-14.685 m -3.909,-40.752 0,16.075 m 0,-16.075 13.921,-8.037 M 92.634,90.04 102.082,77.036 m -9.448,13.004 9.448,13.005 m -6.67,-59.075 0,16.075 m 0,-16.075 8.037,-13.921 m -8.037,13.921 16.075,0 m -16.075,16.075 8.037,13.921 m -8.037,-13.921 16.075,0 m -9.405,16.991 15.288,4.967 m -15.288,21.042 15.288,-4.967 m -13.921,-68.029 8.038,13.921 m -8.038,-13.921 13.921,-8.038 m -13.921,51.955 8.038,-13.921 m -8.038,13.921 13.921,8.037 m -13.921,24.112 8.038,13.921 m -8.038,-13.921 13.921,-8.037 m -5.883,-54.108 0,16.075 m 0,-16.075 13.921,-8.037 m -13.921,8.037 15.288,-4.967 m -15.288,21.042 13.921,8.037 m -13.921,-8.037 15.288,4.967 m -15.288,55.024 13.921,-8.037 m -8.038,-89.988 8.038,13.922 m -8.038,46.07 0,16.075 m 0,-16.075 8.038,-13.921 m -8.038,13.921 16.075,0 m -16.075,16.075 8.038,13.921 m -8.038,-13.921 16.075,0 m -8.037,-29.996 8.037,13.921 m -8.037,-13.921 13.921,-8.037 m -13.921,51.954 8.037,-13.921 m -6.67,-59.075 9.448,13.004 m -9.448,13.005 9.448,-13.005 m -2.778,29.996 0,16.075 m 0,-16.075 13.921,-8.037 m -10.815,16.074 9.448,-13.004 m -9.448,13.004 9.448,13.005 m -6.67,-59.075 0,16.075 m 0,-16.075 8.037,-13.921 m -8.037,13.921 16.074,0 m -16.074,16.075 8.037,13.921 m -8.037,-13.921 16.074,0 m -9.404,16.991 15.288,4.967 m -15.288,21.042 15.288,-4.967 m -13.921,-68.029 8.037,13.921 m -8.037,-13.921 13.921,-8.038 m -13.921,51.955 8.037,-13.921 m -8.037,13.921 13.921,8.037 m -13.921,24.112 8.037,13.921 m -8.037,-13.921 13.921,-8.037 m -5.884,-54.108 0,16.075 m 0,-16.075 13.922,-8.037 m -13.922,8.037 15.288,-4.967 m -15.288,21.042 13.922,8.037 m -13.922,-8.037 15.288,4.967 m -15.288,55.024 13.922,-8.037 m -8.038,-89.988 8.038,13.922"
           style="fill:none;stroke:#000000;stroke-opacity:1;stroke-width:0.4;stroke-linecap:square;stroke-linejoin:miter;stroke-miterlimit:3.25;stroke-dasharray:none"
           id="path4874" /><path
           d="m 161.287,82.003 0,16.075 m 0,-16.075 8.038,-13.921 m -8.038,13.921 16.075,0 m -16.075,16.075 8.038,13.921 m -8.038,-13.921 16.075,0 m -8.037,-29.996 8.037,13.921 m -8.037,-13.921 13.921,-8.037 m -13.921,51.954 8.037,-13.921 m -6.671,-59.075 9.449,13.004 m -9.449,13.005 9.449,-13.005 m -2.778,29.996 0,16.075 m 0,-16.075 13.921,-8.037 M 179.337,19.293 185.875,4.608 m -6.538,14.685 11.946,10.756 m -10.815,59.991 9.448,-13.004 m -9.448,13.004 9.448,13.005 m -6.67,-59.075 0,16.075 m 0,-16.075 8.037,-13.921 m -8.037,13.921 16.074,0 m -16.074,16.075 8.037,13.921 m -8.037,-13.921 16.074,0 m -13.445,-55.437 15.987,1.68 m -11.946,70.748 15.288,4.967 m -15.288,21.042 15.288,-4.967 M 191.283,30.049 199.32,43.97 m -8.037,-13.921 13.921,-8.038 m -13.921,51.955 8.037,-13.921 m -8.037,13.921 13.921,8.037 m -13.921,24.112 8.037,13.921 m -8.037,-13.921 13.921,-8.037 m -5.884,-54.108 0,16.075 m 0,-16.075 13.922,-8.037 m -13.922,8.037 15.288,-4.967 m -15.288,21.042 13.922,8.037 m -13.922,-8.037 15.288,4.967 m -15.288,55.024 13.922,-8.037 m -11.38,-105.711 3.342,15.723 m 0,0 8.038,13.922 m -8.038,46.07 0,16.075 m 0,-16.075 8.038,-13.921 m -8.038,13.921 16.075,0 m -16.075,16.075 8.038,13.921 m -8.038,-13.921 16.075,0 m -8.037,-29.996 8.037,13.921 m -8.037,-13.921 13.921,-8.037 m -13.921,51.954 8.037,-13.921 m -6.671,-59.075 9.449,13.004 m -9.449,13.005 9.449,-13.005 m -2.778,29.996 0,16.075 m 0,-16.075 13.921,-8.037 m -8.037,-13.921 8.037,13.921"
           style="fill:none;stroke:#000000;stroke-opacity:1;stroke-width:0.4;stroke-linecap:square;stroke-linejoin:miter;stroke-miterlimit:3.25;stroke-dasharray:none"
           id="path4876" /><text
           transform="matrix(1,0,0,-1,58.678,144.048)"
           id="text4878"><tspan
             style="fill:#000000;fill-opacity:1;fill-rule:nonzero;stroke:none;font-family:Times;font-variant:normal;font-weight:normal;font-size:9.6;writing-mode:lr;-inkscape-font-specification:Times-Roman"
             x="0 5.3376 12.8064 17.0688 19.7376 22.4064 28.8096 33.6096 38.4096 45.8784 50.6784 53.3472 57.6096 62.4096 66.144 68.8128 73.6128 78.4128 83.2128 87.4752 91.7376 96 100.8 105.0624 109.8624 113.0592 117.8592"
             y="0"
             sodipodi:role="line"
             id="tspan4880">SmallRhombicosidodecahedron</tspan></text>
</g></g></g></svg>