<?xml version="1.0" encoding="UTF-8" standalone="no"?>
<!-- Created with Inkscape (http://www.inkscape.org/) -->

<svg
   xmlns:dc="http://purl.org/dc/elements/1.1/"
   xmlns:cc="http://creativecommons.org/ns#"
   xmlns:rdf="http://www.w3.org/1999/02/22-rdf-syntax-ns#"
   xmlns:svg="http://www.w3.org/2000/svg"
   xmlns="http://www.w3.org/2000/svg"
   xmlns:sodipodi="http://sodipodi.sourceforge.net/DTD/sodipodi-0.dtd"
   xmlns:inkscape="http://www.inkscape.org/namespaces/inkscape"
   id="svg4882"
   version="1.1"
   inkscape:version="0.48.0 r9654"
   width="300"
   height="205"
   xml:space="preserve"
   sodipodi:docname="SmallRhombicuboctahedron.pdf"><metadata
     id="metadata4888"><rdf:RDF><cc:Work
         rdf:about=""><dc:format>image/svg+xml</dc:format><dc:type
           rdf:resource="http://purl.org/dc/dcmitype/StillImage" /><dc:title></dc:title></cc:Work></rdf:RDF></metadata><defs
     id="defs4886"><clipPath
       clipPathUnits="userSpaceOnUse"
       id="clipPath4898"><path
         d="M 0,0 240,0 240,164 0,164 0,0 z"
         id="path4900" /></clipPath></defs><sodipodi:namedview
     pagecolor="#ffffff"
     bordercolor="#666666"
     borderopacity="1"
     objecttolerance="10"
     gridtolerance="10"
     guidetolerance="10"
     inkscape:pageopacity="0"
     inkscape:pageshadow="2"
     inkscape:window-width="640"
     inkscape:window-height="480"
     id="namedview4884"
     showgrid="false"
     inkscape:zoom="1.2780488"
     inkscape:cx="150"
     inkscape:cy="102.5"
     inkscape:window-x="0"
     inkscape:window-y="0"
     inkscape:window-maximized="0"
     inkscape:current-layer="g4890" /><g
     id="g4890"
     inkscape:groupmode="layer"
     inkscape:label="SmallRhombicuboctahedron"
     transform="matrix(1.25,0,0,-1.25,0,205)"><g
       id="g4892" /><g
       id="g4894"><g
         id="g4896"
         clip-path="url(#clipPath4898)"><path
           d="m 4.8,33.408 0,28.8 m 0,-28.8 28.8,0 m -28.8,28.8 0,28.8 m 0,-28.8 28.8,0 m -28.8,28.8 0,28.8 m 0,-28.8 28.8,0 m -28.8,28.8 28.8,0 m 0,-86.4 0,57.6 m 0,-28.8 L 48,37.266 m -14.4,24.942 28.8,0 m -28.8,28.8 0,28.8 m 0,-28.8 14.4,24.942 m -14.4,-24.942 28.8,0 M 48,37.266 62.4,62.208 M 48,115.95 62.4,91.008 m 0,-86.4 0,28.8 m 0,-28.8 28.8,0 m -28.8,28.8 0,28.8 m 0,-28.8 28.8,0 m -28.8,28.8 0,28.8 m 0,-28.8 28.8,0 m -28.8,28.8 0,28.8 m 0,-28.8 28.8,0 m -28.8,28.8 0,28.8 m 0,-28.8 28.8,0 m -28.8,28.8 28.8,0 m 0,-144 0,86.4 m 0,-28.8 14.4,-24.942 m -14.4,24.942 28.8,0 m -28.8,28.8 0,28.8 m 0,-28.8 14.4,24.942 m -14.4,-24.942 28.8,0 m -28.8,28.8 0,28.8 M 105.6,37.266 120,62.208 M 105.6,115.95 120,91.008 m 0,-57.6 0,28.8 m 0,-28.8 28.8,0 m -28.8,28.8 0,28.8 m 0,-28.8 28.8,0 m -28.8,28.8 0,28.8 m 0,-28.8 28.8,0 m -28.8,28.8 28.8,0 m 0,-86.4 0,57.6 m 0,-28.8 14.4,-24.942 m -14.4,24.942 28.8,0 m -28.8,28.8 0,28.8 m 0,-28.8 14.4,24.942 m -14.4,-24.942 28.8,0 m -14.4,-53.742 14.4,24.942 m -14.4,53.742 14.4,-24.942 m 0,-57.6 0,28.8 m 0,-28.8 28.8,0 m -28.8,28.8 0,28.8 m 0,-28.8 28.8,0 m -28.8,28.8 0,28.8 m 0,-28.8 28.8,0 m -28.8,28.8 28.8,0 m 0,-86.4 0,57.6 m 0,-28.8 14.4,-24.942 m -14.4,24.942 28.8,0 m -28.8,28.8 0,28.8 m 0,-28.8 14.4,24.942 m -14.4,-24.942 28.8,0 m -14.4,-53.742 14.4,24.942"
           style="fill:none;stroke:#000000;stroke-opacity:1;stroke-width:0.4;stroke-linecap:square;stroke-linejoin:miter;stroke-miterlimit:3.25;stroke-dasharray:none"
           id="path4902" /><path
           d="m 220.8,115.95 14.4,-24.942 m 0,-28.8 0,28.8"
           style="fill:none;stroke:#000000;stroke-opacity:1;stroke-width:0.4;stroke-linecap:square;stroke-linejoin:miter;stroke-miterlimit:3.25;stroke-dasharray:none"
           id="path4904" /><text
           transform="matrix(1,0,0,-1,65.077,155.216)"
           id="text4906"><tspan
             style="fill:#000000;fill-opacity:1;fill-rule:nonzero;stroke:none;font-family:Times;font-variant:normal;font-weight:normal;font-size:9.6;writing-mode:lr;-inkscape-font-specification:Times-Roman"
             x="0 5.3376 12.8064 17.0688 19.7376 22.4064 28.8096 33.6096 38.4096 45.8784 50.6784 53.3472 57.6096 62.4096 67.2096 72.0096 76.272 78.9408 83.2032 88.0032 92.2656 97.0656 100.2624 105.0624"
             y="0"
             sodipodi:role="line"
             id="tspan4908">SmallRhombicuboctahedron</tspan></text>
</g></g></g></svg>