<?xml version="1.0" encoding="UTF-8" standalone="no"?>
<!-- Created with Inkscape (http://www.inkscape.org/) -->

<svg
   xmlns:dc="http://purl.org/dc/elements/1.1/"
   xmlns:cc="http://creativecommons.org/ns#"
   xmlns:rdf="http://www.w3.org/1999/02/22-rdf-syntax-ns#"
   xmlns:svg="http://www.w3.org/2000/svg"
   xmlns="http://www.w3.org/2000/svg"
   xmlns:sodipodi="http://sodipodi.sourceforge.net/DTD/sodipodi-0.dtd"
   xmlns:inkscape="http://www.inkscape.org/namespaces/inkscape"
   id="svg4938"
   version="1.1"
   inkscape:version="0.48.0 r9654"
   width="300"
   height="256.25"
   xml:space="preserve"
   sodipodi:docname="SnubDodecahedron.pdf"><metadata
     id="metadata4944"><rdf:RDF><cc:Work
         rdf:about=""><dc:format>image/svg+xml</dc:format><dc:type
           rdf:resource="http://purl.org/dc/dcmitype/StillImage" /><dc:title></dc:title></cc:Work></rdf:RDF></metadata><defs
     id="defs4942"><clipPath
       clipPathUnits="userSpaceOnUse"
       id="clipPath4954"><path
         d="M 0,0 240,0 240,205 0,205 0,0 z"
         id="path4956" /></clipPath></defs><sodipodi:namedview
     pagecolor="#ffffff"
     bordercolor="#666666"
     borderopacity="1"
     objecttolerance="10"
     gridtolerance="10"
     guidetolerance="10"
     inkscape:pageopacity="0"
     inkscape:pageshadow="2"
     inkscape:window-width="640"
     inkscape:window-height="480"
     id="namedview4940"
     showgrid="false"
     inkscape:zoom="1.022439"
     inkscape:cx="150"
     inkscape:cy="128.125"
     inkscape:window-x="0"
     inkscape:window-y="0"
     inkscape:window-maximized="0"
     inkscape:current-layer="g4946" /><g
     id="g4946"
     inkscape:groupmode="layer"
     inkscape:label="SnubDodecahedron"
     transform="matrix(1.25,0,0,-1.25,0,256.25)"><g
       id="g4948" /><g
       id="g4950"><g
         id="g4952"
         clip-path="url(#clipPath4954)"><path
           d="m 4.8,138.512 6.473,-14.54 m -6.473,14.54 11.827,10.649 m -5.354,-25.189 15.828,1.664 m -10.474,23.525 13.783,-7.958 m -13.783,7.958 13.783,7.958 m -3.309,-31.483 3.309,15.567 m 0,0 0,15.916 m 0,-15.916 13.783,-7.957 m -13.783,7.957 13.783,7.958 m -13.783,7.958 13.783,-7.958 m -13.783,7.958 13.783,7.957 m 0,-47.745 13.783,-7.958 m -13.783,7.958 13.783,7.957 m -13.783,7.958 0,31.83 m 0,-15.915 13.783,7.958 m -13.783,7.957 0,15.916 m 0,-15.916 13.783,-7.957 m -13.783,7.957 13.783,7.958 m -13.783,7.958 13.783,-7.958 M 46.149,146.469 52.622,131.93 m -6.473,14.539 11.827,10.65 m -5.354,-25.189 15.828,1.664 m -10.474,-24.221 0,15.915 m 0,-15.915 13.783,-7.958 m -13.783,7.958 13.783,7.958 m -13.783,7.957 13.783,-7.957 m -13.783,7.957 13.783,7.958 m -13.783,23.873 0,15.915 m 0,-15.915 13.783,-7.958 m -13.783,7.958 13.783,7.957 m -13.783,7.958 3.309,15.567 m -3.309,-15.567 13.783,-7.958 m -10.474,23.525 15.828,1.664 m -8.663,-56.671 3.309,15.567 m 0,-63.661 13.783,-7.958 M 71.759,85.5 85.542,93.458 m -13.783,7.957 0,31.831 m 0,-15.915 13.783,7.957 m -13.783,7.958 0,15.915 m 0,-15.915 13.783,-7.958 m -13.783,7.958 13.783,7.957 m -13.783,7.958 0,15.915 m 0,-15.915 13.783,-7.958 m -13.783,7.958 13.783,7.958 m -13.783,7.957 11.828,10.65 m -11.828,-10.65 13.783,-7.957 m -13.783,7.957 13.783,7.958 m -11.827,-58.395 6.473,-14.54 m -6.473,14.54 11.827,10.649 m -8.429,64.977 6.474,-14.539 m -3.399,-75.627 15.828,1.664 m -10.474,-24.221 0,15.916 m 0,-15.916 13.783,-7.957 M 85.542,77.542 99.325,85.5 M 85.542,93.458 99.325,85.5 m -13.783,7.958 13.783,7.957 m -13.783,23.873 0,15.915 m 0,-15.915 13.783,-7.957 m -13.783,7.957 13.783,7.958 m -13.783,7.957 0,15.916 m 0,-15.916 3.309,15.568 m -3.309,-15.568 13.783,-7.957 m -13.783,23.873 0,15.915 m 0,-15.915 13.783,7.957"
           style="fill:none;stroke:#000000;stroke-opacity:1;stroke-width:0.4;stroke-linecap:square;stroke-linejoin:miter;stroke-miterlimit:3.25;stroke-dasharray:none"
           id="path4958" /><path
           d="m 85.542,173.034 0,15.915 m 0,-15.915 13.783,-7.958 m -13.783,7.958 13.783,7.958 m -13.783,7.957 13.783,-7.957 m -10.474,-24.221 15.828,1.663 m -8.663,-56.671 3.309,15.568 m 0,-63.662 13.783,-7.957 m -13.783,7.957 13.783,7.958 m -13.783,7.958 0,31.83 m 0,-15.915 13.783,7.958 m -13.783,7.957 0,15.916 m 0,-15.916 13.783,-7.957 m -13.783,7.957 13.783,7.958 m -13.783,7.958 0,15.915 m 0,-15.915 13.783,-7.958 m -13.783,7.958 13.783,7.957 m -13.783,7.958 11.828,10.649 m -11.828,-10.649 13.783,-7.958 m -13.783,7.958 13.783,7.957 m -13.783,23.873 0,15.916 m 0,-15.916 13.783,7.958 m -13.783,7.958 13.783,-7.958 m -11.827,-90.226 6.473,-14.539 m -6.473,14.539 11.827,10.65 m -8.429,64.976 6.474,-14.539 m -3.399,-75.626 15.829,1.664 m -10.475,-24.221 0,15.915 m 0,-15.915 13.784,-7.958 m -13.784,7.958 13.784,7.957 m -13.784,7.958 13.784,-7.958 m -13.784,7.958 13.784,7.958 m -13.784,23.873 0,15.915 m 0,-15.915 13.784,-7.958 m -13.784,7.958 13.784,7.957 m -13.784,7.958 0,15.915 m 0,-15.915 3.309,15.567 m -3.309,-15.567 13.784,-7.958 m -13.784,23.873 0,15.915 m 0,-15.915 13.784,7.958 m -13.784,7.957 0,15.916 m 0,-15.916 13.784,-7.957 m -13.784,7.957 13.784,7.958 m -13.784,7.958 13.784,-7.958 m -10.475,-24.221 15.829,1.664 m -8.663,-56.671 3.309,15.567 m 0,-63.661 13.783,-7.958 m -13.783,7.958 13.783,7.958 m -13.783,7.957 0,31.831 m 0,-15.916 13.783,7.958 m -13.783,7.958 0,15.915 m 0,-15.915 13.783,-7.958 m -13.783,7.958 13.783,7.957 m -13.783,7.958 0,15.915 m 0,-15.915 13.783,-7.958 m -13.783,7.958 13.783,7.958 m -13.783,7.957 11.827,10.65 m -11.827,-10.65 13.783,-7.957 m -13.783,7.957 13.783,7.958 m -13.783,23.873 0,15.915 m 0,-15.915 13.783,7.957 m -13.783,7.958 13.783,-7.958 m -11.828,-90.225 6.474,-14.54 m -6.474,14.54 11.828,10.649 m -8.429,64.977 6.473,-14.539"
           style="fill:none;stroke:#000000;stroke-opacity:1;stroke-width:0.4;stroke-linecap:square;stroke-linejoin:miter;stroke-miterlimit:3.25;stroke-dasharray:none"
           id="path4960" /><path
           d="m 135.321,36.438 15.828,1.664 m -10.474,-24.221 0,15.916 m 0,-15.916 13.783,-7.957 m -13.783,7.957 13.783,7.958 m -13.783,7.958 13.783,-7.958 m -13.783,7.958 13.783,7.957 m -13.783,23.873 0,15.915 m 0,-15.915 13.783,-7.958 m -13.783,7.958 13.783,7.958 m -13.783,7.957 0,15.916 m 0,-15.916 3.309,15.568 m -3.309,-15.568 13.783,-7.957 m -13.783,23.873 0,15.915 m 0,-15.915 13.783,7.957 m -13.783,7.958 0,15.915 m 0,-15.915 13.783,-7.958 m -13.783,7.958 13.783,7.958 m -13.783,7.957 13.783,-7.957 m -10.474,-24.221 15.828,1.663 m -8.663,-56.671 3.309,15.567 m 0,-47.745 0,31.83 m 0,-15.915 13.783,7.958 m -13.783,7.957 0,15.915 m 0,-15.915 13.783,-7.957 m -13.783,7.957 13.783,7.958 m -13.783,7.957 0,15.916 m 0,-15.916 13.783,-7.957 m -13.783,7.957 13.783,7.958 m -13.783,7.958 11.827,10.649 m -11.827,-10.649 13.783,-7.958 m -13.783,7.958 13.783,7.957 m -13.783,23.873 0,15.916 m 0,-15.916 13.783,7.958 m -13.783,7.958 13.783,-7.958 M 156.413,19.147 162.887,4.608 m -6.474,14.539 11.828,10.65 m -8.429,64.976 6.473,-14.539 m -3.398,-75.626 15.828,1.663 m -10.474,23.526 0,15.915 m 0,-15.915 13.783,-7.958 m -13.783,7.958 13.783,7.957 m -13.783,7.958 0,15.915 m 0,-15.915 3.309,15.567 m -3.309,-15.567 13.783,-7.958 m -13.783,23.873 0,15.915 m 0,-15.915 13.783,7.958 m -13.783,7.957 0,15.916 m 0,-15.916 13.783,-7.957 m -13.783,7.957 13.783,7.958 m -13.783,7.958 13.783,-7.958 m -10.474,-24.221 15.828,1.664 m -8.663,-56.672 3.309,15.568 m 0,0 0,15.915 m 0,-15.915 13.783,-7.958 m -13.783,7.958 13.783,7.958 m -13.783,7.957 11.827,10.65 m -11.827,-10.65 13.783,-7.957 m -13.783,7.957 13.783,7.958 m -13.783,23.873 0,15.915 m 0,-15.915 13.783,7.957 m -13.783,7.958 13.783,-7.958 m -8.429,-14.599 6.473,-14.539 m 1.956,-34.523 0,31.831 m 0,-15.915 13.783,7.957"
           style="fill:none;stroke:#000000;stroke-opacity:1;stroke-width:0.4;stroke-linecap:square;stroke-linejoin:miter;stroke-miterlimit:3.25;stroke-dasharray:none"
           id="path4962" /><path
           d="m 195.807,45.712 0,15.915 m 0,-15.915 13.783,-7.958"
           style="fill:none;stroke:#000000;stroke-opacity:1;stroke-width:0.4;stroke-linecap:square;stroke-linejoin:miter;stroke-miterlimit:3.25;stroke-dasharray:none"
           id="path4964" /><path
           d="m 195.807,45.712 13.783,7.957 m -13.783,7.958 13.783,-7.958 m 0,-15.915 0,15.915 m 0,-15.915 13.783,7.958 m -13.783,7.957 3.309,15.568 m -3.309,-15.568 13.783,-7.957 m -10.474,23.525 15.828,1.664 M 223.373,45.712 235.2,56.361 m -6.473,14.54 6.473,-14.54"
           style="fill:none;stroke:#000000;stroke-opacity:1;stroke-width:0.4;stroke-linecap:square;stroke-linejoin:miter;stroke-miterlimit:3.25;stroke-dasharray:none"
           id="path4966" /><text
           transform="matrix(1,0,0,-1,82.144,196.873)"
           id="text4968"><tspan
             style="fill:#000000;fill-opacity:1;fill-rule:nonzero;stroke:none;font-family:Times;font-variant:normal;font-weight:normal;font-size:9.6;writing-mode:lr;-inkscape-font-specification:Times-Roman"
             x="0 5.3376 10.1376 14.9376 19.7376 26.6688 31.4688 36.2688 40.5312 44.7936 49.056 53.856 58.1184 62.9184 66.1152 70.9152"
             y="0"
             sodipodi:role="line"
             id="tspan4970">SnubDodecahedron</tspan></text>
</g></g></g></svg>