<?xml version="1.0" encoding="UTF-8" standalone="no"?>
<!-- Created with Inkscape (http://www.inkscape.org/) -->

<svg
   xmlns:dc="http://purl.org/dc/elements/1.1/"
   xmlns:cc="http://creativecommons.org/ns#"
   xmlns:rdf="http://www.w3.org/1999/02/22-rdf-syntax-ns#"
   xmlns:svg="http://www.w3.org/2000/svg"
   xmlns="http://www.w3.org/2000/svg"
   xmlns:sodipodi="http://sodipodi.sourceforge.net/DTD/sodipodi-0.dtd"
   xmlns:inkscape="http://www.inkscape.org/namespaces/inkscape"
   id="svg5084"
   version="1.1"
   inkscape:version="0.48.0 r9654"
   width="300"
   height="208.75"
   xml:space="preserve"
   sodipodi:docname="TruncatedOctahedron.pdf"><metadata
     id="metadata5090"><rdf:RDF><cc:Work
         rdf:about=""><dc:format>image/svg+xml</dc:format><dc:type
           rdf:resource="http://purl.org/dc/dcmitype/StillImage" /><dc:title></dc:title></cc:Work></rdf:RDF></metadata><defs
     id="defs5088"><clipPath
       clipPathUnits="userSpaceOnUse"
       id="clipPath5100"><path
         d="M 0,0 240,0 240,167 0,167 0,0 z"
         id="path5102" /></clipPath></defs><sodipodi:namedview
     pagecolor="#ffffff"
     bordercolor="#666666"
     borderopacity="1"
     objecttolerance="10"
     gridtolerance="10"
     guidetolerance="10"
     inkscape:pageopacity="0"
     inkscape:pageshadow="2"
     inkscape:window-width="640"
     inkscape:window-height="480"
     id="namedview5086"
     showgrid="false"
     inkscape:zoom="1.2550898"
     inkscape:cx="150"
     inkscape:cy="104.375"
     inkscape:window-x="0"
     inkscape:window-y="0"
     inkscape:window-maximized="0"
     inkscape:current-layer="g5092" /><g
     id="g5092"
     inkscape:groupmode="layer"
     inkscape:label="TruncatedOctahedron"
     transform="matrix(1.25,0,0,-1.25,0,208.75)"><g
       id="g5094" /><g
       id="g5096"><g
         id="g5098"
         clip-path="url(#clipPath5100)"><path
           d="M 4.8,67.618 16.926,46.615 M 4.8,67.618 16.926,88.622 m 0,-42.007 24.253,0 m -24.253,42.007 0,24.252 m 0,-24.252 24.253,0 m -24.253,24.252 24.253,0 m 0,-66.259 12.126,21.003 m -12.126,21.004 0,24.252 m 0,-24.252 12.126,-21.004 m -12.126,21.004 12.126,21.003 m 0,-66.259 0,24.252 m 0,-24.252 24.253,0 m -24.253,24.252 24.253,0 m -24.253,42.007 24.253,0 m 0,-84.013 L 89.684,4.608 M 77.558,25.612 89.684,46.615 m -12.126,-3.249 0,24.252 m 0,0 12.126,-21.003 M 77.558,67.618 89.684,88.622 M 77.558,109.625 89.684,88.622 m 0,-84.014 24.253,0 m -24.253,42.007 24.253,0 m -24.253,42.007 0,24.252 m 0,-24.252 24.253,0 m -24.253,24.252 24.253,0 m 0,-108.266 12.126,21.004 m -12.126,21.003 12.126,-21.003 m -12.126,21.003 12.126,21.003 m -12.126,21.004 0,24.252 m 0,-24.252 12.126,-21.004 m -12.126,21.004 12.126,21.003 m -12.126,21.004 12.126,-21.004 m -12.126,21.004 12.126,21.003 m 0,-108.266 0,24.252 m 0,-24.252 24.253,0 m -24.253,24.252 24.253,0 m -24.253,42.007 24.253,0 m -24.253,42.007 24.253,0 m 0,-108.266 0,24.252 m 0,0 12.126,-21.003 m -12.126,21.003 12.126,21.004 m -12.126,21.003 12.126,-21.003 m -12.126,21.003 12.126,21.004 m -12.126,21.003 12.126,-21.003 m 0,-84.014 24.253,0 m -24.253,42.007 0,24.252 m 0,-24.252 24.253,0 m -24.253,24.252 24.253,0 m 0,-66.259 12.126,21.003 m -12.126,21.004 0,24.252 m 0,-24.252 12.126,-21.004 m -12.126,21.004 12.126,21.003 m 0,-66.259 0,24.252 m 0,-24.252 24.253,0 m -24.253,24.252 24.253,0 m -24.253,42.007 24.253,0 m 0,-66.259 0,24.252 m 0,0 12.126,21.004 M 223.074,109.625 235.2,88.622"
           style="fill:none;stroke:#000000;stroke-opacity:1;stroke-width:0.4;stroke-linecap:square;stroke-linejoin:miter;stroke-miterlimit:3.25;stroke-dasharray:none"
           id="path5104" /><text
           transform="matrix(1,0,0,-1,78.155,158.24)"
           id="text5106"><tspan
             style="fill:#000000;fill-opacity:1;fill-rule:nonzero;stroke:none;font-family:Times;font-variant:normal;font-weight:normal;font-size:9.6;writing-mode:lr;-inkscape-font-specification:Times-Roman"
             x="0 5.8656 9.0624 13.8624 18.6624 22.9248 27.1872 29.856 34.1184 38.9184 45.8496 50.112 52.7808 57.0432 61.8432 66.1056 70.9056 74.1024 78.9024"
             y="0"
             sodipodi:role="line"
             id="tspan5108">TruncatedOctahedron</tspan></text>
</g></g></g></svg>