<?xml version="1.0" encoding="UTF-8" standalone="no"?>
<!-- Created with Inkscape (http://www.inkscape.org/) -->

<svg
   xmlns:dc="http://purl.org/dc/elements/1.1/"
   xmlns:cc="http://creativecommons.org/ns#"
   xmlns:rdf="http://www.w3.org/1999/02/22-rdf-syntax-ns#"
   xmlns:svg="http://www.w3.org/2000/svg"
   xmlns="http://www.w3.org/2000/svg"
   xmlns:sodipodi="http://sodipodi.sourceforge.net/DTD/sodipodi-0.dtd"
   xmlns:inkscape="http://www.inkscape.org/namespaces/inkscape"
   id="svg5024"
   version="1.1"
   inkscape:version="0.48.0 r9654"
   width="300"
   height="303.75"
   xml:space="preserve"
   sodipodi:docname="TruncatedDodecahedron.pdf"><metadata
     id="metadata5030"><rdf:RDF><cc:Work
         rdf:about=""><dc:format>image/svg+xml</dc:format><dc:type
           rdf:resource="http://purl.org/dc/dcmitype/StillImage" /><dc:title></dc:title></cc:Work></rdf:RDF></metadata><defs
     id="defs5028"><clipPath
       clipPathUnits="userSpaceOnUse"
       id="clipPath5040"><path
         d="M 0,0 240,0 240,243 0,243 0,0 z"
         id="path5042" /></clipPath></defs><sodipodi:namedview
     pagecolor="#ffffff"
     bordercolor="#666666"
     borderopacity="1"
     objecttolerance="10"
     gridtolerance="10"
     guidetolerance="10"
     inkscape:pageopacity="0"
     inkscape:pageshadow="2"
     inkscape:window-width="640"
     inkscape:window-height="480"
     id="namedview5026"
     showgrid="false"
     inkscape:zoom="0.86255144"
     inkscape:cx="150"
     inkscape:cy="151.875"
     inkscape:window-x="0"
     inkscape:window-y="0"
     inkscape:window-maximized="0"
     inkscape:current-layer="g5032" /><g
     id="g5032"
     inkscape:groupmode="layer"
     inkscape:label="TruncatedDodecahedron"
     transform="matrix(1.25,0,0,-1.25,0,303.75)"><g
       id="g5034" /><g
       id="g5036"><g
         id="g5038"
         clip-path="url(#clipPath5040)"><path
           d="m 160.856,4.608 14.736,0 m -14.736,0 -11.922,8.661 m 26.658,-8.661 11.922,8.661 m -38.58,0 -4.553,14.015 m 43.133,-14.015 14.413,3.064 m -14.413,-3.064 4.553,14.015 m 9.86,-10.951 -9.86,10.951 m -66.976,-4.1 -7.368,12.762 m 7.368,-12.762 7.368,12.762 m 11.922,-8.662 4.553,14.015 m 43.133,-14.015 -4.553,14.015 m -69.791,-5.353 14.736,0 m -14.736,0 -11.921,8.661 m 26.657,-8.661 11.922,8.661 m 59.608,-8.661 14.736,0 m -14.736,0 -11.922,8.661 m 26.658,-8.661 11.921,8.661 m -81.712,-3.308 11.922,8.661 m 26.658,-8.661 -11.922,8.661 m -28.198,-5.993 13.462,5.993 m -13.462,-5.993 1.54,14.655 m 40.12,-14.655 -13.462,5.993 m 13.462,-5.993 -1.54,14.655 m -81.712,-14.015 -4.554,14.015 m 43.133,-14.015 4.553,14.015 m 43.133,-14.015 -4.553,14.015 m 43.132,-14.015 4.554,14.015 m -74.344,-8.662 14.736,0 m -14.736,0 -11.922,8.662 m 26.658,-8.662 11.922,8.662 m -86.266,0 4.554,14.015 m 43.132,-14.015 -4.553,14.015 m 43.133,-14.015 4.553,14.015 M 235.2,58.622 230.646,72.637 m -124.844,0 11.921,8.661 m 26.658,-8.661 -11.922,8.661 m 11.922,-8.661 -9.861,10.951 m 9.861,-10.951 4.553,14.014 m 43.133,-14.014 11.922,8.661 m -11.922,-8.661 9.86,10.951 m -9.86,-10.951 -4.553,14.014 m 43.132,-14.014 -11.921,8.661 m 11.921,-8.661 1.541,14.655 m -114.464,-5.994 14.736,0 m 71.53,0 14.736,0 m 0,0 13.462,5.994 m -97.667,-3.704 14.414,3.063 m 52.993,-3.063 -14.413,3.063 m -53.316,0 14.736,0 m -14.736,0 -11.921,8.662 m 26.657,-8.662 11.922,8.662 m 26.658,-8.662 14.735,0 m -14.735,0 -11.922,8.662 m 26.657,-8.662 11.922,8.662 M 65.948,94.672 52.486,100.666 m 13.462,-5.994 -1.54,14.656 m 57.869,-14.015 -14.414,3.064 m 14.414,-3.064 -4.554,14.015 m 43.133,-14.015 14.736,0 m -14.736,0 7.368,12.762 m -7.368,-12.762 4.554,14.015 m 10.182,-14.015 -7.368,12.762 m 7.368,-12.762 -4.554,14.015 m 43.133,-14.015 4.554,14.015"
           style="fill:none;stroke:#000000;stroke-opacity:1;stroke-width:0.4;stroke-linecap:square;stroke-linejoin:miter;stroke-miterlimit:3.25;stroke-dasharray:none"
           id="path5044" /><path
           d="m 107.863,98.377 9.86,10.951 m -79.972,-8.662 14.735,0 m -14.735,0 -11.922,8.662 m 26.657,-8.662 11.922,8.662 m 26.658,-8.662 14.736,0 m -14.736,0 -11.922,8.662 m 26.658,-8.662 11.921,8.662 m -91.894,0 -4.554,14.014 m 43.133,-14.014 4.554,14.014 m 10.182,-14.014 -4.554,14.014 m 43.133,-14.014 4.554,14.014 m 43.133,-14.014 -4.554,14.014 m 10.182,-14.014 4.554,14.014 m 43.133,-14.014 -4.554,14.014 m -192.896,0 4.554,14.015 m 43.133,-14.015 -4.554,14.015 m 10.182,-14.015 4.554,14.015 m 43.133,-14.015 11.921,8.662 m -11.921,-8.662 9.86,10.951 m -9.86,-10.951 -4.554,14.015 m 43.133,-14.015 -11.922,8.662 m 26.658,-8.662 11.922,8.662 m -11.922,-8.662 -1.54,14.655 m 40.119,-14.655 -11.922,8.662 m -130.473,-7.409 -7.368,12.762 m 7.368,-12.762 7.368,12.762 m 55.054,-5.353 14.736,0 m 38.58,0 14.735,0 m -14.735,0 -13.462,5.993 m -41.915,-3.704 -14.414,3.064 m -91.894,0 11.922,8.662 m 26.657,-8.662 14.736,0 m -14.736,0 -11.922,8.662 m 26.658,-8.662 11.922,8.662 m 26.657,-8.662 -11.921,8.662 m -97.989,-0.641 13.462,5.994 m -13.462,-5.994 1.541,14.655 m 28.397,-14.014 14.735,0 m 0,0 -14.413,3.063 m 14.413,-3.063 -4.553,14.014 m 43.133,-14.014 14.736,0 m -14.736,0 14.414,3.063 m -14.414,-3.063 4.553,14.014 m -57.546,-10.951 9.86,10.951 m 57.547,-10.951 -9.861,10.951 m -74.344,-8.661 14.736,0 m -14.736,0 -11.921,8.661 m 26.657,-8.661 11.922,8.661 m 59.608,-8.661 14.736,0 m -14.736,0 -11.922,8.661 m 26.658,-8.661 11.921,8.661 m -124.844,0 -4.554,14.015 m 43.133,-14.015 4.553,14.015 m 43.133,-14.015 -4.553,14.015 m 43.132,-14.015 4.554,14.015 m -133.952,0 4.554,14.015 m 43.132,-14.015 11.922,8.661 m -11.922,-8.661 -4.553,14.015 m 4.553,-14.015 -1.54,14.655 m 40.12,-14.655 -11.922,8.661 m 11.922,-8.661 4.553,14.015 m -4.553,-14.015 1.54,14.655 m 46.146,-14.655 -4.554,14.015 m -69.79,-5.354 14.736,0"
           style="fill:none;stroke:#000000;stroke-opacity:1;stroke-width:0.4;stroke-linecap:square;stroke-linejoin:miter;stroke-miterlimit:3.25;stroke-dasharray:none"
           id="path5046" /><path
           d="m 64.408,182.709 -13.462,5.994 m 13.462,-5.994 -11.922,8.662 m 26.658,-8.662 13.462,5.994 m -13.462,-5.994 11.922,8.662 m -81.712,-3.308 11.921,8.661 m 26.658,-8.661 -11.922,8.661 m 59.608,-8.661 11.922,8.661 m 26.657,-8.661 -11.921,8.661 m -69.791,-5.353 -4.553,14.015 m 43.133,-14.015 4.553,14.015 m -74.344,-8.662 14.736,0 m 71.53,0 14.736,0 m -14.736,0 7.368,12.762 m 7.368,-12.762 -7.368,12.762 m -66.976,-4.1 -9.86,10.951 m 9.86,-10.951 4.553,14.014 M 95.619,205.386 91.066,219.4 m -52.993,-3.063 14.413,3.063 m 0,0 11.922,8.662 m 26.658,-8.662 -11.922,8.662 m -14.736,0 14.736,0"
           style="fill:none;stroke:#000000;stroke-opacity:1;stroke-width:0.4;stroke-linecap:square;stroke-linejoin:miter;stroke-miterlimit:3.25;stroke-dasharray:none"
           id="path5048" /><text
           transform="matrix(1,0,0,-1,72.558,234.67)"
           id="text5050"><tspan
             style="fill:#000000;fill-opacity:1;fill-rule:nonzero;stroke:none;font-family:Times;font-variant:normal;font-weight:normal;font-size:9.6;writing-mode:lr;-inkscape-font-specification:Times-Roman"
             x="0 5.8656 9.0624 13.8624 18.6624 22.9248 27.1872 29.856 34.1184 38.9184 45.8496 50.6496 55.4496 59.712 63.9744 68.2368 73.0368 77.2992 82.0992 85.296 90.096"
             y="0"
             sodipodi:role="line"
             id="tspan5052">TruncatedDodecahedron</tspan></text>
</g></g></g></svg>